<svg width="66" height="66" viewBox="0 0 66 66" fill="none" xmlns="http://www.w3.org/2000/svg">
<g clip-path="url(#clip0_1591_25875)">
<path d="M49.7225 54.8987C46.3574 54.8987 43.2344 53.1343 39.7117 49.4092C38.7383 48.3799 38.7837 46.7565 39.8124 45.7837C40.8416 44.8109 42.465 44.8557 43.4379 45.8849C47.8151 50.5134 50.005 50.1292 52.4124 49.1458C53.7241 48.6105 55.2206 49.2395 55.7559 50.5502C56.2917 51.8619 55.6627 53.3584 54.3515 53.8942C52.7256 54.5583 51.2004 54.8987 49.7225 54.8987Z" fill="#495059"/>
<path d="M25.7848 65.0329C24.1271 65.0329 22.7233 63.7564 22.5923 62.0761C22.257 57.7653 22.3914 54.5477 23.0576 50.9691C23.3814 49.2283 25.0546 48.0793 26.7954 48.404C28.5361 48.7278 29.6842 50.4016 29.3604 52.1418C28.7969 55.1706 28.6912 57.8162 28.9843 61.5786C29.1217 63.3435 27.8019 64.8853 26.037 65.0228C25.9525 65.0299 25.8679 65.0329 25.7848 65.0329Z" fill="#DDAF89"/>
<path d="M40.392 65.0329C40.3084 65.0329 40.2243 65.0299 40.1397 65.0233C38.3748 64.8859 37.055 63.3435 37.1925 61.5786C37.4851 57.8162 37.3798 55.1706 36.8164 52.1423C36.4926 50.4016 37.6407 48.7278 39.3814 48.4041C41.1211 48.0803 42.7954 49.2289 43.1192 50.9691C43.7848 54.5477 43.9198 57.7653 43.5844 62.0761C43.4535 63.7564 42.0496 65.0329 40.392 65.0329Z" fill="#DDAF89"/>
<path d="M61.5235 31.2485C59.8075 30.8155 58.0642 31.8543 57.6302 33.5708C57.2933 34.9037 56.5612 35.9818 55.5259 36.7698C55.1759 37.0362 54.6734 36.9365 54.4514 36.5573C53.8954 35.6071 52.8657 34.9692 51.6854 34.9692C50.2654 34.9692 49.0615 35.8926 48.6405 37.1721C48.4562 37.7336 47.8782 38.073 47.3011 37.9471C47.2296 37.9315 47.1581 37.9154 47.0866 37.8987C45.3615 37.4979 43.5462 38.5574 43.1494 40.2835C42.7552 41.9985 43.8192 43.7131 45.5342 44.1199C47.1868 44.5112 48.8012 44.7061 50.3526 44.7061C52.7731 44.7061 55.0395 44.2317 57.0541 43.2891C60.5145 41.6707 62.9264 38.7774 63.8454 35.1424C64.2794 33.4258 63.2401 31.6826 61.5235 31.2485Z" fill="#DDAF89"/>
<path d="M23.0274 40.283C22.6306 38.5569 20.8154 37.4974 19.0902 37.8983C19.0182 37.9149 18.9472 37.931 18.8757 37.9466C18.2982 38.073 17.7206 37.7331 17.5363 37.1717C17.1154 35.8927 15.9114 34.9687 14.4914 34.9687C13.3111 34.9687 12.2814 35.6072 11.725 36.5568C11.5029 36.9365 11.0004 37.0362 10.651 36.7698C9.61568 35.9813 8.88354 34.9032 8.54667 33.5709C8.10859 31.8387 6.33715 30.7954 4.60599 31.2611C2.90604 31.7178 1.91407 33.5583 2.36172 35.2607C3.30283 38.8399 5.69967 41.6879 9.12272 43.2891C11.1374 44.2318 13.4033 44.7061 15.8243 44.7061C17.3752 44.7061 18.99 44.5112 20.6422 44.1195C22.3577 43.7131 23.4212 41.9986 23.0274 40.283Z" fill="#DDAF89"/>
<path d="M50.5298 40.852C50.5298 39.0625 50.2056 37.3409 49.6084 35.7336C49.1653 36.1107 48.8259 36.6062 48.6401 37.1717C48.4553 37.7331 47.8777 38.073 47.3007 37.9466C47.2292 37.931 47.1576 37.9149 47.0861 37.8983C45.361 37.4975 43.5453 38.5569 43.149 40.283C42.7547 41.9981 43.8182 43.7126 45.5337 44.1195C47.067 44.4831 48.5671 44.6749 50.0147 44.7006C50.3506 43.4679 50.5298 42.1789 50.5298 40.852Z" fill="#D1A582"/>
<path d="M43.1191 50.9691C42.7954 49.2284 41.1211 48.0798 39.3814 48.4041C37.6411 48.7279 36.4926 50.4016 36.8164 52.1418C37.0817 53.5689 37.2444 54.9113 37.3128 56.3252C39.5919 55.8051 41.6951 54.8745 43.522 53.6238C43.4202 52.7466 43.2868 51.8689 43.1191 50.9691Z" fill="#D1A582"/>
<path d="M26.7954 48.4041C25.0546 48.0793 23.3814 49.2284 23.0576 50.9691C22.8899 51.8689 22.756 52.7466 22.6548 53.6238C24.4816 54.8746 26.5849 55.8051 28.8639 56.3253C28.9324 54.9113 29.095 53.5689 29.3604 52.1419C29.6842 50.4016 28.5356 48.7279 26.7954 48.4041Z" fill="#D1A582"/>
<path d="M19.0902 37.8988C19.0182 37.9154 18.9472 37.9315 18.8757 37.9471C18.2981 38.073 17.7206 37.7331 17.5363 37.1722C17.35 36.6067 17.0106 36.1112 16.568 35.7336C15.9708 37.3409 15.6465 39.0625 15.6465 40.852C15.6465 42.1789 15.8257 43.4679 16.1611 44.7006C17.6088 44.6749 19.1093 44.4831 20.6421 44.1195C22.3576 43.7126 23.4211 41.9981 23.0273 40.283C22.6306 38.5569 20.8153 37.4975 19.0902 37.8988Z" fill="#D1A582"/>
<path d="M48.7145 40.852C48.7145 33.0472 41.7184 26.7202 33.0877 26.7202C24.4576 26.7202 17.4609 33.0472 17.4609 40.852C17.4609 48.6568 24.4576 54.9843 33.0877 54.9843C41.7184 54.9843 48.7145 48.6568 48.7145 40.852Z" fill="#DDAF89"/>
<path d="M47.2019 31.7783C43.3725 34.9561 38.4534 36.867 33.0882 36.867C27.723 36.867 22.8045 34.9561 18.9746 31.7783C18.1603 32.8332 17.4811 33.9807 16.9664 35.2033C16.265 36.8685 16.9121 38.7986 18.47 39.713C22.7596 42.2312 27.7552 43.6758 33.0882 43.6758C38.4217 43.6758 43.4173 42.2312 47.7064 39.713C49.2649 38.7986 49.9114 36.8685 49.21 35.2033C48.6954 33.9807 48.0166 32.8332 47.2019 31.7783Z" fill="#7F9AE6"/>
<path d="M25.971 35.6963C23.3924 34.8201 21.0267 33.4812 18.9743 31.7783C18.1601 32.8332 17.4813 33.9807 16.9662 35.2033C16.2653 36.8685 16.9118 38.7986 18.4703 39.713C20.7005 41.0222 23.123 42.0383 25.6835 42.7151C24.7439 40.8299 25.0102 37.9995 25.971 35.6963Z" fill="#5E78BF"/>
<path d="M26.7967 12.1927C26.1149 12.1927 25.4271 11.9852 24.8334 11.5537L20.717 8.5637C18.9148 7.2545 16.4837 7.36326 14.8054 8.82856L12.11 11.1816C10.7182 12.3966 8.60486 12.2536 7.38983 10.8618C6.17479 9.47006 6.3178 7.35672 7.70957 6.14168L10.4045 3.78814C12.3482 2.09172 14.8382 1.09371 17.4158 0.977899C19.9934 0.862589 22.5619 1.63401 24.6491 3.15016L28.7655 6.14067C30.2605 7.2263 30.5918 9.3185 29.5062 10.8135C28.8516 11.7143 27.8314 12.1927 26.7967 12.1927Z" fill="#495059"/>
<path d="M39.3792 12.1926C38.3444 12.1926 37.3242 11.7143 36.6696 10.8135C35.584 9.31845 35.9153 7.22625 37.4103 6.14062L41.5267 3.15011C43.6144 1.63396 46.184 0.863546 48.7606 0.977849C51.3382 1.09366 53.8277 2.09167 55.7713 3.78809L58.4668 6.14163C59.8585 7.35667 60.0015 9.47001 58.7865 10.8618C57.571 12.2536 55.4576 12.3966 54.0658 11.1815L51.3709 8.82851C49.6926 7.36321 47.2615 7.25445 45.4589 8.56365L41.3424 11.5537C40.7493 11.9852 40.0609 12.1926 39.3792 12.1926Z" fill="#495059"/>
<path d="M33.0878 38.6893C50.0711 38.6893 57.7244 30.9096 55.3361 19.9552C52.7691 8.18297 44.6837 1.7392 33.0878 1.7392C21.4923 1.7392 13.407 8.18297 10.84 19.9552C8.45118 30.9096 16.105 38.6893 33.0878 38.6893Z" fill="#DDAF89"/>
<path d="M37.453 44.2263C37.453 46.6372 35.4988 48.5914 33.0878 48.5914C30.6774 48.5914 28.7227 46.6372 28.7227 44.2263C28.7227 41.8153 30.6774 39.8611 33.0878 39.8611C35.4988 39.8611 37.453 41.8153 37.453 44.2263Z" fill="#F6E06A"/>
<path d="M24.6016 19.0473C24.6016 16.9803 22.4979 15.3051 19.9026 15.3051C17.3074 15.3051 15.2036 16.9803 15.2036 19.0473C15.2036 21.1139 17.3074 22.7891 19.9026 22.7891C22.4979 22.7891 24.6016 21.1139 24.6016 19.0473Z" fill="#FFDBDB"/>
<path d="M50.9727 19.0473C50.9727 16.9803 48.869 15.3051 46.2737 15.3051C43.6785 15.3051 41.5747 16.9803 41.5747 19.0473C41.5747 21.1139 43.6785 22.7891 46.2737 22.7891C48.869 22.7891 50.9727 21.1139 50.9727 19.0473Z" fill="#FFDBDB"/>
<path d="M48.4384 22.9819C46.74 20.9678 44.2132 20.1616 41.8511 20.5619C40.3481 20.8167 38.8108 20.493 37.5706 19.6062C36.3072 18.7029 34.7598 18.1711 33.0886 18.1711C31.4163 18.1711 29.8695 18.7029 28.6061 19.6062C27.3659 20.493 25.8286 20.8167 24.3255 20.5619C21.9634 20.1616 19.4367 20.9678 17.7387 22.9819C15.5644 25.5601 15.5453 29.3915 17.6944 31.9902C18.1315 32.5189 18.6249 32.9656 19.1577 33.3312C20.2907 34.1086 21.1311 35.2511 21.5077 36.5724C22.9458 41.6144 27.5849 45.3063 33.0886 45.3063C38.5917 45.3063 43.2303 41.6144 44.6689 36.5724C45.0456 35.2511 45.886 34.1081 47.0189 33.3312C47.5517 32.9656 48.0452 32.5189 48.4822 31.9902C50.6313 29.392 50.6122 25.5601 48.4384 22.9819Z" fill="#825F42"/>
<path d="M35.5525 15.9541C33.9371 15.5311 32.2397 15.5311 30.6238 15.9541C29.9546 16.1293 29.372 16.5407 28.9828 17.1127C28.4576 17.8851 28.7597 18.9446 29.6132 19.3242L31.9809 20.3771C32.6858 20.6908 33.491 20.6908 34.1964 20.3771L36.5636 19.3242C37.4171 18.9446 37.7192 17.8851 37.194 17.1127C36.8048 16.5407 36.2217 16.1293 35.5525 15.9541Z" fill="#495059"/>
<path d="M21.6745 13.6544V15.3141C21.6745 15.8479 22.1071 16.2809 22.6413 16.2809C23.1751 16.2809 23.6081 15.8479 23.6081 15.3141V13.6544C23.6081 13.1207 23.1751 12.6877 22.6413 12.6877C22.1071 12.6877 21.6745 13.1207 21.6745 13.6544ZM42.5678 13.6544V15.3141C42.5678 15.8479 43.0009 16.2809 43.5346 16.2809C44.0689 16.2809 44.5014 15.8479 44.5014 15.3141V13.6544C44.5014 13.1207 44.0689 12.6877 43.5346 12.6877C43.0009 12.6877 42.5678 13.1207 42.5678 13.6544ZM61.7597 30.3115C59.53 29.748 57.256 31.104 56.6921 33.3337C56.4368 34.3438 55.9156 35.1852 55.1407 35.8393C54.4745 34.8554 53.414 34.2023 52.2458 34.0417C53.127 33.2411 53.8864 32.3594 54.5208 31.3976C54.8149 30.952 54.692 30.3523 54.2464 30.0582C53.8008 29.7641 53.201 29.887 52.907 30.3326C51.8873 31.8775 50.4784 33.1922 48.6999 34.2698C48.6984 34.2708 48.6964 34.2718 48.6949 34.2728C47.9305 34.7351 47.0977 35.154 46.1973 35.5276C46.5518 34.9833 47.0156 34.5054 47.5655 34.1283C48.1833 33.7043 48.7422 33.1927 49.2266 32.6066C50.4099 31.1755 51.0565 29.3527 51.0474 27.4735C51.0384 25.5948 50.3742 23.7786 49.1768 22.3591C47.3202 20.1566 44.5206 19.1284 41.6892 19.6088C40.453 19.8183 39.2319 19.562 38.2354 18.8897C38.2696 18.8056 38.2999 18.719 38.325 18.6309C38.5254 17.9265 38.4046 17.1747 37.9927 16.5689C37.472 15.8035 36.6926 15.2532 35.7968 15.0185C34.0248 14.5548 32.1512 14.5548 30.3787 15.0185C29.4829 15.2532 28.7034 15.8035 28.1828 16.5694C27.7709 17.1747 27.65 17.9265 27.8504 18.6309C27.8756 18.719 27.9058 18.8056 27.9401 18.8897C26.9436 19.562 25.723 19.8183 24.4863 19.6088C21.6549 19.1284 18.8557 20.1566 16.9987 22.3586C15.8018 23.7781 15.1371 25.5948 15.128 27.4735C15.1185 29.3522 15.765 31.175 16.9488 32.6061C17.4332 33.1922 17.9922 33.7043 18.6105 34.1283C19.1609 34.5059 19.6246 34.9843 19.9796 35.5296C19.1115 35.1696 18.3064 34.7688 17.5652 34.3267C17.5284 34.3005 17.4891 34.2773 17.4478 34.2562C15.5742 33.1167 14.1154 31.7118 13.0897 30.0527C11.3913 27.3054 10.9522 23.977 11.7841 20.1607C12.8485 15.2799 14.8712 11.3422 17.8059 8.42621C17.825 8.40859 17.8431 8.39046 17.8602 8.37133C18.2837 7.95389 18.7263 7.55761 19.1876 7.18247C20.8538 5.82796 22.733 4.77909 24.8121 4.03738C24.8745 4.02177 24.936 4.00012 24.9944 3.97192C27.428 3.13 30.132 2.70552 33.0877 2.70552C36.043 2.70552 38.7465 3.13 41.1796 3.97192C41.239 4.00012 41.3009 4.02227 41.3639 4.03788C43.4425 4.77959 45.3217 5.82846 46.9874 7.18247C47.4486 7.55761 47.8912 7.95389 48.3152 8.37133C48.3323 8.38996 48.3505 8.40859 48.3691 8.42621C51.3042 11.3422 53.3269 15.2799 54.3909 20.1607C54.903 22.5082 54.9297 24.7006 54.4705 26.6774C54.3491 27.1976 54.6729 27.7172 55.193 27.8381C55.7137 27.9595 56.2328 27.6352 56.3537 27.1155C56.8784 24.8572 56.8537 22.3787 56.2802 19.7488C55.6362 16.7955 54.6588 14.1575 53.3581 11.8478L53.4297 11.9102C54.2459 12.6227 55.2565 12.9722 56.2631 12.9716C57.466 12.9716 58.6629 12.4726 59.5144 11.4978C61.0779 9.70671 60.8931 6.97703 59.102 5.41304L56.4066 3.06001C54.2993 1.22008 51.5993 0.137477 48.8036 0.0120961C46.215 -0.103214 43.6278 0.608788 41.4601 2.02423C38.9192 1.19189 36.1231 0.772438 33.0882 0.772438C30.0534 0.772438 27.2568 1.19189 24.7159 2.02423C22.5482 0.608788 19.961 -0.10271 17.3723 0.0120961C14.5767 0.137477 11.8767 1.21958 9.7689 3.06001L7.07346 5.41304C5.28237 6.97703 5.09758 9.70671 6.66106 11.4978C7.51254 12.4726 8.70945 12.9716 9.9124 12.9716C10.919 12.9716 11.9296 12.6222 12.7458 11.9097L12.8173 11.8478C11.5167 14.1575 10.5393 16.7955 9.89528 19.7488C8.96575 24.0112 9.50202 27.9257 11.4452 31.0693C12.1194 32.1595 12.9482 33.1509 13.9286 34.0417C12.7609 34.2028 11.701 34.8554 11.0348 35.8393C10.2603 35.1852 9.73868 34.3433 9.48339 33.3337C9.20745 32.242 8.52012 31.3266 7.5488 30.7571C6.57697 30.1876 5.4425 30.035 4.35435 30.3276C2.1826 30.9112 0.841675 33.2829 1.42628 35.5065C2.44141 39.3671 5.02859 42.4417 8.71247 44.1648C10.8515 45.1658 13.2443 45.6729 15.8234 45.6729C16.3164 45.6729 16.8245 45.6512 17.3396 45.612C18.2444 48.0838 19.8331 50.2732 21.9011 51.9938C21.5109 54.4883 21.381 56.861 21.4797 59.6048C21.4988 60.1264 21.9273 60.5368 22.4455 60.5368C22.457 60.5368 22.4691 60.5368 22.4807 60.5363C23.0145 60.5172 23.4314 60.069 23.4123 59.5353C23.3307 57.284 23.4112 55.2975 23.6711 53.2773C24.9798 54.1006 26.4244 54.7577 27.9673 55.2144C27.8076 57.1364 27.8258 59.1617 28.0196 61.6537C28.1153 62.8843 27.1918 63.9634 25.9612 64.0596C25.9022 64.0641 25.8428 64.0661 25.7839 64.0661C25.1036 64.0661 24.4682 63.7605 24.0397 63.2272C23.7053 62.8108 23.097 62.7448 22.6806 63.0787C22.2642 63.413 22.1977 64.0218 22.5321 64.4382C23.3297 65.4307 24.5145 66.0002 25.7839 66.0002C25.8927 66.0002 26.003 65.9957 26.1112 65.9871C28.4048 65.8089 30.1254 63.7972 29.9472 61.5036C29.7689 59.212 29.7432 57.4013 29.8711 55.6656C30.9119 55.8524 31.9875 55.9511 33.0872 55.9511C34.1875 55.9511 35.263 55.8524 36.3038 55.6656C36.4312 57.4013 36.406 59.212 36.2278 61.5036C36.0495 63.7972 37.7701 65.8089 40.0637 65.9871C40.172 65.9957 40.2823 65.9997 40.391 65.9997C42.5537 65.9997 44.3796 64.3093 44.5472 62.1512C44.7698 59.2941 44.7854 56.8801 44.5835 54.5432C46.2799 55.4305 47.9748 55.8655 49.7216 55.8655C51.3093 55.8655 52.9427 55.5135 54.7157 54.7895C55.5893 54.4329 56.2711 53.7577 56.6367 52.8881C57.0017 52.0185 57.0068 51.0582 56.6498 50.1851C55.9136 48.3829 53.8486 47.5153 52.0459 48.251C50.6204 48.8331 49.4255 49.1685 47.6133 48.1438C48.1017 47.3416 48.5121 46.4947 48.8354 45.612C49.351 45.6512 49.8591 45.6729 50.3515 45.6729C52.9311 45.6729 55.3235 45.1658 57.463 44.1653C61.1912 42.4211 63.7904 39.3011 64.7819 35.3796C65.3459 33.1489 63.9903 30.8754 61.7597 30.3115ZM48.717 1.94417C51.0771 2.04941 53.3561 2.96333 55.1351 4.51675L57.8306 6.86978C58.8185 7.73234 58.9207 9.23791 58.0582 10.2259C57.1951 11.2138 55.6895 11.316 54.7016 10.4535L52.0067 8.10042C51.2841 7.46949 50.4215 7.03343 49.4975 6.82547C49.0831 6.42717 48.6541 6.04549 48.2075 5.68244C46.8555 4.58321 45.3806 3.66778 43.7884 2.93614C45.3207 2.21608 47.0186 1.86713 48.717 1.94417ZM11.4744 10.4535C10.4859 11.316 8.98036 11.2138 8.1178 10.2259C7.25524 9.23791 7.35745 7.73234 8.34539 6.86978L11.0403 4.51675C12.8198 2.96333 15.0988 2.04941 17.4584 1.94417C19.1574 1.86814 20.8553 2.21658 22.387 2.93614C20.7954 3.66828 19.32 4.58321 17.9685 5.68244C17.5219 6.04549 17.0923 6.42717 16.6784 6.82547C15.7539 7.03343 14.8919 7.46949 14.1693 8.10042L11.4744 10.4535ZM15.8239 43.7393C13.5298 43.7393 11.4124 43.2932 9.53173 42.4135C6.37707 40.9381 4.16251 38.3102 3.29642 35.015C2.97668 33.7995 3.6912 32.5079 4.85638 32.1947C5.44099 32.0381 6.04977 32.1197 6.57042 32.4253C7.09209 32.731 7.46068 33.2219 7.60922 33.808C7.9904 35.3156 8.83937 36.6057 10.0645 37.5393C10.4512 37.8333 10.9462 37.9481 11.423 37.854C11.8994 37.7598 12.3138 37.4652 12.559 37.0453C12.9598 36.361 13.7 35.9355 14.4906 35.9355C14.9377 35.9355 15.3652 36.0664 15.7293 36.3091C15.6643 37.3665 15.9705 38.4174 16.5853 39.2739C16.5254 39.7986 16.4941 40.3273 16.4941 40.852C16.4941 41.8294 16.5979 42.7851 16.7938 43.7111C16.4649 43.7292 16.1407 43.7393 15.8239 43.7393ZM29.782 17.6566C30.0398 17.2779 30.4255 17.0055 30.8686 16.8892C31.5942 16.6993 32.3415 16.6042 33.0882 16.6042C33.835 16.6042 34.5817 16.6993 35.3073 16.8892C35.7504 17.0055 36.1361 17.2779 36.394 17.6566C36.5153 17.8353 36.4911 18.0116 36.4655 18.1012C36.4403 18.1903 36.3678 18.353 36.1704 18.4411L33.8028 19.494C33.3486 19.6959 32.8274 19.6959 32.3732 19.494L30.0056 18.4411C29.8082 18.353 29.7357 18.1903 29.7105 18.1012C29.6848 18.0116 29.6601 17.8353 29.782 17.6566ZM19.7042 32.5341C19.2344 32.2118 18.8089 31.8216 18.4388 31.3744C16.6004 29.1508 16.617 25.8109 18.4771 23.6054C19.888 21.9321 22.0139 21.1506 24.1635 21.5152C25.9536 21.8188 27.7311 21.42 29.1677 20.3928C29.2281 20.3495 29.2916 20.3087 29.354 20.2674L31.5877 21.2604C31.7614 21.3379 31.9397 21.4009 32.1214 21.4497V25.0797C30.7503 24.8561 29.4874 24.1598 28.5594 23.0948C28.2084 22.6924 27.5977 22.6507 27.1953 23.0011C26.793 23.3521 26.7507 23.9629 27.1017 24.3652C28.6118 26.0984 30.7936 27.0919 33.0877 27.0919C35.3818 27.0919 37.5637 26.0984 39.0738 24.3652C39.4248 23.9629 39.383 23.3521 38.9801 23.0011C38.5778 22.6507 37.967 22.6924 37.616 23.0948C36.688 24.1598 35.4257 24.8556 34.0545 25.0797V21.4497C34.2358 21.4009 34.4146 21.3379 34.5883 21.2604L36.8215 20.2674C36.8839 20.3087 36.9473 20.35 37.0078 20.3928C38.4449 21.42 40.2219 21.8188 42.0124 21.5152C44.1615 21.1511 46.288 21.9321 47.6989 23.6054C49.5585 25.8114 49.5751 29.1513 47.7367 31.3744C47.3666 31.8216 46.9411 32.2118 46.4713 32.5341C45.1429 33.445 44.1726 34.7854 43.7381 36.3071C42.3896 41.0363 38.0098 44.3395 33.0877 44.3395C28.1656 44.3395 23.7859 41.0363 22.4369 36.3071C22.0034 34.7849 21.0325 33.445 19.7042 32.5341ZM36.0269 45.9307C35.4362 46.9458 34.336 47.6246 33.0882 47.6246C31.84 47.6246 30.7397 46.9458 30.1491 45.9307C31.0998 46.1533 32.0837 46.2731 33.0882 46.2731C34.0918 46.2731 35.0762 46.1533 36.0269 45.9307ZM17.6548 36.5851C18.6664 37.1032 19.7661 37.5599 20.9535 37.9527C21.313 38.8817 21.7753 39.7543 22.3246 40.56C21.1675 40.0771 20.0431 39.5156 18.9595 38.8797C18.1271 38.3907 17.6523 37.5015 17.6548 36.5851ZM42.6202 62.0011C42.5301 63.1593 41.5512 64.0661 40.3915 64.0661C40.3326 64.0661 40.2732 64.0636 40.2143 64.0591C38.9837 63.9634 38.0602 62.8843 38.1558 61.6537C38.3497 59.1617 38.3678 57.1359 38.2082 55.2144C39.751 54.7577 41.1957 54.1006 42.5044 53.2773C42.8528 55.9763 42.8836 58.6163 42.6202 62.0011ZM52.7771 50.0411C53.5928 49.7083 54.5274 50.1005 54.8602 50.9157C55.0218 51.311 55.0198 51.7456 54.8542 52.1388C54.689 52.5321 54.3803 52.8377 53.9856 52.9989C52.4488 53.6268 51.054 53.9319 49.7221 53.9319C47.9028 53.9319 46.1233 53.3398 44.2945 52.1247C44.2879 52.0814 44.2814 52.0376 44.2743 51.9943C45.0966 51.31 45.8423 50.5517 46.5 49.7314C49.14 51.2873 51.0464 50.7476 52.7771 50.0411ZM33.0882 54.0175C25.0044 54.0175 18.4277 48.1115 18.4277 40.852C18.4277 40.8364 18.4287 40.8203 18.4287 40.8047C20.5602 42.0066 22.8322 42.9407 25.1918 43.5857C26.0075 44.2091 26.8962 44.7368 27.8394 45.1558C28.2815 47.6679 30.4794 49.5582 33.0882 49.5582C35.6966 49.5582 37.8945 47.6679 38.3366 45.1558C39.2797 44.7373 40.1685 44.2096 40.9842 43.5857C43.3438 42.9407 45.6158 42.0071 47.7472 40.8047C47.7472 40.8208 47.7482 40.8364 47.7482 40.852C47.7482 48.1115 41.1715 54.0175 33.0882 54.0175ZM47.2165 38.8792C46.1329 39.5156 45.008 40.0771 43.8514 40.56C44.4007 39.7543 44.863 38.8812 45.2225 37.9522C46.4093 37.5599 47.5091 37.1032 48.5212 36.5845C48.5237 37.5015 48.0488 38.3907 47.2165 38.8792ZM62.9077 34.9052C62.0613 38.2538 59.8367 40.92 56.6437 42.4135C54.763 43.2932 52.6461 43.7393 50.352 43.7393C50.0353 43.7393 49.711 43.7292 49.3817 43.7111C49.5776 42.7851 49.6813 41.8294 49.6813 40.852C49.6813 40.3273 49.6501 39.7986 49.5902 39.2739C50.205 38.4174 50.5111 37.3665 50.4467 36.3091C50.8108 36.0664 51.2378 35.9355 51.6849 35.9355C52.476 35.9355 53.2162 36.361 53.6165 37.0458C53.8622 37.4652 54.2761 37.7598 54.7529 37.854C55.2293 37.9481 55.7243 37.8333 56.111 37.5393C57.3366 36.6057 58.1856 35.3156 58.5667 33.808C58.8694 32.6116 60.0894 31.8845 61.2858 32.1861C62.4828 32.4888 63.2104 33.7083 62.9077 34.9052Z" fill="black"/>
</g>
<defs>
<clipPath id="clip0_1591_25875">
<rect width="65.9997" height="66" fill="white"/>
</clipPath>
</defs>
</svg>
