<svg width="66" height="66" viewBox="0 0 66 66" fill="none" xmlns="http://www.w3.org/2000/svg">
<g clip-path="url(#clip0_1591_25752)">
<path d="M26.9092 11.9636C26.2402 11.9636 25.5651 11.7602 24.9819 11.3377L20.9421 8.40864C19.1728 7.12612 16.7864 7.23287 15.1391 8.66796L12.4944 10.9732C11.1281 12.1635 9.0535 12.023 7.86081 10.66C6.66811 9.29638 6.80887 7.22633 8.17513 6.03545L10.8204 3.73075C12.728 2.06856 15.1714 1.09069 17.7016 0.977393C20.2318 0.8646 22.7529 1.62041 24.8018 3.10586L28.8415 6.03445C30.3092 7.09843 30.6346 9.14784 29.5685 10.6121C28.9263 11.4948 27.9248 11.9636 26.9092 11.9636Z" fill="#495059"/>
<path d="M39.259 11.9636C38.2434 11.9636 37.2424 11.4948 36.5996 10.6121C35.5341 9.1478 35.8595 7.09839 37.3267 6.03492L41.3669 3.10582C43.4158 1.62038 45.9379 0.865573 48.4671 0.977862C50.9968 1.09066 53.4407 2.06853 55.3483 3.73072L57.9935 6.03592C59.3593 7.22629 59.5 9.29634 58.3074 10.6599C57.1147 12.023 55.0405 12.1635 53.6743 10.9731L51.0291 8.66793C49.3818 7.23233 46.9954 7.12609 45.2265 8.4086L41.1863 11.3377C40.6036 11.7602 39.9285 11.9636 39.259 11.9636Z" fill="#495059"/>
<path d="M33.0844 37.9196C49.7534 37.9196 57.2658 30.2985 54.9213 19.5676C52.4017 8.03552 44.466 1.72314 33.0844 1.72314C21.7033 1.72314 13.7677 8.03552 11.2481 19.5676C8.90353 30.2985 16.4154 37.9196 33.0844 37.9196Z" fill="#DDAF89"/>
<path d="M25.1675 22.4408C25.1675 20.5168 23.2049 18.9568 20.7837 18.9568C18.363 18.9568 16.4004 20.5168 16.4004 22.4408C16.4004 24.3648 18.363 25.9248 20.7837 25.9248C23.2049 25.9248 25.1675 24.3648 25.1675 22.4408Z" fill="#FFDBDB"/>
<path d="M49.7686 22.4408C49.7686 20.5168 47.806 18.9568 45.3848 18.9568C42.9641 18.9568 41.0015 20.5168 41.0015 22.4408C41.0015 24.3648 42.9641 25.9248 45.3848 25.9248C47.806 25.9248 49.7686 24.3648 49.7686 22.4408Z" fill="#FFDBDB"/>
<path d="M35.3835 19.561C33.8764 19.1672 32.2927 19.1672 30.7857 19.561C30.1616 19.7242 29.6177 20.1074 29.2545 20.6401C28.7646 21.3592 29.0461 22.3456 29.8423 22.6991L32.0511 23.679C32.709 23.971 33.4597 23.971 34.1176 23.679L36.3264 22.6991C37.1226 22.3456 37.4041 21.3592 36.9142 20.6401C36.5514 20.1074 36.0076 19.7242 35.3835 19.561Z" fill="#495059"/>
<path d="M54.5356 43.4021V35.1894C52.2764 29.1605 36.744 30.442 33.0847 32.7674C29.4249 30.442 13.8926 29.1605 11.6333 35.1894V43.4021H54.5356Z" fill="#F3E5B7"/>
<path d="M29.8471 65.0332H11.0475C9.28619 65.0332 7.85889 63.6082 7.85889 61.8508V38.3713C7.85889 36.6139 9.28619 35.1889 11.0475 35.1889H29.8471V65.0332Z" fill="#7F9AE6"/>
<path d="M17.7779 35.1889H11.0475C9.28619 35.1889 7.85889 36.6139 7.85889 38.3713V61.8508C7.85889 63.6082 9.28619 65.0327 11.0475 65.0327H27.6519C19.1113 57.465 17.9348 42.4812 17.7779 35.1889Z" fill="#5E78BF"/>
<path d="M55.1214 65.0332H36.3218V35.1889H55.1214C56.8822 35.1889 58.31 36.6139 58.31 38.3713V61.8508C58.31 63.6082 56.8827 65.0332 55.1214 65.0332Z" fill="#7F9AE6"/>
<path d="M51.9633 41.598H42.6689C41.9656 41.598 41.3955 42.167 41.3955 42.8694V45.5004C41.3955 46.2023 41.9656 46.7713 42.6689 46.7713H51.9633C52.6661 46.7713 53.2367 46.2023 53.2367 45.5004V42.8694C53.2367 42.1675 52.6666 41.598 51.9633 41.598Z" fill="white"/>
<path d="M29.8472 35.1889H36.3217V65.0332H29.8472V35.1889Z" fill="#A2D3EE"/>
<path d="M8.9764 48.6128C8.72867 48.6128 8.47742 48.5821 8.22617 48.5171C7.84979 48.4199 7.31348 48.2734 6.89624 48.1254C5.34028 47.573 4.52749 45.8665 5.08095 44.3131C5.63391 42.7601 7.34375 41.9494 8.90021 42.5008C9.02685 42.5461 9.33007 42.6368 9.72259 42.738C11.3219 43.1504 12.2831 44.7783 11.8698 46.3745C11.5212 47.7195 10.3073 48.6128 8.9764 48.6128Z" fill="#DDAF89"/>
<path d="M57.1919 48.6127C55.8615 48.6127 54.6476 47.72 54.299 46.3745C53.8858 44.7783 54.8469 43.1503 56.4457 42.7379C56.8382 42.6367 57.142 42.5461 57.2686 42.5013C58.8246 41.9489 60.5344 42.7606 61.0879 44.3135C61.6413 45.8664 60.828 47.5729 59.2721 48.1253C58.8553 48.2734 58.319 48.4199 57.9421 48.5171C57.6914 48.582 57.4396 48.6127 57.1919 48.6127Z" fill="#DDAF89"/>
<path d="M62.0008 43.9893C61.5467 42.7148 60.4998 41.8175 59.2789 41.4942V38.3718C59.2789 36.0963 57.4338 34.2433 55.1584 34.2231C54.7175 33.3983 54.048 32.6838 53.1585 32.0836C56.0232 28.7365 56.9611 24.3663 55.8678 19.3616C55.2442 16.5081 54.3028 13.9551 53.0525 11.7139C53.8547 12.4067 54.8451 12.7466 55.8315 12.7466C57.0176 12.7466 58.1982 12.2552 59.0372 11.2959C60.5796 9.53304 60.3969 6.84666 58.6311 5.30784L55.9854 3.00263C53.9133 1.19694 51.259 0.134971 48.5108 0.0121075C45.9685 -0.101189 43.4287 0.595711 41.2996 1.98095C38.8063 1.16672 36.0622 0.75634 33.0844 0.75634C30.1072 0.75634 27.3631 1.16672 24.8698 1.98095C22.7407 0.595711 20.1999 -0.100685 17.6586 0.0121075C14.9104 0.134971 12.2556 1.19694 10.1835 3.00213L7.5383 5.30733C5.77196 6.84666 5.58982 9.53304 7.13165 11.2959C7.97118 12.2552 9.15127 12.7466 10.3374 12.7466C11.3238 12.7466 12.3141 12.4062 13.1163 11.7144C11.8666 13.9551 10.9247 16.5081 10.3016 19.3616C9.79908 21.6613 9.72542 23.8507 10.0831 25.8684C10.1765 26.3946 10.6785 26.745 11.2057 26.6524C11.7324 26.5592 12.0841 26.0577 11.9907 25.5315C11.6774 23.7636 11.746 21.826 12.1946 19.7735C13.2384 14.9959 15.2217 11.1419 18.0995 8.28829C18.1177 8.27117 18.1348 8.25355 18.152 8.23542C18.5677 7.82655 19.0016 7.43832 19.4542 7.07124C21.0873 5.74592 22.9299 4.7197 24.9676 3.9936C25.0297 3.97849 25.0897 3.95684 25.1478 3.92965C27.5342 3.10535 30.1859 2.68993 33.0849 2.68993C35.9829 2.68993 38.6352 3.10535 41.0211 3.92965C41.0792 3.95684 41.1397 3.97849 41.2018 3.9941C43.24 4.7197 45.0821 5.74592 46.7152 7.07124C47.1683 7.43882 47.6032 7.82755 48.0194 8.23693C48.0355 8.25455 48.0522 8.27168 48.0694 8.28779C50.9477 11.1419 52.931 14.9959 53.9748 19.7735C54.9682 24.3205 54.0742 28.2406 51.3922 31.1571C51.1389 31.0538 50.8775 30.9551 50.6036 30.864C45.0134 28.9969 36.4446 29.9889 33.0849 31.6606C29.7253 29.9889 21.1559 28.9964 15.5663 30.864C15.2918 30.9551 15.0305 31.0538 14.7777 31.1571C14.195 30.5236 13.691 29.8413 13.2783 29.1197C13.0134 28.656 12.4216 28.4948 11.9569 28.7592C11.4923 29.0241 11.3308 29.6142 11.5957 30.078C11.9983 30.7814 12.4731 31.4516 13.0119 32.0826C12.1219 32.6833 11.4519 33.3978 11.011 34.2231C8.73554 34.2433 6.89049 36.0963 6.89049 38.3718V41.4942C5.66954 41.8175 4.62265 42.7148 4.16858 43.9893C3.43701 46.0422 4.51569 48.3061 6.57264 49.0363C6.67355 49.072 6.78101 49.1078 6.89049 49.1425V61.8509C6.89049 64.1389 8.75572 66 11.0478 66H55.1221C57.4142 66 59.2789 64.1389 59.2789 61.8509V61.3962C59.2789 60.8624 58.8455 60.4294 58.3102 60.4294C57.7754 60.4294 57.3415 60.8624 57.3415 61.3962V61.8509C57.3415 63.0724 56.3461 64.0664 55.1221 64.0664H37.2907V36.1562H54.5328H54.5359H54.5419H55.1216C56.3456 36.1562 57.3415 37.1497 57.3415 38.3718V41.4726C57.2083 41.5043 57.0756 41.5436 56.9434 41.5904C56.8582 41.6206 56.5908 41.7022 56.2038 41.8019C54.0904 42.3472 52.8149 44.5069 53.3613 46.6168C53.8134 48.361 55.3885 49.5796 57.1922 49.5796C57.2421 49.5796 57.2921 49.5771 57.3415 49.575V57.2294C57.3415 57.7631 57.7754 58.1962 58.3102 58.1962C58.8455 58.1962 59.2789 57.7631 59.2789 57.2294V49.1425C59.3884 49.1078 59.4958 49.0725 59.5973 49.0363C61.6537 48.3061 62.7324 46.0422 62.0008 43.9893ZM18.2322 5.57069C17.7948 5.92568 17.3745 6.2983 16.9689 6.68754C16.0607 6.89298 15.2131 7.32049 14.5028 7.93984L11.8575 10.2445C10.8959 11.0824 9.43078 10.9832 8.59125 10.024C7.75172 9.06425 7.85111 7.60197 8.81273 6.76408L11.458 4.45887C13.2011 2.94019 15.4336 2.04691 17.7449 1.94318C19.3957 1.86967 21.0444 2.20402 22.5348 2.89588C20.9854 3.6104 19.549 4.50217 18.2322 5.57069ZM49.2005 6.68754C48.7949 6.2983 48.3746 5.92568 47.9372 5.57069C46.6204 4.50217 45.184 3.6104 43.6346 2.89588C45.1254 2.20402 46.7742 1.86967 48.424 1.94369C50.7358 2.04691 52.9688 2.94019 54.7114 4.45887L57.3572 6.76408C58.3183 7.60197 58.4177 9.06425 57.5781 10.024C56.7391 10.9832 55.2735 11.0824 54.3118 10.245L51.6666 7.93984C50.9562 7.32099 50.1086 6.89298 49.2005 6.68754ZM7.22146 47.2145C6.17104 46.8418 5.6201 45.6852 5.99395 44.6373C6.28758 43.8115 7.06909 43.2954 7.90106 43.2954C8.12506 43.2954 8.35261 43.3327 8.57561 43.4117C8.75673 43.4762 9.10384 43.5769 9.48072 43.6741C10.5599 43.9525 11.2112 45.0553 10.9322 46.1323C10.7017 47.0236 9.89746 47.646 8.9767 47.646C8.80718 47.646 8.63615 47.6243 8.46915 47.581C8.11144 47.4889 7.6049 47.3504 7.22146 47.2145ZM28.8787 64.0664H11.0478C9.8233 64.0664 8.82787 63.0724 8.82787 61.8509V49.575C8.87731 49.5771 8.92726 49.5796 8.9767 49.5796C10.7809 49.5796 12.356 48.361 12.8081 46.6162C13.3545 44.5069 12.079 42.3472 9.96557 41.8019C9.5786 41.7022 9.3112 41.6206 9.22493 41.5899C9.09325 41.5436 8.96056 41.5043 8.82787 41.4721V38.3718C8.82787 37.1497 9.8238 36.1562 11.0478 36.1562H28.8787V64.0664ZM35.3533 64.0664H30.8161V36.1562H35.3533V64.0664ZM36.323 34.2226C36.3225 34.2226 36.3225 34.2226 36.322 34.2226C36.3215 34.2226 36.321 34.2226 36.3205 34.2226H29.8484C29.8479 34.2226 29.8479 34.2226 29.8474 34.2226C29.8469 34.2226 29.8464 34.2226 29.8459 34.2226H13.4256C13.8257 33.8389 14.3348 33.496 14.9508 33.1954C14.9715 33.1863 14.9922 33.1768 15.0123 33.1662C15.368 32.9965 15.756 32.8394 16.1808 32.6974C21.4138 30.9496 30.0936 32.0131 32.5643 33.5831C32.8816 33.7845 33.2873 33.7845 33.6046 33.5831C36.0758 32.0131 44.7551 30.9496 49.9886 32.6974C50.4134 32.8394 50.8019 32.9965 51.157 33.1662C51.1757 33.1763 51.1949 33.1848 51.2141 33.1934C51.8316 33.4945 52.3427 33.8379 52.7438 34.2226H36.323ZM58.9479 47.2145C58.5645 47.3504 58.0579 47.4889 57.7007 47.581C57.5332 47.6243 57.3622 47.646 57.1922 47.646C56.2719 47.646 55.4677 47.0236 55.2371 46.1323C54.9581 45.0553 55.6095 43.9525 56.6887 43.6741C57.0655 43.5769 57.4122 43.4762 57.5933 43.4122C57.8163 43.3327 58.0443 43.2954 58.2688 43.2954C59.1003 43.2954 59.8813 43.8115 60.1759 44.6373C60.5488 45.6852 59.9984 46.8418 58.9479 47.2145ZM28.9105 26.166C28.5588 25.7631 27.9469 25.7214 27.5437 26.0723C27.1406 26.4228 27.0982 27.0336 27.4499 27.4364C28.8717 29.0644 30.9251 29.9979 33.0849 29.9979C35.2443 29.9979 37.2982 29.0644 38.7195 27.4364C39.0706 27.0336 39.0288 26.4228 38.6256 26.0723C38.222 25.7214 37.6105 25.7631 37.2589 26.166C36.4209 27.1252 35.2867 27.7577 34.0531 27.9772V24.7279C34.209 24.6831 34.3619 24.6292 34.5117 24.5627L36.7201 23.5823C37.3628 23.2973 37.8416 22.7464 38.0343 22.0717C38.2271 21.3964 38.111 20.6764 37.7155 20.0963C37.221 19.3702 36.4799 18.848 35.6293 18.626C33.9643 18.1909 32.2051 18.1909 30.5406 18.626C29.6895 18.848 28.9483 19.3702 28.4539 20.0963C28.0589 20.6764 27.9423 21.3964 28.135 22.0717C28.3278 22.7464 28.8066 23.2973 29.4493 23.5823L31.6581 24.5627C31.8075 24.6292 31.9609 24.6831 32.1163 24.7279V27.9772C30.8827 27.7577 29.7485 27.1252 28.9105 26.166ZM30.2364 21.8154C30.077 21.7449 30.0184 21.6135 29.9983 21.5415C29.9776 21.4695 29.9579 21.3275 30.0558 21.1834C30.2868 20.8441 30.6335 20.6003 31.031 20.4961C31.7031 20.3209 32.3937 20.2328 33.0849 20.2328C33.7756 20.2328 34.4668 20.3209 35.1384 20.4961C35.5359 20.5998 35.8825 20.8441 36.1136 21.1834C36.2115 21.3275 36.1918 21.4695 36.1711 21.5415C36.1509 21.6135 36.0924 21.7444 35.933 21.8154L33.7247 22.7958C33.318 22.9761 32.8514 22.9761 32.4452 22.7958L30.2364 21.8154ZM43.799 18.9649V17.42C43.799 16.8862 43.3652 16.4532 42.8304 16.4532C42.2951 16.4532 41.8617 16.8862 41.8617 17.42V18.9649C41.8617 19.4991 42.2951 19.9316 42.8304 19.9316C43.3652 19.9316 43.799 19.4991 43.799 18.9649ZM24.3077 18.9649V17.42C24.3077 16.8862 23.8738 16.4532 23.339 16.4532C22.8042 16.4532 22.3703 16.8862 22.3703 17.42V18.9649C22.3703 19.4991 22.8042 19.9316 23.339 19.9316C23.8738 19.9316 24.3077 19.4991 24.3077 18.9649ZM51.4017 50.5992C51.4017 50.065 50.9684 49.6325 50.4331 49.6325H44.1986C43.6638 49.6325 43.2299 50.065 43.2299 50.5992C43.2299 51.133 43.6638 51.566 44.1986 51.566H50.4331C50.9684 51.566 51.4017 51.133 51.4017 50.5992ZM45.9589 53.199C45.4241 53.199 44.9902 53.6316 44.9902 54.1658C44.9902 54.6996 45.4241 55.1326 45.9589 55.1326H48.6733C49.2081 55.1326 49.642 54.6996 49.642 54.1658C49.642 53.6316 49.2081 53.199 48.6733 53.199H45.9589Z" fill="black"/>
</g>
<defs>
<clipPath id="clip0_1591_25752">
<rect width="66" height="66" fill="white"/>
</clipPath>
</defs>
</svg>
