<svg width="66" height="66" viewBox="0 0 66 66" fill="none" xmlns="http://www.w3.org/2000/svg">
<g clip-path="url(#clip0_1591_25201)">
<path d="M29.3297 36.0786C34.3696 35.9381 35.9528 35.5877 38.7681 33.1823C39.8718 32.2391 41.532 32.3685 42.4761 33.4728C43.4198 34.5771 43.2893 36.2377 42.1851 37.1814C41.9429 37.3878 41.7052 37.5842 41.4706 37.77C41.2686 37.9301 41.4449 38.2494 41.6886 38.1653C43.0894 37.6799 44.6554 38.403 45.1157 39.8119C45.5593 41.1704 44.8352 42.6392 43.4797 43.1116C43.0315 43.2677 42.6055 43.4087 42.1972 43.5366C41.967 43.6086 41.9288 43.9248 42.1398 44.0411C42.9897 44.5104 43.5456 45.4329 43.4958 46.4682C43.4313 47.7975 42.391 48.8484 41.101 48.9612C40.9831 48.9713 40.8628 48.9738 40.7414 48.9682C34.5559 48.6681 29.7164 46.6348 26.5768 43.242C24.8578 41.3839 24.963 36.201 29.3297 36.0786Z" fill="#DFE3E5"/>
<path d="M16.881 36.0786C11.8405 35.9381 10.2574 35.5877 7.44263 33.1823C6.33837 32.2391 4.6782 32.3685 3.73456 33.4728C2.79093 34.5771 2.92084 36.2377 4.0251 37.1814C4.26731 37.3878 4.50548 37.5842 4.73963 37.77C4.94205 37.9301 4.76531 38.2494 4.5221 38.1653C3.12075 37.6799 1.55474 38.403 1.0945 39.8119C0.651387 41.1704 1.37497 42.6392 2.7305 43.1116C3.17865 43.2677 3.60515 43.4087 4.01352 43.5366C4.24364 43.6086 4.28141 43.9248 4.07042 44.0411C3.22095 44.5104 2.66454 45.4329 2.71489 46.4682C2.77935 47.7975 3.81966 48.8484 5.10923 48.9612C5.22705 48.9713 5.3474 48.9738 5.46926 48.9682C11.6547 48.6681 16.4943 46.6348 19.6333 43.242C21.3529 41.3839 21.2472 36.201 16.881 36.0786Z" fill="#DFE3E5"/>
<path d="M12.4112 55.7308C11.2158 55.7308 10.1725 55.4428 9.37485 55.117C8.3008 54.6784 7.78517 53.4523 8.22376 52.3777C8.66284 51.3037 9.88896 50.788 10.9635 51.2271C14.2426 52.5665 16.5911 48.8414 17.363 47.6167C17.9824 46.6353 19.2795 46.3413 20.2609 46.9601C21.2423 47.579 21.5363 48.8761 20.9175 49.858C17.9874 54.5052 14.8765 55.7308 12.4112 55.7308Z" fill="#495059"/>
<path d="M29.976 62.6806C29.265 62.6806 28.557 62.3936 28.0389 61.8281C27.059 60.7586 27.132 59.0974 28.2015 58.1181C29.3914 57.0279 30.477 55.4775 29.5122 52.2392C29.0983 50.8495 29.8889 49.3867 31.2791 48.9728C32.6689 48.5589 34.1317 49.3494 34.5456 50.7392C35.8956 55.269 34.9545 59.0546 31.7495 61.9908C31.2454 62.4525 30.6099 62.6806 29.976 62.6806Z" fill="#DDAF89"/>
<path d="M20.6317 62.6806C19.9213 62.6806 19.2128 62.3936 18.6946 61.8281C17.7147 60.7586 17.7878 59.0974 18.8573 58.1181C20.0466 57.0279 21.1328 55.4775 20.168 52.2392C19.7536 50.8495 20.5446 49.3867 21.9344 48.9728C23.3247 48.5589 24.787 49.3494 25.2014 50.7392C26.5514 55.269 25.6102 59.0541 22.4052 61.9908C21.9012 62.4525 21.2652 62.6806 20.6317 62.6806Z" fill="#DDAF89"/>
<path d="M39.0386 46.1912C37.9963 46.1912 37.0069 46.0683 36.1393 45.8075C34.75 45.3901 33.9624 43.9258 34.3799 42.5365C34.7973 41.1477 36.2616 40.3597 37.6509 40.7771C39.2416 41.2555 42.646 40.7061 44.4869 39.3078C45.6416 38.4306 47.2891 38.6552 48.1668 39.8103C49.044 40.9655 48.8189 42.6131 47.6638 43.4902C45.4361 45.1821 42.0206 46.1912 39.0386 46.1912Z" fill="#DDAF89"/>
<path d="M40.3735 40.8476C39.3125 40.9972 38.3205 40.9786 37.6508 40.7777C36.2616 40.3597 34.7973 41.1478 34.3798 42.5365C33.9624 43.9258 34.7504 45.3901 36.1392 45.8075C37.0068 46.0683 37.9963 46.1912 39.0386 46.1912C39.4298 46.1912 39.8281 46.1731 40.2305 46.1393C40.4692 45.1846 40.596 44.1906 40.596 43.171C40.596 42.3784 40.5195 41.6019 40.3735 40.8476Z" fill="#D1A582"/>
<path d="M35.0996 53.5706C35.0215 52.6622 34.8372 51.7181 34.5457 50.7392C34.1313 49.3494 32.6685 48.5589 31.2787 48.9723C29.8889 49.3867 29.0979 50.8495 29.5118 52.2393C30.0052 53.8949 29.9619 55.1089 29.6432 56.046C31.6629 55.5792 33.5149 54.7232 35.0996 53.5706Z" fill="#D1A582"/>
<path d="M21.9342 48.9723C20.5444 49.3867 19.7534 50.8495 20.1678 52.2393C20.556 53.5419 20.6119 54.5712 20.4628 55.4075C22.0581 56.0254 23.7988 56.3879 25.6231 56.4413C25.9529 54.7006 25.8145 52.7972 25.2012 50.7392C24.7867 49.3494 23.3245 48.5589 21.9342 48.9723Z" fill="#D1A582"/>
<path d="M38.895 43.1705C38.895 36.7766 33.1632 31.5931 26.093 31.5931C19.0223 31.5931 13.2905 36.7766 13.2905 43.1705C13.2905 49.565 19.0223 54.7484 26.093 54.7484C33.1632 54.7484 38.895 49.565 38.895 43.1705Z" fill="#7F9AE6"/>
<path d="M37.6553 35.7372C34.5177 38.3405 30.4884 39.9061 26.093 39.9061C21.6971 39.9061 17.6678 38.3405 14.5302 35.7372C13.863 36.6013 13.3071 37.5419 12.8851 38.543C12.3106 39.9071 12.8408 41.4887 14.1173 42.2379C17.631 44.3004 21.7238 45.4843 26.093 45.4843C30.4622 45.4843 34.5545 44.3004 38.0687 42.2379C39.3452 41.4882 39.8749 39.9071 39.3003 38.543C38.8789 37.5419 38.3225 36.6013 37.6553 35.7372Z" fill="#A2D3EE"/>
<path d="M20.2625 38.9468C18.1496 38.2293 16.2115 37.1326 14.5302 35.7372C13.863 36.6013 13.3071 37.5419 12.8851 38.543C12.3106 39.9071 12.8408 41.4887 14.1173 42.2379C15.9441 43.3105 17.9291 44.1423 20.0263 44.6967C19.2569 43.1524 19.475 40.8341 20.2625 38.9468Z" fill="#92BFD6"/>
<path d="M21.2973 20.5651C20.7776 20.5651 20.2535 20.4064 19.8008 20.0776L16.6632 17.7986C15.2891 16.8006 13.4365 16.8837 12.157 18.0005L10.1026 19.7941C9.04164 20.7201 7.43081 20.6109 6.5048 19.5499C5.57829 18.489 5.68756 16.8781 6.74852 15.9521L8.80246 14.1585C10.2844 12.8649 12.1822 12.1046 14.1465 12.0165C16.1113 11.9283 18.0691 12.5165 19.6603 13.6721L22.7978 15.9511C23.9374 16.7789 24.1901 18.3736 23.3623 19.5132C22.8638 20.2 22.0858 20.5651 21.2973 20.5651Z" fill="#495059"/>
<path d="M30.8882 20.5651C30.0997 20.5651 29.3217 20.2 28.8227 19.5132C27.9954 18.3737 28.2481 16.7789 29.3876 15.9516L32.5252 13.6721C34.1164 12.5165 36.0747 11.9294 38.039 12.0165C40.0033 12.1046 41.9011 12.8654 43.3825 14.1585L45.437 15.9521C46.4979 16.8786 46.6072 18.4895 45.6807 19.5504C44.7547 20.6114 43.1439 20.7202 42.0829 19.7941L40.0285 18.0005C38.749 16.8837 36.8959 16.8006 35.5223 17.7986L32.3847 20.0781C31.932 20.4065 31.4078 20.5651 30.8882 20.5651Z" fill="#495059"/>
<path d="M26.0931 40.7616C39.0381 40.7616 44.8716 34.8314 43.0513 26.4817C41.0945 17.5086 34.9317 12.5966 26.0931 12.5966C17.2544 12.5966 11.0911 17.5086 9.13483 26.4817C7.31403 34.8314 13.148 40.7616 26.0931 40.7616Z" fill="#DDAF89"/>
<path d="M32.017 45.9349C32.017 47.9098 30.4163 49.511 28.4409 49.511C26.466 49.511 24.8652 47.9098 24.8652 45.9349C24.8652 43.96 26.466 42.3588 28.4409 42.3588C30.4163 42.3588 32.017 43.96 32.017 45.9349Z" fill="#F6E06A"/>
<path d="M21.774 28.236C21.774 26.6121 20.1209 25.2958 18.0821 25.2958C16.0432 25.2958 14.3906 26.6121 14.3906 28.236C14.3906 29.8594 16.0432 31.1757 18.0821 31.1757C20.1209 31.1757 21.774 29.8594 21.774 28.236Z" fill="#FFDBDB"/>
<path d="M42.4918 28.236C42.4918 26.6121 40.8392 25.2958 38.8004 25.2958C36.761 25.2958 35.1084 26.6121 35.1084 28.236C35.1084 29.8594 36.761 31.1757 38.8004 31.1757C40.8392 31.1757 42.4918 29.8594 42.4918 28.236Z" fill="#FFDBDB"/>
<path d="M30.3769 25.8059C29.1075 25.4736 27.7741 25.4736 26.5052 25.8059C25.9795 25.9434 25.5213 26.2666 25.2156 26.7163C24.8032 27.3231 25.0404 28.1554 25.7106 28.4535L27.5707 29.2808C28.1246 29.5271 28.757 29.5271 29.3114 29.2808L31.1715 28.4535C31.8417 28.1554 32.0789 27.3231 31.6665 26.7163C31.3608 26.2666 30.9026 25.9434 30.3769 25.8059Z" fill="#495059"/>
<path d="M21.7869 49.5408C18.1306 49.5408 14.5611 47.8484 12.0388 44.8639C11.1027 43.7561 11.2417 42.0994 12.3495 41.1629C13.4573 40.2268 15.1144 40.3663 16.0505 41.4735C16.6835 42.2223 19.0174 44.6333 22.5064 44.2491C23.947 44.0894 25.2457 45.1287 25.4053 46.5704C25.5644 48.012 24.5251 49.3101 23.0835 49.4693C22.6509 49.5176 22.2184 49.5408 21.7869 49.5408Z" fill="#DDAF89"/>
<path d="M56.9578 52.268L49.9722 51.6567C48.2285 51.5041 46.6267 50.6128 45.5768 49.212C44.5274 47.8106 44.1231 46.0226 44.467 44.3065L45.0561 41.3693C45.4529 39.3879 45.3769 37.3118 44.8351 35.3646C44.5511 34.3429 45.1488 33.285 46.1705 33.001C47.1917 32.717 48.2501 33.3147 48.5341 34.3359C49.236 36.8611 49.3352 39.5541 48.8201 42.1236L48.2315 45.0608C48.0995 45.7174 48.2481 46.3745 48.6499 46.9103C49.0512 47.4466 49.6399 47.7739 50.3071 47.8323L57.2927 48.4436C57.9594 48.502 58.5963 48.2814 59.0848 47.8232C59.5732 47.3655 59.8335 46.7441 59.8179 46.0744L59.7484 43.0799C59.6875 40.4594 60.2525 37.8244 61.3824 35.4598C61.8396 34.5036 62.9857 34.0982 63.9419 34.5554C64.8986 35.0127 65.303 36.1587 64.8463 37.1149C63.9747 38.9383 63.5391 40.97 63.5864 42.9907L63.6559 45.9848C63.6967 47.7351 62.9877 49.4255 61.7112 50.6234C60.4343 51.8208 58.7016 52.4205 56.9578 52.268Z" fill="#F6E06A"/>
<path d="M55.1869 52.1129C54.2896 51.1048 53.7452 49.5312 53.4758 48.1097L50.3066 47.8323C49.6399 47.7739 49.0512 47.4466 48.6494 46.9108C48.2481 46.3745 48.0995 45.7174 48.231 45.0608L48.8201 42.1241C49.3352 39.5541 49.236 36.8611 48.5341 34.3359C48.2501 33.3147 47.1912 32.717 46.17 33.001C45.1488 33.285 44.5511 34.3429 44.8351 35.3646C45.3769 37.3113 45.4529 39.3879 45.0556 41.3693L44.467 44.3065C44.1231 46.0226 44.5274 47.8106 45.5768 49.212C46.6262 50.6128 48.2285 51.5041 49.9722 51.6567L55.1869 52.1129Z" fill="#EDCC5F"/>
<path d="M26.0928 10.3699C31.1458 10.3699 36.5841 9.13069 36.5841 6.40956C36.5841 3.68843 31.1458 2.44922 26.0928 2.44922C21.0393 2.44922 15.601 3.68843 15.601 6.40956C15.601 9.13019 21.0393 10.3699 26.0928 10.3699ZM19.7356 5.18797C21.4341 4.66882 23.6914 4.38281 26.0928 4.38281C28.4937 4.38281 30.7511 4.66882 32.45 5.18797C34.2129 5.72676 34.6389 6.29626 34.6505 6.40956C34.6389 6.52286 34.2129 7.09236 32.45 7.63115C30.7511 8.1503 28.4937 8.43631 26.0928 8.43631C23.6919 8.43631 21.4341 8.1503 19.7356 7.63115C17.9702 7.09186 17.5452 6.52135 17.5346 6.41006C17.5452 6.29778 17.9702 5.72777 19.7356 5.18797ZM64.3588 33.6833C63.6629 33.3505 62.8794 33.3087 62.1523 33.566C61.4257 33.8228 60.8421 34.3475 60.5098 35.0429C60.3884 35.2961 60.2751 35.5535 60.1664 35.8123L49.6696 34.8938C49.6076 34.6199 49.5407 34.3475 49.4651 34.0766C49.2587 33.3338 48.7753 32.716 48.1041 32.3368C47.4328 31.9577 46.6539 31.8625 45.9111 32.069C44.8995 32.3504 44.1639 33.1405 43.9025 34.0851C43.828 33.8565 43.7318 33.6324 43.6095 33.4169C44.4287 31.3091 44.5652 28.8891 43.9957 26.2752C43.5742 24.3431 42.9649 22.5878 42.1769 21.0107C42.6744 21.262 43.2162 21.3884 43.7575 21.3884C44.7384 21.3884 45.7148 20.9815 46.4086 20.1864C47.6841 18.7256 47.5335 16.4995 46.0728 15.224L44.0183 13.4304C42.3728 11.9938 40.2644 11.1484 38.0816 11.0507C36.0976 10.9606 34.1162 11.4973 32.4435 12.5623C30.5109 11.9425 28.39 11.6298 26.0923 11.6298C23.7946 11.6298 21.6737 11.9425 19.7412 12.5623C18.0684 11.4973 16.086 10.9611 14.103 11.0507C11.9207 11.1484 9.81235 11.9933 8.16628 13.4304L6.11183 15.224C4.65106 16.4995 4.5005 18.7251 5.77597 20.1859C6.46985 20.981 7.44621 21.3884 8.42711 21.3884C8.96841 21.3884 9.51022 21.2615 10.0077 21.0107C9.22018 22.5878 8.6104 24.3431 8.18944 26.2752C7.68741 28.5779 7.73424 30.7295 8.3123 32.6505C8.23274 32.5846 8.15268 32.5171 8.0706 32.4466C6.5625 31.1591 4.28751 31.3373 2.99895 32.8449C1.93597 34.0892 1.87152 35.8551 2.72855 37.1587C2.47174 37.2227 2.22148 37.3138 1.9823 37.4327C1.1142 37.8637 0.472182 38.6019 0.175597 39.5118C-0.428147 41.3603 0.575408 43.3845 2.41232 44.024C2.45764 44.0401 2.50296 44.0557 2.54828 44.0713C1.99791 44.7451 1.70485 45.6066 1.74866 46.515C1.83527 48.3026 3.24367 49.7684 5.02469 49.924C5.12842 49.933 5.23416 49.9376 5.3399 49.9376C5.39832 49.9376 5.45673 49.9361 5.51564 49.9335C8.4679 49.7905 11.1638 49.2598 13.5506 48.357C13.7888 48.8373 14.0572 49.3006 14.3548 49.7437C12.8321 50.9442 11.7233 50.493 11.3285 50.3318C10.5697 50.0217 9.73581 50.0262 8.98 50.3434C8.22519 50.6607 7.63806 51.2533 7.32838 52.0122C6.68889 53.5782 7.44269 55.3723 9.0087 56.0118C10.123 56.467 11.2676 56.6976 12.4106 56.6976C14.7435 56.6976 16.9249 55.7494 18.9068 53.8833C19.1208 54.0027 19.3398 54.1149 19.5609 54.2232C19.6319 55.479 19.2311 56.1981 18.9043 56.6427C18.588 57.0732 18.6802 57.678 19.1107 57.9947C19.2829 58.1211 19.4838 58.1825 19.6827 58.1825C19.9798 58.1825 20.2729 58.0461 20.4622 57.7883C21.0695 56.9625 21.4084 56.0405 21.4869 54.9977C22.5323 55.3335 23.6315 55.5571 24.766 55.6553C24.5112 57.7878 23.4996 59.6755 21.7513 61.2773C21.4446 61.5583 21.0468 61.7129 20.6309 61.7129C20.1596 61.7129 19.725 61.522 19.4068 61.1746C19.1837 60.9309 19.0392 60.6297 18.9899 60.305C18.9098 59.7767 18.4168 59.4132 17.8891 59.4938C17.3614 59.5738 16.9979 60.0668 17.0779 60.595C17.1852 61.301 17.4974 61.953 17.9813 62.4808C18.6595 63.222 19.6258 63.647 20.6309 63.647C21.5317 63.647 22.3933 63.3116 23.0575 62.7033C25.2121 60.7289 26.4342 58.3769 26.7041 55.7016C27.4186 55.6729 28.1191 55.5948 28.8013 55.4705C28.5848 56.3356 28.0838 56.9131 27.5475 57.4041C26.0868 58.7425 25.9871 61.02 27.3255 62.4808C28.0042 63.222 28.97 63.647 29.9756 63.647C30.8759 63.647 31.7375 63.3116 32.4017 62.7033C35.5216 59.8452 36.6797 56.2495 35.8519 52.0101C36.6208 51.3057 37.2991 50.5187 37.8681 49.6652C38.7825 49.7951 39.7292 49.8862 40.695 49.9335C40.7529 49.9361 40.8113 49.9376 40.8697 49.9376C40.9754 49.9376 41.0812 49.933 41.1849 49.924C42.34 49.8228 43.338 49.1702 43.9211 48.2361C44.1472 48.7845 44.4408 49.3082 44.8023 49.791C46.0169 51.4119 47.8704 52.4432 49.8876 52.6194L56.8732 53.2307C57.0807 53.2489 57.2881 53.2579 57.4951 53.2579C58.0827 53.2579 58.6673 53.1849 59.2409 53.0399C59.7585 52.909 60.0717 52.3833 59.9413 51.8656C59.8104 51.348 59.2847 51.0348 58.767 51.1652C58.2015 51.3082 57.621 51.355 57.0419 51.3042L50.0563 50.6929C48.5859 50.5645 47.2354 49.8132 46.3502 48.6319C45.6287 47.6676 45.2686 46.4858 45.319 45.297C45.3195 45.2894 45.32 45.2813 45.3205 45.2733C45.3326 45.014 45.3633 44.7536 45.4152 44.4958L46.0038 41.5587C46.1785 40.6865 46.2661 39.7973 46.2712 38.9075C46.2712 38.8995 46.2712 38.8914 46.2712 38.8834C46.2757 37.6084 46.108 36.3329 45.7661 35.1048C45.6256 34.5987 45.9232 34.0725 46.4293 33.9315C46.674 33.8636 46.9313 33.8948 47.1529 34.0202C47.3744 34.1456 47.534 34.3495 47.602 34.5942C48.2637 36.9739 48.3568 39.5118 47.8714 41.9333L47.2828 44.8705C47.0965 45.8005 47.3075 46.7305 47.8754 47.4899C48.4439 48.2487 49.2773 48.7125 50.2224 48.795L51.514 48.9078H51.515H51.5165L55.9316 49.2946H55.9326H55.9336L57.2076 49.4058C58.1522 49.4884 59.0535 49.1772 59.7454 48.5282C60.4373 47.8796 60.8059 46.9999 60.7837 46.0513L60.7142 43.0572C60.6568 40.5873 61.189 38.1044 62.254 35.8762C62.3638 35.6466 62.5567 35.4734 62.7963 35.3888C63.036 35.3042 63.2943 35.3178 63.524 35.4276C63.9983 35.6542 64.1997 36.2242 63.9731 36.6975C63.0365 38.6568 62.5682 40.8406 62.6186 43.0129L62.6886 46.0069C62.7173 47.2462 62.3004 48.4582 61.5148 49.4189C61.177 49.8323 61.2379 50.4416 61.6513 50.7795C62.0647 51.1179 62.674 51.0564 63.0119 50.643C64.0894 49.3248 64.6615 47.6626 64.6217 45.9621L64.5522 42.9676C64.5084 41.0979 64.9117 39.2182 65.7179 37.5314C66.4047 36.0958 65.7944 34.3696 64.3588 33.6833ZM43.0601 39.047C42.3219 39.4131 41.413 39.6981 40.4915 39.8522C40.5167 39.2892 40.4215 38.7147 40.1914 38.1678C40.1683 38.1129 40.1436 38.0571 40.1194 38.0012C40.2262 37.9181 40.3309 37.8335 40.4341 37.7479C40.3903 38.0062 40.4301 38.2791 40.5645 38.5238C40.846 39.0369 41.4523 39.2701 42.0052 39.0787C42.3546 38.9574 42.7232 38.9529 43.0601 39.047ZM37.9955 12.9823C39.7423 13.0608 41.4296 13.7371 42.7469 14.8867L44.8013 16.6803C45.459 17.2548 45.5269 18.2569 44.9524 18.9145C44.3784 19.5716 43.3758 19.6396 42.7187 19.0655L40.6642 17.2724C40.1023 16.7815 39.4321 16.4366 38.7105 16.2643C38.4049 15.9728 38.0907 15.6908 37.7623 15.4239C36.8474 14.6802 35.86 14.0457 34.8035 13.5195C35.8142 13.1212 36.9053 12.9344 37.9955 12.9823ZM9.46642 19.0655C8.80879 19.6401 7.80725 19.5721 7.23271 18.9145C6.65868 18.2569 6.72665 17.2548 7.38428 16.6808L9.43822 14.8872C10.7555 13.7371 12.4428 13.0608 14.1896 12.9823C15.2803 12.9344 16.371 13.1217 17.3816 13.5195C16.3251 14.0457 15.3372 14.6802 14.4228 15.4239C14.0945 15.6908 13.7802 15.9728 13.4746 16.2643C12.753 16.4371 12.0828 16.7815 11.5209 17.2724L9.46642 19.0655ZM10.0787 26.6876C10.8773 23.0264 12.396 20.0782 14.5476 17.9094C14.6005 17.8671 14.6478 17.8193 14.6906 17.7674C16.1358 16.352 17.8599 15.2824 19.8368 14.5755C19.8988 14.5609 19.9597 14.5397 20.0176 14.5125C21.8384 13.8871 23.8687 13.5634 26.0928 13.5634C28.3164 13.5634 30.3462 13.8871 32.167 14.512C32.2254 14.5397 32.2863 14.5609 32.3488 14.576C34.3252 15.2824 36.0488 16.352 37.494 17.7669C37.5368 17.8193 37.5851 17.8676 37.638 17.9099C39.7896 20.0787 41.3078 23.0264 42.1064 26.6876C42.6331 29.1021 42.4815 31.2396 41.6628 33.0715C41.6426 33.1103 41.626 33.1501 41.6109 33.1903C41.3264 33.8006 40.9674 34.3767 40.5323 34.9165C39.9533 35.636 39.2498 36.278 38.4305 36.8425C38.3777 36.8712 38.3288 36.9044 38.2835 36.9412C35.4697 38.8159 31.3276 39.7948 26.0928 39.7948C20.8575 39.7948 16.7149 38.8159 13.9011 36.9407C13.8568 36.9044 13.8079 36.8717 13.7561 36.843C12.9363 36.2785 12.2324 35.636 11.6533 34.9165C9.89392 32.7331 9.3647 29.9642 10.0787 26.6876ZM26.3657 46.4647C26.3139 45.9959 26.1734 45.5507 25.9553 45.1484C26.2922 44.0749 27.2872 43.3256 28.4408 43.3256C29.8799 43.3256 31.0502 44.4963 31.0502 45.9349C31.0502 47.3736 29.8799 48.5443 28.4408 48.5443C27.6014 48.5443 26.8219 48.1409 26.334 47.4738C26.3909 47.148 26.404 46.8091 26.3657 46.4647ZM24.489 43.6912C23.8541 43.3498 23.1315 43.2078 22.4003 43.2883C19.3857 43.6202 17.3428 41.5058 16.7884 40.8497C16.5492 40.5662 16.2748 40.3295 15.9777 40.1402C18.7426 41.1881 22.143 41.7284 26.0923 41.7284C26.3083 41.7284 26.5223 41.7263 26.7348 41.7228C25.7877 42.1055 24.9941 42.7994 24.489 43.6912ZM14.8563 39.6704C14.4535 39.5777 14.0365 39.5546 13.6252 39.6024C13.6322 39.4287 13.6609 39.2565 13.7143 39.0888C14.0793 39.2943 14.4605 39.4881 14.8563 39.6704ZM5.42299 48.0025C5.34544 48.006 5.2684 48.0045 5.19337 47.9979C4.37109 47.9259 3.72052 47.2487 3.68024 46.4219C3.64952 45.7849 3.97833 45.1967 4.53777 44.8876C4.97182 44.6484 5.21956 44.1736 5.16971 43.6796C5.11935 43.1816 4.77896 42.7631 4.3016 42.6136C3.90985 42.4912 3.48788 42.3512 3.04829 42.1982C2.19882 41.9026 1.73506 40.9665 2.01402 40.112C2.14847 39.6996 2.44304 39.3632 2.84235 39.1648C3.26381 38.9559 3.7603 38.9241 4.20543 39.0787C4.75832 39.2701 5.36458 39.0369 5.64606 38.5238C5.92703 38.0112 5.79863 37.3758 5.34041 37.0122C5.11633 36.8345 4.88521 36.6441 4.65358 36.4462C3.95618 35.8505 3.8736 34.7981 4.46928 34.1012C5.06497 33.4038 6.11737 33.3218 6.81477 33.9169C8.04744 34.9704 9.04596 35.6255 10.0974 36.0661C10.114 36.0872 10.1301 36.1089 10.1467 36.1295C10.6981 36.8143 11.3396 37.4382 12.0662 38.0012C12.0415 38.0565 12.0168 38.1124 11.9937 38.1678C11.6926 38.8829 11.6135 39.6533 11.7545 40.401C11.7449 40.4091 11.7349 40.4161 11.7253 40.4247C10.9921 41.0441 10.5445 41.9117 10.4639 42.8684C10.3839 43.8246 10.681 44.7551 11.3003 45.4878C11.6634 45.9178 12.0481 46.3222 12.4499 46.7013C10.3557 47.4405 7.9996 47.8776 5.42299 48.0025ZM12.7772 44.24C12.4912 43.9016 12.3537 43.4716 12.391 43.03C12.4282 42.5884 12.6347 42.1876 12.9731 41.9016C13.0773 41.814 13.1891 41.7425 13.3059 41.6846C13.3215 41.6765 13.3376 41.6689 13.3527 41.6604C13.5723 41.5602 13.8079 41.5103 14.0431 41.5103C14.5149 41.5103 14.9837 41.7102 15.3115 42.098C16.0215 42.9384 18.6465 45.6469 22.6123 45.2103C23.0519 45.161 23.4855 45.2874 23.8314 45.5643C23.9442 45.6545 24.0419 45.7587 24.126 45.8715C24.133 45.8816 24.1411 45.8911 24.1481 45.9007C24.3098 46.1278 24.412 46.3927 24.4437 46.6772C24.5444 47.5865 23.8863 48.4078 22.9769 48.5085C22.5831 48.5523 22.1823 48.5745 21.786 48.5745C19.3288 48.5745 16.9319 47.7477 14.9122 46.2481C14.8981 46.2371 14.884 46.2265 14.8694 46.2159C14.7365 46.1162 14.6045 46.014 14.4746 45.9082C14.4711 45.9057 14.4676 45.9027 14.4641 45.8997C13.8608 45.4072 13.2953 44.8528 12.7772 44.24ZM12.4111 54.764C11.5199 54.764 10.621 54.5817 9.74034 54.2222C9.16127 53.9855 8.88281 53.3224 9.11897 52.7433C9.23378 52.4628 9.4503 52.2438 9.72977 52.1265C10.0087 52.0091 10.3174 52.0076 10.5979 52.1224C11.8074 52.6164 13.5934 52.8143 15.5557 51.2609C16.0678 51.8158 16.6303 52.3264 17.2355 52.7886C15.7204 54.0988 14.102 54.764 12.4111 54.764ZM31.096 61.2778C30.7893 61.5588 30.3915 61.7134 29.9756 61.7134C29.5043 61.7134 29.0697 61.5225 28.7515 61.1751C28.1337 60.5003 28.1795 59.4484 28.8542 58.8306C29.6624 58.0904 30.6962 56.9101 30.8326 54.9488C32.0079 54.555 33.1076 54.0193 34.1082 53.3642C34.4662 56.4997 33.4737 59.0995 31.096 61.2778ZM26.0928 53.7816C24.2645 53.7816 22.5187 53.411 20.9547 52.7383C20.8922 52.702 20.8253 52.6728 20.7558 52.6512C20.282 52.4371 19.8252 52.196 19.3887 51.9276C19.3182 51.8681 19.2416 51.8203 19.1611 51.7841C18.1389 51.1234 17.2345 50.3162 16.4898 49.3872C18.1605 50.1183 19.9577 50.5081 21.786 50.5081C22.2533 50.5081 22.7256 50.4819 23.1894 50.4305C24.0726 50.3329 24.845 49.9205 25.4105 49.3187C26.2308 50.0534 27.3043 50.4779 28.4408 50.4779C30.9459 50.4779 32.9838 48.44 32.9838 45.9349C32.9838 45.7809 32.9757 45.6283 32.9606 45.4782C34.6872 44.9787 36.3504 44.2919 37.924 43.4298C37.7704 49.1616 32.522 53.7816 26.0928 53.7816ZM38.0695 40.9947C38.0685 40.9957 38.0675 40.9972 38.066 40.9982C37.929 41.1548 37.7669 41.2938 37.5791 41.4036C35.94 42.3658 34.1872 43.1161 32.3589 43.6393C31.7722 42.6418 30.816 41.888 29.68 41.5652C33.1862 41.2344 36.144 40.3995 38.4713 39.0883C38.6828 39.756 38.5182 40.4796 38.0695 40.9947ZM41.0167 47.9979C40.9417 48.0045 40.8647 48.006 40.7881 48.0025C40.137 47.9707 39.497 47.9164 38.8696 47.8444C38.9698 47.6183 39.063 47.3892 39.1486 47.1565C40.2226 47.148 41.3551 47.016 42.4725 46.7738C42.2937 47.434 41.7187 47.9365 41.0167 47.9979ZM44.108 41.1795L43.5193 44.1161C43.4926 44.2491 43.4705 44.383 43.4513 44.517C43.3305 44.5552 43.2091 44.592 43.0868 44.6272C43.0863 44.6272 43.0858 44.6277 43.0853 44.6277H43.0848C41.9614 44.952 40.7927 45.1514 39.6793 45.2078C39.7987 44.5447 39.8616 43.8644 39.8616 43.1705C39.8616 42.7561 39.8389 42.3381 39.7936 41.9227C39.8037 41.9081 39.8143 41.894 39.8238 41.8794C41.1305 41.7742 42.8058 41.4006 44.2026 40.6347C44.1749 40.817 44.1442 40.9987 44.108 41.1795ZM43.4841 37.1608C43.7298 36.7901 43.8985 36.3828 43.9921 35.9613C44.113 36.4523 44.2016 36.9513 44.2595 37.4543C44.0128 37.3284 43.7535 37.2282 43.4841 37.1608ZM50.721 46.8977L50.3911 46.869C49.9959 46.8343 49.6615 46.6485 49.4238 46.3307C49.1857 46.0135 49.1011 45.6399 49.1791 45.2506L49.7678 42.314C50.1268 40.5244 50.2018 38.6789 50.0009 36.8642L51.586 37.0026L50.721 46.8977ZM55.138 47.2844L52.647 47.0664L53.5126 37.1713L56.0036 37.3894L55.138 47.2844ZM58.7811 43.1025L58.8511 46.0971C58.8602 46.4939 58.7126 46.8468 58.4226 47.1183C58.1336 47.3897 57.772 47.5155 57.3767 47.4803L57.0646 47.4531L57.9301 37.558L59.4982 37.695C58.9856 39.4468 58.7388 41.2777 58.7811 43.1025ZM20.2336 26.2813C21.135 26.2813 21.9925 25.891 22.5856 25.2102C22.9366 24.8074 22.8943 24.1966 22.492 23.8461C22.0897 23.4952 21.4789 23.537 21.1279 23.9398C20.9018 24.1991 20.576 24.3477 20.2336 24.3477C19.8912 24.3477 19.5654 24.1991 19.3393 23.9398C18.9889 23.537 18.3781 23.4952 17.9752 23.8461C17.5729 24.1966 17.5306 24.8074 17.8816 25.2102C18.4753 25.891 19.3323 26.2813 20.2336 26.2813ZM28.4408 34.7634C30.3029 34.7634 32.0744 33.9567 33.3005 32.5503C33.6509 32.148 33.6091 31.5372 33.2068 31.1862C32.804 30.8353 32.1932 30.8771 31.8427 31.2799C31.2002 32.0166 30.3442 32.5186 29.4076 32.7246V30.2779C29.5078 30.2451 29.607 30.2074 29.7042 30.1641L31.5638 29.3372C32.1459 29.0784 32.5799 28.5784 32.7546 27.9656C32.9294 27.3528 32.8241 26.6992 32.4656 26.1725C32.0285 25.53 31.3739 25.0672 30.6216 24.8703C29.1951 24.4972 27.6865 24.4972 26.26 24.8703C25.5077 25.0672 24.8531 25.5295 24.416 26.1725C24.0575 26.6992 23.9523 27.3528 24.127 27.9656C24.3017 28.5784 24.7358 29.0784 25.3179 29.3367L27.1779 30.1641C27.2751 30.2074 27.3738 30.2451 27.474 30.2779V32.7246C26.5379 32.5186 25.6819 32.0171 25.0394 31.2799C24.6884 30.8776 24.0776 30.8358 23.6753 31.1862C23.273 31.5372 23.2307 32.148 23.5817 32.5503C24.8078 33.9567 26.5787 34.7634 28.4408 34.7634ZM26.1034 27.5703C26.0294 27.5371 25.9991 27.4787 25.9871 27.4359C25.9745 27.3926 25.9694 27.3271 26.0153 27.2601C26.1895 27.0038 26.4503 26.8195 26.7499 26.7415C27.3028 26.5965 27.8718 26.524 28.4408 26.524C29.0098 26.524 29.5788 26.5965 30.1322 26.7415C30.4318 26.8195 30.6926 27.0038 30.8669 27.2601C30.9127 27.3271 30.9077 27.3926 30.8951 27.4359C30.883 27.4787 30.8528 27.5371 30.7782 27.5703L28.9187 28.3976C28.615 28.5326 28.2671 28.5321 27.964 28.3976L26.1034 27.5703ZM36.6485 26.2813C37.5499 26.2813 38.4069 25.891 39.0006 25.2102C39.351 24.8074 39.3092 24.1966 38.9069 23.8461C38.5041 23.4952 37.8938 23.537 37.5423 23.9398C37.3167 24.1991 36.9909 24.3477 36.648 24.3477C36.3056 24.3477 35.9798 24.1991 35.7537 23.9398C35.4028 23.537 34.792 23.4952 34.3896 23.8461C33.9873 24.1966 33.9455 24.8074 34.296 25.2102C34.8897 25.891 35.7467 26.2813 36.6485 26.2813Z" fill="black"/>
</g>
<defs>
<clipPath id="clip0_1591_25201">
<rect width="66.0001" height="66" fill="white"/>
</clipPath>
</defs>
</svg>
