<svg width="48" height="48" viewBox="0 0 48 48" fill="none" xmlns="http://www.w3.org/2000/svg">
<g clip-path="url(#clip0_1628_9937)">
<path d="M42.9529 45.5339H42.7306L42.7235 39.8674L41.7759 44.8988C42.607 45.5764 42.4911 46.551 42.5012 46.5989C42.5012 46.6972 42.4902 46.7929 42.4704 46.8854H43.5642C43.7225 46.8854 43.8507 46.7572 43.8507 46.5989V46.4318C43.8508 45.9358 43.4488 45.5339 42.9529 45.5339Z" fill="#53A77D"/>
<path d="M39.1319 31.8547C39.2751 31.6613 39.4091 31.4805 39.5354 31.3103L21.4384 24.3832C21.4011 24.8246 21.2634 25.2642 21.0155 25.6672C20.9667 25.7467 20.9143 25.8226 20.8594 25.8956L37.1813 32.1433L39.1319 31.8547Z" fill="#53A77D"/>
<path d="M32.5813 41.5199C32.3406 41.8529 32.0547 42.2023 31.7471 42.5404L31.9861 46.364C32.0044 46.6568 32.2472 46.8853 32.5405 46.8853H34.0892C34.2474 46.8853 34.3757 46.7571 34.3757 46.5988V46.4317C34.3757 45.9472 33.9916 45.5534 33.5115 45.5356L34.2982 41.2437C34.2982 41.2437 33.363 41.1279 32.9347 41.0741C32.8249 41.2318 32.7068 41.3805 32.5813 41.5199Z" fill="#53A77D"/>
<path d="M47.8765 31.9167L47.1916 31.4974C46.906 31.3225 46.6868 31.061 46.5493 30.7556C46.2179 30.0197 45.561 29.4674 44.7588 29.2768L44.3549 29.1808C44.1216 29.0918 43.9634 28.8742 43.9485 28.625C43.936 28.4134 43.9312 28.1904 43.9406 27.9709C43.9509 27.7277 43.9786 27.4891 44.0326 27.276C44.0632 27.1552 43.9546 27.0422 43.8324 27.0665C43.4602 27.1405 43.067 27.5169 42.6972 28.012C41.8054 29.2055 40.9209 31.2602 40.9209 31.2602L45.0759 34.1497C45.4086 34.1497 45.898 34.1985 46.2337 34.321C46.3835 34.3757 46.5386 34.4022 46.6921 34.4022C47.0675 34.4022 47.4336 34.2437 47.691 33.9507C47.691 33.9508 48.2381 32.2404 47.8765 31.9167Z" fill="#53A77D"/>
<path d="M39.8106 32.9994L43.2169 35.3502C43.3705 35.4562 43.5804 35.4209 43.6909 35.2706L44.0539 34.7766C44.1704 34.6179 44.1309 34.3941 43.9669 34.2851L40.5566 32.0176C40.4125 31.9218 40.2197 31.9476 40.1058 32.0778L39.7469 32.4885C39.6112 32.6436 39.6411 32.8823 39.8106 32.9994Z" fill="#53A77D"/>
<path d="M20.0912 24.8503C20.6234 23.9853 20.3535 22.8527 19.4885 22.3206L13.6789 18.7464L12.2272 14.5788L14.1692 17.774L19.9278 21.3166L22.1746 21.8875C23.1596 22.1354 24.1588 21.5377 24.4066 20.5531C24.6545 19.5682 24.057 18.5689 23.0722 18.321L17.714 16.967L15.2473 14.1256L15.2972 13.3798C15.3976 11.8796 14.2627 10.5821 12.7624 10.4818L7.91828 10.1579C6.41806 10.0577 5.12061 11.1925 5.02026 12.6926L4.11459 26.6312C4.11459 26.6312 4.37655 31.9051 4.50449 34.4783L0.205277 43.7499C-0.307398 44.8556 0.173294 46.1674 1.27893 46.68C2.38447 47.1926 3.69636 46.712 4.20904 45.6064L8.7372 35.8406C8.88773 35.5161 8.95695 35.1598 8.93923 34.8025L8.5467 26.9276L9.54147 26.9941L11.9831 34.255L12.9098 44.87C13.0153 46.0787 14.0801 46.9826 15.2999 46.8764C16.514 46.7704 17.4122 45.7003 17.3063 44.4862L16.3567 33.6092C16.3415 33.4351 16.3057 33.2634 16.25 33.0977L14.3046 27.3127L14.3653 27.3167L14.5294 24.8616C13.3122 24.1128 11.5354 23.0197 10.2191 22.2099C9.7496 21.921 9.46259 21.4385 9.39647 20.9313L8.75427 15.7883L10.4213 20.5743C10.5605 20.9742 10.8336 21.3138 11.1942 21.5356L17.5615 25.4529C18.4227 25.9828 19.5566 25.7191 20.0912 24.8503Z" fill="#53A77D"/>
<path d="M10.979 9.16476C13.1999 9.31323 15.1205 7.6333 15.269 5.41246C15.4175 3.19171 13.7376 1.27101 11.5168 1.12253C9.29609 0.974059 7.37539 2.65399 7.22692 4.87474C7.07835 7.09558 8.75828 9.01619 10.979 9.16476Z" fill="#53A77D"/>
<path d="M42.3061 38.2827C42.576 37.6154 42.8369 36.9065 43.0653 36.2567C38.4427 33.0411 38.5005 33.0396 38.5005 33.0396C38.5005 33.0396 30.733 34.0572 29.8789 34.4898C29.4894 34.5703 28.5245 34.9875 27.8222 35.5368C27.2457 35.9804 26.7634 36.5204 26.3868 37.1032C26.3866 37.1035 26.3864 37.1037 26.3863 37.104C26.0055 37.6855 25.7295 38.3101 25.5265 38.9433C25.3341 39.5485 25.1871 40.2587 25.151 40.8956C25.1402 41.0835 25.275 41.2576 25.4749 41.2827C25.6623 41.3063 25.8347 41.1737 25.8808 40.9905L25.883 40.9819C26.0197 40.4392 26.2439 39.8671 26.517 39.3521C26.7354 38.9424 26.9878 38.5574 27.2751 38.2148C27.2117 38.9782 27.2943 39.3029 27.3451 40.2429C27.4189 41.424 27.625 44.7196 27.7278 46.3642V46.3645C27.7461 46.6577 27.9889 46.8853 28.2827 46.8853H29.8308C29.989 46.8853 30.1173 46.757 30.1173 46.5988V46.4317C30.1173 45.9471 29.7332 45.5534 29.2531 45.5356C29.3223 45.168 29.8086 42.5858 29.8086 42.5858C31.3043 41.794 32.6394 39.7666 32.6836 38.0677C32.6912 37.7745 32.8954 37.5134 33.1862 37.4749C33.5431 37.4275 33.8477 37.7039 33.8477 38.0514C33.8477 38.7666 33.7139 39.4448 33.4757 40.0534C35.1544 40.263 38.6756 40.6659 38.6756 40.6659L39.0319 46.3642C39.0501 46.6569 39.2926 46.8854 39.5858 46.8856C41.2939 46.8867 41.1766 46.8924 41.2464 46.8629C41.4515 46.7761 41.4213 46.5733 41.4213 46.4312C41.4211 45.9567 41.0459 45.5538 40.5572 45.5356C40.5572 45.5356 40.5572 45.5356 40.5571 45.5356L41.7426 39.2411C41.9723 38.9562 42.1635 38.6351 42.3061 38.2827Z" fill="#53A77D"/>
</g>
<defs>
<clipPath id="clip0_1628_9937">
<rect width="48" height="48" fill="white"/>
</clipPath>
</defs>
</svg>
