<svg width="66" height="66" viewBox="0 0 66 66" fill="none" xmlns="http://www.w3.org/2000/svg">
<g clip-path="url(#clip0_1591_25563)">
<path d="M12.2942 55.0103C11.5938 55.0103 10.8631 54.9498 10.0978 54.832C8.72562 54.6205 7.78501 53.3365 7.9965 51.9638C8.20798 50.5917 9.49201 49.6516 10.8647 49.8626C13.3839 50.2513 15.5602 50.1184 18.6786 44.7068C19.372 43.5039 20.9093 43.0905 22.1122 43.7838C23.3157 44.4772 23.7286 46.0145 23.0357 47.2175C19.9183 52.626 16.7007 55.0103 12.2942 55.0103Z" fill="#495059"/>
<path d="M22.9147 63.0079C21.2898 63.0079 19.9131 61.7561 19.7847 60.1086C19.4559 55.8823 19.5878 52.7277 20.2409 49.2195C20.5586 47.513 22.1996 46.3871 23.9056 46.7043C25.6121 47.0221 26.7381 48.6626 26.4203 50.3691C25.8679 53.3385 25.7642 55.9322 26.0512 59.6206C26.1862 61.3513 24.8921 62.8634 23.1619 62.9979C23.0793 63.0044 22.9962 63.0079 22.9147 63.0079Z" fill="#DDAF89"/>
<path d="M35.4402 63.008C35.3581 63.008 35.276 63.0044 35.1929 62.9979C33.4623 62.8634 32.1687 61.3513 32.3031 59.6206C32.5906 55.9322 32.4869 53.3385 31.9345 50.3691C31.6168 48.6626 32.7427 47.0221 34.4492 46.7043C36.1552 46.3866 37.7962 47.513 38.114 49.2195C38.7665 52.7277 38.8985 55.8824 38.5697 60.1086C38.4418 61.7562 37.0651 63.008 35.4402 63.008Z" fill="#DDAF89"/>
<path d="M12.2933 43.4565C11.3321 43.4565 10.3849 43.3357 9.45489 43.0945C6.71715 42.383 4.11535 40.605 1.72253 37.8093C0.593596 36.49 0.748182 34.5066 2.06645 33.3777C3.38472 32.2492 5.36917 32.4033 6.4976 33.7216C10.0526 37.8753 12.6967 37.5364 15.0256 36.5515C16.6238 35.8747 18.4678 36.6225 19.1445 38.2212C19.8203 39.82 19.073 41.6639 17.4743 42.3402C15.7174 43.0839 13.9837 43.4565 12.2933 43.4565Z" fill="#DDAF89"/>
<path d="M47.7565 52.7438C46.335 53.0313 44.8566 52.3002 44.2544 50.9165C44.0907 50.5408 43.9412 50.1919 43.8007 49.8635C42.6239 47.1172 42.1838 46.09 38.6887 41.9882C37.5628 40.6674 37.7214 38.6834 39.0427 37.558C40.3635 36.4321 42.3475 36.5902 43.4729 37.9115C47.4282 42.5532 48.1608 44.0804 49.5783 47.3876C49.7143 47.7059 49.8593 48.0438 50.0174 48.4078C50.7103 49.9995 49.9821 51.851 48.3905 52.5439C48.1825 52.6345 47.97 52.7005 47.7565 52.7438Z" fill="#DDAF89"/>
<path d="M46.1484 41.2198C45.4565 40.2928 44.5945 39.2278 43.4731 37.9115C42.3472 36.5902 40.3637 36.4321 39.0424 37.558C37.7212 38.6834 37.563 40.6674 38.689 41.9882C41.4574 45.2375 42.3089 46.5583 43.1287 48.3318C44.7279 46.2728 45.7954 43.8457 46.1484 41.2198Z" fill="#D1A582"/>
<path d="M38.114 49.2195C37.7962 47.513 36.1552 46.3866 34.4492 46.7043C32.7427 47.0221 31.6168 48.6626 31.9345 50.3691C32.2059 51.8284 32.3686 53.1975 32.43 54.6502C34.6587 54.2564 36.7348 53.4654 38.5656 52.3616C38.4619 51.3198 38.3124 50.286 38.114 49.2195Z" fill="#D1A582"/>
<path d="M23.9055 46.7043C22.1995 46.3871 20.5585 47.513 20.2408 49.2195C20.0424 50.286 19.8923 51.3198 19.7886 52.3611C21.6199 53.4654 23.6955 54.2559 25.9247 54.6502C25.9861 53.1975 26.1488 51.8283 26.4207 50.3691C26.7379 48.6626 25.612 47.0221 23.9055 46.7043Z" fill="#D1A582"/>
<path d="M15.0254 36.5515C14.1497 36.9221 13.2298 37.2005 12.2338 37.1839C12.131 37.8763 12.0767 38.5827 12.0767 39.3003C12.0767 40.7364 12.2902 42.1272 12.6885 43.4489C14.2535 43.3956 15.8537 43.026 17.4741 42.3402C19.0728 41.6639 19.8206 39.8199 19.1443 38.2212C18.4681 36.623 16.6236 35.8752 15.0254 36.5515Z" fill="#D1A582"/>
<path d="M44.4979 39.3003C44.4979 31.6485 37.6386 25.4449 29.1772 25.4449C20.7157 25.4449 13.8564 31.6485 13.8564 39.3003C13.8564 46.9526 20.7157 53.1557 29.1772 53.1557C37.6386 53.1557 44.4979 46.9526 44.4979 39.3003Z" fill="#DDAF89"/>
<path d="M43.0143 30.4042C39.2599 33.5201 34.4375 35.3933 29.1771 35.3933C23.9171 35.3933 19.0947 33.5196 15.3398 30.4042C14.5412 31.438 13.8755 32.5639 13.3709 33.7623C12.6836 35.3948 13.3176 37.2871 14.8453 38.1834C19.0509 40.6523 23.9483 42.0687 29.1771 42.0687C34.4058 42.0687 39.3037 40.6523 43.5088 38.1834C45.0365 37.2871 45.671 35.3948 44.9832 33.7623C44.4786 32.5639 43.8129 31.4385 43.0143 30.4042Z" fill="#7F9AE6"/>
<path d="M22.1995 34.2452C19.6712 33.3862 17.3519 32.074 15.3398 30.4042C14.5412 31.438 13.8755 32.5639 13.3709 33.7623C12.6836 35.3948 13.3176 37.2871 14.8453 38.1834C17.0322 39.4675 19.4074 40.4635 21.9175 41.1266C20.9965 39.2786 21.2574 36.5036 22.1995 34.2452Z" fill="#5E78BF"/>
<path d="M23.4604 13.1021C22.8406 13.1021 22.2157 12.9133 21.6764 12.5215L17.9356 9.80441C16.2976 8.61454 14.0885 8.71324 12.5633 10.0446L10.1141 12.1831C8.8492 13.2874 6.9292 13.157 5.82443 11.8926C4.72067 10.6277 4.85059 8.70719 6.11548 7.60293L8.5647 5.46439C10.3306 3.92256 12.593 3.01568 14.9355 2.91094C17.278 2.80621 19.6119 3.50713 21.5087 4.88482L25.2495 7.60192C26.6075 8.58886 26.9092 10.4897 25.9222 11.8483C25.3275 12.667 24.4005 13.1021 23.4604 13.1021Z" fill="#495059"/>
<path d="M34.8943 13.1021C33.9542 13.1021 33.0272 12.6671 32.432 11.8483C31.4456 10.4898 31.7467 8.5889 33.1052 7.60196L36.8455 4.88486C38.7424 3.50717 41.0778 2.80675 43.4193 2.91098C45.7612 3.01572 48.0236 3.92259 49.79 5.46443L52.2393 7.60297C53.5037 8.70723 53.6341 10.6277 52.5298 11.8926C51.425 13.1575 49.505 13.2874 48.2402 12.1832L45.7909 10.0446C44.2662 8.71327 42.0567 8.61407 40.4187 9.80444L36.6784 12.521C36.1391 12.9133 35.5137 13.1021 34.8943 13.1021Z" fill="#495059"/>
<path d="M29.1773 37.1799C44.6103 37.1799 51.5652 30.1102 49.3944 20.1557C47.062 9.45796 39.7148 3.60229 29.1773 3.60229C18.6402 3.60229 11.293 9.45796 8.96013 20.1557C6.78937 30.1102 13.7448 37.1799 29.1773 37.1799Z" fill="#DDAF89"/>
<path d="M33.4571 42.6086C33.4571 44.9722 31.5407 46.8882 29.1776 46.8882C26.8139 46.8882 24.8975 44.9722 24.8975 42.6086C24.8975 40.2449 26.8139 38.329 29.1776 38.329C31.5407 38.329 33.4571 40.2449 33.4571 42.6086Z" fill="#F6E06A"/>
<path d="M21.5461 22.4297C21.5461 20.5717 19.6543 19.0651 17.3204 19.0651C14.987 19.0651 13.0952 20.5717 13.0952 22.4297C13.0952 24.2883 14.987 25.7949 17.3204 25.7949C19.6543 25.7949 21.5461 24.2883 21.5461 22.4297Z" fill="#D1A582"/>
<path d="M45.2595 22.4297C45.2595 20.5717 43.3677 19.0651 41.0338 19.0651C38.7004 19.0651 36.8086 20.5717 36.8086 22.4297C36.8086 24.2883 38.7004 25.7949 41.0338 25.7949C43.3677 25.7949 45.2595 24.2883 45.2595 22.4297Z" fill="#D1A582"/>
<path d="M31.3931 19.6487C29.9404 19.268 28.4141 19.268 26.9609 19.6487C26.3592 19.8063 25.835 20.1764 25.4856 20.6905C25.0132 21.3854 25.2846 22.3381 26.052 22.679L28.181 23.6261C28.815 23.9081 29.5391 23.9081 30.173 23.6261L32.302 22.679C33.0699 22.3381 33.3413 21.3854 32.869 20.6905C32.519 20.1764 31.9948 19.8063 31.3931 19.6487Z" fill="#495059"/>
<path d="M57.7906 61.3498L51.0085 57.4338C50.2808 57.0138 50.0316 56.0833 50.4515 55.3561L55.4834 46.6404C55.7558 46.1686 56.3586 46.0074 56.8299 46.2793L64.5396 50.7306C65.0109 51.003 65.1725 51.6058 64.9006 52.0771L59.8682 60.7929C59.4483 61.5205 58.5183 61.7697 57.7906 61.3498Z" fill="#A0D9BB"/>
<path d="M57.4353 44.1806C57.1891 44.6544 57.3734 45.238 57.8467 45.4842C57.9892 45.5583 58.1418 45.5935 58.2924 45.5935C58.6413 45.5935 58.9787 45.4037 59.1509 45.0724C59.9405 43.5537 59.9405 41.7399 59.1509 40.2212C58.6514 39.261 58.6514 38.1144 59.1509 37.1542C59.3971 36.6804 59.2123 36.0967 58.739 35.85C58.2657 35.6038 57.6816 35.7881 57.4353 36.2619C56.6458 37.7806 56.6458 39.5943 57.4353 41.1135C57.9344 42.0733 57.9344 43.2203 57.4353 44.1806ZM62.5765 46.6988C62.3303 47.1721 62.5151 47.7562 62.9884 48.0025C63.1309 48.0765 63.2835 48.1117 63.4335 48.1117C63.783 48.1117 64.1198 47.9219 64.2921 47.5906C65.0816 46.0719 65.0816 44.2581 64.2921 42.7394C63.793 41.7792 63.793 40.6321 64.2921 39.6719C64.5383 39.1981 64.354 38.6144 63.8807 38.3682C63.4073 38.122 62.8232 38.3063 62.5765 38.7801C61.7869 40.2988 61.7869 42.1125 62.5765 43.6312C63.076 44.5915 63.076 45.738 62.5765 46.6988ZM65.9331 51.0791C65.7981 50.575 65.4749 50.1541 65.0232 49.8932L57.314 45.4419C56.3814 44.9037 55.1845 45.2244 54.6462 46.157L54.1246 47.0603L52.2927 46.0024C51.5414 45.5688 50.6799 45.4938 49.9074 45.7229C48.9089 43.4917 47.9753 41.8532 45.4541 38.7731C45.441 38.4342 45.4143 38.0953 45.3761 37.7579C46.22 36.5786 46.4713 35.0257 45.9597 33.6072C46.9386 32.8237 47.782 31.9436 48.4794 30.9657C48.7891 30.5306 48.6878 29.9274 48.2533 29.6172C47.8187 29.3075 47.215 29.4082 46.9048 29.8428C46.2014 30.8297 45.3111 31.7099 44.2426 32.4788C44.2204 32.4929 44.1993 32.508 44.1792 32.5236C43.1101 33.2835 41.8659 33.933 40.4514 34.4673C37.3834 35.6254 33.5902 36.2131 29.1772 36.2131C22.7062 36.2131 17.6199 34.9623 14.2301 32.5684C14.1818 32.5246 14.1289 32.4864 14.0715 32.4526C13.2039 31.8207 12.4496 31.1127 11.8176 30.3287C9.71385 27.7163 9.0522 24.2701 9.90469 20.3616C10.869 15.94 12.7014 12.3745 15.359 9.73643C15.3671 9.72888 15.3741 9.72082 15.3817 9.71327C15.7709 9.32806 16.1773 8.96249 16.6018 8.61756C18.1064 7.39396 19.8038 6.4463 21.6815 5.77609C21.7409 5.76098 21.7988 5.74034 21.8542 5.71415C24.0557 4.9528 26.5024 4.5691 29.1772 4.5691C31.852 4.5691 34.2992 4.9528 36.5007 5.71415C36.5561 5.74034 36.6135 5.76098 36.6729 5.77609C38.5506 6.4463 40.248 7.39396 41.7526 8.61756C42.1761 8.96148 42.5814 9.32604 42.9696 9.70974C42.9782 9.71881 42.9863 9.72787 42.9953 9.73643C45.653 12.3745 47.4854 15.9395 48.4497 20.3611C48.917 22.5047 48.9371 24.5032 48.5091 26.3019C48.3852 26.8215 48.706 27.3427 49.2256 27.4661C49.7458 27.5899 50.2664 27.2687 50.3898 26.7495C50.8858 24.6664 50.8687 22.3783 50.339 19.9492C49.7881 17.4235 48.9693 15.1505 47.8912 13.1394C48.5932 13.6479 49.4165 13.8977 50.2372 13.8977C51.3546 13.8977 52.4669 13.4339 53.258 12.5281C53.9619 11.7219 54.3099 10.6901 54.2374 9.62213C54.1654 8.55412 53.6815 7.57876 52.8753 6.87481L50.4261 4.73628C48.4955 3.05093 46.0226 2.05946 43.4626 1.94465C41.106 1.83991 38.7515 2.48394 36.7741 3.76444C34.4669 3.01367 31.929 2.63551 29.1772 2.63551C26.4253 2.63551 23.8875 3.01367 21.5803 3.76444C19.6029 2.48394 17.2478 1.83941 14.8918 1.94465C12.3323 2.05946 9.85887 3.05093 7.9288 4.73628L5.47958 6.87481C3.81538 8.32752 3.64317 10.8639 5.09639 12.5281C5.88745 13.4339 6.99977 13.8977 8.11713 13.8977C8.9379 13.8977 9.76118 13.6479 10.4631 13.1394C9.38504 15.1505 8.56628 17.4235 8.01541 19.9492C7.03401 24.4494 7.82809 28.4575 10.3121 31.5412C10.9153 32.2905 11.6127 32.9773 12.3962 33.6027C12.085 34.4628 12.0548 35.3717 12.2668 36.2176C11.0613 36.2005 9.5356 35.635 7.59093 33.498C7.96002 33.0861 8.27624 32.7658 8.49327 32.5871C8.90517 32.2477 8.96408 31.6379 8.62469 31.226C8.28531 30.8136 7.67602 30.7547 7.26413 31.0941C6.92827 31.3705 6.52795 31.7864 6.15533 32.2014C4.69003 31.362 2.79269 31.4838 1.43767 32.643C0.603804 33.357 0.0977467 34.3525 0.0126485 35.4472C-0.0724498 36.5414 0.273986 37.6033 0.987502 38.4372C2.21211 39.8678 3.49362 41.0445 4.82347 41.9665C4.57774 42.884 4.39294 43.819 4.44078 44.3427C4.4866 44.8448 4.90806 45.2219 5.40254 45.2219C5.43175 45.2219 5.46146 45.2204 5.49116 45.2179C6.0229 45.1695 6.41466 44.6992 6.36632 44.1675C6.34869 43.9741 6.43077 43.5295 6.55565 43.0104C7.42375 43.4545 8.30998 43.7954 9.21132 44.0295C10.2159 44.2904 11.2532 44.4228 12.2935 44.4228C12.8066 44.4228 13.3288 44.387 13.853 44.3231C14.2905 45.4258 14.8686 46.4682 15.567 47.4319C13.9088 49.1848 12.6122 49.1535 11.011 48.9063C9.11313 48.6158 7.33311 49.9209 7.04106 51.8163C6.7485 53.7131 8.05368 55.4946 9.95051 55.7872C10.7662 55.9131 11.5543 55.9765 12.2945 55.9765C14.7216 55.9765 16.8027 55.3209 18.699 53.9382C18.625 55.337 18.627 56.7802 18.7041 58.3598C18.7292 58.8769 19.1567 59.2792 19.6688 59.2792C19.6849 59.2792 19.7006 59.2787 19.7167 59.2782C20.2499 59.252 20.6613 58.7989 20.6356 58.2656C20.5238 55.977 20.5742 53.9911 20.7988 52.0061C22.0984 52.7186 23.5154 53.27 25.0169 53.6315C24.8815 55.4412 24.9051 57.3522 25.0874 59.6957C25.1322 60.2752 24.9495 60.8377 24.5713 61.2793C24.1931 61.7209 23.6664 61.9888 23.0864 62.0341C23.03 62.0381 22.9721 62.0406 22.9147 62.0406C22.4418 62.0406 21.9917 61.8901 21.612 61.6051C21.185 61.2843 20.5792 61.3709 20.2585 61.7974C19.9377 62.2244 20.0238 62.8307 20.4508 63.1515C21.1679 63.6897 22.0199 63.9742 22.9147 63.9742C23.0219 63.9742 23.1307 63.9702 23.2364 63.9616C24.3311 63.8765 25.3266 63.3705 26.0406 62.5361C26.7541 61.7023 27.1001 60.6398 27.015 59.5456C26.8478 57.393 26.8196 55.6316 26.9304 53.9805C27.6651 54.0731 28.4148 54.122 29.1772 54.122C29.939 54.122 30.6888 54.0731 31.4235 53.9805C31.5348 55.6316 31.5066 57.393 31.3394 59.5456C31.2538 60.6398 31.6002 61.7023 32.3137 62.5361C33.0273 63.3705 34.0233 63.8765 35.1169 63.9616C35.2237 63.9702 35.3325 63.9742 35.4397 63.9742C37.5697 63.9742 39.3683 62.309 39.5335 60.1836C39.8135 56.5863 39.7626 53.7574 39.3598 50.8595C40.3674 50.1229 41.2767 49.2799 42.0673 48.3494C42.3397 48.9083 42.595 49.505 42.9117 50.2437C43.0532 50.574 43.2038 50.9245 43.3679 51.3021C44.0276 52.8168 45.5387 53.7715 47.145 53.7715C47.4114 53.7715 47.6803 53.7453 47.9481 53.6909C48.0957 53.6612 48.2422 53.6225 48.3862 53.5761L49.8681 54.4322L49.6144 54.8722C49.282 55.4478 49.1934 56.118 49.3656 56.76C49.5378 57.402 49.9492 57.9383 50.5248 58.2706L57.3069 62.1867C57.6982 62.4123 58.1252 62.519 58.5467 62.519C59.4072 62.519 60.2456 62.0729 60.7058 61.2758L65.7377 52.56C65.9985 52.1088 66.068 51.5826 65.9331 51.0791ZM43.376 3.87673C45.5004 3.9719 47.5524 4.79469 49.1541 6.19302L51.6033 8.33155C52.0208 8.69561 52.271 9.20016 52.3083 9.75305C52.3461 10.3054 52.1658 10.8392 51.8017 11.2566C51.0495 12.1177 49.7372 12.2068 48.8762 11.455L46.427 9.31648C45.7658 8.73892 44.9773 8.3376 44.1318 8.14323C43.7597 7.78572 43.3735 7.44331 42.9727 7.11701C41.7873 6.15374 40.4983 5.34506 39.111 4.69045C40.4444 4.09628 41.9097 3.81127 43.376 3.87673ZM9.4787 11.455C8.61714 12.2068 7.30492 12.1177 6.55313 11.2566C5.80134 10.3956 5.88997 9.08334 6.75102 8.33155L9.20024 6.19302C10.802 4.79469 12.8544 3.9719 14.9784 3.87673C16.4442 3.81127 17.9095 4.09678 19.2433 4.69096C17.8561 5.34506 16.567 6.15374 15.3822 7.11752C14.9809 7.44331 14.5952 7.78622 14.2225 8.14323C13.3771 8.3376 12.5891 8.73892 11.9274 9.31648L9.4787 11.455ZM9.69824 42.1584C8.81805 41.9303 7.95146 41.5773 7.09997 41.108C7.19665 40.8159 7.28326 40.5828 7.34268 40.4594C7.60251 40.0163 7.47008 39.4428 7.03502 39.1603C6.58737 38.8692 5.98866 38.9966 5.69762 39.4443C5.6387 39.5354 5.54655 39.7444 5.4393 40.0269C4.41711 39.256 3.42111 38.3068 2.45734 37.1804C2.07918 36.7388 1.89589 36.1763 1.9407 35.5967C1.98602 35.0177 2.25391 34.4905 2.69551 34.1123C3.60692 33.3323 4.98309 33.4391 5.76358 34.3505C8.15993 37.1502 10.4636 38.3652 12.9436 38.117C12.9088 38.5112 12.8897 38.907 12.8897 39.3003C12.8897 40.3789 13.0181 41.4302 13.2598 42.4439C12.0432 42.5531 10.8503 42.458 9.69824 42.1584ZM44.2673 34.7835C44.4032 35.7876 43.9309 36.8153 43.0195 37.3501C40.2324 38.9861 37.2187 40.0994 34.0499 40.6674C33.6134 39.5747 32.8198 38.6628 31.8137 38.0757C36.9206 37.7952 41.1191 36.6799 44.2673 34.7835ZM29.1777 39.2957C31.004 39.2957 32.49 40.7817 32.49 42.6085C32.49 44.4354 31.004 45.9213 29.1777 45.9213C27.3508 45.9213 25.8644 44.4354 25.8644 42.6085C25.8644 40.7817 27.3508 39.2957 29.1777 39.2957ZM14.0881 34.7775C17.2423 36.6753 21.4463 37.7927 26.5427 38.0747C25.5356 38.6618 24.7415 39.5742 24.3049 40.6674C21.1362 40.0994 18.122 38.9861 15.3349 37.3501C14.422 36.8143 13.9496 35.7835 14.0881 34.7775ZM18.9538 51.1647C17.0066 53.125 14.8832 54.0434 12.2945 54.0434C11.6535 54.0434 10.9636 53.9875 10.2456 53.8762C9.40216 53.7463 8.82208 52.9548 8.95199 52.1113C9.08191 51.2689 9.87297 50.6888 10.7174 50.8177C12.58 51.1053 14.575 51.1753 16.8057 48.93C17.4679 49.6334 18.201 50.2795 18.9951 50.86C18.981 50.9618 18.9674 51.063 18.9538 51.1647ZM37.6059 60.0335C37.5188 61.1594 36.5671 62.0411 35.4402 62.0411C35.3828 62.0411 35.3249 62.0386 35.268 62.0341C34.6884 61.9893 34.1612 61.7214 33.7831 61.2798C33.4054 60.8382 33.2221 60.2757 33.2674 59.6962C33.4497 57.3527 33.4729 55.4418 33.3379 53.632C34.839 53.2705 36.2554 52.7191 37.5546 52.0071C37.833 54.4659 37.8461 56.9514 37.6059 60.0335ZM29.1772 52.1889C21.2625 52.1889 14.8233 46.4072 14.8233 39.3003C14.8233 39.2947 14.8238 39.2897 14.8238 39.2842C17.6683 40.8854 20.7258 41.9862 23.9323 42.5647C23.9318 42.5793 23.9308 42.5939 23.9308 42.6085C23.9308 45.5014 26.2843 47.8549 29.1777 47.8549C32.07 47.8549 34.4236 45.5014 34.4236 42.6085C34.4236 42.5939 34.4226 42.5793 34.4226 42.5647C37.6291 41.9862 40.6866 40.8854 43.5311 39.2847C43.5311 39.2897 43.5316 39.2952 43.5316 39.3003C43.5316 46.4072 37.0923 52.1889 29.1772 52.1889ZM48.1365 47.1162L46.9224 49.2185C46.5166 49.9224 46.4083 50.7422 46.6188 51.5272C46.643 51.6174 46.6722 51.7055 46.7039 51.7921C46.0261 51.6521 45.4294 51.1934 45.1414 50.5307C44.9783 50.1566 44.8292 49.8092 44.6892 49.4824C44.2119 48.368 43.8453 47.513 43.3413 46.6117C44.2864 45.1016 44.9481 43.4263 45.2603 41.6463C46.7955 43.6801 47.4829 45.0074 48.2986 46.865C48.2412 46.9455 48.1868 47.0291 48.1365 47.1162ZM49.1612 50.4592C49.0353 50.779 48.8389 51.0569 48.5902 51.28C48.5464 51.2009 48.5106 51.1163 48.4864 51.0267C48.4099 50.7407 48.4492 50.4416 48.5972 50.1853L49.2322 49.0856C49.3576 49.5372 49.3359 50.0151 49.1612 50.4592ZM50.2075 52.3953C50.5248 52.0383 50.7806 51.6249 50.9608 51.1667C51.3627 50.1455 51.3425 49.0287 50.9044 48.0221C50.8309 47.8534 50.7604 47.6898 50.6924 47.5316C50.9059 47.516 51.1265 47.5619 51.3259 47.6772L53.1578 48.7351L50.8354 52.7579L50.2075 52.3953ZM64.0634 51.5937L59.0316 60.3095C58.8785 60.5743 58.5391 60.6655 58.2742 60.5124L51.4921 56.5969C51.3637 56.5223 51.272 56.403 51.2337 56.26C51.1955 56.117 51.2151 55.9674 51.2891 55.8395L56.321 47.1238C56.3255 47.1157 56.3391 47.1122 56.3472 47.1167L64.0569 51.568C64.0645 51.572 64.068 51.5861 64.0634 51.5937ZM16.4522 19.7443C16.3505 20.2685 16.6934 20.776 17.2176 20.8773C17.777 20.9855 18.6512 21.1295 19.7831 21.1295C20.9151 21.1295 21.7897 20.9855 22.3492 20.8773C22.8729 20.776 23.2158 20.269 23.1146 19.7443C23.0133 19.2206 22.5073 18.8772 21.9816 18.9789C21.6523 19.0429 21.2429 19.1123 20.7459 19.1551C20.7479 19.128 20.7499 19.1008 20.7499 19.0731V17.5811C20.7499 17.3661 20.6789 17.1677 20.5601 17.007C20.9262 17.0483 21.2303 17.1128 21.476 17.1717C21.5521 17.1898 21.6281 17.1984 21.7026 17.1984C22.1392 17.1984 22.5355 16.9003 22.6417 16.4572C22.7666 15.938 22.4464 15.4159 21.9272 15.2915C21.4604 15.1792 20.7303 15.0301 19.7831 15.0301C18.8365 15.0301 18.1058 15.1792 17.6386 15.2915C17.1194 15.4159 16.7997 15.938 16.9245 16.4572C17.0489 16.9763 17.5706 17.2961 18.0897 17.1717C18.336 17.1128 18.6401 17.0483 19.0062 17.007C18.8873 17.1677 18.8163 17.3656 18.8163 17.5811V19.0731C18.8163 19.1008 18.8184 19.128 18.8204 19.1551C18.3234 19.1123 17.914 19.0429 17.5847 18.9789C17.0595 18.8772 16.5534 19.2206 16.4522 19.7443ZM35.2403 19.7443C35.1386 20.2685 35.4815 20.776 36.0057 20.8773C36.5651 20.9855 37.4393 21.1295 38.5712 21.1295C39.7032 21.1295 40.5778 20.9855 41.1373 20.8773C41.6609 20.776 42.0039 20.269 41.9026 19.7443C41.8014 19.2206 41.2954 18.8772 40.7697 18.9789C40.4404 19.0429 40.031 19.1123 39.534 19.1551C39.5365 19.128 39.538 19.1008 39.538 19.0731V17.5811C39.538 17.3661 39.467 17.1677 39.3482 17.007C39.7143 17.0483 40.0184 17.1128 40.2646 17.1717C40.3402 17.1898 40.4162 17.1984 40.4907 17.1984C40.9278 17.1984 41.3236 16.9003 41.4303 16.4572C41.5547 15.938 41.235 15.4159 40.7158 15.2915C40.249 15.1792 39.5184 15.0301 38.5712 15.0301C37.6246 15.0301 36.8939 15.1792 36.4272 15.2915C35.908 15.4159 35.5878 15.938 35.7126 16.4572C35.8375 16.9763 36.3587 17.2961 36.8783 17.1717C37.1246 17.1128 37.4287 17.0483 37.7943 17.007C37.6754 17.1677 37.6044 17.3656 37.6044 17.5811V19.0731C37.6044 19.1008 37.6064 19.128 37.6085 19.1551C37.112 19.1123 36.7026 19.0429 36.3728 18.9789C35.8481 18.8772 35.3415 19.2206 35.2403 19.7443ZM25.2521 27.3341C24.7183 27.3341 24.2853 27.7667 24.2853 28.3004C24.2853 28.8347 24.7183 29.2672 25.2521 29.2672H33.1028C33.6365 29.2672 34.0696 28.8347 34.0696 28.3004C34.0696 27.7667 33.6365 27.3341 33.1028 27.3341H30.144V24.6634C30.2875 24.6211 30.4285 24.5707 30.5664 24.5093L32.6954 23.5626C33.3233 23.2832 33.7921 22.7434 33.9805 22.0822C34.1688 21.4211 34.055 20.7156 33.6688 20.1471C33.1874 19.4391 32.4663 18.9301 31.638 18.713C30.0287 18.2916 28.3262 18.2916 26.7164 18.713C25.8886 18.9301 25.167 19.4391 24.6861 20.1471C24.2994 20.7156 24.1861 21.4211 24.3744 22.0822C24.5627 22.7434 25.031 23.2832 25.6595 23.5626L27.7884 24.5093C27.9264 24.5707 28.0674 24.6211 28.2109 24.6634V27.3341H25.2521ZM26.4455 21.7957C26.304 21.7328 26.2521 21.6165 26.234 21.5525C26.2154 21.4886 26.1982 21.3622 26.2848 21.2343C26.5034 20.913 26.8307 20.6824 27.2063 20.5837C27.8509 20.415 28.514 20.3304 29.1772 20.3304C29.8403 20.3304 30.5035 20.415 31.1485 20.5837C31.5242 20.6824 31.851 20.913 32.0695 21.2343C32.1566 21.3622 32.139 21.4886 32.1209 21.5525C32.1022 21.6165 32.0509 21.7328 31.9094 21.7957L29.7804 22.7429C29.3967 22.9131 28.9571 22.9131 28.5739 22.7429L26.4455 21.7957Z" fill="black"/>
</g>
<defs>
<clipPath id="clip0_1591_25563">
<rect width="66.0003" height="66" fill="white"/>
</clipPath>
</defs>
</svg>
