<svg width="30" height="25" viewBox="0 0 30 25" fill="none" xmlns="http://www.w3.org/2000/svg">
<path d="M11.1838 7.01784L14.7114 9.17369L16.4125 7.44339L16.4141 7.44176L12.8804 5.29199L11.1838 7.01784Z" fill="#53A77D"/>
<path d="M28.4192 7.53938C28.4149 7.53563 28.4107 7.53166 28.4069 7.52721L28.4021 7.52183C27.9532 7.06586 27.4268 6.69739 26.8484 6.4349C26.8312 6.42671 26.8131 6.4211 26.7948 6.41291C26.6749 6.35934 26.5533 6.31044 26.4304 6.26669C26.3556 6.23932 26.2793 6.21686 26.2038 6.19347C26.1418 6.17428 26.0795 6.1551 26.0175 6.13872C25.92 6.11299 25.8225 6.08936 25.7245 6.069L25.6275 6.05052C24.4503 5.83108 23.2351 6.0152 22.1711 6.57457H22.1683C21.9852 6.67353 21.808 6.78302 21.6373 6.90303C21.5608 6.95778 21.4842 7.00972 21.4098 7.06727C21.3535 7.11055 21.2976 7.15547 21.2431 7.20155C21.1269 7.29888 21.0133 7.40088 20.9039 7.50967C20.89 7.52394 20.8744 7.53657 20.86 7.55084L8.03589 20.755V24.8383L15.2751 18.7007C17.6109 17.0305 20.5407 16.4477 23.7829 16.9877C25.7003 17.3133 27.6392 16.5481 28.8445 14.9897C30.3849 12.9336 30.3849 10.0773 28.8445 8.02108C28.7131 7.85123 28.571 7.69028 28.4192 7.53938ZM19.8753 11.4091C19.6592 11.4077 19.4649 11.2737 19.383 11.0692C19.301 10.8647 19.3473 10.6299 19.5004 10.4738L20.036 9.92613C20.2466 9.71885 20.5807 9.72236 20.787 9.93385C20.9934 10.1453 20.9959 10.4869 20.7925 10.7017L20.2569 11.2491C20.1557 11.3523 20.0184 11.4098 19.8753 11.4091ZM21.8039 15.5409C21.5109 15.5409 21.2196 15.5503 20.9307 15.5706H20.8987C20.6027 15.5807 20.3551 15.3435 20.3452 15.0412C20.3354 14.7387 20.5675 14.4853 20.8632 14.4755C21.1761 14.4547 21.491 14.4442 21.8078 14.4442C22.1035 14.4442 22.3434 14.6894 22.3434 14.9918C22.3434 15.2943 22.1035 15.5393 21.8078 15.5393L21.8039 15.5409ZM28.0049 14.1173C27.1905 15.1659 25.9525 15.777 24.6428 15.777C24.4096 15.7777 24.1768 15.7594 23.9463 15.7222C23.6542 15.6738 23.4558 15.3926 23.5029 15.0938C23.5503 14.7953 23.8257 14.5925 24.1177 14.6409C25.272 14.8253 26.4348 14.366 27.1677 13.4361C28.0777 12.2469 28.0777 10.577 27.1677 9.38781C27.1109 9.31623 27.0541 9.24885 26.9946 9.18638L26.7856 8.97723C26.5423 8.7503 26.2647 8.56548 25.9633 8.42956C24.7458 7.87112 23.3173 8.13642 22.3697 9.09725C22.1591 9.30429 21.825 9.30102 21.6187 9.08953C21.4123 8.8778 21.41 8.53647 21.6133 8.32171C22.8749 7.0406 24.7783 6.68616 26.4011 7.43036C26.8127 7.61658 27.1917 7.87042 27.5234 8.18157L27.7548 8.41271C27.847 8.51027 27.9253 8.60104 28.0024 8.69953C29.2201 10.2897 29.2226 12.5227 28.0088 14.1157L28.0049 14.1173Z" fill="#53A77D"/>
<path d="M0.243311 20.5466L6.96436 25V20.8149L3.8259e-06 15.8362V20.0859C-0.000682839 20.2717 0.091101 20.445 0.243311 20.5466ZM1.15405 19.097C1.31038 18.8406 1.64067 18.7622 1.89176 18.9218L5.64185 21.3088C5.8451 21.4379 5.93963 21.6894 5.87348 21.9248C5.80756 22.1599 5.59676 22.3218 5.35734 22.3211C5.25732 22.3213 5.15935 22.2925 5.07489 22.238L1.3248 19.851C1.07371 19.6912 0.996808 19.3539 1.15291 19.097H1.15405Z" fill="#53A77D"/>
<path d="M12.9407 2.14459L0.302246 14.7138L7.43826 19.8144L20.1012 6.77563C20.1156 6.76066 20.1321 6.74826 20.1472 6.73329C20.2823 6.59876 20.4237 6.47173 20.5684 6.35008C20.6336 6.29533 20.6995 6.24059 20.7666 6.19076C20.8609 6.11847 20.9573 6.04992 21.0552 5.98324C21.2363 5.85831 21.4235 5.74298 21.6162 5.6377C21.6414 5.6239 21.6659 5.60916 21.6911 5.59606C21.979 5.43978 22.2782 5.30619 22.5858 5.19624C22.6009 5.19132 22.6153 5.18758 22.6302 5.18384C23.2585 4.97281 23.9147 4.86192 24.576 4.85514L23.7923 4.30769C23.7783 4.30044 23.7648 4.29225 23.7522 4.2829L22.836 3.64234C22.8156 3.6283 22.7961 3.61286 22.7781 3.59579L22.7744 3.59204L19.9939 1.65073C19.9621 1.63552 19.9316 1.61727 19.903 1.59598C17.7684 -0.00446814 14.81 0.228546 12.9407 2.14459ZM17.4754 7.31325C17.5164 7.64756 17.4031 7.98258 17.1685 8.21957L15.4697 9.94939C15.122 10.3041 14.583 10.3719 14.1616 10.1136L10.6338 7.95287C10.3506 7.77998 10.1613 7.48333 10.1211 7.14878C10.0808 6.81423 10.1938 6.47945 10.4275 6.24176L12.1231 4.51614C12.4706 4.16194 13.0092 4.09433 13.4303 4.35191L16.9623 6.50729C17.2468 6.67971 17.4363 6.97753 17.4754 7.31325Z" fill="#53A77D"/>
<path d="M26.0853 4.58294C26.7905 3.79266 26.9809 2.6552 26.5728 1.67027C26.1649 0.685575 25.2331 0.033557 24.1873 0.00127195C23.1413 -0.0312471 22.1727 0.56205 21.7073 1.51984L22.6078 2.14893C22.846 1.51446 23.4421 1.09522 24.107 1.09475C24.7721 1.09429 25.3686 1.51235 25.6078 2.14659C25.847 2.78083 25.6794 3.49999 25.1862 3.95596L26.0853 4.58294Z" fill="#53A77D"/>
<path d="M22.9462 1.42299L22.2213 0.976562L21.7473 1.5346C23.4549 2.76799 24.3629 3.42076 25.9295 4.46429L26.4199 4.06757L25.7901 3.34821L22.9462 1.42299Z" fill="#53A77D"/>
</svg>
