<svg width="24" height="24" viewBox="0 0 24 24" fill="none" xmlns="http://www.w3.org/2000/svg">
<g clip-path="url(#clip0_1595_48584)">
<path d="M22.5062 13.3936C21.681 13.3936 21.0125 14.0622 21.0125 14.8874C21.0125 16.9467 19.3373 18.6218 17.278 18.6218C15.2187 18.6218 13.5436 16.9466 13.5436 14.8874V14.4767C13.0498 14.6294 12.5303 14.7094 12 14.7094C11.4698 14.7094 10.9503 14.6294 10.4565 14.4767V14.8874C10.4565 16.9467 8.78133 18.6218 6.72206 18.6218C4.6628 18.6218 2.98763 16.9466 2.98763 14.8874C2.98763 14.0622 2.31905 13.3936 1.49386 13.3936C0.668672 13.3936 0 14.0622 0 14.8874C0 18.5941 3.01528 21.6094 6.72202 21.6094C8.83284 21.6094 10.7668 20.6297 12 19.1033C13.2332 20.6297 15.1672 21.6094 17.278 21.6094C20.9847 21.6094 24 18.5941 24 14.8874C24 14.0622 23.3314 13.3936 22.5062 13.3936Z" fill="#78BF9B"/>
<path d="M9.07651 11.9338C9.80171 12.804 10.8673 13.3031 12.0001 13.3031C13.1328 13.3031 14.1984 12.804 14.9236 11.9338L18.0711 8.15686C18.9538 7.09753 19.1388 5.66377 18.554 4.41506C17.9691 3.16636 16.7491 2.39062 15.3702 2.39062H8.62988C7.25096 2.39062 6.03109 3.16636 5.44618 4.41506C4.86132 5.66377 5.04634 7.09758 5.92909 8.15686L9.07651 11.9338Z" fill="#78BF9B"/>
</g>
<defs>
<clipPath id="clip0_1595_48584">
<rect width="24" height="24" fill="white"/>
</clipPath>
</defs>
</svg>
