<svg width="48" height="48" viewBox="0 0 48 48" fill="none" xmlns="http://www.w3.org/2000/svg">
<path d="M7.82685 10.4794C9.82926 10.4794 11.4525 8.85609 11.4525 6.85368C11.4525 4.85127 9.82926 3.228 7.82685 3.228C5.82444 3.228 4.20117 4.85127 4.20117 6.85368C4.20117 8.85609 5.82444 10.4794 7.82685 10.4794Z" fill="#A0D9BB"/>
<path d="M23.5546 14.3263C22.8482 13.6671 21.7411 13.7056 21.082 14.4121L20.374 15.1708L12.3984 13.772C12.2731 12.5416 11.2365 11.579 9.97207 11.5739L5.60436 11.5562C4.25174 11.5506 3.15074 12.6427 3.14521 13.9955L3.14015 15.2479L5.29217 13.4766L0.916589 19.2529C0.568871 19.7253 0.481215 20.3394 0.681839 20.8894L3.1214 27.5884C3.45627 28.5068 4.47027 28.9587 5.36427 28.6327C6.27158 28.3019 6.73977 27.2981 6.40855 26.3899L4.33564 20.7047L8.28045 15.3468C7.83889 16.4539 6.5742 19.6252 6.13302 20.7316C6.98426 23.0662 7.11008 23.4111 7.98636 25.8147C8.29376 26.6576 8.26601 27.5934 7.87339 28.4366C7.48676 29.2668 6.79995 29.8969 5.93952 30.2106C5.35124 30.4251 4.71711 30.4775 4.0813 30.3491L3.59155 33.413L0.15459 41.8829C-0.281346 42.9573 0.236246 44.1816 1.31062 44.6175C2.38509 45.0535 3.60927 44.5358 4.04521 43.4615L7.57208 34.7698C7.63179 34.6226 7.67464 34.4688 7.69976 34.3118L8.59414 28.7158L10.0535 34.394L10.2271 42.7157C10.251 43.8601 11.1859 44.7714 12.325 44.7713C12.3398 44.7713 12.3548 44.7712 12.3696 44.7709C13.5288 44.7467 14.4488 43.7875 14.4247 42.6283L14.2461 34.0633C14.2428 33.9017 14.2207 33.7411 14.1806 33.5846L12.3608 26.5041L12.398 17.3242L20.7039 18.7808C21.2819 18.8823 21.8783 18.6872 22.2852 18.2511L23.6402 16.7989C24.2993 16.0924 24.261 14.9854 23.5546 14.3263Z" fill="#A0D9BB"/>
<path d="M33.9823 27.7316C33.3013 27.491 32.6118 27.684 32.4882 28.0342C32.3644 28.3844 32.1537 30.7393 32.8348 30.9798C33.5159 31.2204 34.8311 29.2556 34.9548 28.9054C35.0785 28.5553 34.6634 27.9721 33.9823 27.7316Z" fill="#A0D9BB"/>
<path d="M47.7696 37.091C47.6011 37.0295 47.394 37.098 47.313 37.32C47.0677 37.9918 46.6878 38.6502 46.2968 39.1555C45.856 39.7373 45.1943 40.3444 44.5164 40.6617C44.4363 39.7292 44.1964 38.263 41.341 36.159C36.7423 33.1163 35.6358 31.6221 35.6358 31.6221C35.6358 31.6221 35.3716 31.1596 35.0407 30.5893C34.3902 31.4125 33.4913 32.2667 32.5031 31.9177C31.415 31.5332 31.3772 30.0582 31.3649 29.5734C31.3548 29.1777 31.3778 28.6794 31.4315 28.2709L31.4073 28.2766C30.4993 28.4923 29.7872 29.1962 29.5609 30.1016L28.5338 30.7302C28.3469 30.8446 28.2184 31.0341 28.1811 31.2499C28.1437 31.4659 28.2012 31.6873 28.3387 31.8579L28.9507 32.6165C29.4501 33.2354 30.2961 33.4542 31.0329 33.1547C31.3502 33.0258 31.7071 33.0349 32.018 33.1781C32.329 33.3214 32.5669 33.5867 32.6755 33.9115C33.095 35.1683 33.7729 37.0803 34.3876 38.2859L33.2497 43.5242C33.1291 44.0795 33.4815 44.6274 34.0368 44.748C34.591 44.8686 35.1398 44.5171 35.2606 43.961L36.1082 40.059C36.6074 40.2288 37.257 40.363 37.9615 40.4955C38.1509 39.937 38.4672 39.4124 38.9117 38.9679C39.1142 38.7654 39.4426 38.7654 39.6452 38.9679C39.8546 39.1774 39.8364 39.5102 39.6452 39.7014C38.844 40.5026 38.6043 41.6552 38.9246 42.6675C37.7828 42.6675 38.0919 42.6675 37.7274 42.6675C37.1592 42.6675 36.6985 43.1282 36.6985 43.6964C36.6985 44.2646 37.1592 44.7253 37.7274 44.7253C42.1182 44.7253 41.9957 44.7323 42.2836 44.6422C43.3438 44.31 44.1159 43.6208 44.4127 42.5649C45.6531 41.9791 46.6339 40.9156 47.2306 39.74C47.5713 39.0831 47.8601 38.2748 47.9946 37.4779C48.0226 37.315 47.931 37.15 47.7696 37.091Z" fill="#A0D9BB"/>
</svg>
