<svg width="170" height="170" viewBox="0 0 170 170" fill="none" xmlns="http://www.w3.org/2000/svg">
<g clip-path="url(#clip0_223_13321)">
<path d="M44.6695 149.041C43.5748 149.041 42.4295 148.979 41.2246 148.857C38.1923 148.549 35.9848 145.84 36.2935 142.808C36.6021 139.776 39.3129 137.567 42.3413 137.877C48.5955 138.512 51.2141 137.693 58.3281 125.489C59.8638 122.856 63.2425 121.968 65.8754 123.501C68.5083 125.037 69.398 128.415 67.8624 131.048C64.1231 137.463 60.7652 142.362 56.5357 145.425C53.1427 147.882 49.3918 149.041 44.6695 149.041Z" fill="#495059"/>
<path d="M64.47 165.684C62.4752 165.684 60.496 164.822 59.1329 163.16C56.7165 160.214 57.1471 155.867 60.0926 153.452C66.2832 148.375 67.6891 144.178 65.2793 137.965C63.9019 134.414 65.6658 130.418 69.217 129.041C72.7695 127.663 76.7655 129.426 78.1429 132.977C82.733 144.816 79.6034 155.295 68.8409 164.119C67.5581 165.171 66.0095 165.684 64.47 165.684Z" fill="#DDAF89"/>
<path d="M107.801 159.539C107.198 159.539 106.586 159.46 105.976 159.293C102.302 158.287 100.139 154.492 101.144 150.818C101.829 148.316 101.591 146.097 100.458 144.403C99.2554 142.608 97.0077 141.42 94.1258 141.062C90.3463 140.59 87.6628 137.144 88.1349 133.363C88.6057 129.582 92.0519 126.9 95.8326 127.372C102.747 128.233 108.461 131.556 111.923 136.73C115.301 141.778 116.199 148.075 114.451 154.46C113.612 157.525 110.832 159.539 107.801 159.539Z" fill="#DDAF89"/>
<path d="M117.529 121.897C114.677 121.897 111.559 121.491 108.14 120.68C104.433 119.801 102.141 116.083 103.019 112.377C103.899 108.67 107.617 106.378 111.324 107.256C122.613 109.933 123.895 105.812 124.923 102.5C126.054 98.8619 129.92 96.8282 133.557 97.9592C137.195 99.0902 139.229 102.957 138.098 106.595C135.42 115.213 130.049 118.875 126.014 120.428C123.474 121.408 120.661 121.897 117.529 121.897Z" fill="#DDAF89"/>
<path d="M119.157 108.02C117.296 108.256 114.781 108.075 111.322 107.256C107.617 106.378 103.898 108.669 103.019 112.376C102.139 116.083 104.433 119.8 108.139 120.68C111.558 121.49 114.676 121.896 117.528 121.896C117.885 121.896 118.237 121.888 118.585 121.875C119.282 119.235 119.653 116.481 119.653 113.649C119.653 111.733 119.482 109.852 119.157 108.02Z" fill="#D1A582"/>
<path d="M95.8326 127.372C92.0519 126.9 88.6057 129.584 88.1349 133.363C87.6628 137.144 90.3463 140.591 94.1258 141.062C96.865 141.403 99.0297 142.494 100.27 144.142C104.451 141.958 108.141 139.071 111.15 135.661C107.642 131.101 102.257 128.172 95.8326 127.372Z" fill="#D1A582"/>
<path d="M69.2168 129.04C65.6643 130.418 63.9017 134.414 65.2791 137.966C66.4269 140.926 66.7071 143.428 66.0171 145.786C70.1856 147.462 74.7394 148.478 79.5201 148.686C80.7484 143.769 80.2918 138.523 78.1414 132.978C76.7653 129.425 72.7692 127.664 69.2168 129.04Z" fill="#D1A582"/>
<path d="M114.985 113.649C114.985 96.8529 99.9294 83.2383 81.3577 83.2383C62.786 83.2383 47.7305 96.8529 47.7305 113.649C47.7305 130.444 62.786 144.06 81.3577 144.06C99.9294 144.06 114.985 130.444 114.985 113.649Z" fill="#DDAF89"/>
<path d="M111.729 94.1211C103.488 100.96 92.9034 105.072 81.3575 105.072C69.8117 105.072 59.2269 100.96 50.9858 94.1211C49.2335 96.3908 47.7731 98.8616 46.6655 101.492C45.1558 105.074 46.5474 109.229 49.9002 111.196C59.1309 116.615 69.8804 119.724 81.3575 119.724C92.8347 119.724 103.584 116.615 112.814 111.196C116.168 109.229 117.559 105.074 116.05 101.492C114.942 98.8616 113.482 96.3908 111.729 94.1211Z" fill="#7F9AE6"/>
<path d="M66.0426 102.553C60.4928 100.667 55.402 97.7864 50.9858 94.1211C49.2335 96.3908 47.7731 98.8616 46.6655 101.492C45.1558 105.074 46.5474 109.229 49.9002 111.196C54.7004 114.013 59.913 116.2 65.4226 117.655C63.4019 113.599 63.9739 107.509 66.0426 102.553Z" fill="#5E78BF"/>
<path d="M73.1302 57.7406C71.8125 57.7406 70.4818 57.3385 69.3326 56.5045L61.3703 50.7212C57.884 48.1882 53.1811 48.3983 49.936 51.2322L44.7221 55.7847C42.0295 58.1349 37.9427 57.8586 35.5912 55.166C33.2411 52.4735 33.5186 48.3853 36.2099 46.0352L41.4238 41.484C45.1825 38.2013 49.9983 36.2701 54.9839 36.047C59.9709 35.8252 64.9397 37.3168 68.9772 40.2493L76.9395 46.0326C79.8305 48.1337 80.4725 52.1803 78.3714 55.0714C77.1055 56.8145 75.1315 57.7406 73.1302 57.7406Z" fill="#495059"/>
<path d="M97.4697 57.7406C95.4684 57.7406 93.4944 56.8145 92.2285 55.0714C90.1274 52.1803 90.7694 48.1337 93.6604 46.0326L101.624 40.2493C105.662 37.3168 110.632 35.8252 115.616 36.047C120.602 36.2714 125.417 38.2013 129.177 41.484L134.39 46.0352C137.083 48.3853 137.359 52.4735 135.009 55.166C132.659 57.8586 128.57 58.1349 125.878 55.7847L120.665 51.2322C117.419 48.3983 112.716 48.1882 109.23 50.7212L101.267 56.5045C100.118 57.3385 98.7874 57.7406 97.4697 57.7406Z" fill="#495059"/>
<path d="M85.2997 108.993C118.15 108.993 132.955 93.9454 128.334 72.7551C123.369 49.985 107.73 37.5195 85.2997 37.5195C62.8694 37.5195 47.2302 49.985 42.2653 72.7551C37.6441 93.9454 52.4493 108.993 85.2997 108.993Z" fill="#DDAF89"/>
<path d="M100.354 120.908C100.354 126.096 96.1492 130.301 90.9612 130.301C85.7732 130.301 81.5684 126.096 81.5684 120.908C81.5684 115.72 85.7732 111.516 90.9612 111.516C96.1492 111.516 100.354 115.72 100.354 120.908Z" fill="#F6E06A"/>
<path d="M74.3892 72.8098C74.3892 68.7658 70.2738 65.4883 65.196 65.4883C60.1196 65.4883 56.0029 68.7658 56.0029 72.8098C56.0029 76.8526 60.1196 80.1301 65.196 80.1301C70.2738 80.1301 74.3892 76.8526 74.3892 72.8098Z" fill="#FFDBDB"/>
<path d="M125.981 72.8098C125.981 68.7658 121.865 65.4883 116.788 65.4883C111.71 65.4883 107.594 68.7658 107.594 72.8098C107.594 76.8526 111.71 80.1301 116.788 80.1301C121.865 80.1301 125.981 76.8526 125.981 72.8098Z" fill="#FFDBDB"/>
<path d="M95.8131 66.7573C92.6523 65.9298 89.332 65.9298 86.1712 66.7573C84.8613 67.101 83.7212 67.9065 82.9599 69.0245C81.9327 70.5355 82.5241 72.6094 84.1933 73.3513L88.8249 75.4109C90.2049 76.0244 91.7795 76.0244 93.1595 75.4109L97.791 73.3513C99.4603 72.6094 100.052 70.5355 99.0232 69.0245C98.2632 67.9065 97.1231 67.101 95.8131 66.7573Z" fill="#495059"/>
<path d="M90.9613 100.173C96.2686 100.173 101.746 96.7087 101.746 87.9592C101.746 82.207 97.9638 82.0254 90.9613 82.0254C83.9588 82.0254 80.1768 82.2083 80.1768 87.9592C80.1768 96.7087 85.654 100.173 90.9613 100.173Z" fill="#D16283"/>
<path d="M90.9606 90.7656C87.1967 90.7656 83.7532 91.7708 81.0723 93.4348C82.8362 98.187 86.9464 100.171 90.9606 100.171C94.9748 100.171 99.085 98.187 100.85 93.4348C98.168 91.7708 94.7245 90.7656 90.9606 90.7656Z" fill="#EB9898"/>
<path d="M29.8533 130.321C28.1854 130.321 26.5148 129.721 25.1893 128.506C22.3839 125.928 22.1971 121.565 24.7743 118.759C33.3306 109.44 41.4277 107.204 53.6506 110.783C57.3068 111.853 59.4028 115.686 58.3328 119.342C57.2614 122.997 53.4301 125.093 49.7739 124.023C42.6573 121.94 39.8843 122.7 34.9362 128.089C33.5757 129.57 31.7171 130.321 29.8533 130.321Z" fill="#C49B7A"/>
<path d="M94.3073 28.2902C94.5875 28.3926 94.8754 28.4406 95.1581 28.4406C96.175 28.4406 97.1309 27.8129 97.4992 26.8025L102.983 11.7353C103.452 10.4435 102.787 9.01419 101.494 8.54468C100.202 8.07517 98.7729 8.74053 98.3021 10.0323L92.8184 25.0983C92.3488 26.3914 93.0142 27.8207 94.3073 28.2902ZM61.9122 21.8895C62.1937 21.9919 62.4816 22.0399 62.7643 22.0399C63.7812 22.0399 64.7358 21.4122 65.1041 20.4005L70.5878 5.33461C71.0586 4.04151 70.392 2.61351 69.1002 2.1427C67.8071 1.67319 66.3778 2.33855 65.9083 3.63166L60.4246 18.6976C59.9538 19.9907 60.6204 21.4187 61.9122 21.8895ZM25.9244 32.0696C26.2046 32.1721 26.4925 32.2201 26.7753 32.2201C27.7921 32.2201 28.748 31.5923 29.1151 30.5807L34.5988 15.5147C35.0696 14.2216 34.4029 12.7936 33.1111 12.3228C31.818 11.8533 30.3887 12.5187 29.9192 13.8105L24.4355 28.8777C23.9647 30.1708 24.6313 31.5988 25.9244 32.0696ZM13.8286 126.948C12.5368 126.479 11.1075 127.145 10.6367 128.436L5.15303 143.504C4.68222 144.796 5.34888 146.225 6.64069 146.694C6.92214 146.797 7.21007 146.846 7.49282 146.846C8.50966 146.846 9.46555 146.217 9.8326 145.207L15.3163 130.141C15.7871 128.848 15.1205 127.418 13.8286 126.948ZM8.82613 41.6427C7.53432 41.1732 6.10503 41.8399 5.63422 43.1317L0.150515 58.1976C-0.318998 59.4907 0.346362 60.9187 1.63947 61.3895C1.91962 61.492 2.20755 61.54 2.4903 61.54C3.50844 61.54 4.46303 60.9122 4.83138 59.9019L10.3151 44.8347C10.7859 43.5429 10.1192 42.1136 8.82613 41.6427ZM24.1242 78.1714C22.8311 77.7019 21.4018 78.3672 20.9323 79.659L15.4486 94.7262C14.9778 96.0193 15.6444 97.4473 16.9362 97.9182C17.2177 98.0206 17.5043 98.0686 17.7884 98.0686C18.8052 98.0686 19.7598 97.4409 20.1282 96.4305L25.6119 81.3633C26.0827 80.0715 25.416 78.6422 24.1242 78.1714ZM135.347 32.5936C135.628 32.6961 135.916 32.7441 136.199 32.7441C137.216 32.7441 138.17 32.1163 138.539 31.1046L144.022 16.0387C144.493 14.7456 143.827 13.3176 142.534 12.8468C141.243 12.3773 139.812 13.0427 139.342 14.3345L133.858 29.4017C133.388 30.6935 134.055 32.1228 135.347 32.5936ZM158.165 118.396C156.873 117.927 155.444 118.592 154.974 119.884L149.491 134.951C149.02 136.243 149.686 137.672 150.978 138.143C151.26 138.246 151.546 138.294 151.83 138.294C152.847 138.294 153.802 137.666 154.17 136.654L159.654 121.588C160.125 120.295 159.458 118.866 158.165 118.396ZM168.361 38.0099C167.069 37.5403 165.64 38.2057 165.169 39.4975L159.685 54.5647C159.214 55.8565 159.881 57.2858 161.174 57.7566C161.455 57.8578 161.742 57.9071 162.025 57.9071C163.043 57.9071 163.998 57.278 164.365 56.2677L169.85 41.2005C170.32 39.9087 169.654 38.4794 168.361 38.0099ZM150.593 73.3634C149.3 72.8939 147.871 73.5593 147.401 74.8524L141.917 89.9183C141.447 91.2114 142.113 92.6394 143.405 93.1102C143.687 93.2126 143.975 93.2606 144.257 93.2606C145.274 93.2606 146.229 92.6329 146.597 91.6225L152.081 76.5553C152.552 75.2635 151.885 73.8342 150.593 73.3634ZM70.5541 58.0952C66.4686 58.0952 63.1444 61.4194 63.1444 65.5062C63.1444 66.881 64.2585 67.9964 65.6346 67.9964C67.0094 67.9964 68.1248 66.881 68.1248 65.5062C68.1248 64.1664 69.2143 63.0756 70.5541 63.0756C71.8952 63.0756 72.9847 64.1664 72.9847 65.5062C72.9847 66.881 74.1001 67.9964 75.4749 67.9964C76.8497 67.9964 77.9651 66.881 77.9651 65.5062C77.9651 61.4194 74.6409 58.0952 70.5541 58.0952ZM81.9794 80.5384C79.1311 81.7342 77.6863 84.2309 77.6863 87.9585C77.6863 98.1153 84.3541 102.663 90.9611 102.663C94.4811 102.663 97.7158 101.411 100.072 99.1386C101.971 97.3086 104.236 93.8819 104.236 87.9585C104.236 84.2309 102.792 81.7342 99.9441 80.5384C98.2216 79.816 96.1672 79.611 93.4824 79.5553V77.9535C93.7146 77.8744 93.9454 77.7875 94.1711 77.6876L98.8027 75.6267C100.275 74.973 101.372 73.7084 101.814 72.1598C102.255 70.6099 101.989 68.9575 101.083 67.6255C99.983 66.0081 98.3358 64.8447 96.4448 64.3493C92.878 63.4167 89.1063 63.4167 85.5409 64.3493C83.6486 64.8447 82.0014 66.0081 80.9016 67.6255C79.9962 68.9575 79.7291 70.6099 80.1713 72.1598C80.6123 73.7084 81.7096 74.973 83.1817 75.6267L87.8132 77.6876C88.0389 77.7875 88.2698 77.8744 88.5019 77.9535V79.554C85.7873 79.6072 83.7147 79.8095 81.9794 80.5384ZM85.205 71.0768C85.0493 71.0068 84.9858 70.8848 84.9612 70.7941C84.9352 70.7033 84.9235 70.5658 85.0195 70.4257C85.4423 69.8045 86.0753 69.357 86.8016 69.1676C88.1725 68.8084 89.5823 68.6294 90.9922 68.6294C92.402 68.6294 93.8119 68.8084 95.1828 69.1676C95.9091 69.357 96.542 69.8045 96.9649 70.4257C97.0608 70.5658 97.0492 70.7033 97.0245 70.7941C96.9986 70.8848 96.935 71.0068 96.7794 71.0768L92.1478 73.1364C91.4137 73.4633 90.572 73.4633 89.8379 73.1364L85.205 71.0768ZM90.9611 84.515C98.9765 84.515 99.2553 85.1155 99.2553 87.9585C99.2553 96.9804 92.9065 97.6821 90.9611 97.6821C89.0156 97.6821 82.6668 96.9804 82.6668 87.9585C82.6668 85.1155 82.9469 84.515 90.9611 84.515ZM106.509 67.9964C107.884 67.9964 109 66.8823 109 65.5062C109 64.1664 110.09 63.0769 111.43 63.0769C112.77 63.0769 113.86 64.1664 113.86 65.5062C113.86 66.8823 114.975 67.9964 116.35 67.9964C117.726 67.9964 118.84 66.8823 118.84 65.5062C118.84 61.4194 115.516 58.0965 111.43 58.0965C107.343 58.0965 104.019 61.4207 104.019 65.5062C104.019 66.881 105.135 67.9964 106.509 67.9964ZM134.296 95.581C131.902 94.8365 129.361 95.0699 127.142 96.2359C126.775 96.4292 126.426 96.6458 126.093 96.8806C131.226 90.2633 132.845 81.7524 130.767 72.2259C129.706 67.3609 128.162 62.9239 126.169 58.9421C127.418 59.5582 128.775 59.8682 130.128 59.8682C132.628 59.8682 135.115 58.8306 136.885 56.8046C140.134 53.0823 139.75 47.4105 136.028 44.1602L130.814 39.6091C126.632 35.9567 121.274 33.8089 115.727 33.5612C110.675 33.3355 105.63 34.7012 101.375 37.4158C96.4863 35.8439 91.1089 35.0307 85.2997 35.0307C79.4904 35.0307 74.1131 35.8439 69.2247 37.4158C64.9692 34.6999 59.9265 33.3329 54.8721 33.5612C49.3249 33.8089 43.967 35.9567 39.7841 39.6091L34.5715 44.1602C30.8491 47.4105 30.4652 53.0823 33.7142 56.8046C35.4846 58.8306 37.9709 59.8682 40.4703 59.8682C41.8243 59.8682 43.1797 59.5582 44.4287 58.9421C42.4378 62.9226 40.8918 67.3609 39.8321 72.2246C38.9061 76.4684 38.7076 80.5358 39.2394 84.3153C39.4314 85.6771 40.6895 86.6265 42.0526 86.4345C43.4144 86.2426 44.3625 84.9832 44.1706 83.6214C43.7218 80.4282 43.8982 76.9509 44.6972 73.2856C46.7231 63.9991 50.5752 56.5219 56.0342 51.0226C56.1639 50.9176 56.282 50.7995 56.3883 50.6711C60.0536 47.0824 64.4245 44.369 69.4374 42.5779C69.593 42.539 69.7461 42.4858 69.8926 42.4184C74.5112 40.8308 79.659 40.0098 85.2997 40.0098C90.9416 40.0098 96.0894 40.8321 100.708 42.4184C100.855 42.4858 101.006 42.539 101.161 42.5766C106.175 44.369 110.547 47.0824 114.211 50.6711C114.317 50.7995 114.435 50.9176 114.565 51.0226C120.024 56.5219 123.876 63.9991 125.902 73.2856C127.713 81.5903 126.372 88.6057 121.915 94.1387C120.134 96.3501 117.891 98.2735 115.219 99.9052C115.072 99.9752 114.933 100.059 114.805 100.154C107.726 104.331 97.7275 106.503 85.2997 106.503C67.1274 106.503 53.7787 101.648 47.7114 92.8326C46.9319 91.7003 45.382 91.4137 44.2484 92.1932C43.1161 92.9727 42.8295 94.5239 43.609 95.6562C44.1926 96.5057 44.8308 97.3176 45.5117 98.0997C45.0979 98.9 44.714 99.7106 44.3703 100.525C43.5325 102.517 43.3587 104.663 43.8048 106.687C35.9204 106.659 29.451 109.984 22.94 117.076C19.4382 120.888 19.6924 126.839 23.5055 130.34C25.2422 131.936 27.4964 132.813 29.853 132.813C32.4756 132.813 34.9969 131.705 36.7699 129.775C40.7751 125.413 42.644 124.689 47.9137 126.089C48.819 128.108 49.9344 130.016 51.2314 131.796C48.0823 135.767 46.2562 135.772 42.596 135.4C40.469 135.181 38.3834 135.807 36.7245 137.159C35.0657 138.512 34.032 140.429 33.8154 142.557C33.5988 144.684 34.2239 146.77 35.5754 148.428C36.9282 150.086 38.8438 151.118 40.9722 151.335C42.2614 151.466 43.5052 151.533 44.6699 151.533C49.9085 151.533 54.1419 150.234 57.9953 147.444C59.8526 146.099 61.6411 144.362 63.4258 142.179C63.5737 142.257 63.7202 142.334 63.8694 142.41C64.134 145.141 63.0899 147.772 58.5141 151.524C56.5751 153.114 55.3702 155.365 55.1237 157.86C54.8773 160.356 55.6166 162.799 57.2067 164.738C58.9979 166.921 61.645 168.174 64.4699 168.174C66.632 168.174 68.7448 167.418 70.4192 166.044C77.4645 160.267 81.5034 153.712 82.4554 146.533C87.0882 146.406 91.5045 145.482 95.5433 143.904C96.8377 144.309 97.8364 144.964 98.3877 145.788C99.2969 147.147 99.0816 148.916 98.7417 150.161C98.0803 152.58 98.3993 155.111 99.6419 157.289C100.883 159.468 102.9 161.033 105.316 161.694C106.128 161.917 106.965 162.03 107.801 162.03C110.555 162.03 113.16 160.824 114.95 158.723C115.841 157.675 115.716 156.103 114.668 155.212C113.621 154.321 112.049 154.446 111.158 155.494C110.316 156.483 109.093 157.05 107.801 157.05C107.41 157.05 107.018 156.996 106.633 156.891C105.498 156.58 104.551 155.846 103.967 154.823C103.385 153.801 103.235 152.611 103.546 151.476C104.426 148.256 104.074 145.331 102.526 143.019C102.093 142.37 101.57 141.785 100.967 141.265C103.565 139.729 105.934 137.898 108.015 135.824C108.694 136.539 109.31 137.303 109.852 138.115C111.718 140.903 112.747 144.213 112.827 147.688C112.858 149.043 113.966 150.121 115.315 150.121C115.334 150.121 115.354 150.12 115.373 150.12C116.748 150.089 117.837 148.949 117.806 147.574C117.704 143.15 116.385 138.921 113.992 135.344C113.201 134.164 112.297 133.06 111.289 132.043C113.052 129.671 114.482 127.08 115.522 124.324C116.212 124.365 116.883 124.386 117.529 124.386C120.937 124.386 124.093 123.837 126.909 122.752C131.456 121.001 137.501 116.904 140.475 107.333C141.22 104.938 140.986 102.397 139.819 100.178C138.653 97.9571 136.691 96.3241 134.296 95.581ZM53.3118 46.7827C51.4597 47.2185 49.7386 48.0992 48.2963 49.3573L43.0837 53.9097C41.43 55.3533 38.91 55.1821 37.4664 53.5284C36.0229 51.8761 36.1941 49.356 37.8464 47.9111L43.0604 43.36C46.3962 40.4482 50.6698 38.7336 55.0952 38.5364C57.8474 38.4132 60.5997 38.884 63.1521 39.884C59.5141 41.6998 56.2236 44.0085 53.3118 46.7827ZM122.303 49.3573C120.861 48.0992 119.14 47.2185 117.287 46.7827C114.377 44.0085 111.087 41.7011 107.45 39.8853C110.001 38.8853 112.754 38.4158 115.504 38.5351C119.928 38.7336 124.203 40.4469 127.539 43.36L132.752 47.9111C134.405 49.356 134.576 51.8748 133.133 53.5284C131.689 55.1821 129.169 55.352 127.516 53.9097L122.303 49.3573ZM90.9611 114.006C94.7677 114.006 97.8637 117.102 97.8637 120.909C97.8637 124.715 94.7677 127.811 90.9611 127.811C87.1557 127.811 84.0584 124.715 84.0584 120.909C84.0584 117.102 87.1544 114.006 90.9611 114.006ZM48.9604 102.459C49.0642 102.213 49.1744 101.966 49.2859 101.721C57.0212 107.923 68.7357 111.258 83.7523 111.47C81.8678 112.914 80.4268 114.906 79.6707 117.208C72.9678 117.023 66.4232 115.73 60.1768 113.358C59.0653 111.035 57.0109 109.173 54.3507 108.394C52.6011 107.882 50.9254 107.486 49.308 107.203C48.4455 105.773 48.3028 104.022 48.9604 102.459ZM50.4727 121.634C42.4365 119.281 38.7025 120.307 33.1007 126.405C32.2564 127.326 31.1033 127.832 29.853 127.832C28.7467 127.832 27.6884 127.421 26.8738 126.671C25.0827 125.028 24.9647 122.234 26.608 120.443C32.128 114.432 37.2745 111.659 43.7244 111.659C46.5117 111.659 49.5415 112.176 52.95 113.173C55.2833 113.857 56.6244 116.31 55.9421 118.643C55.2586 120.975 52.806 122.317 50.4727 121.634ZM55.0757 143.409C52.0732 145.583 48.8644 146.552 44.6699 146.552C43.6738 146.552 42.5999 146.495 41.4767 146.379C40.6726 146.297 39.9476 145.907 39.4366 145.281C38.9255 144.653 38.6895 143.864 38.7712 143.06C38.8529 142.256 39.2433 141.531 39.871 141.02C40.4988 140.509 41.2874 140.27 42.0902 140.355C47.2458 140.877 50.5453 140.278 54.509 135.64C55.9253 137.068 57.4765 138.374 59.134 139.553C57.7761 141.148 56.4363 142.425 55.0757 143.409ZM67.261 162.192C66.4634 162.847 65.4984 163.192 64.4699 163.192C63.1418 163.192 61.8979 162.605 61.0575 161.58C60.3117 160.669 59.9641 159.523 60.0796 158.35C60.195 157.179 60.7605 156.122 61.671 155.376C66.1184 151.729 68.4037 148.308 68.8161 144.484C71.571 145.419 74.4659 146.052 77.4476 146.351C76.5372 152.069 73.1196 157.388 67.261 162.192ZM81.3581 141.569C80.9923 141.569 80.6292 141.561 80.266 141.549C80.2647 141.549 80.2634 141.549 80.2621 141.549C80.2595 141.549 80.2569 141.549 80.2556 141.549C69.0198 141.191 58.8967 135.382 53.7528 126.565C56.9784 125.84 59.7294 123.433 60.7216 120.042C60.8305 119.67 60.9122 119.298 60.9732 118.924C66.8408 120.875 72.9289 121.963 79.1454 122.172C79.7784 128.133 84.8353 132.792 90.9611 132.792C97.5135 132.792 102.844 127.46 102.844 120.907C102.844 120.127 102.766 119.364 102.622 118.625C106.028 117.441 109.333 115.978 112.486 114.246C112.131 129.366 98.3046 141.569 81.3581 141.569ZM111.553 109.049C108.107 111.074 104.446 112.747 100.65 114.041C99.7171 112.729 98.5264 111.611 97.149 110.768C103.52 109.949 109.114 108.432 113.852 106.247C113.444 107.395 112.652 108.406 111.553 109.049ZM123.33 99.9376C123.01 100.51 122.744 101.119 122.546 101.76C121.942 103.701 121.492 105.146 119.08 105.53C119.156 104.807 119.156 104.074 119.076 103.341C120.627 102.303 122.046 101.167 123.33 99.9376ZM135.72 105.854C133.337 113.521 128.64 116.748 125.119 118.105C122.845 118.98 120.363 119.406 117.529 119.406C117.332 119.406 117.127 119.4 116.923 119.396C117.285 117.529 117.476 115.608 117.476 113.648C117.476 112.635 117.421 111.614 117.317 110.599C124.988 110.665 126.478 105.888 127.3 103.238C127.65 102.114 128.417 101.193 129.459 100.646C130.501 100.097 131.693 99.9882 132.818 100.337C133.942 100.687 134.863 101.452 135.412 102.495C135.96 103.537 136.069 104.73 135.72 105.854Z" fill="black"/>
</g>
<defs>
<clipPath id="clip0_223_13321">
<rect width="170" height="170" fill="white"/>
</clipPath>
</defs>
</svg>
