<svg width="170" height="170" viewBox="0 0 170 170" fill="none" xmlns="http://www.w3.org/2000/svg">
<g clip-path="url(#clip0_223_13892)">
<path d="M53.4604 146.354C51.6912 146.354 49.9247 145.675 48.5797 144.318C45.9039 141.619 45.9195 137.255 48.6147 134.576C51.0557 132.147 54.0557 128.259 55.6031 119.669C56.2762 115.924 59.8534 113.435 63.5901 114.112C67.3282 114.788 69.812 118.371 69.1362 122.116C67.4215 131.643 63.9792 138.708 58.3048 144.354C56.9636 145.688 55.2114 146.354 53.4604 146.354Z" fill="#C49B7A"/>
<path d="M124.475 153.42C114.41 153.42 108.509 150.603 99.6007 142.48C97.3542 140.431 97.1908 136.945 99.2349 134.694C101.28 132.442 104.759 132.278 107.007 134.328C115.824 142.368 119.142 142.993 129.505 142.17C132.532 141.936 135.183 144.195 135.423 147.229C135.663 150.264 133.402 152.919 130.374 153.159C128.244 153.328 126.291 153.42 124.475 153.42Z" fill="#495059"/>
<path d="M54.2122 155.521C51.4859 155.521 48.9074 153.887 47.8283 151.199C46.4132 147.668 48.1214 143.655 51.6467 142.236C60.2265 138.783 72.6832 136.162 78.9335 135.881C82.7209 135.711 85.9414 138.653 86.1126 142.454C86.2825 146.255 83.3447 149.475 79.5509 149.647C74.6469 149.867 63.6286 152.264 56.7726 155.023C55.9334 155.361 55.0657 155.521 54.2122 155.521Z" fill="#DDAF89"/>
<path d="M78.9348 135.879C73.7428 136.113 64.2707 137.962 56.2939 140.56C59.8867 145.021 64.6299 148.661 70.1189 151.108C73.8777 150.288 77.3382 149.745 79.5509 149.645C83.3447 149.475 86.2825 146.254 86.1126 142.453C85.9426 138.652 82.7208 135.71 78.9348 135.879Z" fill="#D1A582"/>
<path d="M119.969 120.233C119.969 103.457 104.96 89.8574 86.4458 89.8574C67.932 89.8574 52.9229 103.457 52.9229 120.233C52.9229 137.008 67.932 150.608 86.4458 150.608C104.96 150.608 119.969 137.008 119.969 120.233Z" fill="#DDAF89"/>
<path d="M116.722 100.73C108.507 107.561 97.9555 111.667 86.4457 111.667C74.9359 111.667 64.3846 107.561 56.1692 100.73C54.4208 102.997 52.9655 105.465 51.8605 108.091C50.3559 111.67 51.7437 115.819 55.0862 117.784C64.2886 123.197 75.0046 126.301 86.4457 126.301C97.8867 126.301 108.603 123.197 117.805 117.784C121.148 115.819 122.535 111.67 121.031 108.091C119.926 105.465 118.469 102.997 116.722 100.73Z" fill="#7F9AE6"/>
<path d="M114.377 148.838C113.613 148.838 112.837 148.709 112.077 148.439C108.498 147.167 106.626 143.228 107.896 139.643C109.046 136.394 110.068 131.587 107.748 123.173C106.737 119.506 108.884 115.712 112.546 114.698C116.207 113.684 119.993 115.836 121.005 119.504C123.578 128.836 123.531 136.698 120.857 144.249C119.857 147.073 117.206 148.838 114.377 148.838Z" fill="#C49B7A"/>
<path d="M71.1784 109.151C65.6466 107.267 60.5713 104.39 56.1692 100.73C54.4221 102.997 52.9655 105.465 51.8605 108.091C50.3559 111.67 51.7437 115.819 55.0862 117.784C59.8709 120.599 65.0681 122.782 70.561 124.236C68.5454 120.185 69.1161 114.101 71.1784 109.151Z" fill="#5E78BF"/>
<path d="M65.8709 60.9552C64.4286 61.2099 62.8969 61.0266 61.4792 60.3353L51.6581 55.5361C47.3572 53.4348 42.256 54.5744 39.2534 58.3067L34.4297 64.3002C31.9394 67.3957 27.4154 67.8817 24.3272 65.3866C21.2377 62.8915 20.7526 58.3587 23.2429 55.2632L28.0652 49.2697C31.5439 44.9475 36.4375 41.9027 41.8461 40.6954C47.2547 39.4881 52.9759 40.1626 57.9565 42.5953L67.7776 47.3932C71.3444 49.1359 72.8256 53.4464 71.0863 57.0202C70.0383 59.1735 68.059 60.5692 65.8709 60.9552Z" fill="#495059"/>
<path d="M92.483 56.2534C90.2949 56.6393 87.959 56.0078 86.2378 54.3418C83.3844 51.5802 83.3052 47.0228 86.0614 44.1625L93.6529 36.2886C97.5025 32.2951 102.65 29.7013 108.143 28.9813C113.637 28.2627 119.276 29.4479 124.02 32.3172L130.597 36.2977C133.996 38.3523 135.086 42.7772 133.034 46.1807C130.984 49.5842 126.568 50.6771 123.171 48.6225L116.592 44.6433C112.496 42.1651 107.313 42.8422 103.989 46.2911L96.3974 54.165C95.3027 55.3008 93.9253 55.9987 92.483 56.2534Z" fill="#495059"/>
<path d="M89.0587 114.754C124.979 108.409 138.267 89.0626 129.128 66.7405C119.308 42.7524 99.8045 32.117 75.2778 36.4509C50.7523 40.7836 36.0544 57.4605 35.0155 83.3667C34.0479 107.474 53.1376 121.101 89.0587 114.754Z" fill="#DDAF89"/>
<path d="M84.2759 127.486C84.2759 132.667 80.0826 136.868 74.9114 136.868C69.7402 136.868 65.5469 132.667 65.5469 127.486C65.5469 122.304 69.7402 118.104 74.9114 118.104C80.0826 118.104 84.2759 122.304 84.2759 127.486Z" fill="#F6E06A"/>
<path d="M58.561 84.1139C57.7906 79.7397 52.7231 76.9782 47.2393 77.9463C41.7568 78.9145 37.9357 83.2458 38.7062 87.6201C39.4753 91.9956 44.5441 94.7571 50.0266 93.7877C55.5091 92.8195 59.3302 88.4882 58.561 84.1139Z" fill="#FFDBDB"/>
<path d="M94.4246 77.7718C95.1951 82.146 100.264 84.9075 105.746 83.9393C111.229 82.9699 115.049 78.6385 114.279 74.2643C113.51 69.8901 108.442 67.1286 102.959 68.0967C97.4765 69.0649 93.6555 73.3962 94.4246 77.7718Z" fill="#FFDBDB"/>
<path d="M80.547 73.4767C76.9762 73.1843 73.39 73.8185 70.1344 75.3168C68.7868 75.9367 67.709 77.0257 67.0994 78.3811C66.2784 80.2122 67.3108 82.3421 69.2551 82.8268L74.6481 84.1719C76.2551 84.5721 77.9555 84.2719 79.3291 83.3453L83.9387 80.233C85.6002 79.1115 85.8427 76.7567 84.4458 75.3168C83.4108 74.2512 82.0269 73.5975 80.547 73.4767Z" fill="#495059"/>
<path d="M84.2536 96.8037C84.2536 99.5535 82.0279 101.782 79.2834 101.782C76.5389 101.782 74.3145 99.5535 74.3145 96.8037C74.3145 94.0539 76.5389 91.8252 79.2834 91.8252C82.0279 91.8252 84.2536 94.0539 84.2536 96.8037Z" fill="#D16283"/>
<path d="M77.7033 158.394C75.261 158.394 72.8979 157.088 71.6514 154.786C69.8408 151.441 71.0794 147.259 74.4193 145.445C82.6735 140.961 90.1042 138.731 96.4985 138.819C100.296 138.871 103.333 141.998 103.281 145.803C103.229 149.608 100.113 152.643 96.3105 152.597C92.3636 152.539 87.0497 154.259 80.9757 157.558C79.9329 158.125 78.8097 158.394 77.7033 158.394Z" fill="#C49B7A"/>
<path d="M70.404 81.0146C68.1095 82.5766 65.6711 82.7066 60.7865 83.5643C57.505 84.1387 55.1626 87.1991 55.6386 90.5025C56.1341 93.9476 59.3689 96.2737 62.7632 95.6734C64.4286 95.3797 65.8177 94.4375 66.7165 93.151C68.3936 90.7507 70.5713 86.6728 71.3287 81.5968C71.4066 81.0783 70.8372 80.7196 70.404 81.0146Z" fill="#7F9AE6"/>
<path d="M10.7001 91.6703L7.58074 92.1979C5.39914 92.5669 3.52883 90.6254 3.97241 88.4539L4.60666 85.348C4.75193 84.6372 4.64816 83.8977 4.31353 83.2545L2.84919 80.4449C1.82454 78.48 3.08914 76.0966 5.2876 75.8484L8.43159 75.4949C9.15144 75.4131 9.822 75.0856 10.3278 74.5671L12.5432 72.3033C14.0918 70.7204 16.7442 71.1896 17.6586 73.2078L18.9673 76.094C19.2669 76.7542 19.7845 77.2922 20.433 77.6145L23.267 79.0258C25.2488 80.0121 25.6237 82.684 23.9894 84.1797L21.6548 86.3188C21.1191 86.8087 20.7702 87.4676 20.6638 88.1849L20.2008 91.3207C19.8765 93.513 17.455 94.6969 15.5315 93.6027L12.7792 92.038C12.1489 91.6793 11.4147 91.5494 10.7001 91.6703Z" fill="#7F9AE6"/>
<path d="M20.7666 127.841L16.9028 129.218C14.2011 130.18 11.3761 128.124 11.4553 125.252L11.5681 121.146C11.594 120.205 11.2957 119.285 10.7237 118.54L8.22306 115.283C6.47467 113.007 7.5525 109.68 10.3035 108.868L14.2374 107.706C15.1375 107.439 15.9183 106.871 16.4488 106.096L18.7679 102.706C20.3879 100.336 23.8795 100.336 25.5007 102.706L27.8185 106.096C28.349 106.871 29.1311 107.439 30.0312 107.706L33.9651 108.868C36.7148 109.68 37.7939 113.007 36.0456 115.283L33.5449 118.54C32.9716 119.285 32.6733 120.205 32.6992 121.146L32.8121 125.253C32.8912 128.125 30.0663 130.181 27.3646 129.218L23.5007 127.842C22.6162 127.526 21.6512 127.526 20.7666 127.841Z" fill="#F6E06A"/>
<path d="M153.126 75.0626L149.678 76.2907C147.268 77.1484 144.75 75.3147 144.82 72.7534L144.921 69.0887C144.943 68.2505 144.677 67.4292 144.166 66.7651L141.936 63.8593C140.376 61.8282 141.338 58.8613 143.791 58.1362L147.301 57.1005C148.104 56.8626 148.8 56.3558 149.274 55.6632L151.342 52.6404C152.789 50.5261 155.901 50.5261 157.348 52.6404L159.416 55.6632C159.89 56.3558 160.586 56.8626 161.389 57.1005L164.899 58.1362C167.352 58.8613 168.314 61.8282 166.755 63.8593L164.524 66.7651C164.013 67.4292 163.747 68.2505 163.771 69.0887L163.87 72.7534C163.942 75.3147 161.422 77.1484 159.012 76.2907L155.566 75.0626C154.776 74.7806 153.914 74.7806 153.126 75.0626Z" fill="#A2D3EE"/>
<path d="M143.992 116.227L140.811 118.036C138.586 119.301 135.787 117.933 135.412 115.398L134.877 111.773C134.754 110.943 134.349 110.18 133.731 109.615L131.031 107.142C129.143 105.413 129.576 102.323 131.866 101.183L135.143 99.5524C135.892 99.1781 136.49 98.5569 136.837 97.7941L138.35 94.4569C139.407 92.1229 142.475 91.581 144.265 93.4121L146.825 96.0293C147.411 96.6284 148.186 97.0066 149.018 97.1001L152.653 97.5108C155.195 97.798 156.656 100.552 155.472 102.825L153.78 106.073C153.392 106.817 153.271 107.672 153.44 108.493L154.174 112.084C154.688 114.594 152.524 116.839 150.003 116.413L146.394 115.803C145.568 115.663 144.72 115.812 143.992 116.227Z" fill="#FFDBDB"/>
<path d="M99.0537 65.092C98.5466 65.9341 97.7035 66.515 96.7398 66.6853C95.7774 66.8555 94.7852 66.5995 94.0212 65.9809C92.9512 65.1141 91.3831 65.2818 90.5193 66.3539C89.6542 67.426 89.8215 68.9971 90.8915 69.8626C92.3935 71.0777 94.2534 71.7274 96.1523 71.7274C96.636 71.7274 97.1211 71.6859 97.6049 71.6001C99.9863 71.179 102.068 69.7457 103.32 67.6677C104.029 66.4877 103.649 64.9543 102.471 64.2421C101.295 63.5313 99.7632 63.9107 99.0537 65.092ZM39.7537 25.4354L44.6175 23.4185L40.5851 31.7914C40.1363 32.7232 40.3075 33.8369 41.017 34.5893C41.4969 35.0987 42.1571 35.3717 42.8277 35.3717C43.148 35.3704 43.4723 35.3093 43.7797 35.1806L54.676 30.6621C55.9471 30.1345 56.5502 28.6751 56.0249 27.4016C55.4983 26.1281 54.0417 25.5238 52.7707 26.0514L47.9068 28.0683L51.9406 19.6954C52.3893 18.7636 52.2168 17.6499 51.5074 16.8975C50.7979 16.145 49.6993 15.9098 48.7447 16.3062L37.8484 20.8247C36.5773 21.3523 35.9742 22.8116 36.4995 24.0852C37.0261 25.3574 38.4826 25.9617 39.7537 25.4354ZM7.99474 94.6578L11.1154 94.1301C11.2632 94.1054 11.4189 94.1327 11.5499 94.2081L14.3009 95.7715C15.1634 96.2627 16.1232 96.5083 17.0856 96.5083C17.93 96.5083 18.7756 96.3186 19.5564 95.9365C21.2296 95.1191 22.3904 93.5298 22.6628 91.6857L23.1258 88.5499C23.1479 88.4005 23.2218 88.2614 23.3334 88.1601L25.6693 86.021C27.0429 84.7631 27.7082 82.91 27.4488 81.0646C27.1907 79.218 26.0403 77.6208 24.3736 76.7904L21.5409 75.3791C21.406 75.3116 21.297 75.1998 21.2348 75.0608L19.9261 72.1745C19.1569 70.4773 17.6031 69.2713 15.7704 68.9464C13.9377 68.6229 12.0674 69.2245 10.7639 70.5566L8.54857 72.8204C8.44351 72.9282 8.30343 72.9971 8.15298 73.014L5.00899 73.3688C3.15943 73.578 1.53426 74.6852 0.660064 76.3304C-0.212834 77.9769 -0.220616 79.9457 0.640609 81.5987L2.10495 84.4083C2.17499 84.5435 2.19704 84.6981 2.16721 84.8463L1.53166 87.9521C1.15812 89.778 1.70676 91.6688 2.9999 93.0112C4.29303 94.3524 6.16075 94.9683 7.99474 94.6578ZM6.41237 88.9541L7.04662 85.8482C7.30602 84.5786 7.11925 83.2478 6.52132 82.099L5.05568 79.2894C4.92339 79.0347 4.98435 78.8138 5.05828 78.6735C5.1335 78.5344 5.28136 78.3603 5.56671 78.3278L8.7107 77.973C9.99605 77.8288 11.2023 77.2388 12.1063 76.3135L14.3216 74.0497C14.5214 73.8444 14.7509 73.834 14.9066 73.8613C15.0622 73.8886 15.2724 73.9769 15.3917 74.2382L16.7004 77.1244C17.2335 78.3044 18.166 79.2712 19.3243 79.8482L22.1583 81.2595C22.4151 81.3882 22.4955 81.6013 22.5175 81.7586C22.5396 81.9158 22.5214 82.1432 22.31 82.3382L19.9741 84.4772C19.0195 85.3505 18.3891 86.5383 18.1997 87.8196L17.7367 90.9554C17.6939 91.24 17.5162 91.3829 17.3735 91.4518C17.2309 91.522 17.0091 91.5752 16.76 91.4323L14.0078 89.8677C13.1569 89.3842 12.1919 89.1321 11.2204 89.1321C10.9092 89.1321 10.5966 89.1581 10.2866 89.2101L7.16724 89.7377C6.88449 89.7858 6.69253 89.6597 6.58358 89.5454C6.47333 89.431 6.354 89.2361 6.41237 88.9541ZM63.5256 16.2438L68.7111 15.3354L62.9575 22.6284C62.3168 23.4406 62.2428 24.5647 62.772 25.4536C63.226 26.2177 64.0431 26.6713 64.9095 26.6713C65.0522 26.6713 65.1962 26.6583 65.3388 26.6336L76.9563 24.5972C78.3104 24.3607 79.217 23.0677 78.9796 21.7096C78.7436 20.3529 77.4517 19.4445 76.0977 19.6824L70.9134 20.5907L76.667 13.2977C77.3078 12.4855 77.3817 11.3614 76.8525 10.4726C76.3233 9.58367 75.3013 9.11454 74.2844 9.29258L62.6683 11.3289C61.3129 11.5655 60.4062 12.8585 60.6436 14.2165C60.881 15.5732 62.1741 16.4829 63.5256 16.2438ZM88.208 24.579L99.9059 26.0787C100.014 26.093 100.12 26.0995 100.226 26.0995C101.46 26.0995 102.532 25.1807 102.693 23.9214C102.867 22.5543 101.903 21.3042 100.539 21.1287L95.317 20.4595L102.968 15.199C103.82 14.6129 104.222 13.5616 103.98 12.5557C103.737 11.5499 102.899 10.7974 101.875 10.6662L90.1769 9.16652C88.8124 8.99368 87.5659 9.95794 87.3909 11.3251C87.217 12.6922 88.1807 13.941 89.5452 14.1165L94.7657 14.7857L87.1159 20.0462C86.2637 20.6323 85.8617 21.6836 86.1042 22.6895C86.3467 23.6966 87.1833 24.4478 88.208 24.579ZM34.6694 106.473L30.7355 105.311C30.3853 105.209 30.0792 104.985 29.873 104.684L27.5539 101.294C26.3282 99.5024 24.3009 98.4329 22.1336 98.4329C19.965 98.4329 17.939 99.5024 16.7133 101.294L14.3943 104.684C14.188 104.985 13.8819 105.209 13.5317 105.311L9.59916 106.473C7.51873 107.088 5.8767 108.688 5.20743 110.754C4.53687 112.82 4.92598 115.083 6.24895 116.804L8.74961 120.061C8.9714 120.35 9.08943 120.711 9.07905 121.076L8.96621 125.184C8.90655 127.355 9.91823 129.414 11.6718 130.691C13.4254 131.969 15.6939 132.296 17.7367 131.568L21.6005 130.191C21.9443 130.069 22.323 130.069 22.6667 130.191L26.5305 131.568C27.2478 131.823 27.9923 131.949 28.7329 131.949C30.1012 131.949 31.4566 131.52 32.5954 130.691C34.349 129.414 35.362 127.355 35.301 125.184L35.1882 121.076C35.1791 120.711 35.2958 120.35 35.5176 120.06L38.0183 116.804C39.3413 115.083 39.7304 112.82 39.0598 110.754C38.3905 108.688 36.7485 107.088 34.6694 106.473ZM34.0714 113.761L31.5708 117.018C30.6512 118.214 30.1687 119.705 30.2102 121.214L30.323 125.32C30.3438 126.079 29.8717 126.505 29.6667 126.654C29.4631 126.803 28.9119 127.12 28.1985 126.867L24.3347 125.489C22.9144 124.984 21.3502 124.984 19.9313 125.489L16.0674 126.867C15.3541 127.12 14.8028 126.803 14.5992 126.654C14.3956 126.505 13.9234 126.079 13.9442 125.322L14.057 121.214C14.0985 119.704 13.6148 118.213 12.6952 117.018L10.1958 113.761C9.73405 113.161 9.86505 112.537 9.94287 112.298C10.0207 112.057 10.2801 111.475 11.0064 111.261L14.9403 110.099C16.3852 109.671 17.6498 108.751 18.5019 107.505L20.821 104.116C21.2477 103.491 21.8807 103.423 22.1323 103.423C22.3852 103.423 23.0169 103.491 23.4449 104.116L25.7627 107.505C26.6148 108.75 27.8794 109.671 29.3256 110.099L33.2595 111.261C33.9858 111.475 34.2452 112.057 34.3218 112.296C34.4009 112.537 34.5332 113.161 34.0714 113.761ZM152.931 95.0307L149.297 94.6201C149.035 94.5902 148.788 94.4706 148.604 94.2809L146.042 91.6636C144.627 90.2159 142.592 89.5623 140.599 89.9144C138.606 90.2666 136.918 91.5779 136.082 93.4232L134.569 96.7604C134.46 97.0021 134.271 97.1983 134.034 97.3166L130.758 98.9475C128.946 99.8494 127.697 101.587 127.416 103.593C127.134 105.6 127.857 107.615 129.351 108.983L132.05 111.456C132.246 111.634 132.374 111.875 132.413 112.138L132.949 115.764C133.246 117.767 134.508 119.496 136.326 120.385C137.176 120.799 138.095 121.006 139.014 121.006C140.059 121.006 141.103 120.738 142.04 120.205L145.22 118.396C145.45 118.266 145.721 118.218 145.98 118.263L149.587 118.872C151.581 119.21 153.612 118.539 155.016 117.083C156.422 115.624 157.019 113.567 156.613 111.583L155.879 107.991C155.826 107.732 155.865 107.461 155.987 107.227L157.679 103.978C158.617 102.182 158.608 100.04 157.658 98.251C156.709 96.4615 154.941 95.2568 152.931 95.0307ZM153.264 101.667L151.572 104.916C150.92 106.165 150.717 107.613 151 108.993L151.734 112.584C151.839 113.101 151.591 113.452 151.434 113.615C151.277 113.778 150.936 114.039 150.416 113.951L146.809 113.341C145.42 113.107 143.985 113.361 142.762 114.056L139.582 115.865C139.123 116.126 138.713 115.999 138.509 115.899C138.306 115.8 137.953 115.554 137.875 115.032L137.339 111.406C137.134 110.013 136.448 108.723 135.411 107.771L132.71 105.3C132.321 104.944 132.315 104.513 132.347 104.289C132.378 104.064 132.501 103.652 132.975 103.417L136.25 101.786C137.509 101.158 138.522 100.107 139.105 98.8241L140.617 95.4869C140.835 95.006 141.242 94.8683 141.464 94.8293C141.522 94.8189 141.594 94.8111 141.675 94.8111C141.906 94.8111 142.212 94.8774 142.486 95.1568L145.046 97.7753C146.031 98.7812 147.342 99.4219 148.739 99.5791L152.373 99.9897C152.897 100.048 153.154 100.394 153.26 100.594C153.367 100.794 153.508 101.2 153.264 101.667ZM59.1793 75.4649C59.8887 74.2836 59.5087 72.7515 58.331 72.0393C57.1533 71.3285 55.6228 71.7093 54.912 72.8905C54.4062 73.7326 53.5631 74.3135 52.5994 74.4838C51.6371 74.654 50.6448 74.3967 49.8809 73.7781C48.8108 72.9126 47.2427 73.0803 46.3789 74.1524C45.5138 75.2232 45.6811 76.7943 46.7512 77.6611C48.2531 78.8762 50.113 79.5247 52.0119 79.5247C52.4957 79.5247 52.9808 79.4831 53.4646 79.3986C55.8459 78.9776 57.9302 77.5429 59.1793 75.4649ZM169.7 59.7379C169.075 57.8094 167.543 56.3163 165.601 55.7432L162.094 54.7074C161.84 54.6321 161.62 54.4709 161.47 54.2526L159.402 51.2299C158.259 49.5574 156.368 48.5593 154.345 48.5593C152.323 48.5593 150.431 49.5574 149.287 51.2299L147.22 54.2526C147.071 54.4709 146.849 54.6321 146.596 54.7074L143.088 55.7432C141.147 56.3163 139.616 57.8094 138.99 59.7379C138.365 61.6651 138.728 63.7743 139.962 65.3805L142.193 68.2863C142.354 68.4955 142.438 68.7567 142.431 69.0205L142.33 72.6839C142.274 74.7099 143.219 76.6319 144.856 77.8223C146.492 79.0139 148.607 79.3206 150.513 78.641L153.959 77.4129C154.208 77.3245 154.482 77.3245 154.731 77.4129L158.177 78.641C158.847 78.8788 159.54 78.9958 160.232 78.9958C161.509 78.9958 162.773 78.5955 163.836 77.8223C165.472 76.6319 166.416 74.7099 166.36 72.6839L166.259 69.0205C166.253 68.7567 166.337 68.4955 166.498 68.285L168.729 65.3805C169.961 63.7743 170.325 61.6651 169.7 59.7379ZM164.78 62.3383L162.55 65.2428C161.692 66.3591 161.241 67.7496 161.28 69.157L161.381 72.8217C161.395 73.3493 161.09 73.6521 160.906 73.7846C160.723 73.9185 160.343 74.116 159.845 73.938L156.399 72.7112C155.075 72.2382 153.616 72.2382 152.29 72.7112L148.844 73.938C148.346 74.116 147.966 73.9185 147.782 73.7846C147.599 73.6521 147.294 73.3493 147.308 72.8217L147.409 69.157C147.447 67.7496 146.997 66.3591 146.14 65.2428L143.909 62.337C143.587 61.9186 143.657 61.4949 143.726 61.2792C143.796 61.0635 143.989 60.6788 144.495 60.5294L148.003 59.4936C149.352 59.0947 150.533 58.2357 151.328 57.0739L153.395 54.0512C153.693 53.6145 154.118 53.5495 154.345 53.5495C154.572 53.5495 154.996 53.6145 155.293 54.0512L157.361 57.0739C158.155 58.2357 159.336 59.0947 160.684 59.4936L164.193 60.5294C164.699 60.6788 164.892 61.0635 164.962 61.2792C165.032 61.4949 165.102 61.9186 164.78 62.3383ZM85.3299 82.3018C86.7346 81.3531 87.6412 79.8391 87.815 78.1511C87.9901 76.4617 87.4116 74.7943 86.23 73.5767C84.7747 72.0783 82.8292 71.1595 80.7488 70.9906C76.7604 70.6631 72.7319 71.3753 69.095 73.0491C67.1988 73.9224 65.6825 75.4519 64.8278 77.3583C64.3855 78.3434 64.2467 79.4077 64.3803 80.4317C63.9134 80.5136 63.4063 80.5968 62.8421 80.689C62.0872 80.8125 61.2636 80.9464 60.357 81.1049C55.7382 81.9158 52.5164 86.29 53.1727 90.8592C53.5087 93.1945 54.7434 95.2412 56.6488 96.6227C58.1364 97.7026 59.8809 98.2653 61.6773 98.2653C62.1806 98.2653 62.6877 98.2211 63.1948 98.1314C65.4607 97.7312 67.4361 96.4706 68.7552 94.5824C69.8667 92.9918 71.6087 90.1094 72.7993 86.2822L74.0471 86.5941C74.3583 86.6721 74.6735 86.7293 74.99 86.7696L75.6113 90.3004C72.9407 91.817 71.3752 94.9047 71.9381 98.1015C72.2831 100.068 73.3726 101.781 75.0056 102.927C76.274 103.817 77.7514 104.28 79.2676 104.28C79.7034 104.28 80.1418 104.242 80.5789 104.165C82.5413 103.818 84.2521 102.727 85.3947 101.09C86.5374 99.4556 86.9758 97.4725 86.6295 95.5063C86.2845 93.5402 85.195 91.8261 83.5633 90.6812C82.6373 90.0327 81.5983 89.6181 80.5166 89.4375L79.894 85.8989C80.1768 85.7533 80.4544 85.5948 80.7203 85.4155L85.3299 82.3018ZM64.676 91.7195C64.1183 92.5161 63.2869 93.0476 62.331 93.2166C61.3531 93.3881 60.3725 93.1633 59.5697 92.5798C58.7655 91.9976 58.2454 91.1334 58.1027 90.1471C57.8265 88.2212 59.2221 86.3706 61.2156 86.021C62.1015 85.8651 62.9069 85.7338 63.6436 85.6143C65.3518 85.3349 66.7785 85.1036 68.0613 84.7553C67.0691 87.9677 65.606 90.3875 64.676 91.7195ZM80.706 94.7682C81.2481 95.149 81.61 95.7182 81.7254 96.3718C81.8396 97.0255 81.6943 97.6844 81.3143 98.2289C80.9343 98.7721 80.3662 99.1347 79.7138 99.249C79.0627 99.366 78.4051 99.2191 77.8616 98.8384C77.3195 98.4576 76.9576 97.8884 76.8421 97.2347C76.6048 95.8858 77.5075 94.5954 78.8525 94.3576H78.8538C78.9991 94.3316 79.1444 94.3199 79.2883 94.3199C79.7929 94.3186 80.2845 94.4732 80.706 94.7682ZM77.9368 81.2764C77.1495 81.8079 76.1703 81.9808 75.2494 81.7508L73.8175 81.3934C73.7812 80.3824 73.2572 79.4376 72.383 78.8879C71.6385 78.4188 70.7461 78.3044 69.9251 78.5305C70.2662 78.1316 70.6891 77.8054 71.1741 77.5832C74.0354 76.2667 77.2053 75.7066 80.3441 75.9626C81.2222 76.0354 82.0458 76.4227 82.6606 77.0568C82.8655 77.2674 82.8746 77.5104 82.8616 77.6364C82.8487 77.7625 82.7903 77.999 82.5465 78.1628L77.9368 81.2764ZM129.308 139.683C127.57 139.82 126.028 139.917 124.628 139.939C125.953 133.444 125.548 126.612 123.404 118.84C123.187 118.053 122.876 117.318 122.486 116.642C124.303 113.835 124.658 110.294 123.325 107.123C122.919 106.157 122.456 105.2 121.951 104.255C126.705 100.452 129.608 96.455 131.376 92.9164C131.99 91.6831 131.492 90.1847 130.263 89.5675C129.033 88.9515 127.538 89.4505 126.922 90.6825C124.912 94.7045 121.772 98.2731 117.584 101.344C117.514 101.379 117.446 101.417 117.378 101.458C117.221 101.557 117.08 101.67 116.953 101.795C110.085 106.63 100.541 110.192 88.6269 112.298C73.7085 114.933 61.4633 114.143 52.6435 110.046C52.497 109.955 52.3413 109.879 52.1766 109.819C49.864 108.698 47.7901 107.346 45.9768 105.76C40.0572 100.576 37.1272 92.867 37.5034 83.4661C37.9288 72.8476 40.7122 63.8666 45.6422 56.749C45.7771 56.6009 45.8912 56.4358 45.9859 56.2604C49.3348 51.5782 53.6371 47.7315 58.8278 44.7803C58.9367 44.7309 59.0405 44.6698 59.1416 44.6049C63.9342 41.9317 69.4673 40.0097 75.7111 38.9064C81.907 37.8122 87.7255 37.7082 93.1068 38.5555C93.2819 38.6049 93.4609 38.6322 93.6412 38.6426C99.4947 39.6393 104.822 41.7758 109.545 45.009C109.711 45.1611 109.897 45.2923 110.099 45.395C117.142 50.3943 122.807 57.8731 126.824 67.6859C128.665 72.181 129.538 76.5461 129.418 80.6605C129.378 82.038 130.46 83.1868 131.835 83.227C133.22 83.2621 134.356 82.1822 134.396 80.8047C134.535 75.9886 133.538 70.9373 131.433 65.7925C129.221 60.3903 126.539 55.6197 123.403 51.5002C124.513 51.9316 125.682 52.1564 126.866 52.1564C127.645 52.1564 128.429 52.0616 129.204 51.8693C131.713 51.2481 133.831 49.686 135.165 47.469C136.501 45.2533 136.897 42.6478 136.277 40.1344C135.657 37.6198 134.097 35.4977 131.884 34.1605L125.307 30.18C120.082 27.0208 113.872 25.7148 107.82 26.5062C102.283 27.2327 97.0576 29.6979 92.9603 33.4873C87.2884 32.6972 81.2378 32.8635 74.846 33.9928C68.4543 35.1208 62.7124 37.039 57.6527 39.7251C52.5074 37.5679 46.7537 37.0416 41.3036 38.2579C35.3464 39.5873 29.9573 42.9414 26.1259 47.7029L21.3035 53.6964C19.6822 55.712 18.9403 58.2409 19.2166 60.8153C19.4916 63.3896 20.7523 65.7015 22.764 67.3272C24.5487 68.7697 26.694 69.4702 28.8263 69.4702C31.1181 69.4702 33.3944 68.6605 35.1921 67.0907C33.6525 72.0341 32.7614 77.4337 32.528 83.266C32.0883 94.2276 35.6058 103.305 42.6992 109.517C44.6201 111.198 46.781 112.645 49.1571 113.873C49.4684 114.986 49.9613 116.027 50.6111 116.959C50.4918 118.047 50.4321 119.144 50.4321 120.231C50.4321 122.344 50.6565 124.434 51.0884 126.479C49.7226 129.705 48.1247 131.546 46.8614 132.803C45.0845 134.569 44.1026 136.923 44.0936 139.429C44.0871 141.342 44.6487 143.168 45.698 144.717C45.663 144.793 45.6266 144.868 45.5942 144.945C44.6124 147.25 44.5851 149.801 45.519 152.127C46.9522 155.703 50.3647 158.015 54.2116 158.015C55.4101 158.015 56.5839 157.787 57.7019 157.337C60.5658 156.184 64.5308 154.982 68.6696 153.997C68.8564 154.67 69.1171 155.334 69.4634 155.975C71.1041 159.006 74.2611 160.887 77.7034 160.887C79.2533 160.887 80.7955 160.495 82.1625 159.75C87.7864 156.695 92.793 155.038 96.2807 155.091H96.3948C100.043 155.091 103.225 152.986 104.772 149.917C110.953 154.252 116.561 155.914 124.475 155.914C126.3 155.914 128.294 155.827 130.571 155.646C132.699 155.477 134.634 154.487 136.019 152.86C137.405 151.233 138.075 149.163 137.907 147.032C137.56 142.639 133.7 139.345 129.308 139.683ZM108.466 31.4549C113.403 30.809 118.47 31.8746 122.732 34.4529L129.311 38.4321C130.385 39.0818 131.141 40.1111 131.442 41.3313C131.743 42.5503 131.551 43.8147 130.902 44.8907C130.255 45.9655 129.228 46.7244 128.01 47.0259C126.792 47.3261 125.531 47.135 124.457 46.4853L117.88 42.5061C116.101 41.4301 114.094 40.8141 112.03 40.6971C111.023 40.0227 109.99 39.3859 108.931 38.7946C105.893 37.1 102.693 35.7771 99.3403 34.8245C102.084 33.0494 105.208 31.8811 108.466 31.4549ZM32.4904 62.7334C30.8665 64.7528 27.9041 65.0712 25.8898 63.4429C24.9131 62.6541 24.3022 61.5313 24.1686 60.2824C24.0351 59.0336 24.3943 57.8068 25.1816 56.8283L30.004 50.8348C33.1285 46.9505 37.5267 44.215 42.3867 43.1286C45.5942 42.4138 48.9289 42.4398 52.1144 43.1676C49.2881 45.2117 46.7317 47.5522 44.4567 50.1851C43.6655 51.0986 42.9171 52.0447 42.2038 53.0193C40.3049 53.8341 38.6266 55.1077 37.314 56.7399L32.4904 62.7334ZM74.9109 120.598C78.7008 120.598 81.7838 123.687 81.7838 127.485C81.7838 131.283 78.7008 134.372 74.9109 134.372C71.121 134.372 68.0366 131.283 68.0366 127.485C68.0366 123.687 71.121 120.598 74.9109 120.598ZM67.073 118.586C66.5632 119.037 66.0924 119.53 65.667 120.061C63.7331 119.34 61.8395 118.519 59.9964 117.604C62.2389 118.065 64.5995 118.391 67.073 118.586ZM49.0741 139.449C49.078 138.274 49.5385 137.172 50.3699 136.346C51.1831 135.536 52.1909 134.442 53.222 132.939C54.0262 134.689 54.9989 136.378 56.1338 137.989C54.1766 138.612 52.3621 139.258 50.7175 139.921C50.1987 140.128 49.7071 140.383 49.2427 140.673C49.1312 140.279 49.0728 139.869 49.0741 139.449ZM68.7124 148.865C63.8745 149.958 59.2558 151.333 55.8433 152.707C55.3193 152.919 54.7694 153.025 54.2116 153.025C52.4101 153.025 50.8108 151.943 50.139 150.267C49.7019 149.177 49.7149 147.983 50.1753 146.903C50.3089 146.588 50.4801 146.297 50.6773 146.028C50.7045 145.993 50.7304 145.958 50.7564 145.922C51.2259 145.319 51.8459 144.843 52.5735 144.551C54.6371 143.72 56.999 142.913 59.6047 142.145C62.2195 144.815 65.2934 147.081 68.7176 148.85C68.715 148.855 68.7137 148.86 68.7124 148.865ZM105.548 138.808C105.181 139.845 105.001 140.92 105.004 141.989C104.94 141.839 104.872 141.689 104.8 141.541C104.189 140.307 102.693 139.804 101.462 140.414C100.23 141.028 99.7269 142.525 100.338 143.759C100.648 144.384 100.799 145.062 100.79 145.767C100.757 148.169 98.7904 150.102 96.3987 150.102C96.3818 150.102 96.3637 150.102 96.3468 150.102C91.9629 150.037 86.2417 151.858 79.7877 155.364C79.1366 155.719 78.4349 155.898 77.7021 155.898C76.0886 155.898 74.6087 155.016 73.8408 153.597C72.6878 151.467 73.479 148.794 75.6048 147.639C82.6917 143.788 89.1055 141.674 94.6724 141.354C96.0459 141.275 97.0952 140.095 97.0161 138.72C96.937 137.344 95.758 136.294 94.387 136.372C88.0835 136.734 80.9667 139.049 73.2312 143.253C72.5386 143.628 71.9135 144.082 71.357 144.592C61.8135 139.801 55.6695 130.694 55.4244 120.843C57.9938 122.256 60.6708 123.492 63.4244 124.546C63.1845 125.485 63.0561 126.47 63.0561 127.484C63.0561 134.034 68.3739 139.362 74.9109 139.362C81.0056 139.362 86.0381 134.729 86.6905 128.794C93.2262 128.769 99.6555 127.77 105.842 125.814C107.32 132.333 106.486 136.161 105.548 138.808ZM105.025 120.832C99.0355 122.804 92.7956 123.806 86.4453 123.806C86.3571 123.806 86.2689 123.805 86.1807 123.805C85.4596 121.595 84.1094 119.669 82.3415 118.239C84.6606 117.983 87.0433 117.644 89.492 117.211C102.235 114.96 111.344 111.298 117.854 107.17C118.172 107.796 118.469 108.426 118.735 109.059C119.283 110.365 119.27 111.793 118.761 113.053C116.719 111.969 114.279 111.628 111.883 112.292C107.907 113.393 105.239 116.917 105.025 120.832ZM114.377 146.343C113.879 146.343 113.386 146.256 112.91 146.087C111.806 145.694 110.92 144.895 110.416 143.835C109.912 142.776 109.85 141.583 110.242 140.475C111.514 136.882 112.653 131.593 110.148 122.509C110.11 122.366 110.078 122.225 110.054 122.082C110.052 122.077 110.051 122.073 110.051 122.068C109.682 119.875 111.024 117.708 113.208 117.103C113.597 116.995 113.989 116.943 114.375 116.943C116.299 116.943 118.068 118.224 118.604 120.169C121.034 128.982 121.005 136.369 118.51 143.415C117.89 145.165 116.229 146.343 114.377 146.343ZM132.23 149.623C131.709 150.235 130.979 150.608 130.177 150.672C128.032 150.842 126.167 150.925 124.474 150.925C122.226 150.925 120.217 150.772 118.337 150.442C120.561 149.397 122.348 147.499 123.204 145.084C123.222 145.032 123.237 144.98 123.255 144.928C125.176 144.968 127.276 144.85 129.697 144.657C131.344 144.526 132.81 145.77 132.941 147.425C133.005 148.23 132.752 149.01 132.23 149.623Z" fill="black"/>
</g>
<defs>
<clipPath id="clip0_223_13892">
<rect width="170" height="170" fill="white"/>
</clipPath>
</defs>
</svg>
