<svg width="6" height="12" viewBox="0 0 6 12" fill="none" xmlns="http://www.w3.org/2000/svg">
<path d="M6 6C5.99412 5.76325 5.91773 5.56032 5.75906 5.37768L1.18707 0.229989C1.05191 0.0811725 0.893242 0 0.699314 0C0.305583 0 0 0.351747 0 0.804961C0 1.02142 0.0763957 1.22435 0.211557 1.37993L4.32517 6L0.211557 10.6201C0.0763957 10.7756 0 10.9718 0 11.195C0 11.6483 0.305583 12 0.699314 12C0.887365 12 1.05191 11.9188 1.18707 11.77L5.75906 6.61556C5.9236 6.43968 6 6.23675 6 6Z" fill="#9F9F9F"/>
</svg>
