<svg width="66" height="66" viewBox="0 0 66 66" fill="none" xmlns="http://www.w3.org/2000/svg">
<path d="M7.33627 52.0549C6.12878 52.0549 4.88302 51.777 3.55468 51.2342C2.48315 50.7966 1.96954 49.5735 2.40711 48.5025C2.84419 47.4309 4.06729 46.9173 5.13882 47.3549C7.10565 48.158 8.89472 48.4717 12.4709 44.6907C13.2665 43.8498 14.5923 43.8125 15.4332 44.6076C16.2736 45.4027 16.3109 46.729 15.5158 47.5694C12.6375 50.6128 10.0856 52.0549 7.33627 52.0549Z" fill="#495059"/>
<path d="M26.5947 60.3346C26.5267 60.3346 26.4577 60.3321 26.3887 60.3265C24.9466 60.2142 23.8685 58.9544 23.9808 57.5122C24.22 54.4391 24.1339 52.2774 23.6737 49.8025C23.4088 48.3805 24.3469 47.0134 25.7689 46.7486C27.1914 46.4842 28.5585 47.4223 28.8229 48.8443C29.3672 51.7684 29.477 54.3973 29.203 57.9191C29.0963 59.2918 27.9487 60.3346 26.5947 60.3346Z" fill="#DDAF89"/>
<path d="M16.2962 60.3347C16.2278 60.3347 16.1593 60.3322 16.0898 60.3266C14.6477 60.2143 13.5696 58.9545 13.6819 57.5123C13.9054 54.6462 13.8933 52.6371 13.8772 49.8565C13.8747 49.4698 13.8722 49.0695 13.8707 48.6505C13.8641 47.2039 15.0319 46.0261 16.478 46.0195H16.4901C17.9307 46.0195 19.1025 47.1847 19.1085 48.6274C19.1105 49.0438 19.113 49.4416 19.1151 49.8258C19.1322 52.7337 19.1448 54.8345 18.9046 57.9187C18.7973 59.2918 17.6503 60.3347 16.2962 60.3347Z" fill="#DDAF89"/>
<path d="M37.4495 46.027C34.5597 46.027 31.9126 44.818 29.765 42.4655C28.7901 41.397 28.8657 39.7403 29.9342 38.7655C31.0027 37.7901 32.6588 37.8662 33.6342 38.9342C35.2944 40.7535 37.1771 41.2212 39.5588 40.4075C40.9275 39.9392 42.4164 40.6694 42.8842 42.038C43.3525 43.4066 42.6224 44.8956 41.2537 45.3634C39.9551 45.8075 38.6802 46.027 37.4495 46.027Z" fill="#DDAF89"/>
<path d="M19.1085 48.6274C19.1024 47.1847 17.9307 46.0195 16.4896 46.0195C16.486 46.0195 16.482 46.0195 16.478 46.0195C15.0313 46.0261 13.8641 47.2039 13.8701 48.6505C13.8722 49.069 13.8747 49.4698 13.8767 49.8565C13.8817 50.6798 13.8858 51.4341 13.8842 52.1647C15.4669 52.9744 17.2318 53.5208 19.107 53.7373C19.1301 52.4865 19.1231 51.2533 19.115 49.8258C19.1125 49.4416 19.1105 49.0438 19.1085 48.6274Z" fill="#D1A582"/>
<path d="M28.8229 48.8444C28.5585 47.4224 27.1914 46.4843 25.7689 46.7487C24.3469 47.0136 23.4088 48.3807 23.6737 49.8027C23.9088 51.0696 24.0463 52.2549 24.0921 53.5218C25.9547 53.1401 27.6823 52.4291 29.1995 51.4593C29.1129 50.5927 28.988 49.7322 28.8229 48.8444Z" fill="#D1A582"/>
<path d="M33.6342 38.9342C32.6588 37.8662 31.0027 37.7901 29.9342 38.7655C28.8657 39.7403 28.7901 41.397 29.765 42.4655C31.1195 43.9494 32.6734 44.9771 34.3613 45.5346C35.0375 44.0028 35.4112 42.33 35.4112 40.5782C35.4112 40.4916 35.4097 40.4055 35.4076 40.3194C34.7838 40.0102 34.1961 39.55 33.6342 38.9342Z" fill="#D1A582"/>
<path d="M33.6937 40.5788C33.6937 34.202 27.9775 29.0321 20.9264 29.0321C13.8754 29.0321 8.15918 34.202 8.15918 40.5788C8.15918 46.9556 13.8754 52.125 20.9264 52.125C27.9775 52.125 33.6937 46.9556 33.6937 40.5788Z" fill="#DDAF89"/>
<path d="M32.4579 33.1652C29.3294 35.7614 25.3107 37.3229 20.9268 37.3229C16.5435 37.3229 12.5248 35.7614 9.39578 33.1652C8.7301 34.0267 8.1757 34.9648 7.75525 35.9633C7.18222 37.3239 7.71043 38.9005 8.98338 39.6482C12.488 41.7052 16.5692 42.8855 20.9268 42.8855C25.2845 42.8855 29.3657 41.7052 32.8703 39.6482C34.1433 38.9005 34.6715 37.3239 34.0989 35.9633C33.678 34.9648 33.1236 34.0267 32.4579 33.1652Z" fill="#7F9AE6"/>
<path d="M15.112 36.3662C13.0052 35.6501 11.0726 34.5564 9.39578 33.1652C8.7301 34.0267 8.1757 34.9648 7.75525 35.9633C7.18222 37.3239 7.71043 38.9005 8.98338 39.6482C10.8057 40.7178 12.7851 41.5476 14.8768 42.1005C14.1094 40.5602 14.3269 38.2479 15.112 36.3662Z" fill="#5E78BF"/>
<path d="M16.1916 18.8707C15.6785 18.8707 15.1609 18.7141 14.7142 18.3898L11.616 16.1395C10.2599 15.154 8.43007 15.2361 7.16719 16.3389L5.13893 18.1098C4.09106 19.0243 2.50088 18.9165 1.58645 17.8691C0.672024 16.8213 0.779782 15.2311 1.82715 14.3167L3.8554 12.5457C5.31819 11.2687 7.19186 10.5174 9.1315 10.4303C11.0716 10.3437 13.0047 10.9243 14.5758 12.0653L17.6735 14.3157C18.7985 15.1329 19.0482 16.7075 18.231 17.8324C17.738 18.5106 16.9701 18.8707 16.1916 18.8707Z" fill="#495059"/>
<path d="M25.6616 18.8707C24.8826 18.8707 24.1152 18.5107 23.6222 17.8324C22.8055 16.7075 23.0547 15.1329 24.1796 14.3157L27.2779 12.0654C28.849 10.9243 30.7826 10.3443 32.7217 10.4304C34.6613 10.5175 36.5355 11.2683 37.9978 12.5452L40.0265 14.3162C41.0739 15.2311 41.1817 16.8213 40.2672 17.8692C39.3528 18.9165 37.7621 19.0243 36.7148 18.1094L34.6865 16.3384C33.4231 15.2362 31.5938 15.1541 30.2372 16.1395L27.1389 18.3898C26.6923 18.7141 26.1747 18.8707 25.6616 18.8707Z" fill="#495059"/>
<path d="M20.9266 38.8114C33.708 38.8114 39.468 32.9568 37.6703 24.7123C35.7383 15.853 29.6535 11.0034 20.9266 11.0034C12.1998 11.0034 6.11501 15.853 4.18292 24.7123C2.38528 32.9568 8.14528 38.8114 20.9266 38.8114Z" fill="#DDAF89"/>
<path d="M26.5946 43.3351C26.5946 45.305 24.9978 46.9017 23.0285 46.9017C21.0586 46.9017 19.4619 45.305 19.4619 43.3351C19.4619 41.3658 21.0586 39.769 23.0285 39.769C24.9978 39.769 26.5946 41.3658 26.5946 43.3351Z" fill="#F6E06A"/>
<path d="M16.2821 25.4117C16.2821 23.7691 14.6093 22.4373 12.5463 22.4373C10.4833 22.4373 8.81104 23.7691 8.81104 25.4117C8.81104 27.0547 10.4833 28.3866 12.5463 28.3866C14.6093 28.3866 16.2821 27.0547 16.2821 25.4117Z" fill="#FFDBDB"/>
<path d="M37.2454 25.4117C37.2454 23.7691 35.5732 22.4373 33.5102 22.4373C31.4472 22.4373 29.7744 23.7691 29.7744 25.4117C29.7744 27.0547 31.4472 28.3866 33.5102 28.3866C35.5732 28.3866 37.2454 27.0547 37.2454 25.4117Z" fill="#FFDBDB"/>
<path d="M24.9872 22.9528C23.7027 22.617 22.3537 22.617 21.0692 22.9528C20.5374 23.0923 20.0742 23.4196 19.7645 23.8743C19.347 24.4881 19.5872 25.3305 20.2655 25.6322L22.1477 26.469C22.7082 26.7183 23.3482 26.7183 23.9086 26.469L25.7908 25.6322C26.4691 25.3305 26.7093 24.4881 26.2919 23.8743C25.9827 23.4196 25.5194 23.0923 24.9872 22.9528Z" fill="#495059"/>
<path d="M33.452 14.8453H8.40088L10.7146 6.52132C11.2026 4.76649 13.0007 3.72164 14.7671 4.16627L18.7381 5.16579C20.1747 5.52734 21.6782 5.52734 23.1148 5.16579L27.0862 4.16627C28.8522 3.72164 30.6503 4.76649 31.1382 6.52132L33.452 14.8453Z" fill="#495059"/>
<path d="M8.40088 14.8454H33.452L32.2782 10.6222H9.57463L8.40088 14.8454Z" fill="#F3E5B7"/>
<path d="M34.6817 14.8453H7.17131C6.22063 14.8453 5.44971 15.6163 5.44971 16.5669C5.44971 17.5181 6.22063 18.2885 7.17131 18.2885H34.6817C35.6324 18.2885 36.4033 17.5181 36.4033 16.5669C36.4033 15.6163 35.6324 14.8453 34.6817 14.8453Z" fill="#495059"/>
<path d="M40.1297 45.6635C39.0038 45.2536 38.4227 44.0084 38.8326 42.8824L41.6207 35.2226C42.0306 34.0967 43.2758 33.5156 44.4017 33.9255C45.5281 34.3359 46.1087 35.5811 45.6988 36.707L42.9112 44.3664C42.5014 45.4928 41.2561 46.0734 40.1297 45.6635Z" fill="#444F58"/>
<path d="M50.1782 32.7059C50.1782 35.6506 47.7909 38.0379 44.8457 38.0379C41.9005 38.0379 39.5132 35.6506 39.5132 32.7059C39.5132 29.7607 41.9005 27.3734 44.8457 27.3734C47.7909 27.3734 50.1782 29.7607 50.1782 32.7059Z" fill="#A2D3EE"/>
<path d="M43.7175 59.467C43.7175 58.1362 41.2995 57.0581 38.3165 57.0581C35.333 57.0581 32.915 58.1362 32.915 59.467C32.915 60.7974 35.333 61.876 38.3165 61.876C41.2995 61.876 43.7175 60.7974 43.7175 59.467Z" fill="#DFE3E5"/>
<path d="M52.9187 52.8601C52.9187 51.5298 50.5002 50.4512 47.5172 50.4512C44.5342 50.4512 42.1162 51.5298 42.1162 52.8601C42.1162 54.1905 44.5342 55.269 47.5172 55.269C50.5002 55.269 52.9187 54.1905 52.9187 52.8601Z" fill="#DFE3E5"/>
<path d="M65.0334 57.7158C65.0334 56.3855 62.6149 55.3069 59.6319 55.3069C56.649 55.3069 54.231 56.3855 54.231 57.7158C54.231 59.0462 56.649 60.1248 59.6319 60.1248C62.6149 60.1248 65.0334 59.0462 65.0334 57.7158Z" fill="#DFE3E5"/>
<path d="M9.16963 43.9933C8.0699 43.9933 7.04671 43.2954 6.68315 42.1946C6.22946 40.821 6.97521 39.3401 8.34886 38.8864C10.8066 38.0747 11.8409 36.7086 13.0388 35.1269C14.1381 33.6752 15.3838 32.0302 17.6432 31.1052C18.9816 30.5568 20.5114 31.1978 21.0592 32.5367C21.6071 33.8751 20.9661 35.4044 19.6277 35.9527C18.7379 36.3168 18.1598 37.0409 17.2147 38.2892C15.8571 40.0818 13.9981 42.537 9.99141 43.8603C9.71849 43.9505 9.44155 43.9933 9.16963 43.9933Z" fill="#C49B7A"/>
<path d="M51.73 50.2735C50.589 49.7644 49.0924 49.4844 47.5169 49.4844C45.9413 49.4844 44.4453 49.7644 43.3038 50.2735C41.4286 51.1099 41.1486 52.2529 41.1486 52.8602C41.1486 53.4669 41.4286 54.61 43.3038 55.4464C44.4453 55.9554 45.9413 56.2359 47.5169 56.2359C49.0924 56.2359 50.589 55.9554 51.73 55.4464C53.6052 54.61 53.8851 53.4669 53.8851 52.8602C53.8851 52.2529 53.6052 51.1099 51.73 50.2735ZM47.5169 54.3023C44.4649 54.3023 43.0827 53.196 43.0827 52.8602C43.0827 52.5243 44.4649 51.418 47.5169 51.418C50.5693 51.418 51.9515 52.5243 51.9515 52.8602C51.9515 53.196 50.5693 54.3023 47.5169 54.3023ZM63.8447 55.1296C62.7031 54.6205 61.2071 54.3401 59.6315 54.3401C58.0565 54.3401 56.5599 54.6205 55.4184 55.1296C53.5437 55.9655 53.2638 57.109 53.2638 57.7158C53.2638 58.3226 53.5437 59.4661 55.4184 60.302C56.5599 60.8111 58.0565 61.0915 59.6315 61.0915C61.2071 61.0915 62.7036 60.8111 63.8452 60.302C65.7198 59.4661 65.9998 58.3226 65.9998 57.7158C65.9998 57.109 65.7198 55.9655 63.8447 55.1296ZM59.6315 59.1579C56.5796 59.1579 55.1974 58.0517 55.1974 57.7158C55.1974 57.3799 56.5796 56.2737 59.6315 56.2737C62.684 56.2737 64.0662 57.3799 64.0662 57.7158C64.0662 58.0517 62.684 59.1579 59.6315 59.1579ZM30.3658 21.1251V22.4443C30.3658 22.9786 30.7988 23.4111 31.3326 23.4111C31.8668 23.4111 32.2994 22.9786 32.2994 22.4443V21.1251C32.2994 20.5913 31.8668 20.1583 31.3326 20.1583C30.7988 20.1583 30.3658 20.5913 30.3658 21.1251ZM42.5293 56.8804C41.3878 56.3714 39.8913 56.0909 38.3162 56.0909C36.7406 56.0909 35.2441 56.3714 34.1026 56.8804C32.2279 57.7168 31.9479 58.8599 31.9479 59.4671C31.9479 60.0739 32.2279 61.2169 34.1026 62.0533C35.2441 62.5624 36.7406 62.8429 38.3162 62.8429C39.8913 62.8429 41.3878 62.5624 42.5293 62.0533C44.404 61.2169 44.684 60.0739 44.684 59.4671C44.684 58.8599 44.404 57.7168 42.5293 56.8804ZM38.3162 60.9088C35.2637 60.9088 33.8815 59.803 33.8815 59.4671C33.8815 59.1313 35.2637 58.025 38.3162 58.025C41.3681 58.025 42.7504 59.1313 42.7504 59.4671C42.7504 59.803 41.3681 60.9088 38.3162 60.9088ZM33.2274 46.1399C34.5598 46.7069 35.9757 46.9939 37.4491 46.9939C38.3323 46.9939 39.2427 46.8867 40.1591 46.6772C40.3953 46.7326 40.6345 46.7633 40.8737 46.7633C41.3253 46.7633 41.7755 46.6641 42.1975 46.4677C42.9568 46.1132 43.5329 45.4848 43.8194 44.6973L45.9247 38.9131C46.465 38.8185 46.9972 38.6528 47.5078 38.4146C49.033 37.7036 50.1897 36.4412 50.7652 34.8601C51.3403 33.279 51.2657 31.5685 50.5547 30.0438C49.8437 28.5185 48.5814 27.3619 47.0002 26.7864C43.7363 25.5985 40.1143 27.2874 38.9265 30.5513C38.3509 32.1324 38.4255 33.843 39.137 35.3677C39.3751 35.8788 39.6762 36.3471 40.0292 36.767L39.0106 39.5667C37.36 40.0743 36.0855 39.8502 34.8956 38.819C35.3357 37.9141 35.4249 36.8496 35.0895 35.8551C35.9183 35.1683 36.6263 34.3944 37.2054 33.5343C37.5035 33.0912 37.3856 32.4905 36.943 32.1924C36.4999 31.8943 35.8992 32.0116 35.6011 32.4547C33.2617 35.9307 28.05 37.8451 20.9264 37.8451C20.2144 37.8451 19.518 37.8255 18.8403 37.7877C19.2678 37.2877 19.5936 37.0113 19.9939 36.8476C21.8232 36.0983 22.7029 34.0006 21.9537 32.1702C21.868 31.9607 21.7638 31.7629 21.6435 31.577C21.653 31.5705 21.6631 31.5655 21.6727 31.5589C22.0669 31.2649 22.5352 31.1093 23.0282 31.1093C23.8928 31.1093 24.3294 31.2316 24.5434 31.3348C25.0247 31.566 25.6018 31.363 25.8334 30.8817C26.0646 30.4003 25.8616 29.8227 25.3802 29.5916C25.0016 29.4098 24.5429 29.2895 23.995 29.227V27.4702C24.0987 27.4364 24.201 27.3972 24.3017 27.3523L26.1834 26.5155C26.7695 26.2551 27.2066 25.7521 27.3818 25.1353C27.5575 24.5189 27.4518 23.8608 27.0913 23.3306C26.6507 22.6825 25.99 22.2162 25.2317 22.0178C23.7901 21.6402 22.2658 21.6402 20.8242 22.0178C20.0659 22.2162 19.4057 22.6825 18.9651 23.3306C18.6046 23.8608 18.4984 24.5189 18.6741 25.1353C18.8498 25.7521 19.2864 26.2551 19.8725 26.516L21.7548 27.3528C21.8555 27.3972 21.9577 27.4364 22.0614 27.4702V29.2885C21.5065 29.4184 20.9833 29.6606 20.5165 30.009C20.3997 30.0961 20.3091 30.2049 20.2441 30.3252C20.1711 30.2885 20.0971 30.2532 20.0211 30.2215C19.1374 29.8509 18.1625 29.8469 17.2768 30.2104C14.7722 31.2356 13.3839 33.0695 12.2676 34.5434C11.8285 35.123 11.4246 35.6562 10.9714 36.1336C6.07955 34.0227 4.00597 30.0619 5.12736 24.9182C5.58961 22.7988 6.30715 20.8975 7.26086 19.2554H34.592C35.5457 20.8975 36.2633 22.7988 36.7255 24.9182C37.0231 26.2848 37.0991 27.586 36.9506 28.7854C36.8851 29.3156 37.2613 29.7985 37.7915 29.864C37.8318 29.869 37.8716 29.8716 37.9113 29.8716C38.3922 29.8716 38.8092 29.513 38.8696 29.0236C39.0453 27.6066 38.9592 26.0869 38.6148 24.5063C38.2044 22.6251 37.6062 20.8944 36.8312 19.3375C37.3162 19.5762 37.8424 19.696 38.3681 19.6955C39.3399 19.6955 40.3072 19.2922 40.995 18.5046C42.2584 17.057 42.1094 14.8515 40.6617 13.5881L38.6334 11.8171C37.0563 10.4404 35.0497 9.61515 32.9636 9.47768L32.0698 6.26207C31.4363 3.98355 29.1437 2.65119 26.8501 3.22824L22.8787 4.22828C21.6012 4.55004 20.2512 4.55004 18.9742 4.22828L15.0028 3.22824C12.7092 2.65068 10.4165 3.98355 9.78309 6.26207L8.88931 9.47768C6.80314 9.61515 4.79603 10.4404 3.21944 11.8171L1.19119 13.5881C-0.255989 14.852 -0.40554 17.0575 0.857842 18.5046C1.54568 19.2927 2.51298 19.696 3.48481 19.696C4.01051 19.696 4.53671 19.5762 5.02161 19.3375C4.24667 20.8944 3.64846 22.6256 3.23808 24.5063C2.2174 29.1867 3.49236 33.1405 6.76638 35.8445C6.45368 36.76 6.49648 37.7484 6.86608 38.6241C6.49648 38.9338 6.18983 39.3175 5.96676 39.7611C5.53623 40.6166 5.46423 41.5884 5.76484 42.4978C6.12084 43.5759 6.95017 44.3931 7.97689 44.7547C8.20651 45.3443 8.48698 45.9179 8.81176 46.4697C7.48997 47.1646 6.61028 46.9119 5.50401 46.4597C4.74668 46.151 3.91433 46.155 3.16003 46.4718C2.40623 46.7885 1.82061 47.3801 1.51144 48.137C1.20226 48.8943 1.20629 49.7266 1.52302 50.4809C1.83974 51.2347 2.4314 51.8204 3.18873 52.1295C4.65907 52.7303 6.0156 53.0218 7.33588 53.0218C9.23121 53.0218 11.0651 52.4025 12.9161 51.134C12.9212 52.6437 12.9121 53.9226 12.8486 55.3331C12.8245 55.8663 13.2369 56.3185 13.7706 56.3427C13.7857 56.3432 13.8003 56.3437 13.8149 56.3437C14.329 56.3437 14.7566 55.9388 14.7802 55.4202C14.8356 54.1865 14.8507 53.0586 14.8512 51.8043C15.8996 52.2771 17.0059 52.6245 18.1519 52.838C18.1388 54.3995 18.0895 55.9222 17.9399 57.8442C17.8704 58.742 17.0814 59.4364 16.165 59.3629C15.7651 59.3322 15.391 59.1569 15.1115 58.8709C14.7384 58.4887 14.1261 58.4812 13.7444 58.8543C13.3623 59.2274 13.3547 59.8392 13.7278 60.2214C14.3351 60.8433 15.1468 61.2235 16.0144 61.2909C16.1076 61.2985 16.2022 61.302 16.2959 61.302C18.1544 61.302 19.7235 59.8488 19.868 57.9943C20.015 56.1055 20.0679 54.5949 20.0835 53.0666C20.3635 53.0817 20.6439 53.0918 20.9264 53.0918C21.6641 53.0918 22.3877 53.0379 23.0942 52.9352C23.1773 54.2721 23.1516 55.7042 23.0166 57.4374C22.863 59.4087 24.3419 61.1374 26.3128 61.2909C26.4065 61.2985 26.5011 61.302 26.5943 61.302C28.4533 61.302 30.0224 59.8488 30.1664 57.9943C30.4066 54.9126 30.3542 52.4755 29.9891 49.9729C31.3225 48.9034 32.4273 47.6022 33.2274 46.1399ZM40.7432 31.2125C41.3878 29.442 43.0661 28.3398 44.8501 28.3398C45.3446 28.3398 45.8476 28.4249 46.3386 28.6036C47.4343 29.0024 48.3094 29.8041 48.8019 30.861C49.2949 31.9174 49.3467 33.1033 48.9479 34.199C48.5491 35.2947 47.747 36.1693 46.6906 36.6623C46.2107 36.8864 45.7041 37.0178 45.191 37.0591C45.1694 37.0596 45.1472 37.0611 45.1256 37.0636C44.5309 37.1019 43.9291 37.0178 43.3526 36.8078C42.7745 36.5978 42.2589 36.2741 41.8274 35.8612C41.8133 35.8471 41.7992 35.833 41.7841 35.8194C41.417 35.4583 41.1134 35.0313 40.8888 34.551C40.3963 33.494 40.3444 32.3082 40.7432 31.2125ZM39.7412 43.2129L41.5998 38.1054C41.9427 38.3109 42.3077 38.4856 42.6914 38.6251C43.0751 38.7651 43.4669 38.8648 43.8612 38.9282L42.0021 44.0361C41.8923 44.3383 41.6713 44.579 41.3802 44.7149C41.1008 44.8453 40.7886 44.8624 40.497 44.7668C40.4849 44.7622 40.4718 44.7587 40.4598 44.7552C40.1576 44.6449 39.9169 44.4244 39.781 44.1328C39.645 43.8418 39.6309 43.515 39.7412 43.2129ZM20.6585 24.749C20.579 24.7138 20.5468 24.6514 20.5337 24.6055C20.5206 24.5597 20.5155 24.4897 20.5639 24.4177C20.7416 24.1564 21.008 23.9686 21.3137 23.8885C21.8746 23.742 22.4511 23.6684 23.0277 23.6684C23.6048 23.6684 24.1813 23.742 24.7423 23.8885C25.0484 23.9686 25.3143 24.1564 25.492 24.4182C25.5409 24.4897 25.5353 24.5597 25.5222 24.6055C25.5091 24.6514 25.4769 24.7138 25.3979 24.749L23.5156 25.5859C23.206 25.7239 22.8505 25.7239 22.5403 25.5859L20.6585 24.749ZM37.362 13.2739L39.3902 15.0443C40.0343 15.6068 40.1007 16.5887 39.5383 17.2327C38.9758 17.8772 37.9939 17.9432 37.3499 17.3812L37.2638 17.3062C37.3313 17.0711 37.3695 16.8233 37.3695 16.567C37.3695 15.0846 36.1636 13.8786 34.6811 13.8786H34.1867L33.521 11.4828C34.9369 11.7069 36.2768 12.3267 37.362 13.2739ZM11.6462 6.78022C11.9961 5.52086 13.2631 4.78469 14.531 5.10343L18.5024 6.10346C20.0885 6.50327 21.7648 6.50327 23.351 6.10346L27.3224 5.10343C28.5893 4.78469 29.8567 5.52086 30.2067 6.78022L32.18 13.8786H9.67281L11.6462 6.78022ZM33.4485 15.8122C33.45 15.8122 33.451 15.8127 33.452 15.8127C33.453 15.8127 33.4545 15.8122 33.4555 15.8122H34.6816C35.0976 15.8122 35.4364 16.1511 35.4364 16.567C35.4364 16.7231 35.3886 16.8686 35.307 16.989C35.3025 16.9955 35.2975 17.0011 35.2929 17.0076C35.1932 17.1461 35.0472 17.2493 34.878 17.2951C34.8649 17.2982 34.8523 17.3012 34.8397 17.3047C34.7884 17.3158 34.7355 17.3218 34.6816 17.3218H7.17123C7.11735 17.3218 7.06448 17.3158 7.01362 17.3047C7.00053 17.3012 6.98794 17.2982 6.97434 17.2951C6.80515 17.2488 6.66013 17.1461 6.55993 17.0076C6.5554 17.0016 6.55036 16.9955 6.54583 16.989C6.46426 16.8686 6.41692 16.7231 6.41692 16.567C6.41692 16.1511 6.7553 15.8122 7.17123 15.8122H33.4485ZM4.58907 17.3062L4.50297 17.3812C3.85894 17.9437 2.87704 17.8772 2.31458 17.2332C1.75213 16.5887 1.8186 15.6073 2.46262 15.0448L4.49088 13.2739C5.57601 12.3267 6.91593 11.7069 8.33189 11.4833L7.6657 13.8786H7.17123C5.68931 13.8786 4.48333 15.0846 4.48333 16.567C4.48333 16.8238 4.5216 17.0711 4.58907 17.3062ZM34.6519 41.0109C35.5155 41.5104 36.4415 41.7616 37.44 41.7616C37.6983 41.7616 37.9622 41.743 38.2301 41.7098L37.9239 42.5517C37.6374 43.3392 37.6747 44.1907 38.0287 44.9501C38.0433 44.9808 38.0604 45.009 38.0755 45.0392C37.865 45.0533 37.656 45.0603 37.4491 45.0603C36.2512 45.0603 35.0996 44.8292 34.0149 44.3725C34.3881 43.3065 34.6081 42.1786 34.6519 41.0109ZM33.3593 37.0626C33.3684 37.5531 33.1937 38.0334 32.8694 38.4061C32.8674 38.4081 32.8659 38.4101 32.8639 38.4121C32.7274 38.5677 32.5668 38.7052 32.3805 38.8144C30.681 39.8119 28.8647 40.5798 26.9709 41.1025C26.6038 40.4565 26.0827 39.9096 25.4573 39.5108C28.5989 39.1186 31.2525 38.2963 33.3593 37.0626ZM23.0282 40.7359C24.4613 40.7359 25.6275 41.9021 25.6275 43.3352C25.6275 44.7688 24.4613 45.935 23.0282 45.935C21.5946 45.935 20.4284 44.7688 20.4284 43.3352C20.4284 41.9021 21.5946 40.7359 23.0282 40.7359ZM20.231 39.7722C19.5654 40.2953 19.0492 41.0008 18.7587 41.8125C17.7909 41.7209 16.8332 41.5668 15.891 41.3538C16.4867 40.7591 16.9827 40.1664 17.4112 39.6206C18.3151 39.7052 19.2592 39.7555 20.231 39.7722ZM9.24883 37.4599C9.04792 37.5667 8.83442 37.6679 8.6043 37.762C8.52323 37.5314 8.48597 37.2882 8.49302 37.0445C8.73774 37.188 8.98901 37.327 9.24883 37.4599ZM7.60075 41.8911C7.46227 41.4721 7.49551 41.0245 7.6939 40.6302C7.86611 40.2878 8.14608 40.0219 8.491 39.8673C8.49856 39.8648 8.50561 39.8608 8.51266 39.8578C8.55798 39.8381 8.6043 39.82 8.65163 39.8044C11.3954 38.8985 12.5677 37.3501 13.8094 35.7101C14.8839 34.2916 15.9948 32.8248 18.0094 32C18.2118 31.9169 18.4233 31.8756 18.6353 31.8756C18.8518 31.8756 19.0679 31.9189 19.2738 32.0051C19.6807 32.1758 19.9969 32.4945 20.1641 32.9029C20.5095 33.7463 20.1041 34.7126 19.2607 35.058C18.1398 35.5172 17.4596 36.3632 16.4434 37.7056C15.6498 38.754 14.742 39.9519 13.3753 41.0119C13.3366 41.0366 13.2998 41.0653 13.2651 41.096C12.3229 41.808 11.1668 42.454 9.68792 42.9424C9.51873 42.9978 9.34451 43.026 9.16927 43.026C9.08216 43.026 8.99656 43.0195 8.91247 43.0064C8.89535 43.0024 8.87823 42.9988 8.8606 42.9963C8.27851 42.8861 7.79209 42.4701 7.60075 41.8911ZM7.33588 51.0882C6.2709 51.0882 5.15354 50.843 3.91987 50.3389C3.64091 50.2251 3.42287 50.0096 3.30605 49.7317C3.18923 49.4537 3.18772 49.1471 3.30152 48.8676C3.41583 48.5886 3.63134 48.3706 3.90929 48.2543C4.18725 48.1375 4.4939 48.136 4.77287 48.2498C6.2004 48.8324 7.76994 49.2795 9.92509 48.0614C10.413 48.6566 10.9573 49.213 11.553 49.7216C10.1225 50.6496 8.7604 51.0882 7.33588 51.0882ZM28.2388 57.8437C28.1724 58.6987 27.4498 59.3679 26.5943 59.3679C26.551 59.3679 26.5077 59.3664 26.4634 59.3629C25.555 59.2919 24.8737 58.4958 24.9442 57.5874C25.0962 55.6382 25.1159 54.0405 25.0041 52.5288C26.1381 52.2066 27.2091 51.7534 28.1965 51.1899C28.4267 53.2313 28.4362 55.3034 28.2388 57.8437ZM20.9264 51.1582C18.3302 51.1582 15.8674 50.4165 13.8044 49.0126C12.2031 47.924 10.9271 46.4667 10.12 44.8282C10.1784 44.8121 10.2368 44.7975 10.2942 44.7784C11.8164 44.2758 13.0551 43.6112 14.0813 42.8835C15.5224 43.3 17.0074 43.5845 18.5135 43.731C18.7144 46.0458 20.6621 47.8686 23.0282 47.8686C25.5278 47.8686 27.5616 45.8353 27.5616 43.3352C27.5616 43.2058 27.5545 43.0774 27.544 42.9505C29.3451 42.4485 31.0813 41.741 32.7234 40.8417C32.5673 46.5538 27.3355 51.1582 20.9264 51.1582ZM13.7565 21.1251V22.4443C13.7565 22.9786 14.1896 23.4111 14.7233 23.4111C15.2571 23.4111 15.6901 22.9786 15.6901 22.4443V21.1251C15.6901 20.5913 15.2571 20.1583 14.7233 20.1583C14.1896 20.1583 13.7565 20.5913 13.7565 21.1251Z" fill="black"/>
</svg>
