<svg width="66" height="66" viewBox="0 0 66 66" fill="none" xmlns="http://www.w3.org/2000/svg">
<path d="M14.6477 54.3549C18.1931 54.3549 21.4837 52.4963 25.1958 48.5713C26.221 47.4871 26.1731 45.7766 25.089 44.7514C24.0049 43.7267 22.2944 43.7741 21.2692 44.8582C16.6578 49.7344 14.3501 49.3301 11.8137 48.2943C10.4315 47.7299 8.85495 48.3925 8.29049 49.7742C7.72652 51.1554 8.38918 52.733 9.77038 53.297C11.4839 53.9964 13.0902 54.3549 14.6477 54.3549Z" fill="#495059"/>
<path d="M39.2895 65.033C41.0398 65.033 42.5207 63.6825 42.6542 61.9085L42.6572 61.8657C43.0092 57.1823 43.2629 53.7991 42.5529 49.8448C42.2231 48.0089 40.4658 46.7893 38.6319 47.1176C36.796 47.4474 35.5749 49.2028 35.9042 51.0387C36.4626 54.1485 36.2476 57.0172 35.9213 61.3597L35.9183 61.4025C35.7783 63.2625 37.1731 64.8834 39.0332 65.0234C39.1193 65.03 39.2049 65.033 39.2895 65.033Z" fill="#DDAF89"/>
<path d="M26.0733 65.033C27.8236 65.033 29.3045 63.6825 29.4375 61.9085L29.441 61.8657C29.7925 57.1823 30.0468 53.7991 29.3368 49.8448C29.007 48.0089 27.2501 46.7893 25.4157 47.1176C23.5798 47.4474 22.3582 49.2028 22.688 51.0387C23.2465 54.1485 23.0315 57.0172 22.7052 61.3597L22.7016 61.4025C22.5622 63.2625 23.957 64.8834 25.817 65.0234C25.9031 65.03 25.9882 65.033 26.0733 65.033Z" fill="#DDAF89"/>
<path d="M51.7919 47.2692C54.8232 47.2692 57.8439 45.9801 59.8167 43.764C61.057 42.3702 60.9326 40.2352 59.5388 38.9955C58.1455 37.7553 56.0105 37.8797 54.7708 39.273C54.1026 40.0232 52.6272 40.697 51.2078 40.4689C50.1141 40.2921 49.324 39.6073 48.7928 38.3747C48.0541 36.6621 46.0666 35.8716 44.3541 36.6108C42.6411 37.3495 41.8515 39.3364 42.5897 41.0495C44.0454 44.4252 46.7237 46.5874 50.1312 47.1372C50.6806 47.2259 51.2365 47.2692 51.7919 47.2692Z" fill="#DDAF89"/>
<path d="M25.4154 47.1176C27.2497 46.7893 29.0066 48.0089 29.3364 49.8448C29.7302 52.0372 29.8269 54.0543 29.7755 56.2145C27.3399 55.923 25.0528 55.1944 23.012 54.1168C22.9732 53.076 22.8735 52.0704 22.6882 51.0387C22.3579 49.2028 23.5795 47.4474 25.4154 47.1176Z" fill="#D1A582"/>
<path d="M38.6319 47.1176C40.4658 46.7893 42.2231 48.0089 42.5529 49.8448C42.7574 50.9823 42.8797 52.0724 42.9452 53.1601C40.9688 54.4713 38.6979 55.4325 36.2406 55.9421C36.2758 54.212 36.1953 52.6575 35.9042 51.0387C35.5749 49.2028 36.796 47.4474 38.6319 47.1176Z" fill="#D1A582"/>
<path d="M44.3541 36.6107C46.0671 35.871 48.0541 36.6616 48.7928 38.3746C49.2077 39.3369 49.7812 39.9638 50.5325 40.2775C50.4243 42.6089 49.7948 44.8189 48.7465 46.8119C45.9992 45.9574 43.842 43.9533 42.5897 41.0489C41.8515 39.3364 42.6411 37.3494 44.3541 36.6107Z" fill="#D1A582"/>
<path d="M48.6384 39.5555C48.6384 31.3322 41.2666 24.6658 32.1737 24.6658C23.0803 24.6658 15.709 31.3322 15.709 39.5555C15.709 47.7787 23.0803 54.4451 32.1737 54.4451C41.2666 54.4451 48.6384 47.7787 48.6384 39.5555Z" fill="#DDAF89"/>
<path d="M17.3029 29.9952C21.3377 33.3438 26.5201 35.3569 32.1734 35.3569C37.8261 35.3569 43.0085 33.3438 47.0438 29.9952C47.9019 31.1065 48.6169 32.316 49.1592 33.6041C49.8984 35.3584 49.2166 37.3917 47.5751 38.3555C43.0558 41.0086 37.7923 42.5308 32.1734 42.5308C26.5539 42.5308 21.2909 41.0086 16.7711 38.3555C15.1296 37.3917 14.4483 35.3584 15.187 33.6041C15.7293 32.316 16.4448 31.1065 17.3029 29.9952Z" fill="#7F9AE6"/>
<path d="M24.6747 34.1232C21.9576 33.2003 19.4651 31.7898 17.3029 29.9952C16.4448 31.1065 15.7293 32.316 15.187 33.6041C14.4483 35.3584 15.1296 37.3922 16.7711 38.356C19.1211 39.7352 21.6736 40.8057 24.3715 41.5187C23.3816 39.5323 23.662 36.5503 24.6747 34.1232Z" fill="#5E78BF"/>
<path d="M26.1173 11.7727C25.4612 11.7727 24.799 11.5728 24.2275 11.1574L20.2657 8.27968C18.5305 7.01932 16.1905 7.12406 14.5752 8.53447L11.981 10.7994C10.641 11.9691 8.60675 11.8311 7.43703 10.4912C6.26732 9.15181 6.40528 7.11751 7.7452 5.94779L10.3394 3.68288C12.2101 2.0494 14.6064 1.08865 17.0873 0.977869C19.5688 0.86709 22.0412 1.60931 24.0508 3.06856L28.0126 5.94678C29.4517 6.99213 29.7705 9.00578 28.7256 10.4449C28.0957 11.312 27.1133 11.7727 26.1173 11.7727Z" fill="#495059"/>
<path d="M38.2293 11.7727C37.2333 11.7727 36.2514 11.312 35.6215 10.4444C34.5761 9.00576 34.8954 6.99211 36.334 5.94677L40.2963 3.06854C42.3055 1.60929 44.7788 0.867074 47.2593 0.977349C49.7402 1.08863 52.1365 2.04938 54.0077 3.68286L56.6019 5.94778C57.9413 7.11749 58.0793 9.15179 56.9096 10.4912C55.7399 11.8311 53.7056 11.9691 52.3661 10.7994L49.7719 8.53395C48.1566 7.12404 45.8166 7.0188 44.0814 8.27916L40.1191 11.1574C39.5476 11.5728 38.8854 11.7727 38.2293 11.7727Z" fill="#495059"/>
<path d="M32.1735 37.2769C48.5203 37.2769 55.8876 29.7883 53.5884 19.2442C51.1176 7.91261 43.3349 1.71002 32.1735 1.71002C21.012 1.71002 13.2294 7.91261 10.7585 19.2442C8.45933 29.7883 15.8261 37.2769 32.1735 37.2769Z" fill="#DDAF89"/>
<path d="M38.8134 43.1104C38.8134 45.6508 36.7544 47.7097 34.214 47.7097C31.6742 47.7097 29.6152 45.6508 29.6152 43.1104C29.6152 40.5706 31.6742 38.5116 34.214 38.5116C36.7544 38.5116 38.8134 40.5706 38.8134 43.1104Z" fill="#F6E06A"/>
<path d="M53.0574 20.5217C53.0574 18.3444 50.8408 16.579 48.1066 16.579C45.3724 16.579 43.1553 18.3444 43.1553 20.5217C43.1553 22.6995 45.3724 24.4649 48.1066 24.4649C50.8408 24.4649 53.0574 22.6995 53.0574 20.5217Z" fill="#FFDBDB"/>
<path d="M25.2727 20.5217C25.2727 18.3444 23.0561 16.579 20.3219 16.579C17.5877 16.579 15.3711 18.3444 15.3711 20.5217C15.3711 22.6995 17.5877 24.4649 20.3219 24.4649C23.0561 24.4649 25.2727 22.6995 25.2727 20.5217Z" fill="#FFDBDB"/>
<path d="M31.6175 17.2628C33.32 16.8172 35.1081 16.8172 36.8105 17.2628C37.5155 17.4476 38.1298 17.8812 38.5397 18.4839C39.0931 19.2976 38.7748 20.414 37.8755 20.8138L35.381 21.9231C34.6383 22.2534 33.7898 22.2534 33.0471 21.9231L30.5525 20.8138C29.6532 20.414 29.335 19.2976 29.8884 18.4839C30.2983 17.8812 30.9126 17.4476 31.6175 17.2628Z" fill="#495059"/>
<path d="M11.389 36.5015L18.1465 35.3101C19.7145 35.0336 20.7614 33.5386 20.4849 31.9706L17.9577 17.6394C17.6812 16.0714 16.1862 15.0245 14.6187 15.301L7.86122 16.4924C6.2932 16.7688 5.24635 18.2638 5.52279 19.8318L8.05005 34.163C8.32599 35.731 9.82149 36.7779 11.389 36.5015Z" fill="#495059"/>
<path d="M15.8028 18.6676C15.8028 19.1757 15.3909 19.5881 14.8829 19.5881C14.3743 19.5881 13.9624 19.1757 13.9624 18.6676C13.9624 18.1596 14.3743 17.7477 14.8829 17.7477C15.3909 17.7477 15.8028 18.1596 15.8028 18.6676Z" fill="#7F9AE6"/>
<path d="M19.8289 28.251L20.1648 30.1549L7.7299 32.3473L7.39404 30.4429L19.8289 28.251Z" fill="#DFE3E5"/>
<path d="M14.6731 23.832C14.6731 24.9554 13.7622 25.8658 12.6388 25.8658C11.5154 25.8658 10.6045 24.9554 10.6045 23.832C10.6045 22.7086 11.5154 21.7977 12.6388 21.7977C13.7622 21.7977 14.6731 22.7086 14.6731 23.832Z" fill="#DFE3E5"/>
<path d="M17.9951 44.6145C17.7665 44.6145 17.5339 44.5908 17.3012 44.5404C14.0665 43.8501 11.0347 41.6008 8.76426 38.2059C6.88757 35.4002 5.74102 32.1559 5.69822 29.5275C5.668 27.7001 7.12524 26.194 8.95309 26.1638H9.00848C10.8111 26.1638 12.287 27.61 12.3167 29.4192C12.3343 30.5013 12.9522 32.5608 14.2664 34.5256C15.555 36.4521 17.1653 37.7432 18.683 38.067C20.471 38.4486 21.6105 40.207 21.2288 41.9951C20.897 43.5495 19.5239 44.6145 17.9951 44.6145Z" fill="#C49B7A"/>
<path d="M44.2544 14.8403V16.5886C44.2544 17.1228 44.687 17.5554 45.2212 17.5554C45.755 17.5554 46.188 17.1228 46.188 16.5886V14.8403C46.188 14.3066 45.755 13.8735 45.2212 13.8735C44.687 13.8735 44.2544 14.3066 44.2544 14.8403ZM22.2402 14.8403V16.5886C22.2402 17.1228 22.6733 17.5554 23.207 17.5554C23.7413 17.5554 24.1738 17.1228 24.1738 16.5886V14.8403C24.1738 14.3066 23.7413 13.8735 23.207 13.8735C22.6733 13.8735 22.2402 14.3066 22.2402 14.8403ZM61.6305 41.266C61.5631 40.1074 61.0484 39.0449 60.1819 38.2735C58.3928 36.6808 55.6414 36.8409 54.0483 38.63C53.5558 39.1839 52.3881 39.6793 51.3619 39.5142C50.8493 39.4316 50.1947 39.1839 49.6806 37.992C49.6493 37.9195 49.6131 37.849 49.5773 37.7775C50.4565 36.4955 50.6866 34.8197 50.0819 33.3081C51.1086 32.4631 51.8992 31.5885 52.5059 30.7531C52.8201 30.3211 52.7239 29.7168 52.2919 29.4026C51.8599 29.0889 51.2556 29.1851 50.9419 29.6166C50.2355 30.589 49.3553 31.4616 48.313 32.233C48.3119 32.2335 48.3109 32.2345 48.3104 32.235C47.1125 33.1208 45.6991 33.872 44.0757 34.4798C40.8299 35.6943 36.8252 36.3102 32.1735 36.3102C27.7646 36.3102 23.9503 35.7583 20.8052 34.6701C21.3903 33.8297 21.6149 32.8116 21.4371 31.8025L18.9098 17.4713C18.5413 15.3811 16.5402 13.9793 14.4505 14.3489L13.2435 14.5613C14.7778 10.9701 17.0296 8.13771 19.9537 6.12809C23.2851 3.838 27.3965 2.67684 32.1735 2.67684C35.014 2.67684 37.6128 3.0847 39.9507 3.89339C40.0081 3.92058 40.068 3.94223 40.1289 3.95734C42.1255 4.66984 43.9302 5.67742 45.5299 6.97756C45.9735 7.33809 46.399 7.71977 46.8064 8.12109C46.823 8.13872 46.8396 8.15634 46.8577 8.17296C49.6775 10.9746 51.6212 14.7587 52.6439 19.4497C53.1666 21.8475 53.1625 24.0722 52.6318 26.0622C52.4943 26.5778 52.801 27.1075 53.3171 27.2455C53.4002 27.2676 53.4843 27.2782 53.5669 27.2782C53.9939 27.2782 54.3851 26.9927 54.5004 26.5602C55.1112 24.2701 55.1223 21.7393 54.5332 19.0383C53.9289 16.2663 53.02 13.7824 51.8151 11.5985C52.5704 12.2239 53.5029 12.5608 54.4778 12.5608C54.5739 12.5608 54.6701 12.5573 54.7668 12.5507C55.8826 12.4752 56.9023 11.9696 57.638 11.1272C58.3736 10.2848 58.7367 9.20622 58.6612 8.09038C58.5856 6.97454 58.0801 5.95487 57.2377 5.21971L54.6434 2.95429C52.6081 1.1778 50.0013 0.132962 47.3024 0.0121133C44.8088 -0.0996723 42.3168 0.58514 40.2276 1.9452C37.7825 1.14608 35.0921 0.743754 32.1735 0.743754C29.2565 0.743754 26.5631 1.15212 24.1225 1.94721C22.0323 0.58514 19.5383 -0.100679 17.0447 0.0121133C14.3458 0.132962 11.7385 1.1778 9.70366 2.95479L7.10943 5.21971C5.37021 6.73787 5.19095 9.388 6.70911 11.1272C7.53592 12.0739 8.69759 12.5588 9.8658 12.5588C10.8135 12.5588 11.7646 12.2385 12.5441 11.5885C11.964 12.6398 11.4494 13.7632 11.0048 14.9566L7.69303 15.5407C5.60284 15.9093 4.202 17.9094 4.57059 20.0001L5.75289 26.7037C5.10132 27.4685 4.71359 28.463 4.73122 29.5436C4.77704 32.3503 5.98452 35.7895 7.96041 38.7438C10.0833 41.9171 12.8523 44.1518 15.8599 45.1483C16.1641 45.8829 16.5241 46.5874 16.935 47.2596C14.9838 48.3795 13.7058 48.0225 12.179 47.3991C10.3064 46.6347 8.16031 47.5361 7.39544 49.4087C6.63056 51.2814 7.5319 53.4274 9.40506 54.1918C11.2671 54.9522 12.9822 55.3218 14.6474 55.3218C17.1228 55.3218 19.5206 54.4768 21.9507 52.7502C22.1466 54.7014 22.0701 56.7392 21.8651 59.6069C21.8273 60.1396 22.2282 60.6019 22.7609 60.6401C22.7841 60.6421 22.8072 60.6426 22.8304 60.6426C23.3329 60.6426 23.7574 60.2539 23.7942 59.7448C23.9503 57.559 24.0676 55.5358 23.9508 53.5362C25.4649 54.2729 27.1034 54.8107 28.8215 55.1163C28.8245 57.1612 28.6619 59.3284 28.4771 61.7932L28.4735 61.836C28.3799 63.0868 27.3255 64.0662 26.0737 64.0662C26.0133 64.0662 25.9508 64.0637 25.8894 64.0597C25.1497 64.0038 24.4865 63.6186 24.0706 63.0027C23.772 62.5601 23.1713 62.4438 22.7287 62.7424C22.2861 63.0415 22.1692 63.6422 22.4684 64.0848C23.2171 65.1936 24.411 65.887 25.7464 65.9877C25.8567 65.9963 25.9664 65.9998 26.0737 65.9998C28.3315 65.9998 30.2329 64.2349 30.4021 61.9816L30.4051 61.9383C30.5864 59.5303 30.7455 57.4004 30.7546 55.3595C31.2239 55.3943 31.6967 55.4124 32.1735 55.4124C33.234 55.4124 34.2728 55.3258 35.2814 55.1596C35.2834 56.9406 35.1364 58.908 34.9576 61.2877L34.9541 61.3305C34.7748 63.7188 36.572 65.8079 38.9628 65.9877C39.073 65.9963 39.1828 65.9998 39.2901 65.9998C41.5479 65.9998 43.4488 64.2349 43.618 61.9816L43.6215 61.9383C43.9201 57.9608 44.1583 54.7764 43.759 51.3927C45.192 50.2305 46.4136 48.8573 47.3638 47.3266C48.1876 47.6871 49.0627 47.9444 49.9771 48.092C50.5703 48.1876 51.1806 48.2365 51.7919 48.2365C55.1344 48.2365 58.4044 46.8049 60.5389 44.4066C61.3103 43.54 61.698 42.4246 61.6305 41.266ZM47.2157 1.94369C49.4786 2.0449 51.665 2.92105 53.3715 4.41102L55.9657 6.67594C56.4189 7.07222 56.6913 7.62058 56.7321 8.2213C56.7724 8.82151 56.577 9.40209 56.1812 9.85578C55.785 10.309 55.2366 10.5814 54.6359 10.6217C54.0362 10.6625 53.4551 10.4671 53.0014 10.0708L50.4072 7.80638C49.7098 7.1971 48.8779 6.77564 47.9857 6.57271C47.5889 6.19153 47.1775 5.82597 46.7495 5.47802C45.4665 4.43469 44.0676 3.56306 42.5595 2.86315C44.0107 2.19495 45.613 1.87168 47.2157 1.94369ZM48.4293 34.4989C48.671 35.6656 48.1488 36.8983 47.0858 37.5222C44.6301 38.9638 41.9925 40.0338 39.2352 40.7106C38.6747 39.5429 37.718 38.6003 36.5407 38.0564C41.982 37.567 45.7802 36.1707 48.4293 34.4989ZM34.2139 39.4784C36.217 39.4784 37.8464 41.1079 37.8464 43.111C37.8464 45.1135 36.217 46.743 34.2139 46.743C32.2113 46.743 30.5819 45.1135 30.5819 43.111C30.5819 41.1079 32.2113 39.4784 34.2139 39.4784ZM31.528 38.2377C30.3054 38.9145 29.3638 40.0374 28.9232 41.3848C26.544 41.124 24.2121 40.5766 21.9749 39.7524C21.4683 38.4578 20.3429 37.4326 18.8847 37.1214C18.3993 37.0181 17.8887 36.778 17.3796 36.427L18.3147 36.2618C18.5594 36.219 18.7965 36.1526 19.0241 36.066C22.4402 37.4492 26.6412 38.1788 31.528 38.2377ZM11.3452 10.0708C10.4091 10.8885 8.98259 10.7914 8.16585 9.85578C7.34861 8.9197 7.44529 7.49318 8.38086 6.67594L10.9751 4.41102C12.6816 2.92105 14.8679 2.0449 17.1308 1.94369C18.7341 1.87168 20.3354 2.19445 21.7861 2.86214C19.7558 3.80073 17.9365 5.04296 16.3499 6.57473C15.4621 6.77866 14.6343 7.19962 13.9394 7.80638L11.3452 10.0708ZM8.02889 17.4446L11.8759 16.7663C11.8774 16.7663 11.8784 16.7658 11.8799 16.7658L14.7864 16.2532C15.8267 16.0694 16.8222 16.7668 17.0055 17.8072L19.5327 32.1389C19.6213 32.6424 19.5091 33.151 19.2155 33.5699C18.9219 33.9894 18.4828 34.2693 17.9788 34.358L15.6444 34.7693C15.4465 34.5236 15.2542 34.2638 15.0699 33.9884C13.7828 32.0638 13.2959 30.1922 13.2833 29.4031C13.245 27.0838 11.3276 25.1971 9.00827 25.1971L8.93677 25.1976C8.43121 25.2056 7.94731 25.3028 7.49917 25.472L6.47497 19.6642C6.29118 18.6234 6.98858 17.6284 8.02889 17.4446ZM9.5677 37.6687C7.78971 35.011 6.70458 31.9621 6.6643 29.5119C6.64315 28.2203 7.67691 27.1523 8.96597 27.1307H9.00827C10.2787 27.1307 11.3291 28.1644 11.3497 29.4354C11.3704 30.6952 12.0315 32.9244 13.4626 35.0634C13.7889 35.5508 14.1368 36.0005 14.4994 36.4109C14.5235 36.4421 14.5492 36.4718 14.5769 36.5C15.7819 37.8374 17.1505 38.7287 18.4813 39.0127C19.7447 39.2821 20.5529 40.5298 20.2835 41.7932C20.0539 42.8677 19.0916 43.6477 17.9949 43.6477C17.8308 43.6477 17.6651 43.6301 17.503 43.5954C14.5155 42.9579 11.6977 40.8531 9.5677 37.6687ZM14.6474 53.3882C13.2375 53.3882 11.7616 53.0659 10.1362 52.4022C9.24997 52.0402 8.82397 51.0256 9.18551 50.1398C9.54706 49.2541 10.5622 48.8276 11.4479 49.1892C13.2652 49.9314 15.2678 50.4969 18.0463 48.8483C18.7819 49.7738 19.6208 50.6197 20.5479 51.373C18.5433 52.7421 16.6439 53.3882 14.6474 53.3882ZM41.6929 61.7927L41.6899 61.836C41.5963 63.0863 40.5418 64.0662 39.2895 64.0662C39.2296 64.0662 39.1672 64.0637 39.1058 64.0592C37.7804 63.96 36.7829 62.8003 36.8821 61.475L36.8857 61.4322C37.081 58.8269 37.2401 56.7045 37.2114 54.7361C38.9124 54.2684 40.5046 53.5705 41.9432 52.6812C42.1653 55.4834 41.9613 58.2201 41.6929 61.7927ZM32.1735 53.4788C28.9358 53.4788 25.8773 52.5755 23.343 50.9984C23.3259 50.9868 23.3077 50.9757 23.2896 50.9651C23.1139 50.8549 22.9402 50.7416 22.7695 50.6243C22.7297 50.5925 22.6879 50.5638 22.6441 50.5392C21.2609 49.5714 20.0589 48.3911 19.1012 47.0406C19.0896 47.0219 19.079 47.0033 19.0659 46.9852C19.0559 46.9706 19.0438 46.9575 19.0327 46.9434C18.7276 46.5048 18.4471 46.0486 18.1953 45.5763C20.1138 45.4851 21.7694 44.0924 22.1743 42.1965C22.1964 42.0938 22.2131 41.9916 22.2272 41.8889C24.3098 42.5832 26.4619 43.0561 28.6528 43.3008C28.7535 46.2817 31.2088 48.6766 34.2139 48.6766C37.2829 48.6766 39.78 46.1795 39.78 43.1105C39.78 42.9297 39.7704 42.7509 39.7538 42.5742C42.5248 41.8879 45.1814 40.8284 47.6689 39.4165C47.6694 39.4628 47.6714 39.5091 47.6714 39.5555C47.6714 47.2329 40.7191 53.4788 32.1735 53.4788ZM59.0947 43.121C57.3213 45.113 54.5911 46.3024 51.7919 46.3024C51.2838 46.3024 50.7768 46.2621 50.2853 46.1825C49.5849 46.0697 48.9147 45.8779 48.2817 45.614C48.961 44.1241 49.3981 42.5208 49.5471 40.844C49.9923 41.1386 50.4948 41.333 51.0547 41.4236C52.8342 41.7096 54.6339 40.8813 55.4929 39.9155C56.3766 38.923 57.9038 38.8339 58.8963 39.7176C59.3772 40.1456 59.6627 40.7358 59.7005 41.3783C59.7377 42.0213 59.5227 42.6401 59.0947 43.121ZM29.4036 24.8209C29.0526 24.4186 28.4423 24.3763 28.0395 24.7273C27.6372 25.0782 27.5949 25.6885 27.9458 26.0914C29.5269 27.9056 31.812 28.9464 34.2139 28.9464C36.6163 28.9464 38.9008 27.9056 40.4824 26.0914C40.8329 25.6885 40.7911 25.0782 40.3883 24.7273C39.9859 24.3763 39.3751 24.4181 39.0242 24.8209C38.0252 25.9675 36.6601 26.7102 35.1807 26.9378V23.0132C35.3826 22.9609 35.581 22.8924 35.7738 22.8068L38.2684 21.6975C38.9597 21.3898 39.4748 20.7967 39.6823 20.069C39.8893 19.3419 39.7644 18.566 39.3389 17.9406C38.7976 17.144 37.9869 16.5715 37.0553 16.3278C35.1968 15.8413 33.2315 15.8413 31.3729 16.3278C30.4414 16.5715 29.6307 17.144 29.0894 17.9406C28.6639 18.566 28.539 19.3419 28.746 20.069C28.9534 20.7967 29.4685 21.3898 30.1599 21.6975L32.6544 22.8068C32.8473 22.8924 33.0457 22.9609 33.2476 23.0132V26.9378C31.7677 26.7102 30.4031 25.9675 29.4036 24.8209ZM30.9454 19.9306C30.7178 19.8294 30.6347 19.642 30.6055 19.5393C30.5763 19.4366 30.5481 19.2332 30.6881 19.0277C30.9666 18.6179 31.3835 18.3238 31.8624 18.1984C32.6318 17.997 33.4228 17.8963 34.2144 17.8963C35.0054 17.8963 35.7965 17.997 36.5659 18.1984C37.0448 18.3238 37.4617 18.6179 37.7402 19.0277C37.8801 19.2332 37.8519 19.4366 37.8227 19.5393C37.7935 19.642 37.7099 19.8294 37.4829 19.9306L34.9883 21.0399C34.4964 21.2584 33.9319 21.2584 33.4399 21.0399L30.9454 19.9306Z" fill="black"/>
</svg>
