<svg width="170" height="170" viewBox="0 0 170 170" fill="none" xmlns="http://www.w3.org/2000/svg">
<g clip-path="url(#clip0_223_13269)">
<path d="M14.2813 94.7224C16.7456 92.9974 20.1412 93.5966 21.8662 96.0609L30.8427 108.88C32.5677 111.343 31.9698 114.739 29.5055 116.465C25.8752 119.007 24.9893 124.028 27.5314 127.658C30.0735 131.289 35.0955 132.174 38.7258 129.632C41.4845 127.701 42.753 124.219 41.8814 120.967C41.1045 118.062 42.8295 115.076 45.7335 114.298C48.6387 113.52 51.6244 115.245 52.4026 118.15C54.4532 125.806 51.4675 134.007 44.9721 138.554C36.4223 144.541 24.5963 142.456 18.6094 133.906C13.7081 126.906 14.2165 117.71 19.2553 111.32L12.9441 102.309C11.2191 99.8442 11.8183 96.4487 14.2813 94.7224Z" fill="#7F9AE6"/>
<path d="M12.576 85.5063C12.576 88.2909 10.3192 90.5477 7.53459 90.5477C4.74994 90.5477 2.49316 88.2909 2.49316 85.5063C2.49316 82.7216 4.74994 80.4648 7.53459 80.4648C10.3192 80.4648 12.576 82.7216 12.576 85.5063Z" fill="#7F9AE6"/>
<path d="M118.341 130.669C111.425 130.669 105.008 127.044 97.7677 119.388C95.7678 117.274 95.8598 113.938 97.9752 111.938C100.091 109.937 103.425 110.03 105.425 112.146C114.421 121.658 118.92 120.869 123.868 118.847C126.562 117.747 129.64 119.041 130.74 121.734C131.841 124.428 130.548 127.506 127.854 128.606C124.512 129.97 121.378 130.669 118.341 130.669Z" fill="#495059"/>
<path d="M69.1472 151.498C65.74 151.498 62.8542 148.874 62.5857 145.421C61.897 136.563 62.1733 129.949 63.5416 122.595C64.2083 119.018 67.6479 116.659 71.2237 117.324C74.8008 117.99 77.1601 121.429 76.4947 125.005C75.3365 131.229 75.1199 136.668 75.7217 144.399C76.0044 148.025 73.2924 151.195 69.6647 151.478C69.4909 151.491 69.3184 151.498 69.1472 151.498Z" fill="#DDAF89"/>
<path d="M99.1661 151.497C98.9949 151.497 98.8224 151.491 98.6486 151.478C95.0209 151.195 92.3089 148.025 92.5916 144.399C93.1935 136.667 92.9756 131.229 91.8173 125.005C91.152 121.429 93.5125 117.989 97.0896 117.324C100.665 116.656 104.105 119.018 104.772 122.595C106.14 129.949 106.416 136.562 105.726 145.421C105.458 148.873 102.572 151.497 99.1661 151.497Z" fill="#DDAF89"/>
<path d="M121.722 111.217C117.522 111.217 113.111 110.18 108.537 108.11C105.223 106.61 103.752 102.706 105.251 99.3911C106.751 96.0773 110.655 94.6065 113.97 96.1058C123.644 100.483 128.217 96.4794 130.081 93.7012C132.111 90.6818 136.204 89.879 139.223 91.9062C142.244 93.9347 143.047 98.028 141.019 101.049C137.98 105.573 133.456 108.866 128.279 110.322C126.159 110.919 123.97 111.217 121.722 111.217Z" fill="#DDAF89"/>
<path d="M63.7971 107.927C63.7517 107.936 63.7063 107.945 63.6596 107.953C53.7726 109.774 44.7559 107.862 38.2709 102.572C32.6484 97.9856 29.463 91.0986 29.3022 83.1804C29.2282 79.5423 32.1179 76.5359 35.7547 76.4593C39.3928 76.3867 42.4005 79.2751 42.4745 82.9132C42.5588 87.0182 43.9452 90.1984 46.5989 92.3631C49.9892 95.1283 55.3381 96.0881 61.2744 94.996C64.8528 94.3372 68.2873 96.7042 68.9461 100.283C69.5959 103.814 67.2977 107.206 63.7971 107.927Z" fill="#DDAF89"/>
<path d="M61.2742 94.9964C56.5505 95.8654 52.2017 95.4309 48.9112 93.8252C48.2212 96.3816 47.8516 99.0534 47.8516 101.803C47.8516 103.79 48.0435 105.734 48.4106 107.625C53.046 108.824 58.221 108.955 63.6593 107.953C63.706 107.946 63.7514 107.937 63.7968 107.926C67.2974 107.206 69.5957 103.813 68.9459 100.282C68.287 96.7045 64.8526 94.3375 61.2742 94.9964Z" fill="#D1A582"/>
<path d="M120.544 101.803C120.544 100.505 120.46 99.2263 120.302 97.9669C118.485 97.7698 116.386 97.2004 113.97 96.1057C110.655 94.6064 106.751 96.0772 105.251 99.3923C103.752 102.706 105.223 106.61 108.537 108.109C112.171 109.754 115.702 110.745 119.106 111.083C120.041 108.135 120.544 105.023 120.544 101.803Z" fill="#D1A582"/>
<path d="M104.77 122.595C104.105 119.018 100.665 116.656 97.0896 117.324C93.5125 117.989 91.152 121.429 91.8173 125.005C92.3971 128.123 92.7421 131.044 92.8653 134.152C97.5514 133.095 101.885 131.203 105.663 128.66C105.449 126.653 105.154 124.653 104.77 122.595Z" fill="#D1A582"/>
<path d="M71.2229 117.324C67.6471 116.659 64.2074 119.018 63.5408 122.595C63.1582 124.654 62.8637 126.654 62.6484 128.66C66.4279 131.203 70.7598 133.096 75.4472 134.153C75.5704 131.044 75.9141 128.123 76.4939 125.005C77.1592 121.429 74.8 117.99 71.2229 117.324Z" fill="#D1A582"/>
<path d="M116.271 101.803C116.271 85.7635 101.892 72.7598 84.1559 72.7598C66.4195 72.7598 52.041 85.7635 52.041 101.803C52.041 117.843 66.4195 130.846 84.1559 130.846C101.892 130.846 116.271 117.843 116.271 101.803Z" fill="#DDAF89"/>
<path d="M113.161 83.1553C105.29 89.6857 95.1821 93.613 84.1551 93.613C73.1293 93.613 63.0205 89.6857 55.1504 83.1553C53.4759 85.3226 52.0817 87.6818 51.0233 90.1941C49.5824 93.6156 50.9118 97.5831 54.1141 99.4624C62.9297 104.637 73.1955 107.606 84.1551 107.606C95.116 107.606 105.382 104.637 114.197 99.4624C117.4 97.5831 118.729 93.6156 117.288 90.1941C116.23 87.6818 114.834 85.3226 113.161 83.1553Z" fill="#7F9AE6"/>
<path d="M69.5289 91.207C64.2293 89.4068 59.3682 86.6559 55.1504 83.1553C53.4759 85.3226 52.0817 87.6831 51.0233 90.1941C49.5824 93.6169 50.9118 97.5831 54.1141 99.4624C58.6977 102.154 63.6755 104.241 68.9374 105.631C67.0075 101.757 67.5535 95.9411 69.5289 91.207Z" fill="#5E78BF"/>
<path d="M75.1818 44.6612C73.8589 44.5458 72.5593 44.027 71.4815 43.0893L64.003 36.59C60.7281 33.7444 55.9941 33.5421 52.4896 36.0998L46.8619 40.2073C43.9554 42.3279 39.8802 41.6924 37.7583 38.7858C35.6377 35.8793 36.2746 31.8041 39.1798 29.6822L44.8088 25.5746C48.8671 22.6136 53.8657 21.1 58.8864 21.3127C63.9057 21.5267 68.7591 23.4592 72.5502 26.7549L80.0287 33.2541C82.7446 35.6147 83.0325 39.7288 80.672 42.4447C79.2492 44.0828 77.1883 44.8376 75.1818 44.6612Z" fill="#495059"/>
<path d="M99.5912 46.7968C97.5847 46.6204 95.6859 45.5192 94.5692 43.6606C92.7158 40.5764 93.7145 36.5738 96.7987 34.7204L105.293 29.6193C109.599 27.0318 114.715 25.9735 119.695 26.6324C124.675 27.2938 129.335 29.6531 132.818 33.2743L137.648 38.2975C140.14 40.8902 140.06 45.0147 137.466 47.5088C134.873 50.0029 130.749 49.9212 128.255 47.3285L123.426 42.3053C120.418 39.1782 115.722 38.5544 112.002 40.7891L103.509 45.8902C102.284 46.6256 100.914 46.9122 99.5912 46.7968Z" fill="#495059"/>
<path d="M82.8901 97.1317C115.836 100.014 132.005 86.2201 129.229 64.5628C126.247 41.2908 111.656 27.4168 89.1611 25.4493C66.666 23.4805 49.8868 34.61 42.909 57.0117C36.4162 77.8571 49.9439 94.2485 82.8901 97.1317Z" fill="#DDAF89"/>
<path d="M91.2402 108.738C91.2402 113.692 87.2247 117.708 82.2701 117.708C77.3156 117.708 73.2988 113.692 73.2988 108.738C73.2988 103.783 77.3156 99.7666 82.2701 99.7666C87.2247 99.7666 91.2402 103.783 91.2402 108.738Z" fill="#F6E06A"/>
<path d="M102.142 64.0479C101.771 68.2787 105.779 72.0867 111.091 72.551C116.405 73.0167 121.012 69.9635 121.383 65.7327C121.753 61.5006 117.746 57.6939 112.432 57.2283C107.12 56.764 102.512 59.8171 102.142 64.0479Z" fill="#FFDBDB"/>
<path d="M67.3896 61.0168C67.7605 56.786 63.7528 52.978 58.4403 52.5137C53.1265 52.0481 48.5196 55.1012 48.1487 59.332C47.779 63.5641 51.7854 67.3708 57.0992 67.8351C62.4117 68.3008 67.0199 65.2476 67.3896 61.0168Z" fill="#FFDBDB"/>
<path d="M80.275 55.761C83.6576 55.1838 87.1335 55.4886 90.3656 56.6429C91.7041 57.1215 92.8234 58.0696 93.5173 59.3096C94.4538 60.9853 93.6457 63.1007 91.8312 63.7245L86.7963 65.456C85.2957 65.9709 83.6485 65.827 82.2607 65.0592L77.6019 62.4794C75.9223 61.5495 75.4943 59.3264 76.707 57.8388C77.6058 56.7376 78.873 55.9996 80.275 55.761Z" fill="#495059"/>
<path d="M91.7642 82.7674C91.344 87.5728 87.4594 87.1072 82.6528 86.687C77.8474 86.2667 73.9409 86.0501 74.3611 81.2448C74.7813 76.4381 79.0173 72.883 83.824 73.3033C88.6293 73.7235 92.1857 77.9608 91.7642 82.7674Z" fill="#D16283"/>
<path d="M154.592 71.4128C151.629 71.9355 148.804 69.9576 148.283 66.9952L145.565 51.583C145.043 48.622 147.02 45.7971 149.982 45.2744C154.346 44.5053 157.271 40.3277 156.502 35.9633C155.732 31.5989 151.555 28.6754 147.191 29.4446C143.875 30.0295 141.253 32.6494 140.668 35.9633C140.146 38.9256 137.32 40.9022 134.358 40.3808C131.396 39.8582 129.42 37.0333 129.942 34.071C131.32 26.2643 137.491 20.0945 145.3 18.7184C155.579 16.9052 165.416 23.7935 167.228 34.0722C168.712 42.4885 164.364 50.6064 157.099 54.2691L159.009 65.1042C159.531 68.0652 157.554 70.8901 154.592 71.4128Z" fill="#7F9AE6"/>
<path d="M161.852 82.6176C161.852 85.4023 159.596 87.6603 156.811 87.6603C154.026 87.6603 151.77 85.4023 151.77 82.6176C151.77 79.8329 154.026 77.5762 156.811 77.5762C159.596 77.5762 161.852 79.8329 161.852 82.6176Z" fill="#7F9AE6"/>
<path d="M155.503 75.1996C153.522 75.5498 151.795 76.6496 150.641 78.2981C149.487 79.9453 149.044 81.944 149.393 83.9258C150.036 87.5755 153.222 90.1501 156.807 90.1501C157.24 90.1501 157.678 90.1137 158.118 90.0346C160.1 89.6857 161.826 88.5859 162.981 86.9374C164.135 85.2902 164.578 83.2915 164.228 81.3097C163.507 77.219 159.593 74.4771 155.503 75.1996ZM158.901 84.0814C158.51 84.6391 157.925 85.0126 157.254 85.1307C155.869 85.3732 154.544 84.4472 154.298 83.0607C154.18 82.3901 154.331 81.7131 154.721 81.1541C155.112 80.5964 155.697 80.2228 156.367 80.1048C156.518 80.0789 156.665 80.0659 156.812 80.0659C158.026 80.0659 159.105 80.9388 159.324 82.1748C159.442 82.8454 159.292 83.5224 158.901 84.0814ZM13.7041 81.1852C12.5498 79.5367 10.8235 78.4369 8.84167 78.088C6.85986 77.7378 4.86248 78.1814 3.214 79.3357C1.56552 80.49 0.46567 82.2163 0.116778 84.1981C-0.233411 86.1786 0.210162 88.1773 1.36449 89.8258C2.8275 91.9166 5.16858 93.0346 7.54467 93.0346C9.03622 93.0346 10.542 92.5936 11.8546 91.6753C15.2566 89.2927 16.0867 84.5872 13.7041 81.1852ZM8.99731 87.595C7.84557 88.403 6.25157 88.1216 5.44484 86.9698C4.6381 85.8168 4.91826 84.2228 6.07128 83.416C6.63029 83.0243 7.30732 82.8739 7.97787 82.9932C8.64841 83.1113 9.23336 83.4835 9.62505 84.0425C10.4318 85.1942 10.1503 86.7882 8.99731 87.595ZM61.8628 49.4049L61.5658 52.8017C61.4465 54.1726 62.4595 55.3802 63.8291 55.5008C63.903 55.5073 63.977 55.5099 64.0496 55.5099C65.3271 55.5099 66.414 54.5332 66.5281 53.2362L66.8251 49.8394C66.9445 48.4698 65.9315 47.261 64.5619 47.1416C63.1923 47.0223 61.9835 48.0353 61.8628 49.4049ZM155.023 73.865C157.112 73.4966 158.931 72.3371 160.147 70.6017C161.363 68.865 161.83 66.7587 161.462 64.6705L159.857 55.5734C167.2 51.0093 171.2 42.2532 169.681 33.6386C167.63 22.0084 156.498 14.2135 144.868 16.2653C138.2 17.4404 132.588 21.7062 129.566 27.5232C126.652 25.7632 123.404 24.6128 120.021 24.164C114.99 23.4974 109.824 24.4182 105.329 26.7554C100.55 24.749 95.2242 23.4792 89.3773 22.9682C83.5318 22.4559 78.0649 22.7788 73.0105 23.9254C68.9872 20.8437 64.0613 19.0409 58.9926 18.8243C53.4064 18.583 47.8527 20.2704 43.3405 23.5635L37.7115 27.6711C33.7012 30.5971 32.8205 36.2417 35.7478 40.2533C37.5079 42.6657 40.2523 43.9458 43.0331 43.9458C44.1355 43.9458 45.2444 43.7396 46.3002 43.3272C43.9591 47.1533 42.0279 51.4684 40.5312 56.2712C38.443 62.9741 38.299 69.3216 40.0578 74.9856C38.8062 74.3358 37.3885 73.9674 35.8892 73.9674C35.8283 73.9674 35.7647 73.9687 35.7024 73.97C30.6986 74.0738 26.7104 78.2281 26.8128 83.2293C26.9879 91.8906 30.4976 99.4456 36.6972 104.501C40.6401 107.718 45.5402 109.836 50.9512 110.685C51.2275 111.541 51.5414 112.382 51.8941 113.207C51.6438 113.02 51.3857 112.844 51.1121 112.685C49.2755 111.624 47.1368 111.343 45.0888 111.892C40.8619 113.025 38.3444 117.384 39.4767 121.611C40.0772 123.855 39.2017 126.258 37.2965 127.592C34.792 129.347 31.3264 128.736 29.5715 126.23C28.7233 125.019 28.3991 123.548 28.6572 122.086C28.914 120.624 29.7233 119.352 30.9334 118.505C32.6701 117.288 33.8296 115.469 34.1979 113.382C34.565 111.294 34.0981 109.187 32.8828 107.452L23.9063 94.6325C22.691 92.8958 20.8713 91.7363 18.7831 91.3679C16.695 91.0009 14.59 91.4678 12.8533 92.6831C11.1166 93.8997 9.95708 95.7181 9.59003 97.8062C9.22169 99.8944 9.68861 102.001 10.9039 103.736L16.2034 111.304C11.4772 118.544 11.5524 128.17 16.5705 135.335C19.8467 140.014 24.7571 143.139 30.3977 144.134C31.6584 144.355 32.9191 144.466 34.172 144.466C38.526 144.466 42.7672 143.139 46.4014 140.594C53.3377 135.737 56.7345 127.2 55.1431 118.972C56.7008 121.151 58.5464 123.143 60.6281 124.904C59.9096 129.605 59.6372 134.056 59.7604 139.13C59.7928 140.484 60.9018 141.559 62.2481 141.559H62.3103C63.6851 141.525 64.772 140.384 64.7396 139.009C64.6462 135.156 64.7941 131.689 65.2091 128.177C67.6436 129.635 70.2907 130.821 73.1 131.686C72.8056 135.542 72.851 139.618 73.2375 144.592C73.3231 145.682 72.9781 146.742 72.2661 147.573C71.5553 148.405 70.5618 148.909 69.4684 148.995C68.174 149.095 66.925 148.58 66.0742 147.614C65.1663 146.582 63.5917 146.481 62.5593 147.39C61.5269 148.3 61.4271 149.874 62.3363 150.905C64.0613 152.864 66.5424 153.987 69.1455 153.987C69.3841 153.987 69.6241 153.978 69.8575 153.96C74.8484 153.572 78.5928 149.195 78.2037 144.205C77.8587 139.765 77.7938 136.213 78.0091 132.838C80.0052 133.165 82.0584 133.336 84.1556 133.336C86.2528 133.336 88.306 133.165 90.3008 132.838C90.5174 136.213 90.4525 139.765 90.1075 144.205C89.7184 149.195 93.4628 153.571 98.4524 153.96C98.6871 153.978 98.9271 153.987 99.1644 153.987C103.871 153.987 107.843 150.309 108.208 145.614C108.639 140.077 108.693 135.344 108.352 130.791C111.643 132.38 114.942 133.16 118.339 133.16C121.667 133.16 125.087 132.424 128.793 130.911C130.713 130.127 132.212 128.644 133.015 126.732C133.818 124.821 133.828 122.712 133.045 120.793C132.261 118.875 130.777 117.375 128.866 116.572C126.955 115.77 124.845 115.759 122.925 116.543C120.174 117.666 117.983 118.296 114.708 116.596C115.346 115.505 115.916 114.377 116.413 113.215C118.213 113.54 119.992 113.707 121.72 113.707C124.191 113.707 126.624 113.375 128.951 112.72C134.697 111.104 139.716 107.452 143.085 102.438C145.876 98.2822 144.767 92.6312 140.611 89.8388C136.456 87.0502 130.805 88.1579 128.014 92.3134C126.259 94.9256 123.588 95.9658 120.053 95.4262C120.289 94.4742 120.381 93.4859 120.325 92.4911C122.928 90.6572 125.132 88.5068 126.91 86.0399C127.714 84.9245 127.46 83.3681 126.344 82.5639C125.229 81.7598 123.672 82.0127 122.868 83.1281C116.312 92.2278 102.192 96.3212 83.105 94.6493C70.5968 93.556 60.7332 90.4808 53.994 85.643C53.8734 85.534 53.7411 85.4355 53.5971 85.3499C51.0926 83.4913 49.0343 81.3811 47.4558 79.0283C43.4689 73.0842 42.7386 65.926 45.2846 57.7511C48.1329 48.6072 52.6568 41.4413 58.6204 36.4025C58.7539 36.3117 58.8772 36.2079 58.99 36.0938C63.0198 32.7813 67.6967 30.4298 72.9444 29.0758C73.0079 29.0628 73.0728 29.0459 73.1363 29.0278C77.9456 27.8125 83.2283 27.4299 88.9428 27.9292C94.6029 28.4247 99.6975 29.7009 104.192 31.6983C104.332 31.7787 104.478 31.8448 104.63 31.8954C109.501 34.134 113.651 37.2391 117.014 41.1625C117.11 41.3025 117.219 41.4322 117.342 41.5516C122.334 47.5463 125.543 55.3853 126.758 64.8794C127.169 68.0894 127.135 71.1309 126.656 73.9194C126.423 75.2761 127.334 76.5627 128.689 76.7962C130.045 77.0296 131.333 76.1178 131.565 74.7625C132.128 71.4863 132.173 67.9481 131.698 64.2464C131.06 59.2608 129.908 54.6798 128.268 50.5073C129.613 51.3283 131.155 51.7836 132.772 51.816C132.833 51.8173 132.894 51.8173 132.954 51.8173C135.292 51.8173 137.5 50.9289 139.191 49.3037C141.71 46.8809 142.542 43.213 141.487 39.9874C142.3 38.9796 142.878 37.7591 143.118 36.396C143.523 34.1081 145.332 32.3001 147.623 31.8967C149.075 31.6399 150.549 31.9668 151.765 32.8189C152.981 33.6697 153.791 34.9395 154.048 36.396C154.305 37.8512 153.977 39.3233 153.126 40.5386C152.275 41.7539 151.004 42.5645 149.549 42.8213C145.24 43.5814 142.352 47.7058 143.112 52.0157L145.829 67.428C146.197 69.5148 147.357 71.3345 149.092 72.5498C150.442 73.4953 152.014 73.9882 153.628 73.9882C154.091 73.9869 154.558 73.9467 155.023 73.865ZM43.5441 136.514C39.954 139.027 35.5935 139.994 31.2628 139.228C26.9322 138.464 23.1631 136.068 20.6495 132.478C16.5225 126.583 16.7533 118.517 21.2111 112.862C21.8907 111.998 21.9245 110.792 21.2954 109.892L14.9842 100.879C14.5316 100.233 14.3578 99.4482 14.494 98.6713C14.6315 97.8931 15.0634 97.2161 15.7093 96.7634C16.2125 96.4107 16.7974 96.2278 17.3992 96.2278C17.5717 96.2278 17.7455 96.2421 17.9193 96.2732C18.6962 96.4107 19.3733 96.8426 19.8259 97.4885L28.8024 110.309C29.7376 111.644 29.412 113.49 28.0774 114.425C23.3213 117.754 22.1618 124.331 25.4912 129.086C28.8206 133.841 35.3977 135.002 40.1537 131.672C43.7659 129.142 45.4273 124.581 44.2873 120.322C43.8657 118.749 44.8035 117.125 46.378 116.702C47.1407 116.499 47.937 116.604 48.6205 116.998C49.304 117.392 49.793 118.03 49.9979 118.793C51.7787 125.443 49.1847 132.564 43.5441 136.514ZM118.714 100.247C121.619 100.782 124.264 100.581 126.604 99.6415C128.833 98.7478 130.75 97.1733 132.148 95.0916C133.409 93.2162 135.96 92.7155 137.834 93.9736C139.71 95.2343 140.212 97.7855 138.951 99.6609C136.242 103.695 132.212 106.63 127.604 107.925C125.715 108.457 123.736 108.727 121.72 108.727C120.508 108.727 119.26 108.626 117.989 108.43C118.494 106.292 118.761 104.076 118.761 101.804C118.761 101.286 118.743 100.767 118.714 100.247ZM103.243 145.227C103.079 147.346 101.288 149.006 99.1657 149.006C99.0581 149.006 98.9504 149.003 98.8402 148.994C96.5873 148.818 94.8973 146.843 95.0737 144.592C95.4602 139.618 95.5056 135.542 95.2112 131.686C98.0205 130.821 100.669 129.633 103.105 128.175C103.726 133.422 103.757 138.632 103.243 145.227ZM84.1556 128.356C68.104 128.356 54.9953 116.854 54.5439 102.564C59.6605 105.355 65.1144 107.394 70.8108 108.644C70.8108 108.675 70.8082 108.706 70.8082 108.737C70.8082 115.058 75.9495 120.199 82.2698 120.199C88.3838 120.199 93.3941 115.386 93.7145 109.35C100.777 108.259 107.505 105.984 113.767 102.565C113.316 116.854 100.207 128.356 84.1556 128.356ZM124.811 121.153C125.497 120.872 126.253 120.876 126.937 121.164C127.622 121.452 128.154 121.989 128.435 122.676C128.715 123.364 128.711 124.118 128.423 124.803C128.137 125.488 127.6 126.02 126.912 126.3C123.815 127.565 121.011 128.179 118.341 128.179C114.771 128.179 111.402 127.094 107.824 124.784C109.289 123.531 110.634 122.165 111.841 120.701C117.263 123.747 121.215 122.62 124.811 121.153ZM91.2463 100.001C98.2656 100.001 104.535 99.1538 109.958 97.4651C111.586 96.9593 113.124 96.3756 114.582 95.7258C114.457 95.9191 114.32 96.1059 114.169 96.2823C114.154 96.2991 114.14 96.316 114.124 96.3328C113.788 96.7142 113.39 97.0488 112.937 97.3147C106.729 100.959 99.9932 103.348 92.8909 104.438C92.1853 102.701 91.066 101.175 89.6549 99.9826C90.1879 99.9917 90.721 100.001 91.2463 100.001ZM82.2698 102.256C85.843 102.256 88.7496 105.164 88.7496 108.737C88.7496 112.311 85.843 115.218 82.2698 115.218C78.6966 115.218 75.7887 112.311 75.7887 108.737C75.79 105.164 78.6966 102.256 82.2698 102.256ZM53.3182 91.1604C53.3195 91.1591 53.3208 91.1578 53.3208 91.1552C59.3545 94.8724 67.1312 97.4781 76.4411 98.875C74.4956 100.029 72.9171 101.74 71.9327 103.791C66.0962 102.516 60.5347 100.343 55.3753 97.3147C54.9122 97.0436 54.5128 96.7025 54.1743 96.3173C54.1691 96.3108 54.1626 96.3043 54.1574 96.2978C52.9538 94.9126 52.5777 92.9217 53.3182 91.1604ZM49.1834 88.2059C49.0252 88.5457 48.8721 88.8868 48.7282 89.2279C48.5492 89.6533 48.4026 90.0852 48.2872 90.521C48.2496 90.4912 48.2094 90.4626 48.1718 90.4328C46.343 88.9413 45.3106 86.857 45.0356 84.0892C46.2535 85.5574 47.6374 86.9296 49.1834 88.2059ZM45.024 94.2927C46.0499 95.1292 47.2301 95.8322 48.5453 96.3925C48.8345 97.2031 49.2288 97.9761 49.7191 98.6895C49.6075 99.7245 49.5505 100.769 49.5505 101.804C49.5505 103.019 49.6296 104.217 49.7774 105.398C46.0058 104.542 42.6738 102.95 39.8438 100.643C34.7971 96.5261 31.9373 90.3057 31.792 83.1294C31.7453 80.8713 33.5468 78.9972 35.8049 78.9492H35.8892C38.1097 78.9492 39.9397 80.7326 39.9851 82.9634C40.0837 87.8323 41.7789 91.6442 45.024 94.2927ZM58.8188 30.029C57.9252 30.6347 57.064 31.2819 56.2222 31.9538C54.3455 32.2326 52.5608 32.9629 51.0213 34.0874L45.3936 38.1949C43.6012 39.5023 41.0785 39.1093 39.7698 37.3169C38.4612 35.5244 38.8554 33.0018 40.6479 31.6931L46.2769 27.5855C49.8812 24.9552 54.3208 23.6115 58.7799 23.8009C61.549 23.9176 64.2675 24.6296 66.737 25.8553C63.9445 26.9578 61.3025 28.3481 58.8188 30.029ZM135.74 45.7136C134.965 46.4581 133.95 46.8485 132.872 46.8368C131.797 46.8148 130.794 46.3764 130.05 45.6008L125.221 40.5788C123.898 39.204 122.268 38.1755 120.469 37.575C119.757 36.7669 119.02 35.9797 118.246 35.2287C116.092 33.1405 113.726 31.317 111.166 29.7463C113.811 28.9668 116.614 28.7372 119.366 29.1017C122.375 29.5012 125.252 30.5958 127.776 32.2884C127.669 32.7333 127.57 33.182 127.49 33.6373C127.121 35.7255 127.588 37.8318 128.803 39.5672C130.019 41.3051 131.838 42.4647 133.927 42.8317C134.965 43.0159 135.993 42.9848 136.965 42.7759C136.973 43.855 136.554 44.9302 135.74 45.7136ZM150.734 66.5629L148.017 51.1506C147.734 49.545 148.81 48.0093 150.414 47.7266C153.18 47.2389 155.593 45.7007 157.208 43.3946C158.821 41.0898 159.442 38.2961 158.953 35.5296C158.466 32.7644 156.929 30.352 154.623 28.7372C152.83 27.483 150.743 26.8294 148.603 26.8294C147.991 26.8294 147.374 26.8825 146.758 26.9915C142.414 27.7567 138.981 31.1886 138.216 35.5296C138.077 36.3182 137.635 36.9771 137.033 37.4116C137.016 37.4232 136.999 37.4349 136.984 37.4466C136.366 37.8733 135.588 38.0678 134.792 37.9278C134.013 37.7903 133.336 37.3584 132.884 36.7112C132.431 36.0653 132.257 35.2806 132.395 34.5037C133.591 27.7243 138.951 22.3651 145.732 21.1693C154.66 19.5973 163.202 25.5778 164.776 34.5037C166.025 41.5918 162.407 48.8044 155.978 52.0443C154.996 52.5384 154.455 53.6188 154.646 54.7005L156.556 65.5356C156.694 66.3138 156.519 67.0972 156.066 67.7444C155.614 68.3903 154.937 68.8222 154.158 68.9597C152.553 69.2425 151.017 68.1672 150.734 66.5629ZM114.46 46.8083C113.596 45.7383 112.028 45.571 110.958 46.4361C110.063 47.1585 108.902 47.4594 107.774 47.2597C106.646 47.0612 105.657 46.3816 105.064 45.3972C104.355 44.2182 102.825 43.8395 101.647 44.5489C100.468 45.2584 100.089 46.7888 100.797 47.9665C101.838 49.6928 103.417 50.9989 105.266 51.7058C104.919 52.0936 104.687 52.5903 104.638 53.148L104.341 56.5449C104.221 57.9158 105.234 59.1233 106.605 59.2426C106.679 59.2491 106.752 59.2517 106.824 59.2517C108.102 59.2517 109.189 58.2751 109.303 56.9781L109.6 53.5812C109.642 53.1052 109.544 52.65 109.345 52.2518C111.063 52.0806 112.715 51.4178 114.088 50.3102C115.158 49.4464 115.324 47.8783 114.46 46.8083ZM87.6043 67.8106L92.6405 66.0791C94.206 65.5408 95.4421 64.345 96.0322 62.799C96.6236 61.253 96.4978 59.5383 95.6911 58.0935C94.7028 56.327 93.1101 54.9794 91.2035 54.2972C87.5758 53.0015 83.6537 52.6591 79.8561 53.305C77.8613 53.6448 76.0572 54.6953 74.7783 56.2634C73.7317 57.5461 73.3114 59.2141 73.624 60.8392C73.9379 62.4644 74.9469 63.8547 76.3957 64.6576L81.0532 67.236C81.3035 67.3748 81.5616 67.4954 81.8223 67.6056L81.5357 70.8832C79.4553 71.1646 77.4929 72.0232 75.8471 73.4058C73.5501 75.3332 72.1402 78.04 71.8795 81.027C71.5281 85.0373 73.5643 86.9179 75.3334 87.7895C77.2089 88.713 79.5759 88.9192 82.0817 89.1371L82.7873 89.1981C84.083 89.3135 85.3398 89.4237 86.5304 89.4237C87.6432 89.4237 88.6977 89.3265 89.6678 89.045C91.5615 88.4938 93.8934 86.9945 94.2449 82.9841C94.2449 82.9828 94.2449 82.9828 94.2449 82.9828C94.5056 79.9959 93.5887 77.0867 91.6613 74.7897C90.28 73.1425 88.4954 71.9558 86.4967 71.3177L86.7846 68.0388C87.0596 67.9753 87.3345 67.9027 87.6043 67.8106ZM87.8456 77.992C88.9182 79.2695 89.4292 80.8882 89.2839 82.5497C89.1555 84.0075 88.7094 84.1372 88.2775 84.263C87.1659 84.5846 85.2529 84.416 83.2257 84.2383L82.5123 84.1748C80.4851 83.9997 78.5707 83.8324 77.5344 83.3227C77.1311 83.1242 76.7134 82.918 76.8406 81.4615C77.1246 78.2151 79.8574 75.7612 83.0583 75.7612C83.2399 75.7612 83.4228 75.7689 83.607 75.7845C85.2684 75.9298 86.7742 76.7132 87.8456 77.992ZM85.9857 63.0999C85.1543 63.3852 84.236 63.3061 83.4669 62.8794L78.8081 60.2997C78.6084 60.1894 78.5383 60.0195 78.515 59.8963C78.4916 59.7731 78.4929 59.5889 78.6369 59.4125C79.1544 58.777 79.8846 58.3516 80.6926 58.2141C81.6641 58.0494 82.6459 57.9664 83.6277 57.9664C85.6316 57.9664 87.6316 58.3101 89.5265 58.9871C90.2982 59.2634 90.9441 59.8094 91.3436 60.524C91.4551 60.7225 91.4253 60.9041 91.3799 61.0221C91.3345 61.1388 91.2359 61.2945 91.0206 61.3684L85.9857 63.0999Z" fill="black"/>
</g>
<defs>
<clipPath id="clip0_223_13269">
<rect width="170" height="170" fill="white"/>
</clipPath>
</defs>
</svg>
