<svg width="25" height="25" viewBox="0 0 25 25" fill="none" xmlns="http://www.w3.org/2000/svg">
<path d="M18.7498 23.9584H6.24984C5.97357 23.9584 5.70862 23.8486 5.51327 23.6533C5.31792 23.4579 5.20817 23.193 5.20817 22.9167C5.20817 22.6404 5.31792 22.3755 5.51327 22.1801C5.70862 21.9848 5.97357 21.875 6.24984 21.875H18.7498C19.0261 21.875 19.2911 21.9848 19.4864 22.1801C19.6818 22.3755 19.7915 22.6404 19.7915 22.9167C19.7915 23.193 19.6818 23.4579 19.4864 23.6533C19.2911 23.8486 19.0261 23.9584 18.7498 23.9584ZM23.9582 6.25002V14.5834C23.9582 15.2673 23.8235 15.9446 23.5617 16.5765C23.3 17.2084 22.9163 17.7826 22.4327 18.2662C21.949 18.7498 21.3749 19.1335 20.743 19.3952C20.1111 19.657 19.4338 19.7917 18.7498 19.7917H6.24984C5.56587 19.7917 4.8886 19.657 4.25669 19.3952C3.62479 19.1335 3.05063 18.7498 2.56699 18.2662C1.59024 17.2895 1.0415 15.9647 1.0415 14.5834V6.25002C1.0415 4.86868 1.59024 3.54392 2.56699 2.56717C3.54374 1.59042 4.8685 1.04169 6.24984 1.04169H18.7498C19.4338 1.04169 20.1111 1.1764 20.743 1.43815C21.3749 1.69989 21.949 2.08353 22.4327 2.56717C22.9163 3.05081 23.3 3.62497 23.5617 4.25688C23.8235 4.88878 23.9582 5.56605 23.9582 6.25002ZM5.20817 8.33335C5.20817 8.60962 5.31792 8.87457 5.51327 9.06992C5.70862 9.26527 5.97357 9.37502 6.24984 9.37502H12.4998C12.7761 9.37502 13.0411 9.26527 13.2364 9.06992C13.4318 8.87457 13.5415 8.60962 13.5415 8.33335C13.5415 8.05709 13.4318 7.79214 13.2364 7.59678C13.0411 7.40143 12.7761 7.29169 12.4998 7.29169H6.24984C5.97357 7.29169 5.70862 7.40143 5.51327 7.59678C5.31792 7.79214 5.20817 8.05709 5.20817 8.33335ZM19.7915 12.5C19.7915 12.2238 19.6818 11.9588 19.4864 11.7635C19.2911 11.5681 19.0261 11.4584 18.7498 11.4584H6.24984C5.97357 11.4584 5.70862 11.5681 5.51327 11.7635C5.31792 11.9588 5.20817 12.2238 5.20817 12.5C5.20817 12.7763 5.31792 13.0412 5.51327 13.2366C5.70862 13.4319 5.97357 13.5417 6.24984 13.5417H18.7498C19.0261 13.5417 19.2911 13.4319 19.4864 13.2366C19.6818 13.0412 19.7915 12.7763 19.7915 12.5Z" fill="#53A77D"/>
</svg>
