<svg width="375" height="152" viewBox="0 0 375 152" fill="none" xmlns="http://www.w3.org/2000/svg">
<path d="M271.188 138.398H257.456V138.502H271.188V138.398Z" fill="#EBEBEB"/>
<path d="M221.982 139.525H218.379V139.629H221.982V139.525Z" fill="#EBEBEB"/>
<path d="M257.041 134.553H249.085V134.657H257.041V134.553Z" fill="#EBEBEB"/>
<path d="M124.311 135.25H106.404V135.353H124.311V135.25Z" fill="#EBEBEB"/>
<path d="M130.629 135.25H128.005V135.353H130.629V135.25Z" fill="#EBEBEB"/>
<path d="M178.004 136.998H139.163V137.102H178.004V136.998Z" fill="#EBEBEB"/>
<path d="M291.96 131.732H84.6533V131.835H291.96V131.732Z" fill="#EBEBEB"/>
<path d="M113.971 56.7437H123.387V39.28H113.971V56.7437Z" fill="#EBEBEB"/>
<path d="M116.599 56.7437H126.015V39.28H116.599V56.7437Z" fill="#F5F5F5"/>
<path d="M127.246 35.4724H113.199V39.28H127.246V35.4724Z" fill="#F5F5F5"/>
<path d="M115.364 35.4724H113.199V39.28H115.364V35.4724Z" fill="#EBEBEB"/>
<path d="M105.5 113.096L169.351 113.096V65.7345H105.5V113.096Z" fill="#E6E6E6"/>
<path d="M136.887 29.6387L173.008 65.7345H100.766L136.887 29.6387Z" fill="#F5F5F5"/>
<path d="M100.766 69.9026L173.008 69.9026V65.7386L100.766 65.7386V69.9026Z" fill="#E0E0E0"/>
<path d="M144.835 73.8966H126.865V91.8534H144.835V73.8966Z" fill="#E0E0E0"/>
<path d="M145.494 73.8966H127.524V91.8534H145.494V73.8966Z" fill="#F0F0F0"/>
<path d="M144.586 74.6258H128.399V90.801H144.586V74.6258Z" fill="white"/>
<path d="M144.582 74.6258H144.014V90.801H144.582V74.6258Z" fill="#E0E0E0"/>
<path d="M128.35 83.2106V83.7782H144.076V83.2106H128.35Z" fill="#E0E0E0"/>
<path d="M144.582 82.2535H128.093V83.2106H144.582V82.2535Z" fill="#F0F0F0"/>
<path d="M202.636 101.42L202.665 101.648L203.328 107.1L203.365 107.407L204.025 112.839L204.045 113H213.809H222.197H230.987L230.991 112.963L231.646 107.407L231.683 107.08L232.322 101.648L232.363 101.316L233.002 95.8889L233.039 95.5574L233.549 91.2485L233.848 88.7004H201.085L201.392 91.2485L201.939 95.719L201.96 95.8889L202.636 101.42Z" fill="#F0F0F0"/>
<path d="M217.744 76.3536L199.207 88.7004H236.282L217.744 76.3536Z" fill="#E6E6E6"/>
<path d="M235.933 91.2485H199.555L199.207 88.7004H236.282L235.933 91.2485Z" fill="#E0E0E0"/>
<path d="M223.134 102.642C223.134 108.364 222.79 110.85 222.206 113H213.81C213.225 110.846 212.881 108.36 212.881 102.642C212.861 101.958 212.98 101.276 213.228 100.638C213.477 100 213.851 99.4185 214.329 98.9274C214.806 98.4364 215.378 98.0461 216.009 97.7795C216.64 97.513 217.318 97.3756 218.004 97.3756C218.689 97.3756 219.367 97.513 219.998 97.7795C220.629 98.0461 221.201 98.4364 221.678 98.9274C222.156 99.4185 222.53 100 222.779 100.638C223.027 101.276 223.146 101.958 223.126 102.642H223.134Z" fill="#E0E0E0"/>
<path d="M201.939 95.719V95.5574H233.04L233.002 95.8889H201.96L201.939 95.719Z" fill="#E0E0E0"/>
<path d="M202.636 101.42V101.316H213.055H222.952H232.364L232.322 101.648H223.026H212.98H202.665L202.636 101.42Z" fill="#E0E0E0"/>
<path d="M203.328 107.1V107.08H212.976H223.031H231.684L231.646 107.407H223.014H212.993H203.365L203.328 107.1Z" fill="#E0E0E0"/>
<path d="M230.991 112.839H204.021V113.17H230.991V112.839Z" fill="#E0E0E0"/>
<path d="M223.491 97.861L223.014 97.7119C219.623 96.6508 215.982 96.6973 212.62 97.8445L211.206 93.6805C215.45 92.2345 220.045 92.1765 224.324 93.5148L224.797 93.6639L223.491 97.861Z" fill="#E0E0E0"/>
<path d="M223.491 97.1774L223.014 97.0324C219.624 95.968 215.983 96.013 212.62 97.1608L211.206 92.9969C215.45 91.5502 220.046 91.4936 224.324 92.8353L224.797 92.9803L223.491 97.1774Z" fill="#FAFAFA"/>
<path d="M231.791 16.3845H240.701C241.016 16.3869 241.324 16.4789 241.589 16.6497C244.375 19.3635 247.638 17.8512 249.089 16.9314C249.641 16.5774 250.282 16.3877 250.938 16.3845H260.864C264.596 16.3845 265.487 11.1765 261.971 9.95008L261.834 9.9045C265.728 6.6645 257.186 -0.163535 247.916 9.29131C248.637 6.13831 240.395 7.2777 237.874 11.5825C236.978 8.74855 229.117 13.6583 231.791 16.3845Z" fill="#E6E6E6"/>
<path d="M107.101 26.6597H112.018L112.433 26.842C113.536 27.3351 114.736 27.5747 115.944 27.5432C117.153 27.5116 118.339 27.2097 119.415 26.6597H123.532C123.532 26.6597 127.388 25.2096 126.886 21.3688C126.384 17.528 120.571 20.7308 120.571 20.7308C120.571 20.7308 122.338 15.3694 116.703 16.89C115.114 17.2948 113.681 18.159 112.581 19.3743C111.481 20.5896 110.765 22.102 110.521 23.7222C110.521 23.7222 103.12 22.4336 107.101 26.6597Z" fill="#EBEBEB"/>
<path d="M188.306 150.215C232.704 150.215 268.696 148.115 268.696 145.525C268.696 142.934 232.704 140.835 188.306 140.835C143.909 140.835 107.917 142.934 107.917 145.525C107.917 148.115 143.909 150.215 188.306 150.215Z" fill="#F5F5F5"/>
<path d="M274.97 125.389H100.766V131.835H274.97V125.389Z" fill="#F7CEA5"/>
<g opacity="0.7">
<path d="M274.97 125.389H100.766V131.835H274.97V125.389Z" fill="white"/>
</g>
<path d="M110.161 125.389H109.746V132.146H110.161V125.389Z" fill="white"/>
<path d="M149.127 125.389H148.712V132.146H149.127V125.389Z" fill="white"/>
<path d="M188.091 125.389H187.677V132.146H188.091V125.389Z" fill="white"/>
<path d="M227.056 125.389H226.642V132.146H227.056V125.389Z" fill="white"/>
<path d="M266.022 125.389H265.607V132.146H266.022V125.389Z" fill="white"/>
<path d="M223.134 17.5985C215.671 9.72633 206.272 7.04566 199.393 9.98321C198.404 10.4074 197.311 10.5291 196.253 10.333C195.195 10.1368 194.219 9.63157 193.448 8.88111C185.118 0.847394 171.627 -0.105548 166.029 7.47656C165.403 8.3257 164.866 9.23639 164.425 10.1945C163.707 11.7707 162.557 13.1111 161.108 14.0601C160.122 14.7094 159.26 15.5287 158.562 16.4798C156.788 18.887 156.016 22.0317 156.153 25.4043C156.182 25.8884 156.065 26.3699 155.817 26.7871C155.57 27.2042 155.203 27.5379 154.764 27.7452C153.233 28.4365 151.908 29.5146 150.921 30.8734C146.389 37.0136 148.387 47.9517 155.39 55.3184C161.609 61.873 169.728 63.3728 174.624 59.2793C174.833 59.1079 175.094 59.0142 175.364 59.0142C175.634 59.0142 175.896 59.1079 176.104 59.2793C179.629 62.105 183.725 62.1257 185.856 59.0597C185.95 58.9238 186.071 58.8093 186.212 58.7238C186.353 58.6383 186.511 58.5837 186.675 58.5637C186.839 58.5437 187.005 58.5588 187.163 58.6079C187.32 58.657 187.466 58.7389 187.589 58.8484C191.221 62.0967 195.616 62.2749 197.851 59.0597C198.25 58.4758 198.557 57.8346 198.763 57.158C198.807 57.008 198.881 56.8685 198.981 56.7481C199.081 56.6278 199.204 56.5291 199.344 56.4581C199.483 56.3871 199.635 56.3453 199.791 56.3353C199.948 56.3252 200.104 56.3472 200.251 56.3998C202.631 57.2491 204.961 56.8804 206.549 55.2107C206.718 55.0332 206.941 54.9161 207.183 54.8772C207.425 54.8382 207.673 54.8797 207.889 54.9952C216.04 59.3415 224.627 58.5045 229.407 52.0287C235.8 43.361 232.985 27.9565 223.134 17.5985Z" fill="#A0D9BB"/>
<path opacity="0.5" d="M223.134 17.5985C215.671 9.72633 206.272 7.04566 199.393 9.98321C198.404 10.4074 197.311 10.5291 196.253 10.333C195.195 10.1368 194.219 9.63157 193.448 8.88111C185.118 0.847394 171.627 -0.105548 166.029 7.47656C165.403 8.3257 164.866 9.23639 164.425 10.1945C163.707 11.7707 162.557 13.1111 161.108 14.0601C160.122 14.7094 159.26 15.5287 158.562 16.4798C156.788 18.887 156.016 22.0317 156.153 25.4043C156.182 25.8884 156.065 26.3699 155.817 26.7871C155.57 27.2042 155.203 27.5379 154.764 27.7452C153.233 28.4365 151.908 29.5146 150.921 30.8734C146.389 37.0136 148.387 47.9517 155.39 55.3184C161.609 61.873 169.728 63.3728 174.624 59.2793C174.833 59.1079 175.094 59.0142 175.364 59.0142C175.634 59.0142 175.896 59.1079 176.104 59.2793C179.629 62.105 183.725 62.1257 185.856 59.0597C185.95 58.9238 186.071 58.8093 186.212 58.7238C186.353 58.6383 186.511 58.5837 186.675 58.5637C186.839 58.5437 187.005 58.5588 187.163 58.6079C187.32 58.657 187.466 58.7389 187.589 58.8484C191.221 62.0967 195.616 62.2749 197.851 59.0597C198.25 58.4758 198.557 57.8346 198.763 57.158C198.807 57.008 198.881 56.8685 198.981 56.7481C199.081 56.6278 199.204 56.5291 199.344 56.4581C199.483 56.3871 199.635 56.3453 199.791 56.3353C199.948 56.3252 200.104 56.3472 200.251 56.3998C202.631 57.2491 204.961 56.8804 206.549 55.2107C206.718 55.0332 206.941 54.9161 207.183 54.8772C207.425 54.8382 207.673 54.8797 207.889 54.9952C216.04 59.3415 224.627 58.5045 229.407 52.0287C235.8 43.361 232.985 27.9565 223.134 17.5985Z" fill="white"/>
<path d="M171.805 62.8549L178.472 69.0449C177.937 77.7747 177.501 97.8817 177.501 97.8817L175.13 111.94L196.026 112.13C196.026 112.13 195.077 100.26 195.077 99.6136C195.077 98.9673 191.039 76.2251 191.039 76.2251L189.612 63.4888L200.392 60.2032L202.362 54.527L210.281 50.0482L214.149 44.111L212.657 43.7463L208.382 49.232L203.407 50.3134L205.542 45.2628H203.149L197.212 56.9881L189.55 58.5335L190.549 42.0973C183.19 44.4051 182.477 40.1997 182.477 40.1997C182.477 40.1997 179.952 62.3204 179.06 64.8395L175.117 62.8549L170.851 56.1097H168.952L171.805 62.8549Z" fill="#A0D9BB"/>
<path opacity="0.7" d="M171.805 62.8549L178.472 69.0449C177.937 77.7747 177.501 97.8817 177.501 97.8817L175.13 111.94L196.026 112.13C196.026 112.13 195.077 100.26 195.077 99.6136C195.077 98.9673 191.039 76.2251 191.039 76.2251L189.612 63.4888L200.392 60.2032L202.362 54.527L210.281 50.0482L214.149 44.111L212.657 43.7463L208.382 49.232L203.407 50.3134L205.542 45.2628H203.149L197.212 56.9881L189.55 58.5335L190.549 42.0973C183.19 44.4051 182.477 40.1997 182.477 40.1997C182.477 40.1997 179.952 62.3204 179.06 64.8395L175.117 62.8549L170.851 56.1097H168.952L171.805 62.8549Z" fill="#DDAF89"/>
<path d="M175.088 104.602C174.706 104.068 174.482 103.74 174.482 103.74C174.482 103.74 179.425 103.67 182.795 104.954C186.166 106.239 192.037 111.604 195.926 110.311C197.56 109.79 199.148 109.139 200.678 108.364C201.512 107.917 202.38 107.535 203.273 107.221C204.077 106.963 204.895 106.751 205.724 106.587C205.724 106.587 207.216 107.212 203.825 111.182C200.433 115.151 197.191 117.011 193.144 116.46C190.955 116.162 185.109 114.285 181.821 111.998C180.407 111.016 178.504 109.068 177.186 107.482C177.426 107.436 178.015 107.751 178.711 107.287C178.267 107.299 177.825 107.219 177.414 107.051C177.003 106.882 176.631 106.63 176.323 106.309C176.506 106.386 176.707 106.409 176.902 106.374C177.097 106.34 177.277 106.25 177.422 106.114C176.95 106.037 176.498 105.863 176.096 105.602C175.695 105.342 175.351 105.002 175.088 104.602Z" fill="#F7CEA5"/>
<path opacity="0.1" d="M187.838 112.093L186.731 112.855C187.056 113.02 187.419 113.096 187.783 113.075C188.147 113.055 188.499 112.939 188.804 112.739L188.149 113.792L198.1 113.303C198.416 113.262 198.736 113.296 199.037 113.402C199.291 113.549 199.492 113.772 199.61 114.04C199.729 114.309 199.759 114.607 199.696 114.894L199.671 114.993C197.759 116.282 195.435 116.813 193.153 116.481C190.964 116.182 185.118 114.305 181.83 112.018C181.306 111.647 180.808 111.239 180.342 110.796C181.3 110.894 182.24 111.122 183.136 111.476C184.65 112.018 186.308 112.611 187.838 112.093Z" fill="black"/>
<path d="M197.391 117.301L195.604 127.274C195.53 127.691 195.318 128.072 195.003 128.355L194.588 128.745C193.96 129.309 193.568 130.088 193.489 130.928L192.357 142.89C192.312 143.365 192.427 143.842 192.685 144.244L193.85 146.059C193.895 146.128 193.956 146.183 194.029 146.221C194.102 146.259 194.183 146.277 194.265 146.275H198.05C198.137 146.274 198.221 146.249 198.295 146.203C198.369 146.157 198.428 146.092 198.467 146.014C198.506 145.937 198.523 145.85 198.516 145.764C198.509 145.678 198.478 145.595 198.427 145.525C197.679 144.459 196.723 143.556 195.616 142.869C193.597 141.734 204.767 124.523 204.767 124.523C204.767 124.523 201.184 110.85 197.391 117.301Z" fill="#F7CEA5"/>
<path opacity="0.1" d="M197.391 117.301L195.604 127.274C195.53 127.691 195.318 128.072 195.003 128.355L194.588 128.745C193.96 129.309 193.568 130.088 193.489 130.928L192.357 142.89C192.312 143.365 192.427 143.842 192.685 144.244L193.85 146.059C193.895 146.128 193.956 146.183 194.029 146.221C194.102 146.259 194.183 146.277 194.265 146.275H198.05C198.137 146.274 198.221 146.249 198.295 146.203C198.369 146.157 198.428 146.092 198.467 146.014C198.506 145.937 198.523 145.85 198.516 145.764C198.509 145.678 198.478 145.595 198.427 145.525C197.679 144.459 196.723 143.556 195.616 142.869C193.597 141.734 204.767 124.523 204.767 124.523C204.767 124.523 201.184 110.85 197.391 117.301Z" fill="black"/>
<path d="M247.633 117.429L250.03 123.603C250.193 124.027 250.302 124.469 250.353 124.92L250.83 129.151C250.969 130.392 251.409 131.581 252.111 132.614C253.458 134.599 256.021 139.853 256.809 141.481C256.965 141.803 257.191 142.087 257.472 142.31L259.13 143.644C259.383 143.845 259.593 144.096 259.746 144.381C259.899 144.666 259.993 144.979 260.022 145.301C260.08 145.902 260.092 146.544 259.885 146.544H257.787C257.433 146.544 257.084 146.467 256.763 146.319C256.442 146.17 256.158 145.952 255.93 145.682C254.885 144.439 253.027 142.326 252.571 142.194C252.032 142.036 246.319 135.622 243.81 132.846C243.229 132.2 242.907 131.362 242.907 130.493C242.907 130.258 242.852 130.026 242.746 129.817C242.64 129.607 242.486 129.425 242.297 129.285C242.107 129.146 241.888 129.053 241.656 129.014C241.424 128.974 241.187 128.99 240.962 129.06C239.304 129.565 235.916 129.988 234.9 130.104C234.9 130.104 242.144 122.231 241.949 117.119C241.754 112.006 247.48 114.065 247.617 115.379C247.699 116.059 247.704 116.747 247.633 117.429Z" fill="#F7CEA5"/>
<path opacity="0.1" d="M247.633 117.429L250.03 123.603C250.193 124.027 250.302 124.469 250.353 124.92L250.83 129.151C250.969 130.392 251.409 131.581 252.111 132.614C253.458 134.599 256.021 139.853 256.809 141.481C256.965 141.803 257.191 142.087 257.472 142.31L259.13 143.644C259.383 143.845 259.593 144.096 259.746 144.381C259.899 144.666 259.993 144.979 260.022 145.301C260.08 145.902 260.092 146.544 259.885 146.544H257.787C257.433 146.544 257.084 146.467 256.763 146.319C256.442 146.17 256.158 145.952 255.93 145.682C254.885 144.439 253.027 142.326 252.571 142.194C252.032 142.036 246.319 135.622 243.81 132.846C243.229 132.2 242.907 131.362 242.907 130.493C242.907 130.258 242.852 130.026 242.746 129.817C242.64 129.607 242.486 129.425 242.297 129.285C242.107 129.146 241.888 129.053 241.656 129.014C241.424 128.974 241.187 128.99 240.962 129.06C239.304 129.565 235.916 129.988 234.9 130.104C234.9 130.104 242.144 122.231 241.949 117.119C241.754 112.006 247.48 114.065 247.617 115.379C247.699 116.059 247.704 116.747 247.633 117.429Z" fill="black"/>
<path d="M202.818 107.403H202.868C203.664 107.15 204.638 106.893 205.77 106.641C213.486 104.863 227.828 103.094 234.631 103.28C234.967 103.28 235.282 103.305 235.577 103.326H235.606C236.105 103.353 236.602 103.409 237.094 103.496C237.397 103.543 237.692 103.63 237.973 103.753C238.08 103.797 238.178 103.86 238.263 103.939C241.58 107.163 246.779 109.346 247.435 114.944C247.447 115.025 247.455 115.106 247.459 115.188C247.501 115.631 247.514 116.077 247.497 116.522C247.497 116.601 247.497 116.684 247.497 116.767C247.497 116.945 247.476 117.131 247.455 117.318C247.457 117.351 247.457 117.384 247.455 117.417C247.227 119.613 246.398 122.252 244.744 125.505C244.599 125.791 244.445 126.081 244.284 126.379C243.676 127.395 242.757 128.19 241.663 128.645L241.468 128.736C240.969 128.957 240.455 129.144 239.93 129.296H239.909C238.473 129.691 237.001 129.938 235.514 130.033L235.154 130.058C234.784 130.081 234.413 130.081 234.043 130.058C233.031 129.979 231.994 129.797 231.066 129.946C230.985 129.958 230.904 129.975 230.825 129.996L230.709 130.021C230.319 130.119 229.957 130.303 229.648 130.559C229.582 130.608 229.521 130.662 229.465 130.721C229.243 130.943 229.052 131.194 228.897 131.467C228.631 131.934 228.461 132.45 228.396 132.983C228.354 133.277 228.308 133.58 228.263 133.895C227.674 137.851 226.94 143.196 230.166 144.137C231.41 144.501 231.149 145.753 231.252 146.096C231.816 147.973 227.521 147.476 227.521 147.476C226.468 147.116 225.215 146.627 224.233 146.917C223.818 147.033 223.283 146.357 223.346 145.935C224.03 141.033 222.852 136.36 222.458 129.681H222.247L214.427 129.275H214.108H213.963C213.88 129.503 212.284 135.428 213.673 138.784C214.755 141.394 217.193 143.072 219.971 143.598C221.061 143.805 221.024 144.841 221.343 146.001C221.687 147.215 219.49 146.801 218.229 146.759C218.229 146.759 211.056 144.505 208.784 140.661C208.059 139.418 209.585 138.129 208.996 136.824C207.752 134.044 205.604 131.023 203.867 128.513C203.591 128.115 203.3 127.725 202.996 127.344C201.922 125.973 200.733 124.676 199.7 123.292C199.626 123.661 199.538 124.025 199.501 124.311C199.087 123.676 198.862 122.936 198.85 122.178L198.021 123.789C197.776 122.091 197.532 120.4 197.283 118.706C197.262 118.573 197.246 118.445 197.233 118.316C197.222 118.178 197.222 118.04 197.233 117.902C197.145 117.337 197.106 116.766 197.117 116.195C197.13 115.223 197.278 114.259 197.557 113.328C198.115 111.377 199.246 109.638 200.803 108.335L202.818 107.403Z" fill="#F7CEA5"/>
<path opacity="0.1" d="M230.895 129.735C230.829 129.834 230.754 129.927 230.671 130.012C232.023 129.656 233.644 130.162 235.12 130.07C237.019 129.954 239.208 129.076 241.161 128.206C241.161 128.206 243.271 126.727 243.984 125.844C244.189 125.584 244.344 125.287 244.44 124.97C244.739 124.038 244.809 123.479 243.835 122.899C242.45 122.07 237.935 123.512 236.525 124.034C234.452 124.796 232.533 126.197 231.62 128.198C231.422 128.729 231.179 129.244 230.895 129.735Z" fill="black"/>
<path opacity="0.1" d="M229.428 130.713C229.484 130.654 229.545 130.599 229.611 130.551H229.473C229.447 130.601 229.432 130.657 229.428 130.713Z" fill="black"/>
<path opacity="0.1" d="M212.516 125.741C213.187 126.433 213.896 127.895 213.921 128.736C213.921 129.151 213.921 129.2 213.95 129.258L214.634 129.283L222.379 129.664C222.433 128.813 222.195 127.968 221.703 127.27L219.299 123.619C219.319 124.357 219.336 125.09 219.353 125.828C218.762 124.979 218.075 124.202 217.304 123.512C217.28 124.175 217.259 124.838 217.234 125.496L215.99 124.668C216.019 125.14 216.048 125.612 216.081 126.085C215.961 125.934 215.799 125.823 215.614 125.766C215.43 125.709 215.233 125.709 215.049 125.766C215.244 126.016 215.366 126.316 215.401 126.632C215.401 126.951 215.161 127.295 214.85 127.274C214.696 127.249 214.552 127.182 214.435 127.079C213.797 126.636 213.154 126.18 212.516 125.741Z" fill="black"/>
<path d="M239.871 95.8681C242.45 94.5796 245.439 94.4429 248.321 94.4636C249.644 94.4636 251.028 94.5257 252.181 95.1762C253.334 95.8267 254.151 97.2478 253.661 98.4908L257.061 98.5902C257.379 99.7522 257.331 100.984 256.925 102.118C256.518 103.252 255.773 104.233 254.789 104.929L255.705 105.124C256.323 105.381 256.356 106.317 255.942 106.848C255.527 107.378 254.855 107.614 254.246 107.888C253.016 108.452 251.91 109.252 250.991 110.244C250.072 111.236 249.358 112.399 248.889 113.667C248.474 114.852 247.542 118.034 246.422 118.619C245.004 119.356 243.934 116.489 242.749 115.428C240.763 113.667 238.835 111.791 237.475 109.516C234.742 104.925 234.477 98.5612 239.871 95.8681Z" fill="#F7CEA5"/>
<path opacity="0.2" d="M248.698 105.841C249.449 106.379 250.431 106.45 251.356 106.508L255.983 106.781C256.107 106.597 256.182 106.384 256.204 106.163C256.226 105.942 256.193 105.719 256.107 105.514C256.024 105.337 255.875 105.199 255.693 105.128L254.776 104.934C255.761 104.237 256.506 103.254 256.913 102.12C257.319 100.985 257.367 99.7528 257.049 98.5902L256.049 98.5612V100.098C255.635 104.283 251.596 104.308 248.172 103.442C247.571 104.13 247.944 105.306 248.698 105.841Z" fill="black"/>
<path opacity="0.1" d="M235.356 106.902C234.224 108.12 238.014 104.73 238.159 103.077C239.071 103.347 240.058 102.733 240.531 101.913C240.943 101.053 241.158 100.112 241.161 99.1579C241.161 99.1579 240.655 101.544 239.233 101.544H237.811C237.811 101.544 236.31 105.878 235.356 106.902Z" fill="black"/>
<path d="M248.081 98.698C248.081 98.9507 248.454 99.1579 248.91 99.1579C249.366 99.1579 249.74 98.9507 249.74 98.698C249.74 98.4452 249.366 98.2381 248.91 98.2381C248.454 98.2381 248.081 98.4452 248.081 98.698Z" fill="#263238"/>
<path opacity="0.1" d="M248.01 113.303C247.869 112.474 247.392 111.646 246.601 111.397C246.71 111.441 246.827 111.461 246.945 111.456C247.062 111.451 247.178 111.421 247.283 111.368C247.388 111.315 247.48 111.24 247.554 111.148C247.628 111.057 247.682 110.95 247.712 110.837C247.741 110.723 247.746 110.604 247.726 110.488C247.707 110.372 247.662 110.262 247.596 110.164C247.53 110.067 247.445 109.984 247.344 109.922C247.244 109.861 247.132 109.821 247.015 109.806C247.674 109.686 248.027 108.7 247.67 108.066C247.276 107.357 246.426 107.059 245.639 106.868H245.672C248.153 107.126 250.611 107.567 253.027 108.186L253.467 108.29C251.358 109.491 249.743 111.399 248.906 113.676C248.707 114.214 248.408 115.171 248.039 116.108C248.039 116 248.039 115.896 248.039 115.789C248.105 114.961 248.095 114.129 248.01 113.303Z" fill="black"/>
<path d="M255.324 98.5405L257.061 98.5944C257.277 99.3382 257.332 100.119 257.223 100.886C256.726 100.7 256.287 100.385 255.953 99.9723C255.619 99.5598 255.402 99.0654 255.324 98.5405Z" fill="#263238"/>
<path d="M252.198 105.795C252.725 105.816 253.322 105.816 254.002 105.795H254.043H254.259H254.503C255.088 105.762 255.569 106.081 256.162 106.413C256.456 106.617 256.775 106.783 257.111 106.906C257.28 106.964 257.462 106.971 257.635 106.924C257.807 106.878 257.961 106.78 258.077 106.645C258.162 106.492 258.197 106.317 258.176 106.143C258.155 105.97 258.08 105.807 257.961 105.679C257.714 105.432 257.4 105.262 257.058 105.19C256.381 105.017 255.68 104.96 254.984 105.021C254.907 105.024 254.829 105.032 254.752 105.045C253.778 105.124 252.878 105.596 252.198 105.795Z" fill="#D16283"/>
<path d="M252.198 105.795C252.798 105.846 253.402 105.846 254.002 105.795C253.322 105.816 252.725 105.816 252.198 105.795Z" fill="#E8483F"/>
<path d="M249.433 105.24C250.308 105.609 251.248 105.798 252.198 105.795C252.932 105.58 253.927 105.041 254.976 104.967L254.79 104.925C252.853 105.288 250.85 104.997 249.097 104.097C249.097 104.097 248.011 104.507 249.433 105.24Z" fill="#263238"/>
<path d="M247.694 124.423C247.709 124.111 247.659 123.798 247.549 123.506C247.438 123.213 247.269 122.946 247.052 122.72C247.149 124.171 246.843 125.621 246.169 126.909L246.218 125.368C245.689 126.248 244.927 126.964 244.017 127.44C244.238 127.277 244.424 127.071 244.563 126.835C244.702 126.598 244.791 126.336 244.825 126.064C244.319 126.901 243.717 127.675 243.03 128.372C242.337 129.072 241.417 129.502 240.435 129.586C241.873 128.568 243.094 127.275 244.026 125.781C244.959 124.287 245.584 122.623 245.866 120.885C245.948 120.044 246.103 119.212 246.33 118.399C246.571 117.695 247.16 116.427 247.529 117.645C248.151 119.625 247.84 122.397 247.694 124.423Z" fill="#F7CEA5"/>
<path d="M230.895 131.193L230.182 130.51C230.267 131.294 230.08 132.084 229.651 132.747C229.651 132.42 229.651 132.092 229.618 131.765C229.231 132.79 228.566 133.686 227.698 134.355C227.889 133.29 228.113 132.229 228.42 131.181C228.619 130.464 229.216 128.542 230.285 128.695C231.355 128.848 230.356 130.68 230.895 131.193Z" fill="#F7CEA5"/>
<path d="M235.572 103.206C235.642 103.687 235.627 104.176 235.527 104.652C235.515 104.709 235.491 104.763 235.456 104.809C235.373 106.346 235.97 107.962 237.247 109.624C240.228 113.502 245.954 116.332 247.7 116.543C247.783 116.574 247.854 116.631 247.903 116.706C247.951 116.78 247.974 116.868 247.968 116.957C247.963 117.046 247.929 117.13 247.872 117.198C247.814 117.266 247.736 117.314 247.65 117.334H247.604C245.531 117.09 239.66 114.078 236.613 110.108C235.083 108.116 234.44 106.143 234.71 104.25C234.756 103.919 234.722 103.582 234.61 103.268L235.572 103.206Z" fill="#263238"/>
<path d="M236.173 110.108C236.442 109.748 237.002 109.375 236.844 108.944C237.143 109.864 237.23 110.572 237.952 111.219L237.852 110.179C238.27 111.26 238.977 112.206 239.896 112.913C239.877 112.566 239.729 112.238 239.481 111.994C240.269 112.532 241.17 112.881 242.114 113.013C240.92 110.85 238.607 107.979 236.14 107.283C236.148 107.888 236.55 109.607 236.173 110.108Z" fill="#F7CEA5"/>
<path d="M242.703 114.96C242.914 114.546 243.395 114.111 243.192 113.717C243.607 114.579 243.818 115.267 244.627 115.789L244.374 114.778C244.95 115.784 245.792 116.613 246.808 117.173C246.738 116.833 246.546 116.531 246.269 116.323C247.128 116.737 248.072 116.945 249.026 116.932C247.517 114.977 244.793 112.487 242.251 112.172C242.342 112.764 242.997 114.409 242.703 114.96Z" fill="#F7CEA5"/>
<path d="M145.211 61.3468C148.731 63.4764 163.782 66.0866 164.698 66.0245C165.049 66.0239 165.394 65.9332 165.699 65.7613C166.005 65.5894 166.261 65.3419 166.444 65.0425C166.599 64.7635 166.692 64.454 166.716 64.1355C166.741 63.817 166.695 63.497 166.584 63.1976C166.472 62.8983 166.297 62.6267 166.07 62.4016C165.844 62.1764 165.571 62.0032 165.27 61.8937C161.385 60.4104 154.515 57.5516 151.588 55.9192C149.291 54.643 152.691 38.2442 148.375 36.8313C141.368 34.5443 141.04 58.8277 145.211 61.3468Z" fill="#C0E4F9"/>
<g opacity="0.1">
<path d="M145.211 61.3468C148.731 63.4764 163.782 66.0866 164.698 66.0245C165.049 66.0239 165.394 65.9332 165.699 65.7613C166.005 65.5894 166.261 65.3419 166.444 65.0425C166.599 64.7635 166.692 64.454 166.716 64.1355C166.741 63.817 166.695 63.497 166.584 63.1976C166.472 62.8983 166.297 62.6267 166.07 62.4016C165.844 62.1764 165.571 62.0032 165.27 61.8937C161.385 60.4104 154.515 57.5516 151.588 55.9192C149.291 54.643 152.691 38.2442 148.375 36.8313C141.368 34.5443 141.04 58.8277 145.211 61.3468Z" fill="black"/>
</g>
<path d="M164.159 66.1405L168.01 68.1334C168.01 68.1334 170.374 64.6738 170.448 64.2678C170.448 64.2678 168.62 62.7679 166.634 62.7555L165.348 62.8549C165.175 62.8677 165.005 62.9163 164.851 62.9976C164.697 63.0789 164.562 63.1911 164.453 63.3272L163.748 64.2056C163.629 64.3531 163.545 64.5252 163.501 64.7094C163.457 64.8935 163.454 65.0852 163.494 65.2704C163.533 65.4557 163.613 65.6299 163.728 65.7803C163.843 65.9308 163.99 66.0539 164.159 66.1405Z" fill="#FFB373"/>
<path d="M167.21 67.7605L170.286 64.2015L172.094 65.2746C172.173 65.3222 172.241 65.3861 172.293 65.462C172.345 65.5379 172.38 65.624 172.396 65.7146C172.412 65.8052 172.409 65.8982 172.386 65.9874C172.363 66.0765 172.322 66.1598 172.264 66.2316L170.664 68.2245C170.495 68.43 170.266 68.5762 170.008 68.6418C169.751 68.7074 169.479 68.689 169.233 68.5891L167.21 67.7605Z" fill="#FFB373"/>
<path d="M147.487 36.6863C149.27 37.5149 150.041 49.6712 148.926 62.8342C148.706 65.4279 134.12 65.7345 131.491 63.3728L126.255 42.2424C126.085 41.5584 126.061 40.8465 126.183 40.1525C126.305 39.4585 126.571 38.7977 126.964 38.2125C127.357 37.6273 127.867 37.1306 128.464 36.7543C129.06 36.3781 129.728 36.1305 130.426 36.0275C131.611 35.8577 137.449 31.992 147.487 36.6863Z" fill="#C0E4F9"/>
<path d="M148.918 62.8301C149.332 65.171 149.793 70.1139 150.779 72.26L150.866 72.4548C151.305 73.4389 151.442 74.5306 151.26 75.5925C151.079 76.6543 150.587 77.6386 149.846 78.4215C149.106 79.2044 148.15 79.7507 147.099 79.9917C146.049 80.2328 144.95 80.1576 143.942 79.7759L140.999 78.6572C140.999 78.6572 139.705 78.7276 129.7 75.7569C129.493 75.6948 128.871 74.8247 128.938 72.3222C129.003 70.3635 129.424 68.4331 130.181 66.6253L131.508 63.3728C137.311 63.9337 143.161 63.7513 148.918 62.8301Z" fill="#263238"/>
<path d="M162.696 133.248L162.6 145.417C162.215 145.616 158.019 147.157 157.957 145.989C157.766 142.426 157.389 134.939 157.389 134.939L162.696 133.248Z" fill="#FFB373"/>
<path d="M163.715 142.384C163.691 142.38 163.668 142.369 163.649 142.352C163.631 142.335 163.618 142.313 163.612 142.289C163.607 142.264 163.609 142.239 163.619 142.216C163.629 142.193 163.645 142.174 163.666 142.16C163.736 142.111 165.436 140.955 166.303 141.12C166.385 141.131 166.465 141.159 166.536 141.202C166.607 141.244 166.669 141.301 166.717 141.369C166.78 141.44 166.818 141.53 166.827 141.624C166.836 141.719 166.815 141.813 166.767 141.895C166.597 142.206 165.971 142.347 165.312 142.392C164.781 142.44 164.246 142.437 163.715 142.384ZM166.037 141.34C165.347 141.49 164.693 141.771 164.109 142.169C165.063 142.227 166.357 142.115 166.568 141.754C166.593 141.709 166.618 141.634 166.518 141.489C166.49 141.448 166.454 141.414 166.412 141.388C166.37 141.363 166.323 141.346 166.274 141.34C166.194 141.33 166.113 141.33 166.033 141.34H166.037Z" fill="#F7CEA5"/>
<path d="M163.649 142.339C163.632 142.325 163.619 142.307 163.613 142.286C163.606 142.265 163.606 142.243 163.611 142.223C163.611 142.165 163.64 140.785 164.25 140.197C164.339 140.116 164.443 140.055 164.556 140.016C164.67 139.977 164.79 139.961 164.909 139.969C165.013 139.956 165.118 139.98 165.206 140.037C165.294 140.094 165.359 140.18 165.39 140.279C165.535 140.843 164.399 142.04 163.806 142.351H163.756L163.649 142.339ZM164.42 140.387C164.072 140.858 163.881 141.426 163.873 142.011C164.47 141.597 165.261 140.636 165.15 140.313C165.15 140.284 165.121 140.201 164.905 140.192L164.83 140.217C164.678 140.221 164.532 140.28 164.42 140.383V140.387Z" fill="#F7CEA5"/>
<path d="M162.857 141.51L157.882 141.643C157.779 141.642 157.68 141.679 157.603 141.747C157.527 141.815 157.478 141.909 157.467 142.011L156.605 146.134C156.547 146.548 157.351 147.008 157.396 147.004C160.431 147.219 166.933 147.178 169.093 147.078C171.253 146.979 171.419 144.841 170.531 144.692C166.551 144.012 165.009 142.894 163.703 141.821C163.47 141.615 163.168 141.504 162.857 141.51Z" fill="#263238"/>
<g opacity="0.2">
<path d="M157.579 138.639L157.389 134.939L162.692 133.248L162.596 138.228L157.579 138.639Z" fill="black"/>
</g>
<path d="M120.459 131.632L113.701 141.759C113.286 141.713 108.916 140.702 109.505 139.687C111.3 136.6 115.094 130.133 115.094 130.133L120.459 131.632Z" fill="#FFB373"/>
<path d="M116.295 139.853C116.277 139.836 116.264 139.813 116.259 139.789C116.253 139.765 116.254 139.739 116.262 139.716C116.271 139.693 116.287 139.673 116.308 139.659C116.329 139.645 116.353 139.637 116.378 139.637C116.465 139.637 118.518 139.6 119.152 140.217C119.213 140.268 119.263 140.332 119.299 140.403C119.335 140.474 119.355 140.552 119.359 140.632C119.372 140.726 119.355 140.822 119.31 140.906C119.266 140.989 119.196 141.057 119.111 141.1C118.8 141.265 118.199 141.038 117.626 140.719C117.156 140.472 116.711 140.183 116.295 139.853ZM118.812 140.267C118.152 140.008 117.448 139.882 116.739 139.894C117.506 140.466 118.646 141.083 119.015 140.909C119.065 140.88 119.123 140.83 119.123 140.656C119.121 140.607 119.109 140.558 119.087 140.513C119.066 140.469 119.036 140.428 118.999 140.395C118.937 140.345 118.872 140.3 118.804 140.259L118.812 140.267Z" fill="#F7CEA5"/>
<path d="M116.271 139.753C116.264 139.733 116.263 139.711 116.268 139.691C116.273 139.67 116.284 139.652 116.3 139.637C116.337 139.587 117.129 138.448 117.958 138.291C118.198 138.257 118.441 138.319 118.634 138.465C118.728 138.511 118.802 138.589 118.845 138.684C118.887 138.779 118.895 138.886 118.866 138.987C118.676 139.538 117.071 139.919 116.379 139.865H116.329L116.271 139.753ZM117.983 138.548C117.435 138.751 116.964 139.12 116.636 139.604C117.374 139.571 118.551 139.215 118.634 138.883C118.634 138.85 118.672 138.771 118.497 138.647H118.423C118.295 138.559 118.137 138.523 117.983 138.548Z" fill="#F7CEA5"/>
<path d="M116.064 138.61L111.851 136.02C111.766 135.962 111.662 135.939 111.56 135.953C111.458 135.968 111.366 136.02 111.3 136.099L108.315 139.074C108.037 139.393 108.46 140.213 108.497 140.238C110.918 142.078 116.375 145.624 118.236 146.71C120.098 147.795 121.412 146.113 120.753 145.5C117.797 142.753 117.121 140.971 116.607 139.36C116.526 139.05 116.332 138.783 116.064 138.61Z" fill="#263238"/>
<g opacity="0.2">
<path d="M113.22 133.339L115.094 130.137L120.459 131.632L117.644 135.743L113.22 133.339Z" fill="black"/>
</g>
<path d="M139.158 80.8199C140.447 85.8995 150.444 98.7063 153.756 107.295C156.306 113.924 156.008 127.568 155.933 135.204C155.923 135.554 155.992 135.903 156.136 136.223C156.279 136.543 156.494 136.826 156.762 137.052C156.762 137.052 161.149 136.886 162.501 136.662C166.817 135.95 165.619 114.02 165.279 108.667C164.702 99.5763 158.997 84.7146 150.332 70.9632C148.881 68.6596 146.335 70.0848 142.956 71.0171C142.342 71.1911 137.91 75.8895 139.158 80.8199Z" fill="#263238"/>
<path opacity="0.2" d="M141.869 74.5678C140.999 73.648 141.007 85.1206 141.007 85.1206L145.821 93.4485C145.821 93.4485 148.528 81.6196 141.869 74.5678Z" fill="black"/>
<path d="M129.555 74.8951C120.256 124.643 111.532 128.281 113.41 131.566C113.41 131.566 117.366 133.513 118.423 134.388C120.911 136.459 132.644 117.4 134.224 112.263C137.748 100.794 142.263 88.0623 142.96 75.1893C143.109 72.4713 141.446 69.8611 138.113 68.788C137.504 68.5891 130.492 69.8984 129.555 74.8951Z" fill="#263238"/>
<path opacity="0.1" d="M134.257 56.3873C134.004 56.8017 132.479 55.7617 132.184 55.3681C131.289 54.0878 130.986 51.7718 130.712 50.2637C130.382 48.4478 130.243 46.6022 130.298 44.7573C130.327 43.9867 130.202 40.2246 131.397 41.6043C132.392 42.7188 134.506 55.9772 134.257 56.3873Z" fill="black"/>
<path d="M144.133 69.3556C143.668 69.5048 143.142 69.2438 142.727 68.6596C142.294 68.0448 142.016 67.3338 141.919 66.588L140.741 68.4151C140.522 68.7549 140.24 69.1029 139.813 69.0905C139.713 69.0878 139.614 69.0639 139.524 69.0203C139.434 68.9768 139.354 68.9145 139.29 68.8377C139.181 68.6959 139.102 68.5339 139.056 68.361C139.011 68.1881 139 68.008 139.025 67.8309C139.121 67.1697 139.476 66.5737 140.012 66.1736C140.535 65.7588 141.2 65.5654 141.865 65.635L141.799 65.4652L142.172 65.3243L142.209 65.4196L142.284 65.2953V65.4693C142.584 65.3874 142.901 65.3864 143.201 65.4664C143.502 65.5465 143.776 65.7047 143.996 65.9251C144.454 66.4268 144.736 67.0637 144.8 67.7398C144.892 68.353 144.775 69.1485 144.145 69.3598L144.133 69.3556ZM142.284 65.8919V65.9748C142.279 66.8545 142.55 67.7136 143.059 68.4317C143.295 68.7673 143.656 69.0905 144.021 68.9745C144.435 68.8336 144.469 68.1458 144.411 67.7895C144.359 67.1993 144.116 66.642 143.718 66.2026C143.568 66.0474 143.384 65.9292 143.18 65.8573C142.977 65.7854 142.759 65.7618 142.545 65.7883L142.288 65.8753L142.284 65.8919ZM140.965 66.1073C140.71 66.1882 140.471 66.3145 140.26 66.4802C139.81 66.8193 139.512 67.3227 139.431 67.8806C139.398 68.1264 139.461 68.3753 139.605 68.5767C139.633 68.6121 139.668 68.6408 139.708 68.6609C139.748 68.6809 139.793 68.6918 139.837 68.6927C140.065 68.6927 140.252 68.4483 140.418 68.1997L141.803 66.0576L141.728 66.0825L141.703 66.0121C141.452 65.9938 141.2 66.0247 140.961 66.1032L140.965 66.1073Z" fill="#F7CEA5"/>
<path d="M139.1 75.2183L138.743 75.036C140.178 72.24 140.874 69.1235 140.762 65.983H141.177C141.283 69.1881 140.568 72.3671 139.1 75.2183Z" fill="#F7CEA5"/>
<path d="M146.953 74.4849L146.563 74.5678C145.857 71.2276 143.936 68.2677 141.173 66.2606L141.409 65.9375C144.251 68.0035 146.226 71.0488 146.953 74.4849Z" fill="#F7CEA5"/>
<path d="M136.305 30.5958L135.998 30.3472C135.094 29.2036 134.754 27.9027 134.361 25.8766C134.257 25.3587 134.157 24.7911 134.041 24.1655C133.878 23.3414 133.906 22.4908 134.124 21.6795C134.239 21.2472 134.405 20.8299 134.618 20.4366C135.103 22.2389 135.173 24.1116 135.339 25.9595C135.43 27.5441 135.756 29.1065 136.305 30.5958Z" fill="#263238"/>
<path d="M144.258 38.8491C139.697 45.1882 134.013 36.0441 130.576 36.1104C130.035 36.234 129.516 36.4393 129.037 36.7194C128.893 36.6992 128.748 36.6882 128.602 36.6863C128.009 36.674 127.431 36.8738 126.973 37.2498C126.637 36.8769 128.109 34.8094 128.192 34.3122C128.689 31.2794 131.869 28.955 134.912 29.3984C134.912 29.3984 139.788 30.3803 141.268 31.9506C142.222 32.9574 143.677 34.478 144.279 36.0938C144.466 36.5295 144.561 36.9993 144.558 37.4736C144.554 37.9479 144.452 38.4162 144.258 38.8491Z" fill="#263238"/>
<path d="M136.708 28.4206C136.936 30.4922 137.093 33.3924 135.97 35.0497C135.774 35.3258 135.664 35.6539 135.654 35.9924C135.644 36.331 135.736 36.6647 135.916 36.9515C136.418 37.7014 137.4 38.7413 139.345 39.9512C139.698 40.1732 140.103 40.301 140.52 40.3223C140.937 40.3435 141.352 40.2576 141.727 40.0726C142.101 39.8877 142.422 39.6099 142.658 39.2659C142.894 38.9218 143.038 38.523 143.076 38.1074C143.108 37.6612 143.002 37.216 142.772 36.8322C142.542 36.4483 142.199 36.1443 141.791 35.9612C140.112 35.174 140.294 34.1672 140.812 32.6011L136.708 28.4206Z" fill="#FFB373"/>
<path opacity="0.2" d="M138.37 30.111L140.767 32.5969C140.622 33.0106 140.513 33.4362 140.443 33.8689C139.473 33.641 138.001 32.6674 137.877 31.5611C137.92 31.0446 138.089 30.5466 138.37 30.111Z" fill="black"/>
<path d="M145.518 28.3998C145.414 29.5988 144.866 30.716 143.982 31.5334C143.099 32.3508 141.942 32.8097 140.737 32.8207H140.708C139.773 32.8272 138.853 32.5855 138.042 32.1205C137.74 31.9541 137.453 31.7614 137.184 31.5446C137.072 31.4575 136.964 31.3664 136.865 31.2794C136.548 31.003 136.258 30.6978 135.998 30.3679C135.094 29.2243 134.754 27.9234 134.361 25.8973C134.257 25.3794 134.157 24.8118 134.041 24.1862C133.878 23.3622 133.906 22.5116 134.124 21.7003C134.239 21.2679 134.405 20.8507 134.618 20.4573C134.71 20.2841 134.816 20.118 134.933 19.9601C135.557 19.0611 136.445 18.3785 137.475 18.0073C138.505 17.636 139.625 17.5945 140.679 17.8885C142.491 18.3691 143.739 19.8399 144.523 21.6422C144.606 21.8204 144.676 22.0069 144.742 22.1892C145.455 24.1772 145.72 26.2978 145.518 28.3998Z" fill="#FFB373"/>
<path d="M140.335 24.4058C140.381 24.7248 140.58 24.9651 140.783 24.9402C140.986 24.9154 141.127 24.6295 141.09 24.3105C141.053 23.9914 140.845 23.747 140.642 23.7719C140.439 23.7967 140.315 24.095 140.335 24.4058Z" fill="#263238"/>
<path d="M143.902 23.9583C143.947 24.2815 144.146 24.5176 144.349 24.4928C144.552 24.4679 144.693 24.182 144.656 23.863C144.619 23.544 144.411 23.2995 144.208 23.3327C144.005 23.3658 143.864 23.6351 143.902 23.9583Z" fill="#263238"/>
<path d="M142.873 24.6709C143.246 25.3672 143.712 26.0097 144.258 26.581C144.111 26.7174 143.937 26.82 143.746 26.8816C143.555 26.9432 143.354 26.9622 143.155 26.9373L142.873 24.6709Z" fill="#E8483F"/>
<path d="M141.591 28.4247C141.748 28.4289 141.905 28.4206 142.06 28.3999C142.085 28.3967 142.107 28.3842 142.122 28.3648C142.138 28.3455 142.145 28.3209 142.143 28.2963C142.138 28.2721 142.124 28.2507 142.104 28.2362C142.084 28.2216 142.06 28.215 142.035 28.2175C141.642 28.2758 141.241 28.2393 140.865 28.111C140.49 27.9827 140.15 27.7664 139.875 27.4801C139.867 27.4711 139.857 27.464 139.846 27.4591C139.835 27.4543 139.823 27.4518 139.811 27.4518C139.799 27.4518 139.787 27.4543 139.776 27.4591C139.764 27.464 139.755 27.4711 139.746 27.4801C139.737 27.4886 139.73 27.4989 139.725 27.5102C139.72 27.5216 139.718 27.5339 139.718 27.5463C139.718 27.5588 139.72 27.571 139.725 27.5824C139.73 27.5938 139.737 27.6041 139.746 27.6126C139.984 27.8647 140.269 28.0665 140.586 28.206C140.903 28.3455 141.245 28.4199 141.591 28.4247Z" fill="#263238"/>
<path d="M138.814 23.8423C138.854 23.8459 138.894 23.8354 138.927 23.8127C138.961 23.7901 138.985 23.7566 138.996 23.718C139.134 23.4442 139.326 23.2017 139.561 23.0056C139.797 22.8096 140.07 22.6642 140.364 22.5786C140.414 22.565 140.456 22.5327 140.481 22.4885C140.507 22.4443 140.514 22.3919 140.501 22.3425C140.489 22.2956 140.458 22.2555 140.416 22.2307C140.374 22.206 140.325 22.1985 140.277 22.2099C139.923 22.3087 139.594 22.4833 139.313 22.7215C139.033 22.9597 138.807 23.2558 138.652 23.5896C138.636 23.6363 138.639 23.6875 138.659 23.7324C138.68 23.7772 138.718 23.8122 138.764 23.8299C138.779 23.8385 138.796 23.8428 138.814 23.8423Z" fill="#263238"/>
<path d="M144.771 22.1436C144.813 22.1451 144.855 22.1327 144.889 22.1083C144.923 22.084 144.948 22.049 144.961 22.0089C144.973 21.9687 144.972 21.9256 144.957 21.8863C144.942 21.847 144.915 21.8136 144.879 21.7914C144.633 21.6187 144.347 21.5107 144.047 21.4774C143.748 21.4441 143.445 21.4866 143.167 21.6008C143.123 21.6208 143.089 21.657 143.071 21.7018C143.053 21.7466 143.053 21.7965 143.072 21.8411C143.081 21.8637 143.095 21.8842 143.112 21.9012C143.13 21.9182 143.151 21.9314 143.174 21.9399C143.197 21.9485 143.221 21.9522 143.246 21.9509C143.27 21.9496 143.294 21.9432 143.316 21.9323C143.536 21.8504 143.773 21.8231 144.007 21.8527C144.24 21.8822 144.462 21.9678 144.655 22.1022C144.687 22.13 144.729 22.1448 144.771 22.1436Z" fill="#263238"/>
<path d="M136.305 26.958C136.135 27.1776 135.604 26.0051 135.331 25.9512C135.01 25.8824 134.681 25.8545 134.352 25.8683C134.738 27.8944 135.086 29.1829 135.99 30.3389C134.481 29.0628 133.15 27.4966 132.545 25.6032C132.248 24.5396 132.24 23.4162 132.522 22.3487C132.804 21.2811 133.366 20.3079 134.149 19.5292C134.274 19.4173 134.473 19.4671 134.626 19.5292C134.779 19.5913 135.58 19.7654 135.911 19.8275C136.157 19.8869 136.386 20.0034 136.578 20.1676C136.77 20.3317 136.921 20.5388 137.018 20.7722C135.65 23.3285 136.823 26.2785 136.305 26.958Z" fill="#263238"/>
<path d="M133.349 27.3309C133.677 28.0033 134.256 28.5197 134.962 28.7686C135.899 29.0752 136.413 28.2341 136.206 27.3019C135.999 26.4733 135.265 25.3007 134.307 25.3794C133.97 25.4199 133.663 25.5922 133.453 25.8587C133.243 26.1251 133.148 26.4638 133.188 26.8006C133.204 26.9867 133.259 27.1673 133.349 27.3309Z" fill="#FFB373"/>
<path d="M140.808 21.0291L138.847 20.42C140.331 20.4946 141.866 20.5816 143.192 21.2486C144.519 21.9157 145.572 23.3534 145.332 24.816C145.974 23.4528 146.629 22.0193 146.576 20.5111C146.523 19.7001 146.294 18.9104 145.904 18.1975C145.513 17.4845 144.971 16.8657 144.316 16.3845C142.987 15.4281 141.393 14.9109 139.755 14.9054C138.33 14.8051 136.916 15.2084 135.758 16.0448C134.701 16.8734 133.623 19.1107 134.813 20.2708C136.003 21.4309 139.266 21.2279 140.808 21.0291Z" fill="#263238"/>
<path d="M234.622 103.264C234.451 102.784 234.122 102.376 233.689 102.108C233.573 102.058 233.474 102.013 233.399 101.971L229.307 99.5059L228.523 99.0377C213.087 89.877 176.149 68.0381 171.116 65.8049C167.384 64.1476 161.92 64.4832 157.989 65.0425C157.336 65.128 156.722 65.4061 156.227 65.8416C155.733 66.277 155.379 66.8498 155.211 67.487C155.034 68.1032 155.042 68.7581 155.236 69.3694C155.43 69.9806 155.801 70.5207 156.302 70.9218L156.385 70.9881C156.464 71.0558 156.515 71.151 156.528 71.2547C156.54 71.3584 156.513 71.463 156.451 71.5474C156.383 71.6269 156.288 71.6779 156.184 71.6902C156.08 71.7025 155.976 71.6752 155.891 71.6137L155.8 71.5391C155.179 71.04 154.719 70.3688 154.478 69.6097C154.237 68.8506 154.225 68.0373 154.444 67.2716C154.655 66.4864 155.093 65.781 155.704 65.2442C156.315 64.7075 157.071 64.3634 157.877 64.2553C161.911 63.6794 167.538 63.3562 171.435 65.084C176.514 67.3254 213.485 89.1934 228.934 98.3624L233.801 101.263C233.869 101.301 233.94 101.335 234.013 101.362L234.058 101.383C234.45 101.519 234.797 101.759 235.064 102.076C235.332 102.393 235.508 102.776 235.576 103.185L234.622 103.264Z" fill="#263238"/>
<path d="M234.058 101.399L234.013 101.379C233.94 101.351 233.869 101.318 233.801 101.279L228.934 98.3789C231.127 99.6633 232.889 100.703 234.058 101.399Z" fill="#263238"/>
<path d="M150.307 64.2388L155.809 66.3808C155.809 66.3808 157.79 62.6933 157.824 62.2832C157.824 62.2832 155.846 60.9822 153.868 61.1769L152.056 61.5125L150.307 64.2388Z" fill="#FFB373"/>
<path d="M154.971 66.1032L157.653 62.2417L159.565 63.1284C159.648 63.167 159.722 63.2231 159.782 63.2929C159.842 63.3627 159.887 63.4446 159.912 63.533C159.938 63.6214 159.944 63.7143 159.931 63.8053C159.917 63.8963 159.884 63.9834 159.834 64.0606L158.453 66.2151C158.307 66.4398 158.092 66.6113 157.84 66.7039C157.588 66.7965 157.313 66.8052 157.056 66.7288L154.971 66.1032Z" fill="#FFB373"/>
<path d="M128.635 61.4586C132.366 63.2071 149.701 64.6241 150.609 64.4666C150.957 64.427 151.29 64.2998 151.576 64.0969C151.861 63.8941 152.091 63.6221 152.243 63.3065C152.368 63.0125 152.428 62.6948 152.418 62.3753C152.409 62.0559 152.33 61.7424 152.187 61.4564C152.044 61.1704 151.841 60.9188 151.592 60.7189C151.342 60.519 151.052 60.3756 150.742 60.2985C146.724 59.2337 136.574 57.1497 133.477 55.8404C131.056 54.8129 133.622 37.6972 129.182 36.7526C121.968 35.2155 124.231 59.3953 128.635 61.4586Z" fill="#C0E4F9"/>
<path opacity="0.1" d="M128.635 61.4586C132.366 63.2071 149.701 64.6241 150.609 64.4666C150.957 64.427 151.29 64.2998 151.576 64.0969C151.861 63.8941 152.091 63.6221 152.243 63.3065C152.368 63.0125 152.428 62.6948 152.418 62.3753C152.409 62.0559 152.33 61.7424 152.187 61.4564C152.044 61.1704 151.841 60.9188 151.592 60.7189C151.342 60.519 151.052 60.3756 150.742 60.2985C146.724 59.2337 136.574 57.1497 133.477 55.8404C131.056 54.8129 133.622 37.6972 129.182 36.7526C121.968 35.2155 124.231 59.3953 128.635 61.4586Z" fill="#E0E0E0"/>
</svg>
