<svg width="170" height="170" viewBox="0 0 170 170" fill="none" xmlns="http://www.w3.org/2000/svg">
<path d="M55.9083 139.924C52.7514 139.924 49.496 139.195 46.0213 137.775C43.2211 136.629 41.8774 133.425 43.0213 130.62C44.1653 127.814 47.3624 126.468 50.1626 127.614C55.3052 129.718 59.9822 130.54 69.331 120.635C71.4101 118.433 74.8756 118.336 77.074 120.418C79.2712 122.501 79.3684 125.975 77.2893 128.177C69.7668 136.148 63.095 139.924 55.9083 139.924Z" fill="#495059"/>
<path d="M71.4477 156.58C67.9069 156.58 64.9083 153.849 64.6294 150.252C63.9835 141.933 66.309 137.827 68.3609 134.204C69.0911 132.913 69.7811 131.695 70.4114 130.159C71.8498 126.656 75.8498 124.985 79.3478 126.426C82.8445 127.867 84.5124 131.876 83.074 135.38C82.1156 137.715 81.0922 139.521 80.2699 140.974C78.6357 143.859 77.96 145.053 78.2816 149.187C78.5748 152.965 75.7564 156.264 71.986 156.558C71.8057 156.574 71.6254 156.58 71.4477 156.58Z" fill="#DDAF89"/>
<path d="M106.136 163.441C105.681 163.441 105.219 163.395 104.756 163.301C101.052 162.54 98.6629 158.916 99.4217 155.204C99.5929 154.361 99.7667 153.541 99.9353 152.738C101.45 145.548 102.365 141.207 99.8666 135.542C98.3374 132.077 99.9029 128.026 103.361 126.495C106.82 124.964 110.863 126.531 112.39 129.996C116.676 139.709 115.052 147.415 113.333 155.573C113.17 156.348 113.003 157.141 112.837 157.956C112.172 161.202 109.32 163.441 106.136 163.441Z" fill="#DDAF89"/>
<path d="M57.9528 120.238C49.1099 120.238 40.372 116.462 33.8027 109.619C31.1815 106.888 31.2658 102.546 33.9908 99.9197C36.7158 97.2934 41.0491 97.3779 43.6716 100.108C45.442 101.952 51.9231 107.85 60.9321 106.258C64.6544 105.603 68.2069 108.091 68.8632 111.822C69.5195 115.553 67.0331 119.111 63.3095 119.769C61.5313 120.083 59.7401 120.238 57.9528 120.238Z" fill="#DDAF89"/>
<path d="M117.579 110.075C114.319 110.075 111.432 107.733 110.845 104.405C110.189 100.673 112.675 97.1159 116.399 96.457C125.408 94.8664 129.484 87.1043 130.519 84.7625C132.05 81.2992 136.095 79.7346 139.552 81.2693C143.008 82.8028 144.57 86.8547 143.039 90.3193C138.426 100.753 129.356 108.1 118.776 109.968C118.374 110.04 117.975 110.075 117.579 110.075Z" fill="#DDAF89"/>
<path d="M127.997 106.772C127.993 104.899 127.83 103.017 127.5 101.139C126.966 98.1076 126.011 95.2291 124.704 92.5469C122.591 94.322 119.861 95.8464 116.398 96.4585C112.674 97.116 110.188 100.674 110.844 104.405C111.431 107.733 114.319 110.075 117.58 110.075C117.974 110.075 118.373 110.04 118.775 109.97C122.021 109.397 125.122 108.306 127.997 106.772Z" fill="#D1A582"/>
<path d="M112.391 129.997C110.862 126.531 106.821 124.964 103.36 126.496C99.9023 128.027 98.3381 132.077 99.866 135.543C100.725 137.489 101.181 139.279 101.347 141.083C105.985 139.607 110.261 137.348 113.992 134.423C113.588 132.991 113.062 131.519 112.391 129.997Z" fill="#D1A582"/>
<path d="M83.0737 135.379C84.5121 131.876 82.8442 127.867 79.3474 126.426C75.8494 124.984 71.8495 126.657 70.4098 130.161C69.7795 131.695 69.0895 132.914 68.3593 134.203C67.9092 134.999 67.4462 135.817 67.0039 136.698C70.7626 139.182 75.0466 141.016 79.66 142.063C79.8455 141.722 80.0478 141.365 80.2696 140.974C81.0919 139.522 82.1152 137.715 83.0737 135.379Z" fill="#D1A582"/>
<path d="M68.8629 111.82C68.2066 108.089 64.6541 105.601 60.9317 106.256C57.4675 106.868 54.3793 106.371 51.7866 105.424C51.474 108.383 51.5622 111.415 52.0979 114.459C52.4299 116.345 52.9306 118.168 53.57 119.925C55.0213 120.129 56.4856 120.236 57.9525 120.236C59.7398 120.236 61.531 120.081 63.3091 119.767C67.0328 119.109 69.5192 115.551 68.8629 111.82Z" fill="#D1A582"/>
<path d="M122.662 101.997C119.767 85.5488 102.707 74.8133 84.5525 78.0192C66.3997 81.2265 54.0302 97.1588 56.9238 113.608C59.8187 130.057 76.8794 140.792 95.0322 137.586C113.185 134.379 125.556 118.446 122.662 101.997Z" fill="#DDAF89"/>
<path d="M116.12 83.4336C109.243 91.5544 99.6053 97.4088 88.3215 99.4023C77.0363 101.397 65.9806 99.197 56.7473 93.9234C55.4257 96.4484 54.4231 99.1203 53.794 101.887C52.9367 105.657 55.0132 109.484 58.6293 110.833C68.585 114.546 79.6277 115.734 90.8467 113.752C102.064 111.77 112.036 106.869 120.124 99.9689C123.062 97.4621 123.706 93.1541 121.614 89.9053C120.077 87.5206 118.224 85.353 116.12 83.4336Z" fill="#7F9AE6"/>
<path d="M72.9171 99.5788C67.1675 98.6899 61.6954 96.7484 56.7474 93.9219C55.4257 96.4469 54.4232 99.1187 53.7941 101.885C52.9368 105.655 55.012 109.483 58.6293 110.831C63.8057 112.763 69.2777 114.002 74.9145 114.477C72.24 110.854 71.7498 104.79 72.9171 99.5788Z" fill="#5E78BF"/>
<path d="M68.3891 55.4282C67.1076 55.6543 65.7458 55.4918 64.4864 54.8772L55.7576 50.6121C51.9353 48.7447 47.4023 49.757 44.7331 53.0747L40.4478 58.4015C38.2339 61.1513 34.2145 61.5841 31.4687 59.3658C28.723 57.1487 28.2924 53.1215 30.505 50.3704L34.7916 45.0436C37.8824 41.2021 42.2312 38.4952 47.0379 37.4218C51.8446 36.3497 56.9288 36.9488 61.3554 39.1112L70.0843 43.375C73.2541 44.924 74.5706 48.7537 73.0245 51.9298C72.0933 53.844 70.3333 55.0838 68.3891 55.4282Z" fill="#495059"/>
<path d="M92.0404 51.2516C90.0962 51.5947 88.0197 51.032 86.4906 49.5531C83.9536 47.0983 83.8836 43.0476 86.3336 40.5057L93.0793 33.5077C96.5008 29.9587 101.075 27.6546 105.957 27.014C110.84 26.3759 115.851 27.4285 120.067 29.9795L125.913 33.5155C128.931 35.3414 129.901 39.2751 128.079 42.2991C126.255 45.3244 122.331 46.2952 119.311 44.4693L113.466 40.932C109.826 38.7306 105.221 39.3322 102.266 42.3966L95.5203 49.3958C94.5462 50.4043 93.3219 51.0242 92.0404 51.2516Z" fill="#495059"/>
<path d="M88.9965 103.241C120.92 97.6011 132.727 80.4083 124.607 60.5695C115.881 39.2507 98.5463 29.8005 76.7503 33.651C54.9542 37.5015 41.8921 52.3227 40.9687 75.3466C40.1087 96.7707 57.0748 108.881 88.9965 103.241Z" fill="#DDAF89"/>
<path d="M100.373 114.911C100.373 120.069 96.1995 124.252 91.0504 124.252C85.9013 124.252 81.7275 120.069 81.7275 114.911C81.7275 109.752 85.9013 105.568 91.0504 105.568C96.1995 105.568 100.373 109.752 100.373 114.911Z" fill="#F6E06A"/>
<path d="M65.602 70.069C64.8536 65.8104 59.9185 63.123 54.5814 64.0651C49.2429 65.0073 45.5232 69.2243 46.2728 73.4829C47.0225 77.7428 51.9563 80.4302 57.2947 79.488C62.6319 78.5446 66.3517 74.3276 65.602 70.069Z" fill="#FFDBDB"/>
<path d="M100.517 63.895C101.267 68.1549 106.2 70.8423 111.538 69.9001C116.876 68.9567 120.594 64.741 119.846 60.4811C119.096 56.2225 114.163 53.5351 108.824 54.4773C103.487 55.4194 99.7673 59.6364 100.517 63.895Z" fill="#FFDBDB"/>
<path d="M87.0066 59.7142C83.5306 59.4296 80.0391 60.0455 76.8692 61.5049C75.5567 62.1092 74.5074 63.1696 73.9147 64.4887C73.1144 66.2716 74.1196 68.3444 76.0132 68.8174L81.2635 70.126C82.8276 70.5159 84.4839 70.2235 85.8198 69.3216L90.3074 66.2911C91.9248 65.1995 92.1621 62.9058 90.8016 61.5062C89.7951 60.4679 88.4462 59.8311 87.0066 59.7142Z" fill="#495059"/>
<path d="M145.199 66.7513L150.68 62.8501C153.028 61.1789 154.645 58.6682 155.198 55.8365C155.823 52.6396 158.803 50.4668 162.032 50.858C164.963 51.2127 167.239 53.5909 167.471 56.5408C167.757 60.1678 166.409 63.7338 163.797 66.2627L155.789 74.0131L145.199 66.7513Z" fill="#F6E06A"/>
<path d="M146.374 93.4388L136.683 89.904C134.896 89.253 133.835 87.4076 134.168 85.5311L137.753 65.3974C137.993 64.0472 139.391 63.2415 140.678 63.7106L160.119 70.7996C161.405 71.2687 161.958 72.7866 161.277 73.9756L151.106 91.7078C150.158 93.3608 148.162 94.0911 146.374 93.4388Z" fill="#D16283"/>
<path d="M135.022 80.7384L153.527 87.4869L156.008 83.1607L135.897 75.8262L135.022 80.7384Z" fill="#B35470"/>
<path d="M23.0905 98.585C23.5768 99.0723 24.2137 99.3167 24.8518 99.3167C25.4886 99.3167 26.1267 99.0723 26.6118 98.585C27.5846 97.6104 27.5846 96.0314 26.6118 95.0568L23.6171 92.0549C22.6443 91.0815 21.0672 91.0815 20.0957 92.0549C19.1229 93.0295 19.1229 94.6097 20.0957 95.5844L23.0905 98.585ZM21.9608 87.5403C21.9608 88.9191 23.0762 90.0354 24.451 90.0354H28.6883C30.0631 90.0354 31.1786 88.9191 31.1786 87.5403C31.1786 86.1628 30.0631 85.0452 28.6883 85.0452H24.451C23.0762 85.0452 21.9608 86.1628 21.9608 87.5403ZM21.8557 83.7573C22.4926 83.7573 23.1307 83.513 23.6158 83.027L26.6118 80.0251C27.5846 79.0504 27.5846 77.4702 26.6118 76.4955C25.6391 75.5222 24.0632 75.5222 23.0905 76.4955L20.0944 79.4975C19.1217 80.4721 19.1217 82.0523 20.0944 83.027C20.5808 83.513 21.2189 83.7573 21.8557 83.7573ZM14.2073 59.1909L17.2514 53.0818C17.8662 51.8485 17.3655 50.3502 16.136 49.7342C14.9038 49.1195 13.4097 49.6185 12.7949 50.8518L9.75084 56.9622C9.13736 58.1955 9.6367 59.6938 10.8676 60.3098C11.2242 60.4879 11.6042 60.5723 11.9778 60.5723C12.8909 60.5723 13.7715 60.0668 14.2073 59.1909ZM8.08808 76.4955C7.11534 75.5222 5.53819 75.5222 4.56544 76.4955C3.59398 77.4702 3.59398 79.0504 4.56544 80.0251L7.5615 83.027C8.04788 83.513 8.6847 83.7573 9.32283 83.7573C9.95965 83.7573 10.5965 83.513 11.0829 83.027C12.0556 82.0523 12.0556 80.4721 11.0829 79.4975L8.08808 76.4955ZM7.5615 92.0549L4.56544 95.0568C3.59398 96.0314 3.59398 97.6104 4.56544 98.585C5.05181 99.0723 5.68993 99.3154 6.32676 99.3154C6.96359 99.3154 7.60171 99.0723 8.08808 98.585L11.0842 95.5844C12.0556 94.6085 12.0556 93.0295 11.0842 92.0549C10.1114 91.0815 8.53425 91.0815 7.5615 92.0549ZM34.1824 30.5817C34.5845 31.5316 35.5066 32.1008 36.4742 32.1008C36.7997 32.1008 37.1305 32.0358 37.4482 31.9007C38.7141 31.3614 39.303 29.8955 38.7647 28.6272L37.159 24.8494C36.6208 23.5811 35.1577 22.9911 33.8919 23.5304C32.6273 24.0697 32.0385 25.5356 32.5767 26.8039L34.1824 30.5817ZM9.21777 87.5403C9.21777 86.1628 8.10235 85.0452 6.72753 85.0452H2.49024C1.11542 85.0452 0 86.1628 0 87.5403C0 88.9191 1.11542 90.0354 2.49024 90.0354H6.72753C8.10235 90.0354 9.21777 88.9191 9.21777 87.5403ZM74.9146 23.4563H79.5333C80.9081 23.4563 82.0235 22.34 82.0235 20.9612C82.0235 19.5824 80.9081 18.4661 79.5333 18.4661H74.9146C73.5398 18.4661 72.4244 19.5824 72.4244 20.9612C72.4244 22.34 73.5398 23.4563 74.9146 23.4563ZM96.0259 16.6116C96.6627 16.6116 97.3008 16.3673 97.7872 15.8813L101.053 12.6091C102.025 11.6331 102.025 10.0542 101.053 9.07954C100.08 8.10619 98.5032 8.10619 97.5304 9.07954L94.2646 12.3518C93.2918 13.3264 93.2918 14.9067 94.2646 15.8813C94.751 16.3673 95.3891 16.6116 96.0259 16.6116ZM89.1946 13.7761C90.5694 13.7761 91.6848 12.6585 91.6848 11.281V6.65331C91.6848 5.2758 90.5694 4.1582 89.1946 4.1582C87.8185 4.1582 86.7044 5.2758 86.7044 6.65331V11.281C86.7044 12.6585 87.8185 13.7761 89.1946 13.7761ZM96.3657 20.9612C96.3657 22.34 97.4798 23.4563 98.8559 23.4563H103.475C104.849 23.4563 105.965 22.34 105.965 20.9612C105.965 19.5824 104.849 18.4661 103.475 18.4661H98.8559C97.4798 18.4661 96.3657 19.5824 96.3657 20.9612ZM145.15 44.9532C145.499 45.1208 145.866 45.2001 146.228 45.2001C147.155 45.2001 148.045 44.679 148.474 43.7849L152.997 34.3594C153.592 33.117 153.071 31.6265 151.831 31.0287C150.592 30.4322 149.103 30.9546 148.508 32.197L143.985 41.6238C143.388 42.8662 143.911 44.3567 145.15 44.9532ZM80.602 15.8813C81.0884 16.3673 81.7252 16.6116 82.3633 16.6116C83.0001 16.6116 83.637 16.3673 84.1233 15.8813C85.0961 14.9054 85.0961 13.3264 84.1233 12.3518L80.8575 9.07954C79.8848 8.10619 78.3089 8.10619 77.3362 9.07954C76.3634 10.0542 76.3634 11.6344 77.3362 12.6091L80.602 15.8813ZM154.971 124.016H150.735C149.358 124.016 148.244 125.132 148.244 126.511C148.244 127.89 149.358 129.006 150.735 129.006H154.971C156.347 129.006 157.461 127.89 157.461 126.511C157.461 125.133 156.347 124.016 154.971 124.016ZM148.138 122.726C148.776 122.726 149.413 122.483 149.899 121.996L152.895 118.994C153.868 118.021 153.868 116.441 152.895 115.466C151.923 114.491 150.346 114.491 149.373 115.466L146.377 118.467C145.405 119.441 145.405 121.021 146.377 121.996C146.863 122.483 147.501 122.726 148.138 122.726ZM149.899 131.025C148.927 130.051 147.349 130.051 146.378 131.025C145.405 132 145.405 133.58 146.378 134.554L149.374 137.555C149.859 138.043 150.497 138.286 151.134 138.286C151.771 138.286 152.409 138.042 152.895 137.555C153.868 136.581 153.868 135.001 152.895 134.026L149.899 131.025ZM169.954 56.3436C169.631 52.2254 166.423 48.8765 162.33 48.3801C157.83 47.8382 153.624 50.8999 152.754 55.356C152.322 57.5704 151.073 59.508 149.238 60.8153L146.115 63.0375L141.53 61.365C140.224 60.8881 138.784 61.0142 137.58 61.7094C136.377 62.4034 135.545 63.5885 135.302 64.9596L132.787 79.0868C130.774 80.0368 129.16 81.6755 128.242 83.7521C127.841 84.6592 126.586 87.2063 124.271 89.552C124.132 89.2713 123.98 88.9958 123.813 88.7255C124.779 87.4987 125.632 86.2174 126.365 84.884C130.448 77.4585 130.636 68.7243 126.91 59.6237C125.061 55.1052 122.821 51.0766 120.23 47.5627C121.001 47.7784 121.796 47.8876 122.596 47.8876C123.31 47.8876 124.029 47.8005 124.74 47.6251C127.042 47.0546 128.984 45.6212 130.21 43.5874C132.74 39.3899 131.389 33.9124 127.199 31.3783L121.354 27.8422C116.657 25.0001 111.074 23.828 105.634 24.5388C103.126 24.8676 100.69 25.5979 98.4176 26.6726L97.7872 26.0411C96.8145 25.0677 95.2373 25.0664 94.2646 26.0424C93.3696 26.9378 93.3009 28.3465 94.0532 29.325C93.463 29.7746 92.8923 30.2503 92.3437 30.7532C92.1245 30.7233 91.9053 30.6934 91.6848 30.6661V30.6414C91.6848 29.2626 90.5694 28.1463 89.1946 28.1463C87.9249 28.1463 86.8795 29.0976 86.7264 30.3282C85.6006 30.31 84.458 30.3321 83.3036 30.3919L84.1233 29.5706C85.0961 28.596 85.0961 27.0157 84.1233 26.0411C83.1519 25.0677 81.5747 25.0677 80.602 26.0411L77.3362 29.3133C76.8329 29.8175 76.593 30.4842 76.6098 31.1456C76.5126 31.1625 76.4153 31.1768 76.318 31.1937C70.6761 32.1905 65.5944 33.9072 61.1146 36.2749C56.5089 34.362 51.3689 33.8994 46.4974 34.9871C41.1421 36.1826 36.2965 39.1989 32.853 43.4769L28.5677 48.8037C25.4964 52.6218 26.0969 58.2306 29.9062 61.3092C31.5443 62.6321 33.5119 63.2754 35.4677 63.2754C37.303 63.2754 39.1253 62.7062 40.6557 61.6055C39.4171 65.803 38.6765 70.3565 38.4794 75.2467C38.3146 79.3792 38.7751 83.2414 39.8503 86.7281C40.2562 88.0445 41.6505 88.7826 42.9644 88.3759C44.2782 87.9691 45.0149 86.5721 44.609 85.2557C43.7011 82.3122 43.3133 79.0114 43.4559 75.4468C43.8334 66.0616 46.2951 58.1253 50.6556 51.8381C50.7619 51.7147 50.854 51.5821 50.9344 51.4418C53.8786 47.3197 57.6607 43.9292 62.2235 41.3249C62.3636 41.2638 62.4972 41.1885 62.623 41.1014C66.8382 38.7609 71.6994 37.0767 77.1818 36.1086C81.1792 35.4016 84.9962 35.1664 88.6161 35.3795C88.8016 35.4237 88.9949 35.4497 89.1946 35.4497C89.2672 35.4497 89.3386 35.4458 89.4099 35.4393C90.5253 35.5264 91.6213 35.6576 92.6978 35.8318C92.7549 35.8435 92.8132 35.8526 92.8703 35.8604C98.1089 36.7323 102.874 38.6323 107.091 41.5289C107.207 41.6277 107.334 41.7148 107.468 41.7914C113.717 46.2047 118.743 52.8219 122.303 61.5171C125.481 69.2818 125.381 76.3331 122.003 82.476C121.167 83.9977 120.136 85.4415 118.924 86.8073C118.862 86.871 118.802 86.9373 118.748 87.0049C112.783 93.6026 102.493 98.3238 88.5643 100.785C70.6722 103.946 56.7774 101.41 49.4429 93.6442C48.4974 92.6436 46.9215 92.6007 45.9215 93.548C44.9229 94.4941 44.8801 96.0743 45.8256 97.075C47.4364 98.7813 49.2743 100.272 51.3222 101.547C51.2587 101.853 51.2107 102.16 51.177 102.465C48.2004 101.055 46.1511 99.0918 45.465 98.3771C41.8957 94.6591 35.9736 94.5435 32.2641 98.1198C28.5534 101.696 28.438 107.63 32.0073 111.348C38.827 118.451 48.0681 122.577 57.4337 122.724C57.9551 123.725 58.531 124.693 59.1574 125.626C56.0018 127.057 53.7554 126.387 51.1043 125.302C47.037 123.639 42.3768 125.6 40.7167 129.675C39.0552 133.75 41.0137 138.42 45.0798 140.083C48.9189 141.654 52.461 142.418 55.9084 142.418C58.2067 142.418 60.4479 142.075 62.6723 141.383C62.1211 143.836 61.8617 146.78 62.1457 150.446C62.5218 155.284 66.6074 159.074 71.4478 159.074C71.6929 159.074 71.9393 159.065 72.1793 159.046C77.3128 158.646 81.1636 154.136 80.7641 148.994C80.5008 145.62 80.8731 144.964 82.436 142.205C82.7369 141.675 83.1026 141.025 83.4969 140.288C85.183 140.518 86.9015 140.643 88.6447 140.643C90.8898 140.643 93.1738 140.447 95.4734 140.04C96.5149 139.857 97.5369 139.631 98.5421 139.37C99.4189 143.081 98.686 146.59 97.4993 152.223C97.3294 153.03 97.1556 153.856 96.9818 154.704C96.4811 157.152 96.9623 159.649 98.3372 161.735C99.712 163.82 101.814 165.245 104.258 165.745C104.878 165.872 105.51 165.936 106.136 165.936C108.38 165.936 110.552 165.121 112.254 163.641C113.293 162.738 113.403 161.162 112.502 160.122C111.6 159.081 110.027 158.969 108.988 159.874C107.971 160.759 106.596 161.129 105.255 160.856C104.115 160.622 103.135 159.958 102.494 158.985C101.852 158.013 101.628 156.847 101.861 155.705C102.032 154.868 102.205 154.052 102.372 153.254C103.67 147.097 104.586 142.738 103.294 137.806C106.109 136.673 108.725 135.229 111.105 133.536C113.471 140.421 112.679 146.162 111.548 151.896C111.283 153.247 112.159 154.56 113.509 154.828C113.673 154.86 113.834 154.876 113.995 154.876C115.159 154.876 116.201 154.052 116.435 152.864C117.747 146.213 118.709 138.994 115.168 130.179C120.69 124.906 124.338 118.077 125.313 110.73C132.888 107.843 139.222 102.348 143.436 95.0243L145.523 95.7845C146.246 96.0483 146.988 96.1744 147.719 96.1744C149.956 96.1744 152.094 94.9944 153.265 92.9528L163.435 75.2207C164.127 74.0134 164.252 72.5709 163.775 71.2636C163.644 70.9023 163.467 70.5658 163.257 70.2539L165.527 68.0563C168.685 64.9998 170.3 60.7309 169.954 56.3436ZM47.2458 48.1293C45.513 48.8726 43.9851 50.0305 42.7945 51.5094L38.5092 56.8349C37.1603 58.5113 34.7038 58.7751 33.032 57.4249C31.3601 56.0733 31.0968 53.612 32.4444 51.9369L36.731 46.6101C39.469 43.2066 43.3211 40.809 47.5804 39.8577C50.2081 39.2716 52.9357 39.2509 55.5621 39.7733C52.365 42.154 49.5856 44.9506 47.2458 48.1293ZM109.429 37.143C106.146 34.9559 102.577 33.2821 98.7587 32.1385C101.045 30.7506 103.613 29.837 106.28 29.4874C110.605 28.9221 115.045 29.8539 118.779 32.1138L124.626 35.6511C126.464 36.7635 127.057 39.1664 125.946 41.0091C125.409 41.9019 124.556 42.5309 123.547 42.7804C122.537 43.0299 121.49 42.8714 120.599 42.332L114.753 38.796C113.133 37.8162 111.31 37.2444 109.429 37.143ZM120.144 92.641C120.54 94.0341 120.337 95.5415 119.591 96.7839C119.587 96.7904 119.583 96.7969 119.579 96.8034C119.297 97.2686 118.943 97.6987 118.509 98.0678C113.271 102.537 107.362 106.011 100.925 108.416C99.7457 106.623 98.1024 105.192 96.1971 104.264C106.393 101.713 114.473 97.7819 120.144 92.641ZM89.8639 108.168C90.2633 108.098 90.6602 108.064 91.0532 108.064C94.3048 108.064 97.1958 110.406 97.7794 113.722C98.4331 117.44 95.9468 120.998 92.2361 121.653C88.528 122.307 84.9755 119.817 84.3218 116.1C83.6668 112.382 86.1531 108.824 89.8639 108.168ZM35.5974 107.888C33.9321 106.154 33.9853 103.384 35.7168 101.716C37.4482 100.047 40.2109 100.102 41.8762 101.836C43.264 103.28 46.9176 106.628 52.2172 108.19C52.6997 109.145 53.33 110.024 54.0861 110.79C54.1588 111.881 54.2885 112.97 54.4778 114.04C54.6918 115.262 54.9876 116.451 55.3416 117.612C48.046 116.94 40.9696 113.484 35.5974 107.888ZM56.1121 103.981C61.2352 106.072 67.3311 107.129 74.2947 107.129C76.9328 107.129 79.7006 106.972 82.5825 106.667C81.1078 108.192 80.0508 110.1 79.5553 112.191C72.6864 112.138 65.9472 110.898 59.4972 108.493C57.5491 107.766 56.2638 105.966 56.1121 103.981ZM65.1067 134.941C62.0316 136.613 59.016 137.428 55.9084 137.428C53.1199 137.428 50.1939 136.785 46.963 135.463C45.4391 134.839 44.705 133.089 45.3275 131.562C45.9501 130.034 47.6971 129.298 49.2224 129.922C52.8657 131.414 56.8708 132.574 62.3312 129.613C63.5011 130.862 64.7721 132.022 66.1327 133.082C65.7968 133.674 65.4505 134.288 65.1067 134.941ZM78.104 139.743C76.2415 143.03 75.4334 144.683 75.7979 149.38C75.9847 151.78 74.187 153.884 71.7902 154.071C69.3907 154.26 67.2961 152.429 67.1119 150.058C66.5477 142.806 68.3985 139.206 70.287 135.857C72.8018 137.288 75.5242 138.426 78.3919 139.233C78.2933 139.409 78.1961 139.58 78.104 139.743ZM94.6083 135.125C78.0651 138.047 62.4661 128.507 59.4998 113.787C65.9472 115.983 72.6423 117.122 79.4593 117.183C80.5553 122.802 85.4943 126.749 91.0454 126.749C91.7238 126.749 92.4112 126.689 93.1025 126.567C99.4448 125.446 103.715 119.42 102.717 113.072C109.102 110.68 115.006 107.317 120.315 103.044C122.551 117.892 111.15 132.203 94.6083 135.125ZM125.533 105.211C125.47 104 125.335 102.781 125.12 101.56C124.932 100.49 124.683 99.4219 124.378 98.3719C124.828 97.3921 125.12 96.3511 125.247 95.2881C128.494 92.8905 130.594 89.9002 131.804 87.7456C132.298 89.7742 133.763 91.4948 135.831 92.2485L138.67 93.2842C135.433 98.5837 130.896 102.697 125.533 105.211ZM148.947 90.4655C148.601 91.0672 147.879 91.3323 147.226 91.0945L137.535 87.5598C136.883 87.322 136.499 86.6527 136.621 85.9704L140.146 66.1707L145.609 68.1642C145.614 68.1655 145.621 68.1681 145.626 68.1694L158.949 73.0284L148.947 90.4655ZM162.066 64.467L158.773 67.6535L151.801 65.1116L152.122 64.8829C155.003 62.8322 156.963 59.79 157.641 56.3137C158.013 54.4099 159.808 53.0974 161.732 53.3339C163.48 53.5457 164.85 54.9765 164.989 56.7361C165.217 59.6315 164.152 62.4489 162.066 64.467ZM103.189 57.9901C103.333 57.9901 103.478 57.9785 103.625 57.9525C104.979 57.712 105.883 56.419 105.644 55.0623L105.543 54.484C105.305 53.1273 104.013 52.2189 102.657 52.4606C101.303 52.6997 100.399 53.9941 100.638 55.3508L100.739 55.9278C100.952 57.139 102.004 57.9901 103.189 57.9901ZM141.872 110.892C140.496 110.892 139.382 112.008 139.382 113.387V117.631C139.382 119.01 140.496 120.126 141.872 120.126C143.247 120.126 144.362 119.01 144.362 117.631V113.387C144.362 112.008 143.247 110.892 141.872 110.892ZM15.5886 71.9212C14.2138 71.9212 13.0984 73.0375 13.0984 74.4163V78.6618C13.0984 80.0394 14.2138 81.157 15.5886 81.157C16.9647 81.157 18.0789 80.0394 18.0789 78.6618V74.4163C18.0789 73.0375 16.9647 71.9212 15.5886 71.9212ZM59.0096 63.9433C59.1535 63.9433 59.2988 63.9303 59.4453 63.9043C60.7994 63.6652 61.7034 62.3709 61.4648 61.0142L60.863 57.5951C60.6243 56.2384 59.3325 55.3326 57.9784 55.5717C56.6231 55.8108 55.7191 57.1052 55.9577 58.4619L56.5595 61.881C56.7735 63.0921 57.8241 63.9433 59.0096 63.9433ZM64.0743 80.3811C62.7073 80.528 61.7164 81.756 61.8617 83.1271C61.9978 84.4071 63.0782 85.3584 64.335 85.3584C64.4232 85.3584 64.5127 85.3532 64.6009 85.3441C66.4102 85.1517 68.0989 84.4331 69.4802 83.3077C73.3479 85.8587 77.864 87.2102 82.4632 87.2102C83.825 87.2102 85.1947 87.0919 86.5565 86.8515C92.5175 85.7989 97.8119 82.4916 101.395 77.6651C102.372 78.0056 103.399 78.1849 104.436 78.1849C105.183 78.1849 105.934 78.094 106.673 77.9107C108.008 77.5793 108.822 76.2252 108.49 74.888C108.159 73.5508 106.809 72.736 105.475 73.0674C104.268 73.3675 102.993 73.131 101.979 72.4189C100.964 71.7067 100.307 70.5878 100.175 69.3494C100.03 67.9797 98.8054 66.9907 97.4357 67.1324C96.0674 67.2779 95.0778 68.5073 95.2231 69.877C95.4176 71.7145 96.1504 73.4312 97.3021 74.8243C94.9779 77.8977 91.7653 80.1641 88.1142 81.3324L86.445 71.8432C86.707 71.7054 86.9638 71.5586 87.2128 71.391L91.7004 68.3604C93.0843 67.4261 93.9779 65.9355 94.1491 64.2708C94.3216 62.6074 93.7523 60.9648 92.5876 59.7653C91.1596 58.2955 89.2504 57.3937 87.2102 57.2273C83.3166 56.9102 79.3815 57.6042 75.8316 59.2377C73.9704 60.0941 72.4841 61.5951 71.6449 63.4651C70.9601 64.992 70.986 66.7295 71.715 68.2344C72.4439 69.7392 73.7915 70.8335 75.4127 71.2389L80.6642 72.5475C80.9535 72.6203 81.2466 72.6736 81.5397 72.7126L83.209 82.1979C79.3802 82.3512 75.5878 81.322 72.3544 79.231C72.9614 77.5274 73.0638 75.6638 72.6203 73.8705C72.2882 72.5332 70.9368 71.7171 69.6034 72.0498C68.2688 72.3812 67.4543 73.734 67.785 75.0712C68.0847 76.2811 67.8486 77.5573 67.1391 78.5735C66.4271 79.591 65.3104 80.2499 64.0743 80.3811ZM81.8653 67.7055L76.615 66.3955C76.3751 66.3358 76.2532 66.1772 76.1948 66.0551C76.1351 65.9316 76.0845 65.738 76.187 65.5132C76.532 64.7425 77.1442 64.1253 77.9094 63.7731C80.2466 62.6984 82.7952 62.1422 85.3607 62.1422C85.8406 62.1422 86.3231 62.163 86.8042 62.2019C87.6434 62.2708 88.4294 62.6412 89.0169 63.2468C89.1894 63.4235 89.2089 63.6223 89.1946 63.7588C89.1803 63.8939 89.1207 64.085 88.9171 64.224L84.4281 67.2532C83.6785 67.7601 82.7433 67.9251 81.8653 67.7055ZM141.872 132.895C140.496 132.895 139.382 134.012 139.382 135.39V139.635C139.382 141.014 140.496 142.13 141.872 142.13C143.247 142.13 144.362 141.014 144.362 139.635V135.39C144.362 134.012 143.247 132.895 141.872 132.895ZM19.5108 122.743C18.5951 121.715 17.0205 121.626 15.9946 122.543C14.9687 123.461 14.8792 125.037 15.7936 126.066L24.7117 136.082C25.2033 136.634 25.8855 136.916 26.5703 136.916C27.1605 136.916 27.7519 136.707 28.2266 136.282C29.2538 135.364 29.3433 133.788 28.4276 132.759L19.5108 122.743ZM18.0789 100.666V96.42C18.0789 95.0425 16.9647 93.9249 15.5886 93.9249C14.2138 93.9249 13.0984 95.0425 13.0984 96.42V100.666C13.0984 102.043 14.2138 103.161 15.5886 103.161C16.9647 103.161 18.0789 102.043 18.0789 100.666ZM135.5 126.511C135.5 125.132 134.385 124.016 133.01 124.016H128.773C127.398 124.016 126.282 125.132 126.282 126.511C126.282 127.89 127.398 129.006 128.773 129.006H133.01C134.385 129.006 135.5 127.89 135.5 126.511ZM133.845 131.025L130.849 134.027C129.876 135.002 129.876 136.581 130.849 137.555C131.335 138.043 131.972 138.286 132.609 138.286C133.247 138.286 133.884 138.042 134.37 137.555L137.366 134.554C138.338 133.579 138.338 132 137.366 131.025C136.394 130.051 134.817 130.051 133.845 131.025ZM134.37 115.466C133.398 114.491 131.82 114.491 130.849 115.466C129.876 116.441 129.876 118.02 130.849 118.994L133.845 121.996C134.33 122.483 134.968 122.726 135.605 122.726C136.242 122.726 136.88 122.483 137.366 121.996C138.338 121.021 138.338 119.441 137.366 118.467L134.37 115.466Z" fill="black"/>
</svg>
