<svg width="48" height="48" viewBox="0 0 48 48" fill="none" xmlns="http://www.w3.org/2000/svg">
<g clip-path="url(#clip0_1606_24458)">
<path d="M21.2228 26.2269C21.8892 25.3939 21.7543 24.1784 20.9213 23.5119L15.3267 19.0356L14.3518 14.5034L15.9634 18.0851L21.5088 22.5222L24.7483 23.7781C25.7462 24.1651 26.8632 23.6665 27.2475 22.6753C27.6331 21.6807 27.1394 20.5619 26.1448 20.1763L19.7628 17.702L17.5585 14.4213L17.7068 13.6503C18.0052 12.0993 16.9898 10.6002 15.4388 10.3019L10.431 9.33837C8.88002 9.04001 7.38093 10.0554 7.08257 11.6064L4.48265 25.121C4.36849 25.7145 4.3252 26.3196 4.35374 26.9233L4.73159 34.9191L0.215613 44.6583C-0.322894 45.8196 0.182063 47.1976 1.34338 47.7361C2.5045 48.2745 3.88272 47.7697 4.42122 46.6083L9.17772 36.3501C9.33583 36.0092 9.4086 35.6351 9.38989 35.2597L8.97377 26.9115L10.0425 27.117L12.5872 34.6845L13.5605 45.8347C13.672 47.1112 14.7973 48.0538 16.0711 47.9423C17.3464 47.8309 18.29 46.707 18.1787 45.4317L17.1812 34.006C17.1653 33.8231 17.1276 33.6428 17.0691 33.4687L15.0494 27.4628L15.4231 25.5202L11.6638 22.5123C11.5105 22.3399 10.5872 21.9062 10.5798 20.76L10.5747 15.3157L11.6943 20.5202C11.7878 20.9551 12.0286 21.3443 12.3759 21.6222L18.5075 26.5283C19.3389 27.1934 20.5548 27.0616 21.2228 26.2269Z" fill="#78BF9B"/>
<path d="M18.7989 4.70479C19.0304 2.3785 17.3322 0.305024 15.0059 0.0735635C12.6796 -0.157897 10.6061 1.5403 10.3747 3.8666C10.1432 6.1929 11.8414 8.26637 14.1677 8.49783C16.494 8.72929 18.5675 7.03109 18.7989 4.70479Z" fill="#78BF9B"/>
<path d="M47.699 31.1922C47.5058 31.1471 47.3112 31.2669 47.243 31.4533L47.2398 31.462C46.8478 32.5336 46.1099 33.6861 45.2209 34.4413C44.5436 35.026 43.6805 35.4572 42.7456 35.5824C42.6705 35.5283 42.0558 34.6548 40.669 34.4496L33.7634 33.428C33.736 33.7887 33.5276 34.1253 33.1405 34.3045L27.9492 36.7071C27.9376 36.7125 27.9256 36.7164 27.9138 36.7213C28.0868 37.2118 28.2769 37.7317 28.4749 38.2433L25.7587 39.6651L25.6443 39.7249C25.4505 39.8278 25.305 40.0163 25.2656 40.2494L24.7389 43.3658C24.69 43.6538 24.8579 43.946 25.1514 44.0382C25.4583 44.1346 25.7854 43.9555 25.9 43.655L26.8431 41.1795L29.3009 40.1765L29.302 40.1788C29.3706 40.3197 29.3737 40.4838 29.3104 40.6272L26.5412 46.8963C26.3905 47.2412 26.5311 47.6583 26.8836 47.8299C27.2258 47.9965 27.6399 47.8489 27.8304 47.5194L31.1938 41.7047C31.2773 41.5603 31.4243 41.464 31.59 41.445C32.7708 41.3105 34.5443 41.0961 36.3757 40.8654C36.3988 40.9129 36.4227 40.9598 36.4476 41.0058C36.4476 41.0058 36.4476 41.0058 36.4477 41.0058C36.4555 41.0204 36.4635 41.0349 36.4716 41.0493C36.689 41.446 36.9444 41.8634 37.2314 42.2358C37.5473 42.6455 37.704 43.1557 37.6542 43.6706L37.3217 47.1054C37.2832 47.5183 37.5819 47.905 38.0156 47.9479C38.413 47.9873 38.7704 47.7015 38.8508 47.3104L39.6086 43.6235C39.6517 43.414 39.7722 43.2284 39.9462 43.1038L39.9488 43.1019C39.9488 43.1014 39.9488 43.1013 39.9489 43.1007C38.6713 41.9992 38.1687 40.2188 38.4649 38.5325C38.6128 39.3169 38.6714 40.9515 40.7965 42.7183C41.1618 43.0221 41.4041 43.4491 41.4729 43.9192L41.9645 47.2782C42.0172 47.6414 42.3468 47.9126 42.7288 47.8758C43.0987 47.8403 43.3695 47.5083 43.3621 47.1368C43.3395 46.0182 43.311 44.6101 43.29 43.5724C43.4897 43.2946 43.5663 42.9335 43.4703 42.5795C43.5212 42.4717 43.5814 42.3678 43.653 42.2707C44.3787 41.2845 44.5791 39.9 44.4721 38.6775C44.4711 38.6662 44.4701 38.6549 44.4691 38.6435C44.4232 38.151 44.301 37.6816 44.0806 37.2383C44.9273 36.823 45.6825 36.2155 46.2912 35.459C47.162 34.3905 47.7867 32.9192 47.9954 31.6315C48.027 31.4368 47.9052 31.2402 47.699 31.1922Z" fill="#78BF9B"/>
<path d="M24.797 28.086C24.3167 27.9991 23.8779 28.3757 23.8909 28.8636C23.891 28.8642 23.8911 28.8649 23.8912 28.8655C23.9303 29.1429 24.105 29.3822 24.3711 29.4699L26.1963 30.0714L25.0101 31.2299C25.0667 31.2595 25.1254 31.2861 25.1866 31.3081C26.2337 31.6843 26.9951 32.5609 26.9515 33.4912L31.7623 31.2645C31.7963 31.2487 31.831 31.2349 31.8661 31.223C31.8591 31.1904 31.8522 31.158 31.8454 31.126C32.155 29.9174 32.5337 28.0071 32.0904 27.2002C31.9959 27.0283 31.7429 27.0321 31.6506 27.2052C31.3809 27.7109 30.9065 28.2231 30.5267 28.5879C30.3165 28.4783 30.1601 28.4247 30.1601 28.4247C30.0395 28.3968 28.5055 27.3067 26.9087 28.473L26.8402 28.463L29.4778 25.96C29.7031 25.7463 29.7348 25.3863 29.5278 25.1548C29.3138 24.9152 28.9457 24.9014 28.7144 25.1209L25.4628 28.2066L24.797 28.086Z" fill="#78BF9B"/>
<path d="M23.6216 29.9531L20.2656 33.138C20.0385 33.3536 20.029 33.7126 20.2446 33.9397C20.4601 34.1669 20.8192 34.1761 21.0462 33.9606L25.2596 30.0284L23.6216 29.9531Z" fill="#78BF9B"/>
<path d="M32.064 31.9169L26.8491 34.3306C26.6889 34.4048 26.619 34.5948 26.6932 34.7551L27.2227 35.899C27.2767 36.0158 27.3922 36.0845 27.513 36.0845C27.558 36.0845 27.6036 36.075 27.6471 36.0549L32.8621 33.6411C33.0222 33.5669 33.0921 33.377 33.0179 33.2167L32.4885 32.0728C32.4344 31.956 32.3188 31.8872 32.1981 31.8873C32.1531 31.8872 32.1075 31.8968 32.064 31.9169Z" fill="#78BF9B"/>
</g>
<defs>
<clipPath id="clip0_1606_24458">
<rect width="48" height="48" fill="white"/>
</clipPath>
</defs>
</svg>
