<svg width="66" height="66" viewBox="0 0 66 66" fill="none" xmlns="http://www.w3.org/2000/svg">
<g clip-path="url(#clip0_1591_25426)">
<path d="M18.0241 57.6498C17.0553 57.6498 16.0739 57.5304 15.0975 57.2902C13.6886 56.9433 12.828 55.5203 13.175 54.1114C13.5214 52.7025 14.9454 51.8414 16.3533 52.1889C18.0805 52.6139 19.8131 52.3727 21.2326 51.5096C22.8092 50.5514 23.9296 48.8559 24.4724 46.6071C24.8133 45.1967 26.2323 44.3296 27.6427 44.67C29.0531 45.0104 29.9202 46.4299 29.5798 47.8403C28.7016 51.4774 26.759 54.2987 23.9623 55.9992C22.1667 57.0903 20.1253 57.6498 18.0241 57.6498Z" fill="#495059"/>
<path d="M28.2376 65.0332C26.5392 65.0332 25.1011 63.7255 24.9671 62.0039C24.6237 57.5888 24.7617 54.2922 25.4435 50.6269C25.7758 48.8439 27.4909 47.6681 29.2724 47.9994C31.0554 48.3313 32.2317 50.0453 31.9004 51.8283C31.3228 54.9307 31.2151 57.6412 31.5147 61.4948C31.6557 63.303 30.3041 64.8826 28.4959 65.0231C28.4093 65.0296 28.3227 65.0332 28.2376 65.0332Z" fill="#DDAF89"/>
<path d="M43.2006 65.0332C43.115 65.0332 43.0293 65.0297 42.9427 65.0231C41.1345 64.8826 39.783 63.303 39.9235 61.4948C40.2236 57.6407 40.1154 54.9307 39.5378 51.8284C39.2065 50.0453 40.3827 48.3313 42.1653 47.9989C43.9478 47.6671 45.6624 48.8439 45.9947 50.6269C46.6765 54.2922 46.8145 57.5883 46.471 62.0039C46.3371 63.7255 44.8985 65.0332 43.2006 65.0332Z" fill="#DDAF89"/>
<path d="M16.2767 47.8463C15.8513 47.8463 15.4212 47.8206 14.9882 47.7683C10.9327 47.2763 7.6924 44.4922 6.73266 40.6749C6.29055 38.9165 7.35805 37.132 9.11692 36.6899C10.8753 36.2468 12.6598 37.3153 13.1019 39.0742C13.4554 40.4805 14.7163 41.1195 15.7787 41.2484C18.2552 41.5491 19.5392 39.5087 19.8745 38.8768C20.724 37.2745 22.712 36.6647 24.3137 37.5142C25.916 38.3637 26.5258 40.3511 25.6763 41.9534C23.706 45.6695 20.1817 47.8463 16.2767 47.8463Z" fill="#DDAF89"/>
<path d="M49.226 43.6987C47.4122 43.6987 45.9424 42.2284 45.9424 40.4151C45.9424 38.6014 47.4127 37.1315 49.226 37.1315C53.6944 37.1315 56.5278 36.6506 58.6996 34.1143C59.8788 32.7366 61.9519 32.5765 63.3296 33.7563C64.7068 34.9356 64.8674 37.0087 63.6876 38.3858C59.4901 43.2883 54.0217 43.6987 49.226 43.6987Z" fill="#DDAF89"/>
<path d="M24.314 37.5142C22.7122 36.6647 20.7243 37.2745 19.8748 38.8768C19.6512 39.2977 19.0057 40.3436 17.8677 40.906C17.9644 43.1856 18.5741 45.3473 19.5948 47.2954C22.1211 46.4304 24.2863 44.5758 25.6766 41.9534C26.526 40.3511 25.9163 38.3637 24.314 37.5142Z" fill="#D1A582"/>
<path d="M29.2725 47.9989C27.491 47.6681 25.776 48.8439 25.4436 50.6269C25.2719 51.5489 25.1355 52.4472 25.0317 53.346C26.9029 54.6275 29.0575 55.5802 31.3919 56.1129C31.4619 54.6653 31.6286 53.2896 31.9005 51.8283C32.2319 50.0453 31.0556 48.3312 29.2725 47.9989Z" fill="#D1A582"/>
<path d="M45.9947 50.6269C45.6629 48.8438 43.9478 47.6671 42.1658 47.9994C40.3827 48.3312 39.2065 50.0453 39.5378 51.8283C39.8102 53.2896 39.9764 54.6653 40.0469 56.1134C42.3813 55.5802 44.5354 54.6275 46.4071 53.346C46.3034 52.4472 46.1664 51.5488 45.9947 50.6269Z" fill="#D1A582"/>
<path d="M53.2069 36.9089C52.0392 37.0766 50.725 37.1315 49.226 37.1315C47.4122 37.1315 45.9424 38.6018 45.9424 40.4151C45.9424 42.2288 47.4127 43.6987 49.226 43.6987C50.5236 43.6987 51.8701 43.6679 53.2276 43.527C53.4627 42.472 53.5861 41.3804 53.5861 40.263C53.5861 39.1139 53.4552 37.992 53.2069 36.9089Z" fill="#D1A582"/>
<path d="M51.727 40.263C51.727 32.2678 44.5601 25.7867 35.7189 25.7867C26.8783 25.7867 19.7114 32.2678 19.7114 40.263C19.7114 48.2582 26.8783 54.7398 35.7189 54.7398C44.5601 54.7398 51.727 48.2582 51.727 40.263Z" fill="#DDAF89"/>
<path d="M50.177 30.9682C46.254 34.2236 41.2155 36.1813 35.7189 36.1813C30.2233 36.1813 25.1843 34.2236 21.2613 30.9682C20.4274 32.0488 19.7315 33.2246 19.2043 34.4769C18.4858 36.1824 19.1484 38.1598 20.7446 39.0963C25.1385 41.676 30.2555 43.1554 35.7189 43.1554C41.1823 43.1554 46.2993 41.676 50.6932 39.0963C52.2894 38.1598 52.952 36.1824 52.2335 34.4769C51.7068 33.2246 51.0109 32.0488 50.177 30.9682Z" fill="#7F9AE6"/>
<path d="M28.4287 34.9814C25.7866 34.0841 23.3641 32.713 21.2613 30.9682C20.4274 32.0483 19.7315 33.2246 19.2043 34.4764C18.4858 36.1824 19.1484 38.1592 20.7446 39.0963C23.0292 40.4373 25.5111 41.4781 28.1336 42.1715C27.1718 40.2404 27.4442 37.341 28.4287 34.9814Z" fill="#5E78BF"/>
<path d="M29.742 11.6328C29.0939 11.6328 28.4403 11.4354 27.8764 11.026L23.9654 8.18502C22.2528 6.94078 19.9431 7.044 18.3489 8.43629L15.7879 10.672C14.4656 11.8266 12.458 11.6907 11.3034 10.3684C10.1488 9.04608 10.2847 7.03796 11.607 5.88334L14.1675 3.64763C16.0145 2.0358 18.3796 1.08713 20.8288 0.977861C23.2775 0.86809 25.7182 1.60124 27.7016 3.04137L31.6126 5.88234C33.0326 6.91409 33.3478 8.90206 32.3161 10.322C31.6942 11.1781 30.7249 11.6328 29.742 11.6328Z" fill="#495059"/>
<path d="M41.6965 11.6328C40.7136 11.6328 39.7442 11.1781 39.1224 10.3221C38.0906 8.90159 38.4053 6.91412 39.8258 5.88237L43.7368 3.0414C45.7202 1.60128 48.1614 0.868629 50.6096 0.977897C53.0583 1.08717 55.424 2.03583 57.2704 3.64766L59.8314 5.88338C61.1537 7.038 61.2897 9.04611 60.1351 10.3684C58.9805 11.6907 56.9728 11.8267 55.6506 10.672L53.0896 8.43632C51.4953 7.04404 49.1856 6.94081 47.4726 8.18506L43.5621 11.026C42.9976 11.4354 42.344 11.6328 41.6965 11.6328Z" fill="#495059"/>
<path d="M35.7189 36.8072C51.8548 36.8072 59.1264 29.4158 56.857 19.0076C54.4178 7.82298 46.7363 1.70044 35.7189 1.70044C24.7019 1.70044 17.0199 7.82298 14.5813 19.0076C12.3118 29.4158 19.5835 36.8072 35.7189 36.8072Z" fill="#DDAF89"/>
<path d="M40.1909 43.7193C40.1909 46.1887 38.1889 48.1907 35.719 48.1907C33.2496 48.1907 31.2476 46.1887 31.2476 43.7193C31.2476 41.2499 33.2496 39.2479 35.719 39.2479C38.1889 39.2479 40.1909 41.2499 40.1909 43.7193Z" fill="#F6E06A"/>
<path d="M27.0266 17.2115C27.0266 15.0946 24.8714 13.3785 22.2127 13.3785C19.5546 13.3785 17.3994 15.0946 17.3994 17.2115C17.3994 19.3289 19.5546 21.0449 22.2127 21.0449C24.8714 21.0449 27.0266 19.3289 27.0266 17.2115Z" fill="#FFDBDB"/>
<path d="M54.0398 17.2115C54.0398 15.0946 51.8846 13.3785 49.2259 13.3785C46.5677 13.3785 44.4126 15.0946 44.4126 17.2115C44.4126 19.3289 46.5677 21.0449 49.2259 21.0449C51.8846 21.0449 54.0398 19.3289 54.0398 17.2115Z" fill="#FFDBDB"/>
<path d="M38.244 14.0432C36.5889 13.6102 34.8501 13.6102 33.195 14.0432C32.5097 14.2225 31.9125 14.6445 31.5142 15.2301C30.9759 16.0216 31.2856 17.1068 32.1597 17.4955L34.5848 18.5741C35.3074 18.8953 36.1322 18.8953 36.8542 18.5741L39.2793 17.4955C40.1539 17.1068 40.4631 16.0216 39.9248 15.2301C39.5265 14.6445 38.9293 14.2225 38.244 14.0432Z" fill="#495059"/>
<path d="M50.7374 21.0903C50.7374 19.3737 49.3461 17.9824 47.6295 17.9824C45.923 17.9824 44.5398 19.3571 44.5227 21.059C44.3117 21.0157 44.0972 20.982 43.8787 20.9609C42.9642 20.8722 42.0856 20.98 41.2784 21.2459C40.6464 21.4538 39.9571 21.3566 39.3846 21.0183C38.309 20.3833 37.0557 20.0187 35.7168 20.0187C33.902 20.0187 32.2449 20.6884 30.9765 21.7937C30.3934 22.3013 29.5832 22.4886 28.844 22.262C28.6506 22.2026 28.4517 22.1553 28.2493 22.1185C27.8228 20.911 26.6747 20.0439 25.3207 20.0439C23.6041 20.0439 22.2129 21.4357 22.2129 23.1523C22.2129 23.7681 22.3941 24.3406 22.7033 24.8235C22.3695 25.4539 22.1605 26.1589 22.1137 26.9041C22.1056 27.0295 22.1036 27.1539 22.1046 27.2778C21.1705 27.1463 20.1886 27.4359 19.4706 28.1539C18.2566 29.368 18.2566 31.3358 19.4706 32.5498C20.6841 33.7634 22.6525 33.7634 23.8665 32.5498C24.1404 32.2759 24.3489 31.9622 24.4994 31.6288C25.3111 32.1505 26.2764 32.4541 27.3132 32.4541C27.8228 32.4541 28.3148 32.3806 28.78 32.2447C29.5449 32.0206 30.3757 32.1696 30.976 32.6933C32.2449 33.7986 33.902 34.4683 35.7168 34.4683C37.0557 34.4683 38.3095 34.1037 39.3846 33.4688C39.9606 33.1284 40.6525 33.0362 41.2879 33.2447C41.9058 33.4471 42.5654 33.5564 43.2507 33.5564C46.8823 33.5564 49.7978 30.4898 49.5485 26.8049C49.4805 25.7948 49.1678 24.8452 48.6708 24.0158C49.8743 23.5868 50.7374 22.4408 50.7374 21.0903Z" fill="white"/>
<path d="M27.3078 30.4435L28.3965 36.6164L45.5294 33.5951L44.4413 27.4228C44.1955 26.03 42.4518 25.535 41.5112 26.5909L41.0368 27.1226C40.5157 27.7078 39.6607 27.8588 38.9708 27.4872L38.5791 27.2762C36.6379 26.2309 34.233 26.6549 32.7667 28.3009L32.4706 28.6333C31.9495 29.2184 31.0944 29.3694 30.4046 28.9978L29.7772 28.66C28.5319 27.9892 27.0626 29.0507 27.3078 30.4435Z" fill="#F3E5B7"/>
<path d="M33.4485 36.6919C32.9878 36.6919 32.5799 36.3621 32.4973 35.8933L31.9354 32.7044C31.8422 32.1787 32.1937 31.6772 32.7194 31.5845C33.2451 31.4914 33.7466 31.8429 33.8393 32.3691L34.4012 35.5575C34.4944 36.0832 34.1429 36.5847 33.6172 36.6773C33.5603 36.6874 33.5039 36.6919 33.4485 36.6919Z" fill="#E0D29D"/>
<path d="M40.4757 35.4532C40.0155 35.4532 39.6076 35.1229 39.5245 34.6541L38.9626 31.4657C38.8699 30.9395 39.2209 30.4384 39.7466 30.3458C40.2723 30.2521 40.7738 30.6041 40.8665 31.1298L41.4289 34.3182C41.5216 34.8444 41.1706 35.3454 40.6444 35.4381C40.588 35.4481 40.5316 35.4532 40.4757 35.4532Z" fill="#E0D29D"/>
<path d="M4.53593 47.1424L3.19299 46.6519C1.45628 46.018 1.05496 43.7425 2.46991 42.5531L3.5646 41.6332C4.19403 41.1039 4.95236 40.7499 5.76205 40.6074L45.5296 33.5952L46.2406 37.629C46.5049 39.1275 45.5039 40.5571 44.0054 40.8215L6.95191 47.3549C6.14222 47.4974 5.30886 47.4244 4.53593 47.1424Z" fill="#A0D9BB"/>
<path d="M16.1202 38.7786L17.3096 45.526L15.4052 45.8619L14.2158 39.1144L16.1202 38.7786Z" fill="#78BF9B"/>
<path d="M21.4254 37.847L22.6157 44.5945L20.7113 44.9303L19.5215 38.1829L21.4254 37.847Z" fill="#78BF9B"/>
<path d="M49.391 32.8917C49.391 34.6083 47.9992 36.0001 46.2827 36.0001C44.5661 36.0001 43.1748 34.6083 43.1748 32.8917C43.1748 31.1752 44.5661 29.7839 46.2827 29.7839C47.9992 29.7839 49.391 31.1752 49.391 32.8917Z" fill="white"/>
<path d="M47.3876 13.3876V11.6876C47.3876 11.1539 46.9546 10.7208 46.4208 10.7208C45.8866 10.7208 45.454 11.1539 45.454 11.6876V13.3876C45.454 13.9218 45.8866 14.3544 46.4208 14.3544C46.9546 14.3544 47.3876 13.9218 47.3876 13.3876ZM63.9586 33.0216C63.0956 32.2834 61.9968 31.9264 60.8659 32.0125C59.7334 32.1001 58.7037 32.6233 57.9655 33.4859C56.8416 34.7981 55.4941 35.5297 53.486 35.8837C53.485 35.285 53.3687 34.6803 53.125 34.1012C53.0227 33.858 52.912 33.6143 52.7956 33.3721C54.5681 32.0629 55.9272 30.4833 56.8522 28.6474C58.2857 25.7993 58.6055 22.487 57.8018 18.8016C57.2107 16.0896 56.324 13.6565 55.1507 11.5139C55.91 12.1222 56.826 12.4213 57.7384 12.4213C58.8945 12.4208 60.0451 11.9414 60.8634 11.0043C62.3669 9.28223 62.1892 6.65828 60.4676 5.15522L57.9066 2.919C55.8959 1.16366 53.3198 0.1309 50.6531 0.0115612C48.1923 -0.0992174 45.7315 0.576532 43.6675 1.91847C41.2545 1.13093 38.5999 0.733637 35.7196 0.733637C32.8394 0.733637 30.1842 1.13043 27.7712 1.91847C25.7072 0.576532 23.2459 -0.0992174 20.7856 0.0115612C18.1189 0.1309 15.5428 1.16366 13.5321 2.9195L10.9711 5.15522C9.24954 6.65828 9.0718 9.28223 10.5749 11.0043C11.3936 11.9414 12.5442 12.4213 13.7003 12.4213C14.6127 12.4213 15.5287 12.1222 16.2875 11.5139C15.1143 13.6565 14.228 16.0896 13.6369 18.8016C13.2059 20.7775 13.1001 22.6749 13.3217 24.4413C13.3881 24.971 13.8725 25.3466 14.4013 25.2802C14.931 25.2137 15.3066 24.7303 15.2402 24.2006C15.0458 22.6522 15.142 20.9744 15.5262 19.2135C16.5353 14.586 18.4522 10.8533 21.2333 8.08934C21.2519 8.07273 21.269 8.0546 21.2857 8.03647C21.6875 7.64069 22.1064 7.26555 22.5435 6.91005C24.1211 5.62804 25.9006 4.63456 27.8689 3.93162C27.9309 3.91601 27.9913 3.89435 28.0497 3.86716C30.3554 3.06905 32.9184 2.66773 35.7196 2.66773C38.5218 2.66773 41.0853 3.06956 43.392 3.86767C43.4484 3.89435 43.5079 3.9155 43.5683 3.93111C45.5376 4.63355 47.3176 5.62754 48.8952 6.91005C49.3323 7.26555 49.7518 7.64069 50.1531 8.03647C50.1702 8.0546 50.1873 8.07273 50.2054 8.08934C52.9865 10.8533 54.904 14.5865 55.9131 19.2135C56.6195 22.4548 56.3547 25.3361 55.125 27.7777C54.132 29.7496 52.5288 31.3891 50.3505 32.6696C50.3112 31.943 50.0831 31.2491 49.6858 30.6494C50.3218 29.4545 50.6068 28.1171 50.5136 26.7399C50.4602 25.9484 50.2719 25.1644 49.9617 24.4282C51.0333 23.6784 51.7045 22.4382 51.7045 21.0902C51.7045 18.8434 49.8761 17.0156 47.6293 17.0156C45.7763 17.0156 44.1987 18.2719 43.7113 19.9779C42.7762 19.92 41.8578 20.0368 40.9761 20.3274C40.6251 20.4432 40.2243 20.3913 39.8763 20.1859C39.1794 19.774 38.4256 19.4703 37.6426 19.2815L39.6724 18.3792C40.3517 18.077 40.8582 17.494 41.0617 16.7789C41.2656 16.0639 41.1427 15.3015 40.7248 14.6867C40.1951 13.9072 39.401 13.3468 38.4891 13.1081C36.6773 12.6338 34.7624 12.6338 32.9501 13.1081C32.0387 13.3468 31.2447 13.9072 30.7149 14.6867C30.297 15.3015 30.1741 16.0639 30.3776 16.7789C30.5815 17.494 31.0881 18.077 31.7668 18.3787L33.7976 19.282C32.5277 19.5882 31.3403 20.1949 30.3413 21.0645C30.0034 21.3591 29.5387 21.4639 29.1278 21.3375C29.0658 21.3183 29.0029 21.3002 28.9389 21.2831C28.2471 19.9442 26.8553 19.0771 25.321 19.0771C23.0742 19.0771 21.2464 20.9049 21.2464 23.1517C21.2464 23.7414 21.3743 24.3204 21.6195 24.8522C21.4216 25.3195 21.2836 25.8044 21.2071 26.3034C20.2997 26.4031 19.4513 26.8059 18.7871 27.4701C18.136 28.1212 17.7523 28.9389 17.635 29.7874C17.2573 29.3327 16.92 28.8553 16.6269 28.3543C16.3575 27.8936 15.7653 27.738 15.3046 28.0074C14.8434 28.2767 14.6883 28.8689 14.9577 29.3301C15.86 30.8735 17.1002 32.224 18.6461 33.3665C18.5283 33.6107 18.417 33.8565 18.3143 34.1012C17.8636 35.1712 17.8399 36.3591 18.21 37.4306L13.8262 38.2035C13.4773 37.3822 12.8806 36.6939 12.1001 36.2266C11.1252 35.6435 9.98219 35.4753 8.88146 35.7523C7.05109 36.2125 5.77764 37.8254 5.67542 39.6411L5.59435 39.6552C4.61849 39.8274 3.70155 40.2554 2.94271 40.8929L1.84802 41.8129C0.916468 42.5964 0.485942 43.7797 0.697429 44.9791C0.908915 46.1781 1.7176 47.1429 2.86164 47.5603L4.20458 48.0502C4.82645 48.2773 5.48307 48.3921 6.14119 48.3921C6.4685 48.3921 6.7958 48.3639 7.12008 48.3065L11.1554 47.595C12.3096 48.1857 13.5573 48.5684 14.8726 48.7275C15.3394 48.7844 15.8122 48.8131 16.2769 48.8131C17.8762 48.8131 19.4593 48.4677 20.908 47.8106C21.2655 48.3911 21.6598 48.9465 22.0913 49.4742C21.694 49.9692 21.2388 50.3751 20.7308 50.6837C19.5323 51.4119 18.06 51.6133 16.5851 51.2502C15.6531 51.0206 14.6878 51.1676 13.866 51.6646C13.0442 52.1611 12.4657 52.9482 12.236 53.8802C11.7622 55.8042 12.9425 57.7555 14.8665 58.2288C15.9109 58.4861 16.9728 58.6165 18.0242 58.6165C20.0615 58.6165 22.052 58.1225 23.826 57.1855C23.8064 58.7066 23.8658 60.3094 24.0033 62.0788C24.1745 64.2778 26.0345 65.9999 28.238 65.9999C28.3493 65.9999 28.4616 65.9954 28.5709 65.9868C29.7028 65.8987 30.7331 65.3755 31.4707 64.5125C32.2089 63.6499 32.567 62.5512 32.4788 61.4192C32.295 59.0596 32.2699 57.1965 32.4033 55.4095C33.4809 55.6043 34.5907 55.7061 35.7191 55.7061C36.8541 55.7061 37.9624 55.6033 39.0354 55.4095C39.1684 57.1965 39.1432 59.0591 38.9594 61.4192C38.8713 62.5512 39.2293 63.6499 39.9675 64.5125C40.7057 65.375 41.7354 65.8987 42.8669 65.9863C42.9766 65.9954 43.0889 65.9999 43.2007 65.9999C44.5693 65.9999 45.8629 65.3327 46.6595 64.2154C46.9697 63.7803 46.869 63.1766 46.4339 62.8669C45.9994 62.5567 45.3956 62.6579 45.0855 63.0925C44.6504 63.7018 43.9459 64.0663 43.2007 64.0663C43.1393 64.0663 43.0783 64.0638 43.0174 64.0588C42.4006 64.0109 41.8391 63.7254 41.4368 63.2551C41.0345 62.7848 40.8391 62.1866 40.8869 61.5693C41.0863 59.0093 41.104 56.9307 40.9388 54.9578C42.537 54.487 44.0315 53.8062 45.3835 52.9512C45.6489 54.9961 45.7345 57.0022 45.6585 59.2711C45.6404 59.8049 46.0588 60.252 46.5925 60.2696C46.6036 60.2701 46.6142 60.2701 46.6253 60.2701C47.1439 60.2701 47.5734 59.8582 47.5911 59.3356C47.6832 56.5772 47.5478 54.1864 47.153 51.6667C49.4219 49.7824 51.1274 47.3463 52.0126 44.5944C55.8949 44.3684 60.6468 43.4227 64.4219 39.0147C65.9466 37.2347 65.7386 34.5463 63.9586 33.0216ZM21.3239 5.4095C20.902 5.75242 20.4966 6.11295 20.1054 6.48859C19.2237 6.6895 18.4019 7.10643 17.713 7.70816L15.1525 9.94388C14.2336 10.7455 12.8337 10.6508 12.0316 9.73239C11.2295 8.81343 11.3246 7.41359 12.2431 6.61145L14.8041 4.37574C16.4864 2.90691 18.6411 2.04334 20.8722 1.94314C22.4438 1.87415 24.0138 2.18786 25.4373 2.83843C23.9579 3.52778 22.5843 4.3848 21.3239 5.4095ZM51.3334 6.48859C50.9421 6.11295 50.5368 5.75242 50.1148 5.4095C48.8544 4.3848 47.4813 3.52778 46.0014 2.83843C47.4259 2.18786 48.9969 1.87365 50.5665 1.94364C52.7977 2.04334 54.9528 2.90742 56.6351 4.37574L59.1956 6.61145C60.1141 7.41359 60.2093 8.81394 59.4071 9.73239C58.605 10.6514 57.2051 10.746 56.2862 9.94388L53.7257 7.70816C53.0363 7.10643 52.2146 6.6895 51.3334 6.48859ZM32.5523 16.6123C32.3409 16.5186 32.2643 16.3444 32.2371 16.2492C32.2099 16.1535 32.1838 15.9652 32.3137 15.7739C32.5805 15.3811 32.9804 15.0986 33.4396 14.9783C34.1853 14.7834 34.9522 14.6857 35.7191 14.6857C36.486 14.6857 37.2534 14.7834 37.9986 14.9783C38.4584 15.0991 38.8582 15.3811 39.1251 15.7744C39.2555 15.9652 39.2293 16.1535 39.2021 16.2492C39.1749 16.3444 39.0974 16.5186 38.8864 16.6123L36.4613 17.6908C35.99 17.9003 35.4487 17.9003 34.9774 17.6908L32.5523 16.6123ZM20.1542 28.8377C20.6326 28.3593 21.2932 28.1388 21.9695 28.235C22.2474 28.2737 22.5289 28.1901 22.7404 28.0053C22.9524 27.8205 23.0727 27.5527 23.0712 27.2717C23.0702 27.1513 23.0727 27.0536 23.0783 26.965C23.1155 26.3739 23.2772 25.8059 23.5576 25.2762C23.7208 24.968 23.7052 24.5959 23.5173 24.3023C23.2963 23.9564 23.1795 23.5586 23.1795 23.1517C23.1795 21.9714 24.1402 21.0107 25.3205 21.0107C26.2249 21.0107 27.0356 21.5852 27.3377 22.4402C27.453 22.767 27.735 23.0072 28.0764 23.0696C28.2456 23.1004 28.4082 23.1396 28.5598 23.186C29.6046 23.5067 30.7738 23.2524 31.6112 22.5228C32.7487 21.5313 34.207 20.9855 35.7166 20.9855C36.8365 20.9855 37.9347 21.2846 38.8929 21.8506C39.7207 22.3395 40.7001 22.4538 41.5808 22.1638C42.2883 21.9311 43.03 21.8506 43.7853 21.9231C43.9605 21.9402 44.1383 21.9674 44.3286 22.0067C44.6116 22.0646 44.9057 21.9926 45.1298 21.8113C45.3543 21.63 45.4863 21.3576 45.4893 21.0691C45.5009 19.8999 46.4606 18.9492 47.6293 18.9492C48.8096 18.9492 49.7704 19.9094 49.7704 21.0902C49.7704 21.9921 49.1984 22.8018 48.3464 23.1054C48.0735 23.2026 47.8589 23.4171 47.7608 23.6895C47.6631 23.9619 47.6928 24.264 47.8413 24.5128C48.2718 25.2308 48.5282 26.0461 48.584 26.8704C48.6646 28.0607 48.362 29.2103 47.7084 30.1942C47.4571 30.5729 47.5034 31.0759 47.8202 31.4022C48.2099 31.804 48.4244 32.3333 48.4244 32.8917C48.4244 34.0725 47.4637 35.0332 46.2834 35.0332C45.1026 35.0332 44.1418 34.0725 44.1418 32.8917C44.1418 32.0694 44.601 31.3327 45.3402 30.9692C45.3418 30.9687 45.3428 30.9677 45.3443 30.9667C45.3871 30.9455 45.4279 30.9203 45.4671 30.8931C45.4732 30.8886 45.4797 30.8846 45.4863 30.8795C45.5235 30.8523 45.5593 30.8226 45.592 30.7899C45.596 30.7859 45.5996 30.7819 45.6031 30.7778C45.6333 30.7471 45.6615 30.7144 45.6872 30.6796C45.6912 30.6746 45.6952 30.6701 45.6988 30.665C45.7249 30.6283 45.7481 30.5895 45.7693 30.5497C45.7733 30.5422 45.7768 30.5346 45.7808 30.5271C45.801 30.4858 45.8191 30.4435 45.8332 30.3997C45.8342 30.3966 45.8347 30.3941 45.8357 30.3911C45.8488 30.3483 45.8589 30.3045 45.8664 30.2592C45.8674 30.2531 45.869 30.2471 45.87 30.2411C45.8765 30.1957 45.8795 30.1499 45.8795 30.1036C45.8795 30.0945 45.879 30.0855 45.879 30.0769C45.8775 30.0296 45.874 29.9817 45.8654 29.9339L45.3931 27.2551C45.2149 26.2424 44.4893 25.4393 43.5008 25.1588C43.4389 25.1412 43.3774 25.1261 43.3155 25.113C43.3024 25.1105 43.2893 25.1085 43.2762 25.106C43.2274 25.0969 43.1785 25.0873 43.1302 25.0808C43.1111 25.0783 43.0924 25.0773 43.0733 25.0747C43.0305 25.0697 42.9877 25.0647 42.9449 25.0616C42.9222 25.0601 42.8996 25.0601 42.8769 25.0596C42.8397 25.0581 42.8024 25.0556 42.7651 25.0556C42.7636 25.0556 42.7616 25.0556 42.7596 25.0556C42.7531 25.0556 42.7465 25.0561 42.74 25.0561C42.6906 25.0566 42.6413 25.0586 42.5924 25.0621C42.5758 25.0632 42.5592 25.0647 42.5426 25.0657C42.5013 25.0692 42.46 25.0737 42.4187 25.0793C42.4036 25.0813 42.3885 25.0833 42.3739 25.0853C42.319 25.0939 42.2646 25.1029 42.2107 25.1145C42.2052 25.116 42.2002 25.1175 42.1951 25.1185C42.1463 25.1291 42.098 25.1417 42.0501 25.1553C42.034 25.1598 42.0184 25.1649 42.0023 25.1694C41.9635 25.1815 41.9247 25.1941 41.886 25.2077C41.8714 25.2132 41.8563 25.2182 41.8416 25.2238C41.7903 25.2429 41.7389 25.2636 41.6886 25.2862C41.685 25.2877 41.681 25.2897 41.6775 25.2918C41.6307 25.3129 41.5848 25.3356 41.5395 25.3592C41.5249 25.3673 41.5103 25.3754 41.4957 25.3834C41.46 25.4035 41.4242 25.4242 41.3895 25.4453C41.3754 25.4539 41.3613 25.4625 41.3477 25.471C41.3008 25.5012 41.2545 25.5325 41.2092 25.5657C41.2077 25.5667 41.2057 25.5682 41.2042 25.5697C41.1609 25.6014 41.1186 25.6352 41.0768 25.6699C41.0637 25.681 41.0511 25.6921 41.038 25.7032C41.0068 25.7308 40.9756 25.759 40.9453 25.7877C40.9328 25.7998 40.9207 25.8109 40.9086 25.823C40.8678 25.8633 40.8275 25.9046 40.7893 25.9479L40.3154 26.4801C40.0908 26.7319 39.7268 26.7963 39.4297 26.6362L39.0374 26.4247C36.6925 25.1618 33.8167 25.6689 32.0448 27.6579L31.7487 27.9902C31.5241 28.2425 31.1601 28.3065 30.863 28.1468L30.2356 27.809C29.3307 27.3215 28.2511 27.3925 27.4178 27.9943C26.5844 28.5965 26.1775 29.599 26.3563 30.6117L26.4968 31.4083C25.9741 31.3065 25.4741 31.1061 25.0219 30.8156C24.7853 30.663 24.4947 30.6217 24.2243 30.7018C23.9549 30.7814 23.7334 30.9747 23.6175 31.2315C23.5093 31.4722 23.3628 31.6857 23.1825 31.866C22.3476 32.7008 20.9891 32.7008 20.1542 31.866C19.3193 31.0306 19.3193 29.6721 20.1542 28.8377ZM42.2208 33.1968L29.1806 35.496L28.2602 30.2758C28.1892 29.8715 28.4389 29.6418 28.5502 29.5618C28.6605 29.4817 28.9571 29.3166 29.3191 29.5109L29.946 29.8488C31.0342 30.4349 32.3696 30.1998 33.1929 29.2763L33.4889 28.9439C34.6627 27.6262 36.5671 27.2908 38.1205 28.1272L38.5127 28.3387C39.6014 28.9248 40.9368 28.6891 41.7591 27.7662L42.2334 27.2339C42.5063 26.9273 42.8417 26.9811 42.9731 27.0184C43.1045 27.0557 43.4182 27.1866 43.4892 27.5904L43.8478 29.6232C42.822 30.3836 42.2082 31.5805 42.2082 32.8917C42.2082 32.9944 42.2133 33.0961 42.2208 33.1968ZM23.6568 33.9073C23.9766 33.7286 24.2782 33.5045 24.5496 33.2331C24.6533 33.1294 24.751 33.0201 24.8427 32.9063C25.4766 33.1832 26.1539 33.3489 26.8477 33.4013L27.1237 34.9653C25.8804 34.6803 24.7223 34.3273 23.6568 33.9073ZM24.6362 36.2976L20.1547 37.0877C19.8209 36.3908 19.7911 35.575 20.0958 34.852C20.1547 34.712 20.2176 34.572 20.2821 34.432C21.5742 35.1732 23.0294 35.7976 24.6362 36.2976ZM9.35327 37.6275C9.95299 37.4764 10.5759 37.5681 11.1066 37.8858C11.3951 38.0585 11.6358 38.2881 11.8216 38.557L7.68001 39.2871C7.89049 38.4951 8.51287 37.8385 9.35327 37.6275ZM16.2769 46.8795C15.9965 46.8795 15.7125 46.8664 15.429 46.8417L19.9754 46.0401C19.9845 46.0602 19.9936 46.0804 20.0026 46.1005C18.8309 46.6177 17.5816 46.8795 16.2769 46.8795ZM20.4201 43.9983C20.4181 43.9988 20.416 43.9988 20.414 43.9993L11.1378 45.6353C11.1358 45.6353 11.1338 45.6358 11.1318 45.6363L6.78421 46.4027C6.14271 46.516 5.48005 46.4575 4.86774 46.234L3.5243 45.7435C3.03687 45.5658 2.69195 45.1544 2.60182 44.6433C2.51168 44.1317 2.69497 43.6271 3.09226 43.2933L4.18696 42.3728C4.68546 41.9539 5.2887 41.6724 5.93021 41.5591L6.85068 41.397C6.85119 41.3965 6.85219 41.3965 6.8532 41.3965C6.85421 41.3965 6.85471 41.396 6.85572 41.396L19.8324 39.1079C19.8334 39.1074 19.8345 39.1074 19.8355 39.1074L28.5633 37.5686C28.5638 37.5681 28.5643 37.5681 28.5643 37.5681H28.5658L42.8306 35.0529C43.3503 35.8797 44.1574 36.5076 45.1121 36.7946L45.2889 37.7967C45.3715 38.267 45.2662 38.7418 44.9923 39.1336C44.7184 39.5248 44.308 39.7861 43.8377 39.8692L31.152 42.106C31.146 42.107 31.1404 42.108 31.1344 42.109L20.4201 43.9983ZM39.2243 43.7193C39.2243 45.6519 37.6517 47.2239 35.7191 47.2239C33.8409 47.2239 32.3036 45.739 32.2185 43.8809L39.0641 42.6739C39.1694 43.0108 39.2243 43.3638 39.2243 43.7193ZM23.9212 54.8727C23.7651 54.9805 23.612 55.0802 23.4599 55.1728C21.835 56.1607 19.9553 56.6829 18.0242 56.6829C17.1284 56.6829 16.2216 56.5716 15.3288 56.3516C14.44 56.1331 13.8947 55.2317 14.1137 54.3425C14.2195 53.9119 14.4869 53.5489 14.8665 53.3193C15.2462 53.0897 15.6918 53.0217 16.1224 53.1279C18.1013 53.6143 20.0943 53.3334 21.7353 52.3359C22.3582 51.9572 22.9191 51.4768 23.4136 50.9053C23.6936 51.1727 23.9846 51.4295 24.2837 51.6777C24.1181 52.7427 23.9972 53.7971 23.9212 54.8727ZM30.0019 63.2556C29.5996 63.7259 29.0381 64.0114 28.4203 64.0593C28.3604 64.0638 28.299 64.0663 28.238 64.0663C27.0376 64.0663 26.0245 63.1277 25.9313 61.9288C25.7415 59.4907 25.7012 57.4302 25.8175 55.4598C25.818 55.4492 25.819 55.4392 25.8195 55.4286C25.8694 54.5962 25.9474 53.779 26.0542 52.9567C27.4137 53.8132 28.9092 54.4915 30.4994 54.9588C30.3343 56.9322 30.3519 59.0103 30.5513 61.5698C30.5991 62.1866 30.4042 62.7853 30.0019 63.2556ZM35.7196 53.773C32.0554 53.773 28.6252 52.5816 25.965 50.5478C25.9379 50.5241 25.9097 50.502 25.8799 50.4813C25.2319 49.9778 24.6297 49.4254 24.0828 48.8262C24.0516 48.7854 24.0174 48.7471 23.9796 48.7114C23.1674 47.8015 22.48 46.7894 21.9448 45.6927L30.3051 44.2183C30.5578 46.9837 32.8892 49.1575 35.7191 49.1575C38.7182 49.1575 41.1578 46.7179 41.1578 43.7193C41.1578 43.6921 41.1553 43.6654 41.1548 43.6382C44.5376 43.032 47.7618 41.8683 50.7583 40.1729C50.7588 40.2026 50.7603 40.2328 50.7603 40.263C50.7603 47.7124 44.0129 53.773 35.7196 53.773ZM50.2044 38.2624C49.082 38.9216 47.9234 39.4981 46.735 39.9936C47.1852 39.2307 47.3484 38.3425 47.1928 37.4608L47.0916 36.8858C48.1329 36.6753 49.0312 36.066 49.6208 35.2256C50.1571 34.9789 50.6712 34.7165 51.1591 34.437C51.2231 34.575 51.285 34.7135 51.3429 34.852C51.8712 36.1053 51.3812 37.5716 50.2044 38.2624ZM62.9536 37.7574C59.8336 41.4005 56.0052 42.3537 52.4955 42.6241C52.626 41.8542 52.6939 41.0656 52.6939 40.263C52.6939 39.7232 52.6612 39.1794 52.5993 38.6406C52.7659 38.409 52.9105 38.1637 53.0318 37.9079C55.9241 37.5434 57.8608 36.5801 59.4338 34.7432C59.8361 34.2729 60.3976 33.9879 61.0144 33.9401C61.6318 33.8917 62.2305 34.0881 62.7008 34.4904C63.6711 35.3213 63.7844 36.7871 62.9536 37.7574ZM25.9847 13.3876V11.6876C25.9847 11.1539 25.5521 10.7208 25.0179 10.7208C24.4841 10.7208 24.0511 11.1539 24.0511 11.6876V13.3876C24.0511 13.9218 24.4841 14.3544 25.0179 14.3544C25.5521 14.3544 25.9847 13.9218 25.9847 13.3876Z" fill="black"/>
</g>
<defs>
<clipPath id="clip0_1591_25426">
<rect width="65.9999" height="66" fill="white"/>
</clipPath>
</defs>
</svg>
