<svg width="170" height="170" viewBox="0 0 170 170" fill="none" xmlns="http://www.w3.org/2000/svg">
<path d="M66.3015 155.55C64.0175 155.55 61.9099 155.281 60.1122 154.92C56.5636 154.208 54.2641 150.753 54.9774 147.204C55.6908 143.656 59.1421 141.356 62.6933 142.069C73.3481 144.21 77.6736 136.725 80.2468 129.962C81.5334 126.579 85.3181 124.882 88.7032 126.168C92.0858 127.455 93.7849 131.242 92.497 134.625C85.9847 151.737 74.8915 155.55 66.3015 155.55Z" fill="#495059"/>
<path d="M131.838 153.45C131.176 153.45 130.503 153.37 129.832 153.201C125.444 152.096 122.783 147.643 123.888 143.256C124.639 140.277 124.529 135.908 122.512 133.36C120.963 131.404 118.073 130.441 113.905 130.508C109.381 130.569 105.657 126.965 105.59 122.442C105.521 117.918 109.132 114.195 113.656 114.125C125.507 113.957 132.004 118.955 135.357 123.191C141.22 130.596 141.483 140.478 139.776 147.257C138.84 150.973 135.502 153.45 131.838 153.45Z" fill="#DDAF89"/>
<path d="M101.651 167.51C99.8794 167.51 98.0935 166.936 96.5928 165.756C93.0365 162.959 92.4204 157.808 95.218 154.252C97.3671 151.519 98.2763 148.182 97.5319 145.75C96.5422 142.513 92.5605 140.623 89.3945 139.606C85.0859 138.222 82.715 133.61 84.0989 129.302C85.4802 124.994 90.0936 122.622 94.4022 124.006C101.288 126.216 110.139 130.953 113.2 140.958C115.534 148.593 113.626 157.35 108.096 164.381C106.48 166.437 104.078 167.51 101.651 167.51Z" fill="#DDAF89"/>
<path d="M54.3676 127.209C45.9838 127.209 37.5235 124.461 30.2668 119.168C26.6119 116.501 25.8103 111.377 28.4769 107.722C31.1436 104.067 36.268 103.265 39.9242 105.932C42.3937 107.734 51.2509 113.322 61.5374 109.579C65.789 108.029 70.4893 110.222 72.0379 114.475C73.5852 118.726 71.3933 123.427 67.1417 124.974C63.0225 126.473 58.7048 127.209 54.3676 127.209Z" fill="#DDAF89"/>
<path d="M127.659 101.016C123.552 101.016 120.012 97.9368 119.53 93.7605C119.012 89.2651 122.236 85.203 126.731 84.6855C134.684 83.7685 139.543 79.9696 141.168 73.3925C142.255 69.0009 146.696 66.3226 151.088 67.4069C155.481 68.4925 158.16 72.9334 157.073 77.325C153.781 90.6425 143.405 99.2572 128.605 100.961C128.288 100.998 127.971 101.016 127.659 101.016Z" fill="#DDAF89"/>
<path d="M138.078 88.6306C137.243 86.3375 136.194 84.1547 134.957 82.0898C132.743 83.4348 130.003 84.3077 126.731 84.6851C122.236 85.2026 119.013 89.2661 119.53 93.7602C120.011 97.9365 123.553 101.017 127.658 101.017C127.971 101.017 128.287 100.997 128.605 100.961C132.852 100.472 136.732 99.4112 140.187 97.8367C139.872 94.72 139.172 91.6344 138.078 88.6306Z" fill="#D1A582"/>
<path d="M134.621 122.311C131.087 118.295 124.693 113.968 113.657 114.125C109.133 114.195 105.521 117.918 105.59 122.442C105.659 126.965 109.381 130.569 113.905 130.508C118.073 130.441 120.963 131.404 122.512 133.36C122.911 133.866 123.234 134.444 123.492 135.067C127.976 131.522 131.755 127.211 134.621 122.311Z" fill="#D1A582"/>
<path d="M113.281 141.244C113.254 141.148 113.228 141.054 113.199 140.958C110.138 130.953 101.287 126.216 94.4017 124.006C90.0931 122.622 85.481 124.994 84.0984 129.302C82.7158 133.61 85.0854 138.222 89.394 139.606C92.4381 140.583 96.2279 142.373 97.3965 145.386C101.64 145.022 105.841 144.093 109.928 142.605C111.068 142.19 112.186 141.735 113.281 141.244Z" fill="#D1A582"/>
<path d="M51.6162 110.662C51.9547 113.602 52.6369 116.514 53.6694 119.353C54.6655 122.088 55.965 124.671 57.5292 127.077C60.7951 126.804 64.0259 126.109 67.1413 124.975C71.3915 123.428 73.5847 118.726 72.0361 114.475C70.4888 110.223 65.7885 108.03 61.5369 109.579C57.9935 110.869 54.6188 111.051 51.6162 110.662Z" fill="#D1A582"/>
<path d="M133.4 90.3353C126.58 71.5911 104.248 62.5122 83.5218 70.0555C62.7958 77.5988 51.5236 98.9071 58.3458 117.651C65.1667 136.394 87.4984 145.474 108.224 137.931C128.95 130.388 140.223 109.078 133.4 90.3353Z" fill="#DDAF89"/>
<path d="M121.836 69.8652C115.417 80.843 105.276 89.7313 92.3906 94.4212C79.5062 99.1112 66.024 98.8206 54.0501 94.5367C53.0164 97.7818 52.3886 101.132 52.2213 104.517C51.993 109.128 55.2329 113.198 59.7737 114.033C72.2755 116.33 85.5347 115.434 98.3425 110.771C111.15 106.11 121.883 98.2746 129.984 88.4784C132.926 84.9208 132.792 79.7198 129.653 76.3333C127.349 73.8483 124.714 71.6849 121.836 69.8652Z" fill="#7F9AE6"/>
<path d="M74.2767 97.8302C67.3171 97.9806 60.4676 96.8328 54.0501 94.5371C53.0164 97.7822 52.3886 101.132 52.2213 104.517C51.993 109.13 55.2329 113.198 59.7737 114.034C66.2743 115.228 72.9797 115.55 79.7202 114.938C75.8163 111.231 73.981 104.202 74.2767 97.8302Z" fill="#5E78BF"/>
<path d="M59.3506 46.1876C57.8682 46.7258 56.2093 46.8192 54.5777 46.351L43.2666 43.1098C38.3134 41.6896 33.115 43.8491 30.6261 48.3613L26.6313 55.6077C24.5665 59.3495 19.861 60.71 16.1191 58.6465C12.376 56.583 11.0168 51.8762 13.079 48.1344L17.0763 40.8881C19.957 35.6625 24.5795 31.5238 30.0904 29.2346C35.6013 26.9454 41.7945 26.5887 47.5298 28.2333L58.8422 31.4758C62.9498 32.6534 65.3259 36.9374 64.1482 41.045C63.4375 43.521 61.5983 45.3692 59.3506 46.1876Z" fill="#495059"/>
<path d="M89.5068 38.5287C87.4186 39.6973 84.8182 39.8828 82.4797 38.8037C78.6004 37.0125 76.9065 32.416 78.6976 28.5354L83.6301 17.852C86.1307 12.4345 90.4471 7.97671 95.7778 5.29841C101.111 2.62141 107.264 1.82376 113.103 3.05461L121.2 4.76016C125.382 5.64211 128.057 9.74581 127.175 13.9273C126.295 18.1088 122.191 20.7845 118.01 19.9026L109.912 18.197C104.87 17.1348 99.84 19.66 97.6805 24.3383L92.748 35.0216C92.0373 36.5625 90.8829 37.7596 89.5068 38.5287Z" fill="#495059"/>
<path d="M93.9832 98.7974C130.894 85.3632 141.374 62.3999 127.517 40.4819C112.626 16.9272 89.956 9.31775 64.7541 18.4901C39.5521 27.6625 27.0776 48.0642 30.8104 75.6798C34.285 101.377 57.0732 112.232 93.9832 98.7974Z" fill="#DDAF89"/>
<path d="M117.347 109.642C117.347 115.804 112.352 120.798 106.191 120.798C100.031 120.798 95.0371 115.804 95.0371 109.642C95.0371 103.482 100.031 98.4883 106.191 98.4883C112.352 98.4883 117.347 103.482 117.347 109.642Z" fill="#F6E06A"/>
<path d="M63.4052 59.8882C61.6737 55.1308 55.4274 53.0362 49.4534 55.2112C43.4795 57.385 40.0398 63.0036 41.7713 67.761C43.5028 72.5183 49.7491 74.613 55.7231 72.4379C61.6971 70.2642 65.1367 64.6456 63.4052 59.8882Z" fill="#FFDBDB"/>
<path d="M102.473 45.664C104.204 50.4214 110.451 52.5148 116.425 50.341C122.399 48.1672 125.838 42.5474 124.107 37.79C122.375 33.0326 116.129 30.9393 110.155 33.113C104.181 35.2868 100.743 40.9067 102.473 45.664Z" fill="#FFDBDB"/>
<path d="M86.0212 43.5931C81.9473 43.9731 78.0408 45.3946 74.6764 47.7214C73.2821 48.6851 72.286 50.1222 71.8697 51.7642C71.3081 53.982 72.8904 56.1675 75.1731 56.3257L81.5051 56.7667C83.3909 56.8977 85.2443 56.2232 86.6036 54.9107L91.1716 50.5035C92.8188 48.9147 92.6255 46.2234 90.7695 44.8849C89.3947 43.894 87.7086 43.4349 86.0212 43.5931Z" fill="#495059"/>
<path d="M86.946 63.8976C78.9694 66.8003 70.5441 65.7575 68.6518 74.459C66.731 83.2864 80.9331 90.7207 94.8641 85.6495C108.794 80.5795 114.895 65.7562 107.75 60.2284C100.706 54.7784 94.9238 60.9936 86.946 63.8976Z" fill="#D16283"/>
<path d="M77.5957 85.9799C82.4517 87.6841 88.6824 87.8994 94.8639 85.6491C101.045 83.4002 105.68 79.229 108.305 74.8037C103.057 73.2408 97.0234 73.3277 91.1558 75.4638C85.2882 77.5987 80.6099 81.4106 77.5957 85.9799Z" fill="#EB9898"/>
<path d="M135.079 23.9986C140.017 24.8702 143.318 29.5666 142.469 34.5017C141.582 39.6663 136.412 42.9036 131.289 41.8025C124.745 40.3965 123.606 36.0101 118.938 34.1593C117.545 33.6067 117.157 31.8169 118.187 30.7287C123.728 24.8767 128.758 22.8845 135.079 23.9986Z" fill="#7F9AE6"/>
<path d="M26.9544 70.7575C24.8364 75.3008 26.7897 80.6976 31.3201 82.8338C36.058 85.0698 41.6753 82.6924 43.7116 77.8637C46.3134 71.6965 43.3744 68.2465 44.5365 63.362C44.8828 61.9042 43.6389 60.5592 42.1578 60.7797C34.1838 61.9612 29.6677 64.9391 26.9544 70.7575Z" fill="#7F9AE6"/>
<path d="M144.082 54.0767C142.707 54.0767 141.591 55.1921 141.591 56.567C141.591 57.9431 142.707 59.0572 144.082 59.0572H155.535C156.91 59.0572 158.026 57.9431 158.026 56.567C158.026 55.1921 156.91 54.0767 155.535 54.0767H144.082ZM143.981 44.5581C144.156 45.8019 145.222 46.7007 146.444 46.7007C146.559 46.7007 146.676 46.6929 146.794 46.6761L158.131 45.0782C159.493 44.8862 160.441 43.6268 160.249 42.265C160.057 40.9031 158.799 39.955 157.436 40.1457L146.099 41.7449C144.737 41.9369 143.789 43.1962 143.981 44.5581ZM151.683 64.9883C145.966 63.5772 140.163 67.0791 138.751 72.795C138.01 75.7897 136.509 78.0426 134.201 79.621C133.741 77.8493 132.861 76.171 131.568 74.743C132.651 72.8468 133.541 70.8988 134.223 68.8988C136.902 61.052 136.3 52.7032 132.523 44.4764C132.778 44.4932 133.034 44.5036 133.289 44.5036C135.678 44.5036 138.043 43.7967 140.035 42.4505C142.659 40.6762 144.396 38.0031 144.923 34.9227C146.001 28.6517 141.778 22.6518 135.512 21.5468C129.483 20.4833 124.34 21.9554 119.227 26.3003C117.374 24.5325 115.45 22.9255 113.457 21.4884L117.496 22.3393C118.204 22.4884 118.911 22.561 119.607 22.5598C124.339 22.5598 128.599 19.2511 129.612 14.4406C130.177 11.7675 129.664 9.03469 128.173 6.74549C126.681 4.45759 124.387 2.88693 121.714 2.32404L113.615 0.617193C107.228 -0.729088 100.495 0.14379 94.6596 3.0724C90.4159 5.20596 86.7596 8.36544 84.0113 12.2551C77.538 12.3537 70.7949 13.6403 63.9026 16.15C57.3334 18.5404 51.5954 21.67 46.7369 25.4624C40.8848 24.1187 34.6839 24.6285 29.134 26.9345C23.1056 29.439 18.0473 33.9681 14.8943 39.684L10.8983 46.9303C8.17587 51.8692 9.9774 58.1026 14.9164 60.8263C16.4779 61.6875 18.1679 62.096 19.8372 62.096C23.1264 62.096 26.3235 60.5046 28.2754 57.6655C27.9356 60.0468 27.7437 62.5046 27.6944 65.0285C26.518 66.3748 25.5258 67.9273 24.697 69.7042C22.007 75.472 24.5025 82.372 30.2559 85.0866C30.3688 85.1398 30.4842 85.1864 30.5984 85.237C31.968 88.949 33.8447 92.2654 36.1975 95.1007C36.6903 95.6947 37.3998 96.0008 38.1157 96.0008C38.6761 96.0008 39.2389 95.8127 39.7046 95.4275C40.7629 94.5482 40.9082 92.9788 40.0301 91.9204C38.5969 90.1928 37.37 88.2422 36.3544 86.0995C37.322 85.9906 38.2857 85.7597 39.226 85.4005C42.2635 84.2371 44.7356 81.8441 46.0054 78.8325C47.7745 74.638 47.3439 71.3747 46.9976 68.7535C46.7706 67.0337 46.5748 65.5486 46.9587 63.9378C47.3115 62.4514 46.9055 60.8911 45.8705 59.7628C44.8329 58.6318 43.3063 58.0922 41.7914 58.3166C38.3012 58.8328 35.3661 59.7044 32.9018 60.9793C33.7034 52.3362 36.4789 44.6995 41.1987 38.2313C46.816 30.535 55.0273 24.6803 65.6056 20.8309C72.4226 18.3497 79.0295 17.1383 85.3472 17.2045C85.3757 17.2045 85.4043 17.2058 85.4328 17.2045C88.3095 17.2395 91.1253 17.5391 93.8711 18.1059C101.963 19.7725 109.312 23.7283 115.748 29.8644C115.166 30.8566 114.968 32.0408 115.224 33.1899C115.554 34.6841 116.6 35.911 118.02 36.4752C119.558 37.0848 120.663 38.0965 121.941 39.2689C122.97 40.2132 124.136 41.278 125.66 42.2144C130.887 50.6838 132.222 59.3464 129.51 67.2905C128.776 69.4409 127.759 71.5317 126.475 73.5576C126.376 73.6847 126.289 73.8196 126.218 73.9584C120.33 82.9673 109.064 90.6585 93.1318 96.4573C77.1709 102.267 63.5071 103.605 53.1713 100.434C53.1246 100.417 53.0779 100.403 53.0299 100.389C51.2478 99.8334 49.563 99.1473 47.9859 98.3224C46.768 97.6843 45.2622 98.1551 44.6241 99.3743C43.9873 100.592 44.4581 102.097 45.6759 102.735C46.9691 103.412 48.3231 104.006 49.7291 104.525C49.6863 105.67 49.8121 106.789 50.087 107.857C45.7382 106.877 42.4763 104.713 41.3907 103.92C36.6333 100.449 29.9382 101.496 26.4648 106.254C24.7839 108.56 24.1004 111.381 24.5414 114.2C24.9811 117.02 26.4947 119.498 28.7994 121.181C36.44 126.754 45.2817 129.699 54.3671 129.699C56.9157 129.699 59.4695 129.45 61.9805 128.964C64.8611 132.463 68.4201 135.431 72.5368 137.742C70.0595 139.795 67.0258 140.398 63.1841 139.628C60.8145 139.151 58.4021 139.627 56.3904 140.965C54.3801 142.302 53.0118 144.344 52.5358 146.713C52.0598 149.082 52.5345 151.494 53.873 153.504C55.2115 155.516 57.2529 156.886 59.6213 157.362C61.8664 157.812 64.1141 158.041 66.3008 158.041C73.7131 158.041 83.9309 155.389 91.2408 143.035C91.2706 143.036 91.3004 143.038 91.3302 143.039C92.9035 143.796 94.6856 144.958 95.1512 146.479C95.6479 148.102 94.8698 150.667 93.2615 152.713C91.4976 154.956 90.7116 157.751 91.0501 160.583C91.3886 163.417 92.8101 165.949 95.0539 167.713C96.9553 169.21 99.2367 170 101.652 170C104.951 170 108.015 168.513 110.054 165.922C116.089 158.249 118.155 148.645 115.581 140.23C115.327 139.403 115.033 138.592 114.698 137.799C116.6 136.811 118.418 135.701 120.138 134.476C120.292 134.611 120.437 134.751 120.559 134.905C121.97 136.689 122.083 140.226 121.474 142.647C120.035 148.36 123.513 154.177 129.223 155.615C130.081 155.831 130.961 155.941 131.838 155.941C134.887 155.941 137.8 154.629 139.83 152.341C140.742 151.312 140.649 149.739 139.619 148.826C138.59 147.913 137.016 148.008 136.104 149.036C135.018 150.259 133.464 150.961 131.838 150.961C131.371 150.961 130.9 150.901 130.44 150.786C127.391 150.018 125.536 146.913 126.302 143.864C127.229 140.191 127.018 135.04 124.465 131.815C124.336 131.653 124.199 131.497 124.057 131.344C126.917 128.78 129.418 125.862 131.492 122.651C132.18 123.301 132.82 123.998 133.405 124.736C137.437 129.83 138.239 135.826 138.201 139.959C138.188 141.335 139.293 142.459 140.668 142.472H140.691C142.056 142.472 143.169 141.372 143.182 140.005C143.227 135.069 142.245 127.878 137.31 121.645C136.323 120.397 135.21 119.249 133.994 118.211C136.621 112.797 137.93 107.09 137.891 101.425C149.036 97.5987 156.673 89.3187 159.491 77.9233C160.176 75.1529 159.742 72.2813 158.267 69.8391C156.792 67.3956 154.454 65.6732 151.683 64.9883ZM41.9977 63.3243C41.5593 65.6044 41.8239 67.6148 42.0599 69.4046C42.3816 71.843 42.6604 73.9493 41.4166 76.8961C40.6708 78.6639 39.2247 80.0685 37.4465 80.7481C35.7682 81.3901 33.9692 81.3318 32.3804 80.5821C29.099 79.0335 27.6775 75.0984 29.2106 71.8092C31.4985 66.904 35.2221 64.4216 41.9977 63.3243ZM32.9148 42.3493C31.0627 43.5529 29.5257 45.2001 28.4453 47.1586L24.4493 54.4049C23.0524 56.9379 19.8553 57.864 17.321 56.4658C14.7867 55.0676 13.8632 51.8692 15.2601 49.3362L19.2561 42.0899C21.8657 37.3572 26.0537 33.6076 31.0445 31.5337C34.4751 30.1083 38.2052 29.5142 41.8926 29.7659C38.1988 33.4882 35.1936 37.6983 32.9148 42.3493ZM103.785 16.0268C99.4624 14.1993 94.9138 13.0372 90.1954 12.5353C92.1162 10.4886 94.3808 8.78696 96.8957 7.52369C101.727 5.09831 107.301 4.37718 112.589 5.49L120.688 7.19685C122.059 7.48608 123.235 8.29151 124 9.46529C124.767 10.6404 125.029 12.0424 124.74 13.4133C124.143 16.2447 121.354 18.0618 118.523 17.4665L110.426 15.7596C108.204 15.2914 105.931 15.3874 103.785 16.0268ZM128.698 38.2287C128.686 38.221 128.673 38.2145 128.66 38.2067C127.378 37.4921 126.385 36.5855 125.308 35.5971C123.977 34.3767 122.482 33.0057 120.362 32.0576C120.539 31.8761 120.714 31.701 120.888 31.5298L120.889 31.5285C120.89 31.5272 120.891 31.5259 120.891 31.5259C125.457 27.0227 129.513 25.5467 134.647 26.4507C138.222 27.0811 140.629 30.5038 140.016 34.0797C139.719 35.8111 138.734 37.3183 137.245 38.3247C135.669 39.3909 133.69 39.7709 131.813 39.3675C130.563 39.099 129.564 38.706 128.698 38.2287ZM128.644 79.1204C130.087 81.5198 129.912 84.6573 128.064 86.892C124.223 91.5352 119.814 95.6584 114.943 99.181C112.662 97.2796 109.799 96.1525 106.807 96.0125C116.369 91.2149 123.719 85.525 128.644 79.1204ZM103.228 101.501C104.203 101.146 105.2 100.977 106.182 100.977C109.723 100.977 113.055 103.165 114.334 106.68V106.679C115.968 111.169 113.645 116.152 109.155 117.786C104.666 119.419 99.6829 117.096 98.0487 112.608C96.4158 108.117 98.7387 103.134 103.228 101.501ZM54.3671 124.719C46.3426 124.719 38.5165 122.103 31.7345 117.156C30.5037 116.259 29.6956 114.936 29.4609 113.431C29.2261 111.925 29.5906 110.419 30.4881 109.189C32.3415 106.65 35.9147 106.091 38.4556 107.944C40.5567 109.477 46.0637 112.945 53.2232 113.299C53.7225 113.79 54.2647 114.239 54.847 114.637C55.1622 115.947 55.5487 117.243 56.0065 118.501C56.7627 120.58 57.7004 122.561 58.8041 124.432C57.3308 124.62 55.8483 124.719 54.3671 124.719ZM54.7835 105.998C58.0467 106.715 61.5486 107.075 65.2697 107.075C74.0166 107.075 83.9685 105.091 94.8347 101.137C95.1732 101.014 95.5053 100.887 95.8399 100.762C93.6583 103.313 92.4612 106.619 92.5546 110.025C82.0593 113.007 70.9259 113.55 60.2231 111.584C57.3697 111.059 55.2167 108.766 54.7835 105.998ZM66.3008 153.059C64.4422 153.059 62.5239 152.864 60.6005 152.477C59.537 152.264 58.62 151.648 58.0195 150.744C57.4177 149.842 57.205 148.757 57.4177 147.694C57.6317 146.629 58.2464 145.712 59.1504 145.11C60.0532 144.51 61.1374 144.296 62.2023 144.511C68.4019 145.756 73.4849 144.249 77.3395 140.034C80.0528 141.121 82.8647 141.916 85.7337 142.422C80.905 149.484 74.3811 153.059 66.3008 153.059ZM106.138 162.843C105.05 164.225 103.414 165.019 101.65 165.019C100.364 165.019 99.1459 164.598 98.1304 163.799C96.9346 162.857 96.1745 161.506 95.9942 159.993C95.814 158.481 96.2329 156.989 97.1745 155.792C99.8528 152.386 100.903 148.259 99.9125 145.022C99.6673 144.219 99.2912 143.46 98.7958 142.744C102.252 142.319 105.702 141.497 109.077 140.269C109.44 140.136 109.799 139.999 110.157 139.859C110.404 140.455 110.627 141.065 110.816 141.686C112.915 148.542 111.165 156.451 106.138 162.843ZM128.943 117.165C126.435 121.907 122.919 126.05 118.645 129.379C118.549 129.44 118.457 129.51 118.369 129.585C115.1 132.087 111.401 134.122 107.374 135.588C102.403 137.397 97.2575 138.228 92.207 138.086C92.0695 138.069 91.9321 138.065 91.7959 138.071C91.2849 138.052 90.7764 138.023 90.2693 137.985C90.1305 137.961 89.993 137.947 89.8543 137.947C86.1254 137.615 82.4743 136.747 79.0101 135.34C78.5548 135.154 78.1087 134.96 77.6664 134.759C77.6547 134.754 77.6443 134.749 77.634 134.745C72.5238 132.417 68.2476 129.025 65.0635 124.829C65.0116 124.75 64.9545 124.675 64.8948 124.602C63.1322 122.235 61.7146 119.619 60.6874 116.797C60.677 116.768 60.6679 116.74 60.6576 116.71C64.7405 117.386 68.8753 117.724 73.014 117.724C79.953 117.724 86.8984 116.776 93.6026 114.902C95.766 120.089 100.832 123.288 106.205 123.288C107.753 123.288 109.325 123.024 110.859 122.465C117.929 119.891 121.588 112.046 119.015 104.976C119.015 104.975 119.015 104.975 119.015 104.975C118.767 104.294 118.469 103.645 118.129 103.029C122.873 99.5675 127.201 95.5676 131.03 91.102C131.04 91.1293 131.052 91.1552 131.061 91.1838C132.064 93.9386 132.654 96.7829 132.841 99.657C132.842 99.7413 132.848 99.8256 132.857 99.9112C133.187 105.714 131.87 111.631 128.943 117.165ZM154.655 76.7274C152.366 85.9893 146.315 92.8374 137.48 96.2745C137.127 93.9775 136.55 91.7051 135.741 89.4808C135.283 88.2227 134.746 86.9815 134.144 85.7753C134.192 85.6041 134.236 85.4303 134.276 85.2565C139.14 83.0775 142.272 79.2981 143.585 73.9895C144.339 70.939 147.437 69.0674 150.489 69.8235C151.967 70.1893 153.215 71.1089 154.001 72.4123C154.788 73.7158 155.021 75.2489 154.655 76.7274ZM102.324 31.2133C104.417 30.452 106.74 31.5337 107.501 33.627C107.972 34.9201 109.4 35.5855 110.693 35.116C111.986 34.6451 112.652 33.2159 112.181 31.9241C110.48 27.2497 105.295 24.8321 100.619 26.5324C98.3561 27.356 96.5481 29.0136 95.5299 31.1964C94.5118 33.3806 94.4054 35.8293 95.229 38.0939C95.5974 39.1055 96.5519 39.7333 97.5701 39.7333C97.8515 39.7333 98.1395 39.6853 98.4209 39.5828C99.7127 39.112 100.379 37.6827 99.9099 36.3909C99.5402 35.3767 99.5882 34.2794 100.045 33.3015C100.5 32.3235 101.309 31.5816 102.324 31.2133ZM54.2296 48.7175C55.2439 48.3492 56.3399 48.3972 57.3178 48.8524C58.2957 49.309 59.0376 50.1183 59.4073 51.1325C59.8768 52.4244 61.3048 53.0897 62.5992 52.6202C63.891 52.1494 64.5576 50.7214 64.0868 49.4283C63.2632 47.165 61.607 45.357 59.4228 44.3389C57.2387 43.3207 54.7899 43.2131 52.5254 44.038C47.8523 45.7383 45.4334 50.925 47.1351 55.5981C47.5021 56.6098 48.4567 57.2375 49.4748 57.2375C49.7576 57.2375 50.0455 57.1895 50.327 57.0871C51.6188 56.6162 52.2854 55.1883 51.8146 53.8951C51.445 52.8809 51.493 51.7849 51.9495 50.807C52.4061 49.8278 53.2154 49.0872 54.2296 48.7175ZM66.2178 73.9298C65.3825 77.7689 66.8598 81.6807 70.2683 84.6586C73.6496 87.6118 79.1501 89.8154 85.5716 89.8154C88.7739 89.8154 92.2057 89.2668 95.7154 87.9893C106.263 84.1502 112.03 75.7262 113.067 69.0817C113.764 64.6083 112.381 60.6642 109.273 58.2582C102.845 53.2843 96.9514 56.2972 91.7518 58.9547C90.6623 59.5111 89.5495 60.0792 88.4094 60.5993L87.316 57.5488C87.6727 57.2933 88.0125 57.0105 88.3316 56.7018L92.8996 52.2947C94.2174 51.0236 94.8983 49.2467 94.7673 47.4218C94.6363 45.5957 93.7102 43.9342 92.2252 42.8642C90.3627 41.5218 88.0761 40.9006 85.7895 41.112C81.2993 41.5322 76.966 43.1093 73.2579 45.6735C71.3695 46.9796 70.0193 48.9264 69.4551 51.152C69.005 52.9263 69.363 54.794 70.4369 56.2777C71.5108 57.7602 73.1736 58.6824 74.9998 58.8108L81.3317 59.2504C81.5431 59.2647 81.7532 59.2712 81.9646 59.2712C82.1877 59.2712 82.4108 59.2608 82.6326 59.244L83.7285 62.3036C82.5133 62.6421 81.2876 62.9235 80.0866 63.1998C74.3954 64.5072 67.9454 65.987 66.2178 73.9298ZM81.6767 54.2817L75.3448 53.842C74.8662 53.8083 74.5912 53.5242 74.4706 53.3569C74.35 53.1896 74.1645 52.8407 74.2825 52.3751C74.551 51.3167 75.1943 50.3907 76.0918 49.7694C79.0983 47.6903 82.6118 46.4115 86.2525 46.0717C87.342 45.9718 88.4263 46.2662 89.3134 46.9056C89.7025 47.1858 89.7855 47.5723 89.7998 47.7772C89.8141 47.9834 89.7881 48.3777 89.4418 48.7111L84.8738 53.1182C84.023 53.9405 82.8583 54.366 81.6767 54.2817ZM87.7791 66.2438C87.7817 66.2425 87.7843 66.2425 87.7856 66.2412C87.7868 66.2412 87.7881 66.2399 87.7894 66.2399C87.792 66.2386 87.7946 66.2386 87.7972 66.2374C90.054 65.4151 92.0695 64.3852 94.0189 63.3891C97.3094 61.7069 99.7114 60.5617 101.928 60.5617C103.374 60.5617 104.742 61.0507 106.225 62.1972C108.344 63.8366 108.439 66.428 108.145 68.3138C107.36 73.3436 102.602 80.1826 94.0111 83.3097C85.4185 86.4367 77.3797 84.2565 73.5445 80.9077C72.1074 79.6522 70.5147 77.6068 71.0841 74.9882C72.0932 70.3501 75.2475 69.4215 81.202 68.0544C83.3291 67.5655 85.5288 67.0609 87.7791 66.2438Z" fill="black"/>
</svg>
