<svg width="66" height="66" viewBox="0 0 66 66" fill="none" xmlns="http://www.w3.org/2000/svg">
<g clip-path="url(#clip0_1591_25328)">
<path d="M18.6072 58.7525C17.4183 58.7525 16.4551 57.7892 16.4551 56.6004C16.4551 55.4115 17.4183 54.4482 18.6072 54.4482C20.995 54.4482 22.0786 54.268 24.9528 49.7492C25.5908 48.7461 26.9211 48.4501 27.9237 49.0886C28.9267 49.726 29.2223 51.0564 28.5843 52.0594C25.2821 57.2509 23.0444 58.7525 18.6072 58.7525Z" fill="#495059"/>
<path d="M28.2799 65.0331C26.8423 65.0331 25.6499 63.8966 25.5935 62.4479C25.4601 59.0163 25.4102 56.347 25.9898 53.2311C26.2617 51.7704 27.6666 50.8066 29.1268 51.0785C30.5876 51.3504 31.5514 52.7548 31.2795 54.2151C30.8419 56.5666 30.8308 58.6759 30.9698 62.2385C31.0277 63.7229 29.8711 64.9732 28.3861 65.0311C28.3509 65.0326 28.3151 65.0331 28.2799 65.0331Z" fill="#DDAF89"/>
<path d="M37.6568 65.0331C37.6216 65.0331 37.5858 65.0326 37.5501 65.0311C36.0656 64.9732 34.909 63.7229 34.9669 62.2385C35.1059 58.6759 35.0948 56.5671 34.6572 54.2151C34.3853 52.7548 35.3491 51.3504 36.8099 51.0785C38.2701 50.8061 39.675 51.7704 39.9469 53.2311C40.4782 56.0862 40.4978 58.478 40.3432 62.4479C40.2868 63.8966 39.0944 65.0331 37.6568 65.0331Z" fill="#DDAF89"/>
<path d="M48.5435 50.4697C48.3799 50.4697 48.2147 50.4546 48.048 50.4239C46.5878 50.152 45.5077 48.7476 45.7796 47.2868C45.9221 46.521 45.4196 45.4519 44.1718 45.0607C42.7543 44.6166 41.9653 43.107 42.4094 41.689C42.8535 40.2715 44.3626 39.4825 45.7811 39.9266C49.5284 41.1014 51.8518 44.6886 51.1851 48.2713C50.9444 49.5654 49.8139 50.4697 48.5435 50.4697Z" fill="#C49B7A"/>
<path d="M17.3929 50.4697C17.5565 50.4697 17.7217 50.4546 17.8884 50.4239C19.3486 50.152 20.4287 48.7476 20.1568 47.2868C20.0143 46.521 20.5168 45.4519 21.7646 45.0607C23.1826 44.6166 23.9711 43.107 23.527 41.689C23.0829 40.2715 21.5738 39.4825 20.1553 39.9266C16.408 41.1014 14.0851 44.6886 14.7513 48.2713C14.992 49.5654 16.1225 50.4697 17.3929 50.4697Z" fill="#C49B7A"/>
<path d="M39.9469 53.2311C39.675 51.7704 38.2701 50.8061 36.8099 51.0785C35.3491 51.3504 34.3853 52.7548 34.6572 54.2151C34.9025 55.5338 35.0137 56.7761 35.0394 58.2409C36.9529 57.9961 38.751 57.4181 40.3603 56.5711C40.2903 55.4447 40.1594 54.3747 39.9469 53.2311Z" fill="#D1A582"/>
<path d="M29.1266 51.0785C27.6663 50.8066 26.2615 51.7704 25.9895 53.2311C25.775 54.3852 25.6466 55.4784 25.5771 56.5716C27.1865 57.4181 28.9841 57.9961 30.8965 58.2408C30.9227 56.7761 31.034 55.5338 31.2792 54.2151C31.5511 52.7548 30.5874 51.3504 29.1266 51.0785Z" fill="#D1A582"/>
<path d="M46.0824 44.7405C46.0824 38.1904 40.2111 32.8811 32.9682 32.8811C25.7253 32.8811 19.854 38.1904 19.854 44.7405C19.854 51.2905 25.7253 56.6003 32.9682 56.6003C40.2111 56.6003 46.0824 51.2905 46.0824 44.7405Z" fill="#DDAF89"/>
<path d="M44.8126 37.126C41.599 39.7927 37.471 41.3965 32.9683 41.3965C28.4657 41.3965 24.3382 39.7927 21.1241 37.126C20.4403 38.0112 19.8708 38.9745 19.4387 40.0002C18.8501 41.3975 19.3929 43.0174 20.7006 43.7848C24.3004 45.8981 28.4924 47.1102 32.9683 47.1102C37.4438 47.1102 41.6363 45.8981 45.2356 43.7848C46.5433 43.0174 47.0861 41.3975 46.4974 40.0002C46.0659 38.9745 45.4959 38.0112 44.8126 37.126Z" fill="#7F9AE6"/>
<path d="M26.9958 40.4136C24.8311 39.6784 22.8462 38.555 21.1241 37.126C20.4403 38.0112 19.8708 38.9745 19.4387 40.0002C18.8501 41.3975 19.3929 43.0174 20.7006 43.7848C22.5723 44.8835 24.605 45.736 26.7541 46.304C25.9661 44.7219 26.1892 42.3472 26.9958 40.4136Z" fill="#5E78BF"/>
<path d="M27.6707 20.6133C27.0967 20.6133 26.5171 20.4386 26.0171 20.0756L22.5513 17.5574C21.0331 16.4551 18.9862 16.5463 17.5728 17.7804L15.3033 19.7619C14.1311 20.7851 12.3516 20.6647 11.3284 19.4925C10.3052 18.3207 10.4255 16.5407 11.5978 15.5175L13.8672 13.5361C15.5037 12.1071 17.6005 11.2666 19.7707 11.1695C21.9415 11.0728 24.1042 11.7223 25.862 12.9988L29.3284 15.517C30.5872 16.4314 30.8662 18.1933 29.9523 19.4517C29.4009 20.2105 28.5419 20.6133 27.6707 20.6133Z" fill="#495059"/>
<path d="M38.266 20.6134C37.3949 20.6134 36.5358 20.2105 35.9845 19.4517C35.07 18.1929 35.349 16.4315 36.6078 15.5171L40.0742 12.9989C41.8321 11.7224 43.9958 11.0733 46.1655 11.1695C48.3363 11.2667 50.4325 12.1076 52.0695 13.5361L54.339 15.5176C55.5107 16.5408 55.6316 18.3208 54.6084 19.4925C53.5847 20.6647 51.8052 20.7851 50.6334 19.7619L48.3635 17.7805C46.9505 16.5463 44.9032 16.4546 43.3855 17.5574L39.9191 20.0756C39.4196 20.4387 38.84 20.6134 38.266 20.6134Z" fill="#495059"/>
<path d="M32.9681 42.9258C47.2691 42.9258 53.714 36.3742 51.7028 27.1499C49.5411 17.2367 42.7328 11.8105 32.9681 11.8105C23.2035 11.8105 16.3951 17.2367 14.2334 27.1499C12.2218 36.3747 18.6671 42.9258 32.9681 42.9258Z" fill="#DDAF89"/>
<path d="M36.6317 47.5724C36.6317 49.5957 34.9916 51.2357 32.9684 51.2357C30.9452 51.2357 29.3052 49.5957 29.3052 47.5724C29.3052 45.5492 30.9452 43.9092 32.9684 43.9092C34.9916 43.9092 36.6317 45.5492 36.6317 47.5724Z" fill="#F6E06A"/>
<path d="M25.8464 29.091C25.8464 27.3568 24.081 25.9509 21.9032 25.9509C19.7254 25.9509 17.9595 27.3568 17.9595 29.091C17.9595 30.8257 19.7254 32.2316 21.9032 32.2316C24.081 32.2316 25.8464 30.8257 25.8464 29.091Z" fill="#FFDBDB"/>
<path d="M47.9768 29.091C47.9768 27.3568 46.2114 25.9509 44.0336 25.9509C41.8558 25.9509 40.0898 27.3568 40.0898 29.091C40.0898 30.8257 41.8558 32.2316 44.0336 32.2316C46.2114 32.2316 47.9768 30.8257 47.9768 29.091Z" fill="#FFDBDB"/>
<path d="M35.0363 26.4957C33.6808 26.1407 32.2563 26.1407 30.9002 26.4957C30.3388 26.6428 29.8494 26.9882 29.5231 27.4681C29.0825 28.1161 29.3357 29.0054 30.0518 29.3241L32.0387 30.2073C32.6304 30.4707 33.3061 30.4707 33.8978 30.2073L35.8848 29.3241C36.6008 29.0054 36.8546 28.1161 36.4135 27.4681C36.0872 26.9882 35.5978 26.6428 35.0363 26.4957Z" fill="#495059"/>
<path d="M36.7887 21.0601H29.1479C28.6142 21.0601 28.1812 20.6275 28.1812 20.0933C28.1812 19.559 28.6142 19.1265 29.1479 19.1265H36.7887C37.3229 19.1265 37.7555 19.559 37.7555 20.0933C37.7555 20.6275 37.3229 21.0601 36.7887 21.0601Z" fill="#D1A582"/>
<path d="M34.6627 17.2225H31.2739C30.7402 17.2225 30.3071 16.79 30.3071 16.2557C30.3071 15.722 30.7402 15.2889 31.2739 15.2889H34.6627C35.1965 15.2889 35.6295 15.722 35.6295 16.2557C35.6295 16.79 35.1965 17.2225 34.6627 17.2225Z" fill="#D1A582"/>
<path d="M42.9034 54.2659C41.5177 54.2659 40.3414 53.2025 40.2251 51.7971C40.1027 50.3167 41.204 49.017 42.6849 48.8947C44.5087 48.7441 45.623 48.1278 45.7797 47.2874C46.0511 45.8266 47.5723 44.8633 49.0325 45.1342C50.4928 45.4062 51.4571 46.8105 51.1851 48.2708C50.9495 49.5387 49.6715 53.7161 43.1275 54.2564C43.0525 54.2629 42.9775 54.2659 42.9034 54.2659Z" fill="#C49B7A"/>
<path d="M23.0327 54.2659C24.4184 54.2659 25.5947 53.2025 25.711 51.7971C25.8334 50.3167 24.7321 49.017 23.2512 48.8947C21.4274 48.7441 20.3131 48.1278 20.1565 47.2874C19.8851 45.8266 18.3639 44.8633 16.9036 45.1342C15.4433 45.4062 14.4791 46.8105 14.751 48.2708C14.9866 49.5387 16.2646 53.7161 22.8086 54.2564C22.8836 54.2629 22.9587 54.2659 23.0327 54.2659Z" fill="#C49B7A"/>
<path d="M31.0885 5.39288L33.4748 5.97396L31.4481 8.00021C31.0709 8.37786 31.0709 8.99016 31.4481 9.36782C31.6369 9.55665 31.8846 9.65081 32.1319 9.65081C32.3791 9.65081 32.6268 9.55665 32.8157 9.36782L35.633 6.55001C35.9658 6.21717 36.0937 5.72874 35.9663 5.27555C35.8394 4.82237 35.4764 4.4714 35.0192 4.36012L33.4093 3.96786L35.2432 3.20399C35.7543 2.99099 36.0761 2.47638 36.0439 1.92349C36.0116 1.3706 35.632 0.896774 35.0992 0.744705L32.6178 0.0372318C32.1042 -0.109298 31.5689 0.188294 31.4224 0.701904C31.2764 1.21551 31.5739 1.75027 32.087 1.8968L32.8388 2.11081L30.8957 2.9205C30.3735 3.13803 30.0522 3.66322 30.0966 4.22668C30.1409 4.79064 30.5392 5.25894 31.0885 5.39288ZM43.3452 21.8113C43.0652 21.3566 42.4695 21.2156 42.0153 21.4951L39.6709 22.9392C39.2162 23.2197 39.0747 23.8149 39.3546 24.2696C39.5374 24.5662 39.8546 24.7293 40.1789 24.7293C40.3521 24.7293 40.5269 24.683 40.685 24.5858L40.7701 24.5334C40.7696 24.544 40.7686 24.5546 40.7686 24.5656V25.9584C40.7686 26.4922 41.2016 26.9252 41.7354 26.9252C42.2696 26.9252 42.7022 26.4922 42.7022 25.9584V24.5656C42.7022 24.1769 42.472 23.8421 42.1407 23.689L43.0295 23.1411C43.4842 22.8612 43.6257 22.266 43.3452 21.8113ZM34.2905 31.091L36.2775 30.2073C36.8812 29.9384 37.3319 29.4203 37.5127 28.7843C37.694 28.1488 37.5847 27.4711 37.2131 26.9242C36.7554 26.251 36.069 25.7666 35.2815 25.5601C33.7684 25.1644 32.1686 25.1644 30.6555 25.5601C29.8674 25.7666 29.1816 26.251 28.7234 26.9242C28.3518 27.4711 28.2425 28.1488 28.4238 28.7843C28.6051 29.4203 29.0552 29.9384 29.659 30.2073L31.6459 31.091C31.7623 31.1424 31.8811 31.1862 32.0014 31.224V33.1873C30.8791 33.3464 29.8201 33.7804 28.8971 34.4688C28.4696 34.788 28.3815 35.3943 28.7007 35.8218C29.02 36.2503 29.6257 36.3379 30.0538 36.0187C30.9012 35.3862 31.9093 35.0519 32.9682 35.0519C34.0272 35.0519 35.0353 35.3862 35.8827 36.0187C36.0565 36.1481 36.2589 36.2105 36.4598 36.2105C36.7549 36.2105 37.0459 36.0766 37.2357 35.8218C37.555 35.3938 37.4669 34.788 37.0389 34.4688C36.1159 33.7804 35.0574 33.3459 33.935 33.1873V31.2234C34.0554 31.1862 34.1742 31.1424 34.2905 31.091ZM33.505 29.3241C33.1636 29.4757 32.7729 29.4757 32.4315 29.3241L30.4445 28.4404C30.3367 28.3925 30.297 28.3034 30.2834 28.2546C30.2693 28.2057 30.2557 28.1096 30.3221 28.0114C30.5175 27.7249 30.8096 27.5184 31.1449 27.4308C31.7411 27.2747 32.3549 27.1966 32.9682 27.1966C33.5816 27.1966 34.1954 27.2747 34.7916 27.4308C35.1269 27.5189 35.419 27.7249 35.6138 28.0114C35.6803 28.1096 35.6672 28.2057 35.6531 28.2546C35.639 28.3034 35.5997 28.3925 35.492 28.4404L33.505 29.3241ZM54.9749 14.7894L52.7055 12.808C50.9043 11.236 48.5976 10.3109 46.2088 10.2042C44.025 10.1045 41.8376 10.7007 39.9987 11.8835C37.8616 11.1921 35.5136 10.8437 32.9682 10.8437C30.4229 10.8437 28.0748 11.1921 25.9378 11.8835C24.0984 10.7007 21.9125 10.1055 19.7272 10.2042C17.3389 10.3109 15.0322 11.236 13.231 12.808L10.9616 14.7894C9.39 16.1621 9.22736 18.5569 10.6 20.1285C11.3468 20.984 12.3971 21.4221 13.4526 21.4221C14.1374 21.4221 14.8242 21.2367 15.432 20.8626C14.4944 22.6698 13.7784 24.7001 13.2889 26.9439C12.6842 29.7179 12.7959 32.2748 13.6212 34.5428C13.804 35.0448 14.3589 35.3031 14.8605 35.1208C15.362 34.9386 15.6208 34.3837 15.438 33.8816C14.7401 31.9626 14.6525 29.7667 15.1782 27.3558C16.0634 23.2962 17.7452 20.0247 20.1285 17.6173C20.1965 17.5654 20.2564 17.505 20.3083 17.438C21.914 15.8685 23.8275 14.6807 26.0224 13.8972C26.0924 13.881 26.1604 13.8579 26.2253 13.8262C28.2466 13.1333 30.5004 12.7773 32.9682 12.7773C35.4356 12.7773 37.6894 13.1328 39.7101 13.8262C39.7756 13.8579 39.8441 13.881 39.9141 13.8972C42.109 14.6812 44.0224 15.8685 45.6282 17.4386C45.6796 17.505 45.74 17.5654 45.8075 17.6168C48.1907 20.0247 49.8726 23.2957 50.7578 27.3558C51.5428 30.9561 50.935 34.1289 48.9994 36.5323C48.2159 37.5051 47.2295 38.351 46.0552 39.0686C45.9963 39.0963 45.9419 39.1295 45.8916 39.1673C42.7893 41.0032 38.41 41.9589 32.9682 41.9589C25.8185 41.9589 20.4583 40.2917 17.4668 37.1375C17.0992 36.7503 16.4874 36.7342 16.1002 37.1018C15.7124 37.4694 15.6963 38.0812 16.0639 38.4684C16.5735 39.0062 17.1415 39.5047 17.7634 39.9649C14.7829 41.7963 13.1806 45.1171 13.8005 48.448C13.8005 48.4495 13.801 48.451 13.801 48.4526C13.9868 49.444 14.725 51.9909 17.5166 53.6783C16.3333 54.1219 15.4879 55.2639 15.4879 56.6003C15.4879 58.3199 16.8872 59.7193 18.6068 59.7193C21.0605 59.7193 22.911 59.25 24.5481 58.1583C24.5234 59.5375 24.5672 60.9444 24.6271 62.4852C24.7042 64.456 26.3079 65.9999 28.2793 65.9999C28.3281 65.9999 28.3775 65.9989 28.4233 65.9974C29.3997 65.9591 30.3025 65.5432 30.9657 64.8267C31.6293 64.1091 31.9732 63.1771 31.9355 62.2007C31.8635 60.3527 31.8302 58.8622 31.8851 57.5268C32.2447 57.552 32.6057 57.5671 32.9682 57.5671C33.3308 57.5671 33.6918 57.552 34.0514 57.5268C34.1062 58.8627 34.073 60.3532 34.001 62.2007C33.9225 64.2159 35.498 65.9188 37.5097 65.9969C37.5585 65.9994 37.6079 65.9999 37.6572 65.9999C38.6698 65.9999 39.6462 65.5734 40.3365 64.8297C40.6996 64.4384 40.6769 63.8266 40.2857 63.4631C39.8939 63.1 39.2826 63.1227 38.9191 63.5144C38.5938 63.8654 38.1336 64.0663 37.6572 64.0663C37.635 64.0663 37.6134 64.0658 37.5882 64.0648C36.6385 64.028 35.8963 63.2254 35.9331 62.2762C36.0101 60.3003 36.0439 58.7152 35.9754 57.2695C37.1506 57.0354 38.2881 56.6643 39.3597 56.1678C39.4548 57.3546 39.4815 58.6356 39.4473 60.2152C39.4362 60.7495 39.8597 61.1911 40.3934 61.2027H40.4146C40.9388 61.2027 41.3693 60.7837 41.3804 60.257C41.4242 58.2212 41.3713 56.6502 41.2046 55.1411C41.3028 55.0766 41.4015 55.0132 41.4982 54.9457C41.9328 55.13 42.4081 55.2322 42.9036 55.2322C43.0053 55.2322 43.108 55.2282 43.2072 55.2196C50.428 54.6234 51.8661 49.8932 52.135 48.4515C52.1355 48.45 52.1355 48.449 52.136 48.4475C52.7553 45.1176 51.1536 41.7973 48.1746 39.9654C49.0649 39.3053 49.8449 38.5651 50.5055 37.7448C52.8208 34.8701 53.5615 31.1353 52.6476 26.9439C52.1581 24.7006 51.4421 22.6703 50.505 20.8636C51.0977 21.2297 51.777 21.4236 52.4804 21.4236C52.5675 21.4236 52.6546 21.421 52.7417 21.415C53.7503 21.3465 54.6718 20.8898 55.3365 20.1285C56.7086 18.5569 56.5465 16.1616 54.9749 14.7894ZM20.1401 15.0125C19.7715 15.3121 19.419 15.6283 19.0766 15.9561C18.286 16.1404 17.5514 16.5156 16.9366 17.0523L14.6671 19.0338C13.8987 19.7045 12.7275 19.6254 12.0562 18.8565C11.3855 18.0881 11.4646 16.9169 12.2335 16.2457L14.5029 14.2642C15.9753 12.9787 17.8616 12.2229 19.8138 12.1353C21.1079 12.0779 22.4025 12.3181 23.5898 12.8216C22.3536 13.4183 21.202 14.1489 20.1401 15.0125ZM45.7476 41.4352C45.6947 41.8371 45.524 42.2182 45.2541 42.5279C45.2531 42.5289 45.2521 42.5304 45.2511 42.5314C45.1086 42.6936 44.9409 42.8371 44.7465 42.9514C42.4111 44.3225 39.8839 45.2616 37.2247 45.7511C36.8893 44.9701 36.345 44.3004 35.6627 43.8104C39.6497 43.5657 43.0415 42.7641 45.7476 41.4352ZM32.9682 44.8759C34.4552 44.8759 35.6647 46.0854 35.6647 47.5724C35.6647 49.0588 34.4552 50.2688 32.9682 50.2688C31.4813 50.2688 30.2718 49.0588 30.2718 47.5724C30.2718 46.0854 31.4813 44.8759 32.9682 44.8759ZM30.2738 43.8109C29.5915 44.3009 29.0472 44.9706 28.7118 45.7511C26.0526 45.2611 23.5254 44.3225 21.1899 42.9514C20.9951 42.8366 20.8264 42.6926 20.6839 42.5299C20.6839 42.5294 20.6834 42.5289 20.6829 42.5284C20.412 42.2177 20.2413 41.834 20.1899 41.4287C22.901 42.7585 26.2963 43.5642 30.2738 43.8109ZM24.6895 55.5555C23.0248 57.1744 21.34 57.7857 18.6073 57.7857C17.9537 57.7857 17.422 57.2539 17.422 56.6003C17.422 55.9467 17.9537 55.415 18.6073 55.415C19.5932 55.415 20.4346 55.3838 21.2977 55.0363C21.7474 55.1159 22.2232 55.1783 22.7283 55.2201C22.8285 55.2287 22.9312 55.2327 23.0334 55.2327C23.5284 55.2327 24.0037 55.1305 24.4383 54.9462C24.5355 55.0137 24.6342 55.0776 24.7329 55.1421C24.7172 55.28 24.7031 55.418 24.6895 55.5555ZM24.7475 51.7175C24.6744 52.6042 23.9211 53.2991 23.0329 53.2991C22.9851 53.2991 22.9362 53.2971 22.8884 53.2931C20.3415 53.0826 18.4029 52.2719 17.1269 50.8831C16.1032 49.7688 15.7895 48.5659 15.7019 48.0976C15.7014 48.095 15.7014 48.0925 15.7009 48.09C15.2648 45.738 16.3096 43.3814 18.3107 41.9242C18.417 42.472 18.637 42.9947 18.9578 43.4564C18.9109 43.8834 18.8873 44.314 18.8873 44.741C18.8873 45.6171 18.987 46.4988 19.1833 47.3609C19.1838 47.3639 19.1849 47.3674 19.1859 47.3704L19.1979 47.4268C19.2005 47.4374 19.203 47.448 19.205 47.4586C19.2055 47.4606 19.206 47.4626 19.206 47.4646C19.4548 48.798 20.8999 49.6706 23.1719 49.8584C23.6306 49.8962 24.047 50.1102 24.3446 50.4617C24.6422 50.8126 24.7852 51.2588 24.7475 51.7175ZM29.5467 63.5134C29.234 63.8513 28.8085 64.0472 28.3452 64.0653C27.387 64.1 26.5965 63.3603 26.5592 62.4102C26.4711 60.1362 26.4167 58.1658 26.5763 56.1678C27.6478 56.6643 28.7858 57.0354 29.9611 57.2695C29.8926 58.7142 29.9264 60.2998 30.0034 62.2762C30.0215 62.736 29.8589 63.1755 29.5467 63.5134ZM40.1165 49.2114C39.4851 49.9566 39.1814 50.9033 39.262 51.8766C39.3169 52.5418 39.553 53.1556 39.9176 53.6717C37.8883 54.9422 35.4608 55.6335 32.9682 55.6335C30.4757 55.6335 28.0482 54.9422 26.0189 53.6717C26.3835 53.1556 26.6196 52.5418 26.6745 51.8766C26.7551 50.9033 26.4514 49.9566 25.82 49.2114C25.1886 48.4662 24.3048 48.0115 23.331 47.9309C21.7821 47.803 21.1643 47.3282 21.1094 47.1197C21.1089 47.1152 21.1079 47.1106 21.1074 47.1061C21.1038 47.0865 21.0998 47.0668 21.0948 47.0477L21.0746 46.958C21.0726 46.947 21.0701 46.9359 21.0676 46.9248C20.9206 46.2798 20.8395 45.6217 20.8244 44.966C23.1759 46.2601 25.6976 47.1595 28.3402 47.6484C28.381 50.1661 30.441 52.2024 32.9682 52.2024C35.496 52.2024 37.5555 50.1661 37.5963 47.6484C40.2388 47.1595 42.7606 46.2601 45.1126 44.966C45.097 45.6237 45.0154 46.2838 44.8679 46.9309L44.8412 47.0492C44.8357 47.0729 44.8311 47.0965 44.8271 47.1202C44.7717 47.3282 44.1544 47.8035 42.6055 47.9314C41.6316 48.0115 40.7479 48.4662 40.1165 49.2114ZM50.2356 48.091C50.2351 48.0925 50.2346 48.0935 50.2346 48.0945C50.148 48.5613 49.8348 49.7668 48.8096 50.8831C47.5336 52.2719 45.595 53.0826 43.0471 53.2931C43.0003 53.2971 42.9514 53.2991 42.9036 53.2991C42.0148 53.2991 41.262 52.6042 41.189 51.717C41.1508 51.2583 41.2938 50.8126 41.5914 50.4617C41.8895 50.1102 42.3059 49.8957 42.7646 49.8579C45.029 49.6711 46.4727 48.803 46.7275 47.4767C46.729 47.4701 46.73 47.4631 46.7315 47.4566C46.7335 47.447 46.7355 47.4374 46.738 47.4273L46.7496 47.375C46.7506 47.3699 46.7521 47.3654 46.7531 47.3604C46.9495 46.4988 47.0492 45.6176 47.0492 44.7405C47.0492 44.3135 47.0256 43.8829 46.9787 43.4559C47.299 42.9947 47.5195 42.4715 47.6258 41.9237C49.6268 43.3814 50.6717 45.7385 50.2356 48.091ZM53.8802 18.857C53.555 19.2291 53.1043 19.4527 52.6113 19.4859C52.1168 19.5197 51.6415 19.3585 51.2694 19.0338L48.9999 17.0523C48.3851 16.5156 47.6499 16.1409 46.8599 15.9561C46.5175 15.6283 46.165 15.3121 45.7964 15.0125C44.7339 14.1489 43.5829 13.4183 42.3462 12.8216C43.5335 12.3181 44.8276 12.0779 46.1227 12.1358C48.0749 12.2229 49.9612 12.9792 51.4335 14.2647L53.703 16.2462C54.4719 16.9169 54.551 18.0881 53.8802 18.857ZM25.7576 24.7293C26.0818 24.7293 26.3991 24.5662 26.5819 24.2696C26.8618 23.8149 26.7203 23.2197 26.2656 22.9392L23.9217 21.4951C23.4665 21.2151 22.8713 21.3566 22.5913 21.8113C22.3113 22.2655 22.4528 22.8612 22.907 23.1411L23.7958 23.689C23.4649 23.8421 23.2343 24.1769 23.2343 24.5656V25.9584C23.2343 26.4922 23.6674 26.9252 24.2011 26.9252C24.7354 26.9252 25.1679 26.4922 25.1679 25.9584V24.5656C25.1679 24.5546 25.1669 24.544 25.1664 24.5334L25.2515 24.5858C25.4096 24.683 25.5848 24.7293 25.7576 24.7293Z" fill="black"/>
</g>
<defs>
<clipPath id="clip0_1591_25328">
<rect width="65.9999" height="66" fill="white"/>
</clipPath>
</defs>
</svg>
