<svg width="66" height="66" viewBox="0 0 66 66" fill="none" xmlns="http://www.w3.org/2000/svg">
<g clip-path="url(#clip0_1591_25140)">
<path d="M16.1877 53.5948C14.6932 53.5948 13.1529 53.2509 11.5093 52.5797C10.184 52.0383 9.54854 50.5252 10.0893 49.2004C10.6306 47.8751 12.1443 47.2396 13.4691 47.7804C15.9022 48.7739 18.1153 49.1626 22.5394 44.4847C23.5228 43.4449 25.1633 43.3986 26.2036 44.382C27.2434 45.3659 27.2893 47.0065 26.3058 48.0463C22.7453 51.8113 19.5886 53.5948 16.1877 53.5948Z" fill="#495059"/>
<path d="M25.6182 63.8378C23.9429 63.8378 22.5235 62.5477 22.3915 60.8488C22.0527 56.4927 22.1886 53.2403 22.8618 49.6234C23.1891 47.864 24.881 46.7038 26.6394 47.0306C28.3988 47.3579 29.5594 49.0493 29.2321 50.8087C28.6626 53.8697 28.5559 56.544 28.852 60.3462C28.9909 62.1303 27.6571 63.6892 25.873 63.8277C25.7874 63.8348 25.7023 63.8378 25.6182 63.8378Z" fill="#DDAF89"/>
<path d="M40.382 63.8378C40.2974 63.8378 40.2128 63.8348 40.1272 63.8278C38.3432 63.6893 37.0093 62.1303 37.1483 60.3463C37.4444 56.5441 37.3376 53.8698 36.7681 50.8087C36.4408 49.0494 37.6015 47.358 39.3609 47.0307C41.1192 46.7024 42.8111 47.864 43.1384 49.6234C43.8117 53.2403 43.9476 56.4927 43.6087 60.8488C43.4763 62.5473 42.0573 63.8378 40.382 63.8378Z" fill="#DDAF89"/>
<path d="M18.0987 42.8936C15.2481 42.8936 12.3754 42.0914 9.83458 40.5627C6.94728 38.8255 4.631 36.2176 3.48041 33.4069C2.80214 31.7512 3.59471 29.8594 5.25086 29.1812C6.9065 28.5029 8.7988 29.2955 9.47656 30.9516C10.7289 34.0096 14.8176 36.9382 19.2367 36.337C21.0096 36.0968 22.6426 37.338 22.8838 39.1115C23.1245 40.8844 21.8828 42.5174 20.1098 42.7581C19.4436 42.8487 18.7719 42.8936 18.0987 42.8936Z" fill="#DDAF89"/>
<path d="M57.6941 49.506C56.5576 49.506 55.4554 48.9068 54.8617 47.8443C52.1537 42.9922 50.2885 42.7878 46.3267 42.7878C44.5371 42.7878 43.0869 41.3371 43.0869 39.5475C43.0869 37.7584 44.5371 36.3077 46.3267 36.3077C51.5338 36.3077 56.1956 36.9382 60.52 44.6861C61.3921 46.2486 60.8327 48.2225 59.2702 49.0946C58.7702 49.3731 58.2284 49.506 57.6941 49.506Z" fill="#DDAF89"/>
<path d="M43.0869 39.5475C43.0869 41.3371 44.5371 42.7878 46.3267 42.7878C47.9864 42.7878 49.2779 42.8251 50.418 43.2234C50.7397 41.9957 50.9109 40.7147 50.9109 39.3975C50.9109 38.4483 50.8213 37.5177 50.6516 36.6124C49.2507 36.3591 47.8111 36.3077 46.3267 36.3077C44.5371 36.3077 43.0869 37.7584 43.0869 39.5475Z" fill="#D1A582"/>
<path d="M43.1384 49.6234C42.8111 47.864 41.1192 46.7029 39.3609 47.0307C37.6015 47.358 36.4408 49.0493 36.7681 50.8087C37.0541 52.347 37.2233 53.7877 37.2833 55.323C39.589 54.8028 41.7199 53.8733 43.579 52.623C43.4733 51.63 43.3277 50.641 43.1384 49.6234Z" fill="#D1A582"/>
<path d="M26.6391 47.0306C24.8807 46.7038 23.1888 47.864 22.8615 49.6234C22.6722 50.641 22.5266 51.63 22.4209 52.6229C24.28 53.8732 26.4109 54.8028 28.7162 55.3229C28.7766 53.7876 28.9458 52.347 29.2318 50.8087C29.5591 49.0493 28.3984 47.3579 26.6391 47.0306Z" fill="#D1A582"/>
<path d="M19.2365 36.3375C17.9299 36.5152 16.6529 36.3823 15.4691 36.0308C15.2203 37.118 15.0884 38.2439 15.0884 39.3975C15.0884 40.5154 15.2117 41.6075 15.4454 42.6629C16.3251 42.8155 17.2128 42.8936 18.0985 42.8936C18.7718 42.8936 19.4435 42.8488 20.1097 42.7581C21.8826 42.5174 23.1244 40.8844 22.8837 39.1115C22.6425 37.338 21.0095 36.0968 19.2365 36.3375Z" fill="#D1A582"/>
<path d="M48.7946 39.3975C48.7946 31.509 41.7229 25.1141 33.0001 25.1141C24.2768 25.1141 17.2056 31.509 17.2056 39.3975C17.2056 47.2865 24.2768 53.6814 33.0001 53.6814C41.7229 53.6814 48.7946 47.2865 48.7946 39.3975Z" fill="#DDAF89"/>
<path d="M19.0752 46.1414C21.7384 50.6289 26.9742 53.6814 33.0001 53.6814C39.0255 53.6814 44.2618 50.6289 46.9245 46.1414H19.0752Z" fill="#7F9AE6"/>
<path d="M47.2647 30.2265C43.394 33.4386 38.4226 35.3702 32.9999 35.3702C27.5768 35.3702 22.6054 33.4386 18.7347 30.2265C17.9114 31.2925 17.2255 32.4527 16.7054 33.6883C15.9964 35.3712 16.65 37.3219 18.2251 38.2464C22.5606 40.7913 27.6095 42.2515 32.9999 42.2515C38.3903 42.2515 43.4393 40.7913 47.7748 38.2464C49.3494 37.3219 50.0035 35.3712 49.2945 33.6883C48.7743 32.4532 48.088 31.2925 47.2647 30.2265Z" fill="#495059"/>
<path d="M25.8068 34.1863C23.2 33.3011 20.8092 31.9481 18.7351 30.2265C17.9118 31.2925 17.2255 32.4527 16.7053 33.6883C15.9963 35.3712 16.6504 37.3219 18.225 38.2464C20.4793 39.5697 22.9276 40.5964 25.5157 41.2802C24.5661 39.3753 24.835 36.5147 25.8068 34.1863Z" fill="#41464F"/>
<path d="M27.1701 12.659C26.5387 12.659 25.9012 12.4661 25.3508 12.0668L21.5365 9.29584C19.8663 8.08281 17.6135 8.18352 16.0585 9.54156L13.561 11.7219C12.2709 12.8478 10.3126 12.7149 9.18671 11.4253C8.06079 10.1357 8.19323 8.17747 9.4833 7.05106L11.9804 4.87073C13.7815 3.29817 16.0887 2.37367 18.477 2.26642C20.8658 2.15967 23.2461 2.87469 25.1801 4.27957L28.995 7.05005C30.3802 8.05663 30.6874 9.99525 29.6813 11.3805C29.0745 12.2154 28.1289 12.659 27.1701 12.659Z" fill="#495059"/>
<path d="M38.83 12.659C37.8712 12.659 36.9256 12.2154 36.3193 11.3805C35.3127 9.99528 35.6204 8.05665 37.0051 7.05058L40.82 4.2796C42.7541 2.87472 45.1353 2.1607 47.5231 2.26695C49.9114 2.3737 52.2186 3.2987 54.0193 4.87075L56.5168 7.05159C57.8064 8.1775 57.9393 10.1358 56.8134 11.4253C55.687 12.7154 53.7287 12.8478 52.4391 11.7219L49.9416 9.54109C48.3867 8.18354 46.1338 8.08233 44.4636 9.29586L40.6493 12.0668C40.0989 12.4662 39.4614 12.659 38.83 12.659Z" fill="#495059"/>
<path d="M33.0001 37.2116C48.7372 37.2116 55.8296 30.0025 53.616 19.8516C51.2378 8.9429 43.7451 2.97192 33.0001 2.97192C22.255 2.97192 14.7624 8.9429 12.3837 19.8516C10.1706 30.0025 17.263 37.2116 33.0001 37.2116Z" fill="#7F9AE6"/>
<path d="M12.4141 26.6816C13.4574 30.5558 16.4147 33.5962 21.225 35.3938C22.2497 33.3253 21.6283 30.4284 19.5371 28.3372C17.4238 26.2238 14.4866 25.611 12.4141 26.6816Z" fill="#A2D3EE"/>
<path d="M53.5858 26.6816C52.5425 30.5558 49.5852 33.5962 44.7749 35.3938C43.7502 33.3253 44.3716 30.4284 46.4628 28.3372C48.5761 26.2238 51.5133 25.611 53.5858 26.6816Z" fill="#A2D3EE"/>
<path d="M37.4119 42.808C37.4119 45.2446 35.4365 47.22 32.9999 47.22C30.5633 47.22 28.5879 45.2446 28.5879 42.808C28.5879 40.3713 30.5633 38.3959 32.9999 38.3959C35.4365 38.3959 37.4119 40.3713 37.4119 42.808Z" fill="#F6E06A"/>
<path d="M24.4226 21.0797C24.4226 18.991 22.2962 17.2976 19.6732 17.2976C17.0498 17.2976 14.9233 18.991 14.9233 21.0797C14.9233 23.1689 17.0498 24.8618 19.6732 24.8618C22.2962 24.8618 24.4226 23.1689 24.4226 21.0797Z" fill="#FFDBDB"/>
<path d="M26.7541 16.4683C26.7541 18.85 24.823 20.7811 22.4412 20.7811C20.059 20.7811 18.1284 18.85 18.1284 16.4683C18.1284 14.086 20.059 12.1555 22.4412 12.1555C24.823 12.1555 26.7541 14.086 26.7541 16.4683Z" fill="#DDAF89"/>
<path d="M51.0759 21.0797C51.0759 18.991 48.9495 17.2976 46.3265 17.2976C43.7036 17.2976 41.5771 18.991 41.5771 21.0797C41.5771 23.1689 43.7036 24.8618 46.3265 24.8618C48.9495 24.8618 51.0759 23.1689 51.0759 21.0797Z" fill="#FFDBDB"/>
<path d="M47.8717 16.4683C47.8717 18.85 45.9407 20.7811 43.5589 20.7811C41.1772 20.7811 39.2461 18.85 39.2461 16.4683C39.2461 14.086 41.1772 12.1555 43.5589 12.1555C45.9407 12.1555 47.8717 14.086 47.8717 16.4683Z" fill="#DDAF89"/>
<path d="M35.4909 17.9537C33.8579 17.5262 32.1418 17.5262 30.5088 17.9537C29.8326 18.1305 29.2434 18.5469 28.8507 19.125C28.3195 19.9055 28.6246 20.9765 29.4872 21.3602L31.8805 22.4242C32.593 22.7409 33.4067 22.7409 34.1192 22.4242L36.512 21.3602C37.3746 20.9765 37.6798 19.9055 37.149 19.125C36.7563 18.5469 36.1666 18.1305 35.4909 17.9537Z" fill="#495059"/>
<path d="M37.9587 29.8403C37.9587 27.1015 35.7386 26.2576 32.9999 26.2576C30.2611 26.2576 28.041 27.1015 28.041 29.8403C28.041 32.579 30.2611 34.7991 32.9999 34.7991C35.7386 34.7991 37.9587 32.579 37.9587 29.8403Z" fill="#D16283"/>
<path d="M32.9999 30.8645C31.3398 30.8645 29.7788 31.1742 28.4102 31.718C29.1499 33.5252 30.9258 34.7992 32.9999 34.7992C35.074 34.7992 36.8495 33.5252 37.5897 31.718C36.2211 31.1742 34.6601 30.8645 32.9999 30.8645Z" fill="#FFDBDB"/>
<path d="M35.1171 11.1343V3.05299C34.4262 2.99962 33.7207 2.97192 33.0002 2.97192C32.2796 2.97192 31.5742 2.99962 30.8833 3.05299V11.1343C30.8833 12.3035 31.831 13.2512 33.0002 13.2512C34.1694 13.2512 35.1171 12.3035 35.1171 11.1343Z" fill="#A2D3EE"/>
<path d="M22.4412 21.7479C19.5303 21.7479 17.1616 19.3792 17.1616 16.4683C17.1616 13.5568 19.5303 11.1887 22.4412 11.1887C25.3522 11.1887 27.7209 13.5568 27.7209 16.4683C27.7209 19.3792 25.3522 21.7479 22.4412 21.7479ZM22.4412 13.1223C20.5963 13.1223 19.0952 14.6233 19.0952 16.4683C19.0952 18.3127 20.5963 19.8143 22.4412 19.8143C24.2862 19.8143 25.7873 18.3127 25.7873 16.4683C25.7873 14.6233 24.2862 13.1223 22.4412 13.1223Z" fill="white"/>
<path d="M43.5589 21.7479C40.6474 21.7479 38.2793 19.3792 38.2793 16.4683C38.2793 13.5568 40.6474 11.1887 43.5589 11.1887C46.4699 11.1887 48.8385 13.5568 48.8385 16.4683C48.8385 19.3792 46.4699 21.7479 43.5589 21.7479ZM43.5589 13.1223C41.7139 13.1223 40.2129 14.6233 40.2129 16.4683C40.2129 18.3127 41.7139 19.8143 43.5589 19.8143C45.4039 19.8143 46.9049 18.3127 46.9049 16.4683C46.9049 14.6233 45.4039 13.1223 43.5589 13.1223Z" fill="white"/>
<path d="M22.3914 60.8488C22.5233 62.5477 23.9428 63.8378 25.6181 63.8378C25.7027 63.8378 25.7873 63.8348 25.8729 63.8277C27.6569 63.6893 28.9908 62.1303 28.8518 60.3463C28.7743 59.3508 28.7249 58.4338 28.7038 57.5657L22.2212 57.4036C22.2398 58.4872 22.2962 59.6232 22.3914 60.8488Z" fill="#495059"/>
<path d="M43.6085 60.8488C43.4766 62.5477 42.0571 63.8378 40.3819 63.8378C40.2973 63.8378 40.2122 63.8348 40.1271 63.8277C38.343 63.6893 37.0092 62.1303 37.1481 60.3463C37.2257 59.3508 37.275 58.4338 37.2962 57.5657L43.7792 57.4036C43.7601 58.4872 43.7037 59.6232 43.6085 60.8488Z" fill="#495059"/>
<path d="M61.0659 46.0583C60.5473 45.9374 60.0261 46.2602 59.9047 46.7804C59.7597 47.4033 59.3569 47.939 58.799 48.2502C58.4601 48.439 58.0779 48.5392 57.6937 48.5392C56.8694 48.5392 56.1075 48.0921 55.7062 47.373C53.5989 43.5975 51.8098 42.388 49.5157 42.0013C49.6763 41.1548 49.7614 40.2852 49.7614 39.3975C49.7614 38.8667 49.7292 38.3315 49.6683 37.8002C49.7458 37.6925 49.8188 37.5817 49.8863 37.4684C52.7323 37.8511 55.7495 39.0072 58.737 43.597C58.9223 43.8815 59.2325 44.0361 59.5482 44.0361C59.729 44.0361 59.9118 43.9857 60.0749 43.8795C60.5226 43.5884 60.649 42.9897 60.3579 42.5421C57.0779 37.5026 53.6034 36.0872 50.5142 35.6058C50.5953 34.8888 50.5087 34.1471 50.2358 33.4406C50.9785 32.8328 51.6432 32.1697 52.2227 31.4496C54.7515 28.31 55.5602 24.2283 54.5607 19.6456C53.9927 17.0398 53.1452 14.6973 52.0259 12.6298C52.753 13.1802 53.6155 13.4511 54.4756 13.4511C55.61 13.4511 56.739 12.9808 57.5416 12.0613C59.016 10.3719 58.8418 7.79781 57.1529 6.32295L54.6553 4.14211C52.6905 2.42655 50.1728 1.41746 47.566 1.30064C45.1641 1.19137 42.7642 1.8505 40.7491 3.1582C38.396 2.39131 35.8073 2.00509 33.0001 2.00509C30.1929 2.00509 27.6042 2.39131 25.2511 3.1582C23.2359 1.8505 20.8356 1.19137 18.4337 1.30064C15.8274 1.41746 13.3097 2.42655 11.3449 4.14262L8.84729 6.32295C7.15792 7.79781 6.98369 10.3719 8.45856 12.0613C9.2612 12.9808 10.3901 13.4516 11.5241 13.4516C12.3842 13.4516 13.2472 13.1802 13.9738 12.6298C12.855 14.6973 12.0075 17.0398 11.4395 19.6456C10.44 24.2283 11.2487 28.3105 13.7775 31.4501C14.357 32.1702 15.0212 32.8333 15.7639 33.4411C15.566 33.9537 15.4663 34.4849 15.4578 35.0121C12.9612 34.1737 11.0629 32.2729 10.3715 30.5855C9.94602 29.5452 9.14086 28.7335 8.10407 28.2994C7.06829 27.8654 5.92475 27.8609 4.88443 28.2864C2.73784 29.1655 1.70659 31.6273 2.58577 33.7734C3.8134 36.772 6.2742 39.5485 9.33623 41.391C11.6762 42.7989 14.2976 43.6302 16.9573 43.8165C17.2745 44.7692 17.692 45.6822 18.198 46.5462C18.2257 46.6056 18.259 46.6615 18.2967 46.7134C18.3088 46.7325 18.3209 46.7517 18.3325 46.7713C16.492 47.8157 15.28 47.4758 13.8344 46.8856C12.0171 46.1434 9.93645 47.018 9.19423 48.8348C8.8347 49.7145 8.83974 50.6818 9.20783 51.5585C9.57592 52.4351 10.2632 53.1154 11.1434 53.4744C12.9345 54.2061 14.5841 54.5616 16.1874 54.5616C17.9573 54.5616 19.6744 54.1195 21.3935 53.2171C21.2213 55.195 21.2032 57.2188 21.3306 59.4867C21.3598 60.0013 21.7858 60.3991 22.2948 60.3991C22.3135 60.3991 22.3316 60.3986 22.3502 60.3976C22.8835 60.3674 23.2913 59.9112 23.2611 59.3779C23.2425 59.0436 23.2274 58.7173 23.2153 58.3955L27.7698 58.5098C27.7965 59.1186 27.8358 59.7531 27.8877 60.4213C27.9345 61.0265 27.7431 61.6142 27.3484 62.0754C26.9536 62.5366 26.4032 62.8171 25.797 62.8639C25.236 62.9078 24.6851 62.7451 24.238 62.4017C23.8145 62.0769 23.2078 62.1565 22.8825 62.5799C22.5572 63.0034 22.6372 63.6102 23.0607 63.9355C23.8014 64.504 24.6856 64.8046 25.6177 64.8046C25.7275 64.8046 25.8387 64.8006 25.9475 64.792C27.0679 64.7044 28.0871 64.1862 28.8177 63.3327C29.5483 62.4787 29.9028 61.3916 29.8152 60.2712C29.6344 57.9499 29.6093 56.116 29.7397 54.3576C30.7946 54.5475 31.8842 54.6482 32.9996 54.6482C34.1149 54.6482 35.2051 54.5475 36.26 54.3576C36.3899 56.1165 36.3647 57.9499 36.184 60.2712C36.0969 61.3916 36.4514 62.4787 37.1815 63.3327C37.9121 64.1862 38.9313 64.7049 40.0512 64.792C40.1609 64.8001 40.2717 64.8046 40.3815 64.8046C42.5623 64.8046 44.4028 63.1001 44.5719 60.9243C44.8791 56.9801 44.797 53.8707 44.295 50.6551C45.6546 49.5247 46.8097 48.1933 47.703 46.7134C47.7407 46.6615 47.774 46.6061 47.8012 46.5467C48.2961 45.7023 48.7065 44.811 49.0212 43.8815C50.9125 44.1589 52.2051 45.0688 54.0174 48.3157C54.7601 49.6465 56.1685 50.4728 57.6932 50.4728C58.4067 50.4728 59.1147 50.288 59.7406 49.9391C60.7728 49.363 61.5191 48.3716 61.7875 47.2195C61.9093 46.6993 61.5861 46.1796 61.0659 46.0583ZM47.4799 3.23222C49.6507 3.3299 51.7469 4.17031 53.3839 5.59886L55.8815 7.77969C56.7672 8.55312 56.8588 9.90362 56.0854 10.7898C55.3114 11.6756 53.9615 11.7667 53.0752 10.9938L50.5777 8.81295C49.9039 8.22482 49.1013 7.81695 48.2407 7.62006C47.8601 7.25449 47.4653 6.90403 47.0554 6.57069C45.8378 5.58073 44.512 4.7514 43.085 4.08169C44.4581 3.46334 45.9688 3.16575 47.4799 3.23222ZM12.925 10.9933C12.0387 11.7672 10.6887 11.6756 9.9148 10.7898C9.14136 9.90362 9.2325 8.55312 10.1187 7.77969L12.6163 5.59886C14.2528 4.17031 16.3495 3.3299 18.5203 3.23222C20.0324 3.16424 21.543 3.46233 22.9157 4.08169C21.4882 4.7514 20.1628 5.58073 18.9448 6.57069C18.5349 6.90403 18.1401 7.25449 17.76 7.61956C16.8989 7.81695 16.0958 8.22482 15.4225 8.81345L12.925 10.9933ZM10.3332 39.7343C7.62017 38.1019 5.4484 35.6622 4.37485 33.0408C3.90001 31.8811 4.45743 30.5508 5.61708 30.0759C6.17903 29.8453 6.79688 29.8478 7.35732 30.0825C7.91725 30.3171 8.35231 30.7557 8.58193 31.3182C9.72043 34.0967 12.6969 36.4336 15.9392 37.1471C16.0514 37.3747 16.1829 37.5933 16.3319 37.8002C16.271 38.3315 16.2388 38.8667 16.2388 39.398C16.2388 40.2253 16.3128 41.037 16.4528 41.8291C14.3172 41.5843 12.2235 40.8713 10.3332 39.7343ZM27.9954 40.8411C24.7164 40.256 21.5979 39.1054 18.7147 37.413C17.7328 36.8365 17.2403 35.7105 17.4321 34.63C20.6805 36.6431 25.0568 37.8234 30.3867 38.1094C29.3056 38.7127 28.4541 39.6784 27.9954 40.8411ZM33.0001 39.3632C34.8994 39.3632 36.4453 40.9086 36.4453 42.8079C36.4453 44.7078 34.9 46.2532 33.0001 46.2532C31.1002 46.2532 29.5549 44.7078 29.5549 42.8079C29.5549 40.9086 31.1002 39.3632 33.0001 39.3632ZM18.1724 39.3975C18.1724 39.3753 18.1734 39.3527 18.1734 39.3305C21.1231 40.9967 24.2954 42.1408 27.6228 42.7385C27.6228 42.7616 27.6213 42.7848 27.6213 42.8079C27.6213 43.6569 27.8197 44.4601 28.1711 45.1746H19.6417C18.7006 43.4263 18.1724 41.4665 18.1724 39.3975ZM21.683 50.7971C19.8315 52.0278 18.0298 52.628 16.1879 52.628C14.8399 52.628 13.429 52.3193 11.8746 51.6843C11.4728 51.5207 11.159 51.2095 10.9909 50.8097C10.8227 50.4094 10.8207 49.9673 10.9848 49.566C11.3237 48.7361 12.2739 48.3368 13.1037 48.6757C14.852 49.3897 16.778 49.934 19.4468 48.359C20.1135 49.1913 20.8703 49.9612 21.7047 50.6546C21.6971 50.7019 21.6906 50.7493 21.683 50.7971ZM27.7265 56.5742L23.1796 56.4604C23.1856 54.8889 23.2818 53.4241 23.4741 51.9381C24.802 52.776 26.2688 53.4432 27.8358 53.9065C27.7643 54.7645 27.728 55.6437 27.7265 56.5742ZM42.6449 60.7737C42.5533 61.95 41.5593 62.871 40.382 62.871C40.3221 62.871 40.2621 62.8685 40.2022 62.8639C39.5965 62.8166 39.0456 62.5366 38.6513 62.0754C38.2565 61.6142 38.0652 61.0265 38.112 60.4213C38.1644 59.7526 38.2032 59.1186 38.2299 58.5093L42.7854 58.3955C42.7562 59.1518 42.7099 59.9399 42.6449 60.7737ZM38.2737 56.5742C38.2722 55.6437 38.2359 54.7645 38.1644 53.9065C39.7314 53.4432 41.1977 52.776 42.5256 51.9386C42.7179 53.4201 42.8151 54.8848 42.8211 56.4604L38.2737 56.5742ZM33.0001 52.7146C28.0211 52.7146 23.6076 50.499 20.9171 47.1082H29.7734C30.6727 47.7849 31.7906 48.1868 33.0001 48.1868C34.2101 48.1868 35.3275 47.7849 36.2273 47.1082H45.083C42.3926 50.499 37.9791 52.7146 33.0001 52.7146ZM46.3585 45.1746H37.8285C38.1805 44.4601 38.3789 43.6569 38.3789 42.8079C38.3789 42.7848 38.3774 42.7616 38.3769 42.7385C41.7048 42.1413 44.8771 40.9972 47.8263 39.3305C47.8268 39.3532 47.8278 39.3753 47.8278 39.398C47.8278 41.4665 47.2996 43.4263 46.3585 45.1746ZM47.2855 37.413C44.4023 39.1054 41.2838 40.256 38.0048 40.8411C37.5461 39.6784 36.6946 38.7127 35.6135 38.1094C40.9429 37.8234 45.3197 36.6431 48.568 34.63C48.7594 35.7105 48.2674 36.8365 47.2855 37.413ZM48.5504 32.3076C48.5021 32.3368 48.4583 32.3696 48.417 32.4053C44.9577 34.9265 39.7088 36.2448 33.0001 36.2448C26.2919 36.2448 21.0425 34.9265 17.5832 32.4053C17.5419 32.3701 17.4976 32.3368 17.4498 32.3076C16.6204 31.6878 15.8958 30.9974 15.283 30.2371C13.1339 27.5688 12.4582 24.0491 13.3283 20.0575C14.3117 15.5483 16.1798 11.9112 18.8894 9.2188C18.9045 9.20471 18.9186 9.1896 18.9327 9.175C19.326 8.78727 19.7363 8.41918 20.1644 8.07124C21.7007 6.82246 23.4338 5.85465 25.3508 5.17034C25.4112 5.15473 25.4697 5.13409 25.5266 5.1074C27.7733 4.32993 30.2704 3.93868 33.0001 3.93868C35.7303 3.93868 38.2273 4.32993 40.4746 5.1074C40.5305 5.13409 40.5889 5.15473 40.6489 5.16984C42.5658 5.85415 44.299 6.82195 45.8358 8.07124C46.2623 8.41767 46.6712 8.78425 47.063 9.17046C47.0786 9.18759 47.0947 9.2042 47.1118 9.21981C49.8208 11.9122 51.6885 15.5488 52.6714 20.0575C53.542 24.0491 52.8663 27.5688 50.7172 30.2371C50.1043 30.9974 49.3797 31.6878 48.5504 32.3076ZM57.9409 17.3515C58.1197 17.6632 58.445 17.8379 58.7803 17.8379C58.9435 17.8379 59.1086 17.7966 59.2602 17.7095L63.5927 15.227C64.0559 14.9612 64.2161 14.3705 63.9507 13.9073C63.6848 13.444 63.0942 13.2839 62.6309 13.5492L58.299 16.0322C57.8357 16.2976 57.6756 16.8882 57.9409 17.3515ZM4.6241 24.6432C5.03952 24.6432 5.42322 24.3728 5.54961 23.9549C5.70369 23.4438 5.41416 22.9045 4.90256 22.7504L1.24585 21.6482C0.73476 21.4936 0.195468 21.7836 0.0413849 22.2947C-0.112698 22.8063 0.176837 23.3456 0.68793 23.4997L4.34464 24.6014C4.43779 24.6296 4.53195 24.6432 4.6241 24.6432ZM2.40752 15.227L6.73998 17.71C6.89154 17.7966 7.0567 17.8379 7.21985 17.8379C7.55521 17.8379 7.881 17.6632 8.05976 17.352C8.32512 16.8887 8.16449 16.2976 7.70174 16.0322L3.36928 13.5498C2.90602 13.2839 2.31537 13.4445 2.05001 13.9073C1.78414 14.3705 1.94426 14.9617 2.40752 15.227ZM65.9588 22.2952C65.8047 21.7836 65.2654 21.4936 64.7538 21.6482L61.0976 22.7504C60.586 22.9045 60.2965 23.4438 60.4506 23.9549C60.577 24.3733 60.9607 24.6432 61.3761 24.6432C61.4682 24.6432 61.5624 24.6296 61.6556 24.602L65.3118 23.4997C65.8234 23.3456 66.1129 22.8063 65.9588 22.2952ZM22.4414 14.6626C21.9071 14.6626 21.4746 15.0956 21.4746 15.6294V17.3067C21.4746 17.8409 21.9071 18.2735 22.4414 18.2735C22.9756 18.2735 23.4082 17.8409 23.4082 17.3067V15.6294C23.4082 15.0956 22.9751 14.6626 22.4414 14.6626ZM24.8241 10.1927L22.0008 8.45292C21.5461 8.17295 20.9509 8.31445 20.6704 8.76914C20.3904 9.22334 20.5319 9.81902 20.9866 10.0995L23.8095 11.8387C23.9681 11.9359 24.1428 11.9827 24.316 11.9827C24.6403 11.9827 24.9576 11.8191 25.1403 11.523C25.4198 11.0683 25.2788 10.4726 24.8241 10.1927ZM33.9669 25.3276V23.5002C34.1522 23.4509 34.335 23.3864 34.5122 23.3074L36.9056 22.2434C37.5793 21.9438 38.0813 21.3652 38.2832 20.6562C38.4852 19.9472 38.3633 19.1909 37.9489 18.5811C37.4242 17.8097 36.6382 17.2548 35.7358 17.0181C33.9462 16.5498 32.0539 16.5498 30.2644 17.0181C29.3615 17.2548 28.5755 17.8097 28.0513 18.5811C27.6369 19.1909 27.515 19.9472 27.7164 20.6562C27.9189 21.3652 28.4209 21.9438 29.0946 22.2434L31.4875 23.3074C31.6652 23.3864 31.8475 23.4509 32.0333 23.5002V25.3276C27.7467 25.6639 27.0744 28.2536 27.0744 29.8403C27.0744 33.1078 29.7326 35.7659 33.0001 35.7659C36.2676 35.7659 38.9258 33.1078 38.9258 29.8403C38.9258 28.2536 38.2535 25.6639 33.9669 25.3276ZM29.8807 20.4764C29.6767 20.3863 29.6027 20.2181 29.5765 20.1265C29.5503 20.0343 29.5252 19.8526 29.65 19.6683C29.9119 19.2836 30.3041 19.0066 30.7543 18.8888C31.489 18.6964 32.2443 18.6003 33.0001 18.6003C33.7559 18.6003 34.5117 18.6964 35.2464 18.8888C35.6966 19.0066 36.0883 19.2836 36.3501 19.6683C36.4755 19.8526 36.4498 20.0343 36.4237 20.1265C36.3975 20.2181 36.3235 20.3863 36.12 20.4764L33.7267 21.5409C33.265 21.7459 32.7352 21.7459 32.2735 21.5409L29.8807 20.4764ZM33.0001 33.8323C30.7986 33.8323 29.008 32.0418 29.008 29.8403C29.008 29.1247 29.008 27.2244 33.0001 27.2244C36.9922 27.2244 36.9922 29.1247 36.9922 29.8403C36.9922 32.0418 35.2016 33.8323 33.0001 33.8323ZM43.5588 14.6626C43.0246 14.6626 42.592 15.0956 42.592 15.6294V17.3067C42.592 17.8409 43.0246 18.2735 43.5588 18.2735C44.0931 18.2735 44.5256 17.8409 44.5256 17.3067V15.6294C44.5256 15.0956 44.0926 14.6626 43.5588 14.6626ZM43.9994 8.45292L41.1761 10.1927C40.7214 10.4726 40.5804 11.0683 40.8604 11.523C41.0431 11.8196 41.3599 11.9827 41.6841 11.9827C41.8574 11.9827 42.0326 11.9359 42.1907 11.8387L45.0141 10.0995C45.4682 9.81902 45.6097 9.22334 45.3298 8.76914C45.0493 8.31445 44.4541 8.17346 43.9994 8.45292Z" fill="black"/>
</g>
<defs>
<clipPath id="clip0_1591_25140">
<rect width="66" height="66" fill="white"/>
</clipPath>
</defs>
</svg>
