<svg width="170" height="170" viewBox="0 0 170 170" fill="none" xmlns="http://www.w3.org/2000/svg">
<path d="M24.531 148.279C22.8462 148.279 21.0887 148.121 19.2417 147.81C16.1678 147.293 14.0938 144.377 14.6101 141.295C15.1263 138.216 18.0394 136.139 21.1121 136.655C26.7567 137.605 31.6452 137.372 38.8087 125.294C40.4015 122.611 43.8645 121.726 46.5455 123.322C49.2251 124.917 50.1058 128.387 48.5131 131.073C41.4417 142.995 34.2367 148.279 24.531 148.279Z" fill="#495059"/>
<path d="M46.2676 166.526C44.7008 166.526 43.125 166.006 41.815 164.937C38.7942 162.472 38.3402 158.018 40.802 154.991C46.2676 148.269 43.7151 139.784 42.8033 137.344C41.4362 133.687 43.2871 129.613 46.9356 128.243C50.5867 126.873 54.6516 128.728 56.0187 132.383C62.2626 149.088 54.3248 160.746 51.7424 163.922C50.3468 165.637 48.3157 166.526 46.2676 166.526Z" fill="#DDAF89"/>
<path d="M29.9266 120.829C20.409 120.829 11.0678 116.567 4.28179 108.958C1.68515 106.047 1.93417 101.578 4.83952 98.9761C7.74615 96.3744 12.2053 96.6252 14.8033 99.5362C16.5582 101.504 23.0096 107.821 32.3482 106.524C36.2029 105.988 39.7711 108.686 40.3067 112.554C40.8424 116.421 38.1472 119.992 34.2872 120.529C32.8358 120.73 31.378 120.829 29.9266 120.829Z" fill="#DDAF89"/>
<path d="M93.7208 120.708C92.7117 120.708 91.7 120.66 90.6871 120.563C86.809 120.188 83.9672 116.736 84.3394 112.849C84.713 108.962 88.1527 106.112 92.0386 106.489C101.421 107.391 107.604 100.81 109.276 98.7708C111.748 95.752 116.194 95.3153 119.206 97.7922C122.219 100.269 122.655 104.724 120.183 107.741C113.419 115.997 103.703 120.708 93.7208 120.708Z" fill="#DDAF89"/>
<path d="M77.7429 165.259C76.6884 165.259 75.6171 165.02 74.608 164.518C71.119 162.781 69.6961 158.538 71.4303 155.041C75.2824 147.276 70.9257 139.565 69.499 137.385C67.3602 134.121 68.2681 129.739 71.5262 127.596C74.7844 125.454 79.158 126.364 81.2968 129.628C91.0647 144.541 85.8869 157.666 84.0672 161.334C82.835 163.819 80.337 165.259 77.7429 165.259Z" fill="#DDAF89"/>
<path d="M100.198 105.379C97.8531 106.272 95.1203 106.785 92.0386 106.489C88.1527 106.112 84.713 108.963 84.3394 112.849C83.9672 116.736 86.809 120.188 90.6871 120.563C91.7 120.66 92.7117 120.708 93.7208 120.708C95.9815 120.708 98.2293 120.464 100.432 119.993C100.897 117.793 101.145 115.522 101.145 113.198C101.145 110.512 100.817 107.896 100.198 105.379Z" fill="#D1A582"/>
<path d="M81.2968 129.628C79.158 126.364 74.7844 125.454 71.5262 127.596C68.2681 129.739 67.3602 134.121 69.499 137.385C70.4458 138.83 72.6793 142.712 72.953 147.428C77.8661 146.146 82.3863 143.995 86.2994 141.17C85.481 137.554 83.9349 133.657 81.2968 129.628Z" fill="#D1A582"/>
<path d="M46.9353 128.243C43.2854 129.613 41.4359 133.687 42.8029 137.344C43.2634 138.574 44.1376 141.341 44.1946 144.643C48.4346 146.708 53.1402 148.075 58.126 148.57C58.6902 143.969 58.3102 138.517 56.0171 132.385C54.65 128.728 50.5851 126.873 46.9353 128.243Z" fill="#D1A582"/>
<path d="M32.3481 106.523C29.3779 106.936 26.7022 106.577 24.374 105.834C23.8267 108.211 23.5361 110.675 23.5361 113.198C23.5361 115.642 23.8059 118.028 24.3195 120.334C26.1704 120.66 28.0446 120.829 29.9266 120.829C31.378 120.829 32.8358 120.731 34.2872 120.529C38.1471 119.992 40.8424 116.421 40.3067 112.554C39.771 108.686 36.2029 105.987 32.3481 106.523Z" fill="#D1A582"/>
<path d="M96.7377 113.199C96.7377 95.9866 81.3368 82.0322 62.3405 82.0322C43.343 82.0322 27.9434 95.9866 27.9434 113.199C27.9434 130.411 43.343 144.366 62.3405 144.366C81.3368 144.366 96.7377 130.411 96.7377 113.199Z" fill="#DDAF89"/>
<path d="M93.4066 93.1875C84.976 100.196 74.1497 104.41 62.3402 104.41C50.5308 104.41 39.7032 100.196 31.2738 93.1875C29.4813 95.5137 27.9872 98.0452 26.8536 100.742C25.3101 104.414 26.7342 108.67 30.1636 110.687C39.6046 116.24 50.6008 119.426 62.3389 119.426C74.0783 119.426 85.0745 116.24 94.5156 110.687C97.9462 108.67 99.3691 104.414 97.8256 100.742C96.6933 98.0465 95.1991 95.5137 93.4066 93.1875Z" fill="#7F9AE6"/>
<path d="M46.6747 101.828C40.9977 99.8957 35.7914 96.9445 31.2738 93.1875C29.4813 95.5137 27.9872 98.0452 26.8536 100.742C25.3101 104.414 26.7342 108.67 30.1636 110.687C35.0728 113.575 40.4049 115.815 46.0405 117.307C43.973 113.15 44.5593 106.908 46.6747 101.828Z" fill="#5E78BF"/>
<path d="M49.332 52.7599C47.9221 52.7599 46.5006 52.3297 45.2723 51.4356L36.7625 45.2421C33.0348 42.5299 28.0088 42.7547 24.5393 45.7905L18.9673 50.665C16.0892 53.1822 11.7195 52.8859 9.20713 50.0023C6.69479 47.1199 6.99181 42.7418 9.86861 40.2246L15.4406 35.35C19.4588 31.8348 24.6067 29.7672 29.9362 29.5281C35.2657 29.2903 40.5757 30.8874 44.8922 34.0284L53.402 40.222C56.4929 42.4714 57.1777 46.8054 54.9338 49.9022C53.581 51.7683 51.4708 52.7599 49.332 52.7599Z" fill="#495059"/>
<path d="M75.347 52.7597C73.2082 52.7597 71.0993 51.7681 69.7452 49.902C67.5013 46.8052 68.1862 42.4712 71.277 40.2217L79.7881 34.0281C84.1033 30.8872 89.4159 29.2913 94.7441 29.5279C100.072 29.767 105.22 31.8345 109.238 35.3498L114.81 40.2243C117.689 42.7415 117.984 47.1197 115.472 50.002C112.96 52.8857 108.59 53.182 105.712 50.6648L100.14 45.7902C96.6702 42.7545 91.6442 42.5297 87.9165 45.2418L79.4067 51.4354C78.1798 52.3295 76.7569 52.7597 75.347 52.7597Z" fill="#495059"/>
<path d="M62.3404 107.647C97.4523 107.647 113.277 91.5316 108.338 68.8391C103.031 44.4533 86.3147 31.1045 62.3404 31.1045C38.3662 31.1045 21.6488 44.4533 16.3427 68.8391C11.4036 91.5316 27.2273 107.647 62.3404 107.647Z" fill="#DDAF89"/>
<path d="M76.0996 120.64C76.0996 125.957 71.7973 130.267 66.4912 130.267C61.1838 130.267 56.8828 125.957 56.8828 120.64C56.8828 115.323 61.1838 111.013 66.4912 111.013C71.7973 111.013 76.0996 115.323 76.0996 120.64Z" fill="#F6E06A"/>
<path d="M47.8113 68.67C47.8113 64.1125 43.1809 60.418 37.4688 60.418C31.7554 60.418 27.125 64.1125 27.125 68.67C27.125 73.2288 31.7554 76.9234 37.4688 76.9234C43.1809 76.9234 47.8113 73.2288 47.8113 68.67Z" fill="#FFDBDB"/>
<path d="M105.857 68.67C105.857 64.1125 101.226 60.418 95.5134 60.418C89.8013 60.418 85.1709 64.1125 85.1709 68.67C85.1709 73.2288 89.8013 76.9234 95.5134 76.9234C101.226 76.9234 105.857 73.2288 105.857 68.67Z" fill="#FFDBDB"/>
<path d="M71.9145 61.8492C68.3581 60.9161 64.6213 60.9161 61.0662 61.8492C59.5928 62.2352 58.31 63.1436 57.454 64.4054C56.297 66.1091 56.9624 68.4457 58.8405 69.2826L64.0519 71.6035C65.6032 72.2962 67.3762 72.2962 68.9288 71.6035L74.1389 69.2826C76.0183 68.4457 76.6824 66.1091 75.5267 64.4054C74.6707 63.1436 73.3879 62.2352 71.9145 61.8492Z" fill="#495059"/>
<path d="M66.4553 81.2186C61.5487 81.2186 57.179 77.7073 54.4306 82.0373C51.642 86.4298 57.8859 93.2406 66.4553 93.2406C75.0235 93.2406 81.2687 86.4298 78.4801 82.0373C75.7317 77.7073 71.362 81.2186 66.4553 81.2186Z" fill="#D16283"/>
<path d="M56.4941 89.5756C58.7951 91.6808 62.358 93.2403 66.4553 93.2403C70.5539 93.2403 74.1169 91.6808 76.4178 89.5756C73.6862 87.9434 70.2271 86.9609 66.4553 86.9609C62.6836 86.9609 59.2244 87.9434 56.4941 89.5756Z" fill="#EB9898"/>
<path d="M167.509 23.6496C167.509 34.6982 158.569 43.6546 147.542 43.6546C136.514 43.6546 127.575 34.6982 127.575 23.6496C127.575 12.6009 136.514 3.64453 147.542 3.64453C158.569 3.64453 167.509 12.6009 167.509 23.6496Z" fill="#A0D9BB"/>
<path d="M161.661 9.50435C158.823 6.66096 155.343 4.85721 151.69 4.08398C150.996 9.20935 146.784 13.2977 141.997 18.0943C138.935 21.1625 138.935 26.1371 141.997 29.2066C145.059 32.2748 150.026 32.2748 153.088 29.2066C157.875 24.41 161.956 20.1904 167.071 19.4952C166.298 15.8344 164.499 12.3464 161.661 9.50435Z" fill="#78BF9B"/>
<path d="M89.4857 53.0009C85.3936 53.0009 82.0641 56.3368 82.0641 60.4368C82.0641 61.8144 83.1782 62.932 84.5544 62.932C85.9292 62.932 87.0447 61.8144 87.0447 60.4368C87.0447 59.0879 88.1394 57.9911 89.4857 57.9911C90.8307 57.9911 91.9254 59.0879 91.9254 60.4368C91.9254 61.8144 93.0408 62.932 94.4157 62.932C95.7918 62.932 96.906 61.8144 96.906 60.4368C96.906 56.3368 93.5778 53.0009 89.4857 53.0009ZM163.421 7.73809C160.284 4.59322 156.438 2.58284 152.395 1.69266C152.275 1.65627 152.152 1.62768 152.024 1.60949C152.021 1.60949 152.017 1.60949 152.013 1.60949C144.882 0.168301 137.181 2.20857 131.662 7.73809C122.906 16.5113 122.906 30.7854 131.662 39.5585C135.211 43.114 139.713 45.3311 144.681 45.9665C144.788 45.9808 144.895 45.9873 145 45.9873C146.235 45.9873 147.306 45.0672 147.467 43.808C147.641 42.4409 146.677 41.192 145.312 41.0166C141.449 40.5228 137.947 38.7983 135.185 36.0303C128.371 29.2025 128.371 18.0941 135.185 11.2663C138.485 7.96031 142.874 6.13837 147.542 6.13837C147.874 6.13837 148.203 6.15006 148.533 6.16826C147.161 9.3911 144.092 12.4684 140.639 15.9239L140.236 16.328C136.207 20.3657 136.207 26.9335 140.236 30.9699C142.188 32.9244 144.782 34.0017 147.542 34.0017C150.303 34.0017 152.897 32.9244 154.849 30.9699L155.251 30.5657C158.702 27.1064 161.773 24.0317 164.99 22.6568C165.008 22.9855 165.019 23.3169 165.019 23.6496C165.019 28.3266 163.201 32.723 159.9 36.0303C158.647 37.2869 157.223 38.3382 155.672 39.1557C154.454 39.7976 153.986 41.3064 154.626 42.5254C155.266 43.7456 156.772 44.2147 157.988 43.5728C159.986 42.5215 161.814 41.1712 163.423 39.5598C167.664 35.3103 170 29.6587 170 23.6496C170 17.638 167.664 11.9876 163.421 7.73809ZM151.729 27.0375L151.327 27.4403C150.316 28.4527 148.971 29.0115 147.542 29.0115C146.113 29.0115 144.768 28.4527 143.757 27.4403C141.672 25.3494 141.672 21.9472 143.757 19.8563L144.161 19.4534C148.12 15.4885 151.896 11.7069 153.488 7.1741C155.87 8.03569 158.056 9.41839 159.9 11.2663C161.746 13.1156 163.126 15.304 163.986 17.6925C159.46 19.2871 155.686 23.0687 151.729 27.0375ZM43.4957 53.0009C39.4036 53.0009 36.0741 56.3368 36.0741 60.4368C36.0741 61.8144 37.1895 62.932 38.5644 62.932C39.9405 62.932 41.0547 61.8144 41.0547 60.4368C41.0547 59.0879 42.1507 57.9911 43.4957 57.9911C44.842 57.9911 45.9367 59.0879 45.9367 60.4368C45.9367 61.8144 47.0508 62.932 48.427 62.932C49.8031 62.932 50.9173 61.8144 50.9173 60.4368C50.9173 56.3368 47.5878 53.0009 43.4957 53.0009ZM70.4894 78.0585C69.9914 78.1807 69.4855 78.3042 68.981 78.4107V74.2405C69.3052 74.1404 69.6269 74.0235 69.9408 73.8831L75.1509 71.5609C76.7229 70.8617 77.8941 69.5089 78.3663 67.852C78.8371 66.1951 78.553 64.4277 77.5868 63.0021C76.3909 61.2413 74.601 59.9742 72.5452 59.4349C68.5841 58.3966 64.396 58.3966 60.4349 59.4349C58.3791 59.9742 56.5892 61.2413 55.3946 63.0008C54.427 64.4264 54.143 66.1938 54.6138 67.852C55.0846 69.5089 56.2571 70.8617 57.8278 71.5609L63.0393 73.8831C63.3532 74.0235 63.6748 74.1404 63.9991 74.2405V78.4237C63.4712 78.3146 62.942 78.1859 62.4206 78.0585C59.3441 77.3087 55.1313 76.2821 52.3284 80.6979C50.9082 82.937 50.916 85.7245 52.3531 88.3457C54.7759 92.7654 60.4426 95.7348 66.4557 95.7348C72.4674 95.7348 78.1341 92.7654 80.5569 88.3457C81.9941 85.7245 82.0031 82.937 80.5816 80.6979C77.7787 76.2821 73.566 77.3087 70.4894 78.0585ZM59.8525 67.0008C59.5529 66.867 59.4426 66.62 59.4037 66.4836C59.3661 66.3471 59.3285 66.0794 59.5127 65.8065C60.0315 65.045 60.8058 64.4953 61.6969 64.2627C63.265 63.8507 64.8772 63.6454 66.4907 63.6454C68.1029 63.6454 69.7164 63.8507 71.2845 64.2627C72.1743 64.4953 72.9499 65.0437 73.4674 65.8065C73.6529 66.0794 73.6153 66.3471 73.5763 66.4836C73.5374 66.62 73.4285 66.867 73.1276 67.0008L67.9161 69.3231C67.0108 69.7272 65.9706 69.7272 65.064 69.3231L59.8525 67.0008ZM76.1925 85.9428C74.8838 88.3288 71.1198 90.7446 66.4557 90.7446C61.7916 90.7446 58.0276 88.3288 56.7189 85.9428C56.1612 84.924 56.0976 84.0598 56.5321 83.3749C56.9692 82.6875 57.3557 82.3678 58.2118 82.3678C58.8694 82.3678 59.8006 82.5562 61.2442 82.9071C62.7916 83.2853 64.5451 83.7128 66.4557 83.7128C66.4634 83.7128 66.4712 83.7115 66.479 83.7115C66.4829 83.7115 66.4868 83.7128 66.4907 83.7128C66.5037 83.7128 66.5166 83.7102 66.5296 83.7102C68.4103 83.6998 70.1392 83.2801 71.6671 82.9071C74.9901 82.0975 75.6062 82.1586 76.3779 83.3749C76.8137 84.0598 76.7502 84.924 76.1925 85.9428ZM120.786 95.8622C116.717 92.5172 110.691 93.1111 107.351 97.1864C106.608 98.0922 104.309 100.644 100.832 102.373C100.726 101.602 100.531 100.836 100.245 100.087C102.233 98.5522 103.985 96.8472 105.488 94.9759C111.197 87.8765 113.023 78.6537 110.771 68.3068C109.597 62.9177 107.891 58.0314 105.669 53.6624C107.095 54.4642 108.677 54.8657 110.255 54.8657C112.879 54.8644 115.491 53.7741 117.347 51.6429C120.758 47.7287 120.355 41.7625 116.448 38.3447L110.876 33.4689C106.434 29.5846 100.744 27.2987 94.8541 27.0349C89.4805 26.7958 84.1108 28.2539 79.5842 31.1557C74.3416 29.4624 68.5815 28.6086 62.3402 28.6086C56.0989 28.6086 50.3388 29.4624 45.0962 31.1557C40.5709 28.2539 35.2051 26.7958 29.825 27.0349C23.9352 27.2987 18.2451 29.5846 13.8041 33.4689L8.2321 38.3434C4.32415 41.7612 3.92078 47.7274 7.33326 51.6429C9.1906 53.7741 11.8015 54.8644 14.4241 54.8644C16.0039 54.8644 17.585 54.4629 19.0117 53.6624C16.7899 58.0314 15.0817 62.9177 13.9092 68.3068C11.6575 78.6537 13.4838 87.8752 19.1907 94.9759C20.6952 96.8472 22.4475 98.5509 24.4359 100.087C24.0766 101.024 23.8613 101.988 23.7835 102.954C20.0286 101.389 17.4786 98.7926 16.6602 97.8726C13.1517 93.9415 7.10498 93.601 3.18018 97.1162C-0.744631 100.63 -1.08315 106.689 2.42401 110.621C8.93638 117.922 17.8521 122.444 27.1181 123.207C28.109 126.105 29.5176 128.837 31.2816 131.342C27.7355 134.894 25.0455 134.787 21.524 134.195C17.0999 133.451 12.8962 136.452 12.1543 140.882C11.4111 145.315 14.4059 149.526 18.8288 150.271C20.8159 150.605 22.7342 150.775 24.5305 150.775C31.0974 150.775 36.6357 148.588 41.6734 143.954C41.8186 146.488 41.4581 149.484 39.7447 152.198C39.0106 153.364 39.3569 154.905 40.5203 155.641C40.9328 155.903 41.3932 156.028 41.8485 156.028C42.6734 156.028 43.4814 155.616 43.9561 154.865C46.3427 151.079 46.8394 147.02 46.6449 143.656C49.5217 144.896 52.5995 145.807 55.8226 146.334C55.3829 154.602 51.5463 160.214 49.8122 162.346C48.9406 163.417 47.6488 164.032 46.2674 164.032C45.2078 164.032 44.2129 163.676 43.3893 163.004C43.0067 162.691 42.6799 162.324 42.4192 161.914C41.6798 160.751 40.1416 160.41 38.9807 161.148C37.8199 161.888 37.4788 163.43 38.2168 164.593C38.7641 165.455 39.4451 166.22 40.2427 166.871C41.9405 168.258 44.0806 169.021 46.2674 169.021C49.152 169.021 51.8511 167.737 53.6735 165.498C55.7124 162.991 60.2053 156.432 60.7838 146.827C61.3 146.847 61.8188 146.86 62.3402 146.86C65.073 146.86 67.7358 146.584 70.3014 146.068C70.7579 148.891 70.3921 151.528 69.2002 153.931C68.0653 156.218 67.8876 158.812 68.6995 161.234C69.5115 163.655 71.2158 165.615 73.4998 166.752C74.8345 167.417 76.2612 167.754 77.7437 167.754C81.3948 167.754 84.6724 165.72 86.2963 162.445C87.7114 159.595 91.8268 149.658 87.8566 137.485C92.3638 133.54 95.7763 128.562 97.6388 122.976C106.989 121.9 115.827 116.99 122.109 109.324C125.447 105.247 124.854 99.2085 120.786 95.8622ZM94.6323 32.0199C99.3989 32.2343 104.005 34.0836 107.6 37.2284L113.172 42.103C115.011 43.7118 115.201 46.5188 113.596 48.3603C111.99 50.2017 109.189 50.3927 107.35 48.7839L101.778 43.9107C100.261 42.5838 98.4507 41.6547 96.5026 41.1933C95.6673 40.3941 94.8074 39.6209 93.9099 38.8906C91.3612 36.8139 88.6024 35.0504 85.6452 33.6001C88.4792 32.4358 91.5545 31.8809 94.6323 32.0199ZM17.3294 48.7852C15.4916 50.3927 12.69 50.203 11.0843 48.3603C9.47854 46.5188 9.6692 43.7118 11.5071 42.103L17.0791 37.2284C20.6745 34.0836 25.2802 32.2343 30.0481 32.0199C33.1221 31.8822 36.1986 32.4358 39.0339 33.6014C36.0767 35.0517 33.3192 36.8139 30.7705 38.8906C29.873 39.6222 29.0131 40.3941 28.1778 41.1933C26.2297 41.6547 24.419 42.5838 22.9028 43.9107L17.3294 48.7852ZM6.1374 107.295C4.46034 105.414 4.62247 102.517 6.49927 100.837C8.37607 99.1552 11.2684 99.3176 12.9455 101.198C14.5175 102.96 18.6926 107.025 24.9015 108.577C25.1181 109.003 25.3645 109.415 25.6395 109.81C25.5163 110.937 25.4527 112.071 25.4527 113.198C25.4527 114.844 25.585 116.462 25.8367 118.047C18.4449 117.01 11.402 113.197 6.1374 107.295ZM30.0922 107.424C30.0883 107.42 30.0844 107.416 30.0818 107.412C29.026 106.199 28.5474 104.566 28.7965 102.968C36.7667 107.476 47.475 109.915 60.479 110.127C58.0198 111.544 56.1015 113.8 55.1183 116.504C46.7136 115.518 38.7525 112.845 31.4242 108.535C30.9106 108.232 30.467 107.853 30.0922 107.424ZM66.4907 113.507C70.4155 113.507 73.6088 116.707 73.6088 120.639C73.6088 124.572 70.4155 127.771 66.4907 127.771C62.5659 127.771 59.3726 124.572 59.3726 120.639C59.3726 116.707 62.5659 113.507 66.4907 113.507ZM24.5292 145.784C23.0091 145.784 21.3684 145.638 19.6537 145.348C17.9378 145.06 16.7769 143.428 17.0649 141.708C17.3528 139.99 18.9832 138.827 20.6991 139.116C24.8885 139.822 29.3775 140.045 34.4502 135.206C35.8977 136.731 37.4943 138.136 39.2168 139.404C34.8406 143.797 30.2206 145.784 24.5292 145.784ZM81.8371 160.223C81.0589 161.79 79.4908 162.764 77.7424 162.764C77.0368 162.764 76.3559 162.602 75.7164 162.284C74.6243 161.74 73.8085 160.803 73.4207 159.645C73.0316 158.485 73.1172 157.246 73.6607 156.152C75.3779 152.69 75.8695 148.796 75.1263 144.774C78.1626 143.746 81.0122 142.365 83.6127 140.683C86.1458 150.293 82.9681 157.944 81.8371 160.223ZM62.3402 141.87C44.9393 141.87 30.7485 129.286 30.4411 113.714C37.9068 117.845 45.9561 120.438 54.4218 121.445C54.8369 127.754 60.0899 132.761 66.4907 132.761C73.1613 132.761 78.5894 127.323 78.5894 120.639C78.5894 120.392 78.579 120.148 78.5647 119.906C84.0356 118.523 89.2924 116.446 94.2393 113.711C93.9332 129.285 79.7424 141.87 62.3402 141.87ZM94.5986 107.412C94.5947 107.416 94.5921 107.42 94.5882 107.424C94.2121 107.853 93.7685 108.232 93.2549 108.534C88.2418 111.484 82.8631 113.684 77.243 115.094C76.042 112.767 74.1133 110.876 71.7579 109.73C81.3974 108.85 89.5155 106.57 95.8826 102.968C96.133 104.566 95.6544 106.199 94.5986 107.412ZM95.9345 97.0681C95.8074 97.1383 95.6881 97.2189 95.5791 97.3086C87.9215 102.461 76.627 105.151 62.3402 105.151C48.0521 105.151 36.7563 102.461 29.1 97.3073C28.991 97.2189 28.873 97.1396 28.7472 97.0681C26.537 95.5373 24.6369 93.7946 23.0701 91.8466C18.3411 85.9623 16.856 78.1911 18.7756 69.3699C20.9469 59.3946 25.0753 51.3622 30.9249 45.4519C31.0702 45.3375 31.1999 45.2063 31.3153 45.0633C35.2686 41.1842 39.9872 38.2577 45.401 36.3305C45.5022 36.3032 45.6008 36.2668 45.698 36.2265C50.6812 34.4955 56.2416 33.5988 62.3402 33.5988C68.4375 33.5988 73.9992 34.4955 78.9824 36.2265C79.0796 36.2668 79.1769 36.3032 79.2781 36.3305C84.6919 38.2564 89.4105 41.1829 93.3638 45.062C93.4792 45.205 93.6102 45.3375 93.7568 45.4532C99.6051 51.3635 103.734 59.3959 105.905 69.3699C107.824 78.1911 106.339 85.9623 101.61 91.8466C100.043 93.7946 98.1446 95.536 95.9345 97.0681ZM118.258 106.158C113.208 112.321 106.285 116.433 98.8878 117.752C99.1096 116.262 99.2277 114.742 99.2277 113.198C99.2277 112.073 99.1641 110.937 99.0409 109.81C99.4196 109.264 99.7465 108.686 100.015 108.083C105.915 106.193 109.761 102.109 111.199 100.353C112.797 98.4041 115.679 98.1195 117.626 99.7205C119.572 101.32 119.856 104.208 118.258 106.158ZM131.921 49.7235C130.564 49.4844 129.275 50.3901 129.036 51.7469L126.712 64.9553C126.473 66.3133 127.377 67.6064 128.731 67.8455C128.878 67.8715 129.023 67.8845 129.167 67.8845C130.352 67.8845 131.403 67.032 131.617 65.8221L133.941 52.6136C134.18 51.2569 133.276 49.9626 131.921 49.7235ZM148.639 63.7831C147.283 63.5453 145.993 64.4498 145.755 65.8078L140.581 95.2085C140.341 96.5652 141.246 97.8596 142.6 98.0987C142.747 98.1247 142.892 98.1364 143.035 98.1364C144.222 98.1364 145.272 97.2852 145.485 96.0753L150.659 66.6733C150.897 65.3166 149.993 64.0223 148.639 63.7831Z" fill="black"/>
</svg>
