<svg width="170" height="170" viewBox="0 0 170 170" fill="none" xmlns="http://www.w3.org/2000/svg">
<g clip-path="url(#clip0_223_13446)">
<path d="M19.3991 140.048C15.0282 140.048 10.6353 138.828 5.98556 136.436C2.82607 134.811 1.58225 130.934 3.20609 127.775C4.83123 124.617 8.70925 123.373 11.8674 124.997C17.6676 127.98 23.054 129.418 35.002 118.811C37.6582 116.453 41.723 116.695 44.081 119.351C46.4402 122.007 46.1989 126.072 43.5414 128.43C34.7166 136.266 27.0929 140.048 19.3991 140.048Z" fill="#495059"/>
<path d="M78.6927 167.509C78.4826 167.509 78.2725 167.501 78.0598 167.484C73.6331 167.139 70.3232 163.272 70.6682 158.845C71.4023 149.411 71.1377 142.775 69.7253 135.179C68.9121 130.814 71.7927 126.617 76.1584 125.804C80.5241 124.992 84.7199 127.871 85.5318 132.238C87.2023 141.212 87.5408 149.282 86.6991 160.093C86.3709 164.307 82.8496 167.509 78.6927 167.509Z" fill="#DDAF89"/>
<path d="M49.7533 167.509C49.5431 167.509 49.333 167.501 49.1203 167.484C44.6937 167.139 41.3837 163.272 41.7287 158.845C42.4628 149.411 42.1982 142.775 40.7858 135.179C39.9726 130.813 42.8532 126.616 47.2176 125.804C51.5859 124.992 55.7804 127.871 56.5923 132.237C58.2629 141.212 58.6014 149.284 57.7596 160.093C57.4315 164.308 53.9101 167.509 49.7533 167.509Z" fill="#DDAF89"/>
<path d="M104.543 130.089C100.323 130.089 94.3904 128.721 88.6162 122.742C85.5307 119.549 85.6189 114.459 88.8121 111.375C92.0066 108.289 97.096 108.379 100.18 111.572C102.622 114.1 104.181 114.031 104.694 114.008C106.941 113.907 110.102 111.723 112.748 108.443C115.535 104.986 120.598 104.445 124.053 107.232C127.508 110.02 128.05 115.082 125.263 118.537C121.936 122.661 114.934 129.644 105.412 130.071C105.132 130.083 104.842 130.089 104.543 130.089Z" fill="#DDAF89"/>
<path d="M47.2176 125.805C42.8532 126.618 39.9726 130.815 40.7858 135.18C41.3708 138.326 41.756 141.309 41.9583 144.392C46.8104 147.212 52.3083 149.179 58.1993 150.07C58.2252 143.81 57.7064 138.224 56.5936 132.238C55.7804 127.872 51.5859 124.993 47.2176 125.805Z" fill="#D1A582"/>
<path d="M87.0506 145.343C86.8586 140.902 86.3593 136.68 85.5318 132.238C84.7199 127.872 80.5241 124.993 76.1584 125.805C71.7927 126.617 68.9121 130.814 69.7253 135.18C70.6708 140.264 71.1001 144.921 71.0612 150.271C76.8147 149.585 82.2192 147.873 87.0506 145.343Z" fill="#D1A582"/>
<path d="M109.105 112.032C107.515 113.234 105.96 113.952 104.694 114.009C104.181 114.032 102.622 114.101 100.18 111.573C97.096 108.38 92.0066 108.292 88.8121 111.376C85.6189 114.461 85.5307 119.551 88.6162 122.744C93.9676 128.285 99.4552 129.864 103.59 130.067C106.878 124.692 108.849 118.56 109.105 112.032Z" fill="#D1A582"/>
<path d="M104.557 110.588C104.557 91.0129 87.0095 75.1455 65.3652 75.1455C43.7196 75.1455 26.1738 91.0129 26.1738 110.588C26.1738 130.163 43.7196 146.031 65.3652 146.031C87.0095 146.031 104.557 130.163 104.557 110.588Z" fill="#DDAF89"/>
<path d="M99.2062 88.9139C88.943 96.0163 76.2363 99.7166 62.8319 98.5428C49.4261 97.3703 37.5547 91.5209 28.6819 82.7441C26.4161 85.2006 24.4693 87.9204 22.9155 90.862C20.8001 94.8684 21.9933 99.832 25.6872 102.458C35.853 109.687 48.0176 114.388 61.3429 115.554C74.6683 116.719 87.4644 114.201 98.7315 108.849C102.825 106.905 104.862 102.224 103.475 97.9099C102.455 94.7439 101.01 91.7271 99.2062 88.9139Z" fill="#7F9AE6"/>
<path d="M45.3056 94.0617C39.054 91.3082 33.4367 87.447 28.6819 82.7441C26.4161 85.2006 24.4693 87.9204 22.9155 90.862C20.8001 94.8684 21.9933 99.832 25.6872 102.458C30.9737 106.217 36.8037 109.285 43.0527 111.535C41.1176 106.619 42.4016 99.6064 45.3056 94.0617Z" fill="#5E78BF"/>
<path d="M57.0462 33.1761C55.3096 33.0244 53.6027 32.3422 52.1864 31.1113L42.3668 22.5771C38.0673 18.8392 31.8495 18.5746 27.2477 21.9338L19.8574 27.3267C16.0404 30.1126 10.6903 29.2761 7.90431 25.4603C5.11836 21.6433 5.95493 16.2919 9.77069 13.5059L17.161 8.11303C22.4903 4.22334 29.0557 2.23505 35.6471 2.5165C42.2397 2.79665 48.6106 5.33487 53.591 9.66164L63.4106 18.1972C66.976 21.2957 67.3548 26.7003 64.2549 30.2657C62.3873 32.4148 59.6817 33.407 57.0462 33.1761Z" fill="#495059"/>
<path d="M89.1002 35.9794C86.4634 35.7485 83.9719 34.3024 82.505 31.8614C80.0718 27.8109 81.3831 22.5555 85.4336 20.1223L96.5852 13.4234C102.241 10.0252 108.959 8.63486 115.498 9.50125C122.037 10.3702 128.158 13.4675 132.731 18.2235L139.072 24.8188C142.347 28.2247 142.241 33.6396 138.835 36.9145C135.429 40.1894 130.014 40.0831 126.739 36.6772L120.398 30.082C116.449 25.9757 110.28 25.156 105.397 28.0898L94.2441 34.79C92.6345 35.7563 90.8356 36.1311 89.1002 35.9794Z" fill="#495059"/>
<path d="M67.1674 102.078C110.431 105.863 131.662 87.7501 128.019 59.3109C124.103 28.7499 104.941 10.5323 75.402 7.94866C45.8629 5.36375 23.8295 19.977 14.6662 49.3941C6.13978 76.7685 23.9034 98.2921 67.1674 102.078Z" fill="#DDAF89"/>
<path d="M85.8637 119.157C85.8637 125.203 80.9623 130.105 74.9157 130.105C68.8691 130.105 63.9678 125.203 63.9678 119.157C63.9678 113.111 68.8691 108.21 74.9157 108.21C80.9623 108.21 85.8637 113.111 85.8637 119.157Z" fill="#F6E06A"/>
<path d="M54.5429 49.7477C54.9956 44.5844 50.1059 39.9385 43.6209 39.3705C37.1372 38.8037 31.5148 42.5286 31.0621 47.6933C30.6107 52.8566 35.5004 57.5024 41.9841 58.0692C48.4691 58.6373 54.0916 54.9111 54.5429 49.7477Z" fill="#FFDBDB"/>
<path d="M96.9517 53.449C96.5004 58.6124 101.39 63.2595 107.874 63.8263C114.357 64.3944 119.981 60.6681 120.433 55.5048C120.884 50.3414 115.994 45.6956 109.511 45.1275C103.027 44.5594 97.4044 48.2857 96.9517 53.449Z" fill="#FFDBDB"/>
<path d="M82.5811 44.412C78.6369 43.0022 74.3957 42.63 70.2661 43.3342C68.5566 43.6261 67.0106 44.5262 65.9134 45.8699C64.4322 47.6857 64.9549 50.399 67.0041 51.5338L72.6902 54.6816C74.3828 55.6194 76.3944 55.7945 78.2245 55.1654L84.3696 53.0526C86.5849 52.2913 87.5706 49.709 86.428 47.6649C85.581 46.1513 84.214 44.9957 82.5811 44.412Z" fill="#495059"/>
<path d="M72.4711 89.0539C63.9408 88.3081 57.522 82.0332 58.1341 75.0386C58.7463 68.0452 66.1574 62.9804 74.6864 63.7262C99.7107 65.9155 131.99 82.936 148.144 111.295C151.022 116.347 150.875 122.576 147.766 127.489C144.416 132.782 137.635 134.73 131.986 132.022L130.199 131.165C125.653 128.984 120.28 129.46 116.186 132.403C112.407 135.122 107.085 132.624 106.813 127.977C105.988 113.898 100.257 91.4857 72.4711 89.0539Z" fill="#A0D9BB"/>
<path d="M43.4781 138.624C43.2433 138.624 43.006 138.613 42.7686 138.593C33.3757 137.77 26.0594 133.34 22.1658 126.117C17.7482 117.921 18.8546 108.539 21.9103 102.875C24.0179 98.967 28.8946 97.5092 32.8025 99.6168C36.7103 101.726 38.1695 106.602 36.0605 110.51C35.2136 112.081 34.8323 115.727 36.3199 118.488C36.7959 119.371 38.2434 122.056 44.1707 122.575C48.5934 122.961 51.8657 126.861 51.4779 131.284C51.1122 135.47 47.6012 138.624 43.4781 138.624Z" fill="#C49B7A"/>
<path d="M58.3672 78.3428C59.6473 83.9108 65.3152 88.4295 72.4707 89.0546C100.256 91.4865 105.988 113.899 106.811 127.977C107.084 132.625 112.407 135.123 116.185 132.404C118.12 131.012 120.342 130.18 122.627 129.911C113.722 83.2428 74.6328 78.9809 58.3672 78.3428Z" fill="#F6E06A"/>
<path d="M148.145 111.295C131.989 82.936 99.7108 65.9156 74.6866 63.7262C68.579 63.1919 63.046 65.638 60.1719 69.6379C108.934 73.2708 138.207 101.484 141.88 132.364C144.235 131.432 146.32 129.773 147.766 127.489C150.873 122.576 151.023 116.347 148.145 111.295Z" fill="#7F9AE6"/>
<path d="M156.03 83.127C151.223 83.127 145.558 87.0426 145.558 90.7494C145.558 94.4575 147.275 98.2551 154.656 99.7038C162.039 101.153 166.159 96.0022 167.189 93.2552C168.219 90.5081 167.36 83.127 156.03 83.127Z" fill="#7F9AE6"/>
<path d="M109.847 139.725C105.506 139.322 101.536 140.244 100.311 143.885C99.4559 146.423 101.896 151.873 107.286 153.204C112.676 154.536 117.26 151.736 117.971 147.908C118.68 144.081 115.287 140.231 109.847 139.725Z" fill="#F6E06A"/>
<path d="M168.274 85.7152C166.668 83.3975 163.24 80.6362 156.03 80.6362C150.195 80.6362 143.068 85.3028 143.068 90.7488C143.068 98.3674 149.109 101.152 154.176 102.147C155.224 102.352 156.223 102.446 157.175 102.446C163.882 102.446 168.165 97.7461 169.521 94.1288C170.322 91.994 170.248 88.5634 168.274 85.7152ZM164.857 92.3805C164.198 94.1392 161.166 98.4413 155.136 97.2598C151.632 96.5711 148.048 95.2598 148.048 90.7488C148.048 88.9097 152.071 85.6166 156.03 85.6166C160.031 85.6166 162.85 86.6309 164.18 88.5517C165.179 89.994 165.126 91.6658 164.857 92.3805ZM110.077 137.245C101.508 136.448 98.8012 140.565 97.9504 143.089C97.3317 144.928 97.7066 147.382 98.953 149.653C100.59 152.635 103.409 154.811 106.69 155.622C107.784 155.892 108.887 156.025 109.967 156.025C112.282 156.025 114.497 155.414 116.328 154.234C118.526 152.817 119.979 150.731 120.418 148.361C120.845 146.059 120.256 143.703 118.761 141.725C116.863 139.214 113.699 137.581 110.077 137.245ZM115.522 147.453C115.335 148.46 114.663 149.382 113.63 150.047C112.093 151.038 109.998 151.308 107.884 150.787C105.14 150.108 103.778 148.092 103.319 147.256C102.609 145.963 102.575 144.962 102.67 144.679C103.35 142.661 105.693 142.124 107.994 142.124C108.546 142.124 109.094 142.155 109.617 142.203C111.846 142.411 113.731 143.332 114.788 144.727C115.242 145.328 115.737 146.289 115.522 147.453ZM149.554 113.952C148.199 114.184 147.289 115.472 147.522 116.828C148.079 120.067 147.418 123.38 145.66 126.157C142.986 130.382 137.571 131.939 133.064 129.777L131.275 128.918C125.905 126.344 119.566 126.905 114.731 130.381C113.696 131.127 112.387 131.242 111.232 130.692C110.094 130.152 109.37 129.082 109.298 127.831C109.063 123.813 108.404 118.737 106.795 113.541C106.762 113.397 106.718 113.257 106.662 113.123C105.878 110.668 104.878 108.192 103.608 105.794C103.587 105.755 103.568 105.717 103.544 105.679C103.022 104.699 102.455 103.732 101.836 102.785C95.5548 93.1703 85.7469 87.7152 72.6875 86.5725C69.1337 86.2625 65.912 84.854 63.615 82.6089C61.4503 80.4922 60.3842 77.8814 60.615 75.2562C60.8433 72.6298 62.3465 70.2434 64.8458 68.5365C67.4982 66.7233 70.9158 65.8971 74.4696 66.2071C86.1879 67.233 99.2137 71.5832 111.145 78.4585C114.959 80.6569 118.593 83.0706 122.021 85.6724C122.043 85.6893 122.065 85.7061 122.089 85.723C130.451 92.0796 137.578 99.5567 143.044 107.769C143.807 108.915 145.353 109.225 146.498 108.462C147.642 107.701 147.954 106.155 147.191 105.009C141.791 96.8979 134.869 89.4739 126.793 83.0719C130.409 76.2056 131.658 68.1215 130.488 58.9932C129.51 51.363 127.622 44.4552 124.846 38.3036L124.942 38.4034C126.988 40.5292 129.737 41.7328 132.688 41.7912C132.762 41.7925 132.836 41.7925 132.91 41.7925C135.777 41.7925 138.487 40.703 140.559 38.7095C142.686 36.6642 143.889 33.9145 143.947 30.9639C144.005 28.0145 142.911 25.2195 140.867 23.0924L134.524 16.4972C129.562 11.3365 122.921 7.97596 115.824 7.03304C109.255 6.16276 102.503 7.39879 96.6651 10.5194C90.3785 7.83458 83.3488 6.14201 75.6187 5.46627C67.8886 4.79054 60.6721 5.23541 54.0146 6.78791C48.8072 2.69978 42.3728 0.309422 35.7516 0.027974C28.6 -0.274226 21.4743 1.88008 15.6922 6.1005L8.30195 11.4947C3.38244 15.0848 2.30204 22.0081 5.89213 26.9276C8.05163 29.8874 11.4173 31.458 14.8284 31.458C17.0865 31.458 19.3653 30.768 21.3251 29.3375L21.4366 29.2557C17.6351 34.8328 14.5768 41.3087 12.2889 48.6523C8.45629 60.9582 9.68844 72.3211 15.8544 81.5142C17.4562 83.902 19.3666 86.1186 21.5715 88.1626C21.2732 88.6711 20.9853 89.1834 20.7129 89.6996C18.9568 93.0251 18.9723 96.9822 20.6351 100.278C20.2979 100.718 19.9892 101.188 19.7181 101.693C16.6702 107.341 15.3732 116.329 18.735 124.659C16.8764 124.56 15.128 123.873 13.0062 122.782C8.63138 120.533 3.24236 122.262 0.992072 126.637C-0.0974057 128.756 -0.297143 131.172 0.430472 133.441C1.15938 135.71 2.72745 137.56 4.84675 138.651C9.93357 141.265 14.6935 142.538 19.4004 142.538C23.9554 142.538 28.4677 141.345 33.1576 138.898C35.0162 139.642 37.0032 140.214 39.1017 140.603C39.6594 145.207 39.7723 149.836 39.4662 155.364C39.391 156.737 40.4428 157.912 41.8163 157.988C41.863 157.99 41.9084 157.992 41.9551 157.992C43.2677 157.992 44.3662 156.964 44.4402 155.639C44.6879 151.138 44.6736 147.19 44.3805 143.37C47.9226 145.259 51.7202 146.642 55.689 147.496C55.772 151.268 55.6371 155.264 55.2766 159.899C55.0535 162.771 52.6268 165.019 49.7527 165.019C49.6074 165.019 49.4596 165.013 49.313 165.002C48.217 164.916 47.1833 164.514 46.3234 163.84C45.2417 162.991 43.6762 163.179 42.8267 164.261C41.9785 165.343 42.1665 166.908 43.2482 167.758C44.885 169.041 46.8474 169.806 48.9278 169.967C49.2015 169.989 49.479 169.999 49.754 169.999C55.2117 169.999 59.8187 165.733 60.2428 160.286C60.5891 155.844 60.7318 151.955 60.6851 148.281C62.2272 148.435 63.7875 148.521 65.3659 148.521C66.4372 148.521 67.5047 148.481 68.5643 148.408C68.6097 151.479 68.4865 154.801 68.1869 158.652C67.7368 164.441 72.0792 169.517 77.8677 169.967C78.1413 169.989 78.4202 169.999 78.6939 169.999C84.1516 169.999 88.7586 165.733 89.1827 160.286C89.7391 153.147 89.7806 147.319 89.3124 141.638C90.7157 140.741 92.0646 139.764 93.3499 138.704C95.7792 136.7 97.9193 134.465 99.7428 132.049C101.324 132.401 102.932 132.581 104.544 132.581C104.879 132.581 105.204 132.573 105.526 132.559C105.644 132.554 105.766 132.542 105.885 132.534C106.691 133.647 107.778 134.564 109.093 135.19C110.269 135.751 111.512 136.027 112.744 136.027C114.464 136.027 116.165 135.487 117.641 134.426C120.997 132.013 125.396 131.624 129.122 133.411L130.911 134.268C137.696 137.522 145.847 135.179 149.87 128.822C152.289 125 153.199 120.441 152.432 115.984C152.197 114.628 150.911 113.716 149.554 113.952ZM97.6676 105.51C97.8427 105.778 98.0139 106.051 98.1813 106.324C98.0126 106.423 97.8401 106.515 97.6625 106.599C93.7935 108.437 89.7456 109.92 85.6082 111.017C85.4798 110.848 85.3475 110.682 85.21 110.519C82.9026 107.769 79.6627 106.083 76.0869 105.769C70.4307 105.275 65.279 108.378 62.8861 113.174C62.436 113.144 61.9911 113.11 61.5592 113.073C53.8823 112.401 46.4661 110.505 39.4843 107.436C39.7619 103.437 37.736 99.4491 33.9851 97.4245C30.9968 95.8136 27.5701 95.8006 24.6869 97.0873C24.1551 95.4336 24.2835 93.6035 25.1175 92.0251C25.2329 91.8059 25.3523 91.588 25.4742 91.3701C35.2224 98.5101 49.2767 103.011 66.9496 104.557C70.8133 104.895 74.5383 105.064 78.1167 105.064C84.638 105.064 90.6639 104.496 96.1424 103.379C96.6754 104.06 97.1839 104.769 97.6676 105.51ZM74.179 127.581C71.9274 127.384 69.8886 126.323 68.4372 124.593C66.9846 122.861 66.2933 120.669 66.4904 118.419C66.8756 114.022 70.576 110.698 74.9092 110.698C75.1557 110.698 75.4034 110.71 75.6524 110.732C77.9027 110.927 79.9416 111.99 81.3942 113.72C82.8469 115.45 83.5382 117.643 83.341 119.894C82.9338 124.538 78.8236 127.988 74.179 127.581ZM73.8963 52.5018L68.2102 49.354C67.7602 49.1049 67.6214 48.7029 67.5799 48.485C67.5384 48.2684 67.5163 47.8443 67.8432 47.4435C68.5591 46.5667 69.5682 45.9779 70.6849 45.7885C71.9015 45.581 73.1311 45.4785 74.3593 45.4785C76.8677 45.4785 79.3696 45.9079 81.7418 46.7561C82.8092 47.1374 83.7003 47.8923 84.2528 48.8806C84.5057 49.3306 84.4097 49.7444 84.3306 49.9506C84.2515 50.1581 84.0466 50.529 83.5589 50.6964L77.4137 52.8092C76.2529 53.2099 74.9702 53.0971 73.8963 52.5018ZM115.169 11.9707C121.152 12.7645 126.752 15.5984 130.936 19.9485L137.277 26.5437C138.4 27.7123 139 29.2467 138.968 30.8666C138.937 32.4866 138.277 33.9963 137.108 35.1195C135.941 36.2414 134.408 36.8419 132.786 36.812C131.166 36.7796 129.657 36.1194 128.534 34.9508L122.193 28.3569C120.491 26.5878 118.391 25.2843 116.081 24.5464C115.116 23.44 114.108 22.3726 113.053 21.3493C109.863 18.2572 106.319 15.6023 102.439 13.3857C106.487 11.9058 110.874 11.4013 115.169 11.9707ZM18.3887 25.3142C15.6883 27.2856 11.8868 26.6929 9.91541 23.9912C7.94398 21.2909 8.538 17.4894 11.2383 15.518L18.6286 10.1238C23.504 6.56612 29.5091 4.74903 35.5402 5.00324C39.8696 5.18871 44.1017 6.4468 47.8331 8.60889C43.627 10.116 39.6763 12.116 35.9967 14.6075C34.7788 15.4324 33.6012 16.3078 32.4585 17.23C30.0565 17.5556 27.7621 18.4738 25.779 19.9213L18.3887 25.3142ZM19.9918 78.74C14.6935 70.8413 13.6754 60.9504 17.0437 50.1335C20.8426 37.9404 26.8698 28.3634 34.9941 21.5905C35.046 21.5503 35.0966 21.5062 35.1459 21.4621C36.3171 20.4932 37.5324 19.5828 38.7892 18.7319C43.3325 15.6542 48.3493 13.4026 53.8058 11.9772C53.9744 11.9499 54.1404 11.9084 54.3012 11.8475C60.6838 10.2457 67.6616 9.7684 75.1855 10.4286C82.712 11.0861 89.503 12.7696 95.512 15.4557C95.6573 15.5413 95.809 15.6101 95.9673 15.6645C101.094 18.016 105.645 21.1054 109.586 24.9251C110.677 25.9821 111.715 27.0898 112.7 28.2467C112.741 28.2999 112.783 28.3517 112.828 28.401C119.652 36.4813 123.925 46.9597 125.548 59.6262C126.541 67.3848 125.604 74.2329 122.762 80.0305C119.844 77.9345 116.797 75.967 113.632 74.1434C101.913 67.39 89.1412 62.9504 77.38 61.5068L77.6991 57.8648C78.1491 57.7818 78.5953 57.6703 79.0337 57.5198L85.1789 55.407C86.935 54.8026 88.3215 53.4628 88.9842 51.7275C89.647 49.9934 89.5069 48.0699 88.6003 46.4487C87.4603 44.4098 85.6198 42.8521 83.4188 42.0662C79.0817 40.5149 74.3891 40.1051 69.8484 40.8794C67.5449 41.2711 65.4619 42.4851 63.9846 44.2957C62.8108 45.7341 62.3387 47.6043 62.6902 49.4279C63.0417 51.2502 64.174 52.8118 65.7978 53.7119L71.4826 56.8597C71.8885 57.0841 72.3088 57.2721 72.7381 57.4316L72.4099 61.1735C68.6097 61.2811 64.995 62.4017 62.0365 64.4237C58.283 66.9892 56.0159 70.6817 55.654 74.8217C55.2921 78.9618 56.8823 82.9915 60.1338 86.1705C63.2518 89.2184 67.5566 91.1237 72.2543 91.5348C80.297 92.2378 86.9052 94.7669 91.9998 99.0704C84.7249 100.212 76.4708 100.391 67.3841 99.5956C49.4297 98.025 35.5635 93.3519 26.5948 85.9448C26.4729 85.819 26.3354 85.7022 26.1823 85.6011C26.1811 85.5998 26.1798 85.5998 26.1798 85.5985C23.7336 83.5194 21.6623 81.2328 19.9918 78.74ZM19.4004 137.557C15.5042 137.557 11.4887 136.465 7.12427 134.22C6.18784 133.739 5.49525 132.922 5.17359 131.919C4.85194 130.917 4.94013 129.849 5.42132 128.914C6.41482 126.98 8.7961 126.216 10.7286 127.21C13.5859 128.679 16.9516 130.14 21.3017 129.49C23.0164 132.026 25.1512 134.188 27.6493 135.937C24.84 137.023 22.1137 137.557 19.4004 137.557ZM42.9849 136.111C42.4428 136.063 41.9084 136.004 41.3819 135.93C41.3819 135.93 41.3806 135.93 41.3793 135.93C33.6258 134.849 27.6181 130.986 24.3575 124.935C20.3796 117.555 21.3627 109.132 24.1007 104.057C25.1032 102.2 27.0189 101.144 28.9942 101.144C29.8827 101.144 30.7841 101.358 31.6194 101.808C34.3119 103.261 35.321 106.634 33.8684 109.327C32.561 111.75 32.3003 116.28 34.1278 119.669C35.8268 122.821 39.1329 124.634 43.9525 125.056C47.0005 125.323 49.2637 128.019 48.9965 131.067C48.7345 134.07 46.0381 136.377 42.9849 136.111ZM84.2165 159.899C83.9934 162.77 81.5667 165.019 78.6926 165.019C78.5473 165.019 78.3995 165.012 78.2529 165.002C75.2024 164.764 72.9132 162.089 73.1505 159.038C73.4799 154.804 73.6058 151.168 73.5344 147.785C77.3593 147.093 81.0492 145.917 84.5044 144.29C84.7716 149.015 84.6769 153.98 84.2165 159.899ZM96.678 127.777C96.6651 127.795 96.6534 127.812 96.6417 127.83C94.8765 130.406 92.7092 132.775 90.1788 134.862C83.3942 140.457 74.5811 143.54 65.3646 143.54C63.0754 143.54 60.8251 143.348 58.6254 142.985C58.5658 142.974 58.5048 142.962 58.4426 142.954C54.9653 142.363 51.6255 141.324 48.4907 139.858C51.5101 138.233 53.6372 135.171 53.9588 131.502C54.4647 125.718 50.1703 120.6 44.387 120.095C39.7982 119.693 38.8294 117.896 38.5116 117.306C37.6154 115.645 37.7127 113.42 38.046 112.239C45.3597 115.383 53.1106 117.333 61.126 118.035C61.257 118.047 61.3919 118.056 61.5242 118.067C61.235 121.613 62.3323 125.066 64.6215 127.795C66.9288 130.543 70.1687 132.231 73.7445 132.543C74.1414 132.578 74.5344 132.595 74.9261 132.595C81.8106 132.595 87.6911 127.312 88.302 120.328C88.4447 118.698 88.2916 117.09 87.8675 115.559C91.9583 114.413 95.9621 112.922 99.7999 111.099C100.028 110.991 100.249 110.873 100.468 110.752C100.983 111.942 101.433 113.144 101.827 114.345C101.22 119.14 99.4497 123.715 96.678 127.777ZM102.687 127.497C103.176 126.602 103.627 125.689 104.037 124.761C104.149 125.75 104.233 126.698 104.293 127.595C103.756 127.587 103.22 127.555 102.687 127.497ZM45.0653 42.5979C45.5569 43.1855 46.2625 43.4877 46.9732 43.4877C47.5387 43.4877 48.1068 43.297 48.5724 42.9053L50.3376 41.4241L51.8175 43.1894C52.3104 43.7756 53.0159 44.0791 53.7267 44.0791C54.2922 44.0791 54.8602 43.8871 55.3259 43.4954C56.3803 42.6122 56.5165 41.0415 55.6333 39.9871L54.1521 38.2232L55.9173 36.7433C56.9705 35.8587 57.1079 34.2881 56.2234 33.2349C55.3401 32.1818 53.7695 32.0443 52.715 32.9275L50.9511 34.4087L49.4699 32.6435C48.5867 31.5903 47.016 31.4529 45.9616 32.3374C44.9084 33.2207 44.7709 34.7913 45.6555 35.8458L47.1353 37.6097L45.3714 39.0896C44.3183 39.9741 44.1808 41.5448 45.0653 42.5979ZM97.2656 47.1659C97.7584 47.7522 98.464 48.0544 99.1748 48.0544C99.7389 48.0544 100.307 47.8637 100.774 47.472L102.538 45.9922L104.019 47.7561C104.512 48.3436 105.217 48.6458 105.928 48.6458C106.492 48.6458 107.06 48.4538 107.527 48.0635C108.581 47.1789 108.718 45.6082 107.834 44.5551L106.354 42.7899L108.118 41.31C109.172 40.4255 109.309 38.8548 108.425 37.8016C107.54 36.7485 105.97 36.611 104.917 37.4943L103.153 38.9754L101.671 37.2102C100.788 36.1571 99.2163 36.0196 98.1631 36.9041C97.1099 37.7874 96.9725 39.3593 97.857 40.4125L99.3369 42.1764L97.573 43.6576C96.5185 44.5408 96.3823 46.1115 97.2656 47.1659Z" fill="black"/>
</g>
<defs>
<clipPath id="clip0_223_13446">
<rect width="170" height="170" fill="white"/>
</clipPath>
</defs>
</svg>
