<svg width="48" height="48" viewBox="0 0 48 48" fill="none" xmlns="http://www.w3.org/2000/svg">
<circle cx="23.9998" cy="24" r="23.25" fill="#F6E06A" stroke="#333333" stroke-width="1.5"/>
<path d="M17.9529 10.4414C16.6802 10.9125 16.5818 11.018 16.3357 10.7578L16.2443 10.5469L15.3302 10.8773L14.4724 11.1797L14.5076 11.3906C14.5076 11.5453 14.4443 11.6016 14.3669 11.6719C14.2966 11.7352 13.8748 11.932 13.4177 12.0938C12.7076 12.3539 12.4544 12.5016 12.3982 12.6562C12.349 12.8039 12.6443 13.507 13.5232 16.207C14.1208 18.0422 14.6763 19.6383 14.7185 19.6523C14.8169 19.6805 15.8787 18.7313 16.4412 18.0352C17.7912 16.3828 18.9021 14.2313 19.4294 12.1289C19.5419 11.6789 19.6123 11.3555 19.6755 11.2852C19.7318 11.2219 19.9076 11.0602 20.0974 10.9688C20.2943 10.8773 20.6248 10.7156 20.6248 10.6875C20.6248 10.5891 19.549 9.97734 19.3591 9.98438C19.2466 9.98438 18.5716 10.2164 17.9529 10.4414Z" fill="#D6A16F"/>
<path d="M27.9373 10.3008C27.7333 10.4203 27.3748 10.6594 27.3748 10.6875C27.3748 10.7086 27.6701 10.9125 27.8669 11.0039C28.0568 11.0953 28.2326 11.1867 28.2888 11.25C28.3521 11.3203 28.4927 11.6789 28.6052 12.1289C29.1326 14.2172 30.131 16.3125 31.4529 17.9297C31.6919 18.218 33.1826 19.793 33.2107 19.793C33.2388 19.793 34.0544 17.8313 34.5466 16.3125C35.2146 14.2594 35.524 13.4578 35.4958 13.2891C35.4466 12.9938 35.8052 12.4945 35.5662 12.375C35.2708 12.2203 28.7248 9.98438 28.6052 9.98438C28.5419 9.99141 28.1341 10.1742 27.9373 10.3008Z" fill="#D6A16F"/>
<path d="M23.0154 27.1758C22.5935 27.2883 22.1294 27.5836 22.0662 27.7383C22.024 27.8578 23.6833 30.6422 23.824 30.6914C23.8732 30.7125 24.1193 30.7125 24.1755 30.6914C24.3162 30.6352 25.9123 27.7875 25.863 27.668C25.7013 27.2391 23.9787 26.9156 23.0154 27.1758Z" fill="#D6A16F"/>
<path d="M17.8896 33.9961L17.5662 34.8398L17.8123 35.0859C18.3748 35.6906 19.6544 36.4641 20.7302 36.8086C21.8904 37.1883 22.6709 37.2656 23.9998 37.2656C25.3216 37.2727 26.1584 37.139 27.1638 36.8086C27.9123 36.7843 30.5324 35.0919 30.4334 34.8047C30.4334 34.7484 29.7162 33.1805 29.6599 33.082C29.6459 33.0609 28.338 34.1086 28.0427 34.2422C27.7474 34.3828 27.3185 34.5164 27.1287 34.5586C26.8193 34.6289 26.6013 35.0156 26.6013 35.0156L25.6169 33.5L23.9998 33.711L22.3826 33.5L21.363 34.9805C21.363 34.9805 21.124 34.6359 20.906 34.5937C20.2591 34.4742 19.0708 33.757 18.656 33.293C18.5787 33.2156 18.4029 33.0469 18.3748 33.0469C18.3466 33.0469 18.0584 33.5742 17.8896 33.9961Z" fill="#D6A16F"/>
<path d="M23.0154 10.9688C22.3755 11.0531 21.6443 11.2641 21.0115 11.5313L20.3716 11.8125L20.2029 12.3399C19.6474 14.6391 18.4099 17.0438 16.7927 18.9141L16.3357 19.4766L16.863 22.6758C17.1373 24.4406 17.4044 25.9945 17.4255 26.1L17.531 26.4727L17.9177 26.1C18.2904 25.6359 19.0146 24.9469 19.2537 24.8203C19.6052 24.6375 19.8513 24.7852 19.8513 25.207C19.8513 25.2703 19.6966 25.4461 19.3591 25.8047C18.656 26.543 18.2833 27.0844 17.988 27.7031C17.2005 29.3766 17.9318 31.7531 19.5349 32.9766C20.3787 33.6235 21.4544 33.982 22.3474 33.9258C22.7412 33.9047 22.931 33.8203 23.1208 33.6445C23.4443 33.3422 23.5779 32.9203 23.5779 32.2664V31.6055L23.1912 31.2891C22.7974 30.9234 21.4263 28.4063 21.363 27.9844C21.2365 27.2109 21.4826 26.8031 22.488 26.4727C23.0435 26.2899 23.2193 26.2617 23.9998 26.2617C24.7802 26.2617 24.9208 26.2899 25.4763 26.4727C26.4818 26.8031 26.7982 27.1688 26.6716 27.9492C26.6083 28.3711 25.174 30.8461 24.7732 31.2188L24.4568 31.5352L24.3513 32.2664C24.3513 32.9203 24.4568 33.3492 24.7732 33.6445C24.9349 33.7992 25.2794 33.8977 25.5466 33.9258C25.863 33.9539 26.4607 33.8766 26.988 33.736C28.2537 33.3984 29.5896 31.9219 29.8708 31.3594C30.1521 30.7969 30.4755 29.693 30.3982 29.1797C30.3349 28.8 30.2224 28.3008 30.0115 27.5977L29.0271 26.325L28.4294 25.7695C27.8599 25.2141 27.888 25.2281 28.1482 24.8906C28.3451 24.6445 28.4154 24.7219 28.7388 24.9609L29.0271 25.207L30.4685 26.7188C30.4896 26.6133 31.5865 21.5438 31.8748 19.7227L30.4685 17.9648L30.0115 17.2266C29.3787 16.2633 28.5419 14.6602 28.1833 13.5703L27.8669 12.0234L27.1638 11.5313C25.6451 10.6031 25.1529 10.9406 24.3162 10.8984C23.9154 10.8844 23.2896 10.9266 23.0154 10.9688ZM20.8708 19.4063C21.2927 19.6172 21.588 19.9195 21.8552 20.3906C22.1365 20.8758 22.2138 20.9953 21.9607 21.1992C21.588 21.4945 21.5529 21.4172 21.0818 20.6719C20.8005 20.236 20.3787 20.0461 19.9216 20.0391C19.6615 20.0391 19.4435 20.0813 19.2185 20.2149C18.8107 20.4539 18.6349 20.4539 18.4451 20.2149C18.1779 19.8774 18.2693 19.807 18.6912 19.5469C19.1482 19.2656 19.3662 19.1742 19.9919 19.1953C20.449 19.2024 20.6177 19.2867 20.8708 19.4063ZM29.0974 19.4063C29.7302 19.7367 29.8216 19.8211 29.4841 20.1797C29.2873 20.3906 29.1748 20.4047 28.781 20.1797C28.556 20.0461 28.338 20.0039 28.0779 20.0039C27.6208 20.011 27.199 20.236 26.9177 20.6719C26.4466 21.4172 26.4115 21.4945 26.0388 21.1992C25.4974 20.7703 26.3904 19.8985 27.3044 19.3008C27.7193 19.1391 28.7037 19.2024 29.0974 19.4063Z" fill="#D6A16F"/>
<path d="M15.0349 41.8429C15.2107 40.2961 15.9771 38.6929 16.6873 36.8508L17.2146 35.6836L17.9529 36.2812C18.6912 36.8367 19.774 37.3008 20.7302 37.582C21.4755 37.8 22.706 38.0742 23.2193 38.0742H24.3513L25.0896 37.9336C26.3833 37.8351 27.6419 37.5187 28.7458 36.9492L30.7498 35.5781L31.4177 36.3164C31.6357 36.8508 32.4091 39.2273 32.6482 40.1133C32.9154 41.0906 33.9998 43.9613 33.9998 44.13C33.9998 44.13 29.9998 46.5 23.9998 46.5C17.9998 46.5 13.9998 44.13 13.9998 44.13C13.9998 43.9753 14.7115 43.1086 15.0349 41.8429Z" fill="#D6A16F"/>
<path d="M17.6294 9.47813C16.9263 9.73828 16.3005 9.99141 16.2373 10.0477C15.9841 10.2586 16.174 10.8141 16.5396 10.9336C16.6169 10.9547 17.1794 10.793 17.9529 10.5117C18.656 10.2586 19.2958 10.0547 19.3662 10.0547C19.4435 10.0547 19.7458 10.1953 20.0412 10.3641L20.5685 10.6805L20.1607 10.8844C19.6263 11.1586 19.5349 11.2711 19.4294 11.7773C19.1412 13.2117 18.1779 15.4477 17.2708 16.8047C16.3919 18.1125 14.8873 19.7438 14.7115 19.568C14.6412 19.4977 12.4685 12.9094 12.4685 12.7688C12.4685 12.5648 12.7005 12.4242 13.488 12.1289C14.4373 11.7773 14.606 11.6367 14.5498 11.257C14.5146 10.9758 14.3529 10.8281 14.0857 10.8281C13.8255 10.8281 12.2435 11.4117 11.9833 11.6086C11.688 11.8266 11.4138 12.3891 11.4138 12.7898C11.4138 13.0078 11.7654 14.168 12.5458 16.5516C13.1646 18.443 13.7271 20.0672 13.7833 20.1516C14.0576 20.5664 14.7607 20.7703 15.2388 20.5734C15.3935 20.5102 15.5201 20.468 15.5341 20.475C15.5412 20.4891 15.8083 22.1273 16.1318 24.1172C16.6802 27.5555 16.7154 27.8016 16.7224 28.9336C16.7294 30.3117 16.8208 30.7758 17.2498 31.6898L17.524 32.2875L16.9404 33.7359C15.1615 38.1094 14.3248 40.6828 13.706 43.6922C13.481 44.775 13.5654 45 14.1771 45C14.4654 45 14.6482 44.8242 14.6482 44.55C14.6482 44.332 15.056 42.5039 15.3302 41.4844C15.738 39.9586 16.5888 37.4344 17.1443 36.0914L17.2427 35.8594L17.8263 36.3023C19.2818 37.3992 21.1521 38.0602 23.2263 38.2008C23.4583 38.2148 23.4724 38.2289 23.4935 38.5031C23.5146 38.7844 23.5076 38.7984 23.2685 38.8406C22.8818 38.9109 22.2208 39.4031 21.9396 39.818C21.2435 40.8445 21.356 42.1523 22.2208 43.0172C22.8115 43.6008 23.5708 43.8539 24.3935 43.7203C24.9349 43.6359 25.3849 43.4109 25.7787 43.0172C26.6435 42.1523 26.756 40.8445 26.0599 39.818C25.7927 39.4172 25.1388 38.925 24.7732 38.8477C24.5693 38.8055 24.5552 38.7844 24.5763 38.5102L24.5974 38.2148L25.188 38.1656C27.1427 38.0039 28.9779 37.3008 30.3419 36.1898L30.7498 35.8594L30.8623 36.1195C31.0521 36.5906 31.8748 38.8055 31.8748 38.8758C31.8748 38.9953 32.0857 39.1078 32.3599 39.1359C32.599 39.157 32.6623 39.1289 32.7818 38.9742C32.8662 38.8758 32.9294 38.7492 32.9294 38.693C32.9294 38.5313 32.3318 36.9281 31.3826 34.5445L30.4755 32.2734L30.7498 31.6898C31.1787 30.7758 31.2701 30.3117 31.2771 28.9336C31.2841 27.8016 31.3193 27.5555 31.8677 24.1172C32.1912 22.1273 32.4584 20.4891 32.4654 20.475C32.4794 20.468 32.606 20.5102 32.7607 20.5734C33.2388 20.7703 33.9419 20.5664 34.2162 20.1516C34.399 19.8703 36.5365 13.275 36.5716 12.8883C36.6068 12.4383 36.3607 11.8617 36.0162 11.6086C35.8966 11.5172 34.2794 10.8914 32.4232 10.2234C28.1763 8.6836 28.6193 8.72578 26.9459 9.71016L26.1232 10.1883L25.5748 10.0828C25.2162 10.0055 24.6537 9.97031 23.9998 9.97031C23.3459 9.97031 22.7833 10.0055 22.4248 10.0828L21.8763 10.1883L21.0537 9.71016C19.8583 9.00703 19.8443 9 19.3451 9.00703C18.9794 9.00703 18.6841 9.09141 17.6294 9.47813ZM31.6076 11.0742C35.524 12.4945 35.3904 12.4383 35.4748 12.6211C35.538 12.7617 35.3693 13.3313 34.4763 16.0805C33.3583 19.4977 33.3162 19.6172 33.2107 19.6172C33.1052 19.6172 31.9662 18.45 31.5021 17.8664C30.8271 17.0156 30.2716 16.1367 29.7584 15.0891C29.2873 14.1258 28.7318 12.5859 28.5701 11.7773C28.4646 11.2711 28.3732 11.1586 27.8388 10.8844L27.431 10.6805L27.9443 10.3711C28.2326 10.2023 28.5349 10.0617 28.6193 10.0617C28.7107 10.0547 30.0537 10.5117 31.6076 11.0742ZM25.4341 11.1516C26.0951 11.2781 26.4818 11.3977 27.0935 11.6789L27.5576 11.8898L27.7193 12.5367C28.3029 14.8219 29.5544 17.1914 31.1505 19.0266L31.5232 19.4555L30.9958 22.8586C30.7005 24.7289 30.4474 26.3109 30.4263 26.3672C30.3982 26.4375 30.3419 26.4023 30.2084 26.2266C29.9623 25.9031 29.4841 25.432 28.9287 24.975C28.4365 24.5672 28.2396 24.532 27.9935 24.8344C27.7404 25.1227 27.8248 25.3336 28.3802 25.8328C30.3209 27.5977 30.7287 29.3555 29.674 31.3875C29.4701 31.7813 29.231 32.1047 28.8865 32.4422C28.0357 33.293 27.1076 33.7289 25.9896 33.7992C25.4623 33.8344 25.3919 33.8273 25.1037 33.6586C24.6396 33.3844 24.4919 33.0328 24.4919 32.2242C24.4919 31.6477 24.506 31.5773 24.6255 31.5352C24.8716 31.4578 25.1459 31.0711 25.9615 29.6508C26.8123 28.1672 26.9107 27.8859 26.7419 27.3938C26.4888 26.6203 25.4552 26.1563 23.9998 26.1563C22.5443 26.1563 21.5107 26.6203 21.2576 27.3938C21.0888 27.8859 21.1873 28.1672 22.038 29.6438C22.8607 31.0711 23.1349 31.4578 23.374 31.5352C23.4935 31.5773 23.5076 31.6477 23.5076 32.2242C23.5076 33.0328 23.3599 33.3844 22.8959 33.6586C22.6076 33.8273 22.5373 33.8344 22.0099 33.7992C20.8849 33.7289 19.9498 33.2859 19.113 32.4422C18.2482 31.5773 17.7912 30.5016 17.7841 29.3203C17.7771 28.0898 18.1638 27.2531 19.3099 26.0438C19.6826 25.643 19.9919 25.2703 19.9919 25.2141C19.9919 25.0031 19.8302 24.757 19.6334 24.6797C19.4646 24.6094 19.4013 24.6164 19.2044 24.7359C18.9513 24.8906 18.0091 25.8469 17.763 26.1914C17.6787 26.3039 17.6013 26.3883 17.5802 26.3672C17.5662 26.3461 17.306 24.7922 17.0107 22.9008L16.4763 19.4766L17.0458 18.7875C18.5505 16.9805 19.6826 14.8078 20.2521 12.6352L20.449 11.8898L20.906 11.6859C21.8201 11.2781 22.4388 11.1164 23.3318 11.0461C24.1474 10.9898 24.7451 11.018 25.4341 11.1516ZM25.2162 27.3445C25.6943 27.5344 25.849 27.668 25.7857 27.8578C25.7646 27.9352 25.399 28.5961 24.9701 29.3273C23.9435 31.0922 24.049 31.0992 23.0154 29.2992C22.1998 27.8859 22.1435 27.7805 22.2279 27.6609C22.3052 27.5414 22.6849 27.3656 23.0998 27.2461C23.6341 27.0984 24.6888 27.1477 25.2162 27.3445ZM18.6279 33.4055C19.0849 33.8906 20.1537 34.4742 20.9201 34.6641C21.1873 34.7344 21.2505 34.7836 21.2787 34.9313C21.3912 35.4797 22.0943 36.1266 22.7341 36.2742C23.1419 36.3727 24.8576 36.3727 25.2654 36.2742C25.9052 36.1266 26.6083 35.4797 26.7208 34.9313C26.749 34.7836 26.8123 34.7344 27.0794 34.6641C27.8458 34.4742 28.9146 33.8906 29.3716 33.4055C29.4912 33.2859 29.6037 33.1875 29.6318 33.1875C29.6529 33.1875 29.8287 33.5531 30.0115 33.9961L30.349 34.8047L30.1802 34.9875C29.8357 35.3602 28.8865 36.0141 28.2607 36.3164C27.5084 36.675 26.6294 36.9422 25.7224 37.0898C24.9068 37.2234 23.163 37.2234 22.3474 37.0898C20.6318 36.8156 19.0638 36.1125 17.988 35.1422L17.6435 34.8258L17.981 34.0102C18.1708 33.5531 18.3466 33.1875 18.3677 33.1875C18.3958 33.1875 18.5083 33.2859 18.6279 33.4055ZM24.1966 34.2633C24.4005 34.4813 24.9068 34.7273 25.2654 34.7906C25.4201 34.8188 25.5607 34.868 25.5607 34.9102C25.5677 34.9453 25.4693 35.0508 25.3357 35.1352C25.1177 35.2828 25.0263 35.2969 23.9998 35.2969C22.9662 35.2969 22.8818 35.2898 22.6568 35.1352C22.5232 35.0508 22.4248 34.9453 22.4318 34.9102C22.4388 34.868 22.5724 34.8188 22.7271 34.7906C23.0927 34.7273 23.4232 34.5727 23.7255 34.3125C23.8591 34.2 23.9857 34.1086 24.0068 34.1016C24.0279 34.1016 24.1123 34.1719 24.1966 34.2633ZM23.5076 40.0711C23.5076 40.3734 23.7537 40.6406 24.0209 40.6406C24.1474 40.6406 24.281 40.6125 24.3232 40.5844C24.4498 40.507 24.5623 40.2469 24.5623 40.05C24.5623 39.818 24.6115 39.818 24.9349 40.0852C25.7857 40.7883 25.6521 42.0891 24.6818 42.5742C24.2107 42.8063 23.7888 42.8063 23.3177 42.5742C22.3404 42.082 22.2068 40.7953 23.0646 40.0852C23.3951 39.8109 23.5076 39.8109 23.5076 40.0711Z" fill="#333333"/>
<path d="M25.7857 27.8579C25.849 27.668 25.6943 27.5344 25.2161 27.3446C24.6888 27.1477 23.6341 27.0985 23.0997 27.2461C22.6849 27.3657 22.3052 27.5414 22.2279 27.661C22.1435 27.7805 22.1997 27.886 23.0154 29.2993C24.049 31.0993 23.9435 31.0922 24.9701 29.3274C25.399 28.5961 25.7646 27.9352 25.7857 27.8579Z" fill="#DDAF89"/>
<path d="M24.0209 40.6407C23.7537 40.6407 23.5076 40.3735 23.5076 40.0711C23.5076 39.811 23.3951 39.811 23.0646 40.0852C22.2068 40.7954 22.3404 42.0821 23.3177 42.5743C23.7888 42.8063 24.2107 42.8063 24.6818 42.5743C25.6521 42.0891 25.7857 40.7883 24.9349 40.0852C24.6115 39.818 24.5623 39.818 24.5623 40.05C24.5623 40.2469 24.4498 40.5071 24.3232 40.5844C24.281 40.6125 24.1474 40.6407 24.0209 40.6407Z" fill="#7F9AE6"/>
<path d="M19.3521 19.1531C18.649 19.343 18.1638 19.7648 18.2834 20.0883C18.424 20.5031 18.7685 20.5664 19.2607 20.2781C19.5279 20.1164 19.6334 20.0953 19.999 20.1234C20.4982 20.1586 20.7092 20.2922 21.0256 20.7844C21.4545 21.4312 21.4685 21.4453 21.6865 21.4453C21.9045 21.4453 22.242 21.1781 22.242 21.0094C22.242 20.7984 21.8693 20.1516 21.5599 19.8211C21.1802 19.4133 20.8849 19.2445 20.3576 19.132C19.9006 19.0406 19.767 19.0406 19.3521 19.1531Z" fill="#333333"/>
<path d="M27.5435 19.1531C27.0865 19.2656 26.763 19.4695 26.3904 19.8703C26.1162 20.1727 25.7576 20.8055 25.7576 21.0094C25.7576 21.1781 26.0951 21.4453 26.313 21.4453C26.531 21.4453 26.5451 21.4313 26.974 20.7844C27.2904 20.2922 27.5013 20.1586 28.0005 20.1234C28.3662 20.0953 28.4716 20.1164 28.7388 20.2781C29.2802 20.5945 29.7162 20.4539 29.7162 19.9547C29.7162 19.3992 28.4365 18.9211 27.5435 19.1531Z" fill="#333333"/>
<path d="M32.831 40.8727C32.5849 41.0766 32.5849 41.0977 33.0279 42.9609C33.2037 43.7133 33.3513 44.4305 33.3513 44.55C33.3513 44.8312 33.5412 45 33.8576 45C34.2302 45 34.4412 44.8031 34.4271 44.4586C34.413 44.1703 33.942 42.0258 33.738 41.3086C33.5623 40.718 33.2248 40.5562 32.831 40.8727Z" fill="#333333"/>
</svg>
