<svg width="170" height="170" viewBox="0 0 170 170" fill="none" xmlns="http://www.w3.org/2000/svg">
<path d="M167.256 66.42C161.183 100.627 152.285 112.921 136.14 118.207C132.904 119.266 130.138 115.714 131.889 112.794C141.127 97.391 131.894 86.9437 136.441 61.1542C138.051 52.0208 147.167 45.6862 156.339 48.3983C164.03 50.6719 168.658 58.5226 167.256 66.42Z" fill="#A2D3EE"/>
<path d="M145.487 66.5604C145.344 66.5604 145.199 66.5487 145.052 66.5228C143.697 66.2841 142.793 64.9923 143.031 63.6382L143.564 60.6201C143.803 59.2661 145.096 58.3621 146.449 58.6007C147.803 58.8394 148.707 60.1312 148.468 61.4852L147.936 64.5033C147.724 65.7108 146.673 66.5604 145.487 66.5604Z" fill="#7F9AE6"/>
<path d="M157.734 68.7205C157.59 68.7205 157.445 68.7089 157.298 68.6829C155.944 68.4443 155.039 67.1525 155.279 65.7984L155.811 62.7803C156.049 61.4262 157.34 60.5222 158.695 60.7609C160.049 60.9995 160.954 62.29 160.714 63.6454L160.183 66.6622C159.97 67.871 158.919 68.7205 157.734 68.7205Z" fill="#7F9AE6"/>
<path d="M2.73943 79.1824C9.6237 117.917 21.1135 126.109 33.9521 130.388C37.2464 131.485 40.4071 128.384 39.3293 125.083C35.7017 113.978 37.7729 97.8293 33.4722 73.4419C31.9574 64.8519 23.697 59.1451 15.0995 60.8105C6.67052 62.4434 1.23755 70.7286 2.73943 79.1824Z" fill="#A2D3EE"/>
<path d="M12.2455 81.3924C11.0601 81.3924 10.0095 80.5429 9.79684 79.3341L9.26379 76.3173C9.02515 74.9632 9.92914 73.6714 11.2845 73.4327C12.6385 73.1941 13.9303 74.0981 14.1689 75.4522L14.7007 78.469C14.9393 79.8243 14.0353 81.1149 12.6813 81.3548C12.5347 81.3807 12.3895 81.3924 12.2455 81.3924Z" fill="#7F9AE6"/>
<path d="M24.4916 79.2339C23.3062 79.2339 22.2557 78.3831 22.043 77.1743L21.5112 74.1574C21.2713 72.8034 22.1765 71.5116 23.5306 71.2729C24.8872 71.033 26.1764 71.9383 26.415 73.2936L26.9468 76.3105C27.1867 77.6645 26.2814 78.9563 24.9274 79.195C24.7808 79.2209 24.6356 79.2339 24.4916 79.2339Z" fill="#7F9AE6"/>
<path d="M56.092 144.198C53.0857 144.728 49.864 144.583 46.3181 143.815C43.4596 143.195 41.6439 140.377 42.2625 137.518C42.8812 134.66 45.7008 132.844 48.5593 133.462C53.8081 134.599 58.3993 134.595 65.6416 123.612C67.2511 121.171 70.5363 120.495 72.9772 122.106C75.4194 123.715 76.0938 127.001 74.4842 129.442C68.6557 138.282 62.9361 142.99 56.092 144.198Z" fill="#495059"/>
<path d="M64.3695 115.346C55.567 120.862 44.3068 121.478 34.2489 116.992C30.9092 115.503 29.4099 111.588 30.8988 108.25C32.3877 104.911 36.3019 103.411 39.6416 104.9C41.8983 105.906 49.8435 108.824 57.3374 104.127C60.4358 102.185 64.5212 103.123 66.4628 106.221C68.4043 109.32 67.4666 113.404 64.3695 115.346Z" fill="#DDAF89"/>
<path d="M57.3391 104.127C55.1005 105.53 52.8243 106.25 50.6701 106.548C50.6027 108.666 50.7505 110.801 51.1266 112.928C51.4963 115.032 51.8594 117.316 52.1992 119.691C56.5103 119.123 60.658 117.671 64.3699 115.346C67.467 113.404 68.4047 109.32 66.4632 106.221C64.5216 103.123 60.4362 102.185 57.3391 104.127Z" fill="#D1A582"/>
<path d="M111.731 107.628C108.186 106.734 106.037 103.135 106.931 99.5905C107.826 96.0445 111.425 93.8967 114.969 94.7903C123.546 96.955 130.209 91.7333 132.045 90.0809C134.765 87.6374 138.95 87.8605 141.395 90.579C143.839 93.2988 143.615 97.4842 140.897 99.9277C132.707 107.291 121.803 110.17 111.731 107.628Z" fill="#DDAF89"/>
<path d="M124.166 108.107C123.73 104.935 123.286 102.223 122.941 100.265C122.628 98.4933 122.157 96.7787 121.557 95.125C119.546 95.4207 117.331 95.387 114.969 94.7904C111.425 93.8967 107.826 96.0446 106.931 99.5905C106.037 103.135 108.186 106.734 111.731 107.628C115.818 108.659 120.042 108.798 124.166 108.107Z" fill="#D1A582"/>
<path d="M118.814 100.992C122.125 119.768 122.008 132.965 120.786 140.08C120.3 142.905 117.439 144.669 114.689 143.854C111.858 143.016 108.71 142.294 106.289 141.784C104.04 141.311 101.695 142.058 100.176 143.783C98.4891 145.7 95.6941 148.274 91.5231 150.412C90.0044 151.19 88.1899 151.111 86.7205 150.245C84.3185 148.827 82.1396 147.699 80.4626 146.881C78.6443 145.996 76.4693 146.272 74.9402 147.596C72.1595 150.007 67.9275 152.15 63.3194 153.409C60.6879 154.128 58.1419 151.979 58.365 149.26C59.1224 140.036 57.1303 122.856 55.2523 112.201C52.4522 96.3271 64.4127 80.9499 81.9645 77.8553C99.5176 74.7606 116.015 85.1184 118.814 100.992Z" fill="#DDAF89"/>
<path d="M112.483 83.0801C105.833 90.9178 96.5157 96.5676 85.6043 98.4923C74.6917 100.416 64.0034 98.2939 55.0752 93.2031C53.7977 95.6402 52.8275 98.2186 52.2193 100.889C51.3905 104.527 53.3982 108.221 56.8948 109.522C66.5208 113.104 77.1987 114.252 88.0452 112.339C98.8917 110.426 108.533 105.697 116.354 99.0383C119.194 96.6194 119.818 92.4613 117.795 89.3264C116.31 87.0242 114.517 84.9335 112.483 83.0801Z" fill="#7F9AE6"/>
<path d="M70.71 98.6622C65.15 97.8049 59.8597 95.9307 55.0752 93.2031C53.7977 95.6402 52.8275 98.2186 52.2193 100.889C51.3905 104.527 53.3982 108.221 56.8948 109.522C61.8998 111.386 67.1914 112.583 72.6412 113.041C70.0551 109.543 69.5804 103.692 70.71 98.6622Z" fill="#5E78BF"/>
<path d="M97.2576 113.459C97.2576 118.439 93.2214 122.475 88.2424 122.475C83.2647 122.475 79.2285 118.439 79.2285 113.459C79.2285 108.482 83.2647 104.445 88.2424 104.445C93.2214 104.445 97.2576 108.482 97.2576 113.459Z" fill="#F6E06A"/>
<path d="M63.174 48.7433C61.7383 48.9962 60.213 48.8146 58.8019 48.1272L49.0254 43.3595C44.7442 41.2713 39.6653 42.4023 36.6758 46.1117L31.8744 52.0662C29.3946 55.1427 24.8916 55.6252 21.8165 53.1453C18.7414 50.6668 18.2589 46.1636 20.7374 43.0871L25.5388 37.1326C29.0017 32.8382 33.873 29.8123 39.2567 28.6126C44.6417 27.4129 50.3367 28.0834 55.295 30.4997L65.0727 35.2675C68.6225 36.999 70.0972 41.2817 68.367 44.8329C67.323 46.9729 65.3516 48.3594 63.174 48.7433Z" fill="#495059"/>
<path d="M89.6671 44.0703C87.4882 44.4542 85.1628 43.8265 83.4495 42.1715C80.6092 39.4271 80.53 34.8979 83.2744 32.0575L90.8318 24.2327C94.6643 20.2652 99.7886 17.6881 105.257 16.9734C110.726 16.2588 116.339 17.4365 121.061 20.2873L127.61 24.2418C130.992 26.2833 132.078 30.6801 130.035 34.0614C127.994 37.444 123.597 38.5295 120.216 36.4881L113.667 32.5335C109.59 30.0718 104.43 30.745 101.121 34.1716L93.5632 41.9951C92.4738 43.1248 91.1016 43.8174 89.6671 44.0703Z" fill="#495059"/>
<path d="M86.2569 102.199C122.015 95.8928 135.243 76.67 126.146 54.4914C116.371 30.6564 96.9543 20.0898 72.539 24.3945C48.1237 28.7006 33.4914 45.271 32.4577 71.0112C31.4953 94.9642 50.4984 108.504 86.2569 102.199Z" fill="#DDAF89"/>
<path d="M61.351 61.8871C60.6092 57.6848 55.73 55.0311 50.4527 55.9611C45.174 56.8923 41.4959 61.0531 42.2364 65.2567C42.9783 69.4602 47.8574 72.1126 53.1348 71.1827C58.4134 70.2527 62.0916 66.0906 61.351 61.8871Z" fill="#FFDBDB"/>
<path d="M95.8741 55.7938C96.616 59.9961 101.495 62.6498 106.772 61.7198C112.051 60.7886 115.729 56.6278 114.989 52.4242C114.247 48.2207 109.368 45.5683 104.09 46.4983C98.8117 47.4282 95.1335 51.5903 95.8741 55.7938Z" fill="#FFDBDB"/>
<path d="M82.5157 51.6686C79.0775 51.3871 75.6262 51.9954 72.4915 53.4351C71.1945 54.0317 70.1557 55.0784 69.5707 56.3806C68.7796 58.1393 69.7731 60.1859 71.6446 60.6516L76.8376 61.9447C78.3836 62.3286 80.0204 62.0407 81.3433 61.1496L85.7802 58.16C87.3793 57.0809 87.6141 54.819 86.2691 53.4364C85.273 52.4117 83.9398 51.784 82.5157 51.6686Z" fill="#495059"/>
<path d="M88.6619 75.6639C87.8254 70.9182 84.0694 67.6121 80.2732 68.2814C76.4783 68.9506 74.0789 73.341 74.9154 78.0867C75.752 82.8337 79.508 86.1384 83.3029 85.4705C87.0991 84.8012 89.4985 80.4109 88.6619 75.6639Z" fill="#D16283"/>
<path d="M55.0006 49.1688C53.6465 49.4075 52.7413 50.6993 52.9812 52.0533L53.5765 55.4281C53.7892 56.6369 54.8397 57.4865 56.0252 57.4865C56.1691 57.4865 56.3144 57.4735 56.4609 57.4475C57.815 57.2089 58.719 55.9184 58.4803 54.563L57.885 51.1882C57.6464 49.8342 56.3546 48.9289 55.0006 49.1688ZM97.4929 41.6761C96.1389 41.9147 95.2336 43.2065 95.4735 44.5606L96.0676 47.9354C96.2816 49.1442 97.3321 49.9937 98.5175 49.9937C98.6615 49.9937 98.8067 49.9807 98.952 49.9561C100.307 49.7174 101.211 48.4256 100.973 47.0703L100.377 43.6955C100.139 42.3414 98.8469 41.4374 97.4929 41.6761ZM157.047 46.0093C152.138 44.558 147.012 45.2571 142.618 47.9782C138.066 50.7965 134.921 55.4411 133.989 60.7212C132.092 71.4823 132.542 79.7818 133.079 86.5483C132.114 86.9348 131.198 87.4938 130.381 88.2292C129.342 89.163 125.999 91.866 121.452 92.6169C121.387 91.7804 121.216 90.9464 120.933 90.1345C123.511 87.8064 125.642 85.2552 127.3 82.4952C128.008 81.3162 127.625 79.7857 126.448 79.0776C125.269 78.3694 123.738 78.7507 123.03 79.9297C121.393 82.656 119.2 85.1566 116.482 87.416C116.362 87.4964 116.252 87.5846 116.151 87.6818C109.201 93.3251 98.9299 97.434 85.8255 99.7452C72.7417 102.053 61.7227 101.718 53.2821 98.8205C53.1252 98.7439 52.9566 98.683 52.7789 98.6389C49.1383 97.3289 45.988 95.5339 43.3772 93.2524C37.4864 88.1047 34.5708 80.4472 34.9457 71.1101C35.3698 60.5629 38.1401 51.6409 43.0465 44.5697C43.1801 44.4231 43.2929 44.2597 43.3876 44.0872C46.7195 39.4348 51.002 35.6126 56.1691 32.6814C56.2768 32.6321 56.3792 32.5724 56.4778 32.5076C61.248 29.8526 66.7562 27.9422 72.9713 26.8462C79.1396 25.7593 84.9305 25.6543 90.2857 26.4973C90.4608 26.5466 90.6385 26.5738 90.8188 26.5842C96.6486 27.5751 101.954 29.7009 106.657 32.9148C106.815 33.0575 106.991 33.1807 107.181 33.2793C114.198 38.2455 119.842 45.6799 123.843 55.4346C126.013 60.7276 126.828 65.8106 126.261 70.542C126.097 71.9078 127.071 73.1477 128.437 73.3111C129.799 73.4732 131.043 72.5005 131.206 71.1348C131.874 65.5499 130.947 59.6317 128.451 53.5449C126.254 48.1896 123.592 43.4594 120.48 39.3739C121.575 39.7928 122.728 40.012 123.895 40.012C124.671 40.012 125.453 39.9173 126.225 39.7267C128.725 39.1093 130.837 37.5542 132.167 35.3493C134.915 30.7981 133.449 24.8579 128.896 22.1096L122.348 18.155C117.146 15.0137 110.961 13.7167 104.934 14.504C99.4202 15.2238 94.2168 17.6738 90.1378 21.439C84.4909 20.6543 78.4678 20.8203 72.1062 21.941C65.7446 23.0629 60.0289 24.9694 54.9915 27.6374C49.8698 25.4934 44.1411 24.9707 38.7146 26.1795C32.7836 27.5025 27.4155 30.8358 23.5998 35.5685L18.7985 41.523C17.1825 43.5282 16.4432 46.043 16.7182 48.6046C16.9931 51.1649 18.2486 53.4671 20.2537 55.0831C22.0331 56.5176 24.1705 57.2154 26.2962 57.2154C28.5685 57.2154 30.8239 56.4164 32.6111 54.8704C31.7901 57.5111 31.1559 60.2828 30.7085 63.1803C26.5504 59.1557 20.5675 57.2154 14.6262 58.3658C4.97028 60.2361 -1.46265 69.7703 0.286952 79.6184C3.56178 98.0487 8.1634 111.1 14.3525 119.522C14.8415 120.186 15.5963 120.537 16.3615 120.537C16.8738 120.537 17.39 120.379 17.8348 120.052C18.9424 119.238 19.1811 117.679 18.3666 116.571C12.6392 108.78 8.32941 96.408 5.19076 78.7468C3.91455 71.5615 8.57194 64.6122 15.5729 63.2555C21.4897 62.1102 27.4609 65.1828 29.9835 70.5965C29.9796 70.7016 29.9731 70.8053 29.9692 70.9091C29.7228 77.0361 30.7227 82.5691 32.9003 87.3381C33.4762 92.805 33.794 97.8062 34.0495 102.312C31.7162 103.097 29.7033 104.814 28.6243 107.234C26.579 111.822 28.6463 117.22 33.235 119.265C34.0144 119.614 34.8043 119.93 35.6006 120.222C35.9651 122.317 36.4125 124.174 36.9624 125.856C37.2568 126.76 36.764 127.379 36.5396 127.603C36.3075 127.833 35.6694 128.335 34.7394 128.025C31.0859 126.807 28.3467 125.522 25.8578 123.856C24.7152 123.091 23.1692 123.399 22.404 124.541C21.6388 125.684 21.9462 127.231 23.0888 127.996C25.924 129.893 29.1262 131.404 33.1649 132.75C33.8718 132.985 34.5968 133.1 35.3127 133.1C37.061 133.1 38.7626 132.417 40.0505 131.135C41.8559 129.341 42.4862 126.727 41.6963 124.309C41.4344 123.51 41.1996 122.655 40.9869 121.741C43.3227 122.212 45.6845 122.452 48.0359 122.452C50.1175 122.452 52.1888 122.261 54.225 121.888C54.6206 124.841 54.9746 127.871 55.2613 130.841C53.3586 131.69 51.5753 131.566 49.0864 131.027C44.8882 130.12 40.7379 132.794 39.8287 136.99C38.9208 141.186 41.5952 145.339 45.7921 146.246C48.1215 146.751 50.3056 147.003 52.3833 147.003C53.6271 147.003 54.8307 146.908 56.0083 146.728C55.9824 147.553 55.9422 148.333 55.8825 149.054C55.7113 151.15 56.5764 153.205 58.1976 154.551C59.3648 155.52 60.82 156.034 62.2986 156.034C62.8602 156.034 63.4243 155.96 63.9755 155.809C68.8858 154.468 73.4771 152.159 76.5729 149.477C77.3459 148.807 78.4444 148.667 79.3731 149.119C81.43 150.121 83.4767 151.219 85.4571 152.388C87.6905 153.704 90.3817 153.792 92.6591 152.626C97.2478 150.275 100.297 147.414 102.045 145.427C102.96 144.39 104.39 143.927 105.777 144.219C107.953 144.677 111.143 145.4 113.982 146.24C115.981 146.833 118.141 146.54 119.911 145.438C121.676 144.341 122.889 142.541 123.24 140.499C123.872 136.825 124.898 127.313 122.82 110.798C125.69 110.471 128.515 109.771 131.233 108.728C130.801 109.656 130.311 110.58 129.754 111.51C128.407 113.757 128.59 116.527 130.22 118.571C131.412 120.064 133.159 120.882 134.982 120.882C135.624 120.882 136.276 120.78 136.915 120.571C146.024 117.588 152.593 112.474 157.588 104.475C162.775 96.1681 166.626 84.2124 169.708 66.8521C171.352 57.5902 165.909 48.6293 157.047 46.0093ZM105.578 19.4429C110.491 18.8009 115.532 19.858 119.773 22.4195L126.323 26.3741C128.524 27.7022 129.232 30.5751 127.904 32.7761C127.261 33.8422 126.24 34.5932 125.031 34.8928C123.821 35.1911 122.57 35.0004 121.504 34.3571L114.954 30.4026C113.182 29.3325 111.184 28.7204 109.129 28.6023C108.127 27.9331 107.1 27.3014 106.044 26.7139C103.027 25.0343 99.8495 23.7217 96.5189 22.7762C99.2451 21.0201 102.346 19.8658 105.578 19.4429ZM40.0998 97.0021C42.7962 99.3587 45.9594 101.264 49.5468 102.722C49.5546 103.206 49.5961 103.684 49.6714 104.155C45.4446 104.552 41.8157 103.142 40.6562 102.625C40.1205 102.386 39.5758 102.206 39.0246 102.077C38.9079 100.024 38.7795 97.8685 38.6199 95.6117C39.0959 96.089 39.5875 96.5546 40.0998 97.0021ZM29.9368 50.5021C28.3221 52.5034 25.3806 52.8199 23.3794 51.2064C22.4105 50.4243 21.8035 49.3115 21.67 48.0728C21.5377 46.8355 21.8956 45.6189 22.6764 44.6488L27.4777 38.6943C30.5879 34.837 34.9638 32.1198 39.7989 31.042C42.9816 30.3325 46.2915 30.3572 49.4548 31.0757C46.6481 33.1042 44.1087 35.4232 41.8481 38.0341C41.0621 38.942 40.3164 39.881 39.6069 40.8486C37.716 41.6592 36.0442 42.9264 34.7368 44.5476L29.9368 50.5021ZM35.2634 114.718C33.1844 113.79 32.2467 111.343 33.174 109.264C33.8147 107.826 35.183 106.934 36.6538 106.828H36.6563C36.703 106.828 36.7497 106.827 36.7964 106.824C36.799 106.824 36.8016 106.823 36.8042 106.823C37.4125 106.801 38.035 106.91 38.6277 107.173C40.699 108.098 45.87 109.968 51.823 108.885C52.0137 109.113 52.2134 109.334 52.4248 109.545C52.4961 110.582 52.6206 111.617 52.7996 112.632C53.0435 114.015 53.2821 115.464 53.513 116.954C47.5158 118.096 41.1166 117.329 35.2634 114.718ZM116.486 93.626C116.47 93.9139 116.43 94.2006 116.365 94.4807C116.329 94.5845 116.3 94.6908 116.278 94.7998C116.168 95.1603 116.017 95.5105 115.824 95.8426C115.777 95.9113 115.733 95.9813 115.693 96.054C115.435 96.4508 115.119 96.8192 114.74 97.1421C109.699 101.434 104.017 104.772 97.8275 107.09C97.0429 105.909 96.039 104.872 94.8419 104.034C94.4126 103.733 93.9665 103.466 93.5087 103.23C102.744 100.996 110.465 97.7595 116.486 93.626ZM87.1107 107.033C87.4933 106.966 87.8759 106.932 88.2573 106.932C89.5827 106.932 90.8758 107.338 91.9847 108.115C93.4127 109.113 94.3659 110.609 94.6681 112.326C94.9703 114.042 94.5864 115.774 93.5878 117.2C92.5878 118.628 91.0924 119.581 89.3752 119.884C85.8332 120.51 82.443 118.134 81.8178 114.592C81.1927 111.049 83.5674 107.658 87.1107 107.033ZM55.6607 141.745C53.0149 142.211 50.1318 142.092 46.8453 141.38C45.333 141.053 44.3694 139.557 44.6962 138.044C45.0243 136.532 46.5197 135.57 48.032 135.895C50.3069 136.388 52.8697 136.785 55.6931 135.972C55.8345 137.959 55.9357 139.874 55.9914 141.675C55.8812 141.697 55.771 141.725 55.6607 141.745ZM56.5349 106.523C56.4519 106.447 56.3624 106.378 56.269 106.313C55.8241 105.937 55.4545 105.488 55.1718 104.99C55.1471 104.941 55.1225 104.894 55.0952 104.848C55.0343 104.731 54.9772 104.613 54.9253 104.491C59.4063 105.648 64.4048 106.233 69.8754 106.233C73.0322 106.233 76.346 106.036 79.805 105.647C78.4834 107.078 77.5314 108.836 77.0645 110.752C70.4526 110.691 63.9704 109.499 57.7631 107.189C57.3143 107.021 56.9032 106.794 56.5349 106.523ZM118.331 139.656C118.22 140.308 117.847 140.859 117.282 141.21C116.71 141.567 116.041 141.658 115.396 141.467C112.399 140.579 109.067 139.824 106.801 139.348C103.66 138.686 100.406 139.756 98.3087 142.138C96.8444 143.799 94.2816 146.2 90.3869 148.196C89.6489 148.573 88.7293 148.536 87.9862 148.099C85.8916 146.864 83.727 145.702 81.5533 144.642C78.8283 143.315 75.5924 143.737 73.3098 145.715C70.7963 147.894 66.8159 149.872 62.663 151.006C62.047 151.175 61.5943 150.9 61.379 150.721C61.2 150.573 60.7902 150.153 60.846 149.463C60.9886 147.734 61.0366 145.757 61.012 143.625C61.012 143.606 61.012 143.588 61.0107 143.569C60.9692 140.047 60.728 136.099 60.37 132.107C60.3674 132.048 60.3622 131.991 60.3557 131.934C59.9407 127.34 59.3739 122.703 58.7864 118.606C58.7799 118.539 58.7708 118.473 58.7579 118.406C58.4479 116.252 58.1327 114.252 57.8305 112.492C64.0145 114.582 70.4331 115.668 76.9685 115.732C78.0618 121.16 82.8541 124.965 88.2378 124.965C88.8979 124.965 89.5685 124.908 90.2403 124.789C93.2674 124.256 95.9054 122.575 97.668 120.057C99.3761 117.618 100.061 114.674 99.6147 111.739C105.733 109.444 111.391 106.229 116.487 102.152C116.889 104.479 117.235 106.693 117.531 108.793C117.535 108.837 117.541 108.88 117.549 108.921C119.978 126.308 118.955 136.029 118.331 139.656ZM122.134 105.864C121.876 104.159 121.59 102.396 121.266 100.56C121.1 99.6116 120.88 98.6661 120.618 97.7336C127.122 97.2264 131.868 93.5884 133.709 91.9334C134.351 91.3562 135.126 91.019 135.922 90.914H135.935C135.94 90.9127 135.945 90.9114 135.95 90.9114C137.249 90.7479 138.604 91.1993 139.543 92.2434C141.064 93.9373 140.926 96.5533 139.232 98.076C134.346 102.468 128.345 105.184 122.134 105.864ZM164.805 65.9831C161.838 82.6962 158.202 94.0903 153.363 101.839C148.963 108.888 143.412 113.205 135.365 115.84C134.708 116.055 134.299 115.698 134.114 115.466C133.956 115.268 133.629 114.735 134.024 114.074C135.723 111.242 136.919 108.423 137.67 105.492C139.383 104.401 141.022 103.164 142.561 101.78C146.296 98.421 146.604 92.6493 143.246 88.914C141.828 87.3368 139.979 86.3719 138.033 86.036C137.503 79.346 137.107 71.7145 138.893 61.585C139.578 57.7018 141.891 54.2855 145.238 52.2129C148.412 50.2479 152.103 49.7408 155.634 50.7849C162.063 52.6863 166.005 59.2192 164.805 65.9831ZM73.6755 70.4577C72.3941 72.8027 71.9648 75.6652 72.4668 78.516C73.4421 84.0516 77.7091 88.0411 82.3392 88.0411C82.8035 88.0411 83.2717 88.0009 83.7399 87.9179C88.8811 87.0113 92.1909 81.3175 91.1171 75.2268C90.6138 72.376 89.2326 69.8339 87.2249 68.0687C85.7878 66.8041 84.0979 66.022 82.3652 65.7833L81.9903 63.655C82.2432 63.5201 82.4936 63.3774 82.7335 63.2153L87.1717 60.2244C88.5478 59.2971 89.4349 57.8185 89.6048 56.1687C89.776 54.5176 89.2105 52.8886 88.0536 51.6992C86.6361 50.244 84.7412 49.3517 82.7179 49.1857C78.8621 48.8705 74.9673 49.5579 71.4525 51.1727C69.6057 52.0209 68.131 53.5073 67.2984 55.3594C66.6175 56.873 66.6434 58.5967 67.3684 60.0895C68.0934 61.5824 69.4319 62.668 71.0427 63.0687L76.2357 64.3618C76.5172 64.4319 76.7999 64.4838 77.0852 64.5227L77.4601 66.6484C75.9141 67.4643 74.5925 68.7768 73.6755 70.4577ZM77.4393 59.5279L72.2463 58.2348C72.0193 58.1791 71.9052 58.0286 71.8481 57.9132C71.7923 57.7977 71.7456 57.6149 71.8416 57.4009C72.1801 56.6486 72.7806 56.0429 73.5316 55.6979C75.8388 54.6382 78.3549 54.0922 80.8866 54.0922C81.3626 54.0922 81.8386 54.1104 82.3133 54.1493C83.1368 54.2167 83.9072 54.5799 84.4844 55.1726C84.6465 55.3399 84.6647 55.528 84.6517 55.6564C84.6387 55.7835 84.5817 55.9638 84.3884 56.0948L79.9515 59.0844C79.2161 59.5798 78.3005 59.7419 77.4393 59.5279ZM78.0463 72.8455C78.6883 71.6704 79.6338 70.9195 80.7089 70.7288C80.8892 70.6977 81.0708 70.6821 81.255 70.6821C82.1641 70.6821 83.0992 71.0699 83.9345 71.8066C85.0797 72.8144 85.9098 74.3759 86.2119 76.0919C86.7995 79.4213 85.2703 82.5911 82.8749 83.0127C80.4755 83.4355 77.9581 80.9803 77.3706 77.6509C77.0684 75.9349 77.3148 74.1827 78.0463 72.8455Z" fill="black"/>
</svg>
