<svg width="375" height="152" viewBox="0 0 375 152" fill="none" xmlns="http://www.w3.org/2000/svg">
<path d="M243.328 42.5075H215.146C215.146 42.5075 216.548 40.6824 218.093 40.4578C218.093 40.4578 221.097 31.5136 226.13 31.453C230.807 31.3924 232.683 36.95 232.683 36.95C232.683 36.95 234.849 34.4546 236.921 35.5953C238.994 36.7361 240.168 39.9943 240.168 39.9943C240.168 39.9943 242.497 41.2527 243.328 42.5075Z" fill="#EBEBEB"/>
<path d="M114.444 34.8004H150.096C150.096 34.8004 150.096 32.526 145.184 32.0804C145.184 32.0804 140.7 22.131 133.854 23.4678C129.573 24.2984 127.412 30.1483 127.412 30.1483C127.412 30.1483 124.18 25.5461 121.615 26.448C119.05 27.3499 117.505 32.2373 117.505 32.2373C117.505 32.2373 114.847 33.5135 114.444 34.8004Z" fill="#EBEBEB"/>
<path d="M140.918 10.8804H165.176C165.176 10.8804 162.889 8.74148 161.872 8.74148C160.856 8.74148 157.888 1.61182 154.096 1.90057C150.304 2.18932 148.277 7.55439 148.277 7.55439C148.277 7.55439 143.668 6.09281 140.918 10.8804Z" fill="#EBEBEB"/>
<path d="M183.397 30.0378H204.127C204.127 30.0378 203.096 28.6974 201.958 28.5299C201.958 28.5299 199.75 21.9527 196.051 21.9064C192.615 21.8636 191.246 25.9489 191.246 25.9489C191.246 25.9489 189.651 24.1166 188.128 24.9543C186.604 25.7921 185.745 28.1912 185.745 28.1912C185.745 28.1912 184.025 29.1145 183.397 30.0378Z" fill="#EBEBEB"/>
<path d="M240.896 13.5077H261.625C261.625 13.5077 260.594 12.1673 259.456 11.9997C259.456 11.9997 257.248 5.42619 253.549 5.37628C250.106 5.3335 248.729 9.42236 248.729 9.42236C248.729 9.42236 247.135 7.59004 245.612 8.42777C244.088 9.26551 243.229 11.6646 243.229 11.6646C243.229 11.6646 241.516 12.5879 240.896 13.5077Z" fill="#EBEBEB"/>
<path d="M132.455 79.9811C132.455 79.9811 141.241 99.5413 126.861 99.5413C112.481 99.5413 121.796 79.3216 121.796 79.3216C121.796 79.3216 118.467 77.8564 122.331 66.948C126.194 56.0396 127.917 56.0361 129.519 56.0361C131.549 56.0361 133.443 60.7595 132.052 68.0103C132.055 68.0032 137.114 77.0508 132.455 79.9811Z" fill="#A0D9BB"/>
<path d="M125.471 112.4L126.858 82.9327L128.243 112.4H125.471Z" fill="#263238"/>
<path d="M126.295 95.2884L131.521 89.1855L127.422 96.0941L126.295 95.2884Z" fill="#263238"/>
<path d="M177.24 84.7864C177.24 84.7864 169.781 101.388 181.985 101.388C194.189 101.388 186.266 84.2232 186.266 84.2232C186.266 84.2232 189.091 82.9791 185.816 73.7176C182.541 64.4562 181.072 64.4491 179.712 64.4491C177.993 64.4491 176.391 68.456 177.572 74.6124C177.579 74.6231 173.284 82.3018 177.24 84.7864Z" fill="#A0D9BB"/>
<path d="M183.069 112.4L181.892 87.3888L180.715 112.4H183.069Z" fill="#263238"/>
<path d="M182.37 97.8765L177.936 92.6968L181.414 98.5609L182.37 97.8765Z" fill="#263238"/>
<path d="M166.549 82.7723C166.549 82.7723 162.557 81.186 159.386 86.6936C156.136 92.3439 160.21 96.0691 163.442 93.8518C163.442 93.8518 165.978 99.1705 171.047 97.905C176.116 96.6395 176.944 92.5863 176.944 92.5863C176.944 92.5863 181.442 92.9 181.581 89.5455C181.721 86.191 178.403 83.2143 178.403 83.2143C178.403 83.2143 178.21 74.8548 172.759 74.9154C167.309 74.976 166.549 82.7723 166.549 82.7723Z" fill="#78BF9B"/>
<path d="M170.256 112.4L171.397 87.5207L172.539 112.4H170.256Z" fill="#A6A6A6"/>
<path d="M170.908 96.5718L167.559 89.8913L171.886 95.9836L170.908 96.5718Z" fill="#A6A6A6"/>
<path d="M194.834 64.0106H192.048V88.64H194.834V64.0106Z" fill="#9F6445"/>
<path d="M245.29 64.0106H242.504V88.64H245.29V64.0106Z" fill="#9F6445"/>
<path d="M252.574 66.2529H184.763V69.8926H252.574V66.2529Z" fill="#DDAF89"/>
<path opacity="0.2" d="M252.574 66.2529H184.763V69.8926H252.574V66.2529Z" fill="black"/>
<path d="M252.574 71.8639H184.763V75.5036H252.574V71.8639Z" fill="#DDAF89"/>
<path opacity="0.2" d="M252.574 71.8639H184.763V75.5036H252.574V71.8639Z" fill="black"/>
<path d="M252.574 77.4714H184.763V81.1111H252.574V77.4714Z" fill="#DDAF89"/>
<path opacity="0.2" d="M252.574 77.4714H184.763V81.1111H252.574V77.4714Z" fill="black"/>
<path d="M252.574 83.0825H184.763V86.7222H252.574V83.0825Z" fill="#DDAF89"/>
<path opacity="0.2" d="M252.574 83.0825H184.763V86.7222H252.574V83.0825Z" fill="black"/>
<path d="M259.513 88.64H178.795V94.0622H259.513V88.64Z" fill="#DDAF89"/>
<path opacity="0.2" d="M259.513 88.64H178.795V94.0622H259.513V88.64Z" fill="black"/>
<path d="M186.104 94.0621H183.318V112.396H186.104V94.0621Z" fill="#9F6445"/>
<path d="M254.989 94.0621H252.203V112.396H254.989V94.0621Z" fill="#9F6445"/>
<g opacity="0.2">
<path d="M193.443 68.4132C193.632 68.4132 193.786 68.26 193.786 68.071C193.786 67.882 193.632 67.7287 193.443 67.7287C193.254 67.7287 193.101 67.882 193.101 68.071C193.101 68.26 193.254 68.4132 193.443 68.4132Z" fill="black"/>
<path d="M193.443 74.0243C193.632 74.0243 193.786 73.871 193.786 73.682C193.786 73.493 193.632 73.3398 193.443 73.3398C193.254 73.3398 193.101 73.493 193.101 73.682C193.101 73.871 193.254 74.0243 193.443 74.0243Z" fill="black"/>
<path d="M193.443 79.6353C193.632 79.6353 193.786 79.482 193.786 79.293C193.786 79.104 193.632 78.9508 193.443 78.9508C193.254 78.9508 193.101 79.104 193.101 79.293C193.101 79.482 193.254 79.6353 193.443 79.6353Z" fill="black"/>
<path d="M193.443 85.2428C193.632 85.2428 193.786 85.0895 193.786 84.9005C193.786 84.7115 193.632 84.5583 193.443 84.5583C193.254 84.5583 193.101 84.7115 193.101 84.9005C193.101 85.0895 193.254 85.2428 193.443 85.2428Z" fill="black"/>
<path d="M243.896 68.4132C244.085 68.4132 244.239 68.26 244.239 68.071C244.239 67.882 244.085 67.7287 243.896 67.7287C243.707 67.7287 243.554 67.882 243.554 68.071C243.554 68.26 243.707 68.4132 243.896 68.4132Z" fill="black"/>
<path d="M243.896 74.0243C244.085 74.0243 244.239 73.871 244.239 73.682C244.239 73.493 244.085 73.3398 243.896 73.3398C243.707 73.3398 243.554 73.493 243.554 73.682C243.554 73.871 243.707 74.0243 243.896 74.0243Z" fill="black"/>
<path d="M243.896 79.6353C244.085 79.6353 244.239 79.482 244.239 79.293C244.239 79.104 244.085 78.9508 243.896 78.9508C243.707 78.9508 243.554 79.104 243.554 79.293C243.554 79.482 243.707 79.6353 243.896 79.6353Z" fill="black"/>
<path d="M243.896 85.2428C244.085 85.2428 244.239 85.0895 244.239 84.9005C244.239 84.7115 244.085 84.5583 243.896 84.5583C243.707 84.5583 243.554 84.7115 243.554 84.9005C243.554 85.0895 243.707 85.2428 243.896 85.2428Z" fill="black"/>
</g>
<path d="M127.95 91.7771H116.842V112.4H127.95V91.7771Z" fill="#DD2D46"/>
<path d="M128.688 90.9643H116.103V91.7771H128.688V90.9643Z" fill="#DD2D46"/>
<path d="M128.688 89.6275H116.103V90.4403H128.688V89.6275Z" fill="#DD2D46"/>
<path d="M127.95 90.4403H116.842V90.9643H127.95V90.4403Z" fill="#DD2D46"/>
<path opacity="0.1" d="M127.95 90.4403H116.842V90.9643H127.95V90.4403Z" fill="black"/>
<path d="M127.942 89.6275H116.852C116.932 88.2121 117.551 86.8811 118.582 85.9075C119.613 84.9339 120.978 84.3914 122.397 84.3914C123.816 84.3914 125.18 84.9339 126.212 85.9075C127.243 86.8811 127.862 88.2121 127.942 89.6275Z" fill="#DD2D46"/>
<path opacity="0.1" d="M127.942 89.6275H116.852C116.861 89.3952 116.888 89.1639 116.934 88.9359L127.689 88.2229C127.835 88.678 127.92 89.1502 127.942 89.6275Z" fill="black"/>
<path opacity="0.1" d="M127.953 91.7771V92.9962L116.845 93.5167V91.7771H127.953Z" fill="black"/>
<path opacity="0.1" d="M119.035 94.5256H118.079V111.131H119.035V94.5256Z" fill="black"/>
<path opacity="0.1" d="M120.954 94.5256H119.998V111.131H120.954V94.5256Z" fill="black"/>
<path opacity="0.1" d="M122.877 94.5256H121.921V111.131H122.877V94.5256Z" fill="black"/>
<path opacity="0.1" d="M124.797 94.5256H123.841V111.131H124.797V94.5256Z" fill="black"/>
<path opacity="0.1" d="M126.716 94.5256H125.76V111.131H126.716V94.5256Z" fill="black"/>
<path d="M116.842 95.6948H114.88V100.785H116.842V95.6948Z" fill="#DD2D46"/>
<path d="M114.879 96.1297H114.13V100.49H114.879V96.1297Z" fill="#DD2D46"/>
<path opacity="0.1" d="M114.879 96.1297H114.13V100.49H114.879V96.1297Z" fill="black"/>
<path d="M114.13 97.0316V99.4593C113.819 99.4425 113.527 99.3072 113.313 99.0814C113.099 98.8556 112.979 98.5565 112.979 98.2455C112.979 97.9345 113.099 97.6353 113.313 97.4095C113.527 97.1837 113.819 97.0485 114.13 97.0316Z" fill="#DD2D46"/>
<path opacity="0.1" d="M116.845 95.6948V100.789H116.388L115.582 95.6948H116.845Z" fill="black"/>
<path d="M127.953 100.789H129.915V95.6984H127.953V100.789Z" fill="#DD2D46"/>
<path d="M129.916 100.486H130.665V96.1262H129.916V100.486Z" fill="#DD2D46"/>
<path opacity="0.1" d="M129.916 100.486H130.665V96.1262H129.916V100.486Z" fill="black"/>
<path d="M130.665 97.0316V99.4593C130.976 99.4425 131.268 99.3072 131.482 99.0814C131.696 98.8556 131.816 98.5565 131.816 98.2455C131.816 97.9345 131.696 97.6353 131.482 97.4095C131.268 97.1837 130.976 97.0485 130.665 97.0316Z" fill="#DD2D46"/>
<path opacity="0.1" d="M127.953 95.6948V100.789H128.41L129.212 95.6948H127.953Z" fill="black"/>
<path d="M123.866 101.781C125.826 100.976 126.762 98.7343 125.956 96.775C125.15 94.8157 122.907 93.8804 120.947 94.686C118.986 95.4916 118.05 97.7329 118.856 99.6922C119.662 101.652 121.905 102.587 123.866 101.781Z" fill="#DD2D46"/>
<path opacity="0.1" d="M125.032 98.2401C125.031 98.7601 124.876 99.2683 124.587 99.7004C124.297 100.132 123.886 100.469 123.405 100.668C122.924 100.866 122.395 100.918 121.885 100.817C121.374 100.715 120.906 100.465 120.538 100.097C120.17 99.7291 119.919 99.2607 119.817 98.7507C119.716 98.2407 119.768 97.712 119.966 97.2314C120.165 96.7508 120.502 96.3399 120.934 96.0506C121.367 95.7612 121.875 95.6064 122.396 95.6057C122.742 95.6052 123.085 95.6731 123.405 95.8053C123.725 95.9375 124.016 96.1315 124.261 96.3763C124.506 96.621 124.7 96.9116 124.832 97.2314C124.965 97.5512 125.032 97.894 125.032 98.2401Z" fill="black"/>
<path d="M124.579 84.8257V84.077H120.216V84.8257H124.579Z" fill="#DD2D46"/>
<path opacity="0.1" d="M124.579 84.8257V84.077H120.216V84.8257H124.579Z" fill="black"/>
<path d="M123.68 84.077H121.251C121.268 83.7665 121.403 83.4742 121.629 83.2603C121.855 83.0464 122.154 82.9272 122.466 82.9272C122.777 82.9272 123.076 83.0464 123.302 83.2603C123.528 83.4742 123.663 83.7665 123.68 84.077Z" fill="#DD2D46"/>
<path d="M188.033 149.788C225.092 149.788 255.135 147.031 255.135 143.631C255.135 140.231 225.092 137.475 188.033 137.475C150.974 137.475 120.932 140.231 120.932 143.631C120.932 147.031 150.974 149.788 188.033 149.788Z" fill="#EBEBEB"/>
<path d="M139.197 112.425H124.457C124.457 112.425 124.489 110.232 125.937 109.648C126.333 109.478 126.772 109.443 127.19 109.547C127.607 109.65 127.979 109.887 128.249 110.222C128.249 110.222 128.841 106.19 131.542 106.19C134.242 106.19 135.534 109.665 135.534 109.665C135.763 109.334 136.084 109.076 136.458 108.924C136.832 108.772 137.242 108.732 137.638 108.81C139.137 108.988 139.197 112.425 139.197 112.425Z" fill="#37474F"/>
<path d="M200.72 112.425C200.72 112.425 200.267 110.318 199.365 109.99C198.462 109.662 197.913 110.614 197.913 110.614C197.913 110.614 197.702 108.6 196.422 107.997C195.141 107.395 194.181 108.628 194.181 108.628C194.181 108.628 193.2 106.072 191.445 106.072C189.69 106.072 188.805 109.812 188.805 109.812C188.805 109.812 187.771 108.696 186.708 109.327C185.645 109.958 185.638 112.425 185.638 112.425H200.72Z" fill="#37474F"/>
<path d="M262.563 112.425C262.563 112.425 262.109 110.318 261.207 109.99C260.304 109.662 259.755 110.614 259.755 110.614C259.755 110.614 259.545 108.6 258.264 107.997C256.983 107.395 256.024 108.628 256.024 108.628C256.024 108.628 255.043 106.072 253.287 106.072C251.532 106.072 250.648 109.812 250.648 109.812C250.648 109.812 249.613 108.696 248.554 109.327C247.494 109.958 247.483 112.425 247.483 112.425H262.563Z" fill="#37474F"/>
<path d="M127.097 112.425H113.506C113.506 112.425 113.955 110.507 114.854 110.371C115.125 110.347 115.397 110.405 115.633 110.54C115.869 110.674 116.058 110.878 116.174 111.123C116.174 111.123 116.135 108.453 117.819 108.001C119.503 107.548 120.915 109.904 120.915 109.904C120.915 109.904 121.968 108.557 123.412 108.646C124.857 108.735 125.196 110.952 125.196 110.952C125.196 110.952 126.519 110.182 127.097 112.425Z" fill="#455A64"/>
<path d="M211.037 112.425H197.445C197.445 112.425 197.891 110.507 198.794 110.371C199.696 110.236 200.114 111.123 200.114 111.123C200.114 111.123 200.071 108.453 201.755 108.001C203.438 107.548 204.851 109.904 204.851 109.904C204.851 109.904 205.921 108.557 207.348 108.646C208.775 108.735 209.153 110.952 209.153 110.952C209.153 110.952 210.459 110.182 211.037 112.425Z" fill="#455A64"/>
<path d="M186.607 112.425H178.271C178.271 112.425 178.288 111.18 179.112 110.853C179.335 110.755 179.583 110.733 179.82 110.79C180.056 110.847 180.267 110.979 180.422 111.166C180.422 111.166 180.753 108.881 182.284 108.881C183.814 108.881 184.545 110.853 184.545 110.853C184.675 110.665 184.857 110.519 185.069 110.432C185.28 110.346 185.513 110.324 185.737 110.368C186.607 110.478 186.607 112.425 186.607 112.425Z" fill="#455A64"/>
<path d="M252.247 112.425H243.889C243.889 112.425 243.91 111.18 244.731 110.853C244.953 110.755 245.202 110.733 245.438 110.79C245.674 110.847 245.885 110.979 246.04 111.166C246.04 111.166 246.375 108.881 247.902 108.881C249.429 108.881 250.167 110.853 250.167 110.853C250.297 110.665 250.479 110.519 250.691 110.432C250.902 110.346 251.134 110.324 251.359 110.368C252.208 110.478 252.247 112.425 252.247 112.425Z" fill="#455A64"/>
<path d="M111.641 114.585L130.74 114.496L149.84 114.467L188.035 114.407L226.23 114.464L245.33 114.496L264.429 114.585L245.33 114.67L226.23 114.703L188.035 114.763L149.84 114.703L130.74 114.67L111.641 114.585Z" fill="#263238"/>
<path d="M263.684 112.421H112.387V114.563H263.684V112.421Z" fill="#C7C7C7"/>
<path d="M122.992 112.421C123.234 113.114 123.234 113.867 122.992 114.56C122.868 114.217 122.807 113.855 122.814 113.49C122.809 113.126 122.869 112.764 122.992 112.421Z" fill="#263238"/>
<path d="M134.817 112.421C135.059 113.114 135.059 113.867 134.817 114.56C134.58 113.867 134.58 113.114 134.817 112.421Z" fill="#263238"/>
<path d="M146.654 112.421C146.895 113.114 146.895 113.867 146.654 114.56C146.529 114.217 146.468 113.855 146.475 113.49C146.47 113.126 146.53 112.764 146.654 112.421Z" fill="#263238"/>
<path d="M158.469 112.421C158.71 113.114 158.71 113.867 158.469 114.56C158.232 113.867 158.232 113.114 158.469 112.421Z" fill="#263238"/>
<path d="M170.295 112.421C170.537 113.114 170.537 113.867 170.295 114.56C170.058 113.867 170.058 113.114 170.295 112.421Z" fill="#263238"/>
<path d="M182.124 112.421C182.361 113.114 182.361 113.867 182.124 114.56C181.882 113.867 181.882 113.114 182.124 112.421Z" fill="#263238"/>
<path d="M193.949 112.421C194.186 113.114 194.186 113.867 193.949 114.56C193.707 113.867 193.707 113.114 193.949 112.421Z" fill="#263238"/>
<path d="M205.775 112.421C206.012 113.114 206.012 113.867 205.775 114.56C205.533 113.867 205.533 113.114 205.775 112.421Z" fill="#263238"/>
<path d="M217.601 112.421C217.838 113.114 217.838 113.867 217.601 114.56C217.359 113.867 217.359 113.114 217.601 112.421Z" fill="#263238"/>
<path d="M229.416 112.421C229.539 112.764 229.599 113.126 229.594 113.49C229.601 113.855 229.54 114.217 229.416 114.56C229.174 113.867 229.174 113.114 229.416 112.421Z" fill="#263238"/>
<path d="M241.253 112.421C241.376 112.764 241.436 113.126 241.431 113.49C241.438 113.855 241.377 114.217 241.253 114.56C241.011 113.867 241.011 113.114 241.253 112.421Z" fill="#263238"/>
<path d="M253.078 112.421C253.201 112.764 253.261 113.126 253.256 113.49C253.263 113.855 253.203 114.217 253.078 114.56C252.836 113.867 252.836 113.114 253.078 112.421Z" fill="#263238"/>
<path d="M157.712 121.764C157.712 121.764 156.642 136.476 156.642 136.487C156.642 139.371 156.667 141.899 156.809 143.203C156.807 143.207 156.806 143.21 156.806 143.214C156.806 143.218 156.807 143.221 156.809 143.225C156.809 143.534 156.881 143.839 157.02 144.116C157.02 144.116 157.02 144.116 157.02 144.134C157.876 144.718 180.921 145.506 181.731 145.264C182.54 145.021 181.916 142.686 181.046 141.941C180.175 141.196 171.485 136.951 171.485 136.951L172.406 122.242L157.712 121.764Z" fill="#AD6359"/>
<path d="M156.642 133.393V136.487C156.642 139.371 156.667 141.899 156.809 143.203C156.807 143.207 156.806 143.21 156.806 143.214C156.806 143.218 156.807 143.221 156.809 143.225C156.844 143.529 156.915 143.828 157.02 144.116C157.02 144.116 157.02 144.116 157.02 144.134C157.876 144.718 180.921 145.506 181.731 145.264C182.54 145.021 181.916 142.686 181.046 141.941C180.175 141.196 171.485 136.951 171.485 136.951L171.528 133.81L156.642 133.393Z" fill="white"/>
<path d="M181.741 145.264C180.928 145.506 157.887 144.718 157.03 144.134C156.702 143.916 156.62 140.569 156.638 136.487V136.362L171.507 136.719V136.968C171.507 136.968 180.193 141.214 181.067 141.959C181.941 142.704 182.558 145.025 181.741 145.264Z" fill="#43B1ED"/>
<path d="M181.513 144.362C177.632 144.134 161.957 143.581 158.104 143.649C158.072 143.649 158.072 143.67 158.104 143.674C161.946 143.984 177.625 144.412 181.509 144.426C181.591 144.444 181.613 144.369 181.513 144.362Z" fill="#263238"/>
<path d="M172.745 137.043C171.225 136.705 169.349 136.876 168.143 137.924C168.096 137.967 168.143 138.031 168.207 138.016C169.682 137.594 171.199 137.333 172.73 137.236C172.756 137.238 172.781 137.229 172.801 137.213C172.82 137.196 172.832 137.172 172.834 137.147C172.836 137.121 172.827 137.096 172.811 137.077C172.794 137.057 172.77 137.045 172.745 137.043Z" fill="#263238"/>
<path d="M173.826 137.746C172.306 137.407 170.43 137.578 169.224 138.626C169.178 138.669 169.224 138.733 169.285 138.719C170.761 138.297 172.279 138.035 173.812 137.938C173.837 137.94 173.862 137.932 173.882 137.915C173.901 137.898 173.913 137.874 173.915 137.849C173.917 137.823 173.909 137.798 173.892 137.779C173.875 137.759 173.851 137.747 173.826 137.746Z" fill="#263238"/>
<path d="M174.907 138.448C173.387 138.109 171.511 138.28 170.305 139.328C170.259 139.371 170.305 139.435 170.366 139.421C171.842 138.999 173.36 138.738 174.893 138.64C174.918 138.642 174.943 138.634 174.963 138.617C174.982 138.6 174.994 138.577 174.996 138.551C174.998 138.526 174.99 138.5 174.973 138.481C174.956 138.462 174.932 138.45 174.907 138.448Z" fill="#263238"/>
<path d="M155.751 137.125L171.882 136.801C171.882 136.801 173.848 107.797 173.481 98.1296C173.085 87.624 168.568 56.3712 168.568 56.3712H154.948C154.948 56.3712 158.43 87.7417 158.516 98.2544C158.573 107.997 155.751 137.125 155.751 137.125Z" fill="#455A64"/>
<path d="M165.892 56.3926L157.712 84.6617C156.746 71.2757 154.951 56.3747 154.951 56.3747L165.892 56.3926Z" fill="#263238"/>
<path d="M157.53 57.9148L158.397 67.2404L159.196 76.5767C159.71 82.8008 160.199 89.0286 160.57 95.2671C160.659 96.8249 160.716 98.3934 160.691 99.9619C160.666 101.53 160.595 103.085 160.516 104.646C160.354 107.769 160.153 110.887 159.913 114C159.673 117.114 159.421 120.226 159.157 123.337L158.287 132.68L159 123.337C159.238 120.223 159.457 117.109 159.656 113.993C159.853 110.877 160.067 107.762 160.209 104.646C160.281 103.085 160.338 101.527 160.366 99.9691C160.395 98.4112 160.323 96.857 160.227 95.2991C159.888 89.0678 159.396 82.8222 158.943 76.6123L157.53 57.9148Z" fill="#263238"/>
<path d="M171.207 134.106C168.688 134.084 169.423 134.056 166.894 134.06C165.66 134.06 157.562 134.092 156.413 134.295C156.388 134.295 156.388 134.345 156.413 134.348C157.566 134.523 165.663 134.348 166.894 134.327C169.413 134.273 168.678 134.263 171.207 134.181C171.268 134.184 171.268 134.106 171.207 134.106Z" fill="#263238"/>
<path d="M131.482 113.872C131.482 113.872 123.702 126.506 123.698 126.516C122.432 129.108 121.372 131.4 120.933 132.637C120.932 132.644 120.932 132.652 120.933 132.659C120.798 132.937 120.73 133.244 120.734 133.553C120.734 133.553 120.734 133.553 120.734 133.575C121.251 134.473 141.67 145.168 142.494 145.303C143.318 145.439 143.779 143.061 143.318 142.013C142.858 140.965 136.883 133.393 136.883 133.393L144.531 120.699L131.482 113.872Z" fill="#AD6359"/>
<path d="M120.73 133.553C120.728 133.56 120.728 133.568 120.73 133.575C121.251 134.462 141.659 145.157 142.512 145.303C143.364 145.449 143.793 143.061 143.336 142.013C142.879 140.965 136.883 133.393 136.883 133.393L138.249 131.126C134.91 129.343 128.842 126.228 125.075 124.292C124.254 125.622 123.698 126.531 123.698 126.534C122.431 129.126 121.368 131.418 120.933 132.655C120.932 132.662 120.932 132.669 120.933 132.676C120.797 132.948 120.727 133.249 120.73 133.553Z" fill="white"/>
<path d="M142.508 145.303C141.67 145.171 121.25 134.477 120.747 133.575C120.544 133.236 121.932 130.17 123.712 126.516L123.769 126.402L137.022 133.158L136.9 133.375C136.9 133.375 142.883 140.965 143.35 142.016C143.817 143.068 143.346 145.438 142.508 145.303Z" fill="#43B1ED"/>
<path d="M142.694 144.39C139.294 142.505 125.413 135.211 121.91 133.603C121.882 133.603 121.871 133.603 121.91 133.628C125.235 135.571 139.18 142.751 142.676 144.447C142.729 144.483 142.765 144.444 142.694 144.39Z" fill="#263238"/>
<path d="M137.967 133.995C136.747 133.033 134.981 132.373 133.44 132.798C133.379 132.798 133.404 132.897 133.44 132.908C134.954 133.167 136.436 133.588 137.86 134.163C137.882 134.177 137.909 134.182 137.935 134.176C137.961 134.171 137.983 134.155 137.997 134.133C138.011 134.11 138.016 134.083 138.011 134.058C138.005 134.032 137.989 134.01 137.967 133.995Z" fill="#263238"/>
<path d="M138.638 135.097C137.414 134.134 135.648 133.475 134.111 133.899C134.05 133.899 134.075 133.999 134.111 134.006C135.623 134.268 137.104 134.69 138.527 135.264C138.55 135.279 138.577 135.284 138.603 135.279C138.629 135.274 138.652 135.258 138.666 135.236C138.681 135.214 138.686 135.187 138.681 135.161C138.676 135.134 138.66 135.112 138.638 135.097Z" fill="#263238"/>
<path d="M139.308 136.198C138.085 135.236 136.319 134.576 134.778 134.997C134.717 135.015 134.742 135.1 134.778 135.108C136.292 135.368 137.774 135.79 139.198 136.366C139.22 136.381 139.247 136.386 139.273 136.381C139.299 136.375 139.322 136.36 139.337 136.337C139.352 136.315 139.357 136.288 139.352 136.262C139.346 136.236 139.331 136.213 139.308 136.198Z" fill="#263238"/>
<path d="M167.173 56.3605C167.116 56.6385 166.163 61.0554 165.175 64.8483C164.462 67.6218 163.72 70.0566 163.295 70.3097C162.814 70.5913 160.477 71.6287 159.692 71.9531C159.692 71.9531 154.431 98.1973 151.652 106.332C149.09 113.843 138.485 133.913 138.485 133.913L123.109 126.16C123.109 126.16 135.124 105.79 136.391 102.136C138.349 96.4684 145.687 68.8017 145.687 68.8017C145.687 68.8017 145.63 60.1428 148.541 56.3605H167.173Z" fill="#455A64"/>
<path d="M138.255 130.933C136.058 129.703 136.703 130.024 134.492 128.823C133.421 128.235 126.287 124.374 125.188 124C125.163 124 125.142 124.032 125.163 124.046C126.091 124.759 133.272 128.491 134.367 129.058C136.6 130.22 135.972 129.86 138.22 130.997C138.224 131 138.228 131.001 138.233 131.002C138.238 131.002 138.243 131.002 138.247 131.001C138.252 130.999 138.256 130.997 138.26 130.994C138.264 130.991 138.267 130.987 138.269 130.983C138.272 130.979 138.273 130.974 138.274 130.969C138.274 130.965 138.274 130.96 138.273 130.955C138.271 130.951 138.269 130.946 138.266 130.942C138.263 130.939 138.259 130.936 138.255 130.933Z" fill="#263238"/>
<path d="M149.618 66.3955C150.039 66.285 150.492 66.2529 150.92 66.1852C151.276 66.1281 151.612 66.0675 151.958 65.9927C152.616 65.8736 153.24 65.6107 153.784 65.2227C154.38 64.7592 154.683 64.057 154.969 63.3832C155.14 62.9804 155.325 62.5847 155.497 62.1854C155.582 61.9929 155.671 61.8004 155.761 61.6079C155.882 61.3837 155.99 61.1528 156.085 60.9163C156.085 60.8843 156.149 60.9163 156.135 60.9342C156.077 61.0977 156.028 61.2643 155.989 61.4332C155.932 61.6257 155.878 61.8182 155.818 62.0107C155.711 62.3672 155.607 62.7023 155.493 63.0445C155.323 63.6748 155.076 64.2817 154.758 64.8519C154.123 65.8643 152.974 66.2778 151.854 66.4133C151.526 66.4561 151.198 66.4775 150.873 66.4989C150.46 66.5345 150.045 66.5345 149.632 66.4989C149.571 66.4989 149.553 66.4097 149.618 66.3955Z" fill="#263238"/>
<path d="M164.537 69.7036C162.867 70.3108 161.254 71.0611 159.714 71.9459C159.7 71.9521 159.69 71.9632 159.685 71.9769C159.68 71.9906 159.681 72.0058 159.687 72.019C159.693 72.0322 159.704 72.0425 159.718 72.0475C159.731 72.0525 159.747 72.0519 159.76 72.0457C161.383 71.3506 163.038 70.6804 164.622 69.9068C164.649 69.8955 164.67 69.8739 164.682 69.8468C164.693 69.8198 164.692 69.7894 164.681 69.7625C164.67 69.7355 164.648 69.7142 164.621 69.7032C164.594 69.6921 164.564 69.6923 164.537 69.7036Z" fill="#263238"/>
<path d="M165.025 58.5849C165.025 58.5279 164.922 58.5172 164.922 58.5849C164.922 60.51 164.811 62.2068 164.65 64.0071C164.575 64.8448 163.901 69.4648 162.449 69.1262C162.207 69.0691 162.093 68.8303 162.046 68.4667C162.05 67.9851 162.115 67.506 162.239 67.0407C162.399 66.0747 162.528 65.105 162.596 64.1283C162.766 62.3084 162.747 60.4758 162.539 58.6598C162.539 58.6475 162.534 58.6357 162.525 58.627C162.516 58.6184 162.504 58.6135 162.492 58.6135C162.48 58.6135 162.468 58.6184 162.459 58.627C162.451 58.6357 162.446 58.6475 162.446 58.6598C162.488 61.1817 162.34 63.7032 162.003 66.203C161.822 67.4079 161.215 69.2153 162.474 69.4113C163.734 69.6074 164.583 66.5595 164.74 65.7396C165.143 63.377 165.239 60.9721 165.025 58.5849Z" fill="#263238"/>
<path d="M162.489 69.2438C162.36 69.5558 162.251 69.8762 162.164 70.2027C162.069 70.4541 162.023 70.7216 162.029 70.9905C162.029 71.0405 162.1 71.044 162.129 71.0119C162.279 70.7748 162.392 70.5164 162.464 70.2455C162.575 69.9496 162.692 69.6537 162.792 69.3543C162.807 69.3141 162.805 69.2698 162.787 69.231C162.769 69.1922 162.736 69.1622 162.696 69.1475C162.656 69.1329 162.611 69.1348 162.573 69.1528C162.534 69.1709 162.504 69.2036 162.489 69.2438Z" fill="#263238"/>
<path d="M127.247 123.611C129.437 119.49 131.695 115.412 133.964 111.33C135.081 109.32 136.244 107.33 137.31 105.291C138.315 103.274 139.131 101.167 139.747 98.9994C141.102 94.5981 142.385 90.1765 143.596 85.7347C144.806 81.2929 145.944 76.8309 147.01 72.3488C147.277 71.2294 147.57 70.11 147.787 68.98C147.982 67.8368 147.982 66.6689 147.787 65.5257C147.624 64.463 147.616 63.3824 147.763 62.3173C147.934 61.2531 148.186 60.2033 148.515 59.1767C148.686 58.6349 148.872 58.1073 149.057 57.5654C149.058 57.5579 149.06 57.5505 149.064 57.5439C149.067 57.5373 149.073 57.5317 149.079 57.5274C149.085 57.5231 149.092 57.5202 149.1 57.5191C149.107 57.5179 149.115 57.5184 149.122 57.5207C149.129 57.5229 149.136 57.5267 149.141 57.5319C149.147 57.537 149.151 57.5434 149.154 57.5505C149.157 57.5575 149.158 57.5651 149.157 57.5726C149.156 57.5801 149.154 57.5874 149.15 57.5939C148.487 59.7613 147.809 61.9537 147.952 64.253C148.019 65.3546 148.308 66.4383 148.308 67.5505C148.237 68.6545 148.05 69.7479 147.748 70.8123C146.702 75.3278 145.578 79.8147 144.377 84.2731C143.176 88.7315 141.907 93.1793 140.571 97.6163C139.918 99.7552 139.308 101.958 138.38 104.012C137.453 106.065 136.276 108.015 135.17 109.979C132.883 114.043 130.579 118.096 128.224 122.117C127.925 122.626 127.624 123.135 127.322 123.643C127.279 123.675 127.233 123.643 127.247 123.611Z" fill="#263238"/>
<path d="M159.891 31.3033C157.997 30.2873 152.785 29.8417 150.684 31.2498C148.034 33.0323 145.594 43.3204 146.674 43.9299C148.604 45.0172 155.282 39.0354 156.738 36.5828C158.193 34.1302 159.891 31.3033 159.891 31.3033Z" fill="#43B1ED"/>
<path opacity="0.1" d="M159.892 31.3033C159.892 31.3033 158.194 34.1267 156.738 36.5793C155.283 39.0319 148.605 45.0172 146.675 43.9299C146.086 43.5948 146.547 40.3651 147.524 37.2102L157.766 30.6331C158.503 30.7551 159.219 30.9807 159.892 31.3033Z" fill="black"/>
<path d="M160.402 38.6861C161.318 42.7821 165.039 55.0201 168.963 56.5601C171.521 57.569 182.576 59.0056 183.793 58.1893C184.82 57.4977 185.576 47.8085 184.092 47.8798C182.608 47.9511 172.734 47.2488 171.728 46.7675C170.722 46.2863 165.781 36.868 163.198 34.1231C158.732 29.3926 159.909 36.4794 160.402 38.6861Z" fill="#AD6359"/>
<path d="M188.784 58.7311C186.618 59.3336 181.713 58.8309 180.579 58.257C179.444 57.683 180.015 49.3164 181.103 48.5892C182.191 47.8619 189.633 46.4004 191.737 47.3023C193.842 48.2042 191.024 58.1073 188.784 58.7311Z" fill="#AD6359"/>
<path d="M235.455 122.367C235.319 122.349 221.735 120.567 212.335 106.325C209.713 102.379 207.319 91.3279 204.801 79.6174C201.383 63.8573 197.516 45.994 192.775 45.9227C189.44 45.8728 186.679 49.131 185.933 50.6282C185.102 52.2966 183.514 54.8847 183.497 54.906L183.193 54.7207C183.193 54.6957 184.792 52.1183 185.616 50.4643C186.386 48.9207 189.229 45.5626 192.7 45.5626H192.782C197.805 45.6375 201.537 62.8734 205.147 79.539C207.676 91.2067 210.063 102.226 212.638 106.14C221.924 120.228 235.362 121.985 235.498 122.014L235.455 122.367Z" fill="#263238"/>
<path d="M186.234 47.8611L181.966 55.1457L183.813 56.2265L188.081 48.9418L186.234 47.8611Z" fill="#DDAF89"/>
<path d="M188.216 46.5679C187.4 47.4342 188.887 47.8976 188.887 47.8976C188.887 47.8976 186.583 47.7443 186.087 48.967C185.591 50.1898 187.432 50.6389 187.56 50.6782C187.439 50.6782 185.316 50.5819 184.945 51.8581C184.574 53.1343 186.468 53.3696 186.593 53.3839C186.476 53.4124 184.931 53.8259 184.87 54.8597C184.763 56.6421 188.737 55.6832 189.932 56.4853C189.932 56.4853 188.801 58.6634 188.784 58.7347C188.784 58.7347 192.583 57.9076 193.578 56.2393C193.726 55.9984 193.788 55.7143 193.753 55.4337C193.718 55.1531 193.588 54.8928 193.386 54.6957C193.386 54.6957 194.638 54.5638 194.966 53.5692C195.13 53.0595 194.459 52.3394 194.459 52.3394C194.741 52.2948 195.006 52.1734 195.224 51.9886C195.441 51.8037 195.604 51.5624 195.694 51.2913C195.883 50.5783 195.18 49.9616 195.18 49.9616C195.18 49.9616 196.075 49.3734 196.029 48.5785C195.94 46.96 189.964 44.7178 188.216 46.5679Z" fill="#AD6359"/>
<path d="M194.495 52.3322C194.516 52.3322 194.534 52.3073 194.513 52.2895C192.458 50.9084 189.977 50.3066 187.517 50.5926C187.432 50.5926 187.364 50.7031 187.464 50.696C189.144 50.5783 192.633 51.4446 194.495 52.3322Z" fill="#263238"/>
<path d="M186.425 53.4659C188.833 53.2056 191.08 53.7475 193.31 54.6316C193.339 54.6316 193.353 54.603 193.331 54.5852C192.358 53.8544 190.881 53.4373 189.7 53.2128C188.61 52.9805 187.478 53.0383 186.418 53.3803C186.375 53.3946 186.375 53.4694 186.425 53.4659Z" fill="#263238"/>
<path d="M188.886 47.8976C188.442 47.9083 188 47.9608 187.566 48.0544C187.14 48.1259 186.742 48.3092 186.41 48.5856C186.265 48.7209 186.175 48.9049 186.157 49.1025C186.144 49.3021 186.18 49.5019 186.264 49.6836C186.363 49.8566 186.498 50.007 186.659 50.1249C186.82 50.2428 187.004 50.3256 187.199 50.368L188.144 50.614L187.17 50.7102C186.738 50.7494 186.315 50.859 185.918 51.0346C185.73 51.1054 185.559 51.215 185.417 51.3563C185.274 51.4976 185.163 51.6674 185.09 51.8546C185.024 52.0293 185.02 52.2215 185.08 52.3988C185.139 52.5761 185.257 52.7275 185.415 52.8278C185.774 53.044 186.181 53.1665 186.599 53.1842L187.752 53.2698L186.639 53.5621C186.329 53.6434 186.03 53.7632 185.75 53.9186C185.481 54.0572 185.257 54.2716 185.108 54.5353C185.044 54.6597 185.016 54.8 185.029 54.9396C185.041 55.0792 185.094 55.2123 185.18 55.3231C185.399 55.5408 185.676 55.6906 185.979 55.7545C186.63 55.907 187.292 56.0084 187.958 56.0575C188.294 56.0931 188.633 56.1288 188.968 56.1823C189.308 56.2146 189.638 56.3191 189.935 56.4888C189.626 56.3553 189.294 56.2827 188.957 56.2749C188.622 56.2464 188.287 56.2357 187.948 56.225C187.258 56.2264 186.571 56.1632 185.893 56.0361C185.527 55.9709 185.189 55.7999 184.919 55.5442C184.787 55.3897 184.704 55.2001 184.678 54.9987C184.653 54.7972 184.687 54.5928 184.776 54.4105C184.951 54.077 185.22 53.8028 185.551 53.6227C185.86 53.4436 186.191 53.3046 186.535 53.2092L186.574 53.5906C186.079 53.5797 185.595 53.4382 185.172 53.1807C184.943 53.0311 184.771 52.807 184.687 52.5461C184.607 52.2885 184.607 52.0124 184.687 51.7547C184.777 51.5164 184.918 51.3002 185.099 51.1206C185.28 50.941 185.497 50.8023 185.736 50.7138C186.176 50.5281 186.644 50.4149 187.12 50.3787L187.092 50.7352C186.851 50.6742 186.627 50.5612 186.436 50.4041C186.244 50.247 186.089 50.0497 185.982 49.8262C185.89 49.6006 185.856 49.3552 185.886 49.1132C185.922 48.8617 186.049 48.6321 186.243 48.468C186.616 48.1887 187.059 48.0184 187.523 47.976C187.973 47.8984 188.43 47.8721 188.886 47.8976Z" fill="#263238"/>
<path d="M182.326 48.1186C182.326 48.1186 189.761 42.1618 190.667 46.2079C190.934 47.4092 190.606 52.6638 189.547 52.6246C188.18 52.564 187.909 50.3431 187.959 48.9243C187.959 48.9243 185.715 51.3056 183.593 50.2361C183.206 50.0349 182.883 49.7304 182.66 49.3565C182.436 48.9827 182.321 48.5541 182.326 48.1186Z" fill="#AD6359"/>
<path d="M190.567 45.8763C190.728 46.3355 190.821 46.816 190.842 47.3023C190.877 47.7876 190.877 48.2749 190.842 48.7603C190.797 49.7347 190.667 50.7033 190.453 51.6549C190.393 51.9041 190.299 52.1439 190.174 52.3679C190.1 52.4966 189.999 52.6083 189.878 52.6958C189.813 52.7441 189.739 52.7803 189.661 52.8028C189.582 52.8239 189.5 52.8335 189.418 52.8313C189.125 52.8096 188.849 52.683 188.641 52.4748C188.451 52.2875 188.296 52.0678 188.184 51.826C187.985 51.3632 187.864 50.8705 187.827 50.368C187.781 49.8787 187.77 49.3866 187.795 48.8957L188.088 49.0134C187.822 49.2783 187.532 49.517 187.221 49.7263C186.915 49.9342 186.589 50.1098 186.247 50.2504C185.905 50.3905 185.544 50.4794 185.177 50.5142C184.816 50.5452 184.453 50.5089 184.106 50.4072C184.461 50.4661 184.822 50.4661 185.177 50.4072C185.526 50.3414 185.865 50.2274 186.183 50.0686C186.501 49.9135 186.803 49.7272 187.085 49.5125C187.365 49.2993 187.624 49.0607 187.859 48.7995L188.148 48.4751V48.9171C188.143 49.3936 188.17 49.87 188.227 50.3431C188.274 50.8024 188.394 51.2513 188.583 51.6727C188.773 52.0613 189.094 52.4249 189.468 52.4392C189.843 52.4534 189.996 51.9864 190.117 51.5515C190.24 51.0936 190.339 50.6295 190.413 50.1613C190.499 49.6871 190.574 49.2166 190.628 48.7353C190.755 47.7849 190.735 46.8205 190.567 45.8763Z" fill="#263238"/>
<path d="M181.495 47.0171L179.954 59.0056C179.954 59.0056 169.662 58.8131 165.142 55.4408C163.28 54.0469 160.33 41.2777 159.723 36.8288C159.117 32.3799 160.847 29.7276 164.497 35.4349C168.146 41.1422 171.585 46.1009 172.041 46.1508C172.498 46.2007 181.495 47.0171 181.495 47.0171Z" fill="#43B1ED"/>
<path d="M161.28 40.6039C161.018 40.9316 160.799 41.2909 160.627 41.6734C160.616 41.6938 160.606 41.7153 160.599 41.7376C160.61 41.7259 160.622 41.7152 160.634 41.7055C160.966 41.4284 161.263 41.1124 161.519 40.7644C161.794 40.4127 162.022 40.0268 162.197 39.6165C161.853 39.9076 161.545 40.2392 161.28 40.6039ZM175.906 53.3482C175.633 53.7016 175.406 54.0886 175.232 54.4997C175.578 54.2181 175.888 53.8934 176.152 53.5336C176.429 53.1806 176.657 52.7921 176.83 52.3786C176.483 52.6621 176.172 52.9879 175.906 53.3482ZM167.063 55.4336C166.707 55.1601 166.321 54.9303 165.91 54.7492C166.19 55.0985 166.515 55.4091 166.877 55.6725C167.231 55.9456 167.616 56.1743 168.026 56.3534C167.74 56.007 167.412 55.698 167.048 55.4336H167.063ZM178.631 47.8619C178.186 47.9129 177.749 48.0244 177.333 48.1935C177.777 48.2381 178.225 48.2273 178.667 48.1614C179.112 48.104 179.547 47.9939 179.966 47.8334C179.517 47.7811 179.063 47.7907 178.617 47.8619H178.631ZM163.72 47.8619C163.275 47.9129 162.838 48.0232 162.422 48.1899C162.867 48.2346 163.316 48.2238 163.759 48.1578C164.203 48.1009 164.637 47.9907 165.054 47.8299C164.605 47.7784 164.152 47.7892 163.706 47.8619H163.72ZM171.079 48.5C171.015 48.0556 170.895 47.6209 170.723 47.206C170.65 48.0996 170.772 48.9983 171.079 49.8404C171.127 49.3946 171.122 48.9448 171.065 48.5H171.079Z" fill="white"/>
<path d="M178.76 47.6445C178.542 48.4608 178.442 49.32 178.306 50.1399C178.171 50.9598 178.05 51.8795 177.95 52.7493C177.85 53.6191 177.475 57.1234 177.39 57.9968C177.39 58.036 177.443 58.0431 177.45 57.9968C177.593 57.1269 178.164 53.6869 178.271 52.8313C178.378 51.9758 178.499 51.1202 178.588 50.2611C178.708 49.3897 178.783 48.5128 178.813 47.6338C178.795 47.6374 178.76 47.6231 178.76 47.6445Z" fill="#263238"/>
<path opacity="0.1" d="M174.332 58.4958C171.178 58.0324 167.426 57.1376 165.143 55.4336C163.28 54.0434 160.33 41.267 159.72 36.8217C159.46 34.8967 159.635 33.3139 160.216 32.5902L174.332 58.4958Z" fill="black"/>
<path d="M145.583 64.1532C145.647 64.2138 169.666 62.6524 169.877 62.3708C170.012 62.1961 163.491 35.9269 161.265 32.6972C160.245 31.2142 156.374 30.8791 154.776 32.3834C150.77 36.1443 147.998 48.3147 147.399 51.9615C146.425 57.9789 145.362 63.9322 145.583 64.1532Z" fill="#43B1ED"/>
<path d="M161.044 60.2176C160.985 59.773 160.873 59.3372 160.708 58.92C160.665 59.3665 160.676 59.8165 160.74 60.2604C160.795 60.7039 160.909 61.1379 161.079 61.5509C161.119 61.1066 161.107 60.6592 161.044 60.2176ZM155.693 44.9887C155.637 44.5451 155.526 44.1103 155.361 43.6946C155.313 44.1385 155.323 44.5868 155.393 45.0279C155.449 45.4725 155.561 45.9084 155.725 46.3255C155.774 45.8795 155.766 45.4293 155.703 44.9851L155.693 44.9887ZM163.694 47.8619C163.249 47.9129 162.812 48.0232 162.396 48.1899C162.841 48.2345 163.291 48.2238 163.733 48.1578C164.177 48.1008 164.611 47.9907 165.028 47.8298C164.588 47.7806 164.143 47.7914 163.705 47.8619H163.694ZM154.701 38.2369C154.265 38.292 153.838 38.4035 153.431 38.5684C153.878 38.6136 154.329 38.6016 154.772 38.5328C155.216 38.4779 155.65 38.3689 156.067 38.2084C155.618 38.1453 155.161 38.1465 154.712 38.2119L154.701 38.2369ZM151.897 51.081C151.453 51.1345 151.018 51.2447 150.602 51.4089C151.047 51.4583 151.497 51.4487 151.94 51.3804C152.383 51.3235 152.818 51.2121 153.235 51.0489C152.789 51.0005 152.34 51.0113 151.897 51.081ZM151.012 63.0232C150.569 63.0784 150.134 63.1886 149.717 63.3511C150.163 63.4022 150.613 63.3926 151.055 63.3226C151.499 63.2674 151.934 63.156 152.35 62.9911C151.905 62.9444 151.455 62.9552 151.012 63.0232ZM167.048 55.4336C166.692 55.1601 166.305 54.9303 165.895 54.7492C166.175 55.0985 166.5 55.409 166.862 55.6725C167.216 55.9456 167.601 56.1743 168.011 56.3534C167.729 56.0079 167.406 55.6989 167.048 55.4336ZM149.307 43.8408C149.275 43.9442 149.247 44.0476 149.218 44.1509C149.549 44.3962 149.908 44.6008 150.288 44.7605C150.003 44.4122 149.673 44.103 149.307 43.8408ZM153.096 58.0573C152.741 57.7834 152.354 57.5547 151.943 57.3765C152.222 57.7277 152.547 58.0395 152.91 58.3033C153.266 58.5747 153.653 58.8032 154.062 58.9842C153.783 58.6338 153.458 58.3221 153.096 58.0573ZM157.105 31.7239C157.002 31.6455 156.895 31.5707 156.788 31.4994C156.674 31.4994 156.563 31.5386 156.453 31.5671C156.606 31.7061 156.766 31.8345 156.927 31.9628C157.281 32.2371 157.668 32.4658 158.079 32.6437C157.795 32.2968 157.468 31.9878 157.105 31.7239ZM158.7 52.7957C158.428 53.1487 158.202 53.5343 158.026 53.9435C158.718 53.3637 159.266 52.6316 159.627 51.8046C159.277 52.0943 158.966 52.4273 158.7 52.7957ZM145.893 61.1801C145.865 61.3833 145.833 61.5758 145.808 61.7576L145.843 61.7184C146.12 61.3667 146.348 60.9794 146.521 60.567C146.295 60.753 146.085 60.9581 145.893 61.1801ZM161.279 40.6039C161.002 40.9557 160.773 41.343 160.598 41.7554C160.943 41.4696 161.252 41.1428 161.518 40.7822C161.793 40.4305 162.021 40.0447 162.196 39.6343C161.853 39.9199 161.545 40.2454 161.279 40.6039Z" fill="white"/>
<path d="M160.17 35.8877C158.889 36.0196 156.742 33.6525 156.096 32.002C156.053 31.8879 156.356 30.7935 156.667 29.4496C156.849 28.6332 157.023 27.7171 157.145 26.8722L162.292 28.8436C161.852 29.8635 161.539 30.9339 161.361 32.0305C161.35 32.1491 161.35 32.2684 161.361 32.387C161.363 32.4072 161.363 32.4274 161.361 32.4476C161.376 33.1142 161.411 35.7558 160.17 35.8877Z" fill="#AD6359"/>
<path d="M161.351 32.3835V32.4369C161.167 32.4401 160.984 32.4282 160.802 32.4013C157.737 31.9343 157.495 28.0807 157.491 27.0041L158.783 27.5175L162.296 28.8614C161.856 29.8815 161.544 30.9519 161.365 32.0484C161.351 32.1594 161.346 32.2716 161.351 32.3835Z" fill="#263238"/>
<path d="M157.652 20.673C156.817 22.5231 157.124 28.2055 158.333 29.6207C160.085 31.6705 163.327 32.2551 165.143 30.0699C166.927 27.931 166.392 20.5482 165.008 19.2257C162.967 17.2793 158.883 17.9459 157.652 20.673Z" fill="#AD6359"/>
<path d="M162.66 24.8545C162.66 24.8545 162.631 24.8759 162.635 24.8902C162.664 25.2716 162.635 25.7136 162.278 25.8598V25.8812C162.706 25.7992 162.753 25.211 162.66 24.8545Z" fill="#263238"/>
<path d="M162.3 24.4695C161.683 24.4695 161.693 25.6923 162.268 25.7065C162.842 25.7208 162.817 24.4838 162.3 24.4695Z" fill="#263238"/>
<path d="M164.794 24.801C164.794 24.801 164.826 24.8189 164.822 24.8331C164.822 25.2181 164.869 25.6566 165.218 25.7814C165.218 25.7814 165.218 25.8063 165.218 25.8028C164.79 25.735 164.726 25.1611 164.794 24.801Z" fill="#263238"/>
<path d="M165.132 24.3947C165.749 24.3448 165.81 25.5782 165.239 25.6281C164.668 25.678 164.615 24.441 165.132 24.3947Z" fill="#263238"/>
<path d="M161.803 23.9098C161.966 23.8613 162.126 23.8029 162.281 23.7352C162.459 23.6981 162.619 23.6043 162.738 23.4678C162.767 23.4173 162.778 23.3587 162.769 23.3012C162.761 23.2437 162.734 23.1906 162.692 23.1505C162.598 23.0824 162.487 23.0409 162.372 23.0302C162.256 23.0196 162.14 23.0402 162.035 23.0899C161.808 23.1566 161.613 23.3052 161.489 23.507C161.463 23.5546 161.452 23.6088 161.456 23.6629C161.46 23.7171 161.48 23.7687 161.514 23.8116C161.547 23.8544 161.592 23.8865 161.644 23.904C161.695 23.9215 161.751 23.9235 161.803 23.9098Z" fill="#263238"/>
<path d="M165.606 23.7673C165.439 23.7361 165.274 23.6956 165.111 23.646C164.932 23.6256 164.764 23.5481 164.633 23.425C164.598 23.3787 164.579 23.3225 164.579 23.2646C164.579 23.2068 164.598 23.1505 164.633 23.1042C164.719 23.0272 164.824 22.9747 164.938 22.9522C165.051 22.9296 165.169 22.9378 165.278 22.9759C165.512 23.0179 165.722 23.1449 165.867 23.3323C165.897 23.3763 165.915 23.4281 165.917 23.4816C165.918 23.535 165.905 23.5879 165.877 23.6338C165.85 23.6797 165.81 23.7167 165.762 23.7404C165.714 23.7641 165.66 23.7734 165.606 23.7673Z" fill="#263238"/>
<path d="M162.242 28.3374C162.335 28.4265 162.427 28.5477 162.567 28.5584C162.709 28.5557 162.849 28.5216 162.977 28.4586C162.977 28.4586 163.002 28.4586 162.995 28.4586C162.941 28.5349 162.867 28.5952 162.782 28.6329C162.696 28.6706 162.602 28.6843 162.509 28.6725C162.431 28.6533 162.36 28.6111 162.306 28.5514C162.252 28.4917 162.217 28.4171 162.206 28.3374C162.199 28.3338 162.228 28.3231 162.242 28.3374Z" fill="#263238"/>
<path d="M162.635 27.1859C162.733 27.3365 162.862 27.465 163.014 27.5631C163.165 27.6613 163.334 27.7271 163.512 27.7563C163.668 27.7813 163.827 27.7813 163.983 27.7563C164.013 27.7598 164.043 27.7598 164.072 27.7563H164.154C164.175 27.7525 164.194 27.7421 164.208 27.7267C164.222 27.7112 164.231 27.6916 164.233 27.6708C164.235 27.6577 164.235 27.6446 164.233 27.6315V27.5995C164.233 27.3036 164.208 26.8544 164.208 26.8544C164.315 26.9079 164.868 27.1503 164.857 26.997C164.81 25.6664 164.627 24.3441 164.311 23.0507C164.309 23.0436 164.304 23.0374 164.298 23.033C164.292 23.0286 164.285 23.0262 164.277 23.0262C164.27 23.0262 164.263 23.0286 164.256 23.033C164.25 23.0374 164.246 23.0436 164.244 23.0507C164.279 24.2806 164.532 25.4926 164.6 26.7296C164.403 26.641 164.194 26.5798 163.98 26.5478C163.94 26.5478 164.058 27.4141 164.047 27.546C163.806 27.5726 163.561 27.5503 163.328 27.4805C163.095 27.4107 162.879 27.2947 162.692 27.1396C162.642 27.1289 162.61 27.161 162.635 27.1859Z" fill="#263238"/>
<path d="M163.816 27.7171C163.645 27.914 163.426 28.0637 163.181 28.152C163.045 28.1949 162.899 28.1949 162.763 28.152C162.471 28.0557 162.478 27.7955 162.546 27.5495C162.583 27.4248 162.636 27.3052 162.703 27.193C163.007 27.4829 163.398 27.6667 163.816 27.7171Z" fill="#263238"/>
<path d="M163.181 28.152C163.045 28.1949 162.899 28.1949 162.763 28.152C162.471 28.0557 162.478 27.7955 162.546 27.5495C162.703 27.5652 162.851 27.6329 162.966 27.742C163.081 27.8511 163.157 27.9953 163.181 28.152Z" fill="#FF98B9"/>
<path opacity="0.2" d="M157.152 24.851C157.565 24.6585 158.372 23.3716 158.732 22.8475C159.092 22.3235 159.167 19.6748 159.167 18.887C159.085 18.9405 159.007 18.9975 158.928 19.0581C158.85 19.1187 158.775 19.1793 158.7 19.2435C158.547 19.3739 158.404 19.5158 158.272 19.6677C158.048 19.9414 157.86 20.242 157.712 20.5625C157.284 21.4252 157.102 23.1256 157.152 24.851Z" fill="#263238"/>
<path d="M164.241 21.0402C164.018 21.3077 163.731 21.5137 163.406 21.6386C163.082 21.7634 162.73 21.8028 162.386 21.7531C162.035 21.7043 161.702 21.5667 161.419 21.3533C161.136 21.14 160.913 20.8579 160.77 20.534H160.741C160.858 20.8892 161.069 21.2058 161.353 21.4496C161.636 21.6934 161.981 21.8551 162.35 21.9171C162.716 21.9574 163.086 21.9008 163.422 21.7531C163.759 21.6055 164.051 21.3719 164.269 21.0758C164.298 21.0473 164.262 21.0152 164.241 21.0402Z" fill="#263238"/>
<path d="M162.071 16.0387C161.533 16.0462 161.005 16.1888 160.536 16.4536C160.068 16.7184 159.673 17.0967 159.389 17.5538C159.154 18.0131 159.083 18.5385 159.185 19.0439C159.185 19.0652 159.232 19.0439 159.228 19.0439C159.197 18.5944 159.289 18.145 159.493 17.7433C159.697 17.3416 160.006 17.0026 160.388 16.7624C160.802 16.483 161.275 16.3035 161.77 16.238C162.265 16.1724 162.769 16.2225 163.242 16.3845C163.703 16.5337 164.096 16.842 164.351 17.2543C164.376 17.2971 164.465 17.2543 164.444 17.2222C164.133 16.4879 163.142 15.9995 162.071 16.0387Z" fill="#263238"/>
<path d="M168.963 18.5162C168.763 17.9357 168.363 17.4446 167.836 17.1295C167.122 16.6911 166.288 16.773 165.474 16.8586C165.453 16.8586 165.474 16.8942 165.474 16.8907C166.16 16.7616 166.869 16.8334 167.515 17.0974C168.044 17.358 168.467 17.7922 168.713 18.3273C168.949 18.8794 168.978 19.4979 168.795 20.0695C168.611 20.6411 168.228 21.1275 167.715 21.4394C167.415 21.6113 167.083 21.7202 166.739 21.7594C166.396 21.7987 166.048 21.7674 165.717 21.6676C165.692 21.6676 165.674 21.6961 165.717 21.7068C166.167 21.8619 166.651 21.8885 167.114 21.7836C167.578 21.6786 168.004 21.4463 168.343 21.1128C168.682 20.7793 168.921 20.3579 169.033 19.896C169.145 19.4341 169.126 18.95 168.977 18.4984L168.963 18.5162Z" fill="#263238"/>
<path d="M157.281 21.8565C157.281 21.8565 156.146 19.7533 157.074 18.5234C157.602 17.8104 159.364 17.9031 159.364 17.9031C159.594 17.5547 159.891 17.2552 160.238 17.0215C160.584 16.7879 160.973 16.6247 161.383 16.5413C162.86 16.1849 164.619 17.044 164.619 17.044C164.619 17.044 166.017 16.2312 167.333 16.9727C169.174 18.0065 168.964 20.7942 167.126 21.7032C165.835 22.3413 164.073 21.2077 164.073 21.2077C163.902 21.2327 162.178 22.2772 160.862 20.755C160.862 20.755 159.792 21.7068 158.847 21.0509C158.698 21.3283 158.469 21.554 158.189 21.6979C157.91 21.8418 157.593 21.8972 157.281 21.8565Z" fill="#263238"/>
<path d="M158.258 25.3536C158.258 25.3536 157.188 23.4179 156.328 23.7779C155.468 24.138 156.128 26.8508 157.041 27.3107C157.156 27.3778 157.282 27.4213 157.413 27.4384C157.545 27.4555 157.678 27.446 157.806 27.4104C157.933 27.3748 158.052 27.3138 158.156 27.2311C158.259 27.1485 158.345 27.0458 158.408 26.9293L158.258 25.3536Z" fill="#AD6359"/>
<path d="M156.539 24.5515C156.539 24.5515 156.517 24.5515 156.539 24.5765C157.181 24.933 157.47 25.5817 157.648 26.2555C157.616 26.1841 157.569 26.1204 157.51 26.0689C157.451 26.0173 157.381 25.9791 157.306 25.9567C157.231 25.9344 157.152 25.9285 157.074 25.9395C156.997 25.9504 156.922 25.978 156.856 26.0202C156.838 26.0202 156.856 26.063 156.856 26.0594C156.979 26.0349 157.106 26.0488 157.22 26.0992C157.334 26.1497 157.43 26.2341 157.495 26.3411C157.6 26.5206 157.686 26.7106 157.752 26.9079C157.777 26.972 157.891 26.9506 157.877 26.8793C157.987 26.0095 157.448 24.7369 156.539 24.5515Z" fill="#263238"/>
<path d="M169.873 43.5699L168.928 55.4408H162.393L161.447 43.5699H169.873Z" fill="#C7C7C7"/>
<path d="M170.437 42.4969H160.83V44.2294H170.437V42.4969Z" fill="#455A64"/>
<path d="M169.777 42.4969H161.486L161.971 40.5505H169.295L169.777 42.4969Z" fill="#37474F"/>
<path d="M167.929 49.6194C167.929 51.163 166.913 52.4107 165.66 52.4107C164.408 52.4107 163.392 51.163 163.392 49.6194C163.392 48.0758 164.408 46.8281 165.66 46.8281C166.913 46.8281 167.929 48.0687 167.929 49.6194Z" fill="white"/>
<path d="M152.457 34.5615C146.75 41.2919 142.184 53.1949 143.835 55.758C145.676 58.6099 152.065 50.7673 151.994 50.2682C151.94 49.8832 154.223 42.5789 155.561 35.9197C156.792 29.7669 153.87 32.8968 152.457 34.5615Z" fill="#AD6359"/>
<path d="M152.457 34.5615C146.75 41.2919 142.184 53.1949 143.835 55.758C145.676 58.6099 152.065 50.7673 151.994 50.2682C151.94 49.8832 154.223 42.5789 155.561 35.9197C156.792 29.7669 153.87 32.8968 152.457 34.5615Z" fill="#43B1ED"/>
<path d="M145.063 53.8544C144.792 54.2079 144.565 54.5935 144.389 55.0023C145.08 54.4288 145.628 53.7027 145.99 52.8812C145.642 53.166 145.331 53.4929 145.063 53.8544ZM149.308 43.8408C148.954 43.5657 148.567 43.3358 148.156 43.1564C148.436 43.5057 148.761 43.8162 149.123 44.0797C149.477 44.3536 149.864 44.5823 150.275 44.7605C149.994 44.4132 149.669 44.104 149.308 43.8408ZM150.603 51.4018C150.818 51.4292 151.035 51.4388 151.252 51.4303L151.466 51.1487C151.17 51.2025 150.881 51.2874 150.603 51.4018ZM154.713 38.2119C154.272 38.2742 153.841 38.394 153.432 38.5684C153.879 38.6136 154.329 38.6017 154.773 38.5328L155.026 38.4936L155.091 38.1941L154.713 38.2119Z" fill="white"/>
<path d="M152.618 47.7835C152.775 46.9886 152.975 46.1972 153.15 45.4058C153.324 44.6144 153.542 43.8337 153.738 43.0459L154.37 40.6966C154.587 39.9124 154.809 39.1317 155.04 38.3545C154.916 39.1566 154.748 39.9516 154.569 40.7465C154.391 41.5415 154.191 42.3258 153.995 43.1136C153.799 43.9014 153.574 44.6785 153.346 45.4592C153.118 46.2399 152.882 47.0171 152.618 47.7835Z" fill="#263238"/>
<path d="M155.421 39.2564C155.347 39.6194 155.218 39.969 155.04 40.2938C154.87 40.6253 154.639 40.9216 154.358 41.1672L154.626 40.6859L154.883 40.2082C155.058 39.891 155.215 39.5701 155.421 39.2564Z" fill="#263238"/>
<path d="M144.039 55.6796C145.162 56.9736 148.17 58.6349 158.13 57.5583C159.51 57.4086 160.331 47.1668 158.843 47.2524C156.981 47.3557 150.82 48.3218 150.31 48.4644C146.5 49.6194 142.915 54.3998 144.039 55.6796Z" fill="#AD6359"/>
<path d="M171.14 46.6962C171.266 46.9968 171.297 47.3286 171.228 47.6472C171.16 47.9658 170.996 48.2559 170.758 48.4787C171.223 48.7801 171.567 49.2358 171.728 49.7656C171.971 50.7102 170.594 51.5052 170.594 51.5052C171.009 51.9192 171.29 52.4483 171.4 53.0238C171.539 53.9542 170.266 54.9524 170.266 54.9524C170.437 55.5435 170.389 56.1763 170.13 56.7348C169.381 58.2 166.877 58.421 165.286 58.5743C163.695 58.7275 159.039 57.6795 158.13 57.569L157.645 47.3557C157.645 47.3557 163.984 44.6536 165.881 44.7356C167.48 44.8104 170.615 45.5662 171.14 46.6962Z" fill="#AD6359"/>
<path d="M170.672 48.3254C168.992 47.8441 167.259 47.8833 165.528 47.8263C165.522 47.8285 165.517 47.8326 165.513 47.838C165.509 47.8434 165.507 47.8499 165.507 47.8566C165.507 47.8633 165.509 47.8698 165.513 47.8752C165.517 47.8806 165.522 47.8847 165.528 47.8869C167.248 47.9225 168.942 48.3004 170.658 48.4074C170.705 48.4109 170.719 48.3361 170.672 48.3254Z" fill="#263238"/>
<path d="M170.554 51.3769C170.161 51.305 169.761 51.2846 169.363 51.3163C168.942 51.3163 168.521 51.3377 168.096 51.359C167.251 51.4018 166.409 51.4624 165.567 51.548C165.531 51.548 165.528 51.6086 165.567 51.6086C166.409 51.5658 167.251 51.5408 168.093 51.5337H169.359C169.757 51.5624 170.156 51.548 170.551 51.4909C170.563 51.4871 170.573 51.4797 170.581 51.4697C170.588 51.4597 170.592 51.4476 170.593 51.4352C170.593 51.4227 170.59 51.4104 170.583 51.3999C170.576 51.3895 170.566 51.3814 170.554 51.3769Z" fill="#263238"/>
<path d="M170.23 54.9666C169.876 54.9068 169.515 54.9068 169.16 54.9666L168.004 55.0415C167.238 55.0878 166.467 55.1306 165.696 55.152C165.657 55.152 165.657 55.2126 165.696 55.209C166.478 55.209 167.262 55.209 168.044 55.1698L169.196 55.1306C169.548 55.1494 169.901 55.106 170.238 55.0023C170.24 54.9998 170.242 54.9967 170.243 54.9932C170.245 54.9897 170.245 54.986 170.244 54.9825C170.243 54.9789 170.242 54.9756 170.239 54.9728C170.237 54.97 170.234 54.9679 170.23 54.9666Z" fill="#263238"/>
<path d="M157.148 47.0099L157.53 59.2444C157.53 59.2444 144.962 58.6527 143.721 55.6796C142.48 52.7065 147.242 49.5445 149.322 48.5072C151.401 47.4698 157.148 47.0099 157.148 47.0099Z" fill="#43B1ED"/>
<path d="M151.898 51.081C151.454 51.1345 151.018 51.2448 150.603 51.409C151.048 51.4583 151.498 51.4487 151.94 51.3804C152.384 51.3235 152.819 51.2121 153.235 51.0489C152.79 51.0005 152.34 51.0113 151.898 51.081ZM154.038 58.9593C153.763 58.6188 153.446 58.3156 153.093 58.0574C152.738 57.7834 152.351 57.5547 151.94 57.3765C152.219 57.7277 152.544 58.0395 152.907 58.3033C153.239 58.5582 153.598 58.7757 153.977 58.9521L154.042 58.9807L154.038 58.9593ZM145.059 53.8544C144.788 54.2079 144.561 54.5935 144.385 55.0023C145.076 54.4289 145.624 53.7027 145.986 52.8812C145.639 53.1662 145.329 53.4931 145.063 53.8544H145.059Z" fill="white"/>
<path d="M157.11 47.0099C156.243 47.181 155.376 47.3343 154.513 47.4912C153.649 47.648 152.779 47.7942 151.919 47.976C151.062 48.1156 150.224 48.3548 149.422 48.689C148.614 49.0329 147.825 49.4221 147.061 49.8547C147.773 49.3285 148.534 48.8714 149.333 48.4893C150.143 48.1196 150.998 47.856 151.876 47.7051C152.747 47.5447 153.614 47.3985 154.488 47.2844C155.362 47.1704 156.229 47.067 157.11 47.0099Z" fill="#263238"/>
<path d="M146.518 57.4941C147.42 57.7294 148.33 57.929 149.243 58.1108C150.156 58.2926 151.069 58.4673 151.99 58.5885C152.91 58.7097 153.827 58.8594 154.755 58.945C155.682 59.0306 156.602 59.1197 157.534 59.2052L157.494 59.2409L157.473 57.1341L157.566 59.2409V59.2765H157.526C155.657 59.2772 153.79 59.1329 151.943 58.8452C151.023 58.6919 150.103 58.5279 149.197 58.2998C148.287 58.0881 147.393 57.819 146.518 57.4941Z" fill="#263238"/>
<path d="M154.823 47.8726C154.758 48.7206 154.735 49.5713 154.755 50.4215C154.755 51.302 154.755 52.179 154.787 53.0595C154.819 53.94 154.987 57.4513 155.033 58.3283C155.033 58.3675 155.094 58.3639 155.094 58.3283C155.094 57.4513 155.137 53.9614 155.116 53.0987C155.094 52.236 155.08 51.3733 155.037 50.5142C155.022 49.6336 154.963 48.7543 154.859 47.8798C154.859 47.8584 154.823 47.837 154.823 47.8726Z" fill="#263238"/>
<path d="M220.033 126.93C218.753 126.702 215.653 126.042 215.945 120.624C215.945 120.624 213.305 126.63 217.893 128.969L220.033 126.93Z" fill="#DDAF89"/>
<path d="M232.626 132.199C231.834 133.56 233.785 138.615 233.881 139.164C233.978 139.713 232.012 141.261 232.372 141.92C232.733 142.58 234.652 142.907 235.462 142.58C236.271 142.252 237.602 140.123 237.738 139.343C237.847 138.618 237.847 137.882 237.738 137.157C237.68 136.915 240.534 132.694 240.438 131.764C240.342 130.833 233.585 130.541 232.626 132.199Z" fill="#DDAF89"/>
<path opacity="0.2" d="M232.626 132.199C231.834 133.56 233.785 138.615 233.881 139.164C233.978 139.713 232.012 141.261 232.372 141.92C232.733 142.58 234.652 142.907 235.462 142.58C236.271 142.252 237.602 140.123 237.738 139.343C237.847 138.618 237.847 137.882 237.738 137.157C237.68 136.915 240.534 132.694 240.438 131.764C240.342 130.833 233.585 130.541 232.626 132.199Z" fill="black"/>
<path d="M218.108 133.186C218.033 133.692 219.028 137.785 219.741 138.965C220.455 140.145 223.394 142.276 224.065 142.408C224.736 142.54 226.427 143.022 226.705 142.608C226.983 142.194 226.612 141.182 226.366 141.011C225.923 140.686 225.462 140.386 224.985 140.113C224.789 140.063 223.915 137.799 223.94 137.517C223.965 137.236 226.484 134.37 225.938 132.954C225.392 131.539 218.108 133.186 218.108 133.186Z" fill="#DDAF89"/>
<path opacity="0.2" d="M218.108 133.186C218.033 133.692 219.028 137.785 219.741 138.965C220.455 140.145 223.394 142.276 224.065 142.408C224.736 142.54 226.427 143.022 226.705 142.608C226.983 142.194 226.612 141.182 226.366 141.011C225.923 140.686 225.462 140.386 224.985 140.113C224.789 140.063 223.915 137.799 223.94 137.517C223.965 137.236 226.484 134.37 225.938 132.954C225.392 131.539 218.108 133.186 218.108 133.186Z" fill="black"/>
<path d="M252.977 124.338C250.591 125.654 245.753 125.893 245.711 126.121C245.668 126.349 244.965 131.168 242.718 133.011C240.47 134.855 235.069 136.651 232.372 137.1C229.675 137.55 225.398 136.291 224.167 136.202C223.143 136.178 222.12 136.253 221.11 136.427C220.479 137.324 219.894 138.253 219.359 139.211C219.084 139.842 216.84 141.906 216.744 142.626C216.647 143.346 217.511 143.695 217.814 144.159C218.117 144.622 217.546 145.1 217.101 145.278C216.655 145.456 214.764 144.879 214.361 144.423C213.958 143.966 214.043 138.006 214.318 136.469C214.593 134.933 216.383 128.766 217.867 127.507C219.351 126.249 223.493 126.566 226.458 125.889C229.422 125.212 234.07 123.643 235.019 122.249C235.968 120.855 236.022 118.075 236.503 117.177C236.985 116.278 239.928 114.029 241.654 113.722C242.389 113.59 246.438 114.852 247.073 115.487C247.708 116.121 248.393 118.385 249.602 119.216C249.82 119.369 254.675 119.69 255.057 120.007C255.439 120.324 254.686 123.411 252.977 124.338Z" fill="#DDAF89"/>
<path d="M233.286 134.683C233.55 136.241 237.738 139.959 239.09 140.769C240.442 141.578 242.372 143.243 242.911 143.599C243.449 143.956 246.835 143.599 247.231 142.972C247.627 142.344 246.874 141.264 246.421 141.04C245.968 140.815 244.994 140.58 244.53 140.248C244.066 139.917 242.597 137.443 242.686 136.993C242.775 136.544 244.013 132.823 244.091 130.887C244.17 128.951 233.018 133.09 233.286 134.683Z" fill="#DDAF89"/>
<path opacity="0.2" d="M232.005 126.802C231.024 125.682 226.893 125.789 225.427 127.197C223.961 128.605 226.419 132.17 228.895 132.373C231.37 132.577 233.364 128.349 232.005 126.802Z" fill="white"/>
<path opacity="0.2" d="M223.154 127.867C223.657 128.509 223.154 130.238 221.97 130.495C221.69 130.564 221.397 130.568 221.115 130.505C220.833 130.443 220.57 130.317 220.345 130.136C220.119 129.955 219.939 129.725 219.818 129.463C219.696 129.201 219.637 128.915 219.644 128.627C219.687 127.354 222.031 126.431 223.154 127.867Z" fill="white"/>
<path opacity="0.2" d="M247.424 118.909C248.205 119.907 247.424 122.599 245.579 123.001C245.143 123.11 244.687 123.116 244.248 123.019C243.808 122.922 243.397 122.726 243.046 122.444C242.695 122.163 242.414 121.804 242.225 121.396C242.036 120.988 241.943 120.542 241.955 120.093C242.019 118.107 245.672 116.667 247.424 118.909Z" fill="white"/>
<path opacity="0.2" d="M233.429 127.689C233.521 127.286 234.363 126.93 234.856 127.315C234.972 127.404 235.067 127.518 235.132 127.65C235.197 127.781 235.231 127.926 235.231 128.072C235.231 128.219 235.197 128.364 235.132 128.495C235.067 128.627 234.972 128.741 234.856 128.83C234.335 129.211 233.222 128.584 233.429 127.689Z" fill="white"/>
<path opacity="0.2" d="M224.293 133.436C223.818 133.585 222.937 132.926 223.048 132.192C223.069 132.017 223.13 131.849 223.227 131.701C223.324 131.554 223.454 131.431 223.606 131.342C223.758 131.253 223.929 131.2 224.105 131.188C224.281 131.176 224.458 131.205 224.621 131.272C225.338 131.571 225.356 133.108 224.293 133.436Z" fill="white"/>
<path d="M246.004 119.194C244.934 119.29 245.19 121.301 246.186 121.208C247.181 121.116 246.896 119.109 246.004 119.194Z" fill="#263238"/>
<path d="M254.133 121.501C254.49 121.501 255.371 120.574 255.357 120.057C255.342 119.54 252.399 119.747 252.146 120.103C251.821 120.56 253.587 121.504 254.133 121.501Z" fill="#263238"/>
<path d="M245.707 126.163C245.065 126.078 242.2 126.042 240.178 125.347C238.155 124.652 235.522 121.75 235.355 121.533C235.187 121.315 234.388 122.288 234.317 122.531C234.245 122.773 237.231 126.263 239.832 126.905C242.432 127.547 245.679 127.728 245.818 127.572C245.957 127.415 246.018 126.206 245.707 126.163Z" fill="#455A64"/>
<path d="M240.303 114.221C237.117 114.018 228.088 118.018 227.339 120.638C226.469 123.7 229.993 126.898 232.465 126.595C234.938 126.292 240.977 117.925 241.305 116.777C241.634 115.629 241.27 114.282 240.303 114.221Z" fill="#DDAF89"/>
<path opacity="0.2" d="M240.303 114.221C237.117 114.018 228.088 118.018 227.339 120.638C226.469 123.7 229.993 126.898 232.465 126.595C234.938 126.292 240.977 117.925 241.305 116.777C241.634 115.629 241.27 114.282 240.303 114.221Z" fill="black"/>
</svg>
