<svg width="23" height="26" viewBox="0 0 23 26" fill="none" xmlns="http://www.w3.org/2000/svg">
<path d="M1.35849 3.01324C1.79648 2.85774 2.20077 2.66844 2.26816 2.60759L5.70468 1.42445C6.29765 1.20811 6.94452 0.984999 7.05233 0.984999C7.23427 0.978237 8.26523 1.56643 8.26523 1.66108C8.26523 1.68812 7.94853 1.84362 7.75985 1.93151C7.57792 2.0194 7.40946 2.1749 7.35556 2.23575C7.29491 2.30336 7.22753 2.61436 7.11972 3.04705C6.61435 5.06853 5.5497 7.13734 4.25595 8.72613C3.71689 9.39545 2.69941 10.3082 2.60507 10.2811C2.56464 10.2676 2.03232 8.73289 1.45956 6.96832C0.617277 4.37217 0.33427 3.69608 0.381438 3.55411C0.435344 3.40537 0.677923 3.26339 1.35849 3.01324Z" fill="#9F9F9F"/>
<path d="M15.2729 1.28925C15.0775 1.40418 14.7339 1.63405 14.7339 1.66109C14.7339 1.68138 15.0169 1.87744 15.2056 1.96533C15.3875 2.05322 15.556 2.14111 15.6099 2.20196C15.6705 2.26957 15.8053 2.61437 15.9131 3.04706C16.4185 5.05502 17.3753 7.06975 18.6421 8.62473C18.8712 8.90193 20.2997 10.4164 20.3267 10.4164C20.3536 10.4164 21.1353 8.53008 21.6069 7.06975C22.2471 5.09559 22.5436 4.32486 22.5166 4.1626C22.4694 3.87864 22.8131 3.39862 22.584 3.28369C22.301 3.13495 16.0276 0.985011 15.9131 0.985011C15.8524 0.991773 15.4616 1.16755 15.2729 1.28925Z" fill="#9F9F9F"/>
<path d="M10.5564 17.5152C10.1521 17.6234 9.7074 17.9073 9.64675 18.0561C9.60632 18.171 11.1966 20.8483 11.3313 20.8956C11.3785 20.9159 11.6143 20.9159 11.6682 20.8956C11.803 20.8415 13.3326 18.1034 13.2854 17.9885C13.1304 17.576 11.4796 17.265 10.5564 17.5152Z" fill="#9F9F9F"/>
<path d="M10.5566 1.93147C9.94346 2.0126 9.24268 2.21542 8.63623 2.47233L8.02305 2.74276L7.86133 3.24984C7.329 5.46063 6.14307 7.77283 4.59326 9.5712L4.15527 10.1121L4.66064 13.1882C4.92344 14.8852 5.17949 16.3793 5.19971 16.4808L5.30078 16.8391L5.67139 16.4808C6.02852 16.0345 6.72256 15.372 6.95166 15.2503C7.28857 15.0745 7.52441 15.2165 7.52441 15.6221C7.52441 15.683 7.37617 15.852 7.05273 16.1968C6.37891 16.9067 6.02178 17.4273 5.73877 18.0222C4.98408 19.6313 5.68486 21.9165 7.22119 23.0928C8.02979 23.7148 9.06074 24.0596 9.9165 24.0055C10.2938 23.9853 10.4758 23.9041 10.6577 23.7351C10.9677 23.4444 11.0957 23.0387 11.0957 22.41V21.7745L10.7251 21.4702C10.3478 21.1187 9.03379 18.6983 8.97314 18.2926C8.85186 17.549 9.0877 17.1568 10.0513 16.8391C10.5836 16.6633 10.7521 16.6362 11.5 16.6362C12.2479 16.6362 12.3827 16.6633 12.915 16.8391C13.8786 17.1568 14.1818 17.5084 14.0605 18.2588C13.9999 18.6645 12.6253 21.0443 12.2412 21.4026L11.938 21.7069L11.8369 22.41C11.8369 23.0387 11.938 23.4512 12.2412 23.7351C12.3962 23.8838 12.7264 23.9785 12.9824 24.0055C13.2856 24.0326 13.8584 23.9582 14.3638 23.823C15.5767 23.4985 16.8569 22.0787 17.1265 21.5378C17.396 20.997 17.706 19.9355 17.6318 19.442C17.5712 19.0769 17.4634 18.5969 17.2612 17.9208L16.3179 16.6971L15.7451 16.163C15.1993 15.6289 15.2263 15.6424 15.4756 15.3179C15.6643 15.0813 15.7316 15.1556 16.0416 15.3855L16.3179 15.6221L17.6992 17.0757C17.7194 16.9743 18.7706 12.0997 19.0469 10.3487L17.6992 8.65848L17.2612 7.9486C16.6548 7.02236 15.8529 5.4809 15.5093 4.43297L15.2061 2.94559L14.5322 2.47233C13.0768 1.5799 12.6051 1.90442 11.8032 1.86386C11.4191 1.85034 10.8194 1.8909 10.5566 1.93147ZM8.50146 10.0445C8.90576 10.2473 9.18877 10.538 9.44482 10.991C9.71436 11.4575 9.78848 11.5724 9.5459 11.7685C9.18877 12.0524 9.15508 11.9781 8.70361 11.2614C8.43408 10.8422 8.02979 10.6597 7.5918 10.6529C7.34248 10.6529 7.13359 10.6935 6.91797 10.822C6.52715 11.0518 6.35869 11.0518 6.17676 10.822C5.9207 10.4974 6.0083 10.4298 6.4126 10.1797C6.85059 9.90924 7.05947 9.82135 7.65918 9.84164C8.09717 9.8484 8.25889 9.92953 8.50146 10.0445ZM16.3853 10.0445C16.9917 10.3622 17.0793 10.4433 16.7559 10.7882C16.5672 10.991 16.4594 11.0045 16.082 10.7882C15.8664 10.6597 15.6575 10.6191 15.4082 10.6191C14.9702 10.6259 14.5659 10.8422 14.2964 11.2614C13.8449 11.9781 13.8112 12.0524 13.4541 11.7685C12.9353 11.3561 13.791 10.5177 14.667 9.94305C15.0646 9.78755 16.0079 9.8484 16.3853 10.0445Z" fill="#9F9F9F"/>
<path d="M7.04548 9.80107C6.37166 9.98361 5.90671 10.3893 6.02127 10.7003C6.15603 11.0991 6.48621 11.16 6.95789 10.8828C7.21394 10.7273 7.31502 10.707 7.66541 10.7341C8.14382 10.7679 8.34597 10.8963 8.64919 11.3696C9.06023 11.9916 9.07371 12.0051 9.28259 12.0051C9.49148 12.0051 9.81492 11.7482 9.81492 11.5859C9.81492 11.3831 9.45779 10.7611 9.1613 10.4433C8.79744 10.0512 8.51443 9.88896 8.00906 9.78079C7.57107 9.6929 7.44304 9.6929 7.04548 9.80107Z" fill="white"/>
<path d="M14.8956 9.80107C14.4576 9.90924 14.1477 10.1053 13.7905 10.4907C13.5277 10.7814 13.1841 11.3899 13.1841 11.5859C13.1841 11.7482 13.5075 12.0051 13.7164 12.0051C13.9253 12.0051 13.9388 11.9916 14.3498 11.3696C14.653 10.8963 14.8552 10.7679 15.3336 10.7341C15.684 10.707 15.7851 10.7273 16.0411 10.8828C16.56 11.187 16.9777 11.0518 16.9777 10.5718C16.9777 10.0377 15.7514 9.57796 14.8956 9.80107Z" fill="white"/>
</svg>
