<svg width="48" height="48" viewBox="0 0 48 48" fill="none" xmlns="http://www.w3.org/2000/svg">
<path d="M11.2167 14.8465C13.3317 14.8465 15.0462 13.132 15.0462 11.017C15.0462 8.90203 13.3317 7.18751 11.2167 7.18751C9.10173 7.18751 7.38721 8.90203 7.38721 11.017C7.38721 13.132 9.10173 14.8465 11.2167 14.8465Z" fill="#D16283"/>
<path d="M20.0929 24.8265L13.6975 24.5166L10.4577 18.0076L11.3201 19.0838C11.7136 17.7104 10.9192 16.278 9.54573 15.8845C7.76148 15.3733 5.84486 15.6304 4.25833 16.5935C2.6718 17.5567 1.55937 19.1386 1.18962 20.9573L0.0917157 26.3577C-0.181753 27.7032 0.163434 29.1002 1.03221 30.1634C1.86274 31.1798 3.08787 31.7866 4.39361 31.8382C4.75989 31.92 4.72549 31.8901 8.62595 31.8786L2.42468 37.1432C1.54812 37.8873 1.44078 39.2012 2.18496 40.0779C2.92962 40.9549 4.24361 41.0614 5.11961 40.3176L15.6627 31.3671C16.0978 30.9976 16.3507 30.4763 16.3904 29.9307C15.3599 29.8808 12.7823 29.7558 11.7542 29.706C10.5952 29.6499 9.65579 28.8204 9.40839 27.7425C8.97723 25.8633 7.68573 20.2256 7.68573 20.2256L11.0445 26.9734C11.3244 27.5357 11.8864 27.903 12.5138 27.9333C12.58 27.9365 19.9441 28.2945 20.0105 28.2945C20.93 28.2945 21.6969 27.5719 21.7419 26.6434C21.7883 25.6863 21.05 24.8728 20.0929 24.8265Z" fill="#D16283"/>
<path d="M31.333 20.5518C30.5232 20.2658 29.7037 20.4952 29.5567 20.9116C29.4098 21.328 29.1591 24.1279 29.9689 24.414C30.7789 24.7 32.3424 22.3639 32.4894 21.9476C32.6365 21.5312 32.143 20.8379 31.333 20.5518Z" fill="#D16283"/>
<path d="M47.7264 31.6799C47.5102 31.601 47.2711 31.7122 47.1922 31.9284L47.1834 31.9523C46.8107 32.9723 46.2013 33.9316 45.5235 34.6687C45.0665 35.1445 44.5126 35.6177 43.8583 35.9256C43.7631 34.8169 43.3656 33.1042 40.0828 30.572C34.6151 26.9543 33.2995 25.1777 33.2995 25.1777C33.2995 25.1777 32.9854 24.6279 32.592 23.9499C31.8184 24.9287 30.7499 25.9442 29.5751 25.5292C28.2814 25.0723 28.2364 23.3183 28.2217 22.7419C28.2097 22.2715 28.2372 21.679 28.3008 21.1933L28.272 21.2C27.1924 21.4565 26.3458 22.2933 26.0766 23.3699L24.8555 24.1174C24.6333 24.2534 24.4804 24.4786 24.4361 24.7352C24.3917 24.992 24.46 25.2554 24.6236 25.4581L25.3513 26.3601C25.945 27.096 26.9509 27.3561 27.8269 27.0001C28.2041 26.8469 28.6285 26.8576 28.9982 27.028C29.368 27.1983 29.6509 27.5139 29.7799 27.8999C29.9845 28.5129 30.2409 29.2571 30.5225 30.0206L28.5585 29.5639C28.3174 29.5078 28.0649 29.5262 27.8345 29.6168L25.4501 30.5532C24.8212 30.8001 24.5116 31.5102 24.7585 32.1391C25.0053 32.7679 25.7156 33.0776 26.3442 32.8307L28.3747 32.0334L31.666 32.7986C31.716 32.9028 31.7658 33.004 31.8153 33.101L30.4623 39.3291C30.3189 39.9894 30.7379 40.6408 31.398 40.7843C32.0592 40.9278 32.71 40.508 32.8532 39.8485L33.861 35.2091C34.4541 35.4109 35.2254 35.5703 36.0622 35.7277C36.292 35.0516 36.6747 34.4316 37.1943 33.9119C37.4352 33.671 37.8255 33.671 38.0666 33.9119C38.3146 34.1602 38.2948 34.5558 38.0666 34.7841C37.1042 35.7463 36.8286 37.1148 37.2074 38.3108C35.5615 38.3108 36.1844 38.3108 35.7865 38.3108C35.1108 38.3108 34.5632 38.8585 34.5632 39.5341C34.5632 40.2097 35.1109 40.7575 35.7865 40.7575C40.9959 40.7575 40.8068 40.7695 41.163 40.7012C42.5145 40.4419 43.3823 39.444 43.7353 38.1888C44.9719 37.605 45.9256 36.6808 46.6723 35.5481C47.3006 34.5561 47.7852 33.3745 47.9941 32.1405C48.0272 31.9463 47.9182 31.75 47.7264 31.6799Z" fill="#D16283"/>
</svg>
