<svg width="170" height="170" viewBox="0 0 170 170" fill="none" xmlns="http://www.w3.org/2000/svg">
<path d="M30.4733 144.104C26.7315 144.104 23.677 141.093 23.6342 137.34C23.5914 133.562 26.6199 130.464 30.3981 130.421C39.7261 130.316 44.7104 129.02 56.6247 116.421C59.2212 113.675 63.5506 113.555 66.2964 116.151C69.0421 118.748 69.1627 123.079 66.5661 125.823C53.3134 139.838 45.2357 143.938 30.5524 144.104C30.5265 144.104 30.5005 144.104 30.4733 144.104Z" fill="#495059"/>
<path d="M64.7671 167.51C61.714 167.51 58.7607 165.87 57.2199 162.99C54.9903 158.825 56.561 153.644 60.7257 151.415C62.3171 150.563 63.7386 148.366 64.5285 145.537C65.5777 141.782 65.4351 137.391 64.1277 133.173C62.7295 128.662 65.2535 123.871 69.7644 122.472C74.278 121.073 79.0678 123.597 80.466 128.108C85.3388 143.827 80.3207 160.328 68.7956 166.495C67.5103 167.183 66.129 167.51 64.7671 167.51Z" fill="#DDAF89"/>
<path d="M115.266 160.492C114.755 160.492 114.236 160.445 113.715 160.35C109.069 159.498 105.993 155.043 106.843 150.397C107.67 145.886 106.539 139.59 96.4557 135.209C92.1238 133.327 90.1381 128.29 92.02 123.958C93.9033 119.626 98.9408 117.64 103.273 119.522C118.71 126.23 126.335 138.922 123.669 153.477C122.913 157.603 119.315 160.492 115.266 160.492Z" fill="#DDAF89"/>
<path d="M114.47 110.716C110.05 109.051 107.818 104.117 109.483 99.6972C111.149 95.277 116.082 93.0449 120.503 94.7102C127.41 97.3146 128.758 96.3198 135.694 89.8841C139.156 86.6714 144.568 86.8725 147.781 90.3368C150.994 93.7984 150.791 99.2095 147.33 102.422C139.9 109.316 131.482 117.128 114.47 110.716Z" fill="#DDAF89"/>
<path d="M129.955 94.7405C127.119 96.5719 124.976 96.3968 120.503 94.7107C116.082 93.0453 111.149 95.2787 109.483 99.6989C107.818 104.118 110.05 109.052 114.47 110.717C120.458 112.974 125.382 113.467 129.572 112.858C130.396 109.691 130.836 106.389 130.836 102.995C130.836 100.171 130.531 97.4123 129.955 94.7405Z" fill="#D1A582"/>
<path d="M69.7645 122.472C65.2535 123.871 62.7296 128.662 64.1278 133.173C65.1005 136.309 65.4273 139.541 65.0992 142.537C70.2638 144.64 75.9136 145.921 81.8473 146.194C82.7552 140.484 82.3661 134.238 80.466 128.108C79.0679 123.597 74.2781 121.073 69.7645 122.472Z" fill="#D1A582"/>
<path d="M119.247 132.004C115.692 126.866 110.294 122.573 103.272 119.522C98.9398 117.64 93.9023 119.626 92.019 123.958C90.1371 128.29 92.1228 133.327 96.4548 135.21C100.88 137.133 103.58 139.424 105.149 141.772C110.499 139.344 115.278 136.017 119.247 132.004Z" fill="#D1A582"/>
<path d="M125.929 102.994C125.929 82.1695 107.263 65.2891 84.2359 65.2891C61.2103 65.2891 42.5439 82.1695 42.5439 102.994C42.5439 123.817 61.2103 140.698 84.2359 140.698C107.263 140.698 125.929 123.817 125.929 102.994Z" fill="#DDAF89"/>
<path d="M121.892 78.7852C111.674 87.2636 98.5511 92.3621 84.2361 92.3621C69.9225 92.3621 56.7995 87.2636 46.5817 78.7852C44.4092 81.5996 42.5973 84.6618 41.2238 87.9238C39.3522 92.366 41.0786 97.5151 45.2354 99.956C56.6801 106.673 70.0081 110.528 84.2361 110.528C98.4655 110.528 111.793 106.673 123.238 99.956C127.395 97.5151 129.12 92.366 127.25 87.9238C125.876 84.6618 124.064 81.5996 121.892 78.7852Z" fill="#7F9AE6"/>
<path d="M65.2481 89.239C58.3675 86.9005 52.0563 83.3298 46.5817 78.7852C44.4079 81.5996 42.5973 84.6618 41.2238 87.9238C39.3522 92.366 41.0786 97.5151 45.2354 99.956C51.186 103.449 57.649 106.16 64.4803 107.964C61.9745 102.935 62.6839 95.3841 65.2481 89.239Z" fill="#5E78BF"/>
<path d="M69.0797 34.6575C67.4377 34.6575 65.7802 34.1569 64.3496 33.118L54.4328 25.9145C50.0904 22.7589 44.2332 23.0222 40.1891 26.5513L33.6964 32.2205C30.3436 35.1478 25.2516 34.8028 22.3243 31.4501C19.397 28.0973 19.742 23.0053 23.0947 20.078L29.5875 14.4088C34.2709 10.3207 40.2683 7.91604 46.4783 7.63849C52.6883 7.36093 58.8776 9.21823 63.906 12.8719L73.8242 20.0754C77.4246 22.6914 78.2236 27.7316 75.6075 31.3333C74.0304 33.5045 71.5726 34.6575 69.0797 34.6575Z" fill="#495059"/>
<path d="M99.3943 34.6573C96.9015 34.6573 94.4437 33.5043 92.8665 31.3331C90.2505 27.7313 91.0494 22.6912 94.6499 20.0752L104.568 12.8716C109.597 9.21801 115.787 7.362 121.996 7.63826C128.205 7.91582 134.203 10.3205 138.887 14.4086L145.379 20.0778C148.732 23.0051 149.077 28.0971 146.15 31.4498C143.221 34.8039 138.13 35.1489 134.778 32.2202L128.284 26.5511C124.241 23.0219 118.384 22.7587 114.041 25.9143L104.124 33.1178C102.694 34.1567 101.036 34.6573 99.3943 34.6573Z" fill="#495059"/>
<path d="M84.2357 98.4927C125.152 98.4927 143.591 79.7498 137.837 53.3572C131.653 24.9958 112.173 9.4707 84.2357 9.4707C56.2996 9.4707 36.82 24.9958 30.636 53.3572C24.8812 79.7498 43.3206 98.4927 84.2357 98.4927Z" fill="#DDAF89"/>
<path d="M108.017 111.995C108.017 118.427 102.803 123.642 96.3716 123.642C89.9385 123.642 84.7246 118.427 84.7246 111.995C84.7246 105.564 89.9385 100.35 96.3716 100.35C102.803 100.35 108.017 105.564 108.017 111.995Z" fill="#F6E06A"/>
<path d="M72.9693 45.1377H60.6699V77.8233C60.6699 81.2189 63.4221 83.9724 66.819 83.9724C70.2158 83.9724 72.9693 81.2189 72.9693 77.8233V45.1377Z" fill="#7F9AE6"/>
<path d="M116.413 45.1377H128.713V77.8233C128.713 81.2189 125.959 83.9724 122.562 83.9724C119.166 83.9724 116.412 81.2189 116.412 77.8233V45.1377H116.413Z" fill="#7F9AE6"/>
<path d="M101.266 45.984C96.9548 44.8569 92.427 44.8569 88.1158 45.984C86.3311 46.4522 84.776 47.5508 83.7384 49.076C82.3364 51.137 83.1418 53.9631 85.4193 54.9761L91.7357 57.7854C93.6177 58.6219 95.7655 58.6219 97.6461 57.7854L103.963 54.9761C106.24 53.9631 107.045 51.137 105.645 49.076C104.607 47.5508 103.051 46.4522 101.266 45.984Z" fill="#495059"/>
<path d="M76.0445 42.0631C76.0445 47.1577 71.9136 51.2887 66.819 51.2887C61.7244 51.2887 57.5947 47.1577 57.5947 42.0631C57.5947 36.9685 61.7244 32.8389 66.819 32.8389C71.9136 32.8389 76.0445 36.9685 76.0445 42.0631Z" fill="white"/>
<path d="M131.788 42.0631C131.788 47.1577 127.657 51.2887 122.562 51.2887C117.468 51.2887 113.338 47.1577 113.338 42.0631C113.338 36.9685 117.468 32.8389 122.562 32.8389C127.657 32.8389 131.788 36.9685 131.788 42.0631Z" fill="white"/>
<path d="M94.6915 88.641C100.047 88.641 104.816 92.2752 107.816 85.0172C110.859 77.6554 104.044 66.2393 94.6915 66.2393C85.3389 66.2393 78.5231 77.6554 81.5659 85.0172C84.5659 92.2739 89.3349 88.641 94.6915 88.641Z" fill="#D16283"/>
<path d="M94.6912 81.708C89.118 81.708 84.4838 84.4693 83.5059 88.1152C86.441 90.9958 90.3748 88.6405 94.6912 88.6405C99.0063 88.6405 102.941 90.9958 105.876 88.1152C104.897 84.4693 100.263 81.708 94.6912 81.708Z" fill="#EB9898"/>
<path d="M70.3233 127.303C55.4921 127.303 47.6622 118.623 41.958 110.133C39.3251 106.212 40.3692 100.899 44.2887 98.2644C48.2095 95.6328 53.5233 96.6743 56.1575 100.595C61.0407 107.865 64.4829 110.198 70.3233 110.198C75.047 110.198 78.8757 114.027 78.8757 118.75C78.8757 123.474 75.047 127.303 70.3233 127.303Z" fill="#C49B7A"/>
<path d="M140.889 145.034L136.707 142.485L140.028 137.86C140.504 137.199 140.624 136.345 140.352 135.577C140.081 134.809 139.449 134.222 138.663 134.007L134.203 132.784L136.616 128.615C137.305 127.424 136.899 125.9 135.71 125.212C134.519 124.523 132.995 124.929 132.307 126.12L128.274 133.083C127.888 133.751 127.833 134.562 128.126 135.275C128.418 135.99 129.026 136.528 129.771 136.733L133.894 137.863L131.095 141.761C130.691 142.324 130.539 143.031 130.678 143.709C130.815 144.389 131.23 144.98 131.821 145.341L138.297 149.287C138.702 149.533 139.15 149.65 139.59 149.65C140.431 149.65 141.251 149.226 141.719 148.455C142.435 147.281 142.063 145.748 140.889 145.034ZM22.1098 77.927C22.8439 77.927 23.5715 77.6028 24.0631 76.9828C24.9178 75.905 24.7362 74.3382 23.6571 73.4848L17.1968 68.3669L20.9931 62.8274C21.6221 61.9091 21.5664 60.6861 20.8569 59.83L15.6611 53.5617L21.9217 48.6006C22.5132 48.1324 22.8608 47.4217 22.866 46.6668C22.8712 45.9133 22.5339 45.196 21.949 44.72L13.6923 37.986C12.6262 37.117 11.0581 37.2766 10.1891 38.3414C9.32012 39.4075 9.47966 40.9769 10.5458 41.8459L16.4017 46.6214L10.573 51.2387C10.0477 51.6551 9.71182 52.2647 9.64308 52.9313C9.57304 53.598 9.77407 54.2646 10.2021 54.7795L15.8233 61.5615L11.7753 67.4668C11.0348 68.5459 11.2565 70.0141 12.2825 70.8273L20.5651 77.3888C21.0229 77.7506 21.5677 77.927 22.1098 77.927ZM87.2437 92.0319C88.5861 92.0319 89.9013 91.7919 91.0789 91.5766C92.2774 91.3587 93.516 91.1318 94.6911 91.1318C95.8648 91.1318 97.1048 91.3587 98.3019 91.5766C102.029 92.2576 107.132 93.1888 110.116 85.9684C111.894 81.6702 111.051 76.0879 107.917 71.4006C105.241 67.3993 101.349 64.7508 97.18 63.9843V60.5797C97.6832 60.4474 98.1774 60.2749 98.6573 60.0609L104.974 57.2516C106.735 56.4682 108.049 54.9559 108.577 53.1025C109.106 51.2478 108.787 49.2712 107.703 47.6772C106.326 45.6513 104.264 44.196 101.896 43.5761C97.1826 42.3413 92.1995 42.3413 87.4849 43.5761C85.1166 44.196 83.0544 45.6513 81.6783 47.6759C80.594 49.2712 80.2749 51.2478 80.8041 53.1025C81.332 54.9559 82.6459 56.4682 84.4072 57.2516L90.7235 60.0609C91.2047 60.2749 91.6989 60.4474 92.2008 60.5797V63.9843C88.0323 64.7508 84.1413 67.398 81.4643 71.4006C78.3307 76.0879 77.4877 81.6702 79.2646 85.9684C81.3061 90.9074 84.3384 92.0319 87.2437 92.0319ZM86.4305 52.7017C85.8702 52.4527 85.6666 51.991 85.5939 51.7381C85.5213 51.4852 85.4513 50.9845 85.7963 50.4774C86.4953 49.4489 87.5433 48.7096 88.7456 48.3944C90.6911 47.886 92.6911 47.6305 94.6911 47.6305C96.691 47.6305 98.6897 47.886 100.635 48.3944C101.838 48.7096 102.885 49.4489 103.585 50.4774C103.93 50.9845 103.86 51.4839 103.787 51.7368C103.716 51.991 103.511 52.4527 102.95 52.7017L96.634 55.5097C95.3979 56.0597 93.9816 56.0597 92.7469 55.511L86.4305 52.7017ZM85.6043 74.1696C87.8831 70.7624 91.28 68.7287 94.6911 68.7287C98.1022 68.7287 101.499 70.7624 103.777 74.1696C105.965 77.442 106.647 81.3265 105.515 84.0657C104.067 87.5676 102.84 87.3432 99.1968 86.6779C97.8467 86.4314 96.3162 86.1513 94.6911 86.1513C93.0646 86.1513 91.5355 86.4314 90.184 86.6779C86.542 87.3432 85.3138 87.5663 83.8676 84.0657C82.7353 81.3265 83.4163 77.4407 85.6043 74.1696ZM22.3848 107.169C21.9658 108.167 22.2382 109.32 23.0592 110.023L27.4236 113.766L25.5222 117.865C24.9438 119.113 25.4859 120.594 26.7336 121.173C27.0734 121.33 27.4288 121.404 27.7803 121.404C28.7193 121.404 29.6194 120.869 30.041 119.96L32.7348 114.15C33.203 113.138 32.9423 111.938 32.0967 111.212L27.6778 107.423L29.8749 102.186C30.3159 101.133 29.9852 99.9137 29.0708 99.2302L22.1189 94.0241C21.0177 93.2005 19.4575 93.4236 18.6326 94.5247C17.809 95.6259 18.0334 97.1861 19.1345 98.011L24.53 102.051L22.3848 107.169ZM141.924 85.1189C138.98 85.0151 136.163 86.054 134 88.0605C132.613 89.3471 131.466 90.4016 130.479 91.2316C130.444 90.1292 130.256 89.0229 129.908 87.9412C132.636 85.5715 134.903 82.8997 136.692 79.9361C137.401 78.7584 137.024 77.228 135.846 76.5172C134.668 75.8064 133.138 76.1852 132.427 77.3628C125.172 89.3821 108.058 96.0033 84.2373 96.0033C66.1947 96.0033 52.2092 92.3354 43.234 85.3329C43.1497 85.2551 43.0576 85.1837 42.9603 85.1176C41.1484 83.6727 39.5415 82.093 38.1563 80.3745C32.5636 73.4316 30.8049 64.2723 33.0694 53.8885C35.6258 42.1636 40.4831 32.7046 47.5284 25.7022C47.5776 25.6568 47.6243 25.6101 47.6684 25.5608C48.6853 24.5608 49.7449 23.6101 50.85 22.7113C54.8473 19.4623 59.357 16.9448 64.3452 15.1641C64.4996 15.1251 64.65 15.072 64.794 15.0032C70.6396 12.9812 77.1362 11.9618 84.2373 11.9618C91.337 11.9618 97.8337 12.9812 103.678 15.0032C103.823 15.072 103.975 15.1251 104.129 15.1654C109.118 16.9448 113.626 19.4623 117.623 22.7113C118.73 23.6101 119.789 24.5608 120.806 25.5621C120.85 25.6101 120.897 25.6581 120.946 25.7022C122.492 27.2391 123.932 28.8954 125.266 30.6671C124.397 30.4608 123.493 30.3493 122.564 30.3493C116.103 30.3493 110.848 35.6034 110.848 42.0638C110.848 48.5228 116.103 53.7783 122.564 53.7783C127.447 53.7783 131.64 50.7744 133.396 46.519C134.174 48.8652 134.845 51.3217 135.404 53.8885C136.5 58.9157 136.67 63.6588 135.908 67.9882C135.67 69.3422 136.575 70.634 137.929 70.8727C139.283 71.11 140.575 70.206 140.812 68.852C141.688 63.8819 141.505 58.4902 140.27 52.8276C138.784 46.0157 136.566 39.8952 133.632 34.4997C135.535 35.9705 137.807 36.6955 140.072 36.6942C143.013 36.6942 145.943 35.4737 148.025 33.0886C151.851 28.706 151.398 22.0291 147.017 18.2016L140.523 12.5337C135.418 8.07597 128.877 5.45344 122.107 5.15124C115.865 4.8685 109.623 6.58183 104.386 9.98256C98.2682 7.98648 91.5368 6.98131 84.236 6.98131C76.9365 6.98131 70.2051 7.98648 64.0871 9.98256C58.8498 6.58183 52.61 4.8685 46.3663 5.15124C39.5959 5.45344 33.0552 8.07597 27.9502 12.5337L21.4561 18.2016C17.0749 22.0278 16.6222 28.706 20.4484 33.0886C22.5313 35.4737 25.4587 36.6955 28.4015 36.6942C30.6661 36.6942 32.9371 35.9692 34.8411 34.4984C31.9086 39.8952 29.6895 46.0157 28.2031 52.8276C25.6078 64.7353 27.7077 75.3408 34.2782 83.4989C35.5545 85.0826 36.9903 86.5586 38.57 87.9347C37.3871 91.6013 38.0447 95.6025 40.26 98.6984C37.4948 102.353 37.1978 107.51 39.8916 111.523C40.5129 112.447 41.1588 113.371 41.8332 114.29C42.8267 117.384 44.2068 120.31 45.9279 123.024C40.3326 127.319 36.5363 127.863 30.3704 127.933C27.8789 127.96 25.5456 128.957 23.8037 130.739C22.0605 132.522 21.1163 134.877 21.1448 137.37C21.2019 142.457 25.3873 146.597 30.4741 146.597C30.5144 146.597 30.5533 146.595 30.5935 146.595C42.6815 146.456 50.4168 143.696 59.3661 136.178C60.4153 136.829 61.497 137.438 62.6047 138.005C62.8731 140.425 62.7149 142.777 62.1313 144.869C61.4568 147.281 60.3492 148.792 59.5502 149.22C58.3375 149.869 57.881 151.379 58.5308 152.59C58.9795 153.429 59.8395 153.906 60.7279 153.906C61.1248 153.906 61.5269 153.812 61.9017 153.611C64.1131 152.427 65.9444 149.729 66.9288 146.209C67.4515 144.336 67.7083 142.32 67.7083 140.244C71.5047 141.645 75.5409 142.575 79.7185 142.969C78.9935 152.582 74.48 160.63 67.6227 164.301C66.7304 164.778 65.7693 165.019 64.7693 165.019C62.5255 165.019 60.4737 163.792 59.4153 161.816C59.1806 161.375 59.0003 160.909 58.8797 160.429C58.5425 159.096 57.191 158.286 55.8564 158.622C54.5231 158.958 53.7137 160.312 54.0497 161.646C54.2702 162.52 54.5983 163.368 55.025 164.166C56.9497 167.765 60.6825 170.001 64.7668 170.001C66.5696 170.001 68.3698 169.548 69.969 168.692C78.3722 164.197 83.878 154.561 84.6951 143.184C90.2476 143.132 95.5575 142.147 100.443 140.388C103.744 143.005 105.077 146.214 104.393 149.949C103.297 155.938 107.277 161.703 113.267 162.8C113.927 162.921 114.599 162.982 115.265 162.982C120.592 162.982 125.156 159.174 126.117 153.927C127.897 144.211 125.39 134.992 119.053 127.714C122.148 124.112 124.584 120.02 126.195 115.588C136.808 115.583 143.549 109.329 149.022 104.248C151.186 102.242 152.436 99.5143 152.546 96.5662C152.656 93.6194 151.612 90.8049 149.607 88.6428C147.601 86.4807 144.872 85.2291 141.924 85.1189ZM122.562 48.7991C118.849 48.7991 115.828 45.7771 115.828 42.0638C115.828 38.3505 118.849 35.3298 122.562 35.3298C126.276 35.3298 129.298 38.3505 129.298 42.0638C129.298 45.7771 126.276 48.7991 122.562 48.7991ZM121.884 10.1265C127.532 10.3794 132.987 12.5662 137.248 16.2847L143.741 21.9538C146.055 23.9733 146.293 27.4998 144.274 29.8123C142.255 32.1262 138.728 32.3648 136.415 30.3454L129.921 24.6762C128.172 23.1484 126.086 22.09 123.849 21.5777C122.858 20.627 121.832 19.7152 120.765 18.8475C117.587 16.2639 114.128 14.1018 110.402 12.3587C113.986 10.7348 117.936 9.95402 121.884 10.1265ZM32.0591 30.3454C29.7452 32.3648 26.2187 32.1262 24.1993 29.8123C22.1799 27.4998 22.4185 23.9733 24.7323 21.9538L31.2251 16.2847C35.4844 12.5662 40.9409 10.3794 46.5893 10.1265C50.54 9.95272 54.488 10.7335 58.0729 12.3574C54.3467 14.1018 50.8863 16.2639 47.7086 18.8475C46.6412 19.7139 45.6153 20.627 44.6244 21.5777C42.3884 22.0887 40.3015 23.1484 38.5518 24.6762L32.0591 30.3454ZM96.372 102.841C101.42 102.841 105.527 106.949 105.527 111.997C105.527 117.046 101.42 121.153 96.372 121.153C91.3228 121.153 87.2152 117.046 87.2152 111.997C87.2152 106.949 91.3228 102.841 96.372 102.841ZM84.236 100.984C85.3682 100.984 86.4811 100.964 87.5835 100.936C85.3319 102.73 83.6381 105.194 82.808 108.024C76.0169 107.897 69.3127 106.853 62.8498 104.924C61.4633 103.648 59.9795 101.819 58.2247 99.2082C57.7889 98.5584 57.2948 97.9721 56.7539 97.4468C64.58 99.7827 73.7938 100.984 84.236 100.984ZM42.9798 91.2537C44.7074 92.3782 46.5634 93.4054 48.5452 94.3379C47.0303 94.4067 45.5167 94.7893 44.1017 95.5C43.2898 94.2342 42.8994 92.7452 42.9798 91.2537ZM44.0265 108.746C42.1627 105.971 42.9033 102.196 45.6775 100.334C46.7126 99.6388 47.8863 99.3054 49.0497 99.3054C51.003 99.3054 52.9226 100.246 54.0899 101.985C59.4659 109.989 63.5618 112.689 70.3231 112.689C73.6654 112.689 76.3852 115.408 76.3852 118.751C76.3852 122.094 73.6654 124.813 70.3231 124.813C58.3492 124.813 51.4427 118.85 46.1393 111.741C46.0978 111.677 46.0524 111.617 46.0057 111.558C45.3222 110.636 44.6633 109.696 44.0265 108.746ZM30.5247 141.615C30.5131 141.615 30.4845 141.615 30.4741 141.616C28.1019 141.616 26.1513 139.685 26.124 137.313C26.111 136.151 26.5507 135.052 27.3639 134.222C28.1759 133.391 29.264 132.926 30.4262 132.913C37.6504 132.83 42.5103 131.883 48.8539 127.055C50.7125 129.306 52.8253 131.365 55.1417 133.206C47.5413 139.323 40.972 141.497 30.5247 141.615ZM121.219 153.03C120.691 155.912 118.186 158.002 115.265 158.002C114.898 158.002 114.527 157.969 114.163 157.901C110.875 157.299 108.69 154.135 109.293 150.847C110.159 146.117 108.808 141.752 105.464 138.237C109.193 136.371 112.596 134.029 115.574 131.3C120.762 137.411 122.713 144.874 121.219 153.03ZM84.236 138.209C72.6356 138.209 61.9224 133.58 54.6346 126.061C58.8965 128.354 64.0145 129.794 70.3231 129.794C76.4125 129.794 81.3657 124.841 81.3657 118.751C81.3657 116.598 80.7445 114.589 79.6744 112.889C80.5395 112.938 81.4059 112.971 82.2749 112.991C82.7872 120.323 88.9116 126.134 96.372 126.134C104.167 126.134 110.508 119.792 110.508 111.998C110.508 110.866 110.37 109.767 110.118 108.711C114.727 107.128 119.19 105.112 123.434 102.709C123.435 102.803 123.439 102.899 123.439 102.994C123.439 122.411 105.853 138.209 84.236 138.209ZM121.977 97.8087C117.587 100.386 112.932 102.508 108.112 104.134C106.804 102.187 105.024 100.584 102.939 99.4844C108.202 98.5674 113.006 97.2354 117.304 95.4832C120.302 94.2614 123.029 92.8438 125.491 91.2459C125.634 93.849 124.335 96.4248 121.977 97.8087ZM145.635 100.599C140.629 105.244 135.47 110.028 127.631 110.557C128.146 108.107 128.419 105.579 128.419 102.994C128.419 101.587 128.334 100.169 128.172 98.762C128.317 98.561 128.454 98.3547 128.587 98.1446C131.238 97.3288 133.579 95.2458 137.388 91.7115C138.575 90.6091 140.117 90.0384 141.738 90.0968C143.356 90.1564 144.854 90.8438 145.955 92.0319C147.056 93.2186 147.629 94.7634 147.568 96.3807C147.509 97.9994 146.823 99.4961 145.635 100.599ZM66.8186 30.3493C60.3596 30.3493 55.1041 35.6034 55.1041 42.0638C55.1041 48.5228 60.3596 53.7783 66.8186 53.7783C73.2789 53.7783 78.5344 48.5228 78.5344 42.0638C78.5344 35.6034 73.2789 30.3493 66.8186 30.3493ZM66.8186 48.7991C63.1053 48.7991 60.0846 45.7771 60.0846 42.0638C60.0846 38.3505 63.1053 35.3298 66.8186 35.3298C70.5319 35.3298 73.5539 38.3505 73.5539 42.0638C73.5526 45.7771 70.5319 48.7991 66.8186 48.7991ZM155.071 53.7705L159.113 50.8457C159.662 50.4489 160.025 49.8458 160.119 49.1765C160.214 48.506 160.031 47.8263 159.615 47.2933L153.769 39.8303C152.921 38.7461 151.356 38.5567 150.274 39.4049C149.191 40.2532 149 41.8173 149.848 42.9003L154.099 48.327L150.337 51.0468C149.305 51.7938 149.003 53.1985 149.636 54.3035L153.78 61.533L148.876 62.5343C148.143 62.6834 147.518 63.1542 147.169 63.8144C146.821 64.4759 146.789 65.2593 147.081 65.9467L150.393 73.7559C150.797 74.7053 151.717 75.2747 152.688 75.2747C153.012 75.2747 153.341 75.2111 153.658 75.0762C154.925 74.5393 155.515 73.0776 154.978 71.8117L152.855 66.8053L158.152 65.7236C158.935 65.5641 159.594 65.0375 159.924 64.3086C160.252 63.581 160.211 62.7379 159.815 62.0453L155.071 53.7705Z" fill="black"/>
<path d="M48.9258 26.425C47.551 26.425 46.4355 25.3109 46.4355 23.9348V2.49023C46.4355 1.11412 47.551 0 48.9258 0C50.3006 0 51.416 1.11412 51.416 2.49023V23.9348C51.416 25.3109 50.3006 26.425 48.9258 26.425Z" fill="#7F9AE6"/>
<path d="M61.6543 26.425C60.2795 26.425 59.1641 25.3109 59.1641 23.9348V2.49023C59.1641 1.11412 60.2795 0 61.6543 0C63.0304 0 64.1445 1.11412 64.1445 2.49023V23.9348C64.1445 25.3109 63.0304 26.425 61.6543 26.425Z" fill="#7F9AE6"/>
<path d="M74.3828 26.425C73.008 26.425 71.8926 25.3109 71.8926 23.9348V2.49023C71.8926 1.11412 73.008 0 74.3828 0C75.7589 0 76.873 1.11412 76.873 2.49023V23.9348C76.873 25.3109 75.7589 26.425 74.3828 26.425Z" fill="#7F9AE6"/>
</svg>
