<svg width="170" height="170" viewBox="0 0 170 170" fill="none" xmlns="http://www.w3.org/2000/svg">
<g clip-path="url(#clip0_223_13423)">
<path d="M47.9281 151.332C44.8659 151.332 42.3848 148.851 42.3848 145.788C42.3848 142.726 44.8659 140.245 47.9281 140.245C54.0785 140.245 56.8696 139.781 64.2729 128.142C65.9162 125.558 69.3428 124.795 71.9252 126.44C74.5088 128.082 75.2701 131.509 73.6268 134.092C65.1211 147.464 59.3573 151.332 47.9281 151.332Z" fill="#495059"/>
<path d="M72.8416 167.509C69.1387 167.509 66.0674 164.582 65.9221 160.85C65.5784 152.011 65.45 145.136 66.9429 137.11C67.6432 133.348 71.2619 130.865 75.0232 131.566C78.7858 132.266 81.2682 135.883 80.5678 139.645C79.4407 145.701 79.4122 151.135 79.7702 160.311C79.9193 164.134 76.9401 167.355 73.1153 167.504C73.0245 167.508 72.9324 167.509 72.8416 167.509Z" fill="#DDAF89"/>
<path d="M96.9949 167.51C96.9041 167.51 96.812 167.508 96.7199 167.504C92.8963 167.355 89.9171 164.135 90.0663 160.311C90.4243 151.135 90.3957 145.703 89.2686 139.645C88.5683 135.884 91.0507 132.266 94.8133 131.566C98.5746 130.864 102.193 133.348 102.894 137.111C104.262 144.464 104.313 150.625 103.914 160.851C103.769 164.582 100.698 167.51 96.9949 167.51Z" fill="#DDAF89"/>
<path d="M125.037 129.999C124.615 129.999 124.19 129.96 123.76 129.881C119.999 129.18 117.217 125.563 117.918 121.8C118.285 119.828 116.99 117.074 113.776 116.066C110.125 114.922 108.093 111.034 109.237 107.382C110.381 103.731 114.268 101.698 117.921 102.842C127.574 105.868 133.558 115.108 131.841 124.336C131.221 127.669 128.309 129.999 125.037 129.999Z" fill="#C49B7A"/>
<path d="M44.7998 129.999C45.2214 129.999 45.6468 129.96 46.0761 129.881C49.8374 129.18 52.6194 125.563 51.9191 121.8C51.552 119.828 52.8464 117.074 56.0604 116.066C59.7127 114.922 61.7438 111.034 60.5999 107.382C59.4559 103.731 55.5688 101.698 51.9152 102.842C42.2629 105.868 36.2799 115.108 37.9958 124.336C38.6158 127.669 41.5275 129.999 44.7998 129.999Z" fill="#C49B7A"/>
<path d="M102.894 137.111C102.193 133.348 98.5746 130.864 94.8133 131.566C91.0507 132.266 88.5683 135.884 89.2686 139.645C89.9003 143.042 90.1869 146.241 90.2531 150.014C95.1817 149.384 99.8132 147.895 103.958 145.713C103.778 142.812 103.441 140.056 102.894 137.111Z" fill="#D1A582"/>
<path d="M75.0234 131.566C71.2621 130.865 67.6435 133.348 66.9431 137.11C66.3906 140.083 66.0598 142.899 65.8809 145.714C70.0261 147.895 74.6563 149.384 79.5823 150.014C79.6498 146.241 79.9364 143.041 80.5681 139.645C81.2684 135.883 78.786 132.266 75.0234 131.566Z" fill="#D1A582"/>
<path d="M118.698 115.24C118.698 98.3689 103.575 84.6934 84.9186 84.6934C66.2626 84.6934 51.1396 98.3689 51.1396 115.24C51.1396 132.112 66.2626 145.788 84.9186 145.788C103.575 145.788 118.698 132.112 118.698 115.24Z" fill="#DDAF89"/>
<path d="M115.426 95.627C107.149 102.496 96.5161 106.627 84.9183 106.627C73.3206 106.627 62.6891 102.496 54.4104 95.627C52.6491 97.9071 51.1821 100.388 50.0693 103.03C48.5531 106.629 49.9513 110.802 53.3196 112.778C62.5918 118.222 73.3893 121.344 84.9183 121.344C96.446 121.344 107.245 118.222 116.516 112.778C119.884 110.802 121.282 106.629 119.766 103.03C118.655 100.388 117.186 97.9071 115.426 95.627Z" fill="#7F9AE6"/>
<path d="M69.5347 104.095C63.9589 102.201 58.8461 99.3078 54.4104 95.627C52.6491 97.9071 51.1821 100.388 50.0693 103.03C48.5531 106.629 49.9513 110.802 53.3196 112.778C58.1405 115.608 63.3765 117.804 68.9121 119.267C66.8823 115.192 67.4569 109.076 69.5347 104.095Z" fill="#5E78BF"/>
<path d="M71.273 53.0955C69.7945 53.0955 68.3016 52.6455 67.0137 51.7103L58.0865 45.2241C54.176 42.3849 48.9037 42.6197 45.2631 45.7986L39.4175 50.9023C36.3981 53.5378 31.8145 53.2278 29.179 50.2084C26.5435 47.1903 26.8535 42.6054 29.8729 39.9699L35.7185 34.8663C39.9337 31.1854 45.3344 29.0207 50.9245 28.7704C56.5158 28.5214 62.0864 30.1945 66.6142 33.4824L75.5428 39.9686C78.7853 42.324 79.5038 46.8622 77.1497 50.1034C75.7295 52.0579 73.5168 53.0955 71.273 53.0955Z" fill="#495059"/>
<path d="M98.5637 53.0953C96.3199 53.0953 94.1072 52.0577 92.687 50.1031C90.3316 46.8606 91.0502 42.3238 94.2927 39.9684L103.221 33.4821C107.749 30.1943 113.322 28.5224 118.911 28.7702C124.502 29.0205 129.902 31.1865 134.118 34.866L139.964 39.9697C142.982 42.6052 143.293 47.1901 140.658 50.2082C138.021 53.2276 133.437 53.5376 130.419 50.9021L124.572 45.7984C120.933 42.6195 115.659 42.3834 111.75 45.2238L102.822 51.7101C101.535 52.6453 100.042 53.0953 98.5637 53.0953Z" fill="#495059"/>
<path d="M84.9184 110.567C121.754 110.567 138.355 93.6919 133.175 69.9323C127.607 44.3983 110.07 30.4219 84.9184 30.4219C59.7671 30.4219 42.2304 44.3983 36.6624 69.9323C31.4809 93.6932 48.0824 110.567 84.9184 110.567Z" fill="#DDAF89"/>
<path d="M94.3537 122.535C94.3537 127.747 90.1294 131.971 84.9181 131.971C79.7067 131.971 75.4824 127.747 75.4824 122.535C75.4824 117.324 79.7067 113.1 84.9181 113.1C90.1294 113.1 94.3537 117.324 94.3537 122.535Z" fill="#F6E06A"/>
<path d="M66.5737 74.9318C66.5737 70.465 62.0264 66.8438 56.4169 66.8438C50.8074 66.8438 46.2588 70.465 46.2588 74.9318C46.2588 79.4 50.8074 83.0212 56.4169 83.0212C62.0264 83.0212 66.5737 79.4 66.5737 74.9318Z" fill="#FFDBDB"/>
<path d="M123.577 74.9318C123.577 70.465 119.029 66.8438 113.42 66.8438C107.81 66.8438 103.262 70.465 103.262 74.9318C103.262 79.4 107.81 83.0212 113.42 83.0212C119.029 83.0212 123.577 79.4 123.577 74.9318Z" fill="#FFDBDB"/>
<path d="M90.2454 68.2463C86.7539 67.332 83.0847 67.332 79.5919 68.2463C78.1457 68.6251 76.8851 69.5148 76.0446 70.7508C74.9097 72.4201 75.5621 74.7106 77.4065 75.5316L82.5244 77.8065C84.0484 78.4848 85.7889 78.4848 87.3129 77.8065L92.4309 75.5316C94.2752 74.7106 94.9289 72.4201 93.7927 70.7508C92.9523 69.5148 91.6916 68.6251 90.2454 68.2463Z" fill="#495059"/>
<path d="M94.7588 54.2461H75.0781C73.7033 54.2461 72.5879 53.132 72.5879 51.7559C72.5879 50.3797 73.7033 49.2656 75.0781 49.2656H94.7588C96.1349 49.2656 97.249 50.3797 97.249 51.7559C97.249 53.132 96.1349 54.2461 94.7588 54.2461Z" fill="#D1A582"/>
<path d="M89.2825 44.3613H80.5537C79.1789 44.3613 78.0635 43.2472 78.0635 41.8711C78.0635 40.4963 79.1789 39.3809 80.5537 39.3809H89.2825C90.6573 39.3809 91.7727 40.4963 91.7727 41.8711C91.7727 43.2472 90.6573 44.3613 89.2825 44.3613Z" fill="#D1A582"/>
<path d="M110.51 139.775C106.94 139.775 103.91 137.036 103.611 133.416C103.296 129.603 106.132 126.255 109.947 125.94C114.644 125.552 117.515 123.965 117.918 121.8C118.617 118.038 122.535 115.556 126.297 116.254C130.058 116.955 132.542 120.572 131.841 124.333C131.234 127.599 127.942 138.359 111.087 139.751C110.893 139.767 110.7 139.775 110.51 139.775Z" fill="#C49B7A"/>
<path d="M59.3269 139.775C62.8962 139.775 65.926 137.036 66.2256 133.416C66.5408 129.603 63.7042 126.255 59.8898 125.94C55.192 125.552 52.3218 123.965 51.9184 121.8C51.2193 118.038 47.3011 115.556 43.5398 116.254C39.7785 116.955 37.2948 120.572 37.9952 124.333C38.6022 127.599 41.8939 138.359 58.7497 139.751C58.943 139.767 59.1362 139.775 59.3269 139.775Z" fill="#C49B7A"/>
<path d="M80.0766 13.8911L86.223 15.3878L81.0026 20.6069C80.0312 21.5797 80.0312 23.1568 81.0026 24.1295C81.489 24.6159 82.1271 24.8585 82.764 24.8585C83.4008 24.8585 84.0389 24.6159 84.5253 24.1295L91.782 16.8716C92.6393 16.0142 92.9687 14.7562 92.6406 13.5889C92.3137 12.4216 91.3786 11.5176 90.2009 11.2309L86.0544 10.2206L90.7781 8.25302C92.0946 7.70439 92.9233 6.37886 92.8403 4.95476C92.7573 3.53066 91.7794 2.31019 90.4072 1.91849L84.0156 0.0962146C82.6926 -0.281211 81.3139 0.485314 80.9365 1.80825C80.5604 3.13118 81.3269 4.50859 82.6485 4.88602L84.5849 5.43724L79.5798 7.52281C78.2348 8.08311 77.4074 9.43588 77.5215 10.8872C77.6356 12.3399 78.6615 13.5461 80.0766 13.8911ZM111.647 56.1809C110.926 55.0097 109.391 54.6466 108.221 55.3664L102.183 59.0862C101.011 59.8086 100.647 61.3416 101.368 62.5128C101.839 63.2768 102.656 63.697 103.491 63.697C103.937 63.697 104.387 63.5777 104.795 63.3274L105.014 63.1925C105.013 63.2197 105.01 63.2469 105.01 63.2755V66.863C105.01 68.2378 106.125 69.3532 107.5 69.3532C108.876 69.3532 109.991 68.2378 109.991 66.863V63.2755C109.991 62.2742 109.398 61.4117 108.544 61.0174L110.834 59.6063C112.005 58.8851 112.369 57.3521 111.647 56.1809ZM88.3242 80.0832L93.4421 77.807C94.9972 77.1144 96.158 75.7798 96.6237 74.1417C97.0906 72.5049 96.8091 70.7591 95.852 69.3506C94.673 67.6165 92.9052 66.3688 90.8767 65.837C86.9792 64.8176 82.8586 64.8176 78.9612 65.837C76.9314 66.3688 75.1648 67.6165 73.9846 69.3506C73.0274 70.7591 72.7459 72.5049 73.2129 74.1417C73.6798 75.7798 74.8393 77.1144 76.3944 77.807L81.5123 80.0832C81.812 80.2155 82.118 80.3284 82.428 80.4256V85.4826C79.537 85.8925 76.8094 87.0105 74.432 88.7835C73.3309 89.6058 73.1039 91.1674 73.9262 92.2685C74.7485 93.3722 76.3088 93.5979 77.4112 92.7756C79.5941 91.1466 82.1907 90.2854 84.9183 90.2854C87.6458 90.2854 90.2424 91.1466 92.4253 92.7756C92.8727 93.109 93.3941 93.2698 93.9116 93.2698C94.6717 93.2698 95.4213 92.9248 95.9103 92.2685C96.7326 91.1661 96.5056 89.6058 95.4032 88.7835C93.0258 87.0105 90.2995 85.8912 87.4085 85.4826V80.4243C87.7185 80.3284 88.0246 80.2155 88.3242 80.0832ZM86.3009 75.5321C85.4215 75.9225 84.415 75.9225 83.5357 75.5321L78.4177 73.2559C78.1402 73.1326 78.0377 72.9031 78.0027 72.7773C77.9664 72.6515 77.9313 72.4037 78.1025 72.1508C78.6058 71.4128 79.358 70.8811 80.2218 70.6554C81.7575 70.2533 83.3385 70.0523 84.9183 70.0523C86.498 70.0523 88.079 70.2533 89.6147 70.6554C90.4785 70.8823 91.2308 71.4128 91.7327 72.1508C91.9039 72.4037 91.8702 72.6515 91.8339 72.7773C91.7975 72.9031 91.6964 73.1326 91.4188 73.2559L86.3009 75.5321ZM141.602 38.0943L135.757 32.9906C131.117 28.9414 125.176 26.5588 119.023 26.2839C113.398 26.0271 107.764 27.5627 103.027 30.6093C97.5225 28.8286 91.4746 27.931 84.9183 27.931C78.3619 27.931 72.314 28.8286 66.8096 30.6093C62.0717 27.5627 56.4414 26.0296 50.8124 26.2839C44.6608 26.5588 38.7192 28.9414 34.0799 32.9906L28.2343 38.0943C24.1864 41.6299 23.7674 47.7984 27.3031 51.8463C29.2265 54.0499 31.932 55.1783 34.6505 55.1783C36.4145 55.1783 38.1836 54.701 39.749 53.7374C37.334 58.3923 35.4897 63.6218 34.229 69.4012C32.6713 76.5463 32.9593 83.1325 35.085 88.9741C35.5559 90.2672 36.9851 90.9326 38.2769 90.4631C39.5688 89.9936 40.2354 88.5643 39.7646 87.2712C37.967 82.3283 37.7413 76.6721 39.0954 70.4621C41.3755 60.0057 45.7074 51.5792 51.8461 45.3782C52.0212 45.2446 52.1756 45.089 52.3092 44.9165C56.4453 40.8738 61.3739 37.8141 67.0275 35.796C67.2078 35.7545 67.3829 35.6949 67.5502 35.6131C72.7563 33.8285 78.5617 32.9115 84.9183 32.9115C91.2736 32.9115 97.0789 33.8272 102.284 35.6131C102.452 35.6949 102.629 35.7545 102.809 35.796C108.463 37.8154 113.391 40.8738 117.527 44.9178C117.66 45.089 117.815 45.2446 117.989 45.3769C124.128 51.5792 128.46 60.0044 130.74 70.4621C132.762 79.7356 131.196 87.908 126.211 94.0986C124.193 96.6044 121.652 98.7833 118.627 100.632C118.475 100.703 118.335 100.788 118.206 100.886C110.215 105.615 98.9349 108.076 84.9183 108.076C66.5022 108.076 52.6957 103.782 44.9902 95.6576C44.0434 94.6602 42.4675 94.6187 41.4702 95.5655C40.4715 96.5123 40.43 98.0881 41.3768 99.0855C42.6893 100.471 44.1523 101.755 45.7541 102.94C38.0772 107.657 33.9502 116.211 35.5468 124.791C35.5468 124.795 35.5481 124.798 35.5481 124.802C36.0267 127.356 37.9281 133.916 45.1186 138.263C42.0707 139.405 39.893 142.347 39.893 145.789C39.893 150.218 43.4974 153.823 47.9266 153.823C54.2469 153.823 59.0133 152.614 63.2299 149.802C63.1663 153.354 63.2792 156.978 63.4335 160.947C63.6319 166.023 67.7629 170 72.8406 170C72.9664 170 73.0935 169.997 73.2116 169.994C75.7264 169.895 78.052 168.824 79.7601 166.978C81.4695 165.13 82.3554 162.729 82.2581 160.214C82.0727 155.454 81.987 151.615 82.1284 148.176C83.0545 148.24 83.9844 148.279 84.9183 148.279C85.8521 148.279 86.782 148.24 87.7081 148.176C87.8495 151.616 87.7639 155.456 87.5784 160.214C87.3761 165.405 91.4344 169.791 96.6159 169.992C96.7417 169.999 96.8688 170 96.9959 170C99.6042 170 102.119 168.901 103.897 166.986C104.832 165.978 104.774 164.402 103.766 163.466C102.757 162.531 101.183 162.589 100.246 163.598C99.4083 164.502 98.2229 165.02 96.9959 165.02C96.9388 165.02 96.8831 165.018 96.8182 165.016C94.3721 164.921 92.4603 162.854 92.555 160.409C92.7534 155.319 92.8403 151.236 92.6639 147.513C95.6911 146.91 98.621 145.954 101.381 144.675C101.626 147.732 101.695 151.031 101.607 155.1C101.578 156.476 102.669 157.614 104.044 157.644H104.098C105.448 157.644 106.557 156.564 106.586 155.208C106.699 149.964 106.563 145.917 106.133 142.03C106.386 141.864 106.64 141.701 106.889 141.527C108.009 142.002 109.233 142.265 110.509 142.265C110.771 142.265 111.036 142.255 111.291 142.233C129.89 140.697 133.595 128.513 134.287 124.8C134.288 124.796 134.288 124.793 134.29 124.789C135.885 116.212 131.759 107.66 124.086 102.941C126.379 101.241 128.388 99.3345 130.09 97.2217C136.054 89.8172 137.962 80.1974 135.607 69.4012C134.347 63.6231 132.502 58.3936 130.089 53.74C131.615 54.6829 133.365 55.1822 135.177 55.1822C135.401 55.1822 135.626 55.1757 135.85 55.1602C138.448 54.9838 140.821 53.8074 142.533 51.8463C146.068 47.7984 145.65 41.6286 141.602 38.0943ZM51.876 38.6689C50.9266 39.4406 50.0187 40.2551 49.1367 41.0994C47.1004 41.5741 45.2081 42.5404 43.6245 43.923L37.7789 49.0267C35.7997 50.7543 32.7829 50.5506 31.054 48.5701C29.3264 46.5909 29.53 43.5741 31.5105 41.8452L37.3561 36.7415C41.1485 33.4303 46.0071 31.4835 51.0355 31.2578C54.3688 31.11 57.7034 31.7286 60.7617 33.0256C57.5776 34.5626 54.6113 36.4445 51.876 38.6689ZM117.835 106.727C117.699 107.762 117.259 108.744 116.564 109.542C116.561 109.544 116.559 109.548 116.556 109.551C116.189 109.969 115.757 110.338 115.256 110.633C109.241 114.164 102.731 116.583 95.8818 117.844C95.018 115.832 93.6159 114.107 91.8585 112.845C102.128 112.215 110.865 110.15 117.835 106.727ZM84.9183 115.59C88.7483 115.59 91.8637 118.705 91.8637 122.535C91.8637 126.364 88.7483 129.481 84.9183 129.481C81.0882 129.481 77.9728 126.364 77.9728 122.535C77.9728 118.705 81.0882 115.59 84.9183 115.59ZM77.978 112.847C76.2206 114.109 74.8185 115.834 73.9547 117.844C67.1053 116.582 60.5957 114.164 54.5802 110.633C54.0783 110.337 53.6438 109.966 53.2767 109.547C53.2767 109.546 53.2754 109.544 53.2741 109.543C52.5763 108.743 52.1367 107.755 52.0044 106.711C58.9874 110.136 67.7331 112.211 77.978 112.847ZM63.5943 143.098C59.3065 147.268 54.9667 148.842 47.9279 148.842C46.2444 148.842 44.8748 147.473 44.8748 145.789C44.8748 144.106 46.2444 142.736 47.9279 142.736C50.4674 142.736 52.6347 142.655 54.8578 141.761C56.016 141.965 57.2416 142.126 58.5425 142.234C58.8006 142.256 59.0652 142.266 59.3285 142.266C60.6035 142.266 61.8278 142.003 62.9471 141.528C63.1975 141.702 63.4517 141.867 63.7059 142.033C63.6657 142.388 63.6294 142.744 63.5943 143.098ZM63.7435 133.212C63.5554 135.496 61.6151 137.286 59.3272 137.286C59.204 137.286 59.0782 137.281 58.955 137.27C52.3948 136.728 47.4013 134.64 44.1147 131.063C41.4779 128.193 40.6699 125.094 40.4442 123.888C40.4429 123.881 40.4429 123.875 40.4416 123.869C39.3184 117.81 42.0097 111.74 47.164 107.987C47.4376 109.398 48.0044 110.744 48.8306 111.934C48.71 113.033 48.649 114.142 48.649 115.242C48.649 117.499 48.9058 119.77 49.4117 121.99C49.413 121.998 49.4156 122.007 49.4182 122.015L49.4493 122.16C49.4558 122.188 49.4623 122.215 49.4674 122.242C49.4687 122.247 49.47 122.252 49.47 122.258C50.1108 125.692 53.8331 127.94 59.6852 128.424C60.8667 128.521 61.9394 129.072 62.7059 129.977C63.4724 130.881 63.8408 132.031 63.7435 133.212ZM76.1052 163.595C75.2997 164.466 74.2038 164.97 73.0105 165.017C70.5423 165.106 68.5061 163.201 68.4101 160.754C68.1831 154.897 68.043 149.821 68.4542 144.675C71.2142 145.954 74.1454 146.91 77.1726 147.513C76.9962 151.234 77.0831 155.318 77.2815 160.409C77.3282 161.593 76.9093 162.725 76.1052 163.595ZM103.33 126.757C101.704 128.676 100.922 131.115 101.129 133.622C101.271 135.335 101.879 136.916 102.818 138.246C97.5912 141.518 91.3384 143.299 84.9183 143.299C78.4981 143.299 72.2453 141.518 67.0184 138.246C67.9574 136.916 68.5657 135.335 68.7071 133.622C68.9146 131.115 68.1325 128.676 66.5061 126.757C64.8797 124.837 62.6034 123.666 60.095 123.459C56.1055 123.129 54.5141 121.906 54.3727 121.369C54.3714 121.358 54.3688 121.346 54.3675 121.334C54.3584 121.284 54.348 121.233 54.3351 121.184L54.2832 120.953C54.278 120.924 54.2715 120.896 54.265 120.867C53.8863 119.206 53.6775 117.511 53.6386 115.822C59.6956 119.155 66.1909 121.472 72.9976 122.731C73.1026 129.216 78.4086 134.461 84.9183 134.461C91.4292 134.461 96.7339 129.216 96.839 122.731C103.646 121.472 110.141 119.155 116.199 115.822C116.159 117.516 115.949 119.216 115.569 120.883L115.5 121.188C115.486 121.249 115.474 121.31 115.464 121.37C115.321 121.906 113.731 123.131 109.741 123.46C107.233 123.666 104.957 124.837 103.33 126.757ZM129.395 123.871C129.394 123.875 129.392 123.878 129.392 123.88C129.169 125.082 128.362 128.188 125.722 131.063C122.435 134.64 117.442 136.728 110.879 137.27C110.758 137.281 110.633 137.286 110.509 137.286C108.22 137.286 106.281 135.496 106.093 133.211C105.994 132.029 106.363 130.881 107.129 129.977C107.897 129.072 108.97 128.52 110.151 128.422C115.984 127.941 119.702 125.705 120.359 122.289C120.363 122.272 120.365 122.254 120.369 122.237C120.374 122.212 120.379 122.188 120.386 122.162L120.416 122.027C120.418 122.014 120.422 122.002 120.425 121.989C120.931 119.77 121.187 117.5 121.187 115.241C121.187 114.141 121.127 113.032 121.006 111.932C121.831 110.744 122.399 109.397 122.673 107.985C127.827 111.74 130.518 117.812 129.395 123.871ZM138.783 48.5714C137.945 49.5299 136.784 50.1058 135.514 50.1914C134.24 50.2783 133.016 49.8632 132.058 49.0267L126.212 43.923C124.628 42.5404 122.735 41.5754 120.7 41.0994C119.818 40.2551 118.91 39.4406 117.961 38.6689C115.224 36.4445 112.259 34.5626 109.074 33.0256C112.132 31.7286 115.465 31.11 118.801 31.2591C123.829 31.4835 128.688 33.4316 132.48 36.7428L138.326 41.8465C140.307 43.5741 140.51 46.5909 138.783 48.5714ZM66.3453 63.697C67.1805 63.697 67.9976 63.2768 68.4684 62.5128C69.1896 61.3416 68.8251 59.8086 67.6539 59.0862L61.6164 55.3664C60.4439 54.6453 58.9109 55.0097 58.1897 56.1809C57.4686 57.3508 57.8331 58.8851 59.003 59.6063L61.2922 61.0174C60.44 61.4117 59.846 62.2742 59.846 63.2755V66.863C59.846 68.2378 60.9614 69.3532 62.3362 69.3532C63.7124 69.3532 64.8265 68.2378 64.8265 66.863V63.2755C64.8265 63.2469 64.8239 63.2197 64.8226 63.1925L65.0418 63.3274C65.449 63.5777 65.9004 63.697 66.3453 63.697Z" fill="black"/>
</g>
<defs>
<clipPath id="clip0_223_13423">
<rect width="170" height="170" fill="white"/>
</clipPath>
</defs>
</svg>
