<svg width="80" height="112" viewBox="0 0 80 112" fill="none" xmlns="http://www.w3.org/2000/svg">
<g clip-path="url(#clip0_1585_21484)">
<rect width="80" height="112" rx="6" fill="#63B2DE"/>
<path d="M40.0364 33.6L17.6001 45.1233V52.6877L40.0001 40.9215L62.4001 52.6872V45.1233L40.0364 33.6Z" fill="white"/>
<path d="M40.0001 42.8202L21.2148 52.6877L21.2141 78.4H32.3158V69.2684C32.3158 65.0245 35.7562 61.5842 40.0001 61.5842C44.244 61.5842 47.6844 65.0245 47.6844 69.2684V78.4H58.7861L58.7854 52.6877L40.0001 42.8202ZM47.4651 56.8226C47.4651 58.1006 46.4291 59.1365 45.1511 59.1365C43.8732 59.1365 42.8371 58.1006 42.8371 56.8226V56.8066H37.163V56.8226C37.163 58.1006 36.127 59.1365 34.8491 59.1365C33.5711 59.1365 32.5351 58.1006 32.5351 56.8226C32.5351 56.0628 32.903 55.3905 33.4686 54.9687C32.903 54.5468 32.5351 53.8747 32.5351 53.1148C32.5351 51.8368 33.5711 50.8008 34.8491 50.8008C36.127 50.8008 37.163 51.8368 37.163 53.1148H42.8371C42.8371 51.8368 43.8732 50.8008 45.1511 50.8008C46.4291 50.8008 47.4651 51.8368 47.4651 53.1148C47.4651 53.8747 47.0972 54.5468 46.5316 54.9687C47.0972 55.3905 47.4651 56.0628 47.4651 56.8226Z" fill="white"/>
<g clip-path="url(#clip1_1585_21484)">
<path d="M66.1057 10.222C64.7141 4.90141 58.299 6.62297 58.0535 12.1936C57.8129 17.6444 63.1667 21.9056 63.1667 21.9056C63.1667 21.9056 69.899 20.6847 72.2667 15.7689C74.6863 10.7453 69.8487 6.19302 66.1057 10.222ZM65.9107 12.469C66.0441 12.1006 66.3 11.7977 66.5953 11.659C66.7965 11.5644 67.0013 11.5502 67.1855 11.618C67.6561 11.7903 67.85 12.4523 67.6177 13.0935C67.4843 13.462 67.2285 13.7648 66.9332 13.9036C66.7568 13.9865 66.578 14.0076 66.412 13.9659C66.3886 13.96 66.3657 13.9529 66.3429 13.9445C65.8723 13.7723 65.6785 13.1103 65.9107 12.469ZM64.494 10.941C64.6894 10.9687 64.8622 11.0779 64.9946 11.2564C65.1891 11.5183 65.2712 11.9062 65.2144 12.2939C65.1155 12.9687 64.6316 13.4602 64.1355 13.3892C64.1115 13.3858 64.0878 13.3812 64.0645 13.3754C63.8985 13.3336 63.751 13.2304 63.6348 13.0739C63.4404 12.8119 63.3582 12.4241 63.415 12.0363C63.5139 11.3615 63.998 10.8701 64.494 10.941ZM61.8872 14.1689C61.8084 14.1491 61.7303 14.1155 61.6544 14.0683C61.3918 13.9049 61.1858 13.591 61.1034 13.2286C60.9597 12.5962 61.2224 11.9897 61.6889 11.8765C61.8736 11.8316 62.0666 11.8673 62.2469 11.9795C62.5095 12.1427 62.7155 12.4567 62.7979 12.8191C62.9416 13.4514 62.6789 14.058 62.2124 14.1713C62.1054 14.1973 61.9957 14.1963 61.8872 14.1689ZM66.9294 18.1472C66.7085 18.5904 66.2828 18.8767 65.7612 18.9326C65.612 18.9486 65.4639 18.9374 65.3226 18.9018C64.9742 18.8142 64.6666 18.5787 64.4817 18.2396C64.4114 18.1109 64.2947 18.0204 64.153 17.9848C64.0113 17.9491 63.8656 17.9736 63.7428 18.0538C63.2883 18.3507 62.7171 18.3523 62.2877 18.0588C61.8546 17.7627 61.6151 17.3091 61.6302 16.8142C61.645 16.3321 61.8995 15.8962 62.311 15.6483L63.6419 14.7368C64.0491 14.4581 64.5561 14.3671 65.0329 14.487C65.5097 14.6069 65.9132 14.927 66.14 15.3653L66.8839 16.8027C67.1265 17.2111 67.1445 17.7155 66.9294 18.1472ZM69.09 15.2377C68.8459 15.518 68.516 15.697 68.2073 15.7167C68.1181 15.7224 68.0334 15.715 67.9546 15.6952C67.8461 15.6679 67.7489 15.617 67.667 15.5435C67.3096 15.2228 67.3652 14.5642 67.7909 14.0751C68.0351 13.7949 68.3651 13.6158 68.6737 13.5961C68.8856 13.5826 69.0725 13.6425 69.214 13.7695C69.5715 14.0899 69.5158 14.7486 69.09 15.2377Z" fill="white" fill-opacity="0.5"/>
</g>
<g clip-path="url(#clip2_1585_21484)">
<path d="M13.7405 94.222C9.99705 90.1931 5.16006 94.7452 7.57962 99.7689C9.94676 104.685 16.6796 105.906 16.6796 105.906C16.6796 105.906 22.0328 101.644 21.7928 96.1935C21.5474 90.6229 15.1316 88.9015 13.7405 94.222ZM14.632 96.2938C14.5752 95.9061 14.6573 95.5183 14.8517 95.2563C14.9843 95.0777 15.158 94.9684 15.3524 94.941C15.8485 94.87 16.3324 95.3615 16.4313 96.0363C16.4881 96.424 16.406 96.8119 16.2115 97.0738C16.0953 97.2304 15.9479 97.3336 15.7818 97.3753C15.7584 97.3812 15.7349 97.3858 15.7109 97.3892C15.2148 97.4601 14.7308 96.9687 14.632 96.2938ZM12.6608 95.618C12.8461 95.5499 13.05 95.5644 13.2511 95.659C13.5464 95.7977 13.8022 96.1006 13.9356 96.469C14.1678 97.1103 13.974 97.7722 13.5034 97.9445C13.4807 97.9529 13.4576 97.96 13.4344 97.9658C13.2683 98.0076 13.0896 97.9865 12.9132 97.9036C12.618 97.7648 12.3621 97.462 12.2285 97.0935C11.9964 96.4522 12.1903 95.7902 12.6608 95.618ZM11.8917 99.6952C11.8129 99.715 11.7281 99.7224 11.6389 99.7167C11.3303 99.697 11.0003 99.5179 10.7563 99.2377C10.3305 98.7485 10.2748 98.0899 10.6323 97.7695C10.7738 97.6425 10.9607 97.5826 11.1726 97.5961C11.4811 97.6157 11.8112 97.7949 12.0553 98.0751C12.481 98.5642 12.5367 99.2228 12.1793 99.5434C12.0973 99.617 12.0002 99.6679 11.8917 99.6952ZM18.2161 100.814C18.2312 101.309 17.9917 101.763 17.5586 102.059C17.4347 102.144 17.2989 102.204 17.1577 102.239C16.8092 102.327 16.4268 102.265 16.1035 102.054C15.9807 101.974 15.835 101.949 15.6933 101.985C15.5516 102.02 15.4349 102.111 15.3646 102.24C15.1047 102.716 14.6022 102.988 14.085 102.933C13.5635 102.877 13.1378 102.59 12.9169 102.147C12.7018 101.715 12.7198 101.211 12.965 100.798L13.7062 99.3653C13.9331 98.927 14.3366 98.6069 14.8134 98.487C15.2902 98.367 15.7972 98.4581 16.2044 98.7368L17.5399 99.6512C17.9468 99.8962 18.2013 100.332 18.2161 100.814ZM18.7428 97.2286C18.6605 97.591 18.4545 97.9049 18.1919 98.0683C18.116 98.1155 18.0379 98.1491 17.9591 98.1689C17.8506 98.1962 17.7409 98.1973 17.6339 98.1713C17.1674 98.058 16.9047 97.4514 17.0483 96.8191C17.1308 96.4567 17.3368 96.1427 17.5994 95.9794C17.7797 95.8673 17.9727 95.8316 18.1574 95.8765C18.6239 95.9896 18.8865 96.5962 18.7428 97.2286Z" fill="white" fill-opacity="0.5"/>
</g>
</g>
<defs>
<clipPath id="clip0_1585_21484">
<rect width="80" height="112" fill="white"/>
</clipPath>
<clipPath id="clip1_1585_21484">
<rect width="18" height="18" fill="white" transform="translate(58.3906 3.99951) rotate(14.12)"/>
</clipPath>
<clipPath id="clip2_1585_21484">
<rect width="18" height="18" fill="white" transform="translate(3.99951 92.3906) rotate(-14.12)"/>
</clipPath>
</defs>
</svg>
