<svg width="170" height="170" viewBox="0 0 170 170" fill="none" xmlns="http://www.w3.org/2000/svg">
<g clip-path="url(#clip0_223_13631)">
<path d="M128.311 135.534C121.672 135.534 114.891 132.421 106.962 126.027C104.454 124.003 104.056 120.324 106.077 117.811C108.095 115.297 111.767 114.899 114.276 116.922C125.561 126.023 130.377 124.482 135.5 121.52C138.292 119.907 141.857 120.865 143.467 123.662C145.077 126.457 144.12 130.029 141.33 131.642C136.869 134.222 132.618 135.534 128.311 135.534Z" fill="#495059"/>
<path d="M76.5171 159.64C74.2941 159.64 72.0996 158.625 70.6677 156.703C67.2202 152.073 63.5393 145.775 65.6988 138.103C67.311 132.376 71.8194 127.452 78.0917 121.821C81.0904 119.128 85.6999 119.382 88.386 122.386C91.0734 125.391 90.8205 130.008 87.8218 132.701C86.0164 134.321 80.5249 139.25 79.7324 142.068C79.5988 142.539 79.246 143.795 82.3536 147.968C84.7609 151.201 84.0968 155.778 80.8699 158.191C79.5612 159.168 78.032 159.64 76.5171 159.64Z" fill="#DDAF89"/>
<path d="M121.906 157.008C119.709 157.008 117.537 156.018 116.102 154.131C111.394 147.943 107.812 141.353 104.932 136.057C103.523 133.463 102.305 131.223 101.196 129.452C99.0557 126.034 100.087 121.526 103.497 119.381C106.908 117.237 111.407 118.27 113.547 121.688C114.895 123.84 116.275 126.379 117.736 129.07C120.516 134.181 123.665 139.974 127.699 145.276C130.14 148.485 129.522 153.067 126.32 155.512C125 156.521 123.446 157.008 121.906 157.008Z" fill="#DDAF89"/>
<path d="M43.1353 136.971C42.6049 136.971 42.0679 136.914 41.5283 136.792C37.601 135.907 35.1328 131.998 36.0161 128.063C38.3935 117.477 43.313 104.94 60.3984 101.921C64.3672 101.222 68.1454 103.875 68.8445 107.847C69.5436 111.82 66.8951 115.608 62.9302 116.31C55.667 117.592 52.4647 121.368 50.2416 131.27C49.479 134.664 46.4699 136.971 43.1353 136.971Z" fill="#DDAF89"/>
<path d="M117.102 105.153C113.377 104.331 110.883 100.736 111.474 96.905C112.089 92.918 115.814 90.1864 119.793 90.8024C127.632 92.0174 132.373 87.8511 140.689 77.4159C143.202 74.2632 147.789 73.7486 150.934 76.2658C154.081 78.783 154.595 83.3781 152.082 86.5308C144.881 95.5678 135.019 107.945 117.564 105.24C117.408 105.216 117.254 105.187 117.102 105.153Z" fill="#DDAF89"/>
<path d="M130.263 96.6515C129.83 94.1928 129.131 91.8328 128.198 89.5898C125.608 90.9063 122.952 91.2922 119.792 90.8023C115.813 90.1863 112.089 92.918 111.474 96.9049C110.883 100.736 113.377 104.33 117.102 105.153C117.254 105.187 117.408 105.215 117.564 105.24C122.525 106.008 126.871 105.559 130.718 104.314C130.857 101.791 130.715 99.2272 130.263 96.6515Z" fill="#D1A582"/>
<path d="M117.737 129.068C116.275 126.38 114.894 123.84 113.546 121.687C111.406 118.27 106.907 117.237 103.497 119.382C100.086 121.526 99.056 126.034 101.196 129.452C102.305 131.223 103.523 133.463 104.933 136.057C105.149 136.454 105.37 136.86 105.594 137.271C110.288 135.453 114.503 132.866 118.086 129.712C117.969 129.497 117.852 129.281 117.737 129.068Z" fill="#D1A582"/>
<path d="M88.3865 122.386C85.7004 119.382 81.0909 119.128 78.0935 121.821C73.4749 125.966 69.8186 129.73 67.5645 133.712C71.6383 136.365 76.2946 138.298 81.3114 139.335C83.3023 136.758 86.5214 133.869 87.8223 132.701C90.821 130.008 91.0739 125.391 88.3865 122.386Z" fill="#D1A582"/>
<path d="M68.845 107.848C68.1459 103.875 64.3677 101.221 60.3989 101.922C56.9087 102.538 53.9346 103.558 51.377 104.87C51.3886 106.733 51.5546 108.613 51.8867 110.499C52.4846 113.898 53.5896 117.113 55.1214 120.084C57.0539 118.042 59.552 116.905 62.9319 116.309C66.8956 115.608 69.5428 111.82 68.845 107.848Z" fill="#D1A582"/>
<path d="M126.131 97.3855C123.049 79.8717 104.881 68.441 85.5514 71.8548C66.2222 75.2687 53.0511 92.2341 56.1328 109.749C59.2145 127.264 77.3816 138.695 96.7108 135.281C116.04 131.866 129.211 114.901 126.131 97.3855Z" fill="#DDAF89"/>
<path d="M119.165 77.6182C111.842 86.264 101.58 92.4991 89.5633 94.6213C77.5466 96.7447 65.7763 94.403 55.9438 88.7864C54.5365 91.4751 53.4691 94.3198 52.7998 97.2671C51.8867 101.281 54.0968 105.357 57.9476 106.793C68.5493 110.746 80.3079 112.01 92.2533 109.9C104.197 107.789 114.815 102.572 123.428 95.2243C126.556 92.555 127.243 87.9677 125.014 84.5083C123.379 81.969 121.405 79.6623 119.165 77.6182Z" fill="#7F9AE6"/>
<path d="M73.1614 94.8105C67.0396 93.8657 61.2135 91.7968 55.9438 88.7871C54.5365 91.4771 53.4691 94.3218 52.7998 97.2679C51.8867 101.282 54.0968 105.357 57.9476 106.793C63.4612 108.848 69.2873 110.17 75.2885 110.675C72.4403 106.817 71.9189 100.361 73.1614 94.8105Z" fill="#5E78BF"/>
<path d="M66.532 43.6041C65.0547 43.8653 63.4853 43.6782 62.034 42.9687L51.9744 38.0538C47.5698 35.9018 42.3442 37.0688 39.269 40.892L34.3287 47.031C31.7775 50.2019 27.1447 50.6996 23.9813 48.1434C20.8166 45.5872 20.3198 40.9453 22.8697 37.7744L27.81 31.6354C31.3729 27.2092 36.3858 24.089 41.9253 22.8519C47.4648 21.616 53.3246 22.3061 58.4257 24.7986L68.4853 29.7134C72.1389 31.499 73.6564 35.9122 71.8743 39.573C70.8004 41.7796 68.7732 43.2091 66.532 43.6041Z" fill="#495059"/>
<path d="M93.7911 38.7877C91.5499 39.1841 89.157 38.5369 87.3943 36.8306C84.4709 34.0015 84.3892 29.3336 87.2141 26.4045L94.9883 18.3382C98.9325 14.2486 104.205 11.5924 109.83 10.8542C115.458 10.1187 121.233 11.3324 126.092 14.272L132.83 18.3473C136.309 20.4526 137.426 24.9854 135.325 28.472C133.225 31.9574 128.701 33.0776 125.221 30.9723L118.483 26.8957C114.289 24.3577 108.98 25.0516 105.576 28.5838L97.8002 36.65C96.6783 37.8131 95.2671 38.5278 93.7911 38.7877Z" fill="#495059"/>
<path d="M90.2831 98.7117C127.075 92.2114 140.685 72.3948 131.325 49.5308C121.267 24.9605 101.289 14.0678 76.1678 18.5057C51.0475 22.9436 35.9932 40.026 34.9284 66.5612C33.9388 91.2537 53.4911 105.212 90.2831 98.7117Z" fill="#DDAF89"/>
<path d="M102.396 111.136C102.396 116.629 97.9517 121.083 92.4692 121.083C86.9868 121.083 82.542 116.629 82.542 111.136C82.542 105.643 86.9868 101.189 92.4692 101.189C97.9517 101.189 102.396 105.643 102.396 111.136Z" fill="#F6E06A"/>
<path d="M65.2932 68.0969C64.4773 63.4589 59.1039 60.531 53.292 61.5576C47.4788 62.5843 43.4283 67.1768 44.2441 71.8149C45.0599 76.4529 50.4334 79.3795 56.2466 78.3528C62.0584 77.3262 66.109 72.7349 65.2932 68.0969Z" fill="#FFDBDB"/>
<path d="M103.315 61.3735C104.131 66.0102 109.505 68.9381 115.317 67.9114C121.13 66.8848 125.179 62.2935 124.363 57.6555C123.547 53.0174 118.174 50.0896 112.362 51.1162C106.549 52.1429 102.5 56.7354 103.315 61.3735Z" fill="#FFDBDB"/>
<path d="M88.6023 56.8195C84.8163 56.5102 81.0148 57.182 77.5635 58.7701C76.1342 59.4276 74.9915 60.5829 74.3456 62.0202C73.474 63.9617 74.5687 66.219 76.6309 66.7336L82.3494 68.1592C84.0524 68.5842 85.8552 68.2658 87.3104 67.282L92.1975 63.9838C93.9589 62.7934 94.217 60.297 92.7358 58.7714C91.6385 57.6421 90.1703 56.9481 88.6023 56.8195Z" fill="#495059"/>
<path d="M96.1346 81.5831C95.3603 77.1829 90.9427 74.285 86.2696 75.1115C81.5953 75.9367 78.4332 80.1731 79.2075 84.5734C79.9818 88.9736 84.3981 91.8716 89.0725 91.0464C93.7469 90.2212 96.9089 85.9847 96.1346 81.5831Z" fill="#D16283"/>
<path d="M118.864 20.3101L36.6638 34.8324C33.1515 35.4536 30.8065 38.809 31.4252 42.3282L32.6586 49.3366C33.2773 52.857 36.6275 55.2066 40.1397 54.5854L122.34 40.0631C125.853 39.4432 128.198 36.0865 127.578 32.5674L126.345 25.559C125.726 22.0398 122.377 19.6903 118.864 20.3101Z" fill="#F3E5B7"/>
<path d="M126.53 26.6045L127.395 31.5193L32.4755 48.2937L31.6104 43.3789L126.53 26.6045Z" fill="#7F9AE6"/>
<path d="M160.469 35.4695C166.009 37.489 168.871 43.615 166.883 49.1679C164.801 54.9781 158.153 57.6773 152.445 55.3511C145.153 52.3804 144.729 47.0575 139.7 43.9555C138.2 43.0302 138.117 40.8743 139.532 39.823C147.144 34.1648 153.376 32.8821 160.469 35.4695Z" fill="#7F9AE6"/>
<path d="M3.4889 71.6252C0.997361 76.978 3.29565 83.3379 8.62113 85.8551C14.1943 88.4893 20.8 85.6875 23.1942 79.9994C26.2539 72.7324 22.7974 68.6675 24.1631 62.9119C24.5704 61.1952 23.1086 59.611 21.3655 59.8696C11.9907 61.2614 6.67952 64.7702 3.4889 71.6252Z" fill="#7F9AE6"/>
<path d="M161.321 33.1253C153.452 30.2559 146.276 31.7036 138.048 37.8179C136.716 38.8082 135.963 40.391 136.035 42.0518C136.106 43.7074 136.988 45.2136 138.395 46.0804C140.12 47.146 141.215 48.5755 142.484 50.2324C144.439 52.7899 146.657 55.6879 151.507 57.6631C153.163 58.3376 154.928 58.6755 156.69 58.6755C158.597 58.6755 160.501 58.2804 162.26 57.4929C165.551 56.0205 168.025 53.363 169.226 50.0115C171.673 43.1824 168.127 35.6061 161.321 33.1253ZM164.539 48.3247C163.8 50.3857 162.271 52.0232 160.23 52.9367C158.079 53.8984 155.583 53.9374 153.383 53.0407C149.788 51.5748 148.234 49.5462 146.435 47.1954C145 45.3189 143.515 43.3787 141.015 41.827C145.695 38.3482 149.674 36.6912 153.705 36.6912C155.636 36.6912 157.581 37.072 159.617 37.814C163.853 39.3592 166.06 44.0752 164.539 48.3247ZM26.5861 63.489C26.9687 61.8788 26.529 60.1894 25.411 58.9679C24.2904 57.7424 22.6393 57.1563 21.0012 57.4006C10.8677 58.9055 4.77051 62.9678 1.23229 70.5701C-1.82863 77.1471 1.0105 85.0158 7.55906 88.1113C9.30483 88.9365 11.1712 89.351 13.0506 89.351C14.6329 89.351 16.2256 89.0573 17.7652 88.4673C21.2256 87.1405 24.0414 84.4076 25.4888 80.969C27.5238 76.1373 27.0465 72.5155 26.6263 69.3213C26.3526 67.2524 26.1179 65.4656 26.5861 63.489ZM20.9 79.0288C19.9766 81.2211 18.1854 82.9625 15.9844 83.8059C13.8975 84.6064 11.6615 84.5323 9.68485 83.598C5.60708 81.6708 3.84056 76.7728 5.74586 72.6793C8.57591 66.6001 13.2075 63.6033 21.7405 62.335C21.0595 65.2057 21.3786 67.6306 21.6873 69.9749C22.0738 72.9106 22.4084 75.446 20.9 79.0288ZM106.225 54.721C106.368 54.721 106.514 54.7093 106.66 54.6833C108.014 54.4442 108.918 53.1499 108.68 51.7931L108.025 48.0687C107.785 46.712 106.492 45.8062 105.139 46.044C103.785 46.2831 102.88 47.5774 103.12 48.9355L103.774 52.6586C103.987 53.8698 105.038 54.721 106.225 54.721ZM152.489 74.3154C148.273 70.9444 142.107 71.6371 138.743 75.8592C134.739 80.8832 131.554 84.4674 128.52 86.4998C128.354 85.7851 128.114 85.0807 127.795 84.4024C129.891 82.2244 131.641 79.8787 133.019 77.3693C137.668 68.9171 137.878 58.9627 133.629 48.5846C132.183 45.0512 130.506 41.7373 128.638 38.7016C129.501 37.4203 130.009 35.9687 130.136 34.4638C133.115 34.126 135.847 32.4353 137.458 29.7621C138.818 27.5048 139.22 24.8538 138.589 22.2937C137.958 19.7349 136.369 17.5751 134.118 16.2132L127.38 12.1365C122.04 8.90588 115.694 7.57256 109.509 8.38087C103.837 9.1242 98.484 11.6531 94.2934 15.5413C88.4764 14.7265 82.2754 14.8928 75.7359 16.0481C69.199 17.2034 63.3236 19.1787 58.1382 21.935C52.8685 19.7141 46.9697 19.1709 41.3836 20.4172C35.2954 21.7765 29.7871 25.2047 25.8714 30.0701L20.9324 36.2091C19.2801 38.2611 18.5252 40.8342 18.8067 43.4566C19.0868 46.0765 20.3695 48.4312 22.4175 50.0869C24.2113 51.5345 26.398 52.2701 28.5951 52.2701C29.3681 52.2701 30.1424 52.1726 30.9012 51.9894C31.5341 53.3617 32.5082 54.5534 33.7585 55.463C33.0387 58.9562 32.5938 62.6456 32.4407 66.461C32.1165 74.5493 33.8545 81.559 37.608 87.2939C38.0866 88.0242 38.8816 88.4218 39.6923 88.4218C40.1618 88.4218 40.6352 88.2893 41.0554 88.0125C42.2059 87.2575 42.5275 85.7097 41.7727 84.5583C38.6015 79.7098 37.1359 73.689 37.4173 66.6611C37.5496 63.3681 37.9154 60.1855 38.499 57.1628C38.6663 57.1732 38.8324 57.1823 38.9997 57.1823C39.5224 57.1823 40.0476 57.1368 40.5729 57.0446L122.774 42.521C123.467 42.3988 124.134 42.1974 124.764 41.9258C126.345 44.5651 127.774 47.4306 129.021 50.478C132.678 59.411 132.552 67.8775 128.657 74.9626C127.264 77.4954 125.419 79.8449 123.148 82.0034C123.012 82.1074 122.89 82.2231 122.781 82.3478C115.654 88.9235 104.479 93.6707 89.8512 96.2541C72.2405 99.3652 58.0786 97.7785 48.8945 91.6655C47.7479 90.9027 46.2032 91.2145 45.4419 92.3633C44.6805 93.5108 44.9918 95.0599 46.1371 95.8214C47.3978 96.6609 48.7388 97.4224 50.1513 98.1112C50.0151 99.6017 50.198 101.075 50.6545 102.449C45.9062 104.802 42.0502 108.298 39.1748 112.879C35.9634 117.994 34.4485 123.682 33.5873 127.514C32.4044 132.787 35.7209 138.041 40.9828 139.227C41.6909 139.387 42.4147 139.468 43.1358 139.468C47.7376 139.468 51.6597 136.321 52.6714 131.817C54.0617 125.624 55.7388 122.678 57.7465 121.04C59.9903 124.787 62.9708 128.052 66.4935 130.709C64.9877 132.961 63.9371 135.177 63.3029 137.426C62.1978 141.352 62.3418 145.369 63.7296 149.365C65.0097 153.049 67.164 156.169 68.6725 158.195C70.509 160.663 73.4415 162.135 76.518 162.135C78.6373 162.135 80.6581 161.464 82.3597 160.191C84.4544 158.625 85.8149 156.337 86.1911 153.747C86.5672 151.156 85.9135 148.575 84.3506 146.476C82.5154 144.009 82.2028 142.946 82.1509 142.683C82.2728 142.327 82.8837 141.023 85.6956 138.147C87.0821 138.292 88.4867 138.373 89.907 138.373C92.2883 138.373 94.7137 138.165 97.1507 137.735C98.9263 137.421 100.653 136.997 102.324 136.476C102.465 136.733 102.602 136.985 102.746 137.251C105.664 142.62 109.297 149.301 114.122 155.644C115.988 158.098 118.825 159.504 121.905 159.504C124.062 159.504 126.111 158.81 127.83 157.497C129.124 156.508 130.159 155.204 130.822 153.723C131.385 152.466 130.825 150.989 129.569 150.424C128.315 149.861 126.842 150.423 126.279 151.679C125.949 152.414 125.455 153.036 124.811 153.529C123.968 154.173 122.962 154.514 121.907 154.514C120.393 154.514 118.999 153.822 118.083 152.619C113.489 146.579 109.957 140.082 107.119 134.863C107.087 134.804 107.057 134.748 107.025 134.688C110.008 133.338 112.764 131.653 115.244 129.7C115.346 129.889 115.448 130.073 115.55 130.263C117.905 134.593 120.573 139.501 123.834 144.195C124.319 144.892 125.093 145.265 125.881 145.265C126.372 145.265 126.868 145.121 127.301 144.818C128.429 144.03 128.708 142.475 127.922 141.344C127.13 140.203 126.37 139.041 125.639 137.874C126.53 137.973 127.419 138.029 128.31 138.029C132.991 138.029 137.656 136.646 142.574 133.803C144.5 132.689 145.878 130.892 146.454 128.74C147.029 126.589 146.735 124.341 145.624 122.412C143.33 118.431 138.232 117.06 134.257 119.357C131.078 121.194 128.495 122.279 123.843 120.192C126.301 116.284 127.969 111.959 128.682 107.435C140.675 104.834 148.351 95.2106 154.029 88.0879C157.394 83.8657 156.703 77.6877 152.489 74.3154ZM59.43 26.9135C59.4832 26.885 59.5351 26.8551 59.5857 26.8226C64.5247 24.0546 70.2107 22.0923 76.601 20.963C82.9914 19.8337 89.0055 19.7297 94.5904 20.6381C94.6501 20.6511 94.7085 20.6615 94.7681 20.6706C95.9666 20.8707 97.1455 21.1163 98.3037 21.41L56.36 28.82C57.3483 28.1468 58.3717 27.5126 59.43 26.9135ZM30.455 36.0636C29.0841 38.0246 28.5575 40.404 28.9726 42.7627L29.743 47.1395C28.3007 47.4904 26.743 47.1707 25.5433 46.2012C23.4538 44.5131 23.1244 41.4358 24.8092 39.341L29.7495 33.202C32.9582 29.2137 37.4757 26.4028 42.4666 25.2878C45.8102 24.5406 49.2914 24.5796 52.6078 25.3619C50.4366 26.9213 48.4185 28.6523 46.5599 30.5509L36.2319 32.3755C33.8778 32.7926 31.826 34.1013 30.455 36.0636ZM124.469 35.9726C124.323 36.1818 124.158 36.3742 123.978 36.5483C123.931 36.5873 123.887 36.6276 123.844 36.6692C123.302 37.15 122.639 37.4775 121.908 37.6061L39.7078 52.1284C38.9711 52.2597 38.2318 52.1765 37.5548 51.9062C37.5042 51.8841 37.4549 51.8633 37.4031 51.8451C37.1735 51.7425 36.953 51.6177 36.7429 51.4709C35.8752 50.8614 35.2954 49.9504 35.1113 48.9043L34.9919 48.2285C34.9906 48.222 34.9893 48.2142 34.988 48.2077L33.8778 41.8959C33.6936 40.8511 33.9271 39.7958 34.5341 38.9264C35.1424 38.0558 36.0516 37.4762 37.0957 37.2916L119.297 22.7693C119.528 22.7277 119.76 22.7082 119.987 22.7082C121.875 22.7082 123.554 24.0676 123.894 25.9935L125.003 32.3027C125.005 32.3131 125.006 32.3248 125.009 32.3365L125.126 33.0019C125.31 34.0467 125.078 35.1019 124.469 35.9726ZM125.118 19.3386C123.161 17.9649 120.786 17.4386 118.432 17.8532L108.119 19.6751C105.723 18.5276 103.234 17.592 100.658 16.8694C103.506 15.0007 106.76 13.7752 110.153 13.3295C115.226 12.6667 120.428 13.7596 124.805 16.4081L131.543 20.4847C132.656 21.1579 133.441 22.2261 133.753 23.4906C134.065 24.7563 133.866 26.0675 133.194 27.1825C132.397 28.5055 131.044 29.3424 129.569 29.5074L128.798 25.1267C128.383 22.768 127.076 20.7122 125.118 19.3386ZM123.75 88.0528C123.96 89.3835 123.695 90.7597 122.993 91.9241C122.992 91.9267 122.991 91.9293 122.99 91.9319C122.68 92.4452 122.289 92.9182 121.813 93.325C116.187 98.1255 109.838 101.847 102.92 104.418C101.598 102.359 99.698 100.744 97.4905 99.7616C108.387 97.1508 117.23 93.1976 123.75 88.0528ZM91.178 103.798C91.6138 103.721 92.0457 103.685 92.4737 103.685C96.0119 103.685 99.1585 106.232 99.794 109.842C100.506 113.889 97.7992 117.761 93.7604 118.474C91.8071 118.819 89.8317 118.381 88.204 117.24C86.5776 116.098 85.4907 114.39 85.1457 112.429C84.4336 108.384 87.1405 104.511 91.178 103.798ZM47.8128 130.72C47.3238 132.897 45.3576 134.476 43.1358 134.476C42.7817 134.476 42.425 134.437 42.0762 134.358C39.4938 133.776 37.8661 131.197 38.4471 128.61C40.2046 120.78 43.4912 111.357 53.2719 106.726C53.3471 107.886 53.4859 109.045 53.6856 110.181C54.0734 112.383 54.6882 114.493 55.4936 116.502C51.7609 119.051 49.4613 123.379 47.8128 130.72ZM55.1927 100.145C60.5273 101.899 66.6712 102.787 73.5142 102.787C76.8085 102.787 80.2651 102.58 83.8681 102.168C82.1275 103.85 80.8941 106.021 80.3546 108.411C72.985 108.366 65.7503 107.042 58.8166 104.456C56.8918 103.737 55.5598 102.062 55.1927 100.145ZM81.2612 153.028C81.077 154.299 80.4103 155.422 79.3818 156.19C78.5465 156.815 77.5556 157.145 76.518 157.145C74.9837 157.145 73.5803 156.441 72.6646 155.211C69.3664 150.781 66.2432 145.365 68.0979 138.78C68.592 137.024 69.4403 135.26 70.6711 133.429C73.5271 135.027 76.6283 136.272 79.9006 137.113C78.1146 139.265 77.5738 140.546 77.3364 141.391C76.911 142.902 76.9823 144.926 80.3584 149.46C81.1263 150.49 81.4466 151.757 81.2612 153.028ZM136.746 123.681C138.342 122.758 140.39 123.309 141.31 124.908C141.756 125.682 141.875 126.585 141.643 127.448C141.412 128.312 140.86 129.034 140.087 129.481C135.945 131.876 132.093 133.039 128.311 133.039C126.312 133.039 124.315 132.723 122.232 132.076C121.429 130.639 120.659 129.227 119.925 127.876C119.63 127.335 119.34 126.801 119.052 126.275C119.677 125.631 120.278 124.967 120.851 124.286C128.192 127.915 132.727 126.003 136.746 123.681ZM96.2856 132.82C78.483 135.967 61.7024 125.613 58.6635 109.699C65.644 112.108 72.8903 113.35 80.2625 113.402C80.8578 116.63 82.6593 119.443 85.348 121.329C87.4595 122.809 89.9186 123.582 92.4439 123.582C93.1676 123.582 93.8978 123.518 94.6268 123.39C101.336 122.203 105.842 115.794 104.714 109.073C111.629 106.497 118.018 102.852 123.747 98.2021C126.323 114.197 114.088 129.676 96.2856 132.82ZM150.137 84.9742C144.914 91.5277 138.533 99.5355 129.071 102.205C129.057 100.465 128.899 98.709 128.589 96.9481C128.386 95.7954 128.117 94.644 127.786 93.5147C127.971 93.1184 128.132 92.7116 128.267 92.2971C132.956 90.3257 137.043 85.9904 142.635 78.9729C144.288 76.9015 147.312 76.561 149.381 78.2153C151.448 79.8709 151.788 82.9027 150.137 84.9742ZM93.5891 66.0529C95.0418 65.0718 95.9795 63.5072 96.1598 61.7606C96.3401 60.014 95.7422 58.2908 94.5204 57.0316C93.0029 55.4695 90.9731 54.5105 88.8045 54.3337C84.6035 53.9894 80.3559 54.7392 76.5245 56.5027C74.5479 57.4123 72.9668 59.0082 72.0745 60.9965C71.356 62.5975 71.3832 64.422 72.1484 66.0023C72.9137 67.5812 74.3287 68.7313 76.0291 69.1549L81.7475 70.5805C82.1094 70.6702 82.4739 70.7352 82.8396 70.7781L83.3013 73.4044C81.479 74.1802 79.8954 75.4109 78.7061 77.0041C76.9564 79.3498 76.2651 82.1906 76.7606 85.0041C77.6581 90.1034 82.2598 93.6785 87.4907 93.6785C88.156 93.6785 88.8317 93.6213 89.5114 93.5004C95.5308 92.4374 99.6046 86.8962 98.593 81.147C98.0975 78.3336 96.4789 75.9008 94.034 74.2972C92.2922 73.1536 90.2766 72.535 88.1962 72.4779L87.7436 69.9087C88.073 69.7423 88.3947 69.5604 88.7033 69.3525L93.5891 66.0529ZM87.8746 77.4616C89.1041 77.4616 90.2922 77.8072 91.3051 78.4713C92.5866 79.3121 93.4335 80.5701 93.6877 82.0138C94.2221 85.0508 91.9601 88.0008 88.6463 88.5856C85.3298 89.1717 82.2002 87.1756 81.6658 84.1373C81.4116 82.6948 81.7774 81.2224 82.6943 79.9931C83.6476 78.7156 85.073 77.854 86.7073 77.5655C87.0977 77.4967 87.4881 77.4616 87.8746 77.4616ZM85.9187 65.2134C85.0497 65.8008 83.9667 65.9906 82.9499 65.7385L77.2314 64.3116C76.8695 64.2219 76.6983 63.9659 76.6283 63.8216C76.5582 63.6774 76.4648 63.385 76.6166 63.0445C77.0161 62.1569 77.7203 61.4435 78.6036 61.038C81.1768 59.8542 83.9849 59.2421 86.8084 59.2421C87.3389 59.2421 87.8694 59.2642 88.3998 59.3071C89.3674 59.3863 90.2727 59.8139 90.951 60.5104C91.2104 60.7794 91.2221 61.0861 91.2053 61.246C91.1884 61.4058 91.1145 61.7047 90.8058 61.9139L85.9187 65.2134ZM59.43 62.9886C59.574 62.9886 59.7193 62.9756 59.8658 62.951C61.2199 62.7105 62.1239 61.4175 61.8853 60.0595L61.2303 56.3363C60.9903 54.9783 59.6985 54.0738 58.3444 54.3116C56.9904 54.5521 56.0851 55.8451 56.325 57.2031L56.98 60.9263C57.194 62.1374 58.2446 62.9886 59.43 62.9886Z" fill="black"/>
</g>
<defs>
<clipPath id="clip0_223_13631">
<rect width="170" height="170" fill="white"/>
</clipPath>
</defs>
</svg>
