<svg width="66" height="66" viewBox="0 0 66 66" fill="none" xmlns="http://www.w3.org/2000/svg">
<g clip-path="url(#clip0_1591_25821)">
<path d="M20.0443 57.6343C19.1352 57.6343 18.1836 57.4837 17.169 57.1907C16.0989 56.8815 15.4824 55.7646 15.7927 54.6966C16.1025 53.6281 17.221 53.0133 18.2916 53.3225C20.2572 53.8905 22.0019 54.0088 25.0416 50.0323C25.7172 49.1481 26.9831 48.9779 27.869 49.6522C28.755 50.3269 28.9255 51.5903 28.2494 52.4745C25.5497 56.0068 23.0321 57.6343 20.0443 57.6343Z" fill="#495059"/>
<path d="M27.5759 64.9044C26.2717 64.9044 25.1673 63.9024 25.0644 62.5826C24.8005 59.1983 24.9065 56.6715 25.4302 53.8618C25.6855 52.4952 27.0023 51.5933 28.3711 51.8481C29.7403 52.1024 30.6439 53.4161 30.3892 54.7828C29.9457 57.161 29.8624 59.2381 30.093 62.1924C30.201 63.5781 29.1632 64.7891 27.7742 64.8969C27.7081 64.9019 27.6415 64.9044 27.5759 64.9044Z" fill="#DDAF89"/>
<path d="M39.0676 64.9044C39.0021 64.9044 38.936 64.9019 38.8694 64.8969C37.4809 64.7886 36.4426 63.5781 36.5511 62.1918C36.7811 59.2381 36.6984 57.1605 36.2549 54.7827C36.0001 53.4161 36.9037 52.1019 38.273 51.8476C39.6418 51.5933 40.9586 52.4952 41.2134 53.8618C41.7376 56.6715 41.8435 59.1983 41.5797 62.5826C41.4768 63.9019 40.3718 64.9044 39.0676 64.9044Z" fill="#DDAF89"/>
<path d="M21.0517 49.1008C17.8571 49.6355 14.9253 48.9311 12.5954 47.0257C11.5182 46.1445 11.3603 44.5588 12.2432 43.4838C13.1257 42.4087 14.7149 42.2511 15.7921 43.1318C17.397 44.4445 19.5377 44.6001 22.1536 43.5955C23.4533 43.0965 24.9129 43.7436 25.4129 45.0412C25.9129 46.3388 25.2645 47.7951 23.9649 48.2941C22.9765 48.6733 22.0023 48.9421 21.0517 49.1008Z" fill="#DDAF89"/>
<path d="M16.5455 30.6354C15.9507 27.2667 12.7323 22.7364 9.83935 23.2455C6.9469 23.7545 5.4752 29.1102 6.07054 32.4789C6.44742 34.6129 7.69158 36.1603 9.2879 36.8798C9.66024 37.0475 9.90645 37.4111 9.9453 37.8169L10.7969 46.7618C10.92 48.0529 12.1198 48.9643 13.3988 48.7392L15.2312 48.417C16.5107 48.1914 17.3255 46.9255 16.9991 45.6707L14.7337 36.9745C14.6313 36.5797 14.7378 36.1542 15.0304 35.8692C16.2842 34.6482 16.9229 32.7694 16.5455 30.6354Z" fill="#A0D9BB"/>
<path d="M13.3081 30.5493C13.6143 32.282 12.8797 33.6436 11.7128 33.8485C10.5463 34.054 9.38943 33.0253 9.08319 31.2931C8.77694 29.5599 9.32031 27.1162 10.4873 26.9108C11.6537 26.7053 13.0018 28.8167 13.3081 30.5493Z" fill="#78BF9B"/>
<path d="M43.1326 48.8077C41.7542 48.6088 40.7987 47.3319 40.998 45.9562C41.1973 44.5805 42.4767 43.6268 43.8551 43.8257C46.9266 44.2693 49.3827 43.2844 50.6571 42.2149C51.7232 41.3206 53.3134 41.4576 54.21 42.5215C55.1065 43.585 54.9693 45.1732 53.9032 46.0675C51.1692 48.3626 47.1426 49.3868 43.1326 48.8077Z" fill="#DDAF89"/>
<path d="M54.8955 50.5575C56.2421 50.7005 57.5104 49.8093 57.8298 48.496C58.1517 47.1727 57.4554 45.8706 56.2784 45.355C55.9151 45.1958 55.7174 44.8001 55.7865 44.4108L56.7945 38.7037C56.8631 38.3165 57.181 38.0194 57.573 37.9856C58.8081 37.8794 59.8898 36.8708 60.1128 35.6069C60.3746 34.1255 59.3837 32.7125 57.8989 32.4512C57.3682 32.3581 56.846 32.425 56.3823 32.6169C56.177 32.702 55.9439 32.6612 55.7799 32.5106C55.4101 32.1722 54.9424 31.9311 54.4116 31.8374C52.9273 31.5761 51.5116 32.5655 51.2498 34.0469C51.0268 35.3113 51.6973 36.6281 52.8214 37.1492C53.1781 37.3149 53.3753 37.7026 53.3067 38.0899L52.2987 43.797C52.2296 44.1862 51.9082 44.4909 51.5126 44.5161C50.2301 44.5991 49.1293 45.5851 48.9779 46.9386C48.8281 48.2815 49.715 49.5525 51.0293 49.8773C51.6236 50.0243 52.2139 49.9664 52.7321 49.7524C52.9389 49.6668 53.173 49.7081 53.338 49.8591C53.7512 50.2368 54.286 50.4931 54.8955 50.5575Z" fill="#F3E5B7"/>
<path d="M41.2129 53.8618C40.9581 52.4952 39.6413 51.5933 38.2725 51.8476C36.9028 52.1019 35.9997 53.4161 36.2544 54.7827C36.4749 55.9666 36.6066 57.0764 36.654 58.2572C38.4486 57.8523 40.1065 57.1292 41.552 56.1564C41.4702 55.3971 41.3582 54.6402 41.2129 53.8618Z" fill="#D1A582"/>
<path d="M28.3707 51.8476C27.002 51.5933 25.6852 52.4952 25.4299 53.8618C25.2851 54.6402 25.1731 55.3971 25.0908 56.1564C26.5368 57.1292 28.1947 57.8528 29.9888 58.2572C30.0367 57.0769 30.1679 55.9671 30.3888 54.7827C30.6431 53.4161 29.74 52.1019 28.3707 51.8476Z" fill="#D1A582"/>
<path d="M46.9251 43.8081C46.0003 43.9587 44.9681 43.9864 43.8546 43.8257C42.4757 43.6263 41.1968 44.5805 40.9975 45.9562C40.7982 47.3319 41.7538 48.6084 43.1321 48.8078C44.3415 48.982 45.5513 49.0097 46.7279 48.9019C46.9832 47.9452 47.1199 46.9457 47.1199 45.9179C47.1199 45.1994 47.0528 44.4944 46.9251 43.8081Z" fill="#D1A582"/>
<path d="M22.1535 43.5956C21.2626 43.938 20.4281 44.1419 19.6496 44.2149C19.5668 44.7719 19.5229 45.3404 19.5229 45.9179C19.5229 47.0645 19.6925 48.1753 20.0083 49.2312C20.3529 49.2025 20.7005 49.1597 21.0517 49.1008C22.0022 48.9422 22.9764 48.6733 23.9643 48.2941C25.2644 47.7951 25.9128 46.3389 25.4128 45.0413C24.9128 43.7436 23.4532 43.0966 22.1535 43.5956Z" fill="#D1A582"/>
<path d="M45.6159 45.9179C45.6159 39.7898 40.1115 34.8219 33.3221 34.8219C26.5322 34.8219 21.0278 39.7898 21.0278 45.9179C21.0278 52.0465 26.5322 57.0145 33.3221 57.0145C40.1115 57.0145 45.6159 52.0465 45.6159 45.9179Z" fill="#DDAF89"/>
<path d="M44.4255 38.7933C41.4124 41.2889 37.5427 42.7894 33.3219 42.7894C29.101 42.7894 25.2313 41.2889 22.2183 38.7933C21.5775 39.6217 21.0432 40.523 20.6386 41.4827C20.0871 42.7904 20.5957 44.3056 21.8217 45.0236C25.196 47.0011 29.1262 48.135 33.3219 48.135C37.518 48.135 41.4477 47.0011 44.8225 45.0236C46.048 44.3056 46.5571 42.7904 46.0051 41.4827C45.6 40.523 45.0657 39.6217 44.4255 38.7933Z" fill="#7F9AE6"/>
<path d="M27.7229 41.87C25.6937 41.1816 23.833 40.1307 22.2185 38.7933C21.5777 39.6217 21.0435 40.523 20.6388 41.4827C20.0869 42.7904 20.5959 44.3056 21.8214 45.0236C23.5762 46.0519 25.4823 46.8495 27.4963 47.3807C26.7572 45.9003 26.9666 43.6787 27.7229 41.87Z" fill="#5E78BF"/>
<path d="M28.6049 24.3935C28.0934 24.3935 27.5782 24.2379 27.1327 23.9152L24.0466 21.6779C22.6954 20.6985 20.8726 20.7796 19.6143 21.8763L17.5937 23.6367C16.5503 24.5461 14.9661 24.4388 14.0549 23.3975C13.1438 22.3562 13.2512 20.7746 14.2946 19.8657L16.3157 18.1048C17.7728 16.8354 19.639 16.0881 21.5719 16.002C23.5042 15.9159 25.43 16.493 26.995 17.6274L30.0812 19.8647C31.2017 20.6774 31.4505 22.2429 30.6362 23.3613C30.1453 24.0355 29.3804 24.3935 28.6049 24.3935Z" fill="#495059"/>
<path d="M38.038 24.3936C37.2625 24.3936 36.4977 24.0355 36.0068 23.3613C35.193 22.2429 35.4412 20.6774 36.5622 19.8647L39.6484 17.6275C41.2129 16.493 43.1397 15.9164 45.0716 16.002C47.0039 16.0881 48.8706 16.8349 50.3277 18.1048L52.3483 19.8657C53.3917 20.7746 53.4992 22.3562 52.588 23.3975C51.6768 24.4389 50.0926 24.5461 49.0492 23.6367L47.0286 21.8758C45.7703 20.7796 43.9475 20.6981 42.5964 21.678L39.5102 23.9152C39.0652 24.238 38.5491 24.3936 38.038 24.3936Z" fill="#495059"/>
<path d="M33.3217 44.22C46.0539 44.22 51.7924 38.3985 50.0013 30.2014C48.0771 21.3929 42.0152 16.5715 33.3217 16.5715C24.6277 16.5715 18.5664 21.3929 16.6416 30.2014C14.851 38.3985 20.589 44.22 33.3217 44.22Z" fill="#DDAF89"/>
<path d="M36.7558 48.5676C36.7558 50.4604 35.2185 51.9947 33.322 51.9947C31.425 51.9947 29.8877 50.4604 29.8877 48.5676C29.8877 46.6742 31.425 45.14 33.322 45.14C35.2185 45.14 36.7558 46.6742 36.7558 48.5676Z" fill="#F6E06A"/>
<path d="M26.6453 31.575C26.6453 29.9521 24.9899 28.6364 22.9481 28.6364C20.9068 28.6364 19.2515 29.9521 19.2515 31.575C19.2515 33.1974 20.9068 34.5132 22.9481 34.5132C24.9899 34.5132 26.6453 33.1974 26.6453 31.575Z" fill="#FFDBDB"/>
<path d="M47.3914 31.575C47.3914 29.9521 45.7365 28.6364 43.6947 28.6364C41.6529 28.6364 39.9976 29.9521 39.9976 31.575C39.9976 33.1974 41.6529 34.5132 43.6947 34.5132C45.7365 34.5132 47.3914 33.1974 47.3914 31.575Z" fill="#FFDBDB"/>
<path d="M35.2604 29.1465C33.9895 28.8141 32.654 28.8141 31.3831 29.1465C30.8569 29.2839 30.3983 29.6072 30.092 30.0559C29.6788 30.6626 29.9164 31.4945 30.588 31.7926L32.4502 32.6194C33.0051 32.8651 33.6383 32.8651 34.1933 32.6194L36.056 31.7926C36.7275 31.4945 36.9647 30.6626 36.5514 30.0559C36.2457 29.6072 35.7871 29.2839 35.2604 29.1465Z" fill="#495059"/>
<path d="M51.9709 6.72328C51.9709 3.47292 48.8515 0.837891 45.0029 0.837891C43.1882 0.837891 41.5358 1.42452 40.2967 2.38477C39.6313 2.89989 38.6928 2.89989 38.0279 2.38477C36.7883 1.42452 35.1364 0.837891 33.3217 0.837891C31.5069 0.837891 29.8546 1.42452 28.6149 2.38477C27.95 2.89989 27.0116 2.89989 26.3466 2.38477C25.107 1.42452 23.4552 0.837891 21.6404 0.837891C17.7919 0.837891 14.6719 3.47292 14.6719 6.72328C14.6719 9.11661 16.3641 11.1756 18.7928 12.0946C19.7242 12.447 20.3357 13.3433 20.3357 14.3373V20.4503C20.3357 21.4554 21.152 22.2706 22.159 22.2706H44.4838C45.4908 22.2706 46.3071 21.4554 46.3071 20.4503V14.3373C46.3071 13.3433 46.9186 12.4475 47.85 12.0946C50.2788 11.1756 51.9709 9.11661 51.9709 6.72328Z" fill="#DFE3E5"/>
<path d="M30.9918 1.17627C30.1028 1.44315 29.2966 1.85706 28.6149 2.38477C27.95 2.89989 27.0116 2.89989 26.3466 2.38477C25.107 1.42452 23.4552 0.837891 21.6404 0.837891C17.7919 0.837891 14.6719 3.47292 14.6719 6.72328C14.6719 9.11661 16.3641 11.1756 18.7928 12.0951C19.7242 12.4475 20.3357 13.3433 20.3357 14.3373V20.4508C20.3357 21.4559 21.152 22.2706 22.159 22.2706H38.9259C31.63 18.4789 29.6371 6.14118 30.9918 1.17627Z" fill="#CACDCF"/>
<path d="M44.484 22.2706H22.1593C21.1523 22.2706 20.3359 21.4559 20.3359 20.4508V17.9613H46.3074V20.4508C46.3074 21.4559 45.4911 22.2706 44.484 22.2706Z" fill="#7F9AE6"/>
<path d="M20.3359 20.4508C20.3359 21.4559 21.1523 22.2706 22.1593 22.2706H38.9262C37.0635 21.3028 35.5459 19.7786 34.3426 17.9613H20.3359V20.4508Z" fill="#5E78BF"/>
<path d="M58.0675 31.499C57.455 31.3913 56.8299 31.4391 56.2451 31.636C55.7633 31.2513 55.1922 30.993 54.5797 30.8852C53.6065 30.7145 52.6257 30.9315 51.8169 31.497C51.608 31.6425 51.4178 31.8072 51.2468 31.9874C51.1953 31.3379 51.0965 30.6737 50.9481 29.9959C50.5389 28.1238 49.9456 26.4122 49.1762 24.8699C49.6565 25.103 50.1772 25.2199 50.6969 25.2199C51.6666 25.2199 52.6317 24.818 53.3184 24.0335C54.5792 22.5924 54.4299 20.3959 52.9859 19.1376L50.9653 17.3767C49.9012 16.4497 48.6384 15.7719 47.2762 15.3882V14.3378C47.2762 13.7447 47.645 13.2069 48.1934 12.9989C50.8835 11.9813 52.6933 9.77927 52.9168 7.25301C52.9637 6.72127 52.5697 6.25197 52.0369 6.20514C51.5041 6.1578 51.0339 6.55107 50.987 7.08281C50.8291 8.86383 49.4956 10.4384 47.5068 11.1912C46.2101 11.6816 45.3388 12.9465 45.3388 14.3378V16.1591V16.1637V16.9945H40.0801V12.3096C40.0801 11.7753 39.6462 11.3428 39.1114 11.3428C38.5761 11.3428 38.1428 11.7753 38.1428 12.3096V16.9945H28.5013V12.3096C28.5013 11.7753 28.0674 11.3428 27.5326 11.3428C26.9973 11.3428 26.5639 11.7753 26.5639 12.3096V16.9945H21.3047V16.1637C21.3047 16.1617 21.3047 16.1601 21.3047 16.1586V14.3373C21.3047 12.946 20.4334 11.6816 19.1368 11.1907C17.0132 10.387 15.6409 8.63321 15.6409 6.72328C15.6409 4.01121 18.3326 1.80469 21.6407 1.80469C23.174 1.80469 24.6346 2.28205 25.7531 3.14864C26.7708 3.93668 28.192 3.93668 29.2096 3.14864C30.3282 2.28205 31.7883 1.80469 33.322 1.80469C34.8553 1.80469 36.3159 2.28205 37.4339 3.14864C38.4515 3.93668 39.8733 3.93668 40.8909 3.14864C42.0094 2.28205 43.4695 1.80469 45.0033 1.80469C46.8695 1.80469 48.599 2.5021 49.7479 3.71865C50.1151 4.10688 50.7281 4.12501 51.1176 3.75843C51.5066 3.39236 51.5248 2.78055 51.158 2.39182C49.6439 0.790056 47.4008 -0.128906 45.0033 -0.128906C43.0417 -0.128906 41.1593 0.492463 39.7028 1.6209C39.3894 1.86361 38.9354 1.86361 38.6221 1.6209C37.1655 0.492463 35.2831 -0.128906 33.322 -0.128906C31.3604 -0.128906 29.478 0.492463 28.0215 1.6209C27.7036 1.86763 27.2591 1.86763 26.9408 1.6209C25.4847 0.492463 23.6023 -0.128906 21.6407 -0.128906C17.264 -0.128906 13.7035 2.94521 13.7035 6.72328C13.7035 9.44442 15.5668 11.9077 18.4501 12.9989C18.9985 13.2064 19.3674 13.7447 19.3674 14.3373V15.3882C18.0051 15.7714 16.7423 16.4497 15.6788 17.3767L13.6581 19.1371C12.529 20.121 12.1915 21.6779 12.7006 22.9992C11.7379 22.4035 10.7052 22.1115 9.67138 22.2933C6.07967 22.9257 4.45711 28.9163 5.11653 32.6466C5.53276 35.0042 6.9081 36.8683 8.88937 37.761C8.9378 37.7827 8.97463 37.8421 8.98069 37.9086L9.83233 46.8535C9.91658 47.7367 10.3707 48.5509 11.0775 49.0882C11.6365 49.5132 12.3211 49.7393 13.0159 49.7393C13.1995 49.7393 13.3842 49.7237 13.5673 49.6914L14.8579 49.4643C16.1601 49.9805 17.548 50.2428 19.0081 50.2428C19.6206 50.2428 20.2462 50.194 20.8829 50.1028C21.1478 50.7519 21.4722 51.3748 21.8506 51.9659C20.5903 52.8713 19.6993 52.7228 18.5611 52.3934C16.9789 51.9372 15.32 52.8497 14.8624 54.4272C14.6405 55.1921 14.7303 55.9973 15.1152 56.6947C15.4997 57.3921 16.1338 57.8977 16.8997 58.1192C18.0213 58.4435 19.0495 58.6006 20.0444 58.6006C21.4359 58.6006 22.7441 58.2824 24.0024 57.6353C23.9611 58.4113 23.9474 59.2003 23.9641 60.0211C23.9747 60.5483 24.406 60.9682 24.9323 60.9682H24.9519C25.4867 60.9577 25.9116 60.5161 25.901 59.9823C25.8727 58.5769 25.9302 57.3075 26.0816 56.0194C27.0059 56.5698 28.0094 57.018 29.0734 57.3463C28.9614 58.8171 28.9796 60.3715 29.1274 62.2669C29.1592 62.6798 29.0285 63.0806 28.7591 63.3948C28.4892 63.7095 28.1128 63.9009 27.6986 63.9326C27.2112 63.9709 26.7405 63.7785 26.4181 63.4175C26.0619 63.0187 25.4499 62.9834 25.0503 63.3389C24.6507 63.6939 24.6154 64.3052 24.9716 64.704C25.6341 65.4457 26.5836 65.8712 27.576 65.8712C27.6673 65.8712 27.7596 65.8677 27.8494 65.8606C28.7793 65.7881 29.6249 65.3591 30.2308 64.6522C30.8372 63.9452 31.1314 63.0448 31.0587 62.1168C30.927 60.4295 30.9018 59.0769 30.9835 57.7934C31.7424 57.9168 32.5244 57.9812 33.322 57.9812C34.1197 57.9812 34.9007 57.9168 35.66 57.7934C35.7417 59.0769 35.7165 60.4295 35.5848 62.1168C35.5127 63.0448 35.8068 63.9452 36.4127 64.6522C37.0187 65.3591 37.8648 65.7881 38.7936 65.8601C38.8839 65.8677 38.9762 65.8712 39.0681 65.8712C40.8773 65.8712 42.405 64.4593 42.5452 62.6576C42.7819 59.6248 42.7228 57.2224 42.346 54.7495C43.9019 53.4333 45.1103 51.7826 45.8317 49.9241C46.8463 49.8939 47.8448 49.7675 48.815 49.5499C49.3059 50.1587 49.9905 50.6159 50.7963 50.8153C51.4905 50.9871 52.2034 50.9578 52.8714 50.7323C53.4218 51.1729 54.0812 51.4433 54.7931 51.5188C54.9238 51.5329 55.0534 51.5394 55.1826 51.5394C56.8632 51.5394 58.3677 50.3843 58.7713 48.7236C59.1885 47.0091 58.3414 45.2517 56.7527 44.508L57.7365 38.9408C59.3787 38.7616 60.7722 37.4423 61.0669 35.7746C61.4211 33.7705 60.0755 31.8525 58.0675 31.499ZM52.3406 37.9912L51.8648 40.6846C51.1963 40.7637 50.5586 41.0346 50.0334 41.4752C49.316 42.0774 48.3039 42.5311 47.1879 42.7723C47.2091 42.375 47.1682 41.9712 47.0597 41.5759C47.8039 41.0094 48.4593 40.3785 49.0198 39.6841C49.7993 38.7183 50.38 37.6447 50.7589 36.4826C51.1252 37.1241 51.6676 37.6598 52.3406 37.9912ZM47.2762 20.4508V17.417C48.1616 17.7367 48.9825 18.2156 49.6908 18.8329L51.7115 20.5938C52.3512 21.1507 52.4173 22.1236 51.8588 22.7616C51.3008 23.3996 50.326 23.4655 49.6868 22.9086L47.6662 21.1477C47.5345 21.0329 47.3942 20.9287 47.2499 20.83C47.2666 20.7061 47.2762 20.5792 47.2762 20.4508ZM21.3047 18.9281H45.3388V20.4508C45.3388 20.6568 45.2651 20.8466 45.1425 20.9941C45.135 21.0022 45.1274 21.0097 45.1203 21.0183C44.9639 21.193 44.7369 21.3038 44.4841 21.3038H22.1594C21.9066 21.3038 21.6796 21.1925 21.5232 21.0178C21.5161 21.0097 21.5091 21.0022 21.5015 20.9941C21.3789 20.8466 21.3047 20.6568 21.3047 20.4508V18.9281ZM14.9321 20.5938L16.9527 18.8329C17.6616 18.2156 18.4819 17.7367 19.3674 17.417V20.4508C19.3674 20.5792 19.3769 20.7061 19.3941 20.8305C19.2498 20.9292 19.1095 21.0334 18.9779 21.1482L16.9572 22.9086C16.3175 23.466 15.3433 23.4001 14.7853 22.7616C14.2267 22.1236 14.2928 21.1507 14.9321 20.5938ZM17.4673 24.8694C17.0733 25.6589 16.7252 26.4923 16.425 27.3695C16.0183 26.5643 15.5219 25.7803 14.9603 25.0768C15.2817 25.171 15.6137 25.2199 15.9467 25.2199C16.4663 25.2199 16.987 25.103 17.4673 24.8694ZM15.9023 46.9074C15.7106 47.2055 15.4124 47.4034 15.0632 47.4648L14.7802 47.5146C14.7797 47.5146 14.7792 47.5146 14.7792 47.5146L13.2308 47.7871C12.8817 47.8485 12.5336 47.7644 12.251 47.5499C11.9685 47.3354 11.7949 47.0227 11.7611 46.6707L10.9095 37.7253C10.8368 36.9675 10.3686 36.3058 9.68652 35.9987C8.29806 35.3728 7.32786 34.0288 7.02414 32.3107C6.48026 29.2331 7.88284 24.5718 10.0079 24.1977C12.1027 23.8276 14.9649 27.6162 15.5642 30.6651C15.3882 31.6803 15.3241 32.6627 15.369 33.6063C15.1404 34.2136 14.8004 34.7418 14.3539 35.1774C13.8181 35.6985 13.6047 36.4805 13.7964 37.2177L16.0612 45.9139C16.1505 46.2568 16.094 46.6093 15.9023 46.9074ZM15.6717 36.7313C15.6545 36.6663 15.6687 36.5979 15.7065 36.5611C15.759 36.5102 15.8089 36.4559 15.8599 36.4025C16.2378 37.5954 16.8271 38.6966 17.6242 39.6841C18.1847 40.379 18.8401 41.0094 19.5843 41.5759C19.4314 42.1333 19.4123 42.7073 19.5132 43.2567C18.6807 43.3272 17.935 43.2169 17.2852 42.9274L15.6717 36.7313ZM17.376 48.1723C17.431 48.1013 17.4835 48.0282 17.5324 47.9522C18.0127 47.206 18.16 46.2855 17.9365 45.4275L17.8538 45.1102C18.2307 45.1782 18.6207 45.2135 19.0243 45.2135C19.3689 45.2135 19.7235 45.1878 20.0873 45.1379C20.0686 45.3983 20.0591 45.6586 20.0591 45.9179C20.0591 46.7085 20.1443 47.4814 20.3048 48.2297C19.2861 48.349 18.3078 48.3304 17.376 48.1723ZM21.8501 43.805C21.7729 43.7169 21.7053 43.6228 21.6468 43.5231C21.6453 43.5205 21.6438 43.518 21.6423 43.5155C21.5035 43.2763 21.4188 43.0095 21.395 42.734C23.8324 44.0412 26.9393 44.8398 30.6274 45.0961C30.0537 45.5403 29.5931 46.1228 29.2954 46.7931C26.8273 46.3338 24.4812 45.4607 22.3118 44.1903C22.1357 44.087 21.9833 43.9571 21.8547 43.8101C21.8531 43.8086 21.8516 43.8066 21.8501 43.805ZM24.2315 55.2238C22.8829 56.2068 21.5434 56.6675 20.0444 56.6675C19.2347 56.6675 18.3825 56.5346 17.4386 56.2622C17.1696 56.1841 16.9471 56.0064 16.8119 55.7616C16.6767 55.5169 16.6454 55.2339 16.7231 54.9655C16.8836 54.4111 17.4663 54.0904 18.0223 54.251C19.4713 54.67 21.0449 54.9378 23.0196 53.5058C23.4136 53.9474 23.8415 54.3633 24.2991 54.7505C24.2749 54.9081 24.2527 55.0662 24.2315 55.2238ZM40.6134 62.5076C40.5509 63.3097 39.8723 63.9376 39.0676 63.9376C39.0272 63.9376 38.9863 63.9361 38.9445 63.9326C38.5307 63.9009 38.1544 63.7095 37.8849 63.3948C37.615 63.0806 37.4844 62.6798 37.5166 62.2669C37.6645 60.3715 37.6821 58.8166 37.5701 57.3463C38.6347 57.018 39.6387 56.5693 40.563 56.0194C40.7981 58.015 40.8092 59.9989 40.6134 62.5076ZM33.322 56.0476C27.1956 56.0476 22.1907 51.6744 22.0025 46.2346C24.1714 47.4129 26.4918 48.2367 28.9221 48.6909C28.9881 51.0565 30.9356 52.9614 33.322 52.9614C35.7079 52.9614 37.6559 51.0565 37.7215 48.6909C40.1518 48.2367 42.4726 47.4129 44.641 46.2346C44.4534 51.6744 39.448 56.0476 33.322 56.0476ZM30.8564 48.5675C30.8564 47.2105 31.9623 46.1067 33.322 46.1067C34.6812 46.1067 35.7871 47.2105 35.7871 48.5675C35.7871 49.9241 34.6812 51.0278 33.322 51.0278C31.9623 51.0278 30.8564 49.9241 30.8564 48.5675ZM44.7949 43.8035C44.7924 43.8066 44.7894 43.8101 44.7869 43.8131C44.6582 43.9586 44.5068 44.0875 44.3318 44.1898C42.1628 45.4607 39.8168 46.3338 37.3486 46.7931C37.051 46.1228 36.5898 45.5403 36.0167 45.0956C39.7043 44.8393 42.8116 44.0412 45.2485 42.734C45.2147 43.1268 45.0568 43.5024 44.7949 43.8035ZM45.4241 40.3734C45.3721 40.4021 45.3237 40.4348 45.2788 40.4711C42.5145 42.299 38.4525 43.2532 33.322 43.2532C28.1915 43.2532 24.1301 42.299 21.3658 40.4716C21.3209 40.4348 21.2719 40.4021 21.2195 40.3734C20.4052 39.8165 19.7069 39.1825 19.1327 38.471C18.0515 37.1316 17.4441 35.5671 17.3129 33.7967C17.3154 33.7383 17.3124 33.6798 17.3049 33.6229C17.2478 32.6154 17.3402 31.5433 17.5884 30.4078C18.2327 27.4586 19.3648 24.96 20.9556 22.9645C21.3204 23.1392 21.7285 23.2374 22.1594 23.2374H44.4841C44.915 23.2374 45.3232 23.1397 45.6879 22.9645C47.2787 24.96 48.4109 27.4586 49.0551 30.4078C49.7569 33.6189 49.2373 36.332 47.5108 38.471C46.9366 39.1825 46.2384 39.8165 45.4241 40.3734ZM48.0153 46.8313C47.981 47.1395 47.9876 47.4446 48.0289 47.7412C47.4926 47.8465 46.9467 47.918 46.3938 47.9588C46.5184 47.2951 46.5845 46.6133 46.5845 45.9179C46.5845 45.5584 46.5653 45.1958 46.53 44.8353C48.3715 44.6344 50.0783 43.9642 51.2806 42.9551C51.3462 42.9002 51.4168 42.8529 51.4895 42.8101L51.3573 43.5588C49.6096 43.7149 48.2116 45.0775 48.0153 46.8313ZM59.1593 35.4387C59.012 36.2721 58.294 36.9529 57.4898 37.0224C56.6639 37.0934 55.9853 37.7157 55.8405 38.5355L54.8325 44.2431C54.6841 45.0815 55.1185 45.9028 55.8889 46.2402C56.671 46.5826 57.0912 47.4351 56.8889 48.2679C56.6851 49.1038 55.8561 49.6874 54.9979 49.5963C54.618 49.556 54.2704 49.4004 53.9924 49.1461C53.7038 48.8817 53.3285 48.7428 52.9491 48.7428C52.7503 48.7428 52.5505 48.781 52.3613 48.8591C52.0132 49.0031 51.6328 49.0308 51.2624 48.9386C50.4259 48.7317 49.8452 47.9003 49.9411 47.0453C50.0359 46.1938 50.7236 45.5357 51.5752 45.4808C52.4148 45.427 53.1045 44.8031 53.2523 43.9647L54.2608 38.2575C54.4056 37.4378 53.9818 36.6215 53.2296 36.2726C52.4975 35.9327 52.0566 35.048 52.2039 34.2146C52.2856 33.7524 52.5429 33.3495 52.9279 33.0806C53.3133 32.8112 53.78 32.7075 54.2437 32.7896C54.5741 32.8475 54.8789 32.9975 55.1251 33.2231C55.5645 33.625 56.2038 33.7378 56.7542 33.5096C57.0625 33.3817 57.4005 33.345 57.731 33.4034C58.1941 33.4845 58.5977 33.7413 58.8677 34.1255C59.1371 34.5102 59.2405 34.9765 59.1593 35.4387ZM25.1033 26.374C24.568 26.374 24.1346 26.807 24.1346 27.3408V28.6439C24.1346 29.1777 24.568 29.6107 25.1033 29.6107C25.6381 29.6107 26.072 29.1777 26.072 28.6439V27.3408C26.072 26.807 25.6381 26.374 25.1033 26.374ZM41.5407 26.374C41.0054 26.374 40.572 26.807 40.572 27.3408V28.6439C40.572 29.1777 41.0054 29.6107 41.5407 29.6107C42.0755 29.6107 42.5094 29.1777 42.5094 28.6439V27.3408C42.5094 26.807 42.0755 26.374 41.5407 26.374ZM38.0943 34.5233C37.6912 34.1723 37.0792 34.2141 36.7276 34.6164C36.0843 35.3531 35.2276 35.8546 34.2907 36.0606V33.6159C34.3906 33.5832 34.4895 33.5459 34.5869 33.5026L36.4496 32.6758C37.0328 32.417 37.4672 31.9175 37.6423 31.3051C37.8168 30.6923 37.7114 30.0392 37.3527 29.5125C36.9147 28.87 36.2589 28.4078 35.5061 28.2109C34.0768 27.8378 32.5667 27.8378 31.1374 28.2109C30.3847 28.4078 29.7288 28.87 29.2909 29.5125C28.9321 30.0392 28.8267 30.6923 29.0018 31.3046C29.1763 31.9175 29.6112 32.417 30.194 32.6758L32.0567 33.5026C32.154 33.5459 32.2529 33.5832 32.3533 33.6159V36.0606C31.4159 35.8546 30.5592 35.3531 29.916 34.6169C29.5643 34.2141 28.9528 34.1723 28.5492 34.5233C28.1461 34.8737 28.1042 35.4845 28.4554 35.8874C29.6834 37.2933 31.4568 38.0994 33.322 38.0994C35.1867 38.0994 36.9607 37.2933 38.1882 35.8874C38.5398 35.4845 38.4979 34.8737 38.0943 34.5233ZM32.8442 31.7357L30.9815 30.9094C30.9074 30.8761 30.8771 30.8182 30.865 30.7749C30.8524 30.7321 30.8473 30.6667 30.8932 30.5997C31.0678 30.3439 31.3286 30.1596 31.6283 30.0815C32.1823 29.9365 32.7519 29.8645 33.322 29.8645C33.8916 29.8645 34.4612 29.9365 35.0152 30.0815C35.3149 30.1601 35.5762 30.3439 35.7503 30.5997C35.7962 30.6667 35.7912 30.7321 35.7791 30.7749C35.7664 30.8177 35.7367 30.8761 35.662 30.9089L33.7998 31.7357C33.4961 31.8706 33.148 31.8706 32.8442 31.7357Z" fill="black"/>
</g>
<defs>
<clipPath id="clip0_1591_25821">
<rect width="66" height="66" fill="white"/>
</clipPath>
</defs>
</svg>
