<svg width="375" height="152" viewBox="0 0 375 152" fill="none" xmlns="http://www.w3.org/2000/svg">
<path d="M154.783 36.1135C154.544 35.7394 154.195 35.4487 153.783 35.2813C153.394 35.0998 152.957 35.0439 152.534 35.1215C152.315 35.1735 152.109 35.2686 151.927 35.4012C151.745 35.5338 151.591 35.7013 151.475 35.8938C151.335 36.126 151.254 36.3888 151.238 36.6595C151.04 36.5175 150.812 36.4209 150.572 36.3765C150.348 36.3376 150.118 36.3444 149.897 36.3964C149.675 36.4485 149.466 36.5448 149.283 36.6795C148.945 36.9466 148.698 37.3118 148.577 37.7248C148.439 38.141 148.432 38.5894 148.557 39.0097C148.727 39.5442 149.063 40.0106 149.516 40.3413C150.013 40.6557 150.579 40.8463 151.165 40.8973C152.128 41.0104 153.38 41.1303 153.38 41.1303C153.38 41.1303 153.937 40.1316 154.486 39.3227C154.835 38.848 155.063 38.2964 155.153 37.7148C155.205 37.1552 155.075 36.5936 154.783 36.1135Z" fill="#E0E0E0"/>
<path d="M226.046 67.5981C225.964 67.1668 225.75 66.7715 225.434 66.4663C225.137 66.1537 224.751 65.9418 224.328 65.8604C223.967 65.8017 223.598 65.8627 223.276 66.0341C222.954 66.2055 222.697 66.4778 222.545 66.8092C222.412 66.6038 222.234 66.4309 222.026 66.3032C221.832 66.1844 221.615 66.1066 221.39 66.0746C221.165 66.0425 220.936 66.0569 220.716 66.1168C220.304 66.2392 219.94 66.4884 219.677 66.8291C219.396 67.167 219.226 67.5832 219.191 68.0209C219.152 68.579 219.295 69.1346 219.597 69.6055C219.946 70.0795 220.403 70.464 220.93 70.7274C221.782 71.1834 222.908 71.7494 222.908 71.7494C222.908 71.7494 223.794 71.0137 224.597 70.471C225.095 70.1551 225.509 69.7248 225.807 69.216C226.058 68.7163 226.142 68.1492 226.046 67.5981Z" fill="#E0E0E0"/>
<path d="M191.079 29.44C191.083 28.8755 190.916 28.323 190.599 27.8554C190.306 27.3909 189.877 27.0281 189.37 26.8168C188.931 26.6496 188.45 26.6314 188 26.765C187.55 26.8986 187.157 27.1765 186.881 27.5558C186.765 27.2626 186.585 26.9988 186.355 26.7835C186.14 26.5858 185.887 26.4335 185.612 26.3357C185.336 26.2378 185.044 26.1966 184.753 26.2143C184.202 26.2652 183.681 26.4876 183.263 26.8501C182.824 27.2037 182.503 27.6835 182.344 28.225C182.155 28.9188 182.193 29.6552 182.454 30.3255C182.771 31.0111 183.248 31.6113 183.843 32.0766C184.806 32.8689 186.075 33.8709 186.075 33.8709C186.075 33.8709 187.381 33.1685 188.534 32.6891C189.238 32.4163 189.868 31.9791 190.369 31.4141C190.812 30.8497 191.061 30.1573 191.079 29.44Z" fill="#E0E0E0"/>
<path d="M244.435 43.8294C244.38 42.6349 243.96 41.4858 243.232 40.537C242.553 39.5826 241.592 38.8644 240.484 38.483C239.893 38.2993 239.27 38.2373 238.654 38.3008C238.038 38.3643 237.441 38.552 236.899 38.8526C236.253 39.213 235.705 39.7262 235.304 40.3473C234.903 39.4757 234.235 38.7543 233.396 38.2875C232.558 37.8207 231.593 37.6326 230.64 37.7507C229.481 37.9249 228.405 38.4582 227.565 39.2753C226.676 40.0741 226.055 41.1272 225.786 42.2914C225.464 43.7872 225.633 45.347 226.269 46.7389C226.952 48.1504 228.158 49.3521 229.421 50.2809C231.549 51.8422 234.361 53.8096 234.361 53.8096C234.361 53.8096 237.026 52.1651 239.415 51.0166C240.827 50.3308 242.23 49.3521 243.156 48.1038C244.031 46.8533 244.479 45.3545 244.435 43.8294Z" fill="#F5F5F5"/>
<path d="M147.793 12.85C147.267 11.7775 146.424 10.8921 145.378 10.3133C144.378 9.70854 143.213 9.43152 142.047 9.52105C141.055 9.62013 140.124 10.0435 139.398 10.7254C138.671 11.4074 138.19 12.3098 138.029 13.2928C137.314 12.6571 136.414 12.2651 135.461 12.1736C134.508 12.082 133.55 12.2956 132.726 12.7834C131.732 13.4031 130.958 14.3197 130.514 15.4033C130.017 16.4914 129.867 17.7059 130.084 18.8821C130.385 20.3753 131.159 21.7319 132.293 22.7503C133.482 23.7757 135.065 24.3949 136.597 24.7477C139.172 25.3303 142.533 26.0194 142.533 26.0194C142.533 26.0194 144.332 23.4361 146.055 21.4387C147.077 20.247 147.977 18.8089 148.323 17.2775C148.627 15.7832 148.442 14.2306 147.793 12.85Z" fill="#E09C41"/>
<path d="M213.904 7.35713C213.819 6.27854 213.404 5.25225 212.715 4.41766C212.074 3.57304 211.184 2.95115 210.17 2.63999C209.303 2.39573 208.38 2.44371 207.544 2.7765C206.707 3.10929 206.004 3.70834 205.543 4.48091C205.27 3.9399 204.881 3.46585 204.403 3.09273C203.957 2.75362 203.448 2.5078 202.904 2.36996C202.361 2.23211 201.796 2.20507 201.242 2.29045C200.199 2.48312 199.242 2.99771 198.507 3.76185C197.726 4.51194 197.195 5.48335 196.985 6.54486C196.74 7.90302 196.939 9.30386 197.554 10.5396C198.277 11.7984 199.292 12.8657 200.512 13.6522C202.485 14.9838 205.086 16.6982 205.086 16.6982C205.086 16.6982 207.461 15.1303 209.577 14.035C210.879 13.395 212.01 12.4535 212.875 11.2886C213.634 10.1235 213.995 8.7443 213.904 7.35713Z" fill="#F5F5F5"/>
<path d="M139.832 79.0498C139.792 78.5454 139.597 78.0655 139.276 77.6749C138.976 77.2802 138.56 76.9892 138.086 76.8427C137.682 76.7282 137.252 76.75 136.862 76.9047C136.472 77.0593 136.143 77.3382 135.928 77.6982C135.746 77.3378 135.455 77.0441 135.096 76.8593C134.736 76.6745 134.328 76.6081 133.929 76.6696C133.436 76.759 132.985 77.0027 132.64 77.3653C132.275 77.7151 132.028 78.1683 131.93 78.6636C131.816 79.2975 131.91 79.9512 132.197 80.5278C132.533 81.116 133.006 81.6148 133.576 81.9826C134.499 82.6118 135.714 83.4041 135.714 83.4041C135.714 83.4041 136.82 82.6717 137.81 82.1524C138.418 81.8535 138.947 81.4142 139.352 80.8707C139.702 80.3302 139.87 79.6923 139.832 79.0498Z" fill="#E09C41"/>
<path d="M174.309 17.3362C174.328 16.737 174.161 16.1464 173.832 15.6451C173.531 15.1426 173.078 14.7478 172.54 14.5166C172.251 14.4027 171.942 14.3483 171.632 14.3569C171.322 14.3655 171.016 14.4368 170.734 14.5665C170.396 14.7212 170.101 14.9567 169.875 15.2523C169.757 14.9382 169.572 14.654 169.332 14.4201C169.107 14.2058 168.841 14.039 168.55 13.9297C168.26 13.8205 167.95 13.771 167.639 13.7842C167.054 13.8293 166.498 14.055 166.047 14.4301C165.574 14.7968 165.225 15.3 165.048 15.8715C164.831 16.6035 164.857 17.3857 165.121 18.1019C165.443 18.8378 165.938 19.4853 166.563 19.9894C167.563 20.8516 168.895 21.9402 168.895 21.9402C168.895 21.9402 170.298 21.2178 171.527 20.7351C172.284 20.4559 172.962 19.9992 173.506 19.4035C173.987 18.8177 174.269 18.0933 174.309 17.3362Z" fill="#F5F5F5"/>
<path d="M133.616 51.5892C133.647 50.6078 133.375 49.6408 132.836 48.8195C132.337 47.9936 131.59 47.3459 130.701 46.9686C129.947 46.6689 129.115 46.6244 128.333 46.8421C127.55 47.0597 126.861 47.5274 126.37 48.1736C126.094 47.4364 125.589 46.8062 124.931 46.3742C124.272 45.9421 123.493 45.7306 122.706 45.7701C121.746 45.8426 120.833 46.2127 120.094 46.8287C119.318 47.4291 118.745 48.2529 118.452 49.189C118.098 50.3908 118.14 51.6747 118.572 52.8508C119.101 54.0559 119.911 55.1173 120.934 55.9468C122.599 57.3583 124.761 59.1426 124.761 59.1426C124.761 59.1426 127.057 57.9608 129.072 57.1652C130.31 56.7167 131.423 55.9782 132.317 55.0113C133.108 54.0406 133.564 52.8401 133.616 51.5892Z" fill="#F5F5F5"/>
<path d="M258.326 62.385C258.345 61.76 258.171 61.1443 257.829 60.6207C257.512 60.0974 257.039 59.6856 256.477 59.4422C255.995 59.247 255.462 59.2165 254.96 59.3556C254.459 59.4947 254.018 59.7955 253.705 60.2112C253.531 59.7409 253.21 59.3388 252.791 59.0633C252.371 58.7878 251.875 58.6535 251.373 58.6799C250.762 58.7211 250.179 58.9541 249.708 59.3457C249.213 59.7285 248.848 60.2537 248.662 60.8503C248.434 61.6149 248.461 62.4326 248.738 63.1806C249.074 63.9481 249.59 64.6239 250.241 65.1514C251.29 66.0502 252.679 67.1854 252.679 67.1854C252.679 67.1854 254.138 66.433 255.424 65.927C256.212 65.6401 256.92 65.1699 257.49 64.5555C257.995 63.9409 258.288 63.1796 258.326 62.385Z" fill="#E09C41"/>
<path d="M236.183 20.9893C236.201 20.4407 236.048 19.9001 235.747 19.4414C235.472 18.9832 235.059 18.6233 234.568 18.4127C234.147 18.2425 233.683 18.2155 233.245 18.3358C232.808 18.4562 232.423 18.7172 232.149 19.0785C232.036 18.7963 231.862 18.5427 231.639 18.3362C231.435 18.1409 231.194 17.9889 230.929 17.8893C230.665 17.7898 230.383 17.7448 230.1 17.7569C229.566 17.7957 229.058 18.0019 228.648 18.3461C228.216 18.6797 227.898 19.1375 227.735 19.6578C227.537 20.324 227.56 21.0366 227.802 21.6884C228.096 22.3581 228.546 22.9481 229.114 23.4095C230.03 24.1918 231.243 25.1872 231.243 25.1872C231.243 25.1872 232.515 24.5214 233.638 24.0886C234.326 23.8386 234.944 23.4277 235.44 22.8902C235.886 22.3531 236.147 21.6864 236.183 20.9893Z" fill="#F5F5F5"/>
<path d="M134.412 131.118C138.077 136.112 144.629 140.562 150.402 142.803C156.175 145.043 160.539 146.132 166.606 147.42C178.698 150 194.409 149.178 207.641 147.004C220.873 144.83 234.271 140.679 243.189 130.692L134.412 131.118Z" fill="#EBEBEB"/>
<path d="M231.866 131.421L231.689 131.571C231.563 131.667 231.386 131.811 231.156 131.994C230.693 132.366 229.987 132.889 229.058 133.535C228.128 134.181 226.956 134.926 225.55 135.715C223.959 136.603 222.322 137.406 220.646 138.122C216.268 139.965 211.695 141.306 207.015 142.117C201.741 143.079 195.845 143.512 189.665 143.552C183.486 143.592 177.586 143.389 172.266 142.703C169.747 142.384 167.25 141.909 164.79 141.281C162.648 140.734 160.548 140.032 158.507 139.181C155.543 137.962 152.756 136.352 150.219 134.394C149.33 133.691 148.67 133.105 148.24 132.696L147.751 132.227C147.641 132.12 147.591 132.06 147.591 132.06L147.764 132.213L148.264 132.669C148.703 133.072 149.366 133.648 150.263 134.334C152.809 136.266 155.597 137.855 158.557 139.061C160.596 139.903 162.692 140.596 164.83 141.135C167.286 141.751 169.777 142.216 172.289 142.526C177.596 143.192 183.489 143.372 189.665 143.362C195.841 143.352 201.721 142.896 206.988 141.944C211.66 141.141 216.227 139.816 220.603 137.992C222.276 137.287 223.912 136.496 225.503 135.622C226.909 134.84 228.078 134.101 229.018 133.472C229.957 132.842 230.667 132.32 231.136 131.954L231.676 131.544C231.799 131.464 231.866 131.421 231.866 131.421Z" fill="white"/>
<path d="M210.796 130.629C210.796 130.629 210.769 130.655 210.706 130.702L210.436 130.898C210.199 131.072 209.836 131.311 209.36 131.608C208.005 132.427 206.577 133.117 205.092 133.668C202.89 134.483 200.609 135.07 198.287 135.419C195.444 135.844 192.573 136.053 189.699 136.045C186.827 136.083 183.955 135.961 181.097 135.679C178.758 135.445 176.455 134.931 174.238 134.148C172.744 133.611 171.323 132.889 170.011 131.997C169.551 131.664 169.211 131.401 168.984 131.211L168.735 130.988L168.651 130.912C168.685 130.929 168.716 130.95 168.745 130.975L169.008 131.185C169.238 131.368 169.584 131.624 170.047 131.94C171.366 132.803 172.784 133.504 174.271 134.028C176.484 134.789 178.778 135.287 181.107 135.512C183.96 135.785 186.826 135.903 189.692 135.865C192.557 135.874 195.418 135.67 198.253 135.256C200.568 134.915 202.843 134.342 205.042 133.545C206.525 133.01 207.955 132.341 209.317 131.548C209.796 131.265 210.166 131.035 210.409 130.882L210.689 130.699L210.796 130.629Z" fill="white"/>
<path d="M260.219 130.855C260.219 130.902 227.905 130.942 188.08 130.942C148.254 130.942 115.934 130.902 115.934 130.855C115.934 130.808 148.227 130.769 188.08 130.769C227.932 130.769 260.219 130.805 260.219 130.855Z" fill="#263238"/>
<path d="M244.238 101.041C243.823 101.083 243.424 101.222 243.073 101.446C242.722 101.671 242.428 101.974 242.216 102.333C244.454 98.8471 245.024 94.13 243.705 90.0586C243.445 89.2697 243.058 88.4308 242.346 88.1212C242.105 88.034 241.842 88.0281 241.598 88.1045C241.354 88.1809 241.141 88.3353 240.993 88.544C241.183 87.3547 241.19 86.1434 241.013 84.952C240.933 84.4194 240.787 83.8435 240.383 83.5272C239.827 83.0878 239.004 83.3774 238.578 83.95C238.151 84.5226 238.015 85.2816 237.912 86.0206C235.703 80.3614 230.583 76.1735 225.036 75.4611C223.933 75.318 222.704 75.338 221.861 76.0936C221.019 76.8493 220.845 78.5671 221.811 79.1896C220.765 78.8068 219.669 78.4572 218.583 78.6004C217.497 78.7435 216.418 79.5058 216.172 80.671C215.838 82.1823 216.991 83.6171 218.17 84.5059C219.779 85.711 221.618 86.48 223.327 87.502C225.036 88.524 226.682 89.9055 227.475 91.853C228.474 94.3364 227.891 97.2459 226.768 99.6261C224.673 104.077 220.735 107.413 216.261 108.521L219.906 116.567C224.516 119.71 237.002 117.15 240.633 112.862C241.206 112.196 241.739 111.347 241.683 110.415C241.626 109.483 240.683 108.591 239.93 109C242.412 107.326 245.317 102.183 244.238 101.041Z" fill="#E09C41"/>
<g opacity="0.6">
<path d="M216.165 80.661C215.832 82.1723 216.984 83.6071 218.163 84.496C219.773 85.701 221.611 86.47 223.32 87.492C224.041 87.9196 224.721 88.4121 225.352 88.9634C226.049 88.3542 226.312 87.2124 226.145 86.2104C225.955 85.0586 225.329 84.0499 224.719 83.0812C225.51 84.0917 226.497 84.932 227.621 85.5512C228.031 85.7743 228.504 85.9674 228.93 85.7976C229.62 85.5179 229.73 84.466 229.457 83.7003C229.183 82.9347 228.657 82.2988 228.457 81.5165C229.049 82.1168 229.722 82.6311 230.456 83.0445C230.811 83.2445 231.207 83.3626 231.614 83.3903C232.021 83.4179 232.429 83.3544 232.808 83.2043C233.661 82.8082 234.197 81.8228 234.304 80.8108C234.319 80.6604 234.325 80.5092 234.324 80.3581C231.799 77.6949 228.504 75.8906 225.043 75.4478C223.94 75.3047 222.711 75.3247 221.868 76.0803C221.025 76.836 220.852 78.5538 221.818 79.1763C220.772 78.7934 219.676 78.4439 218.59 78.5871C217.504 78.7302 216.401 79.4959 216.165 80.661Z" fill="white"/>
</g>
<path d="M214.833 97.369L204.959 92.0427C204.959 92.0427 198.932 88.6505 195.894 85.701C190.501 80.4645 189.232 75.9172 189.232 75.9172L160.116 89.273L154.203 91.1472C154.943 94.2398 155.053 100.089 157.038 106.071C157.588 107.735 159.21 109.267 159.283 108.711C159.34 108.248 159.283 109.017 159.283 109.017C160.313 111.733 161.502 115.259 165.03 117.712C167.672 121.707 173.318 123.991 175.627 125.309C179.041 127.256 192 131.078 192 131.078L202.077 131.847L227.335 111.817C227.335 111.817 225.826 103.068 214.833 97.369Z" fill="#E09C41"/>
<path d="M180.577 119.357C182.303 120.868 182.966 123.255 183.202 125.532C183.439 127.809 183.332 130.139 183.905 132.356C182.769 132.024 181.51 132.936 181.26 134.094C181.01 135.253 181.617 136.474 182.553 137.2C183.528 137.889 184.69 138.265 185.884 138.279C187.883 138.389 190.038 137.833 191.411 136.358C192.67 135.006 193.109 133.112 193.609 131.331C194.462 128.282 195.608 125.319 196.487 122.276C197.367 119.234 197.957 116.051 197.65 112.899L198.51 113.198C199.572 113.508 198.556 109.949 197.493 108.348" fill="#E09C41"/>
<path d="M197.486 108.348C197.571 108.462 197.649 108.581 197.72 108.704C197.927 109.064 198.112 109.436 198.273 109.819C198.533 110.435 198.738 111.072 198.886 111.724C198.931 111.923 198.963 112.126 198.982 112.329C199.013 112.552 199.001 112.778 198.946 112.995C198.931 113.059 198.899 113.118 198.853 113.165C198.807 113.212 198.749 113.245 198.686 113.262C198.621 113.273 198.554 113.273 198.489 113.262L198.319 113.202L197.626 112.965L197.693 112.909C197.839 114.483 197.799 116.068 197.573 117.632C197.29 119.536 196.857 121.414 196.277 123.248C195.681 125.246 194.945 127.313 194.238 129.517C193.882 130.615 193.572 131.757 193.239 132.916C192.936 134.118 192.39 135.245 191.633 136.228C190.583 137.387 189.142 138.119 187.586 138.285C186.844 138.387 186.092 138.396 185.347 138.312C184.618 138.239 183.907 138.04 183.245 137.726C182.599 137.414 182.05 136.932 181.656 136.331C181.269 135.752 181.087 135.059 181.14 134.364C181.26 132.986 182.676 131.92 183.925 132.28L183.835 132.366C183.332 130.336 183.355 128.418 183.242 126.754C183.194 125.314 182.951 123.887 182.519 122.513C182.239 121.63 181.801 120.806 181.226 120.079C181.076 119.889 180.913 119.707 180.74 119.537C180.623 119.423 180.563 119.357 180.563 119.357C180.82 119.565 181.054 119.798 181.263 120.053C181.854 120.774 182.306 121.6 182.596 122.486C183.042 123.867 183.294 125.303 183.345 126.754C183.468 128.418 183.458 130.336 183.961 132.337L183.991 132.46L183.871 132.426C182.729 132.094 181.383 133.092 181.283 134.384C181.233 135.044 181.408 135.702 181.779 136.251C182.158 136.827 182.686 137.287 183.308 137.583C183.952 137.889 184.644 138.08 185.354 138.149C186.084 138.233 186.822 138.224 187.549 138.122C189.075 137.961 190.487 137.241 191.513 136.102C192.254 135.136 192.789 134.029 193.086 132.849C193.419 131.701 193.722 130.549 194.085 129.45C194.785 127.243 195.538 125.166 196.141 123.189C196.724 121.362 197.161 119.492 197.45 117.596C197.681 116.042 197.731 114.467 197.6 112.902V112.822L197.676 112.849L198.369 113.092C198.472 113.144 198.587 113.169 198.702 113.165C198.749 113.151 198.791 113.125 198.824 113.089C198.857 113.054 198.879 113.01 198.889 112.962C198.942 112.758 198.955 112.545 198.929 112.336C198.91 112.136 198.88 111.937 198.839 111.74C198.698 111.092 198.502 110.457 198.253 109.843C198.099 109.459 197.925 109.085 197.73 108.721C197.663 108.601 197.61 108.511 197.573 108.441C197.541 108.413 197.512 108.382 197.486 108.348Z" fill="#263238"/>
<path d="M185.254 133.465C185.254 133.492 185.008 133.602 184.645 133.858C184.169 134.186 183.768 134.611 183.468 135.105C183.168 135.599 182.976 136.151 182.906 136.724C182.846 137.164 182.866 137.443 182.839 137.446C182.768 137.208 182.749 136.957 182.783 136.711C182.822 136.11 183.006 135.528 183.319 135.013C183.631 134.499 184.063 134.067 184.578 133.755C184.78 133.611 185.011 133.512 185.254 133.465Z" fill="#263238"/>
<path d="M187.742 133.625C187.759 133.648 187.503 133.811 187.163 134.147C186.717 134.58 186.368 135.102 186.14 135.679C185.915 136.258 185.813 136.879 185.84 137.5C185.864 137.976 185.937 138.269 185.91 138.275C185.796 138.034 185.732 137.773 185.72 137.506C185.653 136.864 185.741 136.215 185.977 135.614C186.214 135.013 186.592 134.478 187.08 134.054C187.269 133.867 187.495 133.721 187.742 133.625Z" fill="#263238"/>
<path d="M163.131 116.331C164.207 118.575 165.409 120.472 165.643 122.749C165.876 125.026 165.776 127.356 166.346 129.573C165.21 129.241 163.954 130.156 163.704 131.311C163.454 132.466 164.057 133.695 164.993 134.42C165.97 135.106 167.131 135.481 168.324 135.496C170.323 135.609 172.478 135.05 173.851 133.575C175.11 132.223 176.14 127.543 176.516 125.732" fill="#E09C41"/>
<path d="M176.523 125.732C176.526 125.765 176.526 125.798 176.523 125.832C176.51 125.905 176.493 126.001 176.473 126.121C176.423 126.374 176.35 126.751 176.243 127.23C175.957 128.582 175.59 129.916 175.144 131.225C175.001 131.641 174.811 132.067 174.624 132.506C174.416 132.967 174.131 133.389 173.781 133.755C172.977 134.532 171.976 135.076 170.887 135.329C169.686 135.623 168.437 135.658 167.222 135.432C166.579 135.318 165.96 135.092 165.393 134.767C164.804 134.426 164.318 133.933 163.987 133.339C163.742 132.903 163.602 132.416 163.581 131.917C163.558 131.422 163.691 130.932 163.961 130.516C164.221 130.114 164.591 129.795 165.027 129.597C165.238 129.501 165.463 129.439 165.693 129.414C165.923 129.396 166.154 129.418 166.376 129.477L166.273 129.577C165.783 127.616 165.793 125.729 165.686 124.071C165.661 123.288 165.572 122.509 165.42 121.74C165.269 121.089 165.06 120.451 164.797 119.836C164.317 118.711 163.857 117.839 163.571 117.246C163.424 116.943 163.311 116.714 163.238 116.554C163.205 116.481 163.178 116.421 163.158 116.371C163.138 116.321 163.131 116.311 163.135 116.308C163.149 116.326 163.161 116.346 163.171 116.367C163.195 116.414 163.225 116.471 163.265 116.541C163.348 116.707 163.468 116.933 163.618 117.206C163.921 117.802 164.394 118.654 164.89 119.783C165.168 120.401 165.391 121.043 165.556 121.7C165.714 122.468 165.809 123.248 165.84 124.031C165.96 125.695 165.96 127.573 166.446 129.507L166.483 129.65L166.343 129.607C165.53 129.364 164.59 129.826 164.107 130.579C163.871 130.981 163.75 131.441 163.756 131.907C163.763 132.374 163.897 132.83 164.144 133.225C164.458 133.791 164.918 134.262 165.477 134.59C166.025 134.907 166.625 135.125 167.249 135.236C168.435 135.456 169.654 135.425 170.827 135.143C171.89 134.901 172.869 134.377 173.658 133.625C173.999 133.272 174.277 132.863 174.481 132.416C174.679 132.004 174.855 131.582 175.007 131.151C175.463 129.841 175.848 128.508 176.16 127.157C176.271 126.686 176.358 126.32 176.42 126.058C176.446 125.938 176.47 125.845 176.486 125.772C176.498 125.758 176.51 125.744 176.523 125.732Z" fill="#263238"/>
<path d="M167.699 130.682C167.699 130.709 167.452 130.818 167.086 131.075C166.611 131.403 166.21 131.829 165.91 132.322C165.611 132.816 165.419 133.368 165.347 133.941C165.287 134.384 165.31 134.663 165.28 134.663C165.21 134.426 165.191 134.176 165.224 133.931C165.266 133.331 165.451 132.749 165.763 132.234C166.075 131.719 166.506 131.287 167.019 130.972C167.224 130.829 167.455 130.731 167.699 130.682Z" fill="#263238"/>
<path d="M170.193 130.855C170.193 130.878 169.956 131.038 169.613 131.374C169.17 131.81 168.822 132.333 168.591 132.909C168.367 133.488 168.266 134.107 168.294 134.727C168.314 135.206 168.391 135.496 168.361 135.502C168.246 135.263 168.182 135.002 168.171 134.737C168.104 134.096 168.193 133.449 168.429 132.85C168.665 132.251 169.041 131.718 169.527 131.295C169.716 131.103 169.943 130.953 170.193 130.855Z" fill="#263238"/>
<path d="M178.991 126.634C178.894 126.62 178.798 126.598 178.705 126.567C178.522 126.517 178.245 126.451 177.899 126.341C176.916 126.032 175.956 125.652 175.027 125.206C173.652 124.537 172.347 123.732 171.133 122.802C169.648 121.656 168.314 120.328 167.162 118.848C166.875 118.495 166.632 118.118 166.369 117.762L166.512 117.662C166.643 117.822 166.734 118.01 166.779 118.212C166.785 118.283 166.762 118.354 166.716 118.408C166.67 118.455 166.61 118.486 166.546 118.495C166.442 118.508 166.337 118.502 166.236 118.478C165.866 118.4 165.515 118.247 165.206 118.029C163.988 117.238 162.933 116.221 162.098 115.033C161.43 114.1 160.852 113.105 160.373 112.063C159.97 111.184 159.707 110.465 159.52 109.966C159.43 109.719 159.373 109.523 159.33 109.39C159.307 109.325 159.288 109.258 159.273 109.19C159.309 109.25 159.337 109.314 159.357 109.38C159.413 109.523 159.483 109.713 159.577 109.946C159.763 110.439 160.053 111.151 160.473 112.016C160.961 113.046 161.544 114.028 162.215 114.949C163.047 116.117 164.093 117.116 165.296 117.895C165.585 118.093 165.91 118.234 166.253 118.308C166.422 118.342 166.622 118.338 166.586 118.222C166.543 118.053 166.463 117.896 166.352 117.762L166.492 117.662C166.752 118.015 166.995 118.388 167.282 118.738C168.423 120.206 169.743 121.528 171.209 122.672C173.228 124.246 175.496 125.473 177.919 126.301C178.252 126.421 178.535 126.497 178.715 126.557C178.809 126.575 178.902 126.6 178.991 126.634Z" fill="#263238"/>
<path d="M224.536 107.732L215.109 114.983C212.337 115.379 210.445 117.273 208.556 119.33C206.068 122.027 206.631 124.726 205.891 127.423C205.695 127.956 205.455 128.472 205.172 128.964C204.609 130.173 203.129 129.813 202.357 130.046C201.434 130.322 201.024 130.762 200.591 131.627C200.383 132.07 200.308 132.565 200.376 133.049C200.444 133.534 200.652 133.989 200.974 134.357C201.537 134.95 202.483 135.063 203.283 135.239C205.511 135.725 207.813 136.218 210.052 135.779C212.291 135.339 214.459 133.715 214.792 131.451C216.382 131.854 218.063 131.681 219.536 130.962C220.998 130.232 222.285 129.197 223.311 127.926C225.642 125.166 227.338 121.651 227.558 118.045C227.778 114.44 226.522 110.751 224.536 107.732Z" fill="#E09C41"/>
<path d="M217.165 114.983C217.138 114.978 217.112 114.969 217.088 114.956L216.872 114.863C216.594 114.741 216.308 114.638 216.016 114.556C214.945 114.254 213.819 114.2 212.724 114.397C211.97 114.528 211.238 114.768 210.552 115.109C209.767 115.504 209.047 116.017 208.417 116.63C206.986 118.052 205.978 119.843 205.505 121.804C205.042 123.772 204.951 125.81 205.236 127.812C205.332 128.273 205.302 128.752 205.149 129.197C205.052 129.411 204.893 129.59 204.693 129.713C204.503 129.825 204.294 129.899 204.076 129.933C203.657 130.006 203.25 130 202.874 130.043C202.513 130.077 202.162 130.185 201.844 130.359C201.356 130.618 200.961 131.023 200.713 131.517C200.466 132.011 200.378 132.569 200.462 133.115C200.523 133.518 200.663 133.905 200.872 134.254C200.803 134.174 200.743 134.085 200.695 133.991C200.545 133.722 200.444 133.429 200.395 133.125C200.312 132.642 200.36 132.146 200.532 131.687C200.721 131.206 201.038 130.786 201.449 130.473C201.86 130.159 202.35 129.965 202.864 129.91C203.254 129.863 203.657 129.866 204.056 129.793C204.26 129.772 204.455 129.7 204.623 129.584C204.791 129.467 204.928 129.31 205.019 129.127C205.157 128.706 205.178 128.255 205.082 127.822C204.787 125.802 204.876 123.744 205.346 121.757C205.823 119.758 206.854 117.934 208.32 116.494C208.965 115.873 209.701 115.356 210.502 114.959C211.203 114.619 211.949 114.382 212.718 114.257C213.83 114.067 214.97 114.14 216.049 114.47C216.441 114.594 216.816 114.766 217.165 114.983Z" fill="#263238"/>
<path d="M202.913 135C202.739 134.82 202.615 134.599 202.553 134.357C202.357 133.78 202.373 133.151 202.6 132.584C202.826 132.018 203.248 131.551 203.789 131.268C204.001 131.134 204.245 131.061 204.496 131.055C204.496 131.081 204.226 131.145 203.853 131.388C203.358 131.681 202.974 132.129 202.76 132.662C202.547 133.195 202.515 133.784 202.67 134.337C202.783 134.75 202.94 134.983 202.913 135Z" fill="#263238"/>
<path d="M206.504 135.682C206.43 135.661 206.361 135.625 206.301 135.576C206.13 135.459 205.979 135.316 205.852 135.153C205.63 134.884 205.47 134.571 205.382 134.235C205.294 133.899 205.28 133.547 205.341 133.205C205.402 132.863 205.537 132.538 205.736 132.253C205.935 131.968 206.194 131.729 206.495 131.554C206.671 131.445 206.863 131.363 207.064 131.311C207.137 131.285 207.214 131.276 207.291 131.285C207.039 131.391 206.795 131.516 206.561 131.657C206.287 131.835 206.053 132.066 205.872 132.338C205.692 132.609 205.569 132.915 205.512 133.236C205.454 133.556 205.463 133.886 205.538 134.203C205.613 134.52 205.753 134.818 205.948 135.08C206.12 135.293 206.306 135.494 206.504 135.682Z" fill="#263238"/>
<path d="M227.558 118.039C227.525 118.039 227.628 117.449 227.675 116.494C227.704 115.94 227.704 115.384 227.675 114.829C227.628 114.148 227.542 113.47 227.418 112.799C227.18 111.579 226.821 110.386 226.346 109.237C226.166 108.794 226.012 108.438 225.896 108.198C225.831 108.074 225.778 107.943 225.739 107.809C225.823 107.921 225.895 108.042 225.956 108.168C226.089 108.401 226.262 108.747 226.459 109.187C226.97 110.333 227.349 111.534 227.588 112.766C227.716 113.445 227.798 114.132 227.835 114.823C227.86 115.385 227.852 115.949 227.808 116.511C227.782 116.89 227.733 117.268 227.661 117.642C227.639 117.777 227.605 117.91 227.558 118.039Z" fill="#263238"/>
<path d="M207.191 105.848C207.128 105.814 207.07 105.773 207.017 105.725C206.907 105.638 206.754 105.502 206.568 105.322C206.06 104.819 205.621 104.252 205.262 103.634L205.398 103.571C205.678 104.378 205.778 105.237 205.691 106.088C205.662 106.364 205.613 106.638 205.545 106.907L205.495 107.103L205.388 106.93C204.695 105.815 204.089 104.826 203.663 104.11L203.173 103.268C203.107 103.169 203.053 103.063 203.01 102.952C203.092 103.037 203.164 103.132 203.223 103.235L203.766 104.05C204.219 104.749 204.842 105.715 205.542 106.84L205.385 106.863C205.45 106.603 205.497 106.338 205.525 106.071C205.609 105.245 205.519 104.41 205.262 103.621L205.402 103.558C205.747 104.171 206.163 104.742 206.641 105.259C206.981 105.635 207.204 105.831 207.191 105.848Z" fill="#263238"/>
<g opacity="0.3">
<path d="M207.138 117.706C205.283 119.409 203.97 121.62 203.364 124.064C203.255 124.736 203.036 125.386 202.717 125.988C201.941 127.19 200.299 127.493 198.87 127.356L195.002 127L193.64 131.201C196.135 131.534 200.502 131.724 200.502 131.724C201.092 130.512 201.965 129.943 203.254 129.906C203.616 129.892 203.975 129.841 204.326 129.753C204.551 129.671 204.747 129.527 204.893 129.337C205.038 129.147 205.126 128.919 205.146 128.681C205.179 128.204 205.135 127.724 205.016 127.26C204.439 123.92 205.201 120.488 207.138 117.706Z" fill="black"/>
</g>
<path opacity="0.3" d="M171.993 122.906L183.136 126.731L183.393 128.358C183.393 128.358 172.859 125.246 171.993 122.906Z" fill="black"/>
<g opacity="0.6">
<path d="M183.889 77.9179L154.963 93.0114C156.828 102.998 160.236 109.127 168.012 115.675C168.834 116.367 172.402 118.801 173.388 119.234C174.368 119.707 175.494 119.78 176.526 119.437C177.792 118.951 178.602 117.716 179.158 116.481C180.704 113.065 180.934 109.227 181.14 105.495C181.708 106.217 182.085 107.07 182.236 107.975C184.475 104.979 180.491 94.7059 180.684 90.9741C181.02 84.4793 185.084 84.3095 183.889 77.9179Z" fill="white"/>
</g>
<path d="M154.993 93.0913C154.993 93.0913 148.996 78.9765 148.913 72.8213C148.83 66.666 154.04 62.102 154.04 62.102C154.85 58.1972 155.998 54.37 157.471 50.6637C159.756 45.1276 166.659 36.6088 168.588 37.2214C170.517 37.8339 171.403 38.8858 171.413 43.8793C171.423 48.8727 172.046 51.7556 172.046 51.7556C172.046 51.7556 176.586 52.7543 178.042 54.3855C178.042 54.3855 179.071 54.2923 180.347 53.1804C181.623 52.0685 190.674 44.1656 193.269 46.0431C195.864 47.9206 194.982 56.9022 192.963 60.7372C190.944 64.5721 187.633 69.5123 187.523 69.9684C187.413 70.4244 188.762 76.1469 188.019 79.0931C187.276 82.0392 185.141 85.751 181.55 88.5307C177.959 91.3103 167.225 97.9183 162.108 96.6733C156.991 95.4283 154.993 93.0913 154.993 93.0913Z" fill="#E09C41"/>
<path opacity="0.6" d="M154.993 93.0913C154.993 93.0913 148.996 78.9765 148.913 72.8213C148.83 66.666 154.04 62.102 154.04 62.102C154.85 58.1972 155.998 54.37 157.471 50.6637C159.756 45.1276 166.659 36.6088 168.588 37.2214C170.517 37.8339 171.403 38.8858 171.413 43.8793C171.423 48.8727 172.046 51.7556 172.046 51.7556C172.046 51.7556 176.586 52.7543 178.042 54.3855C178.042 54.3855 179.071 54.2923 180.347 53.1804C181.623 52.0685 190.674 44.1656 193.269 46.0431C195.864 47.9206 194.982 56.9022 192.963 60.7372C190.944 64.5721 187.633 69.5123 187.523 69.9684C187.413 70.4244 188.762 76.1469 188.019 79.0931C187.276 82.0392 185.141 85.751 181.55 88.5307C177.959 91.3103 167.225 97.9183 162.108 96.6733C156.991 95.4283 154.993 93.0913 154.993 93.0913Z" fill="white"/>
<path d="M192.956 60.7471C194.974 56.9122 195.844 47.9306 193.262 46.0531C190.68 44.1755 181.619 52.0652 180.34 53.1904C179.061 54.3156 178.035 54.3955 178.035 54.3955C177.878 54.2227 177.704 54.0666 177.515 53.9294C175.974 55.0652 174.598 56.4097 173.428 57.9242C171.904 59.8812 170.941 62.2144 170.639 64.6753C170.526 65.7772 170.586 66.9457 171.142 67.9077C171.835 69.1028 173.171 69.7719 174.494 70.1681C179.081 71.5463 187.792 68.1707 185.39 78.7768C185.39 78.7768 183.511 83.6337 181.763 86.6431C181.313 87.4188 181.023 89.1199 180.763 89.9721C181.063 89.7557 182.599 90.2018 182.839 90.0154C186.433 87.2423 191.56 83.7969 190.59 80.9173C189.041 76.3167 187.386 70.4244 187.509 69.9717C187.632 69.5189 190.937 64.5788 192.956 60.7471Z" fill="#E09C41"/>
<g opacity="0.6">
<path d="M192.66 47.7974C192.043 47.3813 191.214 47.601 190.534 47.9006C186.839 49.5789 183.684 52.2505 181.42 55.6172C181.457 59.1455 182.515 62.5876 184.468 65.5275C184.771 65.9802 185.208 66.4729 185.747 66.3997C185.941 66.3458 186.121 66.2542 186.279 66.1302C186.437 66.0063 186.569 65.8523 186.667 65.6773C190.058 61.0867 192.646 55.7736 193.283 50.1011C193.376 49.2688 193.353 48.2668 192.66 47.7974Z" fill="white"/>
</g>
<path d="M166.099 62.5881C167.608 60.5707 168.984 58.4502 170.636 56.5493C171.914 55.0234 173.448 53.7313 175.17 52.731C174.151 52.3446 173.107 52.0265 172.045 51.7789C172.045 51.7789 171.422 48.916 171.412 43.9026C171.402 38.8892 170.513 37.8439 168.587 37.2447C166.662 36.6455 159.756 45.151 157.471 50.687C156.194 53.8824 155.165 57.1711 154.393 60.5241L154.456 60.5541C155.875 61.5528 156.998 62.911 158.383 63.9496C159.769 64.9883 161.592 65.7073 163.227 65.1347C164.446 64.682 165.323 63.6234 166.099 62.5881Z" fill="#E09C41"/>
<path d="M166.356 69.0429C165.572 68.4634 164.691 68.0272 163.754 67.7546C163.181 67.5648 162.482 67.4417 162.032 67.8445C161.864 68.0208 161.751 68.2425 161.708 68.4822C161.665 68.7218 161.693 68.9688 161.789 69.1927C161.988 69.6381 162.287 70.0321 162.662 70.3445C163.015 70.7242 163.457 71.0112 163.948 71.1801C164.774 71.4065 165.187 71.2533 165.946 70.8672C166.298 70.691 166.623 70.4669 166.912 70.2014C167.122 69.9983 167.152 69.459 166.356 69.0429Z" fill="#263238"/>
<path d="M169.904 73.2008C168.548 74.2494 168.185 75.7408 167.762 77.4019C167.339 79.0631 167.042 80.8008 166.123 82.2456C165.203 83.6903 163.434 84.7789 161.792 84.2896C161.348 84.1411 160.938 83.9064 160.585 83.5991C160.233 83.2917 159.944 82.9177 159.736 82.4986C159.327 81.656 159.112 80.7322 159.107 79.7955C159.052 78.36 159.309 76.9296 159.86 75.6028C160.411 74.2759 161.243 73.084 162.298 72.1089C162.767 72.1799 163.222 72.319 163.651 72.5217C164.031 72.7747 166.169 74.0463 167.725 73.6668C169.281 73.2873 169.904 73.2008 169.904 73.2008Z" fill="#D16283"/>
<path d="M162.841 78.6736C162.793 78.3815 162.793 78.0835 162.841 77.7914C162.918 77.0805 163.107 76.3862 163.401 75.7341C163.69 75.079 164.079 74.4726 164.553 73.9365C164.742 73.706 164.967 73.508 165.22 73.3506C165.24 73.3739 164.99 73.6003 164.65 74.0164C164.212 74.563 163.847 75.1639 163.564 75.804C163.278 76.4405 163.077 77.1121 162.968 77.8014C162.864 78.3374 162.864 78.6736 162.841 78.6736Z" fill="#263238"/>
<path d="M172.332 71.6661C172.305 71.7257 172.272 71.7816 172.232 71.8326C172.127 71.9834 172.005 72.1219 171.868 72.2454C171.351 72.6925 170.743 73.022 170.086 73.2108C169.641 73.3514 169.188 73.4692 168.73 73.5636C168.208 73.6995 167.671 73.7699 167.131 73.7734C165.882 73.7658 164.666 73.3651 163.657 72.6282C163.408 72.4424 163.125 72.3067 162.824 72.2287C162.531 72.1688 162.214 72.2287 161.895 72.1655C161.592 72.1102 161.305 71.9895 161.054 71.8118C160.803 71.6341 160.595 71.4037 160.442 71.1368C160.15 70.6699 159.996 70.1296 159.999 69.5789C160.004 69.1032 160.109 68.6338 160.306 68.2007C160.586 67.5741 161.036 67.0381 161.605 66.6527C161.76 66.5513 161.924 66.4633 162.094 66.3897C162.152 66.3628 162.212 66.3416 162.274 66.3265C162.274 66.3265 162.031 66.4363 161.645 66.7093C161.106 67.1032 160.683 67.6343 160.419 68.2473C160.239 68.6683 160.145 69.121 160.142 69.5789C160.148 70.101 160.297 70.6114 160.575 71.0536C160.717 71.2973 160.909 71.5079 161.139 71.671C161.369 71.8341 161.631 71.946 161.908 71.999C162.194 72.049 162.511 71.999 162.844 72.059C163.167 72.1419 163.472 72.2866 163.74 72.4851C164.722 73.2024 165.902 73.5968 167.118 73.6136C167.647 73.6138 168.174 73.5501 168.687 73.4238C169.177 73.3206 169.633 73.2174 170.036 73.0909C170.683 72.9185 171.286 72.6135 171.809 72.1954C171.993 72.0288 172.167 71.8521 172.332 71.6661Z" fill="#263238"/>
<g opacity="0.6">
<path d="M156.805 58.9595C160.017 56.405 163.49 54.1957 167.165 52.3681C167.706 52.1427 168.198 51.8149 168.614 51.4027C169.094 50.8535 169.26 50.1111 169.41 49.4054C169.967 46.7788 170.523 44.0291 169.803 41.4425C169.55 40.5337 168.974 39.5383 168.031 39.4684C167.435 39.4218 166.889 39.768 166.412 40.1342C163.018 42.7374 161.022 46.7189 159.137 50.5605C157.867 53.1504 156.572 55.8336 156.432 58.7165" fill="white"/>
</g>
<path d="M163.218 72.2886C163.003 72.0409 162.89 71.7209 162.901 71.3931C162.866 71.0663 162.952 70.7378 163.145 70.471C163.198 70.491 163.055 70.8871 163.075 71.3831C163.095 71.8792 163.268 72.2653 163.218 72.2886Z" fill="#263238"/>
<g opacity="0.6">
<path d="M176.25 60.4076C175.476 60.2429 174.673 60.2796 173.918 60.5141C173.777 60.5449 173.645 60.6058 173.53 60.6926C173.415 60.7794 173.32 60.89 173.252 61.0168C173.095 61.4329 173.478 61.8524 173.851 62.0954C174.564 62.5533 175.379 62.8299 176.223 62.901C176.523 62.938 176.826 62.9142 177.116 62.8311C177.26 62.789 177.394 62.7172 177.509 62.6203C177.624 62.5234 177.717 62.4035 177.782 62.2685C177.855 62.0523 177.863 61.8193 177.804 61.5989C177.744 61.3785 177.621 61.1805 177.449 61.0301C177.103 60.7309 176.699 60.5044 176.263 60.3643" fill="white"/>
</g>
<g opacity="0.6">
<path d="M165.027 56.8556C164.253 56.6901 163.45 56.7268 162.695 56.9621C162.551 56.9907 162.415 57.0506 162.297 57.1375C162.179 57.2243 162.082 57.3361 162.012 57.4648C161.852 57.8809 162.235 58.3003 162.608 58.5434C163.321 59.0008 164.136 59.2773 164.98 59.349C165.279 59.386 165.583 59.3622 165.873 59.2791C166.017 59.2366 166.151 59.1646 166.265 59.0678C166.38 58.9709 166.473 58.8513 166.539 58.7165C166.611 58.5002 166.618 58.2674 166.559 58.0472C166.5 57.827 166.377 57.6291 166.206 57.4781C165.86 57.1782 165.456 56.9517 165.02 56.8123" fill="white"/>
</g>
<path d="M165.703 44.7881C165.726 44.8114 165.31 45.2375 164.77 46.0265C164.455 46.4869 164.175 46.9698 163.93 47.4712C163.329 48.7041 162.954 50.0344 162.821 51.3994C162.768 51.9526 162.755 52.5088 162.781 53.0639C162.831 54.016 162.961 54.5985 162.928 54.6052C162.876 54.4742 162.84 54.338 162.818 54.1991C162.78 54.0398 162.752 53.8787 162.731 53.7164C162.708 53.5266 162.668 53.3102 162.658 53.0705C162.611 52.5067 162.611 51.94 162.658 51.3761C162.776 49.9921 163.159 48.6438 163.787 47.4047C164.041 46.8996 164.337 46.4164 164.67 45.9599C164.807 45.7601 164.95 45.5937 165.07 45.4472C165.174 45.3191 165.285 45.1969 165.403 45.081C165.492 44.9726 165.592 44.8744 165.703 44.7881Z" fill="#263238"/>
<path d="M175.457 66.16C175.451 66.4577 175.357 66.7469 175.187 66.991C175.016 67.2351 174.777 67.4232 174.499 67.5314C174.222 67.6396 173.919 67.6632 173.628 67.599C173.337 67.5349 173.071 67.3859 172.865 67.1711C172.659 66.9562 172.521 66.685 172.469 66.3918C172.417 66.0986 172.454 65.7967 172.574 65.5241C172.694 65.2516 172.892 65.0207 173.143 64.8607C173.394 64.7007 173.687 64.6188 173.985 64.6254C174.183 64.6293 174.378 64.6721 174.559 64.7513C174.74 64.8306 174.903 64.9448 175.04 65.0874C175.177 65.2299 175.284 65.3981 175.356 65.5821C175.427 65.7662 175.462 65.9626 175.457 66.16Z" fill="#263238"/>
<path d="M163.994 62.162C163.988 62.4596 163.893 62.7488 163.723 62.9929C163.552 63.237 163.313 63.4251 163.036 63.5334C162.758 63.6416 162.455 63.6651 162.164 63.601C161.873 63.5368 161.607 63.3879 161.401 63.173C161.195 62.9581 161.057 62.6869 161.005 62.3938C160.954 62.1006 160.99 61.7986 161.11 61.5261C161.23 61.2536 161.428 61.0227 161.679 60.8627C161.93 60.7027 162.223 60.6208 162.521 60.6273C162.92 60.6361 163.299 60.8026 163.575 61.0903C163.851 61.378 164.002 61.7634 163.994 62.162Z" fill="#263238"/>
<path d="M192.354 50.3275C192.311 50.3798 192.264 50.4288 192.214 50.474L191.797 50.8734C191.434 51.2063 190.914 51.7256 190.298 52.3781C188.686 54.0852 187.249 55.9486 186.007 57.9408L185.911 58.0973L185.851 57.9242C185.824 57.841 185.791 57.7511 185.761 57.6612C185.471 56.8356 185.195 56.0333 184.931 55.281H185.088C184.321 56.9501 183.887 58.7524 183.809 60.5874C183.786 61.1222 183.793 61.6578 183.829 62.1919C183.85 62.3842 183.86 62.5777 183.859 62.7712C183.842 62.7241 183.831 62.6747 183.829 62.6247C183.829 62.5281 183.789 62.385 183.769 62.1986C183.713 61.6623 183.691 61.1231 183.702 60.584C183.744 58.7281 184.164 56.9001 184.935 55.2111L185.021 55.0213L185.091 55.2177L185.924 57.5979L186.014 57.8609L185.861 57.8443C187.106 55.841 188.565 53.9781 190.212 52.2882C190.841 51.6458 191.374 51.1497 191.751 50.8168C191.937 50.6504 192.084 50.5272 192.19 50.4407C192.24 50.3961 192.295 50.3581 192.354 50.3275Z" fill="#263238"/>
<path d="M168.614 97.9317C168.64 98.0227 168.655 98.1166 168.658 98.2113C168.678 98.3944 168.698 98.6674 168.714 99.0103C168.749 99.9674 168.708 100.926 168.591 101.876L168.574 102.006L168.471 101.923C167.371 101.069 166.428 100.029 165.686 98.8505C165.606 98.724 165.533 98.5975 165.46 98.4743L165.619 98.411L166.489 102.006L166.552 102.266L166.366 102.076C165.688 101.39 165.134 100.593 164.727 99.7193C164.613 99.4752 164.513 99.2252 164.427 98.9703C164.392 98.8813 164.367 98.7886 164.354 98.694C164.401 98.7764 164.44 98.8634 164.47 98.9537C164.543 99.1234 164.65 99.3731 164.803 99.6794C165.232 100.527 165.795 101.3 166.469 101.97L166.346 102.04C166.082 100.984 165.776 99.7626 165.45 98.451L165.31 97.8851L165.609 98.3877C165.683 98.5109 165.756 98.6341 165.833 98.7573C166.565 99.919 167.487 100.95 168.561 101.807L168.441 101.857C168.568 100.914 168.63 99.9644 168.628 99.0136C168.628 98.6807 168.628 98.421 168.628 98.2146C168.614 98.1209 168.61 98.0262 168.614 97.9317Z" fill="#263238"/>
<path d="M215.049 36.8818C215.296 36.0961 215.296 35.2539 215.049 34.4683C214.837 33.6835 214.384 32.985 213.754 32.4709C213.413 32.2137 213.025 32.0275 212.611 31.9234C212.197 31.8193 211.767 31.7995 211.345 31.865C210.843 31.948 210.369 32.1513 209.963 32.4576C209.923 31.9974 209.782 31.5516 209.549 31.1526C209.333 30.7852 209.044 30.4652 208.7 30.2118C208.357 29.9584 207.966 29.7768 207.551 29.6779C206.759 29.5179 205.936 29.6098 205.199 29.9409C204.434 30.249 203.783 30.7848 203.333 31.4756C202.77 32.3683 202.512 33.4196 202.597 34.4716C202.748 35.5664 203.161 36.6089 203.8 37.511C204.799 39.0256 206.165 40.9664 206.165 40.9664C206.165 40.9664 208.29 40.5337 210.102 40.3506C211.205 40.2711 212.272 39.9286 213.214 39.3519C214.077 38.7487 214.721 37.8819 215.049 36.8818Z" fill="#E09C41"/>
</svg>
