<svg width="51" height="40" viewBox="0 0 51 40" fill="none" xmlns="http://www.w3.org/2000/svg">
<path d="M41.9074 35.0669L45.7349 19.2372C48.5909 19.2372 51 16.8004 51 13.7692C51 10.7776 48.5909 8.32095 45.6377 8.32095C42.6846 8.32095 40.2949 10.7776 40.2949 13.7692C40.2949 14.3834 40.392 14.9579 40.5669 15.4928L35.9429 18.4052C35.3406 18.7816 34.9714 18.6825 34.6411 18.207L28.5989 9.90589C29.9589 8.91531 30.8526 7.29074 30.8526 5.44824C30.8526 2.45666 28.4434 0 25.5097 0C22.5371 0 20.1474 2.43685 20.1474 5.44824C20.1474 7.29074 21.0411 8.91531 22.4206 9.90589L16.3589 18.2268C16.048 18.6627 15.6983 18.7618 15.1349 18.4052L10.4526 15.4532C10.608 14.9183 10.7051 14.3635 10.7051 13.7692C10.7051 10.7776 8.31543 8.32095 5.36229 8.32095C2.38971 8.32095 0 10.7776 0 13.7692C0 16.7608 2.37029 19.1976 5.28457 19.2372L9.09257 35.0669C9.88914 38.3556 11.6377 40 14.9794 40H36.04C39.3817 40 41.1303 38.3556 41.9074 35.0669ZM25.5097 7.42942C24.4411 7.42942 23.5669 6.53789 23.5669 5.44824C23.5669 4.33878 24.4411 3.48687 25.5097 3.48687C26.5589 3.48687 27.4331 4.37841 27.4331 5.44824C27.4331 6.53789 26.5783 7.42942 25.5097 7.42942ZM13.8331 21.8128C15.3874 22.7439 17.5829 22.6449 18.9429 20.7826L25.5097 11.7682L32.1349 20.842C33.456 22.6845 35.632 22.7836 37.0891 21.892L42.1406 18.7816L39.712 28.9054H11.288L8.85943 18.7221L13.8331 21.8128ZM5.36229 15.7504C4.29371 15.7504 3.41943 14.8588 3.41943 13.7692C3.41943 12.6795 4.29371 11.8078 5.36229 11.8078C6.41143 11.8078 7.28571 12.6994 7.28571 13.7692C7.28571 14.8588 6.43086 15.7504 5.36229 15.7504ZM45.6377 15.7504C44.5497 15.7504 43.7143 14.8588 43.7143 13.7692C43.7143 12.6994 44.5886 11.8078 45.6377 11.8078C46.7063 11.8078 47.5806 12.6795 47.5806 13.7692C47.5806 14.8588 46.7063 15.7504 45.6377 15.7504ZM14.9406 36.3546C13.6777 36.3546 12.92 35.7603 12.648 34.5518L12.1623 32.5706H38.8377L38.3714 34.5518C38.08 35.7603 37.3417 36.3546 36.0594 36.3546H14.9406Z" fill="#333333"/>
</svg>
