<svg width="170" height="170" viewBox="0 0 170 170" fill="none" xmlns="http://www.w3.org/2000/svg">
<g clip-path="url(#clip0_223_14202)">
<path d="M48.1964 143.495C44.0253 143.495 40.1136 142.313 36.3731 140.786C33.4976 139.612 32.1189 136.329 33.2927 133.455C34.4665 130.579 37.7492 129.201 40.6246 130.375C46.998 132.978 52.1795 134.111 60.8564 124.936C62.9899 122.679 66.5489 122.581 68.8043 124.714C71.0611 126.848 71.1597 130.406 69.0261 132.662C61.3051 140.828 54.4583 143.495 48.1964 143.495Z" fill="#495059"/>
<path d="M97.9025 165.389C97.3331 165.389 96.7533 165.321 96.1762 165.174C92.4123 164.223 90.1322 160.402 91.0829 156.638C92.9856 149.109 92.8235 144.049 90.5044 138.586C88.9883 135.011 90.6562 130.885 94.2294 129.369C97.8026 127.854 101.928 129.521 103.445 133.094C106.997 141.465 107.376 149.536 104.712 160.081C103.906 163.267 101.045 165.389 97.9025 165.389Z" fill="#DDAF89"/>
<path d="M68.2252 165.129C67.6753 165.129 67.1163 165.065 66.5585 164.928C62.7869 164.011 60.4731 160.21 61.39 156.438C63.4587 147.939 62.8141 142.965 61.6793 136.865C60.9698 133.048 63.4873 129.379 67.303 128.669C71.1188 127.96 74.788 130.477 75.4987 134.293C76.8113 141.345 77.7646 148.599 75.0487 159.761C74.2666 162.975 71.3911 165.129 68.2252 165.129Z" fill="#DDAF89"/>
<path d="M111.946 120.011C110.926 119.815 109.914 119.569 108.909 119.272C105.188 118.167 103.067 114.256 104.171 110.535C105.275 106.814 109.185 104.692 112.908 105.796C121.911 108.467 129.207 103.22 131.228 101.55C134.22 99.0763 138.649 99.4953 141.124 102.487C143.596 105.478 143.177 109.909 140.185 112.382C132.029 119.125 121.676 121.875 111.946 120.011Z" fill="#DDAF89"/>
<path d="M67.304 128.669C63.4882 129.379 60.9708 133.048 61.6802 136.865C62.1238 139.246 62.4908 141.457 62.6517 143.772C66.8591 146.246 71.6191 147.997 76.7214 148.83C77.0133 143.283 76.3285 138.747 75.4997 134.293C74.7902 130.477 71.1197 127.96 67.304 128.669Z" fill="#D1A582"/>
<path d="M106.132 142.719C105.693 139.452 104.803 136.295 103.446 133.094C101.929 129.522 97.8036 127.854 94.2304 129.371C90.6572 130.887 88.9892 135.013 90.5054 138.586C91.8776 141.817 92.4872 144.911 92.3692 148.455C97.4028 147.378 102.06 145.4 106.132 142.719Z" fill="#D1A582"/>
<path d="M55.8888 122.397C37.4391 125.622 28.4678 113.754 25.5197 109.854C23.1787 106.756 23.7921 102.349 26.8881 100.008C29.9853 97.6669 34.3925 98.2804 36.7335 101.376C40.7801 106.732 45.1756 110 53.4686 108.551C57.2921 107.882 60.9328 110.441 61.602 114.265C62.27 118.088 59.7123 121.729 55.8888 122.397Z" fill="#DDAF89"/>
<path d="M121.211 106.25C118.72 106.694 115.911 106.686 112.909 105.795C109.186 104.691 105.276 106.813 104.172 110.534C103.068 114.255 105.189 118.167 108.911 119.272C109.915 119.569 110.927 119.815 111.949 120.011C115.089 120.612 118.294 120.731 121.47 120.391C121.899 118.288 122.126 116.119 122.126 113.901C122.126 111.275 121.808 108.714 121.211 106.25Z" fill="#D1A582"/>
<path d="M53.4689 108.551C50.2939 109.106 47.6908 108.967 45.46 108.286C45.1396 110.115 44.9697 111.99 44.9697 113.901C44.9697 116.951 45.3951 119.911 46.1928 122.735C49.0851 123.078 52.3081 123.023 55.8891 122.396C59.7126 121.728 62.2703 118.086 61.6024 114.263C60.9331 110.439 57.2911 107.881 53.4689 108.551Z" fill="#D1A582"/>
<path d="M117.81 113.901C117.81 96.7897 102.471 82.917 83.5475 82.917C64.6257 82.917 49.2861 96.7897 49.2861 113.901C49.2861 131.014 64.6257 144.886 83.5475 144.886C102.471 144.886 117.81 131.014 117.81 113.901Z" fill="#DDAF89"/>
<path d="M114.492 94.0078C106.095 100.975 95.3107 105.165 83.5483 105.165C71.7846 105.165 61.0001 100.975 52.6034 94.0078C50.8174 96.3204 49.3298 98.8365 48.2014 101.517C46.6632 105.168 48.0808 109.399 51.4971 111.404C60.9016 116.926 71.8547 120.093 83.5483 120.093C95.2407 120.093 106.194 116.926 115.598 111.404C119.015 109.399 120.432 105.168 118.895 101.517C117.766 98.8365 116.278 96.3204 114.492 94.0078Z" fill="#7F9AE6"/>
<path d="M67.9437 102.598C62.2889 100.676 57.1022 97.7419 52.6029 94.0078C50.817 96.3204 49.328 98.8365 48.1996 101.516C46.6627 105.167 48.0803 109.399 51.4966 111.404C56.3875 114.275 61.6987 116.502 67.3121 117.985C65.2525 113.853 65.8361 107.648 67.9437 102.598Z" fill="#5E78BF"/>
<path d="M69.6897 50.3623C68.1878 50.3623 66.6729 49.9044 65.3656 48.9537L56.2983 42.3689C52.3282 39.4844 46.9742 39.7243 43.2778 42.9512L37.3415 48.134C34.2754 50.811 29.6205 50.4959 26.9435 47.4298C24.2678 44.3637 24.583 39.7087 27.6477 37.033L33.5841 31.8489C37.8654 28.1123 43.3491 25.9139 49.0274 25.6597C54.7043 25.4055 60.3618 27.1045 64.9596 30.4443L74.0269 37.0304C77.3199 39.4221 78.0501 44.0303 75.6585 47.3234C74.2162 49.3078 71.9685 50.3623 69.6897 50.3623Z" fill="#495059"/>
<path d="M97.4054 50.3621C95.1253 50.3621 92.8789 49.3076 91.4366 47.3232C89.045 44.0301 89.7752 39.4219 93.0682 37.0302L102.134 30.4441C106.733 27.1043 112.392 25.4065 118.068 25.6594C123.745 25.9137 129.23 28.1121 133.51 31.8487L139.446 37.0328C142.512 39.7085 142.827 44.3634 140.15 47.4295C137.475 50.4956 132.82 50.8108 129.754 48.1338L123.817 42.951C120.121 39.7241 114.766 39.4841 110.796 42.3674L101.73 48.9535C100.422 49.9042 98.906 50.3621 97.4054 50.3621Z" fill="#495059"/>
<path d="M83.5469 108.724C120.955 108.724 137.813 91.5879 132.551 67.4598C126.898 41.5303 109.089 27.3359 83.5469 27.3359C58.0065 27.3359 40.1976 41.5303 34.544 67.4598C29.2821 91.5879 46.1404 108.724 83.5469 108.724Z" fill="#DDAF89"/>
<path d="M102.365 121.299C102.365 126.584 98.0794 130.87 92.7941 130.87C87.5089 130.87 83.2236 126.584 83.2236 121.299C83.2236 116.014 87.5089 111.729 92.7941 111.729C98.0794 111.729 102.365 116.014 102.365 121.299Z" fill="#F6E06A"/>
<path d="M98.1977 59.8469C94.6557 58.9195 90.9333 58.9195 87.3912 59.8469C85.9243 60.2308 84.6455 61.1335 83.7933 62.3877C82.6416 64.0816 83.3031 66.4045 85.1746 67.2359L90.3665 69.5445C91.9112 70.2319 93.6764 70.2319 95.2224 69.5445L100.414 67.2359C102.285 66.4045 102.947 64.0816 101.796 62.3877C100.942 61.1335 99.6646 60.2308 98.1977 59.8469Z" fill="#495059"/>
<path d="M104.466 86.3723C104.466 81.087 99.2407 76.8018 92.7947 76.8018C86.3486 76.8018 81.123 81.087 81.123 86.3723C81.123 91.6576 86.3486 95.9428 92.7947 95.9428C99.2407 95.9428 104.466 91.6576 104.466 86.3723Z" fill="#D16283"/>
<path d="M8.66999 67.9441C8.78283 67.9441 8.89567 67.9363 9.0098 67.9208C9.93974 67.7924 10.7192 67.1516 11.0253 66.2645L12.9527 60.6679L16.4442 65.4474C16.998 66.2061 17.9305 66.5887 18.8579 66.437C19.7839 66.2852 20.5465 65.6251 20.8293 64.7288L24.1016 54.371C24.5153 53.0598 23.7877 51.6603 22.4765 51.2466C21.1652 50.8315 19.7658 51.5591 19.352 52.8704L17.5622 58.5357L14.1615 53.8782C13.6141 53.1298 12.6971 52.7472 11.7789 52.8847C10.8619 53.0234 10.098 53.659 9.79578 54.5357L7.91773 59.9883L4.53907 55.1025C3.75698 53.9716 2.20578 53.6888 1.0748 54.4709C-0.0561736 55.253 -0.338918 56.8042 0.443168 57.9352L6.62204 66.8702C7.09155 67.5485 7.85937 67.9441 8.66999 67.9441ZM75.7673 21.247C80.1148 21.247 83.6504 17.7114 83.6504 13.3639C83.6504 9.01634 80.1148 5.48072 75.7673 5.48072C71.4198 5.48072 67.8829 9.01634 67.8829 13.3639C67.8829 17.7114 71.4198 21.247 75.7673 21.247ZM75.7673 10.4612C77.3678 10.4612 78.6699 11.7634 78.6699 13.3639C78.6699 14.9657 77.3678 16.2678 75.7673 16.2678C74.1668 16.2678 72.8633 14.9657 72.8633 13.3639C72.8633 11.7634 74.1668 10.4612 75.7673 10.4612ZM140.747 66.8326C141.51 67.9765 143.057 68.2852 144.2 67.5226L150.307 63.4487L155.436 68.3566C155.915 68.8144 156.535 69.0479 157.159 69.0479C157.665 69.0479 158.174 68.8935 158.611 68.5796L168.963 61.1427C170.081 60.3398 170.335 58.7834 169.532 57.6667C168.73 56.55 167.174 56.2958 166.057 57.0973L157.384 63.3281L152.307 58.4695C151.462 57.6628 150.173 57.55 149.203 58.1972L141.435 63.38C140.293 64.1426 139.984 65.6899 140.747 66.8326ZM107.506 20.5622C107.602 20.5739 107.697 20.5791 107.791 20.5791C109.04 20.5791 110.118 19.6413 110.262 18.3716L110.588 15.5299L114.642 15.1823C116.012 15.0642 117.027 13.858 116.91 12.4884C116.792 11.1175 115.585 10.1006 114.217 10.22L111.165 10.4819L111.425 8.19274L118.464 7.56111C119.834 7.43789 120.844 6.22779 120.721 4.85816C120.598 3.48853 119.392 2.48077 118.018 2.60009L108.96 3.41331C107.782 3.51966 106.842 4.43664 106.708 5.61042L105.314 17.8061C105.158 19.1718 106.14 20.4066 107.506 20.5622ZM47.2399 18.0486C47.7081 18.7244 48.476 19.1186 49.284 19.1186C49.3968 19.1186 49.511 19.1109 49.6238 19.0953C50.5525 18.9669 51.3307 18.3288 51.638 17.4429L53.5783 11.8438L57.0828 16.6232C57.6379 17.3794 58.5666 17.7594 59.4939 17.6076C60.4187 17.4559 61.18 16.7983 61.464 15.9047L64.7506 5.56892C65.167 4.25895 64.4419 2.85819 63.132 2.44186C61.822 2.02552 60.4213 2.74925 60.0036 4.06051L58.2021 9.72709L54.7884 5.07087C54.2411 4.3251 53.3254 3.94378 52.4084 4.08126C51.4928 4.21874 50.7301 4.85427 50.4266 5.72845L48.5356 11.1836L45.144 6.29913C44.3593 5.16944 42.8081 4.88929 41.6784 5.67397C40.5488 6.45866 40.2686 8.00987 41.0533 9.13955L47.2399 18.0486ZM92.7955 19.3339C97.143 19.3339 100.679 15.797 100.679 11.4508C100.679 7.10327 97.1417 3.56635 92.7955 3.56635C88.448 3.56635 84.9124 7.10327 84.9124 11.4508C84.9124 15.797 88.448 19.3339 92.7955 19.3339ZM92.7955 8.54682C94.396 8.54682 95.6982 9.84901 95.6982 11.4508C95.6982 13.0513 94.396 14.3535 92.7955 14.3535C91.195 14.3535 89.8928 13.0513 89.8928 11.4508C89.8928 9.84901 91.195 8.54682 92.7955 8.54682ZM17.5025 72.2748C13.155 72.2748 9.61809 75.8104 9.61809 80.1579C9.61809 84.5055 13.155 88.0424 17.5025 88.0424C21.8487 88.0424 25.3856 84.5055 25.3856 80.1579C25.3856 75.8104 21.85 72.2748 17.5025 72.2748ZM17.5025 83.0619C15.902 83.0619 14.5985 81.7597 14.5985 80.1579C14.5985 78.5574 15.9007 77.2552 17.5025 77.2552C19.103 77.2552 20.4052 78.5574 20.4052 80.1579C20.4052 81.7584 19.103 83.0619 17.5025 83.0619ZM150.771 118.808C146.778 118.808 143.47 121.794 142.959 125.651C141.513 124.018 139.404 122.986 137.057 122.986C132.709 122.986 129.174 126.522 129.174 130.869C129.174 132.874 129.927 134.706 131.163 136.097C130.813 135.964 130.429 135.903 130.031 135.942C128.661 136.075 127.66 137.293 127.794 138.662L128.371 144.58L123.398 141.646C122.6 141.176 121.608 141.187 120.821 141.674C120.034 142.161 119.582 143.045 119.648 143.969L120.061 149.728L115.018 146.575C113.852 145.846 112.315 146.2 111.586 147.366C110.857 148.532 111.211 150.069 112.377 150.798L121.573 156.547C121.977 156.8 122.436 156.926 122.893 156.926C123.338 156.926 123.782 156.808 124.177 156.569C124.98 156.087 125.445 155.193 125.377 154.258L124.954 148.348L130.059 151.358C130.866 151.835 131.873 151.817 132.662 151.314C133.454 150.809 133.893 149.905 133.802 148.971L132.751 138.178C132.719 137.857 132.626 137.558 132.489 137.288C133.779 138.208 135.355 138.752 137.057 138.752C141.05 138.752 144.357 135.767 144.87 131.909C146.316 133.542 148.425 134.575 150.772 134.575C155.119 134.575 158.655 131.039 158.655 126.692C158.655 122.345 155.119 118.808 150.771 118.808ZM137.057 133.773C135.456 133.773 134.154 132.471 134.154 130.869C134.154 129.269 135.456 127.967 137.057 127.967C138.657 127.967 139.959 129.269 139.959 130.869C139.959 132.471 138.657 133.773 137.057 133.773ZM150.771 129.596C149.171 129.596 147.868 128.293 147.868 126.693C147.868 125.091 149.171 123.789 150.771 123.789C152.373 123.789 153.675 125.091 153.675 126.693C153.675 128.293 152.373 129.596 150.771 129.596ZM161.24 86.7104L151.231 87.7778L145.901 81.6158C145.307 80.9283 144.385 80.6184 143.496 80.809L137.338 82.1281C135.993 82.416 135.137 83.7389 135.425 85.0839C135.713 86.4289 137.036 87.2875 138.381 86.9983L143.097 85.9879L148.316 92.0203C148.792 92.5715 149.481 92.8815 150.199 92.8815C150.287 92.8815 150.375 92.8776 150.464 92.8685L161.768 91.6636C163.137 91.517 164.126 90.2914 163.981 88.923C163.834 87.556 162.611 86.5664 161.24 86.7104ZM119.877 47.6279C119.154 46.4568 117.62 46.0923 116.45 46.8134L110.326 50.5877C109.154 51.3088 108.79 52.8432 109.511 54.0144C109.982 54.777 110.798 55.1985 111.634 55.1985C112.079 55.1985 112.531 55.0792 112.938 54.8276L113.218 54.6551C113.214 54.7057 113.21 54.7549 113.21 54.8055V58.4436C113.21 59.8197 114.324 60.9338 115.7 60.9338C117.075 60.9338 118.191 59.8197 118.191 58.4436V54.8055C118.191 53.7809 117.571 52.9002 116.685 52.5189L119.062 51.0546C120.233 50.3335 120.598 48.7991 119.877 47.6279ZM161.473 116.157L159.169 114.462L160.884 110.771C161.463 109.525 160.923 108.043 159.676 107.464C158.43 106.884 156.947 107.425 156.368 108.672L155.077 111.451L153.221 110.085L156.173 103.666C156.749 102.416 156.202 100.937 154.951 100.363C153.702 99.788 152.224 100.335 151.649 101.584L147.848 109.847C147.355 110.921 147.683 112.194 148.634 112.894L158.521 120.169C158.964 120.496 159.482 120.653 159.994 120.653C160.759 120.653 161.514 120.303 162.002 119.639C162.817 118.531 162.58 116.972 161.473 116.157ZM169.941 75.8934C169.64 74.5523 168.309 73.708 166.967 74.0076L158.1 75.9894L150.872 71.1775C150.274 70.778 149.534 70.6587 148.839 70.8468L142.164 72.6626C140.837 73.0231 140.054 74.3928 140.415 75.7196C140.776 77.0464 142.145 77.8285 143.472 77.4693L149.055 75.9505L156.226 80.7247C156.639 80.9997 157.12 81.1423 157.606 81.1423C157.788 81.1423 157.971 81.1229 158.15 81.0827L168.053 78.8674C169.396 78.5678 170.24 77.2358 169.941 75.8934ZM118.907 123.047C127.104 122.833 135.157 119.771 141.774 114.3C145.818 110.956 146.388 104.945 143.044 100.9C139.7 96.8555 133.687 96.2861 129.643 99.6297C128.727 100.387 125.853 102.557 121.947 103.545C121.899 103.056 121.816 102.569 121.696 102.084C124.704 100.086 127.277 97.7724 129.39 95.1486C135.439 87.639 137.374 77.8804 134.985 66.9286C133.695 61.0091 131.799 55.6615 129.315 50.9042C130.928 51.9314 132.764 52.4385 134.595 52.4385C137.345 52.4385 140.081 51.2971 142.028 49.0676C143.761 47.0845 144.615 44.545 144.438 41.9173C144.26 39.2895 143.069 36.8888 141.086 35.1573L135.149 29.9745C130.445 25.8669 124.419 23.4506 118.18 23.1718C112.463 22.9163 106.75 24.4727 101.942 27.5686C96.3531 25.758 90.2093 24.8449 83.5492 24.8449C76.8879 24.8449 70.744 25.758 65.154 27.5686C60.3473 24.4727 54.6354 22.9163 48.9169 23.1718C42.6784 23.4506 36.6513 25.8669 31.9484 29.9732L26.0108 35.1573C21.9162 38.7318 21.4933 44.973 25.0692 49.0676C27.0159 51.2971 29.7513 52.4385 32.5022 52.4385C34.3323 52.4385 36.1688 51.9301 37.7823 50.9042C35.2985 55.6602 33.4023 61.0091 32.1118 66.9286C30.654 73.6107 30.7902 79.8272 32.5165 85.4082C32.9224 86.722 34.3167 87.4587 35.6306 87.0515C36.9444 86.6455 37.6811 85.2499 37.2738 83.9361C35.8057 79.1865 35.7058 73.8221 36.9768 67.9895C39.2946 57.3632 43.6966 48.8004 49.9351 42.497C50.1141 42.3621 50.2736 42.2026 50.4085 42.0262C54.612 37.9173 59.6223 34.8084 65.3693 32.7566C65.5509 32.7151 65.7273 32.6541 65.8972 32.5724C71.1863 30.7579 77.0876 29.8254 83.5479 29.8254C90.007 29.8254 95.9083 30.7566 101.197 32.5711C101.367 32.6541 101.546 32.7151 101.729 32.7579C107.475 34.8084 112.484 37.9173 116.686 42.0249C116.822 42.2026 116.982 42.3621 117.162 42.497C123.401 48.8004 127.803 57.3632 130.119 67.9895C132.175 77.4174 130.582 85.7285 125.511 92.0242C123.432 94.6065 120.808 96.849 117.678 98.7439C117.677 98.7439 117.676 98.7452 117.674 98.7452C117.497 98.823 117.333 98.9229 117.183 99.0344C109.074 103.768 97.6787 106.233 83.5479 106.233C69.4185 106.233 57.9933 103.754 49.8689 98.9994C49.7613 98.9229 49.6446 98.8554 49.5226 98.7958C46.6861 97.0928 44.2594 95.1097 42.2763 92.8477C41.3697 91.8127 39.7965 91.709 38.7628 92.6169C37.7291 93.5222 37.6253 95.0967 38.5319 96.1304C40.4774 98.3496 42.7757 100.331 45.4021 102.073C45.1194 103.217 45.0376 104.382 45.1453 105.523C42.9145 104.571 40.9223 102.788 38.72 99.8736C37.187 97.8451 34.9548 96.5351 32.4374 96.1849C29.9199 95.8347 27.4154 96.4871 25.3869 98.0202C23.3584 99.5532 22.0485 101.784 21.6983 104.303C21.3481 106.822 22.0005 109.325 23.5335 111.353C26.1521 114.818 33.925 125.089 49.0376 125.418C49.5719 126.742 50.1971 128.027 50.9039 129.269C48.5758 130.081 46.0298 129.891 41.5656 128.068C39.5604 127.249 37.3556 127.26 35.3569 128.099C33.3582 128.938 31.807 130.506 30.9886 132.511C29.2973 136.653 31.2908 141.398 35.4321 143.09C40.3335 145.091 44.2698 145.983 48.1958 145.983C52.2917 145.983 56.2112 144.968 60.0866 142.9C60.4407 146.482 60.3084 150.355 58.9712 155.849C58.3707 158.32 58.7676 160.877 60.0892 163.048C61.4122 165.22 63.5003 166.747 65.9698 167.349C66.7104 167.529 67.4691 167.62 68.2253 167.62C72.626 167.62 76.4274 164.63 77.4689 160.35C78.5973 155.709 79.1913 151.363 79.2691 147.148C80.6738 147.297 82.1005 147.376 83.5479 147.376C85.7074 147.376 87.8241 147.204 89.8837 146.877C89.9732 149.503 89.5789 152.43 88.6697 156.028C88.0472 158.493 88.422 161.053 89.7242 163.236C91.0277 165.42 93.1016 166.965 95.5672 167.587C96.3337 167.78 97.1197 167.879 97.9043 167.879C100.576 167.879 103.143 166.742 104.947 164.76C105.872 163.742 105.797 162.167 104.78 161.241C103.763 160.316 102.187 160.39 101.261 161.408C100.148 162.634 98.4102 163.168 96.7876 162.758C95.6113 162.461 94.6216 161.725 94.0017 160.685C93.3804 159.643 93.2014 158.423 93.4985 157.248C94.6307 152.768 95.0535 149.124 94.8123 145.765C97.9095 144.855 100.828 143.58 103.507 141.996C104.086 145.436 104.109 148.97 103.59 152.884C103.41 154.248 104.369 155.499 105.732 155.679C105.843 155.695 105.953 155.702 106.062 155.702C107.292 155.702 108.362 154.791 108.528 153.538C109.217 148.336 109.03 143.529 107.96 138.9C113.112 134.724 116.97 129.251 118.907 123.047ZM50.0181 35.741C49.0531 36.5269 48.1284 37.3557 47.2309 38.2143C45.166 38.6955 43.2465 39.6735 41.6408 41.0755L35.7045 46.2583C33.6773 48.0287 30.5892 47.8186 28.8201 45.7927C27.051 43.7655 27.2611 40.6786 29.287 38.9082L35.2233 33.7254C39.0806 30.3571 44.0234 28.3766 49.1387 28.147C52.5615 27.994 55.983 28.6347 59.1152 29.9784C55.8533 31.5439 52.817 33.466 50.0181 35.741ZM119.865 38.2143C118.969 37.3557 118.044 36.5256 117.079 35.741C114.28 33.466 111.245 31.5439 107.982 29.9784C111.117 28.6347 114.538 27.994 117.957 28.147C123.074 28.3753 128.015 30.3571 131.874 33.7254L137.81 38.9082C138.792 39.7655 139.381 40.9536 139.469 42.2532C139.557 43.5528 139.133 44.8096 138.276 45.7914C136.507 47.8186 133.42 48.0274 131.393 46.2583L125.456 41.0742C123.851 39.6735 121.931 38.6955 119.865 38.2143ZM120.115 110.536C120.499 109.984 120.83 109.397 121.1 108.787C126.883 107.911 131.157 104.84 132.815 103.468C134.745 101.874 137.612 102.146 139.206 104.073C140.8 106.002 140.527 108.868 138.6 110.462C133.181 114.942 126.676 117.57 120.022 118.017C120.205 116.668 120.299 115.295 120.299 113.902C120.301 112.784 120.237 111.656 120.115 110.536ZM27.5075 108.351C26.776 107.383 26.466 106.19 26.632 104.989C26.7993 103.788 27.4232 102.724 28.3907 101.994C29.3583 101.263 30.5515 100.951 31.7526 101.119C32.9523 101.285 34.0158 101.91 34.7473 102.877C37.4879 106.504 41.0624 110.244 46.9235 111.165C46.8418 112.077 46.7964 112.993 46.7964 113.901C46.7964 116.108 47.0337 118.266 47.4838 120.354C35.877 119.41 29.8823 111.492 27.5075 108.351ZM117.013 104.763C116.966 106.001 116.495 107.199 115.674 108.142C115.671 108.146 115.665 108.152 115.661 108.158C115.288 108.582 114.847 108.958 114.337 109.257C110.684 111.401 106.794 113.16 102.751 114.502C101.503 112.679 99.7668 111.217 97.7344 110.3C105.142 109.285 111.603 107.429 117.013 104.763ZM92.7955 114.218C96.6994 114.218 99.8758 117.395 99.8758 121.299C99.8758 125.203 96.6994 128.379 92.7955 128.379C88.8915 128.379 85.7152 125.203 85.7152 121.299C85.7152 117.395 88.8915 114.218 92.7955 114.218ZM50.0842 104.753C58.7196 109.007 70.0268 111.213 83.5479 111.213C84.4584 111.213 85.3546 111.2 86.2444 111.181C83.9526 112.668 82.1965 114.912 81.3314 117.558C71.2576 117.192 61.4187 114.34 52.7586 109.257C52.2489 108.958 51.8079 108.582 51.4344 108.156C51.4305 108.151 51.4266 108.147 51.4227 108.142C50.5991 107.196 50.127 105.995 50.0842 104.753ZM48.1971 141.004C44.9469 141.004 41.5915 140.226 37.3153 138.479C35.7162 137.826 34.947 135.994 35.5994 134.396C35.9159 133.62 36.5151 133.016 37.2868 132.691C38.0585 132.367 38.9094 132.363 39.6837 132.68C43.8691 134.388 48.3826 135.811 53.7469 133.467C55.101 135.174 56.6263 136.76 58.3007 138.204C54.9635 140.084 51.6367 141.004 48.1971 141.004ZM72.6299 159.172C72.1344 161.214 70.3225 162.639 68.2266 162.639C67.866 162.639 67.5028 162.595 67.1475 162.509C65.9698 162.223 64.975 161.494 64.3447 160.459C63.7143 159.424 63.525 158.205 63.8116 157.027C65.2603 151.071 65.4315 146.73 65.084 142.835C67.9347 144.35 71.0281 145.527 74.2965 146.301C74.2939 150.402 73.7569 154.543 72.6299 159.172ZM83.5479 142.396C66.2253 142.396 52.0972 129.896 51.7846 114.426C60.669 119.319 70.6169 122.094 80.7957 122.517C81.4079 128.598 86.5557 133.359 92.7955 133.359C99.4452 133.359 104.856 127.95 104.856 121.299C104.856 120.553 104.784 119.823 104.654 119.113C108.344 117.867 111.914 116.3 115.313 114.428C114.997 129.898 100.871 142.396 83.5479 142.396ZM11.6077 108.798C15.9552 108.798 19.4921 105.263 19.4921 100.915C19.4921 96.5675 15.9552 93.0306 11.6077 93.0306C7.26146 93.0306 3.72456 96.5675 3.72456 100.915C3.72456 105.263 7.26146 108.798 11.6077 108.798ZM11.6077 98.0111C13.2095 98.0111 14.5116 99.3133 14.5116 100.915C14.5116 102.516 13.2095 103.818 11.6077 103.818C10.0072 103.818 8.70501 102.516 8.70501 100.915C8.70501 99.3146 10.0072 98.0111 11.6077 98.0111ZM17.4143 115.134L8.35612 115.947C7.17974 116.052 6.23813 116.971 6.10454 118.144L4.71027 130.339C4.55463 131.706 5.53646 132.941 6.90219 133.096C6.99817 133.107 7.09414 133.112 7.18753 133.112C8.43653 133.112 9.51433 132.175 9.65959 130.904L9.98384 128.063L14.0382 127.715C15.4092 127.598 16.4247 126.392 16.3067 125.021C16.1887 123.651 14.985 122.638 13.6128 122.753L10.561 123.015L10.823 120.725L17.8605 120.094C19.2301 119.971 20.2405 118.762 20.1185 117.391C19.994 116.021 18.7852 115.013 17.4143 115.134ZM78.6336 86.3718C78.6336 93.0228 84.9863 98.4326 92.7955 98.4326C100.605 98.4326 106.957 93.0228 106.957 86.3718C106.957 80.4459 101.911 75.5069 95.2857 74.5017V72.1736C95.6074 72.075 95.9251 71.9583 96.2351 71.8208L101.427 69.5122C102.994 68.8144 104.164 67.4681 104.633 65.8183C105.104 64.1672 104.82 62.4072 103.855 60.9883C102.664 59.2361 100.878 57.9754 98.8278 57.4384C94.881 56.4047 90.7086 56.4047 86.7606 57.4384C84.7113 57.9754 82.9267 59.2361 81.7347 60.9883C80.7698 62.4072 80.4857 64.1672 80.9565 65.8183C81.4273 67.4681 82.5959 68.8144 84.164 69.5122L89.3546 71.8208C89.6658 71.9583 89.9823 72.075 90.304 72.1736V74.5017C83.6802 75.5069 78.6336 80.4459 78.6336 86.3718ZM86.1873 64.961C85.8916 64.83 85.7839 64.5862 85.7463 64.4526C85.7087 64.319 85.6711 64.0557 85.8527 63.7885C86.3676 63.0311 87.138 62.4876 88.0226 62.2555C89.5841 61.8469 91.1898 61.6433 92.7955 61.6433C94.4012 61.6433 96.0068 61.8482 97.5671 62.2555C98.4517 62.4876 99.2221 63.0324 99.737 63.7872C99.9186 64.0557 99.8822 64.319 99.8433 64.4526C99.8057 64.5862 99.6981 64.8287 99.4024 64.961L94.2118 67.2697C93.3117 67.6704 92.278 67.6704 91.3779 67.2697L86.1873 64.961ZM92.7955 79.2915C97.8576 79.2915 101.977 82.4679 101.977 86.3718C101.977 90.2758 97.8576 93.4521 92.7955 93.4521C87.732 93.4521 83.6141 90.2758 83.6141 86.3718C83.6141 82.4679 87.732 79.2915 92.7955 79.2915ZM73.958 55.1972C74.7932 55.1972 75.609 54.777 76.0798 54.0131C76.801 52.8432 76.4365 51.3088 75.2666 50.5877L69.1422 46.8134C67.9698 46.0923 66.4367 46.4568 65.7156 47.6279C64.9945 48.7978 65.3589 50.3322 66.5288 51.0533L68.9062 52.5176C68.0216 52.9002 67.4017 53.7796 67.4017 54.8055V58.4436C67.4017 59.8184 68.5158 60.9338 69.8919 60.9338C71.2667 60.9338 72.3821 59.8184 72.3821 58.4436V54.8055C72.3821 54.7549 72.3769 54.7044 72.3743 54.6551L72.6532 54.8276C73.0605 55.0792 73.5118 55.1972 73.958 55.1972Z" fill="black"/>
</g>
<defs>
<clipPath id="clip0_223_14202">
<rect width="170" height="170" fill="white"/>
</clipPath>
</defs>
</svg>
