<svg width="66" height="66" viewBox="0 0 66 66" fill="none" xmlns="http://www.w3.org/2000/svg">
<g clip-path="url(#clip0_1591_24846)">
<path d="M20.3203 41.8801C15.9556 41.8801 13.7073 40.6577 10.0259 37.5564C8.8904 36.5998 8.74387 34.9016 9.69858 33.7638C10.6538 32.6256 12.3482 32.4788 13.4837 33.4359C16.8685 36.287 17.9551 36.6805 21.7886 36.4469C23.2645 36.3586 24.5434 37.4862 24.6336 38.97C24.7242 40.4539 23.5968 41.7303 22.1154 41.8211C21.4774 41.8595 20.8812 41.8801 20.3203 41.8801Z" fill="#DDAF89"/>
<path d="M13.2654 31.0757L16.5958 33.8753C17.1004 34.3001 17.1663 35.0539 16.7428 35.5599L13.0479 39.972C12.6244 40.478 11.8716 40.5436 11.3665 40.1193L8.03613 37.3192L13.2654 31.0757Z" fill="#DEE2E5"/>
<path d="M3.05314 27.81C-0.325616 31.8446 0.809867 34.0757 3.64329 36.4575C6.4762 38.8399 9.36854 38.4817 12.0036 35.3349C14.6386 32.1882 14.4885 29.2721 11.6556 26.8902C8.8222 24.5083 6.43189 23.7753 3.05314 27.81Z" fill="#CD5B6D"/>
<path d="M19.2239 51.3854C17.9847 51.3854 16.7072 51.0998 15.3441 50.5418C14.2454 50.0923 13.7182 48.835 14.1668 47.7341C14.616 46.6332 15.8703 46.105 16.9695 46.5545C18.9872 47.3804 20.8226 47.7028 24.4909 43.8165C25.3062 42.9522 26.6667 42.9139 27.5293 43.7317C28.3918 44.5485 28.4296 45.9118 27.6139 46.7755C24.6616 49.9036 22.0437 51.3854 19.2239 51.3854Z" fill="#495059"/>
<path d="M26.5724 58.3822C25.1222 58.3822 23.9273 57.2238 23.888 55.7622C23.812 52.8985 23.889 51.3072 23.9948 49.105C24.026 48.4637 24.0592 47.7659 24.0925 46.9632C24.1544 45.4779 25.4082 44.3276 26.8881 44.3851C28.3705 44.4467 29.5226 45.7004 29.4612 47.1862C29.4275 48.0026 29.3932 48.7124 29.3615 49.3648C29.2578 51.5277 29.1888 52.9565 29.2598 55.6184C29.2991 57.1047 28.1288 58.3413 26.6459 58.3812C26.6212 58.3817 26.5966 58.3822 26.5724 58.3822Z" fill="#DDAF89"/>
<path d="M39.4336 58.3821C39.4095 58.3821 39.3853 58.3816 39.3606 58.3811C37.8772 58.3413 36.707 57.1042 36.7467 55.6183C36.8177 52.9565 36.7487 51.5276 36.6445 49.3647C36.6133 48.7119 36.5791 48.0025 36.5453 47.1857C36.4839 45.7004 37.636 44.4466 39.1184 44.3846C40.6064 44.3281 41.8521 45.4774 41.9141 46.9632C41.9468 47.7659 41.9805 48.4631 42.0117 49.1049C42.1175 51.3072 42.1945 52.8979 42.118 55.7616C42.0787 57.2237 40.8843 58.3821 39.4336 58.3821Z" fill="#DDAF89"/>
<path d="M45.6856 41.8801C45.1246 41.8801 44.5289 41.8599 43.8904 41.8206C42.409 41.7303 41.2821 40.4538 41.3722 38.97C41.4624 37.4862 42.7373 36.3576 44.2172 36.4469C48.0517 36.6815 49.1373 36.2869 52.5221 33.4354C53.6576 32.4788 55.3525 32.6256 56.3072 33.7638C57.262 34.9015 57.1154 36.5992 55.9799 37.5563C52.2991 40.6576 50.0497 41.8801 45.6856 41.8801Z" fill="#DDAF89"/>
<path d="M52.7409 31.0757L49.4105 33.8753C48.9059 34.3001 48.84 35.0539 49.2634 35.5599L52.9584 39.972C53.3824 40.478 54.1347 40.5436 54.6397 40.1193L57.9702 37.3192L52.7409 31.0757Z" fill="#DEE2E5"/>
<path d="M62.9533 27.81C66.332 31.8446 65.1965 34.0757 62.3636 36.4575C59.5302 38.8399 56.6379 38.4817 54.0028 35.3349C51.3678 32.1882 51.5179 29.2721 54.3508 26.8902C57.1842 24.5083 59.5745 23.7753 62.9533 27.81Z" fill="#CD5B6D"/>
<path d="M47.5597 36.3632C46.6478 36.5337 45.6156 36.5322 44.2172 36.4469C42.7373 36.3576 41.4624 37.4857 41.3722 38.97C41.2821 40.4539 42.409 41.7303 43.8904 41.8206C44.5289 41.8595 45.1246 41.8796 45.6856 41.8796C46.2369 41.8796 46.7541 41.86 47.245 41.8196C47.5587 40.7253 47.7264 39.577 47.7264 38.3939C47.7264 37.7037 47.6695 37.0256 47.5597 36.3632Z" fill="#D1A582"/>
<path d="M21.789 36.4469C20.3906 36.5322 19.3584 36.5332 18.446 36.3627C18.3367 37.0251 18.2793 37.7037 18.2793 38.3939C18.2793 39.577 18.447 40.7253 18.7607 41.8196C19.2516 41.86 19.7688 41.8797 20.3201 41.8797C20.8816 41.8797 21.4773 41.8595 22.1158 41.8206C23.5967 41.7303 24.7241 40.4539 24.634 38.9701C24.5433 37.4862 23.2643 36.3581 21.789 36.4469Z" fill="#D1A582"/>
<path d="M46.0999 38.3939C46.0999 31.8396 40.2362 26.5265 33.0028 26.5265C25.7695 26.5265 19.9058 31.8396 19.9058 38.3939C19.9058 44.9482 25.7695 50.2614 33.0028 50.2614C40.2362 50.2614 46.0999 44.9482 46.0999 38.3939Z" fill="#DDAF89"/>
<path d="M44.8324 30.774C41.6224 33.443 37.5004 35.0479 33.0033 35.0479C28.5067 35.0479 24.3842 33.443 21.1746 30.774C20.4918 31.66 19.9233 32.6241 19.4918 33.6503C18.9036 35.0489 19.4459 36.6694 20.7516 37.4373C24.3469 39.5518 28.5333 40.7652 33.0033 40.7652C37.4732 40.7652 41.6601 39.5518 45.2549 37.4373C46.5611 36.6694 47.1029 35.0489 46.5153 33.6503C46.0837 32.6241 45.5147 31.66 44.8324 30.774Z" fill="#7F9AE6"/>
<path d="M27.0383 34.0641C24.8771 33.3285 22.8947 32.2044 21.1746 30.774C20.4918 31.66 19.9233 32.6241 19.4918 33.6503C18.9036 35.0489 19.4459 36.6694 20.7516 37.4373C22.6213 38.5367 24.6515 39.3898 26.7971 39.9584C26.0101 38.3752 26.2332 35.9984 27.0383 34.0641Z" fill="#5E78BF"/>
<path d="M28.2048 16.3285C27.6846 16.3285 27.1599 16.17 26.7073 15.8406L23.5677 13.5556C22.1925 12.5546 20.3385 12.6378 19.0585 13.7579L17.0025 15.556C15.9411 16.4849 14.3292 16.3754 13.4022 15.3113C12.4757 14.2478 12.585 12.6328 13.6464 11.704L15.7019 9.90584C17.1843 8.60921 19.0832 7.84637 21.0495 7.75808C23.0153 7.67029 24.9746 8.25958 26.5668 9.41847L29.7063 11.7035C30.8464 12.5329 31.0991 14.1317 30.2713 15.2745C29.7718 15.9632 28.9938 16.3285 28.2048 16.3285Z" fill="#495059"/>
<path d="M37.8015 16.3285C37.012 16.3285 36.234 15.9632 35.735 15.2745C34.9067 14.1318 35.1595 12.5334 36.3 11.7035L39.4396 9.41851C41.0313 8.25961 42.9915 7.67083 44.9569 7.75811C46.9227 7.84641 48.8215 8.60925 50.3039 9.90588L52.3594 11.7045C53.4209 12.6328 53.5306 14.2478 52.6036 15.3114C51.6766 16.3754 50.0648 16.4849 49.0033 15.5561L46.9473 13.7574C45.6673 12.6379 43.8133 12.5546 42.4381 13.5556L39.2986 15.8406C38.8459 16.1701 38.3212 16.3285 37.8015 16.3285Z" fill="#495059"/>
<path d="M33.0032 36.5776C45.9568 36.5776 51.7943 30.6323 49.9725 22.2607C48.0147 13.2645 41.8479 8.33984 33.0032 8.33984C24.159 8.33984 17.9922 13.2645 16.0344 22.2607C14.2126 30.6323 20.0501 36.5776 33.0032 36.5776Z" fill="#DDAF89"/>
<path d="M21.1045 47.2085V53.4459C21.1045 54.1482 21.6846 54.7173 22.4006 54.7173H29.6737C30.3898 54.7173 30.9699 54.1482 30.9699 53.4459V52.1145C30.9699 51.4616 31.5096 50.9324 32.1753 50.9324H33.8315C34.4971 50.9324 35.0369 51.4616 35.0369 52.1145V53.4459C35.0369 54.1482 35.617 54.7173 36.3326 54.7173H43.6062C44.3217 54.7173 44.9023 54.1482 44.9023 53.4459V47.2085H21.1045Z" fill="#CD5B6D"/>
<path d="M44.9023 47.2084H21.1045V44.5461C21.1045 44.2206 21.3673 43.9573 21.6921 43.9573H44.3147C44.639 43.9573 44.9023 44.2206 44.9023 44.5461V47.2084Z" fill="#495059"/>
<path d="M36.6617 41.2273C36.6617 43.2519 35.0237 44.8927 33.0029 44.8927C30.9827 44.8927 29.3447 43.2519 29.3447 41.2273C29.3447 39.2026 30.9827 37.5614 33.0029 37.5614C35.0237 37.5614 36.6617 39.2026 36.6617 41.2273Z" fill="#F6E06A"/>
<path d="M26.3247 23.9412C26.3247 22.3116 24.6696 20.9907 22.6272 20.9907C20.5848 20.9907 18.9292 22.3116 18.9292 23.9412C18.9292 25.5708 20.5848 26.8917 22.6272 26.8917C24.6696 26.8917 26.3247 25.5708 26.3247 23.9412Z" fill="#FFDBDB"/>
<path d="M47.0776 23.9412C47.0776 22.3116 45.422 20.9907 43.3796 20.9907C41.3373 20.9907 39.6816 22.3116 39.6816 23.9412C39.6816 25.5708 41.3373 26.8917 43.3796 26.8917C45.422 26.8917 47.0776 25.5708 47.0776 23.9412Z" fill="#FFDBDB"/>
<path d="M34.9422 21.5023C33.6707 21.1688 32.3353 21.1688 31.0639 21.5023C30.5372 21.6406 30.0785 21.965 29.7723 22.416C29.3589 23.025 29.5966 23.8605 30.2683 24.1597L32.1314 24.9901C32.6863 25.2373 33.3197 25.2373 33.8746 24.9901L35.7377 24.1597C36.4095 23.8605 36.6471 23.025 36.2337 22.416C35.9276 21.965 35.4689 21.6406 34.9422 21.5023Z" fill="#495059"/>
<path d="M26.3809 17.0252L23.91 16.5005C23.3879 16.389 22.8748 16.724 22.764 17.2467C22.6532 17.7699 22.987 18.284 23.5087 18.3955L25.9801 18.9202C26.0476 18.9343 26.115 18.9414 26.1815 18.9414C26.6286 18.9414 27.03 18.6291 27.1261 18.1735C27.2369 17.6503 26.9031 17.1362 26.3809 17.0252ZM63.6937 27.1874C61.8835 25.026 60.2218 24.0053 58.464 23.9756C58.4378 23.975 58.4121 23.9745 58.3864 23.9745C56.5631 23.9745 55.0102 25.0714 53.7292 26.148C52.0997 27.5183 51.2351 29.0778 51.1606 30.7831C51.1551 30.9027 51.1551 31.0223 51.1576 31.1423L48.7889 33.1337C48.1585 33.664 47.9072 34.4808 48.0649 35.2371C47.9385 35.2784 47.8106 35.3158 47.6791 35.3481C47.7632 34.7224 47.7018 34.0726 47.4752 33.4521C48.0246 32.9844 48.5201 32.4783 48.9581 31.9334C51.0735 29.3023 51.7503 25.8862 50.9164 22.0543C50.4949 20.1164 49.8846 18.3556 49.0961 16.774C49.5946 17.0262 50.1374 17.1539 50.6792 17.1539C51.6606 17.1534 52.6375 16.7457 53.3319 15.9486C53.9502 15.2392 54.2554 14.3315 54.1919 13.3916C54.1285 12.4522 53.7035 11.594 52.9955 10.9744L50.9401 9.17631C49.2935 7.73589 47.1842 6.88879 45.0003 6.79041C43.0149 6.7006 41.0319 7.23843 39.3581 8.306C37.4245 7.68443 35.3021 7.37112 33.003 7.37112C30.7038 7.37112 28.5814 7.68443 26.6483 8.306C24.9745 7.23843 22.9916 6.7001 21.0061 6.79041C18.8223 6.88879 16.7124 7.73589 15.0664 9.17631L13.0104 10.9744C12.3029 11.594 11.8779 12.4522 11.8145 13.3916C11.751 14.331 12.0562 15.2392 12.6745 15.9486C13.3689 16.7457 14.3453 17.1539 15.3267 17.1534C15.869 17.1534 16.4118 17.0262 16.9103 16.774C16.1218 18.3556 15.5115 20.1164 15.0895 22.0543C14.2557 25.8862 14.9329 29.3023 17.0478 31.9334C17.4859 32.4783 17.9819 32.9844 18.5307 33.4521C18.3041 34.0726 18.2427 34.7224 18.3273 35.3481C18.1959 35.3158 18.068 35.2784 17.9416 35.2371C18.0987 34.4808 17.8474 33.664 17.217 33.1337L14.8483 31.1423C14.8508 31.0223 14.8508 30.9027 14.8458 30.7831C14.7708 29.0778 13.9067 27.5188 12.2767 26.148C10.9776 25.0557 9.39952 23.9448 7.54246 23.9756C5.7846 24.0053 4.12242 25.026 2.31269 27.1874C-0.792639 30.8956 -0.771994 33.722 2.38218 36.6376C2.77494 37.0004 3.38624 36.9757 3.74829 36.5826C4.11033 36.1896 4.08566 35.5766 3.6934 35.2139C1.65406 33.3284 1.06593 31.6892 3.7936 28.4325C5.19747 26.756 6.43467 25.9316 7.57519 25.9119C8.53544 25.8912 9.59993 26.4265 11.034 27.6318C12.4344 28.8094 13.0512 30.0768 12.8896 31.4597C12.8891 31.4627 12.8885 31.4657 12.888 31.4688C12.7667 32.4844 12.2259 33.562 11.2631 34.7124C9.85925 36.3884 8.42164 37.1654 6.98857 37.0206C6.45733 36.9691 5.9835 37.3556 5.93013 37.8878C5.87675 38.4201 6.26448 38.8949 6.79521 38.9484C6.979 38.9665 7.16178 38.9761 7.34407 38.9761C7.69302 38.9761 8.03845 38.9413 8.38086 38.8737L10.745 40.8615C11.1488 41.2011 11.6418 41.3665 12.1317 41.3665C12.5028 41.3665 12.8714 41.2697 13.1997 41.0835C15.2179 42.254 17.2089 42.7822 19.8102 42.8418C19.9527 43.1949 20.1118 43.5421 20.2881 43.8821C20.1924 44.0839 20.1375 44.3079 20.1375 44.5456V45.9305C19.1783 46.263 18.3978 46.0929 17.3343 45.658C15.7436 45.0072 13.9213 45.7736 13.2717 47.3679C12.6222 48.9617 13.3876 50.7875 14.9782 51.4384C16.4838 52.0544 17.8726 52.3536 19.2236 52.3536C19.5282 52.3536 19.8334 52.3369 20.1375 52.3052V53.4459C20.1375 54.681 21.1526 55.6855 22.4004 55.6855H22.9196C22.9201 55.7198 22.9211 55.7531 22.9221 55.7874C22.975 57.7853 24.5787 59.3504 26.5728 59.3504C26.5964 59.3504 26.6201 59.3498 26.6443 59.3493H26.6453C26.6538 59.3493 26.6624 59.3493 26.6714 59.3488C27.6468 59.3231 28.5537 58.918 29.2249 58.2081C29.8911 57.5043 30.2456 56.584 30.2259 55.6154C31.2068 55.3707 31.9365 54.4923 31.9365 53.4459V52.1139C31.9365 51.9964 32.0432 51.9005 32.1746 51.9005H33.8313C33.9627 51.9005 34.07 51.9964 34.07 52.1139V53.4459C34.07 54.4918 34.7991 55.3707 35.7805 55.6154C35.7603 56.5845 36.1148 57.5043 36.781 58.2081C37.4527 58.918 38.3596 59.3231 39.335 59.3488C39.3435 59.3493 39.3526 59.3493 39.3612 59.3493H39.3617C39.3858 59.3498 39.41 59.3504 39.4337 59.3504C41.4277 59.3504 43.031 57.7853 43.0843 55.7874C43.0848 55.7531 43.0859 55.7198 43.0869 55.6855H43.606C44.5114 55.6855 45.3276 55.1532 45.6856 54.3293C45.8981 53.8389 45.674 53.2683 45.1841 53.0549C44.6947 52.8415 44.1252 53.0665 43.9122 53.5574C43.8739 53.6457 43.7707 53.7486 43.606 53.7486H36.3324C36.1506 53.7486 36.0031 53.6129 36.0031 53.4459V52.1139C36.0031 50.9283 35.0287 49.9637 33.8313 49.9637H32.1746C30.9772 49.9637 30.0029 50.9283 30.0029 52.1139V53.4459C30.0029 53.6129 29.8548 53.7486 29.6736 53.7486H22.3999C22.2181 53.7486 22.0706 53.6129 22.0706 53.4459V48.1771H43.9353V49.7104C43.9353 50.2452 44.3679 50.6786 44.9021 50.6786C45.4359 50.6786 45.8684 50.2452 45.8684 49.7104V44.5456C45.8684 44.3079 45.8135 44.0834 45.7184 43.8821C45.8941 43.5421 46.0532 43.1949 46.1957 42.8418C48.797 42.7822 50.788 42.254 52.8067 41.0835C53.135 41.2697 53.5036 41.3665 53.8742 41.3665C54.3646 41.3665 54.8571 41.2006 55.2609 40.861L57.6296 38.8702C57.7469 38.8934 57.8648 38.914 57.9831 38.9297C58.2167 38.96 58.4504 38.9756 58.6835 38.9756C60.1367 38.9756 61.5804 38.3798 62.9847 37.1992C65.7562 34.8693 67.7608 32.0434 63.6937 27.1874ZM20.1375 50.3542C19.8354 50.395 19.5328 50.4167 19.2231 50.4167C18.1279 50.4167 16.9783 50.1645 15.7094 49.6453C15.1051 49.3981 14.8151 48.7049 15.0613 48.1004C15.3081 47.4955 15.9994 47.2044 16.6032 47.4511C17.5972 47.8578 18.7417 48.2341 20.1375 47.938V50.3542ZM41.1528 55.686C41.1528 55.7026 41.1523 55.7188 41.1518 55.7359C41.1266 56.6764 40.3718 57.4135 39.4337 57.4135L39.3863 57.413C38.9271 57.4004 38.5001 57.2097 38.1839 56.8757C37.8777 56.5518 37.7126 56.1305 37.7136 55.686H41.1528ZM28.2923 55.686C28.2939 56.1305 28.1282 56.5518 27.822 56.8757C27.5058 57.2097 27.0788 57.4009 26.6196 57.413L26.5728 57.4135C25.6342 57.4135 24.8793 56.6764 24.8547 55.7359C24.8542 55.7193 24.8537 55.7026 24.8532 55.686H28.2923ZM44.9137 8.72577C46.6615 8.80447 48.3504 9.48255 49.6686 10.6354L51.7241 12.434C52.0428 12.7125 52.2342 13.0995 52.2629 13.5228C52.2916 13.9461 52.1541 14.3548 51.8756 14.6746C51.3011 15.334 50.2976 15.4022 49.6389 14.8265L47.5835 13.0284C47.021 12.5364 46.3508 12.1908 45.6287 12.0178C45.3226 11.7257 45.0084 11.4426 44.6796 11.1752C43.7641 10.429 42.7752 9.79284 41.7172 9.2651C42.7288 8.86502 43.8215 8.67733 44.9137 8.72577ZM16.367 14.8265C15.7089 15.4022 14.7053 15.334 14.1308 14.6746C13.8523 14.3548 13.7144 13.9461 13.7431 13.5228C13.7718 13.0995 13.9631 12.7125 14.2823 12.4335L16.3378 10.6354C17.6556 9.48255 19.3444 8.80397 21.0922 8.72577C22.1854 8.67733 23.2776 8.86552 24.2887 9.2651C23.2308 9.79284 22.2423 10.429 21.3264 11.1747C20.9981 11.4426 20.6833 11.7252 20.3772 12.0178C19.6556 12.1903 18.9849 12.5364 18.4225 13.0279L16.367 14.8265ZM12.3075 39.3495C12.2269 39.4453 12.0834 39.4574 11.9877 39.3772L10.4101 38.0508C11.2123 37.5528 11.9917 36.8556 12.744 35.9575C13.4933 35.0625 14.0432 34.171 14.3936 33.2886L15.9742 34.6175C16.0699 34.6977 16.0825 34.8415 16.0019 34.9374L15.869 35.0963C15.8675 35.0983 15.8655 35.1003 15.864 35.1024L12.3075 39.3495ZM14.5875 39.6401L16.8771 36.9065C17.5342 37.1739 18.21 37.3374 18.9819 37.4151C18.9547 37.7415 18.9396 38.0685 18.9396 38.3939C18.9396 39.2299 19.0307 40.0629 19.207 40.8787C17.428 40.7732 16.01 40.3933 14.5875 39.6401ZM20.7367 36.182C20.7357 36.181 20.7352 36.18 20.7342 36.179C20.3737 35.7643 20.1914 35.2204 20.2297 34.6735C22.8063 36.2345 26.2087 37.1775 30.3181 37.4575C29.6338 37.9484 29.0879 38.6204 28.7516 39.4034C26.0964 38.9135 23.5732 37.9741 21.2408 36.6023C21.0469 36.4878 20.8787 36.3445 20.7367 36.182ZM33.003 38.5301C34.4874 38.5301 35.6949 39.7405 35.6949 41.2273C35.6949 42.7146 34.4874 43.9245 33.003 43.9245C31.519 43.9245 30.311 42.7146 30.311 41.2273C30.311 39.7405 31.519 38.5301 33.003 38.5301ZM22.0031 42.9886C21.2982 41.6264 20.912 40.132 20.8767 38.6214C23.2247 39.916 25.7419 40.8156 28.38 41.3045C28.3895 41.8998 28.5114 42.4679 28.7259 42.9886H22.0031ZM43.9353 46.2403H22.0706V44.926H30.2199C30.9948 45.5127 31.9591 45.8614 33.003 45.8614C34.0473 45.8614 35.0111 45.5127 35.786 44.926H43.9353V46.2403ZM44.0028 42.9886H37.28C37.4945 42.4679 37.6164 41.8998 37.6265 41.3045C40.264 40.8156 42.7817 39.916 45.1297 38.6214C45.094 40.132 44.7083 41.6264 44.0028 42.9886ZM45.2717 36.179C45.2712 36.18 45.2702 36.1805 45.2692 36.1815C45.1272 36.3445 44.9595 36.4878 44.7652 36.6023C42.4328 37.9736 39.9095 38.9135 37.2544 39.4034C36.9185 38.6199 36.3721 37.9479 35.6878 37.4575C39.7977 37.177 43.2002 36.2345 45.7763 34.673C45.815 35.2204 45.6328 35.7643 45.2717 36.179ZM45.7909 32.3285C45.74 32.3593 45.6927 32.3951 45.6494 32.4339C42.8336 34.5186 38.5258 35.6089 33.003 35.6089C27.4801 35.6089 23.1723 34.5186 20.3571 32.4339C20.3138 32.3951 20.2664 32.3593 20.2151 32.3285C19.5816 31.8431 19.0262 31.3063 18.5534 30.718C16.7935 28.5289 16.2633 25.7525 16.9788 22.467C17.7774 18.7961 19.2971 15.8406 21.4497 13.6661C21.5026 13.6237 21.5509 13.5753 21.5937 13.5228C23.0399 12.1041 24.765 11.0314 26.743 10.3231C26.8049 10.308 26.8658 10.2868 26.9242 10.2595C28.7465 9.6324 30.7778 9.30799 33.003 9.30799C35.2291 9.30799 37.2604 9.6324 39.0827 10.26C39.1406 10.2868 39.201 10.308 39.263 10.3231C41.2409 11.0314 42.966 12.1041 44.4127 13.5228C44.4555 13.5753 44.5033 13.6237 44.5567 13.6661C46.7093 15.8406 48.2285 18.7961 49.0276 22.467C49.7427 25.7525 49.2124 28.5284 47.4526 30.718C46.9797 31.3063 46.4243 31.8431 45.7909 32.3285ZM46.7995 40.8787C46.9752 40.0629 47.0668 39.2299 47.0668 38.3939C47.0668 38.0685 47.0512 37.7415 47.0245 37.4151C47.7965 37.3374 48.4717 37.1739 49.1293 36.9065L51.4184 39.6401C49.9959 40.3933 48.5785 40.7732 46.7995 40.8787ZM54.0182 39.3772C53.9225 39.4579 53.7795 39.4453 53.699 39.3495L50.142 35.1019C50.1404 35.0998 50.1389 35.0983 50.1374 35.0963L50.004 34.9374C49.9239 34.8415 49.9365 34.6977 50.0322 34.6175L51.6128 33.2886C51.9628 34.171 52.5126 35.0625 53.2624 35.9575C54.0117 36.8526 54.7927 37.5498 55.5988 38.0488L54.0182 39.3772ZM61.742 35.7159C60.5441 36.7224 59.3643 37.1568 58.2344 37.0095C57.0656 36.8556 55.8904 36.0826 54.7433 34.7124C53.78 33.562 53.2392 32.4844 53.1179 31.4688C53.1174 31.4657 53.1169 31.4627 53.1169 31.4597C52.9547 30.0773 53.5721 28.8094 54.9719 27.6318C56.3848 26.4442 57.4408 25.9119 58.3879 25.9119C58.402 25.9119 58.4166 25.9119 58.4307 25.9124C59.5718 25.9316 60.8084 26.756 62.2123 28.4325C65.0911 31.8694 64.3544 33.5197 61.742 35.7159ZM37.7755 26.9033C37.3727 26.5522 36.7624 26.594 36.4114 26.9977C35.7674 27.7383 34.9089 28.2423 33.9698 28.4487V25.9896C34.0705 25.9563 34.1697 25.9185 34.2674 25.8751L36.1304 25.0446C36.713 24.7853 37.1476 24.2843 37.3223 23.6698C37.4971 23.0553 37.3918 22.3999 37.0333 21.8717C36.5957 21.2269 35.9401 20.7632 35.1873 20.5655C33.7583 20.1911 32.2477 20.1906 30.8186 20.5655C30.0658 20.7632 29.4102 21.2269 28.9731 21.8717C28.6146 22.3999 28.5089 23.0553 28.6836 23.6698C28.8583 24.2843 29.2929 24.7853 29.8755 25.0446L31.7386 25.8751C31.8363 25.9185 31.936 25.9568 32.0362 25.9896V28.4487C31.0976 28.2423 30.239 27.7383 29.5945 26.9977C29.2435 26.594 28.6332 26.5522 28.2309 26.9033C27.8286 27.255 27.7863 27.867 28.1373 28.2701C29.3644 29.6817 31.1378 30.491 33.003 30.491C34.8681 30.491 36.6415 29.6812 37.8692 28.2701C38.2196 27.867 38.1778 27.255 37.7755 26.9033ZM32.5241 24.1052L30.661 23.2748C30.586 23.2415 30.5558 23.1824 30.5432 23.139C30.5306 23.0952 30.5255 23.0286 30.5719 22.961C30.7466 22.7036 31.0079 22.518 31.3085 22.4393C31.8629 22.294 32.433 22.2213 33.003 22.2213C33.5735 22.2213 34.1435 22.294 34.6974 22.4393C34.998 22.5185 35.2598 22.7036 35.4346 22.961C35.4804 23.0291 35.4753 23.0952 35.4633 23.139C35.4507 23.1824 35.4205 23.2415 35.3454 23.2753L33.4823 24.1052C33.1777 24.2409 32.8282 24.2404 32.5241 24.1052ZM41.2243 18.7209C40.69 18.7209 40.2575 19.1543 40.2575 19.6896V20.9978C40.2575 21.5326 40.69 21.9665 41.2243 21.9665C41.758 21.9665 42.1911 21.5326 42.1911 20.9978V19.6896C42.1911 19.1543 41.758 18.7209 41.2243 18.7209ZM42.0959 16.5005L39.625 17.0252C39.1028 17.1362 38.769 17.6503 38.8798 18.1735C38.9765 18.6291 39.3778 18.9414 39.8244 18.9414C39.8909 18.9414 39.9584 18.9343 40.0263 18.9202L42.4972 18.3955C43.0194 18.2845 43.3532 17.7699 43.2425 17.2467C43.1317 16.7235 42.6181 16.389 42.0959 16.5005ZM24.7822 18.7209C24.2479 18.7209 23.8154 19.1543 23.8154 19.6896V20.9978C23.8154 21.5326 24.2479 21.9665 24.7822 21.9665C25.3159 21.9665 25.7485 21.5326 25.7485 20.9978V19.6896C25.7485 19.1543 25.3159 18.7209 24.7822 18.7209Z" fill="black"/>
</g>
<defs>
<clipPath id="clip0_1591_24846">
<rect width="66" height="66" fill="white"/>
</clipPath>
</defs>
</svg>
