<svg width="80" height="112" viewBox="0 0 80 112" fill="none" xmlns="http://www.w3.org/2000/svg">
<g clip-path="url(#clip0_1585_21435)">
<rect width="80" height="112" rx="6" fill="#78BF9B"/>
<g clip-path="url(#clip1_1585_21435)">
<path d="M32.0922 84C26.8271 84 22.5437 79.7167 22.5437 74.4516C22.5437 74.0974 22.5628 73.7464 22.6006 73.3994C22.2536 73.4372 21.9026 73.4562 21.5484 73.4562C16.2833 73.4562 12 69.1728 12 63.9077C12 58.6426 16.2833 54.3593 21.5484 54.3593C23.1772 54.3593 24.7865 54.778 26.2025 55.57C26.2057 55.572 26.2091 55.5739 26.2125 55.5757C26.9404 55.9898 27.863 55.8652 28.4555 55.2729L39.2785 44.4604C39.8727 43.8657 39.9974 42.9402 39.5816 42.2092C38.7815 40.7965 38.3594 39.1858 38.3594 37.5484C38.3594 32.2833 42.6427 28 47.9078 28C53.1729 28 57.4562 32.2833 57.4562 37.5484C57.4562 37.9027 57.4372 38.2535 57.3994 38.6006C57.7464 38.5628 58.0973 38.5437 58.4516 38.5437C63.7167 38.5437 68 42.8271 68 48.0922C68 53.3573 63.7167 57.6406 58.4516 57.6406C56.8214 57.6406 55.2119 57.2218 53.797 56.4295C53.0596 56.0102 52.1372 56.1345 51.5444 56.727L40.7215 67.5395C40.1274 68.1338 40.0026 69.0596 40.4184 69.7907C41.2185 71.2035 41.6406 72.8142 41.6406 74.4516C41.6406 79.7167 37.3573 84 32.0922 84Z" fill="white"/>
</g>
<path d="M69.5759 102.56C68.9857 101.879 68.7081 101.196 68.6942 100.604C68.6458 98.3954 67.1842 96.5165 65.2333 96.0571C63.2826 95.5979 61.2014 96.6427 60.1726 98.5986C59.8966 99.1202 59.3431 99.6088 58.5104 99.9561C57.4966 100.38 56.8722 101.256 56.8801 102.246C56.8894 103.436 57.9037 104.731 59.6134 105.134C60.3363 105.304 61.0664 105.28 61.7238 105.065C62.1608 104.921 62.6444 104.904 63.122 105.016C63.5994 105.129 64.089 105.374 64.4209 105.699C64.9146 106.187 65.5534 106.534 66.2697 106.703C67.9784 107.105 69.4705 106.405 70.0135 105.338C70.462 104.456 70.2935 103.391 69.5759 102.56Z" fill="white" fill-opacity="0.5"/>
<path d="M60.3447 94.9061C60.6111 93.7746 60.1405 91.762 59.0796 91.5122C58.0189 91.2625 56.6998 92.8538 56.4334 93.9852C56.1796 95.0632 56.8505 96.1474 57.9285 96.4012C59.0068 96.655 60.0909 95.9841 60.3447 94.9061Z" fill="white" fill-opacity="0.5"/>
<path d="M72.8337 94.7505C71.773 94.5008 70.4539 96.092 70.1875 97.2235C69.9337 98.3015 70.6047 99.3857 71.6827 99.6395C72.7609 99.8933 73.8451 99.2224 74.0989 98.1444C74.3653 97.0129 73.8946 95.0003 72.8337 94.7505Z" fill="white" fill-opacity="0.5"/>
<path d="M67.1973 92.3916C66.9435 93.4696 67.6144 94.5538 68.6924 94.8076C69.7704 95.0614 70.8546 94.3904 71.1084 93.3124C71.3748 92.1809 70.9044 90.1684 69.8435 89.9186C68.7825 89.6688 67.4637 91.2601 67.1973 92.3916Z" fill="white" fill-opacity="0.5"/>
<path d="M61.2654 90.9951C61.0116 92.0731 61.6825 93.1572 62.7605 93.411C63.8385 93.6648 64.9227 92.9939 65.1765 91.9159C65.4429 90.7844 64.9723 88.7718 63.9116 88.522C62.8507 88.2723 61.5318 89.8636 61.2654 90.9951Z" fill="white" fill-opacity="0.5"/>
<path d="M21.1996 16.8143C20.3675 16.468 19.8141 15.9802 19.5376 15.4568C18.509 13.502 16.3626 12.4725 14.4117 12.9319C12.461 13.3912 11.0647 15.2549 11.0166 17.4643C11.0023 18.0543 10.7249 18.7385 10.1347 19.4208C9.41634 20.2521 9.24864 21.3154 9.69724 22.1975C10.2366 23.2583 11.7222 23.965 13.4319 23.5624C14.1548 23.3922 14.7977 23.0454 15.2901 22.5595C15.6168 22.2355 16.042 22.0045 16.5196 21.892C16.997 21.7796 17.5446 21.7808 17.9866 21.9235C18.6463 22.14 19.3728 22.1657 20.0891 21.997C21.7978 21.5947 22.8208 20.3023 22.8306 19.105C22.8384 18.1154 22.2127 17.2379 21.1996 16.8143Z" fill="white" fill-opacity="0.5"/>
<path d="M9.52291 14.0831C9.25648 12.9516 7.93734 11.3604 6.87642 11.6102C5.81574 11.86 5.34519 13.8726 5.61162 15.0041C5.86546 16.0821 6.94961 16.753 8.0276 16.4991C9.10585 16.2452 9.77675 15.1611 9.52291 14.0831Z" fill="white" fill-opacity="0.5"/>
<path d="M20.6306 8.37151C19.5699 8.62126 19.0993 10.6339 19.3658 11.7654C19.6196 12.8434 20.7038 13.5143 21.7818 13.2604C22.86 13.0065 23.5309 11.9224 23.2771 10.8444C23.0106 9.7129 21.6915 8.12169 20.6306 8.37151Z" fill="white" fill-opacity="0.5"/>
<path d="M14.5337 8.77526C14.7876 9.85325 15.8717 10.5241 16.9497 10.2703C18.0277 10.0165 18.6986 8.93233 18.4448 7.85434C18.1783 6.72285 16.8595 5.13158 15.7985 5.38139C14.7376 5.63121 14.2673 7.64378 14.5337 8.77526Z" fill="white" fill-opacity="0.5"/>
<path d="M8.6021 10.1721C8.85594 11.25 9.94009 11.9209 11.0181 11.6671C12.0961 11.4133 12.767 10.3291 12.5131 9.25112C12.2467 8.11964 10.9276 6.52843 9.86689 6.77818C8.80597 7.028 8.33567 9.04057 8.6021 10.1721Z" fill="white" fill-opacity="0.5"/>
</g>
<defs>
<clipPath id="clip0_1585_21435">
<rect width="80" height="112" fill="white"/>
</clipPath>
<clipPath id="clip1_1585_21435">
<rect width="56" height="56" fill="white" transform="translate(12 28)"/>
</clipPath>
</defs>
</svg>
