<svg width="66" height="66" viewBox="0 0 66 66" fill="none" xmlns="http://www.w3.org/2000/svg">
<g clip-path="url(#clip0_1591_25300)">
<path d="M17.8721 56.0318C16.5101 56.0318 15.1052 55.7181 13.6066 55.1063C12.3982 54.6128 11.8191 53.2331 12.312 52.0246C12.806 50.8166 14.1857 50.2371 15.3937 50.7305C17.6123 51.6364 19.63 51.9909 23.6633 47.7254C24.5601 46.7772 26.0561 46.7349 27.0043 47.6322C27.9525 48.529 27.9943 50.0246 27.0975 50.9727C23.8512 54.4054 20.9729 56.0318 17.8721 56.0318Z" fill="#495059"/>
<path d="M26.4703 65.0331C24.9426 65.0331 23.649 63.8568 23.5282 62.3079C23.219 58.336 23.3434 55.3706 23.9567 52.073C24.2553 50.4687 25.7981 49.4108 27.4014 49.7088C29.0057 50.0074 30.0636 51.5498 29.7655 53.1536C29.2459 55.9447 29.1487 58.3828 29.4186 61.8497C29.545 63.4761 28.3294 64.8971 26.7025 65.024C26.6249 65.03 26.5469 65.0331 26.4703 65.0331Z" fill="#DDAF89"/>
<path d="M39.5935 65.0331C39.5164 65.0331 39.4389 65.03 39.3614 65.024C37.7344 64.8971 36.5184 63.4761 36.6453 61.8497C36.9152 58.3828 36.818 55.9447 36.2983 53.1536C36.0002 51.5498 37.0582 50.0074 38.6624 49.7088C40.2657 49.4108 41.8086 50.4687 42.1072 52.073C42.7205 55.3706 42.8448 58.336 42.5357 62.3079C42.4148 63.8563 41.1207 65.0331 39.5935 65.0331Z" fill="#DDAF89"/>
<path d="M45.1808 45.8407C43.5921 45.8407 42.2804 44.5788 42.23 42.9801C42.1782 41.3491 43.4582 39.9855 45.0891 39.9341C48.7025 39.8198 52.0818 37.7684 54.0395 35.8862C55.2153 34.7558 57.0849 34.7925 58.2159 35.9688C59.3468 37.1445 59.3101 39.0147 58.1338 40.1456C54.5728 43.5687 49.766 45.6972 45.2754 45.8391C45.2437 45.8402 45.2125 45.8407 45.1808 45.8407Z" fill="#DDAF89"/>
<path d="M20.8831 45.8407C20.8513 45.8407 20.8196 45.8402 20.7879 45.8391C16.2973 45.6972 11.4906 43.5687 7.93003 40.1456C6.75376 39.0147 6.7165 37.1445 7.84745 35.9688C8.9784 34.7925 10.848 34.7558 12.0243 35.8862C13.9821 37.7684 17.3613 39.8198 20.9747 39.9341C22.6052 39.9855 23.8852 41.3491 23.8338 42.9801C23.7835 44.5788 22.4712 45.8407 20.8831 45.8407Z" fill="#DDAF89"/>
<path d="M48.8037 39.1703C47.631 39.6069 46.3752 39.8934 45.0896 39.9342C43.4587 39.9855 42.1787 41.3491 42.2305 42.9796C42.2809 44.5788 43.5926 45.8407 45.1813 45.8407C45.2125 45.8407 45.2442 45.8402 45.2764 45.8392C46.5192 45.7999 47.7861 45.6075 49.0444 45.2787C49.199 44.4564 49.2806 43.6115 49.2806 42.7494C49.2806 41.5163 49.1144 40.3174 48.8037 39.1703Z" fill="#D1A582"/>
<path d="M42.1068 52.073C41.8082 50.4687 40.2658 49.4108 38.6621 49.7094C37.0583 50.0075 35.9999 51.5498 36.2985 53.1536C36.5563 54.5408 36.7104 55.841 36.7668 57.2237C38.867 56.7695 40.8107 55.9417 42.5096 54.8213C42.4134 53.9114 42.2805 53.0055 42.1068 52.073Z" fill="#D1A582"/>
<path d="M27.4017 49.7093C25.7985 49.4112 24.2556 50.4692 23.957 52.073C23.7838 53.0055 23.6509 53.9114 23.5542 54.8213C25.2531 55.9416 27.1973 56.7695 29.2976 57.2237C29.354 55.8409 29.5075 54.5408 29.7659 53.1535C30.064 51.5498 29.0055 50.0074 27.4017 49.7093Z" fill="#D1A582"/>
<path d="M20.9752 39.9342C19.6891 39.8934 18.4338 39.6069 17.2605 39.1703C16.9499 40.3174 16.7837 41.5163 16.7837 42.7499C16.7837 43.612 16.8653 44.4564 17.0199 45.2787C18.2782 45.6075 19.5451 45.7999 20.7883 45.8392C20.8201 45.8402 20.8513 45.8407 20.883 45.8407C22.4712 45.8407 23.7834 44.5788 23.8342 42.9801C23.8856 41.3491 22.6056 39.9855 20.9752 39.9342Z" fill="#D1A582"/>
<path d="M47.4323 42.75C47.4323 35.5574 40.985 29.7269 33.0321 29.7269C25.0787 29.7269 18.6313 35.5574 18.6313 42.75C18.6313 49.9425 25.0787 55.773 33.0321 55.773C40.985 55.773 47.4323 49.9425 47.4323 42.75Z" fill="#DDAF89"/>
<path d="M46.038 34.3882C42.5092 37.3168 37.9763 39.0776 33.0321 39.0776C28.0878 39.0776 23.555 37.3168 20.0257 34.3882C19.2754 35.36 18.6495 36.4179 18.1752 37.5444C17.5291 39.0787 18.1248 40.8577 19.5609 41.7001C23.5137 44.0204 28.117 45.3517 33.0321 45.3517C37.9466 45.3517 42.55 44.0209 46.5028 41.7001C47.9389 40.8572 48.5351 39.0787 47.8885 37.5444C47.4142 36.4179 46.7888 35.36 46.038 34.3882Z" fill="#7F9AE6"/>
<path d="M26.4735 37.9986C24.0968 37.1909 21.917 35.9577 20.0257 34.3882C19.2754 35.36 18.6495 36.4179 18.1752 37.5444C17.5291 39.0787 18.1248 40.8572 19.5609 41.7001C21.6164 42.9066 23.8485 43.8426 26.2081 44.4665C25.3425 42.7293 25.5878 40.1215 26.4735 37.9986Z" fill="#5E78BF"/>
<path d="M27.6413 18.0534C27.0572 18.0534 26.4676 17.8751 25.959 17.5055L22.4322 14.9435C20.8874 13.8217 18.8047 13.9153 17.3666 15.1706L15.0569 17.1868C13.8645 18.2281 12.0538 18.1053 11.0125 16.9129C9.97113 15.72 10.094 13.9093 11.2864 12.8679L13.5956 10.8518C15.2613 9.39806 17.3943 8.54305 19.6033 8.44385C21.8119 8.34516 24.0128 9.00631 25.8014 10.3054L29.3287 12.8674C30.6092 13.7975 30.8932 15.5906 29.9631 16.8711C29.4022 17.643 28.5281 18.0534 27.6413 18.0534Z" fill="#495059"/>
<path d="M38.4226 18.0534C37.5364 18.0534 36.6623 17.6435 36.1013 16.8711C35.1708 15.5901 35.4548 13.7975 36.7358 12.8675L40.2631 10.3055C42.0517 9.00634 44.2531 8.3457 46.4611 8.44389C48.6697 8.54258 50.8032 9.39809 52.4684 10.8518L54.7776 12.868C55.9705 13.9093 56.0928 15.7205 55.0515 16.9129C54.0107 18.1053 52.1995 18.2282 51.0071 17.1868L48.6979 15.1707C47.2598 13.9153 45.1766 13.8217 43.6323 14.9441L40.105 17.5061C39.5964 17.8752 39.0068 18.0534 38.4226 18.0534Z" fill="#495059"/>
<path d="M33.0321 40.757C47.5839 40.757 54.142 34.0906 52.0951 24.7041C49.8956 14.6178 42.9679 9.09595 33.0321 9.09595C23.0963 9.09595 16.1681 14.6178 13.9686 24.7041C11.9222 34.0906 18.4798 40.757 33.0321 40.757Z" fill="#DDAF89"/>
<path d="M37.0543 45.8593C37.0543 48.0809 35.2537 49.8816 33.0321 49.8816C30.8104 49.8816 29.0093 48.0809 29.0093 45.8593C29.0093 43.6377 30.8104 41.8365 33.0321 41.8365C35.2537 41.8365 37.0543 43.6377 37.0543 45.8593Z" fill="#F6E06A"/>
<path d="M25.4762 22.8863C25.4762 21.0464 23.603 19.5549 21.2928 19.5549C18.9821 19.5549 17.1089 21.0464 17.1089 22.8863C17.1089 24.7268 18.9821 26.2183 21.2928 26.2183C23.603 26.2183 25.4762 24.7268 25.4762 22.8863Z" fill="#FFDBDB"/>
<path d="M48.9552 22.8863C48.9552 21.0464 47.0825 19.5549 44.7718 19.5549C42.4611 19.5549 40.5879 21.0464 40.5879 22.8863C40.5879 24.7268 42.4611 26.2183 44.7718 26.2183C47.0825 26.2183 48.9552 24.7268 48.9552 22.8863Z" fill="#FFDBDB"/>
<path d="M35.226 20.1324C33.7874 19.7563 32.2762 19.7563 30.8376 20.1324C30.2419 20.2885 29.7228 20.6551 29.3769 21.1642C28.9091 21.852 29.178 22.7957 29.9378 23.1335L32.0456 24.0706C32.6735 24.3501 33.3906 24.3501 34.018 24.0706L36.1258 23.1335C36.8861 22.7952 37.1545 21.852 36.6872 21.1642C36.3408 20.6551 35.8217 20.2885 35.226 20.1324Z" fill="#495059"/>
<path d="M33.018 38.0444C35.9264 38.0444 38.2845 35.8561 38.2845 32.0282C38.2845 27.7697 36.5926 26.8528 33.018 26.8528C29.4429 26.8528 27.7515 27.7697 27.7515 32.0282C27.7515 35.8561 30.109 38.0444 33.018 38.0444Z" fill="#D16283"/>
<path d="M33.0181 33.1394C31.1434 33.1394 29.4379 33.6716 28.1514 34.5418C28.9429 36.7976 30.8231 38.0444 33.0181 38.0444C35.2125 38.0444 37.0932 36.7976 37.8843 34.5418C36.5982 33.6716 34.8927 33.1394 33.0181 33.1394Z" fill="#EB9898"/>
<path d="M27.3461 18.8243C27.3461 20.8208 25.7272 22.4392 23.7306 22.4392C21.7341 22.4392 20.1152 20.8208 20.1152 18.8243C20.1152 16.8272 21.7341 15.2089 23.7306 15.2089C25.7272 15.2089 27.3461 16.8272 27.3461 18.8243Z" fill="white"/>
<path d="M24.6681 18.8243C24.6681 19.3419 24.2482 19.7614 23.7306 19.7614C23.2129 19.7614 22.793 19.3419 22.793 18.8243C22.793 18.3062 23.2129 17.8867 23.7306 17.8867C24.2482 17.8867 24.6681 18.3062 24.6681 18.8243Z" fill="#495059"/>
<path d="M45.9486 18.8243C45.9486 20.8208 44.3302 22.4392 42.3337 22.4392C40.3366 22.4392 38.7183 20.8208 38.7183 18.8243C38.7183 16.8272 40.3366 15.2089 42.3337 15.2089C44.3302 15.2089 45.9486 16.8272 45.9486 18.8243Z" fill="white"/>
<path d="M43.2707 18.8243C43.2707 19.3419 42.8512 19.7614 42.3336 19.7614C41.8154 19.7614 41.396 19.3419 41.396 18.8243C41.396 18.3062 41.8154 17.8867 42.3336 17.8867C42.8512 17.8867 43.2707 18.3062 43.2707 18.8243Z" fill="#495059"/>
<path d="M9.29572 22.278C9.35464 22.2891 9.41305 22.2942 9.47096 22.2942C9.92867 22.2942 10.3355 21.9679 10.4206 21.5016C10.5173 20.9764 10.1694 20.4723 9.64417 20.3762L4.75078 19.4789C4.22559 19.3827 3.72155 19.7301 3.62537 20.2553C3.52919 20.7805 3.87664 21.2846 4.40183 21.3807L9.29572 22.278ZM10.3924 29.4343C10.2308 28.9258 9.68748 28.6438 9.1784 28.8049L5.04384 30.1156C4.53526 30.2773 4.25328 30.8206 4.41442 31.3292C4.54483 31.7411 4.92551 32.0044 5.33589 32.0044C5.43257 32.0044 5.53127 31.9898 5.62845 31.9586L9.76301 30.6484C10.2721 30.4867 10.5536 29.9434 10.3924 29.4343ZM38.9194 6.11443C39.0569 6.1814 39.2019 6.21363 39.3449 6.21363C39.7024 6.21363 40.0459 6.01473 40.2135 5.67283L42.3153 1.39325C42.5505 0.913879 42.3526 0.334809 41.8732 0.099153C41.3938 -0.136503 40.8148 0.0618912 40.5796 0.540757L38.4778 4.82034C38.2427 5.29971 38.4406 5.87878 38.9194 6.11443ZM25.8501 5.67232C26.0183 6.01473 26.3617 6.21363 26.7187 6.21363C26.8617 6.21363 27.0072 6.1814 27.1442 6.11443C27.6235 5.87878 27.8209 5.29971 27.5858 4.82034L25.4845 0.540757C25.2489 0.0613875 24.6698 -0.136 24.1904 0.099153C23.711 0.334306 23.5132 0.913879 23.7488 1.39325L25.8501 5.67232ZM26.7841 32.0281C26.7841 36.1395 29.3477 39.0111 33.018 39.0111C36.6878 39.0111 39.2513 36.1395 39.2513 32.0281C39.2513 29.6458 38.7356 28.0854 37.6284 27.116C36.6409 26.251 35.3035 25.9841 33.9983 25.9111V25.1049C34.1383 25.0631 34.2763 25.0138 34.4107 24.9538L36.5186 24.0168C37.1435 23.7388 37.6092 23.2025 37.7965 22.5449C37.9839 21.8873 37.8711 21.1859 37.4864 20.6204C37.0085 19.918 36.2925 19.4124 35.4707 19.1974C33.875 18.78 32.1886 18.7794 30.5929 19.1974C29.7706 19.4124 29.0551 19.918 28.5772 20.6204C28.1925 21.1859 28.0797 21.8873 28.2671 22.5449C28.4544 23.2025 28.9202 23.7388 29.5445 24.0168L31.6529 24.9544C31.7873 25.0138 31.9253 25.0636 32.0648 25.1049V25.9121C28.8597 26.1004 26.7841 27.3769 26.7841 32.0281ZM30.3306 22.2498C30.1941 22.1889 30.1443 22.0766 30.1266 22.0152C30.109 21.9533 30.0919 21.8314 30.176 21.708C30.391 21.3918 30.7133 21.1647 31.0824 21.068C31.7203 20.9009 32.3759 20.8178 33.0321 20.8178C33.6877 20.8178 34.3438 20.9009 34.9813 21.068C35.3509 21.1647 35.6726 21.3918 35.8876 21.708C35.9717 21.8314 35.9546 21.9533 35.937 22.0152C35.9194 22.0766 35.87 22.1894 35.733 22.2498L33.6252 23.1874C33.2481 23.3551 32.8155 23.3546 32.4384 23.1874L30.3306 22.2498ZM33.018 27.8195C36.1908 27.8195 37.3177 28.455 37.3177 32.0281C37.3177 35.0956 35.6298 37.0776 33.018 37.0776C30.4056 37.0776 28.7182 35.0956 28.7182 32.0281C28.7177 28.455 29.8447 27.8195 33.018 27.8195ZM53.3695 35.1893C52.7522 35.783 51.2194 37.1123 49.0396 38.0373C49.0018 37.8349 48.9484 37.634 48.8804 37.4351C49.6257 36.8404 50.2894 36.1878 50.8634 35.4748C53.2164 32.5538 53.9687 28.7581 53.0402 24.4981C52.5372 22.1934 51.799 20.1108 50.8317 18.2593C51.4601 18.6606 52.1761 18.859 52.8901 18.859C53.9591 18.859 55.0231 18.4154 55.7799 17.5488C57.1702 15.9566 57.0056 13.5301 55.4134 12.1398L53.1041 10.1236C51.2748 8.52638 48.9308 7.58678 46.5042 7.47802C44.2806 7.37831 42.0575 7.98407 40.1879 9.18854C38.0136 8.48409 35.6233 8.12909 33.0321 8.12909C30.4413 8.12909 28.051 8.48409 25.8763 9.18854C24.0066 7.98407 21.784 7.37882 19.5599 7.47802C17.1333 7.58678 14.7893 8.52638 12.96 10.1236L10.6502 12.1398C9.05856 13.5301 8.8939 15.9561 10.2842 17.5483C11.041 18.4154 12.105 18.859 13.174 18.859C13.888 18.859 14.6035 18.6606 15.2325 18.2588C14.2646 20.1108 13.5265 22.1934 13.0239 24.4981C12.5486 26.678 12.5098 28.742 12.9081 30.6318C13.0184 31.1544 13.5315 31.4878 14.0537 31.3785C14.5763 31.2682 14.9107 30.7551 14.8004 30.233C14.4585 28.6121 14.4968 26.821 14.9132 24.91C15.8145 20.776 17.5271 17.4446 19.9541 14.9928C20.0241 14.94 20.0861 14.8775 20.1394 14.8085C21.7744 13.2103 23.7231 12.0008 25.9583 11.2032C26.0293 11.1866 26.0993 11.1629 26.1653 11.1307C28.2233 10.4247 30.5189 10.0627 33.0321 10.0627C35.5447 10.0627 37.8404 10.4247 39.8988 11.1307C39.9648 11.1629 40.0343 11.1866 40.1048 11.2032C42.34 12.0008 44.2892 13.2103 45.9242 14.8085C45.9775 14.8775 46.0395 14.94 46.11 14.9928C48.5365 17.4446 50.2491 20.776 51.1504 24.91C51.9505 28.5788 51.3307 31.8126 49.3578 34.2618C48.7576 35.007 48.0395 35.6782 47.2127 36.2769C47.1533 36.3117 47.0984 36.3515 47.0486 36.3963C43.8617 38.6259 39.0932 39.7901 33.0321 39.7901C28.8844 39.7901 25.3193 39.2393 22.4351 38.1526C21.1163 37.6561 19.9556 37.0524 18.9561 36.3479C18.9335 36.3298 18.9093 36.3132 18.8841 36.2976C17.877 35.5765 17.0376 34.7507 16.3745 33.8252C16.0633 33.3911 15.459 33.292 15.025 33.6026C14.5914 33.9133 14.4917 34.5176 14.8024 34.9516C15.385 35.7648 16.1585 36.6193 17.1832 37.4366C17.1152 37.635 17.0623 37.8354 17.0245 38.0373C14.8442 37.1123 13.312 35.783 12.6941 35.1893C11.1357 33.6913 8.64868 33.7401 7.15065 35.2986C6.42454 36.0534 6.03632 37.0458 6.05696 38.0932C6.07761 39.1401 6.50461 40.1164 7.25992 40.8425C10.3068 43.7721 14.2757 45.8235 18.2366 46.535C18.589 47.6755 19.0971 48.7577 19.7381 49.7612C18.1172 50.661 17.0391 50.3584 15.7586 49.8352C14.9354 49.4989 14.03 49.5034 13.2102 49.8483C12.39 50.1927 11.753 50.8358 11.4171 51.6596C11.0808 52.4828 11.0853 53.3882 11.4297 54.208C11.7741 55.0282 12.4172 55.6652 13.241 56.0011C14.884 56.6723 16.3986 56.9986 17.872 56.9986C19.4435 56.9986 20.9688 56.6184 22.493 55.8465C22.3485 57.8526 22.3741 59.9397 22.5645 62.3829C22.7221 64.4112 24.4377 65.9998 26.4704 65.9998C26.5716 65.9998 26.6754 65.9958 26.7776 65.9878C27.8219 65.9067 28.7716 65.4238 29.4524 64.6277C30.1337 63.8321 30.4635 62.819 30.3824 61.7746C30.2243 59.7454 30.1986 58.0787 30.3049 56.5192C31.1901 56.6637 32.1015 56.7398 33.0316 56.7398C33.9621 56.7398 34.8735 56.6637 35.7587 56.5192C35.865 58.0787 35.8393 59.7454 35.6812 61.7746C35.5996 62.819 35.9299 63.8321 36.6112 64.6277C37.292 65.4233 38.2417 65.9067 39.2845 65.9878C39.3857 65.9958 39.4894 65.9998 39.5932 65.9998C40.7181 65.9998 41.7901 65.5139 42.5354 64.6675C42.8878 64.2667 42.8491 63.6554 42.4482 63.3029C42.0474 62.9504 41.4361 62.9892 41.0836 63.39C40.7055 63.82 40.1627 64.0663 39.5932 64.0663C39.5403 64.0663 39.4879 64.0642 39.4361 64.0602C38.9068 64.0189 38.425 63.7742 38.08 63.3709C37.7351 62.9675 37.5674 62.4539 37.6087 61.9247C37.7845 59.6704 37.8031 57.8319 37.6651 56.0892C39.0327 55.6944 40.3178 55.1299 41.491 54.423C41.7216 56.3173 41.7826 58.1995 41.6879 60.3461C41.6642 60.8794 42.0776 61.331 42.6109 61.3547C42.6255 61.3552 42.6401 61.3557 42.6547 61.3557C43.1688 61.3557 43.5968 60.9504 43.6195 60.4312C43.7358 57.7917 43.6285 55.5267 43.2715 53.1712C45.4191 51.4209 47.0249 49.1298 47.827 46.535C51.7874 45.8235 55.7563 43.7716 58.8037 40.842C60.3621 39.344 60.4115 36.857 58.913 35.2986C57.4149 33.7401 54.928 33.6918 53.3695 35.1893ZM19.9894 12.3674C19.6127 12.6735 19.2502 12.9953 18.9002 13.3307C18.0986 13.518 17.3539 13.8981 16.7305 14.442L14.4212 16.4586C13.6322 17.147 12.4298 17.0659 11.7404 16.2769C11.0516 15.4878 11.1331 14.2854 11.9222 13.596L14.2314 11.5798C15.7325 10.2696 17.6555 9.49872 19.646 9.40959C20.9793 9.35017 22.3122 9.59993 23.5318 10.1236C22.2614 10.7329 21.079 11.4812 19.9894 12.3674ZM47.1639 13.3307C46.8139 12.9953 46.4514 12.6735 46.0747 12.3674C44.9846 11.4812 43.8028 10.7329 42.5323 10.1236C43.7524 9.59943 45.0853 9.34967 46.4176 9.40959C48.4086 9.49872 50.3311 10.2696 51.8322 11.5798L54.1419 13.5965C54.931 14.2854 55.012 15.4878 54.3232 16.2769C53.6344 17.0659 52.4319 17.1475 51.6429 16.4586L49.3336 14.4425C48.7103 13.8981 47.9655 13.518 47.1639 13.3307ZM8.59983 39.4487C8.21714 39.0806 8.00062 38.5857 7.99055 38.0549C7.97998 37.5242 8.17636 37.0212 8.54444 36.6385C9.30378 35.8489 10.5646 35.8237 11.3542 36.5831C12.9706 38.137 15.0638 39.4215 17.1665 40.1632C17.3005 40.5721 17.4954 40.9609 17.7461 41.3148C17.6927 41.7917 17.665 42.2726 17.665 42.7494C17.665 43.3315 17.7048 43.9056 17.7809 44.469C14.457 43.7072 11.1724 41.9216 8.59983 39.4487ZM33.0321 42.8033C34.7169 42.8033 36.0875 44.1744 36.0875 45.8593C36.0875 47.5441 34.7169 48.9148 33.0321 48.9148C31.3472 48.9148 29.9761 47.5441 29.9761 45.8593C29.9761 44.1744 31.3472 42.8033 33.0321 42.8033ZM19.4717 40.3843C19.0468 39.8979 18.8368 39.2554 18.8952 38.6129C21.4507 40.1245 25.1144 41.3385 30.3628 41.6472C29.4962 42.198 28.8104 43.0087 28.4156 43.969C25.4608 43.4337 22.6506 42.3929 20.0508 40.8667C19.8277 40.7358 19.6354 40.5716 19.4728 40.3853C19.4723 40.3848 19.4717 40.3848 19.4717 40.3843ZM22.7493 53.4668C21.1057 54.5413 19.507 55.065 17.872 55.065C16.6544 55.065 15.3785 54.7855 13.9721 54.211C13.6267 54.07 13.3568 53.8031 13.2123 53.4592C13.0682 53.1153 13.0662 52.7356 13.2072 52.3902C13.3482 52.0448 13.6151 51.7754 13.959 51.6308C14.3034 51.4863 14.6826 51.4843 15.028 51.6253C16.6449 52.2854 18.4264 52.7885 20.8978 51.3237C21.4673 51.9904 22.1017 52.6087 22.7916 53.1712C22.7765 53.2699 22.7634 53.3686 22.7493 53.4668ZM27.9836 63.3709C27.6381 63.7742 27.1568 64.0189 26.6275 64.0602C25.5298 64.1463 24.5761 63.3125 24.492 62.2329C24.2599 59.2474 24.2816 56.8254 24.5731 54.4235C25.7458 55.1299 27.0309 55.6944 28.398 56.0892C28.26 57.8314 28.2792 59.6704 28.4544 61.9247C28.4957 62.4539 28.3285 62.9675 27.9836 63.3709ZM33.0321 54.8062C25.6562 54.8062 19.651 49.444 19.5996 42.8355C22.2392 44.3089 25.0731 45.325 28.043 45.8663C28.0465 48.6141 30.2832 50.8483 33.0321 50.8483C35.7809 50.8483 38.0171 48.6141 38.0211 45.8663C40.991 45.325 43.8244 44.3089 46.4645 42.8355C46.4126 49.444 40.4074 54.8062 33.0321 54.8062ZM46.5934 40.3833C46.5919 40.3848 46.5909 40.3863 46.5893 40.3878C46.4272 40.5726 46.2354 40.7363 46.0133 40.8667C43.4135 42.3929 40.6028 43.4337 37.6485 43.969C37.2532 43.0072 36.5659 42.196 35.6978 41.6447C40.3681 41.3662 44.2373 40.3385 47.1684 38.6093C47.2278 39.2523 47.0184 39.8964 46.5934 40.3833ZM57.4638 39.4482C54.8912 41.9216 51.6071 43.7072 48.2833 44.469C48.3593 43.9056 48.3991 43.332 48.3991 42.7494C48.3991 42.2731 48.3714 41.7922 48.318 41.3148C48.5688 40.9609 48.7636 40.5721 48.8976 40.1632C51.0003 39.4215 53.0936 38.137 54.7094 36.5831C55.4995 35.8237 56.7598 35.8489 57.5197 36.6385C58.279 37.4285 58.2538 38.6889 57.4638 39.4482ZM61.0198 30.1156L56.8852 28.8049C56.3761 28.6433 55.8328 28.9258 55.6717 29.4343C55.51 29.9434 55.792 30.4867 56.3011 30.6484L60.4357 31.9591C60.5328 31.9898 60.631 32.0044 60.7282 32.0044C61.1381 32.0044 61.5188 31.7411 61.6492 31.3297C61.8108 30.8206 61.5288 30.2773 61.0198 30.1156ZM62.4387 20.2553C62.3426 19.7301 61.838 19.3827 61.3133 19.4789L56.4194 20.3762C55.8942 20.4723 55.5468 20.9764 55.643 21.5016C55.7286 21.9679 56.1349 22.2942 56.5927 22.2942C56.6506 22.2942 56.7095 22.2891 56.7684 22.278L61.6623 21.3807C62.1875 21.2846 62.5349 20.7805 62.4387 20.2553Z" fill="black"/>
</g>
<defs>
<clipPath id="clip0_1591_25300">
<rect width="65.9999" height="66" fill="white"/>
</clipPath>
</defs>
</svg>
