<svg width="375" height="812" viewBox="0 0 375 812" fill="none" xmlns="http://www.w3.org/2000/svg">
<g clip-path="url(#clip0_163_10285)">
<path fill-rule="evenodd" clip-rule="evenodd" d="M212.829 698.01C210.476 699.949 210.449 707.116 212.783 709.949C214.825 712.426 217.89 713.105 220.672 711.697C222.409 710.817 223.413 709.609 223.899 707.814C224.719 704.783 223.274 701.703 219.84 699.16C217.016 697.068 214.476 696.652 212.829 698.01ZM230.186 689.238C229.465 689.909 228.674 692.09 228.553 693.737C228.299 697.202 229.387 700.562 231.258 702.094C234.839 705.027 240.292 703.273 241.447 698.816C242.212 695.869 240.634 692.651 237.245 690.242C234.263 688.123 231.765 687.768 230.186 689.238ZM206.968 715.467C206.248 716.151 205.459 718.333 205.339 719.973C205.085 723.435 206.167 726.769 208.05 728.327C211.77 731.405 217.484 729.311 218.369 724.545C218.622 723.181 218.426 722.083 217.651 720.529C216.883 718.987 215.826 717.787 214.133 716.533C211.253 714.4 208.521 713.993 206.968 715.467ZM247.523 694.961C246.751 695.677 245.872 698.495 245.873 700.251C245.875 703.523 246.925 706.386 248.626 707.762C252.319 710.748 257.748 708.945 258.87 704.361C259.565 701.518 257.933 698.286 254.605 695.916C251.618 693.789 249.147 693.456 247.523 694.961ZM231.146 713.984C226.409 717.274 224.148 722.895 225.062 729.106C225.45 731.747 225.293 733.205 224.37 735.529C223.106 738.71 222.909 739.486 222.942 741.163C222.968 742.508 223.077 742.923 223.754 744.254C224.403 745.531 224.713 745.925 225.592 746.589C227.777 748.238 230.243 748.798 233.343 748.349C234.798 748.138 235.467 747.915 237.043 747.116C239.464 745.889 240.319 745.171 242.046 742.915C244.525 739.676 246.447 738.706 250.658 738.566C253.526 738.47 254.652 738.203 256.863 737.093C259.782 735.628 261.934 733.333 262.831 730.729C264.434 726.074 262.295 721.998 257.535 720.635C252.225 719.115 251.959 718.983 249.574 716.697C247.501 714.71 245.511 713.502 242.956 712.68C240.603 711.923 237.938 711.743 235.676 712.189C234.373 712.446 232.015 713.38 231.146 713.984ZM191.173 770.802C190.296 771.616 189.521 774.335 189.575 776.406C189.715 781.74 192.303 785.071 196.335 785.108C197.506 785.118 199.79 784.195 200.768 783.315C202.159 782.065 203.002 779.501 202.627 777.662C201.822 773.707 196.205 769.233 192.882 769.9C191.975 770.081 191.915 770.113 191.173 770.802ZM208.68 761.939C207.797 762.759 207.03 765.469 207.073 767.618C207.137 770.876 208.279 773.668 210.094 775.006C210.991 775.667 212.707 776.235 213.843 776.245C215.013 776.255 217.298 775.332 218.276 774.452C219.666 773.202 220.509 770.638 220.135 768.799C219.334 764.868 213.7 760.372 210.402 761.034C209.481 761.219 209.424 761.249 208.68 761.939ZM185.36 788.292C182.88 791.285 183.601 798.493 186.634 801.025C187.791 801.99 189.896 802.601 191.354 802.395C192.701 802.204 194.373 801.357 195.324 800.385C196.351 799.334 197.107 797.274 197.014 795.778C196.768 791.808 191.328 786.935 187.459 787.219C186.511 787.288 185.957 787.571 185.36 788.292ZM225.795 767.988C223.47 771.091 224.237 778.029 227.169 780.424C228.258 781.313 229.887 781.918 231.223 781.931C232.608 781.943 234.772 780.985 235.88 779.869C237.041 778.701 237.777 776.474 237.537 774.861C236.837 770.15 230.13 765.301 226.698 767.024C226.539 767.104 226.133 767.538 225.795 767.988ZM208.933 787.252C207.619 788.318 206.249 790.026 205.256 791.834C203.664 794.734 203.145 798.346 203.747 802.325C204.064 804.418 203.874 805.755 202.918 808.163C201.66 811.331 201.448 812.144 201.479 813.68C201.518 815.615 202.059 817.039 203.262 818.374C206.101 821.526 211.116 822.045 215.762 819.667C217.884 818.581 219.057 817.556 220.956 815.124C222.397 813.279 222.456 813.229 224.346 812.271C226.264 811.299 226.276 811.296 228.91 811.217C232.066 811.122 233.123 810.885 235.33 809.777C237.368 808.754 238.495 807.836 239.837 806.11C242.801 802.295 242.538 797.495 239.22 794.842C238.008 793.873 236.814 793.352 234.687 792.865C231.504 792.137 230.396 791.57 228.329 789.613C224.533 786.02 220.723 784.401 216.386 784.537C213.559 784.626 211.034 785.545 208.933 787.252Z" fill="#696A69" fill-opacity="0.05"/>
<path fill-rule="evenodd" clip-rule="evenodd" d="M114.829 614.01C112.476 615.949 112.449 623.116 114.783 625.949C116.825 628.426 119.89 629.105 122.672 627.697C124.409 626.817 125.413 625.609 125.899 623.814C126.719 620.783 125.274 617.703 121.84 615.16C119.016 613.068 116.476 612.652 114.829 614.01ZM132.186 605.238C131.465 605.909 130.674 608.09 130.553 609.737C130.299 613.202 131.387 616.562 133.258 618.094C136.839 621.027 142.292 619.273 143.447 614.816C144.212 611.869 142.634 608.651 139.245 606.242C136.263 604.123 133.765 603.768 132.186 605.238ZM108.968 631.467C108.248 632.151 107.459 634.333 107.339 635.973C107.085 639.435 108.167 642.769 110.05 644.327C113.77 647.405 119.484 645.311 120.369 640.545C120.622 639.181 120.426 638.083 119.651 636.529C118.883 634.987 117.826 633.787 116.133 632.533C113.253 630.4 110.521 629.993 108.968 631.467ZM149.523 610.961C148.751 611.677 147.872 614.495 147.873 616.251C147.875 619.523 148.925 622.386 150.626 623.762C154.319 626.748 159.748 624.945 160.87 620.361C161.565 617.518 159.933 614.286 156.605 611.916C153.618 609.789 151.147 609.456 149.523 610.961ZM133.146 629.984C128.409 633.274 126.148 638.895 127.062 645.106C127.45 647.747 127.293 649.205 126.37 651.529C125.106 654.71 124.909 655.486 124.942 657.163C124.968 658.508 125.077 658.923 125.754 660.254C126.403 661.531 126.713 661.925 127.592 662.589C129.777 664.238 132.243 664.798 135.343 664.349C136.798 664.138 137.467 663.915 139.043 663.116C141.464 661.889 142.319 661.171 144.046 658.915C146.525 655.676 148.447 654.706 152.658 654.566C155.526 654.47 156.652 654.203 158.863 653.093C161.782 651.628 163.934 649.333 164.831 646.729C166.434 642.074 164.295 637.998 159.535 636.635C154.225 635.115 153.959 634.983 151.574 632.697C149.501 630.71 147.511 629.502 144.956 628.68C142.603 627.923 139.938 627.743 137.676 628.189C136.373 628.446 134.015 629.38 133.146 629.984ZM93.1725 686.802C92.2956 687.616 91.5207 690.335 91.5752 692.406C91.7154 697.74 94.3029 701.071 98.3351 701.108C99.5059 701.118 101.79 700.195 102.768 699.315C104.159 698.065 105.002 695.501 104.627 693.662C103.822 689.707 98.2052 685.233 94.8816 685.9C93.9745 686.081 93.9151 686.113 93.1725 686.802ZM110.68 677.939C109.797 678.759 109.03 681.469 109.073 683.618C109.137 686.876 110.279 689.668 112.094 691.006C112.991 691.667 114.707 692.235 115.843 692.245C117.013 692.255 119.298 691.332 120.276 690.452C121.666 689.202 122.509 686.638 122.135 684.799C121.334 680.868 115.7 676.372 112.402 677.034C111.481 677.219 111.424 677.249 110.68 677.939ZM87.3601 704.292C84.8798 707.285 85.6011 714.493 88.6344 717.025C89.7911 717.99 91.8958 718.601 93.3542 718.395C94.7007 718.204 96.3729 717.357 97.3236 716.385C98.3509 715.334 99.1071 713.274 99.0143 711.778C98.7681 707.808 93.3282 702.935 89.4593 703.219C88.5108 703.288 87.9573 703.571 87.3601 704.292ZM127.795 683.988C125.47 687.091 126.237 694.029 129.169 696.424C130.258 697.313 131.887 697.918 133.223 697.931C134.608 697.943 136.772 696.985 137.88 695.869C139.041 694.701 139.777 692.474 139.537 690.861C138.837 686.15 132.13 681.301 128.698 683.024C128.539 683.104 128.133 683.538 127.795 683.988ZM110.933 703.252C109.619 704.318 108.249 706.026 107.256 707.834C105.664 710.734 105.145 714.346 105.747 718.325C106.064 720.418 105.874 721.755 104.918 724.163C103.66 727.331 103.448 728.144 103.479 729.68C103.518 731.615 104.059 733.039 105.262 734.374C108.101 737.526 113.116 738.045 117.762 735.667C119.884 734.581 121.057 733.556 122.956 731.124C124.397 729.279 124.456 729.229 126.346 728.271C128.264 727.299 128.276 727.296 130.91 727.217C134.066 727.122 135.123 726.885 137.33 725.777C139.368 724.754 140.495 723.836 141.837 722.11C144.801 718.295 144.538 713.495 141.22 710.842C140.008 709.873 138.814 709.352 136.687 708.865C133.504 708.137 132.396 707.57 130.329 705.613C126.533 702.02 122.723 700.401 118.386 700.537C115.559 700.626 113.034 701.545 110.933 703.252Z" fill="#696A69" fill-opacity="0.05"/>
<path fill-rule="evenodd" clip-rule="evenodd" d="M16.8287 530.01C14.4759 531.949 14.4487 539.116 16.7834 541.949C18.8254 544.426 21.8896 545.105 24.6717 543.697C26.4088 542.817 27.4128 541.609 27.8986 539.814C28.7187 536.783 27.2744 533.703 23.8403 531.16C21.0163 529.068 18.4764 528.652 16.8287 530.01ZM34.1857 521.238C33.4654 521.909 32.6736 524.09 32.5531 525.737C32.2995 529.202 33.3869 532.562 35.2583 534.094C38.8393 537.027 44.2916 535.273 45.4473 530.816C46.2119 527.869 44.6343 524.651 41.2447 522.242C38.263 520.123 35.7651 519.768 34.1857 521.238ZM10.9682 547.467C10.2482 548.151 9.45884 550.333 9.33885 551.973C9.08531 555.435 10.1672 558.769 12.05 560.327C15.7696 563.405 21.4842 561.311 22.3689 556.545C22.6221 555.181 22.4259 554.083 21.6514 552.529C20.8825 550.987 19.8261 549.787 18.1335 548.533C15.2535 546.4 12.5208 545.993 10.9682 547.467ZM51.5232 526.961C50.751 527.677 49.8719 530.495 49.8732 532.251C49.8753 535.523 50.9249 538.386 52.6264 539.762C56.3188 542.748 61.7484 540.945 62.8699 536.361C63.5652 533.518 61.9327 530.286 58.6048 527.916C55.6181 525.789 53.1473 525.456 51.5232 526.961ZM35.1461 545.984C30.4092 549.274 28.1479 554.895 29.0617 561.106C29.4503 563.747 29.2929 565.205 28.3695 567.529C27.1057 570.71 26.909 571.486 26.942 573.163C26.9684 574.508 27.0774 574.923 27.7537 576.254C28.4028 577.531 28.7133 577.925 29.5924 578.589C31.777 580.238 34.2427 580.798 37.3426 580.349C38.7981 580.138 39.4674 579.915 41.0428 579.116C43.4637 577.889 44.3191 577.171 46.0459 574.915C48.5251 571.676 50.4475 570.706 54.658 570.566C57.5258 570.47 58.6519 570.203 60.8631 569.093C63.7822 567.628 65.9344 565.333 66.831 562.729C68.434 558.074 66.295 553.998 61.5349 552.635C56.2252 551.115 55.9594 550.983 53.5741 548.697C51.5009 546.71 49.511 545.502 46.9559 544.68C44.6026 543.923 41.9385 543.743 39.6757 544.189C38.3734 544.446 36.0153 545.38 35.1461 545.984ZM-4.82748 602.802C-5.70437 603.616 -6.47928 606.335 -6.42476 608.406C-6.28462 613.74 -3.69706 617.071 0.335128 617.108C1.50592 617.118 3.79025 616.195 4.76818 615.315C6.15853 614.065 7.00162 611.501 6.62728 609.662C5.82191 605.707 0.2052 601.233 -3.11836 601.9C-4.02547 602.081 -4.08492 602.113 -4.82748 602.802ZM12.68 593.939C11.7971 594.759 11.0302 597.469 11.0727 599.618C11.1375 602.876 12.2788 605.668 14.0937 607.006C14.9907 607.667 16.707 608.235 17.8426 608.245C19.0134 608.255 21.2977 607.332 22.2756 606.452C23.666 605.202 24.5091 602.638 24.1348 600.799C23.3342 596.868 17.6998 592.372 14.4017 593.034C13.4813 593.219 13.4235 593.249 12.68 593.939ZM-10.6399 620.292C-13.1202 623.285 -12.3989 630.493 -9.36557 633.025C-8.2089 633.99 -6.10425 634.601 -4.64576 634.395C-3.29933 634.204 -1.62708 633.357 -0.676373 632.385C0.350921 631.334 1.10709 629.274 1.01428 627.778C0.768134 623.808 -4.67182 618.935 -8.54068 619.219C-9.48917 619.288 -10.0427 619.571 -10.6399 620.292ZM29.7954 599.988C27.4704 603.091 28.2368 610.029 31.1689 612.424C32.2577 613.313 33.8868 613.918 35.2226 613.931C36.6076 613.943 38.7719 612.985 39.8802 611.869C41.0405 610.701 41.777 608.474 41.5372 606.861C40.8368 602.15 34.1298 597.301 30.6978 599.024C30.5388 599.104 30.1327 599.538 29.7954 599.988ZM12.9325 619.252C11.6194 620.318 10.249 622.026 9.25632 623.834C7.66444 626.734 7.1448 630.346 7.74742 634.325C8.06438 636.418 7.87438 637.755 6.91836 640.163C5.66021 643.331 5.44781 644.144 5.479 645.68C5.51835 647.615 6.05926 649.039 7.26175 650.374C10.1011 653.526 15.1157 654.045 19.7625 651.667C21.8845 650.581 23.0566 649.556 24.9562 647.124C26.3971 645.279 26.4561 645.229 28.346 644.271C30.2641 643.299 30.2765 643.296 32.9103 643.217C36.0659 643.122 37.1233 642.885 39.3301 641.777C41.3682 640.754 42.4954 639.836 43.8373 638.11C46.801 634.295 46.5381 629.495 43.2203 626.842C42.008 625.873 40.8139 625.352 38.6873 624.865C35.5038 624.137 34.3963 623.57 32.3289 621.613C28.5326 618.02 24.7228 616.401 20.3864 616.537C17.5585 616.626 15.0338 617.545 12.9325 619.252Z" fill="#696A69" fill-opacity="0.05"/>
<path fill-rule="evenodd" clip-rule="evenodd" d="M-21.4827 419.097C-24.075 420.703 -25.0657 427.801 -23.1331 430.922C-21.4428 433.651 -18.4978 434.736 -15.5515 433.714C-13.7119 433.077 -12.5546 432.015 -11.8318 430.301C-10.6116 427.408 -11.6286 424.162 -14.6895 421.18C-17.2065 418.727 -19.6673 417.973 -21.4827 419.097ZM-3.10369 412.739C-3.90763 413.307 -4.98558 415.362 -5.32649 416.978C-6.0438 420.377 -5.41809 423.853 -3.76976 425.623C-0.615755 429.011 5.02287 428.006 6.76749 423.745C7.9214 420.928 6.79102 417.526 3.75613 414.684C1.08654 412.183 -1.34093 411.495 -3.10369 412.739ZM-29.6376 435.608C-30.4431 436.189 -31.5187 438.245 -31.8581 439.853C-32.575 443.25 -31.9513 446.7 -30.2951 448.497C-27.0232 452.047 -21.0789 450.74 -19.5613 446.136C-19.127 444.819 -19.1738 443.705 -19.7322 442.061C-20.2867 440.429 -21.1722 439.098 -22.6808 437.628C-25.2478 435.127 -27.9009 434.356 -29.6376 435.608ZM13.3067 420.742C12.4452 421.348 11.1951 424.022 10.9602 425.762C10.5224 429.004 11.1773 431.983 12.6783 433.575C15.9357 437.03 21.5584 435.974 23.2862 431.582C24.3574 428.859 23.1745 425.436 20.1955 422.64C17.522 420.131 15.1185 419.468 13.3067 420.742ZM-5.47988 437.389C-10.6162 440.013 -13.6128 445.278 -13.5426 451.556C-13.5127 454.225 -13.8647 455.649 -15.0923 457.828C-16.7725 460.81 -17.0717 461.552 -17.2646 463.218C-17.4193 464.555 -17.367 464.981 -16.8759 466.39C-16.4044 467.743 -16.1498 468.176 -15.3679 468.952C-13.425 470.88 -11.057 471.766 -7.92481 471.738C-6.4541 471.725 -5.76094 471.594 -4.09246 471.014C-1.52849 470.124 -0.58421 469.527 1.43021 467.524C4.32242 464.648 6.35787 463.945 10.549 464.372C13.4035 464.663 14.5554 464.55 16.8958 463.747C19.9854 462.688 22.4267 460.703 23.6652 458.244C25.8796 453.847 24.3084 449.52 19.7748 447.529C14.7177 445.308 14.4721 445.142 12.4159 442.556C10.6287 440.308 8.8193 438.844 6.39796 437.686C4.16786 436.619 1.55212 436.083 -0.750045 436.22C-2.07508 436.299 -4.53734 436.908 -5.47988 437.389ZM-52.7313 488.316C-53.7097 489.005 -54.8432 491.594 -55.0678 493.655C-55.6462 498.959 -53.53 502.607 -49.5394 503.186C-48.3807 503.354 -45.9929 502.746 -44.9056 502.006C-43.3597 500.954 -42.1795 498.526 -42.3032 496.654C-42.5693 492.626 -47.5333 487.438 -50.9163 487.651C-51.8397 487.71 -51.9028 487.733 -52.7313 488.316ZM-34.191 481.888C-35.176 482.581 -36.3005 485.164 -36.5473 487.299C-36.9213 490.536 -36.1657 493.456 -34.5474 495.026C-33.7474 495.802 -32.123 496.595 -30.9991 496.758C-29.8404 496.926 -27.4526 496.318 -26.3653 495.578C-24.8194 494.526 -23.6392 492.099 -23.7629 490.226C-24.0274 486.223 -29.0061 481.011 -32.3632 481.222C-33.3 481.282 -33.3614 481.304 -34.191 481.888ZM-60.843 504.865C-63.7033 507.498 -63.9579 514.737 -61.2925 517.654C-60.2762 518.766 -58.2728 519.654 -56.7998 519.646C-55.44 519.638 -53.6691 519.024 -52.5963 518.189C-51.437 517.286 -50.4106 515.345 -50.3014 513.85C-50.0114 509.883 -54.7466 504.323 -58.6185 504.084C-59.5677 504.025 -60.1543 504.232 -60.843 504.865ZM-18.0445 490.184C-20.7657 492.946 -20.9393 499.924 -18.3559 502.691C-17.3965 503.718 -15.8636 504.538 -14.5416 504.729C-13.1709 504.928 -10.8975 504.27 -9.64905 503.313C-8.34217 502.311 -7.31303 500.204 -7.33369 498.573C-7.39414 493.81 -13.3881 488.104 -17.0208 489.35C-17.189 489.408 -17.6498 489.783 -18.0445 490.184ZM-37.3448 507.004C-38.7893 507.884 -40.3771 509.393 -41.6039 511.051C-43.5713 513.711 -44.572 517.22 -44.5099 521.244C-44.4772 523.36 -44.8453 524.66 -46.1164 526.917C-47.7892 529.887 -48.1091 530.664 -48.2847 532.19C-48.5059 534.113 -48.1614 535.597 -47.1494 537.081C-44.7597 540.586 -39.8604 541.775 -34.9361 540.044C-32.6874 539.253 -31.388 538.395 -29.1786 536.24C-27.5026 534.606 -27.4375 534.564 -25.4359 533.869C-23.4044 533.164 -23.3918 533.163 -20.7713 533.438C-17.6317 533.769 -16.552 533.677 -14.2162 532.875C-12.059 532.135 -10.8187 531.378 -9.25678 529.847C-5.80702 526.466 -5.42207 521.674 -8.35288 518.599C-9.4238 517.475 -10.537 516.799 -12.5788 516.03C-15.6355 514.88 -16.6567 514.17 -18.4422 511.953C-21.7208 507.882 -25.2782 505.765 -29.5935 505.317C-32.4077 505.024 -35.0331 505.596 -37.3448 507.004Z" fill="#696A69" fill-opacity="0.05"/>
<path fill-rule="evenodd" clip-rule="evenodd" d="M39.314 301.728C36.2654 301.674 31.5895 307.106 31.5248 310.776C31.4683 313.986 33.3571 316.492 36.3873 317.229C38.2793 317.688 39.8272 317.422 41.3629 316.372C43.9547 314.601 44.857 311.321 43.8981 307.156C43.1095 303.732 41.449 301.765 39.314 301.728ZM58.2088 306.332C57.2255 306.374 55.2066 307.519 54.0452 308.692C51.6017 311.162 50.2462 314.423 50.6737 316.804C51.4914 321.36 56.7761 323.568 60.5497 320.93C63.0453 319.186 63.9363 315.714 62.9237 311.681C62.0331 308.133 60.3646 306.24 58.2088 306.332ZM23.5188 311.195C22.5273 311.247 20.5095 312.394 19.3535 313.562C16.9118 316.03 15.5688 319.268 15.9885 321.675C16.8171 326.432 22.5226 328.551 26.291 325.502C27.3693 324.629 27.9333 323.667 28.3536 321.983C28.7711 320.31 28.7472 318.712 28.2746 316.659C27.4704 313.167 25.6566 311.083 23.5188 311.195ZM67.6736 321.945C66.6213 321.988 64.1227 323.559 62.983 324.895C60.8595 327.384 59.7976 330.243 60.1976 332.395C61.0659 337.063 66.3652 339.219 70.1956 336.462C72.5704 334.752 73.4287 331.234 72.4378 327.271C71.5486 323.713 69.8864 321.855 67.6736 321.945ZM42.8658 325.771C37.1268 325.196 31.7568 328.001 28.4171 333.317C26.9975 335.577 25.9307 336.583 23.7189 337.751C20.6917 339.349 20.0385 339.811 18.974 341.107C18.1204 342.147 17.9338 342.534 17.5837 343.985C17.2475 345.377 17.2275 345.879 17.4648 346.955C18.0545 349.628 19.5655 351.655 22.2144 353.327C23.4581 354.112 24.1117 354.377 25.8283 354.793C28.4662 355.432 29.5832 355.442 32.3613 354.848C36.3499 353.996 38.4421 354.507 41.7344 357.135C43.9767 358.925 45.0065 359.454 47.4089 360.046C50.5802 360.828 53.7073 360.481 56.0799 359.084C60.3222 356.586 61.3439 352.097 58.6099 347.968C55.5601 343.364 55.4435 343.091 55.1147 339.804C54.8291 336.946 54.1007 334.735 52.6919 332.451C51.3943 330.347 49.4855 328.479 47.4755 327.349C46.3185 326.698 43.9188 325.876 42.8658 325.771ZM-24.433 343.008C-25.6284 343.057 -27.9834 344.621 -29.2877 346.231C-32.6456 350.378 -32.8415 354.591 -29.7996 357.238C-28.9163 358.006 -26.5795 358.788 -25.2647 358.755C-23.3953 358.707 -21.089 357.305 -20.1795 355.664C-18.2225 352.133 -19.587 345.083 -22.5472 343.432C-23.355 342.981 -23.4207 342.966 -24.433 343.008ZM-5.36479 347.641C-6.56828 347.69 -8.91184 349.253 -10.2753 350.914C-12.3422 353.434 -13.2878 356.298 -12.7771 358.494C-12.5246 359.579 -11.5881 361.126 -10.7314 361.871C-9.84805 362.639 -7.51124 363.421 -6.19651 363.387C-4.32706 363.34 -2.02081 361.938 -1.11126 360.297C0.833895 356.788 -0.530353 349.71 -3.46761 348.071C-4.28739 347.613 -4.35114 347.599 -5.36479 347.641ZM-40.2125 352.53C-44.0427 353.195 -48.1761 359.144 -47.514 363.039C-47.2615 364.525 -46.0582 366.356 -44.8152 367.147C-43.6676 367.876 -41.8463 368.319 -40.4919 368.197C-39.0284 368.065 -37.1149 366.99 -36.2139 365.792C-33.8223 362.614 -34.7933 355.375 -37.9194 353.078C-38.6857 352.515 -39.2904 352.37 -40.2125 352.53ZM3.71967 363.357C-0.0636549 364.206 -3.98741 369.979 -3.31339 373.704C-3.06294 375.087 -2.21762 376.606 -1.20997 377.483C-0.165111 378.392 2.10268 379.07 3.6705 378.941C5.31165 378.806 7.31764 377.592 8.18322 376.209C10.7108 372.172 8.76076 364.129 5.03174 363.21C4.85897 363.168 4.26841 363.234 3.71967 363.357ZM-21.6139 367.05C-23.3048 367.008 -25.4566 367.417 -27.3857 368.147C-30.4796 369.318 -33.221 371.727 -35.3471 375.143C-36.4654 376.941 -37.4784 377.834 -39.7691 379.043C-42.7834 380.635 -43.4734 381.116 -44.447 382.303C-45.6739 383.8 -46.1877 385.234 -46.1406 387.03C-46.029 391.271 -42.5532 394.923 -37.4757 396.133C-35.157 396.686 -33.5999 396.668 -30.5757 396.052C-28.2818 395.585 -28.2047 395.586 -26.1455 396.085C-24.0555 396.592 -24.0442 396.598 -21.9903 398.248C-19.5296 400.226 -18.5718 400.733 -16.174 401.324C-13.9597 401.869 -12.5069 401.904 -10.3649 401.463C-5.63376 400.487 -2.7162 396.667 -3.51548 392.495C-3.80743 390.97 -4.37715 389.799 -5.67786 388.047C-7.62523 385.426 -8.09946 384.276 -8.40028 381.445C-8.9528 376.247 -10.7976 372.541 -14.1832 369.828C-16.3909 368.059 -18.9079 367.118 -21.6139 367.05Z" fill="#696A69" fill-opacity="0.05"/>
<path fill-rule="evenodd" clip-rule="evenodd" d="M63.314 182.728C60.2654 182.674 55.5895 188.106 55.5248 191.776C55.4683 194.986 57.3571 197.492 60.3873 198.229C62.2793 198.688 63.8272 198.422 65.3629 197.372C67.9547 195.601 68.857 192.321 67.8981 188.156C67.1095 184.732 65.449 182.765 63.314 182.728ZM82.2088 187.332C81.2255 187.374 79.2066 188.519 78.0452 189.692C75.6017 192.162 74.2462 195.423 74.6737 197.804C75.4914 202.36 80.7761 204.568 84.5497 201.93C87.0453 200.186 87.9363 196.714 86.9237 192.681C86.0331 189.133 84.3646 187.24 82.2088 187.332ZM47.5188 192.195C46.5273 192.247 44.5095 193.394 43.3535 194.562C40.9118 197.03 39.5688 200.268 39.9885 202.675C40.8171 207.432 46.5226 209.551 50.291 206.502C51.3693 205.629 51.9333 204.667 52.3536 202.983C52.7711 201.31 52.7472 199.712 52.2746 197.659C51.4704 194.167 49.6566 192.083 47.5188 192.195ZM91.6736 202.945C90.6213 202.988 88.1227 204.559 86.983 205.895C84.8595 208.384 83.7976 211.243 84.1976 213.395C85.0659 218.063 90.3652 220.219 94.1956 217.462C96.5704 215.752 97.4287 212.234 96.4378 208.271C95.5486 204.713 93.8864 202.855 91.6736 202.945ZM66.8658 206.771C61.1268 206.196 55.7568 209.001 52.4171 214.317C50.9975 216.577 49.9307 217.583 47.7189 218.751C44.6917 220.349 44.0385 220.811 42.974 222.107C42.1204 223.147 41.9338 223.534 41.5837 224.985C41.2475 226.377 41.2275 226.879 41.4648 227.955C42.0545 230.628 43.5655 232.655 46.2144 234.327C47.4581 235.112 48.1117 235.377 49.8283 235.793C52.4662 236.432 53.5832 236.442 56.3613 235.848C60.3499 234.996 62.4421 235.507 65.7344 238.135C67.9767 239.925 69.0065 240.454 71.4089 241.046C74.5802 241.828 77.7073 241.481 80.0799 240.084C84.3222 237.586 85.3439 233.097 82.6099 228.968C79.5601 224.364 79.4435 224.091 79.1147 220.804C78.8291 217.946 78.1007 215.735 76.6919 213.451C75.3943 211.347 73.4855 209.479 71.4755 208.349C70.3185 207.698 67.9188 206.876 66.8658 206.771ZM-0.433009 224.008C-1.62844 224.057 -3.98335 225.621 -5.28765 227.231C-8.6456 231.378 -8.84152 235.591 -5.7996 238.238C-4.91627 239.006 -2.57946 239.788 -1.26473 239.755C0.604723 239.707 2.91097 238.305 3.82052 236.664C5.77751 233.133 4.41298 226.083 1.45278 224.432C0.644965 223.981 0.579282 223.966 -0.433009 224.008ZM18.6352 228.641C17.4317 228.69 15.0882 230.253 13.7247 231.914C11.6578 234.434 10.7122 237.298 11.2229 239.494C11.4754 240.579 12.4119 242.126 13.2686 242.871C14.1519 243.639 16.4888 244.421 17.8035 244.387C19.6729 244.34 21.9792 242.938 22.8887 241.297C24.8339 237.788 23.4696 230.71 20.5324 229.071C19.7126 228.613 19.6489 228.599 18.6352 228.641ZM-16.2125 233.53C-20.0427 234.195 -24.1761 240.144 -23.514 244.039C-23.2615 245.525 -22.0582 247.356 -20.8152 248.147C-19.6676 248.876 -17.8463 249.319 -16.4919 249.197C-15.0284 249.065 -13.1149 247.99 -12.2139 246.792C-9.82233 243.614 -10.7933 236.375 -13.9194 234.078C-14.6857 233.515 -15.2904 233.37 -16.2125 233.53ZM27.7197 244.357C23.9363 245.206 20.0126 250.979 20.6866 254.704C20.9371 256.087 21.7824 257.606 22.79 258.483C23.8349 259.392 26.1027 260.07 27.6705 259.941C29.3116 259.806 31.3176 258.592 32.1832 257.209C34.7108 253.172 32.7608 245.129 29.0317 244.21C28.859 244.168 28.2684 244.234 27.7197 244.357ZM2.38611 248.05C0.695209 248.008 -1.45661 248.417 -3.38573 249.147C-6.47959 250.318 -9.22099 252.727 -11.3471 256.143C-12.4654 257.941 -13.4784 258.834 -15.7691 260.043C-18.7834 261.635 -19.4734 262.116 -20.447 263.303C-21.6739 264.8 -22.1877 266.234 -22.1406 268.03C-22.029 272.271 -18.5532 275.923 -13.4757 277.133C-11.157 277.686 -9.59991 277.668 -6.57574 277.052C-4.28181 276.585 -4.20472 276.586 -2.14552 277.085C-0.0554619 277.592 -0.044228 277.598 2.0097 279.248C4.47036 281.226 5.42818 281.733 7.82596 282.324C10.0403 282.869 11.4931 282.904 13.6351 282.463C18.3662 281.487 21.2838 277.667 20.4845 273.495C20.1926 271.97 19.6228 270.799 18.3221 269.047C16.3748 266.426 15.9005 265.276 15.5997 262.445C15.0472 257.247 13.2024 253.541 9.81677 250.828C7.60905 249.059 5.09213 248.118 2.38611 248.05Z" fill="#696A69" fill-opacity="0.05"/>
<path fill-rule="evenodd" clip-rule="evenodd" d="M68.314 49.7277C65.2654 49.6741 60.5895 55.1057 60.5248 58.776C60.4683 61.9858 62.3571 64.4923 65.3873 65.2286C67.2793 65.6882 68.8272 65.422 70.3629 64.3722C72.9547 62.6008 73.857 59.321 72.8981 55.1565C72.1095 51.7318 70.449 49.7653 68.314 49.7277ZM87.2088 54.3321C86.2255 54.3742 84.2066 55.5185 83.0452 56.6923C80.6017 59.1622 79.2462 62.423 79.6737 64.8039C80.4914 69.3598 85.7761 71.5679 89.5497 68.9298C92.0453 67.1856 92.9363 63.7139 91.9237 59.6807C91.0331 56.1328 89.3646 54.2401 87.2088 54.3321ZM52.5188 59.1948C51.5273 59.2469 49.5095 60.3935 48.3535 61.562C45.9118 64.0299 44.5688 67.2676 44.9885 69.6751C45.8171 74.4316 51.5226 76.5509 55.291 73.5017C56.3693 72.6293 56.9333 71.667 57.3536 69.9827C57.7711 68.3103 57.7472 66.7117 57.2746 64.6591C56.4704 61.1665 54.6566 59.0826 52.5188 59.1948ZM96.6736 69.945C95.6213 69.9879 93.1227 71.5593 91.983 72.8953C89.8595 75.3844 88.7976 78.2434 89.1976 80.3946C90.0659 85.063 95.3652 87.219 99.1956 84.4617C101.57 82.7522 102.429 79.2343 101.438 75.2706C100.549 71.7132 98.8864 69.8552 96.6736 69.945ZM71.8658 73.7709C66.1268 73.1961 60.7568 76.0007 57.4171 81.317C55.9975 83.5771 54.9307 84.5835 52.7189 85.751C49.6917 87.3487 49.0385 87.8106 47.974 89.1074C47.1204 90.1472 46.9338 90.5337 46.5837 91.9846C46.2475 93.3775 46.2275 93.8789 46.4648 94.9545C47.0545 97.6277 48.5655 99.6549 51.2144 101.327C52.4581 102.112 53.1117 102.377 54.8283 102.793C57.4662 103.432 58.5832 103.442 61.3613 102.848C65.3499 101.996 67.4421 102.507 70.7344 105.135C72.9767 106.925 74.0065 107.454 76.4089 108.046C79.5802 108.828 82.7073 108.481 85.0799 107.084C89.3222 104.586 90.3439 100.097 87.6099 95.9685C84.5601 91.3638 84.4435 91.0912 84.1147 87.8037C83.8291 84.9462 83.1007 82.7352 81.6919 80.4507C80.3943 78.3465 78.4855 76.4793 76.4755 75.3486C75.3185 74.6978 72.9188 73.8765 71.8658 73.7709ZM4.56699 91.0078C3.37156 91.0571 1.01665 92.6207 -0.287653 94.2314C-3.6456 98.3779 -3.84152 102.591 -0.799603 105.238C0.0837291 106.006 2.42054 106.788 3.73527 106.755C5.60472 106.707 7.91097 105.305 8.82052 103.664C10.7775 100.133 9.41298 93.0833 6.45278 91.4316C5.64497 90.9807 5.57928 90.966 4.56699 91.0078ZM23.6352 95.6407C22.4317 95.6903 20.0882 97.2529 18.7247 98.9144C16.6578 101.434 15.7122 104.298 16.2229 106.494C16.4754 107.579 17.4119 109.126 18.2686 109.871C19.1519 110.639 21.4888 111.421 22.8035 111.387C24.6729 111.34 26.9792 109.938 27.8887 108.297C29.8339 104.788 28.4696 97.7099 25.5324 96.0707C24.7126 95.6133 24.6489 95.5989 23.6352 95.6407ZM-11.2125 100.53C-15.0427 101.195 -19.1761 107.144 -18.514 111.039C-18.2615 112.525 -17.0582 114.356 -15.8152 115.147C-14.6676 115.876 -12.8463 116.319 -11.4919 116.197C-10.0284 116.065 -8.11489 114.99 -7.21388 113.792C-4.82233 110.614 -5.79332 103.375 -8.91937 101.078C-9.6857 100.515 -10.2904 100.37 -11.2125 100.53ZM32.7197 111.357C28.9363 112.206 25.0126 117.979 25.6866 121.704C25.9371 123.087 26.7824 124.606 27.79 125.483C28.8349 126.392 31.1027 127.07 32.6705 126.941C34.3116 126.806 36.3176 125.592 37.1832 124.209C39.7108 120.172 37.7608 112.129 34.0317 111.21C33.859 111.168 33.2684 111.234 32.7197 111.357ZM7.38611 115.05C5.69521 115.008 3.54339 115.417 1.61427 116.147C-1.47959 117.318 -4.22099 119.727 -6.34705 123.143C-7.4654 124.941 -8.47845 125.834 -10.7691 127.043C-13.7834 128.635 -14.4734 129.116 -15.447 130.303C-16.6739 131.8 -17.1877 133.234 -17.1406 135.03C-17.029 139.271 -13.5532 142.923 -8.47575 144.133C-6.15704 144.686 -4.59991 144.668 -1.57574 144.052C0.718191 143.585 0.795279 143.586 2.85448 144.085C4.94454 144.592 4.95577 144.598 7.0097 146.248C9.47036 148.226 10.4282 148.733 12.826 149.324C15.0403 149.869 16.4931 149.904 18.6351 149.463C23.3662 148.487 26.2838 144.667 25.4845 140.495C25.1926 138.97 24.6228 137.799 23.3221 136.047C21.3748 133.426 20.9005 132.276 20.5997 129.445C20.0472 124.247 18.2024 120.541 14.8168 117.828C12.6091 116.059 10.0921 115.118 7.38611 115.05Z" fill="#696A69" fill-opacity="0.05"/>
<path fill-rule="evenodd" clip-rule="evenodd" d="M104.9 -40.1635C102.206 -41.5906 95.5783 -38.8619 93.8602 -35.618C92.3577 -32.781 92.9082 -29.6911 95.2775 -27.6637C96.7568 -26.3978 98.2577 -25.935 100.102 -26.1764C103.215 -26.5836 105.503 -29.1005 106.532 -33.2483C107.378 -36.6592 106.787 -39.1642 104.9 -40.1635ZM119.668 -27.5093C118.772 -27.9166 116.454 -27.8094 114.887 -27.288C111.59 -26.1907 108.906 -23.8959 108.21 -21.5793C106.879 -17.1463 110.593 -12.7863 115.151 -13.4318C118.166 -13.8583 120.531 -16.5513 121.453 -20.6063C122.264 -24.1733 121.632 -26.616 119.668 -27.5093ZM86.5308 -38.8664C85.623 -39.2685 83.3048 -39.1588 81.7453 -38.6397C78.4513 -37.5434 75.7888 -35.2635 75.0739 -32.9267C73.661 -28.3098 77.7905 -23.8387 82.5307 -24.8532C83.887 -25.1433 84.8253 -25.7464 85.9622 -27.0583C87.091 -28.361 87.7929 -29.7974 88.3001 -31.8418C89.1629 -35.3203 88.4882 -37.9993 86.5308 -38.8664ZM121.045 -9.30354C120.088 -9.74136 117.148 -9.47029 115.528 -8.79442C112.508 -7.5353 110.267 -5.46603 109.651 -3.36661C108.313 1.18957 112.064 5.50971 116.727 4.78361C119.618 4.33344 121.975 1.58438 122.885 -2.39879C123.701 -5.97355 123.059 -8.38262 121.045 -9.30354ZM97.1905 -17.1147C92.3324 -20.2235 86.2747 -20.1518 80.8911 -16.9215C78.6026 -15.5482 77.196 -15.1332 74.6953 -15.0927C71.2728 -15.0373 70.4813 -14.9209 68.9452 -14.2459C67.7136 -13.7048 67.3723 -13.4446 66.4037 -12.309C65.4737 -11.2189 65.2291 -10.7808 64.9541 -9.71417C64.2706 -7.06349 64.7011 -4.57194 66.3071 -1.88266C67.061 -0.619833 67.5239 -0.0875974 68.8667 1.05996C70.9299 2.82352 71.9218 3.33727 74.6678 4.06478C78.6104 5.10929 80.2453 6.51111 81.9923 10.3447C83.1822 12.9557 83.8615 13.8928 85.7361 15.5076C88.2106 17.6396 91.1565 18.7448 93.9044 18.5722C98.8179 18.2637 101.76 14.7225 101.189 9.80417C100.552 4.31789 100.572 4.02204 101.766 0.941446C102.804 -1.73613 103.155 -4.03744 102.932 -6.71221C102.726 -9.17573 101.869 -11.7045 100.588 -13.6222C99.8504 -14.726 98.0819 -16.5441 97.1905 -17.1147ZM29.3745 -32.1886C28.2861 -32.6854 25.4786 -32.3563 23.5867 -31.5099C18.7161 -29.3311 16.6354 -25.6625 18.1507 -21.9257C18.5908 -20.8407 20.3213 -19.0866 21.5089 -18.5216C23.1978 -17.7185 25.8886 -17.9252 27.4422 -18.9772C30.7847 -21.2406 32.7573 -28.1453 30.8645 -30.9575C30.3481 -31.7251 30.2962 -31.7678 29.3745 -32.1886ZM44.2839 -19.4303C43.1881 -19.9306 40.3912 -19.5973 38.4236 -18.7323C35.4405 -17.4207 33.3016 -15.2943 32.7635 -13.1046C32.4975 -12.0224 32.6332 -10.2198 33.0601 -9.16745C33.5002 -8.08247 35.2307 -6.3284 36.4183 -5.76342C38.1071 -4.96031 40.798 -5.16697 42.3515 -6.21899C45.6739 -8.46878 47.6592 -15.3979 45.7813 -18.1886C45.2571 -18.9674 45.2068 -19.0091 44.2839 -19.4303ZM10.9941 -30.8348C7.27746 -31.9746 0.899935 -28.5392 -0.271814 -24.766C-0.718524 -23.3272 -0.474046 -21.1493 0.277011 -19.8821C0.970304 -18.7123 2.39439 -17.4937 3.65734 -16.9895C5.02205 -16.4448 7.2152 -16.5385 8.56053 -17.1989C12.1313 -18.9515 14.5401 -25.8463 12.7914 -29.3091C12.3628 -30.158 11.8887 -30.5603 10.9941 -30.8348ZM45.2755 -1.30457C41.5173 -2.25875 35.4063 1.11448 34.3222 4.74155C33.9198 6.08838 33.9866 7.82514 34.4885 9.06309C35.009 10.3467 36.725 11.9767 38.1815 12.5711C39.7061 13.1933 42.0444 13.0178 43.4418 12.1766C47.5223 9.71974 49.422 1.66452 46.512 -0.841778C46.3771 -0.957769 45.8206 -1.16611 45.2755 -1.30457ZM21.0117 -9.47157C19.5228 -10.2742 17.4188 -10.883 15.3682 -11.1047C12.0793 -11.4602 8.54467 -10.5521 5.10299 -8.467C3.29262 -7.37026 1.98502 -7.03187 -0.604975 -6.98949C-4.01322 -6.93382 -4.84601 -6.81731 -6.25163 -6.19854C-8.02294 -5.41874 -9.12998 -4.37214 -9.90051 -2.749C-11.7195 1.08348 -10.2718 5.91248 -6.29121 9.28899C-4.47341 10.8309 -3.07651 11.5191 -0.101067 12.3384C2.1559 12.9598 2.2244 12.9952 3.83498 14.372C5.46979 15.7692 5.47717 15.7795 6.56212 18.1808C7.8618 21.0579 8.48678 21.943 10.3579 23.5547C12.0857 25.0431 13.3657 25.7314 15.4757 26.3067C20.1362 27.5772 24.4663 25.4904 25.6411 21.4079C26.0705 19.9161 26.0924 18.6135 25.7247 16.4632C25.1741 13.2441 25.2714 12.0041 26.2838 9.34344C28.1426 4.45789 28.1739 0.31826 26.3819 -3.63288C25.2135 -6.20964 23.3945 -8.18721 21.0117 -9.47157Z" fill="#696A69" fill-opacity="0.05"/>
<path fill-rule="evenodd" clip-rule="evenodd" d="M217.008 75.0529C219.59 73.4315 220.537 66.3272 218.585 63.2184C216.878 60.4996 213.926 59.433 210.986 60.4728C209.151 61.1219 208 62.1909 207.288 63.9095C206.086 66.8094 207.123 70.0492 210.202 73.0124C212.734 75.4493 215.2 76.1884 217.008 75.0529ZM198.669 81.5248C199.469 80.952 200.534 78.8903 200.865 77.2726C201.561 73.8687 200.914 70.3972 199.255 68.6371C196.08 65.2688 190.448 66.3083 188.73 70.5801C187.593 73.4047 188.745 76.7989 191.797 79.6229C194.482 82.1072 196.914 82.7801 198.669 81.5248ZM225.06 58.4917C225.862 57.9061 226.925 55.8431 227.255 54.2328C227.95 50.8316 227.305 47.3862 225.638 45.5995C222.344 42.0693 216.408 43.4132 214.919 48.0263C214.493 49.3462 214.547 50.4603 215.115 52.1005C215.68 53.7292 216.573 55.0547 218.091 56.5153C220.674 59.0005 223.331 59.7542 225.06 58.4917ZM182.209 73.6238C183.067 73.0127 184.3 70.331 184.524 68.5893C184.942 65.3443 184.269 62.3697 182.758 60.787C179.479 57.3522 173.863 58.4433 172.163 62.8459C171.108 65.5754 172.312 68.9905 175.309 71.7682C177.998 74.2611 180.405 74.9085 182.209 73.6238ZM200.892 56.8604C206.012 54.2049 208.976 48.9212 208.867 42.6438C208.82 39.9753 209.164 38.5495 210.378 36.3629C212.039 33.3703 212.334 32.6265 212.516 30.9586C212.663 29.6214 212.608 29.1958 212.108 27.7894C211.628 26.4392 211.371 26.0084 210.584 25.2373C208.629 23.3212 206.256 22.4495 203.124 22.4973C201.653 22.5196 200.961 22.6548 199.296 23.2447C196.738 24.1511 195.797 24.7538 193.795 26.7692C190.921 29.6629 188.89 30.3789 184.696 29.9773C181.84 29.7038 180.689 29.8242 178.353 30.6415C175.27 31.7202 172.841 33.7201 171.618 36.1868C169.431 40.5974 171.029 44.9149 175.575 46.8775C180.646 49.0665 180.892 49.231 182.965 51.8043C184.766 54.041 186.584 55.4944 189.013 56.6375C191.249 57.6903 193.868 58.2106 196.17 58.0588C197.494 57.9714 199.953 57.3476 200.892 56.8604ZM247.827 5.64172C248.801 4.94701 249.918 2.3505 250.13 0.288754C250.676 -5.01895 248.537 -8.65407 244.543 -9.20802C243.383 -9.36876 240.999 -8.74587 239.917 -7.99928C238.377 -6.93744 237.212 -4.50313 237.347 -2.63177C237.638 1.39453 242.634 6.55241 246.016 6.31755C246.939 6.25363 247.002 6.22998 247.827 5.64172ZM229.327 12.1844C230.308 11.4851 231.416 8.89563 231.65 6.75902C232.003 3.51963 231.23 0.604529 229.602 -0.955474C228.797 -1.72654 227.168 -2.50938 226.043 -2.66532C224.883 -2.82605 222.499 -2.20317 221.416 -1.45658C219.877 -0.394733 218.712 2.03957 218.847 3.91093C219.137 7.91294 224.148 13.0941 227.503 12.8614C228.44 12.7963 228.501 12.7735 229.327 12.1844ZM255.836 -10.9573C258.68 -13.6077 258.89 -20.8486 256.206 -23.7485C255.183 -24.8542 253.174 -25.7304 251.701 -25.7127C250.341 -25.6965 248.574 -25.0716 247.507 -24.2293C246.353 -23.3192 245.339 -21.3725 245.239 -19.8772C244.973 -15.9083 249.743 -10.3775 253.616 -10.1625C254.566 -10.1098 255.151 -10.3195 255.836 -10.9573ZM213.129 3.98903C215.833 1.20993 215.964 -5.76896 213.363 -8.52C212.397 -9.54139 210.859 -10.3511 209.536 -10.5347C208.164 -10.725 205.895 -10.0527 204.653 -9.08781C203.352 -8.07794 202.336 -5.96456 202.367 -4.3338C202.457 0.428402 208.486 6.09791 212.111 4.82899C212.279 4.77007 212.737 4.39205 213.129 3.98903ZM232.325 -12.9508C233.764 -13.8397 235.342 -15.3583 236.559 -17.024C238.51 -19.6955 239.489 -23.2112 239.402 -27.2343C239.356 -29.3505 239.716 -30.6523 240.973 -32.9171C242.627 -35.8975 242.942 -36.6771 243.108 -38.2039C243.318 -40.1279 242.964 -41.6097 241.943 -43.0881C239.532 -46.5783 234.625 -47.7364 229.712 -45.9747C227.468 -45.1702 226.174 -44.3039 223.978 -42.1355C222.312 -40.4908 222.247 -40.4491 220.25 -39.7416C218.223 -39.0234 218.21 -39.0221 215.588 -39.2818C212.446 -39.593 211.367 -39.4938 209.036 -38.6779C206.884 -37.9246 205.648 -37.1596 204.096 -35.6191C200.667 -32.2164 200.312 -27.4228 203.262 -24.3658C204.34 -23.2486 205.457 -22.579 207.503 -21.8233C210.567 -20.6922 211.593 -19.9885 213.392 -17.7825C216.696 -13.7317 220.266 -11.6367 224.584 -11.2153C227.4 -10.9403 230.022 -11.5283 232.325 -12.9508Z" fill="#696A69" fill-opacity="0.05"/>
<path fill-rule="evenodd" clip-rule="evenodd" d="M287.008 196.053C289.59 194.431 290.537 187.327 288.585 184.218C286.878 181.5 283.926 180.433 280.986 181.473C279.151 182.122 278 183.191 277.288 184.909C276.086 187.809 277.123 191.049 280.202 194.012C282.734 196.449 285.2 197.188 287.008 196.053ZM268.669 202.525C269.469 201.952 270.534 199.89 270.865 198.273C271.561 194.869 270.914 191.397 269.255 189.637C266.08 186.269 260.448 187.308 258.73 191.58C257.593 194.405 258.745 197.799 261.797 200.623C264.482 203.107 266.914 203.78 268.669 202.525ZM295.06 179.492C295.862 178.906 296.925 176.843 297.255 175.233C297.95 171.832 297.305 168.386 295.638 166.6C292.344 163.069 286.408 164.413 284.919 169.026C284.493 170.346 284.547 171.46 285.115 173.101C285.68 174.729 286.573 176.055 288.091 177.515C290.674 180 293.331 180.754 295.06 179.492ZM252.209 194.624C253.067 194.013 254.3 191.331 254.524 189.589C254.942 186.344 254.269 183.37 252.758 181.787C249.479 178.352 243.863 179.443 242.163 183.846C241.108 186.575 242.312 189.991 245.309 192.768C247.998 195.261 250.405 195.908 252.209 194.624ZM270.892 177.86C276.012 175.205 278.976 169.921 278.867 163.644C278.82 160.975 279.164 159.549 280.378 157.363C282.039 154.37 282.334 153.626 282.516 151.959C282.663 150.621 282.608 150.196 282.108 148.789C281.628 147.439 281.371 147.008 280.584 146.237C278.629 144.321 276.256 143.449 273.124 143.497C271.653 143.52 270.961 143.655 269.296 144.245C266.738 145.151 265.797 145.754 263.795 147.769C260.921 150.663 258.89 151.379 254.696 150.977C251.84 150.704 250.689 150.824 248.353 151.641C245.27 152.72 242.841 154.72 241.618 157.187C239.431 161.597 241.029 165.915 245.575 167.878C250.646 170.067 250.892 170.231 252.965 172.804C254.766 175.041 256.584 176.494 259.013 177.637C261.249 178.69 263.868 179.211 266.17 179.059C267.494 178.971 269.953 178.348 270.892 177.86ZM317.827 126.642C318.801 125.947 319.918 123.35 320.13 121.289C320.676 115.981 318.537 112.346 314.543 111.792C313.383 111.631 310.999 112.254 309.917 113.001C308.377 114.063 307.212 116.497 307.347 118.368C307.638 122.395 312.634 127.552 316.016 127.318C316.939 127.254 317.002 127.23 317.827 126.642ZM299.327 133.184C300.308 132.485 301.416 129.896 301.65 127.759C302.003 124.52 301.23 121.605 299.602 120.045C298.797 119.273 297.168 118.491 296.043 118.335C294.883 118.174 292.499 118.797 291.416 119.543C289.877 120.605 288.712 123.04 288.847 124.911C289.137 128.913 294.148 134.094 297.503 133.861C298.44 133.796 298.501 133.774 299.327 133.184ZM325.836 110.043C328.68 107.392 328.89 100.151 326.206 97.2515C325.183 96.1458 323.174 95.2696 321.701 95.2873C320.341 95.3035 318.574 95.9284 317.507 96.7707C316.353 97.6808 315.339 99.6275 315.239 101.123C314.973 105.092 319.743 110.623 323.616 110.837C324.566 110.89 325.151 110.681 325.836 110.043ZM283.129 124.989C285.833 122.21 285.964 115.231 283.363 112.48C282.397 111.459 280.859 110.649 279.536 110.465C278.164 110.275 275.895 110.947 274.653 111.912C273.352 112.922 272.336 115.035 272.367 116.666C272.457 121.428 278.486 127.098 282.111 125.829C282.279 125.77 282.737 125.392 283.129 124.989ZM302.325 108.049C303.764 107.16 305.342 105.642 306.559 103.976C308.51 101.305 309.489 97.7888 309.402 93.7657C309.356 91.6495 309.716 90.3477 310.973 88.0829C312.627 85.1025 312.942 84.3229 313.108 82.7961C313.318 80.8721 312.964 79.3903 311.943 77.9119C309.532 74.4217 304.625 73.2636 299.712 75.0253C297.468 75.8298 296.174 76.6961 293.978 78.8645C292.312 80.5092 292.247 80.5509 290.25 81.2584C288.223 81.9766 288.21 81.9779 285.588 81.7182C282.446 81.407 281.367 81.5062 279.036 82.3221C276.884 83.0754 275.648 83.8404 274.096 85.3809C270.667 88.7836 270.312 93.5772 273.262 96.6342C274.34 97.7514 275.457 98.421 277.503 99.1767C280.567 100.308 281.593 101.011 283.392 103.218C286.696 107.268 290.266 109.363 294.584 109.785C297.4 110.06 300.022 109.472 302.325 108.049Z" fill="#696A69" fill-opacity="0.05"/>
<path fill-rule="evenodd" clip-rule="evenodd" d="M337.85 304.472C340.758 303.553 343.464 296.917 342.358 293.416C341.391 290.355 338.803 288.579 335.696 288.845C333.756 289.011 332.373 289.755 331.251 291.239C329.357 293.742 329.544 297.139 331.778 300.782C333.614 303.779 335.814 305.115 337.85 304.472ZM318.472 306.114C319.391 305.762 320.941 304.035 321.669 302.553C323.2 299.434 323.449 295.911 322.286 293.79C320.062 289.731 314.35 289.318 311.611 293.019C309.799 295.466 310.059 299.041 312.301 302.543C314.274 305.623 316.457 306.887 318.472 306.114ZM349.815 290.474C350.739 290.109 352.287 288.38 353.012 286.905C354.542 283.789 354.786 280.292 353.622 278.143C351.324 273.897 345.241 273.702 342.638 277.791C341.893 278.961 341.664 280.052 341.801 281.783C341.937 283.501 342.468 285.009 343.569 286.805C345.442 289.861 347.824 291.26 349.815 290.474ZM304.534 294.321C305.518 293.946 307.387 291.662 308.043 290.033C309.265 286.997 309.363 283.949 308.299 282.037C305.992 277.887 300.282 277.528 297.527 281.36C295.819 283.736 296.124 287.344 298.324 290.787C300.298 293.877 302.465 295.11 304.534 294.321ZM326.838 282.806C332.462 281.526 336.661 277.159 338.137 271.057C338.764 268.463 339.456 267.17 341.182 265.359C343.544 262.882 344.016 262.236 344.613 260.668C345.092 259.411 345.146 258.985 345.016 257.499C344.892 256.071 344.752 255.589 344.185 254.645C342.776 252.298 340.698 250.856 337.655 250.114C336.227 249.765 335.523 249.721 333.763 249.873C331.059 250.105 329.997 250.451 327.551 251.897C324.041 253.974 321.895 254.155 317.938 252.71C315.242 251.725 314.098 251.552 311.632 251.754C308.377 252.021 305.522 253.345 303.717 255.424C300.489 259.141 300.948 263.722 304.853 266.766C309.208 270.162 309.405 270.384 310.763 273.396C311.942 276.014 313.336 277.879 315.398 279.597C317.297 281.179 319.7 282.343 321.966 282.776C323.269 283.025 325.806 283.041 326.838 282.806ZM385.163 245.065C386.281 244.638 388.016 242.407 388.741 240.465C390.606 235.466 389.452 231.409 385.726 229.867C384.645 229.419 382.181 229.421 380.945 229.871C379.187 230.51 377.447 232.573 377.106 234.418C376.373 238.388 379.909 244.638 383.24 245.262C384.15 245.433 384.217 245.426 385.163 245.065ZM365.611 246.735C366.737 246.306 368.462 244.079 369.226 242.07C370.385 239.024 370.37 236.008 369.188 234.088C368.603 233.14 367.224 231.971 366.175 231.537C365.093 231.089 362.629 231.092 361.393 231.541C359.636 232.181 357.895 234.243 357.554 236.088C356.826 240.034 360.37 246.311 363.676 246.931C364.599 247.104 364.664 247.097 365.611 246.735ZM397.096 231.019C400.516 229.171 402.543 222.216 400.677 218.734C399.965 217.406 398.242 216.052 396.812 215.698C395.492 215.371 393.625 215.531 392.379 216.077C391.033 216.667 389.561 218.295 389.088 219.717C387.831 223.491 391.053 230.045 394.748 231.229C395.653 231.519 396.272 231.464 397.096 231.019ZM352.001 234.723C355.318 232.715 357.203 225.994 355.379 222.677C354.702 221.445 353.417 220.274 352.183 219.763C350.904 219.233 348.538 219.312 347.093 219.933C345.579 220.582 344.064 222.371 343.683 223.957C342.57 228.589 346.976 235.594 350.804 235.279C350.981 235.265 351.52 235.014 352.001 234.723ZM374.845 223.166C376.462 222.669 378.372 221.597 379.969 220.291C382.53 218.197 384.363 215.042 385.293 211.126C385.781 209.067 386.458 207.898 388.245 206.023C390.597 203.555 391.098 202.88 391.644 201.445C392.331 199.636 392.362 198.112 391.746 196.424C390.292 192.439 385.836 190.082 380.637 190.549C378.263 190.762 376.792 191.275 374.121 192.82C372.094 193.992 372.021 194.016 369.91 194.197C367.767 194.382 367.755 194.38 365.282 193.468C362.321 192.375 361.251 192.199 358.79 192.402C356.517 192.588 355.129 193.017 353.238 194.117C349.063 196.546 347.511 201.095 349.596 204.797C350.357 206.15 351.27 207.079 353.06 208.326C355.74 210.193 356.555 211.132 357.741 213.72C359.917 218.473 362.845 221.4 366.917 222.895C369.573 223.871 372.258 223.963 374.845 223.166Z" fill="#696A69" fill-opacity="0.05"/>
<path fill-rule="evenodd" clip-rule="evenodd" d="M339.423 415.288C342.471 415.381 347.217 410.011 347.33 406.342C347.428 403.133 345.572 400.602 342.552 399.826C340.666 399.342 339.115 399.588 337.566 400.618C334.951 402.355 334.006 405.623 334.91 409.8C335.654 413.234 337.289 415.222 339.423 415.288ZM320.59 410.437C321.574 410.408 323.608 409.29 324.784 408.131C327.26 405.694 328.658 402.451 328.261 400.065C327.503 395.498 322.248 393.221 318.44 395.81C315.922 397.522 314.986 400.981 315.945 405.027C316.79 408.587 318.433 410.501 320.59 410.437ZM355.341 406.028C356.333 405.989 358.365 404.868 359.536 403.715C362.01 401.279 363.395 398.059 363.007 395.647C362.241 390.88 356.563 388.686 352.755 391.686C351.666 392.544 351.089 393.499 350.647 395.178C350.208 396.844 350.211 398.443 350.657 400.502C351.415 404.005 353.202 406.112 355.341 406.028ZM311.33 394.702C312.383 394.673 314.902 393.134 316.059 391.813C318.214 389.352 319.314 386.507 318.942 384.351C318.134 379.672 312.864 377.447 308.998 380.154C306.601 381.832 305.697 385.338 306.636 389.315C307.478 392.883 309.116 394.763 311.33 394.702ZM336.186 391.2C341.917 391.85 347.323 389.116 350.732 383.843C352.181 381.602 353.26 380.61 355.487 379.471C358.535 377.913 359.194 377.46 360.276 376.177C361.143 375.148 361.334 374.764 361.703 373.318C362.058 371.93 362.084 371.429 361.861 370.35C361.306 367.669 359.822 365.623 357.195 363.916C355.962 363.115 355.311 362.841 353.6 362.403C350.971 361.729 349.854 361.705 347.069 362.262C343.069 363.062 340.984 362.525 337.726 359.853C335.508 358.034 334.485 357.492 332.09 356.869C328.93 356.046 325.798 356.352 323.407 357.718C319.133 360.16 318.053 364.636 320.733 368.799C323.722 373.443 323.835 373.717 324.121 377.009C324.369 379.87 325.069 382.09 326.448 384.393C327.718 386.514 329.602 388.406 331.597 389.563C332.745 390.228 335.134 391.081 336.186 391.2ZM403.704 374.843C404.9 374.81 407.275 373.277 408.6 371.683C412.012 367.581 412.263 363.371 409.256 360.684C408.382 359.904 406.056 359.093 404.741 359.109C402.871 359.132 400.547 360.504 399.616 362.133C397.613 365.638 398.885 372.705 401.824 374.395C402.625 374.856 402.691 374.872 403.704 374.843ZM384.698 369.962C385.902 369.928 388.265 368.396 389.65 366.753C391.75 364.261 392.733 361.409 392.251 359.206C392.013 358.118 391.096 356.56 390.249 355.803C389.376 355.023 387.05 354.211 385.735 354.227C383.865 354.251 381.541 355.622 380.61 357.251C378.619 360.735 379.891 367.83 382.806 369.507C383.62 369.975 383.683 369.991 384.698 369.962ZM419.606 365.528C423.445 364.913 427.655 359.018 427.044 355.115C426.811 353.627 425.632 351.779 424.399 350.973C423.261 350.228 421.446 349.762 420.09 349.866C418.625 349.978 416.698 351.029 415.781 352.215C413.348 355.362 414.225 362.612 417.32 364.95C418.079 365.523 418.682 365.675 419.606 365.528ZM375.819 354.128C379.613 353.329 383.612 347.607 382.987 343.874C382.754 342.488 381.929 340.958 380.933 340.068C379.9 339.145 377.641 338.438 376.072 338.547C374.429 338.66 372.407 339.848 371.524 341.219C368.944 345.223 370.788 353.291 374.505 354.258C374.677 354.303 375.269 354.244 375.819 354.128ZM401.199 350.766C402.889 350.83 405.046 350.449 406.984 349.745C410.093 348.614 412.866 346.241 415.036 342.853C416.178 341.071 417.203 340.191 419.509 339.011C422.544 337.459 423.24 336.987 424.229 335.812C425.475 334.332 426.008 332.904 425.984 331.108C425.928 326.866 422.5 323.169 417.439 321.893C415.128 321.31 413.57 321.308 410.538 321.884C408.239 322.32 408.161 322.319 406.109 321.793C404.026 321.259 404.015 321.253 401.982 319.576C399.548 317.566 398.597 317.047 396.207 316.425C394 315.85 392.547 315.797 390.4 316.21C385.656 317.124 382.689 320.905 383.434 325.087C383.706 326.616 384.26 327.795 385.538 329.563C387.451 332.21 387.91 333.366 388.174 336.2C388.659 341.405 390.455 345.135 393.805 347.892C395.989 349.69 398.494 350.663 401.199 350.766Z" fill="#696A69" fill-opacity="0.05"/>
<path fill-rule="evenodd" clip-rule="evenodd" d="M358.582 547.961C361.59 547.463 365.21 541.278 364.612 537.656C364.088 534.488 361.778 532.364 358.665 532.186C356.721 532.075 355.247 532.616 353.925 533.926C351.696 536.136 351.4 539.524 353.094 543.448C354.487 546.674 356.475 548.309 358.582 547.961ZM339.167 546.84C340.126 546.621 341.906 545.131 342.836 543.767C344.794 540.897 345.539 537.445 344.69 535.181C343.064 530.847 337.467 529.628 334.231 532.904C332.091 535.069 331.841 538.645 333.564 542.429C335.08 545.758 337.063 547.319 339.167 546.84ZM372.411 535.8C373.377 535.57 375.154 534.078 376.081 532.72C378.037 529.852 378.774 526.426 377.927 524.133C376.254 519.604 370.26 518.549 367.104 522.228C366.2 523.28 365.819 524.328 365.709 526.061C365.601 527.781 365.912 529.349 366.747 531.283C368.168 534.573 370.328 536.296 372.411 535.8ZM327.041 533.19C328.068 532.958 330.243 530.962 331.123 529.442C332.762 526.611 333.291 523.607 332.51 521.563C330.814 517.128 325.213 515.963 321.942 519.366C319.915 521.476 319.705 525.091 321.395 528.811C322.911 532.15 324.881 533.677 327.041 533.19ZM350.752 524.952C356.501 524.483 361.277 520.755 363.603 514.924C364.592 512.445 365.459 511.263 367.424 509.715C370.114 507.598 370.673 507.026 371.486 505.558C372.138 504.381 372.252 503.968 372.334 502.477C372.414 501.047 372.343 500.55 371.916 499.535C370.854 497.012 369.002 495.29 366.095 494.124C364.73 493.576 364.039 493.433 362.276 493.333C359.566 493.18 358.465 493.372 355.84 494.457C352.07 496.015 349.92 495.89 346.208 493.898C343.679 492.542 342.571 492.208 340.102 492.059C336.841 491.862 333.828 492.767 331.746 494.569C328.024 497.791 327.829 502.391 331.263 505.958C335.093 509.938 335.257 510.185 336.173 513.359C336.969 516.118 338.085 518.161 339.882 520.154C341.538 521.99 343.752 523.482 345.933 524.232C347.189 524.663 349.697 525.038 350.752 524.952ZM413.838 495.86C415.005 495.596 417.04 493.633 418.032 491.814C420.587 487.129 420.02 482.95 416.55 480.895C415.543 480.299 413.103 479.951 411.816 480.221C409.986 480.606 407.97 482.4 407.372 484.178C406.084 488.004 408.697 494.692 411.907 495.783C412.783 496.081 412.85 496.084 413.838 495.86ZM394.247 494.742C395.422 494.476 397.445 492.517 398.487 490.636C400.065 487.786 400.479 484.798 399.58 482.73C399.136 481.708 397.936 480.356 396.959 479.777C395.952 479.181 393.512 478.834 392.225 479.104C390.395 479.488 388.379 481.282 387.781 483.061C386.5 486.863 389.119 493.579 392.304 494.661C393.192 494.963 393.258 494.966 394.247 494.742ZM427.641 483.647C431.289 482.303 434.282 475.706 432.928 471.994C432.412 470.579 430.898 468.994 429.532 468.441C428.272 467.93 426.401 467.823 425.091 468.187C423.675 468.581 421.987 469.984 421.317 471.324C419.537 474.882 421.798 481.827 425.287 483.522C426.143 483.938 426.763 483.971 427.641 483.647ZM382.477 480.922C386.045 479.404 388.863 473.019 387.529 469.476C387.033 468.161 385.927 466.819 384.778 466.139C383.586 465.433 381.234 465.176 379.715 465.585C378.125 466.014 376.371 467.57 375.769 469.086C374.011 473.512 377.379 481.072 381.213 481.303C381.391 481.314 381.96 481.142 382.477 480.922ZM406.729 472.72C408.4 472.457 410.443 471.666 412.208 470.6C415.04 468.891 417.302 466.027 418.777 462.283C419.553 460.313 420.388 459.252 422.423 457.649C425.101 455.54 425.693 454.943 426.437 453.599C427.373 451.905 427.62 450.402 427.25 448.644C426.375 444.493 422.298 441.528 417.085 441.253C414.705 441.128 413.177 441.427 410.313 442.577C408.141 443.45 408.065 443.464 405.95 443.344C403.802 443.223 403.79 443.219 401.472 441.966C398.695 440.464 397.662 440.139 395.197 439.99C392.92 439.853 391.485 440.081 389.458 440.901C384.98 442.714 382.799 446.997 384.338 450.957C384.9 452.404 385.672 453.454 387.267 454.942C389.656 457.169 390.329 458.215 391.136 460.945C392.617 465.958 395.1 469.27 398.919 471.328C401.41 472.67 404.055 473.142 406.729 472.72Z" fill="#696A69" fill-opacity="0.05"/>
<path fill-rule="evenodd" clip-rule="evenodd" d="M374.582 697.961C377.59 697.463 381.21 691.278 380.612 687.656C380.088 684.488 377.778 682.364 374.665 682.186C372.721 682.075 371.247 682.616 369.925 683.926C367.696 686.136 367.4 689.524 369.094 693.448C370.487 696.674 372.475 698.309 374.582 697.961ZM355.167 696.84C356.126 696.621 357.906 695.131 358.836 693.767C360.794 690.897 361.539 687.445 360.69 685.181C359.064 680.847 353.467 679.628 350.231 682.904C348.091 685.069 347.841 688.645 349.564 692.429C351.08 695.758 353.063 697.319 355.167 696.84ZM388.411 685.8C389.377 685.57 391.154 684.078 392.081 682.72C394.037 679.852 394.774 676.426 393.927 674.133C392.254 669.604 386.26 668.549 383.104 672.228C382.2 673.28 381.819 674.328 381.709 676.061C381.601 677.781 381.912 679.349 382.747 681.283C384.168 684.573 386.328 686.296 388.411 685.8ZM343.041 683.19C344.068 682.958 346.243 680.962 347.123 679.442C348.762 676.611 349.291 673.607 348.51 671.563C346.814 667.128 341.213 665.963 337.942 669.366C335.915 671.476 335.705 675.091 337.395 678.811C338.911 682.15 340.881 683.677 343.041 683.19ZM366.752 674.952C372.501 674.483 377.277 670.755 379.603 664.924C380.592 662.445 381.459 661.263 383.424 659.715C386.114 657.598 386.673 657.026 387.486 655.558C388.138 654.381 388.252 653.968 388.334 652.477C388.414 651.047 388.343 650.55 387.916 649.535C386.854 647.012 385.002 645.29 382.095 644.124C380.73 643.576 380.039 643.433 378.276 643.333C375.566 643.18 374.465 643.372 371.84 644.457C368.07 646.015 365.92 645.89 362.208 643.898C359.679 642.542 358.571 642.208 356.102 642.059C352.841 641.862 349.828 642.767 347.746 644.569C344.024 647.791 343.829 652.391 347.263 655.958C351.093 659.938 351.257 660.185 352.173 663.359C352.969 666.118 354.085 668.161 355.882 670.154C357.538 671.99 359.752 673.482 361.933 674.232C363.189 674.663 365.697 675.038 366.752 674.952ZM429.838 645.86C431.005 645.596 433.04 643.633 434.032 641.814C436.587 637.129 436.02 632.95 432.55 630.895C431.543 630.299 429.103 629.951 427.816 630.221C425.986 630.606 423.97 632.4 423.372 634.178C422.084 638.004 424.697 644.692 427.907 645.783C428.783 646.081 428.85 646.084 429.838 645.86ZM410.247 644.742C411.422 644.476 413.445 642.517 414.487 640.636C416.065 637.786 416.479 634.798 415.58 632.73C415.136 631.708 413.936 630.356 412.959 629.777C411.952 629.181 409.512 628.834 408.225 629.104C406.395 629.488 404.379 631.282 403.781 633.061C402.5 636.863 405.119 643.579 408.304 644.661C409.192 644.963 409.258 644.966 410.247 644.742ZM443.641 633.647C447.289 632.303 450.282 625.706 448.928 621.994C448.412 620.579 446.898 618.994 445.532 618.441C444.272 617.93 442.401 617.823 441.091 618.187C439.675 618.581 437.987 619.984 437.317 621.324C435.537 624.882 437.798 631.827 441.287 633.522C442.143 633.938 442.763 633.971 443.641 633.647ZM398.477 630.922C402.045 629.404 404.863 623.019 403.529 619.476C403.033 618.161 401.927 616.819 400.778 616.139C399.586 615.433 397.234 615.176 395.715 615.585C394.125 616.014 392.371 617.57 391.769 619.086C390.011 623.512 393.379 631.072 397.213 631.303C397.391 631.314 397.96 631.142 398.477 630.922ZM422.729 622.72C424.4 622.457 426.443 621.666 428.208 620.6C431.04 618.891 433.302 616.027 434.777 612.283C435.553 610.313 436.388 609.252 438.423 607.649C441.101 605.54 441.693 604.943 442.437 603.599C443.373 601.905 443.62 600.402 443.25 598.644C442.375 594.493 438.298 591.528 433.085 591.253C430.705 591.128 429.177 591.427 426.313 592.577C424.141 593.45 424.065 593.464 421.95 593.344C419.802 593.223 419.79 593.219 417.472 591.966C414.695 590.464 413.662 590.139 411.197 589.99C408.92 589.853 407.485 590.081 405.458 590.901C400.98 592.714 398.799 596.997 400.338 600.957C400.9 602.404 401.672 603.454 403.267 604.942C405.656 607.169 406.329 608.215 407.136 610.945C408.617 615.958 411.1 619.27 414.919 621.328C417.41 622.67 420.055 623.142 422.729 622.72Z" fill="#696A69" fill-opacity="0.05"/>
</g>
<defs>
<clipPath id="clip0_163_10285">
<rect width="375" height="812" fill="white"/>
</clipPath>
</defs>
</svg>
