<svg width="182" height="182" viewBox="0 0 182 182" fill="none" xmlns="http://www.w3.org/2000/svg">
<path d="M146.101 141.588C139.295 141.588 131.876 138.962 123.099 133.688C119.84 131.731 118.784 127.502 120.742 124.244C122.702 120.985 126.93 119.929 130.189 121.887C144.848 130.693 150.231 128.12 155.746 123.839C158.751 121.508 163.074 122.054 165.406 125.056C167.738 128.059 167.192 132.385 164.189 134.716C158.293 139.293 152.464 141.588 146.101 141.588Z" fill="#495059"/>
<path d="M87.557 179.333C85.4228 179.333 83.2858 178.544 81.6195 176.954C72.1441 167.916 70.1223 153.692 76.5874 141.557C78.823 137.364 84.0356 135.776 88.229 138.01C92.4225 140.245 94.011 145.456 91.7768 149.651C89.6231 153.691 88.7831 160.004 93.4986 164.502C96.9366 167.781 97.0658 173.229 93.786 176.667C92.0948 178.44 89.8273 179.333 87.557 179.333Z" fill="#DDAF89"/>
<path d="M129.404 170.673C128.069 170.673 126.713 170.362 125.446 169.704C121.229 167.513 119.585 162.318 121.776 158.101C124.549 152.759 122.07 145.48 116.359 142.206C112.238 139.842 110.812 134.583 113.176 130.461C115.54 126.339 120.798 124.912 124.921 127.277C138.626 135.136 144.066 152.522 137.048 166.032C135.517 168.983 132.513 170.673 129.404 170.673Z" fill="#DDAF89"/>
<path d="M47.6148 133.736C38.0602 133.736 29.1054 130.028 23.6818 124.39C20.3867 120.964 20.4923 115.517 23.9178 112.222C27.342 108.929 32.7893 109.033 36.0843 112.458C39.3529 115.856 49.406 119.105 57.8068 113.487C61.7572 110.845 67.1017 111.906 69.7428 115.856C72.3852 119.806 71.3243 125.15 67.3739 127.792C61.1532 131.952 54.2396 133.736 47.6148 133.736Z" fill="#DDAF89"/>
<path d="M127.977 119.106C125.211 118.546 122.777 116.64 121.668 113.82C119.927 109.397 122.101 104.401 126.525 102.661C139.965 97.3724 150.337 91.2322 153.595 86.6347C156.341 82.7579 161.714 81.8401 165.591 84.5894C169.469 87.3374 170.384 92.7082 167.637 96.5851C160.819 106.205 144.944 113.907 132.826 118.675C131.224 119.306 129.547 119.422 127.977 119.106Z" fill="#DDAF89"/>
<path d="M143.109 106.04C142.517 102.688 141.501 99.4916 140.116 96.491C136.156 98.5835 131.556 100.683 126.524 102.663C122.101 104.403 119.927 109.399 121.668 113.821C122.777 116.642 125.212 118.548 127.978 119.108C129.547 119.424 131.224 119.308 132.825 118.677C136.241 117.333 139.955 115.757 143.681 113.969C143.76 111.353 143.578 108.7 143.109 106.04Z" fill="#D1A582"/>
<path d="M124.921 127.277C120.798 124.912 115.54 126.34 113.177 130.461C110.812 134.583 112.238 139.842 116.359 142.206C119.382 143.939 121.498 146.794 122.41 149.889C127.352 146.886 131.71 143.042 135.254 138.484C135.417 138.276 135.574 138.066 135.732 137.855C133.155 133.599 129.503 129.904 124.921 127.277Z" fill="#D1A582"/>
<path d="M90.0615 156.908C89.9504 154.261 90.6989 151.672 91.7764 149.651C94.0106 145.458 92.4221 140.245 88.2286 138.01C84.0338 135.776 78.8226 137.364 76.587 141.557C74.8375 144.84 73.7155 148.277 73.1879 151.722C78.2825 154.406 83.9922 156.201 90.0615 156.908Z" fill="#D1A582"/>
<path d="M69.7427 115.857C67.1017 111.907 61.7571 110.846 57.8067 113.489C55.4337 115.076 52.9273 115.955 50.4807 116.323C50.5265 118.293 50.7182 120.277 51.0695 122.268C51.7415 126.08 52.9537 129.694 54.6297 133.053C58.9897 132.194 63.329 130.5 67.3738 127.793C71.3242 125.152 72.3851 119.808 69.7427 115.857Z" fill="#D1A582"/>
<path d="M138.684 106.823C135.046 86.1888 113.603 72.7227 90.7876 76.7453C67.9709 80.7665 52.4247 100.753 56.0613 121.387C59.6979 142.019 81.1427 155.486 103.958 151.464C126.775 147.442 142.321 127.455 138.684 106.823Z" fill="#DDAF89"/>
<path d="M130.46 83.5372C121.817 93.7236 109.705 101.068 95.521 103.568C81.3369 106.071 67.4431 103.31 55.8376 96.6951C54.1755 99.8624 52.9161 103.214 52.1246 106.686C51.0471 111.414 53.6576 116.215 58.2023 117.907C70.7159 122.564 84.5959 124.054 98.6952 121.568C112.795 119.081 125.326 112.934 135.493 104.278C139.185 101.134 139.996 95.73 137.366 91.6547C135.435 88.6637 133.105 85.945 130.46 83.5372Z" fill="#7F9AE6"/>
<path d="M76.1604 103.789C68.9344 102.676 62.0569 100.239 55.8376 96.6938C54.1755 99.8611 52.9161 103.213 52.1246 106.684C51.0471 111.412 53.6576 116.214 58.2023 117.905C64.7091 120.327 71.5866 121.883 78.6709 122.479C75.3093 117.933 74.6927 110.327 76.1604 103.789Z" fill="#5E78BF"/>
<path d="M67.803 42.233C66.0256 42.5454 64.1386 42.3205 62.3932 41.4693L50.2934 35.5694C44.9946 32.9867 38.7101 34.3863 35.0096 38.9755L29.068 46.3459C26.0007 50.1519 20.427 50.7489 16.621 47.6816C12.815 44.613 12.2179 39.0407 15.2852 35.2347L21.2268 27.8643C25.5119 22.5504 31.541 18.8055 38.2046 17.3197C44.8683 15.8354 51.9166 16.6643 58.0526 19.6566L70.1524 25.5566C74.5458 27.6991 76.3717 32.9992 74.2292 37.3925C72.9378 40.0419 70.4981 41.7567 67.803 42.233Z" fill="#495059"/>
<path d="M100.59 36.4498C97.8944 36.9261 95.0159 36.1485 92.8956 34.1004C89.3798 30.704 89.2826 25.0999 92.679 21.5841L102.031 11.9017C106.774 6.99184 113.116 3.80235 119.882 2.91784C126.651 2.03473 133.598 3.49131 139.441 7.01961L147.546 11.9128C151.73 14.44 153.074 19.8803 150.548 24.0654C148.021 28.2505 142.579 29.5946 138.394 27.0674L130.291 22.1742C125.243 19.1277 118.859 19.9609 114.764 24.2001L105.412 33.8838C104.064 35.2793 102.367 36.1374 100.59 36.4498Z" fill="#495059"/>
<path d="M96.3706 108.383C140.624 100.581 156.993 76.7927 145.735 49.3453C133.638 19.8498 109.609 6.77389 79.3928 12.1004C49.1779 17.4282 31.0698 37.9342 29.7896 69.7889C28.5982 99.4315 52.1161 116.187 96.3706 108.383Z" fill="#DDAF89"/>
<path d="M110.669 123.021C110.669 129.493 105.423 134.739 98.9507 134.739C92.4801 134.739 87.2341 129.493 87.2341 123.021C87.2341 116.549 92.4801 111.304 98.9507 111.304C105.423 111.304 110.669 116.549 110.669 123.021Z" fill="#F6E06A"/>
<path d="M65.8273 58.65C64.9206 53.5082 58.9512 50.2618 52.4945 51.4004C46.0363 52.539 41.5374 57.6294 42.4441 62.7725C43.3495 67.9143 49.3188 71.1594 55.777 70.0208C62.2337 68.8835 66.7326 63.7917 65.8273 58.65Z" fill="#FFDBDB"/>
<path d="M108.061 51.1957C108.968 56.3388 114.937 59.5839 121.394 58.4453C127.852 57.308 132.351 52.2162 131.444 47.0745C130.538 41.9327 124.57 38.6863 118.111 39.8249C111.655 40.9621 107.156 46.0539 108.061 51.1957Z" fill="#FFDBDB"/>
<path d="M91.7193 46.1486C87.5134 45.8043 83.2909 46.5485 79.4557 48.3106C77.8686 49.0396 76.598 50.3198 75.8816 51.9139C74.9137 54.0661 76.1287 56.5697 78.4198 57.139L84.7724 58.7205C86.6636 59.1912 88.6673 58.8372 90.2836 57.7485L95.7128 54.0897C97.6693 52.7706 97.9553 50.0032 96.3099 48.312C95.0907 47.0581 93.4606 46.2903 91.7193 46.1486Z" fill="#495059"/>
<path d="M93.7296 93.6393C113.476 90.1568 124.386 74.487 117.37 65.667C110.494 57.0205 100.181 64.1035 88.8738 66.0975C77.5655 68.0914 65.4532 64.963 61.9485 75.4396C58.3716 86.1272 73.983 97.1203 93.7296 93.6393Z" fill="white"/>
<path d="M72.5292 67.5815L73.7387 92.1116C75.3702 92.7267 77.1295 93.2293 78.9943 93.5959L77.6863 67.0761C75.8895 67.1858 74.1552 67.326 72.5292 67.5815ZM104.817 61.8871C103.201 62.1981 101.524 62.6577 99.7962 63.1687L107.632 88.5152C109.258 87.528 110.737 86.4505 112.057 85.3091L104.817 61.8871ZM88.8739 66.0985C88.0352 66.2457 87.1937 66.3651 86.3509 66.4637L91.2066 94.0083C92.0397 93.9111 92.8798 93.7889 93.7296 93.639C94.6058 93.4848 95.4639 93.3057 96.304 93.1044L91.4468 65.5612C90.5957 65.7639 89.7375 65.9458 88.8739 66.0985Z" fill="#DFE3E5"/>
<path d="M110.788 38.1639C112.907 37.7918 114.93 39.2095 115.304 41.3256C115.559 42.7753 116.942 43.7431 118.392 43.4876C119.842 43.2321 120.809 41.8491 120.554 40.3995C119.671 35.3882 114.875 32.0293 109.863 32.9138C104.851 33.797 101.493 38.593 102.376 43.6042C102.605 44.8984 103.73 45.8079 104.999 45.8079C105.153 45.8079 105.309 45.794 105.466 45.7676C106.916 45.5121 107.883 44.1291 107.628 42.6795C107.256 40.5633 108.673 38.5374 110.788 38.1639ZM162.252 145.029C160.798 145.26 159.805 146.625 160.036 148.08C160.286 149.657 159.939 152.19 159.226 153.97C158.679 155.338 159.344 156.889 160.712 157.436C161.037 157.565 161.372 157.627 161.701 157.627C162.759 157.627 163.76 156.993 164.178 155.95C165.071 153.717 165.765 150.158 165.303 147.244C165.072 145.79 163.709 144.799 162.252 145.029ZM86.4927 96.9397C89.0255 96.9397 91.6123 96.7189 94.1936 96.2648C106.857 94.0306 117.668 86.4534 121.097 77.4084C122.973 72.454 122.391 67.6955 119.457 64.0075C113.299 56.265 104.984 58.7949 96.9457 61.2429C95.0115 61.8317 93.03 62.4315 91.0347 62.9147L90.6417 60.6084C91.0305 60.4181 91.4096 60.2029 91.7734 59.9585L97.2026 56.2997C98.7925 55.2291 99.8173 53.5212 100.014 51.6148C100.212 49.7069 99.5576 47.8254 98.2204 46.4522C96.5528 44.7373 94.32 43.6848 91.9359 43.4904C87.2856 43.1113 82.584 43.9403 78.3433 45.887C76.1689 46.8854 74.4304 48.6377 73.4501 50.8191C72.6628 52.5673 72.6933 54.5599 73.5306 56.2844C74.3679 58.009 75.9148 59.2629 77.7754 59.7266L84.128 61.3068C84.5446 61.4109 84.9667 61.4832 85.3888 61.529L85.7846 63.8423C83.7337 64.0728 81.6564 64.188 79.6277 64.2963C71.2367 64.7462 62.5583 65.2114 59.4202 74.5938C57.9247 79.0635 59.005 83.7346 62.4625 87.7475C67.4904 93.5808 76.5965 96.9397 86.4927 96.9397ZM85.4152 56.1317L79.0626 54.5515C78.621 54.4418 78.4114 54.1294 78.3267 53.9545C78.2406 53.7781 78.1253 53.4213 78.3128 53.0061C78.7641 52.0008 79.5653 51.1926 80.5678 50.7316C83.4407 49.4139 86.5733 48.7321 89.7253 48.7321C90.3168 48.7321 90.9097 48.7557 91.5012 48.8043C92.601 48.8946 93.6299 49.3792 94.3991 50.1693C94.7171 50.4956 94.7296 50.8705 94.7102 51.0649C94.6893 51.2593 94.6005 51.6245 94.2228 51.8786L88.7936 55.536C87.8035 56.2025 86.5733 56.4191 85.4152 56.1317ZM64.4759 76.285C66.3727 70.6184 71.3242 70.081 79.9138 69.62C82.97 69.4562 86.1303 69.2868 89.3212 68.7258H89.3226C89.3226 68.7258 89.3226 68.7244 89.324 68.7244C89.3282 68.7244 89.3323 68.723 89.3365 68.723C92.5329 68.1593 95.5655 67.2359 98.4981 66.3431C102.672 65.0725 105.971 64.1408 108.697 64.1408C111.345 64.1408 113.45 65.0212 115.284 67.3262C117.484 70.0921 116.948 73.308 116.109 75.5186C113.793 81.6351 105.831 88.7972 93.2661 91.0133C80.7025 93.2281 70.7716 89.2207 66.5018 84.2664C64.9591 82.4752 63.3553 79.637 64.4759 76.285ZM169.811 98.1269C173.405 93.0559 172.202 86.0076 167.131 82.4141C164.676 80.6729 161.688 79.9925 158.72 80.4993C155.752 81.0061 153.16 82.6376 151.419 85.094C149.874 87.274 146.13 90.0844 140.939 93.0004C140.803 92.5866 140.645 92.1783 140.462 91.7757C144.084 88.2001 146.524 84.5983 148.161 81.3199C148.819 80.0022 148.283 78.4012 146.967 77.743C145.651 77.0848 144.048 77.6208 143.39 78.9372C140.235 85.2578 134.75 90.7356 127.091 95.2179C118.907 100.007 108.417 103.553 95.9085 105.758C78.6391 108.803 64.2537 108.137 53.5091 103.884C53.3369 103.791 53.1523 103.716 52.9565 103.66C49.1727 102.102 45.8513 100.092 43.0311 97.627C35.6427 91.1702 31.9852 81.581 32.4545 69.8963C32.9836 56.7107 36.4383 45.5399 42.734 36.6101C42.7742 36.5574 42.8103 36.5032 42.8465 36.4491C43.7573 35.1661 44.7279 33.9316 45.7569 32.743C49.4671 28.4594 53.8701 24.8714 58.9342 21.9902C59.0925 21.9193 59.2438 21.8332 59.3869 21.7319C65.3285 18.4258 72.1685 16.0819 79.8569 14.7267C87.5453 13.3714 94.774 13.234 101.489 14.3087C101.658 14.3545 101.829 14.3837 102.003 14.3962C107.746 15.3723 113.111 17.2372 118.063 19.9934C119.437 20.7599 120.775 21.5902 122.072 22.4845C122.12 22.522 122.169 22.5567 122.22 22.59C131.192 28.8287 138.261 38.1459 143.269 50.3567C145.932 56.8482 146.961 63.0966 146.328 68.9299C146.168 70.3934 147.227 71.7098 148.69 71.8681C150.155 72.0278 151.469 70.9697 151.628 69.5062C152.359 62.7801 151.206 55.6568 148.203 48.3336C145.249 41.1312 141.61 34.8481 137.316 29.5161C139.06 30.5019 140.989 31.0129 142.951 31.0129C143.877 31.0129 144.81 30.8991 145.734 30.6713C148.721 29.934 151.241 28.0775 152.831 25.4435C154.422 22.8094 154.891 19.7143 154.153 16.7276C153.415 13.7408 151.559 11.2206 148.925 9.63071L140.821 4.73747C134.462 0.898147 126.902 -0.687571 119.537 0.274691C112.735 1.16336 106.314 4.20566 101.307 8.88367C94.3061 7.88808 86.8315 8.08248 78.9307 9.47519C71.0298 10.8693 63.9399 13.2423 57.7025 16.572C51.3958 13.888 44.3211 13.2257 37.6255 14.7169C30.3745 16.3332 23.815 20.4072 19.1522 26.1905L13.2106 33.5609C9.22411 38.5041 10.0045 45.7704 14.9477 49.7569C17.0736 51.469 19.6271 52.3021 22.1668 52.3021C25.4257 52.3021 28.6555 50.926 30.9202 48.2809C28.7096 54.7598 27.4391 61.9053 27.1267 69.6825C26.5893 83.0362 30.8758 94.0876 39.5223 101.643C42.3563 104.12 45.6124 106.192 49.2588 107.861C49.1019 109.878 49.4504 111.865 50.2224 113.666C44.6557 114.567 39.6375 112.308 38.006 110.611C35.919 108.442 33.1127 107.215 30.1023 107.157C27.092 107.1 24.2399 108.216 22.0696 110.303C19.9007 112.39 18.6732 115.198 18.6149 118.207C18.5565 121.217 19.6729 124.069 21.7599 126.239C27.8834 132.603 37.5477 136.404 47.6147 136.404C51.2847 136.404 54.8893 135.887 58.3635 134.879C61.4891 139.997 65.8644 144.42 71.2826 147.846C69.2581 155.51 70.0009 163.413 73.4473 170.321C73.9153 171.256 74.8567 171.798 75.8356 171.798C76.2355 171.798 76.6424 171.707 77.0242 171.517C78.3419 170.859 78.8765 169.258 78.2184 167.94C75.5482 162.589 74.8386 156.494 76.1272 150.499C79.7458 152.198 83.5865 153.412 87.555 154.116C86.8843 158.801 88.3256 163.252 91.6581 166.431C92.8051 167.526 93.4577 169.002 93.4952 170.588C93.5327 172.175 92.9509 173.679 91.8567 174.827C90.725 176.015 89.1976 176.667 87.5578 176.667C86.433 176.667 85.3389 176.352 84.396 175.758C83.1505 174.972 81.5037 175.344 80.7178 176.588C79.9318 177.834 80.304 179.479 81.5495 180.266C83.3463 181.401 85.4236 181.999 87.5578 181.999C90.6695 181.999 93.566 180.759 95.7141 178.508C97.7928 176.33 98.898 173.472 98.8272 170.463C98.755 167.453 97.5164 164.651 95.3378 162.573C92.7121 160.067 92.4774 157.046 92.844 154.746C93.8409 154.809 94.8449 154.843 95.8516 154.843C98.6911 154.843 101.563 154.593 104.43 154.088C109.695 153.159 114.672 151.415 119.189 148.963C120.489 151.579 120.615 154.553 119.41 156.872C118.023 159.545 117.759 162.597 118.667 165.467C119.575 168.337 121.547 170.683 124.218 172.07C125.818 172.901 127.612 173.34 129.406 173.34C133.634 173.34 137.469 171.012 139.416 167.263C143.158 160.057 143.705 151.625 141.328 143.877C142.95 144.129 144.534 144.256 146.103 144.256C146.718 144.256 147.331 144.228 147.94 144.189C147.772 145.632 147.488 147.148 146.992 148.456C146.47 149.834 147.163 151.372 148.54 151.894C148.851 152.012 149.17 152.068 149.484 152.068C150.56 152.068 151.574 151.412 151.978 150.346C152.849 148.049 153.214 145.464 153.382 143.289C157.596 142.155 161.712 140.014 165.825 136.823C169.985 133.594 170.743 127.582 167.513 123.422C165.167 120.399 161.349 119.176 157.841 119.971C157.491 118.734 157.103 117.551 156.717 116.546C156.191 115.171 154.65 114.483 153.275 115.009C151.9 115.536 151.212 117.078 151.739 118.452C152.213 119.688 152.657 121.141 153.017 122.558C149.758 124.906 146.506 126.174 140.228 123.904C140.832 121.932 141.272 119.926 141.547 117.898C155.434 111.649 164.94 105.002 169.811 98.1269ZM120.228 5.56088C126.401 4.75553 132.734 6.08436 138.063 9.30162L146.167 14.1949C147.582 15.0488 148.579 16.4026 148.975 18.0078C149.372 19.6116 149.119 21.2737 148.265 22.6886C147.411 24.1021 146.057 25.1005 144.454 25.4962C142.851 25.892 141.188 25.6406 139.773 24.7853L131.668 19.8921C129.489 18.5757 127.037 17.8315 124.524 17.7079C123.267 16.865 121.979 16.0722 120.655 15.3349C116.688 13.1257 112.491 11.4358 108.081 10.2597C111.684 7.76728 115.861 6.13296 120.228 5.56088ZM26.9934 44.672C24.8522 47.3269 20.949 47.7463 18.2941 45.6051C15.6392 43.464 15.2213 39.5622 17.361 36.9073L23.304 29.5369C27.21 24.6909 32.7086 21.2764 38.7849 19.9212C43.0839 18.9645 47.5675 19.0714 51.8068 20.1837C48.0646 22.7955 44.6988 25.8198 41.7259 29.2522C40.7331 30.3978 39.7944 31.585 38.9016 32.8055C36.5841 33.7817 34.5332 35.3202 32.935 37.3016L26.9934 44.672ZM136.11 95.5803C136.565 97.9949 135.733 100.571 133.765 102.247C127.034 107.977 119.447 112.408 111.184 115.445C110.169 113.808 108.826 112.376 107.202 111.239C106.2 110.538 105.131 109.975 104.016 109.555C118.875 106.132 129.091 101.039 136.11 95.5803ZM97.3804 114.108C97.9108 114.013 98.4426 113.967 98.9702 113.967C100.811 113.967 102.605 114.53 104.144 115.607C106.124 116.994 107.446 119.069 107.867 121.45C108.733 126.366 105.439 131.07 100.524 131.937C95.6086 132.803 90.9042 129.509 90.0377 124.594C89.1712 119.678 92.4649 114.974 97.3804 114.108ZM47.6147 131.071C39.0974 131.071 30.6633 127.803 25.6034 122.543C24.5037 121.399 23.915 119.896 23.9455 118.311C23.9761 116.724 24.6217 115.245 25.7659 114.145C26.9087 113.045 28.418 112.465 29.9982 112.487C31.5839 112.518 33.0627 113.165 34.1625 114.309C36.0578 116.278 39.3237 117.914 42.8992 118.686C45.3903 119.223 49.0116 119.558 53.0134 118.515C53.1092 119.634 53.2467 120.75 53.4411 121.849C53.9424 124.693 54.763 127.432 55.8724 130.038C53.1925 130.723 50.4265 131.071 47.6147 131.071ZM54.6477 109.941C60.9059 111.95 68.0875 112.965 76.0925 112.963C80.3692 112.963 84.8862 112.668 89.617 112.087C87.2148 114.145 85.5305 116.96 84.8751 120.085C76.0689 120.056 67.4182 118.49 59.1328 115.407C56.7083 114.505 55.0462 112.368 54.6477 109.941ZM118.854 142.988C118.725 143.053 118.602 143.131 118.482 143.218C113.996 145.959 108.923 147.881 103.504 148.837C99.3938 149.561 95.2823 149.695 91.2888 149.264C91.1499 149.239 91.0125 149.221 90.8764 149.218C85.5235 148.588 80.3901 146.936 75.7634 144.317C75.7565 144.313 75.7481 144.308 75.7412 144.304C75.2358 144.018 74.7359 143.721 74.243 143.411C68.9512 140.089 64.8022 135.688 62.0501 130.581C62.0029 130.477 61.9501 130.377 61.8918 130.283C60.3588 127.365 59.2758 124.225 58.6926 120.923C58.6926 120.918 58.6926 120.916 58.6912 120.913C67.11 123.869 75.8648 125.381 84.7723 125.417C84.7779 125.452 84.7807 125.485 84.7876 125.519C86.0165 132.488 92.0997 137.406 98.9453 137.406C99.7714 137.406 100.609 137.334 101.45 137.187C109.261 135.809 114.494 128.333 113.117 120.523C113.111 120.489 113.103 120.456 113.097 120.421C121.454 117.34 129.164 112.926 136.064 107.269C136.064 107.272 136.065 107.276 136.065 107.279C136.561 110.093 136.676 112.922 136.425 115.718C136.412 115.806 136.406 115.893 136.401 115.982C136.125 118.805 135.474 121.592 134.462 124.293C134.455 124.308 134.445 124.322 134.439 124.338C134.395 124.436 134.36 124.536 134.33 124.636C133.097 127.818 131.362 130.878 129.145 133.729C126.293 137.396 122.807 140.514 118.854 142.988ZM134.682 164.805C133.656 166.781 131.634 168.007 129.404 168.007C128.449 168.007 127.531 167.782 126.675 167.338C125.267 166.606 124.228 165.37 123.749 163.858C123.271 162.346 123.41 160.738 124.142 159.33C126.232 155.303 126.022 150.375 123.735 146.144C127.051 143.814 130.039 141.061 132.612 137.93C133.327 138.974 133.967 140.057 134.527 141.17C134.563 141.259 134.606 141.345 134.652 141.43C138.287 148.864 138.429 157.59 134.682 164.805ZM153.928 128.308C154.187 129.493 155.233 130.386 156.495 130.401C156.508 130.402 156.519 130.402 156.53 130.402C157.986 130.402 159.176 129.23 159.194 127.77C159.204 127.029 159.126 126.142 158.986 125.18C160.547 124.809 162.255 125.344 163.3 126.692C164.726 128.529 164.392 131.184 162.555 132.61C158.429 135.812 154.482 137.739 150.397 138.52C150.391 138.521 150.387 138.522 150.381 138.522C148.975 138.79 147.553 138.924 146.102 138.924C143.78 138.924 141.39 138.588 138.83 137.9C137.983 136.33 137 134.818 135.888 133.378C136.803 131.913 137.615 130.409 138.325 128.876C145.519 131.476 150.187 130.437 153.928 128.308ZM140.345 102.243C140.864 101.155 141.221 100.001 141.408 98.8211C146.663 96.0385 152.97 92.127 155.769 88.1766C156.687 86.8824 158.053 86.0229 159.617 85.7549C161.181 85.4883 162.755 85.8466 164.049 86.7644C166.72 88.6584 167.355 92.3727 165.461 95.0443C161.49 100.648 153.374 106.429 141.872 111.875C141.822 110.036 141.64 108.194 141.315 106.354C141.072 104.975 140.745 103.596 140.345 102.243ZM58.8051 47.3311C60.9198 46.9576 62.9457 48.3753 63.3192 50.4914C63.5747 51.9411 64.9563 52.9117 66.4074 52.6548C67.857 52.3993 68.8248 51.0163 68.5693 49.5653C67.6862 44.554 62.8902 41.1951 57.8789 42.0796C52.8676 42.9627 49.5087 47.7588 50.3918 52.7714C50.6209 54.0642 51.7457 54.975 53.0148 54.975C53.1689 54.975 53.3244 54.9612 53.4814 54.9334C54.931 54.6779 55.8988 53.2949 55.6433 51.8453C55.2712 49.7291 56.6889 47.7032 58.8051 47.3311Z" fill="black"/>
</svg>
