<svg width="375" height="812" viewBox="0 0 375 812" fill="none" xmlns="http://www.w3.org/2000/svg">
<path fill-rule="evenodd" clip-rule="evenodd" d="M115.36 34.119C112.385 34.7867 109.124 41.1688 109.928 44.7505C110.631 47.883 113.058 49.8726 116.176 49.8726C118.123 49.8726 119.564 49.2485 120.809 47.8658C122.909 45.5326 123.012 42.1324 121.097 38.312C119.522 35.1703 117.444 33.6515 115.36 34.119ZM134.808 34.1322C133.862 34.4053 132.171 35.9939 131.319 37.4087C129.528 40.3857 128.981 43.8744 129.958 46.0869C131.829 50.3211 137.485 51.219 140.529 47.7645C142.542 45.4804 142.589 41.8966 140.652 38.2164C138.949 34.9791 136.881 33.5339 134.808 34.1322ZM102.247 47.0477C101.296 47.3325 99.6057 48.923 98.7582 50.3314C96.9682 53.306 96.4276 56.7693 97.4038 59.0096C99.332 63.4361 105.377 64.1483 108.319 60.2956C109.16 59.1933 109.481 58.1251 109.492 56.3891C109.503 54.6654 109.102 53.1177 108.158 51.2347C106.552 48.0307 104.298 46.4339 102.247 47.0477ZM147.691 47.0691C146.679 47.3592 144.622 49.4761 143.83 51.0434C142.354 53.9635 141.997 56.9924 142.894 58.9883C144.84 63.3198 150.498 64.1636 153.57 60.5799C155.474 58.3581 155.477 54.737 153.578 51.1193C151.874 47.8724 149.82 46.4593 147.691 47.0691ZM124.488 56.6439C118.776 57.4404 114.22 61.4335 112.23 67.388C111.384 69.9194 110.585 71.1492 108.711 72.8059C106.147 75.0731 105.621 75.6762 104.893 77.1877C104.309 78.3997 104.219 78.8192 104.221 80.3118C104.223 81.7447 104.322 82.2366 104.807 83.2258C106.011 85.6842 107.958 87.2973 110.927 88.2965C112.321 88.7658 113.018 88.8692 114.785 88.8681C117.499 88.8666 118.587 88.612 121.146 87.3794C124.821 85.6096 126.974 85.6118 130.794 87.3887C133.396 88.5989 134.521 88.8692 136.995 88.8773C140.261 88.8883 143.218 87.8127 145.194 85.895C148.727 82.466 148.659 77.8627 145.028 74.4968C140.977 70.7423 140.8 70.505 139.704 67.388C138.752 64.6788 137.522 62.7023 135.614 60.8149C133.856 59.0766 131.56 57.7128 129.34 57.0887C128.062 56.7294 125.536 56.4979 124.488 56.6439ZM63.1617 89.2827C62.0117 89.6129 60.0925 91.6883 59.2054 93.5614C56.9214 98.3835 57.7257 102.524 61.3066 104.378C62.3464 104.916 64.8016 105.124 66.0713 104.781C67.8766 104.293 69.7867 102.386 70.2831 100.577C71.3512 96.6839 68.3607 90.1554 65.0943 89.2493C64.2028 89.0018 64.1355 89.0031 63.1617 89.2827ZM82.7847 89.2827C81.6269 89.615 79.7186 91.6867 78.7859 93.6232C77.3722 96.5592 77.1296 99.5655 78.1444 101.579C78.646 102.574 79.921 103.856 80.9296 104.378C81.9694 104.916 84.4246 105.124 85.6943 104.781C87.4996 104.293 89.4097 102.386 89.9061 100.577C90.9677 96.7074 87.971 90.152 84.7297 89.2525C83.8251 89.0016 83.7598 89.0027 82.7847 89.2827ZM50.0766 102.262C46.5117 103.812 43.8997 110.569 45.4626 114.197C46.0587 115.581 47.6604 117.077 49.0549 117.551C50.3423 117.989 52.2166 117.989 53.504 117.551C54.895 117.078 56.5005 115.581 57.0933 114.204C58.6668 110.551 56.0142 103.746 52.4342 102.252C51.5566 101.886 50.9349 101.889 50.0766 102.262ZM95.3229 102.41C91.8471 104.128 89.3972 110.664 90.9317 114.125C91.5016 115.41 92.6816 116.686 93.8678 117.3C95.0978 117.937 97.4614 118.06 98.9545 117.565C100.517 117.046 102.18 115.393 102.695 113.845C104.198 109.325 100.404 101.97 96.5633 101.957C96.3854 101.957 95.8271 102.161 95.3229 102.41ZM71.5776 111.98C69.9245 112.338 67.9301 113.244 66.2279 114.408C63.4979 116.277 61.4028 119.265 60.1434 123.087C59.481 125.097 58.7075 126.204 56.7672 127.92C54.2139 130.179 53.6569 130.809 52.9912 132.193C52.1524 133.937 51.9917 135.452 52.4616 137.186C53.5713 141.281 57.8109 144.008 63.0306 143.986C65.4143 143.975 66.9231 143.59 69.7164 142.278C71.8353 141.283 71.9103 141.265 74.0292 141.264C76.1797 141.263 76.192 141.266 78.5776 142.385C81.4357 143.726 82.486 143.992 84.9555 144C87.2361 144.007 88.6561 143.698 90.6332 142.763C95.0003 140.699 96.9335 136.298 95.1718 132.432C94.5281 131.019 93.6979 130.016 92.0204 128.621C89.5091 126.533 88.7768 125.528 87.8162 122.848C86.052 117.927 83.3844 114.762 79.454 112.925C76.8909 111.727 74.223 111.407 71.5776 111.98Z" fill="#696A69" fill-opacity="0.05"/>
<path fill-rule="evenodd" clip-rule="evenodd" d="M74.6396 636.119C77.6148 636.787 80.876 643.169 80.0724 646.751C79.3694 649.883 76.9422 651.873 73.8239 651.873C71.8769 651.873 70.4355 651.248 69.1911 649.866C67.0908 647.533 66.9884 644.132 68.9034 640.312C70.4782 637.17 72.5561 635.651 74.6396 636.119ZM55.1919 636.132C56.1375 636.405 57.8292 637.994 58.6805 639.409C60.4718 642.386 61.0191 645.874 60.0416 648.087C58.1714 652.321 52.5148 653.219 49.4707 649.765C47.4575 647.48 47.4113 643.897 49.3475 640.216C51.0506 636.979 53.1188 635.534 55.1919 636.132ZM87.7532 649.048C88.7043 649.332 90.3943 650.923 91.2417 652.331C93.0317 655.306 93.5723 658.769 92.5961 661.01C90.6679 665.436 84.6234 666.148 81.6815 662.296C80.8396 661.193 80.5187 660.125 80.508 658.389C80.4972 656.665 80.8978 655.118 81.8417 653.235C83.4477 650.031 85.7022 648.434 87.7532 649.048ZM42.3085 649.069C43.3209 649.359 45.3779 651.476 46.1699 653.043C47.6457 655.964 48.0026 658.992 47.106 660.988C45.1601 665.32 39.5015 666.164 36.4304 662.58C34.5264 660.358 34.5229 656.737 36.4216 653.119C38.1256 649.872 40.1795 648.459 42.3085 649.069ZM65.5117 658.644C71.2241 659.44 75.7801 663.433 77.7702 669.388C78.6162 671.919 79.4151 673.149 81.2888 674.806C83.8531 677.073 84.3789 677.676 85.1071 679.188C85.691 680.4 85.7812 680.819 85.7788 682.312C85.7766 683.745 85.6776 684.237 85.1931 685.226C83.989 687.684 82.042 689.297 79.0733 690.296C77.6794 690.766 76.9817 690.869 75.2154 690.868C72.5011 690.867 71.4135 690.612 68.8541 689.379C65.1794 687.61 63.0258 687.612 59.206 689.389C56.6044 690.599 55.479 690.869 53.0047 690.877C49.7385 690.888 46.7817 689.813 44.806 687.895C41.2734 684.466 41.3405 679.863 44.9718 676.497C49.0226 672.742 49.2002 672.505 50.2959 669.388C51.2482 666.679 52.4779 664.702 54.3863 662.815C56.144 661.077 58.4397 659.713 60.6599 659.089C61.9377 658.729 64.4635 658.498 65.5117 658.644Z" fill="#696A69" fill-opacity="0.05"/>
<path fill-rule="evenodd" clip-rule="evenodd" d="M304.36 240.119C301.385 240.787 298.124 247.169 298.928 250.751C299.631 253.883 302.058 255.873 305.176 255.873C307.123 255.873 308.564 255.248 309.809 253.866C311.909 251.533 312.012 248.132 310.097 244.312C308.522 241.17 306.444 239.651 304.36 240.119ZM323.808 240.132C322.862 240.405 321.171 241.994 320.319 243.409C318.528 246.386 317.981 249.874 318.958 252.087C320.829 256.321 326.485 257.219 329.529 253.765C331.542 251.48 331.589 247.897 329.652 244.216C327.949 240.979 325.881 239.534 323.808 240.132ZM291.247 253.048C290.296 253.332 288.606 254.923 287.758 256.331C285.968 259.306 285.428 262.769 286.404 265.01C288.332 269.436 294.377 270.148 297.319 266.296C298.16 265.193 298.481 264.125 298.492 262.389C298.503 260.665 298.102 259.118 297.158 257.235C295.552 254.031 293.298 252.434 291.247 253.048ZM336.691 253.069C335.679 253.359 333.622 255.476 332.83 257.043C331.354 259.964 330.997 262.992 331.894 264.988C333.84 269.32 339.498 270.164 342.57 266.58C344.474 264.358 344.477 260.737 342.578 257.119C340.874 253.872 338.82 252.459 336.691 253.069ZM313.488 262.644C307.776 263.44 303.22 267.433 301.23 273.388C300.384 275.919 299.585 277.149 297.711 278.806C295.147 281.073 294.621 281.676 293.893 283.188C293.309 284.4 293.219 284.819 293.221 286.312C293.223 287.745 293.322 288.237 293.807 289.226C295.011 291.684 296.958 293.297 299.927 294.296C301.321 294.766 302.018 294.869 303.785 294.868C306.499 294.867 307.587 294.612 310.146 293.379C313.821 291.61 315.974 291.612 319.794 293.389C322.396 294.599 323.521 294.869 325.995 294.877C329.261 294.888 332.218 293.813 334.194 291.895C337.727 288.466 337.659 283.863 334.028 280.497C329.977 276.742 329.8 276.505 328.704 273.388C327.752 270.679 326.522 268.702 324.614 266.815C322.856 265.077 320.56 263.713 318.34 263.089C317.062 262.729 314.536 262.498 313.488 262.644ZM252.162 295.283C251.012 295.613 249.093 297.688 248.205 299.561C245.921 304.383 246.726 308.524 250.307 310.378C251.346 310.916 253.802 311.124 255.071 310.781C256.877 310.293 258.787 308.386 259.283 306.577C260.351 302.684 257.361 296.155 254.094 295.249C253.203 295.002 253.136 295.003 252.162 295.283ZM271.785 295.283C270.627 295.615 268.719 297.687 267.786 299.623C266.372 302.559 266.13 305.565 267.144 307.579C267.646 308.574 268.921 309.856 269.93 310.378C270.969 310.916 273.425 311.124 274.694 310.781C276.5 310.293 278.41 308.386 278.906 306.577C279.968 302.707 276.971 296.152 273.73 295.253C272.825 295.002 272.76 295.003 271.785 295.283ZM239.077 308.262C235.512 309.812 232.9 316.569 234.463 320.197C235.059 321.581 236.66 323.077 238.055 323.551C239.342 323.989 241.217 323.989 242.504 323.551C243.895 323.078 245.5 321.581 246.093 320.204C247.667 316.551 245.014 309.746 241.434 308.252C240.557 307.886 239.935 307.889 239.077 308.262ZM284.323 308.41C280.847 310.128 278.397 316.664 279.932 320.125C280.502 321.41 281.682 322.686 282.868 323.3C284.098 323.937 286.461 324.06 287.954 323.565C289.517 323.046 291.18 321.393 291.695 319.845C293.198 315.325 289.404 307.97 285.563 307.957C285.385 307.957 284.827 308.161 284.323 308.41ZM260.578 317.98C258.925 318.338 256.93 319.244 255.228 320.408C252.498 322.277 250.403 325.265 249.143 329.087C248.481 331.097 247.708 332.204 245.767 333.92C243.214 336.179 242.657 336.809 241.991 338.193C241.152 339.937 240.992 341.452 241.462 343.186C242.571 347.281 246.811 350.008 252.031 349.986C254.414 349.975 255.923 349.59 258.716 348.278C260.835 347.283 260.91 347.265 263.029 347.264C265.18 347.263 265.192 347.266 267.578 348.385C270.436 349.726 271.486 349.992 273.956 350C276.236 350.007 277.656 349.698 279.633 348.763C284 346.699 285.934 342.298 284.172 338.432C283.528 337.019 282.698 336.016 281.02 334.621C278.509 332.533 277.777 331.528 276.816 328.848C275.052 323.927 272.384 320.762 268.454 318.925C265.891 317.727 263.223 317.407 260.578 317.98Z" fill="#696A69" fill-opacity="0.05"/>
<path fill-rule="evenodd" clip-rule="evenodd" d="M304.36 576.119C301.385 576.787 298.124 583.169 298.928 586.751C299.631 589.883 302.058 591.873 305.176 591.873C307.123 591.873 308.564 591.248 309.809 589.866C311.909 587.533 312.012 584.132 310.097 580.312C308.522 577.17 306.444 575.651 304.36 576.119ZM323.808 576.132C322.862 576.405 321.171 577.994 320.319 579.409C318.528 582.386 317.981 585.874 318.958 588.087C320.829 592.321 326.485 593.219 329.529 589.765C331.542 587.48 331.589 583.897 329.652 580.216C327.949 576.979 325.881 575.534 323.808 576.132ZM291.247 589.048C290.296 589.332 288.606 590.923 287.758 592.331C285.968 595.306 285.428 598.769 286.404 601.01C288.332 605.436 294.377 606.148 297.319 602.296C298.16 601.193 298.481 600.125 298.492 598.389C298.503 596.665 298.102 595.118 297.158 593.235C295.552 590.031 293.298 588.434 291.247 589.048ZM336.691 589.069C335.679 589.359 333.622 591.476 332.83 593.043C331.354 595.964 330.997 598.992 331.894 600.988C333.84 605.32 339.498 606.164 342.57 602.58C344.474 600.358 344.477 596.737 342.578 593.119C340.874 589.872 338.82 588.459 336.691 589.069ZM313.488 598.644C307.776 599.44 303.22 603.433 301.23 609.388C300.384 611.919 299.585 613.149 297.711 614.806C295.147 617.073 294.621 617.676 293.893 619.188C293.309 620.4 293.219 620.819 293.221 622.312C293.223 623.745 293.322 624.237 293.807 625.226C295.011 627.684 296.958 629.297 299.927 630.296C301.321 630.766 302.018 630.869 303.785 630.868C306.499 630.867 307.587 630.612 310.146 629.379C313.821 627.61 315.974 627.612 319.794 629.389C322.396 630.599 323.521 630.869 325.995 630.877C329.261 630.888 332.218 629.813 334.194 627.895C337.727 624.466 337.659 619.863 334.028 616.497C329.977 612.742 329.8 612.505 328.704 609.388C327.752 606.679 326.522 604.702 324.614 602.815C322.856 601.077 320.56 599.713 318.34 599.089C317.062 598.729 314.536 598.498 313.488 598.644ZM252.162 631.283C251.012 631.613 249.093 633.688 248.205 635.561C245.921 640.383 246.726 644.524 250.307 646.378C251.346 646.916 253.802 647.124 255.071 646.781C256.877 646.293 258.787 644.386 259.283 642.577C260.351 638.684 257.361 632.155 254.094 631.249C253.203 631.002 253.136 631.003 252.162 631.283ZM271.785 631.283C270.627 631.615 268.719 633.687 267.786 635.623C266.372 638.559 266.13 641.565 267.144 643.579C267.646 644.574 268.921 645.856 269.93 646.378C270.969 646.916 273.425 647.124 274.694 646.781C276.5 646.293 278.41 644.386 278.906 642.577C279.968 638.707 276.971 632.152 273.73 631.253C272.825 631.002 272.76 631.003 271.785 631.283ZM239.077 644.262C235.512 645.812 232.9 652.569 234.463 656.197C235.059 657.581 236.66 659.077 238.055 659.551C239.342 659.989 241.217 659.989 242.504 659.551C243.895 659.078 245.5 657.581 246.093 656.204C247.667 652.551 245.014 645.746 241.434 644.252C240.557 643.886 239.935 643.889 239.077 644.262ZM284.323 644.41C280.847 646.128 278.397 652.664 279.932 656.125C280.502 657.41 281.682 658.686 282.868 659.3C284.098 659.937 286.461 660.06 287.954 659.565C289.517 659.046 291.18 657.393 291.695 655.845C293.198 651.325 289.404 643.97 285.563 643.957C285.385 643.957 284.827 644.161 284.323 644.41ZM260.578 653.98C258.925 654.338 256.93 655.244 255.228 656.408C252.498 658.277 250.403 661.265 249.143 665.087C248.481 667.097 247.708 668.204 245.767 669.92C243.214 672.179 242.657 672.809 241.991 674.193C241.152 675.937 240.992 677.452 241.462 679.186C242.571 683.281 246.811 686.008 252.031 685.986C254.414 685.975 255.923 685.59 258.716 684.278C260.835 683.283 260.91 683.265 263.029 683.264C265.18 683.263 265.192 683.266 267.578 684.385C270.436 685.726 271.486 685.992 273.956 686C276.236 686.007 277.656 685.698 279.633 684.763C284 682.699 285.934 678.298 284.172 674.432C283.528 673.019 282.698 672.016 281.02 670.621C278.509 668.533 277.777 667.528 276.816 664.848C275.052 659.927 272.384 656.762 268.454 654.925C265.891 653.727 263.223 653.407 260.578 653.98Z" fill="#696A69" fill-opacity="0.05"/>
<path fill-rule="evenodd" clip-rule="evenodd" d="M178.559 156.803C171.108 159.387 164.896 163.837 160.398 169.812C159.005 171.663 157.049 175.327 156.261 177.56C152.229 188.994 156.735 200.637 167.529 206.676C168.83 207.403 170.29 208.167 170.775 208.374L171.656 208.749L171.027 210.558C169.641 214.545 167.857 217.241 165.565 218.811C163.471 220.245 163.61 222.715 165.822 223.382C166.519 223.593 167.455 223.401 169.579 222.614C175.829 220.297 181.705 216.771 186.837 212.258C188.151 211.104 188.434 210.915 188.905 210.884C190.429 210.782 193.675 210.126 196.115 209.427C207.712 206.102 216.787 198.275 220.542 188.357C221.369 186.17 222.109 182.527 222.152 180.428C222.339 171.302 217.64 163.473 209.132 158.733C206.698 157.378 204.915 156.629 202.322 155.875C194.936 153.725 186.483 154.056 178.559 156.803ZM227.003 181.703C226.961 182.436 226.76 183.917 226.554 184.995C224.296 196.86 215.351 207.08 202.413 212.577C200.45 213.41 194.818 215.019 192.402 215.436L190.481 215.767L189.287 216.757C188.631 217.302 187.874 217.924 187.604 218.14L187.114 218.532L188.006 219.264C189.243 220.28 193.324 222.512 195.061 223.121C200.56 225.052 206.4 225.445 212.487 224.295C214.664 223.883 218.22 222.745 220.259 221.806L221.692 221.147L222.575 221.317C224.741 221.733 228.038 221.941 230.875 221.839C234.14 221.722 237.977 220.997 240.909 219.943C242.932 219.216 243.36 218.913 243.741 217.935C244.165 216.85 243.493 215.33 242.447 215.005C242.217 214.933 241.375 214.822 240.576 214.758C238.643 214.603 236.965 214.046 235.087 212.936C232.936 211.665 232.983 211.739 233.676 210.689C237.819 204.416 238.797 197.346 236.394 191.045C235.042 187.5 232.724 184.405 229.638 182.024C228.701 181.301 227.238 180.325 227.135 180.354C227.104 180.363 227.044 180.97 227.003 181.703Z" fill="#696A69" fill-opacity="0.05"/>
<path fill-rule="evenodd" clip-rule="evenodd" d="M292.295 27.728C291.943 27.7103 291.318 27.8877 290.906 28.122C290.247 28.4973 289.909 28.9674 288.077 32.0528C286.933 33.9804 285.839 35.8518 285.647 36.2113L285.296 36.8652L282.683 35.9687C279.611 34.9153 277.917 34.6545 276.06 34.9488C273.702 35.3225 270.971 37.2047 269.952 39.158L269.558 39.9141L265.275 38.4395C262.92 37.6284 260.68 36.9483 260.298 36.928C259.358 36.8784 258.296 37.4 257.778 38.1661C256.798 39.6134 256.382 43.8821 256.952 46.649C257.323 48.4506 258.824 51.4802 260.061 52.9256C262.223 55.4522 264.362 56.7136 269.458 58.4683C272.897 59.6525 272.65 59.4371 272.389 61.0268C272.319 61.4569 272.283 61.914 272.309 62.0425C272.35 62.2375 278.647 62.1391 295.736 61.6765C295.845 61.6735 295.753 54.5514 295.532 45.8494C295.237 34.2469 295.047 29.8471 294.819 29.3511C294.648 28.9791 294.24 28.4905 293.912 28.2655C293.227 27.7943 293.157 27.7713 292.295 27.728ZM331.797 64.6468C330.932 64.6248 329.854 65.187 329.36 65.9174C328.502 67.1843 328.838 68.9697 330.1 69.8525C330.414 70.0718 332.8 70.9846 335.404 71.881C341.072 73.8327 341.39 74.0256 342.425 76.1421C343.204 77.7354 343.292 78.99 342.737 80.6022C342.182 82.2143 341.34 83.1489 339.745 83.9247C337.658 84.9402 337.202 84.8926 332.063 83.123L327.803 81.6564L326.5 80.2991C324.899 78.6312 323.363 77.5226 321.269 76.5239C320.336 76.0791 314.764 74.0722 307.918 71.7155L296.167 67.6703L283.873 67.973C277.111 68.1396 271.54 68.295 271.492 68.3181C271.444 68.3415 270.916 72.1356 270.32 76.7495L269.235 85.1384L264.425 99.4228C259.692 113.484 259.62 113.717 259.822 114.348C259.936 114.701 260.199 115.24 260.408 115.546C260.775 116.083 261.012 116.18 267.238 118.323C273.463 120.467 273.71 120.537 274.329 120.339C274.683 120.227 275.222 119.964 275.529 119.756C276.075 119.385 276.162 119.161 279.979 108.238C283.681 97.648 283.89 97.1036 284.207 97.2128C284.595 97.3466 307.482 103.023 308.971 103.355L309.975 103.579L305.83 115.782C301.756 127.779 301.689 127.997 301.892 128.627C302.005 128.98 302.269 129.519 302.478 129.825C302.845 130.362 303.082 130.459 309.307 132.603C315.533 134.746 315.779 134.816 316.399 134.619C316.752 134.506 317.292 134.244 317.598 134.035C318.15 133.66 318.209 133.503 324.292 116.009C331.548 95.144 331.7 94.594 331.274 90.73C331.178 89.8618 331.106 89.131 331.115 89.1063C331.124 89.0815 332.085 89.3327 333.251 89.6643C336.77 90.6642 339.428 90.5021 342.283 89.1135C345.159 87.7147 347.125 85.4942 348.166 82.4717C349.867 77.5316 348.171 72.3247 343.805 69.0827C343.05 68.5216 342.024 68.0974 337.645 66.5356C334.755 65.505 332.123 64.6551 331.797 64.6468Z" fill="#696A69" fill-opacity="0.05"/>
<path fill-rule="evenodd" clip-rule="evenodd" d="M80.0692 404.016C67.5904 406.977 58.0422 417.526 57.0553 429.444C56.75 433.127 56.936 453.849 57.3048 457.271C58.1546 465.153 62.8241 471.047 70.3858 473.783C73.8357 475.031 75.9162 475.147 82.2465 474.443L87.603 473.848L86.8939 467.534L86.1851 461.219L82.453 457.788C80.4003 455.901 78.5678 454.061 78.3809 453.7C77.8643 452.7 77.8251 451.624 78.2285 449.525C78.7166 446.985 80.2439 444.848 82.6753 443.302C84.393 442.209 84.6237 442.141 87.7656 441.789C90.7244 441.457 91.2271 441.477 92.7458 441.988C96.4166 443.223 98.6059 445.65 99.2408 449.189C99.6762 451.617 99.7934 451.339 96.2347 456.347L93.581 460.081L94.3083 466.573L95.0356 473.065L101.094 472.278C106.889 471.525 107.252 471.443 109.46 470.401C116.794 466.94 121.33 459.467 120.882 451.585C120.779 449.759 120.024 445.723 118.276 437.652C114.951 422.298 114.637 421.314 111.562 416.641C106.51 408.961 98.6964 404.179 89.8307 403.338C87.2166 403.091 82.6264 403.409 80.0692 404.016ZM48.643 426.227C46.8398 428.511 45.277 431.792 44.7492 434.403C44.6338 434.974 43.9189 443.33 43.1604 452.972C41.6813 471.775 41.6754 473.026 43.058 475.208C44.9237 478.152 48.7205 479.502 52.0683 478.411C53.9227 477.807 55.8622 476.244 56.6473 474.721L57.2335 473.585L56.354 472.571C54.1871 470.072 52.0833 466.187 51.1005 462.87C50.2549 460.016 49.9827 455.92 49.8498 444.058C49.7163 432.17 49.8148 429.034 50.4182 425.931C50.6119 424.934 50.7066 424.067 50.6285 424.005C50.5501 423.943 49.6567 424.943 48.643 426.227ZM120.552 417.785C121.33 419.59 122.761 424.513 123.769 428.847C127.258 443.853 128.565 452.235 127.998 455.96C127.58 458.701 126.552 462.071 125.468 464.255C124.635 465.931 124.609 466.096 125.047 466.886C125.71 468.081 127.523 469.598 128.966 470.166C130.725 470.858 134.585 470.428 136.128 469.368C138.134 467.989 139.35 465.891 139.635 463.314C139.768 462.116 139.213 460.167 134.173 444.129C131.088 434.311 128.225 425.566 127.81 424.695C126.652 422.269 125.084 420.32 122.651 418.286C121.432 417.267 120.335 416.444 120.213 416.458C120.091 416.471 120.244 417.068 120.552 417.785ZM71.3729 431.519C73.4533 432.137 74.7668 434.141 75.1122 437.224C75.4065 439.851 75.1034 441.444 74.0189 442.972C73.1734 444.162 72.9469 444.311 71.7831 444.441C69.345 444.714 67.5724 442.578 67.127 438.829C66.6971 435.212 67.4551 432.874 69.4225 431.748C70.4518 431.158 70.2425 431.183 71.3729 431.519ZM104.124 428.11C104.511 428.248 105.235 428.903 105.733 429.564C106.566 430.67 106.667 431.017 106.989 433.888C107.312 436.773 107.291 437.116 106.71 438.408C106.083 439.8 104.816 440.884 103.665 441.013C102.763 441.114 101.128 440.093 100.349 438.942C99.82 438.161 99.525 437.214 99.2499 435.416C98.8098 432.538 99.1156 430.526 100.186 429.253C101.42 427.787 102.415 427.498 104.124 428.11ZM86.3841 449.412C85.1304 450.129 85.3416 450.744 87.386 452.33L89.1552 453.702L90.511 451.826C91.2565 450.795 91.8497 449.798 91.8291 449.612C91.7046 448.485 88.2296 448.358 86.3841 449.412Z" fill="#696A69" fill-opacity="0.05"/>
<path fill-rule="evenodd" clip-rule="evenodd" d="M72.5186 240.111C68.0743 240.822 63.8311 243.899 61.8602 247.839C60.9017 249.756 60.2166 252.231 60.2166 253.778V254.831L58.7277 254.966C54.6274 255.339 51.0661 257.19 48.4562 260.306C41.4916 268.621 45.5664 281.244 56.0818 283.929C57.9453 284.405 61.267 284.41 63.0286 283.939C64.4822 283.551 66.5893 282.639 67.4444 282.028L68.0082 281.625L87.2338 300.916L106.46 320.208L105.842 321.293C105.502 321.889 104.97 323.106 104.66 323.996C104.145 325.476 104.097 325.86 104.102 328.449C104.107 331.004 104.162 331.44 104.662 332.901C105.465 335.241 106.652 337.135 108.422 338.897C109.653 340.122 110.365 340.634 111.869 341.376C114.415 342.63 115.907 342.996 118.506 343C121.559 343.005 123.856 342.335 126.476 340.675C130.194 338.319 133.028 333.346 133.028 329.176V328.203L134.481 328.068C140.929 327.466 146.16 323.039 147.659 316.913C148.07 315.236 148.117 312.169 147.759 310.459C146.763 305.704 143.249 301.599 138.649 299.816C134.678 298.277 130.286 298.598 126.465 300.705L125.221 301.392L106.015 282.12L86.8094 262.849L87.5149 261.549C88.7898 259.2 89.1613 257.591 89.1462 254.482C89.1345 252.087 89.0665 251.55 88.5966 250.131C87.8285 247.811 86.7699 246.116 84.9195 244.243C82.3627 241.655 79.0795 240.207 75.3435 240.02C74.4006 239.972 73.1294 240.014 72.5186 240.111Z" fill="#696A69" fill-opacity="0.05"/>
<path fill-rule="evenodd" clip-rule="evenodd" d="M287.112 413.811C280.821 412.59 273.92 412.829 268.846 414.443C261.899 416.653 255.666 421.914 252.679 428.092C251.733 430.048 250.777 433.624 250.662 435.635C250.516 438.21 250.723 439.379 251.622 441.051C253.539 444.616 257.218 446.251 261.192 445.304C262.979 444.878 264.441 443.846 266.295 441.703C267.199 440.658 268.089 439.691 268.274 439.554C269.524 438.625 271.917 438.881 272.943 440.052C273.81 441.043 274 441.962 273.944 444.908C273.916 446.428 273.964 448.081 274.051 448.58C274.312 450.074 275.062 451.364 276.293 452.437C277.33 453.341 277.595 453.474 279.206 453.902C281.322 454.464 282.54 454.32 284.324 453.297C285.764 452.472 286.43 451.659 288.032 448.77C289.444 446.222 289.845 445.696 290.714 445.253C291.632 444.785 292.296 444.714 293.28 444.978C295.049 445.452 295.712 446.484 296.314 449.707C297.001 453.382 298.218 455.331 300.717 456.764C304.058 458.679 308.621 457.905 311.159 454.994C312.703 453.223 313.499 451.475 314.225 448.255C315.695 441.733 314.676 435.5 311.182 429.643C307.788 423.955 302.216 419.335 295.162 416.36C293.109 415.495 288.872 414.153 287.112 413.811ZM230.035 445.207C229.07 445.157 227.864 445.813 227.367 446.658C226.782 447.654 225.48 453.274 225.27 455.714C224.06 469.709 234.04 482.575 247.939 484.941C256.752 486.441 265.668 483.687 271.953 477.526C272.483 477.007 272.963 476.595 273.021 476.61C273.078 476.625 273.288 477.223 273.487 477.937C277.022 490.628 289.332 499.132 302.446 497.944C312.146 497.065 320.71 491.119 324.798 482.423C325.228 481.509 326.031 479.281 326.581 477.474C327.741 473.668 327.78 472.958 326.893 471.751C326.429 471.12 326.142 470.93 325.315 470.708C324.489 470.487 324.145 470.508 323.428 470.822C322.173 471.372 321.846 471.971 320.898 475.458C320.009 478.729 319.2 480.628 317.822 482.678C313.533 489.058 306.065 492.644 298.289 492.056C296.161 491.895 292.628 490.943 290.675 490.004C283.84 486.718 279.233 480.069 278.549 472.504C278.301 469.757 278.532 467.82 279.575 463.928L280.507 460.45L279.735 460.386C279.31 460.352 278.3 460.146 277.49 459.929C276.68 459.712 275.703 459.385 275.318 459.203L274.617 458.871L273.685 462.349C272.642 466.242 271.875 468.035 270.286 470.29C262.802 480.913 247.687 482.535 238.078 473.746C234.075 470.083 231.557 464.865 231.188 459.464C231.019 457 231.268 454.951 232.134 451.673C232.619 449.837 232.918 448.329 232.884 447.892C232.779 446.54 231.443 445.281 230.035 445.207Z" fill="#696A69" fill-opacity="0.05"/>
<path fill-rule="evenodd" clip-rule="evenodd" d="M146.616 527.772C126.491 529.713 108.75 534.634 100.706 540.507C96.5386 543.549 96.1326 545.276 99.0499 547.55C110.833 556.735 149.72 559.576 180.202 553.479C194.491 550.621 206.302 545.986 210.732 541.499C212.784 539.421 212.737 538.234 210.528 536.333C204.842 531.442 188.923 527.735 170.84 527.091C165.555 526.903 151.538 527.297 146.616 527.772ZM95.6189 574.719C94.7754 592.397 94.809 592.767 97.4745 595.135C99.0736 596.555 116.218 603.716 122.767 605.699C127.698 607.191 135.13 608.438 140.706 608.706C146.466 608.983 170.718 607.678 175.984 606.808C181.333 605.924 186.919 604.385 192.063 602.379C197.636 600.205 215.665 590.292 217.33 588.486C219.692 585.923 219.683 585.591 216.779 568.527C215.341 560.081 214.042 553.051 213.892 552.903C213.742 552.756 211.669 553.74 209.285 555.09C203.82 558.186 195.462 561.056 184.509 563.6C169.114 567.175 147.993 568.552 131.571 567.051C118.221 565.83 104.954 562.856 98.9689 559.743C97.9819 559.23 96.9953 558.819 96.7755 558.831C96.5561 558.843 96.0358 565.992 95.6189 574.719ZM142.962 574.877C144.817 575.608 146.323 577.333 146.883 579.369C147.142 580.311 147.546 580.564 149.386 580.937C152.222 581.512 162.099 580.993 165.161 580.108C167.407 579.459 167.485 579.386 167.649 577.815C167.869 575.698 170.242 573.214 172.538 572.695C174.544 572.242 177.35 573.103 178.619 574.56C180.837 577.105 180.864 580.936 178.682 583.28L177.503 584.547L178.796 585.88C180.784 587.928 181.402 590.077 180.665 592.384C179.992 594.496 178.854 595.869 177.154 596.624C173.574 598.215 169.277 596.119 168.286 592.298C167.998 591.19 167.702 590.999 165.653 590.604C162.549 590.007 153.995 590.383 150.597 591.267C147.954 591.955 147.854 592.029 147.48 593.589C146.113 599.286 139.467 600.909 136.046 596.381C134.058 593.749 134.626 588.909 137.1 587.4C137.843 586.946 137.819 586.874 136.622 585.965C134.885 584.645 134.16 582.928 134.266 580.386C134.336 578.693 134.627 577.94 135.68 576.721C137.76 574.314 140.056 573.733 142.962 574.877Z" fill="#696A69" fill-opacity="0.05"/>
</svg>
