<svg width="48" height="48" viewBox="0 0 48 48" fill="none" xmlns="http://www.w3.org/2000/svg">
<g clip-path="url(#clip0_1628_10032)">
<path d="M9.26139 8.37825C11.575 8.37825 13.4505 6.50272 13.4505 4.18913C13.4505 1.87554 11.575 0 9.26139 0C6.9478 0 5.07227 1.87554 5.07227 4.18913C5.07227 6.50272 6.9478 8.37825 9.26139 8.37825Z" fill="#7F9AE6"/>
<path d="M24.3917 3.46106C24.2982 2.90278 23.976 2.40872 23.5028 2.09794C22.613 1.51341 21.4228 1.71431 20.7741 2.55872L15.4031 9.55088L13.1148 10.0057C12.7083 9.77681 12.2398 9.645 11.7403 9.64285L6.69388 9.62241C5.13097 9.61603 3.85878 10.8779 3.8526 12.4408L3.84669 13.8878L6.33322 11.8413L1.27785 18.5152C0.876502 19.0603 0.77469 19.7703 1.00653 20.406L3.82513 28.146C4.20369 29.1844 5.36038 29.7376 6.41656 29.3526C7.46553 28.9701 8.00553 27.8098 7.62313 26.7611L5.22819 20.1923L9.78603 14.0017C9.47469 14.7824 7.61506 19.4454 7.30485 20.2232C8.28828 22.9203 8.43378 23.3194 9.44619 26.0963C10.1947 28.1493 9.14281 30.4238 7.08135 31.1754C6.40025 31.4238 5.6675 31.4836 4.93438 31.3355L4.3686 34.8755L0.397346 44.6618C-0.106279 45.9031 0.491659 47.3177 1.73291 47.8214C2.97416 48.325 4.38875 47.7271 4.89247 46.4858L8.9675 36.4435C9.0366 36.2733 9.0861 36.0957 9.11506 35.9143L10.1484 29.4488L11.8345 36.0095L12.0349 45.6245C12.0627 46.9605 13.1671 48.0263 14.5105 47.9989C15.8498 47.9709 16.9129 46.8626 16.8849 45.5233L16.6785 35.6273C16.6747 35.4407 16.6491 35.255 16.6027 35.0741L14.5003 26.8937L14.5531 13.8413L16.9378 13.3674C17.4192 13.2717 17.8493 13.0043 18.1479 12.6148L23.9957 5.03963C24.3419 4.59141 24.4854 4.01944 24.3917 3.46106Z" fill="#7F9AE6"/>
<path d="M47.7139 25.5661C47.6153 25.326 47.4182 25.1398 47.1726 25.0554L45.8237 24.5911C45.33 23.6019 44.3261 22.9701 43.2205 22.9532L43.1911 22.9527C43.3577 23.4115 43.5121 23.9819 43.6017 24.4422C43.7115 25.0061 44.0455 26.722 42.8855 27.4452C41.7545 28.1502 40.3601 27.2159 39.3591 26.3478C38.9389 27.2801 38.5706 28.1089 38.5706 28.1089L29.1813 31.6944C28.6261 31.9064 28.1357 32.2453 27.7433 32.6763C26.4223 32.6279 25.1576 32.1449 23.9969 31.1587C23.3602 30.6286 22.7201 29.9209 22.2436 29.1736L22.2289 29.1505C22.1164 28.974 21.8909 28.8974 21.6899 28.9788C21.4635 29.0706 21.3544 29.3284 21.446 29.5548C21.8214 30.4808 22.3883 31.3965 23.005 32.1343C24.0212 33.3714 25.2207 34.1727 26.5381 34.642C26.2374 35.2404 26.0576 36.546 26.0759 37.1808C26.1098 38.3585 26.5675 40.02 27.1133 41.397L26.3712 44.9357C26.2331 45.5945 26.6552 46.2406 27.3139 46.3788C27.972 46.517 28.6189 46.0955 28.7572 45.436L29.414 42.3051C30.527 41.3217 31.6034 39.6476 32.0186 38.2394C32.2521 37.4475 32.2932 36.4504 32.0894 35.5301C32.0112 35.1771 32.234 34.8274 32.5871 34.7494C32.9402 34.6707 33.2897 34.894 33.3679 35.247C33.5442 36.0437 33.5606 36.8321 33.4417 37.5671C36.1192 37.3265 38.9896 37.0479 40.5809 36.8782L44.5372 41.1541C44.9945 41.6484 45.7659 41.6779 46.2598 41.2209C46.754 40.7637 46.7839 39.9925 46.3266 39.4984L42.3582 35.2096C42.7493 33.6567 43.0363 31.3288 43.1966 29.7959C43.2388 29.3924 43.4462 29.0246 43.7691 28.7793C44.0921 28.5339 44.5026 28.4319 44.9027 28.4998C45.8315 28.6574 46.7541 28.1877 47.1731 27.344L47.6868 26.3097C47.8026 26.0772 47.8123 25.8063 47.7139 25.5661Z" fill="#7F9AE6"/>
<path d="M41.9087 22.9494C41.6759 22.5759 40.8291 22.5293 40.103 22.982C39.3767 23.4348 39.046 24.2155 39.2787 24.5889C39.5115 24.9623 41.5358 26.898 42.262 26.4454C42.9882 25.9928 42.1415 23.3227 41.9087 22.9494Z" fill="#7F9AE6"/>
</g>
<defs>
<clipPath id="clip0_1628_10032">
<rect width="48" height="48" fill="white"/>
</clipPath>
</defs>
</svg>
