<svg width="375" height="812" viewBox="0 0 375 812" fill="none" xmlns="http://www.w3.org/2000/svg">
<g clip-path="url(#clip0_163_10445)">
<path fill-rule="evenodd" clip-rule="evenodd" d="M57.0521 758.071C54.7194 756.107 47.6655 757.376 45.3014 760.184C43.234 762.64 43.12 765.776 45.008 768.258C46.1868 769.808 47.5562 770.577 49.4101 770.73C52.5387 770.989 55.3069 769.012 57.1879 765.175C58.7349 762.019 58.6857 759.446 57.0521 758.071ZM68.8162 773.557C68.0264 772.97 65.7378 772.585 64.0963 772.764C60.6425 773.141 57.5345 774.817 56.3654 776.935C54.1279 780.987 56.838 786.033 61.4304 786.364C64.4672 786.583 67.3475 784.45 69.1042 780.681C70.6496 777.365 70.5476 774.844 68.8162 773.557ZM38.8228 755.462C38.0203 754.877 35.7312 754.495 34.0972 754.673C30.646 755.049 27.5624 756.716 26.3703 758.849C24.0148 763.064 27.1076 768.306 31.9551 768.315C33.3421 768.317 34.3866 767.926 35.7747 766.884C37.1531 765.849 38.1423 764.593 39.0696 762.701C40.6471 759.483 40.553 756.722 38.8228 755.462ZM66.3203 791.643C65.4764 791.013 62.5462 790.658 60.8193 790.976C57.6017 791.57 54.975 793.119 53.9293 795.041C51.6601 799.213 54.4145 804.227 59.1261 804.502C62.0472 804.672 64.9313 802.482 66.661 798.781C68.2135 795.459 68.0945 792.968 66.3203 791.643ZM44.6514 778.973C40.5589 774.909 34.6225 773.701 28.6784 775.722C26.1516 776.581 24.6891 776.69 22.2362 776.202C18.8791 775.533 18.0808 775.48 16.4369 775.816C15.1188 776.085 14.7303 776.267 13.5439 777.173C12.4047 778.042 12.0732 778.419 11.5792 779.403C10.3517 781.85 10.2466 784.376 11.2488 787.344C11.7192 788.737 12.0594 789.355 13.1297 790.76C14.7742 792.92 15.6353 793.631 18.1659 794.922C21.7993 796.775 23.1014 798.49 24 802.606C24.612 805.409 25.0782 806.469 26.5697 808.443C28.5385 811.049 31.1848 812.751 33.9072 813.163C38.7751 813.898 42.3982 811.058 42.8785 806.13C43.4141 800.632 43.4954 800.347 45.3128 797.588C46.8925 795.19 47.721 793.015 48.0677 790.353C48.387 787.902 48.0825 785.249 47.235 783.104C46.7473 781.869 45.4023 779.719 44.6514 778.973ZM-18.4554 749.926C-19.4144 749.21 -22.2282 748.939 -24.2561 749.367C-29.4768 750.469 -32.2849 753.616 -31.5924 757.588C-31.3912 758.742 -30.07 760.822 -29.0283 761.624C-27.5471 762.766 -24.8732 763.132 -23.1326 762.431C-19.3876 760.924 -16.0022 754.592 -17.2588 751.443C-17.6015 750.584 -17.6433 750.531 -18.4554 749.926ZM-6.57466 765.543C-7.54012 764.823 -10.3444 764.558 -12.4503 764.989C-15.6429 765.641 -18.1824 767.268 -19.1706 769.295C-19.659 770.297 -19.9068 772.087 -19.7117 773.206C-19.5105 774.359 -18.1892 776.439 -17.1476 777.242C-15.6663 778.384 -12.9925 778.749 -11.2519 778.049C-7.52948 776.551 -4.12646 770.197 -5.37303 767.073C-5.72102 766.201 -5.76144 766.15 -6.57466 765.543ZM-36.7074 747.369C-40.0998 745.471 -47.0588 747.483 -49.0005 750.924C-49.7408 752.236 -49.9615 754.416 -49.4948 755.813C-49.064 757.103 -47.9292 758.595 -46.8011 759.354C-45.5821 760.175 -43.4186 760.546 -41.9642 760.184C-38.104 759.225 -34.2943 752.994 -35.2727 749.24C-35.5125 748.32 -35.8909 747.827 -36.7074 747.369ZM-9.431 783.47C-12.9032 781.744 -19.5884 783.751 -21.4137 787.068C-22.0913 788.3 -22.3925 790.011 -22.1632 791.327C-21.9254 792.692 -20.592 794.647 -19.2938 795.536C-17.9349 796.466 -15.6122 796.788 -14.0687 796.26C-9.5616 794.72 -6.00461 787.247 -8.32007 784.183C-8.42744 784.041 -8.92743 783.72 -9.431 783.47ZM-31.4245 770.366C-32.7104 769.267 -34.6385 768.228 -36.5962 767.578C-39.7359 766.537 -43.3826 766.678 -47.1868 767.99C-49.1879 768.68 -50.5375 768.735 -53.0781 768.229C-56.4213 767.565 -57.2599 767.503 -58.7645 767.811C-60.6604 768.199 -61.9634 768.989 -63.0592 770.412C-65.6461 773.775 -65.2502 778.8 -62.0719 782.941C-60.6205 784.832 -59.4004 785.799 -56.6649 787.228C-54.5899 788.312 -54.5304 788.361 -53.2467 790.047C-51.9436 791.758 -51.9386 791.769 -51.3849 794.345C-50.7217 797.432 -50.2976 798.429 -48.8088 800.399C-47.4341 802.219 -46.3282 803.162 -44.3871 804.17C-40.0997 806.395 -35.4268 805.269 -33.4168 801.527C-32.6822 800.159 -32.3859 798.89 -32.2914 796.711C-32.1502 793.448 -31.7934 792.257 -30.2423 789.87C-27.3942 785.486 -26.4899 781.447 -27.4075 777.206C-28.0058 774.441 -29.3665 772.124 -31.4245 770.366Z" fill="#696A69" fill-opacity="0.05"/>
<path fill-rule="evenodd" clip-rule="evenodd" d="M111.73 637.597C109.029 636.182 102.414 638.94 100.71 642.192C99.2206 645.036 99.7849 648.123 102.163 650.14C103.648 651.399 105.151 651.855 106.995 651.605C110.106 651.184 112.383 648.657 113.393 644.505C114.224 641.09 113.621 638.588 111.73 637.597ZM126.554 650.185C125.656 649.782 123.339 649.899 121.774 650.428C118.483 651.54 115.809 653.846 115.123 656.166C113.811 660.605 117.545 664.948 122.101 664.282C125.114 663.842 127.467 661.139 128.37 657.08C129.165 653.509 128.522 651.069 126.554 650.185ZM93.3665 638.976C92.4569 638.578 90.1393 638.698 88.582 639.224C85.293 640.335 82.6408 642.627 81.9363 644.967C80.5441 649.59 84.6936 654.043 89.4292 653.007C90.7842 652.711 91.7198 652.104 92.8508 650.787C93.9738 649.479 94.6692 648.04 95.1672 645.993C96.0145 642.511 95.3277 639.835 93.3665 638.976ZM128.013 668.384C127.053 667.951 124.115 668.235 122.498 668.918C119.483 670.191 117.252 672.27 116.645 674.372C115.328 678.934 119.098 683.238 123.758 682.491C126.647 682.027 128.992 679.268 129.884 675.281C130.684 671.702 130.031 669.296 128.013 668.384ZM104.124 660.68C99.2516 657.593 93.1942 657.692 87.8252 660.946C85.5428 662.33 84.1381 662.751 81.6376 662.803C78.2154 662.873 77.4244 662.993 75.8914 663.675C74.6622 664.222 74.3221 664.484 73.3586 665.624C72.4335 666.718 72.1908 667.157 71.9206 668.225C71.249 670.879 71.6906 673.368 73.3086 676.05C74.0682 677.31 74.5336 677.84 75.8814 678.981C77.9525 680.736 78.9467 681.245 81.6959 681.96C85.6432 682.987 87.2843 684.381 89.0485 688.207C90.25 690.813 90.9336 691.747 92.8154 693.353C95.2994 695.474 98.2502 696.566 100.997 696.381C105.909 696.051 108.835 692.496 108.243 687.581C107.582 682.097 107.599 681.801 108.78 678.715C109.806 676.033 110.146 673.73 109.911 671.057C109.695 668.594 108.826 666.069 107.536 664.157C106.794 663.057 105.017 661.247 104.124 660.68ZM36.2407 645.91C35.15 645.418 32.344 645.76 30.4559 646.615C25.5952 648.815 23.531 652.493 25.063 656.223C25.5079 657.306 27.2463 659.052 28.4364 659.612C30.1288 660.408 32.8187 660.189 34.3675 659.13C37.6999 656.852 39.6415 649.938 37.7362 647.135C37.2164 646.369 37.1642 646.327 36.2407 645.91ZM51.207 658.601C50.1091 658.106 47.3137 658.452 45.3499 659.326C42.3728 660.651 40.2435 662.787 39.7152 664.979C39.454 666.062 39.5978 667.864 40.0294 668.914C40.4743 669.997 42.2126 671.744 43.4028 672.303C45.0952 673.099 47.7851 672.88 49.3339 671.821C52.6462 669.557 54.6004 662.619 52.71 659.836C52.1824 659.06 52.1318 659.019 51.207 658.601ZM17.8666 647.346C14.1448 646.223 7.78275 649.687 6.62791 653.465C6.18765 654.906 6.44188 657.083 7.19861 658.347C7.89714 659.513 9.32668 660.726 10.5919 661.224C11.959 661.763 14.1517 661.659 15.4941 660.993C19.0569 659.224 21.4348 652.319 19.6706 648.864C19.2382 648.017 18.7624 647.617 17.8666 647.346ZM52.2799 676.723C48.5174 675.785 42.4217 679.186 41.3538 682.818C40.9574 684.166 41.032 685.903 41.5395 687.138C42.0657 688.42 43.789 690.042 45.2481 690.63C46.7755 691.245 49.113 691.059 50.5066 690.212C54.5761 687.737 56.4396 679.673 53.5184 677.18C53.383 677.064 52.8256 676.859 52.2799 676.723ZM27.9797 668.664C26.4873 667.868 24.3806 667.269 22.3289 667.056C19.0385 666.716 15.508 667.64 12.0757 669.74C10.2702 670.845 8.96418 671.189 6.3744 671.243C2.96643 671.314 2.13417 671.434 0.73134 672.059C-1.03646 672.847 -2.1388 673.899 -2.90205 675.525C-4.70389 679.366 -3.23454 684.188 0.761145 687.547C2.58583 689.081 3.9858 689.763 6.96489 690.569C9.22462 691.18 9.29327 691.215 10.91 692.585C12.5511 693.974 12.5585 693.985 13.6542 696.381C14.9667 699.252 15.5957 700.135 17.474 701.738C19.2085 703.219 20.4915 703.901 22.6041 704.467C27.2703 705.717 31.591 703.61 32.7474 699.523C33.1701 698.029 33.1862 696.726 32.8089 694.578C32.2439 691.361 32.3356 690.121 33.336 687.456C35.1729 682.562 35.1857 678.422 33.3761 674.479C32.1961 671.907 30.3682 669.938 27.9797 668.664Z" fill="#696A69" fill-opacity="0.05"/>
<path fill-rule="evenodd" clip-rule="evenodd" d="M104.797 484.205C101.754 484.396 97.5273 490.184 97.7565 493.848C97.9571 497.052 100.04 499.399 103.12 499.891C105.042 500.197 106.564 499.808 108.011 498.639C110.453 496.666 111.09 493.324 109.8 489.25C108.74 485.899 106.928 484.072 104.797 484.205ZM123.999 487.283C123.023 487.403 121.102 488.706 120.038 489.969C117.8 492.626 116.71 495.985 117.326 498.324C118.506 502.8 123.95 504.578 127.501 501.646C129.849 499.708 130.459 496.176 129.127 492.237C127.955 488.772 126.141 487.019 123.999 487.283ZM89.8097 494.906C88.8255 495.037 86.906 496.342 85.8472 497.599C83.6108 500.254 82.5312 503.589 83.1422 505.955C84.3488 510.63 90.2056 512.286 93.7179 508.945C94.7229 507.989 95.2081 506.985 95.4923 505.272C95.7746 503.572 95.6228 501.98 94.9875 499.972C93.9064 496.555 91.9317 494.623 89.8097 494.906ZM134.683 502.088C133.638 502.215 131.273 503.982 130.244 505.404C128.326 508.056 127.496 510.99 128.067 513.103C129.306 517.687 134.761 519.412 138.359 516.357C140.589 514.463 141.163 510.887 139.858 507.016C138.687 503.541 136.882 501.822 134.683 502.088ZM110.261 507.887C104.494 507.773 99.3662 510.999 96.4626 516.565C95.2283 518.932 94.2455 520.02 92.1342 521.361C89.2446 523.196 88.6304 523.708 87.6731 525.086C86.9055 526.191 86.7504 526.591 86.5175 528.065C86.2938 529.481 86.3141 529.982 86.6367 531.035C87.4383 533.653 89.1068 535.553 91.8809 537.007C93.1834 537.69 93.8562 537.902 95.6006 538.179C98.2812 538.606 99.3954 538.526 102.117 537.712C106.025 536.543 108.151 536.885 111.643 539.241C114.022 540.846 115.09 541.291 117.532 541.689C120.756 542.214 123.845 541.618 126.099 540.036C130.127 537.206 130.787 532.65 127.731 528.754C124.322 524.408 124.184 524.145 123.594 520.895C123.08 518.069 122.177 515.924 120.59 513.759C119.128 511.766 117.076 510.057 114.982 509.091C113.777 508.535 111.319 507.908 110.261 507.887ZM44.5574 530.454C43.3697 530.599 41.1475 532.346 39.9763 534.056C36.9609 538.458 37.1027 542.673 40.3467 545.068C41.2887 545.763 43.6806 546.355 44.9884 546.217C46.848 546.02 49.0347 544.438 49.81 542.729C51.4782 539.053 49.5539 532.135 46.471 530.726C45.6297 530.341 45.5631 530.331 44.5574 530.454ZM63.9352 533.546C62.7395 533.692 60.5285 535.437 59.3024 537.202C57.4437 539.879 56.7304 542.809 57.4152 544.958C57.7536 546.02 58.8109 547.486 59.7245 548.16C60.6665 548.856 63.0584 549.448 64.3662 549.309C66.2258 549.112 68.4125 547.53 69.1878 545.822C70.8459 542.168 68.9197 535.222 65.8607 533.823C65.0069 533.433 64.9422 533.423 63.9352 533.546ZM29.5905 541.209C25.8258 542.178 22.1817 548.439 23.1533 552.268C23.5238 553.729 24.8699 555.458 26.1722 556.146C27.3744 556.782 29.2253 557.077 30.5656 556.847C32.0139 556.599 33.8352 555.374 34.6375 554.108C36.767 550.748 35.2199 543.611 31.9201 541.571C31.1112 541.071 30.4968 540.976 29.5905 541.209ZM74.2481 548.485C70.5449 549.634 67.0957 555.703 68.0656 559.362C68.426 560.721 69.3901 562.167 70.4647 562.96C71.579 563.783 73.8937 564.277 75.4462 564.023C77.0713 563.757 78.9736 562.386 79.7258 560.939C81.9223 556.713 79.3348 548.851 75.5443 548.234C75.3687 548.205 74.7853 548.318 74.2481 548.485ZM49.2914 554.194C47.6025 554.287 45.4903 554.867 43.6258 555.749C40.6356 557.164 38.0957 559.784 36.2499 563.36C35.2789 565.241 34.3406 566.212 32.1541 567.601C29.2768 569.429 28.6275 569.963 27.752 571.225C26.6488 572.815 26.2515 574.286 26.4422 576.073C26.8927 580.291 30.6496 583.653 35.8076 584.453C38.1631 584.818 39.7138 584.675 42.679 583.82C44.9282 583.171 45.0051 583.165 47.0977 583.498C49.2216 583.836 49.2332 583.841 51.4127 585.322C54.0237 587.096 55.019 587.525 57.4564 587.922C59.7073 588.289 61.1582 588.207 63.258 587.596C67.8959 586.245 70.4984 582.203 69.3678 578.109C68.9548 576.612 68.2932 575.49 66.8565 573.848C64.7056 571.391 64.1409 570.282 63.6145 567.485C62.6478 562.348 60.5123 558.801 56.9205 556.368C54.5782 554.781 51.9941 554.045 49.2914 554.194Z" fill="#696A69" fill-opacity="0.05"/>
<path fill-rule="evenodd" clip-rule="evenodd" d="M46.4468 349.363C43.7095 350.706 42.027 357.673 43.6441 360.969C45.0584 363.851 47.8828 365.219 50.9151 364.492C52.8084 364.038 54.0643 363.094 54.9519 361.46C56.4499 358.701 55.7563 355.37 53.0028 352.102C50.7386 349.415 48.3637 348.422 46.4468 349.363ZM65.3609 344.839C64.5052 345.325 63.2308 347.265 62.733 348.839C61.6856 352.152 61.9672 355.672 63.4339 357.595C66.2403 361.276 71.9503 360.83 74.1046 356.761C75.5294 354.07 74.7382 350.574 71.9969 347.447C69.5855 344.696 67.2373 343.774 65.3609 344.839ZM36.7111 364.994C35.8526 365.493 34.5804 367.434 34.0848 369.001C33.0381 372.311 33.3204 375.805 34.7923 377.756C37.6999 381.61 43.7438 380.893 45.7058 376.46C46.2673 375.192 46.3301 374.078 45.9356 372.388C45.544 370.709 44.7933 369.298 43.4362 367.687C41.1271 364.946 38.5623 363.919 36.7111 364.994ZM80.9069 354.413C79.9901 354.932 78.4837 357.47 78.0792 359.179C77.3253 362.363 77.6848 365.391 79.0223 367.123C81.925 370.881 87.6243 370.382 89.7746 366.18C91.1079 363.576 90.2665 360.054 87.5762 356.979C85.1618 354.219 82.8349 353.324 80.9069 354.413ZM60.5776 369.137C55.2085 371.244 51.7098 376.19 51.1637 382.445C50.9316 385.103 50.4416 386.486 49.0061 388.534C47.0414 391.337 46.6709 392.046 46.3154 393.685C46.0303 395 46.0405 395.429 46.391 396.88C46.7274 398.273 46.9384 398.728 47.6403 399.577C49.3847 401.687 51.6543 402.801 54.7742 403.08C56.2391 403.211 56.9417 403.149 58.659 402.736C61.298 402.101 62.2963 401.6 64.4975 399.804C67.6579 397.226 69.7526 396.726 73.8815 397.563C76.6937 398.132 77.8511 398.133 80.259 397.563C83.4377 396.812 86.062 395.077 87.5358 392.751C90.1709 388.592 89.0319 384.132 84.7155 381.706C79.9007 379 79.6725 378.811 77.88 376.035C76.322 373.623 74.665 371.988 72.369 370.598C70.2543 369.317 67.7038 368.527 65.3993 368.438C64.0729 368.386 61.5628 368.751 60.5776 369.137ZM8.55721 415.182C7.51597 415.771 6.13391 418.237 5.70823 420.265C4.61214 425.487 6.36013 429.326 10.2747 430.293C11.4114 430.574 13.8473 430.203 15.002 429.573C16.6437 428.678 18.0563 426.378 18.1169 424.503C18.2473 420.468 13.8164 414.818 10.4286 414.699C9.50407 414.666 9.43894 414.683 8.55721 415.182ZM27.6388 410.604C26.5905 411.197 25.2181 413.657 24.7629 415.758C24.0731 418.943 24.5385 421.922 25.9951 423.644C26.715 424.495 28.2538 425.443 29.3563 425.715C30.4929 425.996 32.9289 425.625 34.0835 424.996C35.7252 424.1 37.1379 421.801 37.1985 419.925C37.3281 415.915 32.8847 410.24 29.5231 410.121C28.5849 410.088 28.5217 410.104 27.6388 410.604ZM-1.13905 430.855C-4.2439 433.195 -5.20762 440.374 -2.84129 443.538C-1.93895 444.744 -0.0324429 445.825 1.43429 445.961C2.78832 446.087 4.61093 445.65 5.76057 444.923C7.00282 444.139 8.2147 442.308 8.47002 440.832C9.14786 436.912 4.98107 430.914 1.1513 430.296C0.212405 430.145 -0.391521 430.292 -1.13905 430.855ZM42.8934 420.444C39.9143 422.926 39.0568 429.853 41.3563 432.86C42.2103 433.977 43.6554 434.943 44.9522 435.263C46.2968 435.596 48.6238 435.164 49.9601 434.334C51.359 433.465 52.5899 431.469 52.7294 429.844C53.1365 425.098 47.7314 418.831 43.994 419.715C43.8209 419.756 43.3255 420.084 42.8934 420.444ZM22.0358 435.29C20.5119 436.024 18.7838 437.369 17.4002 438.899C15.1814 441.353 13.8412 444.747 13.5082 448.757C13.333 450.867 12.8392 452.124 11.3527 454.245C9.39663 457.037 9.00198 457.779 8.67754 459.281C8.26873 461.172 8.46594 462.683 9.32741 464.26C11.3617 467.982 16.1207 469.646 21.1911 468.406C23.5066 467.84 24.8839 467.113 27.2941 465.186C29.1223 463.724 29.1911 463.689 31.2513 463.194C33.3422 462.691 33.3548 462.691 35.9357 463.222C39.0277 463.86 40.1112 463.874 42.5144 463.305C44.7338 462.78 46.0424 462.148 47.747 460.778C51.5119 457.752 52.3651 453.021 49.7502 449.673C48.7947 448.45 47.7532 447.667 45.7967 446.702C42.8676 445.258 41.9209 444.451 40.3616 442.069C37.4983 437.696 34.1658 435.24 29.9153 434.371C27.1434 433.804 24.4745 434.115 22.0358 435.29Z" fill="#696A69" fill-opacity="0.05"/>
<path fill-rule="evenodd" clip-rule="evenodd" d="M-54.1855 242.711C-56.4884 244.709 -56.3336 251.875 -53.9277 254.647C-51.8235 257.072 -48.743 257.672 -45.9976 256.194C-44.2833 255.271 -43.3103 254.038 -42.8703 252.23C-42.1274 249.18 -43.6495 246.138 -47.147 243.682C-50.0232 241.663 -52.5729 241.311 -54.1855 242.711ZM-37.0568 233.501C-37.7599 234.19 -38.496 236.39 -38.5747 238.04C-38.7403 241.51 -37.5679 244.841 -35.6582 246.326C-32.0039 249.167 -26.5979 247.275 -25.5557 242.79C-24.8662 239.825 -26.5249 236.648 -29.9746 234.326C-33.0091 232.283 -35.5153 231.991 -37.0568 233.501ZM-59.6009 260.311C-60.3033 261.013 -61.037 263.215 -61.1154 264.857C-61.2809 268.324 -60.1147 271.63 -58.193 273.14C-54.3964 276.122 -48.7369 273.883 -47.9735 269.096C-47.755 267.727 -47.979 266.634 -48.7926 265.101C-49.6004 263.578 -50.687 262.405 -52.4109 261.195C-55.3441 259.135 -58.0862 258.799 -59.6009 260.311ZM-19.5796 238.782C-20.3334 239.518 -21.1406 242.357 -21.0948 244.112C-21.0096 247.383 -19.8876 250.219 -18.1518 251.551C-14.3848 254.442 -9.00266 252.502 -7.99798 247.89C-7.37507 245.031 -9.08904 241.842 -12.4761 239.557C-15.5159 237.506 -17.9943 237.236 -19.5796 238.782ZM-35.4685 258.214C-40.1203 261.624 -42.2382 267.3 -41.167 273.486C-40.7115 276.116 -40.8318 277.578 -41.6959 279.925C-42.8786 283.137 -43.0555 283.917 -42.9799 285.593C-42.9194 286.937 -42.7998 287.349 -42.09 288.662C-41.4087 289.923 -41.0883 290.309 -40.1926 290.95C-37.9668 292.544 -35.4877 293.041 -32.4002 292.513C-30.9505 292.265 -30.2871 292.025 -28.7325 291.187C-26.3435 289.898 -25.5066 289.159 -23.8377 286.86C-21.4415 283.559 -19.5444 282.54 -15.3388 282.293C-12.4744 282.125 -11.3553 281.829 -9.17306 280.663C-6.29211 279.124 -4.19883 276.775 -3.36869 274.15C-1.8844 269.456 -4.12614 265.435 -8.91929 264.193C-14.2659 262.808 -14.5349 262.684 -16.9775 260.459C-19.1005 258.525 -21.1205 257.368 -23.6956 256.611C-26.0674 255.914 -28.7352 255.802 -30.9859 256.305C-32.2813 256.595 -34.6149 257.589 -35.4685 258.214ZM-73.9867 316.029C-74.8426 316.865 -75.5482 319.603 -75.4411 321.672C-75.1656 327.001 -72.4943 330.265 -68.4625 330.199C-67.2918 330.18 -65.0317 329.199 -64.0764 328.295C-62.7182 327.009 -61.9405 324.425 -62.3614 322.597C-63.267 318.663 -68.9954 314.333 -72.301 315.084C-73.2032 315.288 -73.2618 315.321 -73.9867 316.029ZM-56.7098 306.725C-57.5716 307.566 -58.2695 310.295 -58.1724 312.443C-58.0249 315.698 -56.8131 318.46 -54.9649 319.751C-54.0514 320.39 -52.3212 320.913 -51.1857 320.895C-50.015 320.876 -47.7549 319.894 -46.7996 318.99C-45.4414 317.705 -44.6637 315.12 -45.0846 313.292C-45.9847 309.382 -51.7315 305.031 -55.0117 305.776C-55.9271 305.984 -55.9841 306.016 -56.7098 306.725ZM-79.3532 333.661C-81.7566 336.716 -80.8526 343.904 -77.756 346.357C-76.5752 347.293 -74.4557 347.85 -73.0029 347.607C-71.6617 347.382 -70.0115 346.494 -69.0858 345.497C-68.0855 344.421 -67.3819 342.342 -67.5127 340.849C-67.8595 336.886 -73.4215 332.153 -77.2819 332.535C-78.2283 332.628 -78.7744 332.926 -79.3532 333.661ZM-39.4464 312.337C-41.6918 315.498 -40.7496 322.415 -37.7576 324.734C-36.6466 325.595 -35.0026 326.159 -33.667 326.137C-32.282 326.115 -30.1428 325.102 -29.0632 323.958C-27.9329 322.761 -27.2532 320.516 -27.5339 318.91C-28.3537 314.218 -35.1816 309.541 -38.5688 311.351C-38.7256 311.435 -39.1206 311.879 -39.4464 312.337ZM-55.8148 332.023C-57.1004 333.122 -58.427 334.865 -59.3734 336.697C-60.8912 339.636 -61.3189 343.261 -60.6155 347.223C-60.2455 349.307 -60.4015 350.649 -61.2961 353.079C-62.4734 356.278 -62.6651 357.097 -62.5949 358.631C-62.5064 360.565 -61.9295 361.975 -60.6935 363.279C-57.7751 366.358 -52.7489 366.749 -48.164 364.254C-46.0703 363.115 -44.9245 362.06 -43.0873 359.58C-41.6937 357.699 -41.636 357.648 -39.771 356.643C-37.8782 355.622 -37.8659 355.619 -35.2349 355.473C-32.0828 355.298 -31.0318 355.035 -28.8538 353.871C-26.8423 352.796 -25.7387 351.85 -24.4412 350.09C-21.5753 346.201 -21.9599 341.41 -25.344 338.842C-26.5805 337.903 -27.7875 337.413 -29.9257 336.98C-33.1267 336.333 -34.2482 335.795 -36.3646 333.891C-40.251 330.395 -44.1007 328.873 -48.4322 329.12C-51.2569 329.28 -53.7575 330.263 -55.8148 332.023Z" fill="#696A69" fill-opacity="0.05"/>
<path fill-rule="evenodd" clip-rule="evenodd" d="M122.535 105.757C122.708 102.713 117.463 97.8291 113.798 97.6213C110.592 97.4398 108.014 99.2295 107.16 102.229C106.627 104.101 106.833 105.658 107.822 107.234C109.491 109.893 112.733 110.922 116.932 110.126C120.385 109.472 122.415 107.889 122.535 105.757ZM117.198 124.458C117.194 123.474 116.129 121.412 115.002 120.206C112.629 117.668 109.424 116.186 107.028 116.521C102.443 117.16 100.031 122.355 102.52 126.228C104.166 128.79 107.6 129.816 111.67 128.961C115.25 128.209 117.206 126.616 117.198 124.458ZM113.691 89.6051C113.678 88.6123 112.611 86.5514 111.488 85.3507C109.117 82.8147 105.935 81.3465 103.513 81.672C98.7273 82.3145 96.3872 87.9331 99.2872 91.8174C100.117 92.9289 101.056 93.53 102.723 94.0157C104.378 94.498 105.976 94.5365 108.046 94.1443C111.567 93.4768 113.72 91.7457 113.691 89.6051ZM101.228 133.307C101.226 132.254 99.7532 129.696 98.4627 128.505C96.0582 126.286 93.2428 125.114 91.0777 125.43C86.379 126.115 84.0181 131.326 86.6239 135.261C88.2395 137.701 91.7213 138.696 95.7206 137.86C99.3099 137.11 101.231 135.522 101.228 133.307ZM98.372 108.369C99.1701 102.657 96.577 97.1817 91.3949 93.6373C89.1919 92.1306 88.2279 91.0255 87.1475 88.7698C85.669 85.6826 85.2329 85.0119 83.9786 83.8976C82.9728 83.0042 82.594 82.8026 81.1578 82.3962C79.7791 82.006 79.2788 81.9665 78.1947 82.1616C75.5007 82.6466 73.416 84.0775 71.6423 86.6592C70.8092 87.8713 70.5187 88.5142 70.0362 90.2132C69.2945 92.8242 69.2415 93.94 69.7262 96.739C70.4222 100.758 69.8305 102.829 67.0757 106.016C65.1994 108.187 64.6313 109.195 63.9459 111.573C63.0411 114.711 63.266 117.849 64.5695 120.275C66.9002 124.611 71.346 125.807 75.5775 123.236C80.2976 120.368 80.5745 120.262 83.8724 120.062C86.7388 119.888 88.9765 119.246 91.3143 117.927C93.4674 116.713 95.4076 114.878 96.6158 112.914C97.3112 111.783 98.2255 109.417 98.372 108.369ZM83.7719 40.4495C83.7692 39.2531 82.2986 36.839 80.7399 35.4729C76.7275 31.9559 72.5253 31.5959 69.7617 34.5323C68.9593 35.385 68.0874 37.6895 68.0695 39.0046C68.0444 40.8745 69.3551 43.2336 70.9594 44.2064C74.4112 46.2996 81.509 45.2109 83.2749 42.3174C83.757 41.5278 83.7741 41.4627 83.7719 40.4495ZM78.3991 59.3226C78.3964 58.1181 76.9264 55.7154 75.3193 54.2882C72.8825 52.1247 70.0576 51.0682 67.8431 51.4929C66.7486 51.7028 65.1671 52.5783 64.3889 53.4054C63.5865 54.2581 62.7146 56.5626 62.6967 57.8777C62.6716 59.7476 63.9823 62.1067 65.5866 63.0796C69.0175 65.16 76.143 64.0727 77.8955 61.2016C78.3845 60.4003 78.4014 60.3372 78.3991 59.3226ZM74.8717 24.3108C74.3565 20.4576 68.5733 16.0955 64.6553 16.6051C63.1614 16.7995 61.2842 17.9305 60.4461 19.1418C59.6722 20.2601 59.159 22.0628 59.2279 23.4209C59.3023 24.8884 60.3026 26.8424 61.4642 27.7894C64.547 30.303 71.8179 29.615 74.2351 26.5809C74.8278 25.8371 74.9955 25.2384 74.8717 24.3108ZM62.3406 67.7875C61.6395 63.974 56.024 59.8281 52.2754 60.3564C50.8835 60.5527 49.3331 61.3382 48.4175 62.3109C47.4682 63.3195 46.703 65.5592 46.7706 67.1308C46.8413 68.776 47.9765 70.8278 49.3242 71.7466C53.2596 74.4297 61.3727 72.7947 62.436 69.1043C62.4852 68.9333 62.4423 68.3406 62.3406 67.7875ZM59.6376 42.3292C59.7457 40.6413 59.4209 38.4751 58.7668 36.519C57.7174 33.3819 55.4171 30.5486 52.0861 28.291C50.334 27.1034 49.4808 26.0563 48.3615 23.7203C46.8887 20.6462 46.4353 19.938 45.2864 18.9188C43.8386 17.6345 42.4255 17.0652 40.6289 17.0423C36.387 16.9884 32.6027 20.3192 31.1953 25.3456C30.5525 27.641 30.51 29.1977 31.0071 32.2436C31.3842 34.5539 31.3806 34.6309 30.8015 36.6691C30.214 38.7378 30.2077 38.7488 28.4782 40.7369C26.4059 43.1185 25.8623 44.0559 25.1785 46.4288C24.5468 48.6202 24.4555 50.0706 24.8131 52.2281C25.6033 56.9937 29.3067 60.0579 33.5069 59.4219C35.0419 59.1896 36.2347 58.666 38.0355 57.4346C40.7311 55.5909 41.8986 55.1619 44.739 54.9716C49.9545 54.6222 53.7295 52.9232 56.5725 49.646C58.4266 47.5089 59.4647 45.0305 59.6376 42.3292Z" fill="#696A69" fill-opacity="0.05"/>
<path fill-rule="evenodd" clip-rule="evenodd" d="M263.304 175.553C264.751 172.869 262.074 166.221 258.843 164.478C256.018 162.954 252.924 163.48 250.878 165.834C249.601 167.304 249.126 168.801 249.354 170.647C249.737 173.763 252.236 176.071 256.376 177.131C259.78 178.004 262.29 177.432 263.304 175.553ZM250.536 190.222C250.95 189.33 250.861 187.011 250.352 185.44C249.28 182.135 247.006 179.433 244.694 178.72C240.272 177.354 235.883 181.034 236.494 185.598C236.897 188.616 239.572 191.002 243.62 191.954C247.18 192.793 249.628 192.18 250.536 190.222ZM262.148 157.174C262.557 156.269 262.465 153.95 261.958 152.387C260.887 149.084 258.628 146.404 256.296 145.672C251.69 144.223 247.188 148.318 248.166 153.066C248.445 154.424 249.041 155.367 250.344 156.514C251.638 157.653 253.069 158.366 255.11 158.889C258.581 159.779 261.266 159.124 262.148 157.174ZM232.32 191.46C232.765 190.506 232.517 187.564 231.854 185.938C230.618 182.909 228.566 180.653 226.471 180.02C221.925 178.647 217.577 182.365 218.267 187.034C218.695 189.928 221.426 192.306 225.402 193.246C228.97 194.09 231.384 193.467 232.32 191.46ZM240.315 167.666C243.461 162.832 243.436 156.774 240.247 151.365C238.891 149.066 238.487 147.657 238.466 145.156C238.437 141.733 238.326 140.941 237.663 139.399C237.132 138.164 236.874 137.82 235.746 136.843C234.663 135.905 234.227 135.657 233.162 135.373C230.517 134.67 228.022 135.081 225.321 136.666C224.052 137.41 223.516 137.869 222.358 139.203C220.579 141.253 220.058 142.241 219.309 144.981C218.234 148.915 216.82 150.539 212.973 152.257C210.353 153.427 209.411 154.099 207.781 155.961C205.63 158.419 204.503 161.356 204.654 164.105C204.925 169.021 208.443 171.99 213.366 171.457C218.857 170.863 219.153 170.885 222.224 172.102C224.893 173.161 227.192 173.529 229.868 173.327C232.333 173.141 234.869 172.302 236.796 171.036C237.906 170.307 239.737 168.553 240.315 167.666ZM255.91 99.9678C256.415 98.8832 256.107 96.0733 255.276 94.1749C253.134 89.2878 249.482 87.1789 245.733 88.6654C244.645 89.0972 242.878 90.8141 242.304 91.9973C241.488 93.6799 241.674 96.3723 242.714 97.9339C244.951 101.294 251.84 103.319 254.667 101.448C255.439 100.938 255.482 100.886 255.91 99.9678ZM243.037 114.779C243.546 113.687 243.234 110.887 242.384 108.913C241.096 105.92 238.986 103.765 236.8 103.21C235.72 102.936 233.917 103.057 232.861 103.476C231.773 103.908 230.005 105.625 229.431 106.808C228.615 108.491 228.801 111.183 229.841 112.745C232.065 116.084 238.979 118.123 241.784 116.266C242.567 115.748 242.609 115.698 243.037 114.779ZM254.697 81.5776C255.866 77.8698 252.479 71.466 248.715 70.2653C247.28 69.8075 245.1 70.0352 243.827 70.7765C242.652 71.4608 241.423 72.8755 240.909 74.1345C240.354 75.495 240.43 77.6888 241.08 79.0392C242.806 82.6233 249.682 85.085 253.158 83.363C254.01 82.941 254.416 82.47 254.697 81.5776ZM224.904 115.631C225.887 111.88 222.561 105.743 218.943 104.631C217.599 104.219 215.862 104.272 214.62 104.764C213.332 105.275 211.689 106.978 211.084 108.43C210.45 109.95 210.607 112.29 211.438 113.693C213.863 117.793 221.903 119.754 224.432 116.864C224.549 116.73 224.762 116.175 224.904 115.631ZM233.258 91.4305C234.072 89.9479 234.697 87.8486 234.934 85.7997C235.315 82.5137 234.434 78.9722 232.375 75.5146C231.293 73.6958 230.964 72.3857 230.942 69.7954C230.912 66.3868 230.802 65.5532 230.194 64.1428C229.428 62.3656 228.39 61.2505 226.773 60.4675C222.955 58.6191 218.115 60.0296 214.708 63.9842C213.152 65.79 212.453 67.1816 211.611 70.1507C210.972 72.4028 210.936 72.471 209.547 74.071C208.137 75.695 208.127 75.7023 205.717 76.7687C202.83 78.0462 201.94 78.6644 200.314 80.523C198.813 82.2394 198.115 83.5141 197.523 85.6195C196.217 90.2702 198.27 94.6162 202.343 95.8223C203.832 96.2631 205.134 96.2951 207.287 95.944C210.511 95.4181 211.75 95.5249 214.403 96.5577C219.274 98.4541 223.413 98.5172 227.378 96.7557C229.963 95.6071 231.955 93.8033 233.258 91.4305Z" fill="#696A69" fill-opacity="0.05"/>
<path fill-rule="evenodd" clip-rule="evenodd" d="M280.417 329.577C283.227 328.395 285.311 321.537 283.887 318.154C282.642 315.194 279.902 313.665 276.832 314.215C274.916 314.559 273.608 315.428 272.627 317.008C270.971 319.676 271.471 323.041 274.03 326.463C276.135 329.277 278.449 330.405 280.417 329.577ZM261.272 332.998C262.155 332.562 263.539 330.7 264.128 329.157C265.365 325.91 265.288 322.38 263.935 320.375C261.347 316.537 255.62 316.652 253.234 320.59C251.656 323.193 252.243 326.729 254.799 330.01C257.047 332.895 259.337 333.953 261.272 332.998ZM291.042 314.536C291.928 314.088 293.31 312.224 293.896 310.688C295.132 307.444 295.053 303.94 293.697 301.907C291.017 297.891 284.942 298.257 282.726 302.569C282.092 303.802 281.965 304.91 282.261 306.621C282.555 308.319 283.222 309.772 284.484 311.459C286.63 314.329 289.131 315.503 291.042 314.536ZM246.307 322.539C247.252 322.074 248.903 319.628 249.406 317.945C250.343 314.81 250.16 311.766 248.925 309.96C246.245 306.04 240.526 306.208 238.136 310.278C236.654 312.801 237.29 316.366 239.798 319.592C242.048 322.487 244.319 323.515 246.307 322.539ZM267.455 309.018C272.937 307.225 276.717 302.49 277.624 296.278C278.01 293.637 278.579 292.286 280.131 290.324C282.255 287.64 282.666 286.953 283.116 285.337C283.477 284.041 283.491 283.612 283.225 282.143C282.97 280.733 282.786 280.267 282.135 279.379C280.515 277.171 278.314 275.927 275.216 275.468C273.761 275.252 273.056 275.274 271.317 275.587C268.646 276.067 267.62 276.51 265.319 278.175C262.014 280.566 259.894 280.944 255.821 279.869C253.046 279.137 251.891 279.07 249.454 279.499C246.237 280.065 243.517 281.645 241.911 283.882C239.039 287.881 239.918 292.4 244.086 295.072C248.736 298.052 248.953 298.254 250.582 301.129C251.997 303.627 253.557 305.356 255.768 306.876C257.805 308.277 260.306 309.214 262.601 309.437C263.922 309.565 266.449 309.347 267.455 309.018ZM322.056 266.064C323.13 265.536 324.652 263.155 325.195 261.154C326.592 256.005 325.069 252.071 321.217 250.879C320.099 250.533 317.645 250.762 316.456 251.323C314.765 252.122 313.222 254.336 313.053 256.205C312.689 260.225 316.785 266.123 320.16 266.438C321.081 266.524 321.147 266.511 322.056 266.064ZM302.741 269.529C303.822 268.997 305.335 266.621 305.911 264.55C306.784 261.411 306.492 258.409 305.138 256.606C304.468 255.715 302.987 254.679 301.902 254.343C300.784 253.997 298.33 254.226 297.141 254.788C295.45 255.587 293.907 257.801 293.738 259.669C293.376 263.665 297.483 269.589 300.832 269.902C301.767 269.989 301.831 269.976 302.741 269.529ZM332.644 250.979C335.879 248.823 337.257 241.712 335.078 238.416C334.247 237.159 332.407 235.97 330.95 235.749C329.606 235.545 327.761 235.876 326.571 236.535C325.286 237.246 323.97 239.003 323.629 240.463C322.725 244.336 326.538 250.566 330.325 251.404C331.254 251.61 331.865 251.498 332.644 250.979ZM288.082 258.822C291.2 256.516 292.458 249.65 290.336 246.515C289.549 245.351 288.162 244.303 286.886 243.908C285.563 243.498 283.214 243.795 281.832 244.546C280.385 245.332 279.041 247.253 278.808 248.868C278.126 253.582 283.159 260.152 286.941 259.486C287.117 259.455 287.63 259.156 288.082 258.822ZM309.765 245.209C311.329 244.565 313.132 243.322 314.602 241.875C316.959 239.554 318.494 236.243 319.059 232.258C319.356 230.163 319.922 228.936 321.529 226.905C323.643 224.231 324.08 223.513 324.491 222.033C325.009 220.168 324.899 218.648 324.131 217.024C322.315 213.19 317.661 211.254 312.527 212.197C310.183 212.628 308.766 213.274 306.248 215.059C304.338 216.412 304.267 216.443 302.182 216.818C300.065 217.199 300.053 217.198 297.507 216.518C294.457 215.703 293.376 215.626 290.944 216.054C288.698 216.45 287.355 217.005 285.574 218.274C281.64 221.077 280.514 225.75 282.931 229.244C283.814 230.521 284.808 231.362 286.705 232.439C289.546 234.051 290.444 234.911 291.863 237.379C294.468 241.911 297.653 244.556 301.846 245.67C304.58 246.397 307.262 246.241 309.765 245.209Z" fill="#696A69" fill-opacity="0.05"/>
<path fill-rule="evenodd" clip-rule="evenodd" d="M260.238 475.471C263.284 475.62 268.128 470.337 268.308 466.671C268.465 463.464 266.655 460.9 263.65 460.069C261.773 459.55 260.218 459.768 258.65 460.769C256.004 462.458 254.999 465.708 255.827 469.901C256.508 473.349 258.106 475.366 260.238 475.471ZM241.497 470.276C242.481 470.265 244.535 469.185 245.733 468.048C248.253 465.656 249.71 462.439 249.357 460.046C248.682 455.466 243.47 453.094 239.615 455.612C237.066 457.277 236.067 460.719 236.952 464.782C237.731 468.357 239.34 470.301 241.497 470.276ZM276.323 466.503C277.315 466.482 279.368 465.399 280.56 464.268C283.078 461.878 284.522 458.684 284.178 456.264C283.499 451.484 277.862 449.187 274 452.116C272.895 452.955 272.301 453.899 271.828 455.569C271.359 457.228 271.333 458.826 271.741 460.893C272.435 464.409 274.182 466.548 276.323 466.503ZM232.527 454.374C233.58 454.364 236.126 452.872 237.307 451.572C239.508 449.151 240.659 446.327 240.326 444.164C239.605 439.471 234.376 437.15 230.461 439.786C228.034 441.42 227.065 444.909 227.932 448.902C228.709 452.486 230.312 454.395 232.527 454.374ZM257.442 451.328C263.16 452.082 268.615 449.447 272.12 444.238C273.61 442.024 274.708 441.051 276.955 439.954C280.031 438.452 280.698 438.011 281.803 436.748C282.689 435.735 282.887 435.355 283.283 433.916C283.662 432.534 283.698 432.033 283.495 430.951C282.989 428.261 281.542 426.187 278.947 424.433C277.729 423.609 277.084 423.324 275.381 422.854C272.764 422.132 271.648 422.088 268.853 422.594C264.84 423.321 262.764 422.745 259.556 420.014C257.371 418.155 256.358 417.594 253.976 416.927C250.83 416.046 247.694 416.295 245.279 417.617C240.96 419.981 239.798 424.436 242.401 428.648C245.305 433.346 245.413 433.622 245.639 436.918C245.835 439.783 246.494 442.016 247.83 444.343C249.061 446.487 250.911 448.413 252.884 449.607C254.02 450.293 256.393 451.189 257.442 451.328ZM325.248 436.209C326.445 436.197 328.847 434.708 330.201 433.139C333.688 429.1 334.016 424.895 331.058 422.154C330.199 421.358 327.888 420.504 326.573 420.496C324.703 420.485 322.354 421.814 321.393 423.426C319.327 426.893 320.47 433.983 323.377 435.726C324.17 436.202 324.235 436.219 325.248 436.209ZM306.334 430.981C307.539 430.969 309.93 429.48 311.345 427.862C313.49 425.409 314.525 422.576 314.083 420.365C313.865 419.272 312.977 417.697 312.144 416.926C311.286 416.13 308.975 415.275 307.659 415.268C305.789 415.257 303.44 416.585 302.48 418.197C300.426 421.644 301.567 428.761 304.452 430.491C305.257 430.974 305.32 430.991 306.334 430.981ZM341.318 427.186C345.167 426.641 349.485 420.825 348.946 416.911C348.74 415.418 347.595 413.55 346.377 412.721C345.253 411.956 343.446 411.456 342.089 411.536C340.622 411.621 338.675 412.636 337.737 413.805C335.247 416.907 335.991 424.172 339.043 426.566C339.792 427.153 340.392 427.317 341.318 427.186ZM297.747 414.987C301.555 414.257 305.658 408.61 305.101 404.866C304.894 403.475 304.097 401.931 303.117 401.023C302.101 400.081 299.856 399.333 298.285 399.413C296.64 399.496 294.597 400.647 293.689 402.001C291.036 405.957 292.733 414.058 296.431 415.093C296.602 415.141 297.195 415.093 297.747 414.987ZM323.184 412.09C324.873 412.185 327.036 411.844 328.987 411.175C332.116 410.101 334.932 407.779 337.164 404.431C338.338 402.67 339.379 401.809 341.706 400.672C344.769 399.175 345.474 398.717 346.484 397.56C347.757 396.102 348.316 394.685 348.325 392.888C348.346 388.646 344.987 384.887 339.95 383.518C337.649 382.893 336.092 382.863 333.05 383.383C330.743 383.778 330.666 383.775 328.623 383.211C326.55 382.639 326.539 382.633 324.538 380.919C322.141 378.865 321.199 378.329 318.821 377.663C316.625 377.048 315.174 376.968 313.019 377.342C308.26 378.169 305.224 381.895 305.892 386.091C306.136 387.624 306.669 388.812 307.914 390.604C309.778 393.285 310.216 394.449 310.428 397.288C310.817 402.501 312.545 406.263 315.844 409.081C317.995 410.918 320.481 411.937 323.184 412.09Z" fill="#696A69" fill-opacity="0.05"/>
<path fill-rule="evenodd" clip-rule="evenodd" d="M231.238 644.471C234.284 644.62 239.128 639.337 239.308 635.671C239.465 632.464 237.655 629.9 234.65 629.069C232.773 628.55 231.218 628.768 229.65 629.769C227.004 631.458 225.999 634.708 226.827 638.901C227.508 642.349 229.106 644.366 231.238 644.471ZM212.497 639.276C213.481 639.265 215.535 638.185 216.733 637.048C219.253 634.656 220.71 631.439 220.357 629.046C219.682 624.466 214.47 622.094 210.615 624.612C208.066 626.277 207.067 629.719 207.952 633.782C208.731 637.357 210.34 639.301 212.497 639.276ZM247.323 635.503C248.315 635.482 250.368 634.399 251.56 633.268C254.078 630.878 255.522 627.684 255.178 625.264C254.499 620.484 248.862 618.187 245 621.116C243.895 621.955 243.301 622.899 242.828 624.569C242.359 626.228 242.333 627.826 242.741 629.893C243.435 633.409 245.182 635.548 247.323 635.503ZM203.527 623.374C204.58 623.364 207.126 621.872 208.307 620.572C210.508 618.151 211.659 615.327 211.326 613.164C210.605 608.471 205.376 606.15 201.461 608.786C199.034 610.42 198.065 613.909 198.932 617.902C199.709 621.486 201.312 623.395 203.527 623.374ZM228.442 620.328C234.16 621.082 239.615 618.447 243.12 613.238C244.61 611.024 245.708 610.051 247.955 608.954C251.031 607.452 251.698 607.011 252.803 605.748C253.689 604.735 253.887 604.355 254.283 602.916C254.662 601.534 254.698 601.033 254.495 599.951C253.989 597.261 252.542 595.187 249.947 593.433C248.729 592.609 248.084 592.324 246.381 591.854C243.764 591.132 242.648 591.088 239.853 591.594C235.84 592.321 233.764 591.745 230.556 589.014C228.371 587.155 227.358 586.594 224.976 585.927C221.83 585.046 218.694 585.295 216.279 586.617C211.96 588.981 210.798 593.436 213.401 597.648C216.305 602.346 216.413 602.622 216.639 605.918C216.835 608.783 217.494 611.016 218.83 613.343C220.061 615.487 221.911 617.413 223.884 618.607C225.02 619.293 227.393 620.189 228.442 620.328ZM296.248 605.209C297.445 605.197 299.847 603.708 301.201 602.139C304.688 598.1 305.016 593.895 302.058 591.154C301.199 590.358 298.888 589.504 297.573 589.496C295.703 589.485 293.354 590.814 292.393 592.426C290.327 595.893 291.47 602.983 294.377 604.726C295.17 605.202 295.235 605.219 296.248 605.209ZM277.334 599.981C278.539 599.969 280.93 598.48 282.345 596.862C284.49 594.409 285.525 591.576 285.083 589.365C284.865 588.272 283.977 586.697 283.144 585.926C282.286 585.13 279.975 584.275 278.659 584.268C276.789 584.257 274.44 585.585 273.48 587.197C271.426 590.644 272.567 597.761 275.452 599.491C276.257 599.974 276.32 599.991 277.334 599.981ZM312.318 596.186C316.167 595.641 320.485 589.825 319.946 585.911C319.74 584.418 318.595 582.55 317.377 581.721C316.253 580.956 314.446 580.456 313.089 580.536C311.622 580.621 309.675 581.636 308.737 582.805C306.247 585.907 306.991 593.172 310.043 595.566C310.792 596.153 311.392 596.317 312.318 596.186ZM268.747 583.987C272.555 583.257 276.658 577.61 276.101 573.866C275.894 572.475 275.097 570.931 274.117 570.023C273.101 569.081 270.856 568.333 269.285 568.413C267.64 568.496 265.597 569.647 264.689 571.001C262.036 574.957 263.733 583.058 267.431 584.093C267.602 584.141 268.195 584.093 268.747 583.987ZM294.184 581.09C295.873 581.185 298.036 580.844 299.987 580.175C303.116 579.101 305.932 576.779 308.164 573.431C309.338 571.67 310.379 570.809 312.706 569.672C315.769 568.175 316.474 567.717 317.484 566.56C318.757 565.102 319.316 563.685 319.325 561.888C319.346 557.646 315.987 553.887 310.95 552.518C308.649 551.893 307.092 551.863 304.05 552.383C301.743 552.778 301.666 552.775 299.623 552.211C297.55 551.639 297.539 551.633 295.538 549.919C293.141 547.865 292.199 547.329 289.821 546.663C287.625 546.048 286.174 545.968 284.019 546.342C279.26 547.169 276.224 550.895 276.892 555.091C277.136 556.624 277.669 557.812 278.914 559.604C280.778 562.285 281.216 563.449 281.428 566.288C281.817 571.501 283.545 575.263 286.844 578.081C288.995 579.918 291.481 580.937 294.184 581.09Z" fill="#696A69" fill-opacity="0.05"/>
<path fill-rule="evenodd" clip-rule="evenodd" d="M261.898 786.628C264.787 785.653 267.364 778.966 266.191 775.487C265.165 772.445 262.543 770.72 259.442 771.046C257.505 771.249 256.137 772.02 255.044 773.526C253.199 776.065 253.452 779.458 255.755 783.057C257.65 786.017 259.875 787.311 261.898 786.628ZM242.555 788.646C243.467 788.276 244.984 786.519 245.683 785.023C247.153 781.875 247.333 778.348 246.13 776.25C243.828 772.234 238.108 771.932 235.442 775.686C233.678 778.167 234.006 781.737 236.316 785.194C238.348 788.236 240.556 789.457 242.555 788.646ZM273.59 772.401C274.506 772.018 276.021 770.26 276.716 768.771C278.186 765.625 278.362 762.124 277.157 759.998C274.777 755.797 268.691 755.72 266.168 759.859C265.446 761.043 265.238 762.139 265.409 763.867C265.578 765.582 266.138 767.08 267.273 768.854C269.205 771.873 271.614 773.225 273.59 772.401ZM228.391 777.125C229.368 776.731 231.193 774.411 231.817 772.769C232.979 769.711 233.018 766.662 231.918 764.77C229.53 760.666 223.814 760.417 221.134 764.302C219.473 766.711 219.848 770.312 222.114 773.712C224.147 776.763 226.338 777.954 228.391 777.125ZM250.468 765.18C256.066 763.791 260.18 759.344 261.537 753.214C262.114 750.608 262.78 749.302 264.471 747.458C266.784 744.936 267.244 744.281 267.811 742.702C268.265 741.435 268.311 741.009 268.152 739.525C268.001 738.1 267.851 737.621 267.266 736.688C265.811 734.369 263.706 732.967 260.65 732.284C259.214 731.963 258.51 731.933 256.753 732.118C254.054 732.403 252.999 732.77 250.582 734.263C247.112 736.407 244.97 736.63 240.986 735.261C238.272 734.33 237.124 734.178 234.663 734.429C231.413 734.759 228.585 736.137 226.82 738.251C223.665 742.03 224.213 746.601 228.176 749.569C232.596 752.88 232.798 753.098 234.213 756.083C235.443 758.678 236.873 760.516 238.968 762.193C240.897 763.738 243.323 764.855 245.596 765.244C246.904 765.468 249.44 765.434 250.468 765.18ZM308.05 726.315C309.16 725.866 310.852 723.602 311.538 721.646C313.306 716.612 312.074 712.579 308.319 711.109C307.229 710.682 304.765 710.732 303.538 711.205C301.794 711.879 300.093 713.975 299.788 715.826C299.133 719.809 302.789 725.99 306.132 726.55C307.044 726.703 307.111 726.695 308.05 726.315ZM288.535 728.364C289.651 727.913 291.333 725.653 292.058 723.63C293.158 720.562 293.085 717.547 291.866 715.65C291.263 714.713 289.861 713.572 288.803 713.158C287.713 712.731 285.249 712.781 284.023 713.255C282.278 713.928 280.577 716.024 280.273 717.875C279.621 721.835 283.286 728.041 286.603 728.597C287.529 728.752 287.594 728.744 288.535 728.364ZM319.709 712.04C323.092 710.126 324.984 703.134 323.051 699.688C322.314 698.374 320.564 697.054 319.128 696.728C317.802 696.426 315.938 696.622 314.703 697.192C313.369 697.808 311.929 699.465 311.483 700.896C310.3 704.693 313.648 711.184 317.365 712.296C318.276 712.569 318.894 712.501 319.709 712.04ZM274.694 716.618C277.972 714.546 279.725 707.79 277.838 704.508C277.137 703.29 275.83 702.144 274.586 701.657C273.297 701.152 270.933 701.277 269.5 701.925C268 702.604 266.519 704.423 266.169 706.016C265.146 710.667 269.687 717.586 273.508 717.198C273.685 717.179 274.219 716.919 274.694 716.618ZM297.31 704.62C298.917 704.092 300.806 702.983 302.377 701.647C304.897 699.504 306.669 696.313 307.522 692.38C307.971 690.312 308.624 689.13 310.375 687.221C312.678 684.708 313.167 684.023 313.684 682.577C314.336 680.755 314.338 679.232 313.689 677.556C312.158 673.6 307.657 671.33 302.468 671.897C300.099 672.156 298.638 672.697 295.997 674.294C293.994 675.505 293.921 675.53 291.814 675.753C289.675 675.979 289.663 675.977 287.173 675.113C284.191 674.078 283.118 673.923 280.662 674.173C278.393 674.403 277.013 674.859 275.144 675.995C271.016 678.505 269.553 683.084 271.709 686.744C272.497 688.082 273.427 688.994 275.241 690.206C277.957 692.02 278.79 692.943 280.025 695.508C282.294 700.217 285.277 703.087 289.378 704.503C292.052 705.427 294.739 705.467 297.31 704.62Z" fill="#696A69" fill-opacity="0.05"/>
</g>
<defs>
<clipPath id="clip0_163_10445">
<rect width="375" height="812" fill="white"/>
</clipPath>
</defs>
</svg>
