<svg width="72" height="72" viewBox="0 0 72 72" fill="none" xmlns="http://www.w3.org/2000/svg">
<circle cx="35.9998" cy="36" r="35" fill="#A0D9BB" stroke="#333333" stroke-width="2"/>
<path d="M33.6481 12.0766C31.0231 12.4047 28.4091 13.4219 26.495 14.8437C24.9419 16.0031 23.3013 17.95 22.4481 19.6344C21.6606 21.1766 21.0153 23.3094 20.7419 25.2453C20.5341 26.7219 20.5013 33.6453 20.7091 33.8531C20.8841 34.0281 24.1313 35.513 24.2735 35.338C24.3391 35.2615 24.4047 34.0037 24.4375 32.199C24.4922 28.7646 24.5688 28.349 25.3344 26.7849C26.3188 24.7834 25.2481 24.7676 27.4356 23.9801L28.3981 23.641H35.9997H43.6013L44.5638 23.9801C46.7513 24.7676 45.2234 23.5836 46.2077 25.5961C46.9952 27.2039 47.0609 27.5867 47.1155 31.0102C47.1484 32.8149 47.214 34.0727 47.2796 34.1492C47.4218 34.3352 50.8411 34.3352 50.9833 34.1492C51.0598 34.0617 51.4216 32.2781 51.4435 29.7734C51.4872 26.0875 51.4981 25.7922 51.7278 25.1141C51.9466 24.4359 52.4169 23.6484 53.1716 22.675C53.6966 21.9969 53.6091 21.6469 52.5591 20.2578C51.17 18.3984 49.1247 16.8891 46.9044 16.1016L45.8981 15.7406L45.931 15.15C45.9747 14.4391 45.8981 14.3516 44.7497 13.8266C43.131 13.0937 40.9106 12.4594 38.9419 12.175C37.87 12.0109 34.5888 11.9562 33.6481 12.0766Z" fill="#DDAF89"/>
<path d="M28.4747 22.5437C26.3529 23.0687 24.4935 24.7969 23.7826 26.9297L23.4872 27.8047L23.4435 32.1469C23.3997 36.7516 23.4763 38.1953 23.8591 39.6828C24.9419 43.9266 28.4419 47.4594 32.6638 48.5969C37.0826 49.7781 41.6763 48.5641 44.8591 45.3594C46.3466 43.8719 47.331 42.2422 47.9544 40.2516C48.4904 38.5562 48.5232 38.0859 48.5232 32.7812V27.8047L48.2279 26.9297C47.6372 25.2016 46.4232 23.8234 44.8263 23.0578C44.3341 22.8172 43.6669 22.5766 43.3497 22.5109C42.4747 22.325 29.2404 22.3687 28.4747 22.5437Z" fill="#E2C6AE"/>
<path d="M29.3408 32.2237C28.9242 32.6293 28.9571 33.2651 29.4066 33.6378C29.7354 33.9119 29.7793 33.9229 31.3798 33.9229C33.5066 33.9229 33.7806 33.8023 33.7806 32.8705C33.7806 32.6074 33.6929 32.3991 33.5066 32.2237C33.2435 31.9496 33.2106 31.9496 31.4237 31.9496C29.6368 31.9496 29.6039 31.9496 29.3408 32.2237Z" fill="#333333"/>
<path d="M35.1173 40.3102C35.4759 40.7679 36.1116 40.8034 36.5304 40.3965C36.8381 40.099 36.8538 40.0565 37.0255 38.4652C37.2537 36.3508 37.1632 36.0654 36.2368 35.9654C35.9752 35.9372 35.7587 36.002 35.5643 36.1685C35.2636 36.4006 35.2601 36.4333 35.0683 38.2099C34.8766 39.9865 34.8731 40.0192 35.1173 40.3102Z" fill="#333333"/>
<path d="M38.3614 32.2237C37.9448 32.6293 37.9777 33.2651 38.4272 33.6378C38.7561 33.9119 38.7999 33.9229 40.4004 33.9229C42.5272 33.9229 42.8012 33.8023 42.8012 32.8705C42.8012 32.6074 42.7135 32.3991 42.5272 32.2237C42.2641 31.9496 42.2312 31.9496 40.4443 31.9496C38.6574 31.9496 38.6245 31.9496 38.3614 32.2237Z" fill="#333333"/>
<path d="M28.6169 51.3531C27.7638 51.7578 27.6107 51.7906 26.0685 51.9219C24.6904 52.0312 23.3888 52.3703 22.3825 52.8844C19.7466 54.2078 17.8544 56.6906 17.2529 59.6C17.1107 60.2672 17.0779 61.175 17.0779 63.9313C17.0779 67.3 17.0341 64.2156 17.2529 64.5C18.337 64.9914 20.132 66.1826 20.9997 66.5C20.9997 66.5 26.0029 70 35.9997 70C45.9966 70 52.9998 65.5 52.9998 65.5L54.6919 64.5568C54.9107 64.2725 54.9216 67.3 54.9216 63.9313C54.9216 61.175 54.8888 60.2672 54.7466 59.6C54.3638 57.7625 53.4669 56.0672 52.1544 54.7328C50.481 53.0375 48.4685 52.1297 45.931 51.9219C44.3669 51.7906 44.2138 51.7578 43.4154 51.3641C43.0654 51.1891 42.6825 51.0469 42.5513 51.0469C42.431 51.0469 41.8513 51.3641 41.2716 51.7469C40.0028 52.5781 38.8982 53.0484 37.6513 53.2781C35.1466 53.7484 32.631 53.1797 30.4654 51.6375C29.5685 51.0031 29.4044 50.9812 28.6169 51.3531ZM45.9966 63.5266C46.3466 63.8 46.3794 64.3469 46.0732 64.7297C45.8763 64.9813 45.7888 64.9922 44.3122 65.025C42.5622 65.0687 42.3325 65.0359 42.0153 64.6969C41.72 64.3688 41.731 63.8984 42.07 63.5703C42.3216 63.3078 42.3763 63.2969 44.0169 63.2969C45.5591 63.2969 45.7341 63.3187 45.9966 63.5266Z" fill="#E2C6AE"/>
<path d="M33.6482 12.0766C30.0716 12.525 27.0638 13.9906 24.756 16.4078C22.9951 18.2672 21.8466 20.4219 21.1466 23.2438C20.6435 25.2453 20.556 26.3828 20.5998 30.5938L20.6326 34.3672L20.9388 34.9906C21.3107 35.7563 22.1201 36.5 22.9185 36.8281L23.4982 37.0797L23.5638 37.9109C23.8591 41.6188 26.2763 45.3703 29.6341 47.2953L30.5419 47.8203L30.4982 48.4766C30.4107 49.6688 29.6013 50.85 28.4857 51.4078C27.7966 51.7578 27.6107 51.7906 26.0685 51.9219C24.6904 52.0312 23.3888 52.3703 22.3826 52.8844C19.7466 54.2078 17.8544 56.6906 17.2529 59.6C17.1107 60.2672 17.0779 61.175 17.0779 63.9313C17.0779 67.3 17.0888 66.4313 17.3076 66.7156C17.4826 66.9344 17.6248 67 17.9529 67C18.794 67 19.0198 66.134 19.0332 65.0657C19.0444 64.1673 19.0466 64.8187 19.0466 63.9203C19.0466 60.9672 19.0685 60.5078 19.2654 59.7531C19.681 58.1125 20.5341 56.7453 21.7919 55.6734C23.1263 54.5469 24.4607 54.0328 26.4185 53.8797C28.3544 53.7375 29.3498 53.3984 30.4763 52.4906L31.0123 52.0641L31.5154 52.3703C33.0904 53.3328 35.5951 53.7922 37.4873 53.4422C38.4607 53.2672 38.8654 52.7531 38.6029 52.0094C38.4169 51.4953 37.9904 51.3422 37.1263 51.4953C35.7263 51.7359 33.7794 51.3859 32.5654 50.675L32.0841 50.3906L32.2919 49.7234C32.4013 49.3625 32.4998 48.9469 32.4998 48.8047C32.4998 48.5531 32.4998 48.5531 33.0794 48.7063C33.3857 48.7938 34.1951 48.9141 34.8732 48.9906C40.856 49.625 46.6419 45.5563 48.1404 39.6719C48.5123 38.2172 48.5998 36.5984 48.556 32.0484L48.5123 27.8047L48.2169 26.9297C47.6701 25.3 46.5107 23.9219 45.0013 23.1234C43.6123 22.3906 43.6123 22.3906 36.0326 22.3906C31.5482 22.3906 29.0326 22.4344 28.6498 22.5109C28.3326 22.5766 27.6654 22.8172 27.1732 23.0578C25.5654 23.8234 24.3513 25.2125 23.7826 26.9297C23.4982 27.7938 23.4873 27.8594 23.4435 31.3375L23.3998 34.8813L23.1263 34.6188C22.5685 34.1156 22.5466 33.9187 22.5466 30.3312C22.5466 26.7 22.6669 25.2781 23.1373 23.4625C24.4607 18.3875 28.1138 15.0297 33.3201 14.1328C34.4576 13.9359 37.0935 13.9031 38.2857 14.0781C39.9154 14.3078 42.2341 14.8875 42.2341 15.0625C42.2341 15.1063 42.1248 15.1719 41.9826 15.2156C41.5232 15.325 41.2498 15.6859 41.2498 16.2C41.2498 16.9766 41.5013 17.1188 43.1748 17.3047C45.4826 17.5781 47.0794 18.125 48.7419 19.2516C49.431 19.7219 50.8091 21.0344 51.1482 21.5484C51.3341 21.8438 51.3341 21.8438 50.8857 22.5328C50.3169 23.4078 49.8357 24.7313 49.6826 25.825C49.6169 26.2953 49.5623 28.1984 49.5623 30.0578C49.5623 33.7766 49.5841 33.9406 50.1966 34.1922C50.5904 34.3563 51.006 34.2578 51.2904 33.9516C51.4982 33.7219 51.5201 33.5359 51.5638 29.8281C51.5966 27.3234 51.6623 25.7703 51.7388 25.4531C51.9466 24.6984 52.4826 23.6703 53.0185 23.0469C53.7951 22.1391 53.7841 21.7891 52.9857 20.6625C51.4654 18.5297 49.1904 16.8344 46.7185 16.0031L45.8982 15.7297L45.931 15.15C45.9748 14.4391 45.8982 14.3516 44.7498 13.8266C43.131 13.0938 40.9107 12.4594 38.9419 12.175C37.8701 12.0109 34.5888 11.9563 33.6482 12.0766ZM43.8966 24.8297C45.3951 25.5625 46.281 26.8312 46.5107 28.5266C46.6966 29.8719 46.5763 37.6484 46.3576 38.5781C45.3623 42.8219 42.2998 45.9281 38.1654 46.8469C36.8638 47.1422 34.7748 47.0875 33.4294 46.7375C30.4654 45.9609 27.8623 43.85 26.5498 41.1594C25.9482 39.9234 25.6419 38.8297 25.4998 37.4188C25.3685 35.9969 25.3685 29.325 25.4998 28.3734C25.7623 26.5906 26.9544 25.1688 28.7263 24.5563C29.2294 24.3813 29.8419 24.3703 36.1748 24.3922L43.0654 24.4141L43.8966 24.8297Z" fill="#333333"/>
<path d="M40.7466 49.625C40.4076 49.7672 40.156 50.1609 40.156 50.5766C40.156 51.0688 41.031 52.1734 41.8732 52.7531C42.8466 53.4203 43.6232 53.6828 45.0232 53.8031C46.7404 53.9563 47.6263 54.1641 48.6326 54.6563C50.6779 55.6516 52.1544 57.4781 52.7341 59.7531C52.931 60.5078 52.9529 60.9672 52.9529 63.9203C52.9529 64.8187 52.9534 64.5193 52.9663 65.0657C53.0112 66.967 53.2055 67 54.0466 67C54.3748 67 54.5169 66.9344 54.6919 66.7156C54.9107 66.4313 54.9216 67.3 54.9216 63.9313C54.9216 61.175 54.8888 60.2672 54.7466 59.6C54.3638 57.7625 53.4669 56.0672 52.1544 54.7328C50.481 53.0375 48.4685 52.1297 45.931 51.9219C44.3998 51.7906 44.2029 51.7578 43.5357 51.4188C42.9998 51.1563 42.5076 50.7188 41.9607 50.0297C41.6107 49.5922 41.1623 49.4391 40.7466 49.625Z" fill="#333333"/>
<path d="M54.0801 66.9343C39.2095 73.7724 31.3976 72.7248 17.8873 66.9343C18.7284 66.9343 17.4864 66.0683 17.4998 65C21.7886 68.2028 28.9699 70.4434 35.9998 70.5C43.2985 70.5587 50.9998 67.5 53.9998 65C54.0446 66.9013 53.2389 66.9343 54.0801 66.9343Z" fill="#333333"/>
<path d="M41.9607 63.4609C41.5451 63.8656 41.5779 64.5 42.0263 64.8719C42.3545 65.1453 42.3982 65.1562 43.9951 65.1562C46.117 65.1562 46.3904 65.0359 46.3904 64.1063C46.3904 63.8438 46.3029 63.6359 46.117 63.4609C45.8545 63.1875 45.8217 63.1875 44.0388 63.1875C42.256 63.1875 42.2232 63.1875 41.9607 63.4609Z" fill="#333333"/>
</svg>
