<svg width="48" height="48" viewBox="0 0 48 48" fill="none" xmlns="http://www.w3.org/2000/svg">
<g clip-path="url(#clip0_1628_9960)">
<path d="M10.7302 10.2918C12.7604 10.2918 14.4061 8.64598 14.4061 6.61579C14.4061 4.58561 12.7604 2.93982 10.7302 2.93982C8.69999 2.93982 7.0542 4.58561 7.0542 6.61579C7.0542 8.64598 8.69999 10.2918 10.7302 10.2918Z" fill="#43B1ED"/>
<path d="M25.4389 9.98749C24.78 9.36339 23.7526 9.34501 23.0707 9.92552C22.2708 10.6065 18.8921 13.4831 18.3991 13.9027L11.9141 12.045L14.6326 12.1097C14.1874 11.6737 13.5792 11.4033 12.9068 11.4003L9.36739 11.3895C8.93332 11.3882 8.50404 11.4793 8.10794 11.657L1.04831 14.8238C0.222552 15.1939 -0.192108 16.1265 0.0863318 16.9877L2.60579 24.783C2.90702 25.715 3.90668 26.2265 4.83894 25.9251C5.77101 25.6239 6.28242 24.6241 5.98111 23.692L3.95084 17.4099L6.97543 16.0538C7.05503 26.7802 7.06018 25.6941 7.0209 25.9401L5.80579 33.5431L2.32126 42.1305C1.87932 43.2197 2.40395 44.4609 3.49324 44.903C4.58253 45.3449 5.82379 44.8201 6.26574 43.731L9.84149 34.9188C9.90205 34.7694 9.94555 34.6136 9.97105 34.4543L11.1198 27.2669L12.9884 34.5378L13.1644 42.975C13.1886 44.1351 14.1366 45.059 15.2915 45.059C15.3065 45.059 15.3217 45.0589 15.3368 45.0586C16.5121 45.0341 17.4449 44.0615 17.4204 42.8863L17.2393 34.2025C17.2358 34.0386 17.2135 33.8758 17.1728 33.7171L15.3278 26.5384L15.3625 17.9691L11.192 15.5449L18.2266 17.6643C18.2271 17.6644 18.2276 17.6645 18.2282 17.6647C18.8084 17.8301 19.4249 17.6842 19.8649 17.3097L25.3704 12.6262C26.1667 11.9485 26.2125 10.7206 25.4389 9.98749Z" fill="#43B1ED"/>
<path d="M44.0177 35.8724L39.8658 32.8636C39.9357 31.4602 39.7825 29.4078 39.6571 28.061C39.6241 27.7067 39.7395 27.3545 39.9752 27.0878C40.211 26.8212 40.5468 26.6629 40.9025 26.6526C41.729 26.6286 42.4421 26.0659 42.6577 25.2679L42.922 24.2897C42.9815 24.0698 42.9432 23.8349 42.8172 23.6452C42.6912 23.4554 42.4895 23.3292 42.2638 23.2987L41.0233 23.131C40.4285 22.3645 39.4561 21.9936 38.5019 22.1689L38.4764 22.1736C38.6986 22.5398 38.9295 23.004 39.0856 23.3847C39.277 23.8511 39.8593 25.2703 38.9853 26.092C38.1357 26.8908 36.7757 26.3321 35.7625 25.7533C35.561 26.6279 35.3864 27.4044 35.3864 27.4044L27.9228 32.103C27.4814 32.3809 27.1177 32.7566 26.8541 33.1949C25.771 33.3704 24.9293 33.2191 23.9552 32.8181C23.0841 32.4373 22.2169 31.8562 21.503 31.1084C21.376 30.9758 21.1685 30.9487 21.0097 31.0533C20.8307 31.1712 20.7811 31.4119 20.899 31.5909C21.4826 32.4777 22.3098 33.3311 23.3059 33.9998C24.1906 34.5706 25.0306 34.9294 26.1548 35.0938C25.9989 35.6602 26.0859 36.4975 26.1823 36.9521C26.4173 38.0592 27.1302 39.7565 27.8104 40.8078L27.7798 43.9804C27.774 44.571 28.2483 45.0546 28.8389 45.0602C28.8426 45.0602 28.846 45.0602 28.8495 45.0602C29.4355 45.0602 29.9133 44.5881 29.919 44.0009L29.9461 41.1938C30.7351 40.1561 31.2881 38.4269 31.4164 37.1728C31.4907 36.4477 31.4158 35.6564 31.0844 34.9041C30.9564 34.6137 31.0881 34.2747 31.3786 34.1467C31.6688 34.0187 32.008 34.1505 32.1359 34.4408C32.4245 35.096 32.5741 35.7717 32.598 36.4246C34.8607 35.7574 37.2829 35.0247 38.6229 34.6051L42.7621 37.6049C43.2403 37.9515 43.9091 37.8447 44.2558 37.3665C44.6028 36.8879 44.4962 36.2191 44.0177 35.8724Z" fill="#43B1ED"/>
<path d="M37.3725 22.3908C37.108 22.1093 36.3713 22.2149 35.8243 22.7291C35.2772 23.2435 35.1267 23.9722 35.3912 24.2534C35.6557 24.5347 37.7303 25.8527 38.2774 25.3384C38.8244 24.824 37.637 22.6721 37.3725 22.3908Z" fill="#43B1ED"/>
<path d="M43.2579 10.284C45.953 9.94587 48.0747 9.16905 47.9969 8.54898C47.9191 7.9289 45.6712 7.70038 42.9761 8.03855C40.281 8.37673 38.1593 9.15355 38.2371 9.77363C38.3149 10.3937 40.5628 10.6222 43.2579 10.284Z" fill="#43B1ED"/>
</g>
<defs>
<clipPath id="clip0_1628_9960">
<rect width="48" height="48" fill="white"/>
</clipPath>
</defs>
</svg>
