<svg width="170" height="170" viewBox="0 0 170 170" fill="none" xmlns="http://www.w3.org/2000/svg">
<path d="M136.468 132.252C130.11 132.252 123.181 129.8 114.982 124.874C111.938 123.045 110.953 119.096 112.781 116.052C114.611 113.008 118.561 112.022 121.605 113.851C135.297 122.076 140.326 119.673 145.477 115.674C148.284 113.497 152.322 114.006 154.501 116.81C156.678 119.616 156.168 123.656 153.363 125.834C147.856 130.108 142.411 132.252 136.468 132.252Z" fill="#495059"/>
<path d="M81.784 167.509C79.7905 167.509 77.7944 166.772 76.238 165.287C67.3873 156.845 65.4989 143.558 71.5377 132.224C73.6258 128.307 78.4948 126.823 82.4117 128.91C86.3286 130.998 87.8124 135.866 85.7255 139.784C83.7139 143.557 82.9292 149.455 87.3338 153.656C90.5452 156.719 90.6658 161.807 87.6023 165.018C86.0225 166.675 83.9046 167.509 81.784 167.509Z" fill="#DDAF89"/>
<path d="M120.872 159.42C119.625 159.42 118.359 159.129 117.174 158.514C113.236 156.468 111.7 151.616 113.747 147.677C116.337 142.687 114.021 135.888 108.687 132.83C104.837 130.621 103.505 125.71 105.714 121.859C107.922 118.009 112.833 116.676 116.684 118.885C129.486 126.226 134.567 142.465 128.012 155.085C126.582 157.841 123.776 159.42 120.872 159.42Z" fill="#DDAF89"/>
<path d="M44.4754 124.919C35.5507 124.919 27.1864 121.454 22.1203 116.188C19.0426 112.989 19.1411 107.901 22.3408 104.823C25.5392 101.746 30.6273 101.844 33.7051 105.043C36.7582 108.217 46.1485 111.252 53.9953 106.005C57.6853 103.536 62.6774 104.527 65.1443 108.217C67.6125 111.907 66.6216 116.898 62.9316 119.366C57.1211 123.252 50.6633 124.919 44.4754 124.919Z" fill="#DDAF89"/>
<path d="M119.539 111.253C116.956 110.73 114.682 108.949 113.646 106.315C112.019 102.184 114.051 97.5176 118.183 95.8925C130.736 90.9522 140.425 85.2169 143.468 80.9226C146.033 77.3014 151.051 76.4441 154.672 79.0121C158.295 81.5789 159.15 86.5956 156.584 90.2168C150.216 99.2024 135.387 106.397 124.069 110.851C122.572 111.44 121.005 111.548 119.539 111.253Z" fill="#DDAF89"/>
<path d="M133.673 99.0483C133.12 95.9174 132.171 92.9317 130.878 90.1289C127.179 92.0835 122.882 94.0445 118.181 95.894C114.051 97.5192 112.019 102.186 113.646 106.317C114.682 108.951 116.956 110.732 119.539 111.254C121.005 111.55 122.572 111.441 124.067 110.852C127.258 109.597 130.727 108.125 134.207 106.454C134.281 104.011 134.111 101.533 133.673 99.0483Z" fill="#D1A582"/>
<path d="M116.684 118.885C112.833 116.676 107.922 118.009 105.714 121.859C103.505 125.71 104.837 130.621 108.687 132.83C111.511 134.449 113.487 137.115 114.339 140.006C118.955 137.201 123.025 133.611 126.336 129.353C126.488 129.158 126.635 128.962 126.783 128.765C124.375 124.79 120.964 121.339 116.684 118.885Z" fill="#D1A582"/>
<path d="M84.1234 146.562C84.0197 144.09 84.7187 141.671 85.7252 139.784C87.8121 135.867 86.3283 130.998 82.4114 128.91C78.4931 126.823 73.6255 128.307 71.5374 132.224C69.9031 135.29 68.8552 138.5 68.3623 141.718C73.121 144.225 78.4542 145.902 84.1234 146.562Z" fill="#D1A582"/>
<path d="M65.1443 108.219C62.6774 104.529 57.6853 103.538 53.9953 106.006C51.7787 107.488 49.4377 108.309 47.1523 108.653C47.1951 110.494 47.3741 112.347 47.7023 114.207C48.33 117.767 49.4623 121.143 51.0278 124.281C55.1003 123.478 59.1535 121.895 62.9316 119.368C66.6216 116.901 67.6125 111.909 65.1443 108.219Z" fill="#D1A582"/>
<path d="M129.54 99.7793C126.142 80.506 106.113 67.9277 84.8016 71.6851C63.4893 75.4412 48.9681 94.1101 52.365 113.383C55.7618 132.655 75.7926 145.234 97.1036 141.478C118.416 137.72 132.937 119.051 129.54 99.7793Z" fill="#DDAF89"/>
<path d="M121.858 78.0293C113.785 87.544 102.472 94.4038 89.2229 96.7397C75.9741 99.0769 62.9963 96.4985 52.156 90.3196C50.6035 93.278 49.4271 96.409 48.6879 99.6515C47.6814 104.068 50.1197 108.553 54.3648 110.132C66.0533 114.483 79.0181 115.874 92.1878 113.553C105.358 111.23 117.063 105.488 126.56 97.4025C130.008 94.4661 130.766 89.4182 128.309 85.6115C126.505 82.8178 124.329 80.2783 121.858 78.0293Z" fill="#7F9AE6"/>
<path d="M71.1389 96.946C64.3893 95.9058 57.9653 93.6296 52.156 90.3184C50.6035 93.2768 49.4271 96.4077 48.6879 99.6502C47.6814 104.066 50.1197 108.551 54.3648 110.131C60.4425 112.393 66.8666 113.847 73.4838 114.404C70.3438 110.157 69.7679 103.052 71.1389 96.946Z" fill="#5E78BF"/>
<path d="M63.3325 39.4484C61.6723 39.7403 59.9097 39.5302 58.2794 38.7351L46.9773 33.2242C42.028 30.8118 36.1578 32.1191 32.7013 36.4057L27.1514 43.2901C24.2864 46.8452 19.0802 47.4029 15.5251 44.5378C11.9701 41.6715 11.4124 36.4667 14.2774 32.9116L19.8273 26.0272C23.8298 21.0636 29.4614 17.5656 35.6857 16.1778C41.91 14.7913 48.4935 15.5656 54.2249 18.3606L65.527 23.8716C69.6307 25.8728 71.3362 30.8234 69.335 34.9271C68.1288 37.4018 65.8499 39.0036 63.3325 39.4484Z" fill="#495059"/>
<path d="M93.9573 34.0465C91.4398 34.4914 88.7512 33.7651 86.7707 31.852C83.4867 28.6796 83.3959 23.4449 86.5683 20.1609L95.3036 11.117C99.7341 6.53084 105.658 3.55164 111.978 2.72546C118.301 1.90057 124.79 3.26112 130.247 6.55678L137.818 11.1274C141.726 13.4879 142.981 18.5695 140.622 22.4787C138.261 26.3878 133.179 27.6433 129.269 25.2828L121.7 20.7122C116.985 17.8666 111.022 18.6447 107.197 22.6045L98.4618 31.6497C97.2024 32.9532 95.6175 33.7547 93.9573 34.0465Z" fill="#495059"/>
<path d="M90.0165 101.237C131.352 93.9495 146.642 71.7294 136.126 46.0918C124.827 18.541 102.382 6.32726 74.1581 11.3025C45.9354 16.2791 29.0213 35.4331 27.8255 65.1874C26.7126 92.8756 48.6799 108.526 90.0165 101.237Z" fill="#DDAF89"/>
<path d="M103.372 114.91C103.372 120.955 98.4718 125.855 92.4265 125.855C86.3825 125.855 81.4824 120.955 81.4824 114.91C81.4824 108.865 86.3825 103.965 92.4265 103.965C98.4718 103.965 103.372 108.865 103.372 114.91Z" fill="#F6E06A"/>
<path d="M61.4871 54.7829C60.6401 49.9802 55.0643 46.9478 49.0333 48.0113C43.001 49.0749 38.7987 53.8296 39.6456 58.6337C40.4913 63.4365 46.0671 66.4675 52.0994 65.404C58.1304 64.3418 62.3327 59.5857 61.4871 54.7829Z" fill="#FFDBDB"/>
<path d="M100.936 47.8199C101.783 52.624 107.359 55.655 113.39 54.5915C119.422 53.5293 123.625 48.7732 122.778 43.9704C121.931 39.1677 116.356 36.1353 110.324 37.1988C104.293 38.2611 100.091 43.0171 100.936 47.8199Z" fill="#FFDBDB"/>
<path d="M85.6719 43.1059C81.7433 42.7842 77.7992 43.4794 74.2169 45.1253C72.7344 45.8062 71.5476 47.002 70.8784 48.491C69.9744 50.5013 71.1092 52.8398 73.2493 53.3716L79.1831 54.8488C80.9496 55.2885 82.8211 54.9578 84.3308 53.9409L89.4021 50.5234C91.2296 49.2912 91.4967 46.7063 89.9598 45.1266C88.821 43.9554 87.2984 43.2382 85.6719 43.1059Z" fill="#495059"/>
<path d="M87.5496 87.4652C105.994 84.2124 116.185 69.5758 109.631 61.3373C103.208 53.2609 93.5754 59.8769 83.014 61.7394C72.4513 63.6019 61.1376 60.6797 57.8639 70.4656C54.5229 80.4485 69.105 90.7168 87.5496 87.4652Z" fill="white"/>
<path d="M67.7471 63.1256L68.8768 86.0383C70.4007 86.6129 72.044 87.0824 73.7859 87.4248L72.5641 62.6535C70.8858 62.756 69.2659 62.887 67.7471 63.1256ZM97.9061 57.8066C96.3964 58.0972 94.8297 58.5265 93.2162 59.0038L100.535 82.6791C102.054 81.7569 103.435 80.7504 104.669 79.6843L97.9061 57.8066ZM83.014 61.7404C82.2306 61.8779 81.4447 61.9894 80.6574 62.0815L85.193 87.81C85.9712 87.7192 86.7559 87.6051 87.5496 87.465C88.368 87.321 89.1696 87.1537 89.9543 86.9656L85.4174 61.2385C84.6223 61.4278 83.8208 61.5978 83.014 61.7404Z" fill="#DFE3E5"/>
<path d="M103.483 35.6475C105.463 35.2999 107.352 36.6241 107.701 38.6008C107.94 39.9548 109.232 40.8588 110.586 40.6202C111.94 40.3815 112.844 39.0897 112.605 37.7357C111.78 33.0548 107.3 29.9174 102.62 30.7436C97.9374 31.5685 94.8013 36.0483 95.6262 40.7291C95.8402 41.9379 96.8907 42.7875 98.0762 42.7875C98.2201 42.7875 98.3654 42.7745 98.512 42.7498C99.866 42.5112 100.77 41.2194 100.531 39.8653C100.184 37.8887 101.508 35.9964 103.483 35.6475ZM151.554 135.467C150.196 135.682 149.269 136.957 149.484 138.316C149.717 139.79 149.393 142.155 148.728 143.818C148.217 145.096 148.838 146.544 150.116 147.055C150.419 147.176 150.732 147.234 151.039 147.234C152.027 147.234 152.963 146.642 153.353 145.668C154.187 143.582 154.835 140.258 154.403 137.535C154.188 136.177 152.915 135.251 151.554 135.467ZM80.7898 90.5479C83.1555 90.5479 85.5718 90.3417 87.9829 89.9176C99.8116 87.8307 109.91 80.753 113.112 72.3044C114.865 67.6768 114.321 63.232 111.581 59.7871C105.828 52.5551 98.0619 54.9182 90.5536 57.2048C88.7469 57.7548 86.8961 58.3151 85.0323 58.7664L84.6652 56.6121C85.0284 56.4344 85.3825 56.2334 85.7223 56.0051L90.7935 52.5875C92.2786 51.5876 93.2358 49.9923 93.42 48.2115C93.6041 46.4294 92.9932 44.672 91.7442 43.3893C90.1865 41.7875 88.101 40.8044 85.874 40.6228C81.5304 40.2687 77.1388 41.043 73.1777 42.8614C71.1466 43.7939 69.5228 45.4307 68.6071 47.4683C67.8717 49.1012 67.9002 50.9624 68.6823 52.5733C69.4644 54.1841 70.9093 55.3553 72.6473 55.7885L78.581 57.2645C78.9701 57.3618 79.3644 57.4292 79.7587 57.472L80.1283 59.6328C78.2127 59.8481 76.2724 59.9557 74.3774 60.0569C66.5397 60.4771 58.4335 60.9116 55.5023 69.6754C54.1054 73.8504 55.1145 78.2135 58.344 81.9618C63.0404 87.4105 71.5461 90.5479 80.7898 90.5479ZM79.7833 52.4306L73.8496 50.9546C73.4371 50.8522 73.2413 50.5603 73.1622 50.3969C73.0818 50.2322 72.9741 49.8989 73.1492 49.5111C73.5707 48.572 74.3191 47.8172 75.2555 47.3866C77.939 46.1557 80.865 45.5189 83.8092 45.5189C84.3617 45.5189 84.9156 45.541 85.4681 45.5864C86.4953 45.6707 87.4564 46.1233 88.1749 46.8613C88.4719 47.1661 88.4836 47.5163 88.4654 47.6979C88.446 47.8794 88.363 48.2206 88.0102 48.4579L82.9389 51.8742C82.0142 52.4967 80.865 52.6991 79.7833 52.4306ZM60.2246 71.2551C61.9963 65.9621 66.6214 65.4602 74.6446 65.0296C77.4993 64.8765 80.4513 64.7183 83.4318 64.1943H83.4331C83.4331 64.1943 83.4331 64.193 83.4344 64.193C83.4383 64.193 83.4422 64.1917 83.4461 64.1917C86.4317 63.6651 89.2644 62.8027 92.0036 61.9687C95.9024 60.7819 98.9841 59.9117 101.53 59.9117C104.003 59.9117 105.97 60.7339 107.683 62.887C109.737 65.4706 109.237 68.4744 108.453 70.5392C106.29 76.2525 98.8531 82.9424 87.1166 85.0124C75.3813 87.0811 66.1052 83.3379 62.1169 78.7103C60.676 77.0371 59.1779 74.3861 60.2246 71.2551ZM158.615 91.6568C161.971 86.9202 160.848 80.3367 156.112 76.9801C153.819 75.3537 151.027 74.7181 148.254 75.1915C145.483 75.6649 143.061 77.1889 141.435 79.4833C139.993 81.5196 136.495 84.1447 131.646 86.8683C131.519 86.4818 131.371 86.1005 131.2 85.7244C134.584 82.3846 136.863 79.0202 138.392 75.958C139.007 74.7272 138.506 73.2318 137.277 72.617C136.047 72.0022 134.55 72.5029 133.936 73.7324C130.989 79.6363 125.866 84.753 118.711 88.9396C111.067 93.413 101.268 96.7255 89.5847 98.7851C73.454 101.629 60.0171 101.007 49.9809 97.0342C49.8201 96.9473 49.6476 96.8772 49.4647 96.8254C45.9304 95.3701 42.828 93.4921 40.1938 91.1899C33.2925 85.1589 29.8762 76.2019 30.3146 65.2877C30.8087 52.9714 34.0357 42.5371 39.9162 34.1962C39.9539 34.1469 39.9876 34.0963 40.0213 34.0457C40.8721 32.8473 41.7787 31.6943 42.7398 30.584C46.2054 26.5828 50.3182 23.2314 55.0483 20.5401C55.1962 20.474 55.3375 20.3936 55.4711 20.2989C61.021 17.2108 67.41 15.0214 74.5915 13.7556C81.7729 12.4897 88.5251 12.3613 94.7974 13.3652C94.9556 13.408 95.1151 13.4352 95.2773 13.4469C100.642 14.3587 105.653 16.1005 110.278 18.6751C111.562 19.391 112.811 20.1666 114.023 21.0019C114.068 21.0369 114.114 21.0693 114.162 21.1004C122.541 26.9278 129.144 35.6306 133.823 47.0364C136.31 53.0998 137.271 58.9363 136.68 64.385C136.531 65.752 137.519 66.9816 138.886 67.1294C140.255 67.2786 141.481 66.2903 141.631 64.9232C142.313 58.6406 141.236 51.987 138.431 45.1467C135.672 38.4192 132.273 32.5503 128.262 27.5698C129.892 28.4907 131.693 28.968 133.526 28.968C134.391 28.968 135.262 28.8616 136.125 28.6489C138.915 27.9602 141.269 26.2262 142.754 23.7658C144.24 21.3054 144.679 18.4144 143.989 15.6245C143.3 12.8347 141.566 10.4807 139.105 8.9956L131.536 4.425C125.596 0.838815 118.535 -0.642351 111.656 0.256465C105.302 1.08654 99.3044 3.92825 94.6275 8.29782C88.088 7.36788 81.1063 7.54946 73.7264 8.85034C66.3464 10.1525 59.724 12.3691 53.8979 15.4793C48.0069 12.9722 41.3987 12.3535 35.1446 13.7465C28.3717 15.2562 22.2447 19.0616 17.8893 24.4635L12.3395 31.348C8.61581 35.9653 9.34472 42.7524 13.962 46.4761C15.9477 48.0753 18.3329 48.8535 20.7051 48.8535C23.7492 48.8535 26.766 47.5682 28.8814 45.0974C26.8166 51.1492 25.6298 57.8235 25.338 65.088C24.8361 77.5611 28.8399 87.8839 36.9163 94.9408C39.5635 97.2547 42.6049 99.1898 46.0108 100.749C45.8643 102.633 46.1898 104.489 46.9109 106.171C41.7113 107.013 37.0239 104.903 35.5 103.318C33.5506 101.292 30.9293 100.146 28.1175 100.091C25.3056 100.038 22.6415 101.081 20.6143 103.03C18.5884 104.98 17.4419 107.602 17.3874 110.413C17.3329 113.225 18.3757 115.889 20.3251 117.916C26.0449 123.86 35.072 127.41 44.4752 127.41C47.9031 127.41 51.2702 126.927 54.5152 125.986C57.4348 130.766 61.5216 134.897 66.5825 138.098C64.6915 145.256 65.3854 152.639 68.6045 159.091C69.0416 159.964 69.921 160.47 70.8354 160.47C71.2089 160.47 71.5889 160.386 71.9456 160.208C73.1764 159.593 73.6758 158.098 73.061 156.867C70.5669 151.868 69.9041 146.176 71.1077 140.576C74.4877 142.163 78.0752 143.297 81.782 143.954C81.1556 148.33 82.5018 152.488 85.6146 155.457C86.686 156.481 87.2955 157.859 87.3306 159.34C87.3656 160.823 86.8221 162.228 85.8001 163.3C84.743 164.409 83.3164 165.019 81.7846 165.019C80.734 165.019 79.712 164.724 78.8313 164.169C77.6679 163.435 76.1297 163.783 75.3956 164.945C74.6615 166.108 75.0091 167.645 76.1725 168.38C77.8508 169.44 79.7911 169.999 81.7846 169.999C84.6912 169.999 87.3967 168.841 89.4032 166.738C91.3448 164.703 92.3772 162.034 92.311 159.224C92.2436 156.412 91.0867 153.794 89.0517 151.854C86.5991 149.513 86.3799 146.691 86.7223 144.543C87.6535 144.601 88.5912 144.634 89.5316 144.634C92.1839 144.634 94.8661 144.4 97.5444 143.928C102.463 143.061 107.111 141.432 111.33 139.141C112.544 141.585 112.662 144.363 111.536 146.529C110.241 149.025 109.994 151.876 110.843 154.557C111.691 157.238 113.532 159.429 116.028 160.724C117.522 161.501 119.198 161.911 120.873 161.911C124.823 161.911 128.405 159.736 130.224 156.234C133.719 149.504 134.23 141.627 132.01 134.39C133.524 134.626 135.004 134.744 136.47 134.744C137.044 134.744 137.616 134.718 138.186 134.682C138.029 136.03 137.763 137.446 137.3 138.668C136.812 139.954 137.459 141.391 138.746 141.879C139.037 141.989 139.335 142.041 139.628 142.041C140.633 142.041 141.58 141.429 141.957 140.433C142.771 138.288 143.112 135.873 143.269 133.842C147.205 132.782 151.049 130.782 154.891 127.801C158.777 124.786 159.485 119.17 156.468 115.284C154.276 112.461 150.711 111.318 147.433 112.061C147.107 110.906 146.745 109.8 146.384 108.861C145.893 107.577 144.453 106.934 143.169 107.426C141.885 107.919 141.242 109.358 141.734 110.642C142.177 111.797 142.592 113.153 142.928 114.477C139.884 116.671 136.846 117.855 130.982 115.734C131.546 113.892 131.958 112.018 132.214 110.125C145.186 104.287 154.065 98.0783 158.615 91.6568ZM112.3 5.19412C118.067 4.44186 123.982 5.68308 128.96 8.68822L136.53 13.2588C137.851 14.0565 138.782 15.321 139.152 16.8204C139.523 18.3184 139.287 19.8709 138.489 21.1925C137.692 22.5129 136.427 23.4454 134.929 23.815C133.432 24.1847 131.879 23.9499 130.557 23.151L122.986 18.5804C120.951 17.3508 118.661 16.6556 116.313 16.5402C115.139 15.7529 113.936 15.0124 112.7 14.3237C108.994 12.2601 105.073 10.6817 100.954 9.58314C104.32 7.25504 108.221 5.72848 112.3 5.19412ZM25.2135 41.7265C23.2135 44.2064 19.5677 44.5981 17.0878 42.5981C14.6079 40.5981 14.2175 36.9536 16.2162 34.4737L21.7674 27.5893C25.4158 23.0628 30.5519 19.8735 36.2276 18.6076C40.2431 17.714 44.4311 17.8139 48.3908 18.8527C44.8954 21.2924 41.7515 24.1172 38.9746 27.3234C38.0473 28.3934 37.1705 29.5024 36.3365 30.6424C34.1718 31.5542 32.2562 32.9913 30.7633 34.8421L25.2135 41.7265ZM127.135 89.2782C127.561 91.5336 126.784 93.9396 124.945 95.505C118.658 100.858 111.571 104.996 103.853 107.833C102.905 106.304 101.651 104.967 100.133 103.904C99.1981 103.249 98.1994 102.724 97.1579 102.331C111.037 99.134 120.579 94.3766 127.135 89.2782ZM90.9596 106.584C91.455 106.496 91.9518 106.453 92.4446 106.453C94.1644 106.453 95.8402 106.978 97.2772 107.985C99.1267 109.28 100.361 111.218 100.754 113.442C101.564 118.034 98.4873 122.428 93.896 123.237C89.3046 124.047 84.9104 120.97 84.101 116.379C83.2917 111.787 86.3682 107.393 90.9596 106.584ZM44.4752 122.429C36.5194 122.429 28.6414 119.376 23.9152 114.463C22.888 113.394 22.338 111.991 22.3666 110.51C22.3951 109.027 22.9982 107.646 24.0669 106.619C25.1344 105.592 26.5442 105.05 28.0202 105.07C29.5014 105.099 30.8827 105.703 31.9099 106.772C33.6803 108.611 36.7308 110.139 40.0706 110.86C42.3974 111.362 45.78 111.675 49.5179 110.701C49.6074 111.746 49.7358 112.789 49.9174 113.815C50.3856 116.471 51.1521 119.03 52.1884 121.464C49.6852 122.104 47.1016 122.429 44.4752 122.429ZM51.0445 102.692C56.89 104.568 63.5981 105.517 71.0753 105.515C75.07 105.515 79.2892 105.239 83.708 104.697C81.4642 106.619 79.891 109.248 79.2788 112.167C71.0532 112.14 62.973 110.677 55.2338 107.798C52.9692 106.955 51.4167 104.959 51.0445 102.692ZM111.018 133.56C110.897 133.621 110.782 133.694 110.67 133.775C106.479 136.336 101.741 138.131 96.6793 139.023C92.8402 139.7 88.9998 139.825 85.2696 139.423C85.1399 139.399 85.0115 139.382 84.8844 139.38C79.8845 138.791 75.0895 137.247 70.7679 134.801C70.7614 134.797 70.7536 134.794 70.7472 134.79C70.2751 134.522 69.8081 134.245 69.3477 133.956C64.4048 130.852 60.5294 126.742 57.9588 121.971C57.9147 121.874 57.8654 121.781 57.8109 121.693C56.379 118.968 55.3674 116.034 54.8226 112.95C54.8226 112.946 54.8226 112.943 54.8213 112.94C62.685 115.702 70.8626 117.114 79.1828 117.148C79.188 117.18 79.1906 117.211 79.1971 117.243C80.3449 123.752 86.0271 128.346 92.4213 128.346C93.193 128.346 93.9751 128.279 94.7611 128.141C102.057 126.855 106.945 119.872 105.658 112.576C105.653 112.545 105.645 112.514 105.64 112.481C113.446 109.603 120.648 105.48 127.093 100.196C127.093 100.199 127.094 100.203 127.094 100.205C127.557 102.834 127.665 105.476 127.43 108.088C127.418 108.17 127.412 108.252 127.408 108.335C127.15 110.972 126.541 113.575 125.596 116.097C125.589 116.112 125.58 116.125 125.575 116.14C125.534 116.231 125.501 116.324 125.473 116.418C124.321 119.39 122.701 122.249 120.63 124.912C117.966 128.337 114.71 131.249 111.018 133.56ZM125.802 153.938C124.844 155.784 122.955 156.929 120.872 156.929C119.98 156.929 119.123 156.719 118.322 156.304C117.007 155.621 116.037 154.466 115.59 153.054C115.143 151.641 115.273 150.14 115.957 148.824C117.909 145.063 117.713 140.46 115.577 136.508C118.674 134.332 121.465 131.76 123.868 128.835C124.536 129.81 125.134 130.822 125.657 131.862C125.691 131.945 125.731 132.026 125.774 132.105C129.169 139.049 129.301 147.199 125.802 153.938ZM143.778 119.848C144.021 120.955 144.998 121.789 146.177 121.803C146.188 121.804 146.199 121.804 146.209 121.804C147.57 121.804 148.681 120.709 148.698 119.345C148.707 118.654 148.634 117.825 148.503 116.926C149.961 116.58 151.557 117.079 152.533 118.339C153.865 120.055 153.553 122.534 151.837 123.866C147.983 126.857 144.296 128.657 140.48 129.386C140.475 129.388 140.471 129.389 140.466 129.389C139.152 129.639 137.824 129.764 136.469 129.764C134.3 129.764 132.068 129.45 129.676 128.808C128.885 127.341 127.967 125.929 126.928 124.584C127.783 123.215 128.541 121.811 129.204 120.379C135.924 122.807 140.284 121.837 143.778 119.848ZM131.091 95.5011C131.576 94.4856 131.91 93.4078 132.085 92.3053C136.993 89.7062 142.884 86.0525 145.498 82.3626C146.356 81.1538 147.632 80.351 149.092 80.1006C150.554 79.8516 152.023 80.1862 153.232 81.0436C155.728 82.8127 156.32 86.2821 154.551 88.7775C150.842 94.0122 143.261 99.4116 132.518 104.498C132.471 102.781 132.301 101.06 131.998 99.3415C131.771 98.0536 131.465 96.7657 131.091 95.5011ZM54.9277 44.2103C56.903 43.8614 58.7953 45.1856 59.1442 47.1622C59.3829 48.5163 60.6734 49.4229 62.0287 49.1829C63.3828 48.9443 64.2868 47.6525 64.0482 46.2971C63.2233 41.6163 58.7435 38.4788 54.0626 39.305C49.3817 40.1299 46.2443 44.6097 47.0692 49.2919C47.2832 50.4994 48.3338 51.3502 49.5192 51.3502C49.6632 51.3502 49.8084 51.3372 49.955 51.3113C51.3091 51.0726 52.2131 49.7808 51.9744 48.4268C51.6268 46.4502 52.9511 44.5578 54.9277 44.2103Z" fill="black"/>
</svg>
