<svg width="170" height="170" viewBox="0 0 170 170" fill="none" xmlns="http://www.w3.org/2000/svg">
<path d="M51.7931 154.267C51.4325 154.267 51.0667 154.26 50.6958 154.248C48.0551 154.155 45.989 151.94 46.0811 149.299C46.1745 146.658 48.3846 144.595 51.0304 144.686C55.876 144.853 59.9603 144.115 64.6398 133.19C65.68 130.761 68.4919 129.637 70.9212 130.677C73.3504 131.717 74.4762 134.529 73.4361 136.958C68.2027 149.176 61.8798 154.267 51.7931 154.267Z" fill="#495059"/>
<path d="M71.2441 167.51C68.152 167.51 65.5321 165.129 65.2883 161.994C64.6618 153.951 64.9134 147.947 66.1559 141.272C66.7603 138.024 69.8822 135.881 73.1299 136.487C76.3763 137.092 78.5189 140.213 77.9145 143.46C76.8627 149.111 76.6668 154.046 77.2128 161.065C77.4697 164.358 75.008 167.236 71.7149 167.492C71.5566 167.504 71.3997 167.51 71.2441 167.51Z" fill="#DDAF89"/>
<path d="M98.4964 167.51C98.3408 167.51 98.1839 167.503 98.0256 167.491C94.7326 167.235 92.2709 164.358 92.5277 161.065C93.0737 154.046 92.8766 149.11 91.8247 143.459C91.2203 140.212 93.3629 137.09 96.6106 136.485C99.8557 135.882 102.98 138.024 103.585 141.271C104.827 147.947 105.077 153.951 104.452 161.992C104.208 165.128 101.588 167.51 98.4964 167.51Z" fill="#DDAF89"/>
<path d="M42.7294 141.312C41.8073 141.312 40.8721 141.098 39.9954 140.646C37.059 139.134 35.9046 135.527 37.4169 132.591C41.9733 123.745 50.2585 117.818 59.58 116.732C62.8601 116.35 65.829 118.701 66.2116 121.982C66.5929 125.263 64.2427 128.231 60.9613 128.614C53.025 129.537 49.073 136.083 48.051 138.068C46.9901 140.127 44.8967 141.312 42.7294 141.312Z" fill="#DDAF89"/>
<path d="M109.63 129.705C106.342 130.029 103.415 127.628 103.091 124.342C102.767 121.054 105.169 118.127 108.455 117.802C113.351 117.32 117.201 114.979 118.036 111.981C118.922 108.799 122.219 106.937 125.402 107.823C128.583 108.709 130.445 112.006 129.559 115.189C127.377 123.028 119.555 128.726 109.63 129.705Z" fill="#C49B7A"/>
<path d="M103.585 141.271C102.98 138.024 99.8557 135.882 96.6106 136.485C93.3629 137.09 91.2203 140.212 91.8247 143.459C92.3785 146.435 92.6937 149.216 92.7897 152.204C97.0503 151.252 100.994 149.551 104.446 147.262C104.247 145.277 103.962 143.305 103.585 141.271Z" fill="#D1A582"/>
<path d="M59.5806 116.732C56.8115 117.055 54.1345 117.807 51.6196 118.935C51.4795 120.072 51.4043 121.226 51.4043 122.396C51.4043 125.728 51.9892 128.936 53.0658 131.942C55.0618 130.349 57.6675 128.997 60.9619 128.614C64.2433 128.231 66.5934 125.263 66.2121 121.982C65.8295 118.701 62.8607 116.35 59.5806 116.732Z" fill="#D1A582"/>
<path d="M73.1301 136.486C69.8824 135.881 66.7605 138.024 66.1561 141.272C65.7774 143.305 65.4921 145.277 65.2949 147.263C68.7462 149.552 72.6904 151.252 76.951 152.204C77.047 149.216 77.3609 146.436 77.9147 143.46C78.5191 140.212 76.3765 137.09 73.1301 136.486Z" fill="#D1A582"/>
<path d="M114.025 122.397C114.025 107.835 100.972 96.0312 84.8707 96.0312C68.7685 96.0312 55.7168 107.835 55.7168 122.397C55.7168 136.958 68.7685 148.762 84.8707 148.762C100.972 148.762 114.025 136.958 114.025 122.397Z" fill="#DDAF89"/>
<path d="M111.202 105.468C104.056 111.396 94.8802 114.962 84.87 114.962C74.8598 114.962 65.6835 111.396 58.5384 105.468C57.0196 107.435 55.7524 109.577 54.7927 111.858C53.484 114.964 54.6902 118.565 57.5981 120.272C65.6005 124.969 74.9195 127.665 84.87 127.665C94.8206 127.665 104.14 124.969 112.142 120.272C115.05 118.565 116.256 114.964 114.947 111.858C113.988 109.577 112.72 107.435 111.202 105.468Z" fill="#7F9AE6"/>
<path d="M71.5914 112.778C66.7808 111.142 62.3671 108.645 58.5384 105.468C57.0196 107.435 55.7524 109.577 54.7927 111.858C53.484 114.964 54.6902 118.565 57.5981 120.272C61.7588 122.714 66.2776 124.609 71.0557 125.872C69.3022 122.355 69.7989 117.075 71.5914 112.778Z" fill="#5E78BF"/>
<path d="M72.6543 65.17C71.33 65.17 69.9941 64.7666 68.8411 63.9288L60.8477 58.1234C57.3471 55.58 52.6273 55.7914 49.368 58.637L44.1346 63.2063C41.4317 65.5656 37.328 65.288 34.9674 62.5851C32.6082 59.8821 32.887 55.7784 35.5887 53.4192L40.8221 48.8486C44.5963 45.5542 49.4315 43.6165 54.4366 43.3921C59.4418 43.1677 64.43 44.6658 68.4844 47.61L76.4765 53.4166C79.3805 55.5255 80.0238 59.5877 77.9149 62.4904C76.6438 64.24 74.662 65.17 72.6543 65.17Z" fill="#495059"/>
<path d="M97.0868 65.1705C95.0778 65.1705 93.0972 64.2419 91.8262 62.4922C89.7173 59.5882 90.3606 55.526 93.2633 53.4171L101.257 47.6118C105.311 44.6676 110.301 43.1708 115.304 43.3926C120.31 43.617 125.143 45.5547 128.918 48.8504L134.151 53.4197C136.854 55.779 137.132 59.884 134.772 62.5856C132.413 65.2885 128.309 65.5674 125.606 63.2069L120.373 58.6375C117.114 55.7919 112.393 55.5805 108.892 58.1239L100.9 63.9293C99.747 64.7671 98.411 65.1705 97.0868 65.1705Z" fill="#495059"/>
<path d="M84.8706 116.622C117.849 116.622 132.712 101.514 128.072 80.2421C123.088 57.3826 107.388 44.8691 84.8706 44.8691C62.3534 44.8691 46.6532 57.3826 41.6676 80.2421C37.0295 101.514 51.8918 116.622 84.8706 116.622Z" fill="#DDAF89"/>
<path d="M93.0143 128.692C93.0143 133.188 89.3684 136.834 84.8704 136.834C80.3724 136.834 76.7266 133.188 76.7266 128.692C76.7266 124.194 80.3724 120.548 84.8704 120.548C89.3684 120.548 93.0143 124.194 93.0143 128.692Z" fill="#F6E06A"/>
<path d="M72.0595 74.7444C72.0595 70.8885 68.1348 67.7627 63.2931 67.7627C58.4514 67.7627 54.5254 70.8885 54.5254 74.7444C54.5254 78.6004 58.4514 81.7262 63.2931 81.7262C68.1348 81.7262 72.0595 78.6004 72.0595 74.7444Z" fill="#FFDBDB"/>
<path d="M121.259 74.7444C121.259 70.8885 117.334 67.7627 112.492 67.7627C107.649 67.7627 103.725 70.8885 103.725 74.7444C103.725 78.6004 107.649 81.7262 112.492 81.7262C117.334 81.7262 121.259 78.6004 121.259 74.7444Z" fill="#FFDBDB"/>
<path d="M92.4898 68.9733C89.4756 68.1847 86.3083 68.1847 83.2941 68.9733C82.0464 69.3001 80.9582 70.0679 80.2332 71.1354C79.2526 72.5763 79.8155 74.5529 81.4082 75.2611L85.8258 77.2261C87.141 77.811 88.6429 77.811 89.958 77.2261L94.3756 75.2611C95.9683 74.5529 96.5312 72.5763 95.5507 71.1354C94.8257 70.0692 93.7375 69.3014 92.4898 68.9733Z" fill="#495059"/>
<path d="M94.9773 29.5158L88.0384 35.9281C86.2498 37.5818 83.4898 37.5818 81.7013 35.9281L74.7636 29.5158H59.9156C54.0843 29.5158 49.3555 24.7869 49.3555 18.9556V13.0504C49.3555 7.21779 54.0843 2.49023 59.9156 2.49023H109.823C115.655 2.49023 120.383 7.21779 120.383 13.0504V18.9556C120.383 24.7869 115.655 29.5158 109.823 29.5158H94.9773Z" fill="#DFE3E5"/>
<path d="M124.383 119.538C123.667 119.609 122.928 119.551 122.194 119.346C119.011 118.462 117.15 115.163 118.036 111.982C118.764 109.363 117.366 105.804 114.097 101.964C111.957 99.4475 112.26 95.6733 114.776 93.5332C117.292 91.3932 121.065 91.6967 123.205 94.2116C130.798 103.135 130.851 110.545 129.558 115.189C128.877 117.637 126.768 119.303 124.383 119.538Z" fill="#C49B7A"/>
<path d="M64.2036 24.0087C68.6186 24.0087 72.21 20.4173 72.21 16.0023C72.21 11.5887 68.6186 7.99728 64.2036 7.99728C59.79 7.99728 56.1986 11.5887 56.1986 16.0023C56.1986 20.4173 59.79 24.0087 64.2036 24.0087ZM64.2036 12.9778C65.8729 12.9778 67.2295 14.3344 67.2295 16.0023C67.2295 17.6703 65.8729 19.0282 64.2036 19.0282C62.5357 19.0282 61.179 17.6703 61.179 16.0023C61.179 14.3344 62.5357 12.9778 64.2036 12.9778ZM84.87 24.0087C89.2837 24.0087 92.8751 20.4173 92.8751 16.0023C92.8751 11.5887 89.2837 7.99728 84.87 7.99728C80.455 7.99728 76.8636 11.5887 76.8636 16.0023C76.8636 20.4173 80.455 24.0087 84.87 24.0087ZM84.87 12.9778C86.5379 12.9778 87.8946 14.3344 87.8946 16.0023C87.8946 17.6703 86.5379 19.0282 84.87 19.0282C83.202 19.0282 81.8441 17.6703 81.8441 16.0023C81.8441 14.3344 83.202 12.9778 84.87 12.9778ZM105.535 24.0087C109.95 24.0087 113.54 20.4173 113.54 16.0023C113.54 11.5887 109.95 7.99728 105.535 7.99728C101.121 7.99728 97.53 11.5887 97.53 16.0023C97.53 20.4173 101.121 24.0087 105.535 24.0087ZM105.535 12.9778C107.203 12.9778 108.56 14.3344 108.56 16.0023C108.56 17.6703 107.203 19.0282 105.535 19.0282C103.867 19.0282 102.51 17.6703 102.51 16.0023C102.51 14.3344 103.867 12.9778 105.535 12.9778ZM59.9158 32.006H73.7884L80.0114 37.7569C81.3733 39.0163 83.1216 39.6453 84.87 39.6453C86.6183 39.6453 88.3667 39.0163 89.7285 37.7569L95.9515 32.006H109.823C117.02 32.006 122.873 26.1514 122.873 18.9556V13.0504C122.873 5.85464 117.019 0 109.823 0H59.9158C52.72 0 46.8654 5.85464 46.8654 13.0504V18.9556C46.8654 26.1514 52.72 32.006 59.9158 32.006ZM51.8458 13.0504C51.8458 8.60039 55.4671 4.98047 59.9158 4.98047H109.823C114.273 4.98047 117.893 8.60039 117.893 13.0504V18.9556C117.893 23.4043 114.273 27.0255 109.823 27.0255H94.9775C94.3497 27.0255 93.7466 27.2616 93.2862 27.687L86.3473 34.0993C85.5198 34.8659 84.2202 34.8659 83.3914 34.0993L76.4538 27.687C75.9933 27.2616 75.3889 27.0255 74.7625 27.0255H59.9158C55.4671 27.0255 51.8458 23.4043 51.8458 18.9556V13.0504ZM109.872 67.7798V64.6838C109.872 63.309 108.758 62.1936 107.382 62.1936C106.007 62.1936 104.892 63.309 104.892 64.6838V67.7798C104.892 69.1546 106.007 70.27 107.382 70.27C108.758 70.27 109.872 69.1546 109.872 67.7798ZM76.3422 88.4604C75.3461 89.4085 75.3085 90.9843 76.2566 91.9804C76.7469 92.494 77.4032 92.7534 78.0608 92.7534C78.6768 92.7534 79.2955 92.5252 79.778 92.066C82.1787 89.7794 86.2111 88.2814 89.5975 88.4202C90.9918 88.4772 92.9179 88.843 94.1746 90.2567C95.089 91.284 96.6636 91.376 97.6908 90.4617C98.718 89.5473 98.8101 87.974 97.8957 86.9455C96.0916 84.9183 93.5028 83.7263 90.3822 83.4786V79.7303C90.5807 79.6616 90.7765 79.5863 90.9698 79.5007L95.3873 77.5371C96.8218 76.899 97.8918 75.6668 98.3224 74.1558C98.753 72.6448 98.4936 71.0339 97.6104 69.7356C96.5456 68.1702 94.9502 67.0444 93.1202 66.5645C89.7 65.6696 86.084 65.6696 82.6638 66.5645C80.8324 67.0444 79.2384 68.1702 78.1736 69.7356C77.2903 71.0339 77.0309 72.6448 77.4615 74.1558C77.8908 75.6668 78.9609 76.899 80.3966 77.5371L84.8129 79.5007C85.0062 79.5876 85.2033 79.6629 85.4018 79.7316V83.8366C82.0088 84.5564 78.7183 86.1958 76.3422 88.4604ZM82.42 72.9859C82.3344 72.947 82.2773 72.8822 82.2514 72.7914C82.2254 72.6993 82.2384 72.6137 82.2916 72.5359C82.6794 71.9665 83.2591 71.5566 83.9245 71.3828C85.2228 71.043 86.5574 70.8731 87.892 70.8731C89.2266 70.8731 90.5612 71.043 91.8595 71.3828C92.5249 71.5566 93.1046 71.9665 93.4924 72.5359C93.5456 72.615 93.5599 72.7006 93.5339 72.7914C93.508 72.8822 93.4509 72.9483 93.364 72.9859L88.9477 74.9496C88.2772 75.2479 87.5081 75.2479 86.8375 74.9496L82.42 72.9859ZM135.789 51.5427L130.555 46.9733C126.358 43.3093 120.981 41.1537 115.414 40.9047C110.36 40.6777 105.309 42.0422 101.045 44.7529C96.124 43.1757 90.7207 42.3794 84.87 42.3794C79.0179 42.3794 73.6159 43.1757 68.6938 44.7529C64.4306 42.0422 59.3801 40.679 54.3244 40.9047C48.759 41.1537 43.3816 43.3093 39.1846 46.9733L33.9512 51.5427C30.2184 54.802 29.8332 60.4906 33.0913 64.2234C34.8656 66.2558 37.3597 67.2947 39.8668 67.2947C41.2221 67.2947 42.5801 66.9847 43.8317 66.3686C41.8421 70.3699 40.3013 74.8186 39.2338 79.7121C38.0134 85.3126 38.0523 90.5602 39.3519 95.3085C39.715 96.6354 41.0847 97.4162 42.4102 97.053C43.737 96.6898 44.5178 95.3202 44.156 93.9947C43.0704 90.0285 43.0522 85.5811 44.1002 80.7731C46.1352 71.4412 50.008 63.929 55.4943 58.4077C55.6162 58.3065 55.7278 58.1963 55.8289 58.0756C59.5461 54.4324 63.9883 51.6879 69.0868 49.8877C69.1465 49.8682 69.2049 49.8488 69.2632 49.8254C73.935 48.2016 79.1502 47.3598 84.87 47.3598C90.5884 47.3598 95.8011 48.2003 100.473 49.8241C100.535 49.8501 100.597 49.8708 100.662 49.8903C105.756 51.6905 110.195 54.4337 113.91 58.0743C114.011 58.1963 114.124 58.3078 114.246 58.4077C119.732 63.9303 123.604 71.4425 125.638 80.7731C126.636 85.3502 126.664 89.5654 125.74 93.3669C125.531 93.1114 125.321 92.8546 125.102 92.5978C122.074 89.0401 116.719 88.6082 113.161 91.6354C111.438 93.1023 110.388 95.1516 110.208 97.4071C110.025 99.6626 110.733 101.853 112.2 103.577C113.371 104.954 114.276 106.29 114.876 107.503C107.711 111.845 97.3964 114.132 84.8687 114.132C73.2385 114.132 63.6952 112.221 56.6824 108.546C56.598 108.493 56.5111 108.442 56.4191 108.398C56.3983 108.387 56.3776 108.381 56.3568 108.372C53.4009 106.782 50.9029 104.874 48.9043 102.655C47.9847 101.633 46.4088 101.55 45.3881 102.471C44.3648 103.39 44.2831 104.965 45.2026 105.987C47.1585 108.159 49.497 110.071 52.1947 111.717C51.7421 113.164 51.6695 114.67 51.9327 116.106C44.8641 118.881 38.8538 124.361 35.2028 131.451C33.064 135.602 34.7021 140.72 38.8538 142.859C40.0497 143.475 41.3895 143.801 42.728 143.801C45.916 143.801 48.8031 142.041 50.2635 139.208C50.7745 138.214 52.4684 135.286 55.5345 133.217C56.4022 135.167 57.4982 137.011 58.79 138.722C56.2621 142.086 54.0482 142.297 51.113 142.195C47.1027 142.05 43.7305 145.205 43.5905 149.212C43.4504 153.221 46.5982 156.596 50.6085 156.736C51.008 156.75 51.401 156.756 51.7914 156.756C55.8367 156.756 59.3671 155.979 62.4708 154.404C62.476 156.839 62.5863 159.4 62.8029 162.186C63.1466 166.568 66.8534 170 71.2437 170C71.4642 170 71.6873 169.991 71.9078 169.974C76.564 169.611 80.0568 165.528 79.695 160.872C79.3915 156.963 79.3266 153.813 79.5043 150.836C81.2488 151.108 83.0412 151.252 84.87 151.252C86.6988 151.252 88.4912 151.108 90.2357 150.836C90.4121 153.813 90.3485 156.963 90.0437 160.872C89.8686 163.127 90.582 165.317 92.0528 167.035C93.5236 168.755 95.5767 169.799 97.8322 169.974C98.0514 169.991 98.2745 170 98.4962 170C100.361 170 102.202 169.37 103.678 168.224C104.765 167.381 104.963 165.817 104.12 164.732C103.278 163.643 101.714 163.446 100.627 164.288C99.9372 164.822 99.1058 165.077 98.2187 165.008C97.29 164.935 96.4444 164.506 95.8374 163.798C95.2317 163.09 94.9373 162.187 95.0099 161.258C95.3562 156.808 95.4029 153.146 95.15 149.688C97.5339 148.939 99.7919 147.938 101.881 146.719C102.243 149.941 102.361 153.146 102.252 156.715C102.211 158.09 103.291 159.238 104.666 159.279C104.692 159.28 104.718 159.28 104.743 159.28C106.082 159.28 107.19 158.214 107.23 156.865C107.377 152.061 107.139 147.863 106.474 143.46C110.353 140.15 113.32 135.962 114.989 131.248C123.475 128.951 129.908 123.167 131.948 115.889C131.951 115.878 131.955 115.867 131.957 115.856C133.108 111.723 133.339 105.682 129.282 98.5108C131.605 92.9649 132.018 86.6498 130.505 79.7121C129.439 74.8186 127.897 70.3699 125.908 66.3699C127.159 66.986 128.517 67.2947 129.873 67.2947C132.379 67.2947 134.874 66.2545 136.649 64.2234C139.907 60.4906 139.522 54.802 135.789 51.5427ZM55.1234 52.0524C54.2881 52.7307 53.4891 53.448 52.7122 54.1885C50.8718 54.6295 49.1624 55.5102 47.7292 56.7618L42.4958 61.3311C40.8317 62.7837 38.2961 62.6112 36.8435 60.9485C35.3908 59.2844 35.5621 56.7475 37.2261 55.2949L42.4595 50.7256C45.8109 47.8008 50.104 46.0797 54.5475 45.88C57.3023 45.7568 60.0584 46.225 62.6135 47.2237C59.9404 48.5596 57.4398 50.1691 55.1234 52.0524ZM45.8369 136.928C45.2351 138.095 44.0444 138.821 42.7293 138.821C42.1728 138.821 41.6372 138.69 41.1352 138.432C40.3065 138.006 39.6943 137.282 39.4102 136.394C39.1262 135.505 39.204 134.561 39.6307 133.731C42.6462 127.879 47.5294 123.328 53.27 120.935C53.2427 121.422 53.2259 121.91 53.2259 122.396C53.2259 124.443 53.4619 126.44 53.9081 128.366C49.2778 131.01 46.7655 135.125 45.8369 136.928ZM84.87 123.038C87.9867 123.038 90.5236 125.574 90.5236 128.692C90.5236 131.809 87.9867 134.344 84.87 134.344C81.752 134.344 79.2164 131.809 79.2164 128.692C79.2164 125.574 81.752 123.038 84.87 123.038ZM57.8302 117.272C57.8211 117.262 57.812 117.251 57.803 117.241C57.0546 116.376 56.6824 115.241 56.777 114.102C63.2218 116.959 71.1906 118.622 80.4628 119.018C78.1451 120.077 76.2735 121.945 75.2074 124.259C69.4305 123.164 63.939 121.107 58.8574 118.124C58.4618 117.892 58.1207 117.601 57.8302 117.272ZM62.6978 148.387C59.7342 150.693 56.2414 151.777 51.7927 151.777C51.4606 151.777 51.1234 151.771 50.7836 151.759C49.519 151.715 48.5268 150.65 48.5696 149.386C48.6137 148.122 49.6786 147.129 50.9431 147.173C54.5773 147.297 58.4061 146.987 62.1661 142.475C62.5227 142.811 62.8885 143.139 63.2633 143.458C63.0156 145.102 62.8288 146.733 62.6978 148.387ZM71.52 165.009C69.5953 165.157 67.9182 163.697 67.7704 161.8C67.4189 157.283 67.3502 153.485 67.5797 149.847C67.5836 149.808 67.5862 149.769 67.5875 149.731C67.6536 148.718 67.7431 147.718 67.856 146.718C69.9467 147.938 72.2048 148.939 74.59 149.689C74.3371 153.147 74.3838 156.808 74.7301 161.258C74.8792 163.176 73.4396 164.86 71.52 165.009ZM84.87 146.271C70.5732 146.271 58.873 136.144 58.2362 123.482C63.2646 126.18 68.6329 128.078 74.2476 129.146C74.4862 134.799 79.158 139.326 84.87 139.326C90.582 139.326 95.2537 134.799 95.4924 129.146C101.107 128.078 106.475 126.18 111.504 123.482C110.867 136.144 99.1655 146.271 84.87 146.271ZM111.936 117.242C111.928 117.251 111.921 117.259 111.914 117.268C111.622 117.599 111.279 117.891 110.881 118.124C105.801 121.107 100.309 123.164 94.5326 124.259C93.4678 121.946 91.5988 120.081 89.2837 119.02C98.5909 118.631 106.514 116.988 112.963 114.114C113.055 115.247 112.683 116.38 111.936 117.242ZM127.165 114.499C127.164 114.507 127.161 114.516 127.159 114.524C125.808 119.368 121.794 123.382 116.323 125.566C116.448 124.525 116.514 123.468 116.514 122.396C116.514 121.478 116.464 120.552 116.368 119.632C116.951 118.769 117.382 117.813 117.646 116.813C119.045 115.617 120.004 114.194 120.435 112.649C121.406 109.159 119.871 104.905 115.994 100.35C115.39 99.6392 115.098 98.7365 115.173 97.8065C115.247 96.8779 115.68 96.0336 116.39 95.4292C117.855 94.1827 120.063 94.3604 121.309 95.826C128.182 103.901 128.29 110.434 127.165 114.499ZM132.896 60.9472C131.444 62.6112 128.907 62.7824 127.244 61.3311L122.011 56.7618C120.576 55.5102 118.868 54.6295 117.029 54.1885C116.251 53.448 115.452 52.7307 114.617 52.0524C112.3 50.1691 109.8 48.5596 107.126 47.2237C109.68 46.225 112.436 45.7568 115.192 45.88C119.636 46.0797 123.929 47.8008 127.28 50.7256L132.514 55.2949C134.177 56.7475 134.349 59.2831 132.896 60.9472ZM73.4097 60.9368C73.4097 59.562 72.2943 58.4466 70.9195 58.4466H65.8845C64.5097 58.4466 63.3943 59.562 63.3943 60.9368C63.3943 62.3129 64.5097 63.427 65.8845 63.427H66.2542C66.0376 63.7967 65.9118 64.2247 65.9118 64.6838V67.7798C65.9118 69.1546 67.0259 70.27 68.402 70.27C69.7768 70.27 70.8923 69.1546 70.8923 67.7798V64.6838C70.8923 64.2247 70.7664 63.7967 70.5498 63.427H70.9182C72.2943 63.427 73.4097 62.3129 73.4097 60.9368Z" fill="black"/>
</svg>
