<svg width="66" height="66" viewBox="0 0 66 66" fill="none" xmlns="http://www.w3.org/2000/svg">
<g clip-path="url(#clip0_1591_26004)">
<path d="M57.3044 51.0156C54.5127 51.0156 51.9214 49.5495 48.9982 46.4522C48.1911 45.597 48.2283 44.2474 49.0823 43.4386C49.9364 42.6299 51.2829 42.6677 52.0901 43.5229C55.7217 47.3704 57.5385 47.051 59.5361 46.2337C60.6243 45.7887 61.866 46.3114 62.3107 47.4012C62.7548 48.4915 62.2331 49.7356 61.1449 50.1811C59.7959 50.7331 58.531 51.0156 57.3044 51.0156Z" fill="#495059"/>
<path d="M37.4449 59.4412C36.2631 59.4412 35.184 58.6461 34.8728 57.4468C33.839 53.4676 34.2791 50.5686 35.2575 47.4401C35.6966 46.0355 37.1891 45.2534 38.591 45.6939C39.9924 46.1338 40.7729 47.6292 40.3333 49.0338C39.5895 51.4117 39.3 53.3309 40.0201 56.1048C40.3902 57.5285 39.5377 58.9841 38.1161 59.3544C37.8921 59.4129 37.6665 59.4412 37.4449 59.4412Z" fill="#DDAF89"/>
<path d="M49.3508 59.4402C48.6695 59.4402 47.9882 59.1794 47.4685 58.6577C44.708 55.8863 44.4975 50.6156 45.0303 47.7493C45.2987 46.3024 46.6865 45.3473 48.1312 45.6167C49.5754 45.8861 50.5281 47.2771 50.2597 48.7241C49.8417 50.9733 50.3151 53.9712 51.2336 54.8929C52.2714 55.9348 52.2694 57.6219 51.23 58.6617C50.7109 59.1809 50.0306 59.4402 49.3508 59.4402Z" fill="#DDAF89"/>
<path d="M33.7387 42.087C29.7153 43.197 25.3107 42.1334 21.9571 39.2415C20.8437 38.2814 20.7178 36.5988 21.6761 35.4833C22.6343 34.3678 24.3137 34.2422 25.427 35.2018C26.1793 35.8506 28.9005 37.8939 32.3267 36.9484C33.7427 36.5579 35.207 37.3914 35.5968 38.8101C35.987 40.2294 35.1552 41.696 33.7387 42.087Z" fill="#DDAF89"/>
<path d="M32.3267 36.9484C31.1615 37.2698 30.0784 37.2451 29.1261 37.0478C28.9852 37.7925 28.9111 38.5579 28.9111 39.3389C28.9111 40.4115 29.0506 41.4549 29.312 42.4548C30.7924 42.6027 32.2905 42.4861 33.7387 42.0865C35.1552 41.696 35.9871 40.2289 35.5968 38.8101C35.2071 37.3914 33.7427 36.5579 32.3267 36.9484Z" fill="#D1A582"/>
<path d="M48.131 45.6172C46.6863 45.3473 45.2985 46.3023 45.0301 47.7493C44.7869 49.058 44.6998 50.8678 44.9379 52.7118C46.7925 52.5458 48.5469 52.0615 50.1351 51.3193C50.0747 50.445 50.1089 49.5363 50.2595 48.7245C50.5284 47.2776 49.5752 45.8861 48.131 45.6172Z" fill="#D1A582"/>
<path d="M38.591 45.6939C37.1891 45.2534 35.6971 46.0355 35.258 47.4401C34.9886 48.3008 34.7605 49.1443 34.5923 49.9975C36.0768 51.0439 37.7848 51.8355 39.6384 52.3012C39.7235 51.2205 39.9748 50.1801 40.3338 49.0338C40.7729 47.6292 39.9924 46.1338 38.591 45.6939Z" fill="#D1A582"/>
<path d="M56.4691 39.3389C56.4691 32.8507 50.6641 27.591 43.5036 27.591C36.3426 27.591 30.5376 32.8507 30.5376 39.3389C30.5376 45.8271 36.3426 51.0868 43.5036 51.0868C50.6641 51.0868 56.4691 45.8271 56.4691 39.3389Z" fill="#DDAF89"/>
<path d="M55.2135 31.7962C52.0356 34.4379 47.9548 36.0261 43.5034 36.0261C39.0515 36.0261 34.9707 34.4379 31.7933 31.7962C31.1175 32.6726 30.554 33.6271 30.127 34.6432C29.5449 36.0272 30.0817 37.632 31.3748 38.3924C34.9334 40.4851 39.0782 41.6864 43.5034 41.6864C47.9281 41.6864 52.0729 40.4851 55.632 38.3924C56.9246 37.632 57.4609 36.0277 56.8793 34.6432C56.4523 33.6271 55.8893 32.6726 55.2135 31.7962Z" fill="#7F9AE6"/>
<path d="M37.5985 35.0529C35.4589 34.3244 33.4966 33.2119 31.7935 31.7962C31.1178 32.6726 30.5543 33.6271 30.1273 34.6432C29.5457 36.0272 30.082 37.632 31.3751 38.3924C33.2257 39.4806 35.2353 40.3252 37.3598 40.8878C36.5803 39.3202 36.8009 36.9676 37.5985 35.0529Z" fill="#5E78BF"/>
<path d="M38.3959 15.8462C37.8425 15.8462 37.2841 15.6771 36.8022 15.3265L33.4606 12.8942C31.9973 11.8291 30.0233 11.9179 28.6612 13.1096L26.4733 15.0238C25.3433 16.0122 23.6277 15.8956 22.6412 14.7635C21.6548 13.6313 21.7711 11.9124 22.9006 10.924L25.0885 9.00984C26.6666 7.62997 28.6879 6.81818 30.7802 6.72434C32.8729 6.6305 34.9581 7.25762 36.6526 8.49119L39.9942 10.923C41.2077 11.8064 41.4771 13.5082 40.5954 14.7236C40.0642 15.4572 39.2358 15.8462 38.3959 15.8462Z" fill="#495059"/>
<path d="M48.6104 15.8461C47.7705 15.8461 46.9421 15.4571 46.4109 14.7241C45.5292 13.5082 45.7986 11.8064 47.0121 10.923L50.3537 8.49116C52.0482 7.2581 54.1344 6.63097 56.2261 6.72431C58.3184 6.81815 60.3397 7.62993 61.9173 9.01032L64.1052 10.924C65.2352 11.9123 65.3515 13.6313 64.3651 14.7634C63.3786 15.8956 61.663 16.0121 60.533 15.0238L58.3451 13.1096C56.983 11.9179 55.0091 11.8291 53.5457 12.8942L50.2042 15.3265C49.7223 15.6771 49.1638 15.8461 48.6104 15.8461Z" fill="#495059"/>
<path d="M43.5036 37.398C57.2903 37.398 63.5037 31.0697 61.5645 22.1598C59.4808 12.5844 52.917 7.34338 43.5036 7.34338C34.0897 7.34338 27.5263 12.5849 25.4421 22.1598C23.503 31.0697 29.7163 37.398 43.5036 37.398Z" fill="#DDAF89"/>
<path d="M47.125 42.144C47.125 44.148 45.5035 45.7726 43.5034 45.7726C41.5028 45.7726 39.8813 44.148 39.8813 42.144C39.8813 40.1395 41.5028 38.515 43.5034 38.515C45.5035 38.515 47.125 40.1395 47.125 42.144Z" fill="#F6E06A"/>
<path d="M36.3196 18.8602C36.3196 17.4071 34.8437 16.2291 33.0223 16.2291C31.2015 16.2291 29.7256 17.4071 29.7256 18.8602C29.7256 20.3127 31.2015 21.4908 33.0223 21.4908C34.8437 21.4908 36.3196 20.3127 36.3196 18.8602Z" fill="#FFDBDB"/>
<path d="M54.824 18.8602C54.824 17.4071 53.3476 16.2291 51.5268 16.2291C49.7054 16.2291 48.2295 17.4071 48.2295 18.8602C48.2295 20.3127 49.7054 21.4908 51.5268 21.4908C53.3476 21.4908 54.824 20.3127 54.824 18.8602Z" fill="#FFDBDB"/>
<path d="M44.0042 16.6857C42.8702 16.388 41.6793 16.388 40.5458 16.6857C40.076 16.8088 39.6671 17.0979 39.3942 17.5C39.0256 18.0428 39.2376 18.788 39.8363 19.0549L41.4975 19.795C41.9925 20.0155 42.5575 20.0155 43.052 19.795L44.7132 19.0549C45.3119 18.788 45.5239 18.0428 45.1553 17.5C44.8824 17.0979 44.4735 16.8088 44.0042 16.6857Z" fill="#495059"/>
<path d="M42.2636 29.8038C44.307 29.8038 45.9637 28.263 45.9637 25.5688C45.9637 22.5715 44.7753 21.9257 42.2636 21.9257C39.7519 21.9257 38.5635 22.5709 38.5635 25.5688C38.5635 28.263 40.2197 29.8038 42.2636 29.8038Z" fill="#D16283"/>
<path d="M42.2639 26.3508C40.9466 26.3508 39.7486 26.7257 38.8447 27.3377C39.4006 28.9259 40.722 29.8038 42.2639 29.8038C43.8057 29.8038 45.1265 28.9259 45.6825 27.3377C44.7786 26.7257 43.5806 26.3508 42.2639 26.3508Z" fill="#EB9898"/>
<path d="M47.6132 37.6078L42.897 38.4408L45.3372 49.1756C45.4384 49.6206 45.8694 49.9072 46.3176 49.828L48.286 49.4803C48.7342 49.4011 49.0413 48.9839 48.9844 48.5313L47.6132 37.6078Z" fill="#D16283"/>
<path d="M48.1323 37.516L42.3782 38.5321C41.5468 38.6795 40.7537 38.123 40.6067 37.2895L39.8594 33.0424C39.7129 32.2094 40.2683 31.4143 41.0996 31.2675L46.8537 30.2509C47.6856 30.104 48.4787 30.6605 48.6252 31.494L49.3725 35.7411C49.5195 36.5746 48.9641 37.3692 48.1323 37.516Z" fill="#495059"/>
<path d="M45.9656 46.041C44.4983 45.9704 43.3663 44.7207 43.4378 43.251C43.5083 41.7808 44.7556 40.6466 46.2224 40.7178C49.772 40.8898 51.9816 38.3001 52.5742 37.5019C53.4509 36.3213 55.1172 36.0766 56.2955 36.955C57.4743 37.8339 57.7185 39.5034 56.8414 40.684C54.1997 44.2404 50.134 46.2428 45.9656 46.041Z" fill="#C49B7A"/>
<path d="M12.7072 35.1387H12.7158C13.1695 35.1392 13.5411 34.781 13.5411 34.3269V27.6227C13.5411 26.4517 14.3745 25.4467 15.5236 25.2318L20.408 24.3191C20.9881 24.2106 21.5244 24.6566 21.5244 25.2479V27.5849C21.5244 28.3851 20.9549 29.0717 20.1698 29.2186L17.9114 29.6403C17.4456 29.7276 17.1077 30.1348 17.1077 30.6095V38.4125C17.1077 40.2207 15.1378 41.6864 12.7072 41.6864C10.277 41.6864 8.30664 40.2202 8.30664 38.4125C8.30664 36.6043 10.277 35.1387 12.7072 35.1387Z" fill="#A0D9BB"/>
<path d="M5.36783 22.3364H5.37639C5.82959 22.3369 6.20172 21.9786 6.20172 21.5241V14.8199C6.20172 13.6489 7.03459 12.6439 8.1837 12.4295L13.0687 11.5163C13.6488 11.4083 14.1845 11.8543 14.1845 12.4456V14.7821C14.1845 15.5823 13.6155 16.2689 12.83 16.4158L10.5721 16.8375C10.1058 16.9248 9.76838 17.332 9.76838 17.8067V25.6097C9.76838 27.4179 7.79798 28.8836 5.36783 28.8836C2.93718 28.8836 0.967285 27.4179 0.967285 25.6097C0.967285 23.8015 2.93718 22.3364 5.36783 22.3364Z" fill="#F6E06A"/>
<path d="M47.7821 17.4722C48.3159 17.4722 48.7489 17.0388 48.7489 16.5035C48.7489 16.0308 49.1326 15.6458 49.605 15.6458C50.0768 15.6458 50.4605 16.0308 50.4605 16.5035C50.4605 17.0388 50.8936 17.4722 51.4273 17.4722C51.9616 17.4722 52.3942 17.0388 52.3942 16.5035C52.3942 14.9627 51.1428 13.7085 49.605 13.7085C48.0666 13.7085 46.8153 14.9627 46.8153 16.5035C46.8153 17.0388 47.2484 17.4722 47.7821 17.4722ZM22.4912 27.5849V25.248C22.4912 24.6774 22.2394 24.141 21.8013 23.7763C21.3632 23.4115 20.7907 23.2622 20.2307 23.3666L15.3463 24.2798C13.7399 24.58 12.5742 25.9856 12.5742 27.6228V34.171C9.67626 34.2275 7.33977 36.1084 7.33977 38.4126C7.33977 40.7515 9.74776 42.6551 12.7071 42.6551C15.6665 42.6551 18.0745 40.7515 18.0745 38.4126V30.6096C18.0745 30.6015 18.0806 30.5944 18.0886 30.5929L20.347 30.1706C21.5893 29.9385 22.4912 28.8513 22.4912 27.5849ZM12.7071 35.1387L12.7076 35.51L12.7071 35.5247V35.1387ZM19.9925 28.266L17.7341 28.6883C16.8106 28.8609 16.1409 29.6686 16.1409 30.6096V38.4126C16.1409 39.6623 14.5683 40.7177 12.7071 40.7177C10.846 40.7177 9.27341 39.6623 9.27341 38.4126C9.27341 37.1639 10.8445 36.1084 12.7046 36.1074C12.7087 36.1079 12.7127 36.1074 12.7167 36.1079C13.1981 36.1079 13.6498 35.9212 13.9882 35.5822C14.3235 35.2472 14.5078 34.8012 14.5078 34.3269V27.6228C14.5078 26.9185 15.0094 26.3135 15.7003 26.1844L20.557 25.2767V27.5849C20.5575 27.9184 20.3199 28.205 19.9925 28.266ZM34.0885 16.5035C34.0885 16.0308 34.4722 15.6458 34.9445 15.6458C35.4164 15.6458 35.8001 16.0308 35.8001 16.5035C35.8001 17.0388 36.2331 17.4722 36.7669 17.4722C37.3012 17.4722 37.7337 17.0388 37.7337 16.5035C37.7337 14.9627 36.4824 13.7085 34.9445 13.7085C33.4062 13.7085 32.1549 14.9627 32.1549 16.5035C32.1549 17.0388 32.5874 17.4722 33.1217 17.4722C33.6554 17.4722 34.0885 17.0388 34.0885 16.5035ZM64.7418 10.1944L62.5533 8.28028C60.8116 6.75661 58.5798 5.86007 56.2695 5.75664C54.1601 5.6633 52.0517 6.23544 50.2757 7.37566C48.2167 6.71019 45.9547 6.37469 43.5034 6.37469C41.0516 6.37469 38.7897 6.71019 36.7306 7.37566C34.9546 6.23594 32.8462 5.6628 30.7369 5.75664C28.4266 5.86007 26.1948 6.75661 24.453 8.28028L22.2651 10.1944C20.7353 11.5324 20.5772 13.8679 21.9131 15.4006C22.6397 16.2351 23.6619 16.662 24.6892 16.662C25.3186 16.662 25.9486 16.5 26.5151 16.1751C25.6359 17.8975 24.9606 19.8253 24.4973 21.9534C23.8573 24.8948 24.0461 27.5738 25.0593 29.9153C25.2713 30.4062 25.8403 30.6323 26.3308 30.4194C26.8207 30.2064 27.0458 29.6358 26.8333 29.1449C25.9848 27.1838 25.8348 24.9029 26.3867 22.3661C27.2397 18.448 28.8611 15.2932 31.1578 12.9714C31.2162 12.9254 31.2686 12.8725 31.3149 12.815C32.8669 11.2918 34.72 10.1425 36.8455 9.38569C36.8862 9.37459 36.9265 9.36047 36.9658 9.34382C38.9231 8.66372 41.1075 8.31206 43.5029 8.31206C45.8978 8.31206 48.0817 8.66372 50.0385 9.34331C50.0793 9.36047 50.1211 9.3756 50.1634 9.3867C52.2874 10.1435 54.14 11.2923 55.6914 12.8144C55.7378 12.8725 55.7896 12.9254 55.8485 12.9719C58.1457 15.2932 59.7672 18.4485 60.6197 22.3661C61.3237 25.6016 60.8941 28.3876 59.3422 30.6464C57.6236 33.1478 54.5317 34.9091 50.3518 35.785C50.3452 35.7144 50.3371 35.6437 50.3246 35.5731L49.5773 31.326C49.3381 29.9678 48.0414 29.0581 46.6854 29.2973L45.4366 29.5178C46.3757 28.594 46.9301 27.2151 46.9301 25.5689C46.9301 23.803 46.5368 22.6355 45.6919 21.8944C45.007 21.2935 44.1223 21.0715 43.2411 20.9948V20.7607C43.3096 20.7365 43.3775 20.7103 43.4445 20.6805L45.1057 19.9404C45.6536 19.6962 46.062 19.2244 46.2266 18.6468C46.3908 18.0691 46.2916 17.4526 45.9547 16.9556C45.5504 16.3597 44.9441 15.9309 44.2487 15.7488C44.2482 15.7488 44.2482 15.7488 44.2482 15.7488C42.9571 15.4097 41.5919 15.4097 40.3003 15.7488C39.6049 15.9309 38.9986 16.3597 38.5943 16.9556C38.2569 17.4526 38.1582 18.0691 38.3224 18.6468C38.4865 19.2244 38.8954 19.6962 39.4433 19.9404L41.1045 20.6805C41.1715 20.7103 41.239 20.7365 41.3074 20.7607V20.9948C39.2811 21.1694 37.5963 22.0568 37.5963 25.5694C37.5963 27.9174 38.7247 29.7216 40.4892 30.437C39.3854 30.8512 38.695 32.0076 38.907 33.2114L39.4362 36.2194C34.8907 35.7255 31.3064 34.3521 29.0218 32.217C28.6315 31.8517 28.0197 31.8734 27.6551 32.2644C27.291 32.6559 27.3122 33.2689 27.7029 33.6337C28.1264 34.0297 28.5832 34.4006 29.0706 34.7472C28.9563 35.1619 28.912 35.5857 28.9341 36.0034C27.4728 35.6023 26.4068 34.7694 26.0573 34.4682C24.5416 33.1615 22.2475 33.3335 20.9433 34.8521C19.6391 36.3707 19.8108 38.6694 21.3265 39.9761C23.9112 42.2051 27.0836 43.4331 30.3305 43.482C31.0702 45.4355 32.317 47.1752 33.9279 48.5676C33.3196 50.9051 32.9278 53.8061 33.9369 57.691C34.3524 59.2918 35.795 60.4104 37.4447 60.4104C37.7524 60.4104 38.06 60.3705 38.3596 60.2923C39.2973 60.0476 40.0833 59.4523 40.5738 58.6153C41.0642 57.7788 41.2002 56.8005 40.956 55.8611C40.5707 54.3778 40.4771 53.1386 40.6664 51.7906C41.5824 51.9641 42.5316 52.0559 43.5034 52.0559C43.6349 52.0559 43.7648 52.0514 43.8957 52.0479C44.0755 54.1805 44.714 57.2641 46.7846 59.3423C47.4694 60.0305 48.3813 60.4094 49.3512 60.4094C50.3185 60.4094 51.2284 60.0325 51.9128 59.3478C52.1827 59.0779 52.4073 58.7697 52.58 58.4321C52.8232 57.9559 52.6354 57.3721 52.16 57.1284C51.6852 56.8847 51.102 57.0729 50.8588 57.5487C50.7783 57.7061 50.6735 57.8499 50.5471 57.9765C50.2274 58.2959 49.8029 58.472 49.3512 58.472C48.8985 58.472 48.473 58.2949 48.1532 57.974C46.8707 56.6865 46.0413 54.4948 45.8233 51.8778C46.985 51.7007 48.1004 51.3915 49.1508 50.9677C49.2062 52.4611 49.5219 53.9237 50.0254 54.853C50.2007 55.1764 50.5325 55.3601 50.8759 55.3601C51.0315 55.3601 51.1897 55.3222 51.3362 55.2425C51.8055 54.9872 51.9797 54.3989 51.7249 53.9287C51.2712 53.0912 51.0169 51.4782 51.0874 50.0136C51.1751 49.9616 51.2612 49.9082 51.3473 49.8547C53.3267 51.2855 55.2815 51.9848 57.3048 51.9848C58.6438 51.9848 60.02 51.6881 61.511 51.0782C62.2764 50.7649 62.8741 50.172 63.1944 49.4082C63.5141 48.6448 63.5187 47.8023 63.2059 47.0354C62.5609 45.4527 60.7506 44.6909 59.171 45.3372C58.0768 45.7852 57.1522 46.0506 55.7952 45.3422C56.4251 44.2656 56.8899 43.091 57.1623 41.8438C57.3179 41.6541 57.47 41.4609 57.6175 41.2626C58.1961 40.4841 58.4368 39.5265 58.2968 38.5664C58.2258 38.0811 58.0611 37.6245 57.8154 37.2163C58.1155 36.4257 58.1583 35.5539 57.9337 34.7401C59.1478 33.8819 60.1554 32.8809 60.9354 31.7453C62.7759 29.0662 63.3203 25.6804 62.509 21.9539C62.0463 19.8258 61.371 17.898 60.4918 16.1756C61.0578 16.5005 61.6882 16.6625 62.3177 16.6625C63.3449 16.6625 64.3671 16.2351 65.0938 15.4012C66.4292 13.8679 66.2711 11.5324 64.7418 10.1944ZM31.114 10.4094C30.761 10.697 30.4231 11.0007 30.0948 11.3155C29.3304 11.4956 28.6199 11.8599 28.0252 12.3801L25.8373 14.2942C25.1107 14.9294 24.0038 14.8542 23.3694 14.1262C22.7354 13.3987 22.8104 12.2892 23.5366 11.654L25.7245 9.73987C27.138 8.50328 28.9487 7.77626 30.8235 7.692C32.0411 7.63751 33.2576 7.85849 34.3785 8.32266C33.2098 8.89378 32.1206 9.58952 31.114 10.4094ZM22.5874 38.5074C21.8799 37.8969 21.7998 36.8238 22.4086 36.1154C23.0174 35.4066 24.0884 35.3264 24.7959 35.9358C25.4732 36.5196 27.2351 37.8334 29.6361 38.1098C29.5933 38.519 29.5706 38.9302 29.5706 39.3389C29.5706 40.0835 29.6421 40.8126 29.7771 41.5224C27.1863 41.3514 24.6711 40.304 22.5874 38.5074ZM49.4751 37.9171C50.0864 37.8177 50.6801 37.7017 51.2551 37.5695C50.7254 38.132 49.8975 38.848 48.8008 39.3046L48.6835 38.3677C48.9745 38.2673 49.2419 38.1149 49.4751 37.9171ZM47.0213 31.2049C47.0545 31.1994 47.0872 31.1963 47.1194 31.1963C47.3873 31.1963 47.625 31.3891 47.6728 31.662L48.4206 35.9091C48.4745 36.2148 48.2696 36.508 47.9644 36.562L42.2103 37.5781C41.9047 37.6321 41.6126 37.4272 41.5587 37.1215L41.5572 37.1119C41.5567 37.1104 41.5567 37.1089 41.5562 37.1068C41.5562 37.1058 41.5557 37.1043 41.5552 37.1028L40.8114 32.8744C40.7571 32.5681 40.962 32.2755 41.2672 32.2215L47.0213 31.2049ZM46.9074 39.7455C46.7005 39.7576 46.488 39.7606 46.2694 39.7501C45.5529 39.7152 44.8751 39.8933 44.2945 40.2273L44.0649 39.2183L46.7811 38.7385L46.9074 39.7455ZM42.7078 44.6813C41.6312 44.3417 40.8482 43.3332 40.8482 42.144C40.8482 41.1456 41.3905 40.2697 42.2179 39.8146L42.7239 42.0411C42.5804 42.4028 42.4918 42.7939 42.4722 43.204C42.4475 43.7161 42.5296 44.2166 42.7078 44.6813ZM40.2288 18.1695C40.2198 18.1654 40.1926 18.1533 40.182 18.1155C40.1709 18.0777 40.1875 18.0529 40.1931 18.0449C40.3351 17.8365 40.5466 17.6861 40.7903 17.6226C41.2757 17.4949 41.7752 17.4314 42.2748 17.4314C42.7738 17.4314 43.2733 17.4949 43.7587 17.6226C44.0025 17.6861 44.2144 17.836 44.3554 18.0449C44.361 18.0529 44.3781 18.0777 44.367 18.1155C44.3564 18.1533 44.3293 18.1654 44.3202 18.1695L42.659 18.9096C42.4147 19.0186 42.1343 19.0186 41.89 18.9096L40.2288 18.1695ZM39.5304 25.5689C39.5304 23.245 40.1457 22.8944 42.2637 22.8944H42.2748C44.3831 22.8959 44.9965 23.2495 44.9965 25.5689C44.9965 27.5531 43.9239 28.8351 42.2632 28.8351C40.603 28.8351 39.5304 27.5526 39.5304 25.5689ZM31.3693 37.1447C31.3673 37.1427 31.3658 37.1406 31.3638 37.1386C31.0491 36.7764 30.8728 36.3137 30.8632 35.838C33.2989 37.1028 36.3288 37.8984 39.9196 38.2133C40.0365 38.4287 40.1815 38.625 40.3517 38.7945C39.8965 39.2238 39.5314 39.744 39.2837 40.3262C36.6612 39.8409 34.1686 38.912 31.8643 37.5569C31.6735 37.4444 31.5088 37.3036 31.3693 37.1447ZM38.9065 57.6345C38.6774 58.025 38.3103 58.303 37.8727 58.417C37.7317 58.4538 37.5877 58.4725 37.4447 58.4725C36.6753 58.4725 36.002 57.9503 35.8081 57.2026C35.012 54.1361 35.1747 51.8127 35.6153 49.8153C36.5902 50.4283 37.6537 50.9313 38.7851 51.3042C38.5198 52.9868 38.6159 54.5432 39.0848 56.3484C39.1986 56.7869 39.1351 57.2435 38.9065 57.6345ZM43.5034 50.118C36.9769 50.118 31.6513 45.4133 31.5078 39.5805C33.8272 40.857 36.3127 41.7449 38.9171 42.2283C38.9624 44.7247 41.0013 46.7413 43.5034 46.7413C43.5991 46.7413 43.6943 46.7367 43.79 46.7307L44.3947 49.391C44.4516 49.6418 44.5584 49.8678 44.7014 50.0636C44.3066 50.0984 43.9073 50.118 43.5034 50.118ZM46.2559 48.8557L45.8349 47.0026C45.8631 47.0046 45.8908 47.0071 45.919 47.0087C46.1269 47.0187 46.3344 47.0238 46.5419 47.0238C46.9679 47.0238 47.3919 47.0016 47.8128 46.9602L48.0122 48.5454L46.2559 48.8557ZM50.9293 47.8134C50.8629 47.8482 50.8004 47.8921 50.7425 47.943C50.4847 48.1181 50.2193 48.2841 49.9464 48.44C49.9454 48.4304 49.9454 48.4203 49.9439 48.4102L49.7203 46.6277C51.1735 46.263 52.5664 45.65 53.8454 44.8185C53.8046 44.8806 53.7618 44.9411 53.72 45.0022C53.6984 45.0274 53.6772 45.0536 53.6576 45.0814C53.6334 45.1157 53.6128 45.151 53.5936 45.1873C52.871 46.1944 51.9677 47.0798 50.9293 47.8134ZM57.1996 47.716C58.2172 47.7574 59.1 47.4587 59.9016 47.1302C60.4943 46.8876 61.1731 47.1736 61.4153 47.7675C61.5326 48.055 61.5311 48.3714 61.4108 48.6574C61.2909 48.944 61.0669 49.1665 60.7793 49.2841C59.525 49.7972 58.388 50.0469 57.3043 50.0469C55.8516 50.0469 54.4628 49.5984 53.004 48.6484C53.6173 48.1272 54.1788 47.5556 54.6818 46.939C55.5454 47.4269 56.3752 47.6827 57.1996 47.716ZM56.0661 40.1052C53.6168 43.4028 49.8573 45.261 46.0126 45.0733C45.6742 45.0572 45.3555 44.9426 45.0891 44.7449L45.0886 44.7443C44.9995 44.6783 44.9169 44.6031 44.8409 44.5193C44.5367 44.1838 44.3816 43.7499 44.4033 43.2974C44.4159 43.0385 44.4879 42.7964 44.6027 42.5814C44.6027 42.5809 44.6032 42.5804 44.6032 42.5799C44.8902 42.0446 45.4537 41.6834 46.0932 41.6834C46.1204 41.6834 46.1481 41.6839 46.1758 41.6854C50.2042 41.8797 52.6852 38.9751 53.3504 38.0801C53.6203 37.7168 54.0151 37.4802 54.4623 37.4146C54.9099 37.349 55.3561 37.4615 55.7186 37.7319C56.0817 38.0024 56.3173 38.3984 56.3833 38.8464C56.4488 39.295 56.336 39.742 56.0661 40.1052ZM63.637 14.1262C63.003 14.8542 61.8957 14.9294 61.1691 14.2942L58.9811 12.3801C58.3864 11.8599 57.6759 11.4956 56.912 11.315C56.5837 11.0007 56.2453 10.6965 55.8923 10.4089C54.8857 9.58902 53.7966 8.89378 52.6278 8.32266C53.7482 7.85799 54.9653 7.63701 56.1829 7.692C58.0576 7.77575 59.8684 8.50328 61.2819 9.73987L63.4698 11.6535C64.1964 12.2892 64.2715 13.3987 63.637 14.1262ZM10.7347 25.6097V17.8072C10.7347 17.7987 10.7408 17.7916 10.7488 17.7901L13.0073 17.3683C14.2495 17.1362 15.1514 16.0485 15.1514 14.7821V12.4456C15.1514 11.8745 14.9001 11.3382 14.462 10.9734C14.0234 10.6087 13.4509 10.4598 12.8909 10.5643L8.00648 11.477C6.40065 11.7771 5.23492 13.1833 5.23492 14.8199V21.3687C2.33647 21.4247 0.000488281 23.3055 0.000488281 25.6097C0.000488281 27.9492 2.40848 29.8523 5.36786 29.8523C8.32724 29.8523 10.7347 27.9492 10.7347 25.6097ZM8.80108 17.8072V25.6097C8.80108 26.8594 7.22899 27.9149 5.36786 27.9149C3.50622 27.9149 1.93413 26.8594 1.93413 25.6097C1.93413 24.361 3.50471 23.3055 5.36484 23.305H5.37743C5.85882 23.305 6.31001 23.1184 6.6489 22.7793C6.98376 22.4443 7.16856 21.9983 7.16856 21.5241V14.8199C7.16856 14.1156 7.6701 13.5107 8.36098 13.3815L13.2177 12.4739V14.7821C13.2177 15.1156 12.9801 15.4027 12.6528 15.4637L10.3943 15.8855C9.47131 16.058 8.80108 16.8663 8.80108 17.8072Z" fill="black"/>
</g>
<defs>
<clipPath id="clip0_1591_26004">
<rect width="66" height="66" fill="white" transform="translate(0.000488281)"/>
</clipPath>
</defs>
</svg>
