<svg width="66" height="66" viewBox="0 0 66 66" fill="none" xmlns="http://www.w3.org/2000/svg">
<g clip-path="url(#clip0_1591_25850)">
<path d="M64.3188 51.144L60.0578 48.1802C58.9218 47.3902 57.3735 48.2472 57.4399 49.6294L57.4701 50.2538C54.5964 50.496 52.5868 49.6722 50.4397 45.9954C49.765 44.8397 48.281 44.4505 47.1259 45.1252C45.9708 45.8 45.5811 47.2834 46.2558 48.4385C49.3903 53.8063 53.0707 55.1386 56.5748 55.1386C56.9535 55.1386 57.3302 55.123 57.7038 55.0953L57.7451 55.9534C57.8115 57.3351 59.4355 58.0395 60.4899 57.1437L64.4457 53.7836C65.28 53.0751 65.2171 51.7689 64.3188 51.144Z" fill="#D16283"/>
<path d="M50.4393 45.9954C49.7646 44.8397 48.2806 44.4505 47.126 45.1252C45.9704 45.8 45.5812 47.2834 46.2559 48.4385C47.4553 50.4925 48.7348 51.9537 50.0536 52.9774C51.4575 52.0378 52.6937 50.9003 53.7128 49.6103C52.5708 48.9778 51.5224 47.8499 50.4393 45.9954Z" fill="#B35470"/>
<path d="M50.1652 62.516C49.5786 62.516 48.9859 62.3458 48.4643 61.9908C44.9793 59.6191 43.1514 55.4559 43.3181 50.2684C43.372 48.5966 44.7723 47.2814 46.4415 47.3393C48.1133 47.3927 49.425 48.7915 49.3711 50.4628C49.3022 52.6144 49.6798 55.4926 51.8717 56.9841C53.2539 57.9252 53.612 59.8085 52.6713 61.1912C52.0852 62.0517 51.1335 62.516 50.1652 62.516Z" fill="#DDAF89"/>
<path d="M36.2102 63.4677C35.2278 63.4677 34.2645 62.9904 33.682 62.1097C31.1119 58.2234 30.7141 53.9055 32.5001 49.2755C33.1019 47.7155 34.8547 46.9385 36.4152 47.5403C37.9751 48.142 38.7526 49.8953 38.1504 51.4553C37.0813 54.2268 37.2667 56.5511 38.7335 58.7692C39.6559 60.164 39.2733 62.0427 37.8779 62.9652C37.3638 63.3051 36.7838 63.4677 36.2102 63.4677Z" fill="#DDAF89"/>
<path d="M21.8201 46.9425C18.9409 46.9425 16.0098 45.7738 13.6769 43.6741C12.4336 42.5552 12.3329 40.6407 13.4518 39.3975C14.5701 38.1548 16.4851 38.0541 17.7283 39.1724C19.0441 40.3572 20.6469 40.9781 22.1253 40.8764C23.4229 40.7868 24.579 40.1513 25.5609 38.9866C26.6385 37.7081 28.5494 37.5455 29.8279 38.6236C31.1064 39.7016 31.2685 41.6121 30.191 42.8906C28.1405 45.3222 25.4954 46.7149 22.5412 46.9184C22.3015 46.9345 22.0608 46.9425 21.8201 46.9425Z" fill="#DDAF89"/>
<path d="M16.8647 17.8686C15.7972 18.2795 15.2916 19.5077 15.6829 20.5827L17.331 25.1111C17.5842 25.8065 17.3118 26.5839 16.6799 26.9696L15.4286 27.7335C15.0187 27.9838 14.4829 27.7959 14.3193 27.3453L11.3121 19.0842C10.9209 18.0091 9.74412 17.3928 8.66201 17.7644C7.55926 18.1431 6.98623 19.3501 7.38302 20.4407L10.4133 28.7668C10.5775 29.2174 10.2879 29.7054 9.81361 29.7774L8.36342 29.9964C7.63177 30.1072 6.92329 29.6867 6.67001 28.9913L5.02243 24.463C4.63067 23.3879 3.4539 22.7721 2.37179 23.1432C1.26954 23.5219 0.696011 24.7294 1.0933 25.8195L2.76455 30.4128C3.69459 32.9673 6.29689 34.5122 8.98478 34.1058L11.4139 33.7382C11.86 33.6707 12.292 33.9275 12.4461 34.3515L19.4705 53.6507C19.8623 54.7258 21.039 55.3421 22.1206 54.9705C23.2234 54.5918 23.7964 53.3848 23.3996 52.2942L16.3516 32.93C16.197 32.5061 16.3632 32.0317 16.7484 31.7966L18.8451 30.5171C21.1659 29.1006 22.166 26.244 21.2359 23.6896L19.5647 19.0968C19.1679 18.0061 17.9528 17.4497 16.8647 17.8686Z" fill="#D16283"/>
<path d="M49.3712 50.4628C49.4251 48.791 48.1133 47.3927 46.4416 47.3388C44.7724 47.2809 43.372 48.5967 43.3181 50.2684C43.2567 52.1703 43.4652 53.9337 43.9234 55.5218C45.9844 55.1019 47.9019 54.3285 49.5943 53.2745C49.3883 52.3113 49.3435 51.3284 49.3712 50.4628Z" fill="#D1A582"/>
<path d="M36.4151 47.5402C34.8547 46.9385 33.1018 47.7154 32.4996 49.2754C31.9427 50.72 31.5978 52.1345 31.4653 53.5152C33.2776 54.5746 35.33 55.3194 37.53 55.6648C37.3578 54.3586 37.5642 52.9744 38.1503 51.4552C38.7521 49.8952 37.9751 48.1419 36.4151 47.5402Z" fill="#D1A582"/>
<path d="M29.8271 38.6236C28.5486 37.5455 26.6382 37.7081 25.5601 38.9866C25.0349 39.6095 24.4594 40.0793 23.8395 40.397C23.8355 40.5305 23.8335 40.6639 23.8335 40.7978C23.8335 42.7919 24.2595 44.6957 25.0314 46.4395C26.9816 45.8136 28.7365 44.6147 30.1902 42.8906C31.2683 41.6121 31.1056 39.7016 29.8271 38.6236Z" fill="#D1A582"/>
<path d="M55.0929 40.7983C55.0929 33.4255 48.4839 27.4485 40.3311 27.4485C32.1783 27.4485 25.5693 33.4255 25.5693 40.7983C25.5693 48.1712 32.1783 54.1482 40.3311 54.1482C48.4839 54.1482 55.0929 48.1712 55.0929 40.7983Z" fill="#D16283"/>
<path d="M53.6631 32.2266C50.0456 35.2287 45.399 37.0339 40.3308 37.0339C35.2622 37.0339 30.616 35.2287 26.9981 32.2266C26.2287 33.2231 25.5877 34.3077 25.1013 35.4623C24.4386 37.0354 25.0499 38.8582 26.5217 39.7223C30.5737 42.101 35.2924 43.4656 40.3303 43.4656C45.3687 43.4656 50.0874 42.101 54.1394 39.7223C55.6118 38.8582 56.2225 37.0354 55.5599 35.4623C55.074 34.3077 54.4325 33.2231 53.6631 32.2266Z" fill="#FFDBDB"/>
<path d="M33.6078 35.9276C31.1717 35.0998 28.9375 33.8354 26.9984 32.2266C26.2295 33.2231 25.5879 34.3077 25.1015 35.4623C24.4394 37.0354 25.0502 38.8582 26.522 39.7223C28.6288 40.959 30.9174 41.9187 33.3359 42.5582C32.4487 40.7772 32.6999 38.1039 33.6078 35.9276Z" fill="#E8B3A9"/>
<path d="M34.6004 14.4078C33.9796 14.4078 33.3527 14.2189 32.8119 13.8257L29.0625 11.102C27.4205 9.90964 25.2064 10.0083 23.6776 11.3432L21.2224 13.4868C19.9545 14.5936 18.0294 14.4631 16.9227 13.1952C15.8159 11.9278 15.9463 10.0028 17.2142 8.89551L19.669 6.75194C21.4394 5.20657 23.7074 4.29718 26.0549 4.19244C28.4029 4.0872 30.7428 4.79015 32.6442 6.17085L36.3935 8.8945C37.7556 9.88396 38.0572 11.7894 37.0683 13.1514C36.4721 13.9717 35.5426 14.4078 34.6004 14.4078Z" fill="#495059"/>
<path d="M46.0614 14.4078C45.1193 14.4078 44.1898 13.9722 43.5936 13.151C42.6046 11.7894 42.9068 9.88349 44.2683 8.89454L48.0177 6.17089C49.9191 4.78968 52.26 4.08775 54.607 4.19249C56.955 4.29722 59.223 5.20661 60.9929 6.75198L63.4482 8.89555C64.7161 10.0023 64.8465 11.9274 63.7397 13.1953C62.6324 14.4632 60.7074 14.5936 59.44 13.4863L56.9847 11.3433C55.456 10.0084 53.2419 9.90918 51.5999 11.1021L47.8505 13.8257C47.3092 14.2185 46.6828 14.4078 46.0614 14.4078Z" fill="#495059"/>
<path d="M40.331 38.5435C55.8007 38.5435 62.7723 31.4567 60.5965 21.4785C58.258 10.7551 50.8932 4.88538 40.331 4.88538C29.7682 4.88538 22.4035 10.7551 20.065 21.4785C17.8892 31.4567 24.8612 38.5435 40.331 38.5435Z" fill="#DDAF89"/>
<path d="M42.6884 43.9857C42.6884 46.2627 40.8424 48.1087 38.5649 48.1087C36.2874 48.1087 34.4414 46.2627 34.4414 43.9857C34.4414 41.7082 36.2874 39.8622 38.5649 39.8622C40.8424 39.8622 42.6884 41.7082 42.6884 43.9857Z" fill="#F6E06A"/>
<path d="M30.3755 24.2026C30.3755 22.2504 28.388 20.6678 25.9368 20.6678C23.485 20.6678 21.4976 22.2504 21.4976 24.2026C21.4976 26.1549 23.485 27.7375 25.9368 27.7375C28.388 27.7375 30.3755 26.1549 30.3755 24.2026Z" fill="#FFDBDB"/>
<path d="M55.2866 24.2026C55.2866 22.2504 53.2991 20.6678 50.8479 20.6678C48.3962 20.6678 46.4087 22.2504 46.4087 24.2026C46.4087 26.1549 48.3962 27.7375 50.8479 27.7375C53.2991 27.7375 55.2866 26.1549 55.2866 24.2026Z" fill="#FFDBDB"/>
<path d="M40.7202 21.2806C39.194 20.8813 37.5902 20.8813 36.064 21.2806C35.432 21.4463 34.8812 21.835 34.5141 22.3753C34.0176 23.1049 34.3031 24.106 35.1093 24.4645L37.346 25.459C38.0117 25.7551 38.7725 25.7551 39.4382 25.459L41.6749 24.4645C42.4811 24.106 42.7666 23.1054 42.2701 22.3753C41.903 21.835 41.3522 21.4463 40.7202 21.2806Z" fill="#495059"/>
<path d="M45.1088 11.4616C45.7387 12.8221 47.1013 13.6932 48.6004 13.6932C50.2021 13.6932 51.6785 12.8262 52.4585 11.4273C53.7334 9.14074 53.9862 6.42314 53.1549 3.94119L53.0788 3.71359C52.5703 2.19592 50.463 2.09219 49.8089 3.55296C48.9584 5.4513 47.6225 7.09083 45.9356 8.30738C44.9401 9.02493 44.5932 10.3482 45.1088 11.4616Z" fill="#D16283"/>
<path d="M31.6757 11.4616C31.0458 12.8221 29.6832 13.6932 28.1836 13.6932C26.5824 13.6932 25.106 12.8262 24.326 11.4273C23.0511 9.14074 22.7983 6.42314 23.6296 3.94119L23.7057 3.71359C24.2142 2.19592 26.3211 2.09219 26.9757 3.55296C27.8256 5.4513 29.162 7.09083 30.8489 8.30738C31.8444 9.02493 32.1913 10.3482 31.6757 11.4616Z" fill="#D16283"/>
<path d="M48.476 52.0187C47.0439 52.0187 45.7709 50.999 45.5015 49.5403C45.1979 47.8957 46.2851 46.3161 47.9296 46.0125C49.2892 45.7617 50.7882 45.1786 51.3688 41.4121C51.6231 39.759 53.1684 38.6255 54.8231 38.8803C56.4757 39.1351 57.6092 40.6815 57.3544 42.3346C56.5019 47.8645 53.7012 51.1058 49.0293 51.9678C48.8435 52.0021 48.6587 52.0187 48.476 52.0187Z" fill="#DDAF89"/>
<path d="M65.9975 52.3863C65.9577 51.563 65.5473 50.8208 64.8706 50.3505L60.6096 47.3866C59.7793 46.8091 58.7148 46.7547 57.8296 47.2447C57.0486 47.6772 56.5526 48.4537 56.4801 49.3248C56.1633 49.3197 55.8688 49.2946 55.5913 49.2482C56.967 47.5332 57.8814 45.2597 58.3094 42.4817C58.5612 40.8467 57.7792 39.2872 56.4524 38.4695C56.8572 37.5042 56.9061 36.4175 56.5702 35.4064C57.8311 34.495 58.889 33.4371 59.7319 32.2356C60.0386 31.7986 59.9328 31.1953 59.4958 30.8887C59.0582 30.582 58.4555 30.6883 58.1488 31.1253C56.7384 33.136 54.5631 34.7115 51.6823 35.8077C48.5982 36.9815 44.7788 37.5767 40.331 37.5767C34.1818 37.5767 29.2803 36.4493 25.8915 34.2876C25.8412 34.2473 25.7863 34.2115 25.7269 34.1813C24.6261 33.4577 23.6895 32.6224 22.9282 31.6772C20.8189 29.0583 20.1552 25.603 21.0097 21.6845C21.7217 18.4195 22.9216 15.5967 24.5803 13.2748C25.5546 14.152 26.8336 14.6601 28.1841 14.6601C30.0528 14.6601 31.7678 13.5644 32.5528 11.8684C33.2452 10.3729 32.8021 8.59695 31.5065 7.59591C34.0902 6.43978 37.0505 5.85265 40.331 5.85265C42.5098 5.85265 44.5618 6.11449 46.4516 6.63113C46.1117 6.95037 45.7506 7.24897 45.37 7.5234C44.0013 8.50983 43.5225 10.3372 44.2315 11.8684C45.017 13.5644 46.7315 14.6601 48.6007 14.6601C50.5509 14.6601 52.3531 13.6021 53.3027 11.8982C53.5157 11.5165 53.699 11.1227 53.8601 10.7214C56.7001 13.3937 58.6468 17.074 59.6519 21.6845C60.1035 23.7545 60.1383 25.6916 59.7566 27.4424C59.6423 27.9641 59.9731 28.4792 60.4948 28.593C60.5643 28.6086 60.6333 28.6157 60.7017 28.6157C61.1464 28.6157 61.5467 28.307 61.6454 27.8548C62.087 25.8301 62.0522 23.616 61.5411 21.2726C60.9883 18.7367 60.166 16.4557 59.0834 14.4385C59.7692 14.939 60.5869 15.2059 61.4379 15.2059C61.5301 15.2059 61.6227 15.2029 61.7149 15.1963C62.7849 15.1238 63.7623 14.6394 64.4677 13.8312C65.1727 13.0241 65.5211 11.9898 65.4486 10.9203C65.3761 9.85026 64.8917 8.87289 64.084 8.16793L61.6288 6.02436C59.6942 4.33498 57.2157 3.3415 54.6497 3.22669C54.4105 3.21612 54.1678 3.2136 53.9241 3.21863C53.5208 2.25033 52.6073 1.60328 51.5454 1.55091C50.4159 1.49451 49.3887 2.12646 48.9265 3.15821C48.6304 3.81835 48.2693 4.44526 47.8514 5.03037C45.5517 4.29319 43.026 3.91906 40.331 3.91906C37.5898 3.91906 35.0464 4.30276 32.7261 5.05807C31.2819 4.11947 29.6414 3.52126 27.9273 3.30675C27.9047 3.25741 27.8805 3.20806 27.8578 3.15821C27.3956 2.12646 26.3674 1.49602 25.2384 1.55091C24.1095 1.6063 23.1477 2.33492 22.7892 3.40696L22.7127 3.63456C22.683 3.72419 22.6573 3.81483 22.6301 3.90496C21.3133 4.38534 20.0786 5.11144 19.0328 6.02436L16.578 8.16743C14.9108 9.62316 14.7386 12.164 16.1943 13.8312C16.9869 14.7391 18.1007 15.2039 19.2206 15.2039C20.051 15.2039 20.8838 14.9476 21.5918 14.4279C20.9961 15.5337 20.481 16.718 20.0449 17.9749C19.7433 17.5731 19.3445 17.2508 18.8732 17.0363C18.1234 16.6954 17.287 16.6702 16.5176 16.9663C14.9793 17.5584 14.1973 19.3289 14.7744 20.914L16.4224 25.4419C16.5176 25.7042 16.4144 25.9998 16.1762 26.1448L15.1409 26.7768L12.2209 18.7539C11.6438 17.1692 9.90663 16.3152 8.34818 16.8505C7.56819 17.1179 6.9433 17.6748 6.5883 18.4185C6.23331 19.1617 6.19303 19.9976 6.47501 20.772L9.4187 28.8599L8.21927 29.0412C7.94383 29.083 7.67444 28.9233 7.57877 28.661L5.93068 24.1332C5.35413 22.548 3.61641 21.694 2.05795 22.2298C1.27847 22.4972 0.653581 23.0541 0.298585 23.7978C-0.0564105 24.541 -0.0966937 25.3769 0.184785 26.1509L1.85654 30.7436C2.93965 33.7196 5.99866 35.5363 9.12967 35.0625L11.5431 34.6974L12.9415 38.5384C12.8695 38.6074 12.7995 38.6779 12.733 38.7514C11.2596 40.389 11.3926 42.9197 13.0301 44.3931C13.872 45.1509 14.795 45.8015 15.7784 46.3322L18.5625 53.982C19.0227 55.2459 20.2211 56.045 21.4785 56.045C21.7972 56.045 22.12 55.9937 22.4352 55.8854C23.2152 55.6175 23.8401 55.0611 24.1951 54.3174C24.5501 53.5741 24.5904 52.7383 24.3084 51.9638L22.8159 47.8635C23.9826 47.7623 25.11 47.4884 26.1816 47.0463C27.2435 49.0312 28.7949 50.7604 30.6918 52.1033C30.2204 54.6618 30.4118 57.1407 31.2658 59.4802C31.4088 59.8724 31.7794 60.1156 32.1742 60.1156C32.284 60.1156 32.3962 60.0965 32.5055 60.0567C33.007 59.8739 33.2654 59.3185 33.0821 58.817C32.4315 57.034 32.2291 55.1492 32.4768 53.1985C33.7221 53.8546 35.0751 54.3592 36.5046 54.686C36.487 56.3139 36.9548 57.8321 37.9271 59.3024C38.2308 59.7616 38.3375 60.312 38.2277 60.8513C38.1175 61.3906 37.8043 61.8554 37.3445 62.159C37.0062 62.3831 36.6139 62.5014 36.2106 62.5014C35.6985 62.5014 35.2085 62.3141 34.8309 61.9747C34.4336 61.6177 33.8228 61.6504 33.4658 62.0472C33.1088 62.4445 33.141 63.0558 33.5383 63.4128C34.2714 64.072 35.2206 64.435 36.2106 64.435C36.9946 64.435 37.7554 64.2054 38.411 63.7718C39.3013 63.1832 39.9086 62.2834 40.1221 61.2375C40.3351 60.1922 40.1286 59.1262 39.5395 58.2359C38.8421 57.1815 38.4851 56.1372 38.4412 55.0113C39.0611 55.0792 39.6915 55.115 40.331 55.115C41.1558 55.115 41.9736 55.0546 42.7787 54.9397C43.5476 58.3115 45.31 61.014 47.9204 62.7904C48.5866 63.2431 49.3625 63.4828 50.1652 63.4828C51.49 63.4828 52.7257 62.8297 53.4709 61.735C54.0711 60.8533 54.2922 59.7898 54.0928 58.7415C53.8934 57.6931 53.2977 56.7852 52.4155 56.185C51.9235 55.8496 51.5187 55.405 51.1994 54.8557C52.8093 55.692 54.5868 56.1054 56.5752 56.1054C56.6452 56.1054 56.7157 56.1049 56.7867 56.1039C56.8703 57.0697 57.4665 57.9011 58.3623 58.2898C58.7032 58.4373 59.0612 58.5098 59.4157 58.5098C60.0265 58.5098 60.6282 58.2948 61.1157 57.8809L65.072 54.5208C65.6999 53.9871 66.0373 53.2091 65.9975 52.3863ZM54.4528 5.15525C54.4896 5.15626 54.5268 5.15626 54.5636 5.15827C56.6936 5.25344 58.751 6.07824 60.3568 7.4806L62.8121 9.62366C63.2305 9.98923 63.4818 10.4958 63.5196 11.0507C63.5568 11.6051 63.3766 12.1409 63.011 12.5593C62.6454 12.9782 62.1388 13.2295 61.5845 13.2668C61.029 13.304 60.4938 13.1238 60.0753 12.7582L57.6201 10.6151C56.9574 10.0361 56.1674 9.63424 55.3199 9.43937C55.0374 9.16796 54.7459 8.90612 54.4463 8.65284C54.6462 7.49973 54.6517 6.31591 54.4528 5.15525ZM48.9562 6.7691C48.9632 6.76053 48.9708 6.75147 48.9773 6.74241C49.6631 5.89092 50.2412 4.95283 50.6909 3.94826C50.8958 3.49105 51.3248 3.47594 51.4512 3.48199C51.5776 3.48803 52.0031 3.54543 52.1617 4.02027L52.2382 4.24837C52.2649 4.32844 52.2881 4.40951 52.3123 4.49058C52.3143 4.49813 52.3168 4.50518 52.3188 4.51223C52.9593 6.65983 52.7091 8.99323 51.6139 10.956C51.0051 12.0482 49.8505 12.7265 48.6007 12.7265C47.4823 12.7265 46.4561 12.0704 45.9863 11.0557C45.666 10.3634 45.8821 9.53756 46.5009 9.09142C47.4214 8.42776 48.2462 7.64525 48.9562 6.7691ZM30.3891 5.97954C30.2285 6.05508 30.0694 6.13161 29.9113 6.21117C29.7199 6.01026 29.5356 5.80381 29.3604 5.5893C29.7109 5.69958 30.0543 5.82949 30.3891 5.97954ZM24.5461 4.24837L24.6226 4.02027C24.7817 3.54543 25.2067 3.48803 25.3331 3.48199C25.3437 3.48148 25.3557 3.48098 25.3693 3.48098C25.5275 3.48098 25.9051 3.52781 26.0934 3.94826C27.0119 5.99868 28.4611 7.77718 30.2834 9.09142C30.9022 9.53756 31.1188 10.3634 30.7985 11.0557C30.3282 12.0704 29.3025 12.726 28.1841 12.726C27.0391 12.726 25.9756 12.156 25.3366 11.2214C25.3321 11.2149 25.327 11.2078 25.3225 11.2013C25.2691 11.1217 25.2178 11.0406 25.1704 10.956C24.0304 8.91216 23.8028 6.46747 24.5461 4.24837ZM20.5862 12.7582C19.7221 13.513 18.4054 13.4234 17.6506 12.5593C16.8963 11.6952 16.9854 10.3785 17.8495 9.62366L20.3047 7.4806C20.8783 6.97957 21.5218 6.54905 22.2076 6.19758C22.1039 7.73337 22.3476 9.28075 22.9231 10.7184L20.5862 12.7582ZM20.0807 30.8247C20.4528 31.5513 20.8999 32.2412 21.4221 32.8897C22.1734 33.8223 23.0667 34.6597 24.0934 35.4004C23.7087 36.556 23.8366 37.7942 24.3829 38.828C23.6835 39.4886 22.904 39.8532 22.0581 39.9116C21.3093 39.963 20.5102 39.7817 19.7307 39.3869L17.2654 32.6138L19.349 31.3424C19.6053 31.1858 19.8495 31.0125 20.0807 30.8247ZM14.3232 42.9555C13.6933 42.3885 13.4954 41.5179 13.7507 40.7616L14.6535 43.2415C14.5417 43.1484 14.4319 43.0532 14.3232 42.9555ZM22.4498 53.484C22.3199 53.7549 22.0918 53.9584 21.8073 54.0565C21.2388 54.2514 20.5978 53.9211 20.3793 53.3204L14.9944 38.5254C14.9939 38.5238 14.9934 38.5228 14.9929 38.5213L13.3549 34.0212C13.0442 33.1677 12.167 32.647 11.2692 32.7825L8.84064 33.1501C6.616 33.4864 4.44322 32.1964 3.67381 30.082L2.00156 25.4892C1.89884 25.2067 1.91344 24.9016 2.04335 24.6302C2.17276 24.3588 2.40087 24.1558 2.68587 24.0576C3.25487 23.8623 3.89487 24.1926 4.11391 24.7938L5.76149 29.3216C6.17087 30.4455 7.32549 31.1314 8.5083 30.9521L9.95799 30.7331C10.4716 30.6555 10.9187 30.3544 11.1841 29.9073C11.4495 29.4606 11.4998 28.9238 11.3221 28.4354L8.29178 20.1099C8.18855 19.8274 8.20366 19.5223 8.33307 19.2508C8.46248 18.9794 8.69109 18.7765 8.97609 18.6783C9.54408 18.4835 10.1846 18.8133 10.4036 19.4145L13.4103 27.6756C13.588 28.164 13.9717 28.5427 14.4622 28.7144C14.9526 28.8861 15.4884 28.8292 15.932 28.5588L17.1838 27.7944C18.2045 27.1715 18.6481 25.9041 18.2392 24.7802L16.5911 20.2519C16.3726 19.6512 16.651 18.9865 17.212 18.7705C17.493 18.6622 17.7986 18.6713 18.072 18.7956C18.346 18.9205 18.5534 19.1446 18.6561 19.4271L19.201 20.9246C19.1743 21.0404 19.1461 21.1552 19.1209 21.2721C18.5172 24.039 18.5851 26.6202 19.3012 28.9163C19.0167 29.2149 18.6959 29.4752 18.3419 29.6912L16.2452 30.9712C15.4702 31.4446 15.1329 32.4073 15.4436 33.2603L18.0413 40.3985L20.5439 47.2744C20.5449 47.2764 20.5454 47.2784 20.5459 47.2804L22.4911 52.6245C22.5938 52.9075 22.5792 53.2126 22.4498 53.484ZM22.4745 45.9536C22.3592 45.9616 22.2424 45.9652 22.126 45.9687L20.5817 41.7248C20.9911 41.8099 21.4009 41.8538 21.8063 41.8538C21.9347 41.8538 22.0631 41.8497 22.191 41.8407C23.0551 41.7812 23.8617 41.5264 24.6065 41.0803C24.6377 42.5446 24.9116 43.955 25.393 45.2808C24.465 45.657 23.4876 45.8841 22.4745 45.9536ZM56.3985 42.1871C55.9388 45.1706 54.9161 47.3932 53.3057 48.8907C53.2383 48.937 53.1768 48.9929 53.1225 49.0564C52.0675 49.9769 50.7734 50.6028 49.2311 50.9411C49.2281 50.9416 49.2251 50.9421 49.2215 50.9426C49.1002 50.9693 48.9778 50.9945 48.8534 51.0177C48.7286 51.0403 48.6017 51.0524 48.4758 51.0524C48.4551 51.0524 48.435 51.0504 48.4149 51.0494C48.4008 51.0484 48.3872 51.0479 48.3736 51.0479C47.4259 51.0006 46.6268 50.3087 46.4521 49.3646C46.3524 48.8232 46.4692 48.2754 46.7814 47.8217C47.0936 47.368 47.5634 47.0634 48.1052 46.9637C49.8283 46.6454 51.6773 45.7542 52.3238 41.5597C52.481 40.542 53.3606 39.8119 54.3602 39.8119C54.4644 39.8119 54.5691 39.82 54.6754 39.8361C55.7988 40.0088 56.5717 41.0637 56.3985 42.1871ZM54.8421 36.4916C54.8995 36.9684 54.8133 37.4538 54.5938 37.8854C52.8616 37.7831 51.275 38.8209 50.6486 40.4C48.3272 41.3895 45.8861 42.0345 43.3754 42.3231C42.9555 41.112 42.0914 40.1065 40.9781 39.5042C46.6676 39.4327 51.3455 38.407 54.8421 36.4916ZM41.7218 43.9857C41.7218 45.7265 40.3059 47.1424 38.5651 47.1424C36.8244 47.1424 35.4084 45.7265 35.4084 43.9857C35.4084 42.245 36.8244 40.829 38.5651 40.829C40.3059 40.829 41.7218 42.245 41.7218 43.9857ZM25.8205 36.4845C28.6378 38.0268 32.217 38.9947 36.4608 39.3527C35.3933 39.8396 34.5227 40.6835 34.0025 41.7319C31.5473 41.1266 29.1988 40.1729 27.0114 38.8889C26.1564 38.3869 25.7072 37.4276 25.8205 36.4845ZM40.331 53.1814C32.7417 53.1814 26.5647 47.6515 26.5365 40.8447C28.7259 42.0708 31.0599 42.9933 33.4909 43.597C33.4814 43.7254 33.4748 43.8548 33.4748 43.9857C33.4748 46.7925 35.7584 49.0755 38.5651 49.0755C41.2873 49.0755 43.5169 46.9279 43.6489 44.238C45.8599 43.9792 48.0206 43.4641 50.1012 42.6977C49.4914 44.7395 48.5065 44.9228 47.7537 45.0618C46.7043 45.2552 45.7934 45.8463 45.1887 46.725C44.5834 47.6042 44.3568 48.6661 44.5507 49.7155C44.7295 50.6843 45.2491 51.5167 45.9707 52.0993C44.2073 52.8098 42.2913 53.1814 40.331 53.1814ZM51.3273 57.7832C51.7825 58.0929 52.0902 58.5612 52.1929 59.1025C52.2956 59.6433 52.1818 60.1917 51.8722 60.6469C51.4875 61.2118 50.8495 61.5492 50.1652 61.5492C49.7518 61.5492 49.352 61.4253 49.008 61.1917C46.8252 59.7058 45.3408 57.4237 44.6751 54.5596C46.0366 54.2046 47.3428 53.6804 48.5604 52.9986C48.9179 55.1442 49.863 56.7867 51.3273 57.7832ZM63.8197 53.0469L59.8639 56.4066C59.5637 56.6619 59.2516 56.5677 59.1317 56.5153C59.0114 56.4635 58.7294 56.2998 58.7102 55.9065L58.669 55.0485C58.6564 54.7882 58.5395 54.5435 58.3442 54.3713C58.1488 54.1985 57.8925 54.1119 57.6322 54.1311C57.2681 54.1583 56.9126 54.1719 56.5752 54.1719C54.407 54.1719 52.6023 53.6215 50.9759 52.4573C52.1098 52.0676 53.125 51.5187 54.0157 50.8147C55.0294 51.205 56.1704 51.3334 57.5511 51.2171C58.0697 51.1738 58.461 50.7271 58.4358 50.2075L58.4056 49.5826C58.387 49.1893 58.6513 48.9995 58.7661 48.936C58.8809 48.8726 59.1826 48.7492 59.5053 48.9738L63.7663 51.9376C63.9466 52.0625 64.0558 52.2599 64.0664 52.4789C64.0765 52.698 63.9868 52.9049 63.8197 53.0469ZM30.0205 18.3953C30.4853 18.3953 30.8957 18.059 30.9732 17.5851C31.0593 17.0579 30.7023 16.5609 30.1756 16.4743L27.4394 16.0257C26.9127 15.9391 26.4152 16.2966 26.3291 16.8233C26.2425 17.3505 26.5995 17.8475 27.1267 17.9341L28.4248 18.1471C27.9374 18.1964 27.5567 18.6083 27.5567 19.1088V20.6764C27.5567 21.2101 27.9898 21.6432 28.5235 21.6432C29.0578 21.6432 29.4903 21.2101 29.4903 20.6764V19.1088C29.4903 18.7166 29.2572 18.3802 28.9218 18.2282L29.8629 18.3827C29.9153 18.3913 29.9682 18.3953 30.0205 18.3953ZM34.3213 27.4324C34.1194 26.9379 33.5554 26.7002 33.0609 26.9021C32.5664 27.1036 32.3288 27.6675 32.5302 28.162C33.5675 30.7079 35.6496 32.1097 38.3924 32.1097C41.1352 32.1097 43.2168 30.7079 44.2536 28.162C44.455 27.6675 44.2179 27.103 43.7234 26.9021C43.2284 26.7002 42.6644 26.9384 42.463 27.4324C41.8502 28.9369 40.8079 29.8262 39.3592 30.0911V26.5119C39.5193 26.4666 39.6774 26.4107 39.8315 26.3422L42.0682 25.3477C42.7148 25.0602 43.1972 24.5048 43.391 23.824C43.5849 23.1432 43.4681 22.4171 43.0698 21.832C42.5713 21.0978 41.8235 20.5701 40.965 20.3455C39.2817 19.9049 37.5026 19.9049 35.8198 20.3455C34.9613 20.5701 34.2135 21.0978 33.715 21.8315C33.3167 22.4171 33.1999 23.1432 33.3938 23.824C33.5876 24.5048 34.07 25.0602 34.7166 25.3477L36.9533 26.3422C37.1074 26.4107 37.2655 26.4666 37.4256 26.5124V30.0911C35.9769 29.8262 34.9341 28.9369 34.3213 27.4324ZM35.5021 23.5813C35.3354 23.5068 35.2745 23.3693 35.2528 23.2943C35.2317 23.2187 35.211 23.0697 35.3133 22.9191C35.5494 22.5722 35.9029 22.3224 36.3093 22.2162C36.9905 22.0374 37.6915 21.9483 38.3924 21.9483C39.0928 21.9483 39.7938 22.0374 40.475 22.2162C40.8809 22.3224 41.2349 22.5722 41.4705 22.9191C41.5733 23.0697 41.5526 23.2187 41.5315 23.2943C41.5098 23.3693 41.4489 23.5068 41.2822 23.5813L39.0455 24.5758C38.6301 24.7606 38.1537 24.7601 37.7388 24.5758L35.5021 23.5813ZM50.4557 16.8233C50.3691 16.2966 49.8721 15.9396 49.3449 16.0257L46.6087 16.4743C46.082 16.5609 45.725 17.0579 45.8111 17.5851C45.8886 18.059 46.299 18.3953 46.7638 18.3953C46.8161 18.3953 46.8685 18.3913 46.9219 18.3827L47.8625 18.2282C47.5276 18.3802 47.294 18.7166 47.294 19.1083V20.6759C47.294 21.2101 47.7265 21.6427 48.2608 21.6427C48.7945 21.6427 49.2276 21.2101 49.2276 20.6759V19.1083C49.2276 18.6078 48.8469 18.1959 48.3595 18.1466L49.6581 17.9336C50.1848 17.8475 50.5418 17.3505 50.4557 16.8233Z" fill="black"/>
</g>
<defs>
<clipPath id="clip0_1591_25850">
<rect width="66.0012" height="66" fill="white" transform="translate(-0.000488281)"/>
</clipPath>
</defs>
</svg>
