<svg width="80" height="112" viewBox="0 0 80 112" fill="none" xmlns="http://www.w3.org/2000/svg">
<g clip-path="url(#clip0_1585_21458)">
<rect width="80" height="112" rx="6" fill="#DDAF89"/>
<path d="M61.4812 52.234C61.3482 51.3818 60.6254 50.7535 59.7627 50.7535L20.2372 50.7518C19.3744 50.7518 18.6517 51.38 18.5187 52.2323L15.5209 71.477C15.3564 72.5375 16.1702 73.4948 17.2447 73.4948L62.757 73.4965C63.8297 73.4965 64.6452 72.5375 64.479 71.4788L61.4812 52.234ZM55.75 64.75C55.75 66.6838 54.1837 68.25 52.25 68.25C50.3162 68.25 48.75 66.6838 48.75 64.75H31.2499C31.2499 66.6838 29.6837 68.25 27.7499 68.25C25.8162 68.25 24.2499 66.6838 24.2499 64.75C24.2499 63.6983 24.7224 62.7673 25.4574 62.125C24.7224 61.4828 24.2499 60.5518 24.2499 59.5C24.2499 57.5663 25.8162 56 27.7499 56C29.6837 56 31.2499 57.5663 31.2499 59.5H48.75C48.75 57.5663 50.3162 56 52.25 56C54.1837 56 55.75 57.5663 55.75 59.5C55.75 60.5518 55.2774 61.4828 54.5424 62.125C55.2774 62.7673 55.75 63.6983 55.75 64.75Z" fill="white"/>
<path d="M57.5 46.277V48.125H22.5V46.277C22.5 44.1298 24.2413 42.3885 26.3885 42.3885C27.3055 42.3885 28.1385 42.7193 28.8035 43.2513C29.5788 41.5975 31.2465 40.4443 33.1943 40.4443C34.3422 40.4443 35.3835 40.859 36.2148 41.524C36.6085 39.795 38.1502 38.5 40 38.5C41.8498 38.5 43.3915 39.795 43.7852 41.524C44.6165 40.859 45.6577 40.4443 46.8057 40.4443C48.7535 40.4443 50.4213 41.5975 51.1965 43.2513C51.8615 42.7193 52.6945 42.3885 53.6115 42.3885C55.7588 42.3885 57.5 44.1298 57.5 46.277Z" fill="white"/>
<path d="M71.6089 16.2628C71.2214 15.6394 70.4019 15.4481 69.7784 15.8356L68.0579 13.0675C68.6814 12.68 68.8726 11.8605 68.4851 11.237C68.0976 10.6136 67.2781 10.4223 66.6546 10.8098C66.284 11.0403 66.0676 11.4235 66.0333 11.8274C65.656 11.6794 65.2165 11.7037 64.8458 11.9341C64.2224 12.3216 64.0311 13.1412 64.4186 13.7646C64.8061 14.388 65.6257 14.5793 66.2491 14.1918L66.2569 14.1869L67.9775 16.955L67.9696 16.9599C67.3462 17.3474 67.1549 18.1669 67.5424 18.7904C67.9299 19.4138 68.7495 19.6051 69.3729 19.2176C69.7436 18.9872 69.96 18.6039 69.9943 18.2001C70.3716 18.348 70.811 18.3237 71.1817 18.0933C71.8052 17.7058 71.9964 16.8863 71.6089 16.2628Z" fill="white" fill-opacity="0.5"/>
<path d="M47.853 29.367C48.0498 28.6512 47.6289 27.9114 46.913 27.7146L47.7865 24.5362C48.5024 24.7329 49.2422 24.312 49.4389 23.5962C49.6356 22.8803 49.2148 22.1405 48.4989 21.9438C48.0732 21.8268 47.6401 21.9294 47.3167 22.1813C47.1675 21.7995 46.8475 21.49 46.4219 21.373C45.706 21.1763 44.9662 21.5972 44.7695 22.313C44.5728 23.0289 44.9936 23.7687 45.7095 23.9654L45.7185 23.9679L44.845 27.1463L44.8361 27.1439C44.1202 26.9472 43.3804 27.368 43.1837 28.0839C42.9869 28.7997 43.4078 29.5396 44.1237 29.7363C44.5493 29.8532 44.9825 29.7506 45.3059 29.4988C45.4551 29.8805 45.775 30.1901 46.2006 30.307C46.9165 30.5038 47.6563 30.0829 47.853 29.367Z" fill="white" fill-opacity="0.5"/>
<path d="M28.1632 12.513C28.0117 11.7669 27.2841 11.2849 26.538 11.4364L25.8654 8.12384C26.6115 7.97234 27.0935 7.24472 26.942 6.49866C26.7905 5.7526 26.0629 5.2706 25.3168 5.42209C24.8732 5.51216 24.5244 5.80662 24.3452 6.1868C24.0319 5.90663 23.5958 5.77154 23.1522 5.86162C22.4061 6.01311 21.9241 6.74073 22.0756 7.48679C22.2271 8.23285 22.9547 8.71485 23.7008 8.56336L23.7102 8.56146L24.3828 11.874L24.3734 11.8759C23.6274 12.0274 23.1454 12.755 23.2969 13.5011C23.4483 14.2472 24.176 14.7292 24.922 14.5777C25.3656 14.4876 25.7145 14.1931 25.8937 13.813C26.207 14.0931 26.643 14.2282 27.0866 14.1382C27.8327 13.9867 28.3147 13.259 28.1632 12.513Z" fill="white" fill-opacity="0.5"/>
<path d="M9.53973 32.5897C10.0656 32.0083 10.0207 31.1108 9.43938 30.5848L11.7744 28.0037C12.3557 28.5296 13.2533 28.4847 13.7792 27.9034C14.3051 27.3221 14.2602 26.4245 13.6789 25.8986C13.3332 25.5859 12.8761 25.4766 12.4514 25.5603C12.4923 25.1294 12.3379 24.6854 11.9923 24.3727C11.4109 23.8468 10.5133 23.8917 9.98743 24.4731C9.46153 25.0544 9.50645 25.952 10.0878 26.4779L10.0951 26.4845L7.76004 29.0656L7.75275 29.059C7.17141 28.5331 6.27383 28.578 5.74792 29.1594C5.222 29.7407 5.26693 30.6383 5.84827 31.1642C6.19388 31.4769 6.65111 31.5862 7.07573 31.5025C7.0349 31.9334 7.18925 32.3773 7.53489 32.69C8.11623 33.2159 9.01382 33.171 9.53973 32.5897Z" fill="white" fill-opacity="0.5"/>
<path d="M10.6944 87.3696C11.2242 86.8121 11.545 86.0988 11.6167 85.3392C11.5521 85.3495 11.4875 85.3612 11.4227 85.3752C9.91763 85.7011 8.85076 86.9493 8.68473 88.3981C9.45057 88.2922 10.1581 87.9341 10.6944 87.3696Z" fill="white" fill-opacity="0.5"/>
<path d="M13.6321 90.2223C13.1023 90.7798 12.7815 91.4931 12.7098 92.2527C12.7744 92.2424 12.839 92.2306 12.9037 92.2166C14.4089 91.8907 15.4757 90.6426 15.6418 89.1938C14.8756 89.2995 14.1685 89.6577 13.6321 90.2223Z" fill="white" fill-opacity="0.5"/>
<path d="M12.0674 85.2977C12.0027 86.1878 11.6373 87.0269 11.0188 87.6778C10.4804 88.2443 9.79061 88.6297 9.03673 88.793C8.91348 88.8197 8.78807 88.8381 8.6618 88.8528C8.66566 89.0788 8.69114 89.3077 8.7408 89.5371C9.10311 91.2103 10.6067 92.3417 12.2589 92.2944C12.3236 91.4043 12.689 90.5653 13.3075 89.9144C13.9339 89.2552 14.7654 88.8405 15.6644 88.7371C15.6604 88.5118 15.635 88.2836 15.5855 88.055C15.2232 86.3818 13.7196 85.2504 12.0674 85.2977Z" fill="white" fill-opacity="0.5"/>
<path d="M28.7539 102.476C28.7075 101.708 28.4045 100.987 27.8979 100.417C27.8614 100.471 27.8259 100.526 27.792 100.583C27.0039 101.906 27.1892 103.538 28.1356 104.647C28.5805 104.015 28.8011 103.253 28.7539 102.476Z" fill="white" fill-opacity="0.5"/>
<path d="M32.8438 102.273C32.8903 103.04 33.1932 103.761 33.6998 104.332C33.7363 104.277 33.7719 104.222 33.8057 104.165C34.5938 102.842 34.4085 101.211 33.462 100.101C33.0169 100.734 32.7966 101.495 32.8438 102.273Z" fill="white" fill-opacity="0.5"/>
<path d="M28.1749 100.059C28.7818 100.713 29.1463 101.552 29.2005 102.449C29.2478 103.229 29.0592 103.996 28.6645 104.659C28.6 104.767 28.528 104.871 28.4525 104.974C28.6205 105.125 28.8053 105.263 29.0069 105.383C30.4778 106.259 32.3307 105.931 33.4228 104.69C32.8159 104.036 32.4515 103.196 32.3972 102.3C32.3422 101.392 32.606 100.501 33.1435 99.7733C32.976 99.6225 32.7917 99.4855 32.5908 99.3658C31.1199 98.4897 29.267 98.8179 28.1749 100.059Z" fill="white" fill-opacity="0.5"/>
<path d="M48.69 86.9489C49.3835 87.2814 50.1609 87.3671 50.9057 87.2016C50.876 87.1433 50.8449 87.0854 50.8117 87.0281C50.0384 85.6964 48.5225 85.0654 47.0929 85.3533C47.4294 86.0494 47.9878 86.6124 48.69 86.9489Z" fill="white" fill-opacity="0.5"/>
<path d="M46.8799 90.6223C46.1864 90.2898 45.409 90.2041 44.6642 90.3696C44.6939 90.4279 44.7249 90.4858 44.7582 90.5431C45.5315 91.8748 47.0474 92.5058 48.477 92.2179C48.1406 91.5214 47.5821 90.9588 46.8799 90.6223Z" fill="white" fill-opacity="0.5"/>
<path d="M51.0846 87.6176C50.2177 87.83 49.307 87.7406 48.4973 87.3524C47.7926 87.0145 47.2135 86.4768 46.8262 85.8098C46.7629 85.7007 46.7067 85.5871 46.6539 85.4714C46.4401 85.5447 46.2301 85.6394 46.0271 85.7572C44.5466 86.6169 43.9329 88.3957 44.4864 89.9532C45.3532 89.7408 46.264 89.8302 47.0737 90.2184C47.8936 90.6115 48.544 91.2751 48.9191 92.0986C49.1323 92.0255 49.3415 91.931 49.5438 91.8136C51.0243 90.9539 51.6381 89.1751 51.0846 87.6176Z" fill="white" fill-opacity="0.5"/>
<path d="M65.2966 97.7227C66.0651 97.6925 66.7924 97.4048 67.3734 96.9104C67.3199 96.8727 67.2654 96.836 67.2092 96.8009C65.9031 95.9852 64.2681 96.136 63.1389 97.0588C63.7617 97.5169 64.5185 97.7535 65.2966 97.7227Z" fill="white" fill-opacity="0.5"/>
<path d="M65.4136 101.816C64.6451 101.847 63.9179 102.134 63.3368 102.629C63.3903 102.666 63.4448 102.703 63.501 102.738C64.8072 103.554 66.4422 103.403 67.5714 102.48C66.9484 102.022 66.1918 101.786 65.4136 101.816Z" fill="white" fill-opacity="0.5"/>
<path d="M67.7258 97.1949C67.0588 97.7878 66.2119 98.1345 65.3146 98.1699C64.5337 98.2007 63.7705 97.996 63.1163 97.5874C63.0093 97.5206 62.9065 97.4464 62.8058 97.3688C62.651 97.5336 62.5096 97.7154 62.3853 97.9145C61.4784 99.3666 61.7674 101.226 62.9848 102.344C63.6518 101.751 64.4987 101.404 65.3959 101.369C66.3046 101.333 67.1897 101.616 67.9063 102.168C68.0605 102.004 68.2013 101.823 68.3253 101.624C69.2322 100.172 68.9432 98.3129 67.7258 97.1949Z" fill="white" fill-opacity="0.5"/>
</g>
<defs>
<clipPath id="clip0_1585_21458">
<rect width="80" height="112" fill="white"/>
</clipPath>
</defs>
</svg>
