<svg width="375" height="812" viewBox="0 0 375 812" fill="none" xmlns="http://www.w3.org/2000/svg">
<path fill-rule="evenodd" clip-rule="evenodd" d="M64.2762 57.5574C63.8845 57.8475 63.4672 58.3748 63.3256 58.7586C63.1012 59.3667 63.1242 59.6212 63.5344 61.0534C63.788 61.9393 64.1441 63.1026 64.3254 63.6384L64.6552 64.6126L64.0005 65.1904C61.5386 67.3633 59.7581 71.0829 59.3014 75.0075C59.152 76.2923 59.2268 79.2241 59.4471 80.7201L59.5489 81.4108L58.6285 81.0559C58.1221 80.8609 57.1013 80.6439 56.3599 80.5738C54.5564 80.4034 52.3569 80.9857 50.7882 82.0487C50.1984 82.4484 49.6546 82.754 49.5797 82.7279C49.5046 82.7017 48.7424 81.9444 47.886 81.0448C46.1227 79.1929 45.5061 78.8838 44.1602 79.1771C42.6895 79.4976 41.8235 80.8301 42.1227 82.3125C42.2794 83.0893 42.5123 83.4166 44.1461 85.1563C45.1615 86.2376 46.028 87.1641 46.0718 87.2154C46.1154 87.2666 45.893 87.8691 45.5773 88.5542C45.2619 89.2393 44.7991 90.6168 44.5489 91.6152C43.1415 97.2306 43.8948 102.875 46.7074 107.788C47.1598 108.578 48.8102 110.827 50.3752 112.787C59.0846 123.694 65.0184 133.751 70.1451 146.297C70.8205 147.949 71.5934 149.554 71.9033 149.946C72.563 150.781 73.6985 151.44 74.9537 151.715L75.87 151.915L100.76 146.492L125.65 141.069L126.524 140.424C127.588 139.639 128.442 138.186 128.569 136.947C128.62 136.448 128.612 135.194 128.551 134.162C128.139 127.225 128.526 117.827 129.526 110.499C130.321 104.665 131.067 100.875 132.697 94.3745C134.296 87.999 134.248 84.6792 132.493 80.0903C131.162 76.6111 129.022 73.6717 126.008 71.1838L124.891 70.2616L125.446 67.5397C126.036 64.6492 126.012 63.906 125.299 62.9891C124.248 61.6369 122 61.7169 120.944 63.144C120.74 63.4203 120.381 64.5438 120.146 65.6407C119.906 66.7628 119.615 67.6425 119.481 67.6518C119.349 67.661 118.618 67.5751 117.855 67.461C114.984 67.0319 111.82 67.992 110.033 69.8347L109.329 70.5611L108.673 68.6619C108.311 67.6172 107.718 66.1948 107.354 65.5009C105.682 62.3177 102.853 59.5346 100.046 58.3114C99.3469 58.0067 98.7583 57.6732 98.7384 57.5703C98.7185 57.4676 98.6312 56.3076 98.5444 54.9925C98.4302 53.2623 98.3003 52.4382 98.0745 52.0109C97.3479 50.6354 95.7607 50.1046 94.4294 50.7919C93.0304 51.5139 92.7555 52.273 92.9669 54.8304C93.1681 57.2669 93.2876 57.0386 91.4706 57.6933C90.59 58.0104 89.4671 58.5282 88.9751 58.8434C86.3172 60.5465 84.1321 63.6309 83.174 67.0314C82.9873 67.6941 82.8086 68.2762 82.7769 68.3254C82.745 68.3743 82.4024 68.0259 82.0157 67.5506C79.3808 64.3143 75.2002 62.1451 71.7603 62.2299C71.0786 62.2466 70.344 62.2649 70.1277 62.2702C69.7758 62.279 69.6667 62.0742 69.0807 60.3031C68.3107 57.9762 67.8882 57.4267 66.6199 57.1011C65.527 56.8205 65.1794 56.8883 64.2762 57.5574ZM73.9026 72.8815C77.0717 73.0966 80.0796 75.4606 82.1249 79.3443C82.5406 80.1335 82.8596 81.1324 83.2322 82.8108C83.6998 84.9163 83.737 85.3457 83.5813 86.8228C83.121 91.1901 80.5239 94.2111 77.0933 94.3699C75.4273 94.4469 73.9152 94.0223 72.3875 93.0483C70.7836 92.0257 69.6724 90.8675 68.5928 89.0925C67.0324 86.527 66.28 83.7604 66.3832 80.968C66.5672 75.9802 69.713 72.5972 73.9026 72.8815ZM97.0998 68.1749C98.6339 68.5459 100.268 69.6398 101.384 71.0429C102.716 72.7176 103.283 73.9417 103.793 76.2392C104.654 80.1198 104.134 83.6211 102.273 86.4685C100.358 89.3978 97.8093 90.6033 94.8871 89.9615C93.5073 89.6584 91.6482 88.4315 90.6256 87.1492C89.2205 85.3876 88.4151 83.5424 88.0283 81.1991C87.6226 78.7414 87.6629 77.1966 88.188 75.0633C88.8416 72.4081 90.3323 70.1665 92.2632 68.9352C93.5317 68.1262 95.5721 67.8056 97.0998 68.1749ZM72.6354 79.0788C71.8891 80.2305 72.0009 83.0507 72.8701 84.9922C73.7607 86.9823 75.7675 88.9056 76.7333 88.6952C77.6788 88.4892 78.1467 86.2607 77.6872 84.1519C76.8661 80.3833 73.791 77.2954 72.6354 79.0788ZM94.5197 74.5391C93.932 75.3286 93.4739 77.026 93.476 78.4048C93.4769 78.95 93.6748 80.1415 93.9158 81.0524C94.2656 82.3751 94.4858 82.8675 95.0081 83.4963C96.1919 84.9215 97.1079 84.6016 97.9766 82.4601C98.5722 80.9912 98.6359 79.5765 98.197 77.5536C97.7876 75.6655 97.3522 74.806 96.4605 74.1244C95.7269 73.5636 95.1548 73.6857 94.5197 74.5391ZM60.4637 92.4618C62.8883 92.8054 65.5929 94.5537 67.577 97.0601C69.0506 98.9218 69.6772 100.139 70.2811 102.315C71.143 105.42 70.8619 108.043 69.4377 110.185C68.3506 111.82 67.2478 112.497 65.0446 112.881C63.6157 113.13 63.1694 113.127 62.0678 112.857C57.8209 111.815 53.7845 107.304 52.7174 102.407C51.7952 98.1747 53.31 94.3234 56.4459 92.9278C57.4626 92.4753 59.1654 92.2777 60.4637 92.4618ZM117.834 79.6542C120.774 79.7668 123.211 81.7143 124.461 84.9505C126.13 89.2692 125.09 95.3591 122.096 98.8005C120.631 100.484 120.042 100.828 117.759 101.331C115.542 101.821 114.855 101.75 113.242 100.865C109.74 98.9426 107.946 93.6074 109.068 88.451C110.021 84.068 112.852 80.6182 116.223 79.7313C116.476 79.6645 117.201 79.6298 117.834 79.6542ZM58.3495 98.6853C57.8635 99.9415 58.4326 102.399 59.6415 104.264C60.9154 106.228 63.3737 107.788 64.3994 107.281C65.043 106.964 65.2099 105.834 64.8507 104.228C64.1405 101.053 61.3137 97.9783 59.2108 98.0941C58.6602 98.1243 58.5329 98.2116 58.3495 98.6853ZM116.266 86.2125C114.722 88.0143 114.121 90.7383 114.692 93.354C115.355 96.3944 116.555 96.8197 118.123 94.5694C119.443 92.6735 119.869 89.8264 119.195 87.4049C118.59 85.2308 117.491 84.7835 116.266 86.2125ZM93.3074 98.6963C96.1287 98.755 99.3902 99.9713 101.516 101.757C103.421 103.358 104.984 105.722 105.882 108.361L106.241 109.414L107.752 109.803C109.515 110.256 111.879 111.569 113.166 112.808C113.657 113.281 114.461 114.282 114.952 115.031C115.792 116.314 115.878 116.545 116.408 118.934C116.894 121.124 116.951 121.659 116.821 122.821C116.305 127.444 114.018 130.821 109.977 132.926C108.961 133.456 107.844 133.73 97.7859 135.922C86.7673 138.323 86.7059 138.334 85.1646 138.233C82.822 138.081 81.3794 137.608 79.3588 136.331C76.431 134.481 74.809 132.29 73.8997 128.957C72.7247 124.651 73.7959 120.419 76.8537 117.286C77.4398 116.686 78.1821 116.012 78.5033 115.789C79.0406 115.415 79.0798 115.304 78.9955 114.399C78.8125 112.434 78.93 110.712 79.3743 108.845C79.7596 107.227 80.0145 106.654 81.0659 105.04C81.7467 103.995 82.7016 102.788 83.1877 102.357C84.2524 101.415 86.3487 100.147 87.7278 99.612C89.0413 99.1022 91.7173 98.6631 93.3074 98.6963ZM88.5611 105.474C85.9611 107.05 84.6289 109.406 84.6371 112.414C84.6387 112.968 84.707 113.729 84.789 114.105C85.0298 115.21 84.824 116.692 84.2751 117.805C83.8786 118.608 83.3921 119.151 82.1102 120.22C80.368 121.674 79.6866 122.634 79.3133 124.163C78.4238 127.806 80.7747 131.598 84.4155 132.393L85.6704 132.667L96.1987 130.427C106.468 128.241 106.756 128.17 107.917 127.525C110.739 125.957 111.991 121.914 110.574 118.942C109.573 116.844 108.056 115.705 105.448 115.092C102.731 114.453 101.381 113.178 100.459 110.382C99.5005 107.475 98.111 105.868 95.7184 104.9C93.6617 104.069 90.456 104.326 88.5611 105.474Z" fill="#696A69" fill-opacity="0.05"/>
<path fill-rule="evenodd" clip-rule="evenodd" d="M289.303 619.767C288.727 619.89 288.003 620.262 287.655 620.613C287.104 621.171 287.001 621.463 286.735 623.246C286.57 624.35 286.378 625.81 286.309 626.491L286.183 627.73L285.173 628.038C281.376 629.198 277.553 632.403 275.083 636.499C274.275 637.839 272.887 641.107 272.38 642.866L272.145 643.678L271.311 642.825C270.852 642.356 269.837 641.606 269.057 641.157C267.158 640.065 264.447 639.604 262.189 639.989C261.339 640.133 260.588 640.197 260.519 640.131C260.449 640.065 259.99 638.848 259.499 637.428C258.488 634.503 257.965 633.854 256.337 633.502C254.559 633.118 252.938 634.152 252.524 635.935C252.307 636.87 252.399 637.347 253.324 640.083C253.899 641.783 254.388 643.238 254.41 643.317C254.433 643.395 253.886 643.947 253.195 644.544C252.505 645.141 251.305 646.426 250.53 647.401C246.166 652.882 244.165 659.479 244.797 666.301C244.898 667.399 245.586 670.705 246.325 673.648C250.439 690.031 251.924 704.086 251.274 720.479C251.189 722.638 251.235 724.793 251.379 725.381C251.686 726.632 252.605 727.926 253.848 728.858L254.755 729.539L284.854 736.041L314.953 742.543L316.237 742.271C317.801 741.939 319.469 740.767 320.23 739.466C320.536 738.941 321.156 737.556 321.606 736.387C324.63 728.538 329.767 718.378 334.54 710.805C338.34 704.776 341.06 700.974 346.112 694.629C351.067 688.407 352.679 684.725 353.048 678.789C353.328 674.289 352.447 669.978 350.379 665.726L349.613 664.15L351.588 661.429C353.686 658.54 354.032 657.709 353.707 656.342C353.229 654.325 350.716 653.286 348.839 654.329C348.476 654.531 347.517 655.589 346.709 656.68C345.883 657.796 345.122 658.619 344.969 658.562C344.82 658.506 344.059 658.045 343.277 657.537C340.333 655.625 336.372 655.097 333.483 656.231L332.344 656.678L332.574 654.257C332.7 652.925 332.761 651.06 332.708 650.113C332.464 645.768 330.748 641.283 328.273 638.529C327.657 637.842 327.176 637.18 327.206 637.057C327.236 636.933 327.721 635.612 328.285 634.119C329.027 632.156 329.297 631.183 329.263 630.599C329.153 628.719 327.673 627.338 325.864 627.428C323.963 627.522 323.28 628.221 322.231 631.145C321.231 633.93 321.477 633.738 319.15 633.549C318.022 633.457 316.527 633.464 315.828 633.565C312.051 634.109 308.101 636.412 305.342 639.678C304.804 640.315 304.316 640.866 304.257 640.905C304.197 640.943 303.995 640.387 303.808 639.669C302.532 634.783 299.02 630.297 295.194 628.666C294.435 628.343 293.618 627.995 293.378 627.892C292.986 627.725 292.969 627.445 293.212 625.2C293.531 622.25 293.342 621.433 292.11 620.439C291.048 619.582 290.632 619.482 289.303 619.767ZM292.211 641.476C295.589 643.301 297.713 647.414 298.016 652.718C298.077 653.796 297.927 655.056 297.496 657.092C296.955 659.647 296.781 660.138 295.869 661.688C293.173 666.269 288.802 668.295 284.948 666.75C283.077 666 281.627 664.774 280.434 662.935C279.183 661.005 278.541 659.172 278.243 656.675C277.813 653.066 278.372 649.641 279.885 646.616C282.588 641.213 287.744 639.062 292.211 641.476ZM320.088 647.919C321.589 649.097 322.838 651.121 323.363 653.226C323.988 655.739 323.999 657.372 323.408 660.159C322.41 664.866 320.082 668.463 316.607 670.667C313.033 672.935 309.625 672.985 306.732 670.813C305.366 669.788 303.936 667.504 303.454 665.579C302.792 662.933 302.831 660.497 303.58 657.721C304.366 654.81 305.184 653.128 306.831 651.041C308.881 648.443 311.645 646.721 314.386 646.332C316.187 646.077 318.592 646.746 320.088 647.919ZM287.71 647.668C286.312 648.563 285.021 651.726 285.004 654.301C284.986 656.94 286.229 660.065 287.397 660.318C288.54 660.565 290.172 658.344 290.724 655.79C291.71 651.227 289.875 646.283 287.71 647.668ZM314.059 653.637C313.017 654.213 311.662 655.853 310.973 657.373C310.701 657.974 310.321 659.386 310.13 660.511C309.851 662.143 309.847 662.796 310.106 663.751C310.694 665.915 311.862 666.021 313.891 664.097C315.283 662.778 316.062 661.251 316.593 658.802C317.089 656.517 317.041 655.351 316.402 654.153C315.876 653.168 315.186 653.016 314.059 653.637ZM267.612 656.312C270.107 657.906 272.206 661.188 273.132 664.944C273.819 667.734 273.899 669.389 273.472 672.089C272.863 675.943 271.239 678.691 268.599 680.338C266.584 681.594 265.031 681.787 262.415 681.106C260.718 680.664 260.229 680.436 259.153 679.586C255.003 676.31 252.824 669.316 254.105 663.386C255.212 658.261 258.809 654.777 262.959 654.811C264.304 654.822 266.276 655.458 267.612 656.312ZM337.141 670.96C340.319 672.558 342.024 675.926 341.777 680.118C341.447 685.713 337.25 691.901 332.231 694.191C329.776 695.312 328.956 695.395 326.192 694.806C323.508 694.234 322.788 693.811 321.457 692.027C318.568 688.154 319.269 681.377 323.088 676.258C326.335 671.907 331.178 669.525 335.33 670.238C335.643 670.291 336.457 670.616 337.141 670.96ZM262.166 662.109C261.002 663.249 260.396 666.243 260.791 668.902C261.208 671.706 263.13 674.656 264.512 674.612C265.379 674.585 266.13 673.424 266.54 671.474C267.35 667.62 265.782 662.816 263.41 661.889C262.789 661.646 262.606 661.679 262.166 662.109ZM332.129 677.4C329.527 678.611 327.501 681.311 326.817 684.479C326.022 688.161 327.13 689.232 329.982 687.538C332.385 686.111 334.281 683.188 334.753 680.182C335.178 677.484 334.193 676.44 332.129 677.4ZM300.616 679.645C303.69 681.124 306.668 684.099 308.111 687.133C309.404 689.851 309.938 693.239 309.604 696.597L309.47 697.937L310.938 699.123C312.649 700.506 314.592 703.137 315.387 705.148C315.69 705.915 316.072 707.421 316.236 708.493C316.517 710.328 316.496 710.625 315.882 713.523C315.319 716.179 315.113 716.797 314.388 718.012C311.502 722.847 307.294 725.421 301.794 725.715C300.41 725.789 299.044 725.531 286.881 722.904C273.557 720.026 273.484 720.007 271.839 719.124C269.338 717.781 267.988 716.537 266.406 714.118C264.113 710.611 263.426 707.384 264.097 703.257C264.963 697.923 268.263 693.798 273.197 691.879C274.143 691.511 275.297 691.141 275.762 691.056C276.54 690.914 276.639 690.811 277 689.772C277.784 687.515 278.777 685.676 280.201 683.842C281.436 682.253 282.004 681.749 283.97 680.498C285.242 679.688 286.898 678.837 287.648 678.606C289.292 678.101 292.234 677.756 294.019 677.857C295.719 677.954 298.883 678.811 300.616 679.645ZM291.997 684.734C288.347 685.167 285.7 687.095 284.201 690.412C283.926 691.023 283.619 691.896 283.521 692.352C283.232 693.69 282.262 695.22 281.101 696.17C280.262 696.857 279.455 697.211 277.508 697.747C274.863 698.475 273.632 699.191 272.455 700.688C269.651 704.256 270.336 709.612 273.942 712.314L275.185 713.245L287.89 716.054C300.282 718.794 300.635 718.86 302.235 718.732C306.125 718.418 309.529 714.591 309.46 710.607C309.411 707.794 308.314 705.778 305.751 703.795C303.084 701.73 302.237 699.648 302.625 696.106C303.028 692.421 302.305 689.955 300.158 687.689C298.312 685.742 294.657 684.418 291.997 684.734Z" fill="#696A69" fill-opacity="0.05"/>
<path fill-rule="evenodd" clip-rule="evenodd" d="M105.891 180.648C100.132 182.503 96.7963 188.827 98.5087 194.643C98.8267 195.722 99.0507 196.644 99.007 196.69C98.8866 196.818 73.0322 216.003 72.3634 216.461C71.8384 216.82 71.651 216.765 70.4401 215.896C65.7396 212.523 59.0515 213.454 55.2242 218.014C51.1932 222.817 51.8616 229.838 56.7335 233.866C58.5249 235.347 61.0606 236.363 63.0285 236.387C63.7589 236.396 64.3671 236.493 64.3801 236.602C64.3931 236.711 64.2904 237.301 64.152 237.911C62.9181 243.357 66.0639 248.914 71.4516 250.804C73.5578 251.543 73.6912 251.554 76.5774 251.21C79.3568 250.878 79.6473 250.79 81.2552 249.786C84.4607 247.784 86.3911 244.514 86.6413 240.661C86.7468 239.035 86.4881 237.628 85.68 235.429C85.5874 235.177 89.8671 231.834 99.0296 225.002C106.447 219.472 112.621 214.931 112.751 214.913C112.88 214.894 113.519 215.254 114.172 215.712C114.825 216.17 116.203 216.826 117.234 217.169C118.984 217.751 119.308 217.769 122.065 217.44C124.887 217.104 125.099 217.037 126.774 215.956C132.156 212.481 133.682 205.55 130.229 200.268C128.419 197.5 125.055 195.49 121.721 195.185C120.232 195.049 120.186 194.999 120.492 193.822C120.867 192.377 120.791 189.934 120.32 188.295C118.563 182.173 111.983 178.686 105.891 180.648ZM108.875 250.555C106.374 251.721 104.689 253.571 103.772 256.157C103.285 257.531 103.245 258.069 103.486 260.015C103.699 261.744 103.935 262.555 104.489 263.463C105.505 265.127 107.76 266.923 109.645 267.567C110.998 268.03 111.586 268.071 113.519 267.841C115.452 267.61 116.014 267.432 117.22 266.664C118.901 265.594 120.671 263.319 121.266 261.463C121.91 259.457 121.458 256.091 120.295 254.231C119.191 252.467 117.211 250.921 115.249 250.292C113.405 249.701 110.443 249.823 108.875 250.555ZM84.1037 262.158C82.5252 262.887 81.4038 263.857 80.231 265.509C76.8526 270.269 79.1506 277.101 84.7695 279.001C89.7737 280.693 94.8987 278.115 96.5382 273.081C97.2031 271.039 96.7596 267.698 95.5726 265.805C94.3339 263.83 93.0072 262.754 90.902 262.019C88.7517 261.268 85.9043 261.327 84.1037 262.158ZM135.467 256.068C131.584 257.835 129.412 262.021 130.243 266.135C131.022 269.991 133.979 272.748 137.954 273.324C143.721 274.159 148.856 269.211 148.194 263.458C147.899 260.896 147.025 259.21 145.166 257.619C143.142 255.886 141.128 255.201 138.595 255.385C137.385 255.472 136.215 255.728 135.467 256.068ZM111.44 276.633C103.853 278.572 97.3567 284.371 94.737 291.543C93.4257 295.133 93.0931 297.714 93.4274 301.708C93.9124 307.503 95.4739 310.828 99.0051 313.585C103.507 317.102 109.236 318.007 119.356 316.8C125.455 316.073 128.599 315.323 131.88 313.811C137.494 311.225 140.717 307.038 141.348 301.511C141.686 298.55 140.771 293.14 139.449 290.282C136.244 283.357 130.635 278.592 123.449 276.69C119.844 275.736 115.038 275.713 111.44 276.633Z" fill="#696A69" fill-opacity="0.05"/>
<path fill-rule="evenodd" clip-rule="evenodd" d="M266.751 93.7212C270.358 94.5737 273.715 96.7555 275.767 99.5798C276.881 101.113 278.702 104.776 279.015 106.116C279.092 106.446 279.529 106.879 279.984 107.078C280.44 107.277 282.315 108.217 284.15 109.167C287.082 110.684 287.79 111.21 289.987 113.499C292.146 115.749 292.654 116.488 293.716 118.922C295.132 122.169 295.7 124.459 296.068 128.414C296.326 131.184 296.315 131.264 295.38 133.779C290.679 146.422 278.105 153.085 262 151.466C259.957 151.26 257.46 150.911 256.451 150.689L254.614 150.286L255.828 147.917L257.042 145.549L255.132 145.182C252.97 144.768 249.97 143.273 247.236 141.246C244.692 139.362 244.16 138.788 243.352 137.052C242.05 134.255 242.688 131.243 245.401 127.369C246.468 125.844 247.114 124.567 247.367 123.478C248.436 118.877 250.712 114.454 253.422 111.712C255.735 109.372 257.756 108.209 260.973 107.367C263.141 106.799 263.532 106.596 263.861 105.872C264.529 104.403 264.434 101.139 263.656 98.8179C262.667 95.8677 262.596 95.0581 263.259 94.2943C263.914 93.5389 265.133 93.3388 266.751 93.7212ZM300.014 139.809C301.676 142.144 309.48 150.289 313.711 154.104C319.259 159.108 323.019 162.13 328.451 165.955C331.152 167.857 334.205 170.217 335.234 171.201C340.687 176.41 344.316 182.302 346.356 189.254C347.818 194.241 348.199 197.743 347.872 203.193C347.619 207.399 346.854 211.875 346.293 212.432C346.171 212.554 345.49 212.431 344.78 212.159C341.876 211.044 338.572 211.641 336.644 213.629C335.21 215.106 333.479 218.426 333.447 219.761C333.431 220.386 333.297 220.894 333.149 220.89C333 220.887 331.215 219.554 329.181 217.93C318.881 209.703 311.325 205.629 302.792 203.704C299.103 202.871 290.976 202.674 286.978 203.321C284.599 203.706 278.169 205.441 275.853 206.322C275.468 206.469 275.219 205.982 274.555 203.796L273.733 201.088L272.259 204.389C271.448 206.204 270.671 207.968 270.533 208.307C270.395 208.647 269.561 209.31 268.68 209.781C261.894 213.413 253.331 222.323 251.992 227.144C251.673 228.295 251.503 228.496 250.795 228.563C249.512 228.683 248.038 228.274 247.425 227.627C246.45 226.597 246.749 225.53 248.623 223.354C252.571 218.768 256.085 212.795 257.927 207.538C259.417 203.289 259.955 200.065 259.918 195.608C259.878 190.695 259.221 187.984 256.902 183.167C253.476 176.048 252.294 170.889 252.439 163.671C252.491 161.087 252.722 158.156 252.97 156.938C253.374 154.953 253.459 154.796 254.035 154.967C256.893 155.815 261.457 156.273 266.829 156.252C272.786 156.229 274.702 155.985 279.052 154.695C287.245 152.267 294.17 146.782 297.912 139.757C298.36 138.915 298.764 138.227 298.808 138.228C298.853 138.229 299.396 138.941 300.014 139.809ZM299.202 208.129C308.162 209.73 313.955 212.321 321.149 217.943C332.234 226.607 334.099 227.592 337.271 226.463C339.321 225.734 339.626 224.38 338.301 221.888C337.631 220.627 337.764 219.944 339.059 218.002C340.163 216.347 340.993 215.976 342.54 216.446C347.501 217.951 351.15 222.739 351.38 228.046C351.509 231.025 350.993 233.176 349.452 236.089C346.476 241.716 340.356 245.414 332.954 246.059C330.508 246.272 329.442 246.221 326.739 245.76C320.764 244.74 316.157 242.617 308.33 237.274C302.977 233.62 300.049 232.019 296.481 230.796C291.799 229.19 289.294 228.822 281.8 228.642C274.158 228.458 271.746 228.669 263.008 230.284C257.382 231.324 256.729 231.269 256.178 229.708C255.798 228.634 256.706 226.837 259.268 223.589C265.277 215.971 274.778 210.491 285.452 208.485C288.263 207.957 296.978 207.731 299.202 208.129Z" fill="#696A69" fill-opacity="0.05"/>
<path fill-rule="evenodd" clip-rule="evenodd" d="M285.781 300.137C284.48 300.07 282.379 300.615 281.038 301.368C275.315 304.581 275.045 312.872 280.543 316.556C281.38 317.116 281.992 317.36 283.446 317.712C284.459 317.958 285.457 318.137 285.665 318.111C286.02 318.066 285.939 318.418 284.314 324.003L282.586 329.943L280.277 329.631C263.704 327.394 247.491 335.795 239.965 350.52C239.323 351.776 238.597 353.293 238.351 353.892L237.904 354.981L237.055 354.589C235.815 354.016 234.774 352.944 234.104 351.547C233.089 349.432 233.101 349.351 235.758 340.518L238.08 332.802L239.09 331.263C242.099 326.68 246.225 323.943 251.476 323.046C254.06 322.605 255.556 322.612 257.755 323.073L259.369 323.412L260.199 320.559L261.029 317.706L260.311 317.499C257.672 316.736 252.595 316.644 249.522 317.303C242.979 318.708 237.152 322.897 233.778 328.62C232.347 331.049 231.557 333.269 229.473 340.717C227.603 347.399 227.481 347.929 227.529 349.215C227.674 353.17 229.685 356.844 232.903 359.034C234.235 359.94 234.553 360.064 239.469 361.593L244.634 363.201L245.068 362.206C246.358 359.248 248.089 357.254 250.537 355.906C253.321 354.373 256.398 354.069 259.627 355.008C265.271 356.65 268.738 361.607 268.263 367.355C268.191 368.218 268.069 369.143 267.991 369.412L267.849 369.9L279.289 373.228L290.729 376.556L291.574 374.811C294.272 369.24 299.875 366.716 305.75 368.425C311.856 370.202 315.322 375.794 314.232 382.113L314.02 383.34L318.268 384.519L322.516 385.699L323.024 384.18C323.689 382.192 324.503 378.078 324.716 375.629C324.975 372.642 324.786 369.143 324.191 365.914L323.651 362.985L324.21 362.457C325.169 361.552 326.72 359.286 327.431 357.753C329.569 353.136 328.936 347.305 325.844 343.13C320.977 336.559 312.911 334.926 305.874 339.086L304.495 339.901L299.207 337.03C293.591 333.98 290.011 332.179 288.953 331.871L288.307 331.684L290.045 325.708C291.68 320.09 291.801 319.748 292.076 319.976C292.237 320.109 293.176 320.496 294.162 320.834C295.649 321.345 296.182 321.44 297.285 321.392C300.492 321.251 303.098 319.702 304.723 316.972C306.921 313.281 306.219 308.799 302.977 305.818C301.882 304.811 301.527 304.602 300.035 304.089C297.876 303.347 296.182 303.292 294.393 303.904C293.106 304.344 293.091 304.344 292.793 303.866C292.288 303.057 291.431 302.231 290.433 301.591C289.405 300.933 287.074 300.204 285.781 300.137ZM287.77 307.129C289.166 308.911 288.501 311.187 286.352 311.986C284.905 312.524 283.035 311.5 282.603 309.932C282.337 308.965 282.752 307.476 283.456 306.875C284.781 305.744 286.777 305.862 287.77 307.129ZM299.002 310.214C299.896 311.038 300.154 311.856 299.899 313.061C299.506 314.914 297.977 315.826 296.152 315.295C295.522 315.112 295.096 314.853 294.815 314.482C293.503 312.75 293.914 310.685 295.758 309.748C296.957 309.139 297.999 309.289 299.002 310.214ZM255.844 360.509C254.451 360.605 252.295 361.854 251.483 363.034C249.644 365.707 250.239 369.512 252.77 371.261C253.854 372.011 256.26 372.601 257.342 372.382C258.719 372.105 260.154 371.234 260.912 370.216C262.888 367.562 262.601 364.225 260.201 361.939C259.406 361.182 257.091 360.422 255.844 360.509ZM302.085 373.937C300.61 374.04 299.177 374.72 298.025 375.866C297.49 376.398 297.289 376.812 296.874 378.24C296.436 379.746 296.401 380.115 296.601 381.106C297.046 383.306 298.518 384.864 300.773 385.52C302.491 386.02 303.793 385.89 305.276 385.072C308.978 383.03 309.39 377.692 306.039 375.186C304.953 374.373 303.304 373.853 302.085 373.937Z" fill="#696A69" fill-opacity="0.05"/>
<path fill-rule="evenodd" clip-rule="evenodd" d="M40.7729 691.809C36.9677 692.817 33.2899 694.281 32.2355 695.207L31.4698 695.88L32.1768 699.152C36.0093 716.893 44.2776 731.268 53.4626 736.16C55.8683 737.441 59.1894 738.41 61.8137 738.597C64.0466 738.756 69.1786 738.149 69.347 737.705C69.4129 737.532 69.4801 736.356 69.4963 735.092C69.5591 730.256 70.5881 725.368 72.4422 721.098C72.9625 719.9 73.3716 718.834 73.3514 718.729C73.3311 718.624 72.142 717.814 70.7091 716.929C67.1717 714.744 64.2475 711.999 61.3963 708.183C59.8349 706.094 58.4287 704.557 57.3346 703.745C53.8135 701.13 49.2756 700.336 44.9298 701.575C42.7094 702.208 42.6813 702.208 41.6624 701.519C40.3726 700.647 40.0066 699.211 40.7464 697.923C41.1559 697.21 41.6379 696.916 43.3478 696.334C46.923 695.117 51.7456 695.208 55.44 696.561C59.7432 698.137 62.4263 700.251 65.5294 704.511C66.5902 705.967 68.1759 707.877 69.054 708.755C70.7244 710.426 74.193 712.92 75.6939 713.53C76.5716 713.887 76.5729 713.886 78.0388 712.229C79.8497 710.182 82.6817 707.679 84.9483 706.123C85.8906 705.476 86.7533 704.823 86.8657 704.672C87.1601 704.276 85.3924 701.283 83.6284 699.189C78.1978 692.744 69.8837 689.312 59.7831 689.348C53.8942 689.368 46.2473 690.358 40.7729 691.809ZM158.411 669.114C143.658 673.008 135.156 679.464 131.588 689.478C130.86 691.523 130.013 695.651 130.24 696.053C130.325 696.205 131.339 696.532 132.492 696.781C135.252 697.376 138.548 698.547 141.23 699.886C143.396 700.967 143.403 700.968 144.071 700.319C146.565 697.898 148.68 693.698 150.156 688.237C151.714 682.472 153.808 679.076 157.547 676.245C160.139 674.283 162.444 673.259 165.658 672.642C168.965 672.006 170.484 672.147 171.287 673.165C172.194 674.313 172.248 675.297 171.466 676.453C170.768 677.485 170.762 677.487 168.332 677.75C163.764 678.244 160.23 680.335 157.808 683.977C156.683 685.669 156.192 686.868 155.421 689.794C154.138 694.667 152.767 697.694 150.242 701.235C149.097 702.841 148.172 704.22 148.187 704.299C148.203 704.379 148.963 705.169 149.878 706.055C153.234 709.308 156.788 714.876 158.444 719.475L158.885 720.699L161.772 719.971C165.211 719.104 167.286 718.139 169.785 716.244C179.116 709.171 182.406 693.496 179.258 671.117L178.72 667.29L177.749 667.004C176.239 666.56 172.877 666.603 168.519 667.124C164.105 667.651 163.512 667.768 158.411 669.114ZM63.467 759.058C62.8579 759.959 62.8115 760.245 63.1323 761.12C63.3372 761.678 63.7796 762.318 64.1153 762.541C64.7402 762.957 87.0539 764.337 88.5324 764.052C89.6172 763.842 90.4521 762.438 90.2167 761.22C89.81 759.114 89.6216 759.074 76.9141 758.395C70.571 758.057 65.1098 757.832 64.778 757.896C64.4461 757.96 63.856 758.483 63.467 759.058ZM159.444 742.481C148.183 747.744 147.951 747.899 148.345 749.938C148.59 751.205 150.004 752.181 151.234 751.932C151.726 751.833 156.75 749.594 162.398 746.958C171.478 742.72 172.726 742.063 173.17 741.287C173.452 740.796 173.599 740.028 173.505 739.541C173.28 738.376 171.63 737.246 170.521 737.498C170.076 737.599 165.091 739.841 159.444 742.481ZM114.271 751.291C109.653 752.883 108.162 754.822 109.089 758.03C110.354 762.406 114.876 765.785 119.711 765.966C125.027 766.166 130.344 759.768 129.664 753.991C129.342 751.257 127.985 750.097 124.727 749.772C122.805 749.58 116.635 750.476 114.271 751.291ZM76.2581 772.251C63.6995 777.739 63.7136 777.731 64.1113 779.789C64.3615 781.085 65.2117 781.867 66.404 781.897C66.8912 781.909 71.7978 779.92 79.0364 776.775C92.1049 771.098 92.1228 771.087 91.7272 769.04C91.4307 767.505 90.2299 766.696 88.7399 767.029C88.1426 767.162 82.5255 769.512 76.2581 772.251ZM150.22 755.854C149.475 756.955 149.742 758.477 150.826 759.308C151.533 759.849 152.951 759.949 164.521 760.266C172.609 760.487 177.709 760.499 178.182 760.297C179.142 759.886 179.857 758.515 179.655 757.47C179.569 757.026 179.134 756.373 178.688 756.021C177.943 755.431 176.861 755.35 165.284 755.019C158.357 754.821 152.263 754.738 151.74 754.835C151.109 754.952 150.599 755.294 150.22 755.854ZM84.6881 781.775C80.5652 785.837 77.1501 789.395 77.0989 789.682C76.7623 791.579 78.2288 793.236 79.9894 792.948C80.9045 792.798 82.041 791.796 88.3561 785.572C92.3753 781.611 95.7404 778.123 95.834 777.821C96.0728 777.051 95.702 775.442 95.1786 774.979C94.5926 774.46 93.4878 774.138 92.7692 774.276C92.4477 774.338 88.8114 777.713 84.6881 781.775ZM149.317 764.126C148.733 764.847 148.621 765.266 148.788 766.094C148.905 766.672 149.198 767.32 149.439 767.533C149.68 767.746 154.118 769.701 159.3 771.877C169.512 776.164 170.004 776.278 171.2 774.623C171.77 773.835 171.739 772.499 171.129 771.519C170.711 770.849 151.565 762.919 150.746 763.078C150.368 763.151 149.725 763.623 149.317 764.126Z" fill="#696A69" fill-opacity="0.05"/>
<path fill-rule="evenodd" clip-rule="evenodd" d="M178.875 512.131C167.511 510.852 157.781 513.03 151.916 518.165C148.496 521.159 147.129 523.392 146.451 527.092C145.949 529.832 146.141 531.815 147.259 535.418C148.507 539.444 151.22 544.296 156.613 552.149C165.751 565.456 170.662 570.078 176.885 571.23C180.707 571.938 184.466 570.956 188.753 568.133C193.606 564.937 198.479 559.251 202.268 552.366C208.766 540.558 210.938 529.111 207.578 524.381C206.665 523.096 203.641 520.65 201.017 519.073C195.543 515.784 186.7 513.012 178.875 512.131ZM172.487 525.004C176.274 527.887 176.12 533.632 172.186 536.203C170.643 537.212 169.053 537.512 167.127 537.159C164.341 536.649 162.453 534.892 161.742 532.149C160.138 525.967 167.405 521.135 172.487 525.004ZM122.961 539.703C122.551 539.7 121.412 539.69 120.429 539.681C112.934 539.613 107.132 542.516 109.186 545.308C110.03 546.456 111.356 547.191 117.051 549.669C122.873 552.202 124.812 553.201 128.004 555.317C130.047 556.671 133.617 559.683 133.559 560.003C133.543 560.088 131.379 561.642 128.75 563.458L123.97 566.758L123.271 566.092C121.706 564.601 117.94 562.111 115.488 560.947C113.208 559.864 112.301 559.602 108.263 558.863C103.227 557.941 100.749 557.945 97.256 558.88C94.7215 559.558 93.4396 560.467 93.3388 561.657C93.2161 563.105 94.3397 563.987 98.71 565.874C100.796 566.775 103.73 568.138 105.23 568.904C108.245 570.442 112.851 573.707 112.754 574.236C112.72 574.422 110.563 576.044 107.961 577.841L103.23 581.108L101.898 580.093C99.4421 578.221 96.6219 577.038 92.9773 576.352C89.2281 575.645 86.7168 575.645 84.3091 576.35C82.1904 576.971 81.1641 577.871 81.4727 578.837C81.7504 579.706 82.2643 580.016 86.9478 582.137C90.7438 583.856 95.0354 586.281 94.9647 586.667C94.9443 586.779 93.7132 587.705 92.2292 588.725L89.5306 590.58L91.4388 592.632C93.5829 594.937 95.615 597.999 96.6356 600.463L97.3193 602.114L99.9946 600.276C102.16 598.789 102.707 598.531 102.866 598.923C103.213 599.783 103.674 603.913 103.822 607.494C104.038 612.694 104.823 614.069 106.753 612.623C110.454 609.848 112.657 601.037 111.295 594.452L110.933 592.7L115.832 589.317C118.527 587.456 120.775 586.002 120.828 586.086C120.881 586.17 121.183 587.131 121.5 588.221C122.287 590.934 122.795 594.786 123.004 599.624C123.1 601.862 123.268 604.346 123.377 605.144C123.568 606.557 124.443 607.96 125.221 608.102C126.026 608.25 127.913 606.746 129.172 604.954C133.568 598.694 134.892 588.516 132.353 580.481L131.682 578.357L136.542 574.989L141.402 571.62L142.002 573.143C143.545 577.056 144.386 582.229 144.742 590.006C145.103 597.887 145.478 599.259 147.36 599.604C149.749 600.041 153.214 595.724 155.497 589.465C156.895 585.631 157.834 579.069 157.543 575.163C157.244 571.148 156.549 567.726 155.466 564.935L154.541 562.554L156.112 561.449L157.682 560.345L153.718 554.647L149.754 548.948L148.378 549.879C147.622 550.391 146.902 550.792 146.778 550.769C146.654 550.746 146.038 550.214 145.41 549.586C142.705 546.884 138.293 544.035 134.119 542.296C132.132 541.469 124.582 539.714 122.961 539.703ZM67.8743 586.37C62.4654 586.529 56.9642 588.539 51.3929 592.394C45.5039 596.468 42.8884 600.57 44.8735 602.618C47.4942 605.322 57.8368 608.838 67.5133 610.314L72.1562 611.022L70.8148 618.429C69.8399 623.814 69.4416 626.763 69.3562 629.226C69.1588 634.924 69.5595 638.453 70.5704 639.921C72.1136 642.162 77.4801 640.606 83.3693 636.212C87.9313 632.807 90.9124 629.365 93.0945 624.981C94.5839 621.989 95.8874 614.779 95.5871 611.191C94.7644 601.357 89.3223 593.44 80.3608 589.04C77.8474 587.806 70.7376 586.285 67.8743 586.37Z" fill="#696A69" fill-opacity="0.05"/>
<path fill-rule="evenodd" clip-rule="evenodd" d="M310.617 449.088C307.559 449.504 305.6 451.891 304.845 456.119C304.036 460.648 305.228 464.934 307.85 466.921C308.533 467.439 308.887 467.579 310.048 467.79C311.187 467.998 311.593 467.994 312.351 467.771C314.683 467.082 316.418 464.612 317.048 461.08C317.887 456.375 316.64 451.983 313.914 450.041C313.138 449.488 311.389 448.983 310.617 449.088ZM326.189 451.877C323.644 452.168 321.456 454.012 319.757 457.301C319.11 458.554 318.961 459.034 318.58 461.104C318.113 463.638 318.133 464.715 318.682 466.445C319.287 468.355 320.834 469.802 322.615 470.123C325.662 470.672 328.692 468.547 330.568 464.547C331.422 462.723 332.101 459.155 331.9 457.538C331.518 454.462 329.816 452.331 327.439 451.951C327.002 451.882 326.44 451.848 326.189 451.877ZM294.767 457.362C293.557 457.512 292.896 457.779 291.995 458.481C288.577 461.143 289.293 467.74 293.345 470.924C295.096 472.299 297.055 472.77 298.922 472.264C300.786 471.759 302.124 470.35 302.669 468.317C303.345 465.796 302.806 463.141 301.144 460.807C299.398 458.356 297.036 457.08 294.767 457.362ZM337.026 464.994C335.599 465.176 334.539 465.589 333.26 466.461C330.946 468.039 329.884 469.688 329.392 472.47C329.108 474.072 329.098 474.454 329.321 475.196C330.069 477.695 332.408 479.276 335.084 479.091C336.557 478.989 337.667 478.593 339.131 477.647C341.085 476.386 342.24 474.931 342.999 472.774C344.548 468.372 341.516 464.422 337.026 464.994ZM313.669 472.013C306.235 471.764 299.894 476.473 298.574 483.224C298.28 484.727 298.275 485.026 298.528 485.94C299.039 487.784 299.932 488.71 302.911 490.488C308.058 493.559 313.847 494.756 319.796 493.979C324.024 493.426 325.69 492.746 326.901 491.075C327.487 490.267 327.61 489.947 327.846 488.622C328.814 483.171 326.081 477.401 321.079 474.336C318.966 473.041 315.927 472.089 313.669 472.013ZM253.772 483.788C252.531 484.073 252.773 483.066 249.421 501.857C246.491 518.277 246.396 518.873 246.661 519.207C246.907 519.518 247.425 519.635 251.892 520.385C256.691 521.192 256.863 521.209 257.284 520.922C257.611 520.699 259.405 517.211 264.531 506.836C268.278 499.252 271.384 492.827 271.433 492.558C271.591 491.693 271.36 490.642 270.846 489.892C270.301 489.096 269.319 488.46 266.932 487.356C262.876 485.481 255.32 483.432 253.772 483.788ZM276.614 495.079C276.485 495.416 273.674 501.175 270.366 507.876C267.058 514.577 264.407 520.132 264.474 520.221C264.675 520.487 270.772 524.438 274.011 526.401C277.786 528.69 283.16 531.586 285.832 532.772C291.414 535.25 294 535.742 299.535 535.382C312.752 534.523 336.257 527.553 336.833 524.322C337 523.385 336.662 522.026 336.021 521.062C334.884 519.35 333.078 518.304 330.447 517.834C327.474 517.304 324.371 517.655 315.661 519.509C307.526 521.241 305.376 521.604 302.384 521.754C297.518 521.997 292.091 519.604 285.864 514.469C285.196 513.918 284.692 513.438 284.744 513.403C284.796 513.367 286.037 513.754 287.502 514.261C292.725 516.072 295.789 516.941 299.116 517.555C302.769 518.229 304.038 518.257 305.569 517.696C306.342 517.413 306.713 517.141 307.221 516.487C307.801 515.74 307.893 515.504 308.016 514.444C308.484 510.386 305.117 507.706 295.403 504.404L292.973 503.578L291.095 502.03C286.324 498.095 283.695 496.599 278.927 495.102C277.848 494.763 276.939 494.481 276.907 494.476C276.875 494.47 276.743 494.741 276.614 495.079Z" fill="#696A69" fill-opacity="0.05"/>
<path fill-rule="evenodd" clip-rule="evenodd" d="M108.31 356.377C107.91 356.484 107.137 356.695 106.59 356.846L105.596 357.122L108.231 358.175C111.474 359.471 113.952 360.602 116.918 362.141L119.192 363.321L122.641 361.172C124.539 359.99 127.362 358.352 128.917 357.532C132.123 355.841 132.123 355.841 127.935 355.4C123.15 354.896 119.677 354.937 114.349 355.561C111.427 355.903 108.709 356.27 108.31 356.377ZM92.4363 360.273C89.1329 361.886 81.9051 366.811 80.6671 368.293C80.3777 368.639 81.2225 369.044 85.4007 370.56C108.957 379.111 130.456 393.774 146.749 412.402C155.543 422.455 163.955 435.331 169.598 447.372C170.401 449.088 171.116 450.546 171.186 450.614C171.485 450.903 175.911 443.513 176.823 441.206C177.735 438.897 177.594 437.847 175.806 433.606C169.323 418.236 158.671 402.082 146.87 389.721C140.403 382.947 130.544 374.743 123.43 370.217C116.428 365.761 105.236 360.514 100.432 359.434C98.1061 358.911 94.438 359.296 92.4363 360.273ZM136.428 357.872C136.119 358.052 134.045 359.149 131.818 360.31C129.592 361.471 126.646 363.091 125.271 363.911L122.772 365.402L123.643 365.925C127.146 368.029 133.08 372.323 137.53 375.975L142.799 380.299L145.47 378.861C148.03 377.483 156.666 373.538 160.529 371.983L162.369 371.242L159.111 368.605C153.669 364.2 148.362 361.183 141.779 358.754C138.039 357.374 137.451 357.277 136.428 357.872ZM73.9782 375.226C72.4609 377.073 70.2847 380.051 69.142 381.843C67.2565 384.8 64.7213 389.614 64.4083 390.831C64.3083 391.22 65.1749 391.527 68.8137 392.389C82.1792 395.557 93.7536 400.114 104.851 406.58C125.041 418.344 141.373 434.536 155.903 457.193C157.969 460.414 159.637 462.731 159.833 462.653C161.199 462.105 168.437 454.731 168.354 453.971C168.322 453.686 167.528 451.798 166.588 449.777C152.153 418.733 127.785 394.125 96.9367 379.44C92.1975 377.184 78.0548 371.723 77.1948 371.818C76.9428 371.845 75.4955 373.379 73.9782 375.226ZM162.412 375.322C156.765 377.468 145.87 382.599 145.923 383.086C145.938 383.22 147.048 384.454 148.392 385.828C151.701 389.215 155.901 393.987 158.567 397.388C159.779 398.936 160.932 400.184 161.127 400.163C161.323 400.141 162.3 399.772 163.298 399.342C165.72 398.299 172.695 395.743 175.04 395.038C176.075 394.728 177.017 394.367 177.134 394.238C177.494 393.838 173.874 386.297 171.627 382.765C169.207 378.961 165.49 374.334 164.936 374.435C164.731 374.473 163.595 374.872 162.412 375.322ZM62.0283 397.432C60.5845 402.338 59.6956 407.989 59.5567 413.144C59.4319 417.793 61.0423 419.622 66.2227 420.714C83.3961 424.334 99.7404 432.305 114.838 444.423C122.746 450.769 129.562 457.516 135.727 465.1C140.434 470.889 141.083 471.389 143.898 471.399C144.994 471.402 145.864 471.133 147.859 470.177C150.62 468.852 156.451 465.383 156.418 465.083C156.346 464.423 147.265 450.928 144.163 446.869C125.51 422.468 102.643 406.115 76.1038 398.2C72.238 397.047 63.7697 395.051 63.0705 395.128C62.8637 395.151 62.3945 396.188 62.0283 397.432ZM173.737 399.506C168.193 401.425 163.883 403.103 163.602 403.452C163.474 403.611 164.391 405.231 165.701 407.159C167.953 410.473 172.058 417.302 173.448 420.048C173.821 420.786 174.198 421.382 174.284 421.372C174.371 421.363 175.84 420.85 177.549 420.232C179.721 419.447 180.682 418.961 180.743 418.615C180.916 417.644 180.931 413.585 180.774 410.376C180.553 405.909 178.913 397.892 178.242 398.005C178.061 398.036 176.034 398.711 173.737 399.506ZM62.2537 425.87C62.7695 428.471 64.5281 434.665 64.8084 434.868C64.914 434.945 65.035 434.866 65.0773 434.692C65.1195 434.519 66.0143 432.355 67.0658 429.884C68.1172 427.413 68.8601 425.307 68.7167 425.204C68.5732 425.101 66.9607 424.705 65.1331 424.325L61.8106 423.633L62.2537 425.87ZM71.382 429.314C70.6615 430.992 69.3655 434.157 68.5022 436.349L66.9323 440.335L68.1487 442.648C69.752 445.698 72.8191 450.237 75.1964 453.079L77.1105 455.368L77.98 453.519C79.6835 449.895 84.3311 441.168 86.7889 436.978C89.7093 431.999 90.0383 432.817 84.0853 430.254C80.9589 428.908 73.3277 426.194 72.8237 426.25C72.7513 426.258 72.1026 427.636 71.382 429.314ZM177.642 424.185C176.776 424.524 176.039 424.835 176.006 424.877C175.916 424.989 178.433 430.101 178.673 430.293C178.839 430.425 180.325 424.123 180.263 423.553C180.236 423.306 179.326 423.525 177.642 424.185ZM89.9828 438.906C87.1586 443.765 83.0277 451.583 81.219 455.493C80.3839 457.298 80.1255 458.177 80.3386 458.486C80.9043 459.31 87.3972 464.164 90.0524 465.748C95.3975 468.938 101.788 471.522 107.554 472.826L110.38 473.465L111.093 472.385C112.959 469.558 116.597 464.762 119.717 461.011L123.159 456.874L122.007 455.71C117.518 451.174 109.263 444.567 102.572 440.153C99.3385 438.021 93.1475 434.448 92.7785 434.501C92.6378 434.521 91.3796 436.504 89.9828 438.906ZM33.5933 451.252C32.5236 452.37 32.3575 453.803 33.1579 455.005C33.9904 456.254 35.0509 456.521 38.5609 456.365C44.7286 456.091 57.5253 456.691 60.1987 457.38C60.9303 457.568 60.911 457.593 59.8066 457.894C59.168 458.067 56.3124 458.74 53.4611 459.389C45.1912 461.27 41.852 462.82 40.3764 465.464C39.4128 467.191 39.4151 469.352 40.3819 470.814C41.3415 472.265 42.286 472.932 44.3414 473.611C48.226 474.892 55.2697 475.457 64.8515 475.255C74.5083 475.051 94.3108 473.395 94.6111 472.766C94.6874 472.607 93.9324 472.091 92.9334 471.621C91.9346 471.151 89.966 470.082 88.5588 469.246C86.3127 467.913 85.8377 467.745 84.6707 467.872C78.5865 468.534 65.4077 469.151 58.1976 469.111C52.1776 469.078 46.4002 468.433 46.8823 467.848C47.268 467.38 51.421 466.197 57.1403 464.926C65.0975 463.157 67.9035 461.948 69.0351 459.802C70.8697 456.322 68.5518 453.084 63.2687 451.748C57.8694 450.382 47.7386 449.787 37.4323 450.229C34.4979 450.355 34.4363 450.371 33.5933 451.252ZM122.294 463.817C120.461 466.027 117.97 469.217 116.759 470.908L114.557 473.981L117.242 474.222C121.838 474.635 135.691 473.193 136.474 472.219C136.549 472.127 134.433 469.497 131.773 466.375C126.437 460.113 126.107 459.747 125.823 459.778C125.716 459.79 124.127 461.607 122.294 463.817Z" fill="#696A69" fill-opacity="0.05"/>
</svg>
