<svg width="170" height="170" viewBox="0 0 170 170" fill="none" xmlns="http://www.w3.org/2000/svg">
<g clip-path="url(#clip0_223_13739)">
<path d="M120.813 153.311C119.191 153.311 117.569 152.699 116.32 151.47C108.754 144.017 106.838 138.508 101.926 122.216C100.902 118.822 102.82 115.239 106.209 114.214C109.596 113.188 113.173 115.108 114.196 118.503C118.881 134.039 120.129 137.213 125.306 142.311C127.83 144.797 127.865 148.863 125.384 151.392C124.13 152.671 122.472 153.311 120.813 153.311Z" fill="#495059"/>
<path d="M69.0351 163.894C64.8935 163.894 61.3835 160.697 61.0567 156.489C60.2188 145.696 60.556 137.638 62.2202 128.679C63.0296 124.32 67.2101 121.443 71.5619 122.257C75.911 123.068 78.7815 127.257 77.9721 131.616C76.5635 139.199 76.3002 145.824 77.0317 155.244C77.3755 159.663 74.0769 163.525 69.6655 163.869C69.4541 163.885 69.244 163.894 69.0351 163.894Z" fill="#DDAF89"/>
<path d="M100.965 163.893C100.756 163.893 100.546 163.884 100.335 163.868C95.9234 163.524 92.6262 159.662 92.9686 155.243C93.7002 145.823 93.4369 139.198 92.0282 131.615C91.2188 127.257 94.0893 123.067 98.4385 122.256C102.786 121.445 106.971 124.32 107.78 128.678C109.444 137.637 109.782 145.694 108.944 156.488C108.617 160.696 105.107 163.893 100.965 163.893Z" fill="#DDAF89"/>
<path d="M44.929 142.317C44.6774 142.317 44.4244 142.305 44.1702 142.282C39.7652 141.866 36.529 137.952 36.9441 133.538C38.1452 120.742 39.2218 112.27 45.92 99.8921C48.029 95.9948 52.8906 94.5484 56.7819 96.6615C60.6705 98.7745 62.1142 103.646 60.0051 107.542C54.7701 117.216 53.9672 123.624 52.8958 135.041C52.5053 139.199 49.0161 142.317 44.929 142.317Z" fill="#DDAF89"/>
<path d="M125.072 142.317C120.986 142.317 117.495 139.199 117.105 135.041C116.034 123.624 115.231 117.216 109.996 107.542C107.887 103.646 109.33 98.7732 113.219 96.6615C117.11 94.5484 121.972 95.9948 124.081 99.8921C130.779 112.27 131.856 120.742 133.057 133.538C133.472 137.952 130.237 141.866 125.831 142.282C125.576 142.305 125.322 142.317 125.072 142.317Z" fill="#DDAF89"/>
<path d="M128.154 108.608C127.089 105.862 125.762 102.999 124.08 99.8921C121.972 95.9948 117.109 94.5484 113.219 96.6615C109.329 98.7745 107.886 103.646 109.995 107.542C114.521 115.909 115.734 121.836 116.672 130.67C122.78 124.734 126.927 117.088 128.154 108.608Z" fill="#D1A582"/>
<path d="M107.781 128.678C106.971 124.32 102.787 121.445 98.4388 122.256C94.0884 123.067 91.2179 127.257 92.0286 131.615C92.7161 135.323 93.1298 138.802 93.2881 142.49C98.9694 141.483 104.26 139.461 108.926 136.639C108.661 134.001 108.281 131.38 107.781 128.678Z" fill="#D1A582"/>
<path d="M71.5625 122.257C67.2108 121.443 63.0302 124.32 62.2209 128.679C61.7189 131.381 61.3401 134.002 61.0742 136.64C65.7412 139.461 71.0307 141.483 76.712 142.491C76.8703 138.802 77.284 135.324 77.9728 131.616C78.7822 127.257 75.9117 123.068 71.5625 122.257Z" fill="#D1A582"/>
<path d="M56.7815 96.6615C52.8902 94.5484 48.0286 95.9948 45.9196 99.8921C44.2385 103.001 42.9103 105.862 41.8467 108.608C43.0724 117.088 47.2193 124.734 53.3273 130.67C54.2664 121.836 55.4779 115.909 60.006 107.544C62.1138 103.646 60.6701 98.7745 56.7815 96.6615Z" fill="#D1A582"/>
<path d="M124.054 103.347C124.054 83.8036 106.569 67.9609 84.9996 67.9609C63.4302 67.9609 45.9453 83.8036 45.9453 103.347C45.9453 122.89 63.4302 138.732 84.9996 138.732C106.569 138.732 124.054 122.89 124.054 103.347Z" fill="#DDAF89"/>
<path d="M120.273 80.627C110.702 88.584 98.4092 93.3689 84.9998 93.3689C71.5905 93.3689 59.2979 88.584 49.7266 80.627C47.6915 83.2676 45.9949 86.1422 44.7081 89.2026C42.9558 93.3715 44.5719 98.2045 48.4658 100.494C59.1863 106.8 71.6709 110.416 84.9998 110.416C98.3288 110.416 110.813 106.8 121.533 100.494C125.428 98.2045 127.044 93.3715 125.292 89.2026C124.005 86.1422 122.308 83.2676 120.273 80.627Z" fill="#7F9AE6"/>
<path d="M67.2128 90.4371C60.7675 88.2422 54.8566 84.8907 49.7266 80.627C47.6915 83.2676 45.9949 86.1422 44.7081 89.2026C42.9558 93.3715 44.5719 98.2045 48.4658 100.494C54.0407 103.773 60.0943 106.316 66.4929 108.011C64.1464 103.291 64.8105 96.2045 67.2128 90.4371Z" fill="#5E78BF"/>
<path d="M69.8956 33.6506C68.2587 33.6506 66.6062 33.1516 65.1807 32.1132L55.2981 24.9203C50.9697 21.7715 45.1328 22.0327 41.104 25.5571L34.6328 31.2179C31.2914 34.1405 26.2172 33.7961 23.2987 30.4485C20.3816 27.1009 20.7253 22.0172 24.0679 19.0932L30.5378 13.4337C35.2048 9.35188 41.1831 6.95164 47.3716 6.67354C53.56 6.39674 59.7277 8.25118 64.7397 11.899L74.6223 19.0919C78.2113 21.704 79.0077 26.7358 76.4006 30.3316C74.8285 32.4992 72.3783 33.6506 69.8956 33.6506Z" fill="#495059"/>
<path d="M100.104 33.6523C97.6205 33.6523 95.1716 32.5009 93.5995 30.3333C90.9923 26.7375 91.7887 21.7057 95.3778 19.0936L105.26 11.9007C110.272 8.25419 116.443 6.39975 122.629 6.67526C128.817 6.95336 134.795 9.3536 139.462 13.4354L145.933 19.0962C149.275 22.0189 149.618 27.1026 146.7 30.4503C143.783 33.7992 138.709 34.1435 135.367 31.2196L128.896 25.5588C124.867 22.0345 119.03 21.7733 114.702 24.922L104.818 32.115C103.394 33.152 101.741 33.6523 100.104 33.6523Z" fill="#495059"/>
<path d="M84.9998 97.3882C125.775 97.3882 144.153 78.6736 138.417 52.3229C132.253 24.0048 112.841 8.50391 84.9998 8.50391C57.159 8.50391 37.7466 24.0048 31.5828 52.3229C25.8471 78.6736 44.2243 97.3882 84.9998 97.3882Z" fill="#DDAF89"/>
<path d="M95.9096 111.796C95.9096 117.832 91.0247 122.725 84.9997 122.725C78.9747 122.725 74.0898 117.832 74.0898 111.796C74.0898 105.759 78.9747 100.865 84.9997 100.865C91.0247 100.865 95.9096 105.759 95.9096 111.796Z" fill="#F6E06A"/>
<path d="M91.1585 42.0014C87.1207 40.9423 82.8792 40.9423 78.8413 42.0014C77.1694 42.4393 75.7114 43.4698 74.7399 44.9032C73.4272 46.8369 74.1821 49.4893 76.3146 50.4393L82.2319 53.076C83.9934 53.8609 86.0052 53.8609 87.7679 53.076L93.6853 50.4393C95.8177 49.4893 96.5726 46.8369 95.26 44.9032C94.2884 43.4698 92.8318 42.4393 91.1585 42.0014Z" fill="#495059"/>
<path d="M84.9612 79.1165C91.2209 79.1165 96.7959 84.6448 100.303 77.8274C103.86 70.9113 95.8931 60.1875 84.9612 60.1875C74.0279 60.1875 66.0612 70.9113 69.6191 77.8274C73.1251 84.6448 78.7001 79.1165 84.9612 79.1165Z" fill="#D16283"/>
<path d="M84.9614 72.7852C78.5161 72.7852 73.0722 75.8521 71.2783 80.0678C74.7636 83.1463 79.6122 79.1165 84.9614 79.1165C90.3093 79.1165 95.1579 83.1463 98.6432 80.0678C96.8493 75.8521 91.4054 72.7852 84.9614 72.7852Z" fill="#EB9898"/>
<path d="M144.356 44.566C148.696 48.9143 148.708 55.9577 144.391 60.3216C139.875 64.8881 132.415 64.5035 128.049 59.7927C122.471 53.7732 124.409 48.5621 121.026 43.4172C120.017 41.8825 120.884 39.8097 122.681 39.4419C132.351 37.4589 138.797 38.9962 144.356 44.566Z" fill="#A2D3EE"/>
<path d="M166.469 83.21C169.064 88.7837 166.67 95.4075 161.124 98.0286C155.321 100.772 148.441 97.8545 145.948 91.9299C142.761 84.3627 146.362 80.1301 144.939 74.1367C144.513 72.3485 146.036 70.6994 147.852 70.9684C157.615 72.4187 163.146 76.0717 166.469 83.21Z" fill="#A2D3EE"/>
<path d="M3.53027 83.21C0.936073 88.7837 3.32922 95.4075 8.8756 98.0286C14.6788 100.772 21.5586 97.8545 24.0516 91.9299C27.2386 84.3627 23.6379 80.1301 25.0608 74.1367C25.4862 72.3485 23.9634 70.6994 22.1475 70.9684C12.3842 72.4187 6.85343 76.0717 3.53027 83.21Z" fill="#A2D3EE"/>
<path d="M25.6437 44.566C21.3036 48.9143 21.292 55.9577 25.6087 60.3216C30.1252 64.8881 37.5861 64.5035 41.9508 59.7927C47.5283 53.7732 45.5905 48.5621 48.9733 43.4172C49.9837 41.8825 49.116 39.8097 47.3182 39.4419C37.6484 37.4589 31.2031 38.9962 25.6437 44.566Z" fill="#A2D3EE"/>
<path d="M168.727 82.1556C167.272 79.029 165.444 76.5352 163.138 74.5313C162.099 73.6281 160.526 73.7411 159.625 74.7821C158.724 75.823 158.836 77.398 159.875 78.3012C161.641 79.836 163.06 81.7866 164.213 84.2635C166.221 88.5779 164.359 93.741 160.063 95.7709C157.978 96.7559 155.62 96.8339 153.42 95.9905C151.102 95.1029 149.215 93.2693 148.243 90.96C146.661 87.203 147.028 84.422 147.416 81.4773C147.736 79.0446 148.068 76.53 147.363 73.5592C147.356 73.5345 147.351 73.5111 147.386 73.4721C147.428 73.4267 147.464 73.4319 147.487 73.4358C148.644 73.6073 149.744 73.8126 150.76 74.0478C152.1 74.3584 153.437 73.5202 153.747 72.1778C154.056 70.8354 153.22 69.4956 151.881 69.185C150.736 68.9212 149.504 68.6899 148.219 68.4988C146.542 68.2493 144.861 68.8484 143.715 70.0986C142.575 71.3448 142.126 73.0693 142.517 74.7132C143.01 76.7886 142.763 78.6586 142.478 80.8236C142.041 84.1374 141.547 87.8931 143.654 92.8989C145.151 96.4544 148.062 99.2796 151.641 100.651C153.231 101.26 154.877 101.564 156.512 101.564C158.456 101.564 160.384 101.137 162.187 100.284C168.957 97.0847 171.891 88.9522 168.727 82.1556ZM27.4851 74.7132C27.8755 73.0706 27.4267 71.3461 26.2866 70.0999C25.1412 68.8484 23.4576 68.2506 21.7843 68.5001C11.2688 70.0609 4.94284 74.2727 1.27465 82.1556C-1.88897 88.9522 1.04507 97.0847 7.81461 100.284C9.61758 101.138 11.5464 101.565 13.4894 101.565C15.125 101.565 16.7711 101.261 18.3613 100.652C21.94 99.2796 24.8507 96.4544 26.3475 92.8989C28.4553 87.8931 27.9611 84.1374 27.524 80.8236C27.2386 78.6599 26.9922 76.7899 27.4851 74.7132ZM21.7597 90.96C20.7869 93.2693 18.8996 95.1029 16.5817 95.9918C14.3831 96.8339 12.0237 96.7559 9.93926 95.7709C5.64327 93.741 3.78064 88.5792 5.78855 84.2648C8.75241 77.8971 13.5984 74.76 22.5146 73.4358C22.5211 73.4345 22.5289 73.4332 22.538 73.4332C22.56 73.4332 22.5859 73.4397 22.6158 73.4721C22.6508 73.5111 22.6456 73.5358 22.6391 73.5592C21.9348 76.53 22.2656 79.0459 22.5859 81.4773C22.9738 84.422 23.3409 87.203 21.7597 90.96ZM87.4914 57.8673V55.818C87.9298 55.6971 88.3617 55.5438 88.7807 55.3566L94.698 52.7212C96.3907 51.9661 97.6528 50.5107 98.1613 48.7251C98.6684 46.9408 98.3623 45.0357 97.3208 43.501C96.0094 41.5699 94.0456 40.1807 91.7899 39.5881C87.3487 38.4237 82.6532 38.4237 78.2106 39.5881C75.9563 40.1807 73.9912 41.5699 72.6811 43.501C71.6395 45.0357 71.3334 46.9408 71.8406 48.7251C72.3491 50.5107 73.6111 51.9661 75.3038 52.7212L81.2199 55.3566C81.6402 55.5438 82.0721 55.6971 82.5105 55.818V57.8569C76.7825 58.6198 71.4424 61.9999 68.4617 66.8978C65.9596 71.0095 65.5743 75.4098 67.4058 78.9692C69.3087 82.6703 71.8562 83.7151 74.4062 83.7151C76.2806 83.7151 78.1575 83.1498 79.7788 82.6625C81.4949 82.1452 83.2706 81.6111 84.9607 81.6111C86.6521 81.6111 88.4266 82.1452 90.1426 82.6625C93.9717 83.8139 99.2145 85.3915 102.517 78.9692C104.348 75.4098 103.963 71.0095 101.461 66.8978C98.4946 62.0219 93.1895 58.651 87.4914 57.8673ZM77.3273 48.1611C76.8617 47.9532 76.6917 47.5685 76.6321 47.358C76.5711 47.1475 76.514 46.7303 76.8007 46.3067C77.4337 45.3736 78.3831 44.7017 79.4727 44.4158C81.2809 43.9415 83.1409 43.705 85.0009 43.705C86.861 43.705 88.721 43.9415 90.5292 44.4158C91.6187 44.7017 92.5682 45.3736 93.2012 46.3067C93.4878 46.7303 93.4308 47.1462 93.3711 47.358C93.3101 47.5685 93.1402 47.9545 92.6746 48.1611L86.7572 50.7979C85.6417 51.2943 84.3602 51.2943 83.2447 50.7979L77.3273 48.1611ZM98.0899 76.6833C96.7954 79.1992 95.846 79.1667 91.5759 77.8828C89.6108 77.2915 87.3837 76.6209 84.962 76.6209C82.539 76.6209 80.3119 77.2902 78.3468 77.8828C74.0768 79.1667 73.1273 79.1992 71.8328 76.6833C70.8159 74.7067 71.1376 72.0868 72.7148 69.4956C74.6268 66.352 78.9824 62.6821 84.9607 62.6821C90.9403 62.6821 95.296 66.352 97.2079 69.4956C98.7852 72.0868 99.1069 74.7067 98.0899 76.6833ZM141.758 65.0356C143.391 64.365 144.885 63.3696 146.162 62.0791C151.43 56.7536 151.411 48.1052 146.118 42.8018C143.084 39.7622 139.745 37.7895 135.886 36.8279C135.353 35.683 134.791 34.5693 134.201 33.4842C136.104 34.9656 138.378 35.6947 140.644 35.6947C143.579 35.6947 146.5 34.4744 148.578 32.0911C152.394 27.7116 151.943 21.0385 147.572 17.2153L141.1 11.5558C136.012 7.10359 129.491 4.48503 122.741 4.18223C116.496 3.90024 110.258 5.62082 105.028 9.0373C98.9356 7.04251 92.2322 6.01068 85.0009 6.01068C77.7696 6.01068 71.0662 7.04251 64.9738 9.0373C59.7439 5.62082 53.5035 3.90283 47.2606 4.18223C40.5105 4.48503 33.99 7.10359 28.9015 11.5558L22.4303 17.2153C18.0591 21.0385 17.609 27.7116 21.4237 32.0911C23.5017 34.4744 26.4228 35.6947 29.3568 35.6947C31.6241 35.6947 33.8979 34.9656 35.8008 33.4842C35.2106 34.5693 34.6489 35.683 34.1158 36.8279C30.257 37.7895 26.9182 39.7622 23.8843 42.8018C18.5909 48.1052 18.5714 56.7536 23.8402 62.0791C25.1166 63.3696 26.6108 64.365 28.2439 65.0356C29.1778 74.7964 33.9485 83.0081 42.141 88.9613C40.9489 92.4376 41.5249 96.2101 43.4951 99.1471C36.7801 111.71 35.6814 120.348 34.4648 133.305C33.9226 139.082 38.1719 144.223 43.9375 144.766C44.2669 144.797 44.6003 144.813 44.9297 144.813C50.3749 144.813 54.8668 140.713 55.3765 135.275C55.5348 133.593 55.6943 131.934 55.8707 130.327C56.8721 131.225 57.9227 132.077 59.0175 132.88C58.1964 138.795 57.9565 144.509 58.2392 151.182C58.2976 152.523 59.4001 153.57 60.7258 153.57C60.7621 153.57 60.7984 153.57 60.8347 153.569C62.2084 153.511 63.2746 152.346 63.2162 150.969C62.9827 145.47 63.1215 140.663 63.6663 135.838C66.9648 137.646 70.5604 139.047 74.3686 139.967C74.0249 144.585 74.0859 149.46 74.5502 155.436C74.7863 158.477 72.5086 161.144 69.4734 161.381C69.3294 161.392 69.1828 161.397 69.0376 161.397C67.4668 161.397 65.9647 160.72 64.9154 159.538C64.0022 158.509 62.4276 158.416 61.4003 159.331C60.373 160.247 60.2796 161.824 61.194 162.854C63.1877 165.1 66.0465 166.388 69.0376 166.388C69.3126 166.388 69.5901 166.377 69.8599 166.355C75.6333 165.905 79.9656 160.833 79.5155 155.049C79.0901 149.565 79.0174 145.075 79.2989 140.869C81.1628 141.103 83.067 141.227 85.0009 141.227C86.9362 141.227 88.839 141.103 90.7043 140.869C90.9844 145.075 90.9118 149.565 90.4864 155.049C90.0376 160.833 94.3686 165.905 100.141 166.355C100.413 166.377 100.691 166.388 100.966 166.388C106.408 166.388 111.004 162.125 111.427 156.683C111.599 154.453 111.721 152.344 111.794 150.314C112.632 151.271 113.55 152.24 114.575 153.249C116.249 154.898 118.465 155.807 120.812 155.807C123.22 155.807 125.473 154.861 127.16 153.141C129.608 150.646 130.288 147.062 129.216 143.962C133.293 142.207 135.974 137.964 135.537 133.305C134.32 120.346 133.222 111.708 126.507 99.1471C128.477 96.2088 129.053 92.4376 127.861 88.9613C136.055 83.0081 140.824 74.7964 141.758 65.0356ZM142.596 46.3314C145.955 49.6972 145.968 55.1864 142.623 58.5665C141.002 60.2065 138.817 61.0863 136.458 61.0486C133.975 61.0083 131.577 59.931 129.875 58.0947C127.106 55.1071 126.5 52.3677 125.861 49.4671C125.332 47.0721 124.784 44.5952 123.107 42.0455C123.093 42.0247 123.08 42.0039 123.099 41.9545C123.124 41.8986 123.159 41.8908 123.182 41.8857C125.696 41.371 127.949 41.1059 130.002 41.1059C135.161 41.1072 139.05 42.7771 142.596 46.3314ZM122.519 9.16725C128.146 9.41936 133.582 11.6026 137.825 15.3141L144.296 20.9748C146.597 22.9878 146.836 26.5031 144.826 28.8084C142.815 31.1151 139.308 31.3529 137.007 29.3399L130.536 23.6792C128.777 22.1405 126.677 21.0788 124.425 20.5733C120.506 16.8098 116.027 13.7403 111.044 11.4089C114.624 9.77673 118.568 8.98922 122.519 9.16725ZM32.9951 29.3399C30.6941 31.3529 27.1855 31.1151 25.1762 28.8097C23.1657 26.5031 23.4044 22.9878 25.7055 20.9748L32.1767 15.3141C36.4195 11.6026 41.8556 9.42066 47.4824 9.16725C51.4321 8.99052 55.3778 9.77803 58.9565 11.4089C53.9744 13.7403 49.4968 16.8098 45.577 20.5733C43.3252 21.0788 41.2252 22.1405 39.4664 23.6792L32.9951 29.3399ZM27.3774 58.5665C24.0335 55.1851 24.0465 49.6972 27.406 46.3314C30.0391 43.692 32.8602 42.0923 36.2496 41.4425C36.2807 41.4386 36.3131 41.4321 36.3442 41.4269C39.3159 40.8746 42.7221 41.0462 46.8196 41.8869C46.843 41.8908 46.878 41.8986 46.9013 41.9558C46.9221 42.0039 46.9078 42.0247 46.8948 42.0455C45.2177 44.5952 44.6703 47.0721 44.1411 49.4684C43.5003 52.3677 42.8959 55.1071 40.1266 58.0947C38.4248 59.9323 36.0252 61.0083 33.5438 61.0486C31.1831 61.0811 29.0001 60.2052 27.3774 58.5665ZM50.4177 134.809C50.1493 137.667 47.7898 139.823 44.9297 139.823C44.7559 139.823 44.5782 139.815 44.4044 139.798C41.3731 139.512 39.1395 136.809 39.4249 133.773C40.29 124.543 41.0916 117.623 44.0633 109.81C45.1697 115.652 47.7483 121.039 51.4386 125.643C51.0209 128.532 50.7161 131.63 50.4177 134.809ZM93.4204 111.795C93.4204 116.446 89.6432 120.229 85.0009 120.229C80.3586 120.229 76.5815 116.445 76.5815 111.795C76.5815 107.144 80.3586 103.36 85.0009 103.36C89.6432 103.36 93.4204 107.144 93.4204 111.795ZM90.9092 99.7487C104.093 99.1458 114.999 96.4739 123.437 91.7774C123.797 94.344 122.597 96.9768 120.274 98.3427C113.178 102.517 105.505 105.358 97.4388 106.809C96.204 103.728 93.8627 101.209 90.9092 99.7487ZM72.5644 106.809C64.4977 105.358 56.8241 102.517 49.7277 98.3427C47.4046 96.9768 46.2061 94.344 46.5667 91.7774C55.003 96.4739 65.9103 99.1445 79.0927 99.7487C76.1392 101.209 73.7979 103.728 72.5644 106.809ZM106.461 156.295C106.238 159.157 103.824 161.399 100.966 161.399C100.819 161.399 100.672 161.392 100.528 161.382C97.4933 161.145 95.2169 158.479 95.4529 155.438C95.9173 149.461 95.977 144.585 95.6332 139.968C99.4415 139.048 103.036 137.647 106.334 135.839C107.04 142.106 107.071 148.442 106.461 156.295ZM85.0009 136.237C64.8415 136.237 48.4397 121.485 48.4371 103.351C55.6736 107.426 63.4497 110.229 71.6032 111.706C71.6032 111.736 71.6006 111.766 71.6006 111.795C71.6006 119.198 77.6127 125.22 85.0009 125.22C92.3905 125.22 98.4012 119.198 98.4012 111.795C98.4012 111.764 98.3986 111.736 98.3986 111.706C106.552 110.229 114.328 107.425 121.565 103.351C121.562 121.485 105.162 136.237 85.0009 136.237ZM123.609 149.643C122.866 150.399 121.873 150.817 120.814 150.817C119.78 150.817 118.805 150.416 118.067 149.69C115.274 146.94 113.37 144.553 111.79 141.807C111.663 138.769 111.396 135.838 110.986 132.879C112.08 132.077 113.131 131.225 114.131 130.327C114.308 131.934 114.467 133.593 114.625 135.275C115.105 140.388 119.105 144.318 124.107 144.769C125.076 146.277 124.915 148.311 123.609 149.643ZM130.578 133.773C130.862 136.809 128.629 139.512 125.599 139.798C125.424 139.815 125.247 139.823 125.072 139.823C122.212 139.823 119.853 137.667 119.585 134.809C119.287 131.63 118.982 128.532 118.565 125.643C122.254 121.039 124.833 115.652 125.94 109.81C128.912 117.623 129.712 124.543 130.578 133.773ZM123.548 85.884C114.583 91.7787 101.254 94.8937 85.0009 94.8937C68.7496 94.8937 55.4207 91.7787 46.4538 85.884C38.941 80.9458 34.5543 74.2792 33.3765 66.0401H33.3947C33.4712 66.0401 33.549 66.0401 33.6255 66.0375C37.4572 65.9751 41.1578 64.3182 43.7779 61.4904C47.4669 57.5087 48.284 53.8089 49.0052 50.5457C49.4761 48.4145 49.8833 46.5731 51.0546 44.7914C51.5864 43.9831 51.8666 43.0552 51.8887 42.1157C51.9535 42.1858 52.0197 42.2534 52.0936 42.3171C52.5644 42.729 53.1481 42.9318 53.7279 42.9318C54.4232 42.9318 55.1145 42.642 55.6074 42.0754C56.4363 41.1215 57.6348 40.5744 58.893 40.5744C60.1512 40.5744 61.3497 41.1215 62.1785 42.0754C63.0826 43.115 64.656 43.2229 65.6924 42.3171C66.73 41.4113 66.8377 39.8363 65.9336 38.7967C64.1579 36.7551 61.5922 35.5842 58.893 35.5842C56.195 35.5842 53.6281 36.7551 51.8523 38.7967C51.6111 39.0735 51.4438 39.3892 51.3452 39.7206C50.6486 38.3236 49.3593 37.3139 47.8184 36.9981C45.0115 36.4224 42.4276 36.1352 40.0254 36.1378C44.0607 28.6096 49.5383 22.6629 56.3597 18.4381C64.3291 13.5025 73.9652 11.0009 85.0022 11.0009C96.0379 11.0009 105.674 13.5025 113.643 18.4381C120.466 22.6629 125.942 28.6096 129.976 36.1378C127.576 36.1339 124.992 36.4224 122.185 36.9981C120.644 37.3139 119.355 38.3236 118.658 39.7206C118.559 39.3892 118.392 39.0735 118.151 38.7967C116.375 36.7551 113.808 35.5842 111.11 35.5842C108.411 35.5842 105.845 36.7551 104.07 38.7967C103.165 39.8363 103.273 41.4126 104.311 42.3171C105.347 43.2229 106.921 43.1137 107.825 42.0754C108.653 41.1215 109.852 40.5744 111.11 40.5744C112.368 40.5744 113.567 41.1215 114.396 42.0754C114.889 42.642 115.58 42.9318 116.275 42.9318C116.855 42.9318 117.439 42.729 117.91 42.3171C117.984 42.2534 118.05 42.1858 118.115 42.1157C118.137 43.0552 118.417 43.9831 118.949 44.7914C120.12 46.5731 120.527 48.4145 120.998 50.547C121.719 53.8102 122.536 57.5087 126.225 61.4904C128.845 64.3182 132.546 65.9764 136.378 66.0388C136.454 66.0401 136.532 66.0401 136.61 66.0401H136.627C135.449 74.2792 131.061 80.9458 123.548 85.884Z" fill="black"/>
</g>
<defs>
<clipPath id="clip0_223_13739">
<rect width="170" height="170" fill="white"/>
</clipPath>
</defs>
</svg>
