<svg width="375" height="152" viewBox="0 0 375 152" fill="none" xmlns="http://www.w3.org/2000/svg">
<path d="M194.91 31.0924C195.124 29.5445 192.936 28.2689 191.291 28.1345C190.504 28.0724 189.69 28.1931 188.948 27.9345C187.337 27.3726 186.695 25.2937 185.122 24.6318C183.949 24.1354 182.597 24.5767 181.459 25.1489C180.32 25.7212 179.192 26.4452 177.922 26.5279C176.815 26.6003 175.614 26.1832 174.645 26.7279C173.924 27.1313 173.544 27.9621 172.882 28.4516C172.22 28.9412 171.381 29.0343 170.574 29.0791C169.767 29.1239 168.932 29.1308 168.197 29.4652C167.462 29.7996 166.855 30.5787 167.007 31.3717L194.91 31.0924Z" fill="#F5F5F5"/>
<path d="M256.78 50.4122C256.994 48.8608 254.803 47.5887 253.161 47.4542C252.374 47.3922 251.56 47.5128 250.818 47.2543C249.207 46.6923 248.566 44.6135 246.992 43.9516C245.819 43.4551 244.467 43.8964 243.329 44.4687C242.19 45.041 241.062 45.7615 239.792 45.8477C238.685 45.9166 237.484 45.5029 236.515 46.0476C235.794 46.451 235.415 47.2818 234.752 47.7714C234.09 48.2609 233.251 48.354 232.444 48.3954C231.637 48.4367 230.802 48.4471 230.067 48.7849C229.332 49.1228 228.725 49.8985 228.877 50.6914L256.78 50.4122Z" fill="#F5F5F5"/>
<path d="M200.06 8.4803C200.274 6.92893 198.087 5.6568 196.441 5.52235C195.655 5.4603 194.84 5.58096 194.099 5.31895C192.488 4.76045 191.846 2.68162 190.273 2.0197C189.1 1.52326 187.747 1.96454 186.609 2.53682C185.47 3.10911 184.346 3.82963 183.073 3.91582C181.965 3.98477 180.765 3.57107 179.795 4.11577C179.074 4.51913 178.695 5.34998 178.032 5.83952C177.37 6.32906 176.532 6.42215 175.724 6.46352C174.917 6.50489 174.082 6.51523 173.347 6.85308C172.613 7.19094 172.005 7.96662 172.157 8.75955L200.06 8.4803Z" fill="#F5F5F5"/>
<path d="M261.507 18.5194C261.817 16.2509 258.616 14.3824 256.211 14.1928C255.066 14.0997 253.872 14.2755 252.785 13.8963C250.432 13.0793 249.491 10.0386 247.193 9.06982C245.468 8.34584 243.498 8.99052 241.832 9.82826C240.165 10.666 238.523 11.7175 236.657 11.8382C235.039 11.9416 233.283 11.3417 231.868 12.1312C230.813 12.7207 230.261 13.9342 229.288 14.6513C228.315 15.3684 227.094 15.5028 225.914 15.5649C224.734 15.6269 223.499 15.6407 222.436 16.1337C221.374 16.6267 220.473 17.7609 220.711 18.9193L261.507 18.5194Z" fill="#EBEBEB"/>
<path d="M151.568 18.5194C151.841 16.2509 149.057 14.3824 146.963 14.1928C145.966 14.0997 144.927 14.2755 143.982 13.8963C141.936 13.0792 141.115 10.0386 139.118 9.06982C137.624 8.34584 135.902 8.99052 134.457 9.82826C133.011 10.666 131.576 11.7175 129.965 11.8278C128.558 11.9312 127.026 11.3314 125.794 12.1208C124.876 12.7104 124.414 13.9239 123.552 14.641C122.689 15.358 121.644 15.4925 120.616 15.5545C119.588 15.6166 118.529 15.6304 117.594 16.1234C116.659 16.6164 115.869 17.7506 116.079 18.909L151.568 18.5194Z" fill="#EBEBEB"/>
<path d="M263.328 129.677C263.778 129.891 264.18 130.194 264.51 130.567C264.839 130.94 265.09 131.376 265.247 131.849C265.555 132.797 265.643 133.803 265.502 134.79C265.285 136.699 264.201 138.627 263.032 140.154C261.421 138.751 261.051 136.303 260.941 135.048C260.769 133.066 261.659 129.38 263.328 129.677Z" fill="#A0D9BB"/>
<path d="M264.901 143.305C264.792 142.758 264.831 142.191 265.013 141.664C265.195 141.136 265.513 140.666 265.936 140.302C266.364 139.943 266.859 139.673 267.392 139.507C267.925 139.341 268.486 139.284 269.041 139.337C269.298 139.334 269.553 139.387 269.787 139.492C270.021 139.597 270.229 139.753 270.397 139.947C270.525 140.153 270.595 140.391 270.599 140.634C270.602 140.877 270.54 141.116 270.418 141.326C270.174 141.742 269.824 142.086 269.404 142.322C268.024 143.198 266.502 143.788 264.919 143.315" fill="#A0D9BB"/>
<path d="M262.838 149.159C262.843 149.026 262.862 148.895 262.893 148.766L263.09 147.707C263.268 146.526 263.637 145.381 264.183 144.318C264.751 143.258 265.59 142.366 266.616 141.736C266.928 141.551 267.261 141.404 267.609 141.298C267.703 141.268 267.798 141.244 267.895 141.226C267.929 141.222 267.962 141.222 267.996 141.226C267.533 141.384 267.088 141.589 266.667 141.836C265.675 142.479 264.862 143.363 264.304 144.405C263.769 145.456 263.392 146.58 263.186 147.742C263.086 148.187 263.01 148.549 262.948 148.793C262.921 148.918 262.884 149.04 262.838 149.159Z" fill="#263238"/>
<path d="M262.897 132.542C262.912 132.598 262.919 132.656 262.917 132.714C262.917 132.842 262.935 133.004 262.945 133.207C262.969 133.635 262.993 134.241 263.021 135.017C263.069 136.548 263.107 138.661 263.097 140.999C263.086 143.336 263.031 145.449 262.966 146.976C262.935 147.742 262.907 148.355 262.879 148.79C262.879 148.99 262.855 149.152 262.845 149.279C262.842 149.337 262.836 149.395 262.824 149.452C262.819 149.394 262.819 149.337 262.824 149.279C262.824 149.152 262.824 148.99 262.824 148.786C262.824 148.342 262.852 147.728 262.869 146.976C262.907 145.446 262.948 143.332 262.959 140.999C262.969 138.665 262.959 136.551 262.921 135.021C262.921 134.269 262.9 133.642 262.893 133.207C262.893 133.007 262.893 132.842 262.893 132.714C262.889 132.657 262.89 132.599 262.897 132.542Z" fill="#263238"/>
<path d="M262.117 144.467C261.923 143.309 261.456 142.215 260.754 141.274C260.052 140.334 259.135 139.574 258.081 139.058C257.543 138.799 256.842 138.63 256.401 139.03C255.959 139.43 256.056 140.15 256.273 140.705C256.747 141.861 257.553 142.85 258.59 143.547C259.626 144.245 260.847 144.619 262.097 144.622" fill="#A0D9BB"/>
<path d="M258.343 140.867C258.462 140.907 258.577 140.957 258.688 141.016C258.82 141.078 258.949 141.147 259.074 141.223C259.219 141.312 259.392 141.402 259.564 141.529C259.76 141.66 259.948 141.801 260.127 141.953C260.333 142.12 260.53 142.299 260.717 142.488C261.149 142.93 261.531 143.419 261.855 143.946C262.167 144.481 262.418 145.048 262.604 145.639C262.681 145.897 262.743 146.159 262.79 146.425C262.836 146.652 262.869 146.883 262.887 147.114C262.907 147.307 262.916 147.5 262.914 147.694C262.924 147.838 262.924 147.983 262.914 148.128C262.913 148.253 262.899 148.378 262.873 148.5C262.842 148.5 262.897 147.969 262.804 147.121C262.776 146.911 262.749 146.68 262.693 146.432C262.64 146.172 262.573 145.916 262.493 145.663C262.305 145.085 262.055 144.529 261.748 144.005C261.43 143.487 261.059 143.004 260.641 142.564C260.441 142.367 260.254 142.178 260.058 142.019C259.861 141.86 259.685 141.719 259.516 141.591C258.812 141.109 258.329 140.895 258.343 140.867Z" fill="#263238"/>
<path d="M112.136 130.949C112.548 131.145 112.916 131.423 113.218 131.765C113.519 132.106 113.749 132.506 113.892 132.938C114.174 133.808 114.254 134.729 114.127 135.634C113.927 137.382 112.933 139.144 111.864 140.543C110.391 139.258 110.053 137.017 109.949 135.869C109.79 134.055 110.608 130.68 112.136 130.949Z" fill="#A0D9BB"/>
<path d="M111.743 133.576C111.754 133.627 111.76 133.679 111.76 133.731C111.76 133.848 111.76 133.997 111.788 134.183C111.808 134.572 111.829 135.141 111.853 135.841C111.898 137.241 111.933 139.178 111.926 141.316C111.919 143.453 111.864 145.391 111.805 146.79C111.777 147.48 111.75 148.059 111.726 148.449C111.726 148.635 111.701 148.793 111.695 148.9C111.692 148.952 111.685 149.004 111.674 149.055C111.669 149.003 111.669 148.949 111.674 148.897C111.674 148.779 111.674 148.631 111.674 148.445C111.674 148.038 111.698 147.476 111.715 146.787C111.75 145.387 111.788 143.453 111.798 141.316C111.808 139.178 111.798 137.244 111.764 135.845C111.764 135.155 111.743 134.593 111.736 134.183C111.736 134 111.736 133.838 111.736 133.731C111.732 133.679 111.734 133.627 111.743 133.576Z" fill="#263238"/>
<path d="M111.025 144.491C110.848 143.432 110.42 142.43 109.778 141.57C109.136 140.709 108.298 140.013 107.334 139.54C106.84 139.302 106.199 139.151 105.792 139.516C105.384 139.881 105.478 140.55 105.678 141.05C106.11 142.105 106.845 143.009 107.791 143.647C108.736 144.285 109.85 144.629 110.991 144.636" fill="#A0D9BB"/>
<path d="M107.572 141.198C107.68 141.23 107.785 141.275 107.882 141.333C108 141.39 108.115 141.453 108.227 141.522C108.358 141.605 108.517 141.685 108.676 141.802C108.855 141.921 109.027 142.051 109.19 142.191C109.382 142.346 109.565 142.512 109.738 142.688C110.54 143.493 111.132 144.483 111.463 145.57C111.535 145.806 111.592 146.047 111.636 146.29C111.679 146.501 111.709 146.714 111.725 146.928C111.743 147.105 111.751 147.282 111.749 147.459C111.759 147.592 111.759 147.726 111.749 147.859C111.748 147.975 111.737 148.09 111.715 148.204C111.684 148.204 111.736 147.718 111.649 146.945C111.626 146.735 111.592 146.525 111.546 146.318C111.498 146.085 111.437 145.855 111.363 145.628C111.188 145.099 110.957 144.591 110.673 144.112C110.377 143.636 110.03 143.195 109.638 142.795C109.471 142.618 109.293 142.451 109.107 142.295C108.948 142.155 108.782 142.024 108.61 141.902C108.003 141.423 107.558 141.223 107.572 141.198Z" fill="#263238"/>
<path d="M264.947 149.162C264.947 149.214 229.647 149.252 186.109 149.252C142.572 149.252 107.262 149.214 107.262 149.162C107.262 149.11 142.558 149.073 186.109 149.073C229.661 149.073 264.947 149.114 264.947 149.162Z" fill="#263238"/>
<path d="M190.776 144.156C191.021 144.329 191.243 144.53 191.439 144.756C191.939 145.276 192.4 145.831 192.819 146.418C193.234 147.006 193.604 147.625 193.926 148.269C194.073 148.53 194.189 148.806 194.271 149.093C194.099 148.85 193.947 148.595 193.816 148.328C193.547 147.852 193.153 147.204 192.674 146.521C192.194 145.839 191.715 145.256 191.356 144.842C191.144 144.63 190.95 144.401 190.776 144.156Z" fill="#263238"/>
<path d="M196.827 137.248C196.811 137.405 196.778 137.559 196.73 137.71C196.651 137.999 196.547 138.427 196.43 138.951C195.809 141.697 195.601 144.52 195.813 147.328C195.851 147.866 195.892 148.304 195.923 148.604C195.952 148.758 195.962 148.916 195.954 149.073C195.908 148.923 195.874 148.769 195.854 148.614C195.799 148.314 195.74 147.88 195.685 147.338C195.544 145.932 195.526 144.515 195.63 143.105C195.74 141.694 195.971 140.295 196.32 138.923C196.454 138.399 196.578 137.975 196.665 137.689C196.706 137.537 196.76 137.39 196.827 137.248Z" fill="#263238"/>
<path d="M201.498 142.922C201.321 143.203 201.129 143.473 200.922 143.732C200.459 144.384 200.056 145.077 199.718 145.801C199.384 146.523 199.116 147.274 198.917 148.045C198.852 148.371 198.769 148.693 198.669 149.01C198.667 148.676 198.709 148.342 198.793 148.018C199.126 146.431 199.819 144.941 200.818 143.663C201.013 143.389 201.241 143.14 201.498 142.922Z" fill="#263238"/>
<path d="M160.686 127.109C161.186 127.348 161.632 127.684 161.999 128.099C162.365 128.513 162.645 128.997 162.822 129.522C163.164 130.577 163.261 131.696 163.105 132.793C162.863 134.917 161.656 137.061 160.345 138.758C158.558 137.196 158.144 134.476 158.023 133.08C157.83 130.877 158.82 126.778 160.676 127.105" fill="#78BF9B"/>
<path d="M162.435 142.264C162.313 141.657 162.354 141.029 162.553 140.443C162.753 139.857 163.103 139.334 163.57 138.927C164.045 138.528 164.595 138.228 165.187 138.044C165.779 137.86 166.402 137.795 167.02 137.854C167.589 137.896 168.203 138.065 168.527 138.544C168.668 138.772 168.744 139.034 168.748 139.302C168.752 139.571 168.684 139.835 168.552 140.068C168.279 140.53 167.89 140.912 167.423 141.178C165.874 142.15 164.194 142.805 162.442 142.278" fill="#78BF9B"/>
<path d="M160.141 148.776C160.149 148.63 160.171 148.484 160.206 148.342L160.42 147.163C160.621 145.849 161.032 144.577 161.638 143.395C162.267 142.213 163.201 141.222 164.343 140.523C164.69 140.316 165.06 140.152 165.447 140.033C165.551 140.001 165.657 139.975 165.764 139.954C165.802 139.948 165.84 139.948 165.878 139.954C165.363 140.132 164.868 140.364 164.401 140.643C163.298 141.358 162.393 142.34 161.772 143.498C161.178 144.668 160.759 145.919 160.527 147.211C160.42 147.704 160.33 148.104 160.265 148.38C160.236 148.515 160.194 148.648 160.141 148.776Z" fill="#263238"/>
<path d="M160.21 130.297C160.221 130.36 160.228 130.423 160.231 130.487C160.231 130.63 160.241 130.812 160.262 131.035C160.29 131.511 160.317 132.2 160.345 133.049C160.4 134.752 160.441 137.103 160.431 139.702C160.421 142.302 160.355 144.649 160.286 146.352C160.252 147.201 160.217 147.89 160.19 148.366C160.172 148.59 160.162 148.769 160.152 148.91C160.149 148.975 160.141 149.04 160.127 149.104C160.12 149.039 160.12 148.975 160.127 148.91C160.127 148.769 160.127 148.586 160.127 148.362C160.127 147.866 160.155 147.183 160.176 146.349C160.217 144.646 160.265 142.298 160.276 139.699C160.286 137.099 160.276 134.755 160.234 133.052C160.234 132.218 160.21 131.532 160.203 131.039C160.203 130.811 160.203 130.632 160.203 130.491C160.197 130.426 160.199 130.361 160.21 130.297Z" fill="#263238"/>
<path d="M159.341 143.557C159.125 142.27 158.606 141.053 157.826 140.007C157.046 138.961 156.028 138.115 154.856 137.541C154.259 137.255 153.476 137.068 152.986 137.513C152.496 137.958 152.603 138.758 152.844 139.375C153.369 140.655 154.261 141.751 155.408 142.527C156.554 143.302 157.904 143.721 159.289 143.732" fill="#78BF9B"/>
<path d="M155.149 139.557C155.281 139.599 155.408 139.655 155.529 139.723C155.677 139.79 155.821 139.866 155.96 139.95C156.118 140.05 156.305 140.147 156.505 140.295C156.721 140.441 156.93 140.599 157.129 140.768C157.362 140.956 157.585 141.157 157.795 141.371C158.276 141.862 158.699 142.405 159.058 142.991C159.407 143.584 159.686 144.216 159.889 144.874C159.978 145.16 160.048 145.451 160.1 145.746C160.151 146.002 160.187 146.261 160.207 146.521C160.23 146.736 160.24 146.951 160.238 147.166C160.249 147.328 160.249 147.49 160.238 147.652C160.235 147.79 160.22 147.927 160.193 148.062C160.155 148.062 160.217 147.473 160.113 146.532C160.086 146.276 160.044 146.021 159.989 145.77C159.93 145.481 159.856 145.196 159.768 144.915C159.559 144.272 159.282 143.654 158.94 143.07C158.587 142.495 158.173 141.959 157.705 141.471C157.501 141.258 157.286 141.055 157.06 140.864C156.857 140.678 156.643 140.519 156.457 140.385C155.666 139.83 155.128 139.585 155.149 139.557Z" fill="#263238"/>
<path d="M214.798 14.2859C214.798 14.3031 214.522 14.1928 214.015 14.079C213.298 13.9227 212.558 13.8947 211.831 13.9963C210.752 14.1416 209.734 14.5845 208.892 15.2753C207.86 16.1186 207.133 17.2761 206.822 18.5711V18.6056L206.76 18.84L206.67 18.6194C206.166 17.3897 205.299 16.3432 204.183 15.6201C203.273 15.0198 202.224 14.6636 201.137 14.5858C200.407 14.5347 199.674 14.6022 198.967 14.7858C198.466 14.9168 198.201 15.034 198.197 15.0202C198.255 14.9812 198.318 14.9499 198.384 14.9271C198.568 14.849 198.757 14.7822 198.949 14.7272C199.835 14.4673 200.766 14.3996 201.68 14.5286C202.594 14.6576 203.47 14.9804 204.248 15.4753C205.394 16.2095 206.285 17.2784 206.801 18.5367H206.653V18.4987C206.974 17.1706 207.725 15.9854 208.789 15.1271C209.664 14.4427 210.713 14.0164 211.818 13.8963C212.557 13.8066 213.306 13.8521 214.029 14.0308C214.225 14.0792 214.417 14.1402 214.605 14.2135C214.671 14.233 214.736 14.2572 214.798 14.2859Z" fill="#263238"/>
<path d="M247.014 21.8049C247.014 21.8049 246.858 21.7635 246.579 21.7049C246.186 21.6251 245.782 21.6135 245.385 21.6704C244.8 21.7495 244.247 21.9881 243.788 22.3599C243.226 22.8196 242.83 23.4504 242.66 24.1561L242.601 24.3939L242.508 24.1698C242.235 23.5011 241.764 22.9313 241.159 22.5357C240.664 22.2106 240.094 22.0183 239.503 21.9772C239.105 21.9442 238.704 21.9768 238.316 22.0738C238.04 22.1427 237.896 22.2013 237.889 22.1875C237.921 22.1646 237.955 22.1461 237.992 22.1324C238.092 22.0842 238.196 22.045 238.303 22.0152C238.694 21.8922 239.104 21.8408 239.514 21.8635C240.127 21.8926 240.721 22.0816 241.239 22.4116C241.875 22.8188 242.37 23.4124 242.656 24.1112H242.505V24.0906C242.683 23.352 243.101 22.6935 243.695 22.2186C244.098 21.8999 244.571 21.6792 245.074 21.5739C245.578 21.4686 246.099 21.4816 246.596 21.6118C246.704 21.6382 246.809 21.6739 246.91 21.7187C246.95 21.7397 246.986 21.7691 247.014 21.8049Z" fill="#263238"/>
<path d="M227.48 27.7277C227.48 27.7277 227.308 27.9242 226.997 28.2724C225.108 30.4193 224.068 33.181 224.072 36.0396V36.1189H223.892C223.712 34.946 223.329 33.8133 222.761 32.7714C222.296 31.9209 221.715 31.1389 221.036 30.4477C220.578 29.981 220.078 29.5575 219.542 29.1825C219.162 28.9205 218.941 28.7895 218.948 28.7723C219.008 28.7938 219.064 28.8215 219.117 28.855C219.224 28.9171 219.39 28.9929 219.583 29.1239C220.139 29.4809 220.655 29.8945 221.125 30.3581C222.699 31.9037 223.731 33.9157 224.068 36.0947H223.885C223.885 36.0706 223.885 36.043 223.885 36.0154C223.869 33.7995 224.501 31.6272 225.703 29.7651C226.065 29.2048 226.479 28.6796 226.938 28.1965C227.097 28.0242 227.239 27.9069 227.328 27.8208C227.418 27.7346 227.477 27.7208 227.48 27.7277Z" fill="#263238"/>
<path d="M215.79 99.0081L191.123 105.707C190.778 111.65 193.048 117.569 196.701 122.254C197.833 123.709 199.116 125.081 199.906 126.736C201.224 129.443 201.145 132.659 200.31 135.548C199.475 138.437 197.94 141.064 196.401 143.657C194.98 142.25 192.606 142.098 190.83 143.043C189.053 143.987 188.087 147.125 187.673 149.079H197.467C197.914 149.025 198.343 148.874 198.725 148.635C199.106 148.397 199.431 148.078 199.675 147.7C201.159 145.632 201.6 145.101 202.332 144.025L212.312 129.329C209.91 126.446 208.533 122.849 208.396 119.1C208.272 115.384 213.595 102.011 215.79 99.0081Z" fill="#CB7C47"/>
<g opacity="0.3">
<path d="M209.718 113.036C211.416 107.727 214.307 101.025 215.78 99.0081L191.113 105.707C190.96 108.429 191.311 111.157 192.148 113.753C192.148 113.753 198.596 111.34 201.839 111.726C205.082 112.112 209.718 113.036 209.718 113.036Z" fill="black"/>
</g>
<path d="M139.757 43.5137C138.995 44.2343 132.185 51.8567 131.405 65.8328C131.405 65.8328 130.518 70.4524 131.06 71.004C131.602 71.5556 132.416 69.463 132.416 69.463C132.416 69.463 130.912 72.19 131.688 77.0475C132.464 81.905 132.581 84.2872 138.215 96.8878C143.849 109.488 159.38 113.291 159.38 113.291C159.38 113.291 176.088 109.892 176.671 109.699C177.254 109.506 188.128 108.144 195.301 105.038C202.473 101.932 206.372 104.845 209.101 107.561C211.829 110.278 222.69 120.951 223.863 123.668C225.036 126.385 226.774 130.073 228.134 132.014C229.493 133.955 231.825 138.416 231.628 140.747C231.432 143.077 227.744 146.763 230.852 149.093H239.594C239.594 149.093 239.011 142.105 236.489 136.089C233.967 130.073 229.496 122.696 229.69 116.487C229.883 110.278 229.496 102.318 229.11 99.4079C228.724 96.4983 228.137 93.4955 228.137 93.4955L227.168 94.9434C227.168 94.9434 227.361 86.2109 220.758 80.1951C214.155 74.1792 207.162 67.7841 193.955 69.1321C180.749 70.48 176.281 72.0417 172.397 70.8765C168.512 69.7112 165.601 69.3251 164.807 66.4154L167.332 54.3802C167.332 54.3802 167.722 48.5574 166.17 45.4547C164.617 42.3519 158.683 39.4078 155.296 38.6735C153.598 38.3149 145.205 38.2736 139.757 43.5137Z" fill="#CB7C47"/>
<path d="M155.009 55.0318C154.988 55.0594 154.754 54.8526 154.319 54.656C153.733 54.393 153.084 54.3055 152.449 54.4044C151.823 54.511 151.241 54.7932 150.769 55.218C150.407 55.5455 150.245 55.8144 150.221 55.7972C150.316 55.5399 150.474 55.3102 150.68 55.1284C151.146 54.6472 151.757 54.3301 152.419 54.2245C153.081 54.1188 153.76 54.2303 154.354 54.5423C154.608 54.6506 154.833 54.8185 155.009 55.0318Z" fill="#263238"/>
<path d="M178.51 108.602C177.104 107.465 176.016 105.984 175.351 104.303C174.686 102.623 174.467 100.798 174.715 99.0081L152.76 106.137C158.445 110.543 162.213 117.042 164.489 123.858C166.766 130.673 167.715 137.851 168.629 144.98C164.907 146.59 165.611 150.672 165.611 150.672H175.909C177.137 149.259 178.065 146.556 178.048 144.68C178.048 144.108 177.33 142.933 177.013 141.798C174.004 130.956 174.874 119.252 178.51 108.602Z" fill="#CB7C47"/>
<path d="M151.649 105.145C151.573 105.227 150.828 104.734 149.824 103.704C149.238 103.096 148.698 102.446 148.209 101.759C147.616 100.913 147.088 100.023 146.629 99.0977C146.181 98.1651 145.806 97.1992 145.508 96.2087C145.27 95.4 145.091 94.575 144.973 93.7403C144.783 92.313 144.856 91.4236 144.973 91.4167C145.09 91.4098 145.259 92.2682 145.601 93.6196C145.77 94.3091 146.005 95.0882 146.291 95.9536C146.623 96.8922 147.004 97.8128 147.433 98.7116C147.873 99.601 148.36 100.466 148.892 101.304C149.392 102.073 149.872 102.745 150.3 103.297C151.155 104.39 151.759 105.045 151.649 105.145Z" fill="#CB7C47"/>
<path d="M243.527 50.488C242.91 47.1784 241.588 43.9137 239.222 41.5246C236.855 39.1354 233.326 37.7323 230.038 38.4597C225.25 39.5147 224.001 43.2311 223.19 48.061C222.379 52.8909 225.036 58.0587 224.37 62.9266C223.704 67.7944 217.529 74.0379 212.857 75.5168L217.998 81.1811C221.809 81.1813 225.574 80.343 229.024 78.7258C232.475 77.1085 235.527 74.7519 237.964 71.8233C240.401 68.8947 242.162 65.4659 243.124 61.7804C244.085 58.0949 244.223 54.243 243.527 50.4984V50.488Z" fill="#CB7C47"/>
<path d="M138.502 73.9861C137.996 75.7429 137.837 77.5812 138.032 79.3987L139.847 76.4097C139.601 78.0993 139.968 79.8212 140.882 81.2638L142.02 78.1817C142.792 80.6084 144.088 82.8362 145.815 84.7078" fill="#CB7C47"/>
<path d="M145.812 84.6906C145.812 84.6906 145.77 84.663 145.705 84.5941C145.639 84.5251 145.539 84.4286 145.419 84.2941C145.174 84.0218 144.829 83.6047 144.428 83.0772C143.338 81.5923 142.493 79.9417 141.927 78.1886H142.1C141.755 79.1436 141.368 80.1847 140.968 81.2741L140.906 81.4431L140.81 81.2914C140.53 80.8471 140.299 80.3744 140.12 79.8814C139.718 78.7599 139.599 77.5568 139.775 76.3787L139.933 76.4339L138.112 79.4159L137.994 79.6021L137.96 79.3987C137.824 78.0784 137.88 76.7454 138.125 75.441C138.215 74.9721 138.308 74.6101 138.377 74.3654C138.412 74.2413 138.443 74.1516 138.464 74.0896C138.484 74.0275 138.498 73.993 138.502 73.9965C138.484 74.1246 138.458 74.2513 138.422 74.3757C138.367 74.6239 138.284 74.9859 138.208 75.4548C137.996 76.753 137.962 78.0741 138.108 79.3815L137.97 79.3504L139.771 76.3615L139.995 75.9926L139.93 76.4166C139.689 78.0836 140.048 79.782 140.944 81.2086H140.785L141.927 78.13L142.01 77.9025L142.083 78.1335C142.635 79.8726 143.449 81.5175 144.497 83.0117C144.884 83.5598 145.219 83.9701 145.45 84.2493L145.715 84.5699C145.752 84.6063 145.784 84.6468 145.812 84.6906Z" fill="#263238"/>
<path d="M162.434 111.588L137.888 95.7295C138.626 99.6286 143.483 107.158 145.822 110.874L145.926 144.701C142.821 144.529 140.061 145.973 139.871 149.083H151.432C151.432 149.083 152.726 144.853 153.592 143.284C154.458 141.716 153.354 138.961 153.354 138.961C153.354 129.232 156.59 119.293 162.434 111.588Z" fill="#CB7C47"/>
<path d="M146.502 94.8469C146.518 94.9357 146.526 95.0257 146.526 95.1158C146.547 95.2916 146.526 95.5502 146.581 95.8777C146.68 96.8153 146.877 97.7398 147.171 98.6357C147.604 99.959 148.167 101.236 148.851 102.449C149.686 103.937 150.614 105.371 151.632 106.741C152.668 108.09 153.87 109.304 155.209 110.354C156.424 111.354 157.548 112.222 158.449 113.008C159.171 113.617 159.849 114.276 160.477 114.98C160.705 115.225 160.853 115.442 160.964 115.577C161.023 115.643 161.075 115.716 161.119 115.794C161.052 115.735 160.991 115.671 160.936 115.601C160.816 115.473 160.66 115.256 160.426 115.029C159.776 114.345 159.085 113.702 158.356 113.105C157.445 112.333 156.313 111.478 155.089 110.481C153.731 109.426 152.514 108.2 151.47 106.834C150.447 105.459 149.518 104.017 148.689 102.518C148.006 101.293 147.45 100.001 147.03 98.6633C146.746 97.7604 146.567 96.8281 146.495 95.8846C146.474 95.6289 146.467 95.3723 146.474 95.1158C146.474 95.0255 146.484 94.9354 146.502 94.8469Z" fill="#263238"/>
<path d="M177.668 110.112C178.96 107.051 180.765 104.232 183.005 101.776C181.454 102.497 180.021 103.448 178.755 104.596C179.623 102.411 180.642 100.288 181.804 98.2427" fill="#CB7C47"/>
<path d="M181.805 98.2427C181.793 98.2862 181.776 98.3279 181.753 98.3668L181.574 98.7116L180.908 100.004C180.346 101.114 179.59 102.707 178.838 104.627L178.703 104.534C179.696 103.628 180.794 102.844 181.974 102.2C182.319 102.014 182.664 101.856 182.971 101.694L183.378 101.504L183.078 101.849C181.491 103.587 180.113 105.506 178.972 107.565C178.541 108.347 178.224 108.992 178.01 109.437L177.768 109.95C177.744 110.013 177.711 110.072 177.672 110.126C177.688 110.062 177.71 110 177.737 109.94C177.786 109.816 177.851 109.637 177.951 109.409C178.145 108.954 178.448 108.299 178.866 107.51C179.979 105.421 181.349 103.478 182.943 101.728L183.047 101.869C182.729 102.021 182.395 102.187 182.06 102.369C180.893 103.01 179.804 103.782 178.814 104.672L178.548 104.914L178.683 104.569C179.311 102.995 180.025 101.456 180.822 99.9596C181.115 99.408 181.36 98.9805 181.529 98.6874L181.732 98.3427C181.751 98.306 181.776 98.2723 181.805 98.2427Z" fill="#263238"/>
<path d="M215.255 113.753L215.193 113.698L215.028 113.536L214.396 112.888C213.851 112.322 213.075 111.509 212.119 110.474C211.023 109.257 209.855 108.106 208.621 107.027C207.885 106.404 207.088 105.857 206.241 105.396C205.327 104.909 204.354 104.542 203.346 104.303C202.338 104.072 201.302 103.984 200.269 104.041C199.305 104.101 198.349 104.249 197.412 104.483C195.824 104.892 194.263 105.4 192.738 106.003C191.427 106.503 190.371 106.917 189.633 107.172C189.267 107.306 188.974 107.396 188.777 107.458L188.553 107.527C188.501 107.544 188.474 107.547 188.474 107.544L188.546 107.51L188.763 107.423C188.957 107.351 189.246 107.251 189.609 107.106C190.343 106.83 191.392 106.417 192.714 105.886C194.238 105.263 195.802 104.74 197.395 104.321C198.342 104.081 199.308 103.929 200.283 103.866C201.332 103.805 202.384 103.894 203.408 104.131C204.431 104.372 205.418 104.745 206.344 105.241C207.205 105.707 208.015 106.263 208.759 106.899C209.992 107.99 211.155 109.157 212.244 110.392L214.479 112.85L215.083 113.519L215.238 113.698C215.238 113.729 215.259 113.75 215.255 113.753Z" fill="#263238"/>
<g opacity="0.3">
<path d="M164.113 66.5258C161.626 67.429 159.628 69.2113 158.721 71.3281L160.298 70.6972C158.541 72.818 157.577 75.4837 157.572 78.2369C155.782 75.2651 155.996 70.7007 157.49 69.2734C157.907 68.6209 158.456 68.0627 159.102 67.6346C159.748 67.2066 160.476 66.9181 161.24 66.7878C163.775 66.3878 164.113 66.5258 164.113 66.5258Z" fill="black"/>
</g>
<path d="M224.339 84.5251C224.211 84.3688 224.096 84.2028 223.994 84.0287C223.79 83.6839 223.48 83.2323 223.08 82.6669C222.679 82.1015 222.183 81.45 221.593 80.7501C221.003 80.0503 220.316 79.3229 219.554 78.5954C218.791 77.868 218.012 77.2164 217.287 76.6752C216.563 76.1339 215.88 75.6616 215.293 75.2962C214.707 74.9307 214.224 74.6446 213.886 74.4619C213.705 74.3718 213.532 74.2681 213.368 74.1516C213.558 74.219 213.741 74.302 213.917 74.3998C214.262 74.5653 214.762 74.8342 215.359 75.1893C216.058 75.6056 216.735 76.0578 217.387 76.5442C218.992 77.732 220.447 79.1095 221.72 80.6467C222.303 81.3534 222.8 82.0257 223.187 82.5945C223.573 83.1634 223.877 83.6495 224.053 83.9908C224.161 84.1617 224.257 84.3403 224.339 84.5251Z" fill="#263238"/>
<path d="M236.628 50.7845C236.603 50.7202 236.585 50.653 236.576 50.5845C236.545 50.4535 236.521 50.2605 236.459 50.0123C236.296 49.3047 236.072 48.6126 235.789 47.9438C235.363 46.9339 234.804 45.9856 234.127 45.1237C233.283 44.0374 232.258 43.1045 231.098 42.3657L231.229 42.2726C231.415 43.1069 231.574 43.9964 231.725 44.8755C231.993 46.5556 232.16 48.2502 232.226 49.9502V50.2639L232.06 49.995C231.513 49.1047 230.819 48.3132 230.007 47.6542L230.121 47.5887C230.359 49.0332 230.552 50.2157 230.694 51.0568C230.753 51.4568 230.801 51.7739 230.839 52.0118C230.861 52.1255 230.873 52.2408 230.877 52.3565C230.842 52.2496 230.815 52.1401 230.797 52.029L230.615 51.081C230.463 50.2432 230.245 49.0607 229.983 47.6335L229.952 47.4542L230.097 47.568C230.927 48.2313 231.637 49.0311 232.198 49.933L232.046 49.9812C231.97 48.2884 231.8 46.601 231.536 44.9272C231.394 44.0343 231.225 43.169 231.046 42.3347L230.997 42.1278L231.177 42.2416C232.351 42.9903 233.385 43.9376 234.233 45.041C234.914 45.9163 235.468 46.883 235.879 47.9127C236.156 48.5903 236.365 49.2936 236.504 50.0123C236.559 50.2639 236.573 50.4604 236.593 50.5949C236.609 50.6573 236.62 50.7206 236.628 50.7845Z" fill="#263238"/>
<path d="M157.707 115.091C157.57 115.068 157.436 115.032 157.307 114.984L156.189 114.639L152.256 113.363L152.346 113.239C152.849 113.887 153.469 114.436 154.174 114.856L154.095 115.011C151.084 113.859 148.379 112.028 146.191 109.661C145.686 109.113 145.212 108.537 144.77 107.937L144.425 107.434C144.379 107.38 144.342 107.319 144.314 107.254C144.365 107.303 144.411 107.356 144.452 107.413L144.822 107.896C145.167 108.302 145.629 108.902 146.281 109.578C147.973 111.358 149.957 112.838 152.146 113.953C152.836 114.298 153.505 114.594 154.164 114.856L154.088 115.011C153.363 114.579 152.728 114.013 152.215 113.343L152.056 113.136L152.304 113.219L156.22 114.563L157.321 114.953C157.453 114.989 157.582 115.035 157.707 115.091Z" fill="#263238"/>
<path d="M134.068 86.897C134.068 86.897 142.051 93.3576 144.418 92.0337C146.785 90.7099 169.213 69.9698 169.213 69.9698L174.184 71.3867C174.184 71.3867 152.032 93.6989 151.556 95.5019C151.556 95.5019 148.351 99.9354 150 103.431C151.649 106.927 159.201 113.774 159.201 113.774C159.201 113.774 147.768 110.54 144.97 106.399C142.172 102.259 139.398 97.3256 139.398 97.3256L137.532 95.3882C136.131 93.0887 135.014 90.179 134.068 86.897Z" fill="#263238"/>
<path d="M177.958 109.461C177.958 109.461 186.238 104.634 187.504 100.315C188.77 95.9949 189.35 69.632 189.35 69.632L181.908 70.6248C181.908 70.6248 184.116 94.7952 183.005 98.9908C181.894 103.186 177.958 109.461 177.958 109.461Z" fill="#263238"/>
<path d="M171.959 72.8864C176.124 73.363 180.338 73.2026 184.454 72.4106L184.144 70.2422C179.856 70.8874 175.517 71.1379 171.183 70.9903" fill="#263238"/>
<path d="M157.731 39.8663C157.731 39.8663 163.469 33.9263 164.818 33.3574C166.166 32.7886 167.012 33.3574 167.367 34.7054C167.722 36.0534 167.07 41.1591 165.587 44.479" fill="#CB7C47"/>
<path d="M140.213 43.0932C140.213 43.0932 141.496 38.2391 142.573 35.7672C143.649 33.2954 147.647 27.5312 148.655 27.9104C149.662 28.2896 150.621 29.5583 151.953 32.7886C153.285 36.0189 154.295 38.5597 154.295 38.5597" fill="#CB7C47"/>
<path d="M165.428 50.6949C165.213 50.5837 164.97 50.5368 164.729 50.5599C164.488 50.5829 164.259 50.6749 164.069 50.8247C163.879 50.9746 163.736 51.1761 163.658 51.4049C163.579 51.6338 163.569 51.8804 163.627 52.1152C163.726 52.4793 163.933 52.8049 164.22 53.0495C164.466 53.175 164.738 53.2412 165.014 53.2426C165.257 53.2248 165.487 53.1252 165.666 52.9599C165.81 52.856 165.928 52.7204 166.011 52.5634C166.172 52.1807 166.184 51.7516 166.045 51.3602C165.975 51.1519 165.844 50.9695 165.668 50.8367C165.493 50.7039 165.282 50.6269 165.062 50.6156" fill="#263238"/>
<path d="M163.364 50.7362C165.26 52.6318 167.536 54.103 170.044 55.0525C172.941 56.1247 175.067 57.3347 174.152 59.7066C173.238 62.0785 169.978 65.2226 167.694 65.9535C165.41 66.6843 163.209 65.9121 160.818 67.0084C158.428 68.1047 156.589 71.3867 156.589 71.3867" fill="#CB7C47"/>
<path d="M156.589 71.3867C156.598 71.3564 156.61 71.3274 156.627 71.3005C156.658 71.2419 156.703 71.1592 156.765 71.0523C156.892 70.8351 157.086 70.5248 157.358 70.1353C157.688 69.6626 158.048 69.2113 158.435 68.7839C158.939 68.2077 159.52 67.7021 160.16 67.2808C160.344 67.163 160.535 67.056 160.732 66.9601C160.939 66.8639 161.151 66.7787 161.367 66.705C161.825 66.5417 162.299 66.4262 162.781 66.3603C163.775 66.2189 164.851 66.2637 165.955 66.1741C166.521 66.1315 167.08 66.0262 167.622 65.8604C168.179 65.6669 168.71 65.404 169.202 65.0778C169.72 64.7461 170.212 64.3762 170.675 63.9712C171.156 63.5592 171.61 63.117 172.034 62.6473C172.901 61.7495 173.591 60.697 174.07 59.5446C174.285 59.0033 174.292 58.4017 174.09 57.8553C173.856 57.3467 173.488 56.9116 173.024 56.597C172.15 56.01 171.204 55.5373 170.209 55.1904C169.341 54.8701 168.498 54.4852 167.687 54.0389C166.514 53.3919 165.412 52.6235 164.399 51.7463C164.054 51.4326 163.778 51.1775 163.603 51.0017L163.406 50.7948C163.383 50.7721 163.364 50.7467 163.347 50.719C163.347 50.719 163.375 50.719 163.42 50.7811L163.627 50.9741C163.81 51.143 164.082 51.3878 164.444 51.6912C165.47 52.5437 166.577 53.2931 167.749 53.9286C168.559 54.3632 169.4 54.7389 170.264 55.0525C171.274 55.3969 172.235 55.8721 173.121 56.466C173.612 56.7951 174.002 57.2532 174.249 57.7898C174.472 58.3738 174.472 59.0192 174.249 59.6032C173.765 60.7781 173.062 61.8507 172.179 62.7645C171.749 63.2399 171.288 63.6867 170.799 64.1022C170.329 64.5127 169.828 64.8872 169.302 65.2226C168.797 65.5553 168.252 65.8239 167.68 66.0224C167.126 66.1911 166.554 66.2963 165.976 66.3361C164.851 66.4223 163.789 66.3741 162.809 66.5051C162.339 66.5611 161.877 66.6663 161.429 66.8188C161.217 66.889 161.008 66.9707 160.805 67.0636C160.613 67.1555 160.426 67.2579 160.246 67.3704C159.61 67.7814 159.03 68.2727 158.521 68.8321C158.133 69.2538 157.769 69.697 157.431 70.1594C157.151 70.5386 156.948 70.8489 156.81 71.0523L156.658 71.2902C156.639 71.3253 156.616 71.3578 156.589 71.3867Z" fill="#263238"/>
<path d="M153.919 50.1536C153.657 50.0199 153.363 49.9639 153.07 49.9922C152.778 50.0205 152.499 50.1318 152.268 50.3131C152.037 50.4944 151.863 50.7381 151.766 51.0153C151.669 51.2925 151.653 51.5916 151.721 51.8773C151.844 52.321 152.097 52.7181 152.446 53.0185C152.748 53.1691 153.081 53.2492 153.419 53.2529C153.715 53.2332 153.995 53.1114 154.212 52.9082C154.39 52.7834 154.536 52.6194 154.64 52.429C154.834 51.9599 154.849 51.436 154.681 50.9569C154.594 50.705 154.433 50.4848 154.22 50.3245C154.007 50.1643 153.751 50.0711 153.484 50.0571" fill="#263238"/>
<path d="M174.156 57.7967C174.069 57.5154 173.926 57.2548 173.735 57.0307C173.544 56.8067 173.309 56.6239 173.045 56.4935C172.55 56.2645 172.016 56.1279 171.472 56.0902C170.761 56.0052 170.048 55.9488 169.333 55.9213C168.929 55.9213 168.432 55.9661 168.263 56.397C168.094 56.828 168.367 57.2796 168.608 57.6278C169.112 58.387 169.74 59.055 170.468 59.6032C170.808 59.8601 171.207 60.0289 171.628 60.0944C172.05 60.16 172.481 60.1203 172.883 59.979C173.307 59.7781 173.657 59.4488 173.883 59.0379C174.109 58.6269 174.2 58.1552 174.142 57.6898" fill="#263238"/>
<path d="M156.741 61.0615C156.707 61.3236 156.755 61.5898 156.879 61.8234C157.253 62.443 157.752 62.9773 158.345 63.392C159.205 64.0356 160.139 64.5749 161.126 64.9985C161.704 65.2524 162.305 65.4532 162.92 65.5984C163.585 65.7395 164.26 65.8351 164.938 65.8845C165.612 65.9404 166.29 65.8845 166.946 65.719C167.552 65.5512 168.122 65.2717 168.626 64.8951C169.479 64.2385 170.192 63.418 170.724 62.4818C171.09 61.8558 171.424 61.2115 171.724 60.5512L171.979 60.0134C172.007 59.9503 172.039 59.8892 172.076 59.8307C172.063 59.8999 172.041 59.9671 172.01 60.0307C171.955 60.172 171.879 60.3547 171.79 60.5788C171.511 61.2537 171.192 61.911 170.834 62.5473C170.306 63.5051 169.587 64.3451 168.723 65.0157C168.205 65.4065 167.621 65.6986 166.998 65.8776C166.322 66.0486 165.622 66.1069 164.928 66.05C164.24 66.0002 163.556 65.9023 162.882 65.757C162.257 65.6065 161.647 65.3988 161.06 65.1364C160.064 64.7014 159.125 64.1444 158.266 63.4782C157.667 63.0455 157.172 62.4849 156.817 61.8372C156.726 61.6556 156.685 61.4536 156.696 61.2511C156.7 61.1858 156.715 61.1216 156.741 61.0615Z" fill="#263238"/>
<g opacity="0.3">
<path d="M144.684 40.6282C145.033 37.8372 145.948 35.1464 147.371 32.7196C147.63 32.2749 148.085 31.7785 148.561 31.975C148.791 32.1034 148.966 32.3103 149.055 32.5576C150.067 34.5844 150.903 36.6939 151.556 38.8631C149.103 38.9413 146.731 39.7598 144.753 41.2108" fill="black"/>
</g>
<g opacity="0.3">
<path d="M160.685 40.3386C162.227 41.0453 162.993 42.0623 164.231 43.2035C165.199 41.3412 165.816 39.3173 166.053 37.2324C166.097 36.8463 166.094 36.3878 165.78 36.1602C165.394 35.881 164.862 36.1602 164.49 36.4671C163.07 37.5961 161.795 38.8965 160.695 40.3386" fill="black"/>
</g>
<path d="M171.997 57.1693C171.976 57.2175 171.307 56.9555 170.424 56.8831C169.541 56.8107 168.834 56.9452 168.823 56.8831C169.336 56.6824 169.892 56.6171 170.438 56.6935C170.99 56.7127 171.528 56.8768 171.997 57.1693Z" fill="white"/>
<path d="M136.614 93.7092C136.685 93.7065 136.756 93.7123 136.825 93.7265C136.963 93.7437 137.17 93.7816 137.425 93.8402C138.159 94.0152 138.845 94.3508 139.433 94.8228C140.262 95.5661 140.978 96.4268 141.558 97.3774C142.291 98.5197 142.933 99.7173 143.48 100.959C144.076 102.269 144.615 103.528 145.205 104.627C145.703 105.608 146.296 106.537 146.974 107.403C147.432 107.985 147.95 108.518 148.52 108.992C148.924 109.337 149.172 109.485 149.162 109.502C149.096 109.474 149.033 109.438 148.975 109.395C148.803 109.29 148.637 109.175 148.479 109.051C147.886 108.592 147.348 108.069 146.874 107.489C146.178 106.626 145.57 105.695 145.06 104.71C144.466 103.607 143.921 102.345 143.335 101.039C142.785 99.8007 142.142 98.6066 141.41 97.467C140.844 96.5219 140.147 95.6618 139.34 94.9124C138.769 94.4441 138.106 94.1 137.394 93.9023C136.901 93.7644 136.611 93.7265 136.614 93.7092Z" fill="#455A64"/>
<path d="M169.675 70.4525C169.652 70.4842 169.627 70.5141 169.599 70.5421C169.541 70.6076 169.461 70.6903 169.361 70.7938L168.433 71.7556C167.623 72.583 166.443 73.7758 164.984 75.2307C162.041 78.1473 157.915 82.1257 153.254 86.3764C150.915 88.507 148.672 90.5134 146.595 92.3096C146.085 92.7513 145.52 93.1266 144.915 93.4265C144.332 93.7086 143.684 93.8278 143.039 93.7713C142.446 93.6946 141.873 93.5088 141.348 93.2231C140.872 92.9668 140.411 92.6824 139.968 92.3716C138.243 91.2202 136.863 90.2411 135.963 89.5309C135.504 89.1861 135.152 88.8965 134.928 88.7035L134.659 88.4828C134.6 88.4311 134.569 88.4035 134.573 88.4001L134.669 88.4656L134.949 88.6759L136.015 89.4757C136.943 90.1652 138.316 91.1305 140.048 92.2647C140.491 92.569 140.952 92.8476 141.428 93.099C141.939 93.3743 142.497 93.552 143.073 93.6231C143.691 93.6754 144.312 93.5561 144.867 93.2783C145.458 92.9839 146.009 92.6142 146.506 92.1786C148.576 90.3824 150.815 88.3691 153.15 86.242C157.777 81.9878 161.917 78.0197 164.87 75.141L168.375 71.6935L169.355 70.78L169.603 70.5386C169.625 70.5082 169.649 70.4794 169.675 70.4525Z" fill="#455A64"/>
<path d="M157.876 113.37L157.655 113.222L157.01 112.774C156.444 112.377 155.63 111.791 154.595 110.978C153.33 110.003 152.174 108.896 151.145 107.675C150.511 106.904 149.962 106.066 149.51 105.176C148.998 104.178 148.64 103.109 148.448 102.004C148.229 100.783 148.284 99.5291 148.61 98.3323C148.994 97.0474 149.612 95.8446 150.435 94.7848C151.305 93.6544 152.241 92.5769 153.239 91.558C154.247 90.4927 155.309 89.4033 156.386 88.3036C160.733 83.8839 165.735 79.2573 170.713 74.1275C171.345 73.4793 171.962 72.8243 172.576 72.1796L172.604 72.152H172.638L183.661 71.8797H183.744V71.9624C184.123 77.4439 184.409 82.5669 184.454 87.1693C184.482 89.4688 184.454 91.6511 184.399 93.6506C184.377 95.5114 184.206 97.3675 183.888 99.2011C183.624 100.699 183.144 102.15 182.464 103.51C181.955 104.526 181.299 105.461 180.518 106.286C180.031 106.802 179.483 107.257 178.886 107.641C178.682 107.776 178.47 107.899 178.251 108.009L178.407 107.909C178.51 107.841 178.672 107.758 178.869 107.616C179.457 107.222 179.995 106.759 180.473 106.237C181.241 105.415 181.886 104.486 182.388 103.479C183.049 102.121 183.514 100.676 183.768 99.1873C184.075 97.3586 184.238 95.5084 184.254 93.6541C184.302 91.6407 184.323 89.4757 184.292 87.1762C184.237 82.5807 183.947 77.4646 183.557 71.9831L183.644 72.0624L172.625 72.3417L172.687 72.3106C172.073 72.9588 171.455 73.6138 170.82 74.2619C165.839 79.3952 160.833 84.0218 156.482 88.4277C155.392 89.5286 154.342 90.6122 153.333 91.6786C152.336 92.6901 151.401 93.7595 150.531 94.8814C149.725 95.9217 149.116 97.1006 148.734 98.3599C148.412 99.537 148.353 100.77 148.561 101.973C148.747 103.066 149.096 104.124 149.596 105.114C150.038 106 150.578 106.834 151.207 107.599C152.225 108.82 153.369 109.931 154.619 110.912C155.654 111.733 156.469 112.326 157.034 112.736L157.669 113.198C157.807 113.312 157.876 113.37 157.876 113.37Z" fill="#455A64"/>
<path d="M187.666 69.8733C187.67 69.9088 187.67 69.9446 187.666 69.9801C187.666 70.0629 187.666 70.1663 187.666 70.2973C187.666 70.5869 187.635 70.9868 187.614 71.5143C187.566 72.5692 187.497 74.0999 187.432 75.996C187.297 79.7883 187.228 84.9974 187.37 90.7651C187.428 93.6403 187.339 96.4431 186.566 98.8494C185.864 100.972 184.683 102.905 183.116 104.5C182.074 105.572 180.917 106.526 179.666 107.344C179.221 107.627 178.869 107.841 178.631 107.975L178.351 108.127C178.321 108.146 178.289 108.163 178.255 108.175C178.255 108.175 178.282 108.151 178.345 108.113L178.61 107.944C178.852 107.803 179.193 107.578 179.645 107.285C180.881 106.452 182.025 105.489 183.057 104.414C184.595 102.823 185.751 100.904 186.438 98.8012C187.194 96.419 187.28 93.6299 187.221 90.7651C187.08 84.9974 187.169 79.7676 187.335 75.9891C187.418 74.0999 187.504 72.5726 187.573 71.5074C187.611 70.9903 187.642 70.5834 187.663 70.2904C187.663 70.1629 187.683 70.056 187.69 69.9767C187.679 69.9432 187.671 69.9085 187.666 69.8733Z" fill="#455A64"/>
</svg>
