<svg width="375" height="152" viewBox="0 0 375 152" fill="none" xmlns="http://www.w3.org/2000/svg">
<path d="M134.883 75.6839C105.529 92.6157 105.529 120.088 134.883 137.026C164.236 153.965 211.855 153.974 241.209 137.026C270.563 120.078 270.563 92.6157 241.209 75.6839C211.855 58.7521 164.236 58.7456 134.883 75.6839Z" fill="#FAFAFA"/>
<path d="M188.61 8.32497C188.082 8.44556 187.632 8.80408 187.136 8.99638C186.376 9.28645 185.505 9.19845 184.752 9.50156C184.265 9.7137 183.854 10.0657 183.568 10.5126C183.283 10.9596 183.138 11.4812 183.15 12.0112C183.177 12.541 183.342 13.0546 183.628 13.5015C183.914 13.9484 184.311 14.3132 184.781 14.5599C185.433 14.9054 186.151 15.1042 186.806 15.4497C187.4 15.7756 187.873 16.2352 188.532 16.4503C189.14 16.6607 189.805 16.641 190.401 16.3949C190.759 16.2403 191.062 15.9799 191.268 15.6485C191.624 15.1042 192.057 14.2568 191.969 13.5789C191.888 12.9596 191.503 12.4642 191.262 11.9036C191.02 11.343 190.988 10.6586 190.854 10.0361C190.626 8.96704 189.8 8.04793 188.61 8.32497Z" fill="#F5F5F5"/>
<path d="M185.792 8.14246C185.966 8.06524 186.134 7.9748 186.295 7.87194C186.508 7.7439 186.681 7.55737 186.792 7.33443C186.903 7.11148 186.948 6.86144 186.921 6.61387C186.897 6.16559 186.796 5.72469 186.624 5.31017C186.513 4.98715 186.35 4.68441 186.141 4.41388C186.073 4.32517 185.986 4.25281 185.886 4.20206C185.786 4.15132 185.676 4.12347 185.564 4.12054C185.405 4.14012 185.253 4.19473 185.118 4.28042C184.984 4.36611 184.87 4.48073 184.785 4.61595C184.488 5.0106 184.258 5.45095 184.103 5.91965C183.961 6.30034 183.915 6.70996 183.969 7.11254C183.997 7.31427 184.07 7.50712 184.183 7.67652C184.296 7.84591 184.446 7.98741 184.621 8.09031C184.954 8.25239 185.336 8.2804 185.688 8.16853L185.792 8.14246Z" fill="#F5F5F5"/>
<path d="M188.183 3.71966C188.526 3.01567 189.07 2.43878 189.886 2.45182C190.838 2.46811 191.122 3.62515 191.04 4.40737C190.984 5.25702 190.638 6.06191 190.062 6.68884C189.286 7.42869 188.304 7.07343 187.948 6.11847C187.709 5.31904 187.793 4.45753 188.183 3.71966Z" fill="#F5F5F5"/>
<path d="M192.55 11.6559C192.495 11.4728 192.457 11.2852 192.436 11.0954C192.397 10.8501 192.43 10.599 192.529 10.3716C192.628 10.1441 192.791 9.94969 192.997 9.81121C193.36 9.5392 193.767 9.3309 194.2 9.19521C194.518 9.07214 194.854 9.00275 195.195 8.98988C195.308 8.98488 195.42 9.00512 195.524 9.04911C195.628 9.09309 195.72 9.15971 195.795 9.2441C195.879 9.3809 195.931 9.53468 195.948 9.69424C195.965 9.8538 195.946 10.0151 195.893 10.1665C195.779 10.6492 195.587 11.1104 195.325 11.5321C195.121 11.8831 194.836 12.1803 194.494 12.3991C194.321 12.5057 194.127 12.5722 193.926 12.5937C193.724 12.6151 193.52 12.5909 193.329 12.5229C192.992 12.3714 192.726 12.096 192.586 11.7537C192.573 11.7211 192.56 11.6885 192.55 11.6559Z" fill="#F5F5F5"/>
<path d="M194.677 6.93003C195.003 6.21625 195.078 5.42426 194.54 4.81478C193.914 4.09774 192.844 4.63226 192.315 5.18959C191.706 5.78676 191.316 6.57243 191.21 7.41892C191.151 8.48795 192.061 9.00291 193.017 8.65743C193.773 8.31888 194.369 7.69939 194.677 6.93003Z" fill="#F5F5F5"/>
<path d="M125.055 11.9395C124.768 12.4936 124.752 13.1454 124.543 13.7321C124.217 14.6154 123.503 15.3063 123.203 16.1928C123.025 16.7766 123.025 17.4001 123.203 17.984C123.38 18.5678 123.728 19.0856 124.201 19.4716C124.686 19.8412 125.26 20.0782 125.865 20.1594C126.47 20.2405 127.086 20.163 127.651 19.9345C128.444 19.6085 129.152 19.1457 129.935 18.8296C130.655 18.546 131.419 18.4873 132.1 18.0702C132.74 17.6961 133.219 17.0997 133.447 16.3949C133.582 15.9708 133.582 15.5153 133.447 15.0912C133.238 14.3709 132.818 13.3605 132.162 12.9303C131.507 12.5001 130.838 12.5001 130.166 12.2785C129.494 12.0568 128.861 11.5908 128.209 11.2388C127.123 10.6586 125.701 10.6945 125.055 11.9395Z" fill="#EBEBEB"/>
<path d="M122.789 14.2666C122.855 14.0539 122.902 13.8357 122.929 13.6148C122.979 13.3324 122.945 13.0418 122.833 12.778C122.721 12.5143 122.534 12.2887 122.296 12.1286C121.883 11.8101 121.419 11.5643 120.923 11.4018C120.557 11.2597 120.171 11.1761 119.779 11.154C119.649 11.1484 119.52 11.1711 119.401 11.2207C119.281 11.2702 119.174 11.3454 119.087 11.4409C118.989 11.597 118.926 11.7731 118.905 11.9564C118.883 12.1397 118.903 12.3255 118.963 12.5001C119.092 13.0583 119.312 13.5914 119.615 14.0776C119.844 14.4858 120.169 14.8324 120.561 15.088C120.758 15.2133 120.98 15.2926 121.212 15.3197C121.444 15.3468 121.678 15.321 121.899 15.2444C122.278 15.0771 122.581 14.7735 122.747 14.3937C122.763 14.3416 122.776 14.3057 122.789 14.2666Z" fill="#EBEBEB"/>
<path d="M120.708 8.86931C120.346 8.04798 120.251 7.13865 120.871 6.43465C121.595 5.61332 122.828 6.23258 123.428 6.87465C124.028 7.51672 124.645 8.50427 124.694 9.43968C124.762 10.6717 123.715 11.2649 122.616 10.8607C121.742 10.5413 121.073 9.70042 120.708 8.86931Z" fill="#EBEBEB"/>
<path d="M130.92 10.9878C130.718 10.8953 130.525 10.7863 130.342 10.6619C130.097 10.5143 129.9 10.2985 129.776 10.0409C129.651 9.7834 129.604 9.49519 129.641 9.21151C129.67 8.69327 129.788 8.18388 129.99 7.70574C130.122 7.33581 130.313 6.98927 130.554 6.67907C130.636 6.57937 130.738 6.49859 130.854 6.44231C130.97 6.38604 131.097 6.35562 131.226 6.35315C131.409 6.38187 131.583 6.45125 131.735 6.55618C131.888 6.6611 132.015 6.79889 132.107 6.95937C132.444 7.41967 132.704 7.93149 132.876 8.47492C133.033 8.90877 133.082 9.37386 133.02 9.83077C132.989 10.0621 132.906 10.2833 132.776 10.4776C132.647 10.6719 132.475 10.8341 132.273 10.952C131.889 11.135 131.448 11.163 131.043 11.0302L130.92 10.9878Z" fill="#EBEBEB"/>
<path d="M128.36 5.59375C127.968 4.7822 127.342 4.11731 126.403 4.12709C125.31 4.14339 124.977 5.47642 125.072 6.35642C125.167 7.23642 125.506 8.31197 126.194 8.98663C127.088 9.8373 128.219 9.42989 128.627 8.33478C128.966 7.46782 128.764 6.41182 128.36 5.59375Z" fill="#EBEBEB"/>
<path d="M242.653 13.4387C242.49 13.9309 242.565 14.4719 242.47 14.9836C242.33 15.7528 241.818 16.4209 241.694 17.1901C241.626 17.6954 241.71 18.2096 241.935 18.6671C242.16 19.1245 242.517 19.5045 242.96 19.7584C243.409 20.0007 243.913 20.1218 244.423 20.1098C244.933 20.0978 245.432 19.9531 245.869 19.69C246.475 19.3282 246.997 18.8393 247.607 18.4743C248.162 18.1483 248.785 17.9919 249.29 17.5551C249.767 17.1611 250.083 16.6055 250.177 15.994C250.23 15.6234 250.167 15.2458 249.998 14.9119C249.727 14.348 249.248 13.5691 248.648 13.3051C248.048 13.0411 247.5 13.1291 246.919 13.0476C246.339 12.9661 245.774 12.6532 245.177 12.4381C244.186 12.1122 243.018 12.3241 242.653 13.4387Z" fill="#F5F5F5"/>
<path d="M241.098 15.6615C241.122 15.479 241.132 15.2948 241.127 15.1107C241.13 14.8718 241.063 14.6371 240.935 14.4352C240.807 14.2333 240.624 14.0729 240.406 13.9733C240.023 13.7655 239.607 13.6255 239.177 13.5593C238.855 13.4899 238.525 13.4723 238.198 13.5072C238.091 13.5192 237.989 13.5546 237.897 13.611C237.806 13.6673 237.728 13.7432 237.67 13.8331C237.608 13.9753 237.58 14.1295 237.587 14.2841C237.594 14.4388 237.635 14.5899 237.709 14.7261C237.886 15.1682 238.135 15.5778 238.446 15.9386C238.689 16.2446 239.002 16.4872 239.359 16.6458C239.538 16.7231 239.732 16.7585 239.926 16.7495C240.121 16.7404 240.31 16.6872 240.481 16.5937C240.781 16.4036 240.995 16.1044 241.078 15.7593C241.085 15.7267 241.094 15.6974 241.098 15.6615Z" fill="#F5F5F5"/>
<path d="M238.658 11.493C238.25 10.8607 238.048 10.1241 238.466 9.46246C238.952 8.69002 240.047 9.03224 240.635 9.48202C241.305 9.95757 241.794 10.6473 242.021 11.4376C242.239 12.4447 241.456 13.0672 240.498 12.8879C239.725 12.6816 239.065 12.1807 238.658 11.493Z" fill="#F5F5F5"/>
<path d="M247.356 11.8678C247.179 11.8214 247.007 11.7593 246.841 11.682C246.619 11.5925 246.428 11.4409 246.29 11.2455C246.152 11.0501 246.074 10.8192 246.064 10.5804C246.02 10.1438 246.051 9.70286 246.156 9.27667C246.215 8.95386 246.325 8.6425 246.482 8.3543C246.535 8.26046 246.608 8.17942 246.696 8.11691C246.784 8.0544 246.885 8.01194 246.991 7.99252C247.145 7.99131 247.298 8.02497 247.437 8.09101C247.577 8.15704 247.699 8.25373 247.796 8.37386C248.137 8.70777 248.42 9.09536 248.635 9.52111C248.823 9.8617 248.926 10.2432 248.935 10.6325C248.937 10.8273 248.895 11.02 248.812 11.1962C248.729 11.3723 248.607 11.5273 248.455 11.6494C248.164 11.853 247.805 11.9348 247.454 11.8776C247.421 11.8775 247.388 11.8742 247.356 11.8678Z" fill="#F5F5F5"/>
<path d="M244.535 7.76441C244.104 7.14841 243.498 6.6856 242.728 6.82248C241.828 6.97893 241.733 8.12618 241.926 8.8367C242.112 9.63378 242.564 10.3439 243.207 10.8509C244.055 11.4343 244.933 10.9487 245.125 9.99048C245.226 9.19997 245.014 8.40148 244.535 7.76441Z" fill="#F5F5F5"/>
<path d="M224.021 33.884C223.244 34.2099 222.667 34.8846 221.943 35.3213C220.857 35.9732 219.5 36.0808 218.424 36.7522C217.736 37.2121 217.201 37.8662 216.886 38.6312C216.571 39.3961 216.491 40.2374 216.656 41.0478C216.845 41.853 217.241 42.5953 217.803 43.202C218.366 43.8088 219.076 44.2592 219.865 44.5092C220.961 44.8579 222.116 44.9622 223.218 45.3142C224.216 45.6401 225.068 46.2268 226.154 46.3735C227.146 46.5292 228.162 46.3159 229.007 45.7738C229.512 45.433 229.9 44.9463 230.12 44.3788C230.514 43.4434 230.945 42.0256 230.622 41.012C230.328 40.0798 229.604 39.4247 229.076 38.6327C228.548 37.8407 228.313 36.801 227.934 35.8787C227.289 34.3142 225.769 33.1311 224.021 33.884Z" fill="#EBEBEB"/>
<path d="M219.644 34.3794C219.893 34.2161 220.126 34.0306 220.342 33.8254C220.994 33.242 221.124 32.5836 220.955 31.7264C220.797 31.0329 220.521 30.3715 220.139 29.7709C219.88 29.3083 219.55 28.8892 219.161 28.5291C219.03 28.4109 218.874 28.3235 218.705 28.2733C218.535 28.2231 218.357 28.2114 218.183 28.239C217.69 28.3335 217.364 28.7964 217.139 29.2429C216.793 29.9345 216.562 30.6774 216.454 31.4429C216.344 32.0663 216.387 32.7069 216.578 33.3104C216.677 33.6093 216.843 33.8819 217.063 34.1077C217.282 34.3335 217.55 34.5066 217.847 34.6141C218.4 34.7739 218.995 34.7119 219.503 34.4414L219.644 34.3794Z" fill="#EBEBEB"/>
<path d="M222.096 26.9353C222.423 25.762 223.104 24.7255 224.36 24.5202C225.824 24.2823 226.581 25.9804 226.666 27.1765C226.754 28.4313 226.548 29.9143 225.788 30.9507C224.81 32.3 223.179 32.023 222.387 30.6574C221.747 29.5753 221.767 28.1184 222.096 26.9353Z" fill="#EBEBEB"/>
<path d="M230.984 37.9125C230.852 37.6463 230.743 37.3693 230.658 37.0846C230.384 36.2535 230.596 35.6212 231.17 34.9596C231.649 34.4406 232.214 34.0074 232.84 33.6787C233.296 33.4039 233.794 33.2046 234.314 33.0888C234.484 33.0537 234.659 33.0559 234.828 33.0953C234.997 33.1347 235.156 33.2103 235.292 33.3169C235.671 33.6428 235.726 34.2067 235.697 34.7054C235.655 35.477 235.488 36.2366 235.201 36.9542C234.987 37.5501 234.632 38.0857 234.167 38.5154C233.933 38.7267 233.653 38.8822 233.35 38.9702C233.047 39.0583 232.727 39.0766 232.416 39.0239C231.854 38.8873 231.368 38.5363 231.062 38.0461C231.039 38.007 231.01 37.9614 230.984 37.9125Z" fill="#EBEBEB"/>
<path d="M232.944 30.074C233.234 28.8908 233.146 27.6556 232.151 26.8636C230.99 25.938 229.5 27.0526 228.841 28.0532C228.15 29.106 227.605 30.5009 227.761 31.7753C227.964 33.4342 229.5 33.9785 230.873 33.18C231.959 32.5477 232.654 31.2668 232.944 30.074Z" fill="#EBEBEB"/>
<path d="M254.353 42.2994C253.909 42.4689 253.563 42.8274 253.146 43.0523C252.52 43.3782 251.753 43.4141 251.13 43.7628C250.731 44.002 250.411 44.355 250.214 44.7766C250.016 45.1982 249.949 45.6691 250.021 46.129C250.105 46.5868 250.307 47.0148 250.606 47.3709C250.906 47.727 251.293 47.9988 251.73 48.1596C252.337 48.3844 252.983 48.4855 253.593 48.7039C254.144 48.9092 254.607 49.2677 255.207 49.3785C255.764 49.4958 256.345 49.4029 256.838 49.1178C257.135 48.9458 257.37 48.6846 257.51 48.3714C257.758 47.8564 258.035 47.0677 257.882 46.4941C257.728 45.9205 257.353 45.575 257.079 45.1154C256.838 44.6087 256.648 44.0791 256.512 43.5347C256.179 42.6319 255.357 41.9246 254.353 42.2994Z" fill="#EBEBEB"/>
<path d="M251.88 42.4624C252.024 42.3761 252.16 42.278 252.288 42.169C252.46 42.0348 252.59 41.8533 252.661 41.6468C252.732 41.4402 252.742 41.2174 252.689 41.0055C252.617 40.6146 252.479 40.2388 252.281 39.8941C252.148 39.6257 251.973 39.3804 251.763 39.1673C251.692 39.098 251.608 39.0452 251.515 39.0125C251.422 38.9798 251.322 38.9681 251.224 38.9782C251.088 39.0152 250.963 39.0826 250.856 39.1751C250.75 39.2677 250.666 39.3831 250.611 39.5127C250.398 39.8925 250.247 40.3041 250.164 40.7317C250.088 41.0792 250.094 41.44 250.184 41.7844C250.232 41.9559 250.317 42.1144 250.435 42.2481C250.552 42.3819 250.698 42.4874 250.862 42.5569C251.17 42.6592 251.504 42.6406 251.798 42.5047L251.88 42.4624Z" fill="#EBEBEB"/>
<path d="M253.458 38.3459C253.677 37.6941 254.088 37.1302 254.796 37.0422C255.627 36.9477 256.006 37.9222 256.022 38.5969C256.066 39.3439 255.856 40.0838 255.425 40.6959C254.835 41.4259 253.938 41.2271 253.52 40.4384C253.23 39.7752 253.208 39.0252 253.458 38.3459Z" fill="#EBEBEB"/>
<path d="M258.167 44.7536C258.1 44.6009 258.045 44.4428 258.004 44.281C257.939 44.0734 257.935 43.8513 257.993 43.6414C258.051 43.4316 258.168 43.2429 258.33 43.0979C258.616 42.8196 258.947 42.5925 259.309 42.4265C259.573 42.2841 259.858 42.1851 260.154 42.1332C260.251 42.1171 260.35 42.1225 260.445 42.149C260.539 42.1754 260.627 42.2223 260.702 42.2864C260.791 42.3958 260.854 42.5237 260.887 42.6607C260.921 42.7977 260.923 42.9404 260.894 43.0784C260.849 43.5115 260.734 43.9343 260.552 44.3299C260.415 44.6594 260.202 44.9512 259.929 45.1806C259.791 45.2927 259.63 45.3724 259.457 45.4136C259.284 45.4548 259.104 45.4565 258.931 45.4185C258.62 45.3257 258.357 45.1168 258.197 44.8351C258.185 44.8086 258.175 44.7814 258.167 44.7536Z" fill="#EBEBEB"/>
<path d="M259.473 40.4026C259.666 39.7507 259.649 39.0467 259.114 38.5774C258.485 38.0266 257.617 38.61 257.219 39.1543C256.759 39.7434 256.51 40.4699 256.512 41.2174C256.583 42.156 257.431 42.5015 258.224 42.0908C258.844 41.7116 259.292 41.1061 259.473 40.4026Z" fill="#EBEBEB"/>
<path d="M123.434 53.0419C123.108 53.6645 123.053 54.4108 122.798 55.079C122.417 56.0796 121.569 56.852 121.2 57.8591C120.978 58.5247 120.96 59.2414 121.149 59.9173C121.337 60.5932 121.723 61.1975 122.257 61.6529C122.802 62.0903 123.451 62.3788 124.141 62.4902C124.831 62.6016 125.539 62.5321 126.194 62.2884C127.107 61.9625 127.929 61.4215 128.845 61.0825C129.677 60.7761 130.554 60.7305 131.344 60.2677C132.083 59.8582 132.646 59.1912 132.925 58.3936C133.09 57.9067 133.1 57.3809 132.955 56.8879C132.733 56.0568 132.28 54.8899 131.539 54.3815C130.858 53.9154 130.036 53.8568 129.256 53.6025C128.477 53.3483 127.792 52.7812 127.061 52.3608C125.835 51.6307 124.207 51.6307 123.434 53.0419Z" fill="#F5F5F5"/>
<path d="M120.78 55.646C120.858 55.4068 120.917 55.1615 120.956 54.9127C121.086 54.1859 120.829 53.6807 120.271 53.1983C119.806 52.8217 119.28 52.5274 118.715 52.3281C118.3 52.1512 117.86 52.0412 117.411 52.0022C117.263 51.9922 117.115 52.0147 116.977 52.0682C116.838 52.1217 116.714 52.2049 116.611 52.3118C116.494 52.4877 116.418 52.6878 116.389 52.8971C116.359 53.1064 116.377 53.3197 116.442 53.521C116.57 54.1618 116.803 54.7772 117.13 55.3429C117.38 55.8156 117.742 56.2205 118.183 56.5228C118.405 56.6718 118.658 56.7684 118.922 56.8051C119.187 56.8418 119.456 56.8177 119.71 56.7346C120.163 56.5535 120.527 56.2026 120.724 55.7569C120.747 55.7308 120.763 55.6884 120.78 55.646Z" fill="#F5F5F5"/>
<path d="M118.538 49.4144C118.144 48.4627 118.059 47.4197 118.786 46.631C119.637 45.7119 121.027 46.4484 121.722 47.2013C122.416 47.9542 123.069 49.0852 123.101 50.1705C123.144 51.5818 121.93 52.2304 120.684 51.7415C119.677 51.3536 118.933 50.3726 118.538 49.4144Z" fill="#F5F5F5"/>
<path d="M130.169 52.1065C129.941 51.9992 129.722 51.8716 129.517 51.7252C128.9 51.3178 128.714 50.7833 128.75 50.0467C128.801 49.4509 128.952 48.868 129.197 48.3225C129.36 47.9039 129.588 47.5135 129.872 47.1655C129.967 47.0534 130.085 46.9631 130.218 46.9007C130.351 46.8382 130.495 46.8052 130.642 46.8037C130.848 46.8429 131.042 46.9273 131.212 47.0507C131.381 47.1741 131.52 47.3336 131.62 47.5175C132.001 48.0499 132.292 48.6411 132.482 49.2677C132.649 49.7759 132.692 50.317 132.605 50.8452C132.559 51.1079 132.454 51.3567 132.297 51.5729C132.141 51.7891 131.937 51.9671 131.702 52.0935C131.258 52.2939 130.754 52.3137 130.296 52.1489L130.169 52.1065Z" fill="#F5F5F5"/>
<path d="M127.381 45.8683C126.957 44.9296 126.256 44.1507 125.183 44.1409C123.93 44.1409 123.516 45.6467 123.598 46.6538C123.686 47.713 124.048 48.9353 124.814 49.6947C125.816 50.6953 127.12 50.2553 127.619 49.0135C128.033 48.0259 127.825 46.8135 127.381 45.8683Z" fill="#F5F5F5"/>
<path d="M221.338 124.439C206.312 132.604 181.948 132.604 166.923 124.439C151.897 116.275 151.887 103.045 166.923 94.8972C181.958 86.7491 206.312 86.7491 221.338 94.8972C236.364 103.045 236.361 116.278 221.338 124.439Z" fill="#E6E6E6"/>
<path d="M234.746 131.202C228.774 134.445 219.091 134.445 213.129 131.202C207.166 127.959 207.157 122.702 213.129 119.469C219.1 116.236 228.784 116.226 234.746 119.469C240.708 122.712 240.715 127.959 234.746 131.202Z" fill="#E6E6E6"/>
<path d="M154.415 72.0436C155.142 75.4886 155.527 76.5903 155.768 81.1499C156.01 85.7096 157.931 88.995 157.559 91.4524C157.187 93.9099 156.404 98.0524 153.971 100.702C151.688 103.199 149.689 102.857 149.891 105.591C149.94 105.852 150.247 106.914 151.385 106.895C151.737 108.039 153.28 107.873 153.28 107.873C153.28 107.873 153.792 109.32 158.293 107.977C160.674 107.263 161.163 104.307 161.642 102.844C162.35 100.71 163.181 98.6196 164.131 96.5825C164.779 95.2212 165.161 93.7488 165.256 92.2444C165.856 91.9381 167.06 92.6356 167.06 92.6356C167.06 92.6356 167.128 91.0809 165.827 90.3313C167.598 89.4317 166.939 87.8738 166.939 87.8738C166.939 87.8738 165.961 89.0732 165.139 87.8738C164.317 86.6744 164.656 82.0071 165.377 74.9802C165.762 71.2255 166.711 70.942 167.063 67.1808C167.213 65.5675 167.422 63.6771 167.047 62.0833C166.672 60.4896 165.674 58.9871 165.126 57.4324C164.555 55.8028 164.274 54.0069 164.881 52.4066C165.207 51.5723 165.739 50.8292 165.99 49.972C166.3 48.9095 166.134 47.7655 165.902 46.6801C165.074 42.8081 161.336 36.0452 161.336 36.0452" fill="#37474F"/>
<path d="M165.81 90.328C167.581 89.4285 166.923 87.8705 166.923 87.8705C166.923 87.8705 165.944 89.0699 165.122 87.8705C164.558 87.0655 164.535 84.696 164.796 81.1076L164.757 81.0717C164.661 80.9699 164.546 80.8885 164.419 80.8325C164.291 80.7765 164.153 80.747 164.013 80.7458C163.566 80.798 163.361 81.3129 163.237 81.7431C163.043 82.4232 162.853 83.1033 162.666 83.7834C162.591 84.0474 162.461 84.3603 162.187 84.3799C161.913 84.3994 161.779 84.1811 161.639 83.992C161.468 83.7514 161.245 83.5521 160.987 83.4086C160.859 83.3371 160.716 83.2981 160.569 83.2953C160.423 83.2924 160.279 83.3258 160.148 83.3923C159.692 83.6596 159.705 84.6504 159.075 84.6537C158.966 84.6401 158.861 84.6041 158.766 84.548C158.671 84.492 158.589 84.417 158.524 84.3277C157.858 83.6119 157.295 82.8067 156.851 81.9354C156.684 81.5373 156.458 81.1669 156.179 80.8371C156.054 80.7005 155.89 80.606 155.709 80.5666C155.709 80.7589 155.732 80.9479 155.742 81.1369C155.98 85.6999 157.904 88.9819 157.533 91.4394C157.161 93.8969 156.378 98.0394 153.945 100.689C151.662 103.186 149.662 102.844 149.865 105.578C149.914 105.839 150.22 106.901 151.358 106.882C151.711 108.026 153.253 107.86 153.253 107.86C153.253 107.86 153.766 109.307 158.266 107.964C160.647 107.25 161.137 104.294 161.616 102.83C162.324 100.697 163.155 98.6066 164.105 96.5695C164.752 95.2081 165.134 93.7358 165.23 92.2314C165.83 91.925 167.033 92.6225 167.033 92.6225C167.033 92.6225 167.112 91.0776 165.81 90.328Z" fill="#E0E0E0"/>
<path d="M153.264 107.869C153.052 107.273 152.87 106.295 153.731 105.897C154.592 105.5 155.59 104.969 155.59 104.969C155.59 104.969 153.665 105.565 153.235 105.845C152.804 106.126 152.648 106.957 153.264 107.869Z" fill="#A9A9A9"/>
<path d="M151.372 106.898C151.157 106.302 150.974 105.324 151.839 104.926C152.703 104.529 153.698 103.997 153.698 103.997C153.698 103.997 151.77 104.594 151.34 104.877C150.909 105.161 150.756 105.985 151.372 106.898Z" fill="#A9A9A9"/>
<path d="M177.353 76.6454C176.787 76.957 176.251 77.3192 175.751 77.7274C174.919 78.4253 174.178 79.2258 173.547 80.1099C170.797 83.8744 169.744 89.0827 171.714 93.3034C173.794 97.7686 178.964 100.337 183.886 100.063C181.73 101.041 179.117 100.285 176.85 100.989C175.706 101.344 174.845 102.586 174.626 103.762C174.408 104.939 174.766 106.151 176.257 106.151C176.257 106.728 177.353 107.781 179.297 107.253C179.394 107.677 179.623 108.446 182.884 107.905C186.146 107.364 195.604 103.521 199.466 101.324C200.998 100.513 202.431 99.529 203.739 98.3911C206.106 96.3443 207.672 93.3653 208.383 90.2853C209.28 86.3742 208.97 82.3197 208.432 78.3565C207.564 71.9781 206.041 64.5047 198.791 62.7773C197.963 62.5493 197.095 62.5103 196.25 62.6632C194.906 62.9533 193.804 63.9506 193.057 65.1044C191.351 67.7476 191.263 71.1046 191.449 74.2661C191.599 76.8507 189.685 75.5698 188.038 75.3091C186.349 75.0103 184.631 74.9173 182.92 75.032C180.971 75.1684 179.073 75.7184 177.353 76.6454Z" fill="#37474F"/>
<path d="M176.256 106.151C176.028 104.783 176.113 103.143 177.411 102.583C178.709 102.022 181.084 102.149 181.084 102.149C181.084 102.149 177.93 101.676 176.762 102.41C175.594 103.143 175.881 105.102 176.256 106.151Z" fill="#263238"/>
<path d="M179.284 107.243C179.052 105.878 179.14 104.235 180.435 103.674C181.73 103.114 184.107 103.244 184.107 103.244C184.107 103.244 180.954 102.768 179.789 103.502C178.625 104.235 178.918 106.194 179.284 107.243Z" fill="#263238"/>
<path d="M186.202 96.0575C186.854 96.1259 187.581 95.8065 187.793 95.1873C187.229 96.6083 188.12 98.2933 189.47 99.0299C190.82 99.7665 192.435 99.7502 193.945 99.4993C199.326 98.6062 204.228 94.6821 205.784 89.4575C206.612 86.6709 206.508 83.6789 205.931 80.8303C205.058 76.5944 203.206 72.621 200.523 69.2274C198.459 66.62 195.787 64.2994 192.549 63.5269C189.31 62.7545 185.461 63.8985 183.84 66.8057C183.323 67.815 182.992 68.9091 182.862 70.0356C182.268 74.1716 183.071 78.3533 182.565 82.4925C182.239 85.126 181.587 87.8279 182.099 90.4809C182.51 92.6157 183.602 95.7772 186.202 96.0575Z" fill="#F5F5F5"/>
<path d="M200.712 84.4415C199.211 83.7245 197.47 83.6593 195.819 83.907C194.622 84.0862 193.357 84.4839 192.642 85.4649C192.489 84.6599 191.338 84.4317 190.646 84.875C189.955 85.3182 189.639 86.1428 189.361 86.9153C189.172 85.7615 188.866 84.4415 187.822 83.9102C186.778 83.379 185.324 84.1058 184.603 84.9304C184.038 85.6194 183.629 86.422 183.403 87.2836C183.223 86.912 182.685 86.9153 182.29 87.0424C182.179 87.081 182.07 87.1256 181.964 87.176C181.865 88.2789 181.911 89.39 182.101 90.4809C182.515 92.6287 183.608 95.7772 186.207 96.0575C186.86 96.1259 187.587 95.8065 187.799 95.1872C187.235 96.6083 188.125 98.2933 189.476 99.0299C190.826 99.7665 192.44 99.7502 193.95 99.4992C195.514 99.2358 197.027 98.7311 198.435 98.0032C200.184 96.0681 201.615 93.868 202.675 91.4847C203.138 90.4776 203.565 89.4053 203.507 88.2972C203.419 86.6252 202.215 85.1618 200.712 84.4415Z" fill="#E0E0E0"/>
<path d="M170.04 52.4487C169.932 52.6345 169.828 52.8203 169.714 53.0093C168.047 56.0991 166.968 59.7657 168.083 63.2238C169.257 66.8448 172.542 69.8596 175.63 71.9064C177.313 73.0178 182.267 75.7426 183.761 72.9755C184.162 72.2258 184.14 71.3458 184.166 70.4821C184.198 69.3968 184.348 68.2593 184.997 67.3924C185.646 66.5254 186.954 66.0593 187.861 66.6362C188.595 67.099 188.862 68.0377 188.947 68.9177C189.032 69.7977 188.999 70.6875 189.374 71.4697C189.456 71.6722 189.6 71.8434 189.785 71.9586C190.056 72.0987 190.385 72.0238 190.682 72.0955C192.567 72.5452 192.013 77.6688 191.82 79.0246C191.736 79.6276 191.749 80.4131 192.32 80.6347C192.717 80.7879 193.151 80.5467 193.526 80.3381C194.39 79.8557 195.324 79.5136 196.295 79.3245C196.621 79.2626 197.055 79.2691 197.182 79.5787C197.31 79.8883 197.045 80.1491 196.856 80.3903C196.529 80.8052 196.326 81.305 196.272 81.8309C196.258 81.9017 196.258 81.9747 196.274 82.0454C196.289 82.116 196.318 82.1828 196.361 82.2415C196.464 82.3321 196.598 82.3798 196.736 82.3751C197.499 82.4371 198.265 82.3393 199.019 82.3556C201.054 82.4045 202.933 84.2818 202.825 86.3319C197.874 84.2134 193.089 87.6519 190.372 91.6379C188.856 93.8217 188.13 96.4567 188.314 99.1081C188.439 101.204 189.162 103.219 190.398 104.916C191.856 107.025 195.894 109.479 198.226 109.407C197.129 109.745 196.008 110.002 194.873 110.177C191.364 110.77 190.265 110.405 188.513 110.946C187.368 111.304 186.507 112.543 186.286 113.719C186.064 114.896 186.426 116.108 187.916 116.108C187.933 116.685 189.016 117.738 190.956 117.21C191.057 117.634 191.299 118.403 194.544 117.862C197.789 117.321 207.264 113.478 211.126 111.281C212.658 110.471 214.091 109.486 215.398 108.348C217.769 106.305 219.338 103.329 220.052 100.249C220.953 96.3378 220.643 92.2833 220.101 88.32C217.854 71.7924 208.82 63.6508 205.424 60.2188C202.769 57.5397 199.697 55.4994 196.426 53.6546C193.363 51.9272 190.183 50.1672 187.946 47.3643C186.984 46.1453 186.198 44.7927 185.219 43.5868C184.348 42.5178 183.21 41.2564 181.746 41.2434C180.17 41.2434 178.686 42.332 177.548 43.3065C174.532 45.8942 171.991 48.988 170.04 52.4487Z" fill="#455A64"/>
<path d="M187.933 116.118C187.705 114.749 187.79 113.11 189.085 112.549C190.38 111.989 192.757 112.116 192.757 112.116C192.757 112.116 189.603 111.643 188.439 112.377C187.275 113.11 187.555 115.069 187.933 116.118Z" fill="#263238"/>
<path d="M190.969 117.21C190.741 115.844 190.829 114.202 192.124 113.641C193.419 113.081 195.796 113.211 195.796 113.211C195.796 113.211 192.643 112.735 191.475 113.468C190.307 114.202 190.594 116.161 190.969 117.21Z" fill="#263238"/>
<path d="M175.044 87.528C175.771 90.9731 176.156 92.0747 176.397 96.6344C176.639 101.194 178.56 104.479 178.188 106.937C177.816 109.394 177.033 113.537 174.6 116.187C172.317 118.683 170.318 118.341 170.52 121.075C170.569 121.336 170.876 122.399 172.014 122.379C172.366 123.523 173.909 123.357 173.909 123.357C173.909 123.357 174.421 124.804 178.922 123.461C181.303 122.747 181.792 119.791 182.271 118.328C182.979 116.195 183.81 114.104 184.76 112.067C185.408 110.706 185.79 109.233 185.885 107.729C186.485 107.422 187.689 108.12 187.689 108.12C187.689 108.12 187.757 106.565 186.456 105.816C188.227 104.916 187.568 103.358 187.568 103.358C187.568 103.358 186.59 104.558 185.768 103.358C184.946 102.159 185.285 97.4916 186.006 90.4646C186.391 86.7099 187.34 86.4264 187.692 82.6652C187.842 81.0519 188.051 79.1615 187.676 77.5677C187.301 75.974 186.303 74.4715 185.755 72.9168C185.184 71.2872 184.903 69.4913 185.51 67.891C185.836 67.0567 186.368 66.3136 186.619 65.4564C186.929 64.3939 186.763 63.2499 186.531 62.1645C185.703 58.2925 184.013 54.8899 181.965 51.5296C180.615 49.3068 178.586 45.852 175.562 45.9595C167.859 46.3246 156.509 60.0917 158.368 74.9669" fill="#455A64"/>
<path d="M186.44 105.812C188.211 104.913 187.552 103.355 187.552 103.355C187.552 103.355 186.574 104.554 185.752 103.355C185.188 102.55 185.165 100.18 185.426 96.592L185.387 96.5561C185.291 96.4543 185.176 96.3729 185.048 96.3169C184.921 96.2609 184.783 96.2314 184.643 96.2302C184.196 96.2824 183.991 96.7973 183.867 97.2275C183.673 97.9076 183.483 98.5877 183.296 99.2678C183.221 99.5318 183.091 99.8447 182.817 99.8643C182.543 99.8838 182.409 99.6655 182.269 99.4764C182.098 99.2358 181.875 99.0365 181.616 98.893C181.489 98.8215 181.346 98.7825 181.199 98.7797C181.053 98.7768 180.908 98.8102 180.778 98.8767C180.322 99.144 180.335 100.135 179.705 100.138C179.596 100.124 179.49 100.089 179.396 100.032C179.301 99.9764 179.219 99.9014 179.154 99.8121C178.488 99.0963 177.925 98.2911 177.481 97.4198C177.314 97.0217 177.088 96.6513 176.809 96.3215C176.684 96.1849 176.52 96.0904 176.339 96.051C176.339 96.2433 176.362 96.4323 176.372 96.6213C176.61 101.184 178.534 104.466 178.162 106.924C177.791 109.381 177.008 113.524 174.575 116.174C172.292 118.67 170.292 118.328 170.495 121.062C170.544 121.323 170.85 122.386 171.988 122.366C172.341 123.51 173.883 123.344 173.883 123.344C173.883 123.344 174.395 124.791 178.896 123.448C181.277 122.734 181.766 119.778 182.246 118.315C182.954 116.182 183.784 114.091 184.734 112.054C185.382 110.693 185.764 109.22 185.86 107.716C186.46 107.409 187.663 108.107 187.663 108.107C187.663 108.107 187.742 106.562 186.44 105.812Z" fill="#F5F5F5"/>
<path d="M173.892 123.354C173.68 122.757 173.497 121.779 174.359 121.382C175.22 120.984 176.218 120.453 176.218 120.453C176.218 120.453 174.293 121.049 173.863 121.33C173.432 121.61 173.276 122.441 173.892 123.354Z" fill="#E0E0E0"/>
<path d="M172.001 122.382C171.786 121.786 171.603 120.808 172.467 120.411C173.332 120.013 174.326 119.482 174.326 119.482C174.326 119.482 172.399 120.078 171.968 120.362C171.538 120.645 171.385 121.47 172.001 122.382Z" fill="#E0E0E0"/>
<path d="M152.843 64.7296C152.021 67.5195 151.998 70.6582 153.381 73.2036L154.663 71.2937C154.708 76.2934 157.836 80.8792 161.874 83.8386C165.912 86.798 170.514 88.0756 175.344 89.174C175.129 87.8475 174.776 86.4427 174.561 85.1162C174.235 83.1281 173.945 80.977 174.887 79.1942C175.67 77.7047 177.17 76.7497 178.296 75.4916C179.542 74.0828 180.298 72.3078 180.448 70.4333C180.497 70.0955 180.453 69.7507 180.321 69.436C179.995 68.833 179.219 68.6765 178.54 68.7222C177.862 68.7678 177.164 68.9373 176.528 68.7222C177.069 67.5456 178.126 66.7047 178.977 65.7302C180.597 63.8605 181.483 61.4665 181.469 58.9933C180.743 58.836 179.999 58.779 179.258 58.8238C179.525 57.1594 179.79 55.4918 180.054 53.8209C180.147 53.4581 180.137 53.0765 180.024 52.7193C179.783 52.1391 179.046 51.9142 178.426 52.0413C177.821 52.221 177.261 52.524 176.779 52.9311C172.967 55.6456 168.504 57.3052 163.844 57.7418C162.319 57.8805 160.782 57.8048 159.278 57.5169C158.267 57.3278 157.503 56.9726 156.59 57.6049C154.757 58.8499 153.443 62.6991 152.843 64.7296Z" fill="#F5F5F5"/>
<path d="M168.288 80.7423C168.277 80.5451 168.245 80.3496 168.194 80.1588C168.171 80.0839 168.122 79.9926 168.044 80.0057C168.023 80.0116 168.004 80.0216 167.987 80.035C167.97 80.0484 167.956 80.065 167.946 80.0839C167.763 80.4133 167.643 80.7735 167.59 81.1464C167.575 81.2659 167.526 81.3787 167.45 81.4723C167.258 81.6711 167.033 81.4397 166.853 81.3485C166.303 81.0266 165.791 80.6439 165.327 80.2077C164.962 79.9046 164.234 79.4386 163.879 80.0383C163.611 80.488 163.944 81.016 163.954 81.4854C162.025 80.4161 160.503 78.7398 159.626 76.7171C159.557 76.5606 159.443 76.7366 159.473 76.8409C159.818 78.039 160.409 79.1523 161.207 80.1105C162.005 81.0687 162.994 81.8509 164.11 82.4077C164.29 82.5022 164.593 82.5348 164.707 82.3165C164.854 82.0221 164.9 81.6877 164.838 81.3648C164.812 81.1823 164.763 81.003 164.74 80.8205C164.738 80.8064 164.738 80.7922 164.74 80.7781C164.834 80.8661 164.975 80.9541 165.066 81.0225L165.464 81.3485C165.73 81.5709 166.014 81.7715 166.312 81.9482C166.756 82.2089 167.617 82.6587 168.07 82.1959C168.292 81.971 168.285 81.5636 168.301 81.2735C168.306 81.0963 168.302 80.919 168.288 80.7423Z" fill="#EBEBEB"/>
<path d="M170.579 69.4751C170.453 69.7217 170.344 69.9765 170.253 70.2377C170.156 70.4424 170.071 70.6524 169.998 70.8668C169.832 71.3817 169.656 71.8869 169.509 72.4084C169.388 72.8321 169.323 73.2753 169.183 73.6958C169.153 73.7936 169.098 74.0022 168.994 74.0641L168.948 74.0445C168.834 73.999 168.725 73.9434 168.622 73.8783C168.387 73.761 168.155 73.6436 167.917 73.5328C167.721 73.4088 167.497 73.336 167.265 73.321C166.821 73.3438 166.919 73.8196 166.919 74.126C166.918 74.3862 166.894 74.6457 166.847 74.9017C166.844 75.1006 166.804 75.2973 166.73 75.4819C166.512 75.7687 165.69 75.1103 165.468 74.9343C165.37 74.8593 165.347 75.0647 165.386 75.1168C165.672 75.5061 166.059 75.8103 166.505 75.9968C166.949 76.1761 167.118 75.9088 167.265 75.5307C167.361 75.2883 167.429 75.0357 167.467 74.7779C167.503 74.5465 167.467 74.2792 167.523 74.0576L167.663 74.1488C167.784 74.227 167.904 74.3053 168.028 74.3802C168.254 74.5322 168.489 74.6693 168.733 74.7909C168.934 74.8976 169.167 74.9306 169.39 74.8842C169.613 74.8378 169.813 74.7149 169.956 74.5367C170.199 74.1217 170.364 73.6653 170.442 73.1906C170.614 72.5749 170.748 71.949 170.843 71.3165C170.941 70.7898 170.992 70.2553 170.996 69.7195C170.99 69.5794 170.703 69.2762 170.579 69.4751Z" fill="#EBEBEB"/>
<path d="M153.377 57.9764C152.924 59.1628 153.253 60.5838 153.635 61.8451C154.296 64.2189 155.213 66.5139 156.371 68.6896C157.578 70.8407 159.196 72.8027 161.263 74.139C161.658 74.3965 162.173 74.6312 162.568 74.39C162.894 74.1977 162.995 73.7805 163.064 73.4122C163.292 72.1607 163.484 70.8765 164.098 69.7618C164.75 68.5853 165.807 67.702 166.814 66.8285C169.078 64.8469 171.129 62.673 173.295 60.6066C175.462 58.5367 177.392 56.2324 179.049 53.7361C180.435 51.6469 181.883 48.9613 181.367 46.3702C178.898 47.0221 176.508 48.1465 174.026 48.8309C171.466 49.5355 168.866 50.0884 166.24 50.4866C163.775 50.8623 161.29 51.0919 158.798 51.1743C157.539 51.2102 155.229 50.9266 154.359 52.1097C153.524 53.244 154.528 54.049 154.819 55.0789C155.066 55.9654 154.127 56.676 153.628 57.4517C153.528 57.6183 153.444 57.794 153.377 57.9764Z" fill="#78BF9B"/>
<path opacity="0.3" d="M153.377 57.9764C152.924 59.1628 153.253 60.5838 153.635 61.8451C154.296 64.2189 155.213 66.5139 156.371 68.6896C157.578 70.8407 159.196 72.8027 161.263 74.139C161.658 74.3965 162.173 74.6312 162.568 74.39C162.894 74.1977 162.995 73.7805 163.064 73.4122C163.292 72.1607 163.484 70.8765 164.098 69.7618C164.75 68.5853 165.807 67.702 166.814 66.8285C169.078 64.8469 171.129 62.673 173.295 60.6066C175.462 58.5367 177.392 56.2324 179.049 53.7361C180.435 51.6469 181.883 48.9613 181.367 46.3702C178.898 47.0221 176.508 48.1465 174.026 48.8309C171.466 49.5355 168.866 50.0884 166.24 50.4866C163.775 50.8623 161.29 51.0919 158.798 51.1743C157.539 51.2102 155.229 50.9266 154.359 52.1097C153.524 53.244 154.528 54.049 154.819 55.0789C155.066 55.9654 154.127 56.676 153.628 57.4517C153.528 57.6183 153.444 57.794 153.377 57.9764Z" fill="white"/>
<path opacity="0.3" d="M159.415 60.0232C160.024 60.4186 160.733 60.6365 161.46 60.6522C162.276 60.632 163.084 60.4881 163.857 60.2253C165.161 59.845 166.449 59.4105 167.718 58.9216C168.038 58.7635 168.393 58.6894 168.749 58.7065C168.927 58.7205 169.093 58.8011 169.214 58.9322C169.335 59.0634 169.402 59.2354 169.401 59.4137C169.356 59.7397 169.039 59.9417 168.866 60.1894C168.653 60.4953 168.397 60.7696 168.107 61.0042L165.876 62.9011L163.211 65.1826C162.758 65.5672 162.288 65.942 161.848 66.3429C161.407 66.7438 161.146 67.0208 160.566 66.9035C160.033 66.764 159.556 66.4621 159.203 66.0398C158.175 64.8894 157.361 63.5649 156.799 62.1287C156.476 61.4674 156.224 60.7736 156.049 60.0591C155.908 59.3192 155.537 58.6543 155.488 57.8819C155.452 57.3115 155.843 56.777 156.404 57.3017C157.356 58.1817 158.276 59.329 159.415 60.0232Z" fill="#78BF9B"/>
<path opacity="0.3" d="M162.617 59.1563C162.033 59.1758 161.401 59.2214 160.869 58.9411C160.592 58.7912 159.891 58.361 160.396 58.0611C160.722 57.8721 161.208 57.9699 161.561 57.9471C162.001 57.9177 162.441 57.8623 162.865 57.7939C163.742 57.657 164.607 57.468 165.474 57.2854C165.758 57.23 166.15 57.2431 166.218 57.5266C166.267 57.7091 166.127 57.8884 165.986 58.0188C165.106 58.8434 163.831 59.1106 162.617 59.1563Z" fill="#78BF9B"/>
<path d="M160.4 21.2936L158.293 19.2272C157.787 18.7285 157.278 18.2494 156.496 18.6079L153.886 19.7552C153.514 19.894 153.168 20.097 152.866 20.3549C152.608 20.6357 152.416 20.9695 152.301 21.3327C151.664 23.0127 151.195 24.7519 150.902 26.5246C150.867 26.6325 150.856 26.7466 150.87 26.8591C150.883 26.9717 150.921 27.0799 150.98 27.1765C151.274 27.5546 151.959 27.3753 152.389 27.1178C153.149 26.6713 153.805 26.0227 154.532 25.5208C154.721 26.1564 155.096 27.6132 155.367 27.786C156.042 28.2129 156.936 27.522 157.565 27.3199C158.795 26.9255 160.031 26.5409 161.238 26.0977C161.776 25.9021 163.495 25.4458 163.697 24.9276C163.899 24.4094 162.65 23.5196 162.298 23.1546L160.4 21.2936Z" fill="#455A64"/>
<path d="M157.715 21.3001C158.002 21.6636 158.207 22.0849 158.315 22.5349C158.424 22.985 158.434 23.4532 158.344 23.9075C158.498 24.002 158.706 23.8912 158.83 23.7738C158.954 23.6565 159.098 23.5066 159.284 23.5294C159.395 23.5525 159.496 23.6094 159.574 23.6924C160.102 24.1617 160.65 24.6701 160.826 25.2959C160.859 25.3798 160.859 25.4728 160.826 25.5567C160.755 25.6643 160.645 25.741 160.52 25.7718C159.813 26.0408 159.034 26.0535 158.318 25.8076C158.339 25.9985 158.305 26.1913 158.222 26.3641C158.138 26.5369 158.008 26.6829 157.845 26.7854C157.664 26.8966 157.459 26.9666 157.247 26.9902C157.036 27.0139 156.821 26.9907 156.619 26.9223C156.593 26.9176 156.567 26.9176 156.541 26.9223C156.506 26.9265 156.475 26.944 156.453 26.9712C156.36 27.0812 156.259 27.1837 156.149 27.2775C156.089 27.3261 156.016 27.3572 155.939 27.3676C155.862 27.3779 155.784 27.3671 155.712 27.3362C155.641 27.2892 155.584 27.2224 155.549 27.1439C155.304 26.6973 155.111 26.2237 154.975 25.7327C154.914 25.5675 154.906 25.3876 154.952 25.2177C155.004 25.1084 155.076 25.0099 155.164 24.9276C155.734 24.3991 156.266 23.8329 156.759 23.2328C156.971 22.9313 157.16 22.6142 157.324 22.2844C157.392 22.1344 157.81 21.4239 157.715 21.3001Z" fill="#37474F"/>
<path d="M177.901 48.5246C176.307 49.8216 174.488 50.8158 172.536 51.4579C171.272 51.8868 169.928 52.0293 168.602 51.8751C167.203 51.6665 165.937 50.9495 164.672 50.3596C164.418 50.2257 164.145 50.1302 163.863 50.076C163.494 50.0468 163.123 50.09 162.77 50.2031C161.348 50.5649 159.936 51.0016 158.485 51.233C156.926 51.484 154.969 51.6274 153.622 50.6724C152.999 50.2324 152.617 49.5317 152.259 48.8538C151.818 48.0259 151.394 47.185 150.97 46.3507C150.891 46.1545 150.763 45.9818 150.598 45.8488C150.171 45.5554 149.183 45.9498 148.739 46.0411C148.683 46.0525 148.626 46.0525 148.57 46.0411C148.42 46.0019 148.381 45.8064 148.377 45.6532C148.361 44.3978 148.774 43.1745 149.548 42.1854L148.527 42.42C148.436 42.4428 148.319 42.4526 148.27 42.3744C148.259 42.3496 148.254 42.323 148.254 42.2962C148.254 42.2693 148.259 42.2427 148.27 42.2179C148.553 40.3895 149.959 39.1217 151.029 37.7234C151.61 37.0402 152.053 36.2511 152.334 35.3996C152.658 34.2545 152.947 33.1018 153.201 31.9415C153.429 30.9149 153.638 29.8589 154.18 28.9528C154.796 28.0076 155.61 27.2079 156.567 26.6094C158.419 25.3269 160.453 24.3293 162.601 23.65C164.809 22.9525 166.994 22.4799 169.297 23.0373C175.494 24.5365 178.595 26.2248 180.35 32.5347C180.516 33.1605 181.002 38.2547 181.257 38.7273C181.857 42.9578 180.562 46.4159 177.901 48.5246Z" fill="#455A64"/>
<path d="M180.536 49.0982C177.297 51.6632 172.611 53.7394 169.065 51.6469C169.036 51.6469 168.86 51.0929 168.831 51.1027C168.801 51.1124 166.316 51.7121 163.55 52.4389C162.19 52.8003 160.794 53.0124 159.388 53.0712C157.65 53.0908 155.938 51.2656 154.923 50.001C154.473 49.4404 154.248 48.8277 153.893 48.2247C153.805 48.0748 152.983 46.292 153.11 46.2692L151.371 46.6179C151.316 46.6293 151.258 46.6293 151.202 46.6179C151.052 46.5788 151.013 46.3833 151.013 46.2301C150.994 44.9748 151.406 43.7509 152.18 42.7622L151.159 42.9969C151.068 43.0164 150.951 43.0295 150.902 42.9513C150.879 42.9025 150.873 42.8473 150.886 42.7948C151.107 41.3542 152.167 40.1874 153.231 39.2096C154.294 38.2319 155.452 37.2215 155.98 35.8624C156.162 35.3288 156.311 34.7846 156.427 34.2328C156.691 33.1996 157.004 32.1925 157.252 31.1495C157.415 30.4553 157.559 29.546 158.022 28.9756C160.556 25.8402 166.668 22.3463 171.9 23.6174C178.097 25.1167 181.198 26.8049 182.953 33.1149C183.123 33.7374 183.605 38.8348 183.863 39.3074C184.502 43.5314 183.198 46.9862 180.536 49.0982Z" fill="#455A64"/>
<path d="M186.403 42.0974C186.204 40.0473 184.593 38.4665 183.125 37.0194C181.658 35.5723 180.144 33.8352 180.226 31.7786L165.529 49.4958L166.834 52.3966C166.942 52.6378 167.092 52.9115 167.352 52.9539C167.555 52.9487 167.754 52.8962 167.933 52.8007C169.009 52.4292 169.932 53.6742 171.035 53.9545C171.602 54.0896 172.195 54.0795 172.758 53.9251C173.32 53.7707 173.835 53.477 174.254 53.0712C175.135 52.263 176.058 50.9071 177.251 50.9527C177.669 50.969 178.073 51.1059 178.491 51.0994C179.322 51.0994 180.056 50.4834 180.464 49.7566C180.828 49.0059 181.059 48.1975 181.146 47.3676C182.316 47.5436 183.376 46.468 183.621 45.311C183.866 44.1539 183.517 42.9643 183.171 41.8334C184.242 41.9866 185.321 42.0748 186.403 42.0974Z" fill="#455A64"/>
<path d="M158.916 53.6286C159.397 54.2081 160.034 54.6379 160.752 54.8671C161.199 54.9651 161.666 54.9279 162.092 54.7602C162.519 54.5924 162.885 54.3018 163.146 53.9252C164.154 54.5574 165.66 55.281 166.884 55.2028C167.004 55.2051 167.12 55.162 167.21 55.0822C167.263 54.9988 167.291 54.9011 167.288 54.8019L167.356 53.7133C169.2 54.2552 171.15 54.3347 173.032 53.9447C172.394 53.0582 171.756 52.1728 171.117 51.2884C170.545 50.559 170.068 49.7594 169.698 48.9092C169.561 48.5572 169.424 48.1465 169.072 48.0064C168.859 47.947 168.633 47.947 168.42 48.0064C165.535 48.5086 162.721 49.3578 160.041 50.5355C159.115 50.9429 158.146 50.8354 157.184 51.1515C157.02 51.1994 156.866 51.2743 156.727 51.3732C156.287 51.7349 156.381 52.478 156.76 52.905C156.991 53.1552 157.293 53.3291 157.626 53.4036C157.958 53.4781 158.306 53.4497 158.622 53.3222L158.916 53.6286Z" fill="#E0E0E0"/>
<path opacity="0.05" d="M158.916 53.6286C159.397 54.2081 160.034 54.6379 160.752 54.8671C161.199 54.9651 161.666 54.9279 162.092 54.7602C162.519 54.5924 162.885 54.3018 163.146 53.9252C164.154 54.5574 165.66 55.281 166.884 55.2028C167.004 55.2051 167.12 55.162 167.21 55.0822C167.263 54.9988 167.291 54.9011 167.288 54.8019L167.356 53.7133C169.2 54.2552 171.15 54.3347 173.032 53.9447C172.394 53.0582 171.756 52.1728 171.117 51.2884C170.545 50.559 170.068 49.7594 169.698 48.9092C169.561 48.5572 169.424 48.1465 169.072 48.0064C168.859 47.947 168.633 47.947 168.42 48.0064C165.535 48.5086 162.721 49.3578 160.041 50.5355C159.115 50.9429 158.146 50.8354 157.184 51.1515C157.02 51.1994 156.866 51.2743 156.727 51.3732C156.287 51.7349 156.381 52.478 156.76 52.905C156.991 53.1552 157.293 53.3291 157.626 53.4036C157.958 53.4781 158.306 53.4497 158.622 53.3222L158.916 53.6286Z" fill="black"/>
<path d="M151.932 49.6686C152.008 49.825 152.086 49.9945 152.164 50.1379C152.303 50.4521 152.501 50.7365 152.748 50.9755C153.006 51.1754 153.297 51.3277 153.609 51.4253C154.46 51.7979 155.359 52.0492 156.28 52.1717C157.085 52.2135 157.891 52.1389 158.674 51.9501C159.812 51.7154 160.934 51.409 162.043 51.0635C162.473 50.9046 162.921 50.8037 163.377 50.7637C164.467 50.7246 165.412 51.3829 166.41 51.7154C166.896 51.8784 167.34 52.012 167.784 51.7154C168 51.5877 168.173 51.3978 168.28 51.1706C168.387 50.9433 168.423 50.6891 168.384 50.441C168.772 50.6398 170.031 51.0929 170.266 50.529C170.667 49.5806 169.584 48.039 169.183 47.1981C168.576 45.94 167.878 43.7237 167.157 42.5276C165.546 39.855 161.9 38.5643 161.939 37.5442C162.007 34.1546 162.19 31.9806 162.917 29.9795C163.645 27.9783 166.205 25.6023 165.386 25.3904C164.734 25.2275 160.993 28.2553 160.419 29.2657C159.734 30.4683 157.846 36.0514 156.544 37.1205C155.778 37.7528 152.983 38.7338 152.957 38.7501C152.748 38.8414 151.942 40.4905 151.701 40.9599C151.267 41.7993 150.877 42.6609 150.533 43.5412C150.364 43.9135 150.243 44.3055 150.171 44.708C150.083 45.6564 150.589 46.556 150.941 47.4001C151.235 48.1498 151.561 48.919 151.932 49.6686Z" fill="#F5F5F5"/>
<path opacity="0.05" d="M158.341 49.108C158.276 49.1004 158.21 49.1166 158.155 49.1536C156.743 49.8902 154.545 49.4795 153.915 47.9021C153.791 47.6022 153.729 47.2795 153.589 46.9862C153.578 46.9518 153.56 46.92 153.536 46.8931C153.511 46.8661 153.482 46.8445 153.449 46.8298C152.881 46.6701 153.25 48.0031 153.308 48.2247C153.55 49.1015 154.541 49.6784 155.38 49.8837C155.955 50.0226 156.554 50.0348 157.134 49.9195C157.424 49.8631 157.701 49.7525 157.95 49.5936C158.031 49.5415 158.517 49.1829 158.374 49.108H158.341Z" fill="black"/>
<path d="M154.17 43.225H154.232C154.533 43.2858 154.822 43.396 155.087 43.551C155.299 43.6917 155.49 43.8618 155.654 44.0561C155.908 44.309 156.104 44.6136 156.228 44.9492C156.324 45.2045 156.33 45.485 156.244 45.744C156.159 46.0031 155.988 46.2251 155.759 46.3735C155.149 46.8054 154.486 47.1549 153.785 47.4132C153.258 47.571 152.693 47.5387 152.187 47.3219C151.921 47.1642 151.691 46.9521 151.512 46.6994C151.158 46.2454 150.854 45.7548 150.605 45.236C150.507 45.0591 150.447 44.8637 150.429 44.6624C150.4 43.74 151.678 43.0327 152.474 42.9806C153.048 42.982 153.619 43.0643 154.17 43.225Z" fill="#263238"/>
<path d="M175.742 18.6307C175.976 18.3276 176.26 17.9952 176.642 17.9789C176.923 18.0103 177.185 18.1355 177.385 18.3341C178.449 19.1783 180.151 20.0844 180.944 21.1827C181.596 22.0921 181.162 23.8292 181.038 24.9211C180.691 27.9337 180.141 30.9194 179.391 33.858C178.99 34.0894 177.959 33.7113 177.568 33.4636C175.363 32.0773 173.268 30.5223 171.303 28.8126C170.611 28.2129 169.427 27.2482 169.32 26.2639C169.212 25.2796 170.2 24.7516 170.813 24.1584C172.588 22.4377 174.235 20.5903 175.742 18.6307Z" fill="#455A64"/>
<path d="M174.829 21.3587C174.83 21.3859 174.83 21.4131 174.829 21.4402C174.812 21.7228 174.774 22.0038 174.718 22.2811C174.558 22.6829 174.295 23.035 173.954 23.3013L173.012 24.1715C172.548 24.5534 172.165 25.0231 171.883 25.5534C171.858 25.5992 171.849 25.6518 171.857 25.7033C171.88 25.7815 171.975 25.8109 172.056 25.8272C172.474 25.907 172.904 25.907 173.322 25.8272C173.296 26.0162 173.273 26.2052 173.247 26.3943C173.171 26.7864 173.159 27.188 173.211 27.5839C173.235 27.7865 173.307 27.9806 173.42 28.1504C173.534 28.3202 173.685 28.4611 173.863 28.5617C173.993 28.6331 174.145 28.6562 174.29 28.6269C174.41 28.5871 174.521 28.524 174.617 28.4411L175.269 27.9294C175.231 28.4751 175.333 29.0214 175.566 29.5166C175.703 29.8132 175.941 30.1196 176.267 30.1229C176.593 30.1261 176.854 29.7709 177.04 29.5036C177.278 29.8882 177.966 31.0485 178.553 30.703C178.705 30.5956 178.824 30.4492 178.899 30.2793C179.718 28.7116 179.848 26.9353 180.158 25.2275C179.893 25.5986 179.549 25.9059 179.15 26.127C178.72 26.3617 178.172 26.4855 177.754 26.2248C177.553 26.0805 177.391 25.8892 177.281 25.6675C176.839 24.758 176.597 23.7645 176.57 22.7537C176.521 22.1377 176.498 21.5184 176.423 20.9024C176.389 20.3674 176.303 19.8369 176.166 19.3185C175.582 19.9051 174.982 20.5537 174.829 21.3587Z" fill="#37474F"/>
<path d="M166.332 34.4349C165.975 34.4914 165.65 34.6748 165.418 34.9515C165.185 35.2281 165.061 35.5794 165.067 35.9406C165.067 36.7196 165.598 37.303 166.286 37.2443C166.641 37.1858 166.963 37.0019 167.194 36.7261C167.424 36.4504 167.548 36.1011 167.542 35.7418C167.565 34.9629 167.02 34.3794 166.332 34.4349Z" fill="white"/>
<path d="M166.404 34.1709C166.046 34.2267 165.72 34.4103 165.486 34.6878C165.253 34.9652 165.128 35.3176 165.135 35.6799C165.135 36.4556 165.67 37.039 166.355 36.9836C166.713 36.9278 167.038 36.7447 167.271 36.4679C167.504 36.1912 167.629 35.8395 167.624 35.4778C167.637 34.7021 167.089 34.1155 166.404 34.1709Z" fill="#263238"/>
<path d="M166.717 35.4941C166.667 35.5052 166.616 35.5052 166.566 35.4941C166.517 35.483 166.471 35.4611 166.431 35.4299C166.391 35.3987 166.358 35.3591 166.335 35.3138C166.313 35.2685 166.3 35.2188 166.299 35.1682C166.284 35.0585 166.309 34.9472 166.369 34.854C166.428 34.7609 166.519 34.692 166.625 34.6597C166.675 34.6486 166.726 34.6486 166.775 34.6597C166.825 34.6708 166.871 34.6928 166.911 34.7239C166.951 34.7551 166.984 34.7948 167.006 34.84C167.029 34.8853 167.042 34.935 167.043 34.9857C167.058 35.0953 167.033 35.2067 166.973 35.2998C166.914 35.393 166.823 35.4618 166.717 35.4941Z" fill="#FAFAFA"/>
<path d="M155.582 33.4212C155.265 33.454 154.971 33.6 154.753 33.8324C154.536 34.0647 154.41 34.3678 154.398 34.6858C154.375 34.833 154.384 34.9833 154.424 35.1268C154.464 35.2702 154.534 35.4035 154.63 35.5177C154.726 35.6318 154.845 35.7242 154.979 35.7888C155.114 35.8533 155.26 35.8884 155.409 35.8917C155.726 35.8583 156.019 35.7121 156.237 35.4798C156.454 35.2476 156.581 34.9449 156.593 34.6271C156.616 34.4799 156.607 34.3296 156.567 34.1861C156.527 34.0427 156.457 33.9094 156.361 33.7953C156.265 33.6811 156.146 33.5887 156.012 33.5242C155.878 33.4597 155.731 33.4246 155.582 33.4212Z" fill="white"/>
<path d="M155.657 33.1931C155.34 33.2258 155.046 33.3719 154.829 33.6042C154.611 33.8366 154.485 34.1397 154.473 34.4576C154.45 34.6048 154.459 34.7552 154.499 34.8986C154.539 35.0421 154.61 35.1754 154.705 35.2895C154.801 35.4037 154.92 35.4961 155.054 35.5606C155.189 35.6251 155.335 35.6602 155.484 35.6636C155.802 35.6334 156.097 35.4881 156.315 35.2551C156.532 35.0221 156.657 34.7175 156.665 34.399C156.688 34.252 156.68 34.1017 156.64 33.9582C156.601 33.8148 156.531 33.6815 156.435 33.5672C156.34 33.453 156.221 33.3605 156.087 33.296C155.953 33.2314 155.806 33.1963 155.657 33.1931Z" fill="#263238"/>
<path d="M155.869 34.3697C155.826 34.3774 155.781 34.3753 155.738 34.3637C155.696 34.3522 155.656 34.3313 155.622 34.3026C155.589 34.274 155.562 34.2383 155.544 34.198C155.525 34.1578 155.516 34.114 155.517 34.0698C155.509 33.974 155.535 33.8784 155.591 33.7998C155.646 33.7211 155.727 33.6645 155.82 33.6396C155.864 33.632 155.909 33.634 155.952 33.6456C155.994 33.6571 156.034 33.678 156.068 33.7065C156.102 33.7351 156.129 33.7708 156.148 33.8111C156.166 33.8513 156.176 33.8951 156.176 33.9394C156.184 34.0357 156.157 34.1317 156.101 34.2103C156.045 34.289 155.963 34.3454 155.869 34.3697Z" fill="#FAFAFA"/>
<path d="M184.176 44.4864C184.081 43.6697 183.833 42.8781 183.445 42.1528C183.387 42.0452 183.305 42.2049 183.321 42.2701C183.498 42.7852 183.568 43.3308 183.527 43.8737C183.445 44.5296 183.254 45.1674 182.963 45.7608C182.519 46.5886 181.593 47.3122 180.611 47.2437C180.33 47.2242 179.985 47.3708 180.073 47.7196C180.182 48.1668 180.157 48.6362 180.002 49.0695C179.846 49.5028 179.567 49.8811 179.199 50.1575C178.388 50.7159 177.393 50.9412 176.42 50.7865C175.621 50.7083 175.099 51.3765 174.642 51.937C173.988 52.7427 173.238 53.4651 172.408 54.0881C172.544 54.0918 172.679 54.0831 172.813 54.0621C173.009 53.9887 173.198 53.8971 173.377 53.7883C173.954 53.4318 174.489 53.0108 174.972 52.5335C175.207 52.3184 175.435 52.1 175.673 51.8816C175.79 51.757 175.936 51.6641 176.099 51.6117C176.262 51.5592 176.435 51.5489 176.603 51.5818C177.773 51.7056 179.036 51.4938 179.965 50.7311C180.356 50.4205 180.668 50.023 180.878 49.5703C181.087 49.1176 181.188 48.6222 181.172 48.1237C181.698 48.0664 182.204 47.888 182.649 47.6024C183.094 47.3168 183.467 46.9318 183.739 46.4778C184.101 45.8806 184.255 45.1802 184.176 44.4864Z" fill="#37474F"/>
<path d="M196.541 58.4262C196.517 57.9638 196.375 57.5152 196.13 57.1225C195.321 55.721 193.938 54.753 192.542 53.9284C191.89 53.5438 191.179 53.1657 190.429 53.244C190.468 53.4591 190.673 53.5927 190.856 53.7035C191.805 54.2758 192.706 54.922 193.553 55.6363C194.274 56.2425 195.129 56.9106 195.386 57.8493C195.477 58.0481 195.49 58.274 195.421 58.4814C195.352 58.6889 195.206 58.8625 195.014 58.9672C194.626 59.2318 194.178 59.3944 193.71 59.4398C193.511 59.4594 193.256 59.4985 193.217 59.694C193.178 59.8896 193.348 60.0037 193.485 60.1145C193.844 60.4078 194.121 60.8902 193.971 61.3302C193.907 61.4877 193.804 61.6267 193.673 61.7344C193.541 61.842 193.385 61.9149 193.217 61.9462C192.882 62.0065 192.538 61.9965 192.206 61.9168C192.066 61.8908 191.896 61.868 191.802 61.9755C191.587 62.2102 192.105 62.6274 192.301 62.7186C192.77 62.8992 193.286 62.9164 193.765 62.7675C194.029 62.6952 194.273 62.5621 194.476 62.3787C194.68 62.1953 194.837 61.9668 194.936 61.7115C195.029 61.454 195.04 61.174 194.967 60.9101C194.894 60.6463 194.741 60.4116 194.528 60.2383C195.028 60.1565 195.502 59.9614 195.915 59.668C196.112 59.5273 196.272 59.3407 196.381 59.1244C196.49 58.908 196.545 58.6684 196.541 58.4262Z" fill="#37474F"/>
<path d="M182.849 86.7491C182.787 86.6741 182.591 86.7947 182.405 86.8371C182.186 86.8837 181.959 86.8831 181.741 86.8353C181.522 86.7875 181.316 86.6937 181.136 86.56C180.905 86.3734 180.717 86.1384 180.586 85.8715C180.456 85.6046 180.385 85.3123 180.38 85.0152C180.108 85.3153 179.781 85.5609 179.417 85.7387C179.234 85.825 179.029 85.8582 178.828 85.8346C178.626 85.811 178.435 85.7315 178.276 85.6051C178.132 85.4565 178.03 85.2719 177.982 85.0706C177.88 84.6605 177.856 84.2348 177.911 83.8157C177.98 83.0258 178.151 82.248 178.419 81.5017C178.543 81.1595 178.661 80.814 178.811 80.4848C178.961 80.1556 179.238 79.8688 179.267 79.507C179.059 79.4549 178.869 79.6374 178.736 79.8069C177.509 81.3778 176.779 83.4246 177.144 85.3834C177.199 85.8724 177.431 86.3243 177.796 86.6546C178.056 86.8168 178.354 86.9095 178.66 86.9237C178.966 86.938 179.271 86.8734 179.545 86.736C179.565 86.7235 179.587 86.7153 179.611 86.712C179.635 86.7086 179.659 86.7101 179.682 86.7165C179.71 86.7329 179.733 86.758 179.747 86.7882C179.917 87.0615 180.145 87.2937 180.416 87.4679C180.687 87.642 180.993 87.7539 181.312 87.7953C181.67 87.8468 182.035 87.778 182.35 87.5997C182.585 87.4632 182.763 87.2453 182.849 86.987C182.871 86.8664 182.871 86.7947 182.849 86.7491Z" fill="#37474F"/>
<path d="M177.979 39.692C177.894 39.5735 177.797 39.4642 177.689 39.3661C177.752 39.3573 177.814 39.3432 177.875 39.3237C178.089 39.2628 178.292 39.167 178.475 39.0402C178.902 38.6947 178.612 38.2091 178.302 37.8864C177.933 37.5244 177.531 37.1971 177.102 36.9086C176.638 36.552 176.122 36.2684 175.572 36.0677C175.435 36.0221 175.462 36.2959 175.524 36.348C175.938 36.6935 176.381 36.9999 176.809 37.3258C177.014 37.4822 177.213 37.6517 177.409 37.8082C177.591 37.9274 177.753 38.0748 177.888 38.2449C177.94 38.3394 177.944 38.3036 177.888 38.3883C177.789 38.4555 177.679 38.5031 177.562 38.5285C177.358 38.5952 177.15 38.6474 176.939 38.6849C176.844 38.6975 176.754 38.7374 176.681 38.8C176.608 38.8625 176.555 38.9449 176.528 39.0371C176.501 39.1294 176.501 39.2274 176.529 39.3194C176.557 39.4114 176.611 39.4933 176.685 39.5551C176.805 39.6888 176.962 39.767 177.089 39.8811C177.226 40.0302 177.331 40.2053 177.399 40.396C177.558 40.7357 177.601 41.1179 177.523 41.4846C177.47 41.6266 177.364 41.7424 177.227 41.8075C177.09 41.8726 176.933 41.8819 176.789 41.8333C176.59 41.7672 176.404 41.668 176.238 41.54C176.058 41.4227 175.863 41.3542 175.683 41.2434C175.598 41.1827 175.508 41.1303 175.413 41.087C175.302 41.0413 175.308 41.2499 175.325 41.2988C175.371 41.5408 175.466 41.7712 175.602 41.9768C175.707 42.0986 175.827 42.208 175.957 42.3027C176.21 42.4905 176.504 42.6146 176.815 42.6645C177.09 42.7244 177.376 42.7051 177.639 42.6087C177.903 42.5123 178.134 42.3429 178.306 42.1202C178.632 41.6378 178.547 41.0055 178.381 40.4905C178.289 40.2051 178.154 39.9356 177.979 39.692Z" fill="#37474F"/>
<path d="M227.402 99.6753C228.582 99.4341 229.936 99.3819 230.931 98.6975C228.631 103.26 222.584 104.942 217.976 105.311C218.943 103.749 219.645 102.039 220.053 100.249C220.606 97.6209 220.764 94.9253 220.523 92.2507C221.557 90.054 221.828 87.766 222.513 85.491C222.865 85.678 223.171 85.9417 223.408 86.2627C223.646 86.5836 223.808 86.9537 223.882 87.3455C224.385 85.3972 224.308 83.3449 223.661 81.4398C222.963 79.5787 221.489 77.9491 219.59 77.2973C218.074 76.7986 216.511 77.1245 214.522 77.4016C212.35 77.7079 209.561 77.4015 207.744 76.2967C208.482 75.7621 210.269 74.8854 211.254 72.454C207.074 75.7086 201.822 77.2723 196.541 76.8344C197.36 76.9029 197.996 74.4976 198.022 73.9663C198.087 72.7636 197.992 71.5284 198.162 70.3029C198.556 67.4161 199.92 64.7488 202.03 62.7382C200.259 63.5807 198.599 64.6394 197.089 65.8899C198.028 63.6084 199 61.2389 200.677 59.4203C200.768 59.3257 200.856 59.228 200.954 59.1367C201.458 58.6168 201.995 58.1301 202.562 57.6798C204.767 55.9035 207.454 54.6226 210.086 54.3945C214.636 54.0066 218.455 54.6976 221.218 56.4022C220.615 55.0989 219.625 54.0123 218.384 53.2896C229.597 54.5183 237.232 66.7373 237.434 77.0333C237.757 85.5627 234.988 94.5908 227.402 99.6753Z" fill="#263238"/>
<path d="M219.59 77.2972C220.237 77.5172 220.84 77.8481 221.374 78.275C221.501 78.3728 222.232 77.0919 222.271 76.9485C222.412 76.4208 222.355 75.8597 222.111 75.371C221.849 74.9612 221.518 74.5996 221.132 74.302C221.875 74.2505 222.612 74.1416 223.337 73.9761C224.126 73.8001 224.968 73.5198 225.441 72.8744C225.914 72.2291 225.858 71.1242 225.115 70.782C226.866 70.7527 228.742 70.681 230.147 69.638C230.392 69.4739 230.589 69.2493 230.721 68.9861C230.871 68.5525 230.855 68.0788 230.676 67.6564C230.255 66.3755 229.466 65.5313 228.53 64.6122C227.998 64.0908 226.462 62.3014 225.594 62.4318C227.064 62.2145 228.525 61.9407 229.978 61.6105C230.49 61.5414 230.974 61.3366 231.38 61.0173L231.426 60.9684C228.135 56.8715 223.654 53.86 218.38 53.2831C219.621 54.0058 220.611 55.0923 221.214 56.3957C218.451 54.6911 214.632 54.0001 210.082 54.388C207.437 54.6161 204.763 55.897 202.558 57.6733C201.991 58.1236 201.454 58.6102 200.95 59.1302C200.852 59.2214 200.764 59.3192 200.673 59.4137C198.983 61.2324 198.011 63.5888 197.085 65.8833C198.596 64.634 200.255 63.5764 202.026 62.7349C199.916 64.7456 198.552 67.4129 198.158 70.2996C197.988 71.5251 198.083 72.7604 198.018 73.963C197.992 74.4943 197.366 76.8963 196.537 76.8312C201.815 77.2728 207.065 75.715 211.247 72.467C210.268 74.8984 208.474 75.7752 207.737 76.3097C209.554 77.4146 212.343 77.7209 214.515 77.4146C216.511 77.1375 218.073 76.8116 219.59 77.2972Z" fill="#F5F5F5"/>
<path d="M207.744 76.3195C209.56 77.4244 212.349 77.7307 214.521 77.4244C216.511 77.1473 218.073 76.8214 219.59 77.3201C220.237 77.54 220.84 77.8709 221.374 78.2978C221.501 78.3956 222.231 77.1147 222.271 76.9713C222.412 76.4436 222.355 75.8825 222.111 75.3938C221.848 74.984 221.517 74.6224 221.132 74.3248C221.875 74.2734 222.612 74.1644 223.337 73.9989C224.067 73.8867 224.747 73.5625 225.294 73.0667L224.909 73.1058C223.413 73.2317 221.925 72.7843 220.747 71.8543C220.421 71.6033 220.118 71.2318 220.235 70.8472C218.673 71.851 216.928 72.894 215.089 72.6333C214.773 72.6122 214.474 72.482 214.244 72.265C214.125 72.0913 214.043 71.8947 214.003 71.6876C213.964 71.4806 213.968 71.2676 214.016 71.0623C214.103 70.317 214.287 69.5862 214.564 68.8884C211.762 68.2919 209.035 70.3518 206.168 70.3225C205.79 70.3225 205.317 70.1953 205.255 69.8238C205.244 69.6475 205.285 69.4719 205.373 69.3186L206.328 67.2457C204.865 68.2023 203.314 69.0186 201.697 69.6836C201.061 69.9476 200.252 70.1627 199.74 69.6999C199.449 69.3759 199.293 68.9522 199.306 68.5168C199.249 67.6055 199.372 66.6919 199.668 65.8279C198.891 67.2213 198.382 68.748 198.168 70.329C197.998 71.5544 198.093 72.7897 198.028 73.9924C198.002 74.5236 197.375 76.9257 196.547 76.8605C201.825 77.2914 207.072 75.7231 211.247 72.467C210.268 74.8984 208.481 75.7752 207.744 76.3195Z" fill="#E0E0E0"/>
<path d="M237.183 122.151L235.633 115.884H227.835C225.255 115.44 222.617 115.44 220.037 115.884H212.242L210.689 122.151C210.099 124.485 211.342 126.942 214.469 128.735C219.688 131.753 228.168 131.753 233.403 128.735C236.514 126.942 237.773 124.485 237.183 122.151Z" fill="#78BF9B"/>
<path opacity="0.1" d="M237.183 122.151L235.633 115.884H227.835C225.255 115.44 222.617 115.44 220.037 115.884H212.242L210.689 122.151C210.099 124.485 211.342 126.942 214.469 128.735C219.688 131.753 228.168 131.753 233.403 128.735C236.514 126.942 237.773 124.485 237.183 122.151Z" fill="black"/>
<path d="M223.938 123.663C230.463 123.663 235.752 120.612 235.752 116.848C235.752 113.084 230.463 110.033 223.938 110.033C217.414 110.033 212.125 113.084 212.125 116.848C212.125 120.612 217.414 123.663 223.938 123.663Z" fill="#78BF9B"/>
<path opacity="0.5" d="M223.938 123.663C230.463 123.663 235.752 120.612 235.752 116.848C235.752 113.084 230.463 110.033 223.938 110.033C217.414 110.033 212.125 113.084 212.125 116.848C212.125 120.612 217.414 123.663 223.938 123.663Z" fill="white"/>
<path opacity="0.7" d="M216.658 120.818C220.663 123.041 227.154 123.041 231.159 120.818C235.164 118.595 235.161 115 231.159 112.781C227.157 110.561 220.663 110.561 216.658 112.781C212.653 115 212.653 118.598 216.658 120.818Z" fill="#78BF9B"/>
<path d="M234.15 117.076C233.922 116.735 233.612 116.456 233.249 116.263C232.885 116.071 232.48 115.972 232.069 115.975C231.997 115.975 231.929 115.975 231.857 115.975C231.877 115.889 231.887 115.802 231.886 115.714C231.879 115.353 231.728 115.01 231.468 114.76C231.207 114.51 230.858 114.374 230.497 114.381C230.261 114.381 230.028 114.44 229.821 114.554C229.614 114.668 229.439 114.833 229.313 115.033C229.174 114.51 228.863 114.048 228.432 113.721C228 113.394 227.471 113.22 226.929 113.227C226.351 113.226 225.791 113.423 225.341 113.785C225.273 113.453 225.087 113.157 224.816 112.953C224.546 112.749 224.21 112.651 223.872 112.677C223.534 112.703 223.218 112.851 222.982 113.094C222.746 113.337 222.607 113.658 222.591 113.996C222.592 114.084 222.6 114.171 222.617 114.257C222.127 114.093 221.597 114.084 221.101 114.231C220.605 114.377 220.167 114.674 219.845 115.079C219.722 114.866 219.546 114.691 219.333 114.569C219.121 114.447 218.88 114.383 218.635 114.384C218.456 114.381 218.279 114.413 218.112 114.478C217.946 114.543 217.794 114.64 217.665 114.764C217.537 114.888 217.434 115.036 217.362 115.199C217.291 115.363 217.252 115.539 217.249 115.717C217.251 115.767 217.256 115.816 217.265 115.864C216.909 115.682 216.514 115.587 216.114 115.587C215.567 115.58 215.034 115.757 214.6 116.089C214.166 116.421 213.856 116.889 213.72 117.419C213.964 118.657 214.943 119.863 216.655 120.812C220.66 123.034 227.151 123.034 231.156 120.812C233.031 119.782 234.029 118.439 234.15 117.076Z" fill="#B16668"/>
<path d="M217.546 119.749C217.328 119.542 217.192 119.264 217.162 118.965C217.131 118.666 217.208 118.366 217.379 118.119C217.586 117.828 217.898 117.627 218.249 117.559C218.6 117.491 218.964 117.561 219.265 117.754C219.428 117.856 219.567 117.993 219.671 118.155C219.774 118.318 219.839 118.502 219.861 118.693C219.763 118.543 219.634 118.415 219.483 118.318C219.196 118.136 218.85 118.071 218.517 118.136C218.183 118.201 217.887 118.391 217.689 118.667C217.581 118.823 217.512 119.003 217.487 119.191C217.462 119.379 217.482 119.57 217.546 119.749Z" fill="#9A4A4D"/>
<path d="M223.641 119.915C223.688 119.589 223.853 119.291 224.103 119.077C224.353 118.862 224.673 118.745 225.003 118.747C225.333 118.75 225.65 118.871 225.898 119.09C226.145 119.308 226.305 119.608 226.348 119.935C226.366 120.125 226.341 120.318 226.274 120.497C226.207 120.676 226.101 120.839 225.963 120.971C226.022 120.805 226.045 120.628 226.028 120.453C225.987 120.118 225.816 119.814 225.552 119.604C225.287 119.395 224.951 119.298 224.616 119.335C224.42 119.352 224.231 119.413 224.062 119.514C223.893 119.614 223.749 119.751 223.641 119.915Z" fill="#9A4A4D"/>
<path d="M219.036 118.061C218.847 117.882 218.729 117.642 218.703 117.383C218.677 117.125 218.744 116.866 218.892 116.653C219.069 116.398 219.338 116.221 219.642 116.161C219.946 116.1 220.262 116.159 220.523 116.327C220.663 116.414 220.782 116.532 220.871 116.671C220.959 116.811 221.015 116.968 221.035 117.132C220.952 117 220.841 116.889 220.709 116.806C220.463 116.649 220.166 116.593 219.879 116.649C219.593 116.704 219.339 116.868 219.17 117.106C219.071 117.242 219.007 117.4 218.984 117.567C218.96 117.733 218.978 117.903 219.036 118.061Z" fill="#9A4A4D"/>
<path d="M226.143 120.052C226.048 119.809 226.044 119.541 226.129 119.295C226.215 119.049 226.385 118.842 226.609 118.709C226.871 118.549 227.185 118.496 227.486 118.561C227.787 118.626 228.051 118.804 228.223 119.058C228.315 119.194 228.374 119.349 228.395 119.511C228.417 119.674 228.4 119.839 228.347 119.993C228.327 119.843 228.272 119.699 228.188 119.573C228.023 119.332 227.772 119.164 227.486 119.103C227.201 119.043 226.903 119.094 226.655 119.247C226.512 119.332 226.392 119.449 226.303 119.589C226.214 119.729 226.159 119.887 226.143 120.052Z" fill="#9A4A4D"/>
<path d="M223.595 116.91C223.502 116.667 223.498 116.399 223.584 116.153C223.67 115.907 223.841 115.7 224.065 115.567C224.327 115.407 224.64 115.354 224.94 115.419C225.241 115.484 225.504 115.662 225.676 115.916C225.768 116.052 225.827 116.207 225.849 116.369C225.871 116.531 225.855 116.696 225.803 116.852C225.781 116.702 225.726 116.558 225.644 116.431C225.478 116.191 225.227 116.023 224.942 115.963C224.657 115.902 224.359 115.953 224.111 116.105C223.968 116.19 223.847 116.307 223.758 116.447C223.669 116.587 223.613 116.745 223.595 116.91Z" fill="#9A4A4D"/>
<path d="M225.54 116.151C225.465 115.956 225.462 115.741 225.531 115.545C225.599 115.348 225.735 115.181 225.915 115.075C226.126 114.944 226.38 114.899 226.624 114.951C226.867 115.004 227.081 115.149 227.219 115.356C227.292 115.465 227.339 115.589 227.357 115.719C227.374 115.849 227.362 115.981 227.321 116.105C227.302 115.988 227.257 115.877 227.19 115.779C227.059 115.586 226.858 115.451 226.63 115.402C226.402 115.353 226.163 115.394 225.964 115.515C225.848 115.58 225.749 115.672 225.675 115.782C225.602 115.893 225.555 116.019 225.54 116.151Z" fill="#9A4A4D"/>
</svg>
