<svg width="66" height="66" viewBox="0 0 66 66" fill="none" xmlns="http://www.w3.org/2000/svg">
<path d="M16.4373 56.1659C15.2409 56.1659 14.0178 55.9121 12.7736 55.4046C11.4412 54.8602 10.8022 53.3391 11.3466 52.0067C11.8909 50.6743 13.4116 50.0349 14.7444 50.5797C16.5833 51.3305 18.5698 51.5339 22.6258 45.8515C23.4621 44.6808 25.0896 44.4088 26.2608 45.2447C27.432 46.0806 27.7039 47.708 26.8681 48.8797C24.6011 52.0555 22.5724 54.045 20.4837 55.1402C19.1791 55.824 17.8266 56.1659 16.4373 56.1659Z" fill="#495059"/>
<path d="M27.3156 65.0327C25.6303 65.0327 24.2033 63.7341 24.0714 62.0256C23.7279 57.5693 23.8966 54.8275 24.1101 51.3556L24.1232 51.1381C24.2335 49.3425 25.7773 47.9749 27.574 48.0862C29.3696 48.1964 30.7362 49.7413 30.6259 51.5369L30.6128 51.7554C30.4069 55.1009 30.2588 57.5189 30.567 61.525C30.7054 63.3186 29.3635 64.8846 27.5699 65.0231C27.4843 65.0297 27.3997 65.0327 27.3156 65.0327Z" fill="#DDAF89"/>
<path d="M39.4254 65.0327C39.3413 65.0327 39.2567 65.0297 39.1716 65.0231C37.378 64.8847 36.0356 63.3187 36.174 61.5246C36.4827 57.5189 36.3342 55.101 36.1287 51.755L36.1151 51.5369C36.0048 49.7413 37.3714 48.1965 39.167 48.0862C40.9647 47.9759 42.5075 49.342 42.6178 51.1381L42.6314 51.3556C42.8444 54.827 43.0131 57.5693 42.6696 62.0256C42.5377 63.7341 41.1107 65.0327 39.4254 65.0327Z" fill="#DDAF89"/>
<path d="M15.378 44.8137C11.5597 44.8137 7.51727 43.6379 4.96484 41.8927C3.47991 40.877 3.09924 38.8498 4.11487 37.3649C5.1305 35.8799 7.15724 35.4993 8.64216 36.5149C10.9051 38.0628 16.1635 38.9495 18.4405 37.7365C20.0281 36.891 22.001 37.4923 22.8469 39.0804C23.6924 40.6681 23.0911 42.6409 21.5035 43.4864C19.7668 44.4119 17.6106 44.8137 15.378 44.8137Z" fill="#A2D3EE"/>
<path d="M49.1433 44.1918C48.0018 44.1918 46.8859 44.0453 45.8391 43.7336C44.115 43.22 43.1341 41.4058 43.6477 39.6817C44.1613 37.9575 45.975 36.9757 47.6996 37.4903C50.5124 38.3282 55.294 36.3563 56.3715 33.9137C57.0976 32.2676 59.0207 31.5224 60.6667 32.2485C62.3128 32.9746 63.058 34.8976 62.3319 36.5431C60.3701 40.9909 54.4798 44.1918 49.1433 44.1918Z" fill="#A2D3EE"/>
<path d="M42.6309 51.3556L42.6178 51.1381C42.5075 49.3425 40.9647 47.9759 39.167 48.0862C37.3714 48.1965 36.0048 49.7413 36.1151 51.5369L36.1287 51.7555C36.2324 53.4458 36.3216 54.8995 36.3447 56.4409C38.6791 56.0788 40.8599 55.2978 42.791 54.186C42.7482 53.264 42.6913 52.3391 42.6309 51.3556Z" fill="#D1A582"/>
<path d="M27.5741 48.0862C25.7775 47.9749 24.2337 49.3425 24.1234 51.1381L24.1098 51.3556C24.0494 52.339 23.993 53.264 23.9502 54.186C25.8813 55.2978 28.0616 56.0783 30.3965 56.4408C30.4196 54.8995 30.5088 53.4458 30.6125 51.7549L30.6256 51.5369C30.7364 49.7413 29.3698 48.1964 27.5741 48.0862Z" fill="#D1A582"/>
<path d="M49.2503 40.4611C49.2503 32.5299 42.1403 26.1003 33.3702 26.1003C24.6001 26.1003 17.4907 32.5299 17.4907 40.4611C17.4907 48.3923 24.6001 54.8215 33.3702 54.8215C42.1403 54.8215 49.2503 48.3923 49.2503 40.4611Z" fill="#DDAF89"/>
<path d="M18.4406 37.7365C17.6817 38.1413 16.5906 38.311 15.3901 38.302V44.8137C17.6183 44.8122 19.7704 44.4099 21.5036 43.4869C23.0912 42.6409 23.6929 40.6681 22.847 39.0804C22.0011 37.4923 20.0282 36.8911 18.4406 37.7365Z" fill="#92BFD6"/>
<path d="M17.2388 36.3558V52.754C17.2388 54.2943 18.4875 55.5431 20.0284 55.5431H28.5734C29.2698 55.5431 29.8342 54.9786 29.8342 54.2827V39.4541L17.2388 36.3558Z" fill="#A2D3EE"/>
<path d="M51.3513 44.0151V37.382C50.0562 37.7244 48.7424 37.8004 47.6996 37.4898C45.975 36.9756 44.1613 37.9575 43.6477 39.6816C43.134 41.4058 44.1154 43.2195 45.839 43.7336C46.8864 44.0453 48.0017 44.1918 49.1432 44.1918C49.8729 44.1918 50.6126 44.1299 51.3513 44.0151Z" fill="#92BFD6"/>
<path d="M49.5027 36.3558V52.754C49.5027 54.2943 48.2534 55.5431 46.7131 55.5431H38.1676C37.4717 55.5431 36.9072 54.9786 36.9072 54.2827V39.4541L49.5027 36.3558Z" fill="#A2D3EE"/>
<path d="M47.7128 31.2404C43.8209 34.4695 38.8228 36.4117 33.3705 36.4117C27.9188 36.4117 22.9201 34.4695 19.0288 31.2404C18.201 32.3119 17.5112 33.4786 16.988 34.7208C16.2755 36.4127 16.9326 38.374 18.5162 39.3035C22.8748 41.8625 27.951 43.3303 33.3705 43.3303C38.7901 43.3303 43.8662 41.8625 48.2254 39.3035C49.8085 38.374 50.4661 36.4127 49.7531 34.7208C49.2304 33.4786 48.5401 32.3119 47.7128 31.2404Z" fill="#7F9AE6"/>
<path d="M26.1388 35.2218C23.5178 34.3311 21.1145 32.971 19.0288 31.2404C18.201 32.3124 17.5112 33.4786 16.988 34.7208C16.2755 36.4132 16.9326 38.374 18.5162 39.3035C20.7826 40.6343 23.2444 41.6666 25.8462 42.3539C24.8915 40.4379 25.1619 37.5623 26.1388 35.2218Z" fill="#5E78BF"/>
<path d="M27.22 12.3598C26.5533 12.3598 25.8811 12.1569 25.3005 11.7349L21.2763 8.81186C19.5139 7.53187 17.1377 7.63812 15.4967 9.07068L12.8622 11.3713C11.5011 12.5592 9.4351 12.4192 8.24726 11.0586C7.05942 9.69758 7.1994 7.63157 8.55996 6.44373L11.195 4.14358C13.0948 2.48443 15.5289 1.50858 18.0486 1.39578C20.5688 1.28349 23.0799 2.03729 25.1208 3.5197L29.1445 6.44273C30.6063 7.50418 30.93 9.54954 29.8686 11.0113C29.2286 11.892 28.2311 12.3598 27.22 12.3598Z" fill="#495059"/>
<path d="M39.5212 12.3598C38.5096 12.3598 37.5121 11.892 36.8721 11.0108C35.8106 9.54958 36.1349 7.50422 37.5962 6.44276L41.6204 3.51973C43.6613 2.03732 46.1734 1.28403 48.6926 1.39582C51.2123 1.50861 53.6459 2.48446 55.5462 4.14311L58.1807 6.44377C59.5418 7.63161 59.6818 9.69762 58.4934 11.0582C57.3056 12.4192 55.2396 12.5592 53.879 11.3709L51.244 9.07072C49.6035 7.63816 47.2268 7.53191 45.4644 8.8119L41.4402 11.7349C40.8601 12.1569 40.1874 12.3598 39.5212 12.3598Z" fill="#495059"/>
<path d="M33.3702 38.2632C49.9733 38.2632 57.4558 30.6573 55.1204 19.9481C52.6108 8.43975 44.7068 2.14001 33.3702 2.14001C22.0341 2.14001 14.1301 8.43975 11.6205 19.9481C9.28506 30.6573 16.7676 38.2632 33.3702 38.2632Z" fill="#DDAF89"/>
<path d="M37.8059 43.8897C37.8059 46.3394 35.8199 48.3253 33.3702 48.3253C30.9205 48.3253 28.9346 46.3394 28.9346 43.8897C28.9346 41.44 30.9205 39.454 33.3702 39.454C35.8199 39.454 37.8059 41.44 37.8059 43.8897Z" fill="#F6E06A"/>
<path d="M24.9585 23.7699C24.9585 21.7215 22.8734 20.0604 20.3008 20.0604C17.7282 20.0604 15.6426 21.7215 15.6426 23.7699C15.6426 25.8188 17.7282 27.4795 20.3008 27.4795C22.8734 27.4795 24.9585 25.8188 24.9585 23.7699Z" fill="#FFDBDB"/>
<path d="M51.0981 23.7699C51.0981 21.7215 49.013 20.0604 46.4404 20.0604C43.8679 20.0604 41.7822 21.7215 41.7822 23.7699C41.7822 25.8188 43.8679 27.4795 46.4404 27.4795C49.013 27.4795 51.0981 25.8188 51.0981 23.7699Z" fill="#FFDBDB"/>
<path d="M35.8136 20.7039C34.2118 20.285 32.5295 20.285 30.9278 20.7039C30.2646 20.8776 29.6866 21.286 29.3009 21.8525C28.7802 22.6184 29.0798 23.6687 29.9257 24.0449L32.2727 25.0882C32.9716 25.3989 33.7697 25.3989 34.4686 25.0882L36.8151 24.0449C37.6616 23.6682 37.9607 22.6184 37.44 21.8525C37.0548 21.286 36.4768 20.8776 35.8136 20.7039Z" fill="#495059"/>
<path d="M52.1553 12.1367C51.0475 10.252 49.7146 8.62105 48.1743 7.25446H18.5669C17.0266 8.62105 15.6932 10.252 14.5859 12.1367H52.1553Z" fill="#7F9AE6"/>
<path d="M41.1864 8.78218C41.1864 13.0985 37.6874 16.5981 33.3706 16.5981C29.0542 16.5981 25.5552 13.0985 25.5552 8.78218C25.5552 4.46587 29.0542 0.966797 33.3706 0.966797C37.6874 0.966797 41.1864 4.46587 41.1864 8.78218Z" fill="#DFE3E5"/>
<path d="M36.6514 8.78219C36.6514 10.5944 35.1826 12.0632 33.3704 12.0632C31.5587 12.0632 30.0898 10.5944 30.0898 8.78219C30.0898 6.97046 31.5587 5.50165 33.3704 5.50165C35.1826 5.50165 36.6514 6.97046 36.6514 8.78219Z" fill="#CACDCF"/>
<path d="M45.4567 47.278H43.3247C42.7904 47.278 42.3579 46.8455 42.3579 46.3112C42.3579 45.7775 42.7904 45.3444 43.3247 45.3444H45.4567C45.9904 45.3444 46.4235 45.7775 46.4235 46.3112C46.4235 46.8455 45.9904 47.278 45.4567 47.278Z" fill="white"/>
<path d="M10.5632 37.4445C9.81641 37.1791 9.15275 36.8639 8.64267 36.5149C7.15774 35.4993 5.1305 35.8805 4.11487 37.3649C3.09924 38.8498 3.47991 40.8771 4.96484 41.8927C5.87272 42.5136 6.97093 43.0604 8.17891 43.5096L10.5632 37.4445Z" fill="#DDAF89"/>
<path d="M60.6663 32.2485C59.0203 31.5224 57.0973 32.2676 56.3712 33.9137C56.0967 34.5365 55.5806 35.1282 54.9185 35.6509L59.9719 39.8317C60.9851 38.8513 61.8023 37.7435 62.332 36.5431C63.0576 34.8971 62.3124 32.9746 60.6663 32.2485Z" fill="#DDAF89"/>
<path d="M22.0485 18.4249V20.0694C22.0485 20.6037 22.4815 21.0362 23.0153 21.0362C23.549 21.0362 23.9821 20.6037 23.9821 20.0694V18.4249C23.9821 17.8906 23.549 17.4581 23.0153 17.4581C22.4815 17.4581 22.0485 17.8906 22.0485 18.4249ZM28.888 27.7766C28.5371 27.3742 27.9268 27.3324 27.5239 27.6829C27.1216 28.0339 27.0798 28.6447 27.4303 29.047C28.9288 30.7666 31.094 31.753 33.3705 31.753C35.647 31.753 37.8122 30.7666 39.3107 29.047C39.6617 28.6447 39.6194 28.0339 39.2171 27.6829C38.8142 27.3324 38.2039 27.3742 37.853 27.7766C36.9365 28.8284 35.6903 29.5163 34.3373 29.7398V26.1577C34.5155 26.1094 34.6908 26.0474 34.8615 25.9719L37.2085 24.9281C37.8741 24.632 38.3701 24.0605 38.57 23.3595C38.7694 22.6586 38.6491 21.9114 38.2397 21.3091C37.7226 20.5488 36.9476 20.0015 36.0584 19.7688C34.3 19.3081 32.441 19.3081 30.6831 19.7688C29.7934 20.0015 29.0189 20.5483 28.5018 21.3091C28.0919 21.9114 27.9716 22.6586 28.1715 23.3595C28.3709 24.0605 28.8674 24.632 29.5331 24.9281L31.88 25.9719C32.0507 26.0474 32.226 26.1094 32.4037 26.1577V29.7398C31.0507 29.5163 29.8045 28.8284 28.888 27.7766ZM30.3191 23.1617C30.1262 23.0755 30.0557 22.9169 30.0311 22.8298C30.0064 22.7427 29.9822 22.5705 30.1005 22.3963C30.3548 22.0227 30.7355 21.7538 31.1726 21.6395C31.8916 21.4511 32.6313 21.357 33.3705 21.357C34.1102 21.357 34.8499 21.4511 35.5684 21.6395C36.006 21.7538 36.3867 22.0227 36.6405 22.3963C36.7593 22.571 36.7351 22.7427 36.7105 22.8298C36.6858 22.9169 36.6153 23.0755 36.4224 23.1617L34.076 24.205C33.6278 24.4044 33.1137 24.4044 32.6656 24.205L30.3191 23.1617ZM33.3705 13.03C35.713 13.03 37.6183 11.1246 37.6183 8.78217C37.6183 6.44023 35.713 4.53485 33.3705 4.53485C31.0286 4.53485 29.1232 6.44023 29.1232 8.78217C29.1232 11.1246 31.0286 13.03 33.3705 13.03ZM33.3705 6.46842C34.6465 6.46842 35.6848 7.50621 35.6848 8.78217C35.6848 10.0581 34.647 11.0964 33.3705 11.0964C32.0945 11.0964 31.0568 10.0581 31.0568 8.78217C31.0568 7.50621 32.0945 6.46842 33.3705 6.46842ZM63.2901 33.7012C62.8822 32.6493 62.0892 31.8189 61.0569 31.3638C58.9255 30.4236 56.4269 31.3925 55.4868 33.5234C55.2879 33.9746 54.9037 34.4232 54.3987 34.8356C54.3443 34.8704 54.2934 34.9107 54.2461 34.9565C53.379 35.6206 52.2022 36.1781 50.9897 36.4787C51.032 35.9223 50.9746 35.3538 50.8075 34.8004C52.096 33.8618 53.1857 32.7797 54.0618 31.5556C54.3725 31.1216 54.2728 30.5173 53.8387 30.2066C53.4047 29.8959 52.8004 29.9956 52.4898 30.4297C51.6287 31.6326 50.5114 32.6886 49.1503 33.5904C49.1176 33.6085 49.0864 33.6287 49.0562 33.6503C48.0138 34.3301 46.8315 34.9212 45.5123 35.4182C42.2055 36.6645 38.1204 37.2959 33.371 37.2959C26.7037 37.2959 21.3969 36.0633 17.7448 33.6981C17.6899 33.6508 17.6285 33.61 17.562 33.5753C16.4164 32.8094 15.4371 31.9302 14.638 30.9383C12.3605 28.1099 11.6434 24.3812 12.5654 20.154C13.1389 17.5236 14.002 15.1675 15.145 13.1035H25.7298C27.2405 15.7642 30.0985 17.5643 33.3705 17.5643C36.643 17.5643 39.5011 15.7642 41.0117 13.1035H51.5965C52.7395 15.1675 53.6026 17.5236 54.1761 20.154C54.7104 22.6037 54.7033 24.8762 54.1555 26.9075C54.0165 27.4226 54.3216 27.9533 54.8373 28.0923C54.9213 28.1154 55.0064 28.126 55.0895 28.126C55.516 28.126 55.9063 27.842 56.0226 27.411C56.652 25.0776 56.6661 22.4975 56.0654 19.7421C55.4445 16.8951 54.4943 14.3387 53.2415 12.098L53.2436 12.0995C54.0452 12.7994 55.0382 13.1428 56.0276 13.1428C57.2094 13.1428 58.3857 12.6524 59.222 11.6941C60.7588 9.93426 60.5771 7.25243 58.8172 5.71564L56.1822 3.41498C54.1182 1.61283 51.4736 0.552379 48.7354 0.43002C46.2006 0.316221 43.6653 1.01463 41.5424 2.40136C40.5514 2.07709 39.5177 1.81777 38.4451 1.62088C37.0111 0.601726 35.2603 0 33.3705 0C31.4812 0 29.7304 0.601726 28.2964 1.62088C27.2238 1.81777 26.1901 2.07709 25.1991 2.40187C23.0762 1.01463 20.5419 0.316724 18.0056 0.43002C15.2679 0.552883 12.6233 1.61283 10.5593 3.41498L7.92431 5.71564C6.16445 7.25243 5.98267 9.93426 7.51946 11.6946C8.35584 12.6524 9.5321 13.1428 10.7139 13.1428C11.7033 13.1428 12.6963 12.7994 13.4985 12.0995L13.5 12.098C12.2472 14.3387 11.297 16.8951 10.6761 19.7421C9.62576 24.561 10.4747 28.8516 13.1324 32.1513C13.9219 33.1317 14.86 34.0134 15.9356 34.7959C15.6808 35.6358 15.6788 36.5119 15.8963 37.3276C14.357 37.3911 12.4803 37.0935 10.9672 36.5673C10.9506 36.5597 10.9344 36.5517 10.9173 36.5451C10.8786 36.5295 10.8388 36.5179 10.7995 36.5079C10.1766 36.2803 9.62223 36.0134 9.18869 35.7168C7.26619 34.4021 4.63269 34.8966 3.31695 36.8196C2.67998 37.7506 2.44432 38.874 2.65228 39.9833C2.86024 41.0921 3.48815 42.0538 4.41919 42.6908C5.38044 43.3479 6.53203 43.9229 7.79087 44.3938C7.80245 44.3988 7.81353 44.4048 7.82511 44.4094C7.85532 44.4209 7.88553 44.431 7.91625 44.4401C10.225 45.286 12.8806 45.781 15.3782 45.781C15.6773 45.781 15.9758 45.7724 16.2724 45.7583V49.9936C15.8963 49.9709 15.5272 49.8551 15.1103 49.6849C14.2266 49.3234 13.2552 49.3284 12.3756 49.698C11.4959 50.0676 10.8126 50.7579 10.4521 51.6411C10.091 52.5249 10.0961 53.4962 10.4657 54.3759C10.8352 55.2555 11.5251 55.9388 12.4088 56.2999C13.7633 56.8527 15.1188 57.1332 16.4381 57.1332C17.5806 57.1332 18.7116 56.9197 19.8037 56.5028C19.8783 56.5073 19.9528 56.5103 20.0283 56.5103H22.9141C22.898 57.8508 22.9272 59.1559 23.0042 60.5457C23.0329 61.0608 23.4594 61.4591 23.969 61.4591C23.9871 61.4591 24.0052 61.4586 24.0234 61.4576C24.5566 61.4279 24.9645 60.9712 24.9348 60.4384C24.8597 59.0854 24.8315 57.8155 24.8476 56.5103H28.5738C28.8774 56.5103 29.1665 56.4489 29.4308 56.3381C29.4067 57.7722 29.4379 59.449 29.6035 61.5996C29.7002 62.8589 28.7546 63.9622 27.4957 64.0594C26.8114 64.1112 26.1644 63.866 25.6881 63.3831C25.3129 63.0034 24.7006 62.9994 24.3204 63.374C23.9403 63.7492 23.9368 64.3615 24.3114 64.7411C25.112 65.5528 26.179 66 27.316 66C27.4242 66 27.5345 65.9955 27.6438 65.9869C29.9661 65.8081 31.7103 63.7733 31.5311 61.451C31.3438 59.0205 31.3347 57.2163 31.38 55.681C32.0397 55.752 32.7043 55.7888 33.3705 55.7888C34.0367 55.7888 34.7019 55.752 35.361 55.681C35.4063 57.2158 35.3972 59.02 35.2099 61.451C35.1233 62.5759 35.4798 63.6671 36.214 64.5241C36.9481 65.3806 37.9723 65.9008 39.0972 65.9874C39.2065 65.9955 39.3168 66 39.425 66C41.6164 66 43.4649 64.287 43.6336 62.1001C43.7877 60.096 43.8496 58.3321 43.8279 56.5103H46.7132C48.7842 56.5103 50.4691 54.8255 50.4691 52.7545V45.0957C54.2511 44.7618 57.9738 43.0478 60.5433 40.6112C60.6063 40.5649 60.6647 40.511 60.7165 40.4485C60.7191 40.4455 60.7211 40.442 60.7236 40.4395C61.7991 39.3826 62.6592 38.1972 63.2166 36.9339C63.6723 35.9011 63.6985 34.7531 63.2901 33.7012ZM16.3585 11.1699C16.9613 10.319 17.6209 9.52942 18.3369 8.80382C18.5343 8.60392 18.7367 8.41107 18.9417 8.22174H24.608C24.5964 8.40704 24.5883 8.59385 24.5883 8.78217C24.5883 9.60999 24.7057 10.4101 24.9207 11.1699H16.3585ZM41.8203 11.1699C42.0354 10.4101 42.1532 9.60999 42.1532 8.78217C42.1532 8.59385 42.1451 8.40704 42.133 8.22174H47.7998C48.0048 8.41107 48.2072 8.60392 48.4041 8.80382C49.1206 9.52942 49.7797 10.3195 50.3825 11.1699H41.8203ZM48.6493 2.36158C50.951 2.46481 53.1746 3.35607 54.9103 4.87171L57.5453 7.17186C58.502 8.00773 58.6012 9.46597 57.7658 10.4227C56.9299 11.3794 55.4717 11.4786 54.515 10.6432L51.8805 8.34259C51.168 7.72072 50.3165 7.29221 49.4046 7.08878C49.244 6.93369 49.0803 6.78263 48.9152 6.63409C48.8568 6.5646 48.7898 6.50367 48.7148 6.45281C47.2706 5.18743 45.6528 4.13655 43.8733 3.31528C45.3592 2.62342 47.0037 2.28857 48.6493 2.36158ZM45.2932 6.28816H41.7901C41.5716 5.55249 41.2609 4.8561 40.8687 4.2146C42.4654 4.72921 43.9417 5.42258 45.2932 6.28816ZM33.3705 1.93358C37.147 1.93358 40.2196 5.00616 40.2196 8.78217C40.2196 12.5587 37.147 15.6313 33.3705 15.6313C29.5945 15.6313 26.5219 12.5587 26.5219 8.78217C26.5219 5.00616 29.5945 1.93358 33.3705 1.93358ZM25.8728 4.2146C25.4806 4.8561 25.1694 5.55249 24.9514 6.28816H21.4483C22.7998 5.42258 24.2761 4.72921 25.8728 4.2146ZM12.2265 10.6427C11.2698 11.4786 9.81106 11.3794 8.97569 10.4227C8.14032 9.46597 8.23952 8.00723 9.19624 7.17186L11.8312 4.87121C13.5664 3.35607 15.79 2.46481 18.0922 2.36158C19.7383 2.28857 21.3823 2.62342 22.8682 3.31528C21.0888 4.13655 19.4709 5.18743 18.0268 6.45281C17.9517 6.50317 17.8848 6.5646 17.8263 6.63358C17.6612 6.78263 17.4975 6.93369 17.3369 7.08828C16.425 7.29171 15.5735 7.72022 14.8615 8.34259L12.2265 10.6427ZM7.63477 42.2512C6.85329 41.9093 6.13524 41.5216 5.51086 41.0946C5.00581 40.7492 4.66542 40.2275 4.55263 39.6263C4.43933 39.0251 4.56774 38.4158 4.91266 37.9107C5.62617 36.8679 7.0542 36.6 8.09652 37.313C8.45101 37.5552 8.86189 37.7803 9.31205 37.9847L7.63477 42.2512ZM15.3782 43.8469C13.4008 43.8469 11.3232 43.5111 9.4475 42.9249L11.1313 38.6419C12.8011 39.1167 14.6797 39.3483 16.2719 39.2411V43.8227C15.9764 43.8389 15.6778 43.8469 15.3782 43.8469ZM16.4376 55.1991C15.3706 55.1991 14.2608 54.967 13.1394 54.5093C12.7341 54.3436 12.4179 54.0304 12.2482 53.6266C12.0785 53.2228 12.0765 52.7771 12.2416 52.3718C12.4073 51.9664 12.721 51.6497 13.1243 51.4805C13.5277 51.3108 13.9733 51.3088 14.3791 51.474C14.9265 51.698 15.5544 51.9045 16.2719 51.9277V52.754C16.2719 53.6704 16.6028 54.5113 17.1501 55.1639C16.9134 55.1871 16.6758 55.1991 16.4376 55.1991ZM28.8674 54.2827C28.8674 54.4443 28.7355 54.5763 28.5733 54.5763H20.0283C19.0232 54.5763 18.2055 53.7585 18.2055 52.7535V44.709C18.2055 44.708 18.2055 44.7075 18.2055 44.7065V40.2396C21.2454 41.9964 24.5249 43.1974 27.9701 43.8152C27.9696 43.8399 27.9681 43.8645 27.9681 43.8897C27.9681 44.9904 28.2999 46.0146 28.8674 46.8691V54.2827ZM28.3427 41.9179C25.044 41.3297 21.9065 40.1726 19.0056 38.4697C18.0902 37.9324 17.5977 36.9203 17.6818 35.9097C21.049 37.7929 25.4564 38.8961 30.7541 39.165C29.663 39.7718 28.8039 40.7451 28.3427 41.9179ZM35.9405 53.6553C34.2487 53.9181 32.4928 53.9181 30.801 53.6553V48.6406C31.5653 49.056 32.441 49.2922 33.3705 49.2922C34.3 49.2922 35.1757 49.056 35.9405 48.6406V53.6553ZM33.3705 47.3586C31.4581 47.3586 29.9016 45.8021 29.9016 43.8897C29.9016 41.9768 31.4581 40.4209 33.3705 40.4209C35.2834 40.4209 36.8399 41.9768 36.8399 43.8897C36.8399 45.8021 35.2834 47.3586 33.3705 47.3586ZM41.7055 61.9511C41.6099 63.1963 40.5101 64.1545 39.2458 64.0589C38.636 64.012 38.0806 63.73 37.6828 63.2658C37.2845 62.801 37.0911 62.2094 37.138 61.5991C37.3036 59.4485 37.3348 57.7717 37.3107 56.3381C37.575 56.4484 37.8646 56.5098 38.1677 56.5098H41.8944C41.916 58.2823 41.8561 59.9978 41.7055 61.9511ZM48.536 52.754C48.536 53.7585 47.7183 54.5763 46.7132 54.5763H38.1677C38.0061 54.5763 37.8741 54.4443 37.8741 54.2827V46.8696C38.4416 46.0146 38.7734 44.9904 38.7734 43.8897C38.7734 43.8645 38.7719 43.8404 38.7714 43.8152C42.2166 43.1974 45.4962 41.9964 48.536 40.2396V52.754ZM47.7359 38.4697C44.8355 40.1726 41.6975 41.3297 38.3988 41.9179C37.9376 40.7451 37.078 39.7713 35.9869 39.165C41.2952 38.8972 45.6986 37.7979 49.0602 35.9172C49.1413 36.9253 48.6493 37.9339 47.7359 38.4697ZM50.4696 43.1535V38.5487C51.9344 38.3231 53.5517 37.7279 54.872 36.8669L58.4758 39.8488C56.3066 41.6077 53.3911 42.8555 50.4696 43.1535ZM61.4477 36.1529C61.0826 36.9802 60.5504 37.7733 59.8907 38.5099L56.3826 35.6076C56.7522 35.2022 57.0523 34.7661 57.2557 34.3039C57.7658 33.1483 59.1203 32.6231 60.2764 33.1327C60.8359 33.3799 61.2664 33.8301 61.4875 34.4001C61.7085 34.9706 61.6944 35.593 61.4477 36.1529ZM42.7594 18.4249V20.0694C42.7594 20.6037 43.192 21.0362 43.7262 21.0362C44.26 21.0362 44.693 20.6037 44.693 20.0694V18.4249C44.693 17.8906 44.26 17.4581 43.7262 17.4581C43.192 17.4581 42.7594 17.8906 42.7594 18.4249Z" fill="black"/>
</svg>
