<svg width="337" height="323" viewBox="0 0 337 323" fill="none" xmlns="http://www.w3.org/2000/svg">
<path d="M44.5 318V141.629C44.5 140.585 44.9084 139.582 45.638 138.834L165.638 15.9313C167.207 14.3238 169.793 14.3238 171.362 15.9313L291.362 138.834C292.092 139.582 292.5 140.585 292.5 141.629V318C292.5 320.209 290.709 322 288.5 322H48.5C46.2909 322 44.5 320.209 44.5 318Z" fill="#F6E06A" stroke="url(#paint0_linear_398_13575)" stroke-width="2"/>
<path fill-rule="evenodd" clip-rule="evenodd" d="M172.755 4.78043C170.409 2.42052 166.591 2.42052 164.245 4.78043L10.1697 159.77C6.40713 163.555 9.08799 170 14.4249 170H15.9782C17.1971 170 18.212 169.095 19.0595 168.219L165.854 16.4622C167.422 14.8407 170.021 14.8363 171.595 16.4524L319.387 168.209C320.243 169.088 321.264 170 322.491 170H322.575C327.912 170 330.593 163.555 326.83 159.77L172.755 4.78043Z" fill="#DD2D46"/>
<mask id="path-3-inside-1_398_13575" fill="white">
<path fill-rule="evenodd" clip-rule="evenodd" d="M172.774 3.33718C170.424 0.952225 166.576 0.952223 164.226 3.33718L10.062 159.789C6.32505 163.581 9.01159 170 14.3357 170H17.4631C18.6402 170 19.6241 169.139 20.4391 168.29L165.619 17.0019C167.192 15.3634 169.811 15.361 171.387 16.9966L316.047 167.186C317.779 168.984 320.168 170 322.664 170C327.989 170 330.675 163.581 326.938 159.789L172.774 3.33718Z"/>
</mask>
<path d="M164.226 3.33718L165.651 4.74094V4.74094L164.226 3.33718ZM172.774 3.33718L171.349 4.74094V4.74094L172.774 3.33718ZM10.062 159.789L11.4866 161.192H11.4866L10.062 159.789ZM165.619 17.0019L167.063 18.3867L167.063 18.3867L165.619 17.0019ZM171.387 16.9966L169.946 18.384V18.384L171.387 16.9966ZM326.938 159.789L325.514 161.192L326.938 159.789ZM316.047 167.186L317.488 165.799L316.047 167.186ZM165.651 4.74094C167.218 3.15097 169.782 3.15097 171.349 4.74094L174.198 1.93341C171.065 -1.24652 165.935 -1.24652 162.802 1.93341L165.651 4.74094ZM11.4866 161.192L165.651 4.74094L162.802 1.93341L8.63738 158.385L11.4866 161.192ZM14.3357 168C10.7863 168 8.99528 163.721 11.4866 161.192L8.63738 158.385C3.65481 163.441 7.23688 172 14.3357 172V168ZM17.4631 168H14.3357V172H17.4631V168ZM21.8821 169.675L167.063 18.3867L164.176 15.6171L18.9961 166.905L21.8821 169.675ZM167.063 18.3867C167.849 17.5675 169.158 17.5662 169.946 18.384L172.827 15.6091C170.464 13.1558 166.535 13.1594 164.176 15.6171L167.063 18.3867ZM169.946 18.384L314.607 168.574L317.488 165.799L172.827 15.6091L169.946 18.384ZM325.514 161.192C328.005 163.721 326.214 168 322.664 168V172C329.763 172 333.345 163.441 328.363 158.385L325.514 161.192ZM171.349 4.74094L325.514 161.192L328.363 158.385L174.198 1.93341L171.349 4.74094ZM314.607 168.574C316.716 170.763 319.625 172 322.664 172V168C320.712 168 318.843 167.205 317.488 165.799L314.607 168.574ZM17.4631 172C19.5819 172 21.105 170.485 21.8821 169.675L18.9961 166.905C18.6189 167.298 18.2964 167.592 17.998 167.786C17.7105 167.973 17.5463 168 17.4631 168V172Z" fill="#333333" mask="url(#path-3-inside-1_398_13575)"/>
<path fill-rule="evenodd" clip-rule="evenodd" d="M193.44 99.3154C191.753 100.225 191.213 104.309 192.541 106.12C193.702 107.704 195.665 108.347 197.595 107.777C198.801 107.421 199.548 106.816 199.998 105.833C200.758 104.173 200.033 102.296 197.962 100.558C196.26 99.1289 194.622 98.6788 193.44 99.3154ZM205.481 95.7655C204.959 96.0877 204.28 97.2654 204.081 98.1945C203.662 100.149 204.132 102.156 205.249 103.187C207.388 105.159 211.098 104.615 212.182 102.17C212.899 100.554 212.097 98.5862 210.045 96.9289C208.241 95.4709 206.626 95.0593 205.481 95.7655ZM188.319 108.781C187.796 109.11 187.118 110.289 186.92 111.213C186.501 113.167 186.969 115.159 188.092 116.205C190.312 118.271 194.218 117.555 195.147 114.911C195.412 114.155 195.363 113.512 194.968 112.561C194.575 111.617 193.968 110.844 192.948 109.988C191.211 108.53 189.446 108.07 188.319 108.781ZM216.454 100.48C215.894 100.824 215.112 102.357 214.985 103.359C214.748 105.225 215.229 106.945 216.246 107.872C218.454 109.884 222.152 109.31 223.223 106.79C223.887 105.227 223.05 103.247 221.036 101.617C219.229 100.154 217.63 99.7574 216.454 100.48ZM204.31 109.958C200.958 111.438 199.063 114.454 199.211 118.072C199.274 119.611 199.064 120.429 198.288 121.677C197.226 123.385 197.041 123.811 196.94 124.771C196.859 125.54 196.901 125.786 197.248 126.601C197.581 127.384 197.757 127.635 198.286 128.087C199.601 129.21 201.18 129.736 203.249 129.739C204.22 129.74 204.676 129.669 205.769 129.346C207.449 128.848 208.064 128.51 209.362 127.368C211.227 125.729 212.56 125.336 215.337 125.609C217.227 125.794 217.987 125.736 219.52 125.288C221.544 124.697 223.126 123.568 223.904 122.158C225.296 119.638 224.188 117.134 221.16 115.959C217.783 114.647 217.618 114.55 216.218 113.047C215 111.74 213.781 110.885 212.163 110.202C210.672 109.574 208.935 109.248 207.416 109.313C206.542 109.351 204.925 109.686 204.31 109.958Z" fill="#DDAF89" fill-opacity="0.3"/>
<path fill-rule="evenodd" clip-rule="evenodd" d="M115.221 123.803C116.374 124.334 116.854 127.028 116.019 128.29C115.289 129.394 113.996 129.907 112.689 129.611C111.873 129.426 111.356 129.057 111.027 128.422C110.471 127.351 110.901 126.071 112.234 124.826C113.331 123.801 114.413 123.431 115.221 123.803ZM107.07 121.964C107.428 122.156 107.916 122.909 108.076 123.519C108.413 124.801 108.157 126.156 107.44 126.89C106.068 128.294 103.573 128.094 102.778 126.514C102.252 125.47 102.73 124.127 104.053 122.936C105.217 121.888 106.284 121.544 107.07 121.964ZM118.919 129.876C119.277 130.073 119.765 130.827 119.924 131.434C120.261 132.715 120.006 134.06 119.285 134.804C117.862 136.275 115.23 135.968 114.533 134.25C114.333 133.758 114.348 133.329 114.584 132.679C114.819 132.034 115.202 131.494 115.86 130.88C116.978 129.835 118.144 129.453 118.919 129.876ZM99.8732 125.575C100.257 125.78 100.825 126.766 100.939 127.426C101.151 128.657 100.88 129.823 100.227 130.483C98.8094 131.917 96.3211 131.696 95.5323 130.066C95.0433 129.055 95.5451 127.702 96.8435 126.53C98.0088 125.479 99.0658 125.146 99.8732 125.575ZM108.265 131.353C110.548 132.192 111.902 134.116 111.908 136.529C111.911 137.555 112.075 138.09 112.63 138.887C113.389 139.977 113.526 140.252 113.621 140.886C113.697 141.394 113.676 141.559 113.468 142.116C113.268 142.652 113.158 142.826 112.817 143.15C111.971 143.954 110.931 144.372 109.548 144.464C108.899 144.507 108.592 144.479 107.852 144.311C106.715 144.054 106.295 143.855 105.394 143.152C104.1 142.143 103.197 141.939 101.35 142.241C100.091 142.446 99.5822 142.441 98.5443 142.209C97.1742 141.903 96.0847 141.221 95.5234 140.317C94.5198 138.701 95.1876 136.988 97.1771 136.075C99.3963 135.056 99.5037 134.984 100.396 133.924C101.172 133.002 101.962 132.38 103.024 131.856C104.002 131.373 105.153 131.081 106.17 131.059C106.756 131.046 107.846 131.199 108.265 131.353Z" fill="#DDAF89" fill-opacity="0.3"/>
<path fill-rule="evenodd" clip-rule="evenodd" d="M145.695 65.6775C143.304 66.2738 140.936 67.4706 139.428 68.8453C137.364 70.7273 136.043 73.5434 136.002 76.1501C135.989 76.9755 136.234 78.3595 136.52 79.0693C136.886 79.9784 137.148 80.3471 137.732 80.7766C138.978 81.6927 140.525 81.6605 141.758 80.6929C142.312 80.2578 142.654 79.6669 142.954 78.6304C143.1 78.1253 143.254 77.649 143.296 77.5721C143.581 77.0507 144.457 76.7518 145.004 76.989C145.467 77.1896 145.683 77.4751 146.14 78.4967C146.376 79.0243 146.661 79.5847 146.772 79.7422C147.105 80.2137 147.576 80.5363 148.179 80.7063C148.687 80.8495 148.8 80.8525 149.432 80.7393C150.261 80.5907 150.662 80.3447 151.118 79.7048C151.487 79.1883 151.587 78.8012 151.678 77.5491C151.758 76.445 151.812 76.1993 152.044 75.9066C152.288 75.5973 152.508 75.4657 152.894 75.3973C153.587 75.2746 153.986 75.5227 154.718 76.5336C155.552 77.686 156.292 78.1599 157.396 78.2487C158.871 78.3675 160.337 77.3644 160.75 75.9534C161.002 75.095 160.996 74.3654 160.728 73.1409C160.184 70.661 158.819 68.6824 156.652 67.2331C154.548 65.8253 151.857 65.137 148.915 65.2536C148.059 65.2876 146.364 65.5107 145.695 65.6775ZM130.878 85.6927C130.533 85.8313 130.219 86.2517 130.183 86.6226C130.14 87.0595 130.596 89.2023 130.918 90.0752C132.763 95.0827 138.326 97.8945 143.556 96.4626C146.872 95.5548 149.535 93.1677 150.729 90.0341C150.829 89.7699 150.93 89.5506 150.952 89.5466C150.975 89.5426 151.145 89.714 151.33 89.9276C154.618 93.7199 160.288 94.6556 164.668 92.1288C167.908 90.2596 169.931 86.8319 169.948 83.1816C169.95 82.7976 169.869 81.9021 169.769 81.1916C169.557 79.6956 169.455 79.4452 168.95 79.1734C168.686 79.0313 168.555 79.0125 168.231 79.0699C167.907 79.1272 167.791 79.1899 167.592 79.4138C167.243 79.8057 167.226 80.0644 167.46 81.4164C167.68 82.6848 167.705 83.4684 167.557 84.3959C167.095 87.2827 165.072 89.722 162.265 90.7759C161.497 91.0644 160.111 91.3076 159.278 91.3002C156.362 91.2745 153.679 89.7325 152.215 87.2416C151.684 86.3373 151.451 85.6338 151.184 84.127L150.946 82.7806L150.666 82.8836C150.513 82.9403 150.127 83.0326 149.809 83.0888C149.492 83.145 149.098 83.1906 148.934 83.1902L148.636 83.1894L148.875 84.5358C149.141 86.0426 149.164 86.7833 148.975 87.8151C148.086 92.6768 143.078 95.6761 138.305 94.2061C136.315 93.5935 134.592 92.206 133.589 90.4087C133.131 89.5885 132.886 88.8438 132.657 87.577C132.529 86.8675 132.389 86.3003 132.306 86.1555C132.051 85.7077 131.381 85.4906 130.878 85.6927Z" fill="#DDAF89" fill-opacity="0.3"/>
<path fill-rule="evenodd" clip-rule="evenodd" d="M70.6121 188.686C68.7367 189.08 67.0613 192.845 67.8211 194.957C68.4858 196.805 70.1864 197.978 72.1991 197.978C73.4558 197.978 74.3441 197.61 75.0543 196.795C76.2529 195.418 76.0901 193.413 74.5968 191.16C73.3688 189.306 71.9254 188.411 70.6121 188.686ZM83.1657 188.694C82.5737 188.855 81.5888 189.792 81.1345 190.627C80.1787 192.383 80.0603 194.44 80.8402 195.745C82.3324 198.243 86.044 198.773 87.7763 196.735C88.922 195.388 88.7105 193.274 87.213 191.103C85.8957 189.194 84.4635 188.341 83.1657 188.694ZM63.0181 196.312C62.4233 196.48 61.4396 197.418 60.9874 198.249C60.0323 200.004 59.9165 202.046 60.6974 203.368C62.24 205.979 66.1895 206.399 67.829 204.126C68.2982 203.476 68.4334 202.846 68.3235 201.822C68.2144 200.805 67.8516 199.892 67.1156 198.782C65.8633 196.892 64.3006 195.95 63.0181 196.312ZM92.3524 196.325C91.7184 196.496 90.5333 197.745 90.1275 198.669C89.3715 200.391 89.3451 202.178 90.0582 203.355C91.6058 205.91 95.315 206.408 97.056 204.294C98.1354 202.983 97.8939 200.848 96.4248 198.714C95.1064 196.799 93.6855 195.965 92.3524 196.325ZM78.0202 201.972C74.3866 202.442 71.7147 204.797 70.8311 208.31C70.4554 209.803 70.0225 210.528 68.9247 211.505C67.4221 212.843 67.1234 213.198 66.7551 214.09C66.4598 214.805 66.4299 215.052 66.5319 215.933C66.6297 216.778 66.7267 217.068 67.1061 217.651C68.0488 219.101 69.4141 220.053 71.3975 220.642C72.3288 220.919 72.7862 220.98 73.9262 220.979C75.678 220.978 76.3629 220.828 77.9319 220.101C80.1847 219.057 81.5749 219.059 84.16 220.107C85.9208 220.821 86.6654 220.98 88.2629 220.985C90.3719 220.991 92.208 220.357 93.3541 219.226C95.4034 217.203 95.0503 214.488 92.4798 212.503C89.6124 210.288 89.4817 210.148 88.5647 208.31C87.7677 206.712 86.8408 205.546 85.482 204.433C84.2304 203.407 82.6569 202.603 81.1818 202.235C80.3328 202.023 78.6869 201.886 78.0202 201.972Z" fill="#DDAF89" fill-opacity="0.3"/>
<path fill-rule="evenodd" clip-rule="evenodd" d="M264.15 152.806C265.313 153.319 265.836 156.004 265.022 157.28C264.31 158.395 263.025 158.929 261.713 158.654C260.895 158.483 260.372 158.122 260.032 157.493C259.459 156.431 259.868 155.144 261.181 153.877C262.261 152.835 263.336 152.447 264.15 152.806ZM255.971 151.099C256.332 151.285 256.832 152.031 257.002 152.638C257.36 153.914 257.126 155.273 256.421 156.019C255.072 157.445 252.574 157.285 251.753 155.719C251.21 154.683 251.667 153.333 252.97 152.12C254.117 151.053 255.178 150.692 255.971 151.099ZM267.946 158.819C268.308 159.009 268.808 159.756 268.977 160.36C269.334 161.635 269.101 162.984 268.393 163.74C266.994 165.234 264.357 164.97 263.632 163.263C263.425 162.775 263.432 162.345 263.658 161.692C263.883 161.043 264.257 160.497 264.904 159.872C266.005 158.809 267.165 158.408 267.946 158.819ZM248.834 154.827C249.221 155.025 249.804 156.002 249.929 156.661C250.162 157.888 249.909 159.058 249.267 159.729C247.873 161.185 245.381 161.004 244.566 159.387C244.061 158.385 244.541 157.024 245.82 155.831C246.968 154.761 248.019 154.411 248.834 154.827ZM257.318 160.468C259.614 161.27 260.999 163.171 261.045 165.584C261.064 166.61 261.237 167.142 261.804 167.93C262.581 169.007 262.722 169.28 262.828 169.912C262.912 170.419 262.894 170.585 262.695 171.146C262.503 171.684 262.396 171.86 262.061 172.189C261.228 173.007 260.195 173.442 258.814 173.556C258.165 173.61 257.858 173.587 257.116 173.431C255.974 173.192 255.551 173.001 254.639 172.312C253.329 171.324 252.423 171.135 250.58 171.466C249.325 171.692 248.816 171.695 247.775 171.48C246.4 171.197 245.299 170.532 244.723 169.638C243.694 168.038 244.334 166.314 246.308 165.369C248.511 164.315 248.617 164.241 249.492 163.166C250.252 162.232 251.032 161.597 252.085 161.056C253.056 160.557 254.202 160.247 255.219 160.208C255.804 160.185 256.897 160.32 257.318 160.468Z" fill="#DDAF89" fill-opacity="0.3"/>
<path fill-rule="evenodd" clip-rule="evenodd" d="M249.32 214.571C247.305 214.862 245.381 216.123 244.487 217.739C244.053 218.524 243.742 219.539 243.742 220.173V220.605L243.067 220.66C241.208 220.813 239.593 221.572 238.41 222.849C235.252 226.258 237.099 231.432 241.867 232.533C242.712 232.728 244.218 232.73 245.017 232.537C245.676 232.378 246.631 232.004 247.019 231.754L247.275 231.589L255.992 239.496L264.709 247.404L264.429 247.849C264.275 248.094 264.034 248.592 263.893 248.957C263.66 249.564 263.638 249.721 263.64 250.783C263.642 251.83 263.667 252.009 263.894 252.608C264.258 253.567 264.797 254.343 265.599 255.066C266.157 255.568 266.48 255.778 267.162 256.082C268.316 256.596 268.993 256.746 270.171 256.747C271.556 256.75 272.597 256.475 273.785 255.795C275.471 254.829 276.756 252.79 276.756 251.081V250.682L277.415 250.626C280.338 250.38 282.71 248.565 283.39 246.054C283.576 245.367 283.597 244.109 283.435 243.408C282.983 241.459 281.39 239.776 279.304 239.045C277.504 238.415 275.513 238.546 273.78 239.41L273.216 239.691L264.508 231.791L255.8 223.892L256.119 223.359C256.697 222.396 256.866 221.736 256.859 220.462C256.854 219.48 256.823 219.26 256.61 218.678C256.262 217.727 255.782 217.033 254.943 216.265C253.783 215.204 252.295 214.61 250.601 214.533C250.173 214.514 249.597 214.531 249.32 214.571Z" fill="#DDAF89" fill-opacity="0.3"/>
<defs>
<linearGradient id="paint0_linear_398_13575" x1="168.5" y1="20" x2="168.5" y2="322" gradientUnits="userSpaceOnUse">
<stop offset="0.382712" stop-color="#333333" stop-opacity="0"/>
<stop offset="0.382712" stop-color="#333333"/>
</linearGradient>
</defs>
</svg>
