<svg width="170" height="170" viewBox="0 0 170 170" fill="none" xmlns="http://www.w3.org/2000/svg">
<g clip-path="url(#clip0_223_13765)">
<path d="M56.6914 145.232C56.218 145.232 55.7394 145.221 55.2504 145.203C52.1 145.081 49.6461 142.429 49.768 139.28C49.8899 136.129 52.5501 133.681 55.6914 133.797C61.4734 134.023 66.3462 133.158 71.9765 120.146C73.2294 117.253 76.5886 115.923 79.4822 117.175C82.3745 118.427 83.7052 121.786 82.4524 124.679C76.1801 139.176 68.6471 145.232 56.6914 145.232Z" fill="#495059"/>
<path d="M90.4957 158.301C87.7837 158.301 85.1923 156.747 83.9964 154.117C80.0134 145.358 77.8461 138.525 76.5154 130.535C75.8669 126.649 78.4933 122.973 82.3791 122.326C86.2636 121.677 89.9419 124.304 90.5891 128.19C91.7162 134.953 93.5099 140.567 96.9846 148.211C98.6162 151.799 97.03 156.028 93.4438 157.659C92.4866 158.094 91.4827 158.301 90.4957 158.301Z" fill="#DDAF89"/>
<path d="M121.02 147.187C117.897 147.187 115.029 145.12 114.151 141.964C111.899 133.873 109.665 128.421 106.181 122.516C104.18 119.123 105.307 114.748 108.7 112.745C112.094 110.744 116.467 111.871 118.47 115.264C122.587 122.241 125.318 128.868 127.898 138.138C128.954 141.934 126.733 145.868 122.937 146.924C122.297 147.103 121.653 147.187 121.02 147.187Z" fill="#DDAF89"/>
<path d="M49.4842 123.483C43.0083 123.483 36.9773 121.328 32.657 118.175C29.4741 115.854 28.7751 111.391 31.098 108.208C33.4196 105.025 37.8813 104.327 41.0654 106.649C44.4155 109.092 51.7189 111.026 58.1092 106.338C61.2843 104.006 65.7498 104.692 68.0806 107.868C70.4125 111.044 69.7264 115.51 66.5501 117.841C61.0794 121.855 55.1132 123.483 49.4842 123.483Z" fill="#DDAF89"/>
<path d="M114.566 99.4313C111.734 98.7452 109.499 96.3522 109.158 93.2874C108.721 89.3718 111.541 85.844 115.456 85.4069C124.929 84.3485 129.68 76.5614 130.91 74.2008C132.731 70.7054 137.043 69.3501 140.534 71.1697C144.028 72.9894 145.384 77.2981 143.565 80.7922C138.081 91.3186 128.164 98.3444 117.039 99.587C116.188 99.6816 115.354 99.622 114.566 99.4313Z" fill="#DDAF89"/>
<path d="M126.409 88.4142C125.649 86.3234 124.686 84.3351 123.539 82.4648C121.36 83.9058 118.683 85.0472 115.456 85.4077C111.541 85.8448 108.721 89.3727 109.158 93.2883C109.499 96.3531 111.734 98.746 114.566 99.4322C115.354 99.6228 116.188 99.6825 117.039 99.5878C120.961 99.1494 124.73 97.9899 128.21 96.2156C127.935 93.5957 127.343 90.9809 126.409 88.4142Z" fill="#D1A582"/>
<path d="M122.471 89.8504C116.531 73.5264 97.0825 65.6199 79.0334 72.1892C60.9844 78.7585 51.1675 97.316 57.1077 113.639C63.0493 129.961 82.4964 137.868 100.547 131.3C118.596 124.731 128.411 106.173 122.471 89.8504Z" fill="#DDAF89"/>
<path d="M112.402 72.0225C106.811 81.5839 97.9795 89.3244 86.7592 93.4086C75.5376 97.4929 63.7971 97.24 53.368 93.5085C52.4679 96.3347 51.9218 99.2529 51.7766 102.201C51.5768 106.216 54.3991 109.761 58.3536 110.488C69.2406 112.489 80.7878 111.707 91.9407 107.647C103.095 103.587 112.442 96.764 119.497 88.2336C122.058 85.1338 121.943 80.606 119.209 77.6566C117.201 75.4932 114.908 73.6087 112.402 72.0225Z" fill="#7F9AE6"/>
<path d="M70.9838 96.3768C64.9229 96.5065 58.9567 95.5078 53.368 93.5078C52.4679 96.334 51.9218 99.2522 51.7766 102.2C51.5768 106.216 54.3991 109.76 58.3536 110.487C64.015 111.527 69.8541 111.807 75.7243 111.274C72.3236 108.046 70.727 101.925 70.9838 96.3768Z" fill="#5E78BF"/>
<path d="M56.802 49.6071C55.4609 50.0948 53.9603 50.1791 52.483 49.7563L42.2471 46.8212C37.7647 45.5371 33.0605 47.4904 30.8089 51.5747L27.1916 58.1323C25.3239 61.5187 21.0646 62.7496 17.6781 60.8819C14.2929 59.0142 13.0608 54.7549 14.9285 51.3684L18.5445 44.8108C21.1528 40.0833 25.3356 36.3375 30.3225 34.2649C35.3108 32.1936 40.9151 31.8707 46.1057 33.3596L56.3429 36.2934C60.0601 37.3596 62.2092 41.2363 61.1444 44.9548C60.5023 47.1947 58.837 48.8665 56.802 49.6071Z" fill="#495059"/>
<path d="M81.5512 40.5996C79.5162 41.3402 77.1661 41.1288 75.2336 39.8253C72.0287 37.6632 71.183 33.3105 73.3451 30.1043L79.3009 21.277C82.3216 16.7998 86.8235 13.4444 91.9739 11.8258C97.1256 10.2071 102.738 10.3874 107.775 12.3342L114.761 15.0332C118.368 16.4275 120.163 20.4806 118.769 24.0889C117.376 27.6958 113.321 29.4909 109.713 28.0966L102.727 25.3975C98.3772 23.7179 93.5186 25.2432 90.9104 29.1096L84.9545 37.9382C84.0959 39.2106 82.891 40.112 81.5512 40.5996Z" fill="#495059"/>
<path d="M88.1456 97.2194C121.55 85.0614 131.033 64.2809 118.493 44.4446C105.017 23.1285 84.501 16.2414 61.6934 24.5422C38.887 32.8443 27.5966 51.307 30.9753 76.2989C34.1192 99.554 54.7414 109.377 88.1456 97.2194Z" fill="#DDAF89"/>
<path d="M102.075 108.798C102.075 114.164 97.7247 118.513 92.359 118.513C86.9947 118.513 82.6445 114.164 82.6445 108.798C82.6445 103.433 86.9947 99.084 92.359 99.084C97.7247 99.084 102.075 103.433 102.075 108.798Z" fill="#F6E06A"/>
<path d="M57.847 69.2025C56.2738 64.8809 50.5994 62.9782 45.1715 64.9535C39.7436 66.9288 36.6191 72.0338 38.1923 76.3554C39.7656 80.6783 45.44 82.581 50.8679 80.6057C56.2958 78.6303 59.4203 73.5253 57.847 69.2025Z" fill="#FFDBDB"/>
<path d="M93.3447 56.2795C94.9167 60.6011 100.592 62.5038 106.02 60.5285C111.447 58.5532 114.573 53.4482 112.999 49.1266C111.426 44.8037 105.75 42.901 100.324 44.8763C94.8959 46.8516 91.7714 51.9566 93.3447 56.2795Z" fill="#FFDBDB"/>
<path d="M78.3953 54.397C74.695 54.742 71.1451 56.0338 68.0881 58.1479C66.8222 59.0234 65.9156 60.3282 65.5382 61.821C65.0272 63.8365 66.4656 65.8222 68.5395 65.9662L74.2916 66.3657C76.005 66.485 77.6885 65.8715 78.9245 64.6796L83.0749 60.6758C84.5703 59.2322 84.3953 56.7861 82.7092 55.5708C81.4601 54.6707 79.9284 54.253 78.3953 54.397Z" fill="#495059"/>
<path d="M89.3862 4.13301C82.8662 1.09285 75.437 2.40801 70.3658 6.87876C65.8704 3.85027 60.0391 2.93718 54.5554 4.93326C49.073 6.92934 45.1924 11.3767 43.6956 16.5855C36.937 16.4208 30.4001 20.1898 27.36 26.7085C24.1162 33.6669 25.8321 41.6616 31.0525 46.7186L99.4211 21.8357C100.168 14.605 96.3433 7.3781 89.3862 4.13301Z" fill="#A2D3EE"/>
<path d="M65.6992 34.109C53.6942 29.9417 49.0017 16.807 48.7578 8.44141C46.335 10.6476 44.5893 13.4789 43.6956 16.5853C36.937 16.4205 30.4001 20.1896 27.36 26.7083C24.1162 33.6667 25.8321 41.6614 31.0525 46.7197L65.6992 34.109Z" fill="#92BFD6"/>
<path d="M101.87 27.3445L32.7166 52.5153C31.0551 53.1197 29.2199 52.2637 28.6142 50.6022L28.168 49.374C27.5623 47.7125 28.4196 45.876 30.0798 45.2716L99.2344 20.1021C100.895 19.4977 102.731 20.3537 103.335 22.0151L103.783 23.2434C104.387 24.9048 103.531 26.7401 101.87 27.3445Z" fill="#7F9AE6"/>
<path d="M139.38 95.5501C136.13 95.5501 133.109 96.5307 130.594 98.209C126.575 95.506 121.736 93.9263 116.527 93.9263C113.088 93.9263 109.81 94.6176 106.822 95.864C102.193 90.4439 95.3135 87.0029 87.6275 87.0029C79.7664 87.0029 72.7458 90.5982 68.1168 96.2324C66.1881 95.7603 64.1739 95.5047 62.1 95.5047C55.58 95.5047 49.6372 97.9781 45.1586 102.036C42.7838 100.615 40.0057 99.7965 37.0368 99.7965C28.2873 99.7965 21.1953 106.89 21.1953 115.639C21.1953 124.388 28.2873 131.481 37.0368 131.481C37.7683 131.481 38.4869 131.428 39.1924 131.332C43.1963 139.977 51.9445 145.979 62.1 145.979C69.9611 145.979 76.9818 142.383 81.6094 136.749C83.5394 137.221 85.5523 137.477 87.6275 137.477C91.0671 137.477 94.3447 136.787 97.3329 135.54C101.962 140.961 108.841 144.402 116.527 144.402C127.657 144.402 137.096 137.194 140.452 127.194C148.701 126.643 155.223 119.782 155.223 111.393C155.223 102.643 148.13 95.5501 139.38 95.5501Z" fill="#A2D3EE"/>
<path d="M152.098 131.753H23.1582L28.0388 156.557C29.2904 162.92 34.8688 167.507 41.3538 167.507H133.904C140.389 167.507 145.967 162.92 147.219 156.557L152.098 131.753Z" fill="#DFE3E5"/>
<path d="M23.1582 131.753L28.0375 156.557C29.2904 162.92 34.8688 167.507 41.3525 167.507H83.68C75.3675 160.506 70.7878 144.225 71.352 131.753H23.1582Z" fill="#CACDCF"/>
<path d="M148.085 152.152L149.077 147.108H26.1787L27.1709 152.152H148.085Z" fill="#BEBFC0"/>
<path d="M156.909 131.753H18.3461C14.4136 131.753 11.2256 128.565 11.2256 124.633V120.35C11.2256 116.418 14.4136 113.229 18.3461 113.229H156.909C160.843 113.229 164.03 116.418 164.03 120.35V124.633C164.03 128.565 160.842 131.753 156.909 131.753Z" fill="#7F9AE6"/>
<path d="M156.633 31.0964C156.633 37.6475 151.323 42.9574 144.772 42.9574C138.222 42.9574 132.911 37.6475 132.911 31.0964C132.911 24.5453 138.222 19.2354 144.772 19.2354C151.323 19.2354 156.633 24.5453 156.633 31.0964Z" fill="#A2D3EE"/>
<path d="M167.509 71.1791C167.509 76.0688 163.544 80.0337 158.653 80.0337C153.764 80.0337 149.799 76.0688 149.799 71.1791C149.799 66.2882 153.764 62.3232 158.653 62.3232C163.544 62.3232 167.509 66.2882 167.509 71.1791Z" fill="#A2D3EE"/>
<path d="M19.3149 88.8742C19.3149 93.5214 15.5484 97.2879 10.9026 97.2879C6.25671 97.2879 2.49023 93.5214 2.49023 88.8742C2.49023 84.2284 6.25671 80.4619 10.9026 80.4619C15.5484 80.4619 19.3149 84.2284 19.3149 88.8742Z" fill="#A2D3EE"/>
<path d="M144.772 45.4481C152.686 45.4481 159.125 39.0098 159.125 31.0969C159.125 23.1839 152.686 16.7456 144.772 16.7456C136.859 16.7456 130.421 23.1839 130.421 31.0969C130.421 39.0098 136.859 45.4481 144.772 45.4481ZM144.772 21.7261C149.941 21.7261 154.144 25.9296 154.144 31.0969C154.144 36.2641 149.941 40.4677 144.772 40.4677C139.605 40.4677 135.401 36.2641 135.401 31.0969C135.401 25.9296 139.605 21.7261 144.772 21.7261ZM158.654 59.8331C152.398 59.8331 147.309 64.9225 147.309 71.1793C147.309 77.4347 152.398 82.5241 158.654 82.5241C164.911 82.5241 170 77.4347 170 71.1793C170 64.9225 164.911 59.8331 158.654 59.8331ZM158.654 77.5436C155.145 77.5436 152.29 74.6889 152.29 71.1793C152.29 67.6696 155.145 64.8136 158.654 64.8136C162.164 64.8136 165.02 67.6696 165.02 71.1793C165.02 74.6889 162.164 77.5436 158.654 77.5436ZM69.3712 74.3569C68.1663 73.6915 66.6514 74.1286 65.986 75.3322C65.322 76.5359 65.7578 78.0508 66.9614 78.7161C69.6656 80.2103 72.6694 80.969 75.685 80.969C77.7615 80.969 79.8431 80.6097 81.8366 79.8847C86.725 78.1039 90.6056 74.2934 92.4798 69.4283C92.9739 68.1456 92.3345 66.7046 91.0518 66.2092C89.7665 65.715 88.3268 66.3544 87.8326 67.6385C86.7795 70.3699 84.8508 72.6397 82.3891 74.1221L79.8522 67.1521C80.1311 66.942 80.4008 66.7176 80.6538 66.4725L84.8042 62.4686C86.0506 61.2663 86.6939 59.5867 86.5694 57.8604C86.4462 56.1341 85.5707 54.5634 84.166 53.5518C82.4294 52.2989 80.2945 51.7178 78.1648 51.9176C74.0469 52.3015 70.0729 53.7489 66.6721 56.1004C64.9108 57.3195 63.6501 59.134 63.1248 61.2105C62.6994 62.8876 63.0379 64.6541 64.0535 66.0561C65.0677 67.4582 66.641 68.3311 68.3673 68.4504L74.1195 68.8499C74.3166 68.8641 74.5138 68.8706 74.7096 68.8706C74.864 68.8706 75.0183 68.8654 75.1727 68.8576L77.7083 75.8251C74.8692 76.2726 71.9328 75.7732 69.3712 74.3569ZM77.196 62.8876C76.4684 63.5892 75.4723 63.9511 74.4645 63.8824L68.7123 63.4816C68.3699 63.4582 68.1728 63.2546 68.0872 63.1353C68.0003 63.016 67.868 62.7656 67.9523 62.4323C68.1818 61.5244 68.7344 60.7307 69.5048 60.1976C72.2051 58.3299 75.3594 57.1821 78.6266 56.8773C79.5604 56.7891 80.4929 57.0433 81.2543 57.5919C81.5318 57.793 81.5915 58.0692 81.6019 58.2158C81.6122 58.3636 81.5928 58.6451 81.3464 58.8837L77.196 62.8876ZM157.698 110.774C157.37 100.951 149.282 93.0596 139.38 93.0596C138.565 93.0596 137.755 93.1167 136.955 93.223C140.509 90.0856 143.527 86.2556 145.772 81.9443C146.96 79.6642 147.19 77.0573 146.417 74.6059C145.645 72.1533 143.964 70.1494 141.684 68.9614C139.405 67.7746 136.799 67.5464 134.348 68.3181C131.894 69.0898 129.889 70.7707 128.701 73.0508C128.147 74.1144 126.377 77.1701 123.232 79.6149C122.874 78.5929 122.355 77.6163 121.676 76.7278C122.78 74.9574 123.695 73.1325 124.414 71.2545C124.907 69.9692 124.265 68.5295 122.981 68.0366C121.696 67.5451 120.256 68.1871 119.765 69.4711C117.08 76.4749 110.814 82.9664 101.609 88.3074C97.4123 85.8522 92.603 84.5124 87.6277 84.5124C79.8133 84.5124 72.4541 87.7653 67.2026 93.4889C65.5178 93.1737 63.8071 93.0142 62.0989 93.0142C56.9537 93.0142 51.9681 94.4344 47.6478 97.0764C39.7141 93.3618 34.8114 86.0921 33.4418 75.9639C32.3821 68.1222 32.8166 60.8863 34.7284 54.4324L101.561 30.1073C107.176 33.8232 112.159 39.0864 116.387 45.775C119.241 50.2859 120.871 54.8306 121.236 59.2819C121.342 60.5841 122.431 61.5698 123.714 61.5698C123.783 61.5698 123.852 61.5672 123.92 61.5607C125.291 61.4492 126.312 60.2469 126.199 58.8759C125.769 53.6153 123.884 48.3119 120.597 43.1135C117.616 38.3964 114.268 34.3199 110.596 30.914C111.14 31.01 111.684 31.058 112.227 31.058C116.036 31.058 119.639 28.748 121.092 24.9854C122.006 22.621 121.944 20.0413 120.918 17.7222C119.892 15.4045 118.024 13.6237 115.658 12.7106L108.673 10.0116C105.347 8.72755 101.742 8.12964 98.158 8.25934C96.197 5.55769 93.5654 3.33464 90.4383 1.87682C83.7873 -1.2256 76.0235 -0.42276 70.1675 3.84825C65.1443 1.1064 59.1184 0.62262 53.7035 2.59406C48.2898 4.56419 43.9851 8.80797 41.8982 14.1373C34.6687 14.6302 28.2045 19.005 25.1034 25.6573C23.6456 28.783 23.058 32.1786 23.2928 35.5079C20.464 37.7115 18.0853 40.4871 16.3642 43.609L12.7482 50.1666C10.2203 54.7502 11.8935 60.5361 16.4758 63.0639C17.9258 63.8629 19.4952 64.2416 21.0438 64.2416C23.8051 64.2416 26.4977 63.0341 28.3277 60.8539C27.7039 65.824 27.7596 71.0988 28.5067 76.6318C29.709 85.5202 33.2861 92.5603 38.9877 97.4123C38.3418 97.3436 37.692 97.306 37.0383 97.306C32.6286 97.306 28.3679 98.8948 25.0385 101.779C22.2941 104.155 20.3317 107.284 19.3732 110.739H18.346C13.0465 110.739 8.73528 115.05 8.73528 120.35V124.632C8.73528 129.932 13.0465 134.243 18.346 134.243H21.1099L25.5949 157.037C26.5651 161.966 29.8465 166.215 34.373 168.402C34.7219 168.571 35.0903 168.651 35.4534 168.651C36.3795 168.651 37.2692 168.132 37.6985 167.243C38.2964 166.005 37.7776 164.516 36.539 163.917C33.4158 162.409 31.1513 159.478 30.482 156.076L26.1864 134.243H149.07L144.775 156.076C143.757 161.257 139.183 165.017 133.903 165.017H46.867C45.4922 165.017 44.3768 166.132 44.3768 167.507C44.3768 168.882 45.4922 169.997 46.867 169.997H133.903C141.557 169.997 148.185 164.546 149.662 157.038L154.147 134.243H156.909C162.209 134.243 166.52 129.932 166.52 124.632V120.351C166.52 115.316 162.629 111.176 157.698 110.774ZM25.0113 56.9292C23.8103 59.1081 21.058 59.9032 18.8804 58.7021C16.7027 57.5011 15.9077 54.7502 17.1087 52.5712L20.726 46.0136C21.726 44.2004 23.0009 42.5312 24.4886 41.0708C25.0009 42.4624 25.6689 43.8022 26.4886 45.0642C25.4873 46.5285 25.176 48.4351 25.8271 50.225L26.2746 51.4545C26.486 52.0343 26.7882 52.5635 27.1591 53.0343L25.0113 56.9292ZM106.878 14.6574L113.863 17.3565C114.988 17.791 115.876 18.6366 116.364 19.7391C116.852 20.8415 116.881 22.0672 116.447 23.1917C115.549 25.512 112.932 26.6702 110.612 25.774L106.461 24.1709C106.443 23.5717 106.334 22.9725 106.123 22.3927L105.675 21.1632C105.157 19.7352 104.111 18.5951 102.734 17.9518C102.446 17.8182 102.15 17.7157 101.852 17.6314C101.669 16.1386 101.319 14.6834 100.818 13.2904C102.896 13.4512 104.945 13.9104 106.878 14.6574ZM29.6169 27.7623C32.1461 22.3395 37.6337 18.9375 43.6349 19.0763C44.7581 19.1113 45.7762 18.3629 46.0888 17.2748C47.4169 12.6523 50.9007 8.91432 55.4077 7.27362C59.9135 5.63292 64.986 6.25807 68.9743 8.94415C69.9146 9.57709 71.1623 9.49667 72.0132 8.74701C76.5034 4.78728 82.9105 3.86122 88.3333 6.39037C93.0764 8.60304 96.3124 13.1594 96.9168 18.2955L30.6947 42.3989C27.8569 38.076 27.4055 32.5054 29.6169 27.7623ZM31.3406 50.1588C31.3277 50.1523 31.316 50.1459 31.303 50.1407C31.1837 50.081 31.0345 49.9682 30.9554 49.7503L30.508 48.522C30.3744 48.1537 30.5637 47.7464 30.9321 47.6115L100.085 22.442C100.172 22.4109 100.254 22.3979 100.329 22.3979C100.45 22.3979 100.554 22.4303 100.628 22.4653C100.749 22.5224 100.912 22.6378 100.995 22.8661L101.442 24.0957C101.521 24.311 101.48 24.4939 101.428 24.6158C101.42 24.63 101.415 24.6443 101.408 24.6573C101.349 24.7766 101.235 24.9258 101.018 25.0049L31.8646 50.1744C31.6467 50.2548 31.4626 50.212 31.3406 50.1588ZM121.416 89.8197C122.516 88.489 123.235 86.9507 123.58 85.3503C129.073 82.266 132.052 77.3984 133.119 75.3517C133.692 74.2518 134.659 73.4412 135.844 73.069C137.028 72.6954 138.285 72.8057 139.383 73.379C140.483 73.9522 141.294 74.9198 141.667 76.1027C142.039 77.2855 141.929 78.5423 141.356 79.6435C138.205 85.6914 133.34 90.6537 127.58 93.7314C125.124 92.6614 122.523 91.9572 119.849 91.6381C120.383 91.0376 120.909 90.4332 121.416 89.8197ZM118.469 81.0909C119.178 82.9171 118.889 85.0584 117.577 86.646C116.137 88.3878 114.566 90.0726 112.911 91.6731C111.076 91.9118 109.275 92.3307 107.521 92.9338C107.031 92.4293 106.518 91.9507 105.994 91.4863C111.094 88.3282 115.262 84.8548 118.469 81.0909ZM37.0383 102.286C39.4521 102.286 41.8178 102.939 43.88 104.174C44.8203 104.736 46.0188 104.617 46.832 103.882C51.02 100.085 56.4427 97.9947 62.1002 97.9947C63.9199 97.9947 65.7461 98.2165 67.5256 98.651C68.4542 98.8792 69.4334 98.5524 70.0417 97.8131C74.3854 92.5252 80.7951 89.4929 87.6277 89.4929C94.2878 89.4929 100.594 92.4046 104.928 97.4811C105.63 98.3021 106.782 98.5783 107.78 98.162C109.853 97.2982 112.018 96.7522 114.242 96.5304C114.263 96.5291 114.282 96.5265 114.303 96.5252C115.038 96.4538 115.78 96.4175 116.527 96.4175C121.068 96.4175 125.452 97.7521 129.206 100.276C130.042 100.839 131.138 100.842 131.979 100.281C134.173 98.8157 136.732 98.0401 139.38 98.0401C146.524 98.0401 152.375 103.679 152.716 110.74H24.6183C26.5988 105.765 31.5079 102.286 37.0383 102.286ZM161.54 124.632C161.54 127.185 159.463 129.263 156.909 129.263H152.086C152.081 129.263 152.076 129.263 152.069 129.263H23.1851C23.1812 129.263 23.1773 129.263 23.1721 129.263H18.346C15.7922 129.263 13.7157 127.185 13.7157 124.632V120.35C13.7157 117.797 15.7922 115.719 18.346 115.719H21.3771H21.381H21.3875H156.909C159.463 115.719 161.54 117.797 161.54 120.35V124.632ZM94.603 49.4727C94.8857 49.4727 95.1736 49.4247 95.4538 49.3223C96.7469 48.8515 97.4123 47.4235 96.9427 46.1304L95.6795 42.6596C95.2087 41.3678 93.7794 40.6998 92.4876 41.1719C91.1958 41.6414 90.5291 43.0707 90.9999 44.3638L92.2619 47.8333C92.6302 48.845 93.5848 49.4727 94.603 49.4727ZM21.8051 88.8742C21.8051 82.8626 16.9141 77.9716 10.9026 77.9716C4.89098 77.9716 0 82.8626 0 88.8742C0 94.8871 4.89098 99.778 10.9026 99.778C16.9141 99.778 21.8051 94.8858 21.8051 88.8742ZM4.98047 88.8742C4.98047 85.6084 7.63802 82.9521 10.9026 82.9521C14.1684 82.9521 16.8246 85.6084 16.8246 88.8742C16.8246 92.14 14.1684 94.7976 10.9026 94.7976C7.63802 94.7976 4.98047 92.14 4.98047 88.8742ZM48.7917 57.0757C47.4999 57.5465 46.8333 58.9758 47.3041 60.2676L48.5674 63.7384C48.9357 64.75 49.8903 65.3778 50.9071 65.3778C51.1912 65.3778 51.4778 65.3285 51.7593 65.226C53.0511 64.7552 53.7177 63.3272 53.2469 62.0341L51.9836 58.5647C51.5128 57.2716 50.0848 56.6049 48.7917 57.0757Z" fill="black"/>
</g>
<defs>
<clipPath id="clip0_223_13765">
<rect width="170" height="170" fill="white"/>
</clipPath>
</defs>
</svg>
