<svg width="25" height="25" viewBox="0 0 25 25" fill="none" xmlns="http://www.w3.org/2000/svg">
<path d="M23.0791 4.60297L21.5277 21.8382C21.3989 23.3052 20.1012 24.3861 18.6342 24.2537L7.91736 23.2905C6.45413 23.1581 5.36959 21.864 5.50189 20.3934L7.05335 3.16182C7.18575 1.69491 8.47987 0.613962 9.94678 0.746355L20.6637 1.70954C22.1269 1.84194 23.2115 3.13606 23.0791 4.60297Z" fill="#9F9F9F"/>
<path d="M18.0055 3.40076V20.7023C18.0055 22.1802 16.807 23.3714 15.3364 23.3714H4.57903C3.10845 23.3714 1.90991 22.1802 1.90991 20.7023V3.40076C1.90991 1.92649 3.10845 0.735321 4.57903 0.735321H15.3364C16.807 0.735321 18.0055 1.92649 18.0055 3.40076Z" fill="#EDEDED"/>
<g clip-path="url(#clip0_1590_11724)">
<path d="M8.44402 17.8711C7.43405 17.8711 6.6124 17.0494 6.6124 16.0395C6.6124 15.9715 6.61605 15.9042 6.62331 15.8376C6.55673 15.8449 6.48941 15.8485 6.42147 15.8485C5.4115 15.8485 4.58984 15.0269 4.58984 14.0169C4.58984 13.0069 5.4115 12.1853 6.42147 12.1853C6.73392 12.1853 7.04261 12.2656 7.31423 12.4175C7.31486 12.4179 7.31551 12.4183 7.31616 12.4186C7.45578 12.498 7.63276 12.4742 7.74641 12.3605L9.82253 10.2864C9.93652 10.1723 9.96043 9.9948 9.88069 9.85459C9.72719 9.5836 9.64622 9.27462 9.64622 8.96053C9.64622 7.95056 10.4679 7.12891 11.4779 7.12891C12.4878 7.12891 13.3095 7.95056 13.3095 8.96053C13.3095 9.02849 13.3058 9.09578 13.2986 9.16237C13.3651 9.15511 13.4324 9.15146 13.5004 9.15146C14.5104 9.15146 15.332 9.97311 15.332 10.9831C15.332 11.9931 14.5104 12.8147 13.5004 12.8147C13.1877 12.8147 12.879 12.7344 12.6075 12.5824C12.4661 12.502 12.2892 12.5258 12.1754 12.6395L10.0993 14.7136C9.98538 14.8276 9.96144 15.0052 10.0412 15.1454C10.1947 15.4164 10.2757 15.7254 10.2757 16.0395C10.2757 17.0494 9.454 17.8711 8.44402 17.8711Z" fill="#9F9F9F"/>
</g>
<path d="M15.6484 21.1576C15.5357 21.0275 15.4827 20.897 15.48 20.784C15.4708 20.3622 15.1916 20.0034 14.819 19.9157C14.4465 19.828 14.0491 20.0275 13.8526 20.401C13.7999 20.5007 13.6942 20.594 13.5351 20.6603C13.3415 20.7412 13.2223 20.9086 13.2238 21.0976C13.2256 21.3249 13.4193 21.5722 13.7458 21.6491C13.8839 21.6816 14.0233 21.6771 14.1488 21.636C14.2323 21.6085 14.3246 21.6052 14.4159 21.6267C14.507 21.6482 14.6005 21.695 14.6639 21.7571C14.7582 21.8503 14.8802 21.9166 15.017 21.9488C15.3433 22.0256 15.6283 21.8919 15.7319 21.6881C15.8176 21.5196 15.7854 21.3163 15.6484 21.1576Z" fill="#9F9F9F"/>
<path d="M13.8856 19.6959C13.9365 19.4798 13.8466 19.0954 13.644 19.0477C13.4414 19 13.1895 19.3039 13.1386 19.52C13.0901 19.7259 13.2183 19.9329 13.4241 19.9814C13.6301 20.0299 13.8371 19.9018 13.8856 19.6959Z" fill="#9F9F9F"/>
<path d="M16.2707 19.6661C16.0681 19.6185 15.8162 19.9223 15.7653 20.1384C15.7169 20.3443 15.845 20.5513 16.0509 20.5998C16.2568 20.6483 16.4638 20.5202 16.5123 20.3143C16.5632 20.0982 16.4733 19.7138 16.2707 19.6661Z" fill="#9F9F9F"/>
<path d="M15.1943 19.2157C15.1458 19.4215 15.2739 19.6286 15.4798 19.6771C15.6857 19.7255 15.8927 19.5974 15.9412 19.3915C15.9921 19.1754 15.9022 18.7911 15.6996 18.7434C15.497 18.6957 15.2452 18.9996 15.1943 19.2157Z" fill="#9F9F9F"/>
<path d="M14.0615 18.949C14.013 19.1548 14.1411 19.3619 14.347 19.4104C14.5529 19.4588 14.7599 19.3307 14.8084 19.1248C14.8593 18.9087 14.7694 18.5244 14.5668 18.4767C14.3642 18.429 14.1123 18.7329 14.0615 18.949Z" fill="#9F9F9F"/>
<path d="M6.40981 4.40029C6.25088 4.33416 6.14521 4.241 6.0924 4.14104C5.89596 3.76772 5.48605 3.57112 5.11347 3.65886C4.74094 3.74657 4.47428 4.10248 4.46509 4.52443C4.46236 4.6371 4.40939 4.76777 4.29667 4.89808C4.15948 5.05684 4.12746 5.25989 4.21313 5.42836C4.31613 5.63094 4.59985 5.76591 4.92636 5.68903C5.06442 5.65652 5.18719 5.59028 5.28123 5.49749C5.34362 5.43562 5.42483 5.39149 5.51604 5.37001C5.6072 5.34855 5.71179 5.34877 5.7962 5.37603C5.92217 5.41737 6.06093 5.42228 6.19772 5.39007C6.52404 5.31323 6.71941 5.06643 6.72127 4.83777C6.72277 4.64878 6.60327 4.4812 6.40981 4.40029Z" fill="#9F9F9F"/>
<path d="M4.17965 3.87871C4.12877 3.66262 3.87685 3.35874 3.67424 3.40645C3.47167 3.45414 3.38181 3.83851 3.43269 4.05459C3.48117 4.26046 3.68822 4.38859 3.89409 4.34011C4.1 4.29162 4.22813 4.08458 4.17965 3.87871Z" fill="#9F9F9F"/>
<path d="M6.30095 2.78795C6.09838 2.83564 6.00852 3.22001 6.0594 3.43609C6.10788 3.64196 6.31492 3.77009 6.52079 3.72161C6.72671 3.67312 6.85484 3.46608 6.80636 3.26021C6.75548 3.04412 6.50356 2.74024 6.30095 2.78795Z" fill="#9F9F9F"/>
<path d="M5.13679 2.86505C5.18527 3.07092 5.39232 3.19904 5.59819 3.15057C5.80406 3.10209 5.93218 2.89504 5.88371 2.68917C5.83282 2.47309 5.58095 2.16919 5.37834 2.2169C5.17573 2.26461 5.08591 2.64896 5.13679 2.86505Z" fill="#9F9F9F"/>
<path d="M4.00398 3.1318C4.05246 3.33767 4.2595 3.4658 4.46537 3.41732C4.67125 3.36885 4.79937 3.1618 4.75089 2.95593C4.70001 2.73984 4.44809 2.43596 4.24553 2.48366C4.04292 2.53137 3.9531 2.91572 4.00398 3.1318Z" fill="#9F9F9F"/>
<defs>
<clipPath id="clip0_1590_11724">
<rect width="10.7422" height="10.7422" fill="white" transform="translate(4.58984 7.12891)"/>
</clipPath>
</defs>
</svg>
