<svg width="48" height="48" viewBox="0 0 48 48" fill="none" xmlns="http://www.w3.org/2000/svg">
<g clip-path="url(#clip0_1628_9912)">
<path d="M8.71853 11.8554C10.7849 11.8554 12.46 10.1803 12.46 8.11391C12.46 6.04755 10.7849 4.37244 8.71853 4.37244C6.65217 4.37244 4.97705 6.04755 4.97705 8.11391C4.97705 10.1803 6.65217 11.8554 8.71853 11.8554Z" fill="#DDAF89"/>
<path d="M47.9664 34.2837C47.8911 34.1274 47.7011 34.035 47.495 34.1342C46.6905 34.5206 45.8132 34.7307 44.9845 34.7765C44.1059 34.806 43.3474 34.6846 42.4963 34.2002C42.4142 33.761 42.2311 33.3423 41.9546 32.9801L37.2782 26.8557C37.2782 26.8557 37.3722 26.1671 37.4742 25.3898C37.1296 25.4449 36.7644 25.4814 36.4418 25.4814C35.5696 25.4814 34.9946 25.2128 34.7324 24.6829C34.2676 23.7435 35.1775 22.7593 35.4765 22.4359C35.7205 22.172 36.0512 21.8622 36.3449 21.6302L36.3255 21.6186C35.9669 21.4043 35.5643 21.2973 35.1616 21.2973C34.7473 21.2973 34.3332 21.4106 33.9676 21.6368L32.9008 21.3956C32.7106 21.3525 32.5062 21.3911 32.342 21.5104C32.1809 21.6272 32.078 21.8079 32.0595 22.0061L31.9774 22.8876C31.9104 23.6068 32.3224 24.2851 32.9918 24.5569C33.28 24.6739 33.5065 24.9059 33.6182 25.1963C33.7298 25.4865 33.7166 25.8101 33.5816 26.0901C33.1655 26.9523 32.5932 28.188 32.1935 29.2486C30.8774 28.1847 31.0849 28.3525 28.9805 26.6513C28.5794 26.3268 27.9907 26.3891 27.6663 26.7906C27.3418 27.1919 27.4042 27.7804 27.8056 28.1049C32.5726 31.9584 35.1826 33.8718 36.8084 35.0913C37.0272 34.5641 37.356 34.0566 37.7923 33.6083C37.9857 33.4095 38.3036 33.4053 38.5021 33.5985C38.7008 33.7919 38.7052 34.1097 38.5117 34.3083C38.0088 34.825 37.7294 35.4435 37.5293 36.0584C37.266 36.867 37.1962 38.7158 37.5246 39.8037L36.6897 42.1113C36.5142 42.5967 36.7652 43.1325 37.2505 43.3081C37.7363 43.4837 38.2717 43.2323 38.4473 42.7472L39.3904 40.1405C41.5365 39.2615 42.3215 37.2277 42.4896 35.968C43.4469 36.174 44.2386 36.1434 45.1559 35.9417C46.095 35.7175 47.0475 35.2998 47.8615 34.7043C47.9908 34.6098 48.0386 34.4334 47.9664 34.2837Z" fill="#DDAF89"/>
<path d="M38.347 22.8949C38.1049 22.4057 37.669 22.1082 37.3553 22.1082C37.292 22.1082 37.2337 22.1203 37.1828 22.1455C36.8804 22.2951 35.2515 23.6943 35.5424 24.2825C35.6515 24.5029 36.0146 24.5781 36.442 24.5781C37.1552 24.5781 38.0473 24.3687 38.2363 24.2751C38.5387 24.1255 38.6379 23.483 38.347 22.8949Z" fill="#DDAF89"/>
<path d="M28.7056 0.757202C23.7914 0.757202 19.7934 4.75518 19.7934 9.66947C19.7934 11.0217 20.0976 12.3038 20.6388 13.453L17.4196 15.2363L12.9687 14.0278C12.5117 13.3983 11.7714 12.9873 10.9339 12.9835L7.41919 12.9677C6.74362 12.9647 6.09496 13.2322 5.61796 13.7106C5.15465 14.1753 4.89159 14.8014 4.88137 15.456L4.88174 15.5984L0.451953 21.0026C0.0759208 21.4742 -0.0405169 22.1041 0.145015 22.6808C0.573922 24.0155 1.82221 27.9008 2.39558 29.6851C2.69849 30.6271 3.71137 31.158 4.66696 30.8507C5.61346 30.5461 6.13865 29.5309 5.83256 28.5794L3.92005 22.6348L8.19994 17.266L5.77246 22.7336L7.48247 28.0485C8.07816 29.8997 7.05937 31.9016 5.19787 32.5005C4.86159 32.6087 4.5133 32.6643 4.16212 32.6691L3.70621 35.5209L0.159546 44.2614C-0.290361 45.37 0.243827 46.6335 1.35242 47.0833C2.46102 47.5331 3.72449 46.999 4.1743 45.8904L7.81378 36.9212C7.87547 36.7693 7.91962 36.6106 7.94559 36.4487L9.11484 29.133L11.0168 36.5334L11.1958 45.121C11.2207 46.3143 12.207 47.2662 13.4068 47.2416C14.6031 47.2167 15.5526 46.2268 15.5275 45.0306L15.3432 36.1921C15.3398 36.0254 15.317 35.8594 15.2754 35.6979L13.3976 28.3915L13.4402 17.8968L17.1803 18.9123C17.6231 19.0326 18.1077 18.9821 18.528 18.7493L22.8329 16.3645C24.4025 17.7429 26.4572 18.5813 28.7053 18.5813C33.6195 18.5813 37.6174 14.5833 37.6174 9.6691C37.6176 4.75518 33.6197 0.757202 28.7056 0.757202ZM28.7056 16.4407C27.1884 16.4407 25.7862 15.9391 24.656 15.0931C24.9896 14.5554 25.0309 13.8584 24.7026 13.2656C24.2699 12.4844 23.3439 12.152 22.5284 12.4377C22.1479 11.5919 21.9342 10.6553 21.9342 9.66928C21.9342 5.93549 24.9717 2.89789 28.7055 2.89789C32.4391 2.89789 35.4768 5.93549 35.4768 9.66928C35.4768 13.4031 32.4392 16.4407 28.7056 16.4407Z" fill="#DDAF89"/>
</g>
<defs>
<clipPath id="clip0_1628_9912">
<rect width="48" height="48" fill="white"/>
</clipPath>
</defs>
</svg>
