<svg width="375" height="250" viewBox="0 0 375 250" fill="none" xmlns="http://www.w3.org/2000/svg">
<path d="M230.59 64.455H310.025C310.025 64.455 303.025 51.675 282.555 53.535C263.025 55.31 262.03 47.245 252.1 46.25C242.17 45.255 233.9 52.87 230.59 64.455Z" fill="#F5F5F5"/>
<path d="M82.2202 70.785H135C135 70.785 130.335 62.285 116.755 63.53C103.785 64.71 103.125 59.355 96.5302 58.695C89.9352 58.035 84.4202 63.09 82.2202 70.785Z" fill="#F5F5F5"/>
<path d="M242.09 181.37L230.115 233.36L235.18 233.35L247.18 181.86L242.09 181.37Z" fill="#E0E0E0"/>
<path d="M263.935 181.37L275.955 233.36H280.765L269.14 181.37H263.935Z" fill="#E0E0E0"/>
<path d="M234.01 142.315L240.825 178.115H248.575L241.29 142.315H234.01Z" fill="#E0E0E0"/>
<path d="M115.255 181.37L105.485 233.36H110.46L120.66 181.37H115.255Z" fill="#E0E0E0"/>
<path d="M135.79 181.37L146.96 233.075H151.87L141.09 181.37H135.79Z" fill="#E0E0E0"/>
<path d="M107.17 142.315L113.99 178.115H121.735L114.455 142.315H107.17Z" fill="#E0E0E0"/>
<path d="M91.8301 139.065L93.2251 145.57H248.805L246.99 139.065H91.8301Z" fill="#EBEBEB"/>
<path d="M94.8052 151.7L96.4452 158.21H250.975L249.57 151.7H94.8052Z" fill="#EBEBEB"/>
<path d="M97.875 164.785L99.405 171.295H253.455L252 164.785H97.875Z" fill="#EBEBEB"/>
<path d="M275.77 178.115H109.65V184.625H275.77V178.115Z" fill="#EBEBEB"/>
<path d="M330.925 128.465H322.29V232.805H330.925V128.465Z" fill="#E0E0E0"/>
<path d="M328.77 24.63H324.45V139.935H328.77V24.63Z" fill="#E0E0E0"/>
<path d="M339.718 31.1957C341.142 23.9586 336.429 16.9376 329.192 15.5138C321.955 14.0901 314.934 18.8026 313.511 26.0397C312.087 33.2767 316.799 40.2977 324.036 41.7215C331.273 43.1453 338.294 38.4327 339.718 31.1957Z" fill="#EBEBEB"/>
<path d="M329.465 43.025H323.54C323.324 43.025 323.117 42.9391 322.964 42.7863C322.811 42.6335 322.725 42.4262 322.725 42.21C322.725 41.9939 322.811 41.7866 322.964 41.6337C323.117 41.4809 323.324 41.395 323.54 41.395H329.465C329.681 41.395 329.889 41.4809 330.041 41.6337C330.194 41.7866 330.28 41.9939 330.28 42.21C330.28 42.4262 330.194 42.6335 330.041 42.7863C329.889 42.9391 329.681 43.025 329.465 43.025Z" fill="#E0E0E0"/>
<path d="M333.125 128.465H320C319.763 128.465 319.535 128.371 319.368 128.203C319.2 128.035 319.105 127.807 319.105 127.57C319.105 127.452 319.127 127.335 319.172 127.226C319.217 127.117 319.283 127.018 319.366 126.934C319.449 126.85 319.548 126.784 319.657 126.739C319.766 126.693 319.883 126.67 320 126.67H333.125C333.243 126.67 333.36 126.693 333.469 126.739C333.578 126.784 333.677 126.85 333.76 126.934C333.843 127.018 333.909 127.117 333.954 127.226C333.998 127.335 334.021 127.452 334.02 127.57C334.02 127.807 333.926 128.035 333.758 128.203C333.591 128.371 333.363 128.465 333.125 128.465Z" fill="#E0E0E0"/>
<path d="M127.695 87.66H171.34C171.34 87.66 167.48 80.66 156.245 81.66C145.515 82.66 144.97 78.205 139.515 77.66C134.06 77.115 129.5 81.295 127.695 87.66Z" fill="#EBEBEB"/>
<path d="M194.13 35.57H254.5C254.5 35.57 249.16 25.855 233.62 27.265C218.78 28.62 218.025 22.5 210.5 21.735C202.975 20.97 196.645 26.765 194.13 35.57Z" fill="#EBEBEB"/>
<path d="M348.33 232.905C348.33 232.98 276.33 233.04 187.51 233.04C98.6899 233.04 26.6699 233 26.6699 232.905C26.6699 232.81 98.6699 232.775 187.51 232.775C276.35 232.775 348.33 232.835 348.33 232.905Z" fill="#263238"/>
<path d="M69.5 153C59.465 150.375 50.695 143.78 45.815 135.175C43.3992 130.908 41.926 126.173 41.4948 121.289C41.0635 116.404 41.6842 111.484 43.315 106.86C45.905 99.66 50.89 93.32 53.025 85.99C55.45 77.67 54.025 68.845 52.525 60.335C51.025 51.825 49.525 43.03 51.775 34.67C54.025 26.31 61.21 18.465 70.42 17.87C78.965 17.32 86.855 23.235 90.42 30.505C93.985 37.775 94.01 46.115 93.18 54.075C92.35 62.035 90.725 69.985 91.23 77.97C92.265 94.135 101.955 109.345 100.815 125.505C100.225 133.915 96.74 139.3 90.775 145.63C85.635 151.08 77.085 154.665 69.5 153Z" fill="#455A64"/>
<path d="M72.5351 233.075C72.4451 233.075 72.3701 197.275 72.3701 153.115C72.3701 108.955 72.4451 73.145 72.5351 73.145C72.6251 73.145 72.6951 108.945 72.6951 153.115C72.6951 197.285 72.6201 233.075 72.5351 233.075Z" fill="#263238"/>
<path d="M72.0703 125.05C71.543 124.659 71.0496 124.224 70.5953 123.75C69.7153 122.92 68.5203 121.75 67.2603 120.4C66.0003 119.05 64.8403 117.865 64.0053 116.995C63.5304 116.548 63.0924 116.063 62.6953 115.545C63.2297 115.937 63.7313 116.372 64.1953 116.845C65.0753 117.68 66.2703 118.845 67.5303 120.2C68.7903 121.555 69.9503 122.735 70.7853 123.605C71.2506 124.053 71.6802 124.536 72.0703 125.05Z" fill="#263238"/>
<path d="M99.7251 226.44H46.2451V232.975H99.7251V226.44Z" fill="#263238"/>
<path d="M73.0352 91.55C74.1904 91.2776 75.2933 90.8182 76.3002 90.19C77.3497 89.5064 78.2426 88.6084 78.9202 87.555C79.7438 86.3059 80.2343 84.867 80.3452 83.375V83.235L80.5302 83.39C79.0171 83.662 77.6349 84.4225 76.5952 85.555C75.745 86.4425 75.0078 87.4317 74.4002 88.5C73.8752 89.405 73.5052 90.16 73.2552 90.69C73.1384 90.9696 73.0014 91.2403 72.8452 91.5C72.9124 91.2058 73.0096 90.9194 73.1352 90.645C73.4463 89.8766 73.8019 89.127 74.2002 88.4C74.7872 87.2978 75.5187 86.2788 76.3752 85.37C77.4503 84.1726 78.8955 83.3699 80.4802 83.09L80.6852 83.06V83.25V83.395C80.5712 84.807 80.1283 86.1727 79.3921 87.383C78.6559 88.5933 77.6467 89.6145 76.4452 90.365C75.6909 90.8387 74.8654 91.1882 74.0002 91.4C73.7648 91.4579 73.526 91.5013 73.2852 91.53C73.2037 91.551 73.1191 91.5578 73.0352 91.55Z" fill="#263238"/>
<path d="M73.0352 91.55C72.9652 91.495 73.9702 90.25 75.2752 88.765C76.5802 87.28 77.6952 86.12 77.7752 86.175C77.8552 86.23 76.8402 87.47 75.5352 88.96C74.2302 90.45 73.1052 91.605 73.0352 91.55Z" fill="#263238"/>
<path d="M80.6099 219.155C75.1449 214.655 74.4199 207.06 75.1799 200.335C75.3099 199.215 75.2749 198.015 75.8899 197.07C76.5049 196.125 77.8049 195.57 78.7749 196.105C79.5799 196.565 79.8699 197.565 80.2749 198.405C80.8166 199.527 81.6641 200.473 82.7199 201.135C83.4049 201.56 84.2749 201.86 85.0099 201.525C86.0099 201.065 86.2449 199.73 86.3249 198.61C86.4749 196.527 86.6266 194.44 86.7799 192.35C86.7993 191.226 87.0019 190.113 87.3799 189.055C87.5718 188.53 87.8866 188.058 88.2981 187.68C88.7096 187.302 89.2057 187.027 89.7449 186.88C90.8349 186.665 92.0999 187.38 92.2449 188.495C92.2507 188.961 92.224 189.427 92.1649 189.89C92.1404 190.122 92.1847 190.356 92.2923 190.563C92.3998 190.771 92.566 190.942 92.7699 191.055C92.9999 191.099 93.2374 191.084 93.4597 191.011C93.682 190.937 93.8818 190.808 94.0399 190.635C95.2412 189.533 96.2546 188.243 97.0399 186.815C97.822 185.386 98.7685 184.054 99.8599 182.845C101.005 181.695 102.535 180.845 104.145 180.87C105.755 180.895 107.385 182.03 107.645 183.635C107.905 185.24 106.88 186.77 105.775 187.97C104.14 189.748 102.258 191.28 100.185 192.52C99.7862 192.701 99.4553 193.004 99.2399 193.385C98.9399 194.115 99.5899 194.91 100.305 195.215C101.12 195.555 102.03 195.54 102.895 195.715C103.76 195.89 104.675 196.35 104.94 197.215C105.31 198.395 104.26 199.515 103.255 200.215C101.246 201.639 99.0062 202.706 96.6349 203.37C95.7688 203.54 94.9404 203.865 94.1899 204.33C93.4799 204.855 92.9999 205.83 93.3399 206.65C93.6799 207.47 94.6899 207.805 95.5649 207.715C96.428 207.54 97.2745 207.29 98.0949 206.97C99.6749 206.51 101.655 206.77 102.535 208.175C102.8 208.657 102.949 209.193 102.972 209.742C102.994 210.291 102.889 210.838 102.665 211.34C102.209 212.336 101.558 213.23 100.75 213.97C98.0822 216.707 94.7344 218.684 91.0499 219.7C87.3849 220.66 84.0499 220.73 80.6099 219.155Z" fill="#FF725E"/>
<path d="M80.6099 219.155C75.1449 214.655 74.4199 207.06 75.1799 200.335C75.3099 199.215 75.2749 198.015 75.8899 197.07C76.5049 196.125 77.8049 195.57 78.7749 196.105C79.5799 196.565 79.8699 197.565 80.2749 198.405C80.8166 199.527 81.6641 200.473 82.7199 201.135C83.4049 201.56 84.2749 201.86 85.0099 201.525C86.0099 201.065 86.2449 199.73 86.3249 198.61C86.4749 196.527 86.6266 194.44 86.7799 192.35C86.7993 191.226 87.0019 190.113 87.3799 189.055C87.5718 188.53 87.8866 188.058 88.2981 187.68C88.7096 187.302 89.2057 187.027 89.7449 186.88C90.8349 186.665 92.0999 187.38 92.2449 188.495C92.2507 188.961 92.224 189.427 92.1649 189.89C92.1404 190.122 92.1847 190.356 92.2923 190.563C92.3998 190.771 92.566 190.942 92.7699 191.055C92.9999 191.099 93.2374 191.084 93.4597 191.011C93.682 190.937 93.8818 190.808 94.0399 190.635C95.2412 189.533 96.2546 188.243 97.0399 186.815C97.822 185.386 98.7685 184.054 99.8599 182.845C101.005 181.695 102.535 180.845 104.145 180.87C105.755 180.895 107.385 182.03 107.645 183.635C107.905 185.24 106.88 186.77 105.775 187.97C104.14 189.748 102.258 191.28 100.185 192.52C99.7862 192.701 99.4553 193.004 99.2399 193.385C98.9399 194.115 99.5899 194.91 100.305 195.215C101.12 195.555 102.03 195.54 102.895 195.715C103.76 195.89 104.675 196.35 104.94 197.215C105.31 198.395 104.26 199.515 103.255 200.215C101.246 201.639 99.0062 202.706 96.6349 203.37C95.7688 203.54 94.9404 203.865 94.1899 204.33C93.4799 204.855 92.9999 205.83 93.3399 206.65C93.6799 207.47 94.6899 207.805 95.5649 207.715C96.428 207.54 97.2745 207.29 98.0949 206.97C99.6749 206.51 101.655 206.77 102.535 208.175C102.8 208.657 102.949 209.193 102.972 209.742C102.994 210.291 102.889 210.838 102.665 211.34C102.209 212.336 101.558 213.23 100.75 213.97C98.0822 216.707 94.7344 218.684 91.0499 219.7C87.3849 220.66 84.0499 220.73 80.6099 219.155Z" fill="#266E5F"/>
<path d="M106.145 181.97L106.025 182.07L105.67 182.34C105.355 182.575 104.895 182.925 104.31 183.39C102.66 184.697 101.111 186.126 99.675 187.665C98.76 188.635 97.8 189.745 96.795 190.95C95.79 192.155 94.725 193.45 93.655 194.865C92.5264 196.328 91.4798 197.852 90.52 199.43C90.02 200.25 89.565 201.115 89.1 202L87.695 204.68C85.8899 208.072 84.2757 211.563 82.86 215.135C81.7162 218.061 80.8491 221.087 80.27 224.175C79.8903 226.257 79.6896 228.368 79.67 230.485C79.67 231.235 79.67 231.82 79.705 232.215C79.705 232.4 79.705 232.55 79.705 232.66V232.815C79.6996 232.765 79.6996 232.715 79.705 232.665C79.705 232.55 79.68 232.405 79.665 232.215C79.63 231.82 79.605 231.24 79.595 230.485C79.5812 228.361 79.762 226.241 80.135 224.15C80.6905 221.048 81.5444 218.007 82.685 215.07C84.093 211.481 85.7057 207.975 87.515 204.57L88.925 201.885C89.39 201.005 89.85 200.135 90.35 199.31C91.3198 197.727 92.3747 196.198 93.51 194.73C94.585 193.325 95.66 192.03 96.67 190.825C97.68 189.62 98.67 188.515 99.575 187.55C101.024 186.013 102.594 184.595 104.27 183.31C104.86 182.855 105.33 182.515 105.65 182.31L106.02 182.055C106.059 182.023 106.101 181.994 106.145 181.97Z" fill="#263238"/>
<path d="M90.4052 199.32C90.3614 199.157 90.3379 198.989 90.3352 198.82C90.3002 198.505 90.2652 198.05 90.2302 197.485C90.1602 196.36 90.1152 194.8 90.0702 193.08C90.0252 191.36 89.9652 189.805 89.8752 188.685C89.8352 188.12 89.7952 187.685 89.7652 187.355C89.7373 187.19 89.7289 187.022 89.7402 186.855C89.7955 187.017 89.8308 187.185 89.8452 187.355C89.9002 187.665 89.9602 188.12 90.0202 188.68C90.1452 189.8 90.2352 191.36 90.2802 193.085C90.3252 194.81 90.3502 196.315 90.3752 197.49C90.3752 198.02 90.4052 198.465 90.4152 198.825C90.4294 198.99 90.4261 199.156 90.4052 199.32Z" fill="#263238"/>
<path d="M105 197.765C104.807 197.78 104.613 197.78 104.42 197.765C104.05 197.765 103.51 197.765 102.845 197.795C101.52 197.835 99.6849 197.955 97.6649 198.17C95.6449 198.385 93.8299 198.67 92.5199 198.91C91.8649 199.025 91.3399 199.135 90.9749 199.205C90.7868 199.255 90.5942 199.287 90.3999 199.3C90.5789 199.224 90.7647 199.165 90.9549 199.125C91.3149 199.03 91.8399 198.9 92.4949 198.765C93.7999 198.49 95.6199 198.185 97.6449 197.965C99.3716 197.77 101.107 197.665 102.845 197.65C103.51 197.65 104.05 197.65 104.425 197.685C104.619 197.693 104.811 197.72 105 197.765Z" fill="#263238"/>
<path d="M82.8802 214.815C82.8444 214.759 82.8158 214.698 82.7952 214.635L82.5902 214.095C82.4152 213.625 82.1752 212.94 81.8952 212.095C81.3302 210.395 80.6252 208.015 79.8952 205.385C79.1652 202.755 78.4702 200.385 77.9402 198.655C77.6802 197.825 77.4702 197.155 77.3102 196.63C77.2402 196.41 77.1852 196.225 77.1402 196.075C77.1183 196.012 77.1032 195.946 77.0952 195.88C77.1302 195.938 77.1587 196 77.1802 196.065C77.2352 196.21 77.3052 196.385 77.3852 196.605C77.5602 197.07 77.8002 197.76 78.0802 198.605C78.6452 200.31 79.3502 202.685 80.0802 205.32C80.8102 207.955 81.5052 210.32 82.0352 212.045C82.2952 212.88 82.5052 213.545 82.6652 214.07L82.8352 214.625C82.8568 214.687 82.8719 214.75 82.8802 214.815Z" fill="#263238"/>
<path d="M102.5 210.16L102.305 210.22L101.735 210.365L99.635 210.865C97.86 211.29 95.42 211.905 92.725 212.59C90.03 213.275 87.575 213.865 85.79 214.255C84.9 214.445 84.18 214.595 83.675 214.69L83.1 214.795C82.965 214.795 82.895 214.825 82.895 214.795L83.09 214.735L83.66 214.59L85.76 214.09C87.535 213.665 89.975 213.05 92.675 212.365C95.375 211.68 97.82 211.09 99.605 210.7C100.495 210.51 101.215 210.36 101.72 210.265L102.295 210.16C102.415 210.16 102.5 210.15 102.5 210.16Z" fill="#263238"/>
<path d="M70.5001 213.635C81.2801 205.82 83.5001 191.635 82.8701 178.915C82.7601 176.79 82.9551 174.55 81.9151 172.705C80.8751 170.86 78.4951 169.625 76.6051 170.55C75.0451 171.32 74.3851 173.165 73.5301 174.7C72.3839 176.742 70.6857 178.419 68.6301 179.54C67.2901 180.265 65.6301 180.725 64.2801 180.01C62.4301 179.01 62.1701 176.51 62.1451 174.39C62.1051 170.457 62.0634 166.52 62.0201 162.58C62.0201 160.47 61.9651 158.31 61.2751 156.32C60.5851 154.33 59.1001 152.49 57.0801 151.96C55.0601 151.43 52.5801 152.63 52.2101 154.705C52.0501 155.57 52.2401 156.46 52.2101 157.335C52.1801 158.21 51.7751 159.19 50.9451 159.45C50.1151 159.71 49.2501 159.13 48.6101 158.52C46.3951 156.425 44.8651 153.705 43.4401 150.995C42.0151 148.285 40.6201 145.495 38.6001 143.22C36.5801 140.945 33.8151 139.13 30.7901 139.01C27.7651 138.89 24.5701 140.815 23.8551 143.795C23.1401 146.775 24.9301 149.795 26.8551 152.155C29.7201 155.683 33.0798 158.778 36.8301 161.345C37.5051 161.805 38.2351 162.305 38.5051 163.085C39.0051 164.485 37.6751 165.905 36.2951 166.39C34.7301 166.94 33.0151 166.81 31.3751 167.03C29.7351 167.25 27.9601 168.03 27.3751 169.575C26.5451 171.75 28.3751 173.98 30.1901 175.43C33.7987 178.34 37.8818 180.607 42.2601 182.13C43.8251 182.67 45.4651 183.13 46.7601 184.21C48.0551 185.29 48.8201 187.165 48.0851 188.665C47.3501 190.165 45.4201 190.665 43.7851 190.405C42.1501 190.145 40.6851 189.27 39.1201 188.715C36.2001 187.665 32.4551 187.93 30.6201 190.47C29.4251 192.14 29.3601 194.44 30.0101 196.395C30.6601 198.35 31.9451 200.02 33.3001 201.56C38.0451 206.935 44.0751 211.23 50.8501 213.45C57.6251 215.67 63.8501 216.195 70.5201 213.635" fill="#57A485"/>
<path d="M71.3303 232.5C71.5303 229.68 71.3803 228.095 70.8303 223.06C70.1409 217.172 68.8868 211.363 67.0853 205.715C64.8559 198.82 62.2315 192.059 59.2253 185.465L56.8903 180.265C56.1253 178.56 55.3603 176.87 54.5103 175.265C52.8729 172.179 51.0651 169.186 49.0953 166.3C47.2403 163.535 45.3753 160.975 43.5953 158.595C41.8153 156.215 40.1403 154.035 38.5203 152.095C35.9754 149.045 33.1916 146.203 30.1953 143.595C29.1353 142.67 28.2903 141.98 27.6953 141.52L27.0303 141.02C26.9588 140.958 26.8818 140.903 26.8003 140.855C26.8625 140.926 26.9312 140.991 27.0053 141.05L27.6453 141.6C28.2053 142.1 29.0353 142.785 30.0753 143.725C33.023 146.373 35.769 149.238 38.2903 152.295C39.8953 154.225 41.5653 156.415 43.2903 158.795C45.0153 161.175 46.8903 163.745 48.7353 166.51C50.686 169.388 52.477 172.371 54.1003 175.445C54.9403 177.045 55.6953 178.725 56.4653 180.445C57.2353 182.165 58.0103 183.885 58.7953 185.645C61.7965 192.224 64.4257 198.966 66.6703 205.84C68.4794 211.465 69.7567 217.247 70.4853 223.11C71.0753 228.11 71.2703 229.69 71.1103 232.505" fill="#263238"/>
<path d="M54.3902 175.25C54.483 174.955 54.5467 174.652 54.5802 174.345C54.6802 173.76 54.8002 172.905 54.9302 171.845C55.1952 169.74 55.4302 166.815 55.7352 163.59C56.0402 160.365 56.3152 157.455 56.6102 155.355C56.7552 154.305 56.8802 153.46 56.9752 152.855C57.0447 152.553 57.0783 152.245 57.0752 151.935C56.9624 152.223 56.8786 152.521 56.8252 152.825C56.6852 153.4 56.5202 154.245 56.3252 155.295C55.9602 157.39 55.6102 160.295 55.3252 163.535C55.0402 166.775 54.8252 169.595 54.6302 171.795C54.5452 172.795 54.4652 173.625 54.4052 174.295C54.3661 174.612 54.3611 174.932 54.3902 175.25Z" fill="#263238"/>
<path d="M27.1499 170.635C27.507 170.708 27.8705 170.744 28.2349 170.745C28.9349 170.795 29.9449 170.865 31.1899 170.985C33.6899 171.215 37.1099 171.645 40.8749 172.29C44.6399 172.935 48.0199 173.675 50.4499 174.29C51.6699 174.58 52.6499 174.845 53.3249 175.02C53.672 175.133 54.0284 175.215 54.3899 175.265C54.0709 175.101 53.7358 174.97 53.3899 174.875C52.7199 174.65 51.7499 174.345 50.5399 174.02C48.1199 173.345 44.7349 172.57 40.9599 171.915C37.7391 171.352 34.4915 170.955 31.2299 170.725C29.9749 170.64 28.9599 170.61 28.2599 170.61C27.8899 170.584 27.5184 170.593 27.1499 170.635Z" fill="#263238"/>
<path d="M66.73 205.22C66.8074 205.118 66.8697 205.005 66.915 204.885C67.035 204.62 67.18 204.29 67.36 203.885C67.745 203.025 68.27 201.76 68.895 200.195C70.155 197.065 71.755 192.695 73.455 187.82C75.155 182.945 76.715 178.57 77.905 175.415C78.485 173.88 78.965 172.62 79.325 171.68L79.705 170.68C79.7585 170.564 79.7939 170.441 79.81 170.315C79.7381 170.42 79.6777 170.532 79.63 170.65C79.51 170.92 79.365 171.245 79.185 171.65C78.8 172.515 78.275 173.775 77.645 175.34C76.39 178.475 74.79 182.84 73.09 187.72C71.39 192.6 69.83 196.97 68.64 200.125C68.055 201.655 67.58 202.92 67.22 203.855C67.07 204.265 66.945 204.6 66.84 204.855C66.7879 204.971 66.751 205.094 66.73 205.22Z" fill="#263238"/>
<path d="M30.4502 194.205C30.5634 194.267 30.6845 194.315 30.8102 194.345L31.8652 194.68L35.7502 195.865C39.0302 196.865 43.5452 198.305 48.5352 199.9C53.5252 201.495 58.0352 202.9 61.3552 203.825C63.0052 204.295 64.3552 204.66 65.2752 204.89L66.3502 205.155C66.4731 205.195 66.6011 205.216 66.7302 205.22C66.6175 205.156 66.4963 205.109 66.3702 205.08L65.3202 204.745L61.4352 203.56C58.1502 202.56 53.6352 201.12 48.6502 199.525C43.6652 197.93 39.1502 196.525 35.8302 195.6C34.1752 195.13 32.8302 194.765 31.9052 194.535L30.8302 194.27C30.7066 194.233 30.579 194.211 30.4502 194.205Z" fill="#263238"/>
<path d="M340.93 219.81C342.465 219.092 344.189 218.883 345.85 219.215C346.759 219.295 347.614 219.677 348.28 220.3C348.89 220.97 349.005 222.15 348.305 222.725C347.856 223.03 347.315 223.168 346.775 223.115C345.47 223.115 344.03 222.87 342.99 223.65C342.4 224.1 341.99 224.84 341.295 225.06C340.94 225.142 340.568 225.106 340.236 224.958C339.903 224.81 339.627 224.558 339.45 224.24C339.114 223.587 339.039 222.831 339.24 222.125C339.326 221.635 339.523 221.172 339.816 220.771C340.109 220.369 340.49 220.041 340.93 219.81Z" fill="#57A485"/>
<path d="M337.5 213.195C338.415 214.5 340.195 214.065 341 213.27C341.805 212.475 342.175 211.315 342.5 210.215C343.225 207.715 343.955 205.05 343.415 202.485C343.282 201.706 342.936 200.979 342.415 200.385C342.154 200.091 341.82 199.872 341.447 199.748C341.074 199.624 340.675 199.601 340.29 199.68C339.395 199.915 338.835 200.795 338.435 201.63C337.246 204.096 336.624 206.797 336.615 209.535C336.615 210.805 336.76 212.14 337.475 213.195" fill="#57A485"/>
<path d="M335 215.07C335.469 214.454 335.781 213.734 335.91 212.971C336.039 212.208 335.98 211.425 335.74 210.69C335.236 209.223 334.338 207.922 333.145 206.93C331.79 205.727 330.214 204.798 328.505 204.195C327.844 203.927 327.133 203.806 326.42 203.84C326.063 203.86 325.717 203.967 325.411 204.152C325.105 204.337 324.849 204.594 324.665 204.9C324.165 205.83 324.665 206.96 325.165 207.9C326.056 209.526 327.074 211.079 328.21 212.545C329.125 213.725 330.17 214.885 331.565 215.415C332.96 215.945 334.405 215.885 335.14 214.915" fill="#57A485"/>
<path d="M337.44 232.91C337.486 232.715 337.513 232.515 337.52 232.315C337.565 231.88 337.615 231.34 337.68 230.695C337.76 229.896 337.882 229.101 338.045 228.315C338.259 227.359 338.548 226.421 338.91 225.51C339.263 224.599 339.745 223.744 340.34 222.97C340.828 222.343 341.448 221.831 342.155 221.47C342.635 221.231 343.15 221.071 343.68 220.995C343.879 220.985 344.077 220.957 344.27 220.91C344.071 220.89 343.87 220.89 343.67 220.91C343.118 220.952 342.578 221.092 342.075 221.325C341.332 221.672 340.678 222.185 340.165 222.825C339.541 223.61 339.035 224.483 338.665 225.415C338.298 226.338 338.012 227.292 337.81 228.265C337.656 229.06 337.549 229.863 337.49 230.67C337.44 231.36 337.42 231.92 337.41 232.305C337.401 232.507 337.411 232.71 337.44 232.91Z" fill="#263238"/>
<path d="M337.55 231.66C337.563 231.569 337.563 231.476 337.55 231.385V230.595C337.55 229.915 337.55 228.925 337.585 227.7C337.645 225.255 337.855 222.625 338.265 218.92C338.65 215.42 339.165 211.375 339.71 208.735C339.825 208.135 339.945 207.595 340.055 207.12C340.165 206.645 340.25 206.24 340.34 205.91C340.43 205.58 340.475 205.345 340.52 205.145C340.548 205.056 340.565 204.963 340.57 204.87C340.529 204.953 340.497 205.04 340.475 205.13C340.415 205.33 340.34 205.58 340.245 205.885C340.15 206.19 340.04 206.62 339.92 207.09C339.8 207.56 339.67 208.09 339.54 208.7C338.871 211.821 338.371 214.975 338.04 218.15C337.63 221.865 337.45 225.25 337.43 227.7C337.43 228.925 337.43 229.915 337.475 230.6C337.475 230.92 337.51 231.18 337.525 231.385C337.524 231.477 337.532 231.569 337.55 231.66Z" fill="#263238"/>
<path d="M337.57 225.135C337.588 224.86 337.588 224.585 337.57 224.31C337.524 223.563 337.44 222.819 337.32 222.08C337.138 220.984 336.896 219.899 336.595 218.83C336.24 217.516 335.785 216.23 335.235 214.985C334.29 212.689 332.935 210.585 331.235 208.775C330.941 208.463 330.627 208.171 330.295 207.9C330.155 207.78 330.025 207.66 329.895 207.56L329.53 207.31C329.311 207.145 329.08 206.997 328.84 206.865C329.637 207.495 330.395 208.173 331.11 208.895C332.75 210.722 334.066 212.815 335 215.085C335.542 216.322 335.998 217.595 336.365 218.895C336.678 219.953 336.936 221.026 337.14 222.11C337.31 223.04 337.405 223.795 337.465 224.32C337.476 224.594 337.511 224.867 337.57 225.135Z" fill="#263238"/>
<path d="M298.735 230.185L299.055 227.495L308.735 226.995L308.905 232.415L308.28 232.475C305.52 232.7 294.21 233.435 292.345 232.92C290.26 232.33 298.735 230.185 298.735 230.185Z" fill="#43B1ED"/>
<g opacity="0.4">
<path d="M305.265 232.415C305.391 231.565 305.825 230.791 306.485 230.24C307.136 229.695 307.967 229.413 308.815 229.45L308.89 232.255L305.265 232.415Z" fill="black"/>
</g>
<g opacity="0.4">
<path d="M294.6 231.38C294.6 231.38 291.635 232.32 292.02 232.805C292.405 233.29 303.86 232.975 308.905 232.395V232.175L295.5 232.65C295.5 232.65 295.185 231.39 294.6 231.38Z" fill="black"/>
</g>
<path d="M309.04 232.165H308.865L308.365 232.21L306.545 232.34C305.005 232.435 302.88 232.54 300.545 232.605C298.21 232.67 296.045 232.685 294.545 232.675L292.715 232.645H292.215C292.158 232.652 292.101 232.652 292.045 232.645H292.215H292.715H294.54C296.085 232.645 298.215 232.61 300.54 232.545C302.865 232.48 305.04 232.385 306.54 232.31L308.365 232.22H308.865L309.04 232.165Z" fill="#263238"/>
<path d="M295.53 232.805C295.439 232.506 295.317 232.218 295.165 231.945C294.977 231.694 294.763 231.464 294.525 231.26C294.838 231.369 295.101 231.587 295.265 231.875C295.465 232.141 295.56 232.473 295.53 232.805Z" fill="#263238"/>
<path d="M298.45 231.225C298.42 231.225 298.275 231.075 298.12 230.845C298.012 230.716 297.935 230.563 297.895 230.4C297.925 230.4 298.07 230.55 298.225 230.78C298.333 230.909 298.41 231.062 298.45 231.225Z" fill="#263238"/>
<path d="M299.25 230.77C299.25 230.77 299.065 230.695 298.89 230.545C298.715 230.395 298.585 230.25 298.61 230.225C298.635 230.2 298.79 230.3 298.97 230.45C299.15 230.6 299.27 230.745 299.25 230.77Z" fill="#263238"/>
<path d="M299.735 229.81C299.735 229.845 299.505 229.88 299.235 229.89C299.068 229.913 298.897 229.899 298.735 229.85C298.894 229.786 299.065 229.759 299.235 229.77C299.403 229.747 299.574 229.761 299.735 229.81Z" fill="#263238"/>
<path d="M299.895 229.14C299.724 229.257 299.522 229.321 299.315 229.325C299.111 229.364 298.901 229.342 298.71 229.26C298.906 229.221 299.105 229.201 299.305 229.2C299.499 229.16 299.697 229.14 299.895 229.14Z" fill="#263238"/>
<path d="M298.085 230.355C297.872 230.393 297.653 230.393 297.44 230.355C297.206 230.332 296.975 230.286 296.75 230.22C296.611 230.186 296.477 230.136 296.35 230.07C296.273 230.027 296.214 229.958 296.185 229.875C296.174 229.827 296.177 229.777 296.194 229.731C296.211 229.685 296.241 229.645 296.28 229.615C296.523 229.488 296.802 229.449 297.07 229.505C297.337 229.561 297.578 229.707 297.75 229.92C297.852 230.045 297.927 230.189 297.97 230.345C298 230.455 298 230.52 297.97 230.52C297.901 230.322 297.798 230.137 297.665 229.975C297.514 229.812 297.32 229.694 297.105 229.635C296.849 229.557 296.573 229.583 296.335 229.705C296.235 229.785 296.28 229.905 296.395 229.97C296.511 230.031 296.634 230.079 296.76 230.115C296.98 230.182 297.203 230.234 297.43 230.27C297.84 230.345 298.085 230.335 298.085 230.355Z" fill="#263238"/>
<path d="M297.92 230.395C297.836 230.261 297.804 230.101 297.83 229.945C297.848 229.776 297.904 229.614 297.995 229.47C298.047 229.373 298.123 229.29 298.216 229.231C298.309 229.171 298.415 229.137 298.525 229.13C298.59 229.142 298.648 229.179 298.686 229.233C298.725 229.288 298.74 229.354 298.73 229.42C298.718 229.523 298.684 229.622 298.63 229.71C298.548 229.854 298.449 229.989 298.335 230.11C298.135 230.315 297.98 230.395 297.97 230.38C297.96 230.365 298.1 230.26 298.27 230.055C298.37 229.932 298.457 229.8 298.53 229.66C298.615 229.52 298.67 229.275 298.53 229.25C298.39 229.225 298.21 229.405 298.115 229.535C298.027 229.663 297.968 229.807 297.94 229.96C297.919 230.104 297.913 230.25 297.92 230.395Z" fill="#263238"/>
<path d="M308.76 229.425C308.76 229.425 308.47 229.425 308.02 229.47C307.43 229.55 306.876 229.796 306.42 230.179C305.965 230.562 305.629 231.067 305.45 231.635C305.305 232.07 305.3 232.36 305.275 232.355C305.266 232.289 305.266 232.221 305.275 232.155C305.29 231.971 305.322 231.788 305.37 231.61C305.538 231.017 305.877 230.487 306.345 230.085C306.819 229.69 307.401 229.447 308.015 229.385C308.198 229.365 308.382 229.365 308.565 229.385C308.632 229.386 308.698 229.399 308.76 229.425Z" fill="#263238"/>
<path d="M307.68 226.915C307.757 227.324 307.792 227.739 307.785 228.155C307.826 228.569 307.826 228.986 307.785 229.4C307.71 228.991 307.675 228.576 307.68 228.16C307.639 227.746 307.639 227.329 307.68 226.915Z" fill="#263238"/>
<path d="M304 231.47C303.523 231.593 303.033 231.655 302.54 231.655C302.049 231.691 301.555 231.666 301.07 231.58C301.07 231.545 301.725 231.58 302.535 231.535C303.345 231.49 303.97 231.435 304 231.47Z" fill="#263238"/>
<path d="M305.94 231.415C305.94 231.44 305.89 231.555 305.83 231.705C305.77 231.855 305.73 231.995 305.695 231.99C305.66 231.985 305.64 231.835 305.695 231.66C305.75 231.485 305.92 231.39 305.94 231.415Z" fill="#263238"/>
<path d="M306.655 230.47C306.68 230.495 306.62 230.6 306.52 230.71C306.42 230.82 306.315 230.885 306.29 230.865C306.265 230.845 306.33 230.735 306.43 230.625C306.53 230.515 306.63 230.45 306.655 230.47Z" fill="#263238"/>
<path d="M307.705 230C307.705 230.035 307.565 230.04 307.42 230.095C307.275 230.15 307.17 230.23 307.145 230.21C307.12 230.19 307.195 230.045 307.38 229.98C307.565 229.915 307.715 230 307.705 230Z" fill="#263238"/>
<path d="M308.456 229.805C308.456 229.835 308.411 229.885 308.331 229.921C308.25 229.956 308.17 229.961 308.155 229.921C308.14 229.88 308.2 229.835 308.286 229.8C308.371 229.765 308.441 229.77 308.456 229.805Z" fill="#263238"/>
<path d="M311.22 136.66V143.115L308.62 147.39C308.62 148.955 306.165 186.46 306.165 186.46L309.295 229.01L297.36 230.225L289.335 180.77L294.89 135.9L311.22 136.66Z" fill="#263238"/>
<path d="M297.67 229L296.865 226.06L306.74 221.435L309.2 227L308.575 227.32C305.79 228.72 294.315 234.255 292.155 234.505C289.745 234.805 297.67 229 297.67 229Z" fill="#43B1ED"/>
<g opacity="0.4">
<path d="M305.415 228.565C305.187 227.626 305.313 226.636 305.77 225.785C306.218 224.943 306.966 224.298 307.865 223.98L309.125 226.87L305.415 228.565Z" fill="black"/>
</g>
<g opacity="0.4">
<path d="M293.865 232C293.865 232 291.17 234.23 291.775 234.57C292.38 234.91 304.19 229.76 309.2 227.03L309.085 226.805L295.36 232.935C295.36 232.935 294.5 231.75 293.865 232Z" fill="black"/>
</g>
<path d="M309.24 226.71C309.19 226.75 309.134 226.784 309.075 226.81L308.575 227.065L306.73 227.965C305.17 228.715 302.995 229.72 300.57 230.78C298.145 231.84 295.935 232.755 294.32 233.39L292.405 234.135L291.905 234.325C291.845 234.353 291.781 234.373 291.715 234.385C291.772 234.351 291.833 234.322 291.895 234.3L292.395 234.085L294.29 233.3C295.89 232.64 298.1 231.715 300.52 230.655C302.94 229.595 305.12 228.605 306.695 227.875L308.55 227L309.05 226.77L309.24 226.71Z" fill="#263238"/>
<path d="M295.435 233.08C295.214 232.806 294.965 232.556 294.69 232.335C294.391 232.151 294.07 232.003 293.735 231.895C294.109 231.87 294.478 231.986 294.77 232.22C295.09 232.416 295.326 232.722 295.435 233.08Z" fill="#263238"/>
<path d="M297.81 230.2C297.81 230.23 297.565 230.115 297.31 229.945C297.055 229.775 296.865 229.605 296.885 229.575C296.905 229.545 297.13 229.66 297.385 229.83C297.64 230 297.83 230.165 297.81 230.2Z" fill="#263238"/>
<path d="M298.455 229.39C298.455 229.425 298.23 229.39 297.98 229.305C297.73 229.22 297.545 229.125 297.555 229.09C297.565 229.055 297.775 229.09 298.025 229.175C298.275 229.26 298.465 229.355 298.455 229.39Z" fill="#263238"/>
<path d="M298.555 228.18C298.555 228.215 298.345 228.355 298.055 228.485C297.883 228.588 297.69 228.65 297.49 228.665C297.49 228.63 297.705 228.495 297.99 228.36C298.165 228.263 298.357 228.202 298.555 228.18Z" fill="#263238"/>
<path d="M298.435 227.415C298.465 227.44 298.25 227.675 297.935 227.855C297.741 227.983 297.513 228.048 297.28 228.04C297.47 227.921 297.669 227.817 297.875 227.73C298.053 227.61 298.24 227.504 298.435 227.415Z" fill="#263238"/>
<path d="M297.065 229.45C296.862 229.583 296.637 229.679 296.4 229.735C296.145 229.809 295.884 229.861 295.62 229.89C295.454 229.91 295.286 229.91 295.12 229.89C295.022 229.877 294.931 229.829 294.865 229.755C294.836 229.709 294.82 229.655 294.82 229.6C294.82 229.545 294.836 229.491 294.865 229.445C294.994 229.294 295.154 229.174 295.335 229.092C295.516 229.011 295.713 228.971 295.911 228.976C296.109 228.98 296.304 229.028 296.481 229.117C296.658 229.206 296.813 229.334 296.935 229.49C296.982 229.54 297.016 229.6 297.035 229.665C296.88 229.488 296.694 229.34 296.485 229.23C296.259 229.119 296.006 229.075 295.755 229.105C295.456 229.131 295.179 229.275 294.985 229.505C294.915 229.63 294.985 229.735 295.155 229.755C295.303 229.772 295.452 229.772 295.6 229.755C295.858 229.738 296.114 229.698 296.365 229.635C296.8 229.54 297.055 229.43 297.065 229.45Z" fill="#263238"/>
<path d="M296.905 229.555C296.905 229.555 296.73 229.44 296.63 229.13C296.574 228.947 296.563 228.753 296.6 228.565C296.614 228.445 296.657 228.33 296.727 228.231C296.797 228.132 296.891 228.053 297 228C297.036 227.992 297.074 227.991 297.11 227.998C297.147 228.004 297.181 228.018 297.213 228.038C297.244 228.058 297.271 228.084 297.292 228.114C297.313 228.144 297.328 228.179 297.335 228.215C297.36 228.33 297.36 228.45 297.335 228.565C297.31 228.748 297.263 228.928 297.195 229.1C297.146 229.265 297.055 229.415 296.93 229.535C296.93 229.535 297.015 229.36 297.105 229.07C297.156 228.907 297.191 228.74 297.21 228.57C297.24 228.39 297.21 228.11 297.01 228.15C296.81 228.19 296.74 228.45 296.695 228.625C296.662 228.79 296.662 228.96 296.695 229.125C296.754 229.274 296.824 229.417 296.905 229.555Z" fill="#263238"/>
<path d="M307.795 224C307.795 224.025 307.485 224.1 307.045 224.36C306.468 224.698 305.994 225.187 305.675 225.775C305.368 226.368 305.232 227.034 305.28 227.7C305.315 228.2 305.43 228.52 305.405 228.525C305.38 228.53 305.36 228.455 305.31 228.315C305.247 228.118 305.203 227.916 305.18 227.71C305.095 227.017 305.224 226.314 305.549 225.695C305.874 225.077 306.381 224.573 307 224.25C307.184 224.154 307.377 224.075 307.575 224.015C307.647 223.998 307.722 223.993 307.795 224Z" fill="#263238"/>
<path d="M305.61 221.815C305.863 222.208 306.076 222.625 306.245 223.06C306.453 223.478 306.621 223.915 306.745 224.365C306.493 223.972 306.28 223.555 306.11 223.12C305.902 222.702 305.735 222.265 305.61 221.815Z" fill="#263238"/>
<path d="M303.67 228.125C302.76 228.752 301.743 229.21 300.67 229.475C300.67 229.435 301.355 229.185 302.17 228.81C302.985 228.435 303.65 228.09 303.67 228.125Z" fill="#263238"/>
<path d="M305.7 227.24C305.735 227.24 305.7 227.405 305.7 227.59C305.7 227.775 305.7 227.93 305.7 227.945C305.7 227.96 305.575 227.805 305.575 227.59C305.575 227.375 305.665 227.225 305.7 227.24Z" fill="#263238"/>
<path d="M306.045 225.955C306.08 225.955 306.045 226.105 306 226.26C305.955 226.415 305.865 226.53 305.83 226.515C305.795 226.5 305.83 226.365 305.875 226.21C305.92 226.055 306 225.94 306.045 225.955Z" fill="#263238"/>
<path d="M306.95 225.045C306.95 225.08 306.82 225.14 306.69 225.26C306.56 225.38 306.49 225.51 306.45 225.495C306.41 225.48 306.45 225.305 306.6 225.16C306.75 225.015 306.945 225 306.95 225.045Z" fill="#263238"/>
<path d="M307.64 224.5C307.665 224.525 307.64 224.605 307.56 224.675C307.48 224.745 307.405 224.78 307.38 224.755C307.355 224.73 307.38 224.65 307.46 224.58C307.54 224.51 307.61 224.47 307.64 224.5Z" fill="#263238"/>
<path d="M285.625 136.66C285.185 136.905 277.57 164.035 273.935 177.06C272.71 181.456 273.15 186.148 275.17 190.24L294.335 229L308.795 222.23L291.44 184.1L306.77 136.66H285.625Z" fill="#263238"/>
<path d="M294.335 229L294.585 228.87L295.33 228.505L298.2 227.13L308.755 222.13L308.71 222.26C305.4 214.875 301 205 296.175 194.225L291.345 183.365V183.32V183.275L299 159.555C299.96 156.62 300.73 154.275 301.26 152.65C301.525 151.855 301.76 151.24 301.875 150.805L302.04 150.33C302.057 150.276 302.079 150.224 302.105 150.175C302.093 150.231 302.078 150.286 302.06 150.34L301.92 150.84C301.785 151.275 301.59 151.895 301.345 152.7L299.155 159.625L291.58 183.35V183.26C293.105 186.68 294.735 190.345 296.42 194.12C301.215 204.925 305.6 214.79 308.89 222.2L308.93 222.29L308.845 222.33L298.25 227.24L295.355 228.565L294.6 228.905C294.425 229 294.335 229 294.335 229Z" fill="#455A64"/>
<path d="M309.955 143.115C308.733 144.379 307.448 145.58 306.105 146.715C303.93 148.645 302.105 150.17 302.08 150.115C302.055 150.06 303.76 148.45 305.93 146.52C308.1 144.59 309.905 143.065 309.955 143.115Z" fill="#455A64"/>
<path d="M298.78 136.425C298.761 136.598 298.715 136.766 298.645 136.925C298.473 137.389 298.23 137.824 297.925 138.215C297.474 138.799 296.914 139.29 296.275 139.66C295.494 140.131 294.602 140.389 293.69 140.405C292.778 140.422 291.878 140.198 291.08 139.755C290.429 139.409 289.851 138.938 289.38 138.37C289.063 137.991 288.805 137.566 288.615 137.11C288.539 136.951 288.485 136.783 288.455 136.61C288.741 137.205 289.099 137.762 289.52 138.27C289.993 138.801 290.561 139.239 291.195 139.56C291.96 139.973 292.818 140.181 293.687 140.165C294.556 140.15 295.406 139.91 296.155 139.47C296.776 139.125 297.328 138.668 297.78 138.12C298.181 137.598 298.517 137.029 298.78 136.425Z" fill="#455A64"/>
<path d="M286.825 180.375C287.269 180.568 287.692 180.804 288.09 181.08C288.855 181.54 289.9 182.2 291.045 182.935L291.63 183.31L291.81 183.43L291.625 183.53C290.58 184.125 289.625 184.64 288.98 185C288.632 185.212 288.263 185.39 287.88 185.53C288.189 185.269 288.524 185.042 288.88 184.85C289.53 184.45 290.44 183.91 291.48 183.31V183.53L290.895 183.155C289.75 182.415 288.72 181.735 287.98 181.235C287.571 180.982 287.185 180.694 286.825 180.375Z" fill="#455A64"/>
<path d="M271.585 104.23L267.095 112.71L243.11 125.825L247.675 134.695L279.63 119.465L284.425 108.215L271.585 104.23Z" fill="#FFBE9D"/>
<path d="M238.8 126.845C238.055 126.525 236.475 125.78 235.725 125.485C235.359 125.312 234.958 125.223 234.553 125.223C234.147 125.223 233.747 125.312 233.38 125.485C232.38 126.045 232.155 127.485 232.7 128.485C233.001 128.967 233.409 129.374 233.892 129.675C234.374 129.976 234.919 130.162 235.485 130.22C235.266 130.763 235.217 131.36 235.347 131.93C235.476 132.501 235.777 133.019 236.209 133.414C236.641 133.809 237.184 134.063 237.764 134.141C238.344 134.218 238.934 134.117 239.455 133.85C240.02 133.56 240.455 133.09 241.015 132.75C241.664 132.378 242.363 132.102 243.09 131.93L253.425 128.93C253.759 129.275 254.178 129.526 254.64 129.656C255.102 129.786 255.59 129.792 256.055 129.672C256.52 129.552 256.945 129.311 257.286 128.974C257.628 128.636 257.873 128.214 257.998 127.751C258.124 127.287 258.124 126.799 257.998 126.335C257.873 125.872 257.628 125.45 257.286 125.113C256.945 124.775 256.52 124.534 256.055 124.414C255.591 124.294 255.102 124.3 254.64 124.43C255.375 123.135 255.28 121.33 254.185 120.32C253.09 119.31 251.03 119.53 250.38 120.87C250.197 121.396 250.045 121.931 249.925 122.475C249.764 122.981 249.491 123.445 249.127 123.832C248.763 124.219 248.316 124.519 247.82 124.71L238.8 126.845Z" fill="#43B1ED"/>
<g opacity="0.8">
<path d="M238.8 126.845C238.055 126.525 236.475 125.78 235.725 125.485C235.359 125.312 234.958 125.223 234.553 125.223C234.147 125.223 233.747 125.312 233.38 125.485C232.38 126.045 232.155 127.485 232.7 128.485C233.001 128.967 233.409 129.374 233.892 129.675C234.374 129.976 234.919 130.162 235.485 130.22C235.266 130.763 235.217 131.36 235.347 131.93C235.476 132.501 235.777 133.019 236.209 133.414C236.641 133.809 237.184 134.063 237.764 134.141C238.344 134.218 238.934 134.117 239.455 133.85C240.02 133.56 240.455 133.09 241.015 132.75C241.664 132.378 242.363 132.102 243.09 131.93L253.425 128.93C253.759 129.275 254.178 129.526 254.64 129.656C255.102 129.786 255.59 129.792 256.055 129.672C256.52 129.552 256.945 129.311 257.286 128.974C257.628 128.636 257.873 128.214 257.998 127.751C258.124 127.287 258.124 126.799 257.998 126.335C257.873 125.872 257.628 125.45 257.286 125.113C256.945 124.775 256.52 124.534 256.055 124.414C255.591 124.294 255.102 124.3 254.64 124.43C255.375 123.135 255.28 121.33 254.185 120.32C253.09 119.31 251.03 119.53 250.38 120.87C250.197 121.396 250.045 121.931 249.925 122.475C249.764 122.981 249.491 123.445 249.127 123.832C248.763 124.219 248.316 124.519 247.82 124.71L238.8 126.845Z" fill="#7E371A"/>
</g>
<path d="M238.57 127.4C237.825 127.085 236.245 126.34 235.495 126.04C235.128 125.869 234.728 125.781 234.323 125.781C233.918 125.781 233.517 125.869 233.15 126.04C232.15 126.6 231.925 128.04 232.465 129.04C232.768 129.522 233.177 129.929 233.66 130.229C234.143 130.53 234.689 130.717 235.255 130.775C235.034 131.318 234.985 131.916 235.113 132.488C235.242 133.059 235.543 133.578 235.975 133.974C236.407 134.37 236.951 134.624 237.532 134.702C238.113 134.78 238.704 134.678 239.225 134.41C239.79 134.12 240.225 133.645 240.785 133.305C241.434 132.937 242.13 132.661 242.855 132.485L253.195 129.485C253.529 129.828 253.947 130.077 254.408 130.205C254.869 130.334 255.355 130.339 255.819 130.219C256.282 130.098 256.705 129.858 257.045 129.521C257.385 129.184 257.629 128.764 257.754 128.302C257.879 127.84 257.879 127.353 257.755 126.891C257.63 126.429 257.386 126.008 257.046 125.671C256.707 125.335 256.284 125.094 255.821 124.973C255.358 124.852 254.871 124.857 254.41 124.985C255.145 123.695 255.05 121.885 253.955 120.88C252.86 119.875 250.795 120.085 250.15 121.425C249.965 121.95 249.813 122.486 249.695 123.03C249.533 123.537 249.259 124.002 248.894 124.389C248.529 124.777 248.082 125.078 247.585 125.27L238.57 127.4Z" fill="#DA9053"/>
<path d="M272.5 69.025C271.375 67.055 270.235 65.055 269.66 62.865C269.085 60.675 269.11 58.225 270.245 56.26C271.212 54.7221 272.625 53.5153 274.295 52.8C276.575 51.725 279.385 51.325 281.555 52.605C283.725 53.885 284.7 56.435 285.235 58.87C285.59 60.47 285.805 62.185 285.235 63.72C284.375 65.995 281.985 67.32 279.635 67.95C277.285 68.58 274.81 68.71 272.535 69.565" fill="#263238"/>
<path d="M288.1 59L293.03 81.895L281.61 84.43L279.66 78.08C279.66 78.08 274.79 78.785 273.305 74.155C272.585 71.905 271.47 67.155 270.52 62.84C270.013 60.5432 270.424 58.1389 271.667 56.1419C272.91 54.1448 274.885 52.7137 277.17 52.155C278.338 51.8702 279.551 51.8222 280.738 52.0139C281.925 52.2055 283.061 52.633 284.08 53.271C285.099 53.9091 285.979 54.7447 286.67 55.7287C287.36 56.7126 287.847 57.825 288.1 59Z" fill="#FFBE9D"/>
<path d="M279.63 78C281.788 77.3799 283.713 76.132 285.16 74.415C285.16 74.415 284.755 78.2 279.99 79.205L279.63 78Z" fill="#EB996E"/>
<path d="M272.855 65.825C272.906 65.9986 273.023 66.1454 273.181 66.2341C273.339 66.3229 273.525 66.3465 273.7 66.3C273.787 66.2806 273.869 66.2442 273.941 66.1927C274.013 66.1412 274.074 66.0758 274.121 66.0004C274.167 65.9249 274.199 65.8408 274.212 65.7532C274.226 65.6656 274.222 65.5761 274.2 65.49C274.149 65.3164 274.032 65.1696 273.874 65.0809C273.716 64.9922 273.53 64.9685 273.355 65.015C273.269 65.0344 273.187 65.0709 273.115 65.1223C273.042 65.1738 272.981 65.2392 272.935 65.3147C272.888 65.3901 272.857 65.4742 272.843 65.5618C272.83 65.6495 272.834 65.7389 272.855 65.825Z" fill="#263238"/>
<path d="M272.235 64.88C272.34 64.94 272.735 64.415 273.445 64.195C274.155 63.975 274.795 64.195 274.845 64.065C274.895 63.935 274.74 63.885 274.46 63.785C274.084 63.6687 273.681 63.6687 273.305 63.785C272.933 63.899 272.608 64.1284 272.375 64.44C272.205 64.675 272.18 64.855 272.235 64.88Z" fill="#263238"/>
<path d="M279.65 63.865C279.697 64.0436 279.813 64.1964 279.972 64.2901C280.131 64.3838 280.321 64.4107 280.5 64.365C280.586 64.3456 280.668 64.3092 280.741 64.2577C280.813 64.2062 280.874 64.1408 280.921 64.0654C280.967 63.9899 280.998 63.9059 281.012 63.8182C281.025 63.7306 281.021 63.6411 281 63.555C280.953 63.3775 280.838 63.2256 280.68 63.132C280.522 63.0385 280.333 63.0108 280.155 63.055C280.068 63.0738 279.986 63.1099 279.913 63.1611C279.84 63.2123 279.778 63.2776 279.731 63.3532C279.684 63.4287 279.653 63.513 279.639 63.6009C279.625 63.6888 279.628 63.7786 279.65 63.865Z" fill="#263238"/>
<path d="M279.295 62.855C279.4 62.915 279.795 62.39 280.505 62.175C281.215 61.96 281.855 62.175 281.905 62.04C281.955 61.905 281.8 61.86 281.52 61.765C281.144 61.6458 280.741 61.6458 280.365 61.765C279.993 61.879 279.668 62.1084 279.435 62.42C279.27 62.65 279.24 62.83 279.295 62.855Z" fill="#263238"/>
<path d="M278.33 68.95C277.917 68.9435 277.505 68.9923 277.105 69.095C276.915 69.13 276.735 69.15 276.665 69.035C276.59 68.8511 276.574 68.6483 276.62 68.455C276.655 67.955 276.695 67.455 276.73 66.9C276.875 64.695 276.915 62.9 276.825 62.9C276.735 62.9 276.55 64.68 276.41 66.9C276.38 67.445 276.35 67.96 276.325 68.455C276.277 68.7103 276.321 68.9745 276.45 69.2C276.497 69.2549 276.555 69.299 276.621 69.3292C276.687 69.3594 276.758 69.375 276.83 69.375C276.941 69.3718 277.05 69.3533 277.155 69.32C277.561 69.2468 277.956 69.1225 278.33 68.95Z" fill="#263238"/>
<path d="M280.58 68.795C280.465 68.825 280.7 69.6 280.205 70.355C279.71 71.11 278.86 71.275 278.89 71.385C278.92 71.495 279.12 71.48 279.47 71.385C279.925 71.2492 280.32 70.9593 280.585 70.565C280.836 70.1853 280.931 69.7231 280.85 69.275C280.78 68.94 280.635 68.775 280.58 68.795Z" fill="#263238"/>
<path d="M278.25 60.115C278.38 60.285 279.065 59.975 279.93 59.82C280.795 59.665 281.55 59.68 281.605 59.475C281.605 59.375 281.455 59.23 281.105 59.125C280.67 59.0017 280.213 58.9845 279.77 59.075C279.327 59.1546 278.909 59.338 278.55 59.61C278.3 59.83 278.19 60.03 278.25 60.115Z" fill="#263238"/>
<path d="M271.86 62.73C272.035 62.855 272.475 62.535 273.065 62.345C273.655 62.155 274.19 62.12 274.255 61.915C274.255 61.815 274.15 61.68 273.885 61.59C273.534 61.4987 273.164 61.5126 272.821 61.63C272.478 61.7473 272.177 61.9629 271.955 62.25C271.8 62.5 271.78 62.67 271.86 62.73Z" fill="#263238"/>
<path d="M287.605 63C287.675 62.94 290.51 61.075 291.38 64.28C292.25 67.485 288.88 67.705 288.825 67.615C288.77 67.525 287.605 63 287.605 63Z" fill="#FFBE9D"/>
<path d="M289.5 66.11C289.5 66.11 289.565 66.135 289.67 66.15C289.818 66.1705 289.969 66.1329 290.09 66.045C290.261 65.8571 290.38 65.6271 290.433 65.3786C290.487 65.1301 290.474 64.8718 290.395 64.63C290.326 64.3528 290.198 64.0936 290.02 63.87C289.962 63.7785 289.882 63.7025 289.788 63.6485C289.694 63.5945 289.588 63.5641 289.48 63.56C289.412 63.5602 289.346 63.5843 289.294 63.6282C289.242 63.6721 289.207 63.7329 289.195 63.8C289.195 63.9 289.195 63.96 289.195 63.97C289.195 63.98 289.115 63.935 289.105 63.795C289.1 63.7109 289.125 63.6277 289.175 63.56C289.245 63.4698 289.347 63.4105 289.46 63.395C289.599 63.3844 289.739 63.4101 289.865 63.4697C289.991 63.5294 290.1 63.6208 290.18 63.735C290.393 63.9747 290.545 64.2631 290.62 64.575C290.713 64.8561 290.721 65.1585 290.643 65.4441C290.565 65.7297 290.404 65.9858 290.18 66.18C290.101 66.2298 290.012 66.2607 289.919 66.2702C289.826 66.2798 289.732 66.2677 289.645 66.235C289.5 66.185 289.465 66.12 289.5 66.11Z" fill="#EB996E"/>
<path d="M289.34 62.325C289.032 62.3977 288.749 62.5529 288.521 62.774C288.294 62.995 288.131 63.2736 288.05 63.58C287.985 64.08 288.095 64.625 288.05 65.14C288.005 65.655 287.645 66.21 287.125 66.245C286.946 66.2484 286.77 66.2038 286.614 66.1158C286.459 66.0279 286.329 65.8998 286.24 65.745C286.07 65.4352 285.959 65.0959 285.915 64.745C285.645 63.205 285.505 61.64 285.105 60.125C284.763 58.588 283.975 57.1862 282.84 56.095C281.665 55.065 279.935 54.595 278.485 55.15C277.52 55.53 276.775 56.325 275.835 56.765C275.275 57.0208 274.664 57.146 274.048 57.1313C273.432 57.1166 272.828 56.9623 272.28 56.68C272.04 56.5842 271.794 56.5007 271.545 56.43C271.45 56.073 271.461 55.6962 271.575 55.345C272.97 52.945 276.32 51.345 279.075 51.225C280.481 51.1437 281.887 51.37 283.196 51.8882C284.506 52.4063 285.686 53.2038 286.655 54.225C288.505 56.295 289.205 59.725 289.345 62.37" fill="#263238"/>
<path d="M284.085 52.35C284.16 52.35 284.13 52.27 284.135 52.195C284.16 51.575 283.54 50.375 281.355 50.195C279.72 50.04 277.66 50.59 276.15 51.24C274.64 51.89 273.1 52.61 271.455 52.64C270.85 52.64 270.245 52.565 269.645 52.64C269.343 52.6559 269.048 52.7402 268.783 52.8865C268.518 53.0329 268.29 53.2375 268.115 53.485C268.038 53.609 267.987 53.7473 267.965 53.8915C267.942 54.0357 267.95 54.1829 267.985 54.3244C268.021 54.4658 268.085 54.5986 268.174 54.7146C268.262 54.8307 268.373 54.9278 268.5 55C268.056 54.8171 267.558 54.8122 267.111 54.9862C266.663 55.1603 266.299 55.5001 266.095 55.935C265.92 56.3837 265.897 56.8777 266.031 57.3405C266.165 57.8033 266.447 58.2091 266.835 58.495C267.232 58.7669 267.695 58.9271 268.175 58.9588C268.656 58.9905 269.136 58.8925 269.565 58.675L272.19 55.385C272.19 55.385 273.19 55.76 274.935 55.08C276.575 54.435 282.86 52.545 284.085 52.35Z" fill="#263238"/>
<path d="M266.06 57.045C266.184 57.2156 266.33 57.3687 266.495 57.5C266.735 57.6504 267.002 57.7499 267.282 57.792C267.562 57.8342 267.847 57.8182 268.12 57.745C268.922 57.4551 269.634 56.9603 270.185 56.31C270.941 55.552 271.78 54.8811 272.685 54.31C273.593 53.7324 274.58 53.2911 275.615 53C276.461 52.7639 277.337 52.6477 278.215 52.655C278.807 52.6612 279.395 52.735 279.97 52.875C280.184 52.914 280.391 52.983 280.585 53.08C279.804 52.929 279.011 52.8487 278.215 52.84C277.357 52.8594 276.505 52.9905 275.68 53.23C274.672 53.5272 273.711 53.9648 272.825 54.53C271.932 55.0958 271.102 55.7563 270.35 56.5C269.762 57.1673 269.006 57.6646 268.16 57.94C267.864 58.0114 267.556 58.0175 267.257 57.958C266.958 57.8984 266.676 57.7745 266.43 57.595C266.303 57.4903 266.196 57.3632 266.115 57.22C266.07 57.105 266.05 57.05 266.06 57.045Z" fill="#455A64"/>
<path d="M281.815 52.85C281.815 52.85 281.695 52.675 281.43 52.415C281.059 52.0507 280.604 51.7843 280.105 51.64C278.835 51.23 276.945 51.57 275.075 52.34C273.205 53.11 271.525 53.965 270.18 54.255C269.643 54.3892 269.076 54.3235 268.585 54.07C268.458 53.9947 268.343 53.9003 268.245 53.79C268.175 53.71 268.155 53.665 268.16 53.66C268.309 53.7792 268.468 53.8862 268.635 53.98C269.109 54.1823 269.639 54.2158 270.135 54.075C271.425 53.75 273.07 52.88 274.975 52.075C276.88 51.27 278.83 50.97 280.155 51.445C280.674 51.6121 281.139 51.9161 281.5 52.325C281.645 52.4724 281.753 52.6524 281.815 52.85Z" fill="#455A64"/>
<path d="M280.11 85C280.835 83.9599 281.825 83.1331 282.978 82.6055C284.131 82.0779 285.404 81.8688 286.665 82C287.873 82.1304 289.009 82.6357 289.915 83.445C291.28 84.7 293.205 86.215 293.295 88.07C293.385 89.925 292.465 92.805 291.98 94.57C290.48 100.035 288.225 105.82 286.07 111.07L269.915 103.43L278.21 87.625L280.11 85Z" fill="#43B1ED"/>
<g opacity="0.2">
<path d="M280.11 85C280.835 83.9599 281.825 83.1331 282.978 82.6055C284.131 82.0779 285.404 81.8688 286.665 82C287.873 82.1304 289.009 82.6357 289.915 83.445C291.28 84.7 293.205 86.215 293.295 88.07C293.385 89.925 292.465 92.805 291.98 94.57C290.48 100.035 288.225 105.82 286.07 111.07L269.915 103.43L276.74 90.43C277.719 88.5649 278.826 86.7706 280.055 85.06L280.11 85Z" fill="black"/>
</g>
<path d="M280.835 106.68C280.353 106.33 279.906 105.935 279.5 105.5C279.105 105.115 278.645 104.65 278.155 104.115C277.6 103.547 277.108 102.92 276.69 102.245C276.297 101.577 275.813 100.968 275.25 100.435C274.79 100.01 274.232 99.704 273.625 99.545C273.057 99.4183 272.466 99.4424 271.91 99.615C272.039 99.5161 272.187 99.4462 272.345 99.41C272.775 99.2857 273.229 99.2719 273.665 99.37C274.314 99.5081 274.915 99.8131 275.41 100.255C276 100.793 276.505 101.417 276.91 102.105C277.32 102.768 277.795 103.388 278.33 103.955C278.83 104.495 279.255 104.955 279.63 105.37L280.515 106.32C280.638 106.424 280.746 106.546 280.835 106.68Z" fill="#E0E0E0"/>
<path d="M282 99.2C281.578 99.0928 281.173 98.9244 280.8 98.7C279.876 98.2177 278.99 97.6661 278.15 97.05C277.303 96.4394 276.513 95.7533 275.79 95C275.473 94.7128 275.206 94.3749 275 94C275.035 94 275.335 94.36 275.91 94.905C276.659 95.6132 277.454 96.2713 278.29 96.875C279.29 97.585 280.19 98.175 280.875 98.575C281.262 98.7617 281.637 98.9703 282 99.2Z" fill="#E0E0E0"/>
<path d="M282.87 94.365C281.724 93.9225 280.638 93.3362 279.64 92.62C278.911 92.1499 278.216 91.6286 277.56 91.06C277.271 90.8413 277.023 90.572 276.83 90.265C277.125 90.4654 277.407 90.6841 277.675 90.92C278.175 91.325 278.945 91.85 279.785 92.42C280.625 92.99 281.4 93.45 281.965 93.795C282.284 93.9559 282.587 94.1468 282.87 94.365Z" fill="#E0E0E0"/>
<path d="M280.11 85C280.835 83.9599 281.825 83.1331 282.978 82.6055C284.131 82.0779 285.404 81.8688 286.665 82C287.873 82.1304 289.009 82.6357 289.915 83.445C291.28 84.7 293.205 86.215 293.295 88.07C293.385 89.925 292.465 92.805 291.98 94.57C290.48 100.035 288.225 105.82 286.07 111.07L269.915 103.43L278.21 87.625L280.11 85Z" fill="#43B1ED"/>
<g opacity="0.2">
<path d="M280.11 85C280.835 83.9599 281.825 83.1331 282.978 82.6055C284.131 82.0779 285.404 81.8688 286.665 82C287.873 82.1304 289.009 82.6357 289.915 83.445C291.28 84.7 293.205 86.215 293.295 88.07C293.385 89.925 292.465 92.805 291.98 94.57C290.48 100.035 288.225 105.82 286.07 111.07L269.915 103.43L276.74 90.43C277.719 88.5649 278.826 86.7706 280.055 85.06L280.11 85Z" fill="black"/>
</g>
<path d="M280.835 106.68C280.353 106.33 279.906 105.935 279.5 105.5C279.105 105.115 278.645 104.65 278.155 104.115C277.6 103.547 277.108 102.92 276.69 102.245C276.297 101.577 275.813 100.968 275.25 100.435C274.79 100.01 274.232 99.704 273.625 99.545C273.057 99.4183 272.466 99.4424 271.91 99.615C272.039 99.5161 272.187 99.4462 272.345 99.41C272.775 99.2857 273.229 99.2719 273.665 99.37C274.314 99.5081 274.915 99.8131 275.41 100.255C276 100.793 276.505 101.417 276.91 102.105C277.32 102.768 277.795 103.388 278.33 103.955C278.83 104.495 279.255 104.955 279.63 105.37L280.515 106.32C280.638 106.424 280.746 106.546 280.835 106.68Z" fill="#E0E0E0"/>
<path d="M282 99.2C281.578 99.0928 281.173 98.9244 280.8 98.7C279.876 98.2177 278.99 97.6661 278.15 97.05C277.303 96.4394 276.513 95.7533 275.79 95C275.473 94.7128 275.206 94.3749 275 94C275.035 94 275.335 94.36 275.91 94.905C276.659 95.6132 277.454 96.2713 278.29 96.875C279.29 97.585 280.19 98.175 280.875 98.575C281.262 98.7617 281.637 98.9703 282 99.2Z" fill="#E0E0E0"/>
<path d="M282.87 94.365C281.724 93.9225 280.638 93.3362 279.64 92.62C278.911 92.1499 278.216 91.6286 277.56 91.06C277.271 90.8413 277.023 90.572 276.83 90.265C277.125 90.4654 277.407 90.6841 277.675 90.92C278.175 91.325 278.945 91.85 279.785 92.42C280.625 92.99 281.4 93.45 281.965 93.795C282.284 93.9559 282.587 94.1468 282.87 94.365Z" fill="#E0E0E0"/>
<path d="M280.59 82.865L292.31 76.19C292.31 76.19 297.91 78.48 301.445 82.63C306.1 88.1 308.285 95.63 309.05 102.395C309.7 108.175 312.52 136.66 312.52 136.66H282.375V117.55L280.59 82.865Z" fill="#43B1ED"/>
<g opacity="0.2">
<path d="M282.34 124.92C283.975 125.72 286.03 125.22 287.43 124.06C288.83 122.9 289.67 121.185 290.215 119.45C290.715 117.895 291.005 116.24 291.92 114.895C292.605 113.895 293.585 113.12 294.37 112.185C296.725 109.375 297.02 105.43 297.215 101.77C296.064 103.763 295.105 105.861 294.35 108.035C294.045 108.915 293.235 110.7 293.235 110.7L290.945 109.595C288.075 114.56 285.305 118.84 282.445 123.8" fill="black"/>
</g>
<path d="M309.365 106.15C309.365 106.15 309.135 106.12 308.73 106.125C308.155 106.148 307.591 106.292 307.075 106.55C306.307 106.939 305.579 107.401 304.9 107.93C304.054 108.615 303.041 109.062 301.965 109.225C300.877 109.253 299.8 108.998 298.84 108.485C297.955 108.065 297.175 107.66 296.515 107.325L294.96 106.5C294.765 106.409 294.579 106.298 294.405 106.17C294.612 106.229 294.813 106.308 295.005 106.405L296.595 107.14L298.94 108.25C299.865 108.732 300.898 108.971 301.94 108.945C302.972 108.786 303.946 108.362 304.765 107.715C305.46 107.185 306.209 106.731 307 106.36C307.542 106.111 308.134 105.99 308.73 106.005C308.891 106.01 309.05 106.034 309.205 106.075C309.262 106.092 309.316 106.117 309.365 106.15Z" fill="#E0E0E0"/>
<path d="M310.58 117.78C310.58 117.78 310.3 117.575 309.765 117.28C309.002 116.886 308.17 116.643 307.315 116.565C306.046 116.444 304.766 116.54 303.53 116.85C302.12 117.16 300.61 117.68 298.975 118.075C296.163 118.775 293.208 118.634 290.475 117.67C289.653 117.384 288.86 117.017 288.11 116.575C287.845 116.425 287.65 116.285 287.515 116.195C287.38 116.105 287.31 116.055 287.315 116.045C287.32 116.035 287.62 116.205 288.16 116.485C288.921 116.887 289.716 117.221 290.535 117.485C291.748 117.886 293.006 118.132 294.28 118.22C295.839 118.327 297.405 118.189 298.92 117.81C300.54 117.425 302.055 116.905 303.48 116.605C304.745 116.304 306.053 116.225 307.345 116.37C308.225 116.467 309.076 116.743 309.845 117.18C310.051 117.3 310.247 117.437 310.43 117.59C310.486 117.648 310.537 117.712 310.58 117.78Z" fill="#E0E0E0"/>
<path d="M282.38 126.5C282.453 126.426 282.536 126.362 282.625 126.31C282.71 126.255 282.825 126.21 282.955 126.14C283.118 126.084 283.286 126.04 283.455 126.01C284.23 125.86 285.35 126.135 286.595 126.66C287.271 126.947 287.964 127.193 288.67 127.395C289.487 127.612 290.326 127.735 291.17 127.76C293.104 127.786 295.033 127.566 296.91 127.105C298.91 126.665 300.83 126.14 302.61 125.855C304.181 125.567 305.783 125.483 307.375 125.605C308.452 125.696 309.506 125.958 310.5 126.38C310.77 126.489 311.031 126.62 311.28 126.77C311.374 126.813 311.461 126.869 311.54 126.935C311.442 126.904 311.346 126.864 311.255 126.815C310.996 126.687 310.731 126.572 310.46 126.47C309.465 126.093 308.421 125.863 307.36 125.785C305.784 125.695 304.202 125.797 302.65 126.09C300.885 126.385 298.99 126.92 296.965 127.36C295.06 127.827 293.102 128.042 291.14 128C289.538 127.923 287.967 127.525 286.52 126.83C285.285 126.29 284.21 126 283.465 126.11C283.081 126.164 282.712 126.297 282.38 126.5Z" fill="#E0E0E0"/>
<path d="M311.605 132.77C311.605 132.805 311.2 132.625 310.445 132.515C309.37 132.413 308.285 132.537 307.26 132.88C305.95 133.27 304.475 133.985 302.79 134.685C300.948 135.432 299.011 135.922 297.035 136.14C295.062 136.368 293.067 136.341 291.1 136.06C289.496 135.828 287.921 135.42 286.405 134.845C286.098 134.745 285.796 134.63 285.5 134.5L284.7 134.145C284.2 133.89 283.79 133.685 283.455 133.49L282.7 133.025C282.608 132.975 282.523 132.915 282.445 132.845C282.542 132.882 282.636 132.927 282.725 132.98L283.505 133.4C283.845 133.58 284.275 133.775 284.76 134.015L285.565 134.35C285.85 134.475 286.155 134.59 286.48 134.7C287.991 135.244 289.554 135.628 291.145 135.845C293.091 136.113 295.064 136.135 297.015 135.91C298.968 135.69 300.883 135.213 302.71 134.49C304.179 133.826 305.681 133.238 307.21 132.73C308.259 132.397 309.369 132.298 310.46 132.44C310.856 132.492 311.242 132.603 311.605 132.77Z" fill="#E0E0E0"/>
<path d="M307.65 94.915C307.65 94.915 307.53 94.825 307.295 94.725C306.964 94.5945 306.602 94.5666 306.255 94.645C305.738 94.7763 305.257 95.0243 304.85 95.37C304.326 95.7949 303.777 96.1873 303.205 96.545C302.151 97.1816 301.009 97.6585 299.815 97.96C299.454 98.0493 299.089 98.1177 298.72 98.165C298.455 98.195 298.31 98.2 298.31 98.165C298.31 98.13 298.875 98.03 299.765 97.765C300.925 97.4213 302.035 96.9307 303.07 96.305C303.634 95.9533 304.18 95.5728 304.705 95.165C305.139 94.808 305.654 94.5626 306.205 94.45C306.587 94.3809 306.981 94.4407 307.325 94.62C307.58 94.77 307.66 94.905 307.65 94.915Z" fill="#E0E0E0"/>
<path d="M298.31 84.435C299.264 83.6877 300.32 83.0799 301.445 82.63C300.998 83.0363 300.492 83.3733 299.945 83.63C299.442 83.976 298.891 84.2472 298.31 84.435Z" fill="#E0E0E0"/>
<path d="M285.45 89.525C285.217 89.4992 284.99 89.4332 284.78 89.33C284.267 89.1333 283.742 88.9663 283.21 88.83C281.955 88.515 280.915 88.915 280.9 88.83C281.094 88.6913 281.319 88.6021 281.555 88.57C282.119 88.4397 282.706 88.4397 283.27 88.57C283.818 88.7136 284.348 88.9182 284.85 89.18C285.235 89.355 285.465 89.5 285.45 89.525Z" fill="#E0E0E0"/>
<path d="M294.95 77.5C294.838 77.6796 294.707 77.8472 294.56 78C294.184 78.4457 293.775 78.8619 293.335 79.245C291.858 80.4843 290.181 81.4633 288.375 82.14C286.285 82.98 284.315 83.5 282.93 83.965C282.23 84.19 281.675 84.39 281.29 84.535C281.097 84.626 280.894 84.6948 280.685 84.74C280.864 84.623 281.053 84.5225 281.25 84.44C281.625 84.265 282.175 84.04 282.87 83.79C284.25 83.29 286.205 82.73 288.28 81.9C290.059 81.2254 291.725 80.2829 293.22 79.105C293.663 78.737 294.085 78.3447 294.485 77.93C294.624 77.7704 294.78 77.6262 294.95 77.5Z" fill="#E0E0E0"/>
<path d="M280.15 104.16C280.129 104.229 280.1 104.296 280.065 104.36L279.785 104.915L278.7 107C277.745 108.81 276.395 111.35 274.795 114.38V114.41H274.76L265.735 118.61L251.905 125L247.71 126.9L246.565 127.4C246.432 127.461 246.295 127.514 246.155 127.56C246.277 127.479 246.406 127.409 246.54 127.35L247.665 126.8L251.83 124.8L265.605 118.37L274.645 114.195L274.59 114.245C276.23 111.245 277.59 108.71 278.59 106.91L279.735 104.85L280.04 104.31C280.074 104.258 280.11 104.208 280.15 104.16Z" fill="#EB996E"/>
<path d="M280.15 104.16L274.72 114.445L250.22 125.84L245.465 127.925C244.787 127.878 244.121 127.717 243.495 127.45C242.705 127.148 241.961 126.735 241.285 126.225C240.71 125.725 239.785 126.14 239.93 126.835C240.075 127.53 241.605 129.02 243.99 129.795C246.375 130.57 241.36 133.045 240.03 133.59C240.205 134.89 242.53 134.09 242.78 134.785C242.591 134.834 242.416 134.926 242.268 135.053C242.12 135.181 242.004 135.341 241.928 135.521C241.852 135.701 241.818 135.896 241.83 136.091C241.842 136.286 241.898 136.475 241.995 136.645C242.2 137.105 243.245 136.875 243.945 136.645C244.134 136.581 244.339 136.588 244.523 136.664C244.708 136.74 244.857 136.881 244.945 137.06L245.145 137.465C245.745 138.75 247.975 137.595 247.975 137.595C247.975 137.595 249.975 136.65 250.45 136.29C250.645 136.15 252.45 135.315 253.75 134.75V134.775L254.31 134.505C257.875 132.76 274.195 126.79 281.02 124.31C282.97 123.611 284.579 122.195 285.52 120.35L290.995 109.58L280.15 104.16Z" fill="#FFBE9D"/>
<path d="M300.425 93.355C297.73 99.08 294.685 107.565 293.22 110.59L278.16 103.18L287.285 86.105C289.4 82.855 293.245 81.885 296.74 83.56C300.58 85.395 302.24 89.5 300.425 93.355Z" fill="#43B1ED"/>
<path d="M278.16 103.18C278.182 103.121 278.209 103.064 278.24 103.01L278.5 102.51L279.535 100.51C280.45 98.77 281.765 96.27 283.39 93.19C284.21 91.64 285.105 89.945 286.07 88.13C286.519 87.1563 287.083 86.2398 287.75 85.4C288.521 84.5116 289.485 83.8113 290.568 83.3528C291.652 82.8944 292.826 82.6899 294 82.755C295.254 82.8311 296.472 83.2029 297.555 83.84C298.674 84.5114 299.606 85.4537 300.265 86.58C300.597 87.156 300.858 87.7706 301.04 88.41C301.22 89.0617 301.314 89.734 301.32 90.41C301.333 91.4381 301.14 92.4584 300.75 93.41C300.375 94.33 299.975 95.225 299.595 96.115C298.83 97.895 298.095 99.615 297.36 101.315L293.33 110.66L293.285 110.765L293.185 110.715L282.235 105.265L279.21 103.765L278.425 103.365C278.25 103.275 278.17 103.225 278.17 103.225L278.455 103.355L279.27 103.745L282.34 105.22L293.27 110.5L293.125 110.555L297.125 101.195C297.85 99.515 298.59 97.775 299.355 95.995C299.735 95.105 300.13 94.205 300.505 93.29C300.879 92.3763 301.066 91.3971 301.055 90.41C301.048 89.7594 300.958 89.1124 300.785 88.485C300.608 87.8667 300.356 87.2723 300.035 86.715C299.4 85.6259 298.501 84.7145 297.42 84.065C296.381 83.4429 295.209 83.0778 294 83C292.863 82.9383 291.727 83.1363 290.678 83.579C289.629 84.0217 288.694 84.6974 287.945 85.555C287.291 86.3773 286.736 87.2734 286.29 88.225L283.595 93.225L279.635 100.5L278.55 102.5L278.265 103C278.2 103.12 278.16 103.18 278.16 103.18Z" fill="#263238"/>
<path d="M244.575 134.21C243.877 134.583 243.088 134.75 242.299 134.69C241.51 134.631 240.754 134.348 240.12 133.875C241.521 134.5 243.096 134.618 244.575 134.21Z" fill="#EB996E"/>
<path d="M295.315 103.885C295.109 103.947 294.895 103.984 294.68 103.995C294.27 104.045 293.68 104.105 292.935 104.14C292.065 104.186 291.193 104.149 290.33 104.03C289.263 103.889 288.24 103.518 287.33 102.945C286.476 102.308 285.684 101.591 284.965 100.805C284.379 100.188 283.688 99.6804 282.925 99.305C282.41 99.0528 281.843 98.9228 281.27 98.925C280.865 98.925 280.645 99.015 280.64 98.99C280.635 98.965 280.69 98.96 280.79 98.92C280.952 98.8688 281.12 98.837 281.29 98.825C281.885 98.7809 282.482 98.8875 283.025 99.135C283.821 99.5007 284.543 100.009 285.155 100.635C285.872 101.402 286.657 102.103 287.5 102.73C288.383 103.285 289.373 103.649 290.405 103.8C291.254 103.929 292.112 103.982 292.97 103.96C293.705 103.96 294.3 103.915 294.71 103.895C294.911 103.876 295.113 103.873 295.315 103.885Z" fill="#E0E0E0"/>
<path d="M298.31 98.18C298.103 98.2326 297.889 98.2578 297.675 98.255C297.097 98.2793 296.518 98.2525 295.945 98.175C295.082 98.0754 294.239 97.8444 293.445 97.49C292.503 96.9946 291.657 96.336 290.945 95.545C290.17 94.745 289.445 93.955 288.74 93.345C288.104 92.7935 287.372 92.3631 286.58 92.075C286.047 91.8809 285.481 91.7959 284.915 91.825C284.515 91.855 284.3 91.92 284.29 91.895C284.28 91.87 284.34 91.865 284.445 91.83C284.595 91.7809 284.749 91.7458 284.905 91.725C285.489 91.654 286.082 91.7138 286.64 91.9C287.464 92.172 288.228 92.5997 288.89 93.16C289.677 93.8531 290.426 94.5875 291.135 95.36C291.82 96.1293 292.632 96.7753 293.535 97.27C294.3 97.6242 295.111 97.8666 295.945 97.99C296.729 98.0976 297.519 98.161 298.31 98.18Z" fill="#E0E0E0"/>
<path d="M301 90.81C300.801 90.8348 300.599 90.8348 300.4 90.81L298.775 90.72L296.37 90.555C295.465 90.485 294.465 90.41 293.42 90.235C292.43 90.0972 291.466 89.8124 290.56 89.39C289.842 88.9861 289.229 88.4192 288.77 87.735C288.465 87.2841 288.207 86.8033 288 86.3C287.912 86.1193 287.848 85.9276 287.81 85.73C288.145 86.3868 288.519 87.0229 288.93 87.635C289.393 88.2761 289.994 88.8042 290.69 89.18C291.578 89.5771 292.517 89.8481 293.48 89.985C294.48 90.155 295.48 90.24 296.405 90.32L298.81 90.54L300.425 90.71C300.62 90.7214 300.813 90.7549 301 90.81Z" fill="#E0E0E0"/>
<path d="M246.155 135.78C245.599 136.249 244.938 136.579 244.228 136.741C243.518 136.902 242.78 136.892 242.075 136.71C242.777 136.673 243.476 136.598 244.17 136.485C244.845 136.289 245.508 136.054 246.155 135.78Z" fill="#EB996E"/>
<path d="M216.5 167.055C215.609 167.642 214.92 168.489 214.528 169.481C214.135 170.473 214.057 171.562 214.305 172.6C214.58 173.693 215.194 174.671 216.057 175.394C216.921 176.118 217.991 176.55 219.115 176.63C220.168 176.67 221.206 176.376 222.082 175.79C222.958 175.205 223.626 174.358 223.992 173.37C224.358 172.382 224.402 171.304 224.119 170.29C223.836 169.275 223.24 168.376 222.415 167.72C220.77 166.42 218.24 165.89 216.5 167.055Z" fill="#DDAF89"/>
<path d="M216.5 167.055C215.609 167.642 214.92 168.489 214.528 169.481C214.135 170.473 214.057 171.562 214.305 172.6C214.58 173.693 215.194 174.671 216.057 175.394C216.921 176.118 217.991 176.55 219.115 176.63C220.168 176.67 221.206 176.376 222.082 175.79C222.958 175.205 223.626 174.358 223.992 173.37C224.358 172.382 224.402 171.304 224.119 170.29C223.836 169.275 223.24 168.376 222.415 167.72C220.77 166.42 218.24 165.89 216.5 167.055Z" fill="#78BF9B"/>
<path d="M217.205 176.09C217.462 175.748 217.686 175.383 217.875 175C218.088 174.539 218.195 174.035 218.188 173.527C218.18 173.019 218.059 172.519 217.833 172.064C217.608 171.609 217.282 171.21 216.882 170.897C216.482 170.584 216.016 170.364 215.52 170.255C215.101 170.176 214.676 170.133 214.25 170.125C214.358 170.073 214.475 170.044 214.595 170.04C214.916 169.999 215.242 170.011 215.56 170.075C216.097 170.165 216.606 170.381 217.044 170.705C217.482 171.029 217.837 171.452 218.081 171.94C218.324 172.427 218.449 172.965 218.446 173.51C218.442 174.055 218.31 174.591 218.06 175.075C217.919 175.367 217.731 175.633 217.505 175.865C217.325 176.03 217.22 176.1 217.205 176.09Z" fill="#FAFAFA"/>
<path d="M223.775 173.925C223.653 173.941 223.528 173.929 223.41 173.89C223.082 173.824 222.764 173.715 222.465 173.565C221.465 173.058 220.67 172.221 220.215 171.195C219.762 170.169 219.667 169.021 219.945 167.935C220.027 167.611 220.145 167.298 220.295 167C220.405 166.79 220.48 166.685 220.495 166.69C220.51 166.695 220.285 167.19 220.125 167.975C219.912 169.02 220.025 170.106 220.45 171.085C220.887 172.06 221.623 172.87 222.55 173.4C222.949 173.596 223.358 173.772 223.775 173.925Z" fill="#FAFAFA"/>
<path d="M188.5 179.265C189.295 178.55 189.855 177.56 189.44 176.6L189.415 176.525C189.313 176.275 189.157 176.05 188.96 175.865C188.522 175.493 187.992 175.244 187.425 175.145C185.575 174.74 183.62 175.185 181.76 174.82C181.886 175.925 182.251 176.99 182.83 177.94C183.416 178.895 184.327 179.605 185.395 179.94C185.928 180.095 186.491 180.114 187.033 179.996C187.575 179.878 188.08 179.627 188.5 179.265Z" fill="#455A64"/>
<path d="M189.365 180C189.305 179.09 188.945 178.2 188.085 177.965H188.02C187.799 177.905 187.568 177.89 187.34 177.92C186.862 178.016 186.418 178.239 186.055 178.565C184.805 179.565 184.055 181.125 182.845 182.17C183.647 182.669 184.548 182.987 185.485 183.1C186.43 183.213 187.384 182.981 188.17 182.445C188.558 182.17 188.87 181.802 189.079 181.375C189.288 180.948 189.386 180.475 189.365 180Z" fill="#455A64"/>
<path d="M189.335 179.87C189.135 179.884 188.933 179.852 188.747 179.777C188.561 179.702 188.394 179.585 188.259 179.436C188.124 179.287 188.025 179.109 187.97 178.916C187.914 178.723 187.903 178.52 187.937 178.322C187.971 178.124 188.05 177.936 188.168 177.773C188.286 177.61 188.439 177.476 188.616 177.381C188.793 177.286 188.989 177.232 189.19 177.224C189.391 177.216 189.591 177.254 189.775 177.335" fill="#455A64"/>
<path d="M169.395 212.205C165.625 213.395 161.565 210.205 160.46 206.425C159.355 202.645 160.46 198.555 161.845 194.855C163.23 191.155 164.96 187.475 165.165 183.525C165.395 178.99 163.315 174.235 159.42 171.9C155.525 169.565 149.92 170.195 147.085 173.76C144.25 177.325 145.34 183.455 149.455 185.37C148.355 184.76 147.2 184.13 145.955 184.09C144.71 184.05 143.31 184.805 143.09 186.045C142.87 187.285 143.81 188.39 144.81 189.13C145.81 189.87 146.98 190.475 147.6 191.55C148.575 193.245 147.825 195.355 147.36 197.255C146.533 200.664 146.727 204.241 147.918 207.54C149.11 210.839 151.245 213.715 154.059 215.809C156.873 217.904 160.241 219.124 163.743 219.318C167.245 219.512 170.728 218.671 173.755 216.9" fill="#DDAF89"/>
<g opacity="0.3">
<path d="M168.41 212.5C167.955 212.845 167.285 212.35 166.735 212.5C166.544 212.599 166.378 212.74 166.251 212.914C166.123 213.087 166.037 213.288 166 213.5C165.585 214.521 165.458 215.637 165.635 216.725C165.734 217.265 165.984 217.766 166.358 218.169C166.732 218.571 167.214 218.858 167.745 218.995C167.883 219.038 168.03 219.039 168.168 218.998C168.306 218.957 168.429 218.876 168.52 218.765C168.584 218.626 168.608 218.472 168.59 218.32L168.44 212.78" fill="black"/>
</g>
<path d="M184.7 233.135L181.8 215.87L193.39 212.81C195.72 213.445 197.78 215.34 198.89 217.86C200 220.38 199.53 224.665 198.655 227.32C200.967 227.244 203.278 227.514 205.51 228.12C207.665 228.855 209.75 230.405 209.435 233.055L184.7 233.135Z" fill="#DDAF89"/>
<path d="M184.7 233.135L181.8 215.87L193.39 212.81C195.72 213.445 197.78 215.34 198.89 217.86C200 220.38 199.53 224.665 198.655 227.32C200.967 227.244 203.278 227.514 205.51 228.12C207.665 228.855 209.78 230.49 209.465 233.12L184.7 233.135Z" fill="#DDAF89"/>
<g opacity="0.3">
<path d="M184.7 233.135L181.8 215.87L193.39 212.81C195.72 213.445 197.78 215.34 198.89 217.86C200 220.38 199.53 224.665 198.655 227.32C200.967 227.244 203.278 227.514 205.51 228.12C207.665 228.855 209.78 230.49 209.465 233.12L184.7 233.135Z" fill="black"/>
</g>
<path d="M223.125 198L232.21 189.945L233.865 193.445C233.865 193.445 224.96 208.755 223.42 208.535C221.88 208.315 217.695 202.26 212.96 204.905L209.46 200.94L214.76 189.94L223.115 198" fill="#DDAF89"/>
<path d="M173.935 233.135H202.13C201.995 226.59 197.23 227.315 197.23 227.315H190.73C194.295 225.315 195.33 220.2 195.33 220.2C202.135 218.375 207.58 210.305 207.58 210.305L212.885 199.35L213.16 203.305L215.61 198.305C217.92 189.455 211 176.5 211 176.5L216.445 176.655C216.445 173.76 212.905 173.76 210.32 173.155C207.735 172.55 208.69 169.195 208.69 169.195C208.69 169.195 214.81 169.96 217.26 167.065C219.71 164.17 218.485 160.065 218.485 160.065L209.64 161.13C208.415 159.76 204.06 157.785 201.2 158.545C198.34 159.305 193.035 163.415 192.085 165.695C191.135 167.975 190.72 175.285 190.235 181.525C189.75 187.765 185.82 191.87 182.285 195.83C178.75 199.79 173.55 202.545 170 206.805C168.895 208.14 168.345 210.435 168.115 212.965C167.538 219.501 169.205 226.038 172.84 231.5L173.935 233.135Z" fill="#DDAF89"/>
<path d="M213.465 194.58C213.465 194.805 213.635 228.115 213.635 228.115C213.635 228.115 219.955 228.615 220.82 233.115H209.47C209.47 233.115 202.5 212.675 200.35 210.945C198.595 209.662 196.711 208.565 194.73 207.67L197.9 206.335L195.735 203.595C195.735 203.595 196.735 204.75 198.045 202.875" fill="#DDAF89"/>
<path d="M199.96 162.24C199.979 162.327 199.987 162.416 199.985 162.505C199.985 162.71 199.985 162.96 199.985 163.265C199.985 163.965 199.985 164.915 199.985 166.065C199.985 167.215 199.985 168.665 199.985 170.215C199.999 171.038 199.968 171.861 199.89 172.68C199.816 173.574 199.564 174.444 199.15 175.24C198.707 176.047 197.968 176.65 197.09 176.925C196.269 177.158 195.396 177.132 194.59 176.85C193.865 176.61 193.215 176.189 192.7 175.625C192.262 175.13 191.923 174.557 191.7 173.935C191.39 173.04 191.279 172.088 191.375 171.145C191.396 170.891 191.434 170.639 191.49 170.39C191.502 170.302 191.527 170.216 191.565 170.135C191.59 170.135 191.51 170.495 191.475 171.135C191.42 172.06 191.556 172.985 191.875 173.855C192.095 174.449 192.426 174.995 192.85 175.465C193.346 175.992 193.967 176.385 194.655 176.61C195.41 176.864 196.224 176.883 196.99 176.665C197.806 176.408 198.49 175.845 198.9 175.095C199.297 174.33 199.54 173.494 199.615 172.635C199.694 171.826 199.729 171.013 199.72 170.2C199.745 168.645 199.765 167.245 199.78 166.05C199.795 164.855 199.825 163.95 199.84 163.25C199.84 162.945 199.865 162.695 199.87 162.49C199.888 162.403 199.918 162.319 199.96 162.24Z" fill="#263238"/>
<path d="M215.82 160.44C215.755 160.902 215.87 161.37 216.14 161.75C216.414 162.092 216.772 162.355 217.18 162.515C217.679 162.791 218.262 162.878 218.82 162.76C218.901 162.068 218.874 161.368 218.74 160.685C218.732 160.578 218.701 160.474 218.65 160.379C218.6 160.284 218.53 160.201 218.445 160.135C218.336 160.082 218.216 160.057 218.095 160.06C217.318 160.026 216.543 160.155 215.82 160.44Z" fill="#263238"/>
<path d="M230.345 192.165C231.32 190.92 232.225 189.77 233.135 189.165C234.083 188.481 235.226 188.121 236.395 188.14C236.976 188.155 237.543 188.314 238.047 188.603C238.55 188.892 238.974 189.301 239.28 189.795C239.572 190.298 239.689 190.883 239.613 191.459C239.537 192.035 239.272 192.57 238.86 192.98C238.161 193.564 237.271 193.872 236.36 193.845C235.869 193.863 235.387 193.715 234.99 193.425C234.786 193.233 234.652 192.977 234.61 192.7C234.568 192.422 234.621 192.139 234.76 191.895L233.72 193.73L230.345 192.165Z" fill="#DDAF89"/>
<path d="M213.465 226.08C213.395 226.08 213.375 218.955 213.42 210.175C213.465 201.395 213.565 194.275 213.635 194.275C213.705 194.275 213.73 201.395 213.68 210.18C213.63 218.965 213.535 226.08 213.465 226.08Z" fill="#263238"/>
<path d="M200.56 233.135C200.52 233.135 200.59 232.79 200.56 232.25C200.52 231.548 200.285 230.872 199.882 230.297C199.478 229.722 198.921 229.271 198.275 228.995C197.775 228.78 197.435 228.73 197.445 228.69C197.75 228.651 198.06 228.697 198.34 228.825C199.05 229.07 199.664 229.532 200.096 230.146C200.527 230.76 200.755 231.494 200.745 232.245C200.766 232.553 200.702 232.861 200.56 233.135Z" fill="#263238"/>
<path d="M182.58 212.715C182.657 212.671 182.737 212.634 182.82 212.605C183.053 212.504 183.292 212.417 183.535 212.345C184.427 212.068 185.352 211.908 186.285 211.87C187.681 211.807 189.075 212.046 190.37 212.57C191.97 213.202 193.348 214.293 194.33 215.705C194.826 216.445 195.175 217.274 195.36 218.145C195.519 218.959 195.544 219.793 195.435 220.615C195.256 222.003 194.741 223.326 193.935 224.47C193.373 225.216 192.731 225.898 192.02 226.505C191.775 226.725 191.575 226.885 191.44 227.005C191.375 227.066 191.303 227.118 191.225 227.16C191.278 227.089 191.339 227.024 191.405 226.965L191.95 226.44C192.626 225.811 193.24 225.12 193.785 224.375C194.548 223.245 195.029 221.949 195.19 220.595C195.288 219.801 195.26 218.995 195.105 218.21C194.924 217.37 194.584 216.573 194.105 215.86C193.15 214.489 191.815 213.425 190.265 212.8C188.998 212.277 187.635 212.026 186.265 212.065C185.341 212.085 184.423 212.214 183.53 212.45C182.93 212.61 182.59 212.74 182.58 212.715Z" fill="#263238"/>
<path d="M204 216.955C204 216.955 203.96 216.91 203.895 216.815L203.635 216.39C203.415 216.02 203.1 215.47 202.72 214.765C202.34 214.06 201.89 213.21 201.415 212.22C200.87 211.128 200.404 209.998 200.02 208.84L200.245 208.865C199.935 209.44 199.615 210.045 199.29 210.67L199.17 210.89L199.06 210.665C198.624 209.756 198.45 208.743 198.56 207.74C198.593 207.423 198.655 207.11 198.745 206.805L198.97 206.92L197.325 209.065L197.15 209.295L197.105 209.01C196.701 206.542 196.76 204.021 197.28 201.575C197.429 200.865 197.623 200.165 197.86 199.48C197.94 199.24 198.015 199.06 198.06 198.94C198.082 198.875 198.11 198.813 198.145 198.755C198.095 199.011 198.026 199.264 197.94 199.51C197.8 200.01 197.61 200.7 197.44 201.605C196.98 204.034 196.951 206.526 197.355 208.965L197.13 208.91L198.77 206.76L199.19 206.205L198.995 206.875C198.914 207.166 198.857 207.464 198.825 207.765C198.731 208.723 198.904 209.689 199.325 210.555H199.1L200.065 208.755L200.2 208.495L200.285 208.775C200.662 209.923 201.113 211.046 201.635 212.135C202.095 213.135 202.525 213.99 202.885 214.7L203.74 216.36C203.838 216.553 203.925 216.752 204 216.955Z" fill="#263238"/>
<path d="M219.235 233.135C219.195 233.135 219.16 232.795 218.98 232.275C218.755 231.602 218.368 230.994 217.854 230.504C217.34 230.014 216.714 229.657 216.03 229.465C215.505 229.315 215.16 229.295 215.16 229.255C215.463 229.188 215.778 229.2 216.075 229.29C216.811 229.446 217.489 229.803 218.035 230.32C218.579 230.838 218.967 231.498 219.155 232.225C219.258 232.517 219.285 232.83 219.235 233.135Z" fill="#263238"/>
<path d="M233.745 188.905C233.612 189.062 233.461 189.202 233.295 189.325L232 190.395C230.925 191.295 229.44 192.54 227.825 193.945C226.21 195.35 224.765 196.65 223.725 197.595L222.5 198.705C222.357 198.85 222.197 198.979 222.025 199.09C222.142 198.922 222.278 198.767 222.43 198.63C222.7 198.35 223.105 197.945 223.61 197.46C224.61 196.46 226.045 195.16 227.66 193.75C229.275 192.34 230.79 191.115 231.895 190.25C232.45 189.82 232.895 189.475 233.225 189.25C233.387 189.118 233.561 189.003 233.745 188.905Z" fill="#263238"/>
<path d="M236.61 191.705C236.585 191.735 236.46 191.635 236.24 191.555C235.954 191.453 235.641 191.453 235.355 191.555C235.073 191.666 234.837 191.868 234.685 192.13C234.565 192.335 234.535 192.49 234.495 192.485C234.455 192.48 234.425 192.315 234.52 192.055C234.582 191.883 234.68 191.727 234.809 191.598C234.938 191.469 235.094 191.37 235.265 191.309C235.437 191.247 235.62 191.224 235.802 191.242C235.983 191.259 236.159 191.317 236.315 191.41C236.555 191.53 236.635 191.685 236.61 191.705Z" fill="#263238"/>
<g opacity="0.3">
<path d="M213.46 204.5L216.23 204.105C216.422 204.095 216.606 204.029 216.76 203.915C217.005 203.69 216.95 203.295 216.875 202.975C216.187 200.151 215.114 197.436 213.685 194.905C213.43 198.24 213.335 201.59 213.41 204.935" fill="black"/>
</g>
<g opacity="0.3">
<path d="M197.53 199.245C196.47 200.984 195.76 202.914 195.44 204.925C195.287 205.93 195.342 206.956 195.6 207.94C195.858 208.923 196.314 209.844 196.94 210.645C197.628 211.38 198.408 212.024 199.26 212.56L201.655 214.21C201.762 212.398 201.153 210.617 199.96 209.25C199.775 209.75 199.595 210.275 199.41 210.785C199.015 210.289 198.737 209.711 198.596 209.093C198.455 208.475 198.455 207.833 198.595 207.215L196.945 209C196.931 205.743 197.239 202.492 197.865 199.295" fill="black"/>
</g>
<g opacity="0.3">
<path d="M191.465 171.7C191.515 173.26 191.74 174.995 192.655 176.265C193.096 176.914 193.702 177.433 194.41 177.768C195.119 178.104 195.904 178.245 196.685 178.175C198.585 177.9 199.955 176.075 200.325 174.175C200.695 172.275 200.285 170.35 199.87 168.475C199.97 170.225 200.06 172.03 199.455 173.675C198.85 175.32 197.375 176.78 195.62 176.78C195.011 176.76 194.415 176.595 193.882 176.297C193.35 176 192.896 175.579 192.56 175.07C191.83 174.094 191.445 172.903 191.465 171.685" fill="black"/>
</g>
<g opacity="0.3">
<path d="M189.235 179.785C190.085 184.445 194.92 187.785 199.165 189.945C203.41 192.105 208.135 193.2 212.875 193.755C213.804 193.887 214.743 193.933 215.68 193.89C216.25 193.845 216.945 193.62 217.02 193.055C217.095 192.49 216.425 192.055 215.855 191.835C209.688 189.439 203.676 186.66 197.855 183.515C195.225 182.09 192.575 180.575 189.645 179.965" fill="black"/>
</g>
<path d="M189.47 176.79C189.221 176.831 188.976 176.889 188.735 176.965C188.466 177.075 188.232 177.256 188.058 177.488C187.883 177.72 187.774 177.994 187.742 178.283C187.71 178.572 187.757 178.863 187.877 179.128C187.997 179.392 188.187 179.619 188.425 179.785C188.643 179.909 188.868 180.02 189.1 180.115C188.829 180.161 188.55 180.098 188.325 179.94C188.066 179.789 187.851 179.574 187.7 179.315C187.517 178.992 187.44 178.62 187.48 178.251C187.521 177.882 187.676 177.535 187.925 177.26C188.131 177.042 188.389 176.88 188.675 176.79C188.801 176.736 188.936 176.708 189.073 176.708C189.209 176.708 189.345 176.736 189.47 176.79Z" fill="#263238"/>
<path d="M189.35 178.85C189.28 178.85 189.13 178.415 188.78 177.955C188.43 177.495 188.045 177.225 188.085 177.155C188.125 177.085 188.61 177.285 188.99 177.8C189.37 178.315 189.42 178.845 189.35 178.85Z" fill="#263238"/>
<path d="M189 178.15C189.05 178.2 188.825 178.485 188.45 178.71C188.075 178.935 187.72 179 187.7 178.93C187.68 178.86 187.965 178.7 188.315 178.485C188.665 178.27 188.94 178.095 189 178.15Z" fill="#263238"/>
<path d="M187.17 178.625C186.897 178.651 186.627 178.704 186.365 178.785C185.757 179.057 185.229 179.482 184.835 180.02C184.242 180.785 183.581 181.494 182.86 182.14C183.384 181.325 183.98 180.559 184.64 179.85C185.057 179.278 185.638 178.845 186.305 178.61C186.443 178.554 186.591 178.526 186.739 178.528C186.888 178.531 187.035 178.564 187.17 178.625Z" fill="#263238"/>
<path d="M187 181.105C186.955 181.045 187.26 180.76 187.58 180.37C187.9 179.98 188.125 179.635 188.19 179.665C188.255 179.695 188.125 180.12 187.78 180.535C187.435 180.95 187 181.16 187 181.105Z" fill="#263238"/>
<path d="M186.71 180.095C186.71 180.025 186.97 179.9 187.31 179.76C187.65 179.62 187.94 179.52 187.98 179.585C188.02 179.65 187.77 179.855 187.41 180.005C187.05 180.155 186.725 180.165 186.71 180.095Z" fill="#263238"/>
<path d="M185.795 177.12C185.795 177.05 186.25 176.895 186.845 176.98C187.44 177.065 187.845 177.34 187.82 177.395C187.795 177.45 187.36 177.31 186.82 177.24C186.28 177.17 185.805 177.195 185.795 177.12Z" fill="#263238"/>
<path d="M186.5 176.045C186.5 175.975 187 176.005 187.425 176.385C187.85 176.765 187.925 177.245 187.87 177.255C187.815 177.265 187.625 176.905 187.25 176.58C186.875 176.255 186.46 176.12 186.5 176.045Z" fill="#263238"/>
<path d="M189.235 179.785C190.285 182 191.84 183.285 193.735 184.785C199.427 189.455 206.356 192.366 213.675 193.16C214.301 193.251 214.938 193.239 215.56 193.125C215.869 193.066 216.162 192.943 216.421 192.764C216.679 192.585 216.897 192.354 217.06 192.085C217.445 191.385 217.295 190.525 217.115 189.75C216.599 187.47 215.931 185.226 215.115 183.035C215.061 182.852 214.971 182.682 214.85 182.535C214.455 182.125 214.31 182.135 213.77 182.335C209.865 183.77 204.965 183.305 200.965 182.14C196.965 180.975 193.42 179.37 189.29 178.85L189.235 179.785Z" fill="#455A64"/>
<path d="M215.64 184.68L215.36 184.73L214.565 184.865C214.22 184.925 213.795 184.995 213.3 185.04C212.805 185.085 212.24 185.17 211.61 185.195C210.98 185.22 210.3 185.28 209.56 185.27C208.82 185.26 208.03 185.27 207.2 185.22C205.402 185.103 203.615 184.863 201.85 184.5C200.089 184.121 198.356 183.62 196.665 183C195.89 182.695 195.165 182.42 194.485 182.1C193.805 181.78 193.195 181.495 192.64 181.205C192.085 180.915 191.59 180.63 191.14 180.38C190.69 180.13 190.345 179.91 190.05 179.71L189.375 179.27L189.145 179.11L189.39 179.25L190.075 179.68C190.37 179.87 190.735 180.095 191.17 180.33C191.605 180.565 192.09 180.87 192.67 181.14C193.25 181.41 193.84 181.735 194.52 182.02C195.2 182.305 195.925 182.61 196.7 182.91C198.387 183.528 200.114 184.029 201.87 184.41C203.632 184.769 205.416 185.008 207.21 185.125C208.035 185.16 208.82 185.21 209.56 185.19C210.3 185.17 210.98 185.165 211.605 185.125C212.23 185.085 212.795 185.035 213.29 184.985C213.785 184.935 214.215 184.885 214.56 184.83L215.36 184.715C215.54 184.685 215.64 184.68 215.64 184.68Z" fill="#E0E0E0"/>
<path d="M216.955 188.68C216.955 188.68 216.535 188.765 215.76 188.88C214.669 189.031 213.571 189.123 212.47 189.155C205.121 189.377 197.933 186.969 192.2 182.365C191.34 181.678 190.518 180.944 189.74 180.165C189.19 179.61 188.905 179.285 188.905 179.285L189.13 179.505C189.28 179.645 189.485 179.87 189.765 180.135C190.325 180.68 191.155 181.44 192.265 182.31C198.007 186.863 205.164 189.259 212.49 189.08C213.589 189.056 214.685 188.976 215.775 188.84C216.165 188.795 216.46 188.74 216.665 188.715L216.955 188.68Z" fill="#E0E0E0"/>
<path d="M192.385 183.5C192.385 183.5 192.385 183.445 192.34 183.345C192.314 183.205 192.297 183.063 192.29 182.92C192.262 182.447 192.313 181.972 192.44 181.515C192.571 181.058 192.776 180.626 193.045 180.235C193.129 180.118 193.219 180.006 193.315 179.9C193.385 179.825 193.425 179.79 193.43 179.795C193.435 179.8 193.3 179.975 193.11 180.295C192.86 180.689 192.668 181.116 192.54 181.565C192.417 182.013 192.356 182.476 192.36 182.94C192.365 183.295 192.4 183.5 192.385 183.5Z" fill="#E0E0E0"/>
<path d="M190.345 181.71C190.324 181.581 190.324 181.449 190.345 181.32C190.395 181.009 190.479 180.703 190.595 180.41C190.711 180.118 190.859 179.84 191.035 179.58C191.103 179.467 191.189 179.366 191.29 179.28C191.069 179.659 190.868 180.049 190.69 180.45C190.554 180.864 190.439 181.285 190.345 181.71Z" fill="#E0E0E0"/>
<path d="M195.05 185.765C195.112 185.513 195.187 185.264 195.275 185.02C195.646 183.823 195.856 182.582 195.9 181.33C195.9 180.83 195.9 180.55 195.93 180.55C195.949 180.618 195.957 180.689 195.955 180.76C195.955 180.895 195.955 181.09 195.955 181.33C195.952 181.96 195.897 182.589 195.79 183.21C195.685 183.832 195.53 184.444 195.325 185.04C195.245 185.27 195.175 185.45 195.12 185.575C195.102 185.64 195.078 185.703 195.05 185.765Z" fill="#E0E0E0"/>
<path d="M199.5 188.725C199.462 188.641 199.43 188.554 199.405 188.465C199.35 188.295 199.285 188.045 199.215 187.735C198.868 186.103 198.923 184.411 199.375 182.805C199.439 182.562 199.518 182.323 199.61 182.09C199.636 182.002 199.673 181.918 199.72 181.84C199.703 181.93 199.677 182.019 199.645 182.105C199.59 182.275 199.52 182.52 199.445 182.825C199.244 183.624 199.129 184.442 199.1 185.265C199.075 186.088 199.138 186.911 199.29 187.72C199.345 188.03 199.4 188.28 199.445 188.455C199.471 188.543 199.489 188.634 199.5 188.725Z" fill="#E0E0E0"/>
<path d="M204.385 191C204.334 190.904 204.295 190.801 204.27 190.695C204.205 190.495 204.12 190.195 204.025 189.835C203.781 188.88 203.606 187.91 203.5 186.93C203.399 185.95 203.367 184.964 203.405 183.98C203.405 183.605 203.445 183.3 203.47 183.09C203.476 182.981 203.49 182.872 203.51 182.765C203.523 182.873 203.523 182.982 203.51 183.09C203.51 183.3 203.51 183.59 203.48 183.985C203.441 185.946 203.647 187.905 204.095 189.815C204.18 190.185 204.255 190.48 204.31 190.68C204.342 190.785 204.367 190.892 204.385 191Z" fill="#E0E0E0"/>
<path d="M208.275 183.19C208.328 183.308 208.365 183.432 208.385 183.56C208.447 183.912 208.447 184.273 208.385 184.625C208.32 185.07 208.16 185.585 208.075 186.165C208.008 186.471 208.003 186.788 208.061 187.096C208.118 187.405 208.237 187.698 208.41 187.96C208.632 188.203 208.878 188.423 209.145 188.615C209.404 188.804 209.603 189.064 209.715 189.365C209.833 189.891 209.755 190.442 209.495 190.915C209.31 191.325 209.15 191.645 209.075 191.885C209 192.125 208.98 192.255 208.97 192.255C208.977 192.125 208.998 191.995 209.035 191.87C209.144 191.528 209.276 191.194 209.43 190.87C209.673 190.41 209.742 189.877 209.625 189.37C209.513 189.09 209.324 188.847 209.08 188.67C208.807 188.474 208.555 188.25 208.33 188C208.148 187.727 208.023 187.421 207.962 187.098C207.902 186.776 207.908 186.445 207.98 186.125C208.075 185.535 208.24 185.025 208.315 184.59C208.385 184.246 208.402 183.894 208.365 183.545C208.315 183.32 208.265 183.19 208.275 183.19Z" fill="#E0E0E0"/>
<path d="M215.1 193.2C215.236 193.134 215.356 193.039 215.45 192.92C215.562 192.748 215.635 192.554 215.665 192.351C215.694 192.148 215.679 191.941 215.62 191.745C215.396 191.173 215.034 190.667 214.565 190.27C214.306 190.006 214.084 189.708 213.905 189.385C213.72 189.034 213.584 188.658 213.5 188.27C213.358 187.523 213.261 186.768 213.21 186.01C213.159 185.397 213.028 184.794 212.82 184.215C212.674 183.827 212.461 183.468 212.19 183.155C211.99 182.94 211.855 182.845 211.86 182.835C211.99 182.92 212.111 183.019 212.22 183.13C212.509 183.437 212.735 183.797 212.885 184.19C213.109 184.771 213.25 185.38 213.305 186C213.362 186.753 213.46 187.503 213.6 188.245C213.749 188.984 214.108 189.665 214.635 190.205C215.107 190.609 215.47 191.124 215.69 191.705C215.749 191.91 215.761 192.126 215.725 192.337C215.688 192.547 215.605 192.747 215.48 192.92C215.409 193.011 215.318 193.084 215.215 193.135C215.14 193.19 215.105 193.205 215.1 193.2Z" fill="#E0E0E0"/>
<path d="M187.79 179.865C187.768 179.939 187.736 180.01 187.695 180.075C187.596 180.251 187.482 180.418 187.355 180.575C186.935 181.123 186.387 181.561 185.76 181.85C185.134 182.137 184.448 182.27 183.76 182.24C183.553 182.23 183.347 182.202 183.145 182.155C183 182.125 182.92 182.1 182.925 182.09C182.93 182.08 183.245 182.155 183.765 182.165C184.441 182.178 185.111 182.038 185.725 181.755C186.339 181.472 186.881 181.053 187.31 180.53C187.63 180.15 187.77 179.855 187.79 179.865Z" fill="#E0E0E0"/>
<path d="M186.465 182.935C186.518 182.311 186.374 181.687 186.054 181.149C185.734 180.611 185.254 180.186 184.68 179.935C184.68 179.935 184.735 179.935 184.825 179.97C184.954 180.017 185.077 180.076 185.195 180.145C185.586 180.375 185.913 180.7 186.145 181.09C186.378 181.48 186.508 181.922 186.525 182.375C186.535 182.51 186.535 182.645 186.525 182.78C186.5 182.885 186.5 182.94 186.465 182.935Z" fill="#E0E0E0"/>
<path d="M188.5 182.075C188.5 182.075 188.5 181.82 188.39 181.425C188.274 180.913 188.043 180.433 187.716 180.022C187.389 179.611 186.973 179.279 186.5 179.05C186.135 178.875 185.885 178.82 185.89 178.805C185.951 178.804 186.012 178.812 186.07 178.83C186.228 178.869 186.381 178.921 186.53 178.985C187.027 179.201 187.464 179.534 187.805 179.955C188.138 180.381 188.366 180.879 188.47 181.41C188.5 181.575 188.515 181.742 188.515 181.91C188.516 181.965 188.511 182.021 188.5 182.075Z" fill="#E0E0E0"/>
<path d="M185.23 175.065C185.127 175.205 184.986 175.314 184.825 175.38C184.545 175.535 184.11 175.615 183.695 175.825C183.195 176.1 182.769 176.493 182.455 176.97C182.509 176.807 182.594 176.656 182.705 176.525C182.953 176.191 183.275 175.919 183.645 175.73C184.085 175.515 184.52 175.445 184.795 175.315C184.945 175.241 185.091 175.158 185.23 175.065Z" fill="#E0E0E0"/>
<path d="M188 175.18C187.991 175.257 187.971 175.333 187.94 175.405C187.873 175.603 187.789 175.795 187.69 175.98C187.041 177.222 185.927 178.157 184.59 178.58C184.392 178.646 184.187 178.694 183.98 178.725L183.755 178.75C183.755 178.75 184.075 178.68 184.57 178.51C185.866 178.053 186.951 177.142 187.625 175.945C187.87 175.5 188 175.175 188 175.18Z" fill="#E0E0E0"/>
<path d="M187.215 178C187.215 178 187.135 177.97 187.005 177.895L186.445 177.565L184.6 176.5L182.735 175.46L182.17 175.15C182.1 175.115 182.033 175.073 181.97 175.025C182.047 175.047 182.12 175.077 182.19 175.115L182.77 175.395C183.27 175.645 183.925 175.995 184.65 176.395C185.375 176.795 186.025 177.2 186.485 177.495L187.025 177.85C187.094 177.893 187.157 177.943 187.215 178Z" fill="#E0E0E0"/>
<path d="M176 202.545C176.198 202.085 176.476 201.664 176.82 201.3C177.089 200.885 177.427 200.52 177.82 200.22C177.622 200.68 177.344 201.101 177 201.465C176.731 201.88 176.393 202.245 176 202.545Z" fill="#263238"/>
<path d="M176.65 202.765C176.59 202.72 176.8 202.325 177.11 201.88C177.42 201.435 177.725 201.11 177.785 201.15C177.845 201.19 177.64 201.585 177.325 202.03C177.01 202.475 176.71 202.805 176.65 202.765Z" fill="#263238"/>
<path d="M178.325 203.035C178.25 203.035 178.235 202.665 178.29 202.22C178.345 201.775 178.44 201.43 178.515 201.44C178.59 201.45 178.6 201.81 178.55 202.255C178.5 202.7 178.395 203.045 178.325 203.035Z" fill="#263238"/>
<path d="M191.565 193.715C191.421 193.351 191.362 192.96 191.39 192.57C191.334 192.182 191.363 191.786 191.475 191.41C191.619 191.775 191.679 192.168 191.65 192.56C191.707 192.947 191.678 193.341 191.565 193.715Z" fill="#263238"/>
<path d="M192.5 194C192.26 193.655 192.109 193.255 192.06 192.838C192.011 192.42 192.066 191.996 192.22 191.605C192.276 192.004 192.307 192.407 192.315 192.81C192.405 193.202 192.467 193.599 192.5 194Z" fill="#263238"/>
<path d="M193.895 194.245C193.571 193.939 193.315 193.569 193.143 193.158C192.971 192.747 192.886 192.305 192.895 191.86C193.096 192.243 193.264 192.643 193.395 193.055C193.596 193.437 193.763 193.835 193.895 194.245Z" fill="#263238"/>
<path d="M204.46 180.125C204.43 180.19 203.96 179.995 203.595 179.485C203.23 178.975 203.215 178.45 203.285 178.45C203.355 178.45 203.485 178.88 203.785 179.335C204.085 179.79 204.5 180.06 204.46 180.125Z" fill="#263238"/>
<path d="M205.165 179.955C205.135 180.02 204.765 179.895 204.445 179.55C204.125 179.205 204.035 178.825 204.1 178.8C204.165 178.775 204.35 179.07 204.635 179.375C204.92 179.68 205.2 179.89 205.165 179.955Z" fill="#263238"/>
<path d="M206.585 180.13C206.56 180.195 206.01 179.98 205.515 179.46C205.188 179.175 204.969 178.787 204.895 178.36C204.965 178.325 205.24 178.8 205.705 179.28C206.17 179.76 206.625 180.065 206.585 180.13Z" fill="#263238"/>
<path d="M193.845 169.57C193.77 169.57 193.675 169.225 193.635 168.785C193.595 168.345 193.635 167.98 193.68 167.97C193.725 167.96 193.845 168.315 193.89 168.76C193.935 169.205 193.915 169.565 193.845 169.57Z" fill="#263238"/>
<path d="M194.6 169.21C194.535 169.24 194.34 168.88 194.29 168.39C194.24 167.9 194.355 167.515 194.42 167.525C194.485 167.535 194.5 167.91 194.55 168.365C194.6 168.82 194.67 169.185 194.6 169.21Z" fill="#263238"/>
<path d="M195.4 169.565C195.34 169.6 195.065 169.21 194.935 168.645C194.814 168.312 194.814 167.948 194.935 167.615C195.01 167.615 195.055 168.06 195.18 168.585C195.305 169.11 195.47 169.53 195.4 169.565Z" fill="#263238"/>
<path d="M178.155 221.06C178.163 220.146 178.343 219.242 178.685 218.395C178.729 218.851 178.683 219.311 178.55 219.75C178.5 220.207 178.366 220.651 178.155 221.06Z" fill="#263238"/>
<path d="M179 220.265C178.93 220.265 178.93 219.92 179 219.53C179.07 219.14 179.19 218.83 179.26 218.845C179.33 218.86 179.33 219.185 179.26 219.575C179.19 219.965 179.045 220.275 179 220.265Z" fill="#263238"/>
<path d="M148.88 193.755C148.805 193.755 148.88 192.855 148.69 191.785C148.5 190.715 148.105 189.91 148.19 189.875C148.613 190.414 148.879 191.059 148.96 191.74C149.122 192.406 149.094 193.104 148.88 193.755Z" fill="#263238"/>
<path d="M218.77 163.445C218.778 163.597 218.761 163.749 218.72 163.895C218.638 164.298 218.524 164.695 218.38 165.08C218.167 165.656 217.892 166.208 217.56 166.725C217.151 167.368 216.607 167.914 215.965 168.325C215.314 168.711 214.605 168.989 213.865 169.15C212.87 169.385 211.846 169.479 210.825 169.43C210.673 169.431 210.521 169.411 210.375 169.37C210.375 169.325 211.02 169.345 212.04 169.235C212.637 169.172 213.229 169.065 213.81 168.915C214.513 168.745 215.187 168.472 215.81 168.105C216.418 167.715 216.938 167.205 217.34 166.605C217.672 166.108 217.956 165.58 218.19 165.03C218.605 164.07 218.725 163.435 218.77 163.445Z" fill="#263238"/>
<path d="M206.085 163.265C205.87 163.272 205.666 163.364 205.518 163.519C205.37 163.675 205.289 163.883 205.293 164.098C205.296 164.313 205.384 164.518 205.538 164.669C205.691 164.82 205.897 164.905 206.112 164.905C206.328 164.905 206.534 164.82 206.687 164.669C206.841 164.518 206.929 164.313 206.932 164.098C206.936 163.883 206.855 163.675 206.707 163.519C206.558 163.364 206.355 163.272 206.14 163.265" fill="#263238"/>
<path d="M203 163.84C202.9 163.865 202.76 163.72 202.67 163.435C202.571 163.055 202.586 162.654 202.713 162.282C202.84 161.911 203.074 161.585 203.385 161.345C203.63 161.17 203.83 161.145 203.885 161.23C204.015 161.405 203.655 161.885 203.445 162.535C203.235 163.185 203.23 163.775 203 163.84Z" fill="#263238"/>
<path d="M186.325 191.125C184.784 192.808 182.829 194.059 180.655 194.755C181.056 195.023 181.524 195.173 182.005 195.19C181.158 195.71 180.228 196.08 179.255 196.285C179.895 196.595 180.602 196.74 181.312 196.708C182.022 196.676 182.713 196.467 183.322 196.101C183.931 195.734 184.439 195.222 184.8 194.61C185.161 193.998 185.364 193.305 185.39 192.595" fill="#DDAF89"/>
<path d="M139.05 184.355C138.934 184.166 138.841 183.962 138.775 183.75C138.669 183.505 138.578 183.255 138.5 183C138.415 182.71 138.295 182.38 138.215 182C137.998 181.127 137.856 180.237 137.79 179.34C137.63 177.14 137.909 174.931 138.61 172.84C138.9 171.988 139.259 171.162 139.685 170.37C139.855 170.025 140.055 169.74 140.21 169.48C140.346 169.258 140.493 169.043 140.65 168.835C140.771 168.653 140.912 168.486 141.07 168.335C141.115 168.365 140.54 169.12 139.85 170.47C139.454 171.263 139.119 172.085 138.85 172.93C138.524 173.966 138.287 175.029 138.14 176.105C138.014 177.183 137.98 178.271 138.04 179.355C138.094 180.241 138.216 181.122 138.405 181.99C138.73 183.465 139.1 184.34 139.05 184.355Z" fill="#263238"/>
<path d="M135.32 182.25C135.241 182.126 135.18 181.991 135.14 181.85C134.995 181.478 134.879 181.095 134.795 180.705C134.204 178.116 134.494 175.405 135.62 173C135.788 172.638 135.982 172.289 136.2 171.955C136.355 171.72 136.45 171.595 136.465 171.605C136.48 171.615 136.18 172.16 135.79 173.075C134.78 175.472 134.505 178.116 135 180.67C135.16 181.645 135.365 182.235 135.32 182.25Z" fill="#263238"/>
<path d="M170.045 183.245C169.985 183.245 170.095 182.34 169.955 180.89C169.921 180.495 169.864 180.103 169.785 179.715C169.72 179.295 169.595 178.855 169.475 178.395C168.902 176.388 167.899 174.53 166.535 172.95C166.21 172.595 165.915 172.25 165.595 171.95C165.314 171.671 165.019 171.407 164.71 171.16C163.575 170.25 162.755 169.85 162.785 169.8C162.986 169.869 163.178 169.96 163.36 170.07C163.583 170.182 163.798 170.309 164.005 170.45C164.287 170.623 164.559 170.811 164.82 171.015C165.143 171.255 165.452 171.514 165.745 171.79C166.086 172.106 166.41 172.44 166.715 172.79C167.409 173.591 168.017 174.462 168.53 175.39C169.025 176.325 169.419 177.311 169.705 178.33C169.828 178.774 169.926 179.225 170 179.68C170.07 180.075 170.117 180.474 170.14 180.875C170.18 181.24 170.165 181.575 170.17 181.875C170.174 182.124 170.161 182.373 170.13 182.62C170.121 182.831 170.093 183.04 170.045 183.245Z" fill="#263238"/>
</svg>
