<svg width="170" height="170" viewBox="0 0 170 170" fill="none" xmlns="http://www.w3.org/2000/svg">
<g clip-path="url(#clip0_223_13472)">
<path d="M40.9459 139.502C37.4777 139.502 33.9006 138.704 30.0848 137.145C27.0084 135.889 25.5324 132.376 26.7892 129.3C28.0447 126.223 31.5569 124.747 34.6347 126.004C40.2831 128.31 45.4218 129.213 55.6927 118.352C57.9767 115.937 61.7847 115.831 64.1997 118.115C66.6134 120.397 66.7197 124.207 64.437 126.62C56.1713 135.362 48.842 139.502 40.9459 139.502Z" fill="#495059"/>
<path d="M99.8854 161.478C98.2382 161.478 96.5806 160.939 95.1941 159.832C91.9491 157.238 91.4212 152.505 94.0139 149.26C97.3186 145.125 98.7583 141.418 98.067 138.821C97.4444 136.479 95.1604 135.351 94.2084 134.974C90.3447 133.447 88.4511 129.077 89.9776 125.214C91.5055 121.35 95.8751 119.456 99.7375 120.984C106.237 123.552 110.927 128.643 112.605 134.953C113.984 140.136 113.916 148.453 105.766 158.652C104.281 160.51 102.093 161.478 99.8854 161.478Z" fill="#DDAF89"/>
<path d="M59.5443 156.418C57.3368 156.418 55.1501 155.451 53.6637 153.592C45.5134 143.394 45.446 135.075 46.826 129.893C48.5043 123.584 53.1942 118.493 59.6922 115.923C63.5559 114.396 67.9255 116.291 69.4521 120.153C70.9799 124.017 69.0863 128.386 65.2226 129.913C64.2693 130.29 61.9866 131.419 61.3627 133.761C60.6727 136.358 62.1111 140.066 65.4158 144.199C68.0098 147.444 67.4806 152.178 64.2368 154.772C62.8491 155.879 61.1915 156.418 59.5443 156.418Z" fill="#DDAF89"/>
<path d="M38.3849 110.404C30.2579 110.404 22.9338 107.947 14.825 102.737C11.3309 100.491 10.3179 95.8373 12.5643 92.3432C14.8094 88.8478 19.463 87.8362 22.9584 90.0813C30.9946 95.2459 36.9647 96.3938 45.7726 94.469C49.8296 93.5845 53.8399 96.1525 54.727 100.211C55.6142 104.269 53.0422 108.278 48.9839 109.165C45.2395 109.984 41.7441 110.404 38.3849 110.404Z" fill="#DDAF89"/>
<path d="M117.879 115.114C114.962 115.114 111.838 115.007 108.366 114.704C104.227 114.342 101.166 110.694 101.528 106.555C101.89 102.416 105.542 99.3618 109.677 99.7172C116.325 100.298 121.539 100.047 127.059 99.7794C130.04 99.6355 133.12 99.4863 136.372 99.4863C140.526 99.4863 143.894 102.853 143.894 107.008C143.894 111.162 140.526 114.529 136.372 114.529C133.485 114.529 130.717 114.662 127.787 114.805C124.625 114.958 121.405 115.114 117.879 115.114Z" fill="#DDAF89"/>
<path d="M45.772 94.4673C43.0275 95.0665 40.5594 95.3674 38.2183 95.3428C37.7968 97.0574 37.5049 98.8096 37.3493 100.589C37.0588 103.906 37.2455 107.195 37.8798 110.392C38.0484 110.394 38.2157 110.402 38.3843 110.402C41.7422 110.402 45.2389 109.982 48.9833 109.164C53.0416 108.278 55.6123 104.269 54.7251 100.209C53.8393 96.1508 49.829 93.5828 45.772 94.4673Z" fill="#D1A582"/>
<path d="M59.6919 115.922C53.7193 118.282 49.2823 122.777 47.2979 128.386C51.3704 132.727 56.3457 136.116 61.8864 138.392C61.2029 136.628 61.0175 135.055 61.3625 133.759C61.985 131.417 64.269 130.287 65.2223 129.911C69.0848 128.384 70.9784 124.015 69.4518 120.151C67.9253 116.289 63.5557 114.394 59.6919 115.922Z" fill="#D1A582"/>
<path d="M99.7375 120.984C95.8751 119.456 91.5055 121.35 89.9776 125.214C88.4511 129.077 90.3447 133.447 94.2084 134.974C94.9736 135.277 96.5988 136.067 97.5313 137.582C100.592 136.129 103.46 134.312 106.056 132.154C107.357 131.072 108.57 129.921 109.693 128.709C107.33 125.325 103.91 122.633 99.7375 120.984Z" fill="#D1A582"/>
<path d="M117.644 115.112C118.393 112.73 118.889 110.264 119.109 107.741C119.336 105.137 119.266 102.568 118.924 100.063C116.059 100.09 113.052 100.011 109.676 99.7156C105.541 99.3602 101.889 102.415 101.527 106.553C101.165 110.691 104.226 114.341 108.365 114.702C111.745 114.998 114.794 115.106 117.644 115.112Z" fill="#D1A582"/>
<path d="M114.754 107.367C116.351 89.1232 101.291 72.9017 81.1167 71.1351C60.9432 69.3699 43.2937 82.7277 41.6971 100.973C40.1005 119.217 55.1599 135.439 75.3334 137.204C95.5081 138.971 113.156 125.612 114.754 107.367Z" fill="#DDAF89"/>
<path d="M113.077 85.8413C103.474 92.4871 91.5862 95.9475 79.0443 94.8502C66.5036 93.753 55.3962 88.2796 47.0941 80.0684C44.9748 82.3679 43.1525 84.9126 41.6999 87.6636C39.7207 91.4132 40.8374 96.0564 44.2926 98.5143C53.8048 105.277 65.1859 109.675 77.6526 110.766C90.1193 111.856 102.092 109.501 112.633 104.493C116.463 102.674 118.369 98.2938 117.071 94.2588C116.118 91.2952 114.765 88.4729 113.077 85.8413Z" fill="#7F9AE6"/>
<path d="M62.6477 90.6583C56.7982 88.0825 51.5441 84.4691 47.0941 80.0684C44.9748 82.3679 43.1525 84.9126 41.6999 87.6636C39.7207 91.4132 40.8374 96.0564 44.2926 98.5143C49.238 102.03 54.6932 104.901 60.54 107.006C58.7294 102.407 59.9305 95.8463 62.6477 90.6583Z" fill="#5E78BF"/>
<path d="M73.477 37.4618C71.953 37.1933 70.4965 36.4579 69.3383 35.2595L61.3125 26.9483C57.7976 23.3102 52.3191 22.5943 47.9871 25.2103L41.0327 29.4087C37.4413 31.5773 32.7708 30.4243 30.6022 26.8329C28.4337 23.2415 29.588 18.571 33.1794 16.4024L40.1338 12.2027C45.1493 9.17555 51.1103 7.92524 56.9208 8.68269C62.7301 9.44143 68.171 12.1794 72.2409 16.3933L80.2667 24.7032C83.1811 27.7213 83.0981 32.5306 80.08 35.4449C78.2616 37.2024 75.7908 37.869 73.477 37.4618Z" fill="#495059"/>
<path d="M101.615 42.422C99.3014 42.0147 97.2081 40.5426 96.1004 38.269C94.2613 34.4973 95.8281 29.9501 99.5984 28.1109L109.983 23.0475C115.249 20.4807 121.298 19.7699 127.017 21.0423C132.734 22.3172 137.909 25.5299 141.586 30.0914L146.686 36.4169C149.319 39.6827 148.805 44.4661 145.539 47.099C142.273 49.7319 137.49 49.2183 134.857 45.9524L129.759 39.627C126.582 35.6893 121.19 34.487 116.642 36.7048L106.259 41.7683C104.76 42.4985 103.139 42.6918 101.615 42.422Z" fill="#495059"/>
<path d="M77.0981 99.1959C115.077 105.892 135.26 91.5125 134.238 66.0732C133.14 38.7351 117.599 21.1362 91.6685 16.5642C65.7364 11.9923 45.1155 23.2139 34.7331 48.5274C25.0717 72.0835 39.1195 92.4995 77.0981 99.1959Z" fill="#DDAF89"/>
<path d="M87.7816 112.053C87.7816 117.71 83.1967 122.295 77.5392 122.295C71.883 122.295 67.2969 117.71 67.2969 112.053C67.2969 106.397 71.883 101.811 77.5392 101.811C83.1967 101.811 87.7816 106.397 87.7816 112.053Z" fill="#F6E06A"/>
<path d="M63.9272 61.1845C64.35 56.3532 59.7755 52.007 53.7095 51.4752C47.6422 50.9447 42.3816 54.4311 41.9587 59.2611C41.5359 64.0924 46.1117 68.4399 52.1778 68.9704C58.2438 69.5009 63.5044 66.0158 63.9272 61.1845Z" fill="#FFDBDB"/>
<path d="M103.606 64.6459C103.183 69.4772 107.759 73.8234 113.825 74.3552C119.891 74.8857 125.152 71.4006 125.575 66.5693C125.998 61.738 121.423 57.3918 115.357 56.86C109.29 56.3295 104.029 59.8146 103.606 64.6459Z" fill="#FFDBDB"/>
<path d="M90.1601 56.1919C86.4702 54.8728 82.5014 54.5252 78.6389 55.1841C77.0384 55.4565 75.5923 56.2995 74.5664 57.5563C73.1799 59.2554 73.6688 61.7936 75.5871 62.8545L80.9061 65.8C82.4897 66.6768 84.3716 66.8415 86.0837 66.2527L91.8332 64.2761C93.9058 63.564 94.828 61.149 93.7593 59.2359C92.9668 57.8196 91.688 56.7379 90.1601 56.1919Z" fill="#495059"/>
<path d="M82.5665 76.2124C77.3552 75.7571 73.0413 71.6288 69.721 75.9634C66.3527 80.3602 72.3513 88.159 81.4511 88.9554C90.5521 89.7517 97.8139 83.1124 95.2602 78.1981C92.744 73.3525 87.7778 76.6689 82.5665 76.2124Z" fill="#D16283"/>
<path d="M71.2129 84.1447C73.4606 86.5908 77.0999 88.5739 81.4514 88.9553C85.8041 89.3366 89.7327 88.0136 92.3708 85.9955C89.6224 84.0124 86.0401 82.6506 82.0337 82.3004C78.0286 81.9502 74.2647 82.6687 71.2129 84.1447Z" fill="#EB9898"/>
<path d="M13.3152 83.4149C14.1971 83.5562 15.0804 83.6263 15.9571 83.6263C19.389 83.6263 22.7261 82.5536 25.5614 80.5018C26.6768 79.6951 26.9258 78.1387 26.1204 77.0246C25.3149 75.9104 23.7573 75.6601 22.6431 76.4655C20.1607 78.2619 17.1283 78.9817 14.105 78.4979C11.0804 78.0116 8.42549 76.3773 6.63045 73.8962C5.27249 72.0181 4.72646 69.7251 5.09351 67.4359C5.46056 65.1479 6.69789 63.1402 8.57464 61.7822C11.4527 59.6993 15.4889 60.3478 17.5706 63.2258C18.2995 64.2336 18.5926 65.4644 18.3955 66.6927C18.1983 67.9209 17.5356 68.9974 16.5278 69.7276C15.8287 70.2322 15.0103 70.4138 14.3917 70.1985C13.9196 70.0363 13.6044 69.655 13.428 69.0338C13.0493 67.7121 11.6706 66.9469 10.3489 67.3243C9.026 67.703 8.26077 69.0817 8.63949 70.4034C9.25945 72.5733 10.7627 74.214 12.7639 74.9053C14.9247 75.6536 17.4227 75.2256 19.446 73.7626C21.5316 72.2542 22.9051 70.0234 23.3124 67.4825C23.7209 64.9404 23.1152 62.3931 21.6055 60.3076C17.9143 55.2039 10.7588 54.056 5.65511 57.7473C2.70055 59.8847 0.753764 63.0455 0.175305 66.6473C-0.401858 70.249 0.456753 73.8612 2.5942 76.8157C5.17003 80.3747 8.97801 82.7184 13.3152 83.4149ZM148.103 128.889C146.124 127.243 143.623 126.462 141.06 126.698C138.496 126.933 136.177 128.151 134.531 130.13C132.933 132.048 132.336 134.511 132.936 136.719C133.491 138.762 135.025 140.374 137.147 141.14C138.44 141.609 139.868 140.938 140.335 139.644C140.802 138.35 140.133 136.924 138.838 136.456C138.231 136.236 137.873 135.897 137.742 135.415C137.571 134.782 137.807 133.978 138.358 133.317C139.153 132.361 140.274 131.772 141.513 131.658C142.751 131.545 143.96 131.921 144.915 132.718C147.646 134.99 148.017 139.06 145.745 141.79C144.262 143.571 142.174 144.668 139.867 144.88C137.561 145.091 135.307 144.389 133.526 142.907C131.172 140.947 129.722 138.188 129.443 135.138C129.164 132.087 130.09 129.112 132.05 126.758C132.929 125.701 132.787 124.13 131.729 123.251C130.672 122.37 129.102 122.514 128.222 123.571C125.412 126.947 124.084 131.216 124.483 135.59C124.883 139.967 126.963 143.924 130.339 146.734C132.815 148.796 135.871 149.896 139.054 149.896C139.474 149.896 139.897 149.877 140.319 149.839C143.952 149.507 147.238 147.78 149.572 144.977C153.602 140.136 152.943 132.92 148.103 128.889ZM109.722 62.589C110.228 62.6357 110.731 62.6577 111.23 62.6577C119.63 62.6577 126.819 56.2311 127.597 47.7072C127.723 46.3376 126.714 45.1249 125.344 45.0004C123.975 44.8746 122.763 45.8837 122.639 47.2533C122.36 50.3038 120.91 53.0625 118.556 55.0223C116.202 56.9821 113.225 57.9068 110.175 57.6293C107.867 57.4178 105.779 56.3219 104.297 54.5411C102.814 52.759 102.114 50.5074 102.324 48.2001C102.648 44.6619 105.788 42.0432 109.326 42.3701C110.565 42.4829 111.686 43.0718 112.481 44.0276C113.277 44.9835 113.653 46.1923 113.539 47.431C113.461 48.2883 113.059 49.025 112.491 49.3505C112.058 49.5983 111.564 49.5853 110.98 49.3116C109.734 48.7254 108.251 49.2623 107.668 50.5074C107.083 51.7526 107.618 53.235 108.863 53.82C110.906 54.7785 113.131 54.724 114.967 53.6721C116.952 52.5347 118.272 50.37 118.499 47.8836C118.734 45.3208 117.955 42.8201 116.309 40.8409C114.662 38.863 112.343 37.6451 109.78 37.4104C103.508 36.8371 97.9376 41.4739 97.3643 47.7461C96.6795 55.2454 102.223 61.9042 109.722 62.589ZM157.586 66.2491C153.213 65.8483 148.943 67.1777 145.566 69.9883C142.19 72.7989 140.111 76.7574 139.71 81.1321C139.585 82.5018 140.594 83.7132 141.964 83.839C143.335 83.9661 144.545 82.9557 144.67 81.5861C144.948 78.5343 146.398 75.7755 148.753 73.8158C151.107 71.856 154.084 70.9313 157.134 71.2088C161.898 71.6446 165.419 75.8754 164.983 80.638C164.66 84.1762 161.519 86.7961 157.981 86.468C155.424 86.2345 153.535 83.9648 153.768 81.4084C153.847 80.5498 154.249 79.8144 154.817 79.4888C155.249 79.2398 155.745 79.2541 156.328 79.5278C157.573 80.1114 159.056 79.577 159.641 78.3319C160.224 77.0868 159.689 75.603 158.444 75.0194C156.402 74.0609 154.178 74.1154 152.34 75.1673C150.356 76.3047 149.035 78.4681 148.808 80.9545C148.325 86.2462 152.236 90.9452 157.528 91.4277C157.879 91.4601 158.228 91.4757 158.576 91.4757C164.409 91.4757 169.402 87.0127 169.943 81.0919C170.629 73.5927 165.086 66.9352 157.586 66.2491ZM45.9333 38.0524C44.5636 37.9318 43.3587 38.9564 43.2446 40.3273C42.8789 44.7047 44.2394 48.964 47.0759 52.3181C49.9137 55.6721 53.8864 57.7213 58.2651 58.0871C58.6529 58.1195 59.0394 58.1351 59.4246 58.1351C62.6463 58.1351 65.7332 57.0093 68.2208 54.9056C71.0068 52.5502 72.7071 49.2507 73.0106 45.6152C73.2648 42.575 72.3206 39.6179 70.3492 37.2872C68.3791 34.9577 65.6204 33.5349 62.5789 33.2807C60.0134 33.0641 57.5193 33.8644 55.5531 35.5258C53.5881 37.1886 52.3884 39.5167 52.1731 42.0809C51.9656 44.5698 52.8904 46.929 54.6465 48.3946C56.2729 49.75 58.4545 50.1897 60.6321 49.5995C61.9589 49.2416 62.7449 47.8732 62.3856 46.5464C62.0264 45.2183 60.6593 44.4323 59.3312 44.7929C58.7074 44.9615 58.2184 44.8876 57.8358 44.5685C57.3326 44.1496 57.0641 43.3558 57.1367 42.4972C57.3507 39.9382 59.6075 38.0329 62.1639 38.2443C63.8785 38.3883 65.4349 39.1898 66.5464 40.505C67.6579 41.8189 68.191 43.4855 68.047 45.2014C67.8551 47.5114 66.7734 49.606 65.0043 51.1028C63.2352 52.5995 60.9888 53.3154 58.6788 53.1248C52.378 52.5982 47.6803 47.0432 48.2069 40.7424C48.3223 39.3714 47.3042 38.1678 45.9333 38.0524ZM81.2349 91.4368C81.8341 91.4887 82.4216 91.5133 82.9988 91.5133C89.4617 91.5133 94.4914 88.3564 96.7443 84.9868C98.4797 82.3928 98.7443 79.5005 97.4706 77.0505C94.9584 72.214 90.4565 72.9014 87.1686 73.402C86.5512 73.4967 85.9248 73.5914 85.3009 73.6601L85.7341 68.9131C86.1258 68.8353 86.5136 68.738 86.895 68.607L92.6432 66.6304C94.3319 66.0507 95.6639 64.7614 96.3008 63.0948C96.9376 61.4269 96.804 59.5773 95.9324 58.0197C94.8468 56.078 93.0946 54.5956 90.9986 53.8459C86.9144 52.3855 82.4968 52.0003 78.2207 52.7279C76.0274 53.1027 74.0443 54.2571 72.6371 55.9821C71.5087 57.3647 71.0548 59.1636 71.3933 60.9158C71.7305 62.6681 72.82 64.1687 74.3803 65.0325L79.7005 67.978C80.0481 68.1712 80.4061 68.3373 80.7731 68.4799L80.3386 73.2308C79.7291 73.0531 79.1208 72.8495 78.5229 72.6472C75.3725 71.5824 71.0574 70.1232 67.7435 74.45C66.0639 76.6419 65.8227 79.5368 67.0808 82.3915C68.8615 86.433 73.9276 90.7974 81.2349 91.4368ZM76.794 60.6759C76.4282 60.4736 76.318 60.148 76.2842 59.9729C76.2505 59.7965 76.2324 59.4541 76.4957 59.1299C77.1416 58.3387 78.052 57.8095 79.0572 57.637C80.1869 57.4451 81.327 57.3504 82.4683 57.3504C84.7964 57.3504 87.1206 57.7486 89.3229 58.5359C90.284 58.8796 91.0881 59.5592 91.5862 60.4502C91.7898 60.8147 91.7133 61.1493 91.6484 61.3166C91.5849 61.4839 91.4189 61.7848 91.0246 61.921L85.275 63.8976C84.2309 64.2556 83.0779 64.1544 82.1129 63.6214L76.794 60.6759ZM71.6981 77.4785C72.2026 76.8183 72.6423 76.4941 73.4244 76.4941C74.1663 76.4941 75.2181 76.7859 76.9276 77.3644C78.5242 77.9039 80.3322 78.5148 82.336 78.6925H82.3399H82.3425C82.3451 78.6938 82.3477 78.6938 82.3503 78.6938C84.358 78.8689 86.2516 78.5809 87.9209 78.3267C91.5862 77.7664 92.3047 77.9104 93.0518 79.3462C93.5836 80.3721 93.1024 81.4745 92.6043 82.2177C90.9675 84.6652 86.6848 86.9155 81.6694 86.4745C76.6513 86.0361 72.8252 83.0776 71.6384 80.3838C71.2778 79.5641 70.9951 78.3955 71.6981 77.4785ZM117.879 117.604C121.449 117.604 124.711 117.445 127.867 117.292L127.907 117.291C130.801 117.15 133.534 117.017 136.371 117.017C141.891 117.017 146.383 112.527 146.383 107.006C146.383 101.486 141.891 96.9944 136.371 96.9944C133.065 96.9944 129.959 97.1449 126.938 97.2914C124.704 97.3991 122.549 97.5041 120.334 97.5508C123.269 95.9114 125.85 93.9296 128.055 91.6132C129.003 90.6171 128.964 89.0412 127.968 88.0931C126.972 87.145 125.396 87.1826 124.447 88.18C120.178 92.6637 114.159 95.7091 106.557 97.2318C98.4019 98.8673 88.6355 98.7013 77.5307 96.7441C63.3299 94.2396 52.2782 89.7637 44.8814 83.6029C44.7478 83.4615 44.5974 83.3331 44.4275 83.2216C41.4677 80.6769 39.1176 77.8533 37.4159 74.7665C33.3836 67.4462 33.2526 58.6993 37.0372 49.4724C41.2991 39.0796 47.3133 31.1601 54.7892 25.8697C55.0019 25.7633 55.1951 25.6271 55.3676 25.4676C60.3714 22.0513 66.0159 19.792 72.2169 18.7388C72.4153 18.7284 72.6112 18.6986 72.8031 18.6428C78.5047 17.7479 84.6706 17.8594 91.236 19.0164C97.804 20.1746 103.635 22.1797 108.69 24.9722C108.848 25.0876 109.019 25.1823 109.199 25.2588C114.667 28.3703 119.2 32.4247 122.736 37.3481C122.842 37.5569 122.977 37.7502 123.141 37.9227C128.356 45.4505 131.299 54.9497 131.75 66.1739C131.949 71.1115 131.3 75.6134 129.82 79.5537C129.338 80.8416 129.99 82.2774 131.277 82.7599C132.565 83.2437 134.001 82.5913 134.484 81.3033C136.198 76.7366 136.952 71.5785 136.727 65.9741C136.471 59.6266 135.474 53.7694 133.75 48.4245C135.358 49.9899 137.428 50.9705 139.696 51.2143C140.063 51.2532 140.427 51.274 140.79 51.274C143.085 51.274 145.292 50.4971 147.103 49.0379C149.2 47.3467 150.514 44.9407 150.802 42.2611C151.088 39.5828 150.315 36.9512 148.624 34.854L143.526 28.5285C139.496 23.5299 133.825 20.0086 127.558 18.6117C121.802 17.3316 115.725 17.8919 110.298 20.1785C104.947 17.3341 98.8688 15.3056 92.1011 14.1124C85.3347 12.9192 78.9288 12.7467 72.9276 13.5884C68.6086 9.582 63.0899 6.97763 57.2431 6.21369C50.8787 5.38232 44.3445 6.75325 38.8478 10.071L31.8933 14.2706C29.586 15.6623 27.9608 17.8698 27.3136 20.4859C26.6677 23.1019 27.0789 25.8126 28.4718 28.1187C30.3641 31.2535 33.7039 32.9902 37.1241 32.9902C38.5106 32.9902 39.91 32.6997 41.233 32.1056C37.783 36.5388 34.8401 41.7047 32.4303 47.5827C28.0529 58.2518 28.2695 68.4825 33.0541 77.1685C34.7804 80.3008 37.0657 83.1853 39.8737 85.8117C39.7453 86.0413 39.6195 86.2721 39.4976 86.5017C38.4392 88.5056 38.0696 90.7169 38.316 92.8453C33.6637 92.8012 29.5042 91.3278 24.3046 87.9855C19.6601 85.0024 13.4539 86.3526 10.4696 90.9958C7.48517 95.6391 8.83534 101.846 13.4799 104.831C22.1555 110.407 29.8376 112.893 38.3848 112.893C39.0475 112.893 39.7246 112.876 40.412 112.844C41.5092 116.609 43.2835 120.204 45.6894 123.508C41.5715 125.794 38.827 125.026 35.5768 123.698C33.473 122.84 31.1592 122.85 29.0646 123.732C28.573 123.938 28.11 124.19 27.6729 124.476C26.8376 123.283 25.848 122.194 24.7209 121.256C21.9181 118.923 18.3721 117.822 14.7406 118.151C11.1077 118.483 7.82238 120.211 5.48779 123.013C3.53582 125.358 2.61365 128.323 2.89121 131.362C3.16877 134.401 4.61362 137.149 6.95859 139.101C8.70564 140.557 10.8612 141.334 13.1076 141.332C13.4034 141.332 13.7017 141.319 14.0013 141.292C16.5641 141.057 18.8832 139.839 20.5303 137.861C22.1269 135.943 22.7236 133.479 22.1243 131.271C21.5705 129.229 20.0349 127.617 17.913 126.851C16.6199 126.382 15.1919 127.054 14.725 128.347C14.2581 129.641 14.9286 131.068 16.2217 131.535C16.8287 131.754 17.188 132.095 17.3177 132.576C17.4902 133.208 17.2541 134.012 16.7029 134.675C15.9066 135.631 14.7859 136.219 13.5486 136.332C12.3087 136.446 11.1012 136.07 10.1453 135.274C8.82366 134.173 8.00785 132.623 7.85221 130.908C7.69528 129.195 8.21537 127.523 9.31652 126.2C10.799 124.419 12.8859 123.322 15.1945 123.111C17.5006 122.901 19.7534 123.601 21.5355 125.083C22.7145 126.065 23.6807 127.278 24.3811 128.629C23.6302 130.659 23.6743 132.864 24.5173 134.869C24.7508 135.427 25.0426 135.947 25.3785 136.432C24.9803 138.188 24.1762 139.833 23.0102 141.234C22.1308 142.291 22.2748 143.86 23.3305 144.741C23.7962 145.127 24.3617 145.317 24.9233 145.317C25.6366 145.317 26.3461 145.012 26.8389 144.42C28.0347 142.982 28.9686 141.365 29.6119 139.637C33.6196 141.219 37.3329 141.992 40.9476 141.992C42.1538 141.992 43.3639 141.899 44.5649 141.72C45.2809 144.388 46.4806 147.288 48.36 150.374C48.8295 151.143 49.6492 151.568 50.4896 151.568C50.9306 151.568 51.3781 151.45 51.7827 151.204C52.9565 150.489 53.3287 148.956 52.6128 147.782C48.0279 140.256 48.2432 134.247 49.2315 130.531C49.4248 129.808 49.6673 129.1 49.9527 128.408C52.5609 130.937 55.5103 133.087 58.7164 134.817C58.6036 137.945 60.2171 141.681 63.4699 145.752C65.2027 147.92 64.8486 151.092 62.6814 152.824C61.78 153.545 60.6957 153.925 59.5452 153.925C59.0926 153.925 58.6399 153.865 58.2041 153.745C56.8773 153.381 55.5077 154.162 55.1445 155.489C54.7814 156.816 55.5622 158.185 56.889 158.549C57.7541 158.786 58.6477 158.905 59.5452 158.905C61.8046 158.905 64.0225 158.127 65.7916 156.715C70.1028 153.267 70.8083 146.955 67.3609 142.642C65.6502 140.501 64.6437 138.685 64.1275 137.248C67.6086 138.52 71.3025 139.345 75.1234 139.68C76.401 139.791 77.6733 139.847 78.9392 139.847C83.9365 139.847 88.8093 138.98 93.3475 137.31C93.8702 137.524 95.3319 138.222 95.6613 139.461C96.0232 140.82 95.2696 143.699 92.07 147.703C90.4007 149.793 89.6446 152.407 89.9403 155.065C90.2373 157.722 91.5512 160.106 93.6406 161.776C95.4097 163.188 97.6276 163.966 99.8857 163.966C102.949 163.966 105.801 162.595 107.712 160.205C116.511 149.196 116.538 140.047 115.012 134.312C114.127 130.985 112.468 127.904 110.167 125.286C112.053 122.898 113.591 120.305 114.756 117.558C115.791 117.588 116.824 117.604 117.879 117.604ZM117.239 107.578C117.346 106.365 117.382 105.134 117.351 103.909C117.71 103.482 118.036 103.031 118.326 102.556C121.412 102.543 124.34 102.403 127.195 102.264C130.141 102.121 133.186 101.975 136.371 101.975C139.146 101.975 141.404 104.232 141.404 107.006C141.404 109.78 139.146 112.037 136.371 112.037C133.413 112.037 130.622 112.172 127.666 112.316L127.627 112.318C124.531 112.468 121.329 112.622 117.879 112.622C117.383 112.622 116.892 112.618 116.403 112.612C116.808 110.971 117.089 109.29 117.239 107.578ZM126.475 23.4728C131.645 24.6246 136.323 27.5311 139.649 31.6543L144.747 37.9798C145.603 39.042 145.995 40.3727 145.85 41.7294C145.705 43.086 145.039 44.3039 143.977 45.1599C142.915 46.0172 141.584 46.4076 140.227 46.2624C138.871 46.1171 137.653 45.4518 136.797 44.3895L131.697 38.0641C130.317 36.3507 128.548 35.0174 126.548 34.1666C125.789 33.1303 124.992 32.1238 124.149 31.1511C121.682 28.3016 118.9 25.7789 115.817 23.5844C119.299 22.74 122.96 22.6907 126.475 23.4728ZM39.7466 27.2769C37.3355 28.7322 34.1903 27.9553 32.7351 25.5441C32.0295 24.3768 31.822 23.0046 32.1488 21.6804C32.4757 20.3562 33.2992 19.2381 34.4665 18.5339L41.421 14.3342C45.9566 11.5962 51.3482 10.4678 56.5985 11.1514C60.1691 11.6183 63.5932 12.9179 66.5775 14.9023C62.9291 15.91 59.4531 17.329 56.1588 19.1629C55.0343 19.7881 53.9409 20.4612 52.8735 21.1759C50.7023 21.2926 48.5843 21.9398 46.7011 23.0773L39.7466 27.2769ZM39.3718 107.898C39.0384 107.907 38.709 107.913 38.3848 107.913C30.8479 107.913 23.9972 105.67 16.1711 100.642C13.8378 99.1409 13.1582 96.0217 14.6588 93.6884C16.1582 91.3551 19.2774 90.6754 21.612 92.1761C28.097 96.3433 33.4679 98.0437 39.6208 97.8037C39.4444 98.783 39.3069 99.7687 39.2213 100.753C39.0099 103.158 39.0644 105.549 39.3718 107.898ZM43.7284 136.812C42.8088 136.945 41.8879 137.012 40.9463 137.012C37.8504 137.012 34.6053 136.303 31.0256 134.841C30.154 134.484 29.4731 133.81 29.1087 132.941C28.7559 132.102 28.7429 131.178 29.0633 130.329C29.2786 130.074 29.4407 129.779 29.5393 129.462C29.9115 128.964 30.4057 128.57 30.9932 128.323C31.8622 127.958 32.8207 127.954 33.6935 128.309C36.8193 129.585 40.185 130.627 44.3717 129.436C43.8594 131.431 43.5209 133.919 43.7284 136.812ZM72.5567 106.114C73.9652 104.932 75.7084 104.3 77.5268 104.3C77.755 104.3 77.9846 104.309 78.2155 104.33C80.279 104.511 82.148 105.483 83.4787 107.069C84.8094 108.656 85.4436 110.666 85.2633 112.728C85.0818 114.792 84.109 116.661 82.5228 117.992C80.9366 119.322 78.9275 119.955 76.864 119.776C74.8018 119.596 72.9328 118.622 71.6008 117.036C70.2701 115.449 69.6371 113.44 69.8174 111.377C69.9977 109.315 70.9705 107.446 72.5567 106.114ZM43.7932 89.0581C50.8216 94.2318 60.2521 98.1591 71.8018 100.686C70.938 101.123 70.1157 101.661 69.3557 102.299C68.0444 103.399 66.99 104.722 66.2261 106.198C58.8656 104.184 51.9799 100.924 45.7361 96.4847C45.2044 96.106 44.7556 95.6507 44.386 95.1462C44.3834 95.1436 44.3821 95.1397 44.3795 95.1371C43.1123 93.4004 42.8425 91.0632 43.7932 89.0581ZM110.198 135.592C111.43 140.221 111.323 147.71 103.821 157.096C102.861 158.298 101.426 158.987 99.8857 158.987C98.7352 158.987 97.6509 158.606 96.7495 157.886C95.699 157.047 95.0388 155.848 94.8896 154.514C94.7405 153.178 95.1205 151.864 95.9596 150.813C99.826 145.977 101.386 141.609 100.474 138.179C100.113 136.82 99.4019 135.758 98.5977 134.932C100.31 134.002 101.958 132.951 103.519 131.77C104.673 130.895 105.761 129.968 106.782 128.994C108.391 130.942 109.559 133.187 110.198 135.592ZM110.766 114.071C110.741 114.133 110.718 114.198 110.697 114.263C109.452 117.68 107.539 120.851 105.03 123.652C105.011 123.67 104.992 123.685 104.975 123.705C104.949 123.732 104.927 123.762 104.904 123.789C103.595 125.231 102.129 126.574 100.512 127.798C98.1165 129.611 95.494 131.092 92.7107 132.221C92.5836 132.26 92.4617 132.309 92.341 132.366C87.1453 134.406 81.4074 135.231 75.5566 134.719C71.0094 134.321 66.6683 133.139 62.7242 131.268C62.636 131.214 62.5413 131.169 62.444 131.129C58.5738 129.249 55.0914 126.705 52.1822 123.57C51.8813 123.246 51.5895 122.916 51.3041 122.584C51.3028 122.58 51.2989 122.578 51.2976 122.575C51.2912 122.569 51.286 122.562 51.2808 122.556L51.2795 122.554C51.273 122.548 51.2458 122.515 51.2406 122.509C51.2406 122.508 51.2393 122.508 51.2393 122.508C47.9929 118.697 45.801 114.353 44.7647 109.772C44.753 109.713 44.7387 109.654 44.7245 109.596C44.1421 106.941 43.9489 104.208 44.1629 101.453C50.5169 105.76 57.4623 108.957 64.8525 110.985C64.5685 114.359 65.6087 117.643 67.7863 120.237C69.9718 122.842 73.0418 124.44 76.4308 124.737C76.8095 124.771 77.1857 124.786 77.5618 124.786C80.5475 124.786 83.4099 123.749 85.7251 121.806C88.3191 119.63 89.9144 116.575 90.2205 113.204C97.8507 112.49 105.245 110.548 112.251 107.411C112.028 109.705 111.527 111.935 110.766 114.071ZM111.565 102.243C104.643 105.533 97.2969 107.547 89.6978 108.251C89.2023 106.666 88.393 105.18 87.2931 103.868C87.0247 103.548 86.7419 103.242 86.4462 102.953C89.2101 103.197 91.8871 103.325 94.4655 103.325C99.1451 103.325 103.512 102.922 107.537 102.115C109.718 101.678 111.788 101.125 113.747 100.459C113.18 101.206 112.439 101.828 111.565 102.243Z" fill="black"/>
</g>
<defs>
<clipPath id="clip0_223_13472">
<rect width="170" height="170" fill="white"/>
</clipPath>
</defs>
</svg>
