<svg width="48" height="48" viewBox="0 0 48 48" fill="none" xmlns="http://www.w3.org/2000/svg">
<path d="M38.5088 23.0592C37.8738 22.7465 37.4926 22.1221 37.457 21.4625L37.1458 15.4171L38.7886 21.0758C38.9127 21.5035 39.2112 21.8595 39.6107 22.0561L45.7155 25.0598C46.4974 25.4447 47.4488 25.1265 47.837 24.3376C48.2233 23.5521 47.8999 22.6025 47.1148 22.2162L41.6374 19.5209L40.1894 14.5338L42.3211 18.312L42.3317 18.3171L43.0857 16.6095C43.623 15.3933 43.0722 13.9724 41.8563 13.4352L37.9295 11.7008C36.8297 11.2152 35.5626 11.6191 34.9327 12.5998L30.7257 12.9503C30.2819 12.9873 29.8739 13.2092 29.6022 13.5622L25.4482 18.9503C24.9136 19.6435 25.0425 20.6385 25.7357 21.1728C26.4304 21.7086 27.425 21.5771 27.9582 20.8854L31.6852 16.0506L33.4415 15.9045L29.7655 24.2278L29.7955 24.241C29.6472 24.49 29.5498 24.7742 29.5231 25.0822L29.0217 30.8877L23.3927 34.1584C22.4467 34.708 22.1256 35.9206 22.6753 36.8665C23.2257 37.8143 24.4389 38.1329 25.383 37.5839L31.902 33.7962C32.4601 33.4721 32.8252 32.8964 32.8805 32.2537L33.4335 25.8475L34.5548 26.3427L36.4745 32.0523L37.2937 41.4343C37.3886 42.5193 38.3444 43.3309 39.4394 43.2353C40.5292 43.1401 41.3356 42.1795 41.2404 41.0897L40.401 31.4726C40.3871 31.3162 40.3552 31.162 40.3051 31.0133L38.7571 26.41L39.9286 23.7579C39.4353 23.5151 38.9981 23.2998 38.5088 23.0592Z" fill="#C0E4F9"/>
<path d="M45.9068 8.4382C45.9068 10.4062 44.3115 12.0014 42.3435 12.0014C40.3755 12.0014 38.7803 10.4062 38.7803 8.4382C38.7803 6.47017 40.3755 4.87495 42.3435 4.87495C44.3115 4.87495 45.9068 6.47017 45.9068 8.4382Z" fill="#C0E4F9"/>
<path d="M6.72805 32.313C6.16885 32.3958 5.64846 32.6298 5.21853 32.9817C5.00722 33.1982 4.69631 33.2926 4.40371 33.2154C3.80129 33.0553 3.22633 32.751 2.71071 32.3061C2.11561 31.8003 1.6172 31.1148 1.25538 30.416C1.12611 30.1637 1.0265 29.9436 0.92872 29.6763L0.920664 29.6543C0.861337 29.491 0.683725 29.3925 0.505013 29.4434C0.334358 29.4917 0.236213 29.6704 0.265144 29.8451C0.31385 30.1392 0.389656 30.4391 0.477181 30.7281C0.74891 31.6125 1.18031 32.4851 1.76625 33.2044C2.37526 33.9613 3.94155 34.8787 3.94155 34.8787C3.94155 34.8787 3.15089 36.0414 3.08534 37.7363C3.06264 38.3226 2.84694 38.8843 2.45509 39.3209L0.158576 41.8803C-0.0596858 42.1227 -0.0552913 42.5021 0.18824 42.7394C0.42408 42.9691 0.803476 42.9614 1.0492 42.7424C1.74611 42.1213 3.0099 40.9955 3.86501 40.2338C4.23305 39.9057 4.6802 39.6746 5.16469 39.5823C6.31387 39.3637 7.61648 38.5478 8.15408 37.5553C8.37308 37.1507 8.50674 36.7277 8.56094 36.3139C8.65176 36.9694 8.52432 37.7059 8.15408 38.3896C7.59744 39.4164 6.22195 40.2536 5.04494 40.4363L4.08767 41.9188C3.89467 42.2202 3.96425 42.6329 4.26931 42.8467C4.56557 43.0544 4.97646 42.9778 5.20498 42.6973L6.98733 40.5088C7.38723 40.0181 7.90835 39.6336 8.50748 39.4278C9.31168 39.1513 10.1173 38.6269 10.6293 37.9897C12.0345 38.1666 13.3931 38.3313 14.3925 38.4474C14.8884 38.5046 15.3472 38.7356 15.6889 39.0993L19.3975 43.0449C19.6257 43.2855 20.0128 43.3151 20.2735 43.0881C20.5269 42.8676 20.5496 42.4805 20.3482 42.2121L16.8864 37.6048L19.0577 37.8055L20.5039 39.6717C20.6617 39.8757 20.9517 39.9412 21.1868 39.8057C21.4329 39.664 21.5124 39.3447 21.3857 39.0905L20.1505 36.6149C20.0629 36.4424 19.8978 36.3077 19.6927 36.2688L19.5839 36.2483L18.0151 35.9513C17.7075 35.8935 17.5258 35.5719 17.6357 35.279C17.7668 34.9303 17.8924 34.5828 18.0088 34.2517L13.7333 31.2766L6.72805 32.313Z" fill="#C0E4F9"/>
<path d="M23.031 30.4944L21.3809 29.5635C21.16 28.6795 20.465 27.9928 19.5787 27.7822L19.2041 27.6932C19.2041 27.6932 19.0679 27.6409 18.8635 27.5966C18.8104 27.1183 18.7778 26.4756 18.8943 25.972C18.9273 25.83 18.7954 25.7084 18.6552 25.749C17.4558 26.0969 15.8848 29.5466 15.8848 29.5466C15.8848 29.5466 19.9581 32.2515 19.9852 32.2885C20.2995 32.2863 20.6279 32.3427 20.9462 32.4584C21.2996 32.5877 21.6852 32.5474 21.9979 32.3632C22.1518 32.2724 22.1433 32.0449 21.984 31.9633C21.5438 31.7381 20.8118 31.3136 20.9605 31.0496C21.1564 30.7017 22.2309 31.385 22.6447 31.6666C22.797 31.7703 23.008 31.7564 23.1306 31.619C23.1314 31.6183 23.1325 31.6172 23.1332 31.6165L23.2057 31.5337C23.4903 31.2103 23.4057 30.7072 23.031 30.4944Z" fill="#C0E4F9"/>
<path d="M15.1639 29.9781L14.4634 30.8449L18.4507 33.6193L19.1978 32.6602L15.1639 29.9781Z" fill="#C0E4F9"/>
</svg>
