<svg width="25" height="25" viewBox="0 0 25 25" fill="none" xmlns="http://www.w3.org/2000/svg">
<path d="M18.7501 23.9583H6.25008C5.97381 23.9583 5.70886 23.8486 5.51351 23.6532C5.31816 23.4579 5.20842 23.1929 5.20842 22.9167C5.20842 22.6404 5.31816 22.3754 5.51351 22.1801C5.70886 21.9847 5.97381 21.875 6.25008 21.875H18.7501C19.0264 21.875 19.2913 21.9847 19.4867 22.1801C19.682 22.3754 19.7917 22.6404 19.7917 22.9167C19.7917 23.1929 19.682 23.4579 19.4867 23.6532C19.2913 23.8486 19.0264 23.9583 18.7501 23.9583ZM23.9584 6.24999V14.5833C23.9584 15.2673 23.8237 15.9446 23.562 16.5765C23.3002 17.2084 22.9166 17.7825 22.4329 18.2662C21.9493 18.7498 21.3751 19.1335 20.7432 19.3952C20.1113 19.6569 19.4341 19.7917 18.7501 19.7917H6.25008C5.56611 19.7917 4.88884 19.6569 4.25694 19.3952C3.62503 19.1335 3.05087 18.7498 2.56723 18.2662C1.59048 17.2894 1.04175 15.9647 1.04175 14.5833V6.24999C1.04175 4.86865 1.59048 3.54389 2.56723 2.56714C3.54399 1.59039 4.86875 1.04166 6.25008 1.04166H18.7501C19.4341 1.04166 20.1113 1.17637 20.7432 1.43812C21.3751 1.69986 21.9493 2.0835 22.4329 2.56714C22.9166 3.05078 23.3002 3.62494 23.562 4.25685C23.8237 4.88875 23.9584 5.56602 23.9584 6.24999ZM5.20842 8.33332C5.20842 8.60959 5.31816 8.87454 5.51351 9.06989C5.70886 9.26524 5.97381 9.37499 6.25008 9.37499H12.5001C12.7763 9.37499 13.0413 9.26524 13.2367 9.06989C13.432 8.87454 13.5417 8.60959 13.5417 8.33332C13.5417 8.05706 13.432 7.7921 13.2367 7.59675C13.0413 7.4014 12.7763 7.29166 12.5001 7.29166H6.25008C5.97381 7.29166 5.70886 7.4014 5.51351 7.59675C5.31816 7.7921 5.20842 8.05706 5.20842 8.33332ZM19.7917 12.5C19.7917 12.2237 19.682 11.9588 19.4867 11.7634C19.2913 11.5681 19.0264 11.4583 18.7501 11.4583H6.25008C5.97381 11.4583 5.70886 11.5681 5.51351 11.7634C5.31816 11.9588 5.20842 12.2237 5.20842 12.5C5.20842 12.7763 5.31816 13.0412 5.51351 13.2366C5.70886 13.4319 5.97381 13.5417 6.25008 13.5417H18.7501C19.0264 13.5417 19.2913 13.4319 19.4867 13.2366C19.682 13.0412 19.7917 12.7763 19.7917 12.5Z" fill="#9F9F9F"/>
</svg>
