<svg width="12" height="16" viewBox="0 0 12 16" fill="none" xmlns="http://www.w3.org/2000/svg">
<path d="M1.99123 16H10.0088C10.6696 16 11.1667 15.8336 11.5 15.5008C11.8333 15.1735 12 14.6715 12 13.9948V8.21217C12 7.54099 11.8333 7.04177 11.5 6.71451C11.1667 6.3817 10.6696 6.21529 10.0088 6.21529H1.99123C1.33041 6.21529 0.833333 6.3817 0.5 6.71451C0.166667 7.04177 0 7.54099 0 8.21217V13.9948C0 14.6715 0.166667 15.1735 0.5 15.5008C0.833333 15.8336 1.33041 16 1.99123 16ZM1.60526 6.94748H3.48246V4.30993C3.48246 3.76079 3.59357 3.29208 3.81579 2.9038C4.04386 2.51551 4.34795 2.22153 4.72807 2.02184C5.11404 1.81661 5.53801 1.71399 6 1.71399C6.46199 1.71399 6.88304 1.81661 7.26316 2.02184C7.64327 2.22153 7.94737 2.51551 8.17544 2.9038C8.40936 3.29208 8.52632 3.76079 8.52632 4.30993L8.51754 6.94748H10.3947V4.40978C10.3947 3.47235 10.193 2.67637 9.78947 2.02184C9.39181 1.36176 8.85965 0.859768 8.19298 0.515861C7.52632 0.171954 6.79532 0 6 0C5.20468 0 4.47368 0.171954 3.80702 0.515861C3.14035 0.859768 2.60819 1.36176 2.21053 2.02184C1.81287 2.67637 1.61404 3.47235 1.61404 4.40978L1.60526 6.94748Z" fill="#78BF9B"/>
</svg>
