<svg width="66" height="66" viewBox="0 0 66 66" fill="none" xmlns="http://www.w3.org/2000/svg">
<g clip-path="url(#clip0_1591_25536)">
<path d="M49.815 52.619C47.2373 52.619 44.6048 51.4102 41.5267 48.9279C40.5528 48.1424 40.3982 46.7141 41.1828 45.7383C41.9663 44.762 43.3918 44.6077 44.3662 45.3932C48.7475 48.9264 50.6171 48.328 52.6061 47.1782C53.6897 46.5521 55.074 46.9239 55.6989 48.0097C56.3243 49.0949 55.9526 50.4819 54.8695 51.108C53.1373 52.1095 51.4872 52.619 49.815 52.619Z" fill="#495059"/>
<path d="M29.707 61.978C28.8439 61.978 27.9919 61.5839 27.436 60.8377C26.0976 59.0401 24.6685 56.5952 25.5069 53.6165C26.1328 51.393 27.8831 49.4814 30.3183 47.2953C31.4825 46.2499 33.272 46.3483 34.3149 47.5147C35.3582 48.6812 35.26 50.4738 34.0958 51.5192C33.3949 52.1483 31.2629 54.062 30.9552 55.1558C30.9034 55.3389 30.7664 55.8263 31.9729 57.4463C32.9075 58.7016 32.6497 60.4785 31.3968 61.4154C30.8888 61.7948 30.2951 61.978 29.707 61.978Z" fill="#DDAF89"/>
<path d="M47.3282 60.9563C46.4752 60.9563 45.6318 60.5719 45.0749 59.8393C43.247 57.4367 41.8562 54.8783 40.7384 52.8224C40.191 51.8153 39.7182 50.9455 39.2876 50.2579C38.4568 48.931 38.8571 47.1808 40.1809 46.3483C41.5052 45.5158 43.252 45.9169 44.0829 47.2438C44.6061 48.0793 45.1418 49.0652 45.7093 50.1095C46.7884 52.0938 48.011 54.343 49.577 56.4015C50.5247 57.6471 50.285 59.4261 49.0418 60.3756C48.5291 60.7671 47.9259 60.9563 47.3282 60.9563Z" fill="#DDAF89"/>
<path d="M16.7466 53.177C16.5406 53.177 16.3322 53.1548 16.1227 53.1073C14.598 52.7638 13.6397 51.2461 13.9826 49.7184C14.9056 45.6086 16.8156 40.7414 23.4487 39.5694C24.9896 39.298 26.4564 40.3277 26.7278 41.87C26.9992 43.4124 25.971 44.8831 24.4316 45.1555C21.6118 45.6535 20.3686 47.1191 19.5055 50.9636C19.2094 52.2814 18.0412 53.177 16.7466 53.177Z" fill="#DDAF89"/>
<path d="M45.4632 40.8242C44.017 40.5048 43.0487 39.1093 43.2783 37.622C43.517 36.0741 44.9632 35.0136 46.508 35.2527C49.5514 35.7244 51.3919 34.1069 54.6206 30.0556C55.5959 28.8316 57.377 28.6318 58.5981 29.6091C59.8196 30.5863 60.019 32.3703 59.0437 33.5943C56.248 37.1028 52.4191 41.9079 45.6424 40.858C45.582 40.8484 45.5221 40.8373 45.4632 40.8242Z" fill="#DDAF89"/>
<path d="M50.5726 37.5236C50.4044 36.569 50.133 35.6528 49.771 34.782C48.7654 35.2931 47.7341 35.4429 46.5075 35.2527C44.9626 35.0136 43.517 36.0741 43.2783 37.622C43.0487 39.1093 44.017 40.5048 45.4632 40.8242C45.5221 40.8373 45.582 40.8484 45.6424 40.858C47.5685 41.1562 49.2558 40.9816 50.7493 40.4983C50.8032 39.519 50.7483 38.5235 50.5726 37.5236Z" fill="#D1A582"/>
<path d="M45.7094 50.1089C45.1419 49.0651 44.6057 48.0792 44.0825 47.2432C43.2516 45.9168 41.5049 45.5157 40.1811 46.3482C38.8567 47.1807 38.4569 48.9309 39.2878 50.2578C39.7183 50.9454 40.1911 51.8152 40.7385 52.8223C40.8226 52.9761 40.9082 53.1341 40.9953 53.2935C42.8176 52.5877 44.4541 51.5831 45.8449 50.3587C45.7996 50.2754 45.7543 50.1917 45.7094 50.1089Z" fill="#D1A582"/>
<path d="M34.3148 47.5147C33.272 46.3483 31.4824 46.2499 30.3187 47.2953C28.5256 48.9047 27.1061 50.3658 26.231 51.9117C27.8126 52.9419 29.6203 53.6922 31.568 54.0948C32.3409 53.0943 33.5907 51.9727 34.0958 51.5192C35.26 50.4738 35.3582 48.6812 34.3148 47.5147Z" fill="#D1A582"/>
<path d="M26.728 41.8701C26.4566 40.3277 24.9898 39.2975 23.4489 39.5694C22.0939 39.8086 20.9393 40.2046 19.9463 40.7142C19.9508 41.4372 20.0153 42.1672 20.1442 42.8993C20.3763 44.2191 20.8053 45.4673 21.4 46.6207C22.1503 45.8281 23.1201 45.3866 24.4323 45.155C25.9712 44.8831 26.9989 43.4124 26.728 41.8701Z" fill="#D1A582"/>
<path d="M48.9684 37.8087C47.772 31.0092 40.7184 26.5714 33.2141 27.8968C25.7098 29.2222 20.5964 35.8087 21.7928 42.6087C22.9892 49.4087 30.0423 53.8465 37.5466 52.5212C45.0509 51.1953 50.1643 44.6087 48.9684 37.8087Z" fill="#DDAF89"/>
<path d="M46.2638 30.1343C43.4208 33.4909 39.4368 35.9116 34.7715 36.7355C30.1061 37.5599 25.5365 36.6507 21.7192 34.4702C21.1728 35.514 20.7584 36.6184 20.4986 37.7627C20.1441 39.3212 21.0021 40.9034 22.4971 41.4609C26.6131 42.9956 31.1782 43.4865 35.8158 42.6672C40.4529 41.8478 44.5749 39.8222 47.9189 36.9696C49.1335 35.9333 49.3998 34.1523 48.5348 32.8093C47.8998 31.8234 47.1334 30.9279 46.2638 30.1343Z" fill="#7F9AE6"/>
<path d="M28.4037 36.8087C26.027 36.4419 23.765 35.6387 21.7192 34.4702C21.1728 35.5146 20.7584 36.619 20.4986 37.7627C20.1441 39.3212 21.0021 40.9034 22.4971 41.4609C24.6377 42.2586 26.8996 42.7717 29.2295 42.9679C28.1237 41.47 27.9213 38.9635 28.4037 36.8087Z" fill="#5E78BF"/>
<path d="M25.83 16.9288C25.2564 17.0302 24.6471 16.9576 24.0837 16.6821L20.1782 14.774C18.4682 13.9385 16.4394 14.3916 15.2455 15.8759L13.3275 18.2593C12.337 19.4903 10.5384 19.6835 9.31026 18.6911C8.08162 17.6987 7.88876 15.8966 8.87873 14.6655L10.7967 12.2821C12.1799 10.5637 14.1261 9.35236 16.2768 8.87205C18.4274 8.39225 20.7024 8.66015 22.6828 9.62783L26.5883 11.5359C28.0068 12.2292 28.5959 13.9425 27.904 15.3638C27.4871 16.2205 26.7001 16.7754 25.83 16.9288Z" fill="#495059"/>
<path d="M36.4129 15.0591C35.5428 15.213 34.6138 14.9617 33.9294 14.2993C32.7945 13.2009 32.7627 11.3887 33.8595 10.2515L36.8777 7.1199C38.409 5.53216 40.4558 4.50091 42.6397 4.21434C44.8246 3.92878 47.0668 4.40001 48.9531 5.54124L51.569 7.12343C52.92 7.94077 53.3536 9.70055 52.5378 11.0542C51.7226 12.4073 49.9662 12.8422 48.6152 12.0249L45.9993 10.4422C44.3709 9.45686 42.3099 9.72628 40.9881 11.0976L37.9694 14.2292C37.5338 14.6807 36.9859 14.9582 36.4129 15.0591Z" fill="#495059"/>
<path d="M35.0509 38.3232C49.3349 35.7996 54.6186 28.1061 50.985 19.2294C47.08 9.69037 39.324 5.46144 29.5709 7.18439C19.8183 8.90734 13.9737 15.5393 13.5603 25.8412C13.1761 35.4277 20.767 40.8468 35.0509 38.3232Z" fill="#DDAF89"/>
<path d="M39.7541 43.147C39.7541 45.2797 38.0285 47.0087 35.9 47.0087C33.7715 47.0087 32.0459 45.2797 32.0459 43.147C32.0459 41.0144 33.7715 39.2854 35.9 39.2854C38.0285 39.2854 39.7541 41.0144 39.7541 43.147Z" fill="#F6E06A"/>
<path d="M25.3493 26.4376C25.0325 24.637 22.9464 23.5003 20.69 23.8988C18.4331 24.2974 16.8606 26.0804 17.1773 27.8811C17.494 29.6817 19.5802 30.8179 21.8371 30.4193C24.0934 30.0208 25.666 28.2383 25.3493 26.4376Z" fill="#FFDBDB"/>
<path d="M40.1104 23.8272C40.4271 25.6274 42.5133 26.7641 44.7697 26.3655C47.0265 25.9669 48.5986 24.1844 48.2819 22.3838C47.9651 20.5831 45.879 19.4464 43.6226 19.845C41.3657 20.2436 39.7937 22.0266 40.1104 23.8272Z" fill="#FFDBDB"/>
<path d="M34.3986 22.0594C32.9288 21.9393 31.4529 22.2001 30.113 22.8167C29.5581 23.072 29.1145 23.5205 28.8637 24.0785C28.5253 24.8322 28.9503 25.7086 29.7509 25.9084L31.9711 26.4619C32.6322 26.6268 33.3321 26.5032 33.8971 26.1213L35.7944 24.8408C36.4783 24.3787 36.5785 23.4095 36.0034 22.8172C35.5774 22.3787 35.0074 22.1093 34.3986 22.0594Z" fill="#495059"/>
<path d="M37.3231 31.6736C37.0225 29.9653 35.3074 28.8402 33.4931 29.1611C31.6784 29.4815 30.4507 31.1262 30.7513 32.8345C31.052 34.5429 32.7665 35.668 34.5813 35.3476C36.396 35.0272 37.6237 33.3825 37.3231 31.6736Z" fill="#D16283"/>
<path d="M46.1473 7.88519L14.2344 13.5233C12.8708 13.7644 11.9604 15.0671 12.2005 16.4334L12.6794 19.1543C12.9196 20.521 14.2203 21.4332 15.5838 21.1921L47.4968 15.554C48.8609 15.3133 49.7713 14.0101 49.5306 12.6439L49.0517 9.92297C48.8115 8.55672 47.5114 7.64453 46.1473 7.88519Z" fill="#F3E5B7"/>
<path d="M49.1237 10.3286L49.4595 12.2367L12.6083 18.7491L12.2725 16.841L49.1237 10.3286Z" fill="#7F9AE6"/>
<path d="M62.2995 13.7705C64.4502 14.5545 65.5615 16.9329 64.7896 19.0887C63.9814 21.3444 61.4002 22.3923 59.1841 21.4892C56.3532 20.3359 56.1886 18.2694 54.2363 17.0651C53.6537 16.7058 53.6215 15.8688 54.1709 15.4607C57.1262 13.264 59.5457 12.766 62.2995 13.7705Z" fill="#7F9AE6"/>
<path d="M1.35473 27.8074C0.387423 29.8856 1.2797 32.3547 3.34724 33.332C5.51096 34.3546 8.0755 33.2669 9.00503 31.0586C10.1929 28.2373 8.85095 26.6591 9.38118 24.4246C9.53929 23.7581 8.9718 23.1431 8.29504 23.2435C4.65544 23.7838 2.59344 25.146 1.35473 27.8074Z" fill="#7F9AE6"/>
<path d="M62.6306 12.8603C59.5756 11.7463 56.7895 12.3084 53.595 14.6822C53.0779 15.0666 52.7858 15.6811 52.8135 16.3259C52.8412 16.9687 53.1836 17.5534 53.73 17.8899C54.3997 18.3037 54.8247 18.8586 55.3171 19.5019C56.0765 20.4948 56.9375 21.6199 58.8203 22.3868C59.4633 22.6486 60.1486 22.7798 60.8324 22.7798C61.5731 22.7798 62.3123 22.6264 62.9951 22.3207C64.2726 21.7491 65.2334 20.7173 65.6996 19.4161C66.6493 16.7649 65.2726 13.8235 62.6306 12.8603ZM63.8798 18.7613C63.5928 19.5614 62.9992 20.1971 62.2071 20.5518C61.3717 20.9252 60.4029 20.9403 59.5489 20.5922C58.1531 20.0231 57.5498 19.2355 56.8514 18.3228C56.294 17.5943 55.7174 16.841 54.7471 16.2386C56.5639 14.888 58.1088 14.2448 59.6738 14.2448C60.4235 14.2448 61.1783 14.3926 61.9689 14.6807C63.6135 15.2805 64.4705 17.1115 63.8798 18.7613ZM10.3217 24.6486C10.4702 24.0235 10.2995 23.3676 9.86544 22.8933C9.43038 22.4176 8.78937 22.19 8.1534 22.2849C4.21923 22.8691 1.85208 24.4463 0.478419 27.3977C-0.709939 29.9511 0.392313 33.006 2.9347 34.2078C3.61246 34.5282 4.33706 34.6891 5.06669 34.6891C5.68101 34.6891 6.29936 34.5751 6.89706 34.3461C8.24051 33.8309 9.3337 32.7699 9.89565 31.4349C10.6857 29.5591 10.5004 28.153 10.3373 26.9129C10.231 26.1097 10.1399 25.416 10.3217 24.6486ZM8.11412 30.6817C7.7556 31.5328 7.06021 32.2089 6.2057 32.5363C5.3955 32.8471 4.5274 32.8184 3.76 32.4556C2.17686 31.7074 1.49104 29.8058 2.23074 28.2166C3.32947 25.8564 5.12762 24.693 8.44042 24.2006C8.17606 25.315 8.29993 26.2565 8.41977 27.1667C8.56983 28.3064 8.69974 29.2907 8.11412 30.6817ZM41.2401 21.2445C41.296 21.2445 41.3524 21.24 41.4093 21.2299C41.935 21.1371 42.286 20.6346 42.1933 20.1078L41.939 18.6619C41.8459 18.1351 41.3438 17.7835 40.8186 17.8758C40.293 17.9687 39.9415 18.4712 40.0346 18.9984L40.2889 20.4439C40.3715 20.9141 40.7794 21.2445 41.2401 21.2445ZM59.2014 28.8518C57.5649 27.543 55.1711 27.8119 53.8649 29.4511C52.3105 31.4016 51.0738 32.7931 49.896 33.5822C49.8315 33.3047 49.7384 33.0313 49.6145 32.7679C50.4282 31.9223 51.1075 31.0116 51.6428 30.0374C53.4475 26.756 53.529 22.8913 51.8794 18.8622C51.318 17.4904 50.6669 16.2038 49.9418 15.0253C50.2767 14.5278 50.4741 13.9642 50.5234 13.38C51.68 13.2488 52.7405 12.5924 53.3659 11.5546C53.8941 10.6783 54.0502 9.64903 53.805 8.65511C53.5603 7.6617 52.9434 6.82318 52.0693 6.29444L49.4534 4.71174C47.3803 3.45749 44.9165 2.93985 42.5151 3.25366C40.3131 3.54225 38.235 4.52406 36.608 6.0336C34.3496 5.71726 31.9422 5.78184 29.4034 6.23036C26.8655 6.67889 24.5845 7.44577 22.5713 8.51586C20.5254 7.65363 18.2353 7.44274 16.0666 7.92658C13.7029 8.45431 11.5644 9.78525 10.0442 11.6742L8.12671 14.0576C7.4852 14.8542 7.19214 15.8532 7.30141 16.8713C7.41017 17.8884 7.90818 18.8026 8.70327 19.4454C9.39967 20.0074 10.2486 20.293 11.1016 20.293C11.4017 20.293 11.7024 20.2552 11.9969 20.184C12.2427 20.7168 12.6208 21.1795 13.1062 21.5326C12.8268 22.8888 12.6541 24.3211 12.5946 25.8024C12.4688 28.9426 13.1435 31.664 14.6007 33.8905C14.7866 34.174 15.0952 34.3284 15.4099 34.3284C15.5922 34.3284 15.776 34.2769 15.9392 34.1695C16.3858 33.8763 16.5107 33.2755 16.2176 32.8284C14.9865 30.9461 14.4175 28.6086 14.5267 25.8801C14.5781 24.6016 14.7201 23.3661 14.9467 22.1925C15.0116 22.1966 15.0761 22.2001 15.141 22.2001C15.344 22.2001 15.5479 22.1825 15.7518 22.1466L47.6653 16.5081C47.9342 16.4606 48.193 16.3824 48.4377 16.277C49.0516 17.3017 49.6065 18.4141 50.0904 19.5973C51.5103 23.0654 51.4615 26.3524 49.9494 29.103C49.4086 30.0863 48.692 30.9985 47.8103 31.8365C47.7575 31.8769 47.7101 31.9218 47.6678 31.9702C44.9009 34.5231 40.5623 36.3662 34.8834 37.3692C28.0463 38.577 22.5481 37.961 18.9826 35.5877C18.5374 35.2915 17.9377 35.4126 17.6421 35.8586C17.3466 36.3041 17.4674 36.9055 17.912 37.2012C18.4015 37.5271 18.9221 37.8227 19.4705 38.0901C19.4176 38.6688 19.4886 39.241 19.6659 39.7742C17.8224 40.6879 16.3254 42.0451 15.209 43.8236C13.9623 45.8094 13.3741 48.0177 13.0398 49.5055C12.5805 51.5524 13.8681 53.5922 15.911 54.0528C16.1859 54.1149 16.4669 54.1462 16.7468 54.1462C18.5334 54.1462 20.0561 52.9247 20.4489 51.176C20.9887 48.7714 21.6398 47.6277 22.4192 46.992C23.2904 48.4465 24.4475 49.7144 25.8151 50.7457C25.2305 51.62 24.8226 52.4802 24.5764 53.3535C24.1474 54.8777 24.2033 56.4372 24.7421 57.9886C25.2391 59.4189 26.0755 60.6303 26.6611 61.4169C27.3741 62.375 28.5126 62.9466 29.707 62.9466C30.5298 62.9466 31.3143 62.6858 31.9749 62.1918C32.7882 61.5839 33.3164 60.6954 33.4624 59.6899C33.6084 58.6839 33.3547 57.6819 32.7479 56.8671C32.0354 55.9095 31.914 55.4968 31.8939 55.3943C31.9412 55.2561 32.1784 54.7501 33.2701 53.6336C33.8083 53.6896 34.3537 53.7213 34.9051 53.7213C35.8296 53.7213 36.7712 53.6406 37.7173 53.4736C38.4067 53.3515 39.0769 53.187 39.726 52.9847C39.7803 53.0846 39.8337 53.1825 39.8896 53.2854C41.0226 55.3701 42.433 57.9639 44.3062 60.4265C45.0308 61.379 46.132 61.9249 47.3279 61.9249C48.1653 61.9249 48.9609 61.6555 49.6281 61.1459C50.1306 60.762 50.5325 60.2555 50.7898 59.6808C51.0083 59.1924 50.7908 58.6193 50.3034 58.3998C49.8164 58.1813 49.2444 58.3993 49.0259 58.8872C48.898 59.1722 48.7061 59.4139 48.4559 59.6051C48.1286 59.8554 47.7383 59.9875 47.3284 59.9875C46.7408 59.9875 46.1995 59.7191 45.844 59.252C44.0604 56.9069 42.6893 54.3848 41.5876 52.3586C41.575 52.3354 41.5634 52.3137 41.5508 52.2905C42.7089 51.7663 43.779 51.1124 44.7417 50.3541C44.7815 50.4273 44.8208 50.4989 44.8606 50.5726C45.775 52.2537 46.8108 54.1593 48.0767 55.9816C48.265 56.252 48.5656 56.3968 48.8713 56.3968C49.0621 56.3968 49.2545 56.3408 49.4227 56.2233C49.8607 55.9175 49.969 55.3136 49.6639 54.8747C49.3562 54.4317 49.0611 53.9807 48.7776 53.5276C49.1236 53.5659 49.4685 53.5876 49.8144 53.5876C51.6317 53.5876 53.4429 53.0508 55.3524 51.9469C56.1001 51.5145 56.6349 50.8168 56.8585 49.9813C57.082 49.1463 56.9677 48.2735 56.5362 47.5248C55.6459 45.9789 53.6665 45.4466 52.1232 46.3386C50.889 47.0515 49.8864 47.4728 48.0802 46.6625C49.0344 45.1454 49.682 43.4664 49.9589 41.7101C54.6152 40.7 57.5951 36.964 59.7996 34.1987C61.1058 32.5595 60.8374 30.161 59.2014 28.8518ZM23.0728 10.4487C23.0935 10.4376 23.1136 10.426 23.1333 10.4134C25.0507 9.33875 27.2583 8.57691 29.7392 8.13848C32.2202 7.70005 34.5551 7.65969 36.7233 8.01235C36.7465 8.01739 36.7692 8.02143 36.7923 8.02496C37.2576 8.10266 37.7153 8.19801 38.165 8.31204L21.881 11.1888C22.2647 10.9275 22.6619 10.6813 23.0728 10.4487ZM11.8237 14.0011C11.2915 14.7624 11.087 15.6862 11.2482 16.6019L11.5473 18.3011C10.9873 18.4374 10.3826 18.3132 9.9168 17.9369C9.1056 17.2815 8.9777 16.0868 9.6318 15.2735L11.5498 12.8901C12.7956 11.3417 14.5494 10.2504 16.487 9.81754C17.7851 9.52744 19.1367 9.54257 20.4242 9.8463C19.5813 10.4517 18.7978 11.1238 18.0762 11.8609L14.0665 12.5692C13.1526 12.7312 12.356 13.2392 11.8237 14.0011ZM48.3234 13.9657C48.2665 14.047 48.2026 14.1216 48.1326 14.1893C48.1145 14.2044 48.0973 14.22 48.0807 14.2362C47.8702 14.4228 47.6129 14.55 47.3289 14.5999L15.416 20.238C15.13 20.289 14.843 20.2567 14.5801 20.1517C14.5605 20.1432 14.5413 20.1351 14.5212 20.128C14.4321 20.0882 14.3465 20.0397 14.2649 19.9827C13.928 19.7461 13.7029 19.3924 13.6314 18.9863L13.5851 18.7239C13.5846 18.7214 13.5841 18.7184 13.5836 18.7159L13.1526 16.2654C13.0811 15.8597 13.1717 15.4501 13.4074 15.1125C13.6435 14.7745 13.9965 14.5495 14.4018 14.4778L46.3153 8.83977C46.4049 8.82363 46.4951 8.81606 46.5832 8.81606C47.3163 8.81606 47.9679 9.34379 48.0999 10.0915L48.5304 12.541C48.5314 12.545 48.5319 12.5495 48.5329 12.5541L48.5782 12.8124C48.6497 13.218 48.5596 13.6277 48.3234 13.9657ZM48.5752 7.50782C47.8154 6.97454 46.8934 6.77021 45.9794 6.93115L41.9758 7.63849C41.0452 7.193 40.0789 6.82974 39.0789 6.54922C40.1847 5.82372 41.4481 5.34795 42.7653 5.1749C44.7347 4.91759 46.7544 5.3419 48.4539 6.37012L51.0697 7.95281C51.5018 8.21416 51.8064 8.62888 51.9278 9.11978C52.0486 9.61119 51.9716 10.1203 51.7108 10.5531C51.4011 11.0667 50.8759 11.3917 50.3034 11.4557L50.0038 9.75498C49.8426 8.83927 49.3356 8.04111 48.5752 7.50782ZM48.044 34.1851C48.1255 34.7017 48.0228 35.236 47.7504 35.6881C47.7499 35.6891 47.7494 35.6901 47.7489 35.6911C47.6285 35.8904 47.477 36.0741 47.2922 36.232C45.1078 38.0957 42.643 39.5406 39.9571 40.5386C39.444 39.7394 38.7063 39.1123 37.8493 38.7309C42.0795 37.7173 45.5127 36.1825 48.044 34.1851ZM35.3985 40.2979C35.5677 40.2682 35.7354 40.254 35.9016 40.254C37.2752 40.254 38.4968 41.2429 38.7436 42.6445C39.02 44.2156 37.9691 45.7191 36.4011 45.9955C35.6427 46.1297 34.8759 45.9597 34.2439 45.5167C33.6125 45.0733 33.1905 44.4103 33.0566 43.649C32.7801 42.0784 33.831 40.5749 35.3985 40.2979ZM18.5626 50.7502C18.3728 51.5953 17.6094 52.2083 16.7468 52.2083C16.6094 52.2083 16.4709 52.1931 16.3354 52.1624C15.3329 51.9363 14.701 50.9354 14.9265 49.9308C15.6088 46.8911 16.8848 43.2328 20.682 41.4346C20.7112 41.8852 20.7651 42.3352 20.8426 42.7762C20.9932 43.6308 21.2319 44.4502 21.5446 45.2302C20.0954 46.2196 19.2026 47.9001 18.5626 50.7502ZM21.4278 38.8797C23.4988 39.5608 25.8841 39.9054 28.5408 39.9054C29.8198 39.9054 31.1617 39.8252 32.5606 39.6653C31.8848 40.3181 31.4059 41.1612 31.1965 42.089C28.3353 42.0713 25.5266 41.5572 22.8347 40.5532C22.0874 40.2742 21.5703 39.6239 21.4278 38.8797ZM31.5484 59.4109C31.4769 59.9043 31.2181 60.3402 30.8188 60.6384C30.4945 60.8811 30.1098 61.0092 29.707 61.0092C29.1113 61.0092 28.5665 60.7358 28.211 60.2585C26.9305 58.5386 25.7179 56.4357 26.438 53.8793C26.6299 53.1976 26.9592 52.5125 27.437 51.8016C28.5458 52.4222 29.7498 52.9055 31.0202 53.232C30.3269 54.0674 30.1169 54.5649 30.0247 54.8929C29.8596 55.4796 29.8873 56.2652 31.198 58.0254C31.4961 58.4255 31.6205 58.9174 31.5484 59.4109ZM53.0895 48.0172C53.7093 47.659 54.5044 47.8729 54.8614 48.4934C55.0346 48.7941 55.081 49.1448 54.9908 49.4798C54.9012 49.8153 54.6867 50.0953 54.3866 50.2689C52.7788 51.1987 51.2833 51.6503 49.8149 51.6503C49.039 51.6503 48.2635 51.5277 47.4548 51.2764C47.1431 50.7184 46.844 50.1705 46.559 49.6458C46.4447 49.4359 46.3319 49.2285 46.2201 49.0242C46.4628 48.7745 46.696 48.5167 46.9186 48.2523C49.7686 49.6609 51.5295 48.9188 53.0895 48.0172ZM37.3815 51.5655C30.4699 52.787 23.955 48.7674 22.7752 42.589C25.4853 43.5244 28.2986 44.0062 31.1607 44.0264C31.3918 45.2796 32.0913 46.3719 33.1351 47.104C33.9549 47.6786 34.9096 47.9788 35.89 47.9788C36.171 47.9788 36.4545 47.9541 36.7374 47.9042C39.3423 47.4435 41.0916 44.9552 40.6535 42.3458C43.3384 41.3458 45.8188 39.9306 48.043 38.1255C49.043 44.3352 44.2931 50.3446 37.3815 51.5655ZM58.2885 32.9899C56.2608 35.5342 53.7833 38.6431 50.11 39.6794C50.1045 39.0038 50.043 38.3222 49.9227 37.6386C49.8441 37.1911 49.7394 36.7441 49.611 36.3056C49.683 36.1517 49.7454 35.9938 49.7978 35.8329C51.6181 35.0675 53.2048 33.3844 55.376 30.66C56.0175 29.8558 57.1918 29.7236 57.995 30.3659C58.7976 31.0086 58.9295 32.1857 58.2885 32.9899ZM36.3346 25.644C36.8986 25.2631 37.2626 24.6556 37.3326 23.9776C37.4026 23.2995 37.1705 22.6305 36.6962 22.1416C36.107 21.5351 35.319 21.1628 34.477 21.0942C32.8461 20.9605 31.197 21.2516 29.7095 21.9362C28.9421 22.2894 28.3283 22.909 27.9819 23.6809C27.7029 24.3025 27.7135 25.0108 28.0106 25.6243C28.3077 26.2373 28.857 26.6838 29.5172 26.8483L31.7373 27.4018C31.8778 27.4366 32.0193 27.4618 32.1613 27.4785L32.3405 28.4981C31.633 28.7993 31.0182 29.2771 30.5565 29.8956C29.8772 30.8063 29.6088 31.9092 29.8012 33.0015C30.1496 34.9813 31.9362 36.3692 33.967 36.3692C34.2253 36.3692 34.4876 36.347 34.7515 36.3001C37.0884 35.8874 38.67 33.7361 38.2773 31.5041C38.0849 30.4118 37.4565 29.4673 36.5073 28.8447C35.8311 28.4007 35.0486 28.1606 34.2409 28.1384L34.0651 27.1409C34.193 27.0763 34.3179 27.0057 34.4378 26.925L36.3346 25.644ZM34.116 30.0732C34.5934 30.0732 35.0546 30.2074 35.4479 30.4652C35.9454 30.7917 36.2742 31.2801 36.3729 31.8406C36.5803 33.0197 35.7022 34.1649 34.4156 34.392C33.1281 34.6195 31.913 33.8446 31.7056 32.665C31.6069 32.105 31.7489 31.5333 32.1049 31.056C32.475 30.5601 33.0284 30.2256 33.6628 30.1136C33.8144 30.0869 33.966 30.0732 34.116 30.0732ZM33.3567 25.3181C33.0193 25.5461 32.5988 25.6198 32.2041 25.5219L29.9839 24.9679C29.8435 24.9331 29.777 24.8337 29.7498 24.7777C29.7226 24.7217 29.6864 24.6082 29.7453 24.476C29.9004 24.1314 30.1738 23.8544 30.5167 23.697C31.5157 23.2374 32.6059 22.9998 33.7021 22.9998C33.908 22.9998 34.114 23.0084 34.3199 23.025C34.6956 23.0558 35.0471 23.2218 35.3104 23.4922C35.4111 23.5966 35.4156 23.7157 35.4091 23.7778C35.4026 23.8398 35.3739 23.9559 35.254 24.0371L33.3567 25.3181ZM23.0728 24.4543C23.1287 24.4543 23.1851 24.4493 23.242 24.4397C23.7677 24.3464 24.1187 23.8444 24.026 23.3171L23.7718 21.8717C23.6786 21.3444 23.1771 20.9933 22.6514 21.0856C22.1257 21.1789 21.7742 21.681 21.8674 22.2082L22.1216 23.6536C22.2047 24.1239 22.6126 24.4543 23.0728 24.4543Z" fill="black"/>
</g>
<defs>
<clipPath id="clip0_1591_25536">
<rect width="66" height="66" fill="white"/>
</clipPath>
</defs>
</svg>
