<svg width="67" height="66" viewBox="0 0 67 66" fill="none" xmlns="http://www.w3.org/2000/svg">
<g clip-path="url(#clip0_1591_25479)">
<path d="M28.9795 45.9199C27.4649 45.9199 25.9986 45.4305 24.4703 44.4659C23.5725 43.8993 23.3031 42.7106 23.8686 41.811C24.4346 40.9115 25.6209 40.6415 26.5187 41.2081C28.1673 42.249 29.7328 42.8186 33.5648 39.9675C34.4173 39.3333 35.6202 39.5114 36.2532 40.3651C36.8856 41.2187 36.7079 42.4245 35.8559 43.0582C33.2767 44.9779 31.0818 45.9199 28.9795 45.9199Z" fill="#495059"/>
<path d="M33.7431 54.5579C33.6655 54.5579 33.587 54.5543 33.5084 54.5463C32.1881 54.4181 31.2218 53.2415 31.3497 51.9187C31.6629 48.6877 32.1816 46.3265 33.1383 43.7676C33.6036 42.5229 34.9878 41.8922 36.2301 42.3584C37.4723 42.8251 38.1017 44.2116 37.6365 45.4562C36.8263 47.6221 36.4043 49.5646 36.1309 52.3839C36.0105 53.6275 34.9652 54.5579 33.7431 54.5579Z" fill="#DDAF89"/>
<path d="M44.5157 56.4614C44.3173 56.4614 44.1154 56.4367 43.9145 56.3847C42.6299 56.0533 41.857 54.741 42.1878 53.454C42.8933 50.7108 43.1602 48.7407 43.138 46.4284C43.1254 45.0995 44.1909 44.0118 45.5172 43.9991H45.5404C46.8562 43.9991 47.9292 45.0612 47.9418 46.383C47.9675 49.115 47.6482 51.5115 46.8395 54.6547C46.5606 55.7405 45.5847 56.4614 44.5157 56.4614Z" fill="#DDAF89"/>
<path d="M29.6782 38.91C28.5855 38.91 27.4963 38.6925 26.46 38.2566C24.5426 37.4504 22.9952 35.9762 22.2152 34.2119C21.6779 32.997 22.2258 31.5752 23.4383 31.0369C24.6513 30.4985 26.0698 31.0475 26.6071 32.2629C27.0457 33.2543 28.8841 34.7694 31.1475 33.7805C32.3641 33.2492 33.779 33.8062 34.3092 35.0241C34.8395 36.2426 34.2836 37.6608 33.068 38.1921C31.9733 38.6703 30.8237 38.91 29.6782 38.91Z" fill="#DDAF89"/>
<path d="M51.8478 42.3928C51.2592 42.1763 50.6882 41.9084 50.1403 41.5895C48.9938 40.9216 48.605 39.4483 49.2717 38.2995C49.9384 37.1502 51.4082 36.7612 52.5553 37.4287C55.3283 39.0447 58.1753 37.8889 58.9815 37.4963C60.1744 36.9146 61.612 37.4126 62.1921 38.6078C62.7722 39.803 62.2752 41.2429 61.0823 41.8242C58.0933 43.2807 54.7593 43.4649 51.8478 42.3928Z" fill="#DDAF89"/>
<path d="M55.1576 38.2425C54.3283 38.1759 53.438 37.9433 52.5553 37.4287C51.4082 36.7607 49.9384 37.1502 49.2717 38.2995C48.605 39.4483 48.9938 40.921 50.1403 41.5895C50.6882 41.9084 51.2592 42.1763 51.8478 42.3927C52.5437 42.649 53.2638 42.8327 53.9975 42.9452C54.4627 42.0007 54.8006 40.9856 54.9889 39.9155C55.0871 39.358 55.1425 38.7995 55.1576 38.2425Z" fill="#D1A582"/>
<path d="M31.1475 33.7805C30.3509 34.1286 29.6072 34.1655 28.9581 34.0252C28.8388 34.4298 28.7391 34.8425 28.6645 35.2648C28.452 36.4722 28.441 37.6724 28.6071 38.8374C28.9626 38.8838 29.3202 38.9095 29.6782 38.9095C30.8237 38.9095 31.9733 38.6704 33.068 38.1921C34.2836 37.6608 34.8395 36.2426 34.3092 35.0242C33.779 33.8062 32.3641 33.2492 31.1475 33.7805Z" fill="#D1A582"/>
<path d="M36.2305 42.3584C34.9883 41.8922 33.6041 42.5229 33.1388 43.7676C32.8533 44.5304 32.6075 45.2766 32.394 46.0324C33.597 47.1827 35.0366 48.1337 36.655 48.8093C36.9002 47.6494 37.216 46.5828 37.6369 45.4562C38.1022 44.2116 37.4728 42.8251 36.2305 42.3584Z" fill="#D1A582"/>
<path d="M47.8673 48.7745C47.9252 47.9879 47.9494 47.2004 47.9418 46.383C47.9293 45.0617 46.8562 43.9991 45.5405 43.9991C45.5329 43.9991 45.5248 43.9991 45.5173 43.9991C44.191 44.0118 43.126 45.0995 43.1386 46.4284C43.1496 47.6317 43.0822 48.7422 42.9165 49.9172C44.6784 49.838 46.3532 49.4389 47.8673 48.7745Z" fill="#D1A582"/>
<path d="M53.3887 39.6299C54.4038 33.8597 50.0643 28.27 43.696 27.1455C37.3277 26.0204 31.3426 29.7861 30.327 35.5564C29.3119 41.3272 33.6514 46.9163 40.0197 48.0414C46.3879 49.166 52.3735 45.4002 53.3887 39.6299Z" fill="#DDAF89"/>
<path d="M53.4508 32.7271C50.2115 34.5771 46.3337 35.3491 42.3749 34.6493C38.4155 33.95 35.0348 31.8961 32.6228 29.0475C31.8846 29.7211 31.234 30.4809 30.6952 31.3179C29.9611 32.4576 30.1872 33.9687 31.2179 34.8481C34.0554 37.2688 37.5535 38.9877 41.4886 39.6834C45.4243 40.3787 49.2981 39.9619 52.7906 38.6593C54.0596 38.186 54.7877 36.8435 54.4871 35.5211C54.266 34.5499 53.9145 33.613 53.4508 32.7271Z" fill="#7F9AE6"/>
<path d="M37.2755 32.8557C35.4864 31.8719 33.9154 30.5738 32.6228 29.0471C31.8846 29.7206 31.234 30.4809 30.6952 31.3174C29.9611 32.4571 30.1872 33.9687 31.2179 34.8481C32.6933 36.1064 34.3489 37.1734 36.1501 38.0074C35.7019 36.4913 36.2664 34.4339 37.2755 32.8557Z" fill="#5E78BF"/>
<path d="M40.9303 15.3704C40.4217 15.2806 39.9363 15.0349 39.5501 14.6343L36.8738 11.8579C35.7015 10.642 33.8747 10.4028 32.43 11.2767L30.1112 12.6798C28.9133 13.4043 27.3563 13.0188 26.6333 11.819C25.9097 10.6193 26.2949 9.05878 27.4923 8.33428L29.8116 6.9312C31.4839 5.91962 33.4719 5.50187 35.409 5.75515C37.3466 6.00842 39.1609 6.92312 40.5179 8.33125L43.1942 11.1077C44.1661 12.1162 44.1384 13.7226 43.1323 14.6969C42.5255 15.2836 41.7017 15.5066 40.9303 15.3704Z" fill="#495059"/>
<path d="M50.3131 17.0277C49.5412 16.8915 48.8433 16.3996 48.4737 15.6403C47.8603 14.38 48.383 12.8609 49.6404 12.2463L53.1032 10.5547C54.8591 9.69647 56.8768 9.45934 58.7832 9.88466C60.6901 10.3105 62.4157 11.3841 63.6418 12.9078L65.3423 15.0212C66.22 16.1125 66.0493 17.7104 64.9601 18.5902C63.8704 19.4701 62.2757 19.2986 61.3981 18.2073L59.6976 16.0939C58.6386 14.7781 56.84 14.3764 55.3238 15.1171L51.861 16.8093C51.3615 17.053 50.8212 17.1175 50.3131 17.0277Z" fill="#495059"/>
<path d="M42.1379 35.9964C54.802 38.2339 61.5328 33.4294 61.1919 24.9301C60.8253 15.7962 55.6434 9.91594 46.9961 8.38824C38.3492 6.86054 31.4724 10.6102 28.0105 19.0675C24.7884 26.9381 29.4733 33.7588 42.1379 35.9964Z" fill="#DDAF89"/>
<path d="M44.688 40.0901C44.688 41.8999 43.2237 43.367 41.4175 43.367C39.6113 43.367 38.147 41.8999 38.147 40.0901C38.147 38.2804 39.6113 36.8132 41.4175 36.8132C43.2237 36.8132 44.688 38.2804 44.688 40.0901Z" fill="#F6E06A"/>
<path d="M38.4272 20.4116C38.6961 18.8834 37.3617 17.3708 35.4468 17.0328C33.5318 16.6942 31.7613 17.6589 31.4924 19.1866C31.2236 20.7148 32.5584 22.2274 34.4734 22.5659C36.3879 22.9039 38.1583 21.9393 38.4272 20.4116Z" fill="#FFDBDB"/>
<path d="M50.95 22.629C50.6811 24.1572 52.0155 25.6697 53.9304 26.0083C55.8454 26.3463 57.6154 25.3817 57.8842 23.854C58.1531 22.3257 56.8188 20.8132 54.9038 20.4751C52.9888 20.1366 51.2184 21.1013 50.95 22.629Z" fill="#FFDBDB"/>
<path d="M46.9093 19.5544C45.7718 19.0312 44.5195 18.8097 43.2723 18.9116C42.7556 18.954 42.2722 19.1826 41.9107 19.5549C41.4227 20.0574 41.5078 20.8798 42.0879 21.2718L43.6977 22.359C44.1776 22.6824 44.7713 22.7874 45.3327 22.6476L47.2165 22.1779C47.8958 22.0084 48.2563 21.2647 47.9693 20.625C47.7568 20.1512 47.3801 19.7713 46.9093 19.5544Z" fill="#495059"/>
<path d="M15.5292 54.4095H9.53604C5.29119 54.4095 1.8374 50.949 1.8374 46.6958V43.034C1.8374 38.7803 5.29119 35.3203 9.53604 35.3203H15.5287C16.704 35.3203 17.6562 36.2744 17.6562 37.4514C17.6562 38.629 16.704 39.583 15.5287 39.583H9.53604C7.63719 39.583 6.09182 41.1314 6.09182 43.034V46.6958C6.09182 48.5984 7.63719 50.1468 9.53604 50.1468H15.5287C16.704 50.1468 17.6562 51.1009 17.6562 52.2779C17.6562 53.4555 16.704 54.4095 15.5292 54.4095Z" fill="#7F9AE6"/>
<path d="M42.35 60.3357H19.6951C16.2993 60.3357 13.5459 57.5775 13.5459 54.1744V32.0454C13.5459 30.5813 14.7307 29.3942 16.1925 29.3942H45.8531C47.3144 29.3942 48.4992 30.5813 48.4992 32.0454V54.1744C48.4992 57.5775 45.7464 60.3357 42.35 60.3357Z" fill="#A0D9BB"/>
<path d="M19.6951 60.3357H34.7294C20.811 54.4136 22.0376 39.5255 22.3226 29.3942H16.192C14.7307 29.3942 13.5459 30.5813 13.5459 32.0454V54.1749C13.5459 57.5775 16.2993 60.3357 19.6951 60.3357Z" fill="#78BF9B"/>
<path d="M13.5459 47.5399V54.1744C13.5459 57.5775 16.2993 60.3357 19.6951 60.3357H42.3505C45.7464 60.3357 48.4997 57.5775 48.4997 54.1744V48.89C37.0729 53.01 21.3689 46.3266 13.5459 47.5399Z" fill="#F3E5B7"/>
<path d="M32.0555 37.0099H29.9895C27.5292 37.0099 25.5342 39.0089 25.5342 41.474V48.2558C25.5342 50.7214 27.5292 52.7199 29.9895 52.7199H32.0555C34.5163 52.7199 36.5109 50.7214 36.5109 48.2558V41.474C36.5109 39.0089 34.5163 37.0099 32.0555 37.0099Z" fill="#495059"/>
<path d="M19.6951 60.3357H34.7294C28.5288 57.6976 25.3348 53.2799 23.7235 48.2962C19.743 47.6232 16.193 47.1293 13.5459 47.5399V54.175C13.5459 57.5775 16.2993 60.3357 19.6951 60.3357Z" fill="#E0D29D"/>
<path d="M22.5622 23.8343C22.3159 24.3091 22.5007 24.8938 22.9741 25.1405C23.1166 25.2147 23.2691 25.25 23.4192 25.25C23.7686 25.25 24.1055 25.0598 24.2777 24.7278C25.0693 23.2026 25.0693 21.3818 24.2777 19.8571C23.7772 18.8915 23.7772 17.7386 24.2777 16.773C24.524 16.2982 24.3397 15.7135 23.8658 15.4668C23.392 15.2195 22.8084 15.4047 22.5622 15.8795C21.7711 17.4046 21.7711 19.2255 22.5622 20.7507C23.0632 21.7158 23.0632 22.8687 22.5622 23.8343ZM17.1002 24.9937C16.854 25.4685 17.0388 26.0532 17.5121 26.2999C17.6546 26.3746 17.8072 26.4094 17.9573 26.4094C18.3067 26.4094 18.6441 26.2192 18.8163 25.8877C19.6074 24.3626 19.6074 22.5412 18.8163 21.0165C18.3153 20.0509 18.3153 18.898 18.8163 17.9329C19.0625 17.4581 18.8777 16.8734 18.4044 16.6267C17.9306 16.3794 17.347 16.5646 17.1007 17.0389C16.3092 18.564 16.3092 20.3849 17.1007 21.9101C17.6018 22.8757 17.6018 24.0286 17.1002 24.9937ZM45.5659 23.5876L47.4502 23.1179C48.0524 22.9675 48.5534 22.5604 48.8249 22.0009C49.0963 21.4413 49.1058 20.7951 48.851 20.228C48.5424 19.5408 47.9965 18.9888 47.3127 18.674C46.0277 18.0827 44.6037 17.8305 43.1932 17.9465C42.444 18.0075 41.742 18.339 41.2179 18.8794C40.7848 19.3249 40.5733 19.9353 40.6368 20.5544C40.7007 21.1729 41.0326 21.7274 41.5477 22.075L43.158 23.1623C43.234 23.2137 43.3126 23.2602 43.3927 23.3041L43.0024 25.5194C42.1882 25.1708 41.4943 24.5724 41.0275 23.797C40.7521 23.3389 40.1579 23.191 39.7007 23.467C39.2435 23.7435 39.0959 24.3383 39.3714 24.7969C40.2964 26.3347 41.8377 27.3958 43.5996 27.707C43.9566 27.7701 44.3156 27.8009 44.6732 27.8009C46.078 27.8009 47.4537 27.3206 48.5655 26.421C48.981 26.085 49.0459 25.475 48.71 25.0588C48.3747 24.6426 47.7659 24.578 47.3505 24.914C46.6475 25.4826 45.791 25.8065 44.9068 25.8554L45.2965 23.6406C45.3872 23.6264 45.4768 23.6098 45.5659 23.5876ZM44.2386 21.5554L42.6283 20.4686C42.5784 20.4348 42.5638 20.3884 42.5603 20.3551C42.5573 20.3218 42.5618 20.2734 42.6036 20.23C42.802 20.0256 43.0674 19.9005 43.3509 19.8773C43.5216 19.8637 43.6923 19.8566 43.8635 19.8566C44.7729 19.8566 45.6767 20.0534 46.5055 20.4348C46.7644 20.5539 46.9708 20.7628 47.0876 21.0226C47.1123 21.0776 47.1002 21.1245 47.0856 21.1548C47.071 21.1845 47.0413 21.2234 46.9829 21.238L45.0992 21.7077C44.8041 21.7809 44.4904 21.7259 44.2386 21.5554ZM29.9894 53.6886H32.0554C35.0454 53.6886 37.4776 51.2517 37.4776 48.2559V41.474C37.4776 38.4787 35.0454 36.0413 32.0554 36.0413H29.9894C26.9999 36.0413 24.5673 38.4782 24.5673 41.474V48.2559C24.5673 51.2517 26.9999 53.6886 29.9894 53.6886ZM31.9895 37.9787H32.0554C33.9795 37.9787 35.5445 39.5467 35.5445 41.474V48.2559C35.5445 50.1832 33.9789 51.7512 32.0554 51.7512H31.9895V37.9787ZM26.5009 41.474C26.5009 39.5467 28.0659 37.9787 29.9894 37.9787H30.0559V51.7512H29.9894C28.0659 51.7512 26.5009 50.1832 26.5009 48.2559V41.474ZM36.7293 16.0031L36.5133 17.2301C36.4206 17.7568 36.7721 18.2593 37.2978 18.3521C37.3547 18.3622 37.4111 18.3668 37.4665 18.3668C37.9272 18.3668 38.3351 18.0363 38.4177 17.5666L38.6337 16.3396C38.7263 15.8124 38.3754 15.3104 37.8497 15.2175C37.3235 15.1237 36.8219 15.4763 36.7293 16.0031ZM52.1462 18.727L51.9302 19.9535C51.8375 20.4807 52.189 20.9832 52.7147 21.0761C52.7716 21.0862 52.828 21.0907 52.8834 21.0907C53.3441 21.0907 53.752 20.7602 53.8346 20.29L54.0506 19.0635C54.1433 18.5363 53.7918 18.0338 53.2661 17.9415C52.7404 17.8476 52.2389 18.1998 52.1462 18.727ZM66.0948 14.4133L64.3949 12.2999C63.0318 10.6062 61.1138 9.41245 58.9934 8.93921C57.0673 8.50935 55.0355 8.69199 53.2147 9.44575C51.4317 8.50481 49.4115 7.83127 47.1642 7.43421C44.9164 7.03715 42.7879 6.97711 40.7909 7.25056C39.3371 5.9176 37.4901 5.05033 35.5339 4.79453C33.3812 4.51301 31.1707 4.97717 29.3116 6.10176L26.9923 7.50484C25.3402 8.50431 24.8079 10.6642 25.8055 12.3195C26.4621 13.4093 27.6207 14.0127 28.8076 14.0127C29.1349 14.0127 29.4642 13.9653 29.786 13.8709C28.7497 15.276 27.8579 16.8875 27.1157 18.7003C25.674 22.2224 25.7037 25.5487 27.1816 28.4255H16.1919C14.1998 28.4255 12.5789 30.0491 12.5789 32.0455V34.3516H9.53605C4.75794 34.3516 0.870605 38.2466 0.870605 43.034V46.6959C0.870605 49.1746 1.9356 51.5423 3.79215 53.1921C3.97645 53.3556 4.20506 53.4363 4.43316 53.4363C4.70004 53.4363 4.96591 53.3258 5.15675 53.1104C5.51124 52.7098 5.47448 52.0978 5.07518 51.7426C3.63203 50.4601 2.8042 48.6206 2.8042 46.6959V43.034C2.8042 39.3147 5.82444 36.289 9.53605 36.289H12.5789V38.6144H9.53605C7.10394 38.6144 5.12503 40.5972 5.12503 43.034V46.6959C5.12503 49.1327 7.10394 51.1155 9.53605 51.1155H12.5789V53.4409H9.53605C9.17249 53.4409 8.80692 53.4116 8.44991 53.3536C7.9232 53.2678 7.42621 53.626 7.34061 54.1543C7.25501 54.682 7.61252 55.18 8.13973 55.2657C8.59896 55.3404 9.06876 55.3783 9.53605 55.3783H12.6827C13.2557 58.7384 16.1808 61.3044 19.695 61.3044H42.3503C46.2739 61.3044 49.4664 58.1062 49.4664 54.1745V47.0839C50.8531 46.1671 51.9876 45.0183 52.827 43.6995C53.7827 43.9321 54.7601 44.0496 55.7425 44.0496C57.6927 44.0496 59.6606 43.5946 61.505 42.6955C63.1753 41.8817 63.8737 39.8575 63.061 38.184C62.2488 36.5105 60.2286 35.8107 58.5583 36.625C58.1338 36.8319 56.8488 37.3788 55.3286 37.2829C55.4535 36.9106 55.5199 36.5166 55.5199 36.115C56.6433 35.6205 57.6429 34.9969 58.5105 34.2427C58.9138 33.8925 58.9576 33.2805 58.6077 32.8764C58.2577 32.4723 57.6474 32.4289 57.2441 32.779C56.388 33.5232 55.3674 34.1181 54.1926 34.5661C54.1458 34.5807 54.1005 34.5984 54.0572 34.6196C52.7223 35.111 51.1875 35.4112 49.4664 35.5232V32.0455C49.4664 30.0496 47.8455 28.4255 45.853 28.4255H29.4264C27.7214 25.8706 27.5382 22.7738 28.9048 19.4354C30.3162 15.9879 32.3072 13.3624 34.7831 11.6092C34.844 11.5759 34.9009 11.5355 34.9533 11.4906C36.6125 10.3524 38.4851 9.60014 40.5431 9.25C40.599 9.24596 40.6549 9.23637 40.7098 9.22275C42.6016 8.92205 44.6485 8.95788 46.8283 9.34232C49.0046 9.72728 50.9347 10.3953 52.6085 11.3241C52.6593 11.3594 52.7137 11.3897 52.7701 11.4144C54.5823 12.4487 56.0844 13.7953 57.2541 15.4324C57.2864 15.49 57.3246 15.5445 57.3684 15.5949C59.0991 18.0913 60.076 21.2431 60.2255 24.969C60.2955 26.7106 60.0478 28.2832 59.4899 29.6434C59.2864 30.1384 59.5221 30.7044 60.0161 30.9078C60.1364 30.9572 60.2608 30.9804 60.3831 30.9804C60.7638 30.9804 61.1244 30.7544 61.2779 30.38C61.9426 28.76 62.2387 26.9134 62.1576 24.8913C62.0791 22.9332 61.7875 21.1144 61.293 19.4384C61.7865 19.8042 62.3701 20.0342 62.9965 20.1013C63.1239 20.115 63.2508 20.122 63.3767 20.122C64.1723 20.122 64.9387 19.8521 65.5666 19.3445C66.2947 18.7568 66.7504 17.9198 66.8501 16.9884C66.9498 16.0571 66.6819 15.1423 66.0948 14.4133ZM12.5789 49.1781H9.53605C8.16994 49.1781 7.05862 48.0647 7.05862 46.6959V43.034C7.05862 41.6653 8.16994 40.5518 9.53605 40.5518H12.5789V49.1781ZM54.3391 39.801C54.3784 39.5785 54.4091 39.3535 54.4343 39.1275C56.6816 39.5165 58.6152 38.7516 59.4043 38.3672C60.1158 38.0206 60.9763 38.3182 61.3222 39.0311C61.6682 39.744 61.3711 40.6063 60.6591 40.9534C58.4405 42.0341 56.0225 42.3635 53.7389 41.9165C54.0078 41.2404 54.2102 40.5331 54.3391 39.801ZM49.4659 37.4646C50.8949 37.3793 52.2157 37.173 53.4252 36.847C53.2374 37.2522 52.8975 37.5857 52.4534 37.7511C51.4861 38.1119 50.485 38.4 49.4659 38.6119V37.4646ZM49.4659 40.5861C50.4478 40.3999 51.4156 40.1486 52.3587 39.8358C52.185 40.6239 51.9065 41.3736 51.5319 42.0749C51.5143 42.1052 51.4977 42.1365 51.483 42.1688C50.974 43.0946 50.2937 43.9311 49.4659 44.6536V40.5861ZM45.853 30.3629C46.779 30.3629 47.5323 31.1176 47.5323 32.0455V54.1745C47.5323 57.0376 45.2074 59.367 42.3498 59.367H19.695C16.8374 59.367 14.5125 57.0376 14.5125 54.1745V32.0455C14.5125 31.1176 15.2663 30.3629 16.1924 30.3629H45.853ZM35.0888 9.13698C34.7202 9.34283 34.3611 9.56331 34.0107 9.79741C33.278 9.84332 32.5635 10.0648 31.9305 10.4472L29.6112 11.8503C28.872 12.2973 27.9072 12.0587 27.4606 11.318C27.0145 10.5774 27.2526 9.61073 27.9918 9.16322L30.3112 7.76013C31.7971 6.86157 33.563 6.49024 35.2836 6.71526C36.3542 6.85501 37.3839 7.22433 38.2998 7.78536C37.18 8.11834 36.1079 8.56838 35.0888 9.13698ZM64.9276 16.7816C64.8833 17.1983 64.6794 17.5732 64.3536 17.836C64.0278 18.0994 63.6189 18.2189 63.203 18.175C62.787 18.1301 62.4134 17.9258 62.1506 17.5994L60.4501 15.4859C59.9848 14.9077 59.3886 14.4532 58.7119 14.159C58.4636 13.821 58.2048 13.4905 57.9299 13.1727C57.1655 12.2882 56.31 11.4997 55.3704 10.8024C56.4238 10.589 57.5185 10.5951 58.5734 10.8302C60.2673 11.2086 61.8001 12.1621 62.8893 13.5158L64.5897 15.6292C64.8526 15.9556 64.9724 16.3648 64.9276 16.7816Z" fill="black"/>
</g>
<defs>
<clipPath id="clip0_1591_25479">
<rect width="66" height="66" fill="white" transform="translate(0.870605)"/>
</clipPath>
</defs>
</svg>
