<svg width="170" height="170" viewBox="0 0 170 170" fill="none" xmlns="http://www.w3.org/2000/svg">
<g clip-path="url(#clip0_223_13551)">
<path d="M30.9467 131.021C25.2204 131.021 20.3644 128.827 15.5564 125.519C12.6784 123.538 11.9469 119.597 13.9235 116.713C15.9001 113.829 19.8353 113.096 22.712 115.077C27.3644 118.278 31.7586 121.3 44.7481 112.684C47.6586 110.753 51.5807 111.551 53.5081 114.469C55.4341 117.385 54.6378 121.315 51.7273 123.246C43.359 128.797 36.7119 131.021 30.9467 131.021Z" fill="#495059"/>
<path d="M39.9815 151.25C38.726 151.25 37.5211 151.159 36.3992 150.987C32.0853 150.324 29.1243 146.284 29.7844 141.963C30.4459 137.641 34.4783 134.673 38.7921 135.337C41.1267 135.694 44.7013 134.999 46.4068 133.25C46.8063 132.839 47.7415 131.88 47.2317 129.003C46.4691 124.698 49.3342 120.588 53.6312 119.824C57.9268 119.06 62.028 121.932 62.7906 126.236C64.0344 133.256 62.2303 139.676 57.7115 144.313C52.9061 149.242 45.8893 151.25 39.9815 151.25Z" fill="#DDAF89"/>
<path d="M87.1567 160.903C86.9505 160.903 86.7443 160.896 86.5354 160.879C82.184 160.539 78.9324 156.732 79.2709 152.372C79.9933 143.081 79.7326 136.547 78.3436 129.067C77.5459 124.77 80.376 120.636 84.6665 119.837C88.9556 119.035 93.0814 121.873 93.8791 126.172C95.5198 135.009 95.8518 142.955 95.0256 153.601C94.7027 157.751 91.2423 160.903 87.1567 160.903Z" fill="#DDAF89"/>
<path d="M36.655 109.469C21.7187 109.469 9.75516 104.399 3.82915 95.5597C1.39597 91.9301 2.36094 87.0126 5.98347 84.5734C9.606 82.1368 14.5152 83.1023 16.947 86.7319C19.8458 91.0542 27.2128 93.635 36.655 93.635C41.0194 93.635 44.5564 97.1802 44.5564 101.552C44.5564 105.925 41.0181 109.469 36.655 109.469Z" fill="#DDAF89"/>
<path d="M101.654 109.469C97.2899 109.469 93.7529 105.925 93.7529 101.552C93.7529 97.1807 97.2899 93.6356 101.654 93.6356C110.89 93.6356 111.897 93.2223 123.204 84.7948C126.705 82.1841 131.655 82.9118 134.26 86.4206C136.864 89.9293 136.138 94.8883 132.636 97.4978C119.413 107.355 115.29 109.469 101.654 109.469Z" fill="#DDAF89"/>
<path d="M111.111 92.5859C108.495 93.545 105.975 93.636 101.654 93.636C97.2899 93.636 93.7529 97.1811 93.7529 101.553C93.7529 105.926 97.2899 109.469 101.654 109.469C105.495 109.469 108.58 109.302 111.327 108.841C111.863 106.364 112.146 103.805 112.146 101.186C112.146 98.2324 111.786 95.3552 111.111 92.5859Z" fill="#D1A582"/>
<path d="M93.8781 126.172C93.0791 121.873 88.9534 119.036 84.6655 119.836C80.375 120.636 77.5449 124.769 78.3426 129.067C78.9963 132.59 79.397 135.906 79.5657 139.398C85.183 138.113 90.3671 135.815 94.8703 132.726C94.6213 130.56 94.2918 128.394 93.8781 126.172Z" fill="#D1A582"/>
<path d="M53.631 119.825C49.334 120.589 46.4689 124.698 47.2316 129.002C47.7413 131.879 46.8062 132.84 46.4067 133.25C46.1291 133.535 45.7984 133.787 45.4365 134.016C50.059 136.829 55.308 138.843 60.9461 139.845C63.0135 135.892 63.6737 131.218 62.7904 126.237C62.0278 121.931 57.9267 119.059 53.631 119.825Z" fill="#D1A582"/>
<path d="M36.6546 93.6347C33.1773 93.6347 29.9828 93.2839 27.1877 92.625C26.5185 95.3826 26.1631 98.2455 26.1631 101.185C26.1631 103.752 26.4355 106.26 26.9504 108.691C30.0074 109.202 33.2525 109.468 36.6546 109.468C41.019 109.468 44.5559 105.923 44.5559 101.552C44.5559 97.1799 41.0177 93.6347 36.6546 93.6347Z" fill="#D1A582"/>
<path d="M107.672 101.185C107.672 81.9088 90.4273 66.2832 69.1539 66.2832C47.8817 66.2832 30.6367 81.9088 30.6367 101.185C30.6367 120.46 47.8817 136.086 69.1539 136.086C90.4273 136.086 107.672 120.46 107.672 101.185Z" fill="#DDAF89"/>
<path d="M103.942 78.7773C94.5021 86.6265 82.379 91.3451 69.1534 91.3451C55.9292 91.3451 43.8061 86.6265 34.3665 78.7773C32.3587 81.3829 30.6856 84.2172 29.4158 87.236C27.6882 91.349 29.2822 96.1144 33.1226 98.3743C43.6958 104.593 56.0083 108.16 69.1534 108.16C82.2999 108.16 94.6123 104.593 105.184 98.3743C109.026 96.1144 110.62 91.349 108.891 87.236C107.623 84.2172 105.949 81.3816 103.942 78.7773Z" fill="#7F9AE6"/>
<path d="M51.6114 88.4537C45.2548 86.29 39.4248 82.9839 34.3665 78.7773C32.3587 81.3816 30.6856 84.2172 29.4158 87.236C27.6882 91.3477 29.2822 96.1144 33.1226 98.373C38.6193 101.608 44.5908 104.116 50.902 105.787C48.5868 101.131 49.2431 94.1417 51.6114 88.4537Z" fill="#5E78BF"/>
<path d="M54.7519 35.0647C53.1903 35.0647 51.6158 34.5878 50.2565 33.5989L40.8325 26.7399C36.7054 23.7367 31.14 23.9862 27.2982 27.3481L21.1284 32.7451C17.9417 35.5326 13.1025 35.2051 10.3218 32.0121C7.53969 28.8192 7.86653 23.9719 11.0533 21.1844L17.2231 15.7861C21.6731 11.894 27.3735 9.60555 33.2735 9.34045C39.1749 9.07534 45.0555 10.8453 49.835 14.3229L59.259 21.1818C62.6805 23.673 63.4393 28.4709 60.9542 31.9004C59.4562 33.9666 57.119 35.0647 54.7519 35.0647Z" fill="#495059"/>
<path d="M83.5564 35.0645C81.1881 35.0645 78.8522 33.9664 77.3528 31.9002C74.8678 28.4707 75.6265 23.6728 79.0493 21.1816L88.4734 14.3226C93.2515 10.8451 99.1347 9.07642 105.034 9.34022C110.935 9.60403 116.634 11.8938 121.084 15.7859L127.255 21.1842C130.441 23.9717 130.769 28.819 127.987 32.0119C125.205 35.2049 120.367 35.5324 117.18 32.7449L111.01 27.3479C107.167 23.986 101.602 23.7365 97.4759 26.741L88.0518 33.5999C86.6926 34.5876 85.1167 35.0645 83.5564 35.0645Z" fill="#495059"/>
<path d="M69.1541 95.8442C108.036 95.8442 125.557 77.999 120.089 52.8699C114.212 25.8669 95.7012 11.0859 69.1541 11.0859C42.6071 11.0859 24.0975 25.8669 18.2208 52.8699C12.7513 77.999 30.2738 95.8442 69.1541 95.8442Z" fill="#DDAF89"/>
<path d="M79.9131 109.518C79.9131 115.472 75.0961 120.299 69.1532 120.299C63.2116 120.299 58.3945 115.472 58.3945 109.518C58.3945 103.565 63.2116 98.7383 69.1532 98.7383C75.0961 98.7383 79.9131 103.565 79.9131 109.518Z" fill="#F6E06A"/>
<path d="M48.2368 55.4103C48.2368 50.3057 43.0513 46.168 36.6545 46.168C30.2577 46.168 25.0723 50.3057 25.0723 55.4103C25.0723 60.5148 30.2577 64.6526 36.6545 64.6526C43.0513 64.6526 48.2368 60.5148 48.2368 55.4103Z" fill="#FFDBDB"/>
<path d="M113.236 55.4103C113.236 50.3057 108.05 46.168 101.654 46.168C95.2567 46.168 90.0713 50.3057 90.0713 55.4103C90.0713 60.5148 95.2567 64.6526 101.654 64.6526C108.05 64.6526 113.236 60.5148 113.236 55.4103Z" fill="#FFDBDB"/>
<path d="M75.2285 47.7699C71.2454 46.7251 67.0626 46.7251 63.0795 47.7699C61.431 48.2027 59.9939 49.2189 59.0354 50.6315C57.7397 52.5392 58.4842 55.1552 60.588 56.0935L66.4232 58.6938C68.1612 59.4684 70.1456 59.4684 71.8836 58.6938L77.7201 56.0935C79.8238 55.1552 80.5683 52.5392 79.2726 50.6315C78.3141 49.2189 76.877 48.2027 75.2285 47.7699Z" fill="#495059"/>
<path d="M149.409 52.9915C145.301 48.8746 138.671 48.8265 134.502 52.846C130.202 56.9928 130.283 63.9947 134.503 68.2234L144.626 78.3663C147.267 81.0134 151.551 81.0134 154.193 78.3663L164.315 68.2234C168.535 63.9947 168.617 56.9928 164.315 52.846C160.148 48.8265 153.517 48.8746 149.409 52.9915Z" fill="#D16283"/>
<path d="M43.4046 37.8739C38.8288 37.8739 35.1051 41.6049 35.1051 46.1909C35.1051 47.5684 36.2205 48.686 37.5953 48.686C38.9701 48.686 40.0856 47.5684 40.0856 46.1909C40.0856 44.356 41.5745 42.8654 43.4046 42.8654C45.2347 42.8654 46.7249 44.356 46.7249 46.1909C46.7249 47.5684 47.839 48.686 49.2152 48.686C50.59 48.686 51.7054 47.5684 51.7054 46.1909C51.7054 41.6049 47.9817 37.8739 43.4046 37.8739ZM129.43 80.8443C126.684 80.4415 123.945 81.1328 121.718 82.7923C117.058 86.266 114.265 88.2842 112.006 89.4577C111.915 88.5948 111.723 87.7345 111.426 86.8924C113.418 85.3017 115.191 83.5552 116.726 81.6461C122.993 73.8489 124.998 63.7152 122.522 52.3403C121.151 46.0428 119.122 40.3664 116.457 35.3346C118.192 36.5367 120.205 37.1306 122.212 37.1306C125.043 37.1306 127.86 35.9532 129.864 33.6543C131.646 31.6088 132.527 28.989 132.344 26.2782C132.161 23.5686 130.936 21.0917 128.894 19.3061L122.724 13.9079C117.851 9.6454 111.609 7.1386 105.146 6.8488C99.2043 6.5811 93.2731 8.20682 88.2874 11.4362C82.4755 9.54404 76.0839 8.59148 69.1553 8.59148C62.2254 8.59148 55.8351 9.54404 50.0232 11.4362C45.0362 8.20682 39.1011 6.5811 33.1621 6.8488C26.7005 7.1386 20.458 9.6454 15.5864 13.9079L9.4153 19.3048C5.20003 22.9929 4.76554 29.4295 8.44514 33.653C10.449 35.9532 13.2661 37.1306 16.0975 37.1306C18.1039 37.1293 20.1156 36.5367 21.8523 35.3346C19.1869 40.3664 17.1571 46.0415 15.7875 52.339C13.3115 63.7152 15.3167 73.8489 21.5838 81.6461C23.1181 83.5539 24.8911 85.3017 26.8833 86.8911C26.5474 87.8449 26.3438 88.8196 26.2699 89.7955C22.8432 88.7741 20.2712 87.2147 19.0144 85.3407C15.8212 80.5766 9.35174 79.3031 4.59433 82.5025C-0.16178 85.7046 -1.43284 92.1867 1.76168 96.9521C7.19742 105.059 17.1013 110.22 29.7653 111.594C30.2231 113.033 30.7718 114.436 31.4086 115.798C28.4294 115.976 26.5306 114.679 24.122 113.022C22.183 111.688 19.8393 111.188 17.5255 111.62C15.2116 112.05 13.2038 113.359 11.8718 115.302C9.12088 119.314 10.1416 124.821 14.1468 127.577C20.1182 131.686 25.2997 133.517 30.9469 133.517C32.0312 133.517 33.1271 133.446 34.2374 133.305C33.2503 133.643 32.31 134.133 31.4449 134.77C29.2076 136.415 27.7446 138.836 27.3243 141.586C26.7459 145.37 28.2802 149.157 31.3295 151.47C31.7782 151.811 32.3074 151.976 32.8301 151.976C33.5837 151.976 34.3282 151.634 34.8184 150.985C35.6472 149.887 35.4319 148.323 34.3346 147.49C32.7458 146.285 31.9456 144.312 32.2465 142.341C32.4657 140.909 33.2283 139.648 34.393 138.791C35.5577 137.934 36.9857 137.583 38.4163 137.803C41.3839 138.258 45.817 137.426 48.1879 134.993C48.485 134.689 48.8131 134.302 49.101 133.794C52.2657 135.42 55.6898 136.672 59.302 137.487C58.5056 139.374 57.3837 141.079 55.931 142.57C52.9168 145.661 48.5342 147.763 43.5875 148.489C42.2269 148.688 41.2853 149.955 41.485 151.319C41.6666 152.56 42.7301 153.453 43.9454 153.453C44.0661 153.453 44.188 153.444 44.3099 153.426C50.3293 152.544 55.7222 149.926 59.4939 146.056C61.6716 143.822 63.2928 141.227 64.3305 138.321C65.9141 138.492 67.5237 138.581 69.1553 138.581C71.8323 138.581 74.4497 138.344 76.9853 137.895C77.2901 142.141 77.224 146.577 76.7882 152.178C76.5742 154.952 77.4483 157.643 79.2525 159.755C81.0579 161.869 83.5754 163.15 86.3393 163.366C86.6078 163.388 86.8828 163.399 87.1564 163.399C92.5442 163.399 97.0902 159.179 97.5091 153.794C98.2562 144.176 98.059 136.587 96.8438 128.745C102.283 124.196 106.375 118.329 108.509 111.704C118.1 110.851 123.185 107.652 134.124 99.4992C138.72 96.0723 139.679 89.5382 136.258 84.9314C134.601 82.7001 132.177 81.2485 129.43 80.8443ZM104.923 11.8338C110.263 12.0729 115.421 14.1444 119.448 17.6661L125.618 23.0644C126.658 23.9741 127.282 25.2359 127.375 26.616C127.469 27.9961 127.02 29.3295 126.111 30.3717C124.236 32.5224 120.965 32.7446 118.819 30.8668L112.649 25.4685C110.978 24.0079 108.989 22.9929 106.857 22.4978C105.92 21.5998 104.951 20.7369 103.944 19.9169C100.985 17.5063 97.7698 15.479 94.3107 13.8351C97.6362 12.3705 101.281 11.6727 104.923 11.8338ZM19.4904 30.8668C17.3426 32.7446 14.0715 32.5224 12.1974 30.3717C10.3232 28.221 10.545 24.9422 12.6915 23.0644L18.8614 17.6661C22.8873 14.1444 28.0455 12.0729 33.3852 11.8338C37.0285 11.6701 40.6744 12.3692 43.9986 13.8338C40.5395 15.479 37.3242 17.5063 34.3645 19.9169C33.358 20.7369 32.3878 21.5998 31.4527 22.4978C29.3191 22.9929 27.3308 24.0079 25.6603 25.4685L19.4904 30.8668ZM5.89653 94.1698C4.23247 91.6877 4.89394 88.3128 7.36992 86.6455C9.8472 84.9795 13.2168 85.6422 14.8796 88.123C17.1403 91.4953 21.3737 93.9164 27.1674 95.1769C27.489 95.928 27.8911 96.6454 28.3671 97.3159C28.2219 98.6025 28.1466 99.8994 28.1466 101.186C28.1466 102.961 28.2867 104.706 28.55 106.415C18.2245 104.953 10.2532 100.667 5.89653 94.1698ZM31.2607 89.9151C39.1595 94.6337 49.6432 97.4225 62.3266 98.1464C59.8791 99.6265 57.9492 101.879 56.8662 104.562C48.9246 103.129 41.3696 100.331 34.3839 96.2217C32.1453 94.9053 30.9676 92.3894 31.2607 89.9151ZM69.154 101.234C73.7143 101.234 77.4237 104.951 77.4237 109.519C77.4237 114.088 73.7143 117.804 69.154 117.804C64.595 117.804 60.8856 114.086 60.8856 109.519C60.8856 104.951 64.595 101.234 69.154 101.234ZM30.9469 128.527C26.3684 128.527 22.0572 126.966 16.9665 123.463C15.2259 122.264 14.781 119.871 15.9768 118.127C16.5566 117.282 17.4295 116.713 18.4347 116.526C19.4411 116.337 20.4593 116.554 21.3023 117.135C24.4515 119.301 27.9845 121.729 34.0285 120.466C35.5668 122.788 37.3748 124.945 39.4124 126.904C36.406 127.991 33.6109 128.527 30.9469 128.527ZM44.6251 131.507C43.6666 132.49 41.0142 133.153 39.1699 132.871C38.5266 132.772 37.8819 132.736 37.2438 132.756C39.3463 132.26 41.511 131.521 43.7626 130.531C44.1024 130.775 44.4448 131.014 44.7924 131.248C44.7379 131.386 44.6731 131.457 44.6251 131.507ZM92.5429 153.408C92.325 156.212 89.9593 158.408 87.1564 158.408C87.0125 158.408 86.8711 158.403 86.7284 158.392C85.2874 158.28 83.9762 157.612 83.0358 156.511C82.0968 155.41 81.6416 154.009 81.7531 152.567C82.2291 146.444 82.2745 141.46 81.888 136.733C85.6143 135.621 89.1058 134.036 92.2783 132.053C93.1175 138.652 93.1862 145.126 92.5429 153.408ZM69.154 133.591C49.3124 133.591 33.166 119.088 33.1284 101.25C40.2451 105.25 47.8909 108.003 55.9064 109.459C55.9064 109.478 55.9051 109.499 55.9051 109.519C55.9051 116.839 61.848 122.793 69.154 122.793C76.46 122.793 82.4042 116.839 82.4042 109.519C82.4042 109.498 82.4029 109.478 82.4016 109.459C90.4171 108.003 98.0642 105.25 105.181 101.25C105.143 119.088 88.9969 133.591 69.154 133.591ZM103.925 96.2217C96.9384 100.331 89.3834 103.129 81.4418 104.562C80.3601 101.879 78.4289 99.6265 75.9814 98.1464C88.6661 97.4225 99.1498 94.6337 107.049 89.9151C107.342 92.3894 106.164 94.9053 103.925 96.2217ZM107.124 83.9086C106.968 83.9983 106.827 84.1023 106.698 84.2192C98.1667 90.2179 85.3925 93.3498 69.1553 93.3498C52.9168 93.3498 40.1439 90.2179 31.6122 84.2205C31.4838 84.1023 31.3412 83.9983 31.1855 83.9073C28.9806 82.305 27.0649 80.5091 25.4631 78.5156C20.1739 71.936 18.5099 63.2512 20.6538 53.4021C23.0676 42.3118 27.6538 33.3762 34.1518 26.7993C34.345 26.655 34.5149 26.4861 34.6589 26.295C39.0324 22.017 44.2437 18.7785 50.219 16.6408C50.411 16.5979 50.5991 16.5329 50.7781 16.4446C56.2864 14.5524 62.429 13.5817 69.1553 13.5817C75.8803 13.5817 82.0255 14.5524 87.5339 16.4459C87.7102 16.5329 87.897 16.5966 88.0877 16.6395C94.0643 18.7772 99.2769 22.0157 103.65 26.295C103.794 26.4861 103.964 26.6563 104.158 26.7993C110.657 33.3762 115.242 42.3131 117.655 53.4034C119.799 63.2525 118.137 71.936 112.846 78.5156C111.244 80.5091 109.329 82.3063 107.124 83.9086ZM131.151 95.4966C121.095 102.991 116.681 105.651 109.739 106.556C110.016 104.801 110.163 103.009 110.163 101.186C110.163 99.8994 110.086 98.6025 109.941 97.3172C110.412 96.6558 110.81 95.9488 111.129 95.2094C114.836 94.0645 118.225 91.6162 124.69 86.7962C125.851 85.932 127.279 85.5733 128.706 85.7813C130.137 85.9918 131.399 86.7481 132.262 87.9099C134.043 90.3089 133.544 93.7123 131.151 95.4966ZM166.043 51.0486C161.485 46.6549 154.444 46.2364 149.409 49.7504C144.374 46.2364 137.332 46.6549 132.775 51.0499C130.257 53.4774 128.851 56.7756 128.817 60.3364C128.782 63.9387 130.213 67.4565 132.742 69.9906L137.839 75.0965C138.812 76.0711 140.388 76.0711 141.361 75.0965C142.334 74.1218 142.334 72.5429 141.361 71.5683L136.264 66.4611C134.675 64.8692 133.776 62.6547 133.797 60.3845C133.819 58.1752 134.681 56.1363 136.229 54.6444C139.406 51.5814 144.528 51.6308 147.647 54.7562C148.114 55.2253 148.747 55.4878 149.409 55.4878C150.069 55.4878 150.702 55.2253 151.17 54.7562C154.289 51.6308 159.411 51.5814 162.588 54.6444C164.135 56.1363 164.999 58.1752 165.019 60.3845C165.042 62.6547 164.143 64.8692 162.554 66.4611L152.431 76.604C151.414 77.6228 149.963 78.0607 148.55 77.7722C147.203 77.4967 145.887 78.37 145.614 79.7189C145.34 81.0705 146.21 82.3869 147.558 82.6624C148.177 82.7884 148.798 82.8495 149.415 82.8495C151.844 82.8495 154.196 81.8918 155.952 80.1322L166.075 69.9906C168.604 67.4565 170.034 63.9387 170 60.3364C169.966 56.7756 168.562 53.4774 166.043 51.0486ZM75.8595 45.3579C71.4731 44.2078 66.8363 44.2078 62.4498 45.3579C60.2176 45.9427 58.2734 47.3176 56.9764 49.2305C55.9427 50.7523 55.6392 52.6418 56.1425 54.4118C56.6457 56.1818 57.8973 57.6268 59.5769 58.3741L65.4121 60.9744C65.8207 61.1564 66.2396 61.3045 66.6638 61.4241V68.0868C66.6638 68.8704 67.0308 69.6073 67.6547 70.079C68.2785 70.5507 69.0879 70.7002 69.8401 70.4857L72.761 69.6488C73.7298 69.3694 74.3265 69.9503 74.5379 70.2128C74.748 70.4753 75.1864 71.1823 74.7078 72.0725C73.6909 73.9633 73.6909 76.2219 74.7078 78.1127C75.1864 79.0029 74.748 79.7098 74.5379 79.9724C74.3265 80.2349 73.7311 80.8158 72.761 80.5363L69.8401 79.6982C68.5185 79.32 67.1385 80.0867 66.761 81.4109C66.3823 82.7352 67.1475 84.1179 68.4692 84.496L71.39 85.3342C72.0191 85.5149 72.6533 85.6019 73.2759 85.6019C75.2486 85.6019 77.1163 84.7196 78.4172 83.1003C80.128 80.9704 80.3874 78.1517 79.0929 75.745C78.8725 75.3369 78.8725 74.8483 79.0929 74.4389C80.3874 72.0322 80.128 69.2135 78.4172 67.0836C76.7609 65.0238 74.1864 64.1544 71.6443 64.7821V61.4241C72.0697 61.3045 72.4886 61.1564 72.8972 60.9744L78.7324 58.3741C80.4107 57.6268 81.6623 56.1818 82.1656 54.4118C82.6701 52.6418 82.3666 50.7523 81.3329 49.2305C80.0359 47.3176 78.0917 45.9427 75.8595 45.3579ZM77.3757 53.0434C77.3186 53.2461 77.1552 53.6152 76.7078 53.814L70.8725 56.4144C69.7805 56.9004 68.5289 56.9004 67.4355 56.4144L61.6003 53.814C61.1541 53.6152 60.9907 53.2461 60.9323 53.0434C60.8752 52.842 60.8195 52.4417 61.0944 52.0362C61.7144 51.1227 62.6443 50.4651 63.7105 50.1857C65.4913 49.7179 67.3226 49.484 69.154 49.484C70.9854 49.484 72.818 49.7179 74.5975 50.1857H74.5988C75.665 50.4651 76.5936 51.1227 77.2136 52.0362C77.4899 52.4417 77.4341 52.842 77.3757 53.0434ZM94.9034 39.5971C93.5286 39.5971 92.4132 40.7147 92.4132 42.0922V46.1909C92.4132 47.5684 93.5286 48.686 94.9034 48.686C96.2795 48.686 97.3937 47.5684 97.3937 46.1909V42.0922C97.3937 40.7147 96.2795 39.5971 94.9034 39.5971Z" fill="black"/>
</g>
<defs>
<clipPath id="clip0_223_13551">
<rect width="170" height="170" fill="white"/>
</clipPath>
</defs>
</svg>
