<svg width="170" height="170" viewBox="0 0 170 170" fill="none" xmlns="http://www.w3.org/2000/svg">
<g clip-path="url(#clip0_223_12967)">
<path d="M86.51 18.5169C86.51 25.3105 81.0029 30.8163 74.2106 30.8163C67.4182 30.8163 61.9111 25.3105 61.9111 18.5169C61.9111 11.7245 67.4182 6.21875 74.2106 6.21875C81.0029 6.21875 86.51 11.7245 86.51 18.5169Z" fill="#A2D3EE"/>
<path d="M74.2106 30.8153C78.61 30.8153 82.4672 28.5041 84.641 25.0307C68.0148 29.7051 63.4727 14.2838 68.1925 7.79102C64.4455 9.89864 61.9111 13.9102 61.9111 18.5159C61.9111 25.3096 67.4182 30.8153 74.2106 30.8153Z" fill="#92BFD6"/>
<path d="M52.1133 49.2451C52.1133 62.9479 41.0046 74.0567 27.3018 74.0567C13.599 74.0567 2.49023 62.9479 2.49023 49.2451C2.49023 35.5411 13.599 24.4336 27.3018 24.4336C41.0046 24.4336 52.1133 35.5411 52.1133 49.2451Z" fill="#A2D3EE"/>
<path d="M48.8553 61.5316C17.2215 70.9297 6.996 42.2414 11.1516 30.418C5.85205 34.9691 2.49023 41.7135 2.49023 49.2465C2.49023 62.9492 13.599 74.058 27.3018 74.058C36.5338 74.058 44.5817 69.0114 48.8553 61.5316Z" fill="#92BFD6"/>
<path d="M54.492 141.509C54.492 155.869 42.8502 167.51 28.4911 167.51C14.1308 167.51 2.49023 155.869 2.49023 141.509C2.49023 127.15 14.1308 115.508 28.4911 115.508C42.8502 115.508 54.492 127.15 54.492 141.509Z" fill="#A2D3EE"/>
<path d="M28.4911 167.51C36.6116 167.51 43.8593 163.786 48.6283 157.955C18.8052 165.645 2.40334 134.257 15.4174 119.037C7.6886 123.544 2.49023 131.916 2.49023 141.509C2.49023 155.869 14.1308 167.51 28.4911 167.51Z" fill="#92BFD6"/>
<path d="M43.8979 144.115C42.086 144.115 40.1846 143.892 38.1742 143.456C35.4778 142.873 33.7657 140.214 34.3481 137.519C34.933 134.822 37.5919 133.108 40.287 133.693C45.2377 134.765 49.5683 134.761 56.3983 124.402C57.9171 122.099 61.0156 121.463 63.3178 122.982C65.6213 124.501 66.2568 127.599 64.738 129.901C58.279 139.698 51.9613 144.115 43.8979 144.115Z" fill="#495059"/>
<path d="M67.6451 160.194C65.317 160.194 63.0823 158.885 62.0097 156.645C57.7114 147.667 57.9527 141.377 58.762 133.468C59.1135 130.037 62.1783 127.547 65.6101 127.893C69.0394 128.244 71.5361 131.31 71.1846 134.74C70.5115 141.319 70.2988 145.041 73.2728 151.252C74.7617 154.363 73.4466 158.091 70.3377 159.58C69.4674 159.997 68.5491 160.194 67.6451 160.194Z" fill="#DDAF89"/>
<path d="M98.3405 151.769C98.0149 151.769 97.6842 151.743 97.3521 151.691C93.9462 151.149 91.6246 147.949 92.1681 144.543C92.8166 140.464 89.6571 135.877 87.7816 134.562C84.958 132.582 84.2732 128.689 86.2524 125.865C88.2317 123.042 92.1253 122.357 94.9488 124.337C100.653 128.335 105.94 137.464 104.5 146.506C104.01 149.58 101.356 151.769 98.3405 151.769Z" fill="#DDAF89"/>
<path d="M39.4469 125.31C38.4158 125.31 37.4054 125.222 36.4158 125.047C31.3653 124.157 26.9983 121.008 23.4368 115.687C21.5185 112.82 22.2863 108.943 25.1527 107.025C28.0164 105.106 31.8958 105.875 33.814 108.741C36.7323 113.102 39.229 114.393 46.308 110.515C49.3313 108.858 53.1276 109.966 54.7839 112.991C56.4401 116.015 55.3325 119.81 52.3079 121.466C47.6102 124.039 43.3729 125.31 39.4469 125.31Z" fill="#DDAF89"/>
<path d="M103.356 113.738C101.676 113.738 99.9955 113.542 98.3444 113.121C95.0046 112.267 92.9878 108.866 93.8412 105.525C94.6947 102.184 98.0941 100.166 101.436 101.022C106.408 102.292 112.877 98.2388 114.304 95.0196C115.7 91.8666 119.387 90.4425 122.54 91.8394C125.693 93.235 127.117 96.9236 125.721 100.077C122.518 107.31 112.975 113.738 103.356 113.738Z" fill="#DDAF89"/>
<path d="M108.65 105.235C108.362 103.605 107.933 102.028 107.39 100.504C105.429 101.22 103.325 101.506 101.436 101.024C98.0941 100.168 94.6947 102.186 93.8412 105.527C92.9878 108.868 95.0046 112.269 98.3444 113.122C99.9955 113.544 101.676 113.74 103.356 113.74C105.246 113.74 107.13 113.489 108.966 113.037C109.205 110.478 109.113 107.863 108.65 105.235Z" fill="#D1A582"/>
<path d="M100.993 130.948C99.2799 128.183 97.1464 125.879 94.9492 124.338C92.1244 122.359 88.2321 123.044 86.2529 125.868C84.2737 128.691 84.9572 132.585 87.7807 134.564C88.7561 135.247 90.0751 136.814 91.0284 138.732C94.8688 136.704 98.2384 134.049 100.993 130.948Z" fill="#D1A582"/>
<path d="M70.8463 142.961C70.6375 140.486 70.8554 137.954 71.1848 134.74C71.5363 131.31 69.0396 128.244 65.6091 127.893C62.1785 127.547 59.1137 130.037 58.7622 133.468C58.5391 135.656 58.3588 137.72 58.3057 139.751C62.1305 141.528 66.3704 142.644 70.8463 142.961Z" fill="#D1A582"/>
<path d="M54.7835 112.992C53.126 109.967 49.3309 108.858 46.3076 110.516C43.6501 111.972 41.6372 112.698 40.0068 112.809C40.0419 114.29 40.1858 115.776 40.4478 117.26C40.9277 119.985 41.7863 122.571 42.9614 124.982C45.8822 124.456 48.9782 123.29 52.3076 121.466C55.3309 119.81 56.4398 116.015 54.7835 112.992Z" fill="#D1A582"/>
<path d="M104.517 105.966C101.879 90.9944 86.3189 81.2241 69.7641 84.1423C53.2105 87.0606 41.9292 101.562 44.5686 116.534C47.208 131.505 62.7668 141.275 79.3216 138.357C95.8765 135.439 107.156 120.937 104.517 105.966Z" fill="#DDAF89"/>
<path d="M98.552 89.0684C92.281 96.4599 83.4926 101.788 73.2009 103.603C62.9093 105.417 52.8277 103.416 44.4076 98.6156C43.2014 100.914 42.2883 103.346 41.7137 105.864C40.9316 109.296 42.8253 112.779 46.1235 114.007C55.2038 117.386 65.2737 118.467 75.5044 116.663C85.7338 114.859 94.827 110.399 102.203 104.119C104.883 101.837 105.47 97.9165 103.562 94.9593C102.162 92.7881 100.472 90.8154 98.552 89.0684Z" fill="#7F9AE6"/>
<path d="M59.1531 103.764C53.9107 102.955 48.9198 101.188 44.4076 98.6152C43.2014 100.914 42.2883 103.345 41.7137 105.864C40.9316 109.296 42.8253 112.778 46.1235 114.007C50.8446 115.763 55.8354 116.893 60.9754 117.324C58.5358 114.026 58.0883 108.507 59.1531 103.764Z" fill="#5E78BF"/>
<path d="M53.9592 61.114C52.7245 61.3319 51.4119 61.1763 50.1992 60.5849L41.7882 56.4824C38.1047 54.6874 33.7364 55.6602 31.1632 58.8508L27.0336 63.9739C24.9 66.6198 21.0272 67.0348 18.3813 64.9026C15.7354 62.769 15.3204 58.8949 17.4526 56.249L21.5836 51.1271C24.5615 47.432 28.7521 44.8289 33.3849 43.7965C38.0165 42.7654 42.9153 43.3413 47.1811 45.4217L55.5921 49.5228C58.6466 51.0117 59.915 54.6952 58.4261 57.7509C57.5285 59.5914 55.8334 60.7846 53.9592 61.114Z" fill="#495059"/>
<path d="M76.7514 57.0944C74.8772 57.4252 72.876 56.8843 71.4026 55.4602C68.959 53.0997 68.8903 49.2048 71.2521 46.76L77.7527 40.0298C81.0497 36.6162 85.4581 34.3996 90.1624 33.7848C94.8679 33.17 99.6966 34.183 103.759 36.6356L109.392 40.0376C112.301 41.7938 113.236 45.5758 111.479 48.485C109.722 51.3941 105.94 52.3293 103.031 50.5718L97.3983 47.1698C93.8899 45.0518 89.4516 45.6316 86.6047 48.5797L80.1041 55.3098C79.1651 56.2812 77.9849 56.8765 76.7514 57.0944Z" fill="#495059"/>
<path d="M73.8169 107.099C104.579 101.675 115.958 85.1381 108.133 66.0592C99.7231 45.5563 83.0191 36.4657 62.0155 40.1699C41.0119 43.8728 28.4246 58.1281 27.5348 80.2704C26.7073 100.876 43.0547 112.523 73.8169 107.099Z" fill="#DDAF89"/>
<path d="M84.1921 117.719C84.1921 122.414 80.3854 126.22 75.6903 126.22C70.9952 126.22 67.1885 122.414 67.1885 117.719C67.1885 113.023 70.9952 109.217 75.6903 109.217C80.3854 109.217 84.1921 113.023 84.1921 117.719Z" fill="#F6E06A"/>
<path d="M51.388 76.233C50.6889 72.2694 46.0872 69.7662 41.1093 70.6442C36.1314 71.521 32.662 75.447 33.361 79.4106C34.0601 83.3755 38.6619 85.8775 43.6397 84.9994C48.6176 84.1226 52.0871 80.1979 51.388 76.233Z" fill="#FFDBDB"/>
<path d="M83.9529 70.4849C84.6507 74.4498 89.2537 76.9517 94.2316 76.0737C99.2094 75.1969 102.679 71.2709 101.98 67.3073C101.281 63.3423 96.679 60.8404 91.7011 61.7185C86.722 62.5953 83.2538 66.5213 83.9529 70.4849Z" fill="#FFDBDB"/>
<path d="M71.3519 66.5946C68.1094 66.3287 64.8539 66.9032 61.898 68.2612C60.6737 68.8228 59.6944 69.8111 59.1419 71.0394C58.3961 72.6982 59.3326 74.6282 61.0991 75.0678L65.9966 76.287C67.4544 76.6502 68.9991 76.3778 70.2455 75.5374L74.4309 72.7177C75.9393 71.7008 76.1598 69.566 74.8914 68.2625C73.9523 67.2962 72.6942 66.7035 71.3519 66.5946Z" fill="#495059"/>
<path d="M76.8169 88.329C76.0919 84.215 72.6756 81.3771 69.1867 81.9919C65.699 82.6067 63.4591 86.4406 64.1841 90.556C64.9092 94.6714 68.3254 97.5079 71.8144 96.8931C75.302 96.2783 77.5419 92.4444 76.8169 88.329Z" fill="#D16283"/>
<path d="M127.024 80.4039L117.081 78.6504L113.954 96.3829C113.471 99.1287 115.305 101.747 118.049 102.231C120.795 102.715 123.413 100.882 123.897 98.1365L127.024 80.4039Z" fill="#495059"/>
<path d="M137.501 69.6949C137.501 77.2694 131.361 83.4107 123.787 83.4107C116.211 83.4107 110.071 77.2694 110.071 69.6949C110.071 62.1205 116.211 55.9805 123.787 55.9805C131.361 55.9805 137.501 62.1205 137.501 69.6949Z" fill="#A2D3EE"/>
<path d="M149.047 21.1605C149.047 31.4716 140.687 39.8308 130.376 39.8308C120.065 39.8308 111.706 31.4716 111.706 21.1605C111.706 10.8494 120.065 2.49023 130.376 2.49023C140.687 2.49023 149.047 10.8494 149.047 21.1605Z" fill="#A2D3EE"/>
<path d="M166.768 110.336C166.768 121.201 157.961 130.008 147.097 130.008C136.232 130.008 127.426 121.201 127.426 110.336C127.426 99.4726 136.232 90.666 147.097 90.666C157.961 90.666 166.768 99.4726 166.768 110.336Z" fill="#7F9AE6"/>
<path d="M166.768 110.336C166.768 121.201 157.961 130.008 147.097 130.008C136.232 130.008 127.426 121.201 127.426 110.336C127.426 99.4726 136.232 90.666 147.097 90.666C157.961 90.666 166.768 99.4726 166.768 110.336Z" fill="#A2D3EE"/>
<path d="M167.509 57.5247C167.509 65.0434 161.414 71.138 153.895 71.138C146.376 71.138 140.28 65.0434 140.28 57.5247C140.28 50.0047 146.376 43.9102 153.895 43.9102C161.414 43.9102 167.509 50.0047 167.509 57.5247Z" fill="#A2D3EE"/>
<path d="M153.895 71.1383C158.765 71.1383 163.035 68.5807 165.441 64.7364C147.038 69.9101 142.009 52.839 147.235 45.6523C143.086 47.9843 140.28 52.4253 140.28 57.5251C140.28 65.0437 146.376 71.1383 153.895 71.1383Z" fill="#92BFD6"/>
<path d="M140.396 144.406C140.396 151.924 134.3 158.02 126.782 158.02C119.263 158.02 113.167 151.924 113.167 144.406C113.167 136.887 119.263 130.791 126.782 130.791C134.3 130.791 140.396 136.887 140.396 144.406Z" fill="#A2D3EE"/>
<path d="M137.298 153.053C123.141 156.117 114.844 141.572 118.992 133.242C115.472 135.704 113.167 139.784 113.167 144.405C113.167 151.924 119.263 158.02 126.782 158.02C131.018 158.02 134.801 156.086 137.298 153.053Z" fill="#92BFD6"/>
<path d="M162.498 122.568C136.415 126.8 132.1 102.78 137.406 93.2207C131.448 96.602 127.426 102.997 127.426 110.337C127.426 121.202 136.232 130.009 147.096 130.009C153.337 130.009 158.895 127.1 162.498 122.568Z" fill="#92BFD6"/>
<path d="M130.376 39.83C137.515 39.83 143.716 35.8223 146.857 29.9352C122.314 38.0972 114.623 16.069 120.042 5.61133C115.017 8.95758 111.706 14.6709 111.706 21.1597C111.705 31.4709 120.064 39.83 130.376 39.83Z" fill="#92BFD6"/>
<path d="M147.098 88.1763C139.461 88.1763 132.714 92.0583 128.727 97.9531C128.805 96.1658 128.338 94.3708 127.36 92.8403L128.718 85.1375C130.254 84.6459 131.723 83.9196 133.081 82.9689C136.627 80.4865 138.994 76.7706 139.745 72.5086C140.497 68.2454 139.544 63.9445 137.061 60.3986C134.578 56.8526 130.863 54.4868 126.6 53.7346C119.37 52.4596 112.399 56.2144 109.28 62.4751C107.78 59.2598 106.059 56.3299 104.136 53.6944C104.809 53.8617 105.499 53.9512 106.196 53.9512C106.891 53.9512 107.591 53.8669 108.284 53.6957C110.525 53.1419 112.416 51.7489 113.609 49.7723C116.073 45.6932 114.758 40.369 110.679 37.9047L105.045 34.504C100.502 31.7609 95.101 30.6286 89.8378 31.3147C85.0661 31.9398 80.5617 34.0475 77.0144 37.2861C72.1805 36.6285 67.0158 36.7582 61.584 37.7167C58.5439 38.2523 55.6762 39.0098 52.9784 39.9657C51.6944 36.4158 49.675 33.1461 47.0486 30.3938C46.0992 29.399 44.5233 29.3627 43.5272 30.3121C42.5324 31.2615 42.4961 32.8387 43.4455 33.8335C45.6465 36.1382 47.3248 38.8866 48.3702 41.8697C47.8864 42.1018 47.413 42.3444 46.9422 42.5921C42.4974 40.7594 37.5403 40.3185 32.8426 41.3651C27.6624 42.5195 22.975 45.4299 19.6443 49.5621L15.5147 54.6853C12.5225 58.396 13.1075 63.8486 16.8182 66.8394C18.4135 68.1261 20.3291 68.7512 22.2344 68.7499C23.9374 68.7499 25.6287 68.2493 27.0735 67.2765C26.674 68.6552 26.329 70.0716 26.0437 71.5294C14.3188 70.8744 4.98047 61.1301 4.98047 49.2444C4.98047 36.9372 14.9933 26.9231 27.3018 26.9231C30.1993 26.9231 33.0151 27.4691 35.6739 28.5456C36.9476 29.0631 38.4002 28.4483 38.9164 27.1734C39.4339 25.8984 38.8178 24.4458 37.5429 23.9296C34.2887 22.6118 30.8426 21.9426 27.3018 21.9426C12.2475 21.9439 0 34.1914 0 49.2444C0 63.6307 11.1853 75.445 25.3161 76.4671C25.1916 77.6797 25.0982 78.9119 25.0463 80.17C24.6663 89.651 27.7207 97.5082 33.8802 102.892C35.443 104.258 37.1888 105.448 39.0993 106.468C38.9657 107.795 39.1174 109.107 39.5156 110.334C38.1084 110.284 37.207 109.334 35.8827 107.356C34.5844 105.417 32.6104 104.1 30.3212 103.646C28.0333 103.193 25.7039 103.657 23.7662 104.956C21.8285 106.253 20.5107 108.228 20.0568 110.516C19.8064 111.782 19.8376 113.059 20.1346 114.276C8.30208 117.893 0 128.885 0 141.509C0 157.219 12.7806 170 28.4911 170C42.1589 170 53.6049 160.324 56.3519 147.466C56.92 150.693 57.9823 154 59.763 157.721C61.2066 160.737 64.2999 162.685 67.6449 162.685C68.9561 162.685 70.2233 162.397 71.4127 161.828C73.5164 160.82 75.1013 159.053 75.8782 156.854C76.6538 154.654 76.5254 152.283 75.5177 150.179C73.8484 146.69 73.3102 144.137 73.2622 141.361C73.3205 141.361 73.3802 141.364 73.4399 141.364C75.5332 141.364 77.6486 141.179 79.7614 140.807C82.6122 140.304 85.3463 139.471 87.9195 138.351C89.0337 139.965 90.0129 142.24 89.7081 144.153C88.9507 148.91 92.2048 153.395 96.9583 154.151C97.4149 154.225 97.8805 154.261 98.3409 154.261C102.656 154.261 106.28 151.165 106.958 146.899C108.158 139.369 105.192 132.229 101.633 127.487C104.236 123.94 105.985 120.032 106.825 115.975C114.119 114.939 121.32 110.709 125.551 105.166C125.152 106.826 124.936 108.556 124.936 110.337C124.936 122.557 134.877 132.499 147.096 132.499C148.92 132.499 150.733 132.277 152.487 131.838C153.821 131.504 154.632 130.152 154.299 128.818C153.965 127.483 152.612 126.674 151.279 127.006C149.92 127.346 148.513 127.518 147.096 127.518C137.623 127.518 129.915 119.81 129.915 110.337C129.915 100.864 137.623 93.1568 147.096 93.1568C156.57 93.1568 164.278 100.864 164.278 110.337C164.278 114.866 162.529 119.141 159.357 122.373C158.393 123.355 158.407 124.932 159.389 125.896C160.371 126.859 161.948 126.844 162.911 125.863C167.004 121.693 169.258 116.18 169.258 110.337C169.258 98.1178 159.317 88.1763 147.098 88.1763ZM90.4837 36.2537C94.6328 35.7128 98.8895 36.6051 102.471 38.7685L108.105 42.1693C109.834 43.2133 110.391 45.4688 109.347 47.1977C108.841 48.0356 108.039 48.627 107.089 48.8618C106.14 49.0952 105.155 48.9461 104.317 48.4402L98.6846 45.0395C97.1217 44.0953 95.3604 43.5519 93.5485 43.4429C90.437 41.3768 87.0609 39.7854 83.4527 38.6868C85.6005 37.4184 87.9961 36.5792 90.4837 36.2537ZM25.0943 62.4102C23.8271 63.9822 21.5172 64.2299 19.9439 62.9627C18.372 61.6956 18.1242 59.3843 19.3914 57.8111L23.5223 52.6892C26.1475 49.4312 29.8426 47.1368 33.9268 46.2263C36.3795 45.6802 38.9216 45.6504 41.3768 46.1095C38.3652 48.3728 35.7401 51.0187 33.5235 54.0199C31.8504 54.7424 30.3757 55.8604 29.2252 57.2871L25.0943 62.4102ZM24.9426 111.485C25.1384 110.502 25.7039 109.652 26.5392 109.094C27.3705 108.537 28.3705 108.337 29.3536 108.531C30.3381 108.727 31.1863 109.293 31.744 110.127C33.9372 113.404 36.6972 116.184 41.8515 115.027C41.9189 115.678 42.0097 116.325 42.1226 116.966C42.4468 118.809 42.9527 120.593 43.6258 122.304C42.1783 122.649 40.7957 122.82 39.4469 122.82C38.5688 122.82 37.6933 122.745 36.8477 122.596C32.5832 121.844 28.8374 119.149 25.7091 114.594C25.7065 114.59 25.7026 114.586 25.7013 114.582C25.6364 114.489 25.5703 114.398 25.5054 114.302C24.9477 113.468 24.748 112.468 24.9426 111.485ZM28.4911 165.02C15.5276 165.02 4.98047 154.472 4.98047 141.509C4.98047 130.744 12.2942 121.417 22.5807 118.76C26.3109 123.647 30.8102 126.588 35.9826 127.501C37.1136 127.7 38.2796 127.801 39.4469 127.801C41.5143 127.801 43.6816 127.478 45.9124 126.846C46.6141 127.971 47.3975 129.049 48.2587 130.075C45.583 132.063 43.4857 131.837 40.8152 131.257C38.8619 130.835 36.8594 131.198 35.1785 132.281C33.4975 133.364 32.338 135.036 31.9152 136.99C31.0423 141.025 33.6143 145.017 37.6479 145.89C39.8684 146.37 41.9125 146.603 43.8982 146.603C46.6517 146.603 49.247 146.126 51.7152 145.17C49.9512 156.401 40.2095 165.02 28.4911 165.02ZM44.2056 108.642C48.7191 110.15 53.9162 110.918 59.728 110.918C62.1767 110.918 64.7357 110.778 67.3946 110.507C67.1455 110.796 66.9082 111.097 66.6864 111.415C65.9082 112.525 65.3544 113.747 65.0301 115.023C58.8538 114.954 52.7943 113.832 46.9928 111.673C46.5453 111.507 46.142 111.272 45.7827 110.991C45.7581 110.971 45.7334 110.95 45.7075 110.931C44.9812 110.337 44.4585 109.534 44.2056 108.642ZM55.9758 136.658C52.2547 140.041 48.3961 141.623 43.8982 141.623C42.2717 141.623 40.5714 141.427 38.7011 141.021C37.3509 140.729 36.491 139.393 36.7828 138.043C36.9255 137.39 37.3133 136.829 37.8749 136.467C38.4378 136.106 39.1071 135.984 39.7607 136.125C43.2069 136.872 47.2094 137.303 51.7982 133.621C52.9201 134.571 54.125 135.454 55.4103 136.261C55.5971 136.379 55.789 136.491 55.9797 136.605C55.9784 136.623 55.9771 136.64 55.9758 136.658ZM71.1805 155.197C70.8472 156.143 70.1649 156.903 69.2609 157.335C68.7499 157.58 68.2052 157.704 67.6449 157.704C66.2065 157.704 64.8758 156.867 64.2558 155.57C61.3052 149.409 60.5983 144.648 60.8292 138.995C63.2156 139.936 65.7137 140.6 68.2778 140.98C68.2856 144.513 68.9056 147.898 71.0262 152.328C71.4594 153.234 71.5138 154.252 71.1805 155.197ZM102.04 146.116C101.748 147.95 100.193 149.28 98.3409 149.28C98.1425 149.28 97.9427 149.265 97.743 149.232C96.7534 149.076 95.8831 148.541 95.2956 147.731C94.7067 146.919 94.4694 145.926 94.6263 144.937C95.1166 141.86 93.9778 138.569 92.354 136.026C94.5057 134.692 96.4953 133.129 98.2838 131.357C100.901 135.185 102.927 140.549 102.04 146.116ZM97.1581 125.149C94.577 128.468 91.258 131.151 87.4565 133.068C87.4552 133.069 87.4526 133.069 87.4513 133.071C84.8067 134.403 81.93 135.368 78.8963 135.902C71.5009 137.205 64.0989 135.836 58.0575 132.043C52.3818 128.479 48.5635 123.172 47.2159 117.028C52.9473 118.935 58.8902 119.932 64.9406 120.003C66.0275 125.129 70.5774 128.713 75.685 128.713C76.3166 128.713 76.956 128.657 77.5993 128.544C80.4903 128.034 83.0104 126.429 84.6952 124.024C86.3061 121.723 86.9637 118.955 86.5733 116.189C92.2321 114.053 97.4758 111.081 102.211 107.329C103.046 113.565 101.273 119.858 97.1581 125.149ZM81.6109 116.675C81.8898 118.256 81.5357 119.852 80.6149 121.168C79.694 122.483 78.3153 123.36 76.7342 123.639C73.471 124.213 70.3452 122.028 69.7694 118.762C69.4905 117.181 69.8446 115.586 70.7655 114.271C71.6863 112.955 73.065 112.077 74.6461 111.799C74.9976 111.736 75.3477 111.706 75.6927 111.706C78.5539 111.706 81.0973 113.762 81.6109 116.675ZM81.0117 108.109C89.7548 105.9 96.8753 102.634 102.172 98.4278C102.238 99.3565 102.019 100.293 101.534 101.101C101.529 101.109 101.525 101.116 101.52 101.124C101.275 101.528 100.966 101.901 100.59 102.222C95.874 106.237 90.5628 109.364 84.7795 111.543C83.8042 110.112 82.5085 108.939 81.0117 108.109ZM101.539 92.354C101.43 92.4422 101.33 92.5394 101.24 92.6432C95.3747 98.3357 85.9105 102.438 73.3854 104.647C60.8603 106.854 50.5647 106.237 43.1057 102.895C42.9851 102.829 42.858 102.77 42.7257 102.725C40.6349 101.749 38.775 100.555 37.1577 99.1412C32.1007 94.7223 29.6999 88.4072 30.0242 80.3697C30.1059 78.3334 30.2927 76.3698 30.578 74.4775C30.5806 74.4619 30.5832 74.4463 30.5858 74.4321C31.5637 67.9665 33.7141 62.357 36.9579 57.6956C37.0513 57.5841 37.1356 57.4673 37.2083 57.3428C40.0409 53.3831 43.679 50.1263 48.0693 47.6257C48.1951 47.57 48.3157 47.5012 48.4299 47.4234C49.6218 46.7632 50.8643 46.151 52.1639 45.6011C52.2703 45.5661 52.3727 45.5246 52.47 45.4779C55.5128 44.2185 58.8409 43.2574 62.4491 42.6219C65.3894 42.1031 68.2298 41.8463 70.9613 41.8463C73.1169 41.8463 75.2025 42.0123 77.2193 42.3301C77.375 42.3703 77.5332 42.3962 77.6927 42.4079C82.6667 43.2561 87.1919 45.0758 91.2022 47.8242C91.3216 47.924 91.45 48.0122 91.5862 48.0888C97.5848 52.3235 102.411 58.6684 105.828 67.0042C108.882 74.445 108.786 81.2011 105.546 87.0843C104.509 88.9636 103.17 90.7224 101.539 92.354ZM109.908 89.4863C111.298 86.9611 112.22 84.2789 112.675 81.4787C113.057 81.8392 113.456 82.1829 113.872 82.5059L111.764 94.4694C111 95.5978 109.22 97.0335 107.128 97.9272C107.031 96.8014 106.734 95.6847 106.228 94.6328C107.674 93.0206 108.905 91.3047 109.908 89.4863ZM107.395 110.826C107.425 109.066 107.288 107.294 106.976 105.529C106.848 104.804 106.687 104.079 106.5 103.362C108.504 102.87 110.526 101.941 112.258 100.76C112.406 101.041 112.565 101.318 112.751 101.582C113.906 103.232 115.634 104.333 117.617 104.682C118.059 104.76 118.501 104.799 118.942 104.799C119.02 104.799 119.097 104.792 119.175 104.79C115.996 107.71 111.731 109.941 107.395 110.826ZM122.268 93.0375C122.267 93.0414 122.265 93.0453 122.265 93.0505L121.444 97.7028C121.2 99.0919 119.874 100.021 118.482 99.778C117.809 99.6587 117.223 99.2851 116.83 98.7261C116.438 98.1658 116.287 97.4875 116.407 96.8143L116.577 95.8468C116.578 95.8429 116.578 95.839 116.579 95.8351L118.488 85.0078C119.286 85.284 120.115 85.5019 120.972 85.6537C121.824 85.8041 122.678 85.882 123.526 85.8975L122.268 93.0375ZM125.957 80.7095C124.614 80.9741 123.223 80.9936 121.837 80.7484C115.741 79.6745 111.657 73.8406 112.731 67.7448C113.691 62.3064 118.439 58.4686 123.78 58.4686C124.425 58.4686 125.08 58.5244 125.736 58.6398C128.688 59.1612 131.261 60.8006 132.981 63.2558C134.701 65.7124 135.361 68.6916 134.841 71.6435C134.32 74.5968 132.68 77.17 130.225 78.8898C128.973 79.7653 127.586 80.3658 126.134 80.6758C126.075 80.6849 126.015 80.6953 125.957 80.7095ZM130.377 42.321C142.045 42.321 151.537 32.8283 151.537 21.1605C151.537 9.49272 142.045 0 130.377 0C118.708 0 109.216 9.49272 109.216 21.1605C109.216 32.8283 118.709 42.321 130.377 42.321ZM130.377 4.98047C139.297 4.98047 146.557 12.2385 146.557 21.1605C146.557 30.0826 139.297 37.3405 130.377 37.3405C121.455 37.3405 114.197 30.0826 114.197 21.1605C114.197 12.2385 121.455 4.98047 130.377 4.98047ZM137.79 57.5257C137.79 66.405 145.016 73.6292 153.895 73.6292C162.776 73.6292 170 66.405 170 57.5257C170 48.6452 162.776 41.4209 153.895 41.4209C145.016 41.4209 137.79 48.6452 137.79 57.5257ZM153.895 46.4014C160.03 46.4014 165.02 51.3909 165.02 57.5257C165.02 63.6592 160.03 68.6488 153.895 68.6488C147.762 68.6488 142.771 63.6592 142.771 57.5257C142.771 51.3909 147.762 46.4014 153.895 46.4014ZM90.4007 56.6191C88.8715 55.5478 87.0142 55.1366 85.1764 55.4609C81.3788 56.1301 78.8341 59.7643 79.5033 63.5619C79.7173 64.7694 80.7679 65.6203 81.9534 65.6203C82.0973 65.6203 82.2426 65.6073 82.3891 65.5814C83.7432 65.3427 84.6472 64.0509 84.4086 62.6968C84.2166 61.6035 84.9481 60.5581 86.0415 60.3648C87.1323 60.1729 88.1789 60.9044 88.3722 61.9978C88.6121 63.3531 89.9052 64.2571 91.258 64.0172C92.6121 63.7785 93.5161 62.4867 93.2774 61.1327C92.9519 59.2935 91.9312 57.6904 90.4007 56.6191ZM50.3235 63.6852C48.7943 62.6138 46.9383 62.204 45.0992 62.5269C43.2587 62.8525 41.657 63.8732 40.5843 65.4037C39.513 66.9328 39.1019 68.7888 39.4261 70.628C39.6401 71.8368 40.6907 72.6863 41.8761 72.6863C42.0201 72.6863 42.1654 72.6746 42.3119 72.6487C43.666 72.4088 44.57 71.1182 44.3314 69.7629C44.238 69.2337 44.356 68.7006 44.6647 68.2597C44.9734 67.82 45.4351 67.5256 45.9643 67.4322C46.4935 67.3388 47.0265 67.4568 47.4675 67.7655C47.9072 68.0742 48.2016 68.5346 48.295 69.0651C48.5336 70.4192 49.8267 71.3245 51.1795 71.0845C52.5349 70.8459 53.4389 69.5541 53.2002 68.2C52.8747 66.3596 51.8539 64.7565 50.3235 63.6852ZM74.2103 33.3056C82.3645 33.3056 88.9999 26.6714 88.9999 18.5159C88.9999 10.3617 82.3645 3.72757 74.2103 3.72757C66.0548 3.72757 59.4206 10.3617 59.4206 18.5159C59.4206 26.6714 66.0548 33.3056 74.2103 33.3056ZM74.2103 8.70804C79.6188 8.70804 84.0195 13.1075 84.0195 18.5159C84.0195 23.9244 79.6188 28.3251 74.2103 28.3251C68.8018 28.3251 64.4011 23.9244 64.4011 18.5159C64.4011 13.1075 68.8018 8.70804 74.2103 8.70804ZM75.6344 81.4683C74.3231 80.3801 72.8303 79.7121 71.2804 79.4942L71.0132 77.9768C71.2259 77.86 71.4347 77.7381 71.637 77.6019L75.8224 74.7823C77.1545 73.8834 78.0144 72.4516 78.1791 70.8537C78.3451 69.2545 77.7978 67.6773 76.6759 66.5256C75.3166 65.1274 73.4982 64.2714 71.554 64.1119C67.8939 63.8136 64.1962 64.4646 60.859 65.9977C59.086 66.8122 57.671 68.2389 56.8707 70.0171C56.2119 71.4827 56.2365 73.1532 56.9382 74.5981C57.6398 76.0442 58.9368 77.0961 60.4971 77.4839L65.3946 78.7031C65.6306 78.7627 65.8693 78.8055 66.1092 78.8419L66.3777 80.3671C62.9446 82.2115 60.9446 86.4877 61.7371 90.9869C62.6086 95.9259 66.5502 99.4641 70.8731 99.4641C71.3297 99.4641 71.7914 99.4252 72.2518 99.3435C74.672 98.9168 76.7316 97.4369 78.052 95.1775C79.2932 93.0505 79.7277 90.4642 79.2751 87.8949C78.8211 85.3242 77.528 83.0415 75.6344 81.4683ZM61.6994 72.6513C61.5386 72.6111 61.4582 72.5047 61.418 72.4217C61.3778 72.34 61.3454 72.2116 61.4128 72.0599C61.7189 71.3802 62.2598 70.8355 62.9368 70.5242C65.0937 69.5333 67.4477 69.0223 69.8148 69.0223C70.2596 69.0223 70.7045 69.0405 71.1481 69.0755C71.8913 69.1364 72.5864 69.4646 73.1065 69.9976C73.222 70.117 73.2349 70.2493 73.2246 70.34C73.2155 70.4308 73.1753 70.5592 73.0378 70.6513L68.8524 73.4723C68.1922 73.9172 67.3699 74.0624 66.5969 73.8692L61.6994 72.6513ZM73.7511 92.6653C73.1805 93.6406 72.3426 94.2709 71.3867 94.4382C69.257 94.8131 67.1274 92.878 66.6423 90.1218C66.1559 87.3657 67.4944 84.8171 69.6241 84.4423C69.7966 84.4112 69.9691 84.3969 70.1442 84.3969C70.9367 84.3969 71.7395 84.7082 72.4529 85.2996C73.4399 86.1206 74.1208 87.3489 74.3698 88.7587C74.6188 90.1685 74.3983 91.5563 73.7511 92.6653ZM126.781 128.302C117.901 128.302 110.677 135.527 110.677 144.406C110.677 153.287 117.901 160.511 126.781 160.511C135.661 160.511 142.886 153.287 142.886 144.406C142.886 135.527 135.661 128.302 126.781 128.302ZM126.781 155.531C120.647 155.531 115.657 150.541 115.657 144.406C115.657 138.273 120.647 133.282 126.781 133.282C132.915 133.282 137.906 138.273 137.906 144.406C137.906 150.541 132.915 155.531 126.781 155.531Z" fill="black"/>
</g>
<defs>
<clipPath id="clip0_223_12967">
<rect width="170" height="170" fill="white"/>
</clipPath>
</defs>
</svg>
