<svg width="66" height="66" viewBox="0 0 66 66" fill="none" xmlns="http://www.w3.org/2000/svg">
<path d="M11.8306 55.9463C10.3779 55.9463 9.19208 54.7771 9.17547 53.3203C9.15885 51.8535 10.3346 50.6506 11.8014 50.634C15.4229 50.5932 17.358 50.0901 21.9835 45.1987C22.9916 44.1327 24.6724 44.0859 25.7384 45.094C26.8044 46.1021 26.8512 47.7834 25.8431 48.8489C20.698 54.2902 17.5619 55.8818 11.8613 55.9463C11.8513 55.9463 11.8412 55.9463 11.8306 55.9463Z" fill="#495059"/>
<path d="M25.145 65.0332C23.9597 65.0332 22.8131 64.3967 22.2149 63.2784C21.3493 61.6615 21.9591 59.6498 23.576 58.7848C24.1938 58.4539 24.7457 57.6009 25.0523 56.5027C25.4597 55.045 25.4043 53.34 24.8967 51.7025C24.3539 49.9512 25.3338 48.0911 27.0851 47.5478C28.8375 47.0049 30.697 47.9848 31.2398 49.7361C33.1316 55.8385 31.1834 62.2451 26.709 64.6394C26.21 64.9063 25.6737 65.0332 25.145 65.0332Z" fill="#DDAF89"/>
<path d="M44.7505 62.3085C44.5521 62.3085 44.3507 62.2903 44.1482 62.2536C42.3446 61.9228 41.1502 60.1931 41.4805 58.3894C41.8012 56.6381 41.3622 54.1939 37.4476 52.493C35.7658 51.7623 34.9949 49.8066 35.7255 48.1248C36.4567 46.4429 38.4124 45.672 40.0942 46.4027C46.0874 49.007 49.0477 53.9346 48.0129 59.5853C47.7193 61.1871 46.3225 62.3085 44.7505 62.3085Z" fill="#DDAF89"/>
<path d="M44.4418 42.9842C42.7257 42.3376 41.8591 40.4222 42.5057 38.7061C43.1522 36.99 45.0677 36.1234 46.7838 36.77C49.4656 37.7811 49.9888 37.3949 52.6817 34.8963C54.0257 33.649 56.1269 33.7271 57.3742 35.072C58.6215 36.416 58.5429 38.5168 57.199 39.764C54.3147 42.4403 51.0462 45.4732 44.4418 42.9842Z" fill="#DDAF89"/>
<path d="M50.4531 36.7816C49.3518 37.4926 48.52 37.4246 46.7833 36.77C45.0672 36.1235 43.1517 36.9906 42.5052 38.7066C41.8586 40.4222 42.7252 42.3377 44.4413 42.9842C46.7661 43.8604 48.6776 44.0517 50.3045 43.8155C50.6243 42.5859 50.795 41.3039 50.795 39.9861C50.795 38.8899 50.6766 37.8189 50.4531 36.7816Z" fill="#D1A582"/>
<path d="M27.0851 47.5478C25.3338 48.0911 24.3539 49.9512 24.8968 51.7025C25.2744 52.92 25.4013 54.1749 25.2739 55.338C27.279 56.1543 29.4724 56.6518 31.7761 56.7575C32.1286 54.5409 31.9775 52.1159 31.2399 49.7361C30.697 47.9848 28.8375 47.0049 27.0851 47.5478Z" fill="#D1A582"/>
<path d="M46.2959 51.2488C44.9157 49.2538 42.8199 47.5871 40.0938 46.4028C38.4119 45.6721 36.4562 46.4431 35.725 48.1249C34.9944 49.8067 35.7653 51.7625 37.4471 52.4936C39.1652 53.2398 40.2136 54.1296 40.8224 55.041C42.8995 54.0984 44.755 52.8068 46.2959 51.2488Z" fill="#D1A582"/>
<path d="M48.8902 39.9861C48.8902 31.9012 41.6432 25.3477 32.7034 25.3477C23.764 25.3477 16.5171 31.9012 16.5171 39.9861C16.5171 48.0704 23.764 54.624 32.7034 54.624C41.6432 54.624 48.8902 48.0704 48.8902 39.9861Z" fill="#DDAF89"/>
<path d="M47.3226 30.587C43.3557 33.8787 38.2609 35.8581 32.7033 35.8581C27.1462 35.8581 22.0514 33.8787 18.0845 30.587C17.2411 31.6797 16.5377 32.8686 16.0044 34.135C15.2778 35.8596 15.948 37.8587 17.5619 38.8063C22.0051 41.4142 27.1795 42.9107 32.7033 42.9107C38.2276 42.9107 43.402 41.4142 47.8453 38.8063C49.4591 37.8587 50.1288 35.8596 49.4027 34.135C48.8695 32.8686 48.166 31.6797 47.3226 30.587Z" fill="#7F9AE6"/>
<path d="M25.3315 34.6456C22.6602 33.7377 20.21 32.3514 18.0845 30.587C17.2406 31.6797 16.5377 32.8686 16.0044 34.135C15.2778 35.8596 15.948 37.8587 17.5619 38.8063C19.8721 40.1624 22.3812 41.2148 25.0334 41.9152C24.0605 39.963 24.336 37.0313 25.3315 34.6456Z" fill="#5E78BF"/>
<path d="M26.8191 13.4551C26.1816 13.4551 25.5381 13.2608 24.9827 12.8574L21.1326 10.0608C19.4468 8.83565 17.1728 8.93787 15.6027 10.308L13.082 12.509C11.7804 13.6455 9.80346 13.5115 8.66697 12.2099C7.53048 10.9082 7.66442 8.93132 8.96608 7.79483L11.4868 5.59386C13.3051 4.0067 15.6334 3.07314 18.0444 2.96538C20.4553 2.85762 22.8582 3.57869 24.8105 4.99716L28.661 7.79382C30.0589 8.80946 30.369 10.7662 29.3534 12.1646C28.7411 13.0075 27.7869 13.4551 26.8191 13.4551Z" fill="#495059"/>
<path d="M38.5885 13.455C37.6207 13.455 36.6665 13.0074 36.0542 12.1645C35.0385 10.7661 35.3487 8.80938 36.7466 7.79374L40.5971 4.99708C42.5494 3.5786 44.9527 2.85804 47.3632 2.96529C49.7736 3.07305 52.1025 4.00661 53.9208 5.59377L56.4415 7.79474C57.7432 8.93123 57.8771 10.9081 56.7406 12.2098C55.6036 13.5119 53.6272 13.6459 52.3256 12.5089L49.8044 10.3079C48.2348 8.93778 45.9608 8.83556 44.275 10.0607L40.4249 12.8573C39.8695 13.2607 39.226 13.455 38.5885 13.455Z" fill="#495059"/>
<path d="M32.7036 38.2384C48.5888 38.2384 55.7476 30.9617 53.5134 20.7152C51.1125 9.70425 43.5499 3.67688 32.7036 3.67688C21.8579 3.67688 14.2952 9.70425 11.8943 20.7152C9.66012 30.9617 16.8189 38.2384 32.7036 38.2384Z" fill="#DDAF89"/>
<path d="M41.9361 43.4806C41.9361 45.9777 39.9119 48.0024 37.4149 48.0024C34.9173 48.0024 32.8931 45.9777 32.8931 43.4806C32.8931 40.9836 34.9173 38.9594 37.4149 38.9594C39.9119 38.9594 41.9361 40.9836 41.9361 43.4806Z" fill="#F6E06A"/>
<path d="M28.3293 17.5242H23.5542V30.2139C23.5542 31.5322 24.6227 32.6012 25.9415 32.6012C27.2603 32.6012 28.3293 31.5322 28.3293 30.2139V17.5242Z" fill="#7F9AE6"/>
<path d="M45.1958 17.5242H49.9709V30.2139C49.9709 31.5322 48.9019 32.6012 47.5831 32.6012C46.2643 32.6012 45.1953 31.5322 45.1953 30.2139V17.5242H45.1958Z" fill="#7F9AE6"/>
<path d="M39.3148 17.8525C37.641 17.4149 35.8832 17.4149 34.2094 17.8525C33.5165 18.0343 32.9128 18.4608 32.51 19.0529C31.9656 19.853 32.2783 20.9503 33.1626 21.3435L35.6148 22.4342C36.3454 22.759 37.1793 22.759 37.9094 22.4342L40.3617 21.3435C41.2459 20.9503 41.5586 19.853 41.0148 19.0529C40.6119 18.4608 40.0077 18.0343 39.3148 17.8525Z" fill="#495059"/>
<path d="M29.5232 16.3303C29.5232 18.3082 27.9194 19.912 25.9415 19.912C23.9636 19.912 22.3604 18.3082 22.3604 16.3303C22.3604 14.3524 23.9636 12.7491 25.9415 12.7491C27.9194 12.7491 29.5232 14.3524 29.5232 16.3303Z" fill="white"/>
<path d="M51.1648 16.3303C51.1648 18.3082 49.561 19.912 47.5831 19.912C45.6052 19.912 44.002 18.3082 44.002 16.3303C44.002 14.3524 45.6052 12.7491 47.5831 12.7491C49.561 12.7491 51.1648 14.3524 51.1648 16.3303Z" fill="white"/>
<path d="M36.7626 34.4135C38.8417 34.4135 40.6932 35.8244 41.8579 33.0066C43.0392 30.1485 40.3936 25.7163 36.7626 25.7163C33.1315 25.7163 30.4854 30.1485 31.6668 33.0066C32.8314 35.8239 34.683 34.4135 36.7626 34.4135Z" fill="#D16283"/>
<path d="M36.7625 31.722C34.5987 31.722 32.7996 32.7941 32.4199 34.2095C33.5594 35.3279 35.0867 34.4135 36.7625 34.4135C38.4377 34.4135 39.9655 35.3279 41.105 34.2095C40.7248 32.7941 38.9257 31.722 36.7625 31.722Z" fill="#EB9898"/>
<path d="M27.3021 49.4235C21.5442 49.4235 18.5043 46.0538 16.2897 42.7576C15.2675 41.2354 15.6729 39.1724 17.1946 38.1497C18.7168 37.1281 20.7798 37.5324 21.8025 39.0546C23.6983 41.8769 25.0347 42.7828 27.3021 42.7828C29.136 42.7828 30.6225 44.2693 30.6225 46.1032C30.6225 47.9371 29.136 49.4235 27.3021 49.4235Z" fill="#C49B7A"/>
<path d="M54.698 56.3068L53.0746 55.3173L54.3637 53.5217C54.5485 53.2649 54.5953 52.9336 54.4895 52.6355C54.3843 52.3374 54.1391 52.1093 53.8339 52.0257L52.1023 51.5509L53.0393 49.9325C53.3067 49.4702 53.1491 48.8786 52.6874 48.6112C52.2251 48.3438 51.6335 48.5014 51.3661 48.9637L49.8006 51.6672C49.6505 51.9265 49.6294 52.2412 49.7432 52.5182C49.8565 52.7956 50.0926 53.0046 50.3817 53.0841L51.9824 53.5227L50.8958 55.0364C50.7387 55.2549 50.6798 55.5293 50.7336 55.7927C50.787 56.0565 50.9481 56.2861 51.1778 56.4261L53.6919 57.9579C53.849 58.0536 54.0228 58.0989 54.194 58.0989C54.5203 58.0989 54.8385 57.9342 55.0203 57.6351C55.2982 57.1794 55.1537 56.5842 54.698 56.3068ZM8.58381 30.2536C8.86881 30.2536 9.1513 30.1277 9.34214 29.8871C9.67397 29.4686 9.60348 28.8603 9.18453 28.529L6.6764 26.542L8.15026 24.3914C8.39448 24.0349 8.37283 23.5601 8.09739 23.2277L6.08021 20.7941L8.5108 18.8681C8.74041 18.6863 8.87536 18.4104 8.87737 18.1173C8.87939 17.8248 8.74847 17.5463 8.52137 17.3615L5.31583 14.7471C4.90192 14.4097 4.29315 14.4717 3.95577 14.8851C3.6184 15.299 3.68034 15.9083 4.09425 16.2457L6.36773 18.0997L4.10482 19.8923C3.90089 20.0539 3.77047 20.2906 3.74378 20.5494C3.71659 20.8082 3.79464 21.067 3.96081 21.267L6.14315 23.9L4.5716 26.1926C4.28408 26.6115 4.37019 27.1815 4.76849 27.4973L7.98409 30.0447C8.16184 30.1852 8.37333 30.2536 8.58381 30.2536ZM33.8711 35.7296C34.3923 35.7296 34.9028 35.6365 35.3601 35.5529C35.8253 35.4683 36.3062 35.3802 36.7624 35.3802C37.2181 35.3802 37.6995 35.4683 38.1643 35.5529C39.6114 35.8172 41.5924 36.1788 42.751 33.3756C43.4414 31.7069 43.1141 29.5396 41.897 27.7198C40.8582 26.1664 39.3471 25.1382 37.7287 24.8406V23.5188C37.9241 23.4674 38.1159 23.4005 38.3022 23.3174L40.7545 22.2267C41.4383 21.9226 41.9484 21.3354 42.1533 20.6159C42.3588 19.8958 42.2349 19.1284 41.8139 18.5096C41.2797 17.723 40.479 17.1581 39.5596 16.9174C37.7297 16.438 35.7951 16.438 33.9647 16.9174C33.0453 17.1581 32.2447 17.723 31.7104 18.5091C31.2894 19.1284 31.1656 19.8958 31.371 20.6159C31.576 21.3354 32.086 21.9226 32.7698 22.2267L35.2221 23.3174C35.4089 23.4005 35.6007 23.4674 35.7956 23.5188V24.8406C34.1772 25.1382 32.6666 26.1659 31.6273 27.7198C30.4108 29.5396 30.0835 31.7069 30.7733 33.3756C31.5659 35.2931 32.7432 35.7296 33.8711 35.7296ZM33.5554 20.4603C33.3378 20.3636 33.2588 20.1843 33.2306 20.0862C33.2024 19.988 33.1752 19.7936 33.3091 19.5967C33.5805 19.1974 33.9874 18.9104 34.4542 18.788C35.2095 18.5906 35.986 18.4914 36.7624 18.4914C37.5389 18.4914 38.3148 18.5906 39.0701 18.788C39.5369 18.9104 39.9438 19.1974 40.2152 19.5967C40.3491 19.7936 40.3219 19.9875 40.2937 20.0856C40.266 20.1843 40.1865 20.3636 39.969 20.4603L37.5167 21.5504C37.0368 21.7639 36.487 21.7639 36.0076 21.551L33.5554 20.4603ZM33.2346 28.7949C34.1193 27.4721 35.4381 26.6825 36.7624 26.6825C38.0867 26.6825 39.4055 27.4721 40.2897 28.7949C41.1392 30.0653 41.404 31.5734 40.9645 32.6369C40.4025 33.9964 39.9262 33.9093 38.5117 33.651C37.9875 33.5553 37.3933 33.4466 36.7624 33.4466C36.131 33.4466 35.5373 33.5553 35.0126 33.651C33.5987 33.9093 33.1218 33.9959 32.5604 32.6369C32.1208 31.5734 32.3851 30.0648 33.2346 28.7949ZM8.69056 41.6064C8.52792 41.9937 8.63366 42.4413 8.9524 42.7142L10.6468 44.1674L9.90862 45.7591C9.68404 46.2435 9.89452 46.8186 10.3789 47.0432C10.5109 47.1041 10.6488 47.1328 10.7853 47.1328C11.1498 47.1328 11.4993 46.9253 11.663 46.5724L12.7088 44.3165C12.8906 43.9237 12.7894 43.458 12.4611 43.176L10.7455 41.7051L11.5985 39.6718C11.7697 39.263 11.6413 38.7896 11.2863 38.5243L8.58733 36.5031C8.15983 36.1833 7.55407 36.2699 7.23382 36.6974C6.91407 37.1249 7.00118 37.7307 7.42869 38.0509L9.52342 39.6195L8.69056 41.6064ZM55.0998 33.0458C53.9568 33.0055 52.8631 33.4088 52.0237 34.1878C51.4849 34.6873 51.0398 35.0967 50.6566 35.4189C50.643 34.9909 50.57 34.5614 50.435 34.1415C51.494 33.2215 52.3742 32.1842 53.0685 31.0336C53.344 30.5764 53.1975 29.9822 52.7402 29.7063C52.283 29.4303 51.6888 29.5774 51.4129 30.0346C48.5961 34.7009 41.9519 37.2715 32.7039 37.2715C25.6991 37.2715 20.2695 35.8475 16.785 33.1288C16.7522 33.0986 16.7165 33.0709 16.6787 33.0453C15.9753 32.4843 15.3514 31.871 14.8136 31.2038C12.6423 28.5084 11.9595 24.9524 12.8387 20.921C13.8312 16.369 15.717 12.6967 18.4522 9.97809C18.4713 9.96047 18.4894 9.94234 18.5066 9.9232C18.9013 9.53497 19.3127 9.16588 19.7418 8.81693C21.2937 7.55556 23.0445 6.57819 24.9811 5.88683C25.041 5.87172 25.0994 5.85108 25.1553 5.82439C27.4248 5.03937 29.947 4.64359 32.7039 4.64359C35.4603 4.64359 37.9825 5.03937 40.2514 5.82439C40.3078 5.85108 40.3668 5.87172 40.4267 5.88733C42.3633 6.57819 44.1136 7.55556 45.6655 8.81693C46.095 9.16588 46.5064 9.53497 46.9012 9.92371C46.9183 9.94234 46.9364 9.96097 46.9556 9.97809C47.5558 10.5748 48.1147 11.2178 48.6329 11.9056C48.2955 11.8256 47.9445 11.7823 47.5835 11.7823C45.0754 11.7823 43.035 13.8221 43.035 16.3302C43.035 18.8379 45.0754 20.8782 47.5835 20.8782C49.4793 20.8782 51.1073 19.712 51.7891 18.0599C52.0912 18.9708 52.3515 19.9245 52.5685 20.921C52.994 22.8727 53.06 24.7142 52.7644 26.395C52.6718 26.9207 53.0232 27.4222 53.5489 27.5149C54.0746 27.607 54.5761 27.2561 54.6683 26.7304C55.0082 24.8008 54.9372 22.7076 54.4578 20.5091C53.8808 17.8645 53.0197 15.4883 51.8807 13.3936C52.6194 13.9646 53.5016 14.2461 54.3808 14.2456C55.5228 14.2456 56.6603 13.7718 57.4685 12.8458C58.9539 11.1443 58.7782 8.55206 57.0772 7.06612L54.556 4.86565C52.5741 3.13498 50.0347 2.11682 47.4062 1.9995C44.9827 1.88973 42.5597 2.5549 40.5264 3.87518C38.1512 3.10024 35.5378 2.70999 32.7034 2.70999C29.8695 2.70999 27.2561 3.10024 24.8809 3.87518C22.8476 2.5549 20.4251 1.88973 18.001 1.9995C15.3725 2.11682 12.8332 3.13498 10.8513 4.86565L8.33003 7.06612C6.62907 8.55156 6.45333 11.1443 7.93877 12.8458C8.74746 13.7718 9.88395 14.2461 11.0265 14.2456C11.9057 14.2456 12.7874 13.9641 13.5266 13.3931C12.3881 15.4883 11.5265 17.8645 10.9494 20.5091C9.94186 25.1321 10.7571 29.2496 13.308 32.4168C13.8035 33.0317 14.3609 33.6047 14.9742 34.1389C14.515 35.5625 14.7703 37.1159 15.6303 38.3178C14.5568 39.7368 14.4415 41.7389 15.4873 43.2968C15.7285 43.6553 15.9793 44.0144 16.2411 44.3709C16.6269 45.5723 17.1626 46.7083 17.8308 47.7617C15.6585 49.4294 14.1847 49.6404 11.7909 49.6676C10.8236 49.6782 9.91769 50.0654 9.24143 50.7573C8.56468 51.4491 8.1981 52.3636 8.20918 53.3314C8.23133 55.3063 9.85626 56.9136 11.8311 56.9136C11.8467 56.9136 11.8619 56.9131 11.8775 56.9131C16.5705 56.8592 19.5736 55.7876 23.048 52.8686C23.4554 53.1214 23.8753 53.3581 24.3053 53.5781C24.4096 54.5177 24.3481 55.4306 24.1215 56.2428C23.8597 57.1794 23.4297 57.7661 23.1195 57.9322C22.6487 58.184 22.4714 58.7701 22.7237 59.2404C22.8979 59.5662 23.2318 59.7515 23.5767 59.7515C23.7308 59.7515 23.8869 59.7148 24.0324 59.6367C24.891 59.177 25.602 58.1296 25.9841 56.763C26.1871 56.0359 26.2868 55.2534 26.2868 54.4472C27.7606 54.991 29.3276 55.3521 30.9495 55.5052C30.6681 59.2374 28.9157 62.3619 26.2535 63.7869C25.9071 63.9722 25.534 64.0658 25.1457 64.0658C24.2746 64.0658 23.478 63.5895 23.0671 62.8221C22.976 62.6509 22.906 62.4701 22.8592 62.2838C22.7282 61.7662 22.2036 61.452 21.6854 61.5824C21.1678 61.7128 20.8536 62.2385 20.984 62.7561C21.0696 63.0955 21.197 63.4248 21.3626 63.7345C22.1099 65.1318 23.5591 65.9999 25.1447 65.9999C25.8447 65.9999 26.5436 65.8242 27.1644 65.4919C30.4269 63.7466 32.5644 60.0058 32.8816 55.5887C35.0373 55.5686 37.0988 55.1859 38.9956 54.5031C40.2771 55.5193 40.7948 56.765 40.5289 58.2152C40.1034 60.5401 41.6488 62.7783 43.9741 63.2043C44.2304 63.2511 44.4912 63.2748 44.7501 63.2748C46.8181 63.2748 48.5901 61.7964 48.9632 59.7596C49.654 55.9875 48.6807 52.4084 46.2204 49.5825C47.4224 48.1842 48.368 46.5955 48.9934 44.8749C53.1139 44.8729 55.7308 42.4448 57.8557 40.4725C58.6956 39.6935 59.181 38.6346 59.2238 37.49C59.2666 36.346 58.8613 35.2533 58.0828 34.4139C57.3038 33.5745 56.2444 33.0886 55.0998 33.0458ZM47.583 18.9451C46.1413 18.9451 44.9686 17.7719 44.9686 16.3302C44.9686 14.8886 46.1413 13.7159 47.583 13.7159C49.0246 13.7159 50.1979 14.8886 50.1979 16.3302C50.1979 17.7719 49.0246 18.9451 47.583 18.9451ZM47.3196 3.93108C49.5125 4.02927 51.6304 4.87824 53.2846 6.32189L55.8053 8.52286C56.7036 9.30687 56.7963 10.676 56.0122 11.5738C55.2282 12.4721 53.8591 12.5648 52.9613 11.7808L50.4401 9.57979C49.7608 8.98662 48.9511 8.57573 48.0825 8.37683C47.6978 8.00774 47.2995 7.65375 46.8851 7.31688C45.6514 6.31383 44.3085 5.47443 42.8618 4.79767C44.2536 4.16724 45.7869 3.86411 47.3196 3.93108ZM12.4465 11.7808C11.5481 12.5648 10.179 12.4721 9.39501 11.5738C8.611 10.676 8.70365 9.30687 9.60197 8.52286L12.1227 6.32189C13.7763 4.87824 15.8947 4.02927 18.0876 3.93108C19.6214 3.8636 21.1542 4.16673 22.546 4.79717C21.0993 5.47443 19.7559 6.31383 18.5222 7.31688C18.1078 7.65325 17.7095 8.00774 17.3248 8.37683C16.4567 8.57523 15.6465 8.98662 14.9672 9.57979L12.4465 11.7808ZM37.415 39.9261C39.3748 39.9261 40.9695 41.5208 40.9695 43.4806C40.9695 45.4409 39.3748 47.0356 37.415 47.0356C35.4547 47.0356 33.86 45.4409 33.86 43.4806C33.86 41.5208 35.4547 39.9261 37.415 39.9261ZM32.7034 39.2051C33.143 39.2051 33.575 39.1975 34.003 39.1864C33.1289 39.8828 32.4712 40.8396 32.149 41.9383C29.5124 41.8889 26.9096 41.4836 24.4005 40.7348C23.8622 40.2393 23.2862 39.5293 22.6049 38.5157C22.4357 38.2634 22.2438 38.0358 22.0339 37.8319C25.0722 38.7388 28.6494 39.2051 32.7034 39.2051ZM16.6863 35.4275C17.357 35.8641 18.0776 36.2629 18.847 36.6249C18.2588 36.6516 17.6712 36.8002 17.1218 37.0761C16.8066 36.5846 16.6551 36.0066 16.6863 35.4275ZM17.0926 42.2187C16.369 41.1412 16.6566 39.6759 17.7336 38.9528C18.1355 38.6829 18.5912 38.5535 19.0428 38.5535C19.8012 38.5535 20.5464 38.9185 20.9996 39.5938C23.0868 42.7011 24.6769 43.7495 27.3019 43.7495C28.5995 43.7495 29.6554 44.8049 29.6554 46.1031C29.6554 47.4007 28.5995 48.4566 27.3019 48.4566C22.6532 48.4566 19.9719 46.1413 17.9129 43.3814C17.8968 43.3568 17.8792 43.3331 17.861 43.3104C17.5957 42.9524 17.3399 42.5873 17.0926 42.2187ZM11.8508 54.9795C11.8462 54.9795 11.8352 54.9795 11.8311 54.98C10.9102 54.98 10.1528 54.2302 10.1423 53.3092C10.1372 52.858 10.3079 52.4315 10.6237 52.1093C10.9389 51.7865 11.3613 51.6062 11.8125 51.6012C14.6172 51.569 16.504 51.2014 18.9668 49.3267C19.6884 50.2009 20.5086 51 21.408 51.715C18.4572 54.0897 15.9068 54.9336 11.8508 54.9795ZM47.0613 59.4111C46.8564 60.53 45.884 61.3417 44.7501 61.3417C44.6076 61.3417 44.4636 61.3286 44.3221 61.3024C43.0456 61.0688 42.1971 59.8401 42.4313 58.5637C42.7676 56.7272 42.2429 55.0328 40.9448 53.6682C42.3925 52.9436 43.7138 52.0343 44.8699 50.9748C46.8841 53.3475 47.6414 56.2449 47.0613 59.4111ZM32.7034 53.6572C28.1997 53.6572 24.0405 51.86 21.2111 48.941C22.8657 49.8313 24.8527 50.3902 27.3019 50.3902C29.666 50.3902 31.589 48.4672 31.589 46.1031C31.589 45.2672 31.3478 44.4872 30.9324 43.8271C31.2683 43.8462 31.6047 43.8588 31.942 43.8668C32.1409 46.7133 34.5186 48.9692 37.415 48.9692C40.4413 48.9692 42.9031 46.5069 42.9031 43.4811C42.9031 43.0415 42.8497 42.615 42.7515 42.2052C44.5411 41.5903 46.2738 40.8078 47.9214 39.8748C47.9219 39.9115 47.9234 39.9488 47.9234 39.9855C47.9234 47.524 41.0959 53.6572 32.7034 53.6572ZM47.3559 37.9724C45.6514 38.9729 43.8442 39.7967 41.973 40.4282C41.465 39.6723 40.7741 39.05 39.9644 38.623C42.0078 38.267 43.8729 37.7498 45.5416 37.0695C46.7053 36.5952 47.7643 36.0448 48.72 35.4245C48.7754 36.4351 48.2713 37.4351 47.3559 37.9724ZM56.5405 39.0555C54.5973 40.8592 52.5942 42.7162 49.5508 42.9217C49.7507 41.9705 49.857 40.9891 49.857 39.9855C49.857 39.4392 49.8237 38.8888 49.7608 38.3425C49.8172 38.2645 49.8706 38.1844 49.9219 38.1028C50.9512 37.7861 51.8601 36.9774 53.3389 35.6053C53.7997 35.1772 54.3984 34.9557 55.0278 34.9783C55.6557 35.0015 56.2373 35.2684 56.6648 35.7296C57.0923 36.1904 57.3149 36.7901 57.2912 37.418C57.2681 38.0464 57.0017 38.6275 56.5405 39.0555ZM25.9413 11.7823C23.4337 11.7823 21.3934 13.8221 21.3934 16.3302C21.3934 18.8379 23.4337 20.8782 25.9413 20.8782C28.4495 20.8782 30.4898 18.8379 30.4898 16.3302C30.4898 13.8221 28.4495 11.7823 25.9413 11.7823ZM25.9413 18.9451C24.4997 18.9451 23.327 17.7719 23.327 16.3302C23.327 14.8886 24.4997 13.7159 25.9413 13.7159C27.383 13.7159 28.5562 14.8886 28.5562 16.3302C28.5557 17.7719 27.383 18.9451 25.9413 18.9451ZM60.2042 20.8752L61.7732 19.7397C61.9862 19.5856 62.1272 19.3515 62.164 19.0917C62.2008 18.8313 62.1298 18.5675 61.9681 18.3605L59.6987 15.4632C59.3693 15.0422 58.7616 14.9687 58.3416 15.298C57.9212 15.6273 57.8471 16.2346 58.1765 16.655L59.8266 18.7618L58.3663 19.8178C57.9655 20.1078 57.8482 20.6531 58.0939 21.0822L59.7027 23.8889L57.7988 24.2776C57.5143 24.3355 57.2716 24.5183 57.1361 24.7746C57.0012 25.0314 56.9886 25.3356 57.1019 25.6024L58.3879 28.6342C58.5445 29.0028 58.9021 29.2239 59.2787 29.2239C59.4046 29.2239 59.5325 29.1992 59.6554 29.1469C60.1473 28.9384 60.3764 28.3709 60.168 27.8794L59.3437 25.9358L61.4001 25.5158C61.7043 25.4539 61.9601 25.2495 62.088 24.9665C62.2154 24.684 62.1997 24.3567 62.0457 24.0878L60.2042 20.8752Z" fill="black"/>
<path d="M18.9946 10.2591C18.4609 10.2591 18.0278 9.82658 18.0278 9.29233V0.966797C18.0278 0.432541 18.4609 0 18.9946 0C19.5284 0 19.9614 0.432541 19.9614 0.966797V9.29233C19.9614 9.82658 19.5284 10.2591 18.9946 10.2591Z" fill="#7F9AE6"/>
<path d="M23.9365 10.2591C23.4028 10.2591 22.9697 9.82658 22.9697 9.29233V0.966797C22.9697 0.432541 23.4028 0 23.9365 0C24.4708 0 24.9033 0.432541 24.9033 0.966797V9.29233C24.9033 9.82658 24.4708 10.2591 23.9365 10.2591Z" fill="#7F9AE6"/>
<path d="M28.8779 10.2591C28.3442 10.2591 27.9111 9.82658 27.9111 9.29233V0.966797C27.9111 0.432541 28.3442 0 28.8779 0C29.4122 0 29.8447 0.432541 29.8447 0.966797V9.29233C29.8447 9.82658 29.4122 10.2591 28.8779 10.2591Z" fill="#7F9AE6"/>
</svg>
