<svg width="66" height="66" viewBox="0 0 66 66" fill="none" xmlns="http://www.w3.org/2000/svg">
<g clip-path="url(#clip0_1591_24872)">
<path d="M33.5863 7.18851C33.5863 9.82605 31.4482 11.9636 28.8112 11.9636C26.1742 11.9636 24.0361 9.82605 24.0361 7.18851C24.0361 4.55147 26.1742 2.41394 28.8112 2.41394C31.4482 2.41394 33.5863 4.55147 33.5863 7.18851Z" fill="#A2D3EE"/>
<path d="M28.8112 11.9636C30.5192 11.9636 32.0167 11.0663 32.8607 9.71783C26.4058 11.5326 24.6424 5.5455 26.4748 3.02478C25.0201 3.84303 24.0361 5.40048 24.0361 7.18855C24.0361 9.8261 26.1742 11.9636 28.8112 11.9636Z" fill="#92BFD6"/>
<path d="M20.2322 19.1189C20.2322 24.4388 15.9194 28.7516 10.5995 28.7516C5.27962 28.7516 0.966797 24.4388 0.966797 19.1189C0.966797 13.7985 5.27962 9.48621 10.5995 9.48621C15.9194 9.48621 20.2322 13.7985 20.2322 19.1189Z" fill="#A2D3EE"/>
<path d="M18.9673 23.8884C6.686 27.5371 2.71609 16.3993 4.32944 11.809C2.27197 13.5759 0.966797 16.1944 0.966797 19.1189C0.966797 24.4388 5.27962 28.7516 10.5995 28.7516C14.1837 28.7516 17.3082 26.7924 18.9673 23.8884Z" fill="#92BFD6"/>
<path d="M21.1557 54.9387C21.1557 60.5139 16.636 65.0332 11.0613 65.0332C5.48607 65.0332 0.966797 60.5139 0.966797 54.9387C0.966797 49.364 5.48607 44.8442 11.0613 44.8442C16.636 44.8442 21.1557 49.364 21.1557 54.9387Z" fill="#A2D3EE"/>
<path d="M11.0613 65.0332C14.2139 65.0332 17.0277 63.5876 18.8792 61.3236C7.30083 64.3091 0.93306 52.1235 5.98558 46.2144C2.98499 47.9642 0.966797 51.2146 0.966797 54.9388C0.966797 60.5139 5.48607 65.0332 11.0613 65.0332Z" fill="#92BFD6"/>
<path d="M17.0427 55.9504C16.3393 55.9504 15.6011 55.8638 14.8206 55.6946C13.7737 55.468 13.1091 54.4357 13.3352 53.3894C13.5623 52.3425 14.5945 51.6768 15.6409 51.9039C17.5629 52.3204 19.2442 52.3188 21.8958 48.2971C22.4855 47.4028 23.6884 47.156 24.5822 47.7457C25.4765 48.3353 25.7232 49.5383 25.1336 50.4321C22.626 54.2353 20.1732 55.9504 17.0427 55.9504Z" fill="#495059"/>
<path d="M26.2622 62.1933C25.3584 62.1933 24.4908 61.6852 24.0744 60.8156C22.4056 57.3301 22.4993 54.8879 22.8135 51.8173C22.9499 50.4855 24.1398 49.5187 25.4722 49.6531C26.8035 49.7891 27.7729 50.9794 27.6364 52.3113C27.3751 54.8653 27.2925 56.3104 28.4471 58.7219C29.0252 59.9294 28.5146 61.377 27.3076 61.9551C26.9697 62.1167 26.6132 62.1933 26.2622 62.1933Z" fill="#DDAF89"/>
<path d="M38.1791 58.9227C38.0527 58.9227 37.9243 58.9127 37.7954 58.8925C36.4731 58.6821 35.5718 57.4398 35.7828 56.1175C36.0345 54.5339 34.8079 52.7529 34.0798 52.2423C32.9836 51.4739 32.7177 49.9622 33.4861 48.866C34.2545 47.7698 35.7661 47.504 36.8623 48.2729C39.0769 49.8248 41.1293 53.3692 40.5704 56.8794C40.3801 58.0728 39.3498 58.9227 38.1791 58.9227Z" fill="#DDAF89"/>
<path d="M15.3146 48.6501C14.9143 48.6501 14.522 48.6158 14.1378 48.5478C12.177 48.2024 10.4816 46.9798 9.0989 44.9138C8.35416 43.801 8.65226 42.2959 9.76508 41.5511C10.8769 40.8059 12.383 41.1045 13.1277 42.2173C14.2607 43.9102 15.23 44.4118 17.9783 42.9062C19.1521 42.2626 20.6259 42.6927 21.269 43.8674C21.912 45.0412 21.482 46.5145 20.3077 47.1576C18.4839 48.1566 16.8388 48.6501 15.3146 48.6501Z" fill="#DDAF89"/>
<path d="M40.1264 44.1574C39.4743 44.1574 38.8217 44.0814 38.1807 43.9178C36.8841 43.5864 36.1011 42.2662 36.4324 40.969C36.7638 39.6719 38.0835 38.8884 39.3812 39.2207C41.3112 39.7137 43.8229 38.1401 44.3768 36.8904C44.9186 35.6663 46.3502 35.1134 47.5743 35.6557C48.7984 36.1975 49.3513 37.6296 48.8094 38.8537C47.5657 41.6619 43.8607 44.1574 40.1264 44.1574Z" fill="#DDAF89"/>
<path d="M42.1819 40.8557C42.0701 40.2228 41.9034 39.6105 41.6924 39.0188C40.9311 39.2968 40.1143 39.408 39.3812 39.2207C38.0835 38.8884 36.7638 39.6719 36.4324 40.969C36.1011 42.2661 36.8841 43.5864 38.1807 43.9177C38.8217 44.0814 39.4743 44.1574 40.1264 44.1574C40.8601 44.1574 41.5917 44.0602 42.3042 43.8845C42.3974 42.891 42.3616 41.8759 42.1819 40.8557Z" fill="#D1A582"/>
<path d="M39.209 50.8384C38.5438 49.7649 37.7155 48.8706 36.8625 48.2724C35.7658 47.504 34.2547 47.7698 33.4863 48.866C32.7179 49.9622 32.9832 51.4739 34.0794 52.2423C34.4581 52.5076 34.9702 53.1159 35.3403 53.8606C36.8313 53.0731 38.1395 52.0424 39.209 50.8384Z" fill="#D1A582"/>
<path d="M27.505 55.5027C27.4239 54.542 27.5085 53.5591 27.6364 52.3113C27.7728 50.9794 26.8035 49.7891 25.4717 49.6531C24.1398 49.5187 22.9499 50.4855 22.8135 51.8173C22.7269 52.6668 22.6569 53.4679 22.6362 54.2565C24.1212 54.9463 25.7672 55.3799 27.505 55.5027Z" fill="#D1A582"/>
<path d="M21.2691 43.8674C20.6255 42.6932 19.1522 42.2626 17.9784 42.9062C16.9467 43.4716 16.1652 43.7536 15.5322 43.7964C15.5458 44.3715 15.6017 44.9485 15.7034 45.5246C15.8897 46.5825 16.2231 47.5866 16.6793 48.5226C17.8133 48.3182 19.0152 47.8655 20.3078 47.1575C21.4816 46.5145 21.9121 45.0412 21.2691 43.8674Z" fill="#D1A582"/>
<path d="M40.5771 41.1397C39.5529 35.3273 33.512 31.5342 27.0848 32.6671C20.6581 33.8001 16.2783 39.4302 17.303 45.2425C18.3277 51.0549 24.3682 54.8481 30.7954 53.7151C37.2225 52.5821 41.6018 46.9521 40.5771 41.1397Z" fill="#DDAF89"/>
<path d="M38.2613 34.5796C35.8267 37.4493 32.4147 39.5178 28.4191 40.2223C24.4235 40.9267 20.5095 40.1497 17.2405 38.2861C16.7722 39.1784 16.4177 40.1226 16.1947 41.1004C15.891 42.4328 16.6262 43.7848 17.9067 44.2617C21.432 45.5734 25.3415 45.9933 29.3134 45.2929C33.2848 44.5925 36.8151 42.8608 39.6788 40.4227C40.7191 39.5369 40.9472 38.0147 40.2065 36.8667C39.6626 36.0237 39.0065 35.2579 38.2613 34.5796Z" fill="#7F9AE6"/>
<path d="M22.9653 40.2852C20.9299 39.971 18.9923 39.2852 17.2405 38.2861C16.7722 39.1784 16.4177 40.1225 16.1947 41.1004C15.891 42.4328 16.6262 43.7848 17.9067 44.2616C19.7396 44.9434 21.6772 45.382 23.6727 45.5497C22.7256 44.2692 22.5518 42.1266 22.9653 40.2852Z" fill="#5E78BF"/>
<path d="M20.9488 23.7263C20.4694 23.8109 19.9599 23.7505 19.489 23.5209L16.2236 21.9282C14.7935 21.2313 13.0976 21.6089 12.0986 22.8477L10.4953 24.8366C9.66699 25.8639 8.16342 26.025 7.1362 25.1972C6.10898 24.3688 5.94785 22.8648 6.77567 21.8375L8.37944 19.8491C9.53557 18.4145 11.1625 17.4039 12.9612 17.0031C14.7593 16.6027 16.6612 16.8263 18.3173 17.634L21.5828 19.2262C22.7686 19.8043 23.2611 21.2343 22.683 22.4206C22.3345 23.1352 21.6764 23.5984 20.9488 23.7263Z" fill="#495059"/>
<path d="M29.7975 22.1663C29.0699 22.2947 28.2929 22.0847 27.7209 21.5319C26.7722 20.6154 26.7455 19.1033 27.6625 18.1541L30.1862 15.5412C31.4662 14.2159 33.1777 13.3554 35.0041 13.1167C36.8309 12.878 38.7056 13.2713 40.2827 14.2235L42.4696 15.5443C43.599 16.2261 43.9621 17.6944 43.2798 18.8238C42.598 19.9533 41.1296 20.3163 40.0002 19.634L37.8133 18.3132C36.4513 17.4909 34.7281 17.716 33.6229 18.8606L31.0991 21.4734C30.7346 21.8506 30.2763 22.0817 29.7975 22.1663Z" fill="#495059"/>
<path d="M28.6587 41.5793C40.6016 39.4735 45.0192 33.0534 41.9813 25.6463C38.7164 17.6864 32.2313 14.157 24.0769 15.5952C15.9226 17.0328 11.0358 22.5672 10.6903 31.1636C10.3691 39.1633 16.7157 43.6851 28.6587 41.5793Z" fill="#DDAF89"/>
<path d="M32.6864 45.7028C32.6864 47.5256 31.2085 49.0035 29.3857 49.0035C27.5629 49.0035 26.085 47.5256 26.085 45.7028C26.085 43.88 27.5629 42.4021 29.3857 42.4021C31.2085 42.4021 32.6864 43.88 32.6864 45.7028Z" fill="#F6E06A"/>
<path d="M19.951 29.5961C19.6795 28.0573 17.893 27.0854 15.9604 27.4263C14.0278 27.7667 12.6808 29.2909 12.9523 30.8298C13.2237 32.3691 15.0102 33.3404 16.9428 32.9995C18.8754 32.6591 20.2224 31.1354 19.951 29.5961Z" fill="#FFDBDB"/>
<path d="M32.5939 27.3649C32.8648 28.9042 34.6518 29.8755 36.5844 29.5346C38.517 29.1942 39.864 27.67 39.5926 26.1312C39.3212 24.5919 37.5346 23.6206 35.602 23.9615C33.6689 24.3019 32.3225 25.8261 32.5939 27.3649Z" fill="#FFDBDB"/>
<path d="M27.7014 25.8543C26.4425 25.7511 25.1786 25.9741 24.0311 26.5013C23.5557 26.7194 23.1756 27.1031 22.9611 27.5799C22.6715 28.224 23.0351 28.9732 23.7209 29.1439L25.6223 29.6172C26.1882 29.7582 26.788 29.6525 27.2719 29.3262L28.8968 28.2315C29.4824 27.8367 29.568 27.0079 29.0755 26.5018C28.711 26.1267 28.2225 25.8966 27.7014 25.8543Z" fill="#495059"/>
<path d="M29.8231 34.2926C29.5416 32.6954 28.2153 31.5936 26.8608 31.8323C25.5068 32.071 24.6372 33.5594 24.9186 35.1572C25.2001 36.7549 26.5264 37.8562 27.881 37.6175C29.235 37.3788 30.1046 35.8903 29.8231 34.2926Z" fill="#D16283"/>
<path d="M49.3152 31.2155L45.455 30.5347L44.241 37.4191C44.0532 38.4851 44.7652 39.5017 45.8307 39.6895C46.8967 39.8773 47.9133 39.1658 48.1011 38.0999L49.3152 31.2155Z" fill="#495059"/>
<path d="M53.3828 27.0577C53.3828 29.9984 50.999 32.3826 48.0583 32.3826C45.1172 32.3826 42.7334 29.9984 42.7334 27.0577C42.7334 24.117 45.1172 21.7333 48.0583 21.7333C50.999 21.7333 53.3828 24.117 53.3828 27.0577Z" fill="#A2D3EE"/>
<path d="M57.8651 8.21526C57.8651 12.2184 54.6198 15.4637 50.6166 15.4637C46.6135 15.4637 43.3682 12.2184 43.3682 8.21526C43.3682 4.21211 46.6135 0.966797 50.6166 0.966797C54.6198 0.966797 57.8651 4.21211 57.8651 8.21526Z" fill="#A2D3EE"/>
<path d="M64.7451 42.8366C64.7451 47.0548 61.326 50.4738 57.1084 50.4738C52.8902 50.4738 49.4712 47.0548 49.4712 42.8366C49.4712 38.619 52.8902 35.2 57.1084 35.2C61.326 35.2 64.7451 38.619 64.7451 42.8366Z" fill="#7F9AE6"/>
<path d="M64.7451 42.8366C64.7451 47.0548 61.326 50.4738 57.1084 50.4738C52.8902 50.4738 49.4712 47.0548 49.4712 42.8366C49.4712 38.619 52.8902 35.2 57.1084 35.2C61.326 35.2 64.7451 38.619 64.7451 42.8366Z" fill="#A2D3EE"/>
<path d="M65.0332 22.3335C65.0332 25.2525 62.6666 27.6187 59.7476 27.6187C56.8286 27.6187 54.4619 25.2525 54.4619 22.3335C54.4619 19.414 56.8286 17.0479 59.7476 17.0479C62.6666 17.0479 65.0332 19.414 65.0332 22.3335Z" fill="#A2D3EE"/>
<path d="M59.7476 27.6187C61.6384 27.6187 63.296 26.6257 64.2301 25.1332C57.0854 27.1418 55.1331 20.5142 57.1619 17.7241C55.5511 18.6295 54.4619 20.3536 54.4619 22.3335C54.4619 25.2525 56.8286 27.6187 59.7476 27.6187Z" fill="#92BFD6"/>
<path d="M54.5069 56.0636C54.5069 58.9826 52.1402 61.3493 49.2212 61.3493C46.3022 61.3493 43.9355 58.9826 43.9355 56.0636C43.9355 53.1446 46.3022 50.778 49.2212 50.778C52.1402 50.778 54.5069 53.1446 54.5069 56.0636Z" fill="#A2D3EE"/>
<path d="M53.3039 59.4207C47.8078 60.6106 44.5866 54.9634 46.1969 51.7297C44.8303 52.6854 43.9355 54.2695 43.9355 56.0636C43.9355 58.9827 46.3022 61.3493 49.2212 61.3493C50.8658 61.3493 52.3346 60.5985 53.3039 59.4207Z" fill="#92BFD6"/>
<path d="M63.0874 47.585C52.9612 49.2281 51.2859 39.9025 53.3459 36.1914C51.0327 37.5041 49.4712 39.9871 49.4712 42.8366C49.4712 47.0548 52.8902 50.4738 57.1079 50.4738C59.5309 50.4738 61.6886 49.3444 63.0874 47.585Z" fill="#92BFD6"/>
<path d="M50.6166 15.4637C53.3881 15.4637 55.7955 13.9078 57.0151 11.6222C47.4866 14.791 44.5006 6.23888 46.6044 2.17883C44.6537 3.47797 43.3682 5.69606 43.3682 8.21527C43.3677 12.2184 46.613 15.4637 50.6166 15.4637Z" fill="#92BFD6"/>
<path d="M57.1085 34.2332C54.1436 34.2332 51.5242 35.7403 49.9763 38.0289C50.0066 37.335 49.8253 36.6381 49.4456 36.0439L49.9728 33.0534C50.569 32.8625 51.1395 32.5806 51.6667 32.2115C53.0434 31.2477 53.9624 29.805 54.2539 28.1504C54.546 26.4953 54.1759 24.8255 53.2121 23.4489C52.2478 22.0722 50.8057 21.1537 49.1505 20.8617C46.3438 20.3667 43.6373 21.8244 42.4263 24.255C41.8442 23.0067 41.176 21.8692 40.4292 20.8461C40.6906 20.911 40.9585 20.9458 41.2289 20.9458C41.4987 20.9458 41.7707 20.913 42.0396 20.8466C42.9097 20.6315 43.6438 20.0907 44.1071 19.3233C45.0638 17.7397 44.5532 15.6727 42.9696 14.716L40.7822 13.3957C39.0183 12.3307 36.9216 11.8911 34.8782 12.1575C33.0257 12.4002 31.2769 13.2184 29.8997 14.4758C28.023 14.2205 26.0179 14.2708 23.9091 14.6429C22.7288 14.8509 21.6155 15.145 20.5681 15.5161C20.0696 14.1379 19.2856 12.8685 18.2659 11.8C17.8973 11.4137 17.2855 11.3996 16.8988 11.7682C16.5126 12.1368 16.4985 12.7491 16.8671 13.1353C17.7216 14.0301 18.3732 15.0971 18.779 16.2553C18.5912 16.3454 18.4074 16.4396 18.2246 16.5358C16.499 15.8242 14.5745 15.653 12.7506 16.0594C10.7395 16.5076 8.91971 17.6375 7.62662 19.2418L6.02335 21.2308C4.86168 22.6714 5.08878 24.7883 6.5294 25.9494C7.14876 26.4489 7.89249 26.6917 8.63219 26.6911C9.29333 26.6911 9.94995 26.4968 10.5109 26.1191C10.3558 26.6544 10.2219 27.2043 10.1111 27.7702C5.55908 27.5159 1.93359 23.7328 1.93359 19.1184C1.93359 14.3403 5.82092 10.4525 10.5995 10.4525C11.7244 10.4525 12.8176 10.6645 13.8499 11.0824C14.3443 11.2833 14.9083 11.0446 15.1087 10.5497C15.3096 10.0547 15.0704 9.49072 14.5755 9.29031C13.3121 8.77872 11.9742 8.51889 10.5995 8.51889C4.75493 8.51939 0 13.2743 0 19.1184C0 24.7037 4.34253 29.2904 9.8286 29.6872C9.78026 30.158 9.744 30.6364 9.72386 31.1248C9.57632 34.8057 10.7622 37.8561 13.1535 39.9463C13.7602 40.4766 14.438 40.9388 15.1797 41.3346C15.1279 41.8497 15.1868 42.3593 15.3414 42.8356C14.795 42.816 14.4451 42.4474 13.9309 41.6795C13.4269 40.9267 12.6605 40.4151 11.7718 40.2389C10.8835 40.0632 9.97916 40.2434 9.22687 40.7475C8.47458 41.251 7.96298 42.0179 7.78674 42.9061C7.68956 43.3976 7.70164 43.8936 7.81696 44.3659C3.22316 45.7703 0 50.0378 0 54.9387C0 61.0381 4.96188 66 11.0613 66C16.3676 66 20.8113 62.2436 21.8778 57.2515C22.0984 58.5043 22.5108 59.7883 23.2021 61.233C23.7626 62.4037 24.9635 63.16 26.2621 63.16C26.7712 63.16 27.2632 63.0482 27.7249 62.8272C28.5417 62.4359 29.157 61.7501 29.4586 60.8961C29.7597 60.0421 29.7099 59.1216 29.3186 58.3049C28.6706 56.9504 28.4616 55.9589 28.443 54.8813C28.4656 54.8813 28.4888 54.8823 28.5119 54.8823C29.3247 54.8823 30.1459 54.8108 30.9662 54.6663C32.073 54.4709 33.1344 54.1477 34.1335 53.7126C34.566 54.3395 34.9462 55.2227 34.8279 55.9655C34.5338 57.8119 35.7972 59.5532 37.6426 59.8467C37.8199 59.8754 38.0007 59.8895 38.1794 59.8895C39.8547 59.8895 41.2616 58.6876 41.5249 57.0314C41.9907 54.1079 40.8391 51.3359 39.4574 49.495C40.468 48.1178 41.1473 46.6006 41.4731 45.0255C44.305 44.6232 47.1006 42.9812 48.7432 40.829C48.5886 41.4736 48.5045 42.1453 48.5045 42.8367C48.5045 47.581 52.3641 51.4406 57.108 51.4406C57.816 51.4406 58.5199 51.3545 59.2007 51.1843C59.7188 51.0544 60.0336 50.5297 59.9041 50.0116C59.7747 49.4935 59.2495 49.1792 58.7319 49.3082C58.2042 49.4401 57.6579 49.507 57.108 49.507C53.4301 49.507 50.4376 46.5145 50.4376 42.8367C50.4376 39.1588 53.4301 36.1668 57.108 36.1668C60.7858 36.1668 63.7784 39.1588 63.7784 42.8367C63.7784 44.595 63.0996 46.2547 61.868 47.5095C61.4938 47.8907 61.4994 48.503 61.8805 48.8771C62.2617 49.2513 62.874 49.2452 63.2477 48.8645C64.8368 47.2457 65.712 45.1051 65.712 42.8367C65.712 38.0928 61.8523 34.2332 57.1085 34.2332ZM35.129 14.075C36.7398 13.865 38.3924 14.2114 39.7827 15.0513L41.9701 16.3716C42.6413 16.7769 42.8578 17.6526 42.4525 18.3238C42.2561 18.6491 41.9444 18.8787 41.5758 18.9699C41.2072 19.0605 40.825 19.0026 40.4997 18.8062L38.3129 17.4859C37.7061 17.1194 37.0223 16.9084 36.3188 16.8661C35.1108 16.0639 33.8001 15.4461 32.3993 15.0196C33.2331 14.5271 34.1632 14.2013 35.129 14.075ZM9.74249 24.2298C9.25053 24.8401 8.35373 24.9363 7.74294 24.4444C7.13264 23.9524 7.03647 23.0551 7.52843 22.4443L9.1322 20.4558C10.1514 19.1909 11.586 18.3002 13.1716 17.9467C14.1238 17.7347 15.1107 17.7231 16.0639 17.9014C14.8947 18.78 13.8755 19.8073 13.015 20.9724C12.3654 21.2529 11.7929 21.687 11.3463 22.2409L9.74249 24.2298ZM9.68358 43.2823C9.75961 42.9006 9.97916 42.5708 10.3034 42.3543C10.6262 42.1377 11.0144 42.0602 11.3961 42.1357C11.7783 42.2118 12.1076 42.4313 12.3241 42.7551C13.1756 44.0275 14.2472 45.1066 16.2482 44.6575C16.2744 44.9102 16.3097 45.1615 16.3535 45.4102C16.4794 46.1258 16.6757 46.8186 16.9371 47.4828C16.3751 47.6168 15.8383 47.6832 15.3147 47.6832C14.9738 47.6832 14.6339 47.654 14.3056 47.5961C12.6499 47.3041 11.1957 46.2577 9.98117 44.4893C9.98016 44.4878 9.97865 44.4863 9.97815 44.4847C9.95297 44.4485 9.92729 44.4132 9.90211 44.376C9.68559 44.0522 9.60805 43.664 9.68358 43.2823ZM11.0613 64.0664C6.02838 64.0664 1.93359 59.9716 1.93359 54.9387C1.93359 50.7594 4.77306 47.1384 8.76663 46.1066C10.2148 48.004 11.9616 49.146 13.9697 49.5005C14.4088 49.5775 14.8615 49.6168 15.3147 49.6168C16.1173 49.6168 16.9587 49.4914 17.8248 49.2462C18.0972 49.6828 18.4014 50.1012 18.7357 50.4995C17.6969 51.2715 16.8827 51.1838 15.8459 50.9588C15.0876 50.7946 14.3101 50.9356 13.6575 51.356C13.0049 51.7765 12.5548 52.4256 12.3906 53.1844C12.0517 54.7509 13.0502 56.3008 14.6163 56.6397C15.4783 56.826 16.2719 56.9166 17.0428 56.9166C18.1118 56.9166 19.1194 56.7313 20.0777 56.3602C19.3928 60.7204 15.6107 64.0664 11.0613 64.0664ZM17.1622 42.1785C18.9145 42.7641 20.9322 43.0622 23.1885 43.0622C24.1392 43.0622 25.1327 43.0079 26.1649 42.9026C26.0683 43.0149 25.9761 43.1317 25.89 43.2551C25.5879 43.6861 25.3729 44.1605 25.247 44.6559C22.8491 44.6293 20.4966 44.1937 18.2443 43.3553C18.0705 43.2908 17.9139 43.1997 17.7745 43.0904C17.7649 43.0829 17.7553 43.0748 17.7453 43.0673C17.4633 42.8367 17.2603 42.525 17.1622 42.1785ZM21.7318 53.0555C20.2871 54.3687 18.7891 54.983 17.0428 54.983C16.4114 54.983 15.7512 54.907 15.0251 54.7494C14.5009 54.6361 14.1671 54.1175 14.2804 53.5933C14.3358 53.3395 14.4863 53.122 14.7044 52.9815C14.9229 52.841 15.1827 52.7937 15.4365 52.8485C16.7744 53.1386 18.3284 53.3058 20.1099 51.8762C20.5454 52.2453 21.0132 52.5882 21.5122 52.9014C21.5847 52.9472 21.6593 52.9905 21.7333 53.0349C21.7328 53.0419 21.7323 53.0484 21.7318 53.0555ZM27.6348 60.2531C27.5054 60.6202 27.2405 60.9153 26.8895 61.0829C26.6911 61.1781 26.4797 61.2264 26.2621 61.2264C25.7037 61.2264 25.1871 60.9012 24.9464 60.3976C23.8008 58.0058 23.5264 56.1573 23.616 53.9629C24.5425 54.3279 25.5124 54.5858 26.5079 54.7333C26.5109 56.1049 26.7516 57.4192 27.5749 59.1393C27.743 59.4907 27.7642 59.886 27.6348 60.2531ZM39.6155 56.7273C39.5022 57.4393 38.8985 57.9559 38.1794 57.9559C38.1024 57.9559 38.0248 57.9499 37.9473 57.9373C37.5631 57.8764 37.2252 57.6689 36.9971 57.3542C36.7685 57.039 36.6763 56.6538 36.7373 56.2696C36.9276 55.0752 36.4855 53.7972 35.8551 52.8103C36.6904 52.2921 37.4629 51.6854 38.1573 50.9975C39.1734 52.4835 39.9599 54.5661 39.6155 56.7273ZM37.7202 48.5871C36.7181 49.8756 35.4296 50.9175 33.9537 51.6617C33.9532 51.6622 33.9522 51.6622 33.9517 51.6627C32.925 52.1798 31.8081 52.5545 30.6303 52.7619C27.7592 53.268 24.8855 52.7363 22.54 51.2639C20.3365 49.8802 18.854 47.8197 18.3309 45.4344C20.556 46.1746 22.8632 46.5618 25.2122 46.5895C25.6342 48.5795 27.4006 49.9708 29.3836 49.9708C29.6288 49.9708 29.877 49.9492 30.1268 49.9053C31.2492 49.7075 32.2276 49.0841 32.8817 48.1505C33.5071 47.2572 33.7624 46.1827 33.6108 45.1086C35.8077 44.2793 37.8436 43.1257 39.682 41.6689C40.0063 44.09 39.3179 46.5331 37.7202 48.5871ZM31.6842 45.2975C31.7925 45.9113 31.655 46.5306 31.2975 47.0417C30.94 47.5523 30.4048 47.8927 29.7909 48.001C28.524 48.224 27.3105 47.3756 27.0869 46.1077C26.9787 45.4938 27.1161 44.8745 27.4736 44.3639C27.8312 43.8533 28.3664 43.5124 28.9802 43.4041C29.1167 43.38 29.2527 43.3684 29.3866 43.3684C30.4974 43.3684 31.4848 44.1665 31.6842 45.2975ZM31.4516 41.9716C34.846 41.114 37.6104 39.8461 39.6669 38.2132C39.6926 38.5737 39.6075 38.9372 39.4191 39.2509C39.4171 39.254 39.4156 39.257 39.4136 39.26C39.3184 39.4166 39.1986 39.5616 39.0526 39.686C37.2217 41.245 35.1597 42.459 32.9144 43.3049C32.5357 42.7495 32.0327 42.2938 31.4516 41.9716ZM39.4211 35.8551C39.3788 35.8893 39.3401 35.9271 39.3048 35.9674C37.0278 38.1774 33.3535 39.7701 28.4908 40.6276C23.6281 41.4846 19.631 41.245 16.7352 39.9473C16.6883 39.9217 16.639 39.899 16.5876 39.8814C15.7759 39.5027 15.0538 39.039 14.4259 38.4901C12.4626 36.7745 11.5306 34.3228 11.6564 31.2024C11.6882 30.4118 11.7607 29.6494 11.8715 28.9148C11.8725 28.9087 11.8735 28.9027 11.8745 28.8972C12.2542 26.387 13.089 24.2092 14.3484 22.3995C14.3846 22.3562 14.4174 22.3109 14.4456 22.2625C15.5453 20.7252 16.9577 19.4608 18.6622 18.49C18.711 18.4683 18.7579 18.4417 18.8022 18.4114C19.2649 18.1551 19.7473 17.9175 20.2519 17.704C20.2932 17.6904 20.3329 17.6743 20.3707 17.6561C21.552 17.1672 22.8441 16.7941 24.2449 16.5473C25.3865 16.3459 26.4892 16.2462 27.5497 16.2462C28.3866 16.2462 29.1963 16.3107 29.9793 16.434C30.0397 16.4496 30.1011 16.4597 30.1631 16.4642C32.0941 16.7936 33.851 17.5 35.4079 18.567C35.4543 18.6058 35.5041 18.64 35.557 18.6698C37.8858 20.3138 39.7595 22.7771 41.0863 26.0134C42.2717 28.9022 42.2344 31.5251 40.9766 33.8092C40.5742 34.5388 40.0541 35.2216 39.4211 35.8551ZM42.67 34.7417C43.2098 33.7614 43.5678 32.72 43.7445 31.6329C43.8926 31.7729 44.0477 31.9063 44.2093 32.0317L43.3905 36.6763C43.094 37.1144 42.4031 37.6718 41.5909 38.0188C41.5531 37.5817 41.4378 37.1482 41.2414 36.7398C41.8029 36.1139 42.2807 35.4477 42.67 34.7417ZM41.6946 43.0265C41.7062 42.3432 41.6528 41.6553 41.532 40.97C41.4821 40.6886 41.4197 40.4071 41.3472 40.1286C42.1252 39.9378 42.9102 39.5772 43.5824 39.1185C43.6398 39.2278 43.7017 39.335 43.7737 39.4378C44.2224 40.0783 44.8931 40.5058 45.663 40.6412C45.8347 40.6714 46.0064 40.6865 46.1776 40.6865C46.2079 40.6865 46.2376 40.684 46.2678 40.683C45.0336 41.817 43.378 42.6831 41.6946 43.0265ZM47.4687 36.1204C47.4682 36.1219 47.4677 36.1235 47.4677 36.1255L47.149 37.9317C47.0543 38.471 46.5392 38.8315 45.9989 38.7373C45.7375 38.691 45.5099 38.546 45.3574 38.329C45.2053 38.1114 45.1469 37.8481 45.1932 37.5867L45.2592 37.2111C45.2597 37.2096 45.2597 37.2081 45.2602 37.2066L46.0014 33.003C46.3111 33.1103 46.6328 33.1949 46.9657 33.2538C47.2965 33.3122 47.6278 33.3424 47.9572 33.3484L47.4687 36.1204ZM48.9008 31.3343C48.3796 31.437 47.8393 31.4446 47.3015 31.3494C44.9349 30.9325 43.3493 28.6675 43.7662 26.3009C44.1388 24.1896 45.9823 22.6996 48.0558 22.6996C48.3061 22.6996 48.5604 22.7212 48.8152 22.7661C49.9612 22.9685 50.9603 23.605 51.628 24.5582C52.2957 25.5119 52.552 26.6685 52.35 27.8145C52.1476 28.9611 51.5111 29.9601 50.5579 30.6278C50.072 30.9677 49.5332 31.2009 48.9698 31.3212C48.9466 31.3247 48.9234 31.3288 48.9008 31.3343ZM50.6169 16.4305C55.1467 16.4305 58.8321 12.7451 58.8321 8.21526C58.8321 3.68541 55.1467 0 50.6169 0C46.0865 0 42.4016 3.68541 42.4016 8.21526C42.4016 12.7451 46.087 16.4305 50.6169 16.4305ZM50.6169 1.93359C54.0802 1.93359 56.8985 4.7514 56.8985 8.21526C56.8985 11.6791 54.0802 14.4969 50.6169 14.4969C47.153 14.4969 44.3352 11.6791 44.3352 8.21526C44.3352 4.7514 47.153 1.93359 50.6169 1.93359ZM53.4951 22.3335C53.4951 25.7807 56.3003 28.5855 59.7475 28.5855C63.1953 28.5855 66 25.7807 66 22.3335C66 18.8858 63.1953 16.0811 59.7475 16.0811C56.3003 16.0811 53.4951 18.8858 53.4951 22.3335ZM59.7475 18.0146C62.1293 18.0146 64.0664 19.9518 64.0664 22.3335C64.0664 24.7148 62.1293 26.6519 59.7475 26.6519C57.3663 26.6519 55.4287 24.7148 55.4287 22.3335C55.4287 19.9518 57.3663 18.0146 59.7475 18.0146ZM35.0967 21.9815C34.5031 21.5656 33.782 21.406 33.0685 21.5319C31.5941 21.7917 30.6062 23.2026 30.866 24.677C30.9491 25.1458 31.3569 25.4761 31.8172 25.4761C31.8731 25.4761 31.9295 25.4711 31.9864 25.461C32.5121 25.3683 32.863 24.8668 32.7704 24.3411C32.6959 23.9166 32.9799 23.5108 33.4043 23.4358C33.8278 23.3612 34.2342 23.6452 34.3092 24.0697C34.4024 24.5959 34.9044 24.9469 35.4296 24.8537C35.9553 24.7611 36.3062 24.2596 36.2136 23.7339C36.0872 23.0198 35.6909 22.3975 35.0967 21.9815ZM19.5374 24.7248C18.9437 24.3089 18.2231 24.1498 17.5091 24.2752C16.7946 24.4016 16.1727 24.7978 15.7563 25.392C15.3403 25.9857 15.1807 26.7063 15.3066 27.4203C15.3897 27.8896 15.7976 28.2194 16.2578 28.2194C16.3137 28.2194 16.3701 28.2149 16.427 28.2048C16.9527 28.1116 17.3036 27.6106 17.211 27.0844C17.1747 26.879 17.2206 26.672 17.3404 26.5008C17.4603 26.3301 17.6395 26.2158 17.845 26.1796C18.0504 26.1433 18.2574 26.1891 18.4286 26.309C18.5993 26.4288 18.7136 26.6076 18.7498 26.8135C18.8425 27.3392 19.3445 27.6907 19.8697 27.5975C20.3959 27.5049 20.7469 27.0033 20.6542 26.4776C20.5278 25.7631 20.1315 25.1407 19.5374 24.7248ZM28.8111 12.9304C31.9768 12.9304 34.5529 10.3548 34.5529 7.18854C34.5529 4.02278 31.9768 1.44717 28.8111 1.44717C25.6448 1.44717 23.0692 4.02278 23.0692 7.18854C23.0692 10.3548 25.6448 12.9304 28.8111 12.9304ZM28.8111 3.38077C30.9108 3.38077 32.6193 5.08878 32.6193 7.18854C32.6193 9.2883 30.9108 10.9968 28.8111 10.9968C26.7113 10.9968 25.0028 9.2883 25.0028 7.18854C25.0028 5.08878 26.7113 3.38077 28.8111 3.38077ZM29.3639 31.6289C28.8549 31.2064 28.2753 30.9471 27.6736 30.8625L27.5698 30.2733C27.6524 30.228 27.7335 30.1807 27.812 30.1278L29.437 29.0331C29.9541 28.6842 30.2879 28.1283 30.3519 27.5079C30.4163 26.887 30.2038 26.2747 29.7683 25.8276C29.2406 25.2848 28.5346 24.9524 27.7798 24.8905C26.3588 24.7747 24.9232 25.0275 23.6276 25.6226C22.9393 25.9389 22.3899 26.4928 22.0792 27.1831C21.8234 27.7521 21.833 28.4007 22.1054 28.9616C22.3778 29.5231 22.8814 29.9314 23.4871 30.082L25.3885 30.5553C25.4801 30.5785 25.5728 30.5951 25.6659 30.6092L25.7702 31.2014C24.4373 31.9174 23.6608 33.5776 23.9685 35.3243C24.3069 37.2418 25.8371 38.6155 27.5154 38.6155C27.6927 38.6155 27.8719 38.6004 28.0507 38.5686C28.9903 38.403 29.7899 37.8284 30.3025 36.9513C30.7844 36.1255 30.9531 35.1214 30.7774 34.1239C30.6011 33.1259 30.0991 32.2397 29.3639 31.6289ZM23.9539 28.2058C23.8915 28.1902 23.8602 28.1489 23.8446 28.1167C23.829 28.0849 23.8164 28.0351 23.8426 27.9762C23.9615 27.7123 24.1714 27.5008 24.4343 27.38C25.2717 26.9953 26.1856 26.7969 27.1046 26.7969C27.2773 26.7969 27.45 26.8039 27.6222 26.8175C27.9107 26.8412 28.1806 26.9686 28.3825 27.1756C28.4274 27.2219 28.4324 27.2732 28.4284 27.3085C28.4248 27.3437 28.4092 27.3936 28.3559 27.4293L26.7309 28.5245C26.4746 28.6973 26.1554 28.7536 25.8553 28.6786L23.9539 28.2058ZM28.6328 35.9759C28.4112 36.3546 28.086 36.5993 27.7148 36.6643C26.888 36.8098 26.0612 36.0585 25.8729 34.9885C25.6841 33.9185 26.2037 32.929 27.0305 32.7835C27.0975 32.7714 27.1645 32.7659 27.2325 32.7659C27.5401 32.7659 27.8518 32.8867 28.1288 33.1163C28.5119 33.4351 28.7763 33.9119 28.873 34.4593C28.9697 35.0066 28.8841 35.5454 28.6328 35.9759ZM49.221 49.8112C45.7733 49.8112 42.9686 52.6164 42.9686 56.0636C42.9686 59.5114 45.7733 62.3161 49.221 62.3161C52.6683 62.3161 55.4735 59.5114 55.4735 56.0636C55.4735 52.6164 52.6683 49.8112 49.221 49.8112ZM49.221 60.3825C46.8393 60.3825 44.9022 58.4454 44.9022 56.0636C44.9022 53.6824 46.8393 51.7448 49.221 51.7448C51.6023 51.7448 53.5399 53.6824 53.5399 56.0636C53.5399 58.4454 51.6023 60.3825 49.221 60.3825Z" fill="black"/>
</g>
<defs>
<clipPath id="clip0_1591_24872">
<rect width="66" height="66" fill="white"/>
</clipPath>
</defs>
</svg>
