<svg width="21" height="25" viewBox="0 0 21 25" fill="none" xmlns="http://www.w3.org/2000/svg">
<path fill-rule="evenodd" clip-rule="evenodd" d="M9.70887 0.0679458C7.78423 0.416853 6.3265 1.89738 5.99153 3.84345C5.92643 4.22137 5.9183 4.92012 5.93131 9.01073C5.94631 13.7216 5.9468 13.7426 6.05433 14.1318C6.20664 14.6831 6.60097 15.4559 6.95504 15.8972C7.51571 16.5959 8.40999 17.1824 9.30626 17.4393C9.64153 17.5353 9.80856 17.551 10.5 17.551C11.1914 17.551 11.3585 17.5353 11.6937 17.4393C12.59 17.1824 13.4843 16.5959 14.045 15.8972C14.399 15.4559 14.7934 14.6831 14.9457 14.1318C15.0532 13.7426 15.0537 13.7216 15.0687 9.01073C15.085 3.86597 15.0838 3.83857 14.8121 3.05879C14.4496 2.01856 13.6669 1.09703 12.6879 0.557872C11.801 0.0694112 10.6997 -0.11171 9.70887 0.0679458ZM9.13573 3.65955C8.75646 3.80872 8.74716 4.33646 9.12033 4.52779C9.19069 4.56384 9.65825 4.58235 10.5 4.58235C11.3418 4.58235 11.8093 4.56384 11.8797 4.52779C12.2592 4.33323 12.2431 3.79397 11.8538 3.65794C11.6633 3.59136 9.30548 3.59278 9.13573 3.65955ZM2.21708 4.13096C2.12397 4.17771 2.02038 4.27095 1.98691 4.33812C1.93999 4.43219 1.92586 5.23737 1.92532 7.84526C1.92454 11.4739 1.92206 11.4353 2.16553 11.5659C2.28588 11.6304 2.53778 11.6304 2.65813 11.5659C2.90146 11.4354 2.89907 11.4723 2.89907 7.86065C2.89907 5.8374 2.88046 4.44196 2.85254 4.36826C2.75957 4.12324 2.45724 4.01031 2.21708 4.13096ZM18.3934 4.13096C18.3003 4.17771 18.1964 4.27095 18.1625 4.33812C18.1149 4.43263 18.1037 5.00389 18.1131 6.86483L18.1253 9.26942L18.2593 9.4037C18.4463 9.59112 18.7301 9.59112 18.9171 9.4037L19.051 9.26942L19.0645 6.88373C19.0729 5.40501 19.0599 4.45002 19.0302 4.37177C18.936 4.12339 18.6351 4.00958 18.3934 4.13096ZM0.136719 4.70021L0 4.81813V7.41009V10.0021L0.133991 10.1364C0.320993 10.3239 0.604761 10.3239 0.791763 10.1364L0.925754 10.0021V7.41009V4.81813L0.789035 4.70021C0.695241 4.61932 0.592921 4.58235 0.462877 4.58235C0.332833 4.58235 0.230513 4.61932 0.136719 4.70021ZM20.211 4.70021L20.0742 4.81813V7.41009V10.0021L20.2082 10.1364C20.3952 10.3239 20.679 10.3239 20.866 10.1364L21 10.0021V7.41009V4.81813L20.8633 4.70021C20.7695 4.61932 20.6672 4.58235 20.5371 4.58235C20.4071 4.58235 20.3048 4.61932 20.211 4.70021ZM9.20882 5.45278C8.82799 5.58267 8.71709 5.97749 8.98581 6.24687L9.12823 6.38965H10.5H11.8718L12.0142 6.24687C12.1668 6.09389 12.1984 5.90002 12.1044 5.69325C11.9932 5.44863 11.9304 5.43779 10.5731 5.42836C9.87633 5.42348 9.26241 5.43447 9.20882 5.45278ZM4.03463 5.92136L3.89791 6.03928V7.41009V8.78091L4.0319 8.91524C4.2189 9.10271 4.50267 9.10271 4.68967 8.91524L4.82367 8.78091V7.41009V6.03928L4.68695 5.92136C4.59315 5.84048 4.49083 5.8035 4.36079 5.8035C4.23074 5.8035 4.12842 5.84048 4.03463 5.92136ZM16.3131 5.92136L16.1763 6.03928V7.41009V8.78091L16.3103 8.91524C16.4973 9.10271 16.7811 9.10271 16.9681 8.91524L17.1021 8.78091V7.41009V6.03928L16.9654 5.92136C16.8716 5.84048 16.7693 5.8035 16.6392 5.8035C16.5092 5.8035 16.4068 5.84048 16.3131 5.92136ZM4.00754 12.597C3.76792 12.7369 3.72616 13.0982 3.85162 13.9453C4.0035 14.9706 4.34627 15.8763 4.89797 16.7099C5.77305 18.0321 6.98842 18.95 8.50232 19.432L9.06264 19.6104L9.07565 20.8398L9.08866 22.0692H8.92753C8.41252 22.0692 7.76084 22.3664 7.32759 22.7987C6.85911 23.2662 6.60092 23.8407 6.60316 24.4105C6.60433 24.6979 6.67912 24.8429 6.87903 24.9454C6.95451 24.9841 8.00748 25 10.5 25C12.9925 25 14.0455 24.9841 14.121 24.9454C14.3209 24.8429 14.3957 24.6979 14.3968 24.4105C14.3991 23.8407 14.1409 23.2662 13.6724 22.7987C13.2392 22.3664 12.5875 22.0692 12.0725 22.0692H11.9113L11.9243 20.8398L11.9374 19.6104L12.4977 19.432C14.9981 18.6359 16.7618 16.5552 17.1484 13.9453C17.3044 12.8916 17.2024 12.5443 16.7367 12.5443C16.4212 12.5443 16.2496 12.7625 16.2491 13.1646C16.2486 13.566 16.1113 14.3375 15.9594 14.7919C15.2175 17.0118 13.2875 18.5458 10.9915 18.7404C8.64186 18.9396 6.42517 17.6958 5.3647 15.583C5.01174 14.8799 4.7517 13.8554 4.75087 13.1646C4.75053 12.9038 4.65201 12.6709 4.50964 12.5946C4.39075 12.5308 4.11873 12.5321 4.00754 12.597ZM12.2906 12.597C12.1657 12.6699 12.077 12.8747 12.0382 13.1793C11.9435 13.9231 11.4176 14.4444 10.6522 14.553C10.2783 14.6061 10.1481 14.6794 10.0634 14.8841C9.98713 15.0689 10.029 15.2515 10.1831 15.4059C10.283 15.5062 10.3477 15.5239 10.6145 15.5239C11.736 15.5239 12.7921 14.5795 12.9917 13.3978C13.0586 13.0018 13.0282 12.8275 12.8634 12.6622C12.7368 12.5353 12.4518 12.5029 12.2906 12.597Z" fill="#53A77D"/>
<path d="M10.5 8.63657H14.1107L15.0699 8.63661L15.0687 9.01073L15.0668 9.61353L14.1122 9.61349H10.5H6.88776L5.93323 9.61353L5.93131 9.01073L5.93014 8.63661L6.88927 8.63657H10.5Z" fill="white"/>
<path d="M9.12033 4.52779C8.74716 4.33646 8.75646 3.80872 9.13573 3.65955C9.30548 3.59278 11.6633 3.59136 11.8538 3.65794C12.2431 3.79397 12.2592 4.33323 11.8797 4.52779C11.8093 4.56384 11.3418 4.58235 10.5 4.58235C9.65825 4.58235 9.19069 4.56384 9.12033 4.52779Z" fill="white"/>
<path d="M8.98581 6.24687C8.71709 5.97749 8.82799 5.58267 9.20882 5.45278C9.26241 5.43447 9.87633 5.42348 10.5731 5.42836C11.9304 5.43779 11.9932 5.44863 12.1044 5.69325C12.1984 5.90002 12.1668 6.09389 12.0142 6.24687L11.8718 6.38965H10.5H9.12823L8.98581 6.24687Z" fill="white"/>
<path d="M12.0382 13.1793C12.077 12.8747 12.1657 12.6699 12.2906 12.597C12.4518 12.5029 12.7368 12.5353 12.8634 12.6622C13.0282 12.8275 13.0586 13.0018 12.9917 13.3978C12.7921 14.5795 11.736 15.5239 10.6145 15.5239C10.3477 15.5239 10.283 15.5062 10.1831 15.4059C10.029 15.2515 9.98713 15.0689 10.0634 14.8841C10.1481 14.6794 10.2783 14.6061 10.6522 14.553C11.4176 14.4444 11.9435 13.9231 12.0382 13.1793Z" fill="white"/>
</svg>
