<svg width="48" height="48" viewBox="0 0 48 48" fill="none" xmlns="http://www.w3.org/2000/svg">
<path d="M11.5449 9.25126C13.7292 9.25126 15.4999 7.48053 15.4999 5.29623C15.4999 3.11192 13.7292 1.34119 11.5449 1.34119C9.36057 1.34119 7.58984 3.11192 7.58984 5.29623C7.58984 7.48053 9.36057 9.25126 11.5449 9.25126Z" fill="#F6E06A"/>
<path d="M27.512 9.07295C26.8399 8.28348 25.6318 8.16798 24.8221 8.85714C23.9603 9.59083 20.3261 12.6849 19.7958 13.1364L12.8186 11.1377L15.7435 11.2074C15.2645 10.7382 14.61 10.4473 13.8867 10.4441L10.1081 10.4287C9.62956 10.4267 9.15612 10.527 8.71953 10.7228L1.12801 14.1274C0.239448 14.5258 -0.206616 15.5292 0.0928223 16.4557L2.80342 24.8428C3.12752 25.8456 4.20311 26.3959 5.20614 26.0717C6.20899 25.7475 6.7593 24.672 6.43512 23.669L4.25064 16.9102L7.50481 15.4512C7.59031 26.9911 7.59593 25.8241 7.55374 26.088L6.24649 34.268L2.49733 43.5073C2.02183 44.6792 2.5863 46.0147 3.75827 46.4902C4.93043 46.9658 6.26571 46.4011 6.74121 45.2293L10.5884 35.7482C10.6536 35.5875 10.7004 35.4198 10.7277 35.2486L11.9637 27.5156L13.9742 35.3384L14.1635 44.4161C14.1898 45.6774 15.2324 46.6838 16.5008 46.6579C17.7652 46.6315 18.7689 45.5852 18.7425 44.3206L18.5476 34.9775C18.544 34.8013 18.52 34.6261 18.476 34.4553L16.4909 26.7318L16.5283 17.5118L12.0411 14.9037L19.6097 17.1838C19.6103 17.184 19.6109 17.184 19.6114 17.1842C20.2386 17.3631 20.9005 17.2041 21.3724 16.8023L27.2959 11.7631C28.0982 11.0801 28.1954 9.87555 27.512 9.07295Z" fill="#F6E06A"/>
<path d="M47.9701 23.5393C47.9034 23.3982 47.7318 23.3104 47.5419 23.4002C47.2584 23.5343 46.9664 23.642 46.6847 23.7243C46.1552 23.8844 45.4229 24.0139 44.7279 23.961C44.0538 23.9218 43.4893 23.7168 42.9908 23.4284C42.9188 23.028 42.7548 22.6456 42.5054 22.3141L38.2873 16.7088C38.2873 16.7088 38.3773 16.0823 38.4752 15.3751C37.5551 15.5163 36.3889 15.5484 35.9836 14.7145C35.5665 13.8563 36.4011 12.9661 36.6753 12.6736C36.8991 12.4348 37.2021 12.1551 37.4709 11.9457L37.4533 11.9351C36.7936 11.5347 35.9657 11.5353 35.3066 11.9367L34.337 11.7103C34.1605 11.6692 33.9748 11.7058 33.8274 11.8113C33.68 11.9167 33.5852 12.0804 33.5671 12.2607L33.4866 13.0627C33.421 13.7171 33.7918 14.3371 34.3995 14.5889C34.661 14.6973 34.8658 14.9099 34.9656 15.175C35.0655 15.4399 35.0513 15.7343 34.9265 15.9884C34.537 16.7815 33.9987 17.923 33.6273 18.8946L29.4862 16.4713C29.0807 16.234 28.5595 16.3704 28.3222 16.7759C28.0848 17.1815 28.2213 17.7027 28.6268 17.9399L33.2149 20.6249L33.2077 20.6351C33.5438 20.9261 35.7689 22.6529 37.8064 24.2036C38.0091 23.725 38.3114 23.265 38.7114 22.8597C38.8887 22.68 39.178 22.6781 39.3577 22.8554C39.5373 23.0326 39.5392 23.322 39.362 23.5016C38.9319 23.9373 38.6368 24.5064 38.4735 25.0942C38.2218 26.0004 38.1461 27.358 38.3909 28.3598L37.4244 30.9734C33.1948 31.0918 29.8018 34.5551 29.8018 38.8133C29.8018 43.1464 33.3144 46.6589 37.6474 46.6589C41.9803 46.6589 45.4929 43.1463 45.4929 38.8133C45.4929 35.0065 42.7814 31.834 39.1846 31.1192L40.0046 28.9015C40.844 28.3262 41.7627 27.5485 42.2812 26.7781C42.5365 26.3988 42.9281 25.503 42.9726 25.0377C43.6022 25.1777 44.1968 25.2061 44.7645 25.1371C45.4044 25.073 46.2049 24.8506 46.9797 24.4589C47.2741 24.3115 47.5791 24.132 47.8712 23.9215C47.9901 23.8365 48.0348 23.6761 47.9701 23.5393Z" fill="#F6E06A"/>
<path d="M39.2855 13.1097C39.0244 12.5727 38.5068 12.2856 38.2304 12.4199C37.9542 12.5542 36.4624 13.8177 36.7234 14.3549C36.9845 14.892 38.8996 14.4998 39.176 14.3654C39.4522 14.2312 39.5466 13.6468 39.2855 13.1097Z" fill="#F6E06A"/>
</svg>
