<svg width="375" height="152" viewBox="0 0 375 152" fill="none" xmlns="http://www.w3.org/2000/svg">
<path opacity="0.7" d="M127.896 48.3097C127.896 48.3097 118.603 72.2923 131.663 96.4415C144.722 120.591 171.622 133.348 193.151 144.257C214.681 155.166 237.037 149.853 247.66 131.986C258.283 114.119 243.713 101.365 243.693 75.8864C243.673 50.4082 247.51 43.6631 233.694 22.1387C219.877 0.61427 186.008 -4.15227 160.395 11.8128C134.783 27.7779 127.896 48.3097 127.896 48.3097Z" fill="#A0D9BB"/>
<path d="M249.62 135.457H136.823C136.823 135.457 111.803 120.761 121.49 73.7313C126.49 49.4322 151.646 26.4023 182.822 19.6138L183.528 19.4606C192.862 17.502 201.318 16.9158 208.824 17.3721C226.611 18.448 239.137 25.3663 246.007 33.7569C255.777 45.6783 239.227 71.4196 246.51 84.64C253.793 97.8605 276.32 117.316 249.62 135.457Z" fill="#A0D9BB"/>
<path opacity="0.7" d="M249.62 135.457H136.823C136.823 135.457 111.803 120.761 121.49 73.7313C126.49 49.4322 151.646 26.4023 182.822 19.6138L183.528 19.4606C192.862 17.502 201.318 16.9158 208.824 17.3721C226.611 18.448 239.137 25.3663 246.007 33.7569C255.777 45.6783 239.227 71.4196 246.51 84.64C253.793 97.8605 276.32 117.316 249.62 135.457Z" fill="white"/>
<path d="M155.016 126.013V127.945" stroke="#263238" stroke-linecap="round" stroke-linejoin="round"/>
<path d="M160.652 115.494C160.666 118.477 160.683 121.458 160.706 124.438" stroke="#263238" stroke-linecap="round" stroke-linejoin="round"/>
<path d="M206.671 123.096C205.961 123.471 205.291 123.917 204.671 124.428" stroke="#263238" stroke-linecap="round" stroke-linejoin="round"/>
<path d="M212.468 121.157C211.301 121.374 210.153 121.678 209.031 122.066" stroke="#263238" stroke-linecap="round" stroke-linejoin="round"/>
<path d="M259.457 113.119C260.917 111.567 264.25 109.569 263.25 106.904C260.917 105.905 258.917 107.237 257.347 108.796M257.347 108.796C257.81 107.38 258.107 108.243 257.347 108.796ZM257.347 108.796C258.917 105.572 259.917 102.241 259.25 98.5766C258.584 96.578 255.917 96.578 254.604 97.9504M254.604 97.9504C254.75 97.4417 254.982 96.9617 255.29 96.5314C255.198 97.0591 254.96 97.5505 254.604 97.9504ZM254.604 97.9504C255.25 95.2457 257.25 92.5809 256.25 89.5831C256.25 88.9169 256.584 87.9176 255.584 88.2507C252.584 89.25 252.584 93.2471 252.134 96.3382M252.134 96.3382C252.155 95.5579 252.22 94.7794 252.33 94.0066C252.354 94.7887 252.288 95.571 252.134 96.3382ZM252.134 96.3382C252.43 91.7182 252.834 86.7518 251.394 82.2684C251.014 81.0926 249.71 78.6044 248.33 80.2099C247.044 81.6922 246.947 84.2603 246.834 86.1056C246.667 88.8336 246.574 91.5683 246.654 94.2997C246.287 91.8814 245.454 88.1475 242.681 87.418C240.301 86.7885 239.647 89.783 239.427 91.515C239.23 93.1938 239.211 94.8886 239.371 96.5714C238.678 96.3285 237.929 96.3007 237.22 96.4915C236.511 96.6824 235.877 97.0829 235.401 97.6406C234.184 99.1961 235.051 101.554 235.791 103.13C233.951 101.445 230.124 98.3967 227.511 100.182C223.584 103.906 224.584 110.568 224.774 115.618M224.774 115.618C223.721 115.005 224.624 114.285 224.774 115.618ZM224.774 115.618C223.671 114.855 219.758 112.593 219.011 114.482C218.265 116.37 219.011 118.855 219.588 120.727M219.588 120.727C216.545 120.551 219.028 119.848 219.588 120.727ZM219.588 120.727C218.05 120.633 216.508 120.658 214.975 120.804" stroke="#263238" stroke-linecap="round" stroke-linejoin="round"/>
<path d="M206.361 104.409C206.568 104.929 206.754 105.457 206.918 105.995C208.308 104.859 210.088 103.823 211.918 103.693C211.345 102.617 209.561 99.0463 211.038 98.0903C212.158 97.3641 213.648 100.179 214.068 100.928C213.941 98.7032 213.878 96.2649 214.511 94.1032C214.584 92.914 216.251 91.9148 217.251 92.914C218.918 94.5795 218.584 97.2442 219.104 99.366M219.104 99.366C219.028 98.2169 219.904 98.3668 219.104 99.366ZM219.104 99.366C219.888 98.3093 220.842 97.3907 221.928 96.648C224.131 95.2723 224.768 97.4274 224.774 99.366" stroke="#263238" stroke-linecap="round" stroke-linejoin="round"/>
<path d="M204.501 100.642C204.731 101.038 204.958 101.438 205.168 101.841" stroke="#263238" stroke-linecap="round" stroke-linejoin="round"/>
<path d="M169.656 77.9716C168.586 73.5947 167.919 69.2645 168.252 64.6012H169.252C171.586 67.5991 171.252 71.5962 172.132 74.7772M172.132 74.7772C172.179 74.3435 172.15 73.905 172.046 73.4815C172.001 73.9152 172.031 74.3532 172.132 74.7772ZM172.132 74.7772C172.252 70.93 172.252 66.9329 173.252 63.2689C173.586 61.9365 174.919 58.9387 176.919 60.271C178.919 65.2674 178.252 70.5969 177.679 75.5933M177.679 75.5933C177.839 75.017 178.102 74.3209 178.062 73.7213C177.825 74.3177 177.695 74.9515 177.679 75.5933ZM177.679 75.5933C178.585 72.2624 179.585 66.9329 183.585 66.2667C184.919 69.5976 183.252 73.2616 182.315 76.476M182.315 76.476C182.442 76.386 183.269 74.5607 182.315 76.476ZM182.315 76.476C182.442 76.386 183.605 75.5466 183.265 75.4067C182.925 75.2668 182.385 76.2661 182.315 76.476ZM182.315 76.476C184.229 74.8471 186.609 73.245 189.189 73.0451C190.585 72.9285 191.918 73.2616 192.585 74.2609C194.252 77.5918 190.918 80.5897 189.919 83.5875V84.5868C194.918 88.5839 199.585 92.9141 203.015 98.2902" stroke="#263238" stroke-linecap="round" stroke-linejoin="round"/>
<path d="M118.467 109.422C117.82 108.25 117.393 106.964 117.833 105.995C118.887 103.663 122.973 109.249 122.973 109.249C122.973 109.249 120.073 97.2243 121.92 95.4988C123.766 93.7734 126.006 105.112 126.006 105.112C126.006 105.112 125.74 92.0713 131.94 93.8434C138.139 95.6154 136.293 108.533 136.293 108.533C136.293 108.533 139.379 104.975 141.329 106.424C143.279 107.873 139.329 119.748 139.329 119.748C139.329 119.748 141.703 116.707 143.023 117.826C144.343 118.945 143.023 122.489 143.023 122.489C143.023 122.489 148.076 123.069 150.096 124.428" stroke="#263238" stroke-linecap="round" stroke-linejoin="round"/>
<path d="M120.734 112.507C120.734 112.507 120.4 112.14 119.924 111.564" stroke="#263238" stroke-linecap="round" stroke-linejoin="round"/>
<path d="M113.48 135.457H262.777" stroke="#263238" stroke-linecap="round" stroke-linejoin="round"/>
<path d="M195.735 55.761C202.279 62.2596 209.875 70.1239 212.272 72.7486C214.668 75.3734 215.218 87.9876 219.531 96.2016C223.304 103.342 226.544 110.751 229.225 118.369L236.478 114.668C236.478 114.668 229.121 93.6102 227.181 79.8835C225.981 71.3963 223.271 71.4862 221.288 66.0635C213.312 44.2293 204.288 34.7728 204.288 34.7728" fill="white"/>
<mask id="mask0_1622_29549" style="mask-type:luminance" maskUnits="userSpaceOnUse" x="195" y="34" width="42" height="85">
<path d="M195.735 55.761C202.279 62.2596 209.875 70.1239 212.272 72.7486C214.668 75.3734 215.218 87.9876 219.531 96.2016C223.304 103.342 226.544 110.751 229.225 118.369L236.478 114.668C236.478 114.668 229.121 93.6102 227.181 79.8835C225.981 71.3963 223.271 71.4862 221.288 66.0635C213.312 44.2293 204.288 34.7728 204.288 34.7728" fill="white"/>
</mask>
<g mask="url(#mask0_1622_29549)">
<path opacity="0.4" d="M236.478 114.678L229.225 118.379C226.545 110.761 223.305 103.352 219.531 96.2117C215.218 87.9977 214.665 75.3868 212.272 72.7554C209.878 70.1239 202.272 62.2563 195.735 55.7677L204.282 34.7829C204.282 34.7829 210.615 41.4447 217.378 56.4505C217.168 62.3496 216.592 69.9807 215.045 71.9726C215.856 72.5961 216.503 73.4065 216.932 74.3347C217.361 75.2628 217.559 76.281 217.508 77.3021C217.332 80.8029 218.915 89.7797 220.508 93.1073C222.101 96.4349 229.841 110.851 229.841 110.851C231.28 109.853 232.796 108.971 234.374 108.213C235.584 112.117 236.478 114.678 236.478 114.678Z" fill="#F2DCD8"/>
<path opacity="0.4" d="M228.395 86.5486C228.395 86.5486 224.878 83.1511 223.821 78.278C223.821 78.278 225.651 79.9834 227.285 80.6096C227.585 82.4916 227.951 84.4935 228.395 86.5486Z" fill="#F2DCD8"/>
</g>
<path d="M195.735 55.761C202.279 62.2596 209.875 70.1239 212.272 72.7486C214.668 75.3734 215.218 87.9876 219.531 96.2016C223.304 103.342 226.544 110.751 229.225 118.369L236.478 114.668C236.478 114.668 229.121 93.6102 227.181 79.8835C225.981 71.3963 223.271 71.4862 221.288 66.0635C213.312 44.2293 204.288 34.7728 204.288 34.7728" stroke="#263238" stroke-linecap="round" stroke-linejoin="round"/>
<path d="M181.135 39.193C181.889 47.9966 193.579 55.7643 193.745 57.3698C193.912 58.9753 197.372 58.8087 199.285 55.9008C201.198 52.993 206.285 52.6765 207.765 50.5314C209.245 48.3863 213.165 46.421 213.165 46.421C213.165 46.421 214.608 46.4211 213.831 44.8455C213.055 43.27 212.385 40.3621 210.815 37.0745C209.245 33.7869 208.575 23.4177 208.575 23.4177C208.575 23.4177 182.335 24.3371 182.432 25.7494L182.525 27.1517C182.525 27.1517 180.252 28.8638 181.135 39.193Z" fill="#263238"/>
<path d="M205.251 50.7412L207.041 48.7227C207.445 48.821 207.867 48.821 208.271 48.7227C208.73 48.5341 209.134 48.2314 209.444 47.8433C209.678 47.5802 210.294 47.317 210.381 47.0539C210.468 46.7908 210.381 46.1579 211.047 46.1679C211.714 46.1779 211.951 46.1679 212.181 46.1679C212.411 46.1679 212.494 46.501 212.757 46.1679C213.021 45.8348 214.124 46.2778 214.064 45.7648C214.058 45.5969 214.088 45.4296 214.15 45.2736C214.213 45.1176 214.307 44.9763 214.427 44.8588L215.044 45.6516C215.071 45.796 215.147 45.9267 215.26 46.0214C215.372 46.1162 215.514 46.1691 215.661 46.1712C216.187 46.1712 216.327 45.9147 216.121 46.7042C216.02 47.3185 216.049 47.9473 216.207 48.5495L215.307 48.8126L214.957 49.5155L214.071 49.6187C214.071 49.6187 213.814 50.4814 213.461 50.7446C213.107 51.0077 211.704 51.0976 211.614 51.3608C211.524 51.6239 210.731 52.1502 210.731 52.1502C210.731 52.1502 209.478 52.3734 209.448 52.5266C209.418 52.6798 208.978 52.5033 209.068 53.1162C209.158 53.7291 209.428 54.1721 208.588 54.1721C208.072 54.1714 207.557 54.1425 207.044 54.0855C206.478 54.4799 205.879 54.8254 205.254 55.1181C204.408 55.4911 203.108 56.1173 203.108 56.1173C203.108 56.1173 202.004 57.0267 201.931 56.1173C201.858 55.208 201.931 51.9603 201.931 51.9603L205.251 50.7412Z" fill="#F6E06A" stroke="#263238" stroke-linecap="round" stroke-linejoin="round"/>
<path d="M226.682 114.645C226.682 114.645 231.782 112.183 233.591 112.506C233.591 112.506 235.705 111.371 236.591 111.59C236.591 111.59 237.231 115.344 240.618 117.14C244.005 118.935 249.564 117.736 252.201 118.139C254.838 118.542 254.594 120.288 254.594 120.288C254.594 120.288 245.341 128.069 231.885 131.946C231.885 131.946 229.402 127.099 228.552 119.435L226.682 114.645Z" fill="#F6E06A"/>
<path d="M226.682 114.645C226.682 114.645 231.782 112.183 233.591 112.506C233.591 112.506 235.705 111.371 236.591 111.59C236.591 111.59 237.231 115.344 240.618 117.14C244.005 118.935 249.564 117.736 252.201 118.139C254.838 118.542 254.594 120.288 254.594 120.288C254.594 120.288 245.341 128.069 231.885 131.946C231.885 131.946 229.402 127.099 228.552 119.435L226.682 114.645Z" fill="#F6E06A" stroke="#263238" stroke-linecap="round" stroke-linejoin="round"/>
<mask id="mask1_1622_29549" style="mask-type:luminance" maskUnits="userSpaceOnUse" x="226" y="111" width="29" height="21">
<path d="M226.682 114.645C226.682 114.645 231.782 112.183 233.591 112.506C233.591 112.506 235.705 111.371 236.591 111.59C236.591 111.59 237.231 115.344 240.618 117.14C244.005 118.935 249.564 117.736 252.201 118.139C254.838 118.542 254.594 120.288 254.594 120.288C254.594 120.288 245.341 128.069 231.885 131.946C231.885 131.946 229.402 127.099 228.552 119.435L226.682 114.645Z" fill="white"/>
</mask>
<g mask="url(#mask1_1622_29549)">
<path opacity="0.2" d="M246.631 124.518C246.461 124.319 246.264 124.145 246.044 124.001C245.842 123.852 245.602 123.762 245.351 123.742C244.368 123.632 243.441 124.408 242.541 124.961C241.438 125.627 240.161 126.013 238.904 125.537C237.544 125.024 236.598 123.832 235.978 122.563C235.676 121.926 235.42 121.27 235.211 120.597C234.938 119.758 235.038 118.872 234.908 118.012C234.688 116.547 233.461 115.438 233.575 113.885C233.61 113.33 233.763 112.789 234.021 112.297C233.768 112.417 233.601 112.506 233.601 112.506C231.791 112.173 226.691 114.645 226.691 114.645L228.585 119.458C229.421 127.119 231.918 131.969 231.918 131.969C237.277 130.385 242.42 128.147 247.231 125.307C247.06 125.023 246.859 124.758 246.631 124.518Z" fill="black" fill-opacity="0.7"/>
</g>
<path d="M236.584 122.782C237.011 124.248 236.374 125.724 235.164 126.077C233.954 126.43 232.621 125.527 232.195 124.058C231.768 122.589 232.401 121.117 233.615 120.764C234.828 120.411 236.161 121.313 236.584 122.782Z" fill="white" stroke="#263238" stroke-linecap="round" stroke-linejoin="round"/>
<path d="M247.554 118.052C247.554 118.052 245.554 120.917 248.161 124.758C248.161 124.758 245.551 126.756 231.895 131.969L231.958 132.875C231.958 132.875 247.404 128.125 255.027 121.004L254.604 120.297C254.604 120.297 256.464 116.933 247.554 118.052Z" fill="white" stroke="#263238" stroke-linecap="round" stroke-linejoin="round"/>
<path d="M249.66 123.745C249.66 123.745 253.523 121.577 254.603 120.297" stroke="#263238" stroke-linecap="round" stroke-linejoin="round"/>
<path d="M233.584 112.506C235.627 113.173 236.934 118.096 239.677 119.581C242.42 121.067 246.647 120.411 246.647 120.411" stroke="#263238" stroke-linecap="round" stroke-linejoin="round"/>
<path d="M245.858 117.896C245.858 117.896 244.278 119.228 244.104 121.077" stroke="#263238" stroke-width="2" stroke-linecap="round" stroke-linejoin="round"/>
<path d="M241.464 120.8C242.016 119.599 242.913 118.589 244.04 117.899" stroke="#263238" stroke-width="2" stroke-linecap="round" stroke-linejoin="round"/>
<path d="M239.138 120.114C239.863 118.986 240.888 118.082 242.098 117.503" stroke="#263238" stroke-width="2" stroke-linecap="round" stroke-linejoin="round"/>
<path d="M237.063 118.376C237.063 118.376 237.877 117.263 240.133 116.647" stroke="#263238" stroke-width="2" stroke-linecap="round" stroke-linejoin="round"/>
<path d="M235.638 116.26C235.638 116.26 236.158 115.531 238.428 114.978" stroke="#263238" stroke-width="2" stroke-linecap="round" stroke-linejoin="round"/>
<path d="M234.501 114.125C234.501 114.125 235.964 113.063 237.084 113.126" stroke="#263238" stroke-width="2" stroke-linecap="round" stroke-linejoin="round"/>
<path d="M205.638 38.8232C205.638 38.8232 206.402 51.8704 198.352 73.6813C196.352 79.0974 198.479 80.7795 193.899 88.0309C186.496 99.749 178.472 120.561 178.472 120.561L170.546 118.692C173.433 111.151 175.758 103.406 177.502 95.5221C179.529 86.472 187.272 76.4959 187.149 72.9418C187.026 69.3877 186.326 58.4756 185.539 49.2923" fill="white"/>
<mask id="mask2_1622_29549" style="mask-type:luminance" maskUnits="userSpaceOnUse" x="170" y="38" width="36" height="83">
<path d="M205.638 38.8232C205.638 38.8232 206.402 51.8704 198.352 73.6813C196.352 79.0974 198.479 80.7795 193.899 88.0309C186.496 99.749 178.472 120.561 178.472 120.561L170.546 118.692C173.433 111.151 175.758 103.406 177.502 95.5221C179.529 86.472 187.272 76.4959 187.149 72.9418C187.026 69.3877 186.326 58.4756 185.539 49.2923" fill="white"/>
</mask>
<g mask="url(#mask2_1622_29549)">
<path opacity="0.4" d="M181.052 114.199C179.456 118.019 178.472 120.567 178.472 120.567L170.546 118.699C170.546 118.699 171.166 117.163 172.103 114.475C175.252 113.696 179.096 113.972 181.052 114.199Z" fill="#F2DCD8"/>
<path opacity="0.4" d="M193.759 88.2507C192.892 89.6331 192.019 91.1387 191.152 92.7208C190.706 91.7216 190.076 89.5431 190.946 86.119C190.946 86.119 190.976 89.8829 193.759 88.2507Z" fill="#F2DCD8"/>
<path opacity="0.4" d="M202.189 61.7233C199.809 62.3895 195.209 62.9957 188.102 60.9505C188.102 60.9505 187.479 68.3485 188.102 72.9651C189.009 79.6936 186.919 81.6788 186.919 81.6788L186.459 78.9042C186.459 78.9042 183.619 82.4383 180.692 86.9283C181.136 86.009 181.596 85.0997 182.056 84.2136C182.122 84.0804 182.192 83.9505 182.262 83.8173C182.812 82.768 183.359 81.7554 183.876 80.7861L184.209 80.1499C184.689 79.2572 185.136 78.4145 185.542 77.6251C185.589 77.5285 185.639 77.4319 185.682 77.3386C185.959 76.779 186.206 76.2494 186.412 75.7598L186.542 75.45C186.699 75.0636 186.829 74.7005 186.929 74.3641C186.956 74.2708 186.979 74.1776 187.002 74.091C187.026 74.0044 187.049 73.9078 187.069 73.8212C187.089 73.7346 187.102 73.658 187.112 73.5813C187.122 73.5307 187.129 73.4796 187.132 73.4281C187.135 73.4049 187.135 73.3814 187.132 73.3582C187.132 73.3115 187.132 73.2649 187.132 73.2183C187.137 73.1273 187.137 73.0361 187.132 72.9451C187.009 69.3911 186.309 58.4823 185.522 49.2956L205.488 38.8932L205.625 38.9131C205.682 39.8491 205.892 48.0598 202.189 61.7233Z" fill="#F2DCD8"/>
</g>
<path d="M205.638 38.8232C205.638 38.8232 206.402 51.8704 198.352 73.6813C196.352 79.0973 198.479 80.7795 193.899 88.0309C186.496 99.749 178.472 120.561 178.472 120.561L170.546 118.692C173.433 111.151 175.758 103.406 177.502 95.5221C179.529 86.472 187.272 76.4959 187.149 72.9418C187.026 69.3877 186.326 58.4756 185.539 49.2923" stroke="#263238" stroke-linecap="round" stroke-linejoin="round"/>
<path d="M181.585 26.7054C181.585 26.7054 175.472 35.4557 184.175 51.4441C184.175 51.4441 182.115 53.1329 184.048 53.9389C184.048 53.9389 183.442 57.5863 185.258 57.8528C187.075 58.1193 203.258 57.7395 205.658 54.7151C206.381 53.8057 205.618 52.1003 205.618 52.1003C210.068 34.7795 208.175 27.8878 208.175 27.8878L181.585 26.7054Z" fill="#263238"/>
<mask id="mask3_1622_29549" style="mask-type:luminance" maskUnits="userSpaceOnUse" x="179" y="26" width="30" height="32">
<path d="M181.585 26.7054C181.585 26.7054 175.472 35.4557 184.175 51.4441C184.175 51.4441 182.115 53.1329 184.048 53.9389C184.048 53.9389 183.442 57.5863 185.258 57.8528C187.075 58.1193 203.258 57.7395 205.658 54.7151C206.381 53.8057 205.618 52.1003 205.618 52.1003C210.068 34.7795 208.175 27.8878 208.175 27.8878L181.585 26.7054Z" fill="white"/>
</mask>
<g mask="url(#mask3_1622_29549)">
<path opacity="0.2" d="M205.618 52.097C205.618 52.097 206.382 53.8024 205.658 54.7151C203.255 57.7362 187.076 58.1193 185.259 57.8528C183.442 57.5863 184.049 53.9423 184.049 53.9423C182.116 53.1362 184.176 51.4474 184.176 51.4474C182.932 49.193 181.892 46.832 181.069 44.3925C177.252 32.9009 181.586 26.7054 181.586 26.7054L208.175 27.8845C208.339 28.6086 208.443 29.345 208.485 30.0862C208.738 33.3172 208.655 40.2855 205.618 52.097Z" fill="white"/>
<path d="M185.229 34.3165C185.229 34.3165 186.196 42.7471 187.736 45.8215C187.736 45.8215 187.016 49.5122 188.103 50.3049C189.189 51.0977 188.219 52.4101 188.573 53.5526" stroke="white" stroke-linecap="round" stroke-linejoin="round"/>
<path d="M194.919 37.6807C193.252 40.2022 191.432 42.9602 189.025 44.8555" stroke="white" stroke-linecap="round" stroke-linejoin="round"/>
<path opacity="0.2" d="M196.745 34.7828C196.535 35.1159 196.322 35.479 196.105 35.8254L196.745 34.7828Z" fill="black" fill-opacity="0.7"/>
<path d="M186.742 46.4377C186.742 46.4377 184.879 46.964 184.176 46.4377" stroke="white" stroke-linecap="round" stroke-linejoin="round"/>
<path d="M185.229 51.181C186.094 51.259 186.963 51.0915 187.736 50.698" stroke="white" stroke-linecap="round" stroke-linejoin="round"/>
<path d="M192.565 48.7194C195.189 47.6968 198.645 46.3877 200.262 43.9329" stroke="white" stroke-linecap="round" stroke-linejoin="round"/>
<path d="M189.009 49.9452C189.489 49.8019 189.965 49.6487 190.439 49.4888" stroke="white" stroke-linecap="round" stroke-linejoin="round"/>
<path d="M202.049 49.1558C201.634 49.4473 201.201 49.711 200.752 49.9452" stroke="white" stroke-linecap="round" stroke-linejoin="round"/>
<path d="M207.032 41.871C206.416 44.0525 205.279 46.0518 203.719 47.6968" stroke="white" stroke-linecap="round" stroke-linejoin="round"/>
<path opacity="0.2" d="M208.485 30.0862C205.102 32.2913 200.059 35.1226 196.439 35.2891C196.439 35.2891 188.396 37.6574 184.792 40.2855C183.352 41.3381 182.079 42.8969 181.069 44.3859C177.252 32.9009 181.586 26.7054 181.586 26.7054L208.175 27.8845C208.339 28.6086 208.443 29.345 208.485 30.0862Z" fill="black" fill-opacity="0.7"/>
</g>
<path d="M181.585 26.7054C181.585 26.7054 175.472 35.4557 184.175 51.4441C184.175 51.4441 182.115 53.1329 184.048 53.9389C184.048 53.9389 183.442 57.5863 185.258 57.8528C187.075 58.1193 203.258 57.7395 205.658 54.7151C206.381 53.8057 205.618 52.1003 205.618 52.1003C210.068 34.7795 208.175 27.8878 208.175 27.8878L181.585 26.7054Z" stroke="#263238" stroke-miterlimit="10"/>
<path d="M169.976 116.46C169.976 116.46 175.642 116.537 177.116 117.636C177.116 117.636 179.512 117.566 180.219 118.162C180.219 118.162 179.109 121.806 181.335 124.924C183.562 128.042 189.069 129.454 191.242 131.003C193.415 132.552 192.419 134.001 192.419 134.001C192.419 134.001 180.662 136.822 166.886 134.287C166.886 134.287 166.832 128.845 169.516 121.613L169.976 116.46Z" fill="#F6E06A" stroke="#263238" stroke-linecap="round" stroke-linejoin="round"/>
<path d="M187.119 128.835C187.119 128.835 183.982 129.834 184.595 134.434L166.886 134.284L166.869 135.457H192.482L192.419 133.998C192.419 133.998 195.585 131.819 187.119 128.835Z" fill="white" stroke="#263238" stroke-linecap="round" stroke-linejoin="round"/>
<path d="M185.669 134.374C185.669 134.374 190.532 134.427 192.419 133.998" stroke="#263238" stroke-linecap="round" stroke-linejoin="round"/>
<path d="M177.115 117.636C178.645 119.138 177.609 124.131 179.399 126.69C181.188 129.248 185.252 130.553 185.252 130.553" stroke="#263238" stroke-linecap="round" stroke-linejoin="round"/>
<path d="M185.669 127.945C185.669 127.945 183.669 128.415 182.669 130.007" stroke="#263238" stroke-width="2" stroke-linecap="round" stroke-linejoin="round"/>
<path d="M180.445 128.571C181.477 127.744 182.731 127.242 184.049 127.129" stroke="#263238" stroke-width="2" stroke-linecap="round" stroke-linejoin="round"/>
<path d="M178.669 126.919C179.824 126.24 181.145 125.894 182.486 125.92" stroke="#263238" stroke-width="2" stroke-linecap="round" stroke-linejoin="round"/>
<path d="M177.585 124.438C177.585 124.438 178.808 123.805 181.105 124.265" stroke="#263238" stroke-width="2" stroke-linecap="round" stroke-linejoin="round"/>
<path d="M177.252 121.893C177.252 121.893 178.042 121.473 180.319 121.996" stroke="#263238" stroke-width="2" stroke-linecap="round" stroke-linejoin="round"/>
<path d="M177.202 119.488C177.202 119.488 178.989 119.195 179.962 119.745" stroke="#263238" stroke-width="2" stroke-linecap="round" stroke-linejoin="round"/>
<path d="M183.559 56.7169L183.032 56.0141H184.616L185.759 55.3979C185.759 55.3979 187.249 57.0633 187.735 56.064C188.222 55.0648 188.402 54.6151 188.922 54.7017C189.442 54.7883 190.545 55.1414 191.359 55.228C192.172 55.3146 197.522 55.9308 198.025 54.9649C198.529 53.9989 200.442 54.9449 201.062 54.6917C201.552 54.5348 202.069 54.477 202.582 54.5218C202.582 54.5218 202.948 54.9282 203.248 54.5218C203.548 54.1155 204.358 53.3527 204.165 52.7598C203.972 52.1669 205.362 52.9996 205.855 52.7598C206.348 52.52 206.645 52.52 206.672 52.9596C206.741 53.3571 206.869 53.7421 207.052 54.1021C207.052 54.1021 206.995 54.805 206.672 55.0681C206.348 55.3313 206.732 55.5078 206.672 55.7709C206.612 56.0341 205.262 56.2106 205.262 56.2106C205.262 56.2106 205.028 56.1207 204.928 56.7369C204.888 56.92 204.791 57.0859 204.652 57.2118C204.513 57.3377 204.338 57.4173 204.152 57.4397C204.152 57.4397 203.378 57.0167 203.282 57.4397C203.185 57.8627 202.282 57.8727 201.588 58.4024C201.573 58.4936 201.538 58.5805 201.487 58.6576C201.435 58.7347 201.368 58.8003 201.29 58.8501C201.212 58.9 201.125 58.933 201.033 58.9471C200.941 58.9612 200.848 58.956 200.758 58.932C200.092 58.7554 198.979 58.8121 198.922 58.962C198.865 59.1118 198.022 58.962 198.022 58.962C198.022 58.962 198.072 59.2084 197.105 59.0252L196.139 58.8454L195.282 59.0919H194.112C194.112 59.0919 194.379 58.902 193.235 59.0919C192.092 59.2817 191.569 59.9879 190.862 59.4583C190.155 58.9286 189.895 58.0526 189.369 58.932C188.842 59.8113 189.222 59.405 188.109 59.6515C187.533 59.809 186.925 59.809 186.349 59.6515L184.182 59.7614C184.182 59.7614 184.182 58.6655 183.742 58.4024L183.302 58.1425L183.559 56.7169Z" fill="#F6E06A" stroke="#263238" stroke-linecap="round" stroke-linejoin="round"/>
<path d="M209.158 29.4533C209.158 29.4533 197.979 31.8716 190.066 35.3324C185.732 37.2344 183.186 39.4461 181.429 40.945C179.982 42.1808 179.066 42.9436 178.112 42.6305C175.999 41.9643 178.112 39.4328 178.112 39.4328C178.112 39.4328 177.113 34.7695 177.173 31.1688C177.223 27.9844 181.729 25.1198 182.802 19.6138L183.509 19.4606C192.842 17.502 201.299 16.9158 208.805 17.3721C209.185 20.5898 209.988 26.5721 210.778 27.3649C211.868 28.4274 209.158 29.4533 209.158 29.4533Z" fill="white"/>
<path opacity="0.2" d="M188.586 32.1381C185.162 33.1373 178.112 39.4328 178.112 39.4328C178.112 39.4328 177.113 34.7695 177.173 31.1688C177.223 27.9844 181.729 25.1198 182.802 19.6138L183.509 19.4606C187.016 18.7278 190.393 18.1815 193.642 17.8218C191.126 20.0835 185.886 21.3259 185.586 22.4218C185.232 23.7541 187.522 22.9514 187.392 25.8493C187.262 28.7472 181.222 30.6025 181.222 30.6025C181.222 30.6025 192.009 31.1188 188.586 32.1381Z" fill="black" fill-opacity="0.7"/>
<path d="M208.885 18.0316C209.288 21.3425 210.038 26.6221 210.778 27.3582C211.868 28.4307 209.158 29.4567 209.158 29.4567C209.158 29.4567 197.979 31.8749 190.066 35.3357C185.732 37.2377 183.186 39.4494 181.429 40.9483C179.982 42.1841 179.066 42.9469 178.112 42.6338C175.999 41.9676 178.112 39.4361 178.112 39.4361C178.112 39.4361 177.113 34.7728 177.173 31.1721C177.223 27.9877 181.729 25.1231 182.802 19.6171" stroke="#263238" stroke-linecap="round" stroke-linejoin="round"/>
<path d="M224.251 40.4954C224.251 40.4954 222.075 41.9643 222.108 48.4896C222.141 55.0148 226.035 94.5662 217.442 107.34C208.848 120.114 201.605 108.716 201.935 97.3641H200.825C200.825 97.3641 200.159 111.121 207.012 114.159C213.865 117.196 221.515 108.829 223.361 94.9159C225.208 81.0027 222.658 48.4363 223.275 45.7882C223.452 45.0151 223.784 44.2861 224.252 43.6458C224.721 43.0055 225.315 42.4673 225.998 42.0642L224.251 40.4954Z" fill="#263238"/>
<path d="M232.251 42.5572C232.251 42.6205 232.221 42.6804 232.204 42.7404C232.203 42.7503 232.203 42.7604 232.204 42.7704C232.171 42.8969 232.138 43.0135 232.104 43.1234C232.05 43.3078 231.985 43.489 231.911 43.6664C231.894 43.7097 231.878 43.753 231.858 43.7929C231.838 43.8329 231.818 43.8829 231.794 43.9262C231.632 44.3401 231.331 44.6842 230.941 44.8988L230.898 44.9155H230.864C230.812 44.9345 230.757 44.9446 230.701 44.9454C230.138 45.3751 229.368 46.1446 228.701 45.6616C227.993 46.0193 227.267 46.3385 226.525 46.6176C225.969 46.8012 225.394 46.9219 224.811 46.9773C224.601 46.9773 224.111 46.8008 223.685 45.8082C223.686 45.7949 223.686 45.7815 223.685 45.7682C223.607 45.5894 223.542 45.4058 223.488 45.2186C223.218 44.3958 222.821 42.8536 223.091 41.4746C222.975 41.3281 222.851 41.1815 222.718 41.0283C220.741 38.7699 221.718 35.0326 220.258 33.104C219.258 31.7717 211.815 23.1379 206.972 17.2622C207.608 17.2855 208.242 17.3155 208.865 17.3554C211.958 17.5375 215.035 17.9214 218.078 18.5046C222.791 29.7831 225.248 30.0562 226.675 33.104C228.475 37.0778 232.498 41.4613 232.251 42.5572Z" fill="white"/>
<mask id="mask4_1622_29549" style="mask-type:luminance" maskUnits="userSpaceOnUse" x="206" y="17" width="27" height="30">
<path d="M232.251 42.5572C232.251 42.6205 232.221 42.6804 232.204 42.7404C232.203 42.7503 232.203 42.7604 232.204 42.7704C232.171 42.8969 232.138 43.0135 232.104 43.1234C232.05 43.3078 231.985 43.489 231.911 43.6664C231.894 43.7097 231.878 43.753 231.858 43.7929C231.838 43.8329 231.818 43.8829 231.794 43.9262C231.632 44.3401 231.331 44.6842 230.941 44.8988L230.898 44.9155H230.864C230.812 44.9345 230.757 44.9446 230.701 44.9454C230.138 45.3751 229.368 46.1446 228.701 45.6616C227.993 46.0193 227.267 46.3385 226.525 46.6176C225.969 46.8012 225.394 46.9219 224.811 46.9773C224.601 46.9773 224.111 46.8008 223.685 45.8082C223.686 45.7949 223.686 45.7815 223.685 45.7682C223.607 45.5894 223.542 45.4058 223.488 45.2186C223.218 44.3958 222.821 42.8536 223.091 41.4746C222.975 41.3281 222.851 41.1815 222.718 41.0283C220.741 38.7699 221.718 35.0326 220.258 33.104C219.258 31.7717 211.815 23.1379 206.972 17.2622C207.608 17.2855 208.242 17.3155 208.865 17.3554C211.958 17.5375 215.035 17.9214 218.078 18.5046C222.791 29.7831 225.248 30.0562 226.675 33.104C228.475 37.0778 232.498 41.4613 232.251 42.5572Z" fill="white"/>
</mask>
<g mask="url(#mask4_1622_29549)">
<path opacity="0.4" d="M232.199 42.7404C232.197 42.7503 232.197 42.7604 232.199 42.7704C232.165 42.8969 232.132 43.0135 232.099 43.1234C232.044 43.3078 231.979 43.489 231.905 43.6664C231.889 43.7097 231.872 43.753 231.852 43.7929C231.832 43.8329 231.812 43.8829 231.789 43.9262C231.627 44.3401 231.325 44.6842 230.935 44.8988L230.892 44.9155H230.859C230.806 44.9345 230.751 44.9446 230.695 44.9454C230.132 45.3751 229.362 46.1446 228.695 45.6616C227.988 46.0193 227.261 46.3385 226.519 46.6176C225.963 46.8012 225.388 46.9219 224.805 46.9773C224.595 46.9773 224.105 46.8008 223.679 45.8082C223.68 45.7949 223.68 45.7815 223.679 45.7682C223.601 45.5894 223.536 45.4058 223.482 45.2186C223.212 44.3958 222.815 42.8536 223.085 41.4746C222.969 41.3281 222.845 41.1815 222.712 41.0283C220.736 38.7699 221.712 35.0326 220.252 33.104C219.252 31.7717 211.809 23.1379 206.966 17.2622C207.602 17.2855 208.236 17.3155 208.859 17.3554C213.789 24.0906 220.139 32.5311 221.395 33.104C221.395 33.104 223.039 40.099 224.729 41.831C224.952 42.0609 224.982 42.6071 225.439 43.0368L226.319 42.1774C226.636 42.877 227.016 43.546 227.455 44.176C227.789 44.6623 228.159 45.0987 228.699 44.5424C228.869 44.3659 229.002 44.156 229.185 43.9961C229.632 43.6031 230.185 44.0528 230.649 43.783C230.982 43.6031 231.055 43.1801 231.315 42.9236C231.575 42.6671 231.875 42.767 232.199 42.7404Z" fill="#F2DCD8"/>
</g>
<path d="M224.774 46.994C225.131 46.974 226.488 45.7748 226.488 45.7748L224.774 46.994Z" fill="white"/>
<path d="M224.774 46.994C225.131 46.974 226.488 45.7748 226.488 45.7748" stroke="#263238" stroke-linecap="round" stroke-linejoin="round"/>
<path d="M225.631 45.1486C226.094 45.7415 226.817 44.8855 227.347 45.1486C227.877 45.4118 228.681 45.5583 228.937 45.1486C229.194 44.7389 229.424 44.3192 230.444 44.4025C231.464 44.4858 231.181 43.3166 231.961 43.0701" stroke="#263238" stroke-linecap="round" stroke-linejoin="round"/>
<path d="M224.358 45.7748C223.941 44.7756 224.675 44.3958 224.675 44.3958C224.675 44.3958 223.941 43.1034 223.038 41.4913" stroke="#263238" stroke-linecap="round" stroke-linejoin="round"/>
<path d="M218.025 18.5213C222.738 29.7998 225.194 30.0729 226.621 33.1207C228.474 37.0778 232.498 41.448 232.244 42.5572C232.244 42.6205 232.214 42.6804 232.198 42.7404C232.196 42.7503 232.196 42.7604 232.198 42.7704C232.164 42.8969 232.131 43.0135 232.098 43.1234C232.043 43.3078 231.978 43.489 231.904 43.6664C231.888 43.7097 231.871 43.753 231.851 43.7929C231.831 43.8329 231.811 43.8829 231.788 43.9262C231.626 44.3401 231.324 44.6842 230.934 44.8988L230.891 44.9155H230.858C230.805 44.9345 230.75 44.9446 230.694 44.9454C230.131 45.3751 229.361 46.1446 228.694 45.6616C227.987 46.0193 227.26 46.3385 226.518 46.6176C225.962 46.8012 225.387 46.9219 224.804 46.9773C224.594 46.9773 224.104 46.8008 223.678 45.8082C223.679 45.7949 223.679 45.7815 223.678 45.7682C223.6 45.5894 223.535 45.4058 223.481 45.2186C223.211 44.3958 222.814 42.8536 223.084 41.4746C222.968 41.3281 222.844 41.1815 222.711 41.0283C220.735 38.7699 221.711 35.0326 220.251 33.104C219.251 31.7717 211.808 23.1379 206.965 17.2622" stroke="#263238" stroke-linecap="round" stroke-linejoin="round"/>
<path d="M224.917 43.5531C224.917 43.5531 228.197 39.7426 231.131 39.4461C231.131 39.4461 232.251 38.8232 231.274 38.2969C230.847 38.0671 230.437 36.2351 229.561 36.4216C229.227 36.4916 220.828 41.5113 222.247 47.7468H222.971C222.971 47.7468 223.171 45.2586 224.917 43.5531Z" fill="#263238"/>
<path d="M170.796 109.139C170.496 110.944 169.712 118.882 167.006 120.924C165.472 122.08 165.739 126.097 162.832 131.146C161.832 132.875 165.019 135.077 166.462 135.457H170.072C170.072 135.457 170.912 132.835 166.999 132.296C166.116 132.172 168.906 127.592 169.622 127.089C172.289 125.194 174.585 121.137 174.585 121.137C174.585 121.137 183.972 116.717 185.235 114.372L170.796 109.139Z" fill="#F1DDB2"/>
<mask id="mask5_1622_29549" style="mask-type:luminance" maskUnits="userSpaceOnUse" x="162" y="109" width="24" height="27">
<path d="M170.796 109.139C170.496 110.944 169.712 118.882 167.006 120.924C165.472 122.08 165.739 126.097 162.832 131.146C161.832 132.875 165.019 135.077 166.462 135.457H170.072C170.072 135.457 170.912 132.835 166.999 132.296C166.116 132.172 168.906 127.592 169.622 127.089C172.289 125.194 174.585 121.137 174.585 121.137C174.585 121.137 183.972 116.717 185.235 114.372L170.796 109.139Z" fill="white"/>
</mask>
<g mask="url(#mask5_1622_29549)">
<path opacity="0.6" d="M185.252 114.372C183.989 116.704 174.602 121.137 174.602 121.137C174.602 121.137 172.322 125.194 169.639 127.089C169.421 127.273 169.231 127.486 169.072 127.722C168.022 129.121 166.292 132.196 167.012 132.296C170.929 132.838 170.089 135.457 170.089 135.457H166.462C165.016 135.077 161.836 132.875 162.833 131.146C163.804 129.44 164.568 127.624 165.109 125.737C165.812 123.362 166.079 121.62 167.006 120.924C169.712 118.879 170.496 110.931 170.792 109.139L185.252 114.372Z" fill="#F1DDB2"/>
<path opacity="0.2" d="M185.252 114.372C183.989 116.704 174.602 121.137 174.602 121.137C174.602 121.137 172.322 125.194 169.639 127.089C169.421 127.273 169.231 127.486 169.073 127.722C167.664 127.258 166.334 126.584 165.126 125.724C165.829 123.349 166.096 121.607 167.023 120.91C169.729 118.865 170.513 110.918 170.809 109.126L185.252 114.372Z" fill="black" fill-opacity="0.7"/>
</g>
<path d="M146.426 104.612C146.426 104.612 153.092 113.492 151.119 116.42C148.682 120.034 152.202 120.324 152.562 129.161C152.636 130.94 153.842 131.896 154.696 133.185C155.599 134.554 155.382 135.457 156.112 135.457H160.505C161.505 134.034 160.655 132.862 157.979 130.966C156.619 130.007 157.436 119.778 157.076 118.699C156.716 117.619 166.642 111.63 165.742 104.612H146.426Z" fill="#F1DDB2"/>
<mask id="mask6_1622_29549" style="mask-type:luminance" maskUnits="userSpaceOnUse" x="146" y="104" width="20" height="32">
<path d="M146.426 104.612C146.426 104.612 153.092 113.492 151.119 116.42C148.682 120.034 152.202 120.324 152.562 129.161C152.636 130.94 153.842 131.896 154.696 133.185C155.599 134.554 155.382 135.457 156.112 135.457H160.505C161.505 134.034 160.655 132.862 157.979 130.966C156.619 130.007 157.436 119.778 157.076 118.699C156.716 117.619 166.642 111.63 165.742 104.612H146.426Z" fill="white"/>
</mask>
<g mask="url(#mask6_1622_29549)">
<path opacity="0.6" d="M160.502 135.457H156.109C155.382 135.457 155.599 134.554 154.695 133.185C153.842 131.892 152.635 130.936 152.562 129.161C152.345 123.778 150.949 121.567 150.442 119.834C150.109 118.729 150.169 117.836 151.109 116.417C153.085 113.489 146.419 104.606 146.419 104.606H165.752C166.652 111.624 156.725 117.596 157.085 118.692C157.252 119.178 157.172 121.55 157.165 124.085C157.165 127.139 157.245 130.437 157.989 130.963C160.659 132.862 161.499 134.031 160.502 135.457Z" fill="#F1DDB2"/>
<path opacity="0.2" d="M157.075 118.699C157.242 119.185 157.162 121.557 157.155 124.091C154.808 122.855 152.564 121.433 150.442 119.841C150.109 118.735 150.169 117.843 151.109 116.424C153.085 113.496 146.419 104.612 146.419 104.612H165.752C166.642 111.63 156.715 117.616 157.075 118.699Z" fill="black" fill-opacity="0.7"/>
</g>
<path d="M146.18 85.0231C150.693 82.1052 177.476 88.5738 179.279 87.6712C181.082 86.7685 183.792 87.8344 183.792 87.8344C183.792 87.8344 186.499 86.049 187.222 86.049C187.945 86.049 190.555 85.2962 190.555 85.2962C190.555 85.2962 195.888 97.4141 199.855 100.662C199.855 100.662 194.802 114.358 192.455 115.634C192.455 115.634 194.962 128.292 198.028 130.084C201.095 131.876 201.895 132.589 204.062 132.415C206.228 132.242 207.491 134.58 205.505 135.123L197.005 135.457C195.742 135.097 195.778 133.491 194.155 133.125C192.532 132.758 191.372 129.338 190.649 128.615C189.925 127.892 183.949 120.904 182.502 116.414C182.502 116.414 178.012 117.43 169.169 110.751C164.406 107.15 152.203 107.753 152.203 107.753C152.203 107.753 145.343 116.007 140.47 118.655C135.596 121.303 135.88 129.354 135.88 129.354V132.952C135.88 132.952 139.946 133.635 139.406 135.457H131.803C131.803 135.457 129.803 134.214 130.72 129.704C131.637 125.194 130.43 119.788 130.483 118.645C130.537 117.503 135.053 116.23 135.413 112.27C135.773 108.31 135.69 95.4655 140.203 91.6783C140.203 91.6783 135.71 85.9258 139.32 79.4305C142.93 72.9352 152.496 76.5959 150.693 80.7195C150.693 80.7195 149.066 79.1207 146.36 80.7195C143.653 82.3184 146.18 85.0231 146.18 85.0231Z" fill="#F1DDB2"/>
<mask id="mask7_1622_29549" style="mask-type:luminance" maskUnits="userSpaceOnUse" x="130" y="75" width="77" height="61">
<path d="M146.18 85.0231C150.693 82.1052 177.476 88.5738 179.279 87.6712C181.082 86.7685 183.792 87.8344 183.792 87.8344C183.792 87.8344 186.499 86.049 187.222 86.049C187.945 86.049 190.555 85.2962 190.555 85.2962C190.555 85.2962 195.888 97.4141 199.855 100.662C199.855 100.662 194.802 114.358 192.455 115.634C192.455 115.634 194.962 128.292 198.028 130.084C201.095 131.876 201.895 132.589 204.062 132.415C206.228 132.242 207.491 134.58 205.505 135.123L197.005 135.457C195.742 135.097 195.778 133.491 194.155 133.125C192.532 132.758 191.372 129.338 190.649 128.615C189.925 127.892 183.949 120.904 182.502 116.414C182.502 116.414 178.012 117.43 169.169 110.751C164.406 107.15 152.203 107.753 152.203 107.753C152.203 107.753 145.343 116.007 140.47 118.655C135.596 121.303 135.88 129.354 135.88 129.354V132.952C135.88 132.952 139.946 133.635 139.406 135.457H131.803C131.803 135.457 129.803 134.214 130.72 129.704C131.637 125.194 130.43 119.788 130.483 118.645C130.537 117.503 135.053 116.23 135.413 112.27C135.773 108.31 135.69 95.4655 140.203 91.6783C140.203 91.6783 135.71 85.9258 139.32 79.4305C142.93 72.9352 152.496 76.5959 150.693 80.7195C150.693 80.7195 149.066 79.1207 146.36 80.7195C143.653 82.3184 146.18 85.0231 146.18 85.0231Z" fill="white"/>
</mask>
<g mask="url(#mask7_1622_29549)">
<path opacity="0.8" d="M206.355 134.571C206.151 134.853 205.849 135.048 205.508 135.117L197.008 135.45C195.745 135.087 195.782 133.485 194.158 133.118C193.558 132.982 193.022 132.436 192.545 131.756C191.739 130.597 191.109 129.065 190.652 128.612C189.932 127.889 183.955 120.901 182.509 116.414C182.509 116.414 178.019 117.43 169.176 110.751C164.799 107.44 154.149 107.673 152.443 107.733H152.209C152.209 107.733 145.346 115.987 140.473 118.632C135.6 121.277 135.89 129.334 135.89 129.334V132.952C135.89 132.952 139.953 133.635 139.41 135.457H131.803C131.803 135.457 129.803 134.214 130.72 129.704C131.163 127.499 131.103 125.071 130.93 123.042C130.753 120.927 130.457 119.228 130.483 118.646C130.523 117.826 132.86 116.947 134.306 115.045C134.932 114.249 135.313 113.291 135.406 112.283C135.77 108.31 135.683 95.4756 140.196 91.6917C140.196 91.6917 135.7 85.9359 139.31 79.4439C141.53 75.4468 145.976 75.2936 148.679 76.7159C150.379 77.6086 151.386 79.1308 150.679 80.713C150.679 80.713 149.056 79.1142 146.346 80.713C143.636 82.3118 146.166 85.0166 146.166 85.0166C150.679 82.0987 177.462 88.5673 179.269 87.6646C181.075 86.7619 183.782 87.8312 183.782 87.8312C183.782 87.8312 185.115 86.9551 186.145 86.4355C186.472 86.239 186.833 86.1056 187.209 86.0425C187.932 86.0425 190.542 85.2897 190.542 85.2897C190.542 85.2897 195.875 97.4042 199.842 100.652C199.842 100.652 194.785 114.349 192.438 115.641C192.438 115.641 194.945 128.299 198.015 130.091C201.085 131.883 201.882 132.599 204.048 132.422C205.775 132.269 206.918 133.695 206.355 134.571Z" fill="#F1DDB2"/>
<path opacity="0.2" d="M135.586 134.274C138.116 134.274 139.396 135.457 139.396 135.457H131.803C131.803 135.457 129.803 134.214 130.72 129.704C131.163 127.499 131.103 125.071 130.93 123.042C131.35 124.145 131.84 125.091 132.347 125.5C133.68 126.563 131.383 132.472 131.743 133.315C132.103 134.158 133.067 134.274 135.586 134.274Z" fill="black" fill-opacity="0.7"/>
<path opacity="0.2" d="M148.686 76.7058C145.299 76.426 144.26 78.4745 144.26 78.4745C144.086 78.2215 144.003 77.917 144.025 77.6108C144.046 77.3047 144.172 77.0149 144.38 76.7891C140.41 78.5944 141.973 83.0878 141.973 83.0878C141.01 82.6548 140.41 81.2525 140.41 81.2525C139.643 85.2496 144.016 88.5306 144.016 88.5306C139.683 90.5291 138 97.2342 137.16 102.883C136.32 108.533 136.676 113.466 134.316 115.035C134.941 114.239 135.323 113.28 135.416 112.273C135.78 108.3 135.693 95.4655 140.206 91.6816C140.206 91.6816 135.71 85.9258 139.32 79.4338C141.536 75.4467 145.989 75.2835 148.686 76.7058Z" fill="black" fill-opacity="0.7"/>
<path opacity="0.2" d="M178.952 110.028C180.698 114.498 182.508 116.424 182.508 116.424C182.508 116.424 178.018 117.44 169.175 110.761C164.799 107.45 154.149 107.683 152.442 107.743C153.059 105.525 152.569 103.993 152.569 103.993C152.569 103.993 164.499 103.763 170.519 107.304C176.538 110.844 178.952 110.028 178.952 110.028Z" fill="black" fill-opacity="0.7"/>
<path opacity="0.2" d="M192.458 115.634C192.638 111.544 190.711 109.016 192.158 107.743C193.605 106.471 194.158 110.581 194.158 110.581C195.315 107.583 195.525 103.007 195.525 103.007C195.525 103.007 191.191 99.0362 187.705 91.5783C186.508 89.0302 186.135 87.4347 186.158 86.442C186.485 86.2455 186.846 86.1121 187.222 86.049C187.945 86.049 190.555 85.2962 190.555 85.2962C190.555 85.2962 195.888 97.4108 199.855 100.658C199.861 100.658 194.805 114.355 192.458 115.634Z" fill="black" fill-opacity="0.7"/>
<path opacity="0.2" d="M206.355 134.57C206.151 134.852 205.849 135.048 205.508 135.117L197.008 135.45C195.745 135.087 195.782 133.485 194.158 133.118C193.558 132.982 193.022 132.435 192.545 131.756C193.268 131.906 193.878 131.932 194.158 131.739C195.202 131.023 196.492 133.781 197.068 134.507C197.645 135.233 203.588 133.661 205.458 134.264C205.771 134.374 206.071 134.474 206.355 134.57Z" fill="black" fill-opacity="0.7"/>
</g>
<path d="M182.505 116.42C182.505 116.42 178.559 113.516 178.919 108.353" stroke="#333333" stroke-linecap="round" stroke-linejoin="round"/>
<path d="M174.586 110.028C174.586 110.028 176.676 113.692 178.896 114.359" stroke="#333333" stroke-linecap="round" stroke-linejoin="round"/>
<path d="M152.919 101.481C152.019 102.814 153.253 104.586 152.199 107.743L152.919 101.481Z" fill="#F1DDB2"/>
<path d="M152.919 101.481C152.019 102.814 153.253 104.586 152.199 107.743" stroke="#333333" stroke-linecap="round" stroke-linejoin="round"/>
<path d="M186.538 85.3728C186.538 85.3728 186.065 88.3073 189.758 93.7234C193.451 99.1395 197.375 103.14 199.091 103.217C199.091 103.217 200.268 102.041 201.135 101.964C201.135 101.964 202.558 101.481 197.058 93.1738C195.338 90.5724 188.192 84.1071 188.192 84.1071C188.192 84.1071 187.585 84.1071 186.538 85.3728Z" fill="#333333"/>
<path d="M187.222 83.9206C185.869 85.2529 187.139 90.8389 192.045 92.7042C192.045 92.7042 198.112 100.409 199.859 100.672C203.469 101.211 208.705 97.9637 208.705 97.0644C208.705 96.165 212.522 92.581 212.522 92.581C212.522 92.581 215.565 90.5491 213.938 88.384C212.312 86.2189 214.625 83.5941 213.132 83.321C213.132 83.321 210.285 81.7988 209.485 79.6204C209.435 79.4771 208.885 79.7269 208.885 79.7269C208.885 79.7269 209.065 78.9442 208.325 78.8809C208.325 78.8809 208.448 78.0415 207.778 78.1781C207.566 77.6506 207.25 77.1708 206.849 76.767C206.449 76.3632 205.971 76.0434 205.445 75.8264C203.715 75.0537 198.402 75.057 196.055 77.0289C193.709 79.0008 187.942 83.2044 187.222 83.9206Z" fill="#F1DDB2"/>
<mask id="mask8_1622_29549" style="mask-type:luminance" maskUnits="userSpaceOnUse" x="186" y="75" width="29" height="26">
<path d="M187.222 83.9206C185.869 85.2529 187.139 90.8389 192.045 92.7042C192.045 92.7042 198.112 100.409 199.859 100.672C203.469 101.211 208.705 97.9637 208.705 97.0644C208.705 96.165 212.522 92.581 212.522 92.581C212.522 92.581 215.565 90.5491 213.938 88.384C212.312 86.2189 214.625 83.5941 213.132 83.321C213.132 83.321 210.285 81.7988 209.485 79.6204C209.435 79.4771 208.885 79.7269 208.885 79.7269C208.885 79.7269 209.065 78.9442 208.325 78.8809C208.325 78.8809 208.448 78.0415 207.778 78.1781C207.566 77.6506 207.25 77.1708 206.849 76.767C206.449 76.3632 205.971 76.0434 205.445 75.8264C203.715 75.0537 198.402 75.057 196.055 77.0289C193.709 79.0008 187.942 83.2044 187.222 83.9206Z" fill="white"/>
</mask>
<g mask="url(#mask8_1622_29549)">
<path opacity="0.8" d="M212.518 92.5809C212.518 92.5809 208.705 96.1383 208.705 97.041C208.705 97.5473 207.065 98.783 204.995 99.6824C203.362 100.389 201.452 100.885 199.862 100.648C198.108 100.389 192.045 92.6875 192.045 92.6875C187.915 91.1153 186.379 86.9017 186.782 84.8165C186.833 84.474 186.987 84.1549 187.222 83.9005C187.942 83.1977 193.718 79.004 196.068 77.0288C198.418 75.0536 203.735 75.0536 205.458 75.823C205.983 76.0421 206.46 76.3631 206.861 76.7673C207.261 77.1715 207.577 77.6509 207.791 78.178C208.458 78.0414 208.338 78.8808 208.338 78.8808C209.078 78.9441 208.901 79.7235 208.901 79.7235C208.901 79.7235 209.448 79.477 209.498 79.6169C210.295 81.7987 213.145 83.3209 213.145 83.3209C214.635 83.5941 212.328 86.2221 213.951 88.3839C215.575 90.5457 212.518 92.5809 212.518 92.5809Z" fill="#F1DDB2"/>
<path opacity="0.2" d="M204.995 99.6924C203.362 100.399 201.452 100.895 199.862 100.658C198.108 100.399 192.045 92.6975 192.045 92.6975C187.915 91.1253 186.379 86.9117 186.782 84.8265C187.019 86.492 187.619 88.384 189.009 89.743C192.045 92.6975 193.808 91.9114 194.895 92.1812C195.982 92.451 195.708 96.3315 198.322 97.5107C200.935 98.6898 198.748 95.2556 200.565 94.1798C202.178 93.2071 201.585 97.9104 204.995 99.6924Z" fill="black" fill-opacity="0.7"/>
</g>
<path d="M187.222 83.9206C185.869 85.2529 187.139 90.8389 192.045 92.7042C192.045 92.7042 198.112 100.409 199.859 100.672C203.469 101.211 208.705 97.9637 208.705 97.0644C208.705 96.165 212.522 92.581 212.522 92.581C212.522 92.581 215.565 90.5491 213.938 88.384C212.312 86.2189 214.625 83.5941 213.132 83.321C213.132 83.321 210.285 81.7988 209.485 79.6204C209.435 79.4771 208.885 79.7269 208.885 79.7269C208.885 79.7269 209.065 78.9442 208.325 78.8809C208.325 78.8809 208.448 78.0415 207.778 78.1781C207.566 77.6506 207.25 77.1708 206.849 76.767C206.449 76.3632 205.971 76.0434 205.445 75.8264C203.715 75.0537 198.402 75.057 196.055 77.0289C193.709 79.0008 187.942 83.2044 187.222 83.9206Z" stroke="#333333" stroke-linecap="round" stroke-linejoin="round"/>
<path d="M205.459 76.3993C203.922 75.8564 201.575 75.8764 201.349 77.9848C201.122 80.0933 201.349 81.8987 200.565 82.6215" stroke="#333333" stroke-linecap="round" stroke-linejoin="round"/>
<path d="M195.918 76.0996C194.308 74.3242 188.112 78.3679 189.105 81.6289C190.099 84.8899 188.999 87.6412 190.639 87.6412C190.639 87.6412 190.639 90.639 194.145 91.0987C197.652 91.5584 196.908 77.1655 199.282 75.6566C199.282 75.6566 199.485 75.2169 198.222 75.3568C197.415 75.4601 196.634 75.7119 195.918 76.0996Z" fill="#D0BE99" stroke="#333333" stroke-linecap="round" stroke-linejoin="round"/>
<path d="M190.651 87.6412C193.088 88.2141 195.165 89.2067 196.338 83.8839C197.511 78.5611 196.788 77.2953 196.788 77.2953" stroke="#333333" stroke-linecap="round" stroke-linejoin="round"/>
<path d="M213.937 88.394C212.314 86.2322 214.621 83.6041 213.131 83.331L213.071 83.2977C213.209 83.0178 213.244 82.6983 213.171 82.395C213.031 81.962 212.108 83.2277 211.684 81.5856C211.438 80.6363 210.168 80.1932 209.684 80.0567C209.614 79.9171 209.552 79.7737 209.498 79.627C209.448 79.4871 208.901 79.7336 208.901 79.7336C208.274 80.2998 207.868 81.4657 207.678 82.1318C207.654 81.3424 207.374 80.7762 206.911 80.7995L206.764 80.3931C208.054 79.5437 207.014 77.8916 206.514 77.3353C206.514 77.3353 205.574 76.9722 204.388 78.1914C203.201 79.4105 203.388 82.9746 202.581 83.5208C202.581 83.5208 205.544 84.0638 204.828 85.5194C204.111 86.975 202.398 89.4898 203.934 90.7556C205.471 92.0213 204.191 93.2804 204.828 94.7227C205.334 95.8652 205.731 98.0536 205.354 99.1961C205.243 99.438 205.062 99.641 204.834 99.779C206.988 98.8764 208.718 97.584 208.718 97.0644C208.718 96.1617 212.531 92.6043 212.531 92.6043C212.531 92.6043 215.561 90.5591 213.937 88.394Z" fill="#D0BE99"/>
<mask id="mask9_1622_29549" style="mask-type:luminance" maskUnits="userSpaceOnUse" x="202" y="77" width="13" height="23">
<path d="M213.937 88.394C212.314 86.2322 214.621 83.6041 213.131 83.331L213.071 83.2977C213.209 83.0178 213.244 82.6983 213.171 82.395C213.031 81.962 212.108 83.2277 211.684 81.5856C211.438 80.6363 210.168 80.1932 209.684 80.0567C209.614 79.9171 209.552 79.7737 209.498 79.627C209.448 79.4871 208.901 79.7336 208.901 79.7336C208.274 80.2998 207.868 81.4657 207.678 82.1318C207.654 81.3424 207.374 80.7762 206.911 80.7995L206.764 80.3931C208.054 79.5437 207.014 77.8916 206.514 77.3353C206.514 77.3353 205.574 76.9722 204.388 78.1914C203.201 79.4105 203.388 82.9746 202.581 83.5208C202.581 83.5208 205.544 84.0638 204.828 85.5194C204.111 86.975 202.398 89.4898 203.934 90.7556C205.471 92.0213 204.191 93.2804 204.828 94.7227C205.334 95.8652 205.731 98.0536 205.354 99.1961C205.243 99.438 205.062 99.641 204.834 99.779C206.988 98.8764 208.718 97.584 208.718 97.0644C208.718 96.1617 212.531 92.6043 212.531 92.6043C212.531 92.6043 215.561 90.5591 213.937 88.394Z" fill="white"/>
</mask>
<g mask="url(#mask9_1622_29549)">
<path opacity="0.2" d="M209.848 95.3156C209.204 96.0451 208.704 96.7246 208.704 97.051C205.814 96.5547 206.074 93.6968 206.074 93.6968C206.274 94.4829 208.214 96.0984 209.848 95.3156Z" fill="black" fill-opacity="0.7"/>
<path opacity="0.2" d="M212.517 92.5809C212.517 92.5809 211.901 93.1571 211.164 93.9133C212.811 90.7056 210.897 88.5072 211.497 86.6685C211.961 85.3389 212.53 84.0481 213.197 82.808C213.174 82.9762 213.129 83.1407 213.064 83.2976L213.124 83.3309C214.614 83.6041 212.307 86.2322 213.931 88.3939C215.554 90.5557 212.517 92.5809 212.517 92.5809Z" fill="black" fill-opacity="0.7"/>
<path opacity="0.2" d="M204.521 81.5089C203.958 79.8435 204.818 78.5744 206.068 78.7143C207.318 78.8542 206.918 77.9249 206.918 77.9249C206.918 77.9249 208.018 79.627 206.491 80.6296C206.491 80.6296 207.311 80.5396 206.918 81.922C206.524 83.3043 205.278 83.7373 204.521 81.5089Z" fill="black" fill-opacity="0.7"/>
</g>
<path d="M209.472 80.0067C209.472 80.0067 211.375 80.3964 211.682 81.5856C212.109 83.2277 213.015 81.9653 213.172 82.395C213.595 83.6674 210.735 85.7625 211.459 88.9769C212.765 94.796 208.526 97.4141 205.726 93.2205" stroke="#333333" stroke-linecap="round" stroke-linejoin="round"/>
<path d="M208.885 80.7562C208.821 81.6622 210.551 81.1326 210.701 80.7029C210.974 79.9235 209.081 78.0082 208.885 80.7562Z" fill="#333333"/>
<path d="M206.891 80.8095C207.938 80.7262 208.044 83.6141 206.501 85.3729" stroke="#333333" stroke-linecap="round" stroke-linejoin="round"/>
<path d="M206.679 80.2566C207.082 80.9561 206.985 81.7721 206.459 82.0752C205.932 82.3784 205.179 82.0553 204.775 81.3558C204.372 80.6563 204.469 79.8402 204.992 79.5371C205.515 79.234 206.272 79.5604 206.679 80.2566Z" fill="#1D0E06"/>
<path opacity="0.2" d="M197.008 78.4712C197.008 78.4712 197.605 87.1316 195.028 88.8437C192.452 90.5558 189.928 89.4299 189.342 88.5306C188.755 87.6312 189.608 85.0131 189.608 85.0131C189.608 85.0131 189.508 86.6786 190.065 87.448C191.108 87.8296 192.205 88.0421 193.315 88.0776C195.165 88.0376 196.251 86.049 197.008 78.4712Z" fill="black" fill-opacity="0.7"/>
</svg>
