<svg width="199" height="159" viewBox="0 0 199 159" fill="none" xmlns="http://www.w3.org/2000/svg">
<path d="M11.0047 138.738L33.1255 138.642L55.2504 138.606L99.5 138.539L143.75 138.606L165.874 138.642L187.995 138.738L165.874 138.837L143.75 138.873L99.5 138.937L55.2504 138.869L33.1255 138.837L11.0047 138.738Z" fill="#263238"/>
<path opacity="0.4" d="M177.926 81.9313C177.926 82.5601 180.258 126.065 181.058 138.738H144.375C146.309 129.695 155.678 80.9323 155.845 80.2079C156.159 78.8706 151.992 73.4141 154.293 70.1584C156.681 66.7555 158.671 67.8182 159.387 66.9744C160.103 66.1307 160.732 62.3099 164.358 61.4303C167.427 60.686 167.431 62.9904 168.736 63.0661C169.508 63.1098 169.755 62.4412 170.527 61.9875H170.547C170.551 61.9856 170.556 61.9847 170.561 61.9847C170.566 61.9847 170.57 61.9856 170.575 61.9875C171.1 61.6969 171.86 61.5099 173.154 61.693C176.525 62.1706 177.393 68.5704 177.97 69.4022C178.547 70.234 181.026 69.6171 181.842 73.2509C183.032 78.4607 177.906 81.1751 177.926 81.9313Z" fill="black"/>
<path opacity="0.2" d="M163.662 103.459C164.816 101.449 165.787 99.3119 166.117 97.1786C166.145 97.0075 166.44 96.9637 166.539 97.1189C166.806 97.5408 167.558 98.7109 167.665 98.9099C167.697 98.7786 167.729 98.6472 167.753 98.5119C167.839 98.0724 167.901 97.6287 167.94 97.1826C168.016 96.2896 168.007 95.3913 167.912 94.5001C167.816 93.6082 167.631 92.7282 167.359 91.8733C167.08 91.0056 166.686 90.1738 166.328 89.3261C166.328 89.2863 166.392 89.2584 166.42 89.2942C167.021 90.0566 167.508 90.9027 167.864 91.8056C168.221 92.6453 168.488 93.5205 168.66 94.4165C168.829 95.3149 168.89 96.23 168.844 97.1428C168.821 97.6163 168.77 98.0881 168.692 98.5557C168.653 99.0292 168.518 99.4897 168.294 99.9089C168.123 100.187 167.634 100.04 167.55 99.8054C167.502 99.6621 166.599 97.9945 166.456 97.7517C166.294 98.6851 166.027 99.5971 165.66 100.47C165.193 101.559 164.588 102.584 163.861 103.519C163.781 103.614 163.61 103.547 163.662 103.459Z" fill="#333333"/>
<path opacity="0.8" d="M169.202 69.9953C169.202 69.5694 169.238 69.1436 169.261 68.7217C169.377 67.6943 169.623 66.6858 169.994 65.7208C170.101 65.4572 170.234 65.2051 170.392 64.9686C170.591 64.6408 170.91 64.403 171.281 64.305C171.652 64.2071 172.046 64.2566 172.382 64.4432C172.966 64.7241 173.48 65.1321 173.886 65.6372C174.798 66.7237 175.478 67.9416 175.55 69.3864C175.605 70.0859 175.492 70.7884 175.223 71.436C174.953 72.0837 174.533 72.658 173.998 73.1116C173.722 73.3691 173.393 73.5637 173.034 73.6822C172.676 73.8006 172.296 73.84 171.921 73.7976C171.546 73.7552 171.184 73.6321 170.861 73.4368C170.538 73.2414 170.261 72.9784 170.049 72.6659C169.485 71.8908 169.188 70.9538 169.202 69.9953Z" fill="#263238"/>
<path opacity="0.8" d="M162.022 71.8937C161.54 71.2587 161.237 70.5065 161.144 69.715C161.051 68.9236 161.171 68.1216 161.492 67.3923C162.102 65.923 163.224 64.7242 164.649 64.0172C164.901 63.8922 165.168 63.8012 165.445 63.7466C165.777 63.656 166.131 63.6891 166.441 63.84C166.75 63.9908 166.995 64.249 167.128 64.5665C167.453 65.2679 167.614 66.0343 167.598 66.8072C167.618 67.3883 167.598 67.9694 167.598 68.5504C167.582 69.6153 167.269 70.6545 166.694 71.5514C166.322 72.1353 165.78 72.592 165.142 72.8608C164.59 73.0846 163.978 73.1105 163.409 72.9342C162.841 72.758 162.35 72.3903 162.022 71.8937Z" fill="#263238"/>
<path opacity="0.8" d="M158.261 77.8517C157.599 77.4895 157.049 76.9532 156.67 76.3007C156.291 75.6483 156.098 74.9047 156.112 74.1503C156.118 73.9705 156.134 73.7911 156.159 73.613C156.242 72.5131 156.647 71.4621 157.325 70.5922C157.392 70.5093 157.464 70.4309 157.54 70.3574C158.301 69.6211 159.104 69.6092 159.885 70.3295C160.444 70.8704 160.888 71.5189 161.19 72.236C161.669 73.1255 161.941 74.1119 161.986 75.1215C161.994 75.7464 161.842 76.3631 161.544 76.9125C161.402 77.2006 161.2 77.4558 160.953 77.6617C160.707 77.8676 160.419 78.0196 160.11 78.1081C159.801 78.1965 159.477 78.2194 159.158 78.1752C158.84 78.1311 158.534 78.0209 158.261 77.8517Z" fill="#263238"/>
<path opacity="0.8" d="M175.339 82.6357C175.339 82.7909 175.339 82.9461 175.339 83.1531C175.14 84.6615 174.228 85.6366 172.784 86.1261C171.308 86.6056 169.705 86.4987 168.306 85.8276C167.382 85.4117 166.347 85.3124 165.361 85.5451C163.889 85.9255 162.328 85.7439 160.983 85.0356C160.415 84.7706 159.928 84.3585 159.572 83.8421C159.217 83.3257 159.006 82.7237 158.961 82.0984C158.928 81.5907 159 81.0816 159.171 80.6025C159.342 80.1234 159.609 79.6843 159.956 79.3124C160.341 78.8785 160.775 78.4912 161.25 78.1582C162.289 77.4412 163.204 76.5577 163.956 75.5433C164.31 75.0549 164.759 74.6436 165.277 74.3344C165.794 74.0252 166.369 73.8247 166.967 73.745C167.565 73.6653 168.172 73.7082 168.753 73.8709C169.333 74.0336 169.875 74.3129 170.344 74.6916C170.954 75.1829 171.419 75.8309 171.689 76.5662C172.051 77.5378 172.655 78.4008 173.444 79.0736C174.435 79.87 175.098 81.0034 175.307 82.2576C175.323 82.3929 175.335 82.5123 175.339 82.6357Z" fill="#263238"/>
<path opacity="0.8" d="M179.59 75.7106C179.395 77.5135 178.587 78.7354 177.098 79.4557C176.774 79.6362 176.412 79.7386 176.041 79.7548C175.671 79.771 175.301 79.7006 174.962 79.5492C174.624 79.3978 174.325 79.1695 174.09 78.8825C173.854 78.5954 173.689 78.2575 173.608 77.8956C173.459 77.3403 173.446 76.7572 173.572 76.1961C173.854 74.8588 174.623 73.8081 175.498 72.7972C175.816 72.4452 176.18 72.1386 176.581 71.8858C176.748 71.7575 176.942 71.6666 177.147 71.6192C177.353 71.5717 177.567 71.5688 177.773 71.6107C177.98 71.6525 178.176 71.7381 178.347 71.8618C178.518 71.9854 178.661 72.1442 178.766 72.3276C179.237 73.0215 179.512 73.8302 179.562 74.6678C179.598 75.0658 179.582 75.4678 179.59 75.7106Z" fill="#263238"/>
<path d="M170.596 61.9476C170.574 61.9582 170.552 61.9705 170.531 61.9842L170.596 61.9476Z" fill="#333333"/>
<path d="M161.059 110.201C161.059 110.122 161.059 110.042 161.079 109.939C161.124 109.593 161.269 109.267 161.497 109.003C161.725 108.738 162.025 108.546 162.36 108.45C162.708 108.339 163.076 108.301 163.439 108.338C163.803 108.375 164.155 108.486 164.474 108.665C164.897 108.894 165.389 108.962 165.859 108.856C166.207 108.768 166.569 108.752 166.924 108.807C167.279 108.862 167.619 108.989 167.924 109.178C168.194 109.334 168.418 109.558 168.574 109.828C168.729 110.097 168.812 110.403 168.812 110.715C168.822 111.24 168.629 111.748 168.274 112.135C168.094 112.36 167.877 112.554 167.634 112.709C166.667 113.25 166.018 113.278 164.684 113.107C163.351 112.935 162.734 112.74 161.875 112.048C161.637 111.839 161.444 111.583 161.307 111.297C161.17 111.011 161.092 110.701 161.079 110.384C161.063 110.329 161.059 110.265 161.059 110.201Z" fill="#263238"/>
<path d="M56.2971 138.738H22.288C21.8224 122.468 21.1935 100.347 21.1895 99.8214C21.1895 98.4523 15.8325 94.138 17.2931 90.4326C18.8413 86.564 20.9985 87.1212 21.492 86.1302C21.9855 85.1392 21.691 81.2826 25.0064 79.5672C27.7924 78.1185 28.3615 80.3632 29.6431 80.1204C30.4032 79.9811 30.4868 79.2687 31.1276 78.6478L31.1833 78.5961C31.6211 78.1981 32.3176 77.8359 33.6111 77.7085C36.9981 77.3662 39.3622 83.38 40.1184 84.0487C40.8746 84.7173 43.1392 83.5352 44.7949 86.8705C47.1829 91.6823 42.8527 95.5389 43.0477 96.2673C43.2029 96.7767 51.5171 123.427 56.2971 138.738Z" fill="#DDAF89"/>
<path opacity="0.4" d="M56.2971 138.738H22.288C21.8224 122.468 21.1935 100.347 21.1895 99.8214C21.1895 98.4523 15.8325 94.138 17.2931 90.4326C18.8413 86.564 20.9985 87.1212 21.492 86.1302C21.9855 85.1392 21.691 81.2826 25.0064 79.5672C27.7924 78.1185 28.3615 80.3632 29.6431 80.1204C30.4032 79.9811 30.4868 79.2687 31.1276 78.6478L31.1833 78.5961C31.6211 78.1981 32.3176 77.8359 33.6111 77.7085C36.9981 77.3662 39.3622 83.38 40.1184 84.0487C40.8746 84.7173 43.1392 83.5352 44.7949 86.8705C47.1829 91.6823 42.8527 95.5389 43.0477 96.2673C43.2029 96.7767 51.5171 123.427 56.2971 138.738Z" fill="black"/>
<path opacity="0.2" d="M39.3622 119.391C37.81 117.668 36.4131 115.785 35.6409 113.763C35.5773 113.604 35.2788 113.624 35.2151 113.795C35.0439 114.265 34.5584 115.582 34.4907 115.785C34.431 115.666 34.3713 115.546 34.3196 115.427C34.1441 115.014 33.9913 114.591 33.8619 114.161C33.5983 113.306 33.4184 112.428 33.3246 111.538C33.233 110.645 33.233 109.745 33.3246 108.852C33.4121 107.945 33.6231 107.049 33.7942 106.142C33.7942 106.106 33.7186 106.094 33.6987 106.142C33.2717 107.013 32.9741 107.942 32.8151 108.9C32.6463 109.796 32.5755 110.707 32.6042 111.618C32.6311 112.53 32.7646 113.436 33.0022 114.317C33.1208 114.771 33.2643 115.219 33.432 115.658C33.5706 116.111 33.7994 116.532 34.1047 116.896C34.3315 117.134 34.7813 116.896 34.8091 116.637C34.829 116.49 35.3623 114.667 35.4499 114.4C35.8036 115.278 36.2534 116.113 36.7912 116.892C37.4742 117.856 38.2765 118.731 39.1792 119.495C39.2787 119.566 39.4299 119.467 39.3622 119.391Z" fill="black"/>
<path d="M31.7525 86.7351C31.645 86.3371 31.5893 85.8993 31.5097 85.4814C31.3784 84.4561 31.3784 83.4183 31.5097 82.393C31.5563 82.1103 31.631 81.833 31.7326 81.5651C31.8517 81.198 32.1089 80.8915 32.4497 80.7103C32.7905 80.5291 33.1884 80.4874 33.5594 80.594C34.1935 80.7268 34.7903 80.9987 35.3066 81.39C36.4528 82.2298 37.4041 83.2487 37.814 84.6377C38.0309 85.3034 38.0874 86.0109 37.9788 86.7026C37.8702 87.3943 37.5996 88.0505 37.1892 88.6177C36.9825 88.9336 36.7098 89.201 36.39 89.4015C36.0702 89.602 35.7107 89.7309 35.3363 89.7793C34.9619 89.8277 34.5815 89.7945 34.2212 89.6819C33.8609 89.5693 33.5292 89.3801 33.2489 89.1271C32.5047 88.5125 31.9797 87.6732 31.7525 86.7351Z" fill="#FF9BBC"/>
<path d="M25.2332 90.2853C24.6128 89.7841 24.138 89.1259 23.858 88.3791C23.578 87.6323 23.5032 86.8242 23.6412 86.0386C23.8836 84.4662 24.6882 83.035 25.9058 82.0109C26.1246 81.825 26.3684 81.6709 26.6302 81.5532C26.9317 81.3862 27.2837 81.3345 27.6205 81.4077C27.9573 81.4809 28.256 81.6741 28.461 81.9512C28.9461 82.5542 29.2852 83.2611 29.452 84.0168C29.6072 84.574 29.7266 85.1471 29.85 85.7123C30.0872 86.75 30.0307 87.8332 29.6868 88.8406C29.4643 89.4956 29.0479 90.0675 28.4928 90.4803C28.0107 90.8296 27.4225 91.0011 26.8282 90.9656C26.2339 90.93 25.6702 90.6896 25.2332 90.2853Z" fill="#FF9BBC"/>
<path d="M22.9925 96.9638C22.17 96.7502 21.4346 96.2854 20.8888 95.634C20.3431 94.9827 20.0141 94.1773 19.9478 93.3301C19.7597 92.2437 19.8983 91.1259 20.3458 90.1182C20.3907 90.0212 20.4412 89.9268 20.497 89.8356C21.0622 88.9441 21.8423 88.7411 22.7696 89.2546C23.4327 89.6501 24.0104 90.1737 24.4691 90.7948C25.1432 91.5456 25.6409 92.4377 25.9257 93.4057C26.083 94.0112 26.083 94.6469 25.9257 95.2524C25.8573 95.5641 25.725 95.8582 25.5371 96.1162C25.3493 96.3742 25.11 96.5904 24.8343 96.7512C24.5587 96.9121 24.2527 97.014 23.9357 97.0506C23.6187 97.0872 23.2975 97.0576 22.9925 96.9638Z" fill="#FF9BBC"/>
<path d="M40.7154 97.5568C40.7552 97.708 40.7831 97.8633 40.8269 98.0623C40.9861 99.5787 40.3333 100.741 39.0478 101.561C37.7268 102.374 36.1445 102.65 34.626 102.333C33.6298 102.147 32.6002 102.296 31.6967 102.755C30.3564 103.476 28.7956 103.671 27.3187 103.304C26.702 103.18 26.1297 102.893 25.6614 102.474C25.1931 102.054 24.8459 101.516 24.6561 100.916C24.5019 100.429 24.4492 99.9159 24.5012 99.408C24.5532 98.9 24.7089 98.4082 24.9586 97.9628C25.2297 97.4499 25.5596 96.9704 25.9417 96.5339C26.7747 95.5886 27.447 94.513 27.9317 93.3499C28.159 92.7884 28.4991 92.2795 28.9308 91.8545C29.3625 91.4295 29.8768 91.0974 30.4418 90.8789C31.0068 90.6603 31.6106 90.5599 32.2159 90.5838C32.8213 90.6076 33.4153 90.7553 33.9614 91.0177C34.6795 91.3513 35.2922 91.8759 35.7325 92.534C36.3131 93.3927 37.1036 94.0887 38.0289 94.5559C39.1863 95.0941 40.1025 96.043 40.6 97.2185C40.6459 97.3286 40.6844 97.4416 40.7154 97.5568Z" fill="#FF9BBC"/>
<path d="M43.2029 89.8237C43.4417 91.6187 42.9482 93.0077 41.6706 94.0504C41.3986 94.302 41.0719 94.4868 40.7162 94.5903C40.3604 94.6938 39.9855 94.7131 39.621 94.6467C39.2566 94.5803 38.9126 94.43 38.6162 94.2077C38.3198 93.9854 38.0793 93.6972 37.9135 93.3659C37.6388 92.8662 37.4873 92.3081 37.4717 91.7381C37.4279 90.3769 37.9254 89.159 38.5383 87.9849C38.7625 87.567 39.0423 87.1814 39.3702 86.8387C39.5032 86.6748 39.6696 86.5411 39.8583 86.4466C40.0471 86.352 40.2538 86.2989 40.4648 86.2906C40.6757 86.2823 40.886 86.3191 41.0815 86.3985C41.2771 86.4779 41.4535 86.5981 41.599 86.7511C42.22 87.3146 42.6779 88.035 42.9243 88.8366C43.0556 89.1948 43.1392 89.5889 43.2029 89.8237Z" fill="#FF9BBC"/>
<path d="M31.2002 78.604L31.1475 78.6568L31.2002 78.604Z" fill="black"/>
<path d="M33.7106 126.722C33.6828 126.647 33.6629 126.571 33.631 126.472C33.5493 126.132 33.5683 125.776 33.6856 125.448C33.8029 125.119 34.0136 124.832 34.2917 124.621C34.5759 124.392 34.9042 124.224 35.2562 124.127C35.6081 124.031 35.9762 124.008 36.3374 124.06C36.8165 124.121 37.3017 124.007 37.7026 123.737C37.9958 123.53 38.3277 123.385 38.6785 123.309C39.0293 123.233 39.3917 123.228 39.7443 123.295C40.052 123.344 40.3417 123.472 40.5841 123.668C40.8265 123.863 41.0132 124.119 41.1254 124.41C41.3203 124.898 41.3203 125.442 41.1254 125.93C41.0351 126.205 40.9006 126.463 40.7274 126.694C40.0149 127.546 39.4219 127.805 38.1205 128.135C36.819 128.465 36.1663 128.493 35.1156 128.163C34.8164 128.054 34.5423 127.886 34.3098 127.668C34.0773 127.451 33.8911 127.189 33.7624 126.897C33.7412 126.84 33.7239 126.782 33.7106 126.722Z" fill="#FF9BBC"/>
<path d="M64.6392 138.817L69.9326 121.162C69.9326 121.162 55.8155 116.223 52.2853 109.075C48.755 101.927 51.6684 65.1357 55.1986 54.4574C58.7289 43.779 73.2002 30.1038 92.6982 25.3397C112.196 20.5756 132.315 29.9167 139.813 39.3573C147.312 48.7978 160.151 80.0607 160.947 88.9719C161.743 97.8832 147.447 108.454 147.447 108.454L156.669 138.821L64.6392 138.817Z" fill="#DDAF89"/>
<g opacity="0.1">
<path d="M69.9326 121.162C72.0977 121.413 74.1792 122.006 76.3006 122.468C77.5622 122.722 78.8478 122.866 80.1293 123.148C76.623 123.753 73.0688 122.706 69.9366 121.158L69.9326 121.162Z" fill="black"/>
<path d="M138.639 113.863C140.402 112.593 142.333 111.63 144.211 110.548C145.326 109.887 146.349 109.147 147.459 108.45C145.362 111.316 141.979 112.884 138.651 113.863H138.639Z" fill="black"/>
</g>
<path opacity="0.45" d="M137.521 138.817C137.521 138.817 130.508 124.119 125.346 121.162C120.184 118.205 95.8384 119.733 90.7997 126.678C86.7242 132.294 84.4317 138.817 84.4317 138.817H137.521Z" fill="white"/>
<path opacity="0.45" d="M107.93 118.595C88.1769 121.063 77.7533 104.518 79.007 94.8583C80.5234 83.181 97.1837 78.3254 95.5479 65.2073C94.5608 57.3189 88.4714 55.7229 87.9341 51.4246C87.1063 44.8058 93.335 33.1882 97.2035 32.7186C101.072 32.2489 109.963 41.9681 110.791 48.5868C111.329 52.8852 105.816 55.9299 106.811 63.8183C108.451 76.9324 125.796 77.5453 130.138 88.4943C133.728 97.5289 127.686 116.127 107.93 118.595Z" fill="white"/>
<path d="M79.9184 71.7822C71.7196 72.8051 73.2997 85.5451 81.5104 84.5182C89.7211 83.4914 88.1252 70.7554 79.9184 71.7822Z" fill="#263238"/>
<path d="M72.9813 66.2661C73.2121 63.0064 77.5583 60.9289 80.1214 63.0821C78.9274 63.3049 77.8209 63.4164 76.7344 63.8781C75.3374 64.4392 74.2429 65.3069 72.9813 66.2422V66.2661Z" fill="#263238"/>
<path d="M128.952 59.2572C127.499 58.6642 126.222 58.0911 124.733 57.8881C123.563 57.701 122.449 57.8642 121.251 57.9398C123.221 55.2056 127.909 56.1528 128.952 59.2572Z" fill="#263238"/>
<path d="M123.448 66.3456C115.253 67.3685 116.829 80.1084 125.04 79.0816C133.25 78.0548 131.654 65.3188 123.448 66.3456Z" fill="#263238"/>
<path d="M110.425 93.2783C110.067 95.7498 109.466 99.3159 105.522 99.8094C101.578 100.303 100.117 96.9916 99.1537 94.6872C99.1537 94.6872 101.199 95.4115 102.425 94.3688C103.651 93.326 103.802 86.0944 103.802 86.0944C103.802 86.0944 105.725 93.0673 107.169 93.7797C108.614 94.4922 110.425 93.2783 110.425 93.2783Z" fill="#D16283"/>
<path d="M105.215 97.3339C104.217 93.7603 103.754 90.0585 103.842 86.3491C104.839 89.923 105.302 93.6247 105.215 97.3339Z" fill="#263238"/>
<path d="M112.208 80.0169C112.328 80.98 111.456 82.1024 111.086 82.5999C110.31 83.6188 108.642 84.1481 108.085 83.6227C107.436 83.0178 109.171 82.4606 108.945 81.8278C108.777 81.3542 108.149 80.6338 107.289 80.9044C106.429 81.1751 107.062 83.5591 106.764 84.359C106.536 84.9411 106.158 85.4524 105.669 85.8411C105.18 86.2298 104.596 86.482 103.978 86.5719H103.89C103.268 86.638 102.639 86.5381 102.068 86.2822C101.496 86.0263 101.003 85.6237 100.638 85.1152C100.153 84.4148 100.189 81.9312 99.2811 81.8954C98.3737 81.8596 97.9478 82.6914 97.9001 83.1969C97.8364 83.8655 99.6552 83.9929 99.1776 84.7252C98.7796 85.37 97.0165 85.2665 96.0175 84.4705C95.5359 84.0725 94.4255 83.2048 94.2942 82.2457C94.131 80.9601 96.5469 77.9473 102.716 77.1791H102.803C108.968 76.407 112.049 78.7313 112.208 80.0169Z" fill="#263238"/>
<path d="M93.339 89.0117C93.819 89.7043 94.3626 90.3506 94.9628 90.942C96.1011 92.0962 97.307 93.2345 98.8035 93.8633C99.8065 94.2613 100.945 94.6593 101.888 94.126C102.585 93.4852 102.736 92.0524 102.979 91.0773C103.289 89.4495 103.52 87.7819 103.806 86.1063C104.085 88.3112 104.36 93.342 102.708 94.9937C101.414 95.9847 99.5955 95.4912 98.3299 94.8464C96.7379 94.0504 95.5439 92.6972 94.5449 91.2644C94.0391 90.5773 93.6368 89.8196 93.3509 89.0157L93.339 89.0117Z" fill="#263238"/>
<path d="M114.672 86.3491C114.588 87.2017 114.379 88.0372 114.051 88.8286C113.438 90.4445 112.598 92.0644 111.265 93.2066C110.206 94.1419 108.562 95.0693 107.07 94.4245C105.08 93.2305 104.089 88.2874 103.814 86.0665C104.507 87.6227 105.14 89.1789 105.84 90.6793C106.314 91.5669 106.815 92.9201 107.651 93.3658C108.69 93.6365 109.701 92.9877 110.572 92.3549C111.874 91.3758 112.757 89.9669 113.577 88.5779C114.016 87.8639 114.385 87.1096 114.68 86.3252L114.672 86.3491Z" fill="#263238"/>
<path d="M114.226 104.426C112.236 105.425 110.103 106.237 108.021 106.416C107.854 106.416 107.794 106.719 107.938 106.814C108.336 107.097 109.43 107.889 109.601 108.008C109.474 108.032 109.347 108.056 109.203 108.072C108.774 108.13 108.342 108.165 107.91 108.175C107.044 108.196 106.177 108.135 105.323 107.992C104.467 107.849 103.628 107.619 102.819 107.304C101.995 106.989 101.227 106.56 100.431 106.162C100.396 106.162 100.364 106.221 100.396 106.249C101.097 106.874 101.887 107.393 102.74 107.789C103.531 108.178 104.36 108.48 105.215 108.693C106.072 108.905 106.951 109.017 107.834 109.027C108.294 109.03 108.754 109.008 109.211 108.964C109.671 108.953 110.123 108.848 110.541 108.657C110.819 108.506 110.704 108.024 110.481 107.933C110.346 107.877 108.789 106.906 108.562 106.759C109.472 106.656 110.368 106.454 111.233 106.154C112.311 105.765 113.334 105.239 114.278 104.589C114.357 104.55 114.302 104.383 114.226 104.426Z" fill="#263238"/>
<path opacity="0.1" d="M64.6392 138.817L69.9326 121.162C69.9326 121.162 55.8155 116.223 52.2853 109.075C49.4754 103.383 50.749 78.9144 53.1649 63.7825C53.0813 69.7525 52.8186 99.6303 57.8453 106.735C62.8721 113.839 72.8022 118.277 85.773 121.162C85.773 121.162 80.1214 126.941 80.1214 131.574C80.1214 134.698 84.591 138.817 103.249 138.817H64.6392Z" fill="black"/>
<path opacity="0.1" d="M147.869 109.835C147.869 109.835 149.696 127.514 148.991 131.749C148.287 135.984 133.286 138.817 133.286 138.817H156.669L147.869 109.835Z" fill="black"/>
<path d="M81.8646 29.0769C80.2129 29.5744 77.6538 28.3844 76.4638 27.1068C75.2738 25.8292 73.1086 21.3239 73.1086 21.3239C73.1086 21.3239 72.448 25.471 72.8022 27.4133C72.9823 28.5207 73.4035 29.575 74.036 30.5017C72.3748 29.623 70.9286 28.3875 69.8013 26.8839C68.2093 24.5914 67.2421 23.091 65.0253 22.693C62.8084 22.295 56.3767 31.5166 51.3062 34.6051C46.2357 37.6936 40.9582 39.2816 39.0398 42.2825C37.1215 45.2835 37.2767 59.3965 40.3652 67.8699C43.4537 76.3434 51.744 84.9839 55.4494 83.6626C59.1548 82.3412 56.926 72.646 62.5736 60.4711C66.9118 51.1181 72.9216 46.959 72.9216 46.959L81.8646 29.0769Z" fill="#DDAF89"/>
<path opacity="0.1" d="M71.7793 47.8784C69.8251 49.5659 65.7536 53.6255 62.5815 60.4711C56.9379 72.646 59.1667 82.3412 55.4613 83.6626C51.7559 84.984 43.4616 76.3394 40.3731 67.858C42.184 71.838 50.6853 79.6786 53.2564 77.7404C55.2464 76.2439 56.7031 65.9158 59.8314 60.093C62.884 54.4653 71.242 48.2605 71.7793 47.8784Z" fill="black"/>
<path d="M81.8646 29.0769C79.8746 29.5824 77.4667 28.4123 76.1374 26.9078C75.5009 26.0551 74.925 25.1587 74.4141 24.2253C73.8927 23.302 73.3952 22.3667 72.9136 21.4194L73.3116 21.3597C72.9653 24.3328 72.432 27.7277 74.2907 30.2988L75.1305 31.461L73.8728 30.8043C72.6788 30.1796 71.5821 29.3846 70.6171 28.4441C68.7465 26.6571 67.7635 23.5288 64.9098 23.1308C63.9307 23.298 63.1666 24.1776 62.4144 24.8223C59.6284 27.5247 57.0692 30.5933 54.1081 33.1803C50.1958 36.7146 44.771 38.016 40.7274 41.2557C39.788 41.999 39.157 43.0638 38.9563 44.2447C38.4907 46.7693 38.2972 49.3364 38.3792 51.9022C38.4946 57.0484 39.0796 62.2861 40.6836 67.1854C41.5291 69.6168 42.6735 71.9337 44.0905 74.0828C45.965 77.0519 51.4853 84.1562 55.3101 83.3363C55.7718 83.185 56.1379 82.6676 56.4086 82.1224C57.2046 80.3791 57.5468 78.4369 57.9488 76.5504C59.513 68.9884 60.7866 60.7577 65.8809 54.6246C62.6293 58.7598 61.105 63.9019 59.9786 68.9526C59.4294 71.5037 59.0155 74.0788 58.5458 76.6539C58.1478 78.5921 57.8533 80.5821 57.0294 82.4129C55.9946 84.9522 53.3957 84.2716 51.5171 83.1413C48.0983 81.0358 45.4755 77.8996 43.2427 74.6241C38.7055 67.9974 37.4478 59.7787 37.225 51.9102C37.1971 50.5928 37.225 49.2715 37.2886 47.9302C37.4598 45.8964 37.5314 43.8149 38.5543 41.9323C39.7045 40.1811 41.599 39.1065 43.3303 38.1474C46.2317 36.5991 49.2127 35.3614 51.8913 33.5345C53.4325 32.3691 54.8791 31.0836 56.2175 29.6899C58.0603 27.8551 59.7995 25.8969 61.7418 24.098C62.5139 23.4214 63.278 22.689 64.2929 22.3109C64.6009 22.1993 64.9359 22.1854 65.2521 22.2711L65.5108 22.3308C68.2968 23.0273 69.3117 26.0123 71.1266 27.9028C72.0203 28.8069 73.0405 29.5764 74.1554 30.1874L73.7375 30.6928C73.2748 30.0027 72.9242 29.2438 72.6987 28.4441C71.9823 25.8691 72.6191 23.1587 72.9773 20.5836C73.9723 22.6811 74.9673 24.8462 76.2966 26.7447C77.5543 28.2332 79.8348 29.4829 81.8328 29.061L81.8646 29.0769Z" fill="#263238"/>
<path d="M110.357 24.5595C112.077 24.6949 114.337 22.9675 115.213 21.479C116.089 19.9905 117.251 15.111 117.251 15.111C117.251 15.111 118.783 19.0234 118.843 20.9935C118.903 22.1133 118.717 23.2328 118.298 24.273C119.731 23.0586 120.879 21.5435 121.661 19.8353C122.723 17.2562 123.348 15.5807 125.418 14.721C127.487 13.8613 135.766 21.487 141.37 23.4252C146.973 25.3635 152.514 25.7774 154.993 28.3007C157.473 30.8241 160.394 44.6506 159.2 53.5857C158.006 62.5208 151.722 72.7374 147.821 72.236C143.921 71.7345 144.024 61.7885 135.905 51.1022C129.668 42.8914 122.906 40.1134 122.906 40.1134L110.357 24.5595Z" fill="#DDAF89"/>
<path opacity="0.1" d="M159.2 53.5817C158.006 62.5168 151.741 72.7375 147.837 72.24C144.299 71.7863 144.06 63.5516 137.975 54.0434C137.974 54.0342 137.974 54.0248 137.975 54.0156C141.326 57.0165 145.561 67.6908 148.561 68.0451C151.562 68.3993 156.195 60.1209 157.516 54.5131C158.312 51.134 158.691 40.0139 158.71 39.7632C159.423 44.376 159.733 49.4823 159.2 53.5817Z" fill="black"/>
<path d="M110.357 24.5596C112.391 24.5596 114.365 22.8363 115.273 21.1129C116.172 18.9717 116.67 16.6474 117.195 14.3867C118.095 16.8225 119.297 19.3378 119.145 22.0044C119.1 22.8334 118.92 23.6494 118.612 24.4203L118.099 24.0223C119.055 23.1856 119.887 22.2166 120.57 21.1448C121.939 18.916 122.274 15.7797 124.861 14.5021C125.217 14.2806 125.637 14.1827 126.055 14.2235C127.125 14.3748 128.045 14.928 128.932 15.4175C131.225 16.7588 133.33 18.303 135.523 19.7C137.128 20.7775 138.817 21.7238 140.574 22.5298C143.579 23.7238 146.755 24.3128 149.919 25.2083C151.837 25.7695 153.899 26.4023 155.415 27.8829C156.816 29.4988 157.329 31.5166 157.934 33.4549C158.293 34.7325 158.587 36.022 158.842 37.3155C160.306 45.0486 160.832 53.3469 157.819 60.7975C156.342 64.475 154.448 68.1008 151.562 70.8868C149.97 72.3713 147.582 73.633 146.018 71.3564C144.824 69.7406 144.1 67.866 143.308 66.0551C142.297 63.6392 141.346 61.2114 140.259 58.8393C138.094 54.131 135.483 49.4346 131.428 46.1033C137.72 51.0067 140.717 58.7558 143.865 65.8282C144.661 67.472 146.118 71.5236 147.897 71.8898C151.797 71.8898 155.702 63.7029 156.876 60.4512C157.801 58.0488 158.424 55.5408 158.73 52.9848C159.248 47.8545 158.703 42.6129 157.712 37.5623C157.244 35.0375 156.506 32.5703 155.511 30.2032C155.062 29.0935 154.218 28.189 153.142 27.664C148.498 25.3636 142.922 25.2521 138.345 22.6373C134.898 20.7507 131.746 18.2991 128.443 16.2693C127.571 15.7956 126.64 15.1031 125.657 15.1509C122.954 16.1499 122.664 19.4135 121.215 21.5587C120.474 22.684 119.573 23.695 118.54 24.5596L117.454 25.475L118.023 24.1536C119.289 21.2403 118.043 18.0483 117.072 15.2146L117.47 15.1867C117.207 16.2135 116.916 17.2324 116.606 18.2473C116.306 19.2685 115.935 20.2673 115.496 21.2363C114.521 22.9835 112.427 24.6511 110.365 24.5795L110.357 24.5596Z" fill="#263238"/>
<path d="M45.372 136.923C44.9462 139.737 47.9511 143.076 49.9371 143.41C51.9231 143.745 53.4435 142.284 53.4435 142.284C53.4435 142.284 55.2305 145.07 58.6175 145.392C59.5655 145.507 60.5273 145.386 61.417 145.039C62.3066 144.691 63.0964 144.129 63.7158 143.402C63.7158 143.402 65.7058 144.923 69.2082 144.923C72.7106 144.923 74.426 141.488 74.426 141.488C74.426 141.488 76.814 142.153 78.5294 140.764C80.2448 139.375 80.6468 135.932 79.4567 133.285C78.2667 130.639 71.242 122.384 62.7407 122.277C54.2395 122.169 46.0208 132.557 45.372 136.923Z" fill="#DDAF89"/>
<path d="M54.128 134.758C53.4912 137.281 53.1131 139.785 53.5549 142.372C52.0027 140.119 52.4405 136.8 54.128 134.758Z" fill="#263238"/>
<path d="M72.8658 133.484C74.9195 135.403 75.9105 138.885 74.3544 141.381C74.7524 138.595 73.9325 136.012 72.8658 133.484Z" fill="#263238"/>
<path d="M63.5407 135.12C64.0502 137.866 63.9626 140.608 63.7517 143.39C62.8641 140.744 62.9557 137.818 63.5407 135.12Z" fill="#263238"/>
<path opacity="0.1" d="M74.0758 142.045C73.423 143.016 71.7992 144.931 69.1804 144.931C65.674 144.931 63.688 143.41 63.688 143.41C63.0692 144.137 62.28 144.699 61.3911 145.046C60.5021 145.393 59.541 145.515 58.5936 145.4C55.2185 145.07 53.4196 142.288 53.4196 142.288C53.4196 142.288 51.8992 143.745 49.9132 143.414C47.9272 143.084 44.9183 139.745 45.3481 136.931C45.7461 134.228 49.0535 129.226 53.5191 125.827C49.1888 129.99 47.9152 133.735 48.4008 136.067C48.8863 138.399 50.8724 140.525 53.1768 139.597C53.1768 139.597 56.0026 142.857 58.8244 143.41C59.6768 143.556 60.5513 143.503 61.3798 143.255C62.2082 143.007 62.9682 142.572 63.6004 141.981C63.6004 141.981 66.8879 144.135 69.5425 144.055C72.1972 143.975 74.0758 142.045 74.0758 142.045Z" fill="black"/>
<path d="M132.06 138.817H167.395C167.395 138.817 165.775 113.063 165.843 112.311C165.91 111.558 171.311 109.445 170.738 104.104C170.34 100.399 167.809 100.725 167.331 99.8373C166.854 98.9498 166.722 92.4863 163.427 91.6306C160.131 90.7749 160.143 92.749 158.862 92.5261C157.58 92.3032 157.835 90.0107 154.703 90.4008C151.001 90.8585 149.954 94.5837 149.131 95.336C148.307 96.0882 146.484 94.8106 143.702 97.919C141.047 100.888 144.562 106.786 144.1 108.076C143.821 108.852 132.06 138.817 132.06 138.817Z" fill="#DDAF89"/>
<path opacity="0.2" d="M154.352 132.732C153.493 130.579 152.836 128.33 152.812 126.165C152.812 125.994 152.522 125.91 152.414 126.05C152.092 126.428 151.176 127.494 151.045 127.661C151.045 127.526 151.017 127.395 151.013 127.263C150.989 126.815 150.989 126.366 151.013 125.918C151.062 125.025 151.195 124.139 151.411 123.272C151.632 122.402 151.94 121.556 152.331 120.748C152.729 119.928 153.238 119.156 153.712 118.36C153.735 118.324 153.66 118.285 153.628 118.316C152.924 118.985 152.322 119.754 151.841 120.597C151.374 121.379 150.991 122.209 150.699 123.073C150.406 123.938 150.215 124.834 150.13 125.743C150.086 126.215 150.07 126.69 150.082 127.164C150.054 127.638 150.122 128.113 150.281 128.561C150.412 128.859 150.918 128.784 151.033 128.561C151.101 128.43 152.227 126.905 152.41 126.686C152.437 127.627 152.571 128.562 152.808 129.472C153.116 130.616 153.569 131.716 154.157 132.744C154.213 132.863 154.388 132.82 154.352 132.732Z" fill="black"/>
<path d="M158.539 99.4593C158.579 99.0374 158.675 98.6195 158.742 98.1976C158.976 97.1907 159.336 96.2172 159.813 95.3002C159.955 95.0522 160.122 94.8189 160.31 94.6037C160.547 94.2961 160.894 94.0931 161.277 94.0381C161.661 93.9831 162.051 94.0803 162.364 94.3091C162.913 94.659 163.376 95.1267 163.721 95.6783C164.517 96.8723 165.047 98.1498 164.947 99.5946C164.921 100.295 164.729 100.98 164.387 101.592C164.045 102.204 163.563 102.727 162.981 103.117C162.677 103.341 162.329 103.498 161.959 103.575C161.589 103.651 161.207 103.647 160.839 103.563C160.471 103.478 160.126 103.315 159.827 103.084C159.529 102.853 159.283 102.56 159.108 102.225C158.622 101.39 158.422 100.419 158.539 99.4593Z" fill="#D16283"/>
<path d="M151.188 100.526C150.785 99.8386 150.572 99.0562 150.572 98.2593C150.572 97.4624 150.785 96.6799 151.188 95.9926C151.963 94.603 153.214 93.5401 154.711 92.9997C154.98 92.9034 155.261 92.8445 155.546 92.8246C155.889 92.7699 156.239 92.842 156.533 93.0274C156.826 93.2128 157.041 93.4987 157.138 93.8315C157.38 94.5661 157.45 95.346 157.345 96.112C157.298 96.6891 157.21 97.2662 157.138 97.8433C157 98.8973 156.571 99.8921 155.901 100.717C155.462 101.255 154.871 101.648 154.205 101.843C153.628 102.01 153.01 101.969 152.459 101.728C151.908 101.488 151.459 101.063 151.188 100.526Z" fill="#D16283"/>
<path d="M146.77 106.014C146.155 105.579 145.671 104.983 145.37 104.292C145.069 103.601 144.963 102.841 145.063 102.094C145.089 101.916 145.125 101.739 145.171 101.565C145.377 100.481 145.899 99.4831 146.671 98.6951C146.747 98.6195 146.828 98.549 146.914 98.4841C147.754 97.8434 148.554 97.923 149.246 98.7269C149.731 99.3281 150.092 100.019 150.309 100.761C150.68 101.7 150.836 102.71 150.766 103.718C150.704 104.34 150.482 104.935 150.122 105.445C149.948 105.713 149.72 105.942 149.453 106.118C149.186 106.294 148.886 106.412 148.571 106.465C148.256 106.519 147.933 106.507 147.623 106.429C147.313 106.351 147.023 106.21 146.77 106.014Z" fill="#D16283"/>
<path d="M163.18 112.717C163.18 112.872 163.136 113.027 163.108 113.23C162.734 114.707 161.719 115.57 160.227 115.893C158.708 116.201 157.128 115.917 155.813 115.097C154.943 114.577 153.926 114.359 152.92 114.476C151.411 114.689 149.876 114.331 148.617 113.473C148.083 113.144 147.646 112.678 147.352 112.124C147.057 111.57 146.916 110.948 146.942 110.321C146.967 109.811 147.096 109.312 147.321 108.854C147.546 108.396 147.863 107.989 148.251 107.658C148.684 107.27 149.161 106.935 149.672 106.659C150.786 106.063 151.794 105.289 152.657 104.367C153.065 103.919 153.561 103.559 154.113 103.31C154.666 103.061 155.263 102.927 155.869 102.918C156.475 102.909 157.077 103.024 157.636 103.256C158.196 103.488 158.703 103.832 159.124 104.267C159.676 104.824 160.065 105.52 160.251 106.281C160.498 107.287 160.998 108.213 161.703 108.971C162.601 109.879 163.131 111.087 163.192 112.362C163.195 112.481 163.191 112.599 163.18 112.717Z" fill="#D16283"/>
<path d="M168.207 106.325C167.809 108.092 166.865 109.214 165.305 109.759C164.963 109.901 164.591 109.961 164.221 109.935C163.851 109.908 163.493 109.796 163.174 109.607C162.855 109.418 162.584 109.157 162.383 108.845C162.183 108.533 162.058 108.178 162.018 107.809C161.932 107.241 161.985 106.661 162.173 106.118C162.607 104.82 163.494 103.849 164.478 102.962C164.837 102.643 165.239 102.375 165.672 102.166C165.853 102.059 166.055 101.991 166.264 101.968C166.473 101.945 166.685 101.967 166.886 102.032C167.086 102.097 167.27 102.204 167.426 102.346C167.581 102.488 167.705 102.661 167.789 102.854C168.178 103.599 168.358 104.435 168.31 105.274C168.286 105.668 168.227 106.066 168.207 106.325Z" fill="#D16283"/>
<path opacity="0.1" d="M160.764 91.6584C160.39 91.8574 159.594 92.7211 158.909 92.6893C158.225 92.6574 157.154 91.1689 156.724 90.9381C156.295 90.7072 154.703 90.4008 152.971 91.4674C151.24 92.5341 150.444 94.7748 149.441 95.718C148.438 96.6613 147.897 96.2474 146.95 96.514C146.002 96.7807 144.41 97.9269 144.06 100.267C143.71 102.607 145.955 107.941 145.867 108.47C145.779 108.999 139.009 129.667 140.267 133.44C141.664 137.639 157.361 138.758 157.361 138.758L157.25 138.837H132.06C132.06 138.837 143.821 108.88 144.104 108.096C144.566 106.806 141.051 100.908 143.706 97.9389C146.492 94.8305 148.311 96.1081 149.131 95.3559C149.951 94.6036 150.997 90.8784 154.703 90.4207C157.835 90.0227 157.58 92.3231 158.862 92.546C159.622 92.6574 159.944 92.0206 160.764 91.6584Z" fill="black"/>
<path d="M160.84 91.6226L160.772 91.6506L160.84 91.6226Z" fill="black"/>
</svg>
