<svg width="66" height="66" viewBox="0 0 66 66" fill="none" xmlns="http://www.w3.org/2000/svg">
<path d="M21.7056 54.3233C20.4799 54.3233 19.216 54.0402 17.8671 53.4888C16.7799 53.0438 16.2582 51.8001 16.7024 50.7109C17.1465 49.6216 18.3877 49.0989 19.4749 49.5439C21.4714 50.3607 23.2872 50.6801 26.9167 46.8346C27.7239 45.9794 29.0693 45.9421 29.9228 46.7503C30.7758 47.5591 30.8136 48.9077 30.0064 49.7624C27.0859 52.8571 24.4957 54.3233 21.7056 54.3233Z" fill="#495059"/>
<path d="M27.7386 60.7898C26.3639 60.7898 25.1998 59.7293 25.0915 58.3328C24.8407 55.1033 25.7436 53.509 26.5402 52.1024C26.8237 51.6014 27.0916 51.1287 27.3363 50.5323C27.8947 49.1721 29.4476 48.5233 30.8057 49.0828C32.1632 49.6423 32.8108 51.1988 32.2523 52.559C31.8802 53.4656 31.4829 54.1669 31.1637 54.731C30.5292 55.851 30.2669 56.3147 30.3918 57.9196C30.5056 59.3862 29.4114 60.6672 27.9476 60.7812C27.8776 60.7873 27.8076 60.7898 27.7386 60.7898Z" fill="#DDAF89"/>
<path d="M41.2057 63.4537C41.0289 63.4537 40.8497 63.436 40.6699 63.3992C39.2318 63.1041 38.3043 61.6969 38.5988 60.256C38.6653 59.9286 38.7328 59.6102 38.7982 59.2984C39.3864 56.5069 39.7414 54.8218 38.7716 52.6226C38.1779 51.277 38.7857 49.7044 40.1281 49.11C41.471 48.5157 43.0406 49.1242 43.6338 50.4692C45.2974 54.2401 44.667 57.2319 43.9998 60.3993C43.9364 60.7 43.8714 61.0078 43.807 61.3241C43.5492 62.5844 42.4419 63.4537 41.2057 63.4537Z" fill="#DDAF89"/>
<path d="M22.4991 46.6803C19.066 46.6803 15.6736 45.2141 13.1232 42.5578C12.1055 41.4973 12.1383 39.8117 13.1962 38.792C14.2542 37.7724 15.9365 37.8052 16.9546 38.8652C17.642 39.5811 20.1582 41.8706 23.6558 41.2526C25.1009 40.9983 26.4801 41.9645 26.7349 43.413C26.9897 44.8615 26.0244 46.2428 24.5788 46.4981C23.8884 46.6202 23.193 46.6803 22.4991 46.6803Z" fill="#DDAF89"/>
<path d="M45.6483 42.7349C44.3824 42.7349 43.2616 41.8257 43.034 40.5336C42.7792 39.0846 43.7445 37.7037 45.1901 37.4479C48.6877 36.8304 50.2703 33.8169 50.6722 32.9077C51.2663 31.5632 52.8369 30.9557 54.1788 31.5516C55.5208 32.1469 56.127 33.72 55.5328 35.0651C53.7417 39.1159 50.2205 41.968 46.1131 42.6935C45.957 42.7212 45.8019 42.7349 45.6483 42.7349Z" fill="#DDAF89"/>
<path d="M49.6928 41.4523C49.6913 40.7253 49.6278 39.9948 49.4999 39.2657C49.2925 38.0887 48.9219 36.9712 48.4143 35.9298C47.594 36.619 46.5341 37.2108 45.1896 37.4484C43.744 37.7037 42.7787 39.0851 43.0335 40.5336C43.2611 41.8257 44.3825 42.7348 45.6484 42.7348C45.8014 42.7348 45.9565 42.7212 46.1126 42.694C47.3725 42.4715 48.5764 42.0482 49.6928 41.4523Z" fill="#D1A582"/>
<path d="M43.6345 50.4692C43.0409 49.1236 41.4718 48.5151 40.1284 49.11C38.7859 49.7043 38.1787 51.2769 38.7718 52.6225C39.1052 53.3778 39.2824 54.073 39.3469 54.7733C41.1475 54.2001 42.8077 53.3233 44.2559 52.1876C44.0993 51.6316 43.8949 51.06 43.6345 50.4692Z" fill="#D1A582"/>
<path d="M32.2521 52.5589C32.8105 51.1987 32.1629 49.6422 30.8054 49.0827C29.4473 48.5232 27.8944 49.1725 27.3355 50.5327C27.0908 51.1286 26.8229 51.6018 26.5394 52.1023C26.3647 52.4111 26.1849 52.7289 26.0132 53.071C27.4724 54.0352 29.1356 54.747 30.9267 55.1537C30.9987 55.0215 31.0773 54.8828 31.1634 54.7309C31.4826 54.1673 31.8799 53.4655 32.2521 52.5589Z" fill="#D1A582"/>
<path d="M26.7352 43.413C26.4804 41.9645 25.1012 40.9983 23.6561 41.2526C22.3111 41.4902 21.1122 41.2975 20.1056 40.9297C19.9842 42.0785 20.0185 43.2555 20.2264 44.4377C20.3553 45.1697 20.5497 45.8776 20.798 46.5597C21.3614 46.6389 21.9299 46.6803 22.4994 46.6803C23.1933 46.6803 23.8887 46.6202 24.579 46.4981C26.0247 46.2428 26.99 44.8615 26.7352 43.413Z" fill="#D1A582"/>
<path d="M47.622 39.5992C46.4981 33.2134 39.8745 29.0456 32.8264 30.2902C25.7789 31.5354 20.9766 37.7209 22.1 44.1072C23.2239 50.4929 29.8475 54.6608 36.8951 53.4162C43.9426 52.171 48.7454 45.9855 47.622 39.5992Z" fill="#DDAF89"/>
<path d="M45.0819 32.3916C42.4122 35.5444 38.6703 37.8173 34.2895 38.5912C29.9082 39.3657 25.6161 38.5115 22.0314 36.4641C21.5182 37.4444 21.129 38.4817 20.8848 39.5559C20.5519 41.0195 21.3581 42.5053 22.762 43.029C26.6272 44.4704 30.9143 44.9316 35.2699 44.1622C39.6251 43.3928 43.4963 41.4902 46.6364 38.8112C47.7769 37.838 48.0271 36.1655 47.2149 34.9041C46.6182 33.9783 45.8987 33.1368 45.0819 32.3916Z" fill="#7F9AE6"/>
<path d="M28.309 38.6603C26.0768 38.3152 23.9524 37.5615 22.0314 36.4641C21.5183 37.4444 21.129 38.4817 20.8848 39.5558C20.552 41.0195 21.3576 42.5053 22.762 43.029C24.7716 43.7787 26.8961 44.26 29.0845 44.4442C28.0462 43.0376 27.8558 40.6835 28.309 38.6603Z" fill="#5E78BF"/>
<path d="M26.5514 21.5195C26.0539 21.6073 25.5252 21.5442 25.0362 21.3056L21.6474 19.6498C20.1635 18.9248 18.4036 19.3178 17.3673 20.6058L15.7036 22.6739C14.8441 23.7415 13.2836 23.9095 12.2176 23.0482C11.1516 22.1875 10.9844 20.624 11.8435 19.5559L13.5077 17.4879C14.7076 15.9965 16.396 14.9456 18.2621 14.5288C20.1282 14.1126 22.1021 14.3452 23.8207 15.1847L27.2095 16.8401C28.4402 17.4414 28.9513 18.9283 28.3511 20.1613C27.9895 20.9045 27.3062 21.3858 26.5514 21.5195Z" fill="#495059"/>
<path d="M35.7333 19.8975C34.9785 20.0307 34.1723 19.8123 33.5787 19.2381C32.5937 18.2851 32.5665 16.7125 33.5177 15.7256L36.1366 13.0087C37.465 11.6309 39.241 10.7364 41.1363 10.4876C43.0321 10.2399 44.9773 10.6486 46.6143 11.6389L48.8838 13.0118C50.0555 13.7206 50.4322 15.2478 49.7247 16.4218C49.0167 17.5964 47.493 17.9733 46.3208 17.2644L44.0513 15.8911C42.6384 15.0364 40.8503 15.27 39.7032 16.4597L37.0843 19.1771C36.7062 19.5686 36.2308 19.8092 35.7333 19.8975Z" fill="#495059"/>
<path d="M34.5513 40.082C46.9449 37.8924 51.5292 31.2175 48.3765 23.5154C44.9887 15.2387 38.2588 11.5698 29.7968 13.0647C21.3348 14.5596 16.2637 20.3137 15.9052 29.2524C15.5713 37.57 22.1581 42.2717 34.5513 40.082Z" fill="#DDAF89"/>
<path d="M38.9684 44.6126C38.9684 46.6151 37.348 48.2392 35.3489 48.2392C33.3499 48.2392 31.7295 46.6151 31.7295 44.6126C31.7295 42.6097 33.3499 40.9856 35.3489 40.9856C37.348 40.9856 38.9684 42.6097 38.9684 44.6126Z" fill="#F6E06A"/>
<path d="M25.4693 27.2035C25.1788 25.5502 23.2628 24.5068 21.1907 24.8726C19.1181 25.2384 17.674 26.8756 17.965 28.5289C18.2561 30.1828 20.1715 31.2261 22.2441 30.8603C24.3162 30.494 25.7603 28.8569 25.4693 27.2035Z" fill="#FFDBDB"/>
<path d="M39.0246 24.806C39.3156 26.4599 41.2311 27.5032 43.3032 27.1374C45.3758 26.7711 46.8194 25.1345 46.5289 23.4806C46.2378 21.8273 44.3224 20.7839 42.2498 21.1497C40.1777 21.5155 38.7336 23.1527 39.0246 24.806Z" fill="#FFDBDB"/>
<path d="M33.7791 23.1835C32.4296 23.073 31.0741 23.3122 29.8435 23.8787C29.3339 24.1133 28.9265 24.525 28.6964 25.0371C28.3857 25.7293 28.776 26.5341 29.5111 26.7177L31.5495 27.2258C32.1567 27.3771 32.7997 27.2636 33.3184 26.9135L35.0606 25.7369C35.6886 25.3131 35.7807 24.4226 35.2525 23.8792C34.8617 23.4761 34.3381 23.2289 33.7791 23.1835Z" fill="#495059"/>
<path d="M56.3716 25.9149L58.4995 24.4003C59.411 23.7515 60.0389 22.7768 60.2534 21.6774C60.4961 20.4363 61.6532 19.5927 62.9065 19.7446C64.0445 19.8823 64.9282 20.8056 65.0184 21.9509C65.1292 23.359 64.606 24.7434 63.5919 25.7252L60.483 28.7342L56.3716 25.9149Z" fill="#F6E06A"/>
<path d="M56.8274 36.2763L53.065 34.904C52.3711 34.6513 51.9592 33.9348 52.0886 33.2063L53.4804 25.3897C53.5735 24.8655 54.1164 24.5527 54.6159 24.7348L62.1635 27.487C62.663 27.6691 62.8775 28.2584 62.6131 28.7201L58.6643 35.6043C58.2963 36.2461 57.5213 36.5296 56.8274 36.2763Z" fill="#D16283"/>
<path d="M52.4204 31.3457L59.6044 33.9657L60.5677 32.2861L52.7598 29.4386L52.4204 31.3457Z" fill="#B35470"/>
<path d="M8.96453 38.2743C9.15336 38.4635 9.4006 38.5584 9.64834 38.5584C9.89558 38.5584 10.1433 38.4635 10.3316 38.2743C10.7093 37.8959 10.7093 37.2829 10.3316 36.9045L9.16897 35.7391C8.79132 35.3612 8.17901 35.3612 7.80186 35.7391C7.4242 36.1175 7.4242 36.731 7.80186 37.1094L8.96453 38.2743ZM8.52595 33.9864C8.52595 34.5217 8.959 34.9551 9.49275 34.9551H11.1378C11.6716 34.9551 12.1046 34.5217 12.1046 33.9864C12.1046 33.4516 11.6716 33.0177 11.1378 33.0177H9.49275C8.959 33.0177 8.52595 33.4516 8.52595 33.9864ZM8.48516 32.5177C8.7324 32.5177 8.98014 32.4228 9.16847 32.2342L10.3316 31.0687C10.7093 30.6903 10.7093 30.0768 10.3316 29.6984C9.95399 29.3205 9.34219 29.3205 8.96453 29.6984L7.80136 30.8639C7.4237 31.2423 7.4237 31.8558 7.80136 32.2342C7.99018 32.4228 8.23793 32.5177 8.48516 32.5177ZM5.51578 22.9801L6.69759 20.6084C6.93627 20.1296 6.74191 19.5479 6.26455 19.3087C5.78619 19.0701 5.20611 19.2638 4.96743 19.7426L3.78562 22.1149C3.54744 22.5937 3.74131 23.1754 4.21917 23.4145C4.35764 23.4837 4.50518 23.5165 4.6502 23.5165C5.00469 23.5165 5.34659 23.3202 5.51578 22.9801ZM3.14008 29.6984C2.76242 29.3205 2.15012 29.3205 1.77246 29.6984C1.39531 30.0768 1.39531 30.6903 1.77246 31.0687L2.93564 32.2342C3.12447 32.4228 3.37171 32.5177 3.61945 32.5177C3.86669 32.5177 4.11393 32.4228 4.30276 32.2342C4.68041 31.8558 4.68041 31.2423 4.30276 30.8639L3.14008 29.6984ZM2.93564 35.7391L1.77246 36.9045C1.39531 37.2829 1.39531 37.8959 1.77246 38.2743C1.96129 38.4635 2.20903 38.5579 2.45627 38.5579C2.70351 38.5579 2.95125 38.4635 3.14008 38.2743L4.30326 37.1094C4.68041 36.7305 4.68041 36.1175 4.30326 35.7391C3.9256 35.3612 3.3133 35.3612 2.93564 35.7391ZM13.2708 11.873C13.4269 12.2418 13.7849 12.4628 14.1606 12.4628C14.287 12.4628 14.4154 12.4376 14.5387 12.3851C15.0302 12.1757 15.2588 11.6066 15.0498 11.1142L14.4264 9.64756C14.2175 9.15514 13.6495 8.92608 13.158 9.13546C12.6671 9.34484 12.4385 9.91395 12.6474 10.4064L13.2708 11.873ZM3.57866 33.9864C3.57866 33.4516 3.14562 33.0177 2.61187 33.0177H0.966798C0.433045 33.0177 0 33.4516 0 33.9864C0 34.5217 0.433045 34.9551 0.966798 34.9551H2.61187C3.14562 34.9551 3.57866 34.5217 3.57866 33.9864ZM29.0845 9.1067H30.8776C31.4114 9.1067 31.8444 8.67332 31.8444 8.13802C31.8444 7.60271 31.4114 7.16933 30.8776 7.16933H29.0845C28.5508 7.16933 28.1177 7.60271 28.1177 8.13802C28.1177 8.67332 28.5508 9.1067 29.0845 9.1067ZM37.2806 6.44937C37.5279 6.44937 37.7756 6.35452 37.9644 6.16583L39.2324 4.89543C39.6095 4.51653 39.6095 3.90353 39.2324 3.52514C38.8547 3.14725 38.2424 3.14725 37.8647 3.52514L36.5968 4.79553C36.2192 5.17393 36.2192 5.78743 36.5968 6.16583C36.7857 6.35452 37.0334 6.44937 37.2806 6.44937ZM34.6285 5.34849C35.1622 5.34849 35.5953 4.9146 35.5953 4.37981V2.58319C35.5953 2.04839 35.1622 1.6145 34.6285 1.6145C34.0942 1.6145 33.6617 2.04839 33.6617 2.58319V4.37981C33.6617 4.9146 34.0942 5.34849 34.6285 5.34849ZM37.4126 8.13802C37.4126 8.67332 37.8451 9.1067 38.3794 9.1067H40.1725C40.7062 9.1067 41.1393 8.67332 41.1393 8.13802C41.1393 7.60271 40.7062 7.16933 40.1725 7.16933H38.3794C37.8451 7.16933 37.4126 7.60271 37.4126 8.13802ZM56.3522 17.4526C56.4877 17.5176 56.6302 17.5484 56.7707 17.5484C57.1307 17.5484 57.4761 17.3461 57.6428 16.999L59.3987 13.3397C59.6298 12.8573 59.4274 12.2787 58.946 12.0466C58.4651 11.815 57.887 12.0178 57.6559 12.5001L55.9001 16.16C55.6684 16.6423 55.8714 17.221 56.3522 17.4526ZM31.2925 6.16583C31.4814 6.35452 31.7286 6.44937 31.9763 6.44937C32.2236 6.44937 32.4708 6.35452 32.6596 6.16583C33.0373 5.78693 33.0373 5.17393 32.6596 4.79553L31.3917 3.52514C31.0141 3.14725 30.4023 3.14725 30.0246 3.52514C29.647 3.90353 29.647 4.51704 30.0246 4.89543L31.2925 6.16583ZM60.1651 48.1474H58.5205C57.9862 48.1474 57.5537 48.5808 57.5537 49.1161C57.5537 49.6514 57.9862 50.0848 58.5205 50.0848H60.1651C60.6993 50.0848 61.1319 49.6514 61.1319 49.1161C61.1319 48.5813 60.6993 48.1474 60.1651 48.1474ZM57.5124 47.6469C57.7601 47.6469 58.0074 47.5526 58.1962 47.3634L59.3594 46.1979C59.737 45.82 59.737 45.2065 59.3594 44.8281C58.9817 44.4497 58.3694 44.4497 57.9918 44.8281L56.8286 45.9931C56.4514 46.3715 56.4514 46.985 56.8286 47.3634C57.0174 47.5526 57.2652 47.6469 57.5124 47.6469ZM58.1962 50.8688C57.8186 50.4904 57.2062 50.4904 56.8291 50.8688C56.4514 51.2472 56.4514 51.8607 56.8291 52.2386L57.9923 53.404C58.1806 53.5932 58.4283 53.6876 58.6756 53.6876C58.9228 53.6876 59.1706 53.5927 59.3594 53.404C59.737 53.0256 59.737 52.4121 59.3594 52.0337L58.1962 50.8688ZM65.982 21.8747C65.8566 20.2759 64.6113 18.9757 63.0221 18.783C61.2754 18.5726 59.6424 19.7613 59.3045 21.4913C59.1368 22.351 58.6519 23.1032 57.9394 23.6108L56.7269 24.4735L54.9469 23.8242C54.4398 23.6391 53.8809 23.688 53.4136 23.9579C52.9463 24.2273 52.6235 24.6875 52.5289 25.2197L51.5525 30.7044C50.771 31.0732 50.1446 31.7094 49.7881 32.5157C49.6325 32.8678 49.1451 33.8567 48.2462 34.7674C48.1924 34.6584 48.1335 34.5514 48.0685 34.4465C48.4436 33.9702 48.775 33.4728 49.0595 32.9551C50.6446 30.0723 50.7176 26.6813 49.271 23.1482C48.5529 21.3939 47.6833 19.8299 46.6777 18.4657C46.9768 18.5494 47.2855 18.5918 47.5962 18.5918C47.8731 18.5918 48.1526 18.558 48.4285 18.4899C49.3223 18.2684 50.0761 17.7119 50.552 16.9223C51.5344 15.2927 51.0097 13.1661 49.3832 12.1823L47.1138 10.8095C45.2905 9.70608 43.1227 9.251 41.0109 9.52697C40.037 9.65462 39.0914 9.93816 38.2092 10.3554L37.9644 10.1102C37.5868 9.73232 36.9745 9.73181 36.5968 10.1107C36.2494 10.4583 36.2227 11.0052 36.5148 11.3851C36.2856 11.5597 36.0641 11.7444 35.8511 11.9396C35.766 11.928 35.6809 11.9164 35.5953 11.9058V11.8962C35.5953 11.3609 35.1622 10.9275 34.6285 10.9275C34.1355 10.9275 33.7297 11.2968 33.6703 11.7746C33.2332 11.7676 32.7896 11.7761 32.3414 11.7994L32.6596 11.4805C33.0373 11.1021 33.0373 10.4886 32.6596 10.1102C32.2825 9.73232 31.6702 9.73232 31.2925 10.1102L30.0246 11.3806C29.8292 11.5764 29.7361 11.8352 29.7426 12.092C29.7049 12.0985 29.6671 12.1041 29.6293 12.1106C27.4389 12.4976 25.4661 13.1641 23.7268 14.0833C21.9388 13.3407 19.9432 13.1611 18.0519 13.5834C15.9728 14.0475 14.0916 15.2185 12.7547 16.8794L11.091 18.9475C9.8986 20.4298 10.1317 22.6073 11.6106 23.8025C12.2466 24.3161 13.0105 24.5659 13.7698 24.5659C14.4823 24.5659 15.1898 24.3449 15.784 23.9176C15.3031 25.5472 15.0156 27.315 14.939 29.2136C14.8751 30.8179 15.0539 32.3174 15.4713 33.671C15.6289 34.1821 16.1702 34.4687 16.6803 34.3108C17.1904 34.1529 17.4764 33.6105 17.3188 33.0994C16.9663 31.9567 16.8157 30.6752 16.8711 29.2913C17.0177 25.6476 17.9734 22.5664 19.6663 20.1255C19.7076 20.0776 19.7433 20.0261 19.7745 19.9717C20.9176 18.3713 22.3859 17.055 24.1574 16.0439C24.2117 16.0202 24.2636 15.991 24.3125 15.9572C25.949 15.0485 27.8362 14.3946 29.9647 14.0188C31.5166 13.7443 32.9985 13.653 34.4039 13.7357C34.4759 13.7529 34.5509 13.763 34.6285 13.763C34.6567 13.763 34.6844 13.7615 34.7121 13.7589C35.1451 13.7927 35.5706 13.8437 35.9886 13.9113C36.0107 13.9158 36.0334 13.9194 36.0555 13.9224C38.0893 14.2609 39.9393 14.9986 41.5763 16.1231C41.6217 16.1615 41.671 16.1953 41.7229 16.2251C44.1489 17.9384 46.1002 20.5075 47.4824 23.8832C48.7161 26.8978 48.6773 29.6353 47.3661 32.0202C47.0413 32.611 46.641 33.1716 46.1707 33.7018C46.1465 33.7265 46.1233 33.7523 46.1022 33.7785C43.7864 36.34 39.7913 38.1729 34.3838 39.1285C27.4374 40.3555 22.043 39.3712 19.1955 36.3561C18.8284 35.9676 18.2166 35.951 17.8284 36.3188C17.4406 36.6861 17.424 37.2996 17.7911 37.6881C18.4165 38.3505 19.13 38.9292 19.9251 39.4241C19.9004 39.5432 19.8818 39.6623 19.8687 39.7808C18.7131 39.2334 17.9175 38.4711 17.6511 38.1936C16.2654 36.7502 13.9662 36.7053 12.5261 38.0937C11.0854 39.4822 11.0406 41.7858 12.4264 43.2293C15.074 45.987 18.6617 47.5889 22.2978 47.6459C22.5002 48.0344 22.7238 48.4102 22.967 48.7725C21.7419 49.328 20.8697 49.0681 19.8405 48.6469C18.2614 48.0011 16.4522 48.7624 15.8077 50.3446C15.1626 51.9268 15.923 53.7395 17.5016 54.3853C18.992 54.9953 20.3672 55.292 21.7056 55.292C22.5979 55.292 23.468 55.1588 24.3316 54.8899C24.1176 55.8424 24.0169 56.9852 24.1272 58.4084C24.2732 60.2868 25.8593 61.7585 27.7385 61.7585C27.8337 61.7585 27.9294 61.7549 28.0225 61.7474C30.0156 61.592 31.5106 59.8413 31.3555 57.8449C31.2533 56.5351 31.3978 56.2803 32.0045 55.2092C32.1214 55.0034 32.2634 54.7511 32.4164 54.4651C33.071 54.5544 33.7382 54.6028 34.415 54.6028C35.2866 54.6028 36.1734 54.5266 37.0661 54.3687C37.4705 54.2976 37.8673 54.2098 38.2575 54.1084C38.5979 55.5493 38.3134 56.9115 37.8527 59.0986C37.7867 59.4119 37.7192 59.7323 37.6518 60.0618C37.4574 61.0123 37.6442 61.9815 38.178 62.7912C38.7117 63.601 39.5279 64.154 40.4766 64.3482C40.7173 64.3976 40.9625 64.4224 41.2057 64.4224C42.0769 64.4224 42.9203 64.106 43.5809 63.5314C43.9843 63.1807 44.0271 62.5687 43.6771 62.1651C43.3272 61.761 42.7164 61.7176 42.313 62.0688C41.9183 62.4123 41.3845 62.5561 40.8638 62.4502C40.4212 62.3594 40.0405 62.1016 39.7918 61.7237C39.5425 61.3463 39.4554 60.8937 39.5461 60.4502C39.6125 60.1253 39.6795 59.8085 39.7445 59.4987C40.2485 57.1083 40.604 55.4161 40.1025 53.5014C41.1952 53.0615 42.2108 52.5009 43.1348 51.8435C44.0533 54.5165 43.7461 56.7455 43.307 58.9715C43.2038 59.4962 43.5442 60.0058 44.0684 60.1097C44.1318 60.1223 44.1943 60.1284 44.2567 60.1284C44.7089 60.1284 45.1132 59.8085 45.2044 59.3473C45.7134 56.7652 46.0871 53.9625 44.7124 50.5404C46.856 48.493 48.2724 45.8417 48.6511 42.9896C51.5918 41.8686 54.0511 39.7354 55.6871 36.8919L56.4973 37.1871C56.7777 37.2895 57.0658 37.3384 57.3498 37.3384C58.2184 37.3384 59.0482 36.8803 59.5029 36.0877L63.4512 29.2035C63.7201 28.7348 63.7684 28.1747 63.5831 27.6672C63.5322 27.5269 63.4637 27.3963 63.3822 27.2752L64.2634 26.422C65.4895 25.2354 66.1164 23.578 65.982 21.8747ZM18.3425 18.6856C17.6697 18.9742 17.0766 19.4237 16.6143 19.9979L14.9506 22.0654C14.4269 22.7163 13.4732 22.8187 12.8242 22.2945C12.1751 21.7698 12.0729 20.8142 12.5961 20.1639L14.2603 18.0958C15.3232 16.7745 16.8188 15.8436 18.4724 15.4743C19.4926 15.2468 20.5515 15.2387 21.5712 15.4415C20.33 16.3658 19.2509 17.4516 18.3425 18.6856ZM42.4842 14.4204C41.2098 13.5713 39.824 12.9214 38.3416 12.4774C39.2293 11.9386 40.2264 11.5839 41.2616 11.4482C42.9409 11.2287 44.6646 11.5905 46.1143 12.4679L48.3842 13.8412C49.0977 14.273 49.3279 15.2059 48.8968 15.9213C48.6884 16.2679 48.357 16.5121 47.9653 16.609C47.573 16.7059 47.1667 16.6443 46.8207 16.4349L44.5513 15.0621C43.9223 14.6817 43.2144 14.4597 42.4842 14.4204ZM46.644 35.9666C46.7981 36.5075 46.719 37.0927 46.4295 37.5751C46.428 37.5776 46.4265 37.5801 46.4249 37.5826C46.3152 37.7632 46.1777 37.9302 46.0095 38.0735C43.9757 39.8086 41.6816 41.1572 39.1825 42.0911C38.7248 41.3948 38.0868 40.8393 37.3471 40.4791C41.3054 39.4887 44.4425 37.9625 46.644 35.9666ZM34.8883 41.9947C35.0434 41.9675 35.1975 41.9543 35.3501 41.9543C36.6124 41.9543 37.7348 42.8635 37.9614 44.151C38.2152 45.5945 37.2499 46.9759 35.8093 47.2302C34.3697 47.4839 32.9905 46.5173 32.7367 45.0743C32.4824 43.6309 33.4477 42.2495 34.8883 41.9947ZM13.8202 41.8862C13.1736 41.2127 13.1943 40.1375 13.8665 39.4897C14.5387 38.8419 15.6113 38.8631 16.2578 39.5367C16.7966 40.0972 18.2151 41.3968 20.2725 42.0033C20.4599 42.3741 20.7046 42.7152 20.9981 43.0128C21.0263 43.4361 21.0767 43.8589 21.1502 44.2747C21.2333 44.7489 21.3481 45.2105 21.4856 45.6611C18.6532 45.4002 15.9058 44.0587 13.8202 41.8862ZM21.7847 40.3691C23.7737 41.1809 26.1403 41.5916 28.8438 41.5916C29.868 41.5916 30.9426 41.5305 32.0614 41.412C31.4889 42.0043 31.0785 42.7449 30.8862 43.5567C28.2194 43.536 25.603 43.0547 23.0989 42.1208C22.3426 41.8388 21.8436 41.14 21.7847 40.3691ZM25.2767 52.3889C24.0828 53.0383 22.9121 53.3546 21.7056 53.3546C20.623 53.3546 19.487 53.1049 18.2327 52.5918C17.641 52.3496 17.356 51.67 17.5977 51.0772C17.8394 50.4838 18.5177 50.1983 19.1099 50.4405C20.5243 51.0197 22.0793 51.4702 24.1992 50.3204C24.6534 50.8052 25.1468 51.2558 25.675 51.6675C25.5446 51.897 25.4102 52.1357 25.2767 52.3889ZM30.3227 54.2532C29.5996 55.5296 29.2859 56.1714 29.4274 57.9947C29.4999 58.9266 28.802 59.7434 27.8715 59.8161C26.9399 59.8892 26.1267 59.1783 26.0552 58.2581C25.8362 55.4423 26.5547 54.0448 27.2879 52.7446C28.2642 53.3001 29.3212 53.7421 30.4345 54.0554C30.3962 54.1235 30.3585 54.1901 30.3227 54.2532ZM36.7303 52.4606C30.3076 53.5947 24.2515 49.891 23.0999 44.1763C25.603 45.0289 28.2023 45.4709 30.8489 45.4946C31.2744 47.6762 33.1919 49.2084 35.347 49.2084C35.6104 49.2084 35.8773 49.1852 36.1457 49.1378C38.608 48.7029 40.2656 46.3634 39.8784 43.8988C42.3573 42.9699 44.6495 41.6642 46.7104 40.0054C47.5786 45.7701 43.1524 51.3259 36.7303 52.4606ZM48.7362 40.8469C48.712 40.3767 48.6597 39.9034 48.5761 39.4292C48.5031 39.014 48.4064 38.5992 48.288 38.1916C48.4628 37.8112 48.5761 37.4071 48.6254 36.9943C49.8858 36.0635 50.701 34.9026 51.1708 34.0661C51.3627 34.8536 51.9317 35.5216 52.7343 35.8143L53.8366 36.2164C52.5797 38.2738 50.8183 39.8706 48.7362 40.8469ZM57.8266 35.1221C57.6922 35.3556 57.4117 35.4586 57.1584 35.3662L53.396 33.9939C53.1427 33.9016 52.9936 33.6418 53.041 33.3769L54.4096 25.69L56.5305 26.4639C56.5325 26.4644 56.535 26.4654 56.537 26.4659L61.7094 28.3523L57.8266 35.1221ZM62.9199 25.0285L61.6414 26.2656L58.9344 25.2788L59.0593 25.19C60.1776 24.3938 60.9385 23.2127 61.2018 21.8631C61.3464 21.124 62.0433 20.6144 62.79 20.7062C63.4688 20.7885 64.0005 21.344 64.0544 22.0271C64.143 23.1512 63.7296 24.245 62.9199 25.0285ZM40.0617 22.514C40.1176 22.514 40.174 22.5094 40.2309 22.4993C40.7566 22.406 41.1076 21.904 41.0149 21.3773L40.9756 21.1528C40.883 20.626 40.3814 20.2734 39.8552 20.3672C39.3295 20.46 38.9786 20.9625 39.0712 21.4893L39.1105 21.7133C39.1931 22.1835 39.6015 22.514 40.0617 22.514ZM55.0798 43.0522C54.5455 43.0522 54.113 43.4856 54.113 44.0209V45.6687C54.113 46.204 54.5455 46.6373 55.0798 46.6373C55.6136 46.6373 56.0466 46.204 56.0466 45.6687V44.0209C56.0466 43.4856 55.6136 43.0522 55.0798 43.0522ZM6.05206 27.9225C5.5183 27.9225 5.08526 28.3559 5.08526 28.8912V30.5394C5.08526 31.0742 5.5183 31.5081 6.05206 31.5081C6.58631 31.5081 7.01885 31.0742 7.01885 30.5394V28.8912C7.01885 28.3559 6.58631 27.9225 6.05206 27.9225ZM22.9096 24.8252C22.9655 24.8252 23.0219 24.8201 23.0788 24.8101C23.6045 24.7172 23.9554 24.2147 23.8628 23.688L23.6291 22.3606C23.5365 21.8339 23.035 21.4822 22.5093 21.575C21.9831 21.6679 21.6321 22.1704 21.7248 22.6971L21.9584 24.0245C22.0415 24.4947 22.4494 24.8252 22.9096 24.8252ZM24.8759 31.2069C24.3452 31.2639 23.9605 31.7407 24.0169 32.273C24.0697 32.77 24.4892 33.1393 24.9771 33.1393C25.0114 33.1393 25.0461 33.1373 25.0804 33.1337C25.7828 33.059 26.4384 32.78 26.9747 32.3431C28.4762 33.3335 30.2296 33.8582 32.0151 33.8582C32.5438 33.8582 33.0756 33.8123 33.6043 33.719C35.9186 33.3103 37.974 32.0263 39.3653 30.1525C39.7445 30.2847 40.1433 30.3543 40.5456 30.3543C40.8356 30.3543 41.1272 30.319 41.4142 30.2478C41.9324 30.1192 42.2486 29.5935 42.1197 29.0743C41.9913 28.5552 41.4671 28.2388 40.9489 28.3675C40.4806 28.484 39.9857 28.3922 39.5919 28.1157C39.1976 27.8392 38.9428 27.4048 38.8915 26.924C38.8351 26.3923 38.3597 26.0083 37.828 26.0633C37.2968 26.1198 36.9126 26.5971 36.9689 27.1289C37.0445 27.8423 37.329 28.5087 37.7761 29.0496C36.8738 30.2428 35.6265 31.1227 34.209 31.5762L33.561 27.8922C33.6627 27.8387 33.7624 27.7817 33.8591 27.7166L35.6013 26.5401C36.1386 26.1773 36.4856 25.5986 36.552 24.9523C36.619 24.3065 36.3979 23.6688 35.9458 23.2031C35.3914 22.6325 34.6501 22.2824 33.8581 22.2178C32.3464 22.0947 30.8187 22.3641 29.4405 22.9983C28.7179 23.3308 28.1409 23.9135 27.8151 24.6395C27.5492 25.2323 27.5593 25.9069 27.8423 26.4911C28.1253 27.0754 28.6484 27.5002 29.2779 27.6576L31.3167 28.1657C31.429 28.1939 31.5428 28.2146 31.6566 28.2297L32.3047 31.9123C30.8182 31.9718 29.3458 31.5722 28.0905 30.7604C28.3262 30.099 28.366 29.3755 28.1937 28.6793C28.0648 28.1601 27.5402 27.8433 27.0225 27.9724C26.5044 28.1011 26.1881 28.6263 26.3165 29.1454C26.4329 29.6152 26.3412 30.1106 26.0658 30.5051C25.7893 30.9002 25.3558 31.156 24.8759 31.2069ZM31.783 26.2858L29.7447 25.7772C29.6515 25.754 29.6042 25.6925 29.5815 25.645C29.5583 25.5971 29.5387 25.5219 29.5785 25.4347C29.7124 25.1355 29.9501 24.8958 30.2472 24.7591C31.1546 24.3419 32.144 24.1259 33.14 24.1259C33.3263 24.1259 33.5137 24.134 33.7005 24.1491C34.0263 24.1759 34.3314 24.3197 34.5595 24.5548C34.6265 24.6234 34.634 24.7006 34.6285 24.7536C34.623 24.806 34.5998 24.8802 34.5207 24.9342L32.778 26.1102C32.4869 26.307 32.1239 26.3711 31.783 26.2858ZM55.0798 51.5948C54.5455 51.5948 54.113 52.0282 54.113 52.5635V54.2113C54.113 54.7466 54.5455 55.18 55.0798 55.18C55.6136 55.18 56.0466 54.7466 56.0466 54.2113V52.5635C56.0466 52.0282 55.6136 51.5948 55.0798 51.5948ZM7.57476 47.6535C7.21926 47.2544 6.60796 47.2196 6.20966 47.5758C5.81136 47.932 5.77662 48.5439 6.13161 48.9435L9.59396 52.8319C9.7848 53.0463 10.0497 53.1558 10.3155 53.1558C10.5446 53.1558 10.7743 53.0746 10.9586 52.9096C11.3574 52.5534 11.3921 51.9414 11.0366 51.5418L7.57476 47.6535ZM7.01885 39.0821V37.4338C7.01885 36.899 6.58631 36.4651 6.05206 36.4651C5.5183 36.4651 5.08526 36.899 5.08526 37.4338V39.0821C5.08526 39.6169 5.5183 40.0508 6.05206 40.0508C6.58631 40.0508 7.01885 39.6169 7.01885 39.0821ZM52.6059 49.1161C52.6059 48.5808 52.1729 48.1474 51.6391 48.1474H49.994C49.4603 48.1474 49.0272 48.5808 49.0272 49.1161C49.0272 49.6514 49.4603 50.0848 49.994 50.0848H51.6391C52.1729 50.0848 52.6059 49.6514 52.6059 49.1161ZM51.9634 50.8688L50.8002 52.0343C50.4225 52.4126 50.4225 53.0256 50.8002 53.404C50.989 53.5932 51.2363 53.6876 51.4835 53.6876C51.7313 53.6876 51.9785 53.5927 52.1673 53.404L53.3305 52.2386C53.7076 51.8602 53.7076 51.2472 53.3305 50.8688C52.9528 50.4904 52.3405 50.4904 51.9634 50.8688ZM52.1673 44.8281C51.7897 44.4497 51.1774 44.4497 50.8002 44.8281C50.4225 45.2065 50.4225 45.8195 50.8002 46.1979L51.9634 47.3634C52.1517 47.5526 52.3995 47.6469 52.6467 47.6469C52.8939 47.6469 53.1417 47.5526 53.3305 47.3634C53.7076 46.985 53.7076 46.3715 53.3305 45.9931L52.1673 44.8281Z" fill="black"/>
</svg>
