<svg width="196" height="196" viewBox="0 0 196 196" fill="none" xmlns="http://www.w3.org/2000/svg">
<circle cx="98" cy="98" r="98" fill="#76A8CC"/>
<circle cx="98" cy="98" r="96.5" stroke="#333333" stroke-width="3"/>
<circle cx="98" cy="98" r="88.5" fill="#A2D3EE" stroke="#333333" stroke-width="3"/>
<path fill-rule="evenodd" clip-rule="evenodd" d="M134.897 68.9849C131.984 68.5796 129.827 68.8733 126.753 70.0935L124.582 70.9554L122.378 70.0319C115.534 67.1659 106.139 66.6802 99.4665 68.8479C95.8744 70.0146 89.4997 73.5944 85.7769 76.5352C84.9185 77.2132 83.9132 77.8113 83.4579 77.9146C81.6852 78.317 68.841 86.0644 57.6658 93.4718C48.4774 99.5624 44.6714 102.12 44.2567 102.482C43.8313 102.853 43.8349 103.036 44.3285 106.152C44.6144 107.956 45.2219 110.931 45.6786 112.762C46.4459 115.838 46.5723 116.151 47.3372 116.877C48.3418 117.831 61.0405 127.172 61.5541 127.335C62.0215 127.484 62.7611 127.047 62.9273 126.525C63.0096 126.266 63.4197 126.018 64.0619 125.84C64.6151 125.686 67.3476 124.342 70.1344 122.853C75.6907 119.885 78.8897 118.543 83.9486 117.058C89.9908 115.284 93.1621 114.903 96.0573 115.6C98.8589 116.275 100.466 117.629 103.46 121.837C105.489 124.689 107.554 126.797 109.648 128.154C116.007 132.273 123.807 132.905 130.805 129.868C139.38 126.147 145.53 117.73 146.84 107.923C147.941 99.6807 147.535 95.1715 145.284 90.6637C144.433 88.9579 142.734 86.6202 141.78 85.8416C141.536 85.6425 141.142 85.3208 140.905 85.1267L140.472 84.7736L141.68 83.9706C143.175 82.9763 143.777 82.1789 144.309 80.4836C145.833 75.6297 141.101 69.8477 134.897 68.9849ZM139.594 72.8794C141.568 74.4651 142.819 77.2201 142.436 79.1367C142.116 80.7402 140.283 82.3422 138.778 82.3345C138.468 82.333 138.001 81.8619 137.112 80.6558C135.101 77.924 131.658 74.6466 128.948 72.8838C128.31 72.4682 127.733 72.0374 127.668 71.9264C127.526 71.6853 130.089 70.8732 131.505 70.7109C134.165 70.4057 137.691 71.3509 139.594 72.8794ZM122.355 72.0103C127.131 74.0904 130.868 76.833 134.266 80.7528C134.765 81.3285 135.153 81.8623 135.129 81.9387C135.104 82.0152 134.468 82.0049 133.715 81.916C130.791 81.5705 127.748 82.0687 124.292 83.4586L122.684 84.1051L119.241 81.8318C113.286 77.8998 107.217 74.4854 102.283 72.2907C100.724 71.5976 99.4267 70.9871 99.4 70.9342C99.3732 70.8814 100.03 70.647 100.859 70.4134C105.322 69.1562 111.356 69.0564 116.508 70.154C118.966 70.6777 120.18 71.0631 122.355 72.0103ZM138.537 85.8027C141.737 87.8372 144.435 92.4845 145.157 97.2052C145.755 101.108 145.3 104.54 143.505 109.668C142.162 113.505 141.449 114.921 139.496 117.631C136.188 122.223 131.546 125.611 126.582 127.058C122.939 128.119 120.628 128.2 116.742 127.403C111.848 126.4 107.844 123.88 105.5 120.329C104.928 119.462 103.863 117.852 103.134 116.752C99.7931 111.707 96.9468 110.561 90.5612 111.69C84.4607 112.769 76.6052 115.744 67.1654 120.55C63.6753 122.327 62.6041 122.784 62.506 122.536C62.4358 122.359 62.1224 120.563 61.8095 118.544C61.2719 115.076 61.2652 114.862 61.6862 114.658C61.9314 114.539 70.0431 110.625 79.7124 105.96C101.187 95.5992 99.2484 96.5855 99.4632 95.9098C99.6485 95.3273 99.3246 94.6749 98.7614 94.4958C98.5777 94.4374 89.918 98.5335 79.5174 103.598L60.6076 112.807L55.5397 109.234C52.7524 107.269 49.7766 105.176 48.9267 104.584C48.0771 103.992 47.4074 103.426 47.4389 103.328C47.5087 103.108 55.4207 97.5867 60.8639 93.9591C67.8939 89.2738 76.5514 83.9153 82.6871 80.4513C84.0852 79.662 84.293 79.605 84.667 79.9074C84.8968 80.0933 85.7339 80.7989 86.5271 81.4757C92.4211 86.5038 101.595 91.7635 108.785 94.2363C110.526 94.8351 110.706 94.8561 111.905 94.6017C113.307 94.3041 113.977 93.8314 117.212 90.8544C122.393 86.0875 127.163 83.9144 132.264 83.9961C134.282 84.0284 136.959 84.7995 138.537 85.8027ZM106.716 77.679C107.58 78.1337 109.955 79.5163 111.995 80.7516C115.275 82.7388 116.421 83.35 119.694 84.8601C120.133 85.0629 120.475 85.2867 120.452 85.3573C120.43 85.4279 119.865 85.9074 119.197 86.4227C118.529 86.938 116.765 88.4415 115.277 89.7636C113.788 91.0856 112.261 92.2751 111.882 92.4069C111.281 92.6161 110.944 92.5628 109.212 91.9845C104.111 90.2808 96.6144 86.2297 91.059 82.1749C89.8516 81.2937 88.8116 80.4784 88.7481 80.3634C88.6846 80.2484 88.8305 79.9849 89.0719 79.7779C89.3135 79.5709 89.7358 79.0787 90.0102 78.6843C91.4615 76.5982 94.7319 75.1848 98.0725 75.1998C100.748 75.2118 103.564 76.0195 106.716 77.679ZM131.14 90.468C129.004 90.3796 127.628 91.0944 128.021 92.0876C128.231 92.6165 128.962 92.7906 130.083 92.5784C131.421 92.3246 133.827 93.0878 134.973 94.1296C136.089 95.1438 137.223 97.3395 137.467 98.9591C138.131 103.364 135.786 109.384 131.752 113.63C128.019 117.559 123.756 119.105 119.18 118.188C114.751 117.3 111.457 112.744 112.259 108.614C112.479 107.48 112.101 106.69 111.339 106.693C110.603 106.696 110.218 107.361 110.056 108.909C109.638 112.887 111.925 117.282 115.449 119.271C117.889 120.648 121.221 121.154 124.205 120.6C126.503 120.173 130.253 118.183 132.324 116.291C136.653 112.336 139.883 105.598 139.788 100.722C139.676 94.9434 136.074 90.6727 131.14 90.468ZM52.3388 109.625C54.714 111.297 57.1457 113.017 57.7425 113.448L58.8276 114.232L59.6399 118.881C60.0868 121.438 60.3965 123.559 60.3281 123.595C60.163 123.682 53.4322 118.909 50.639 116.725L48.4232 114.992L47.9034 113.053C47.2701 110.691 46.3554 106.068 46.457 105.742C46.5122 105.565 46.7199 105.642 47.2755 106.046C47.685 106.343 49.9636 107.954 52.3388 109.625Z" fill="white"/>
</svg>
