<svg width="170" height="170" viewBox="0 0 170 170" fill="none" xmlns="http://www.w3.org/2000/svg">
<g clip-path="url(#clip0_223_13993)">
<path d="M46.799 157.936C45.0472 157.936 43.2993 157.246 41.9972 155.879C39.48 153.234 39.5878 149.052 42.2389 146.54C46.3233 142.668 48.3532 138.116 50.9237 132.352C52.6573 128.462 54.6235 124.052 57.5097 119.299C59.4058 116.178 63.4746 115.182 66.6013 117.072C69.728 118.963 70.7273 123.025 68.8326 126.146C66.3791 130.186 64.6702 134.019 63.0185 137.724C60.1023 144.263 57.3486 150.44 51.3551 156.121C50.0751 157.335 48.4351 157.936 46.799 157.936Z" fill="#495059"/>
<path d="M68.1175 167.509C63.7069 167.509 60.0435 164.036 59.8564 159.596C59.3769 148.144 59.8577 141.228 60.4659 132.472L60.4828 132.221C60.7986 127.671 64.753 124.233 69.3092 124.553C73.868 124.868 77.3079 128.812 76.9908 133.362L76.9739 133.614C76.3787 142.18 75.9485 148.371 76.3904 158.906C76.5814 163.463 73.035 167.311 68.4697 167.502C68.3515 167.507 68.2345 167.509 68.1175 167.509Z" fill="#DDAF89"/>
<path d="M102.031 167.509C101.915 167.509 101.797 167.507 101.68 167.502C97.1149 167.311 93.5685 163.463 93.7595 158.906C94.2 148.371 93.7699 142.18 93.176 133.614L93.1578 133.362C92.842 128.812 96.2819 124.868 100.841 124.553C105.403 124.233 109.35 127.671 109.666 132.221L109.684 132.472C110.292 141.228 110.772 148.144 110.292 159.596C110.106 164.035 106.442 167.509 102.031 167.509Z" fill="#DDAF89"/>
<path d="M45.143 145.663C40.5738 145.663 36.8701 141.965 36.8701 137.405C36.8701 124.176 38.8818 113.398 43.3912 102.459C45.1287 98.2411 49.9642 96.2281 54.1903 97.9648C58.4164 99.7002 60.432 104.525 58.6932 108.743C55.0441 117.595 53.4171 126.434 53.4171 137.405C53.4171 141.965 49.7134 145.663 45.143 145.663Z" fill="#DDAF89"/>
<path d="M125.006 145.663C120.437 145.663 116.732 141.965 116.732 137.405C116.732 126.434 115.105 117.595 111.456 108.743C109.717 104.525 111.734 99.6989 115.958 97.9648C120.185 96.2281 125.02 98.2411 126.759 102.459C131.268 113.398 133.28 124.176 133.28 137.405C133.28 141.965 129.575 145.663 125.006 145.663Z" fill="#DDAF89"/>
<path d="M54.1903 97.9631C49.9643 96.2277 45.1287 98.2406 43.3912 102.458C42.2905 105.126 41.3418 107.787 40.5322 110.474C41.837 119.733 46.5439 128.033 53.4678 134.297C53.755 124.736 55.3963 116.741 58.6932 108.742C60.432 104.525 58.4164 99.6985 54.1903 97.9631Z" fill="#D1A582"/>
<path d="M69.3093 124.553C64.7531 124.233 60.7986 127.671 60.4828 132.219L60.4659 132.472C60.3035 134.808 60.1501 137.013 60.0215 139.209C64.8623 142.188 70.3723 144.328 76.2969 145.403C76.4255 141.512 76.6789 137.854 76.9739 133.614L76.9908 133.362C77.3066 128.812 73.8667 124.868 69.3093 124.553Z" fill="#D1A582"/>
<path d="M109.685 132.472L109.667 132.219C109.351 127.671 105.403 124.233 100.842 124.553C96.2829 124.868 92.843 128.812 93.1588 133.362L93.177 133.614C93.472 137.854 93.7254 141.512 93.8527 145.403C99.7786 144.328 105.287 142.188 110.128 139.209C110.001 137.013 109.847 134.808 109.685 132.472Z" fill="#D1A582"/>
<path d="M129.619 110.474C128.809 107.787 127.86 105.128 126.76 102.459C125.021 98.2411 120.187 96.2281 115.961 97.9648C111.734 99.7002 109.719 104.525 111.458 108.743C114.755 116.741 116.396 124.737 116.683 134.298C123.607 128.034 128.314 119.734 129.619 110.474Z" fill="#D1A582"/>
<path d="M125.41 105.219C125.41 85.1128 107.352 68.8135 85.0752 68.8135C62.7986 68.8135 44.7402 85.1128 44.7402 105.219C44.7402 125.325 62.7986 141.623 85.0752 141.623C107.352 141.623 125.41 125.325 125.41 105.219Z" fill="#DDAF89"/>
<path d="M121.504 81.8447C111.62 90.0301 98.9231 94.9535 85.0752 94.9535C71.2261 94.9535 58.5309 90.0301 48.6466 81.8447C46.544 84.5606 44.7922 87.5178 43.4628 90.6669C41.6525 94.9561 43.3224 99.9288 47.3445 102.285C58.4152 108.77 71.3092 112.493 85.0752 112.493C98.8412 112.493 111.734 108.77 122.806 102.285C126.828 99.9288 128.498 94.9561 126.688 90.6669C125.358 87.5178 123.606 84.5606 121.504 81.8447Z" fill="#7F9AE6"/>
<path d="M66.705 91.9367C60.0488 89.6799 53.9435 86.2312 48.6466 81.8447C46.544 84.5606 44.7922 87.5178 43.4628 90.6669C41.6525 94.9561 43.3224 99.9288 47.3445 102.285C53.1001 105.658 59.3535 108.275 65.9616 110.018C63.538 105.161 64.2242 97.8704 66.705 91.9367Z" fill="#5E78BF"/>
<path d="M68.5242 31.9655C66.7308 31.9655 64.9205 31.4195 63.3585 30.2872L52.5295 22.4365C47.7875 18.9994 41.3925 19.2848 36.9779 23.1317L29.8877 29.3106C26.2256 32.4999 20.6662 32.1237 17.4693 28.4701C14.2725 24.8165 14.6493 19.2666 18.3101 16.076L25.4004 9.89839C30.514 5.44321 37.0637 2.82197 43.8447 2.51977C50.6257 2.21757 57.3832 4.24219 62.8751 8.22267L73.7041 16.0734C77.6365 18.9242 78.5085 24.4183 75.6521 28.343C73.9302 30.7087 71.2454 31.9655 68.5242 31.9655Z" fill="#495059"/>
<path d="M101.626 31.9653C98.9037 31.9653 96.2201 30.7085 94.4983 28.3428C91.6419 24.4181 92.5139 18.9253 96.4463 16.0732L107.275 8.22375C112.767 4.24196 119.526 2.21865 126.306 2.51955C133.087 2.82305 139.636 5.44298 144.749 9.89817L151.839 16.0758C155.501 19.2664 155.877 24.8162 152.68 28.4699C149.484 32.1248 143.923 32.5009 140.263 29.3103L133.172 23.1314C128.757 19.2845 122.362 18.9979 117.62 22.4362L106.791 30.287C105.229 31.4193 103.418 31.9653 101.626 31.9653Z" fill="#495059"/>
<path d="M85.0757 101.534C129.754 101.534 149.889 81.1079 143.604 52.3457C136.85 21.4369 115.581 4.51758 85.0757 4.51758C54.5704 4.51758 33.2996 21.4369 26.5472 52.3457C20.2627 81.1079 40.3977 101.534 85.0757 101.534Z" fill="#DDAF89"/>
<path d="M96.3425 113.91C96.3425 120.12 91.2977 125.155 85.0756 125.155C78.8534 125.155 73.8086 120.12 73.8086 113.91C73.8086 107.7 78.8534 102.665 85.0756 102.665C91.2977 102.665 96.3425 107.7 96.3425 113.91Z" fill="#F6E06A"/>
<path d="M91.4354 55.2751C87.2652 54.1856 82.8845 54.1856 78.7142 55.2751C76.9872 55.7265 75.4823 56.7874 74.4791 58.2608C73.1236 60.2504 73.9021 62.9793 76.1048 63.9572L82.2165 66.6692C84.0358 67.4773 86.1138 67.4773 87.9345 66.6692L94.0449 63.9572C96.2476 62.9793 97.0273 60.2504 95.6719 58.2608C94.6673 56.7874 93.1625 55.7265 91.4354 55.2751Z" fill="#495059"/>
<path d="M114.534 53.6264V50.2957C114.534 48.9196 113.417 47.8055 112.039 47.8055C110.662 47.8055 109.544 48.9196 109.544 50.2957V53.6264C109.544 55.0012 110.662 56.1166 112.039 56.1166C113.417 56.1166 114.534 55.0012 114.534 53.6264ZM69.6235 83.1059C68.719 84.1435 68.8269 85.7154 69.8652 86.6194C70.9048 87.5234 72.4799 87.4145 73.3857 86.3782C76.3356 82.9995 80.5968 81.0631 85.075 81.0631C89.5532 81.0631 93.813 83.0008 96.763 86.3782C97.2568 86.9437 97.9495 87.2329 98.646 87.2329C99.2269 87.2329 99.8104 87.0306 100.283 86.6194C101.323 85.7154 101.431 84.1422 100.526 83.1059C97.1802 79.2745 92.5564 76.8517 87.5701 76.2396V69.4316C88.0379 69.3058 88.4993 69.1437 88.9476 68.944L95.0593 66.2319C96.7864 65.4654 98.0742 63.9855 98.5927 62.171C99.1113 60.3565 98.7981 58.4201 97.735 56.8598C96.3913 54.8884 94.3783 53.4695 92.0678 52.8664C87.4934 51.6705 82.6565 51.6705 78.0822 52.8664C75.7716 53.4695 73.7586 54.8884 72.4149 56.8598C71.3519 58.4201 71.04 60.3565 71.5585 62.171C72.0757 63.9855 73.3636 65.4654 75.0919 66.2319L81.2024 68.944C81.6507 69.1437 82.112 69.3058 82.5799 69.4316V76.2396C77.5923 76.8517 72.9698 79.2758 69.6235 83.1059ZM77.1192 61.6821C76.6085 61.4551 76.4227 61.0362 76.3564 60.8066C76.2914 60.5757 76.2277 60.1218 76.5422 59.6613C77.2063 58.6847 78.203 57.983 79.3466 57.6847C81.2206 57.1945 83.1478 56.9506 85.075 56.9506C87.0022 56.9506 88.9294 57.1945 90.8033 57.6847C91.9469 57.983 92.9437 58.6847 93.6077 59.6613C93.9209 60.1218 93.8585 60.5757 93.7923 60.8066C93.7273 61.0362 93.5415 61.4551 93.0307 61.6821L86.9203 64.3941C85.7468 64.9142 84.4018 64.9142 83.2296 64.3941L77.1192 61.6821ZM153.48 14.2003L146.39 8.02138C140.852 3.19784 133.759 0.360014 126.416 0.0318732C119.609 -0.270327 112.806 1.59994 107.107 5.31973C100.421 3.1304 93.0619 2.02666 85.075 2.02666C77.0867 2.02666 69.7275 3.1304 63.0414 5.31973C57.3442 1.59994 50.5372 -0.271624 43.7329 0.0318732C36.3892 0.360014 29.2963 3.19655 23.7603 8.02138L16.6687 14.2003C11.9774 18.2884 11.4927 25.4245 15.5901 30.108C17.8201 32.6578 20.9546 33.9613 24.106 33.9613C26.7427 33.9613 29.3912 33.0482 31.5276 31.1858L31.9266 30.8382C28.4386 36.9574 25.824 43.9612 24.1086 51.8145C22.0254 61.3461 22.683 69.9945 26.0605 77.5171C26.6245 78.7713 28.1008 79.3342 29.3574 78.7713C30.6154 78.2084 31.1781 76.735 30.6141 75.4808C27.6823 68.9491 27.1339 61.3435 28.9844 52.8754C31.7862 40.0507 37.1117 29.7033 44.8388 22.0406C44.8895 21.9939 44.9375 21.9459 44.983 21.8954C46.098 20.7994 47.2637 19.7579 48.4775 18.7722C52.8647 15.2132 57.8146 12.4558 63.2883 10.5064C63.4533 10.4662 63.6145 10.4092 63.7691 10.3352C70.1758 8.12255 77.2947 7.00713 85.075 7.00713C92.8553 7.00713 99.9742 8.12255 106.381 10.3352C106.534 10.4092 106.697 10.4662 106.862 10.5064C112.335 12.4558 117.285 15.2132 121.672 18.7722C122.886 19.7579 124.051 20.7981 125.166 21.8954C125.212 21.9459 125.261 21.9939 125.31 22.0406C133.038 29.7033 138.364 40.0507 141.166 52.8754C143.653 64.2605 141.718 74.307 135.567 81.9282C133.069 85.0215 129.927 87.7115 126.183 89.9852C126.003 90.0656 125.838 90.1667 125.685 90.2822C115.909 96.0447 102.148 99.0434 85.075 99.0434C67.9302 99.0434 54.0434 95.9825 44.2254 90.12C44.2098 90.111 44.1942 90.1006 44.1786 90.0915C41.2118 88.3159 38.6127 86.2861 36.4152 84.0034C35.46 83.0125 33.8798 82.9801 32.8869 83.9334C31.8928 84.8867 31.8616 86.4625 32.8168 87.4547C34.9766 89.6972 37.4678 91.7166 40.2631 93.5169C40.1111 95.8489 40.6595 98.1355 41.7914 100.11C41.5237 100.558 41.2832 101.024 41.0831 101.51C36.4438 112.764 34.3736 123.834 34.3736 137.403C34.3736 141.128 36.2826 144.415 39.1741 146.345C36.909 149.794 37.2222 154.476 40.1877 157.594C41.9005 159.394 44.3099 160.425 46.7972 160.425C49.1428 160.425 51.3715 159.538 53.0726 157.926C54.5723 156.504 55.9251 155.018 57.1844 153.403C57.2116 155.363 57.2688 157.443 57.3637 159.7C57.6054 165.476 62.3292 170 68.1173 170C68.2681 170 68.4201 169.996 68.5735 169.99C71.4481 169.87 74.103 168.64 76.0497 166.527C77.9977 164.415 79.0035 161.67 78.8827 158.803C78.615 152.384 78.6865 147.679 78.858 143.702C80.8892 143.971 82.9632 144.113 85.075 144.113C87.1854 144.113 89.2608 143.971 91.2906 143.702C91.4635 147.679 91.535 152.384 91.266 158.803C91.1464 161.67 92.1522 164.415 94.1003 166.527C96.047 168.64 98.7019 169.87 101.578 169.99C101.73 169.996 101.882 170 102.033 170C105.241 170 108.259 168.583 110.315 166.115C111.194 165.057 111.049 163.487 109.988 162.608C108.929 161.73 107.356 161.875 106.476 162.932C105.318 164.323 103.578 165.09 101.784 165.014C100.242 164.95 98.8176 164.29 97.7727 163.157C96.7279 162.022 96.1873 160.55 96.2523 159.01C96.5447 152.022 96.4433 147.012 96.2445 142.769C100.287 141.777 104.095 140.259 107.573 138.301C107.881 143.315 108.069 148.117 107.962 154.109C107.939 155.485 109.036 156.618 110.413 156.643H110.459C111.816 156.643 112.928 155.557 112.953 154.197C113.081 146.909 112.789 141.373 112.37 135.169C112.985 134.706 113.584 134.227 114.169 133.734C114.213 134.927 114.237 136.148 114.237 137.406C114.237 143.332 119.068 148.153 125.006 148.153C130.943 148.153 135.775 143.332 135.775 137.406C135.775 123.835 133.706 112.766 129.067 101.512C128.865 101.026 128.625 100.561 128.357 100.112C129.488 98.1407 130.036 95.8593 129.887 93.5324C133.645 91.1084 136.848 88.2809 139.453 85.054C146.583 76.2188 148.861 64.7248 146.041 51.8158C144.325 43.9625 141.71 36.9587 138.223 30.8408L138.621 31.1871C140.759 33.0495 143.406 33.9626 146.043 33.9626C149.194 33.9626 152.33 32.6578 154.56 30.1092C158.656 25.4245 158.171 18.2884 153.48 14.2003ZM45.3287 14.9084C44.1513 15.863 43.0194 16.8682 41.9278 17.9162C39.5003 18.4596 37.2339 19.601 35.3366 21.2559L28.2463 27.4335C25.6264 29.7163 21.6343 29.4452 19.3484 26.8317C17.0612 24.2183 17.3328 20.2339 19.9514 17.9525L27.0416 11.7736C31.7304 7.68805 37.7381 5.28471 43.9564 5.00716C48.4671 4.80742 52.9752 5.73737 57.0375 7.66081C52.8166 9.58685 48.9089 12.0032 45.3287 14.9084ZM124.53 96.535C124.244 97.3378 123.809 98.0849 123.24 98.7334C123.22 98.7542 123.202 98.7749 123.184 98.797C122.719 99.3145 122.169 99.7697 121.543 100.137C114.188 104.445 106.234 107.375 97.8715 108.866C97.084 106.885 95.852 105.126 94.2926 103.72C106.204 102.911 116.368 100.487 124.53 96.535ZM85.075 105.155C89.9118 105.155 93.8468 109.082 93.8468 113.91C93.8468 118.737 89.9118 122.664 85.075 122.664C80.2381 122.664 76.3031 118.737 76.3031 113.91C76.3031 109.082 80.2381 105.155 85.075 105.155ZM75.8626 103.715C74.3005 105.122 73.066 106.882 72.2785 108.867C63.9146 107.375 55.9615 104.445 48.6061 100.137C47.981 99.7697 47.4313 99.3158 46.9661 98.7982C46.9466 98.7762 46.9284 98.7542 46.9089 98.7334C46.3332 98.0758 45.8914 97.3184 45.6068 96.5052C53.7887 100.465 63.9731 102.901 75.8626 103.715ZM39.3651 137.405C39.3651 127.802 40.4515 119.535 42.8154 111.548C43.9967 118.077 46.9726 124.062 51.2689 129.073C51.0363 131.745 50.9219 134.481 50.9219 137.405C50.9219 140.585 48.3293 143.172 45.1429 143.172C41.9564 143.172 39.3651 140.585 39.3651 137.405ZM57.2935 143.992C55.044 148.239 52.6685 151.441 49.6367 154.315C48.8673 155.044 47.8589 155.446 46.7985 155.446C45.6549 155.446 44.5932 154.991 43.8069 154.164C42.241 152.519 42.3086 149.909 43.9564 148.346C44.0383 148.268 44.1201 148.189 44.202 148.109C44.5126 148.136 44.8258 148.153 45.1429 148.153C51.0817 148.153 55.9121 143.331 55.9121 137.405C55.9121 136.147 55.9355 134.927 55.9797 133.733C56.5645 134.226 57.1636 134.706 57.7782 135.169C57.5742 138.196 57.4027 141.048 57.2935 143.992ZM73.8977 159.01C73.9613 160.55 73.422 162.022 72.3772 163.155C71.3324 164.289 69.9068 164.949 68.3656 165.014C65.1518 165.147 62.4826 162.673 62.35 159.493C61.9874 150.848 62.1772 144.805 62.5761 138.301C66.055 140.258 69.8626 141.776 73.9055 142.769C73.7053 147.01 73.604 152.022 73.8977 159.01ZM85.075 139.132C64.2096 139.132 47.2351 123.919 47.2351 105.218C47.2351 105.176 47.2377 105.133 47.2377 105.091C54.7542 109.325 62.8386 112.233 71.3168 113.754C71.3155 113.806 71.3129 113.858 71.3129 113.91C71.3129 121.483 77.487 127.645 85.075 127.645C92.663 127.645 98.8371 121.483 98.8371 113.91C98.8371 113.858 98.8332 113.806 98.8332 113.754C107.311 112.233 115.394 109.325 122.912 105.091C122.912 105.133 122.915 105.176 122.915 105.217C122.914 123.919 105.939 139.132 85.075 139.132ZM130.785 137.405C130.785 140.585 128.192 143.172 125.006 143.172C121.819 143.172 119.227 140.585 119.227 137.405C119.227 134.481 119.114 131.745 118.88 129.071C123.176 124.062 126.152 118.076 127.335 111.548C129.698 119.533 130.785 127.802 130.785 137.405ZM150.8 26.8317C148.514 29.4465 144.522 29.7163 141.904 27.4335L134.813 21.2559C132.915 19.601 130.65 18.4609 128.221 17.9162C127.129 16.8682 125.997 15.863 124.82 14.9084C121.241 12.0032 117.332 9.58685 113.111 7.66081C117.174 5.73607 121.682 4.80482 126.194 5.00716C132.412 5.28471 138.418 7.68805 143.108 11.7736L150.199 17.9525C152.817 20.2339 153.087 24.2183 150.8 26.8317ZM60.606 53.6264V50.2957C60.606 48.9196 59.4884 47.8055 58.1109 47.8055C56.7321 47.8055 55.6158 48.9196 55.6158 50.2957V53.6264C55.6158 55.0012 56.7321 56.1166 58.1109 56.1166C59.4884 56.1166 60.606 55.0012 60.606 53.6264Z" fill="black"/>
</g>
<defs>
<clipPath id="clip0_223_13993">
<rect width="170" height="170" fill="white"/>
</clipPath>
</defs>
</svg>
