<svg width="375" height="152" viewBox="0 0 375 152" fill="none" xmlns="http://www.w3.org/2000/svg">
<path d="M303 121.845H73V121.96H303V121.845Z" fill="#EBEBEB"/>
<path d="M279.954 129.241H264.719V129.356H279.954V129.241Z" fill="#EBEBEB"/>
<path d="M225.362 130.492H221.364V130.607H225.362V130.492Z" fill="#EBEBEB"/>
<path d="M264.259 124.976H255.432V125.09H264.259V124.976Z" fill="#EBEBEB"/>
<path d="M116.999 125.748H97.1318V125.863H116.999V125.748Z" fill="#EBEBEB"/>
<path d="M124.009 125.748H121.098V125.863H124.009V125.748Z" fill="#EBEBEB"/>
<path d="M176.569 127.688H133.477V127.803H176.569V127.688Z" fill="#EBEBEB"/>
<path d="M150.952 29.496H149.25V56.4652H150.952V29.496Z" fill="#E0E0E0"/>
<path d="M150.101 74.7236C159.373 74.7236 166.891 69.2575 166.891 62.5146C166.891 55.7717 159.373 50.3056 150.101 50.3056C140.828 50.3056 133.311 55.7717 133.311 62.5146C133.311 69.2575 140.828 74.7236 150.101 74.7236Z" fill="#E0E0E0"/>
<path d="M113.209 72.9033V121.372H119.042V85.4157H181.165V121.372H186.998V72.9033H113.209Z" fill="#E0E0E0"/>
<path d="M188.98 70.0027H111.222V80.5937H188.98V70.0027Z" fill="#F0F0F0"/>
<path d="M161.743 49.4735H138.453V53.8451H161.743V49.4735Z" fill="#E0E0E0"/>
<path d="M172.769 45.433H127.432L136.434 12.9246H163.767L172.769 45.433Z" fill="#F0F0F0"/>
<path d="M188 142.604C237.258 142.604 277.189 140.274 277.189 137.401C277.189 134.527 237.258 132.197 188 132.197C138.742 132.197 98.8105 134.527 98.8105 137.401C98.8105 140.274 138.742 142.604 188 142.604Z" fill="#F5F5F5"/>
<path d="M243.26 116.26C243.183 116.261 243.108 116.238 243.044 116.196C238.766 113.277 233.844 101.56 233.66 101.059C233.64 101.012 233.63 100.963 233.63 100.913C233.63 100.863 233.64 100.813 233.659 100.767C233.678 100.721 233.706 100.679 233.742 100.644C233.778 100.608 233.82 100.581 233.867 100.562C233.913 100.543 233.963 100.532 234.013 100.532C234.064 100.532 234.114 100.542 234.16 100.561C234.207 100.58 234.249 100.609 234.285 100.644C234.321 100.68 234.349 100.722 234.368 100.769C234.414 100.884 239.17 112.261 243.205 115.364C244.272 114.215 248.821 109.774 256.982 108.009C257.031 107.998 257.082 107.998 257.131 108.007C257.181 108.016 257.228 108.034 257.27 108.062C257.313 108.089 257.349 108.124 257.378 108.166C257.406 108.207 257.426 108.254 257.437 108.303C257.448 108.352 257.448 108.403 257.439 108.453C257.43 108.502 257.411 108.549 257.384 108.592C257.357 108.634 257.321 108.67 257.28 108.699C257.238 108.727 257.192 108.748 257.143 108.758C248.205 110.675 243.6 116.058 243.554 116.113C243.519 116.158 243.474 116.194 243.423 116.219C243.373 116.245 243.317 116.259 243.26 116.26Z" fill="#263238"/>
<path d="M244.961 106.46C244.961 106.46 243.862 98.3832 238.692 97.5006C233.521 96.6181 235.081 92.7108 233.733 91.1985C232.385 89.6861 228.866 94.145 231.893 98.466C234.92 102.787 232.44 101.431 233.733 105.448C235.026 109.466 245.435 113.157 244.961 106.46Z" fill="#78BF9B"/>
<path opacity="0.2" d="M244.961 106.46C244.961 106.46 243.862 98.3832 238.692 97.5006C233.521 96.6181 235.081 92.7108 233.733 91.1985C232.385 89.6861 228.866 94.145 231.893 98.466C234.92 102.787 232.44 101.431 233.733 105.448C235.026 109.466 245.435 113.157 244.961 106.46Z" fill="white"/>
<path d="M243.867 112.164C243.8 112.166 243.735 112.143 243.683 112.101C243.631 112.059 243.595 112 243.582 111.935C243.03 109.542 242.354 107.179 241.558 104.855C239.897 99.7393 238.182 94.4438 239.355 88.7668C240.316 84.1057 242.667 79.8169 244.944 75.6706C245.324 74.9749 245.701 74.2823 246.075 73.5928C246.379 73.0274 246.687 72.462 246.995 71.8966C249.084 68.0353 251.245 64.0407 252.768 59.8715C254.672 54.6679 254.939 50.2182 253.582 46.219C253.563 46.1468 253.571 46.0697 253.607 46.0036C253.642 45.9375 253.701 45.8873 253.772 45.8633C253.843 45.8393 253.92 45.8432 253.989 45.8743C254.057 45.9054 254.111 45.9613 254.139 46.0306C255.519 50.1447 255.271 54.7369 253.32 60.0737C251.779 64.2844 249.608 68.2927 247.506 72.1724L246.586 73.8686C246.213 74.5627 245.831 75.2477 245.45 75.951C243.196 80.0605 240.85 84.3079 239.93 88.8817C238.789 94.3978 240.39 99.3899 242.119 104.667C242.922 107.009 243.603 109.392 244.157 111.806C244.172 111.881 244.157 111.96 244.115 112.024C244.072 112.089 244.007 112.134 243.932 112.151L243.867 112.164Z" fill="#263238"/>
<path d="M255.16 50.3745C255.16 50.3745 258.684 40.5788 251.291 40.1697C243.899 39.7606 251.802 49.2299 255.16 50.3745Z" fill="#78BF9B"/>
<path d="M248.527 57.7983C248.527 57.7983 246.568 48.7519 241.259 50.5032C235.951 52.2546 243.288 57.8259 248.527 57.7983Z" fill="#78BF9B"/>
<path d="M257.419 58.8188C257.419 58.8188 256.821 51.6248 262.401 51.634C267.981 51.6432 265.326 57.8765 257.419 58.8188Z" fill="#78BF9B"/>
<path d="M253.32 73.3538C253.32 73.3538 260.984 66.8907 263.542 71.9242C266.099 76.9576 257.727 77.7621 253.32 73.3538Z" fill="#78BF9B"/>
<path d="M240.109 71.8093C240.109 71.8093 239 60.7034 232.864 63.9947C226.727 67.286 234.81 72.7746 240.109 71.8093Z" fill="#78BF9B"/>
<path d="M234.359 87.5164C234.359 87.5164 239.124 76.452 230.798 77.4863C222.472 78.5205 228.581 84.6435 234.359 87.5164Z" fill="#78BF9B"/>
<path d="M246.972 91.8512C246.972 91.8512 254.198 83.7976 259.474 86.5557C264.751 89.3138 260.16 97.3949 246.972 91.8512Z" fill="#78BF9B"/>
<g opacity="0.2">
<path d="M255.16 50.3745C255.16 50.3745 258.684 40.5788 251.291 40.1697C243.899 39.7606 251.802 49.2299 255.16 50.3745Z" fill="white"/>
<path d="M248.526 57.7983C248.526 57.7983 246.567 48.7519 241.258 50.5032C235.95 52.2546 243.287 57.8259 248.526 57.7983Z" fill="white"/>
<path d="M257.418 58.8188C257.418 58.8188 256.82 51.6248 262.4 51.634C267.98 51.6432 265.325 57.8765 257.418 58.8188Z" fill="white"/>
<path d="M253.319 73.3538C253.319 73.3538 260.983 66.8907 263.541 71.9242C266.098 76.9576 257.726 77.7621 253.319 73.3538Z" fill="white"/>
<path d="M240.109 71.8093C240.109 71.8093 239 60.7034 232.864 63.9947C226.727 67.286 234.81 72.7746 240.109 71.8093Z" fill="white"/>
<path d="M234.359 87.5164C234.359 87.5164 239.124 76.452 230.798 77.4863C222.472 78.5205 228.581 84.6435 234.359 87.5164Z" fill="white"/>
<path d="M246.972 91.8512C246.972 91.8512 254.198 83.7976 259.474 86.5557C264.751 89.3138 260.16 97.3949 246.972 91.8512Z" fill="white"/>
</g>
<path d="M251.604 63.7695C251.574 63.7743 251.543 63.7743 251.512 63.7695C251.475 63.7579 251.44 63.7389 251.41 63.7136C251.38 63.6883 251.355 63.6573 251.337 63.6224C251.314 63.5673 248.619 58.0465 246.503 56.6997C246.443 56.6555 246.402 56.5905 246.389 56.5176C246.375 56.4447 246.39 56.3694 246.429 56.3067C246.469 56.244 246.53 56.1985 246.602 56.1793C246.674 56.1601 246.75 56.1686 246.816 56.2032C248.812 57.4765 251.144 61.9308 251.728 63.0984C255.91 60.8 259.065 56.4101 259.088 56.3687C259.139 56.3264 259.202 56.3023 259.268 56.3004C259.334 56.2984 259.399 56.3187 259.452 56.358C259.505 56.3972 259.544 56.4532 259.561 56.5168C259.578 56.5804 259.574 56.6481 259.548 56.7089C259.41 56.8973 256.144 61.4297 251.728 63.7557C251.689 63.7699 251.646 63.7746 251.604 63.7695Z" fill="#263238"/>
<path d="M244.442 77.3254H244.377C244.338 77.316 244.301 77.2984 244.268 77.2739C244.236 77.2494 244.209 77.2184 244.189 77.1829C244.157 77.1231 240.776 71.0922 236.3 68.2927C236.267 68.2726 236.238 68.246 236.216 68.2146C236.193 68.1832 236.177 68.1476 236.168 68.1099C236.16 68.0722 236.159 68.0331 236.166 67.9951C236.172 67.957 236.187 67.9207 236.208 67.8882C236.227 67.8554 236.254 67.8269 236.285 67.8044C236.316 67.7819 236.351 67.7659 236.388 67.7573C236.426 67.7487 236.464 67.7477 236.502 67.7544C236.54 67.7611 236.576 67.7754 236.608 67.7963C240.707 70.3567 243.807 75.3672 244.538 76.6175C251.043 72.1402 259.01 72.5585 259.093 72.5631C259.17 72.5679 259.242 72.6029 259.294 72.6605C259.346 72.7182 259.372 72.7938 259.369 72.8711C259.361 72.9479 259.324 73.0189 259.266 73.07C259.208 73.121 259.133 73.1485 259.056 73.1469C258.978 73.1469 250.992 72.7286 244.612 77.284C244.561 77.3162 244.501 77.3308 244.442 77.3254Z" fill="#263238"/>
<path d="M239.631 95.3585C239.562 95.3588 239.495 95.3343 239.442 95.2896C235.09 91.6122 231.916 82.6301 231.788 82.2485C231.775 82.2124 231.769 82.1739 231.771 82.1355C231.773 82.0971 231.782 82.0594 231.799 82.0248C231.816 81.9901 231.839 81.9591 231.868 81.9336C231.897 81.9081 231.931 81.8886 231.967 81.8762C232.003 81.8632 232.041 81.8576 232.079 81.8596C232.117 81.8617 232.155 81.8713 232.189 81.888C232.223 81.9048 232.254 81.9282 232.279 81.957C232.304 81.9857 232.323 82.0192 232.335 82.0555C232.367 82.1474 235.514 91.0468 239.667 94.715C241.024 93.9933 249.327 89.7459 255.629 89.7459H255.735C255.813 89.7471 255.886 89.7786 255.94 89.8337C255.995 89.8887 256.025 89.9628 256.025 90.0401C256.024 90.1173 255.992 90.191 255.937 90.2451C255.882 90.2993 255.808 90.3297 255.731 90.3297H255.62C249.024 90.3297 239.851 95.2712 239.759 95.3218C239.72 95.3438 239.676 95.3563 239.631 95.3585Z" fill="#263238"/>
<path d="M242.096 107.917C242.096 107.917 239.382 102.52 244.479 100.53C249.575 98.5395 250.288 100.718 253.476 99.229C256.664 97.7397 259.456 93.5336 259.604 96.471C259.751 99.4083 256.144 100.608 257.198 102.074C258.251 103.541 247.961 110.905 242.096 107.917Z" fill="#78BF9B"/>
<path d="M242.147 105.223C242.147 105.223 238.356 101.399 235.058 101.468C231.76 101.537 229.584 98.204 228.908 100.649C228.232 103.095 233.08 109.632 242.147 105.223Z" fill="#78BF9B"/>
<path d="M224.377 104.58L225.651 115.543L225.817 116.996L226.346 121.592L226.728 124.842L226.976 126.957L228.209 137.621H259.986L261.223 126.957L261.467 124.842L261.849 121.592L262.378 116.996L262.548 115.543L263.822 104.58H224.377Z" fill="#263238"/>
<path opacity="0.4" d="M226.346 121.592L226.728 124.842H261.467L261.849 121.592H226.346Z" fill="black"/>
<path opacity="0.4" d="M226.976 126.957L228.208 137.621H259.985L261.223 126.957H226.976Z" fill="black"/>
<path opacity="0.4" d="M225.651 115.543L225.817 116.996H262.378L262.548 115.543H225.651Z" fill="black"/>
<path d="M245.616 137.621H116.701C116.228 136.885 115.932 136.05 115.836 135.18C115.836 135.093 115.836 135.001 115.813 134.914C115.79 134.826 115.813 134.735 115.813 134.647C115.813 134.56 115.813 134.468 115.813 134.376C115.818 134.185 115.835 133.995 115.864 133.806C115.864 133.732 115.864 133.659 115.905 133.59C115.946 133.521 115.942 133.42 115.96 133.342C115.98 133.252 116.004 133.163 116.034 133.075C116.083 132.906 116.145 132.74 116.218 132.579C116.25 132.5 116.287 132.418 116.324 132.34L116.448 132.105L116.586 131.88C116.682 131.73 116.786 131.586 116.899 131.448C116.954 131.374 117.014 131.31 117.073 131.241L117.221 131.08L117.547 130.781C117.662 130.685 117.782 130.594 117.906 130.51C118.007 130.436 118.113 130.368 118.223 130.308H118.251L118.555 130.142L118.67 130.092C118.794 130.031 118.921 129.977 119.051 129.931C119.166 129.885 119.291 129.839 119.415 129.802C122.971 128.708 132.727 129.591 133.84 129.591C133.907 129.589 133.972 129.575 134.034 129.549C134.728 129.274 135.777 127.665 136.513 126.396L136.633 126.189C137.056 125.454 137.355 124.87 137.387 124.81H136.301C136.602 124.261 136.871 123.694 137.106 123.114C137.235 122.806 137.355 122.493 137.461 122.195C137.507 122.07 137.548 121.951 137.589 121.827C137.732 121.395 137.856 120.972 137.967 120.576C138.022 120.379 138.072 120.181 138.118 119.993C138.164 119.804 138.206 119.625 138.243 119.446C138.279 119.266 138.312 119.147 138.339 118.986C138.367 118.825 138.381 118.77 138.394 118.673C138.44 118.457 138.473 118.264 138.5 118.094C138.5 118.016 138.523 117.943 138.532 117.874L138.56 117.699C138.56 117.644 138.56 117.598 138.56 117.552C138.56 117.506 138.56 117.464 138.56 117.428C138.56 117.304 138.56 117.235 138.56 117.235H137.746C137.718 117 137.7 116.775 137.686 116.527V116.205C137.686 116.118 137.686 116.026 137.686 115.938C137.686 115.676 137.686 115.41 137.686 115.143C137.686 114.968 137.686 114.794 137.686 114.614C137.686 114.435 137.686 114.311 137.714 114.155C137.741 113.998 137.714 113.989 137.714 113.902C137.746 113.47 137.787 113.042 137.842 112.619C137.842 112.477 137.879 112.334 137.898 112.192C137.916 112.049 137.934 111.916 137.957 111.774C137.999 111.498 138.045 111.222 138.091 110.951C138.137 110.68 138.187 110.413 138.238 110.151C138.316 109.756 138.399 109.374 138.482 109.006C138.514 108.887 138.537 108.767 138.569 108.648C138.624 108.409 138.68 108.179 138.735 107.958C138.739 107.94 138.739 107.921 138.735 107.903C138.785 107.701 138.841 107.503 138.891 107.319C138.946 107.117 139.002 106.929 139.052 106.749C139.232 106.106 139.393 105.591 139.512 105.255C139.512 105.205 139.54 105.163 139.554 105.122C139.567 105.081 139.604 104.984 139.618 104.934C139.632 104.883 139.65 104.846 139.655 104.828H138.772L142.318 90.1596C142.318 90.1596 155.364 85.9352 161.178 86.2615C161.394 86.2615 161.597 86.2891 161.79 86.3167C161.887 86.3167 161.983 86.3443 162.071 86.3581C162.226 86.3833 162.379 86.417 162.531 86.4592C162.723 86.5048 162.91 86.5727 163.087 86.6615C163.189 86.7096 163.286 86.7665 163.377 86.8316C163.43 86.8681 163.479 86.9096 163.524 86.9557C163.569 86.9951 163.611 87.0381 163.648 87.0844C163.725 87.1759 163.786 87.2801 163.828 87.3924C163.854 87.448 163.875 87.5067 163.888 87.567C163.989 87.9909 164.119 88.4072 164.279 88.8128L164.394 89.0932C164.472 89.3 164.568 89.5115 164.67 89.7321C164.725 89.8608 164.789 89.9895 164.854 90.1274C165.033 90.4998 165.231 90.8813 165.442 91.272C166.442 93.0297 167.532 94.7343 168.708 96.379C169.099 96.949 169.467 97.4731 169.794 97.9282L170.038 98.2637L170.42 98.7878L170.732 99.2061L170.852 99.3669L170.907 99.4405L171.059 99.6382L171.137 99.7393H169.371C172.315 101.973 181.634 106.009 181.634 106.009L180.77 106.648C189.399 109.972 220.56 108.726 220.974 108.712L220.514 108.901L219.281 109.388C219.584 109.429 219.888 109.471 220.201 109.521C221.507 109.739 222.79 110.079 224.033 110.537L224.81 110.836C225.192 110.992 225.569 111.153 225.932 111.323C228.48 112.489 230.834 114.039 232.911 115.92H230.643C232.363 116.839 235.703 121.579 238.822 126.405C240.202 128.579 241.559 130.763 242.672 132.62C244.415 135.521 245.616 137.621 245.616 137.621Z" fill="#DDAF89"/>
<path opacity="0.3" d="M245.616 137.621H116.701C116.228 136.885 115.932 136.05 115.836 135.18C115.836 135.093 115.836 135.001 115.813 134.914C115.79 134.826 115.813 134.735 115.813 134.647C115.813 134.56 115.813 134.468 115.813 134.376C115.818 134.185 115.835 133.995 115.864 133.806C115.864 133.732 115.864 133.659 115.905 133.59C115.946 133.521 115.942 133.42 115.96 133.342C115.98 133.252 116.004 133.163 116.034 133.075C116.083 132.906 116.145 132.74 116.218 132.579C116.25 132.501 116.287 132.418 116.324 132.34L116.448 132.105L116.586 131.88C116.682 131.73 116.786 131.586 116.899 131.448C116.954 131.374 117.014 131.31 117.073 131.241L117.221 131.08L117.547 130.781C117.662 130.685 117.782 130.594 117.906 130.51C118.007 130.436 118.113 130.368 118.223 130.308H118.251L118.555 130.142L118.67 130.092C118.794 130.031 118.921 129.977 119.051 129.931C119.166 129.885 119.291 129.839 119.415 129.802C122.971 128.708 132.727 129.591 133.84 129.591C133.907 129.589 133.972 129.575 134.034 129.549C134.728 129.274 135.777 127.665 136.513 126.396L136.633 126.189C137.056 125.454 137.355 124.87 137.387 124.81H136.297C136.595 124.259 136.866 123.693 137.106 123.114C137.194 122.902 137.277 122.686 137.355 122.475C137.396 122.378 137.428 122.286 137.461 122.19C137.493 122.093 137.548 121.946 137.589 121.822C137.732 121.39 137.856 120.967 137.967 120.572C138.022 120.374 138.072 120.177 138.118 119.988C138.164 119.8 138.206 119.62 138.243 119.441C138.279 119.262 138.312 119.142 138.339 118.981C138.367 118.821 138.381 118.765 138.394 118.669C138.44 118.453 138.473 118.26 138.5 118.09C138.5 118.011 138.523 117.938 138.532 117.869L138.56 117.694C138.56 117.639 138.56 117.593 138.56 117.547C138.56 117.501 138.56 117.46 138.56 117.423C138.56 117.299 138.56 117.23 138.56 117.23H137.746C137.718 116.996 137.7 116.77 137.686 116.522V116.2C137.686 116.113 137.686 116.021 137.686 115.934C137.686 115.672 137.686 115.405 137.686 115.138C137.686 114.964 137.686 114.789 137.686 114.61C137.686 114.431 137.686 114.306 137.714 114.15C137.741 113.994 137.714 113.985 137.714 113.897C137.746 113.465 137.787 113.038 137.842 112.615C137.842 112.472 137.879 112.33 137.898 112.187C137.916 112.045 137.934 111.912 137.957 111.769C137.999 111.493 138.045 111.217 138.091 110.946C138.137 110.675 138.187 110.408 138.238 110.146C138.316 109.751 138.399 109.37 138.482 109.002C138.514 108.882 138.537 108.763 138.569 108.643C138.624 108.404 138.68 108.174 138.735 107.954C138.739 107.936 138.739 107.917 138.735 107.899C138.785 107.696 138.841 107.499 138.891 107.315C138.946 107.113 139.002 106.924 139.052 106.745C139.236 106.101 139.397 105.586 139.512 105.251C139.512 105.2 139.54 105.159 139.554 105.118C139.567 105.076 139.604 104.98 139.618 104.929C139.632 104.878 139.65 104.842 139.655 104.823H138.767L142.314 90.155C142.314 90.155 155.359 85.9306 161.174 86.257C161.39 86.257 161.592 86.2845 161.785 86.3121C161.882 86.3121 161.979 86.3397 162.066 86.3535C162.221 86.3787 162.375 86.4124 162.526 86.4546C162.719 86.5002 162.906 86.5681 163.083 86.6569C163.184 86.705 163.281 86.7619 163.372 86.827C163.425 86.8635 163.475 86.9051 163.52 86.9511C163.564 86.9905 163.606 87.0335 163.644 87.0798C163.721 87.1713 163.782 87.2755 163.823 87.3878C163.847 87.4425 163.866 87.4995 163.878 87.5578C163.979 87.9839 164.111 88.4018 164.274 88.8082C164.307 88.9037 164.346 88.9973 164.389 89.0886C164.467 89.2954 164.564 89.5069 164.665 89.7275C164.72 89.8562 164.785 89.985 164.849 90.1229C165.028 90.4952 165.226 90.8767 165.438 91.2674C166.439 93.0268 167.53 94.7329 168.708 96.3791C169.099 96.9491 169.467 97.4731 169.794 97.9282L170.038 98.2637L170.42 98.7878L170.732 99.2061L170.852 99.367L170.907 99.4405C170.967 99.5187 171.022 99.583 171.059 99.6382L171.137 99.7393H169.371C172.315 101.973 181.634 106.009 181.634 106.009L180.77 106.648C189.399 109.972 220.56 108.726 220.974 108.712L220.514 108.901L219.281 109.388C219.584 109.425 219.888 109.466 220.201 109.521C221.507 109.739 222.79 110.079 224.033 110.537L224.81 110.836C225.192 110.992 225.569 111.153 225.932 111.323C228.48 112.489 230.834 114.039 232.911 115.92H230.643C232.363 116.839 235.703 121.579 238.822 126.405C240.202 128.579 241.559 130.763 242.672 132.62C244.415 135.521 245.616 137.621 245.616 137.621Z" fill="white"/>
<path opacity="0.6" d="M161.505 94.715V99.9415H160.24C160.24 99.9415 158.648 107.177 159.196 109.645C159.196 109.645 158.506 109.337 158.009 107.535C158.009 107.535 154.913 115.299 152.489 117.382L152.337 116.003C152.337 116.003 148.79 126.575 157.346 137.63H153.16C150.929 135.87 148.432 132.873 146.237 127.793C140.612 114.757 141.95 109.655 141.95 109.655L140.694 110.321L142.534 102.911H141.205C141.205 102.911 141.311 95.4459 145.147 93.4509C148.984 91.4559 161.505 94.715 161.505 94.715Z" fill="white"/>
<path opacity="0.1" d="M168.708 98.1212C168.332 98.7103 167.866 99.2375 167.328 99.6841L166.79 99.013C166.51 100.953 164.573 103.84 164.573 103.84L163.984 103.219L163.598 104.456C159.416 104.58 150.718 101.486 150.718 101.486L150.801 102.479C148.598 101.428 146.666 99.8875 145.151 97.9753C143.636 96.0631 142.579 93.83 142.061 91.4467C142.061 91.4467 157.553 91.079 165.521 91.2674C166.454 93.5934 167.66 96.0757 168.708 98.1212Z" fill="black"/>
<path opacity="0.1" d="M180.686 137.621H116.7C114.86 134.78 115.854 130.869 119.414 129.779C122.975 128.69 132.727 129.568 133.84 129.568C134.953 129.568 137.4 124.792 137.4 124.792H136.296C137.512 122.43 138.291 119.868 138.596 117.23H137.782C137.674 116.124 137.665 115.01 137.755 113.902C137.994 115.001 138.215 115.741 138.215 115.741L138.61 114.431C138.55 116.444 140.068 120.682 140.068 120.682L140.602 119.069C141.586 125.421 146.196 127.803 146.196 127.803L146.292 126.649C148.059 127.963 151.89 128.621 151.89 128.621C151.798 125.863 153.215 122.613 153.215 122.613H152.364C154.177 117.35 157.64 115.226 157.64 115.226C157.64 115.226 177.765 118.54 180.309 125.702C181.942 130.248 181.34 134.872 180.686 137.621Z" fill="black"/>
<path opacity="0.1" d="M214.703 121.546C214.703 121.546 208.447 121.206 204.625 121.546C200.802 121.887 194.399 125.725 194.546 128.952C194.693 132.179 202.343 134.399 202.343 134.399C202.343 134.399 193.074 132.317 190.351 132.501C187.628 132.684 186.809 137.621 186.809 137.621H183.906C183.906 137.621 182.789 132.105 185.024 130.216C187.26 128.327 192.343 130.216 192.343 130.216C192.343 130.216 191.501 123.321 196.653 120.172L196.593 121.551C196.593 121.551 199.841 118.664 206.764 118.765C206.764 118.765 205.255 119.878 205.549 119.777C205.844 119.676 208.268 119.188 214.703 121.546Z" fill="black"/>
<path opacity="0.1" d="M242.671 132.62C242.363 134.495 241.052 136.242 239.161 137.621H220.347C215.333 134.105 215.149 130.133 215.149 130.133L216.672 130.818C215.573 126.961 216.378 121.546 216.378 121.546C218.843 124.116 229.133 126.364 229.451 126.433C229.161 126.221 221.962 120.967 227.289 124.006C227.763 124.278 228.251 124.525 228.752 124.746C232.749 126.488 237.096 126.488 238.821 126.405C240.21 128.579 241.558 130.763 242.671 132.62Z" fill="black"/>
<path d="M152.668 71.653C152.668 71.653 156.261 61.6504 162.241 58.9015C163.262 58.4419 166.095 72.5402 161.371 78.6677C161.022 79.1457 152.668 71.653 152.668 71.653Z" fill="#DDAF89"/>
<path opacity="0.3" d="M163.928 70.7704C163.84 71.9787 163.646 73.1768 163.349 74.3513C162.989 75.9139 162.318 77.3881 161.375 78.6861C161.026 79.1458 152.663 71.653 152.663 71.653C152.663 71.653 156.26 61.6504 162.24 58.9062C162.921 58.589 164.425 64.8038 163.928 70.7704Z" fill="white"/>
<path opacity="0.6" d="M162.157 60.0645C162.157 60.0645 157.916 68.1641 161.311 72.5632C164.646 76.8979 164.384 63.1352 162.157 60.0645Z" fill="white"/>
<path opacity="0.1" d="M163.928 70.7704C163.84 71.9787 163.646 73.1768 163.349 74.3513C161.256 73.8457 158.588 72.5356 156.012 70.0211C156.012 70.0211 159.319 68.7387 163.928 70.7704Z" fill="black"/>
<path d="M175.663 83.5908C174.95 82.175 169.545 81.2924 169.545 81.2924C169.545 81.2924 169.448 78.0471 168.041 75.9969C166.633 73.9468 160.589 70.2602 156.969 70.0533C153.348 69.8465 145.653 71.0416 145.653 71.0416L140.303 82.1061C140.303 82.1061 140.303 82.1704 140.303 82.2899C139.767 83.9231 139.484 85.628 139.461 87.3464L139.87 86.9648C139.87 86.9648 139.567 90.2148 140.767 92.3385L141.186 91.8788C141.778 92.7798 142.501 93.5884 143.33 94.2783C144.769 95.5838 147.01 96.7744 150.943 97.2202C155.543 97.7397 161.109 99.3302 164.503 99.2061C172.126 98.9302 172.521 91.3364 172.521 91.3364C176.597 91.534 176.376 85.002 175.663 83.5908Z" fill="#DDAF89"/>
<path opacity="0.3" d="M172.503 91.3226C172.503 91.3226 172.108 98.9165 164.486 99.1923C161.091 99.3164 155.506 97.7259 150.925 97.2065C147.006 96.7468 144.752 95.57 143.312 94.2645C142.483 93.5729 141.76 92.7646 141.164 91.865L140.75 92.3247C139.549 90.1964 139.83 86.9465 139.83 86.9465L139.425 87.328C139.448 85.6097 139.732 83.9048 140.267 82.2715C140.267 82.152 140.267 82.0877 140.267 82.0877L145.616 71.0232L146.012 70.9635C146.398 70.9083 147.065 70.8118 147.884 70.7061C150.437 70.3659 154.563 69.9016 156.932 70.0349C160.553 70.2418 166.592 73.8962 168.005 75.9786C168.998 77.4265 169.339 79.4721 169.454 80.5477C169.5 81.0074 169.509 81.274 169.509 81.274C169.509 81.274 174.914 82.1658 175.631 83.5724C176.349 84.979 176.597 91.534 172.503 91.3226Z" fill="white"/>
<path opacity="0.6" d="M174.661 90.5595C174.374 90.833 174.031 91.0422 173.657 91.173C173.283 91.3038 172.885 91.3532 172.489 91.318C172.489 91.318 172.227 96.3515 168.014 98.3694C166.903 98.8873 165.697 99.166 164.472 99.1877C161.077 99.3118 155.492 97.7213 150.911 97.2019C146.992 96.7422 144.738 95.5654 143.298 94.2599C143.514 93.2349 143.965 91.4789 144.705 90.3481L143.574 90.3941C143.574 90.3941 143.045 88.0543 148.592 86.8959C154.14 85.7375 158.381 83.1587 159.688 81.8027C160.994 80.4466 160.355 75.3672 159.568 74.5214C158.781 73.6756 157.148 73.1653 157.553 72.6183C157.958 72.0713 160.442 73.6296 161.334 75.2799C162.227 76.9301 163.97 80.7362 164.637 81.1821C166.269 81.1342 167.903 81.1679 169.532 81.2832C169.532 81.2832 174.937 82.175 175.654 83.5816C176.215 84.6803 176.473 88.8219 174.661 90.5595Z" fill="white"/>
<path d="M155.892 80.419C155.708 81.4257 154.912 82.1061 154.112 81.9452C153.312 81.7843 152.801 80.8419 152.976 79.8307C153.151 78.8194 153.951 78.1253 154.761 78.2861C155.57 78.447 156.076 79.4032 155.892 80.419Z" fill="#263238"/>
<path d="M167.788 78.6723C168.032 79.679 167.646 80.6351 166.928 80.8144C166.21 80.9937 165.433 80.3317 165.189 79.3296C164.945 78.3275 165.323 77.3576 166.045 77.1737C166.767 76.9899 167.549 77.6656 167.788 78.6723Z" fill="#263238"/>
<path d="M175.208 83.5081C173.667 82.3497 170.475 82.791 169.43 84.4642C168.561 85.8432 173.216 87.682 173.216 87.682C173.216 87.682 176.307 84.3493 175.208 83.5081Z" fill="#263238"/>
<path opacity="0.1" d="M174.66 90.5595C174.373 90.833 174.031 91.0422 173.657 91.173C173.282 91.3038 172.884 91.3532 172.489 91.318C172.489 91.318 172.227 96.3515 168.013 98.3694C162.788 97.8224 160.019 93.313 160.019 93.313C165.663 94.3243 172.498 90.5549 172.498 90.5549C172.83 90.734 173.2 90.8277 173.577 90.8277C173.954 90.8277 174.324 90.734 174.656 90.5549L174.66 90.5595Z" fill="black"/>
<path d="M173.487 91.0652C173.102 91.0437 172.73 90.9094 172.42 90.679C172.402 90.6674 172.387 90.6521 172.375 90.6342C172.363 90.6162 172.355 90.596 172.351 90.5748C172.347 90.5536 172.348 90.5319 172.353 90.5109C172.358 90.49 172.367 90.4703 172.38 90.4532C172.393 90.436 172.41 90.4218 172.429 90.4113C172.448 90.4008 172.468 90.3943 172.49 90.3922C172.511 90.3901 172.533 90.3924 172.553 90.3991C172.574 90.4057 172.593 90.4165 172.609 90.4308C172.905 90.6513 173.27 90.7603 173.639 90.7388C173.659 90.7348 173.68 90.7348 173.701 90.7389C173.721 90.743 173.74 90.751 173.757 90.7626C173.774 90.7741 173.789 90.7889 173.8 90.8061C173.812 90.8234 173.819 90.8427 173.823 90.8629C173.827 90.8831 173.827 90.904 173.823 90.9242C173.819 90.9444 173.811 90.9636 173.799 90.9807C173.788 90.9978 173.773 91.0124 173.756 91.0238C173.739 91.0351 173.719 91.0429 173.699 91.0468C173.629 91.0596 173.558 91.0657 173.487 91.0652Z" fill="#263238"/>
<path d="M171.307 91.3226C171.307 91.3226 171.247 96.2274 166.812 96.232C164.264 96.232 161.329 93.7221 161.329 93.7221C164.754 93.4089 168.114 92.6007 171.307 91.3226Z" fill="#263238"/>
<path d="M163.62 93.7175C164.67 95.3645 165.879 96.9042 167.231 98.3143C169.14 100.227 171.44 97.2984 168.998 92.2419C167.242 92.8594 165.445 93.3525 163.62 93.7175Z" fill="#DDAF89"/>
<path d="M161.923 93.837C161.357 93.8591 160.792 93.7733 160.258 93.5842L160.005 93.4831C159.471 93.3273 158.975 93.0659 158.545 92.7145C158.115 92.3631 157.761 91.9288 157.502 91.4375C157.484 91.3997 157.481 91.3562 157.495 91.3166C157.509 91.2769 157.538 91.2444 157.576 91.2261C157.614 91.2078 157.657 91.2053 157.697 91.219C157.736 91.2328 157.769 91.2618 157.787 91.2996C158.03 91.7543 158.361 92.1557 158.762 92.4802C159.163 92.8047 159.624 93.0456 160.12 93.1889L160.377 93.2946C162.705 94.2645 171.095 91.8099 172.402 90.4446C173.602 89.1943 172.793 86.142 172.783 86.1099C172.778 86.0899 172.776 86.0691 172.779 86.0486C172.781 86.0281 172.788 86.0082 172.798 85.9903C172.808 85.9723 172.822 85.9566 172.839 85.944C172.855 85.9313 172.874 85.9221 172.894 85.9168C172.914 85.9112 172.935 85.9097 172.955 85.9122C172.976 85.9148 172.995 85.9214 173.013 85.9316C173.031 85.9419 173.047 85.9556 173.06 85.972C173.072 85.9884 173.082 86.0071 173.087 86.0271C173.124 86.1604 173.952 89.2862 172.627 90.6653C171.574 91.7823 165.414 93.837 161.923 93.837Z" fill="#263238"/>
<path d="M168.009 95.6711C167.975 95.6714 167.941 95.6602 167.914 95.6394C167.886 95.6187 167.867 95.5894 167.857 95.5562C167.585 94.6613 167.155 93.8222 166.588 93.0786C166.575 93.0626 166.565 93.0442 166.559 93.0244C166.553 93.0047 166.551 92.984 166.554 92.9635C166.556 92.943 166.562 92.9231 166.572 92.905C166.582 92.8869 166.595 92.8709 166.611 92.8579C166.627 92.8449 166.645 92.8352 166.665 92.8294C166.685 92.8235 166.705 92.8216 166.726 92.8237C166.746 92.8259 166.766 92.832 166.784 92.8418C166.803 92.8516 166.819 92.8649 166.832 92.8809C167.429 93.6555 167.879 94.5325 168.161 95.4689C168.172 95.5097 168.167 95.5534 168.146 95.5904C168.126 95.6274 168.091 95.6548 168.051 95.6666L168.009 95.6711Z" fill="#263238"/>
<path opacity="0.1" d="M147.92 70.7153C147.896 71.287 147.729 71.8435 147.433 72.3333L146.053 70.9543C146.435 70.9175 147.102 70.821 147.92 70.7153Z" fill="black"/>
<path d="M147.437 72.3333C147.437 72.3333 144.972 62.6801 138.955 59.2877C136.411 57.8489 136.512 80.2628 142.005 84.717C147.396 89.084 147.437 72.3333 147.437 72.3333Z" fill="#DDAF89"/>
<path opacity="0.3" d="M147.437 72.3333C147.437 72.3333 144.972 62.6801 138.955 59.2877C136.411 57.8489 136.512 80.2628 142.005 84.717C147.396 89.084 147.437 72.3333 147.437 72.3333Z" fill="white"/>
<path opacity="0.6" d="M139.12 60.3863C139.309 59.6554 143.72 68.5088 144.332 73.6664C144.93 78.7229 141.246 82.0371 141.246 82.0371C141.246 82.0371 135.739 73.7262 139.12 60.3863Z" fill="white"/>
<path opacity="0.2" d="M169.201 89.0242C169.201 89.0706 169.187 89.1159 169.161 89.1545C169.135 89.193 169.099 89.2231 169.056 89.2408C169.013 89.2585 168.966 89.2632 168.92 89.2541C168.875 89.2451 168.833 89.2228 168.8 89.19C168.767 89.1572 168.745 89.1154 168.736 89.0699C168.727 89.0245 168.732 88.9773 168.749 88.9345C168.767 88.8917 168.797 88.855 168.836 88.8293C168.874 88.8035 168.92 88.7898 168.966 88.7898C169.028 88.7898 169.088 88.8145 169.132 88.8584C169.176 88.9024 169.201 88.962 169.201 89.0242Z" fill="black"/>
<path opacity="0.2" d="M174.859 89.9987C174.794 90.109 174.711 90.178 174.67 90.155C174.629 90.132 174.642 90.0217 174.707 89.9114C174.771 89.8011 174.859 89.7275 174.9 89.7505C174.941 89.7735 174.923 89.8838 174.859 89.9987Z" fill="black"/>
<path opacity="0.2" d="M175.833 87.8199C175.833 87.9486 175.764 88.0451 175.718 88.0405C175.673 88.0359 175.645 87.9256 175.659 87.7969C175.673 87.6682 175.728 87.5716 175.773 87.5762C175.819 87.5808 175.847 87.6912 175.833 87.8199Z" fill="black"/>
<path opacity="0.2" d="M174.697 88.5645C174.697 88.6932 174.628 88.7944 174.582 88.7852C174.537 88.776 174.504 88.6703 174.523 88.5461C174.541 88.422 174.587 88.3163 174.637 88.3255C174.688 88.3347 174.711 88.445 174.697 88.5645Z" fill="black"/>
<path opacity="0.2" d="M167.949 90.5549C167.949 90.6013 167.935 90.6466 167.909 90.6852C167.883 90.7237 167.847 90.7538 167.804 90.7715C167.761 90.7893 167.714 90.7939 167.668 90.7849C167.623 90.7758 167.581 90.7535 167.548 90.7207C167.515 90.6879 167.493 90.6461 167.484 90.6007C167.475 90.5552 167.48 90.508 167.497 90.4652C167.515 90.4224 167.545 90.3858 167.584 90.36C167.622 90.3342 167.668 90.3205 167.714 90.3205C167.776 90.3205 167.836 90.3452 167.88 90.3891C167.924 90.4331 167.949 90.4927 167.949 90.5549Z" fill="black"/>
<path opacity="0.2" d="M166.955 88.5645C166.944 88.6176 166.916 88.6654 166.874 88.6997C166.832 88.734 166.779 88.7528 166.725 88.7528C166.671 88.7528 166.618 88.734 166.576 88.6997C166.535 88.6654 166.506 88.6176 166.495 88.5645C166.506 88.5114 166.535 88.4637 166.576 88.4294C166.618 88.395 166.671 88.3763 166.725 88.3763C166.779 88.3763 166.832 88.395 166.874 88.4294C166.916 88.4637 166.944 88.5114 166.955 88.5645Z" fill="black"/>
<path opacity="0.2" d="M165.447 90.4768C165.576 90.4768 165.681 90.3718 165.681 90.2424C165.681 90.1129 165.576 90.0079 165.447 90.0079C165.317 90.0079 165.212 90.1129 165.212 90.2424C165.212 90.3718 165.317 90.4768 165.447 90.4768Z" fill="black"/>
<path opacity="0.2" d="M164.219 91.3226C164.208 91.3757 164.179 91.4234 164.137 91.4578C164.096 91.4921 164.043 91.5108 163.989 91.5108C163.935 91.5108 163.882 91.4921 163.84 91.4578C163.798 91.4234 163.769 91.3757 163.759 91.3226C163.769 91.2695 163.798 91.2217 163.84 91.1874C163.882 91.1531 163.935 91.1343 163.989 91.1343C164.043 91.1343 164.096 91.1531 164.137 91.1874C164.179 91.2217 164.208 91.2695 164.219 91.3226Z" fill="black"/>
<path opacity="0.2" d="M161.813 90.5549C161.942 90.5549 162.047 90.45 162.047 90.3205C162.047 90.191 161.942 90.0861 161.813 90.0861C161.683 90.0861 161.578 90.191 161.578 90.3205C161.578 90.45 161.683 90.5549 161.813 90.5549Z" fill="black"/>
<path opacity="0.2" d="M163.984 89.0242C163.984 89.0864 163.959 89.146 163.915 89.19C163.871 89.234 163.811 89.2587 163.749 89.2587C163.696 89.248 163.648 89.2193 163.614 89.1774C163.579 89.1355 163.561 89.083 163.561 89.0288C163.561 88.9747 163.579 88.9222 163.614 88.8803C163.648 88.8384 163.696 88.8097 163.749 88.799C163.81 88.7989 163.868 88.8224 163.912 88.8644C163.955 88.9063 163.981 88.9636 163.984 89.0242Z" fill="black"/>
<path opacity="0.1" d="M169.545 81.2832C169.545 81.2832 163.845 80.8971 161.329 81.7429C161.329 81.7429 163.601 79.9042 169.489 80.5662C169.535 81.0028 169.545 81.2832 169.545 81.2832Z" fill="black"/>
<path d="M158.482 113.235C158.482 113.235 154.439 118.375 154.057 121.969H154.977C154.1 124.439 153.772 127.069 154.015 129.678C154.015 129.678 150.795 129.825 146.444 129.577C139.084 129.154 136.673 132.032 138.987 137.64H173.138C173.138 137.64 176.077 134.969 176.022 133.204L176.27 135.53C176.27 135.53 180.516 130.836 180.438 126.75C180.36 122.663 173.519 102.612 158.482 113.235Z" fill="#DDAF89"/>
<path opacity="0.3" d="M180.434 126.718C180.512 130.804 176.266 135.498 176.266 135.498L176.018 133.176C176.073 134.937 173.133 137.608 173.133 137.608H138.983C136.683 131.999 139.075 129.122 146.44 129.545C150.796 129.793 154.011 129.641 154.011 129.641C153.768 127.034 154.096 124.405 154.973 121.937H154.053C154.435 118.361 158.478 113.203 158.478 113.203C173.52 102.612 180.351 122.645 180.434 126.718Z" fill="white"/>
<path opacity="0.1" d="M154.011 129.66C158.376 129.531 161.15 131.195 161.477 132.877C161.477 132.877 160.662 130.243 159.839 129.66H161.136C159.945 128.721 158.461 128.233 156.946 128.281C156.383 128.271 155.827 128.391 155.318 128.63C154.809 128.869 154.362 129.221 154.011 129.66Z" fill="black"/>
<path opacity="0.1" d="M142.461 137.621H141.343C141.343 137.621 139.351 134.165 141.117 132.243C141.127 132.445 140.961 135.911 142.461 137.621Z" fill="black"/>
<path opacity="0.1" d="M146.545 137.621H144.968C144.871 137.437 143.358 134.45 144.715 132.859C144.715 132.859 144.761 135.948 146.545 137.621Z" fill="black"/>
<path opacity="0.1" d="M151.269 137.621H149.82C149.82 137.621 150.92 136.518 150.423 135.714C150.4 135.714 151.803 135.948 151.269 137.621Z" fill="black"/>
<path opacity="0.1" d="M238.669 127.527C238.881 127.527 239.093 127.49 239.304 127.467C239.017 127.548 238.717 127.571 238.421 127.536L238.669 127.527Z" fill="black"/>
<path d="M256.715 132.045L255.119 130.961C255.119 130.961 256.853 135.948 251.867 137.621H223.48C223.112 137.447 218.733 135.259 217.988 130.496C217.988 130.496 218.508 131.172 219.989 131.342C218.895 129.661 218.159 127.774 217.827 125.797C217.495 123.82 217.573 121.796 218.057 119.85C218.057 119.85 222.197 123.436 227.147 124.778L226.539 122.627C227.074 123.077 227.631 123.499 228.209 123.891C228.301 123.96 228.402 124.029 228.508 124.098C228.968 124.41 229.506 124.75 230.095 125.086C230.206 125.155 230.321 125.219 230.44 125.284L230.656 125.398C230.767 125.463 230.882 125.523 230.997 125.578C231.19 125.683 231.388 125.785 231.59 125.877L232.05 126.102C232.174 126.157 232.299 126.217 232.423 126.263C232.662 126.368 232.906 126.47 233.154 126.561C233.297 126.617 233.444 126.672 233.591 126.718C233.738 126.764 233.84 126.81 233.964 126.846L234.047 126.879L234.369 126.975H234.396C234.918 127.129 235.448 127.255 235.983 127.352L236.31 127.407L236.471 127.43L236.779 127.467C236.852 127.479 236.926 127.487 237 127.49C237.133 127.49 237.262 127.513 237.391 127.522C237.728 127.543 238.066 127.543 238.403 127.522H238.651C238.863 127.522 239.074 127.485 239.286 127.462L237.363 124.222C239.027 122.283 241.386 121.073 243.932 120.852L243.371 122.737C243.371 122.737 249.171 121.39 253.261 124.842C257.35 128.294 256.715 132.045 256.715 132.045Z" fill="#DDAF89"/>
<path opacity="0.3" d="M256.715 132.045L255.119 130.961C255.119 130.961 256.853 135.948 251.867 137.621H223.48C223.112 137.447 218.733 135.259 217.988 130.496C217.988 130.496 218.508 131.172 219.989 131.342C218.895 129.661 218.159 127.774 217.827 125.797C217.495 123.82 217.573 121.796 218.057 119.85C218.057 119.85 222.197 123.436 227.147 124.778L226.539 122.627C227.074 123.077 227.631 123.499 228.209 123.891C228.301 123.96 228.402 124.029 228.508 124.098C228.968 124.41 229.506 124.75 230.095 125.086L230.44 125.284L230.656 125.398C230.767 125.463 230.882 125.518 230.997 125.578C231.19 125.683 231.388 125.785 231.59 125.877L232.05 126.102L232.423 126.263C232.662 126.368 232.906 126.47 233.154 126.561C233.297 126.617 233.444 126.672 233.591 126.718C233.738 126.764 233.84 126.81 233.964 126.846L234.047 126.879L234.369 126.975H234.396C234.918 127.129 235.448 127.255 235.983 127.352L236.31 127.407L236.471 127.43C236.572 127.43 236.678 127.462 236.779 127.467C236.852 127.479 236.926 127.487 237 127.49C237.129 127.49 237.262 127.513 237.391 127.522C237.728 127.543 238.066 127.543 238.403 127.522H238.651C238.863 127.522 239.074 127.485 239.286 127.462L237.363 124.222C239.027 122.283 241.386 121.073 243.932 120.852L243.371 122.737C243.371 122.737 249.171 121.39 253.261 124.842C257.35 128.294 256.715 132.045 256.715 132.045Z" fill="white"/>
<path opacity="0.1" d="M243.136 125.302C241.89 127.21 239.305 127.467 239.305 127.467L237.382 124.226C240.528 123.004 242.442 124.461 242.442 124.461C242.708 124.193 242.884 123.849 242.948 123.477C242.948 123.477 244.378 123.403 243.136 125.302Z" fill="black"/>
<path opacity="0.6" d="M238.338 133.87C238.338 133.87 237.165 135.737 230.224 134.978C231.011 135.566 231.914 135.98 232.874 136.192C232.874 136.192 232.105 137.065 230.141 137.621H223.48C223.112 137.447 218.733 135.259 217.988 130.496C217.988 130.496 218.508 131.172 219.989 131.342C218.895 129.661 218.159 127.774 217.827 125.797C217.495 123.82 217.573 121.796 218.057 119.85C218.057 119.85 222.197 123.436 227.147 124.778L226.539 122.627C226.539 122.627 230.058 125.693 234.415 126.984C235.06 127.713 235.841 128.309 236.715 128.74C236.715 128.74 233.683 128.897 232.161 128.198C232.161 128.193 232.809 132.082 238.338 133.87Z" fill="white"/>
<path d="M113.135 127.688C113.13 127.363 113.2 127.043 113.34 126.75C113.48 126.457 113.685 126.201 113.94 126.001C114.217 125.831 114.536 125.744 114.86 125.748C114.86 125.748 114.492 125.012 115.78 124.948C117.068 124.884 116.571 124.792 116.994 124.235C117.418 123.679 118.632 123.891 118.632 123.891C118.632 123.891 118.328 123.38 120.012 122.971C121.696 122.562 122.105 123.394 122.105 123.394C122.105 123.394 122.675 122.613 123.407 122.971C123.64 123.111 123.842 123.297 124 123.517C124.158 123.738 124.27 123.989 124.327 124.254C124.43 124.149 124.552 124.066 124.688 124.009C124.823 123.952 124.969 123.922 125.116 123.922C125.263 123.922 125.408 123.952 125.544 124.009C125.679 124.066 125.802 124.149 125.905 124.254L126.691 125.031C127.167 125.069 127.626 125.228 128.025 125.49C128.632 125.9 128.485 125.9 128.945 125.9C129.378 125.817 129.824 125.829 130.252 125.936C130.708 126.124 131.076 126.477 131.282 126.925C132.124 128.345 113.135 127.688 113.135 127.688Z" fill="#DDAF89"/>
<path d="M136.066 137.621H108.223L110.26 127.136C110.284 127.012 110.333 126.894 110.404 126.79C110.475 126.685 110.567 126.597 110.674 126.529C110.824 126.433 110.998 126.382 111.176 126.382H133.113C133.228 126.382 133.342 126.404 133.449 126.447C133.597 126.502 133.728 126.595 133.829 126.716C133.931 126.836 133.999 126.981 134.029 127.136L134.489 129.572L134.949 131.894L135.215 133.273L135.537 134.909L136.066 137.621Z" fill="#263238"/>
<path opacity="0.4" d="M135.561 134.914H123.141C122.416 134.903 121.721 134.624 121.19 134.131C120.659 133.637 120.329 132.965 120.266 132.243C120.266 132.174 120.266 132.101 120.266 132.032C120.262 131.706 120.324 131.384 120.447 131.083C120.57 130.782 120.752 130.509 120.983 130.279C121.214 130.05 121.488 129.869 121.79 129.748C122.092 129.627 122.415 129.567 122.741 129.572H134.503L134.963 131.894L135.23 133.273L135.561 134.914Z" fill="white"/>
<g opacity="0.4">
<path d="M124.746 131.103L124.286 132.39L123.642 131.103H123.219L124.111 132.845V132.914C124.047 133.089 123.964 133.153 123.821 133.153C123.707 133.153 123.598 133.11 123.513 133.034L123.375 133.333C123.507 133.435 123.668 133.491 123.835 133.493C124.12 133.493 124.337 133.374 124.465 132.979L125.132 131.103H124.746Z" fill="black"/>
<path d="M127.069 131.103H126.664L126.733 131.981C126.761 132.33 126.582 132.505 126.273 132.505C125.965 132.505 125.855 132.358 125.813 132.045L125.744 131.126H125.335L125.413 132.119C125.41 132.224 125.428 132.328 125.468 132.426C125.508 132.523 125.567 132.611 125.643 132.683C125.719 132.756 125.81 132.811 125.909 132.846C126.008 132.881 126.113 132.895 126.218 132.887C126.321 132.891 126.424 132.871 126.518 132.829C126.612 132.786 126.696 132.723 126.761 132.643V132.864H127.147L127.069 131.103Z" fill="black"/>
<path d="M130.565 131.848C130.555 131.692 130.498 131.544 130.402 131.421C130.307 131.297 130.177 131.205 130.029 131.156C129.881 131.107 129.722 131.103 129.572 131.144C129.422 131.185 129.287 131.27 129.185 131.388C129.115 131.294 129.024 131.218 128.918 131.168C128.812 131.117 128.695 131.093 128.578 131.098C128.473 131.093 128.369 131.112 128.273 131.154C128.177 131.197 128.092 131.261 128.026 131.342V131.117H127.64L127.773 132.854H128.178L128.113 131.972C128.086 131.627 128.256 131.452 128.523 131.452C128.79 131.452 128.928 131.604 128.951 131.912L129.02 132.854H129.429L129.36 131.972C129.332 131.627 129.507 131.452 129.774 131.452C130.041 131.452 130.174 131.604 130.197 131.912L130.271 132.854H130.676L130.565 131.848Z" fill="black"/>
<path d="M133.987 131.848C133.976 131.692 133.92 131.544 133.824 131.421C133.729 131.297 133.599 131.205 133.451 131.156C133.303 131.107 133.144 131.103 132.994 131.144C132.844 131.185 132.709 131.27 132.607 131.388C132.537 131.294 132.445 131.218 132.34 131.168C132.234 131.117 132.117 131.093 132 131.098C131.895 131.093 131.791 131.112 131.695 131.154C131.599 131.197 131.514 131.261 131.448 131.342V131.117H131.062L131.195 132.854H131.6L131.535 131.972C131.508 131.627 131.678 131.452 131.945 131.452C132.212 131.452 132.35 131.604 132.373 131.912L132.442 132.854H132.8L132.731 131.972C132.704 131.627 132.879 131.452 133.145 131.452C133.412 131.452 133.546 131.604 133.569 131.912L133.642 132.854H134.047L133.987 131.848Z" fill="black"/>
<path d="M134.954 131.894L134.558 131.103H134.135L135.023 132.845L135 132.914C134.935 133.089 134.857 133.153 134.714 133.153C134.6 133.153 134.491 133.11 134.406 133.034L134.264 133.333C134.396 133.434 134.557 133.49 134.724 133.493C134.812 133.497 134.9 133.48 134.98 133.442C135.06 133.404 135.13 133.348 135.184 133.277L134.954 131.894Z" fill="black"/>
</g>
<path opacity="0.2" d="M130.302 125.9C130.248 125.969 130.181 126.029 130.105 126.074C129.944 126.153 129.768 126.193 129.589 126.194C128.81 126.195 128.034 126.077 127.289 125.844L126.774 125.711C126.726 125.7 126.676 125.7 126.627 125.711C126.53 125.711 126.448 125.812 126.351 125.798C126.254 125.785 126.213 125.711 126.135 125.679C125.937 125.605 125.744 125.872 125.537 125.835C125.475 125.817 125.415 125.794 125.357 125.766C125.267 125.755 125.176 125.755 125.086 125.766C124.899 125.772 124.714 125.727 124.552 125.634C124.39 125.542 124.256 125.406 124.166 125.242C123.899 125.627 123.499 125.9 123.044 126.01C122.816 126.057 122.579 126.029 122.368 125.931C122.158 125.832 121.985 125.668 121.875 125.463C121.843 125.389 121.815 125.302 121.742 125.265C121.668 125.228 121.53 125.302 121.47 125.398C121.43 125.499 121.376 125.593 121.309 125.679C121.195 125.762 121.055 125.801 120.914 125.789C120.294 125.871 119.664 125.743 119.124 125.426C119.094 125.393 119.057 125.367 119.016 125.349C118.975 125.332 118.93 125.323 118.885 125.325C118.802 125.325 118.752 125.417 118.701 125.481C118.558 125.665 118.379 125.819 118.175 125.933C117.972 126.048 117.747 126.12 117.515 126.147C117.283 126.174 117.048 126.155 116.824 126.09C116.599 126.026 116.39 125.917 116.208 125.771C116.141 125.862 116.042 125.925 115.931 125.948C115.819 125.971 115.704 125.952 115.605 125.895C115.555 125.863 115.509 125.817 115.449 125.817C115.389 125.817 115.316 125.877 115.256 125.927C115.056 126.046 114.832 126.116 114.601 126.134C114.369 126.152 114.137 126.115 113.922 126.028C114.199 125.859 114.517 125.771 114.842 125.775C114.842 125.775 114.474 125.04 115.762 124.976C117.05 124.911 116.553 124.819 116.976 124.263C117.399 123.707 118.614 123.918 118.614 123.918C118.614 123.918 118.31 123.408 119.994 122.999C121.677 122.59 122.087 123.422 122.087 123.422C122.087 123.422 122.657 122.64 123.389 122.999C123.622 123.138 123.824 123.324 123.982 123.545C124.14 123.765 124.251 124.016 124.309 124.281C124.411 124.177 124.534 124.093 124.67 124.036C124.805 123.979 124.951 123.95 125.098 123.95C125.245 123.95 125.39 123.979 125.525 124.036C125.661 124.093 125.784 124.177 125.886 124.281L126.673 125.058C127.149 125.097 127.608 125.255 128.007 125.518C128.614 125.927 128.467 125.927 128.927 125.927C129.377 125.813 129.848 125.803 130.302 125.9Z" fill="white"/>
<path opacity="0.1" d="M133.459 126.529C133.457 126.737 133.374 126.937 133.227 127.084C133.08 127.231 132.88 127.314 132.672 127.315H111.461C111.253 127.314 111.054 127.231 110.907 127.084C110.759 126.937 110.676 126.737 110.675 126.529C110.824 126.433 110.998 126.382 111.176 126.382H133.114C133.229 126.382 133.343 126.404 133.449 126.447C133.457 126.473 133.46 126.501 133.459 126.529Z" fill="white"/>
</svg>
