<svg width="170" height="170" viewBox="0 0 170 170" fill="none" xmlns="http://www.w3.org/2000/svg">
<g clip-path="url(#clip0_223_14046)">
<path d="M48.418 147.661C45.5231 147.661 42.5374 146.995 39.3532 145.695C36.7852 144.646 35.5543 141.715 36.6023 139.147C37.6516 136.579 40.5841 135.348 43.1509 136.396C47.8654 138.322 52.1546 139.074 60.7252 130.009C62.6305 127.995 65.8094 127.906 67.8249 129.812C69.8405 131.717 69.9287 134.895 68.0234 136.911C61.1246 144.206 55.008 147.661 48.418 147.661Z" fill="#495059"/>
<path d="M67.0543 167.509C64.3786 167.509 61.9 165.786 61.0621 163.096C57.9584 153.126 58.2697 144.949 62.0141 138.103C63.6769 135.061 67.4914 133.943 70.5328 135.607C73.5756 137.27 74.6923 141.084 73.0295 144.126C71.0049 147.83 71.0114 152.814 73.0503 159.364C74.0801 162.674 72.2332 166.193 68.9219 167.224C68.3007 167.417 67.6729 167.509 67.0543 167.509Z" fill="#DDAF89"/>
<path d="M96.6122 165.288C95.5629 165.288 94.4994 165.026 93.5215 164.472C90.506 162.762 89.4463 158.931 91.1557 155.914C93.3555 152.031 92.1985 147.405 90.4333 145.926C87.7758 143.7 87.4269 139.741 89.6538 137.083C91.8808 134.426 95.8405 134.078 98.498 136.304C104.564 141.387 107.563 152.428 102.079 162.105C100.923 164.144 98.799 165.288 96.6122 165.288Z" fill="#DDAF89"/>
<path d="M30.4474 129.243C28.5019 129.243 26.5836 128.342 25.3553 126.646C23.3243 123.836 23.9533 119.912 26.7626 117.879C35.0037 111.917 46.1021 110.689 57.2135 114.508C60.4923 115.635 62.2355 119.207 61.1084 122.486C59.9813 125.765 56.4094 127.509 53.1318 126.382C45.9361 123.908 39.0062 124.517 34.1218 128.051C33.0089 128.856 31.7223 129.243 30.4474 129.243Z" fill="#DDAF89"/>
<path d="M112.853 127.333C110.486 127.333 108.051 127.09 105.593 126.602C102.192 125.928 99.9819 122.625 100.658 119.223C101.332 115.822 104.637 113.613 108.036 114.287C110.909 114.857 120.609 116.154 124.847 108.902C126.595 105.908 130.439 104.9 133.433 106.648C136.428 108.397 137.435 112.241 135.687 115.234C132.681 120.381 127.991 124.089 122.124 125.955C119.244 126.872 116.113 127.333 112.853 127.333Z" fill="#DDAF89"/>
<path d="M108.036 114.287C104.637 113.613 101.332 115.823 100.658 119.224C99.9819 122.624 102.192 125.928 105.593 126.602C108.051 127.09 110.486 127.332 112.853 127.332C113.283 127.332 113.709 127.323 114.133 127.308C114.727 125.011 115.043 122.615 115.043 120.155C115.043 118.29 114.862 116.464 114.517 114.689C111.748 114.906 109.266 114.531 108.036 114.287Z" fill="#D1A582"/>
<path d="M98.498 136.304C95.8405 134.077 91.8808 134.426 89.6538 137.084C87.4269 139.741 87.7758 143.7 90.4333 145.927C91.2375 146.601 91.9145 147.928 92.2063 149.541C96.4021 148.199 100.227 146.126 103.495 143.491C102.355 140.578 100.615 138.077 98.498 136.304Z" fill="#D1A582"/>
<path d="M70.5331 135.607C67.4916 133.943 63.6759 135.061 62.0131 138.103C60.9327 140.078 60.1403 142.163 59.6318 144.371C63.1039 146.934 67.135 148.888 71.5305 150.052C71.6057 147.791 72.1012 145.822 73.0285 144.126C74.6913 141.084 73.5746 137.27 70.5331 135.607Z" fill="#D1A582"/>
<path d="M57.213 114.508C54.1171 113.443 51.0224 112.772 47.99 112.484C47.3078 114.94 46.9434 117.508 46.9434 120.154C46.9434 121.82 47.0886 123.456 47.3662 125.052C49.2455 125.273 51.1768 125.71 53.1313 126.382C56.4088 127.509 59.9808 125.764 61.1079 122.486C62.235 119.207 60.4918 115.635 57.213 114.508Z" fill="#D1A582"/>
<path d="M111.596 120.154C111.596 104.87 97.8944 92.4785 80.9933 92.4785C64.0921 92.4785 50.3906 104.87 50.3906 120.154C50.3906 135.439 64.0921 147.829 80.9933 147.829C97.8944 147.829 111.596 135.439 111.596 120.154Z" fill="#DDAF89"/>
<path d="M108.633 102.385C101.134 108.608 91.5007 112.351 80.9938 112.351C70.4868 112.351 60.854 108.608 53.3548 102.385C51.7595 104.45 50.43 106.699 49.4223 109.093C48.0487 112.353 49.3146 116.133 52.3664 117.924C60.7671 122.855 70.5491 125.684 80.9938 125.684C91.4385 125.684 101.22 122.855 109.621 117.924C112.672 116.133 113.939 112.353 112.565 109.093C111.558 106.699 110.228 104.45 108.633 102.385Z" fill="#7F9AE6"/>
<path d="M67.0558 110.058C62.0053 108.342 57.3724 105.719 53.353 102.385C51.759 104.45 50.4296 106.699 49.4205 109.093C48.0483 112.353 49.3141 116.133 52.366 117.924C56.733 120.488 61.4774 122.477 66.4916 123.802C64.6524 120.111 65.1725 114.569 67.0558 110.058Z" fill="#5E78BF"/>
<path d="M68.1366 61.1794C66.7436 61.1794 65.3376 60.754 64.1249 59.8734L55.7126 53.7632C52.0291 51.0862 47.0603 51.3093 43.6311 54.3041L38.1227 59.112C35.2784 61.5958 30.9594 61.3027 28.477 58.4596C25.9932 55.6153 26.2863 51.2963 29.1307 48.8126L34.6377 44.0033C38.6104 40.5364 43.6985 38.4963 48.9656 38.2602C54.2327 38.0255 59.483 39.6013 63.7488 42.6998L72.1598 48.81C75.2156 51.0291 75.8926 55.3053 73.6734 58.3598C72.3362 60.2015 70.2507 61.1794 68.1366 61.1794Z" fill="#495059"/>
<path d="M93.8498 61.1792C91.7357 61.1792 89.6514 60.2013 88.3129 58.3596C86.095 55.3038 86.7721 51.0289 89.8265 48.8098L98.2388 42.6996C102.505 39.6011 107.756 38.0265 113.022 38.26C118.289 38.496 123.377 40.5362 127.349 44.0031L132.857 48.8124C135.701 51.2961 135.993 55.6151 133.511 58.4594C131.027 61.3037 126.708 61.5956 123.864 59.1118L118.357 54.3038C114.926 51.3091 109.958 51.0873 106.275 53.763L97.8627 59.8732C96.65 60.7538 95.2427 61.1792 93.8498 61.1792Z" fill="#495059"/>
<path d="M80.9936 115.327C115.7 115.327 131.34 99.428 126.458 77.0418C121.213 52.9851 104.69 39.8154 80.9936 39.8154C57.2961 39.8154 40.7737 52.9851 35.5273 77.0418C30.6467 99.428 46.2872 115.327 80.9936 115.327Z" fill="#DDAF89"/>
<path d="M89.5423 126.762C89.5423 131.483 85.7149 135.311 80.9938 135.311C76.2728 135.311 72.4453 131.483 72.4453 126.762C72.4453 122.041 76.2728 118.214 80.9938 118.214C85.7149 118.214 89.5423 122.041 89.5423 126.762Z" fill="#F6E06A"/>
<path d="M64.3741 76.9289C64.3741 72.881 60.2549 69.5996 55.1719 69.5996C50.0903 69.5996 45.9697 72.881 45.9697 76.9289C45.9697 80.9756 50.0903 84.257 55.1719 84.257C60.2549 84.257 64.3741 80.9756 64.3741 76.9289Z" fill="#FFDBDB"/>
<path d="M116.017 76.9289C116.017 72.881 111.897 69.5996 106.814 69.5996C101.733 69.5996 97.6123 72.881 97.6123 76.9289C97.6123 80.9756 101.733 84.257 106.814 84.257C111.897 84.257 116.017 80.9756 116.017 76.9289Z" fill="#FFDBDB"/>
<path d="M85.8201 70.8706C82.6555 70.0431 79.3313 70.0431 76.1679 70.8706C74.8566 71.2143 73.7153 72.0198 72.9539 73.1404C71.9254 74.654 72.5168 76.7279 74.1874 77.471L78.8241 79.5333C80.2054 80.1467 81.7813 80.1467 83.1626 79.5333L87.7993 77.471C89.4712 76.7279 90.0613 74.654 89.0328 73.1404C88.2715 72.0198 87.1301 71.2143 85.8201 70.8706Z" fill="#495059"/>
<path d="M80.9621 88.0699C76.5964 88.0699 72.708 84.9519 70.2631 88.7975C67.7833 92.6976 73.3383 98.7455 80.9621 98.7455C88.5858 98.7455 94.1408 92.6976 91.6597 88.7975C89.2148 84.9519 85.3277 88.0699 80.9621 88.0699Z" fill="#D16283"/>
<path d="M72.0986 95.4915C74.1466 97.3618 77.3165 98.7457 80.9623 98.7457C84.6082 98.7457 87.778 97.3618 89.8247 95.4915C87.3954 94.0415 84.3176 93.1699 80.9623 93.1699C77.607 93.1699 74.5292 94.0415 72.0986 95.4915Z" fill="#EB9898"/>
<path d="M78.8833 13.9377L62.8368 46.0902C61.5632 48.6427 62.8731 51.7296 65.5942 52.5869L65.602 52.5895C75.6213 55.7438 86.3669 55.7438 96.3862 52.5895C99.1099 51.7322 100.42 48.6401 99.1411 46.0863L83.0349 13.9351C82.1776 12.2243 79.7367 12.2269 78.8833 13.9377Z" fill="#7F9AE6"/>
<path d="M91.9687 31.7701L83.0349 13.9351C82.1776 12.2243 79.7367 12.2269 78.8833 13.9377L62.8368 46.0902C62.331 47.1019 62.2389 48.1978 62.4724 49.2056C71.5604 46.9878 83.5914 41.0488 91.9687 31.7701Z" fill="#F6E06A"/>
<path d="M91.1566 12.6535C91.1566 18.2669 86.6055 22.8168 80.9933 22.8168C75.3799 22.8168 70.8301 18.2669 70.8301 12.6535C70.8301 7.0401 75.3799 2.49023 80.9933 2.49023C86.6055 2.49023 91.1566 7.0401 91.1566 12.6535Z" fill="#D16283"/>
<path d="M146.832 22.0986C156.624 22.0986 164.561 30.0376 164.561 39.8286C164.561 52.8958 156.624 64.8697 146.832 64.8697C137.039 64.8697 129.102 52.8958 129.102 39.8286C129.102 30.0376 137.039 22.0986 146.832 22.0986Z" fill="#A0D9BB"/>
<path d="M158.341 58.6142C144.488 62.9112 130.249 41.8648 138.234 24.3242C132.788 27.3501 129.102 33.1581 129.102 39.8285C129.102 52.8958 137.039 64.8696 146.832 64.8696C151.226 64.8696 155.244 62.4533 158.341 58.6142Z" fill="#78BF9B"/>
<path d="M13.7417 116.245C14.1087 116.435 14.5017 116.525 14.8882 116.525C15.7883 116.525 16.656 116.037 17.0996 115.184C18.7105 112.085 18.7105 108.385 17.0996 105.286C16.2358 103.626 16.2358 101.644 17.0996 99.9842C17.7338 98.7637 17.2591 97.2605 16.0387 96.6263C14.8195 95.9921 13.315 96.4668 12.6807 97.6872C11.0699 100.786 11.0699 104.485 12.6807 107.583C13.5445 109.243 13.5445 111.225 12.6807 112.885C12.0465 114.106 12.5212 115.609 13.7417 116.245ZM8.87794 75.4074L6.23856 78.0468C5.2671 79.0182 5.2671 80.5954 6.23856 81.5681C6.72623 82.0545 7.36305 82.2971 7.99988 82.2971C8.638 82.2971 9.27483 82.0545 9.7612 81.5681L12.4006 78.9301V82.6615C12.4006 84.0363 13.5147 85.1517 14.8908 85.1517C16.2656 85.1517 17.3811 84.0363 17.3811 82.6615V78.9301L20.0191 81.5681C20.5055 82.0545 21.1423 82.2971 21.7805 82.2971C22.4173 82.2971 23.0541 82.0545 23.5405 81.5681C24.5132 80.5954 24.5132 79.0182 23.5405 78.0468L20.9024 75.4074H24.6339C26.01 75.4074 27.1241 74.2933 27.1241 72.9172C27.1241 71.5424 26.01 70.4269 24.6339 70.4269H20.9024L23.5405 67.7888C24.5132 66.8161 24.5132 65.239 23.5405 64.2675C22.5677 63.2948 20.9919 63.2948 20.0191 64.2675L17.3811 66.9056V63.1741C17.3811 61.798 16.2656 60.6839 14.8908 60.6839C13.5147 60.6839 12.4006 61.798 12.4006 63.1741V66.9056L9.7612 64.2675C8.78845 63.2948 7.2126 63.2948 6.23985 64.2675C5.2671 65.239 5.2671 66.8161 6.23985 67.7888L8.87794 70.4269H5.14648C3.77037 70.4269 2.65625 71.5424 2.65625 72.9172C2.65625 74.2933 3.77037 75.4074 5.14648 75.4074H8.87794ZM21.9543 35.4106C22.3978 36.264 23.2655 36.7517 24.1656 36.7517C24.5522 36.7517 24.9451 36.6609 25.3122 36.4716C26.5327 35.836 27.0074 34.3328 26.3731 33.1123C25.5093 31.4535 25.5093 29.4704 26.3731 27.8102C27.984 24.7117 27.984 21.0126 26.3731 17.9141C25.7389 16.6936 24.2344 16.2189 23.0152 16.8532C21.7947 17.4874 21.32 18.9906 21.9543 20.2111C22.8181 21.8713 22.8181 23.8531 21.9543 25.5132C20.3434 28.6118 20.3434 32.3121 21.9543 35.4106ZM25.8388 144.38H22.1073L24.7454 141.741C25.7182 140.768 25.7182 139.192 24.7454 138.22C23.7727 137.247 22.1968 137.247 21.2241 138.22L18.586 140.858V137.126C18.586 135.751 17.4706 134.636 16.0957 134.636C14.7196 134.636 13.6055 135.751 13.6055 137.126V140.858L10.9661 138.22C9.99336 137.247 8.41751 137.247 7.44476 138.22C6.47202 139.192 6.47202 140.77 7.44476 141.741L10.0829 144.38H6.35139C4.97528 144.38 3.86116 145.495 3.86116 146.871C3.86116 148.245 4.97528 149.361 6.35139 149.361H10.0829L7.44476 151.999C6.47202 152.972 6.47202 154.549 7.44476 155.52C7.93114 156.007 8.56796 156.251 9.20479 156.251C9.84291 156.251 10.4797 156.007 10.9661 155.52L13.6055 152.882V156.614C13.6055 157.989 14.7196 159.104 16.0957 159.104C17.4706 159.104 18.586 157.989 18.586 156.614V152.882L21.2241 155.52C21.7104 156.007 22.3473 156.251 22.9854 156.251C23.6222 156.251 24.259 156.007 24.7454 155.52C25.7182 154.548 25.7182 152.972 24.7454 151.999L22.1073 149.361H25.8388C27.2149 149.361 28.329 148.245 28.329 146.871C28.329 145.495 27.2149 144.38 25.8388 144.38ZM119.492 27.8945C118.858 29.115 119.333 30.6182 120.553 31.2524C120.92 31.4431 121.313 31.5339 121.7 31.5339C122.599 31.5339 123.468 31.0462 123.911 30.1928C125.523 27.0943 125.523 23.3939 123.911 20.2954C123.049 18.6353 123.049 16.6534 123.911 14.9933C124.545 13.7728 124.071 12.2696 122.85 11.6354C121.631 11.0011 120.128 11.4758 119.492 12.6963C117.881 15.7948 117.881 19.4939 119.492 22.5937C120.356 24.2525 120.356 26.2344 119.492 27.8945ZM146.832 19.608C135.683 19.608 126.612 28.6792 126.612 39.8282C126.612 39.9864 126.619 40.1421 126.621 40.299C122.653 37.5792 117.962 35.9891 113.132 35.7725C108.052 35.5442 102.965 36.8529 98.6133 39.4741L89.7483 21.7766C92.149 19.4718 93.6471 16.2358 93.6471 12.6535C93.6471 5.67696 87.9701 0 80.9936 0C74.0157 0 68.3401 5.67696 68.3401 12.6535C68.3401 16.2189 69.8238 19.442 72.2051 21.7429L63.3596 39.465C59.0121 36.8503 53.9343 35.5468 48.854 35.7725C43.0266 36.0332 37.3963 38.2912 33.0008 42.1278L27.4924 46.9357C23.6196 50.3196 23.2188 56.2222 26.6014 60.0964C28.4431 62.2053 31.032 63.2844 33.6337 63.2844C35.1733 63.2844 36.7141 62.8979 38.111 62.1326C35.9216 66.44 34.2433 71.2453 33.0955 76.5112C31.7207 82.812 31.8672 88.6705 33.53 93.922C33.8659 94.983 34.8464 95.6613 35.9035 95.6613C36.1525 95.6613 36.4054 95.6237 36.6557 95.5446C37.967 95.1295 38.6933 93.7301 38.2783 92.4188C36.8814 88.0064 36.7751 83.0117 37.9618 77.5721C41.1654 62.881 48.7308 52.3663 59.9861 46.8164C59.7215 48.1925 59.8668 49.6283 60.4258 50.9473C61.2429 52.8708 62.8551 54.3338 64.855 54.9641C70.1351 56.6269 75.5656 57.457 80.9949 57.457C86.4254 57.457 91.8559 56.6256 97.1347 54.9641C99.1308 54.3364 100.742 52.8708 101.559 50.9447C102.118 49.6257 102.26 48.1886 101.995 46.8138C113.254 52.3624 120.823 62.8784 124.027 77.5721C125.922 86.2646 124.456 93.9233 119.787 99.7209C117.645 102.378 114.879 104.648 111.533 106.515C111.509 106.524 111.485 106.531 111.461 106.542C111.297 106.613 111.144 106.701 111.002 106.801C103.59 110.773 93.4422 112.836 80.9936 112.836C68.5398 112.836 58.3298 110.749 50.889 106.738C50.8008 106.682 50.7087 106.63 50.6127 106.583C47.8384 105.057 45.4533 103.259 43.4935 101.196C42.5454 100.198 40.9695 100.158 39.9722 101.106C38.9761 102.053 38.9359 103.629 39.8827 104.626C41.7516 106.594 43.9371 108.347 46.413 109.885C38.6038 109.524 31.1941 111.6 25.3031 115.862C21.3862 118.696 20.5055 124.187 23.3395 128.104C24.9828 130.377 27.6403 131.733 30.4483 131.733C32.3017 131.733 34.0773 131.158 35.5818 130.068C39.063 127.551 43.7827 126.778 48.9902 127.837C49.6361 130.071 50.5569 132.202 51.7165 134.202C48.6971 135.727 46.6517 135.135 44.0927 134.091C40.2601 132.526 35.8646 134.371 34.2978 138.205C33.539 140.064 33.5494 142.105 34.3263 143.955C35.1045 145.806 36.5546 147.242 38.4132 148C41.9579 149.449 45.2315 150.152 48.4195 150.152C51.1782 150.152 53.8591 149.618 56.5244 148.533C56.2274 153.174 56.9434 158.24 58.6852 163.837C59.8318 167.523 63.1962 170 67.0535 170C67.9354 170 68.8135 169.866 69.6617 169.602C74.2777 168.165 76.8639 163.24 75.4282 158.624C74.3439 155.145 73.8834 152.139 74.0469 149.649C76.2881 150.087 78.611 150.319 80.9936 150.319C83.9663 150.319 86.8469 149.959 89.5888 149.286C90.0064 150.67 90.0933 152.738 88.9896 154.688C87.8339 156.724 87.5421 159.09 88.166 161.348C88.7911 163.605 90.2567 165.484 92.2943 166.638C93.6121 167.384 95.1049 167.778 96.612 167.778C98.9168 167.778 101.172 166.848 102.801 165.227C103.777 164.257 103.779 162.68 102.809 161.706C101.839 160.73 100.262 160.728 99.2877 161.697C98.5847 162.397 97.6094 162.798 96.612 162.798C95.9635 162.798 95.3189 162.628 94.7495 162.305C93.8702 161.806 93.2359 160.995 92.9662 160.02C92.6977 159.044 92.8235 158.022 93.3215 157.143C94.7988 154.535 94.948 151.972 94.8105 150.28C94.7404 149.404 94.5705 148.554 94.3254 147.76C96.7339 146.789 98.9933 145.565 101.061 144.122C102.307 147.166 102.752 150.636 102.275 153.989C102.081 155.35 103.028 156.611 104.39 156.804C104.508 156.821 104.626 156.83 104.743 156.83C105.963 156.83 107.029 155.933 107.206 154.69C107.878 149.959 107.093 145.024 105.048 140.847C108.285 137.723 110.8 133.971 112.346 129.814C112.513 129.816 112.688 129.822 112.852 129.822C116.389 129.822 119.762 129.32 122.878 128.327C129.342 126.272 134.514 122.178 137.837 116.49C139.019 114.468 139.34 112.107 138.746 109.841C138.255 107.969 137.182 106.347 135.683 105.175C136.737 100.934 138.606 97.3306 140.677 93.3475C144.099 86.7665 147.951 79.3529 149.028 67.1844C159 65.6384 167.052 53.7424 167.052 39.8282C167.052 28.6792 157.981 19.608 146.832 19.608ZM47.199 49.745C45.2769 50.2029 43.4909 51.1198 41.9929 52.4272L36.4858 57.2365C34.6791 58.8123 31.9282 58.6256 30.3523 56.8214C28.7765 55.0147 28.9619 52.2638 30.7674 50.6879L36.2757 45.8787C39.8243 42.7814 44.3703 40.9592 49.0758 40.7478C52.0978 40.6116 55.1185 41.1524 57.9044 42.2886C53.9369 44.2289 50.3572 46.7191 47.199 49.745ZM80.9936 4.98047C85.2244 4.98047 88.6666 8.4227 88.6666 12.6535C88.6666 16.8843 85.2244 20.3265 80.9936 20.3265C76.7628 20.3265 73.3205 16.8843 73.3205 12.6535C73.3205 8.4227 76.7628 4.98047 80.9936 4.98047ZM96.9713 49.0018C96.8273 49.343 96.4616 49.9538 95.638 50.2132C86.0571 53.2301 75.9301 53.2301 66.3427 50.2119C65.5191 49.9525 65.1546 49.3417 65.0094 49.0018C64.8654 48.6607 64.6799 47.9733 65.0652 47.2016L76.4204 24.4484C77.8406 25.0009 79.3814 25.307 80.9936 25.307C82.5902 25.307 84.1167 25.0074 85.524 24.4653L96.9142 47.2016C97.3007 47.9733 97.1152 48.6607 96.9713 49.0018ZM48.0122 122.627C42.1809 121.854 36.8269 123.02 32.661 126.034C32.0112 126.504 31.246 126.753 30.447 126.753C29.2136 126.753 28.0943 126.181 27.3731 125.185C26.1488 123.494 26.5301 121.12 28.2214 119.897C33.4509 116.114 39.8788 114.403 46.8981 114.897C47.177 115.717 47.5674 116.498 48.0576 117.219C47.9539 118.195 47.9007 119.18 47.9007 120.154C47.9007 120.986 47.9396 121.811 48.0122 122.627ZM80.9936 120.704C84.3333 120.704 87.0518 123.422 87.0518 126.762C87.0518 130.103 84.3333 132.82 80.9936 132.82C77.6525 132.82 74.9353 130.103 74.9353 126.762C74.9353 123.422 77.6525 120.704 80.9936 120.704ZM51.4182 112.526C57.8331 115.381 65.6942 117.106 74.79 117.638C73.1117 118.782 71.7654 120.378 70.9237 122.248C64.8109 121.102 59.0017 118.931 53.6269 115.776C53.1976 115.525 52.8254 115.207 52.5102 114.849C52.505 114.843 52.4986 114.836 52.4934 114.83C51.924 114.172 51.5517 113.372 51.4182 112.526ZM57.5529 142.463C54.4843 144.283 51.4882 145.172 48.4182 145.172C45.8878 145.172 43.2315 144.589 40.2951 143.39C39.6687 143.134 39.1797 142.65 38.9177 142.026C38.6557 141.403 38.6518 140.715 38.9086 140.089C39.4365 138.796 40.9177 138.174 42.2095 138.702C45.4948 140.043 49.3871 141.168 54.5815 138.308C55.5647 139.493 56.6425 140.611 57.8046 141.652C57.7177 141.921 57.6308 142.191 57.5529 142.463ZM68.1818 164.847C67.8135 164.961 67.4335 165.02 67.0535 165.02C65.3881 165.02 63.9355 163.95 63.44 162.357C61.3531 155.655 60.9018 149.906 62.073 144.889C64.2597 146.283 66.6397 147.443 69.1676 148.327C68.7577 151.672 69.2545 155.551 70.6721 160.104C71.2933 162.099 70.1753 164.226 68.1818 164.847ZM80.9936 145.339C65.8395 145.339 53.4544 134.54 52.9071 121.082C58.2585 123.979 63.9783 126.008 69.9639 127.136C70.1624 133.05 75.0326 137.801 80.9936 137.801C86.9546 137.801 91.8248 133.05 92.0219 127.136C98.0089 126.008 103.729 123.979 109.08 121.082C108.531 134.54 96.1477 145.339 80.9936 145.339ZM109.494 114.83C109.487 114.835 109.482 114.843 109.476 114.849C109.162 115.207 108.79 115.525 108.359 115.776C102.985 118.931 97.1749 121.102 91.0622 122.248C90.2204 120.378 88.8754 118.783 87.1984 117.639C96.3124 117.11 104.163 115.391 110.564 112.542C110.429 113.382 110.059 114.177 109.494 114.83ZM114.787 49.745C111.629 46.7191 108.049 44.2302 104.081 42.2886C106.867 41.1524 109.889 40.6116 112.91 40.7478C117.616 40.9592 122.162 42.7814 125.71 45.88L127.423 47.3754C128.209 50.9875 129.535 54.3208 131.273 57.1846C130.552 57.8396 129.64 58.2326 128.653 58.2987C127.496 58.3778 126.376 58.0004 125.501 57.2365L119.993 52.4272C118.496 51.1198 116.709 50.2029 114.787 49.745ZM133.536 113.979C130.846 118.584 126.639 121.906 121.368 123.583C118.985 124.341 116.404 124.757 113.688 124.828C113.95 123.304 114.086 121.744 114.086 120.154C114.086 119.18 114.033 118.197 113.93 117.219C113.93 117.219 113.931 117.217 113.931 117.216C119.928 116.955 124.439 114.537 126.997 110.158C127.506 109.285 128.326 108.662 129.305 108.406C129.557 108.339 129.811 108.301 130.064 108.286C129.975 109.041 129.902 109.812 129.858 110.612C129.784 111.985 130.838 113.159 132.212 113.233C132.257 113.234 132.303 113.236 132.347 113.236C132.988 113.236 133.576 112.99 134.02 112.586C133.953 113.071 133.79 113.543 133.536 113.979ZM136.259 91.0505C134.203 95.0037 132.228 98.8143 131.015 103.329C130.029 103.245 129.025 103.329 128.041 103.589C125.775 104.183 123.876 105.624 122.696 107.646C121.274 110.079 118.893 111.556 115.597 112.063C115.617 111.374 115.56 110.681 115.426 109.993C118.691 107.983 121.448 105.596 123.665 102.844C129.312 95.8325 131.12 86.7263 128.892 76.5112C127.745 71.2518 126.069 66.4516 123.884 62.1469C125.246 62.8953 126.771 63.2896 128.346 63.2896C128.56 63.2896 128.775 63.2818 128.99 63.2675C130.945 63.1352 132.765 62.4089 134.251 61.1923C137.033 64.2571 140.396 66.357 144.038 67.0781C143.015 78.0559 139.584 84.655 136.259 91.0505ZM146.832 62.3791C142.926 62.3791 139.253 59.9355 136.492 56.0666C136.41 55.9239 136.316 55.789 136.207 55.6632C134.334 52.911 132.916 49.4843 132.173 45.7256C132.158 45.6154 132.137 45.5064 132.107 45.3988C131.772 43.6024 131.592 41.7348 131.592 39.8282C131.592 31.4249 138.428 24.5898 146.832 24.5898C155.235 24.5898 162.071 31.4262 162.071 39.8282C162.071 51.841 154.95 62.3791 146.832 62.3791ZM77.4385 84.9987C74.7797 84.3515 70.7616 83.3736 68.1624 87.4604C66.842 89.5356 66.8472 92.114 68.1754 94.5316C70.3777 98.5419 75.5151 101.236 80.9624 101.236C86.4085 101.236 91.5472 98.5419 93.7495 94.5316C95.0777 92.114 95.0816 89.5369 93.7625 87.4617C91.1633 83.3736 87.1452 84.3528 84.4864 84.9987C84.1544 85.0791 83.8197 85.1608 83.4838 85.2361V82.0753C83.7173 81.9975 83.9481 81.9093 84.1751 81.8094L88.8106 79.7472C90.284 79.0922 91.3812 77.8276 91.8235 76.2777C92.2658 74.7265 91.9986 73.0728 91.092 71.7408C89.9921 70.1221 88.3437 68.9587 86.45 68.462C82.8794 67.5282 79.1064 67.5282 75.5358 68.462C73.6435 68.9587 71.995 70.1221 70.8939 71.7408C69.9873 73.0728 69.7214 74.7265 70.1637 76.2777C70.6046 77.8276 71.7032 79.0922 73.1753 79.7472L77.812 81.8094C78.039 81.9093 78.2699 81.9975 78.5033 82.0753V85.2503C78.1467 85.1699 77.79 85.0843 77.4385 84.9987ZM75.1999 75.196C75.043 75.126 74.9794 75.0027 74.9535 74.912C74.9275 74.8212 74.9171 74.6824 75.0131 74.541C75.4359 73.9185 76.0702 73.471 76.7978 73.2803C78.17 72.9211 79.5824 72.7408 80.9936 72.7408C82.4047 72.7408 83.8171 72.9211 85.1894 73.2803C85.917 73.471 86.5512 73.9185 86.974 74.541C87.07 74.6824 87.0596 74.8212 87.0337 74.912C87.0078 75.0027 86.9442 75.126 86.7873 75.196L82.1505 77.2582C81.4151 77.5851 80.5721 77.5851 79.8367 77.2582L75.1999 75.196ZM80.9624 90.5602H80.9819H80.9936C81.0052 90.5602 81.0169 90.5589 81.0286 90.5589C82.7354 90.5499 84.2905 90.1724 85.6641 89.8378C88.6173 89.1193 88.987 89.2334 89.5589 90.1335C89.8884 90.651 89.8287 91.3242 89.3839 92.1348C88.2594 94.1827 85.0052 96.2553 80.9624 96.2553C76.9184 96.2553 73.6655 94.1827 72.541 92.1348C72.0962 91.3242 72.0365 90.651 72.366 90.1335C72.6876 89.6264 72.9457 89.3683 73.637 89.3683C74.174 89.3683 74.9703 89.5239 76.2608 89.8378C77.6525 90.1763 79.2297 90.5602 80.9624 90.5602ZM63.025 69.6176V66.3686C63.025 64.9925 61.9109 63.8784 60.5347 63.8784C59.1599 63.8784 58.0445 64.9925 58.0445 66.3686V69.6176C58.0445 70.9924 59.1599 72.1078 60.5347 72.1078C61.9109 72.1078 63.025 70.9924 63.025 69.6176ZM103.941 69.6176V66.3686C103.941 64.9925 102.827 63.8784 101.451 63.8784C100.076 63.8784 98.9609 64.9925 98.9609 66.3686V69.6176C98.9609 70.9924 100.076 72.1078 101.451 72.1078C102.827 72.1078 103.941 70.9924 103.941 69.6176ZM150.454 107.583C150.898 108.437 151.767 108.926 152.666 108.926C153.053 108.926 153.445 108.835 153.812 108.644C155.033 108.01 155.507 106.507 154.873 105.286C154.009 103.626 154.009 101.644 154.873 99.9842C156.484 96.8857 156.484 93.1853 154.873 90.0868C154.239 88.8676 152.736 88.3916 151.515 89.0272C150.295 89.6614 149.82 91.1646 150.454 92.3851C151.317 94.0453 151.317 96.0271 150.454 97.6872C148.843 100.786 148.843 104.485 150.454 107.583ZM154.903 135.545H151.171L153.811 132.906C154.784 131.934 154.784 130.357 153.811 129.385C152.838 128.412 151.261 128.412 150.288 129.385L147.65 132.024V128.292C147.65 126.916 146.535 125.802 145.16 125.802C143.784 125.802 142.67 126.916 142.67 128.292V132.024L140.03 129.385C139.058 128.412 137.482 128.412 136.509 129.385C135.536 130.357 135.536 131.934 136.509 132.906L139.148 135.545H135.417C134.041 135.545 132.927 136.661 132.927 138.036C132.927 139.41 134.041 140.526 135.417 140.526H139.148L136.509 143.164C135.536 144.137 135.536 145.714 136.509 146.686C136.995 147.173 137.632 147.415 138.27 147.415C138.907 147.415 139.545 147.173 140.032 146.686L142.67 144.047V147.779C142.67 149.155 143.785 150.269 145.16 150.269C146.536 150.269 147.65 149.155 147.65 147.779V144.047L150.29 146.686C150.776 147.172 151.413 147.415 152.05 147.415C152.688 147.415 153.325 147.173 153.811 146.686C154.784 145.714 154.784 144.137 153.811 143.164L151.173 140.526H154.903C156.279 140.526 157.393 139.41 157.393 138.036C157.393 136.661 156.279 135.545 154.903 135.545Z" fill="black"/>
</g>
<defs>
<clipPath id="clip0_223_14046">
<rect width="170" height="170" fill="white"/>
</clipPath>
</defs>
</svg>
