<svg width="67" height="66" viewBox="0 0 67 66" fill="none" xmlns="http://www.w3.org/2000/svg">
<g clip-path="url(#clip0_1591_25615)">
<path d="M19.5587 57.0563C18.2802 57.0563 16.9972 56.801 15.7504 56.2919C14.6059 55.8246 14.0565 54.5175 14.5243 53.3729C14.9916 52.2279 16.2988 51.679 17.4438 52.1463C20.3311 53.3256 23.24 52.0486 25.4239 48.6437C26.0916 47.6029 27.4763 47.3003 28.5176 47.968C29.5584 48.6356 29.8615 50.0204 29.1934 51.0612C27.4426 53.7914 25.2899 55.6207 22.7959 56.4979C21.7375 56.8705 20.6498 57.0563 19.5587 57.0563Z" fill="#495059"/>
<path d="M28.3414 65.0329C26.8943 65.0329 25.6682 63.918 25.5544 62.4512C25.2613 58.6873 25.3791 55.8776 25.9602 52.7536C26.2432 51.2334 27.704 50.2304 29.2241 50.5139C30.7438 50.7969 31.7464 52.2576 31.4639 53.7773C30.9714 56.4219 30.8793 58.7321 31.1351 62.0167C31.2549 63.558 30.1028 64.9045 28.562 65.0243C28.488 65.0298 28.4145 65.0329 28.3414 65.0329Z" fill="#DDAF89"/>
<path d="M41.0955 65.0329C41.0225 65.0329 40.9495 65.0298 40.8754 65.0243C39.3341 64.9045 38.182 63.5575 38.3024 62.0167C38.5577 58.7316 38.466 56.4219 37.9736 53.7773C37.6906 52.2576 38.6936 50.7964 40.2133 50.5139C41.732 50.2304 43.1937 51.2334 43.4767 52.7531C44.0583 55.8776 44.1761 58.6873 43.8831 62.4507C43.7688 63.918 42.5427 65.0329 41.0955 65.0329Z" fill="#DDAF89"/>
<path d="M21.6766 47.5631C17.751 48.254 13.975 46.5087 11.6104 44.0489C10.5394 42.9341 10.5746 41.1627 11.6889 40.0916C12.8033 39.0201 14.5752 39.0554 15.6462 40.1697C16.7822 41.3515 19.4223 42.9744 22.1137 41.561C23.4823 40.8424 25.1742 41.3691 25.8932 42.7372C26.6118 44.1058 26.0851 45.7977 24.7164 46.5168C23.7079 47.0465 22.6872 47.3859 21.6766 47.5631Z" fill="#DDAF89"/>
<path d="M45.1615 46.7398C43.7008 46.4181 42.7436 44.9961 43.0104 43.5112C43.2839 41.99 44.7391 40.9784 46.2603 41.2518C49.9411 41.9134 52.5983 39.5166 53.3249 38.7663C54.4004 37.656 56.1724 37.6278 57.2827 38.7029C58.393 39.7784 58.4212 41.5504 57.3461 42.6607C54.1069 46.0057 49.5922 47.5384 45.2698 46.7615C45.2336 46.7544 45.1973 46.7474 45.1615 46.7398Z" fill="#DDAF89"/>
<path d="M43.4767 52.7535C43.1937 51.2334 41.732 50.2303 40.2133 50.5138C38.6936 50.7968 37.6906 52.2576 37.9736 53.7772C38.2198 55.102 38.3658 56.3428 38.4182 57.6645C40.4097 57.2149 42.2501 56.4112 43.8559 55.3307C43.7647 54.4777 43.6394 53.6277 43.4767 52.7535Z" fill="#D1A582"/>
<path d="M29.2241 50.5139C27.704 50.2309 26.2432 51.2334 25.9602 52.7536C25.7976 53.6277 25.6727 54.4777 25.5815 55.3307C27.1868 56.4113 29.0272 57.2149 31.0187 57.6641C31.0711 56.3428 31.2171 55.1021 31.4634 53.7773C31.7463 52.2576 30.7438 50.7963 29.2241 50.5139Z" fill="#D1A582"/>
<path d="M49.6622 41.0393C48.6742 41.345 47.5282 41.4799 46.2603 41.2518C44.7391 40.9784 43.2839 41.99 43.0104 43.5117C42.7436 44.9961 43.7008 46.4181 45.1615 46.7399C45.1973 46.7474 45.2336 46.7545 45.2698 46.7615C46.7331 47.0243 48.218 47.0218 49.6682 46.7746C49.8782 45.8531 49.9895 44.8979 49.9895 43.92C49.9895 42.9326 49.8762 41.9693 49.6622 41.0393Z" fill="#D1A582"/>
<path d="M22.114 41.5609C21.2469 42.0161 20.3858 42.1551 19.5782 42.0967C19.4926 42.6934 19.4478 43.3022 19.4478 43.92C19.4478 45.2342 19.6477 46.5067 20.0208 47.7136C20.5671 47.7086 21.1205 47.6613 21.6769 47.5636C22.6875 47.3858 23.7082 47.0465 24.7168 46.5167C26.0854 45.7977 26.6121 44.1058 25.893 42.7372C25.1745 41.3691 23.4826 40.8424 22.114 41.5609Z" fill="#D1A582"/>
<path d="M48.3629 43.92C48.3629 37.1051 42.2545 31.5808 34.7191 31.5808C27.1831 31.5808 21.0747 37.1051 21.0747 43.92C21.0747 50.7344 27.1831 56.2592 34.7191 56.2592C42.2545 56.2592 48.3629 50.7344 48.3629 43.92Z" fill="#DDAF89"/>
<path d="M38.5298 46.8657C38.5298 48.971 36.8238 50.677 34.719 50.677C32.6137 50.677 30.9077 48.971 30.9077 46.8657C30.9077 44.7609 32.6137 43.0549 34.719 43.0549C36.8238 43.0549 38.5298 44.7609 38.5298 46.8657Z" fill="#F6E06A"/>
<path d="M30.4135 54.2193H26.4054C25.5403 54.2193 24.8384 53.5174 24.8384 52.6518V43.0333H31.9805V52.6518C31.9805 53.5174 31.2791 54.2193 30.4135 54.2193Z" fill="#A0D9BB"/>
<path d="M24.8384 47.2912C27.1275 48.1563 29.5248 48.7167 31.9805 48.9554V43.0333H24.8384V47.2912Z" fill="#78BF9B"/>
<path d="M30.4135 54.2193H26.4054C25.5403 54.2193 24.8384 53.5174 24.8384 52.6518V49.8527H31.9805V52.6518C31.9805 53.5174 31.2791 54.2193 30.4135 54.2193Z" fill="#F6E06A"/>
<path d="M47.8823 35.3236H21.5554C20.3741 36.8005 19.4879 38.4828 18.9783 40.3016C18.6948 41.3142 19.0996 42.3897 19.9703 42.9789C24.1793 45.8259 29.2545 47.4896 34.7189 47.4896C40.1827 47.4896 45.2579 45.8259 49.467 42.9789C50.3381 42.3897 50.7429 41.3142 50.4589 40.3016C49.9493 38.4828 49.0631 36.8005 47.8823 35.3236Z" fill="#F6E06A"/>
<path d="M27.77 46.5631C29.9836 47.1668 32.3134 47.4896 34.7188 47.4896C37.1242 47.4896 39.4536 47.1668 41.6676 46.5631L39.1827 35.3236H30.2555L27.77 46.5631Z" fill="#A0D9BB"/>
<path d="M29.4925 20.0212C28.926 20.0212 28.3545 19.8489 27.8615 19.4904L24.442 17.0065C22.9445 15.9188 20.9253 16.0095 19.531 17.2265L17.2923 19.1813C16.1361 20.1909 14.3803 20.072 13.3712 18.9154C12.3616 17.7593 12.481 16.0039 13.6366 14.9943L15.8758 13.0396C17.4902 11.6302 19.5582 10.8009 21.6992 10.7052C23.8408 10.6095 25.9742 11.25 27.7084 12.5099L31.1274 14.9933C32.3692 15.8957 32.6451 17.6334 31.7428 18.8751C31.1995 19.6239 30.352 20.0212 29.4925 20.0212Z" fill="#495059"/>
<path d="M39.9444 20.0211C39.0849 20.0211 38.2374 19.6238 37.6941 18.8751C36.7918 17.6334 37.0672 15.8956 38.3089 14.9938L41.7285 12.5099C43.4626 11.2505 45.5971 10.61 47.7377 10.7052C49.8787 10.8014 51.9467 11.6302 53.5611 13.0396L55.8003 14.9943C56.9564 16.0039 57.0753 17.7597 56.0657 18.9154C55.0561 20.072 53.3007 20.1908 52.1446 19.1812L49.9059 17.2265C48.5116 16.0094 46.4924 15.9188 44.9949 17.0065L41.5754 19.4904C41.0824 19.8489 40.5109 20.0211 39.9444 20.0211Z" fill="#495059"/>
<path d="M34.719 42.0318C48.8261 42.0318 55.1843 35.5689 53.1998 26.4695C51.0674 16.6903 44.3512 11.3372 34.719 11.3372C25.0864 11.3372 18.3702 16.6903 16.2377 26.4695C14.2538 35.5689 20.6114 42.0318 34.719 42.0318Z" fill="#DDAF89"/>
<path d="M27.3087 29.0873C27.3087 27.2827 25.4718 25.8199 23.2058 25.8199C20.9399 25.8199 19.103 27.2827 19.103 29.0873C19.103 30.8915 20.9399 32.3543 23.2058 32.3543C25.4718 32.3543 27.3087 30.8915 27.3087 29.0873Z" fill="#FFDBDB"/>
<path d="M50.3341 29.0873C50.3341 27.2827 48.4972 25.8199 46.2312 25.8199C43.9653 25.8199 42.1284 27.2827 42.1284 29.0873C42.1284 30.8915 43.9653 32.3543 46.2312 32.3543C48.4972 32.3543 50.3341 30.8915 50.3341 29.0873Z" fill="#FFDBDB"/>
<path d="M36.8703 26.3864C35.4594 26.0173 33.9775 26.0173 32.5666 26.3864C31.9825 26.5395 31.4734 26.899 31.134 27.3985C30.6753 28.0727 30.9392 28.9977 31.6844 29.329L33.7514 30.2485C34.3667 30.5224 35.0697 30.5224 35.6855 30.2485L37.7525 29.329C38.4978 28.9977 38.7616 28.0727 38.3029 27.3985C37.9635 26.899 37.4544 26.5395 36.8703 26.3864Z" fill="#495059"/>
<path d="M38.5298 4.77807C38.5298 6.88285 36.8238 8.58934 34.719 8.58934C32.6137 8.58934 30.9077 6.88285 30.9077 4.77807C30.9077 2.67328 32.6137 0.966797 34.719 0.966797C36.8238 0.966797 38.5298 2.67328 38.5298 4.77807Z" fill="#F6E06A"/>
<path d="M50.3339 17.937C50.3339 11.89 43.3428 6.9881 34.7187 6.9881C26.0946 6.9881 19.1035 11.89 19.1035 17.937H50.3339Z" fill="#A0D9BB"/>
<path d="M43.3695 17.8489C42.8418 12.5718 40.8806 9.42371 39.0693 7.41913C38.0703 7.2162 37.0305 7.08125 35.96 7.02234C37.8805 8.69307 40.8186 11.4882 41.4903 17.937H43.3736C43.3736 17.9078 43.3726 17.8786 43.3695 17.8489ZM26.0675 17.8489C26.065 17.8786 26.0635 17.9078 26.0635 17.937H27.9467C28.6189 11.4882 31.5571 8.69307 33.4771 7.02234C32.4065 7.08125 31.3667 7.2162 30.3677 7.41913C28.5565 9.42371 26.5952 12.5718 26.0675 17.8489Z" fill="#78BF9B"/>
<path d="M49.9922 15.2103H19.4451C18.1934 15.2103 17.1782 16.2255 17.1782 17.4778V19.1248C17.1782 20.3766 18.1934 21.3917 19.4451 21.3917H49.9922C51.2445 21.3917 52.2597 20.3766 52.2597 19.1248V17.4778C52.2597 16.2255 51.2445 15.2103 49.9922 15.2103Z" fill="#F6E06A"/>
<path d="M64.6667 29.9952H63.0433L63.5645 29.474C63.9421 29.0964 63.9421 28.4841 63.5645 28.1064C63.1868 27.7288 62.5745 27.7288 62.1974 28.1064L61.6762 28.6281V27.0042C61.6762 26.4704 61.2432 26.0374 60.7094 26.0374C60.1752 26.0374 59.7426 26.4704 59.7426 27.0042V28.6281L59.221 28.1064C58.8433 27.7288 58.2315 27.7288 57.8539 28.1064C57.4762 28.4841 57.4762 29.0964 57.8539 29.474L58.375 29.9952H56.7511C56.2174 29.9952 55.7843 30.4277 55.7843 30.962C55.7843 31.4957 56.2174 31.9288 56.7511 31.9288H58.375L57.8539 32.4499C57.4762 32.8276 57.4762 33.4394 57.8539 33.817C58.0422 34.0059 58.2899 34.1 58.5372 34.1C58.7849 34.1 59.0322 34.0059 59.221 33.817L59.7421 33.2959V34.9193C59.7421 35.4535 60.1752 35.8861 60.7089 35.8861C61.2427 35.8861 61.6757 35.4535 61.6757 34.9193V33.2959L62.1969 33.817C62.3857 34.0059 62.6329 34.1 62.8807 34.1C63.1279 34.1 63.3752 34.0059 63.564 33.817C63.9416 33.4394 63.9416 32.8271 63.564 32.4499L63.0428 31.9283H64.6667C65.2005 31.9283 65.6335 31.4957 65.6335 30.9615C65.6335 30.4277 65.201 29.9952 64.6667 29.9952ZM62.4985 53.098H59.7129L60.8716 51.9393C61.2492 51.5617 61.2492 50.9499 60.8716 50.5722C60.4944 50.1946 59.8821 50.1946 59.5045 50.5722L58.3458 51.7314V48.9453C58.3458 48.4116 57.9128 47.9785 57.379 47.9785C56.8448 47.9785 56.4122 48.4116 56.4122 48.9453V51.7309L55.2536 50.5722C54.876 50.1946 54.2637 50.1946 53.8865 50.5722C53.5089 50.9499 53.5089 51.5617 53.8865 51.9393L55.0451 53.098H52.2596C51.7253 53.098 51.2928 53.531 51.2928 54.0648C51.2928 54.599 51.7253 55.0316 52.2596 55.0316H55.0451L53.8865 56.1907C53.5089 56.5684 53.5089 57.1802 53.8865 57.5578C54.0748 57.7466 54.3226 57.8408 54.5698 57.8408C54.817 57.8408 55.0648 57.7466 55.2536 57.5578L56.4122 56.3992V59.1847C56.4122 59.7185 56.8448 60.1515 57.379 60.1515C57.9128 60.1515 58.3458 59.7185 58.3458 59.1847V56.3987L59.5045 57.5578C59.6933 57.7466 59.941 57.8408 60.1883 57.8408C60.4355 57.8408 60.6832 57.7466 60.8716 57.5578C61.2492 57.1802 61.2492 56.5679 60.8716 56.1907L59.7129 55.0316H62.4985C63.0322 55.0316 63.4653 54.599 63.4653 54.0648C63.4653 53.531 63.0322 53.098 62.4985 53.098ZM12.0224 49.4992H10.2389L10.8477 48.8904C11.2253 48.5128 11.2253 47.9005 10.8477 47.5228C10.47 47.1452 9.85823 47.1452 9.48058 47.5228L8.8718 48.1321V46.3486C8.8718 45.8143 8.43876 45.3818 7.90501 45.3818C7.37076 45.3818 6.93822 45.8143 6.93822 46.3486V48.1321L6.32894 47.5228C5.95179 47.1452 5.33949 47.1452 4.96184 47.5228C4.58418 47.9005 4.58418 48.5128 4.96184 48.8904L5.57061 49.4992H3.78708C3.25334 49.4992 2.82029 49.9322 2.82029 50.466C2.82029 50.9997 3.25334 51.4328 3.78708 51.4328H5.57061L4.96184 52.0416C4.58418 52.4192 4.58418 53.0315 4.96184 53.4092C5.15066 53.5975 5.3979 53.6922 5.64514 53.6922C5.89288 53.6922 6.14011 53.598 6.32894 53.4092L6.93772 52.7999V54.5834C6.93772 55.1177 7.37076 55.5502 7.90451 55.5502C8.43876 55.5502 8.8713 55.1177 8.8713 54.5834V52.8004L9.48058 53.4092C9.6689 53.598 9.91664 53.6922 10.1639 53.6922C10.4116 53.6922 10.6589 53.598 10.8477 53.4092C11.2253 53.0315 11.2253 52.4192 10.8477 52.0421L10.2384 51.4328H12.0219C12.5562 51.4328 12.9887 51.0002 12.9887 50.466C12.9892 49.9317 12.5562 49.4992 12.0224 49.4992ZM5.57061 28.0082L4.59979 28.9796C4.22214 29.3572 4.22214 29.969 4.59979 30.3467C4.78812 30.5355 5.03586 30.6302 5.28309 30.6302C5.53083 30.6302 5.77807 30.5355 5.9669 30.3467L6.93822 29.3758V31.8195C6.93822 32.3533 7.37076 32.7863 7.90501 32.7863C8.43876 32.7863 8.8718 32.3533 8.8718 31.8195V29.3758L9.84262 30.3467C10.0314 30.5355 10.2792 30.6302 10.5264 30.6302C10.7737 30.6302 11.0214 30.5355 11.2097 30.3467C11.5874 29.969 11.5874 29.3572 11.2097 28.9796L10.2389 28.0082H12.6826C13.2163 28.0082 13.6494 27.5757 13.6494 27.0415C13.6494 26.5077 13.2163 26.0747 12.6826 26.0747H10.2389L11.2102 25.1033C11.5874 24.7262 11.5874 24.1139 11.2102 23.7362C10.8326 23.3591 10.2203 23.3591 9.84262 23.7362L8.8718 24.7076V22.2639C8.8718 21.7301 8.43876 21.2971 7.90501 21.2971C7.37076 21.2971 6.93822 21.7301 6.93822 22.2639V24.7076L5.9669 23.7367C5.58924 23.3591 4.97694 23.3591 4.59979 23.7367C4.22214 24.1139 4.22214 24.7262 4.59979 25.1038L5.57112 26.0747H3.12695C2.5932 26.0747 2.16016 26.5077 2.16016 27.0415C2.16016 27.5757 2.5932 28.0082 3.12695 28.0082H5.57061ZM58.0407 43.3329C59.4853 41.8414 59.4471 39.4531 57.9551 38.0085C56.4636 36.5638 54.0753 36.6021 52.6307 38.0941C52.4026 38.3292 51.8895 38.8167 51.1538 39.2829C51.037 38.9415 50.9076 38.6027 50.7656 38.2688C51.2248 37.8489 51.6473 37.4027 52.0285 36.9294C54.315 34.0905 55.0467 30.4021 54.1443 26.263C53.7475 24.4432 53.1876 22.7407 52.4766 21.1919C52.6151 21.0262 52.7374 20.8464 52.8407 20.6546C53.2103 20.7729 53.5929 20.8333 53.9746 20.8333C55.0195 20.8333 56.0557 20.3973 56.7944 19.5513C58.1525 17.9959 57.9918 15.6248 56.4359 14.2662L54.1972 12.3115C52.4187 10.7586 50.1397 9.84516 47.7811 9.73941C47.4503 9.72481 47.1139 9.72683 46.7761 9.74495C44.7246 8.19003 42.1047 7.047 39.1883 6.46239C39.3902 5.92713 39.4969 5.35612 39.4969 4.77806C39.4964 2.14356 37.3534 0 34.7189 0C32.0839 0 29.9408 2.14356 29.9408 4.77806C29.9408 5.35612 30.0475 5.92713 30.2495 6.46239C27.333 7.047 24.7131 8.19003 22.6617 9.74495C22.3233 9.72683 21.9869 9.72481 21.6566 9.73941C19.2975 9.84516 17.019 10.7586 15.24 12.3115L13.0013 14.2662C11.4454 15.6248 11.2848 17.9959 12.6433 19.5513C13.3815 20.3973 14.4178 20.8333 15.4626 20.8333C15.8443 20.8333 16.227 20.7724 16.5971 20.6546C16.7003 20.8459 16.8221 21.0262 16.9606 21.1919C16.2496 22.7407 15.6897 24.4427 15.2929 26.263C14.7858 28.5898 14.7899 30.7732 15.306 32.7536C15.4193 33.1886 15.8115 33.4767 16.2411 33.4767C16.3216 33.4767 16.4037 33.4666 16.4853 33.4454C17.0019 33.311 17.3116 32.7828 17.1771 32.2662C16.7386 30.5828 16.7406 28.7016 17.1822 26.6749C17.5281 25.0877 18.008 23.6043 18.6082 22.2483C18.8756 22.3198 19.156 22.3586 19.4451 22.3586H49.9921C50.2817 22.3586 50.5622 22.3198 50.829 22.2483C51.4292 23.6043 51.9091 25.0877 52.255 26.6749C53.0285 30.2223 52.4298 33.3488 50.5229 35.7164C50.0893 36.2542 49.5928 36.7532 49.0369 37.2124C48.9941 37.2416 48.9539 37.2733 48.9171 37.3086C45.848 39.7729 41.0015 41.0645 34.7189 41.0645C28.4317 41.0645 23.5892 39.7739 20.5221 37.3101C20.4849 37.2743 20.4441 37.2421 20.4008 37.2124C19.8076 36.722 19.2814 36.1872 18.8282 35.6076C18.4994 35.1867 17.8922 35.1121 17.4712 35.441C17.0503 35.7698 16.9762 36.3775 17.305 36.7985C17.6807 37.2789 18.1318 37.7754 18.6721 38.2678C18.4254 38.8474 18.2154 39.4411 18.0478 40.0408C17.9914 40.2422 17.9561 40.4451 17.938 40.6475C17.2773 40.3243 16.7194 39.8912 16.3433 39.5C15.6464 38.7749 14.7088 38.3645 13.7032 38.3443C12.6967 38.3242 11.7445 38.6973 11.0194 39.3942C10.2938 40.0916 9.88341 41.0292 9.86377 42.0348C9.84363 43.0403 10.2167 43.9935 10.9136 44.7186C12.8633 46.7474 16.1318 48.684 19.9204 48.684C20.2905 48.684 20.6662 48.6628 21.0458 48.6241C21.35 49.3587 21.7271 50.0682 22.1717 50.7445C20.786 51.6785 19.293 51.8568 17.8096 51.2515C17.017 50.9277 16.1459 50.9323 15.3564 51.2636C14.5668 51.5954 13.9535 52.2148 13.6297 53.0073C12.9615 54.6438 13.7491 56.519 15.3856 57.1872C16.7441 57.7421 18.148 58.0231 19.5594 58.0231C20.7638 58.0231 21.9612 57.8171 23.1174 57.4103C23.5836 57.2466 24.0414 57.0477 24.489 56.8201C24.3893 58.5629 24.424 60.3872 24.5907 62.5262C24.7423 64.4739 26.3899 66.0001 28.3421 66.0001C28.4403 66.0001 28.5395 65.9961 28.6371 65.9885C29.6397 65.9105 30.5521 65.4467 31.2062 64.6824C31.8603 63.918 32.177 62.9447 32.099 61.9421C31.9484 60.0075 31.9232 58.4672 32.0229 56.9989C32.9061 57.1489 33.808 57.226 34.7189 57.226C35.6393 57.226 36.5407 57.1474 37.4143 56.9984C37.5145 58.4667 37.4888 60.007 37.3383 61.9421C37.2602 62.9447 37.5774 63.918 38.2315 64.6824C38.8856 65.4467 39.7975 65.9105 40.8001 65.9885C40.8983 65.9961 40.998 66.0001 41.0957 66.0001C42.1516 66.0001 43.1652 65.551 43.8782 64.768C44.2377 64.3732 44.2095 63.7619 43.8148 63.4024C43.42 63.0428 42.8082 63.0715 42.4487 63.4663C42.069 63.8832 41.5186 64.1053 40.9506 64.0605C40.4627 64.0227 40.0191 63.7971 39.7009 63.425C39.3826 63.0534 39.2285 62.5796 39.2663 62.0922C39.433 59.9521 39.4506 58.2049 39.3197 56.5497C40.5785 56.1686 41.7613 55.6353 42.8429 54.9742C43.0454 56.6298 43.1098 58.2643 43.0489 60.1022C43.0313 60.6359 43.4497 61.0826 43.9829 61.1007C43.994 61.1007 44.0051 61.1012 44.0157 61.1012C44.5348 61.1012 44.9638 60.6893 44.9815 60.1661C45.0585 57.8413 44.9457 55.8211 44.6179 53.6977C46.481 52.1322 47.8979 50.1322 48.6709 47.8758C52.1684 47.5807 55.4732 45.984 58.0407 43.3329ZM34.7189 1.93358C36.2869 1.93358 37.5628 3.20955 37.5628 4.77806C37.5628 5.27002 37.441 5.73881 37.2068 6.15725C36.3921 6.06913 35.5618 6.0213 34.7189 6.0213C33.8754 6.0213 33.0451 6.06913 32.2304 6.15725C31.9967 5.73881 31.8744 5.27002 31.8744 4.77806C31.8744 3.20955 33.1503 1.93358 34.7189 1.93358ZM25.5394 10.1725C27.4085 9.14172 29.5531 8.45791 31.8472 8.14723C31.8638 8.14622 31.8804 8.1432 31.897 8.14068C32.8165 8.01883 33.7591 7.95438 34.7184 7.95438C35.667 7.95438 36.5991 8.01732 37.508 8.13666C37.513 8.13766 37.518 8.13766 37.5231 8.13867C39.8429 8.44482 42.0106 9.13164 43.8978 10.1725C45.8576 11.2535 47.3818 12.668 48.3154 14.243H21.1219C22.0554 12.6685 23.5796 11.2535 25.5394 10.1725ZM16.2114 17.4778V18.7341C15.4989 19.0594 14.6363 18.8947 14.1 18.2799C13.4424 17.5271 13.5205 16.3801 14.2732 15.7229L16.512 13.7682C17.6379 12.7853 19.0095 12.1181 20.4667 11.8281C19.8328 12.592 19.3126 13.4147 18.9259 14.2859C17.3886 14.5351 16.2114 15.871 16.2114 17.4778ZM51.2928 19.1248C51.2928 19.143 51.2908 19.1606 51.2898 19.1787C51.2883 19.1979 51.2878 19.217 51.2867 19.2366C51.2298 19.9013 50.6714 20.425 49.9921 20.425H19.4451C18.7658 20.425 18.2074 19.9013 18.1505 19.2366C18.15 19.2175 18.1495 19.1979 18.1475 19.1787C18.1465 19.1606 18.1449 19.143 18.1449 19.1248V17.4778C18.1449 16.7602 18.728 16.1771 19.4451 16.1771H49.8426H49.8456H49.8517H49.9921C50.7092 16.1771 51.2928 16.7602 51.2928 17.4778V19.1248ZM50.5113 14.2859C50.1246 13.4147 49.6049 12.592 48.9705 11.8281C50.4277 12.1186 51.7998 12.7853 52.9258 13.7682L55.1645 15.7229C55.9173 16.3801 55.9948 17.5271 55.3377 18.2799C54.8009 18.8947 53.9384 19.0594 53.2264 18.7346V17.4778C53.2264 15.871 52.0486 14.5351 50.5113 14.2859ZM12.3074 43.3787C11.9686 43.0262 11.7868 42.5625 11.7968 42.073C11.8064 41.5841 12.0058 41.1274 12.3588 40.7885C12.7118 40.4496 13.174 40.2679 13.665 40.2779C14.1539 40.2875 14.6101 40.4869 14.9495 40.8399C15.3241 41.2296 16.6318 42.4608 18.5458 42.9114C18.7804 43.2443 19.076 43.5409 19.429 43.7795C19.6545 43.9321 19.8821 44.0801 20.1118 44.2257C20.1329 45.0771 20.2422 45.917 20.435 46.7353C17.0326 46.9281 14.0537 45.196 12.3074 43.3787ZM22.1506 45.3989C22.7155 45.6925 23.2896 45.9664 23.8717 46.2187V49.8028C22.9643 48.4604 22.3777 46.9649 22.1506 45.3989ZM22.4754 55.586C20.4088 56.3131 18.1978 56.2471 16.1162 55.3971C15.8015 55.2687 15.5558 55.0255 15.4243 54.7118C15.2929 54.3986 15.2909 54.0527 15.4193 53.738C15.5482 53.4238 15.7914 53.178 16.1046 53.0461C16.4178 52.9147 16.7637 52.9132 17.0784 53.0416C19.2094 53.9117 21.4053 53.6378 23.352 52.2818C23.5222 52.4736 23.699 52.6614 23.8817 52.8452C23.9306 53.4877 24.2186 54.0628 24.6582 54.4827C23.9623 54.9495 23.2302 55.3206 22.4754 55.586ZM29.7369 63.425C29.4186 63.7966 28.9745 64.0222 28.4866 64.0605C28.4382 64.064 28.3899 64.066 28.3416 64.066C27.3929 64.066 26.5918 63.3238 26.5183 62.3762C26.3022 59.6007 26.3153 57.3891 26.5701 55.1862H26.9458C27.9453 55.7587 29.0093 56.2164 30.118 56.5507C29.9871 58.2054 30.0047 59.9526 30.1714 62.0917C30.2092 62.5796 30.0551 63.0529 29.7369 63.425ZM31.0138 52.6519C31.0138 52.9832 30.7449 53.2526 30.4136 53.2526H26.4055C26.3234 53.2526 26.2453 53.2354 26.1738 53.2057C26.1683 53.2027 26.1633 53.1997 26.1572 53.1972C25.9503 53.1025 25.8053 52.8946 25.8053 52.6519V46.9689C27.4921 47.551 29.2353 47.9649 31.0138 48.2061V52.6519ZM34.7189 55.2919C33.6307 55.2919 32.5587 55.168 31.5229 54.9268C32.3653 54.5144 32.9474 53.6509 32.9474 52.6519V51.3049C33.5033 51.5264 34.101 51.6438 34.7189 51.6438C36.9425 51.6438 38.8121 50.1508 39.3439 48.0656C42.1158 47.5933 44.7906 46.6955 47.2892 45.3979C46.479 50.9731 41.1505 55.2919 34.7189 55.2919ZM32.9474 49.0878V48.399C33.5356 48.4362 34.1257 48.4564 34.7189 48.4564C35.5341 48.4564 36.3448 48.4196 37.1494 48.3486C36.6504 49.1719 35.7486 49.7107 34.7189 49.7107C34.0653 49.7102 33.4494 49.4901 32.9474 49.0878ZM48.9252 42.1778C45.7483 44.3269 42.1657 45.7091 38.4068 46.2559C38.4048 46.2564 38.4027 46.2569 38.4002 46.2569C37.1887 46.4332 35.9591 46.5228 34.7189 46.5228C33.8331 46.5228 32.953 46.4765 32.0808 46.3863C32.0798 46.3863 32.0793 46.3863 32.0783 46.3858C29.7152 46.1416 27.413 45.5701 25.2262 44.6879C25.2136 44.6824 25.201 44.6778 25.1879 44.6728C23.557 44.0112 21.9905 43.1783 20.5121 42.1778C20.3046 42.0378 20.142 41.853 20.0302 41.6435C20.0257 41.6345 20.0206 41.6254 20.0161 41.6163C19.8529 41.2961 19.8081 40.9225 19.9093 40.5624C20.0085 40.2074 20.1254 39.855 20.2568 39.507C23.0967 41.4144 27.5988 42.9985 34.7184 42.9985C40.8514 42.9985 45.7645 41.8021 49.1804 39.509C49.3124 39.8565 49.4287 40.2084 49.5279 40.5624C49.5521 40.648 49.5667 40.7346 49.5747 40.8207V40.8218C49.6231 41.3479 49.3809 41.8696 48.9252 42.1778ZM56.6519 41.9879C54.5764 44.1315 51.957 45.4835 49.1719 45.8737C49.2595 45.3344 49.3114 44.7841 49.3255 44.2257C49.5551 44.0806 49.7832 43.9321 50.0088 43.7795C50.8618 43.2025 51.389 42.2946 51.4947 41.3192C52.7243 40.6737 53.5869 39.8857 54.0194 39.439C54.7224 38.7134 55.8845 38.6948 56.6101 39.3972C57.3357 40.1002 57.3544 41.2623 56.6519 41.9879ZM26.5641 25.8279V24.3787C26.5641 23.845 26.131 23.412 25.5973 23.412C25.0635 23.412 24.6305 23.845 24.6305 24.3787V25.8279C24.6305 26.3617 25.0635 26.7947 25.5973 26.7947C26.131 26.7947 26.5641 26.3617 26.5641 25.8279ZM44.8067 25.8279V24.3787C44.8067 23.845 44.3737 23.412 43.8399 23.412C43.3062 23.412 42.8731 23.845 42.8731 24.3787V25.8279C42.8731 26.3617 43.3062 26.7947 43.8399 26.7947C44.3737 26.7947 44.8067 26.3617 44.8067 25.8279ZM30.8572 32.5411C30.5063 32.1383 29.8955 32.0965 29.4932 32.4474C29.0908 32.7979 29.0485 33.4087 29.3995 33.8115C30.7414 35.3508 32.68 36.234 34.7184 36.234C36.7567 36.234 38.6958 35.3508 40.0377 33.8115C40.3887 33.4092 40.3469 32.7984 39.9441 32.4474C39.5417 32.0965 38.931 32.1383 38.58 32.5411C37.8207 33.4117 36.799 33.9918 35.6852 34.2063V31.2767C35.8186 31.2364 35.95 31.1891 36.0784 31.1317L38.1454 30.2127C38.7633 29.9378 39.224 29.4076 39.4088 28.7575C39.5946 28.1074 39.4823 27.4136 39.1027 26.8546C38.6313 26.1618 37.9254 25.6638 37.1152 25.4513C35.5472 25.0409 33.8895 25.0409 32.322 25.4513C31.5113 25.6638 30.8054 26.1618 30.3346 26.8546C29.9544 27.4136 29.8426 28.1074 30.0279 28.7575C30.2132 29.4076 30.674 29.9378 31.2913 30.2127L33.3588 31.1317C33.4872 31.1891 33.6186 31.2364 33.7516 31.2767V34.2063C32.6382 33.9918 31.6161 33.4117 30.8572 32.5411ZM32.0773 28.4458C31.9504 28.3894 31.9041 28.2847 31.8875 28.2273C31.8714 28.1699 31.8558 28.0566 31.9338 27.9418C32.1418 27.6361 32.4534 27.4156 32.812 27.3219C33.4353 27.1583 34.0769 27.0767 34.7189 27.0767C35.3604 27.0767 36.0019 27.1583 36.6253 27.3219C36.9838 27.4156 37.2955 27.6356 37.5034 27.9418C37.582 28.0566 37.5659 28.1699 37.5497 28.2273C37.5336 28.2847 37.4868 28.3894 37.3604 28.4458L35.2929 29.3653C34.9283 29.5274 34.5094 29.5274 34.1443 29.3653L32.0773 28.4458Z" fill="black"/>
</g>
<defs>
<clipPath id="clip0_1591_25615">
<rect width="65.9996" height="66" fill="white" transform="translate(0.871094)"/>
</clipPath>
</defs>
</svg>
