<svg width="66" height="66" viewBox="0 0 66 66" fill="none" xmlns="http://www.w3.org/2000/svg">
<g clip-path="url(#clip0_1591_26128)">
<path d="M17.654 55.9085C16.3664 55.9085 15.0381 55.6125 13.6216 55.0339C12.4791 54.5671 11.9312 53.2629 12.398 52.1209C12.8643 50.9789 14.1685 50.431 15.3105 50.8973C17.4082 51.7538 19.3157 52.0887 23.1285 48.0568C23.9764 47.16 25.3904 47.1208 26.2867 47.9682C27.1835 48.8162 27.2227 50.2301 26.3748 51.1264C23.3062 54.3717 20.5851 55.9085 17.654 55.9085Z" fill="#495059"/>
<path d="M21.924 46.305C17.7108 47.5085 13.0757 46.4375 9.52579 43.4409C8.34751 42.4459 8.19846 40.684 9.19346 39.5057C10.1885 38.3269 11.9503 38.1784 13.1286 39.1729C13.9252 39.8451 16.8025 41.9595 20.3902 40.9348C21.8731 40.5108 23.4185 41.3698 23.8419 42.8528C24.2654 44.3357 23.4069 45.881 21.924 46.305Z" fill="#DDAF89"/>
<path d="M20.3905 40.9348C19.2158 41.2702 18.1176 41.2681 17.1432 41.0914C16.9715 41.9283 16.8809 42.7903 16.8809 43.672C16.8809 44.7234 17.0093 45.7471 17.251 46.7321C18.8165 46.8766 20.3981 46.7406 21.9243 46.3045C23.4072 45.8811 24.2658 44.3357 23.8423 42.8528C23.4188 41.3699 21.8735 40.5108 20.3905 40.9348Z" fill="#D1A582"/>
<path d="M43.6305 46.5941C42.0882 46.5941 40.8379 45.3438 40.8379 43.8015C40.8379 42.2591 42.0882 41.0093 43.6305 41.0093C47.6372 41.0093 49.7133 40.7802 52.1988 39.3628C53.5387 38.5984 55.2437 39.0652 56.008 40.4046C56.7724 41.7445 56.3056 43.4495 54.9657 44.2139C51.1 46.4189 47.6886 46.5941 43.6305 46.5941Z" fill="#DDAF89"/>
<path d="M25.782 64.7371C24.3379 64.7371 23.1148 63.6253 23.001 62.1615C22.7084 58.4061 22.8257 55.6029 23.4058 52.4855C23.6883 50.9693 25.1455 49.9688 26.6622 50.2513C28.1784 50.5333 29.1789 51.991 28.8969 53.5077C28.4055 56.1457 28.3138 58.4504 28.5691 61.728C28.6885 63.2653 27.5389 64.6087 26.0016 64.7286C25.928 64.7346 25.8545 64.7371 25.782 64.7371Z" fill="#DDAF89"/>
<path d="M38.5069 64.7372C38.4338 64.7372 38.3608 64.7346 38.2868 64.7286C36.7495 64.6093 35.5999 63.2653 35.7198 61.728C35.9746 58.4505 35.8829 56.1458 35.392 53.5077C35.1095 51.9911 36.11 50.5333 37.6262 50.2513C39.1418 49.9693 40.6001 50.9694 40.8826 52.4855C41.4626 55.6029 41.58 58.4062 41.2879 62.1616C41.1736 63.6248 39.9505 64.7372 38.5069 64.7372Z" fill="#DDAF89"/>
<path d="M47.1558 40.8905C46.1437 40.9827 45.0002 41.0093 43.6305 41.0093C42.0882 41.0093 40.8379 42.2596 40.8379 43.8015C40.8379 45.3438 42.0882 46.5941 43.6305 46.5941C44.8511 46.5941 46.0133 46.578 47.1467 46.4959C47.3517 45.5835 47.4594 44.6394 47.4594 43.6726C47.4594 42.7199 47.3542 41.7898 47.1558 40.8905Z" fill="#D1A582"/>
<path d="M40.8831 52.4855C40.6006 50.9693 39.1423 49.9693 37.6267 50.2513C36.1105 50.5332 35.11 51.991 35.3925 53.5077C35.6311 54.7917 35.7746 55.9972 35.831 57.2736C37.817 56.823 39.6514 56.0173 41.2481 54.9337C41.158 54.124 41.0376 53.3158 40.8831 52.4855Z" fill="#D1A582"/>
<path d="M26.6625 50.2513C25.1458 49.9683 23.6886 50.9693 23.4061 52.4855C23.252 53.3158 23.1311 54.124 23.041 54.9337C24.6382 56.0173 26.4721 56.823 28.4586 57.2737C28.5145 55.9972 28.658 54.7917 28.8972 53.5077C29.1792 51.991 28.1786 50.5333 26.6625 50.2513Z" fill="#D1A582"/>
<path d="M45.7577 43.672C45.7577 36.8732 39.6628 31.3615 32.1445 31.3615C24.6261 31.3615 18.5312 36.8732 18.5312 43.672C18.5312 50.4713 24.6261 55.983 32.1445 55.983C39.6628 55.983 45.7577 50.4713 45.7577 43.672Z" fill="#DDAF89"/>
<path d="M44.4396 35.7679C41.1036 38.5364 36.8185 40.2011 32.1446 40.2011C27.4708 40.2011 23.1857 38.5364 19.8497 35.7679C19.1402 36.6864 18.5491 37.6864 18.1004 38.7514C17.4896 40.2021 18.0531 41.8834 19.4106 42.68C23.1474 44.8735 27.499 46.1323 32.1446 46.1323C36.7908 46.1323 41.1424 44.8735 44.8792 42.68C46.2367 41.8834 46.8002 40.2021 46.1894 38.7514C45.7407 37.6864 45.1491 36.6864 44.4396 35.7679Z" fill="#7F9AE6"/>
<path d="M25.9451 39.1809C23.6983 38.4176 21.6378 37.2514 19.8497 35.7679C19.1402 36.6864 18.5491 37.6864 18.1004 38.7514C17.4896 40.2021 18.0531 41.8834 19.4106 42.68C21.3533 43.8206 23.4636 44.7058 25.6943 45.2949C24.8755 43.6529 25.1077 41.1875 25.9451 39.1809Z" fill="#5E78BF"/>
<path d="M26.4295 17.3943C25.8102 17.3943 25.1853 17.2055 24.646 16.8137L20.9067 14.0976C19.2692 12.9083 17.0607 13.007 15.5359 14.3378L13.0877 16.4758C11.8233 17.5796 9.90334 17.4492 8.79958 16.1853C7.69582 14.9204 7.82573 13.0009 9.09012 11.8966L11.5383 9.75912C13.3042 8.21778 15.5656 7.31141 17.9071 7.20617C20.2491 7.10143 22.5825 7.80236 24.4788 9.17954L28.2181 11.8961C29.5761 12.8826 29.8773 14.7829 28.8908 16.141C28.2961 16.9597 27.3691 17.3943 26.4295 17.3943Z" fill="#495059"/>
<path d="M37.8597 17.3943C36.9196 17.3943 35.993 16.9597 35.3984 16.141C34.4119 14.7829 34.713 12.8826 36.0711 11.8961L39.8109 9.17952C41.7072 7.80234 44.0411 7.10191 46.3821 7.20615C48.7235 7.31139 50.9854 8.21776 52.7508 9.75909L55.1996 11.8966C56.464 13.0009 56.5939 14.9204 55.4901 16.1848C54.3858 17.4492 52.4663 17.5796 51.202 16.4753L48.7537 14.3378C47.229 13.0069 45.0205 12.9077 43.383 14.0976L39.6437 16.8137C39.1039 17.2054 38.479 17.3943 37.8597 17.3943Z" fill="#495059"/>
<path d="M32.1443 41.4645C47.5723 41.4645 54.5251 34.3973 52.3554 24.4459C50.0235 13.7517 42.6784 7.89752 32.1443 7.89752C21.6102 7.89752 14.2656 13.7517 11.9337 24.4459C9.76345 34.3973 16.7163 41.4645 32.1443 41.4645Z" fill="#DDAF89"/>
<path d="M35.9473 46.6117C35.9473 48.7115 34.2448 50.4144 32.1445 50.4144C30.0443 50.4144 28.3418 48.7115 28.3418 46.6117C28.3418 44.5114 30.0443 42.809 32.1445 42.809C34.2448 42.809 35.9473 44.5114 35.9473 46.6117Z" fill="#F6E06A"/>
<path d="M24.752 26.7304C24.752 24.9298 22.9191 23.4705 20.6582 23.4705C18.3973 23.4705 16.5649 24.9298 16.5649 26.7304C16.5649 28.5306 18.3973 29.9904 20.6582 29.9904C22.9191 29.9904 24.752 28.5306 24.752 26.7304Z" fill="#FFDBDB"/>
<path d="M47.7247 26.7304C47.7247 24.9298 45.8918 23.4705 43.6309 23.4705C41.37 23.4705 39.5376 24.9298 39.5376 26.7304C39.5376 28.5306 41.37 29.9904 43.6309 29.9904C45.8918 29.9904 47.7247 28.5306 47.7247 26.7304Z" fill="#FFDBDB"/>
<path d="M34.2915 24.0355C32.8836 23.6674 31.4052 23.6674 29.9978 24.0355C29.4147 24.1885 28.9071 24.5471 28.5682 25.0451C28.1105 25.7183 28.3734 26.6408 29.1171 26.9716L31.1796 27.8891C31.7939 28.162 32.4953 28.162 33.1096 27.8891L35.1721 26.9716C35.9154 26.6408 36.1782 25.7183 35.721 25.0451C35.3821 24.5471 34.8741 24.1885 34.2915 24.0355Z" fill="#495059"/>
<path d="M23.044 28.7028C19.7644 28.7028 17.0967 26.035 17.0967 22.7555C17.0967 19.4759 19.7644 16.8082 23.044 16.8082C26.3235 16.8082 28.9913 19.4759 28.9913 22.7555C28.9913 26.035 26.3235 28.7028 23.044 28.7028ZM23.044 18.7418C20.8309 18.7418 19.0303 20.5424 19.0303 22.7555C19.0303 24.9685 20.8309 26.7692 23.044 26.7692C25.257 26.7692 27.0577 24.9685 27.0577 22.7555C27.0577 20.5424 25.257 18.7418 23.044 18.7418Z" fill="#D16283"/>
<path d="M41.2452 28.7028C37.9661 28.7028 35.2979 26.035 35.2979 22.7555C35.2979 19.4759 37.9661 16.8082 41.2452 16.8082C44.5247 16.8082 47.1925 19.4759 47.1925 22.7555C47.1925 26.035 44.5247 28.7028 41.2452 28.7028ZM41.2452 18.7418C39.0321 18.7418 37.2314 20.5424 37.2314 22.7555C37.2314 24.9685 39.0321 26.7692 41.2452 26.7692C43.4587 26.7692 45.2589 24.9685 45.2589 22.7555C45.2589 20.5424 43.4587 18.7418 41.2452 18.7418Z" fill="#D16283"/>
<path d="M37.2637 20.7363H27.0298C26.496 20.7363 26.063 20.3032 26.063 19.7695C26.063 19.2352 26.496 18.8027 27.0298 18.8027H37.2637C37.798 18.8027 38.2305 19.2352 38.2305 19.7695C38.2305 20.3032 37.798 20.7363 37.2637 20.7363Z" fill="#D16283"/>
<path d="M32.1445 3.87779C33.7221 1.30118 38.1769 0.94316 41.0793 1.37923C41.6654 1.46735 41.7999 2.25136 41.2817 2.53838C39.0274 3.78615 37.9256 5.42819 37.9014 6.20314C44.8176 6.11401 48.6284 11.9062 49.2764 15.5624C49.3907 16.208 48.6707 16.6692 48.1384 16.286C45.1464 14.1334 39.546 10.9571 37.4498 10.9228C37.558 12.1228 37.129 13.8338 36.6935 15.0282C36.5258 15.4884 35.9155 15.578 35.6265 15.1833C34.5897 13.7683 33.2623 11.9113 32.1445 11.5452C31.0261 11.9113 29.3891 12.6907 28.241 13.7165C27.8694 14.0483 27.2798 13.8952 27.1116 13.4259C26.8694 12.7507 26.7435 11.9863 26.8397 10.9233C24.8396 10.9556 18.5846 13.936 15.7427 15.6823C15.2411 15.9904 14.6309 15.5055 14.8177 14.9471C15.9214 11.6535 19.6381 6.11603 26.3875 6.20314C26.3633 5.42769 25.2616 3.78615 23.0072 2.53838C22.4891 2.25136 22.6235 1.46735 23.2097 1.37923C26.1121 0.94316 30.5669 1.30118 32.1445 3.87779Z" fill="#DFE3E5"/>
<path d="M60.9173 50.066L52.3944 48.5634C51.4321 48.3937 50.7896 47.4763 50.9593 46.514L52.9991 34.9457C53.1688 33.9834 54.0863 33.3409 55.0486 33.5106L63.5715 35.0131C64.5337 35.1828 65.1763 36.1003 65.0066 37.0625L62.9667 48.6309C62.797 49.5931 61.8796 50.2357 60.9173 50.066Z" fill="#A0D9BB"/>
<path d="M61.5467 50.0615C53.3501 47.3575 53.5143 38.6472 54.4614 33.5071C53.7383 33.6234 53.1336 34.1833 52.9991 34.9457L50.9593 46.514C50.7896 47.4763 51.4321 48.3937 52.3944 48.5634L60.9173 50.066C61.1323 50.1038 61.3443 50.0992 61.5467 50.0615Z" fill="#78BF9B"/>
<path d="M61.0536 40.0576C60.9977 40.0576 60.9413 40.0526 60.8844 40.043L55.853 39.1558C55.3273 39.0631 54.9764 38.5616 55.069 38.0354C55.1617 37.5097 55.6637 37.1593 56.1889 37.2514L61.2203 38.1386C61.746 38.2313 62.0969 38.7328 62.0043 39.2585C61.9217 39.7273 61.5138 40.0576 61.0536 40.0576Z" fill="#F6E06A"/>
<path d="M58.8033 43.2264C58.7474 43.2264 58.691 43.2213 58.6341 43.2118L56.8838 42.9031C56.3581 42.8105 56.0071 42.3089 56.0998 41.7832C56.1924 41.257 56.694 40.9061 57.2197 40.9987L58.97 41.3074C59.4957 41.4 59.8466 41.9016 59.754 42.4273C59.6714 42.8961 59.2635 43.2264 58.8033 43.2264Z" fill="#F6E06A"/>
<path d="M42.212 23.4781V22.0324C42.212 21.4987 41.7794 21.0656 41.2452 21.0656C40.7114 21.0656 40.2784 21.4987 40.2784 22.0324V23.4781C40.2784 24.0123 40.7114 24.4449 41.2452 24.4449C41.7794 24.4449 42.212 24.0123 42.212 23.4781ZM24.011 23.4781V22.0324C24.011 21.4987 23.578 21.0656 23.0442 21.0656C22.5105 21.0656 22.0774 21.4987 22.0774 22.0324V23.4781C22.0774 24.0123 22.5105 24.4449 23.0442 24.4449C23.578 24.4449 24.011 24.0123 24.011 23.4781ZM63.7393 34.061L55.2164 32.5584C54.4968 32.4315 53.7712 32.5927 53.1725 33.0116C52.5738 33.4305 52.174 34.058 52.0471 34.7775L51.3512 38.7253C50.1181 39.3784 48.9655 39.7243 47.3979 39.8945C47.3934 39.605 47.3582 39.3144 47.2907 39.0264C48.7661 38.1306 50.0098 37.0631 51.0043 35.8279C53.4872 32.7452 54.2813 28.7381 53.3004 24.2394C52.7531 21.7293 51.9268 19.4457 50.8401 17.423C51.526 17.925 52.3432 18.1924 53.1947 18.1924C53.2868 18.1924 53.379 18.1894 53.4716 18.1829C54.5391 18.1108 55.5145 17.6269 56.2184 16.8208C56.9219 16.0151 57.2698 14.9829 57.1973 13.9153C57.1253 12.8478 56.6414 11.8725 55.8353 11.1685L53.387 9.03101C51.457 7.34617 48.9846 6.3552 46.4251 6.24039C45.4286 6.19608 44.4306 6.28521 43.4522 6.50374C42.2447 5.89396 40.8892 5.46544 39.3886 5.30532C39.8297 4.74689 40.58 4.03186 41.7502 3.38431C42.3469 3.05399 42.6667 2.38025 42.5458 1.70853C42.4235 1.03026 41.9043 0.525715 41.2235 0.422993C38.7955 0.0584303 34.4791 0.135976 32.1447 2.35709C29.8103 0.135976 25.4934 0.0584303 23.0659 0.422993C22.3851 0.525715 21.8659 1.02976 21.7436 1.70853C21.6227 2.38025 21.9425 3.05399 22.5397 3.38431C23.7079 4.03136 24.4582 4.74538 24.8998 5.3033C23.373 5.46242 22.0135 5.89245 20.8095 6.49669C19.8402 6.28319 18.8512 6.19658 17.8643 6.24039C15.3048 6.3552 12.8324 7.34617 10.9029 9.03101L8.45415 11.1685C6.79045 12.6213 6.61875 15.1571 8.07146 16.8208C8.86202 17.7266 9.97383 18.1904 11.0917 18.1904C11.9175 18.1904 12.7468 17.9366 13.4513 17.421C12.3631 19.4447 11.5373 21.7268 10.9895 24.2399C10.3606 27.1227 10.4532 29.7894 11.2639 32.1657C11.4009 32.5675 11.7765 32.8203 12.1788 32.8203C12.2821 32.8203 12.3878 32.8036 12.491 32.7684C12.9961 32.5957 13.266 32.0463 13.0938 31.5413C12.3984 29.5029 12.3259 27.1851 12.8783 24.6518C13.5651 21.5022 14.7126 18.7564 16.2872 16.4829C19.4132 14.5684 23.7195 12.6741 25.856 12.0799C25.8953 12.6691 26.0096 13.2169 26.2019 13.7527C26.3897 14.2774 26.8248 14.6727 27.3651 14.8096C27.9034 14.9466 28.4714 14.8071 28.8848 14.438C29.8214 13.6016 31.1265 12.948 32.0959 12.587C32.8859 13.0765 34.0219 14.6289 34.7299 15.5957L34.8462 15.7548C35.1911 16.2251 35.7631 16.4663 36.3397 16.3842C36.9178 16.3016 37.4012 15.9094 37.6016 15.36C37.7778 14.8766 38.2526 13.4753 38.3936 12.0764C40.6117 12.7456 44.8223 15.0916 47.5737 17.071C47.8698 17.284 48.2152 17.3913 48.5621 17.3913C48.5727 17.3913 48.5833 17.3908 48.5938 17.3903C49.8663 19.4739 50.8134 21.9121 51.4106 24.6518C52.2626 28.5588 51.6015 32.004 49.4982 34.6154C48.5309 35.8163 47.2811 36.8405 45.7685 37.6814C45.7544 37.6865 45.7403 37.691 45.7262 37.6975C45.6622 37.7252 45.6033 37.7595 45.5489 37.7988C42.2326 39.5747 37.6998 40.4977 32.1447 40.4977C26.5917 40.4977 22.0487 39.5712 18.7269 37.7892C18.6765 37.7544 18.6216 37.7232 18.5632 37.6975C18.5597 37.696 18.5562 37.695 18.5526 37.6935C17.1558 36.9216 15.9796 35.9956 15.0445 34.9185C14.694 34.5152 14.0837 34.4724 13.6804 34.8223C13.2776 35.1723 13.2343 35.7831 13.5842 36.1864C14.5248 37.269 15.6689 38.2152 16.9997 39.0234C16.9197 39.3622 16.8839 39.7062 16.8915 40.0471C15.2983 39.6488 14.1285 38.752 13.7524 38.4342C12.9362 37.7454 11.9094 37.4659 10.923 37.5727C10.489 35.5308 9.19284 33.7468 7.38664 32.7039C8.78095 31.0423 9.3862 28.8151 9.00804 26.67L8.34841 22.9292C8.25575 22.4035 7.75423 22.0526 7.22853 22.1452C6.70284 22.2379 6.35137 22.7394 6.44402 23.2651L6.60364 24.1704L2.07883 24.9681L1.91921 24.0627C1.82656 23.537 1.32553 23.186 0.799334 23.2787C0.273638 23.3713 -0.077833 23.8729 0.0148183 24.3985L0.342623 26.2556V26.2561V26.2566L0.674456 28.1393C1.05312 30.2849 2.38347 32.1707 4.26168 33.2553C2.86737 34.9165 2.26212 37.1436 2.64028 39.2892L3.29991 43.03C3.383 43.4988 3.79087 43.8291 4.2511 43.8291C4.30699 43.8291 4.36339 43.8241 4.42029 43.814C4.94599 43.7214 5.29695 43.2199 5.2043 42.6942L5.04468 41.7888L7.57094 41.3432C7.58202 42.3996 8.03369 43.446 8.9023 44.1796C11.6018 46.4581 14.9025 47.7114 18.2697 47.7527C18.5451 48.5272 18.8961 49.2714 19.3155 49.9764C17.8447 50.7644 16.8532 50.4829 15.6764 50.002C14.8849 49.6793 14.0147 49.6833 13.2267 50.0146C12.4382 50.3455 11.8264 50.9638 11.5031 51.7554C11.1798 52.5469 11.1843 53.4171 11.5152 54.2051C11.8465 54.9931 12.4648 55.6054 13.2564 55.9287C14.8159 56.5657 16.2545 56.8754 17.6543 56.8754C19.1282 56.8754 20.5587 56.5234 21.9883 55.8099C21.8312 57.7838 21.8503 59.8306 22.0371 62.2361C22.1887 64.1807 23.8338 65.7039 25.7825 65.7039C25.8797 65.7039 25.9789 65.6999 26.077 65.6924C28.1436 65.5312 29.694 63.719 29.5333 61.6525C29.3833 59.7234 29.3576 58.1871 29.4573 56.7228C30.3289 56.8713 31.2267 56.9499 32.1447 56.9499C33.0627 56.9499 33.961 56.8713 34.8321 56.7228C34.9318 58.1871 34.9061 59.7234 34.7561 61.6525C34.5954 63.7195 36.1458 65.5312 38.2124 65.6924C38.3105 65.6999 38.4097 65.7039 38.5074 65.7039C39.5654 65.7039 40.581 65.2523 41.293 64.4652C41.651 64.0694 41.6208 63.4581 41.225 63.0996C40.8288 62.7416 40.2175 62.7718 39.8594 63.1681C39.4808 63.5866 38.9299 63.8091 38.3624 63.7643C37.3589 63.6863 36.6061 62.8061 36.6841 61.8025C36.8503 59.6685 36.8679 57.9252 36.737 56.2746C37.9913 55.8945 39.1706 55.3632 40.2482 54.7046C40.4566 56.4131 40.5186 58.105 40.4466 60.0159C40.4264 60.5497 40.8423 60.9984 41.3761 61.0185C41.3882 61.019 41.4008 61.0195 41.4134 61.0195C41.9305 61.0195 42.359 60.6101 42.3786 60.089C42.4693 57.6846 42.3595 55.6049 42.0237 53.4281C43.9094 51.843 45.3359 49.8122 46.0993 47.5206C47.5898 47.4617 48.8305 47.3288 49.9811 47.1012C50.0279 47.5599 50.1891 48.002 50.4605 48.3902C50.8799 48.9884 51.5068 49.3882 52.2269 49.5151L60.7498 51.0177C60.9099 51.0459 61.0711 51.06 61.2307 51.06C61.7866 51.06 62.3289 50.8903 62.7937 50.5645C63.3924 50.1456 63.7917 49.5181 63.9191 48.7986L65.9589 37.2303C66.2208 35.7448 65.2253 34.3233 63.7393 34.061ZM12.4518 15.7472C11.5912 16.499 10.2795 16.4099 9.5277 15.5493C8.77641 14.6883 8.86504 13.3766 9.72609 12.6253L12.1743 10.4878C13.7756 9.08942 15.827 8.26714 17.9504 8.17197C18.0692 8.16694 18.1881 8.16391 18.3069 8.16291C16.0677 10.0688 14.6532 12.5377 13.9815 14.4118L12.4518 15.7472ZM37.4656 9.95652C37.4601 9.95652 37.455 9.95652 37.4495 9.95652C37.1811 9.95652 36.9243 10.0683 36.7415 10.2652C36.5547 10.4661 36.4621 10.737 36.4867 11.0099C36.5633 11.8574 36.3044 13.0694 35.9998 14.0573C34.9137 12.583 33.7042 11.0386 32.4453 10.6267C32.2499 10.5628 32.0395 10.5628 31.8436 10.6267C30.7237 10.9933 29.1466 11.7275 27.9084 12.731C27.7755 12.2154 27.7433 11.6686 27.8027 11.0099C27.8268 10.737 27.7347 10.4661 27.5479 10.2652C27.3611 10.0643 27.0972 9.95299 26.8238 9.95652C24.7326 9.99025 19.1614 12.6041 16.0793 14.3615C16.9453 12.3675 18.6594 9.87948 21.3206 8.41367C21.3735 8.39151 21.4243 8.36432 21.4722 8.33361C22.8181 7.6211 24.3992 7.16892 26.2306 7.16892C26.2785 7.16892 26.3273 7.16892 26.3751 7.16942C26.641 7.17395 26.8928 7.06821 27.0776 6.87989C27.2624 6.69156 27.3626 6.43627 27.354 6.17241C27.3127 4.85264 25.9159 3.30576 24.3413 2.22768C26.8117 2.05295 30.1507 2.4729 31.3204 4.38233C31.4961 4.66935 31.8083 4.84407 32.1447 4.84407C32.4811 4.84407 32.7933 4.66935 32.969 4.38233C34.1387 2.4729 37.4767 2.05295 39.9481 2.22768C38.3735 3.30576 36.9767 4.85264 36.9354 6.17241C36.9268 6.43627 37.0265 6.69156 37.2118 6.87989C37.3966 7.06821 37.6529 7.17496 37.9138 7.16942C37.9636 7.16892 38.012 7.16892 38.0613 7.16892C39.8927 7.16892 41.4592 7.61103 42.778 8.31095C42.8389 8.35425 42.9054 8.39 42.9753 8.41871C45.9744 10.099 47.6442 13.1102 48.1915 15.1415C45.3369 13.1721 39.8665 9.99579 37.4656 9.95652ZM45.9296 8.16391C46.0661 8.16391 46.2025 8.16593 46.339 8.17247C48.4624 8.26764 50.5138 9.08992 52.1151 10.4878L54.5633 12.6253C54.9802 12.9893 55.2305 13.4939 55.2678 14.0463C55.3055 14.5987 55.1258 15.1324 54.7612 15.5493C54.3971 15.9663 53.8926 16.2165 53.3407 16.2538C52.7883 16.2905 52.2546 16.1113 51.8376 15.7472L49.8844 14.0417C49.2313 12.0361 47.8949 9.8548 45.9296 8.16391ZM7.92745 35.6658L4.76723 36.2227C5.01296 35.5127 5.4027 34.851 5.92436 34.2911L6.03464 34.1723L6.17966 34.2463C6.86095 34.5942 7.45362 35.0822 7.92745 35.6658ZM2.57884 27.8035L2.41469 26.8724L6.94 26.0743L7.10416 27.0054C7.14595 27.243 7.16962 27.4817 7.17919 27.7199L2.75257 28.5009C2.68006 28.2733 2.62114 28.0407 2.57884 27.8035ZM3.72138 30.293L6.8821 29.7361C6.63637 30.4461 6.24663 31.1077 5.72496 31.6677L5.61418 31.7865L5.46967 31.713C4.78787 31.365 4.19521 30.8766 3.72138 30.293ZM8.45516 38.8819C8.34841 39.0083 8.25273 39.1397 8.16612 39.2751L4.70932 39.8844L4.54517 38.9534C4.50287 38.7162 4.4792 38.4775 4.46964 38.2388L8.89626 37.4584C8.96877 37.686 9.02818 37.9181 9.06998 38.1558L9.09264 38.2852C8.86252 38.4554 8.64751 38.6538 8.45516 38.8819ZM10.1501 42.7022C9.63848 42.2697 9.42548 41.6146 9.53072 40.9977L9.56999 40.9907L9.72962 41.8961C9.8122 42.3654 10.2201 42.6952 10.6803 42.6952C10.7362 42.6952 10.7926 42.6906 10.8495 42.6806C11.3752 42.5879 11.7267 42.0864 11.634 41.5607L11.3062 39.7036C11.3062 39.7031 11.3062 39.7031 11.3062 39.7031V39.7026L11.2679 39.4856C11.704 39.471 12.1466 39.609 12.5056 39.9121C13.2061 40.5038 15.0304 41.8371 17.5028 42.1216C17.5461 42.1926 17.5919 42.2616 17.6397 42.3296C17.5904 42.7762 17.5647 43.2264 17.5647 43.6725C17.5647 44.3971 17.6302 45.1081 17.753 45.8015C15.0208 45.6454 12.3596 44.5673 10.1501 42.7022ZM32.1447 43.7758C33.7082 43.7758 34.9806 45.0482 34.9806 46.6117C34.9806 48.1752 33.7082 49.4476 32.1447 49.4476C30.5812 49.4476 29.3088 48.1752 29.3088 46.6117C29.3088 45.0482 30.5812 43.7758 32.1447 43.7758ZM18.8251 39.9912C21.8257 41.3729 25.5685 42.1811 29.9467 42.381C28.9638 42.8936 28.1808 43.738 27.7478 44.7652C24.9763 44.2577 22.3398 43.2788 19.8996 41.8467C19.6952 41.7264 19.5179 41.5753 19.3684 41.4046C19.3669 41.4031 19.3654 41.4011 19.3638 41.3996C19.0224 41.0073 18.8321 40.5063 18.8251 39.9912ZM17.6543 54.9418C16.5103 54.9418 15.3109 54.6794 13.9876 54.1386C13.6738 54.0107 13.4291 53.7685 13.2982 53.4563C13.1668 53.1441 13.1653 52.7997 13.2932 52.4865C13.4211 52.1733 13.6633 51.9286 13.9755 51.7972C14.2877 51.6662 14.6321 51.6642 14.9453 51.7921C16.4624 52.412 18.1317 52.8868 20.4308 51.5686C20.9762 52.2378 21.589 52.8591 22.2602 53.4236C20.7068 54.4443 19.1962 54.9418 17.6543 54.9418ZM25.927 63.7648C24.9194 63.8429 24.0422 63.0785 23.9652 62.0865C23.7426 59.2279 23.7608 56.9811 24.0407 54.7046C25.1188 55.3632 26.2981 55.8945 27.5524 56.2746C27.4215 57.9258 27.4396 59.6685 27.6053 61.803C27.6838 62.8066 26.9305 63.6868 25.927 63.7648ZM32.1447 55.0163C25.2356 55.0163 19.6035 50.0202 19.5008 43.8443C21.9661 45.2088 24.6092 46.1535 27.3767 46.6626C27.4044 49.2689 29.5318 51.3812 32.1447 51.3812C34.7576 51.3812 36.8855 49.2689 36.9127 46.6626C39.6802 46.1535 42.3233 45.2088 44.7886 43.8443C44.6859 50.0202 39.0538 55.0163 32.1447 55.0163ZM44.9256 41.3991C44.924 41.4011 44.9225 41.4026 44.921 41.4046C44.7715 41.5753 44.5942 41.7264 44.3898 41.8462C41.9501 43.2783 39.3131 44.2577 36.5421 44.7647C36.1086 43.7375 35.3256 42.8936 34.3427 42.381C38.7265 42.1816 42.4663 41.3739 45.4643 39.9932C45.4568 40.5078 45.2665 41.0083 44.9256 41.3991ZM50.2329 45.0684C49.1447 45.3277 47.9866 45.4848 46.5762 45.5628C46.6733 44.945 46.7247 44.3141 46.7247 43.672C46.7247 43.2259 46.6995 42.7762 46.6502 42.3296C46.7514 42.1846 46.843 42.034 46.9246 41.8784C48.4896 41.7571 49.7505 41.4978 50.9439 41.035L50.2329 45.0684ZM64.0545 36.8949L62.0147 48.4632C61.9774 48.6742 61.8601 48.858 61.6849 48.9809C61.5091 49.1042 61.2961 49.1511 61.0852 49.1138L52.5627 47.6112C52.3513 47.574 52.1675 47.4567 52.0446 47.2814C51.9217 47.1057 51.8744 46.8927 51.9117 46.6817L53.9515 35.1134C53.9888 34.9024 54.1056 34.7186 54.2813 34.5957C54.4571 34.4729 54.6696 34.4255 54.8805 34.4628L63.4035 35.9654C63.8395 36.0424 64.1311 36.4593 64.0545 36.8949ZM28.2936 30.1747C27.9427 29.7718 27.3324 29.73 26.9295 30.081C26.5272 30.432 26.4854 31.0428 26.8364 31.4451C28.1753 32.9819 30.1104 33.8631 32.1447 33.8631C34.1795 33.8631 36.1146 32.9819 37.4535 31.4451C37.8045 31.0428 37.7627 30.432 37.3599 30.081C36.9575 29.73 36.3467 29.7723 35.9958 30.1747C35.2395 31.0423 34.2213 31.6208 33.1115 31.8353V28.9163C33.2444 28.8765 33.3749 28.8292 33.5027 28.7723L35.5652 27.8554C36.1821 27.5809 36.6418 27.0512 36.8271 26.4016C37.0119 25.7526 36.9006 25.0597 36.521 24.5018C36.0507 23.8099 35.3457 23.3124 34.5365 23.1004C32.972 22.691 31.3179 22.6905 29.7534 23.1004C28.9442 23.3124 28.2392 23.8099 27.7689 24.5013C27.3893 25.0597 27.278 25.7526 27.4628 26.4016C27.6481 27.0512 28.1078 27.5804 28.7247 27.8554L30.7872 28.7723C30.9151 28.8292 31.0455 28.8765 31.1779 28.9163V31.8353C30.0686 31.6208 29.0499 31.0423 28.2936 30.1747ZM29.5102 26.0884C29.3843 26.0325 29.3385 25.9288 29.3224 25.8719C29.3062 25.815 29.2906 25.7027 29.3677 25.5889C29.5751 25.2838 29.8858 25.0647 30.2428 24.9711C30.8647 24.8084 31.5047 24.7269 32.1447 24.7269C32.7847 24.7269 33.4247 24.8084 34.0466 24.9711C34.4036 25.0647 34.7143 25.2838 34.9212 25.5889C34.9988 25.7027 34.9832 25.815 34.967 25.8719C34.9509 25.9288 34.9051 26.0325 34.7792 26.0884L32.7167 27.0054C32.3532 27.167 31.9362 27.167 31.5727 27.0054L29.5102 26.0884Z" fill="black"/>
</g>
<defs>
<clipPath id="clip0_1591_26128">
<rect width="66.0003" height="66" fill="white"/>
</clipPath>
</defs>
</svg>
