<svg width="66" height="66" viewBox="0 0 66 66" fill="none" xmlns="http://www.w3.org/2000/svg">
<g clip-path="url(#clip0_1591_26158)">
<path d="M48.204 30.3474C61.002 39.4811 62.5509 49.9945 61.0292 55.5994C60.6128 57.1326 59.1641 58.1307 57.5789 58.0304C52.8829 57.7339 43.5775 60.3195 37.461 60.9847C36.0627 52.4663 31.8224 51.0625 31.8224 51.0625C29.4104 47.1228 25.4033 33.6516 25.6737 30.8534L48.204 30.3474Z" fill="#F6E06A"/>
<path d="M47.71 33.4073C46.783 32.3428 45.4521 31.3499 43.9214 30.4435L25.6736 30.8534C25.4037 33.6515 29.4109 47.1227 31.8228 51.0624C31.8228 51.0624 36.0631 52.4668 37.4615 60.9847C42.6897 60.4162 50.2458 58.4458 55.2636 58.0702C62.0503 50.6767 52.0999 38.4503 47.71 33.4073Z" fill="#EDCC5F"/>
<path d="M49.3347 55.1713C45.7948 55.1713 42.5102 53.3153 38.8052 49.3972C37.7815 48.3146 37.8288 46.6076 38.9114 45.5839C39.994 44.5607 41.701 44.6081 42.7242 45.6907C47.3281 50.5589 49.6313 50.1545 52.1636 49.1203C53.5433 48.5573 55.1178 49.219 55.6803 50.5977C56.2438 51.9769 55.5821 53.5514 54.2029 54.1144C52.4929 54.8133 50.8891 55.1713 49.3347 55.1713Z" fill="#495059"/>
<path d="M18.6624 43.8447C18.2908 43.882 17.9071 43.8573 17.5234 43.7636C13.0862 42.675 8.66414 39.8647 5.39063 36.0529C4.1771 34.6405 4.33924 32.512 5.75167 31.2985C7.1641 30.0855 9.29306 30.2471 10.5061 31.6595C12.8843 34.429 16.0274 36.4532 19.1297 37.2146C20.9384 37.6577 22.0447 39.4835 21.6011 41.2923C21.2516 42.7173 20.0436 43.7062 18.6624 43.8447Z" fill="#DDAF89"/>
<path d="M28.5929 65.0331C27.5923 65.0331 26.6019 64.5895 25.9367 63.7411C23.6531 60.8271 20.7789 56.3053 22.1783 50.7069C22.6299 48.9007 24.4608 47.802 26.267 48.2537C28.0732 48.7054 29.1719 50.5357 28.7203 52.3424C28.1865 54.4779 28.9413 56.6432 31.244 59.5818C32.3926 61.0471 32.1358 63.1665 30.67 64.3151C30.0531 64.7985 29.32 65.0331 28.5929 65.0331Z" fill="#DDAF89"/>
<path d="M41.6105 65.0331C40.8315 65.0331 40.049 64.7642 39.4126 64.2164C36.2428 61.4877 34.2286 57.9901 33.0735 53.209C32.6364 51.3993 33.7492 49.5775 35.5595 49.1404C37.3697 48.7033 39.191 49.8161 39.6281 51.6259C40.4463 55.0127 41.7364 57.3194 43.8115 59.1059C45.2229 60.321 45.382 62.4494 44.1675 63.8609C43.5003 64.6353 42.5582 65.0331 41.6105 65.0331Z" fill="#DDAF89"/>
<path d="M28.7201 52.3424C29.1717 50.5357 28.073 48.7054 26.2668 48.2537C24.4606 47.802 22.6298 48.9007 22.1781 50.7069C21.8488 52.0247 21.7586 53.2815 21.8392 54.4729C24.1117 55.8274 26.7306 56.7348 29.5459 57.0571C28.5982 55.3078 28.351 53.8178 28.7201 52.3424Z" fill="#D1A582"/>
<path d="M39.6286 51.6259C39.191 49.8161 37.3702 48.7033 35.5595 49.1404C33.7492 49.5775 32.6364 51.3993 33.0735 53.2095C33.4068 54.5887 33.8142 55.8586 34.2981 57.0369C36.6265 56.7509 38.8174 56.0641 40.7862 55.055C40.3204 54.0479 39.9398 52.9154 39.6286 51.6259Z" fill="#D1A582"/>
<path d="M19.1296 37.2146C17.5686 36.8314 15.9976 36.1279 14.5187 35.1712C13.921 36.8158 13.5962 38.5721 13.5962 40.3969C13.5962 41.0802 13.6425 41.754 13.7306 42.4156C14.9759 42.9952 16.2488 43.4509 17.5233 43.7636C17.907 43.8573 18.2907 43.8819 18.6623 43.8447C20.044 43.7062 21.2515 42.7172 21.601 41.2922C22.0446 39.4835 20.9383 37.6577 19.1296 37.2146Z" fill="#D1A582"/>
<path d="M48.2754 40.3969C48.2754 32.1877 40.9167 25.533 31.8389 25.533C22.7616 25.533 15.4028 32.1877 15.4028 40.3969C15.4028 48.6061 22.7616 55.2614 31.8389 55.2614C40.9167 55.2614 48.2754 48.6061 48.2754 40.3969Z" fill="#DDAF89"/>
<path d="M16.9938 30.8534C16.1372 31.9627 15.4232 33.1702 14.8819 34.4557C14.1442 36.207 14.8245 38.2373 16.4635 39.1991C20.9748 41.8477 26.2292 43.3669 31.8386 43.3669C37.448 43.3669 42.7025 41.8477 47.2137 39.1991C48.8527 38.2373 49.533 36.207 48.7953 34.4557C48.254 33.1702 47.54 31.9627 46.6835 30.8534H16.9938Z" fill="#7F9AE6"/>
<path d="M42.4661 52.0302C41.8084 52.0302 41.1297 51.9768 40.4353 51.8681C38.5958 51.5806 37.337 49.8559 37.625 48.0165C37.912 46.1766 39.6372 44.9182 41.4766 45.2062C42.9011 45.4288 44.0396 45.1836 44.5235 44.5511C44.9591 43.9821 44.9329 43.0007 44.4535 41.9257C43.6952 40.2247 44.4596 38.2317 46.1605 37.4734C47.8615 36.7156 49.8545 37.4799 50.6128 39.1804C52.1134 42.5481 51.8389 46.0879 49.8787 48.6494C48.1963 50.8469 45.5603 52.0302 42.4661 52.0302Z" fill="#C49B7A"/>
<path d="M24.353 34.9744C21.6404 34.0524 19.1529 32.6445 16.9943 30.8534C16.1372 31.9627 15.4232 33.1702 14.8819 34.4557C14.1442 36.207 14.8245 38.2373 16.4635 39.1991C18.8095 40.5762 21.3574 41.6447 24.0504 42.3563C23.0624 40.3738 23.3424 37.3969 24.353 34.9744Z" fill="#5E78BF"/>
<path d="M25.7298 11.8679C25.0677 11.8679 24.4 11.666 23.8234 11.247L19.8263 8.34363C18.076 7.0722 15.7154 7.17794 14.0855 8.60094L11.4686 10.886C10.1171 12.0658 8.06466 11.9268 6.88487 10.5753C5.70508 9.22382 5.84405 7.17139 7.19555 5.9916L9.81245 3.70654C11.6997 2.05896 14.1172 1.08964 16.6203 0.977353C19.1234 0.865567 21.6174 1.61483 23.6447 3.08718L27.6418 5.99059C29.093 7.04501 29.4152 9.07628 28.3608 10.528C27.7254 11.4031 26.7344 11.8679 25.7298 11.8679Z" fill="#495059"/>
<path d="M37.9479 11.8679C36.9433 11.8679 35.9529 11.4032 35.3169 10.528C34.263 9.07631 34.5848 7.04503 36.0365 5.99062L40.0336 3.08721C42.0603 1.61486 44.5553 0.866601 47.0579 0.977884C49.5605 1.08967 51.978 2.05898 53.8653 3.70656L56.4827 5.99163C57.8337 7.17142 57.9732 9.22385 56.7929 10.5753C55.6131 11.9268 53.5611 12.0658 52.2091 10.886L49.5923 8.60097C47.9623 7.17797 45.6017 7.07222 43.8519 8.34366L39.8548 11.2471C39.2782 11.666 38.6101 11.8679 37.9479 11.8679Z" fill="#495059"/>
<path d="M31.8387 37.5968C48.3301 37.5968 55.7619 30.0422 53.4426 19.4049C50.9501 7.97404 43.0989 1.71655 31.8387 1.71655C20.5791 1.71655 12.7279 7.97404 10.2354 19.4049C7.91555 30.0422 15.3478 37.5968 31.8387 37.5968Z" fill="#DDAF89"/>
<path d="M34.1366 44.0673C34.1366 46.6031 32.0812 48.6586 29.5459 48.6586C27.01 48.6586 24.9546 46.6031 24.9546 44.0673C24.9546 41.5315 27.01 39.476 29.5459 39.476C32.0812 39.476 34.1366 41.5315 34.1366 44.0673Z" fill="#F6E06A"/>
<path d="M22.4055 18.5419C22.4055 16.6163 20.4457 15.0554 18.0277 15.0554C15.6097 15.0554 13.6494 16.6163 13.6494 18.5419C13.6494 20.4674 15.6097 22.0279 18.0277 22.0279C20.4457 22.0279 22.4055 20.4674 22.4055 18.5419Z" fill="#FFDBDB"/>
<path d="M46.9748 18.5419C46.9748 16.6163 45.0145 15.0554 42.5965 15.0554C40.1785 15.0554 38.2188 16.6163 38.2188 18.5419C38.2188 20.4674 40.1785 22.0279 42.5965 22.0279C45.0145 22.0279 46.9748 20.4674 46.9748 18.5419Z" fill="#FFDBDB"/>
<path d="M52.4757 15.9602C51.2426 12.4258 49.4062 9.51085 47.0446 7.25902C40.1153 6.05354 32.5995 9.89203 30.2163 9.89203C28.2298 9.89203 22.6768 7.22679 16.8704 7.03696C14.0219 9.6609 11.9121 13.2234 10.6719 17.6511C16.4258 20.2795 22.4381 17.3968 30.2163 17.3968C39.2231 17.3968 45.8632 21.266 52.4757 15.9602Z" fill="#7F9AE6"/>
<path d="M32.6082 15.6601C31.1026 15.2658 29.5215 15.2658 28.0159 15.6601C27.3925 15.8232 26.8497 16.2064 26.4871 16.7397C25.9977 17.4592 26.2792 18.4462 27.0743 18.7997L29.2798 19.7805C29.9369 20.0726 30.6872 20.0726 31.3438 19.7805L33.5498 18.7997C34.3449 18.4462 34.6263 17.4592 34.1369 16.7397C33.7744 16.2064 33.2315 15.8232 32.6082 15.6601Z" fill="#495059"/>
<path d="M30.2972 31.5724C32.8245 31.5724 35.4328 29.9228 35.4328 25.756C35.4328 23.0168 33.6317 22.9302 30.2972 22.9302C26.9623 22.9302 25.1611 23.0168 25.1611 25.756C25.1611 29.9228 27.7695 31.5724 30.2972 31.5724Z" fill="#D16283"/>
<path d="M30.2975 27.0934C28.5054 27.0934 26.8649 27.5718 25.5879 28.3644C26.4283 30.6273 28.3856 31.5724 30.2975 31.5724C32.2094 31.5724 34.1662 30.6273 35.0066 28.3644C33.7296 27.5718 32.0896 27.0934 30.2975 27.0934Z" fill="#EB9898"/>
<path d="M40.0451 12.5507C39.5114 12.5507 39.0783 12.9838 39.0783 13.5175V15.0639C39.0783 15.5977 39.5114 16.0307 40.0451 16.0307C40.5794 16.0307 41.0119 15.5977 41.0119 15.0639V13.5175C41.0119 12.9838 40.5794 12.5507 40.0451 12.5507ZM60.7819 43.6901C60.5774 43.1967 60.0115 42.9625 59.5185 43.1675C59.025 43.3719 58.7914 43.9374 58.9958 44.4308C60.5563 48.1938 60.9576 52.1728 60.0961 55.3461C59.806 56.4141 58.7733 57.1356 57.6398 57.0656C54.68 56.8778 50.0409 57.7746 45.5548 58.6407C45.3202 58.686 45.0861 58.7314 44.8514 58.7762C44.725 58.6347 44.5891 58.4997 44.4425 58.3733C43.0306 57.1578 42.0114 55.6598 41.2702 53.7025C41.4439 53.5998 41.6157 53.494 41.7859 53.3858C44.3 55.2358 46.7759 56.1381 49.3344 56.1381C50.9976 56.1381 52.7096 55.769 54.5687 55.0097C55.4751 54.6401 56.1826 53.9392 56.5617 53.0368C56.9409 52.1345 56.9454 51.1385 56.5758 50.2326C55.8119 48.3625 53.6689 47.4621 51.7982 48.2255C51.5822 48.3136 51.3763 48.3937 51.1754 48.4642C52.8652 45.7063 52.9987 42.1594 51.4956 38.7872C51.1497 38.0117 50.6028 37.3883 49.9437 36.9492C50.1532 35.995 50.0686 34.987 49.6869 34.0806C49.6532 34.0015 49.6164 33.9215 49.5817 33.8419C49.8415 33.6395 50.0922 33.4305 50.3344 33.2155C53.0883 35.5217 55.3316 38.0162 57.0068 40.6407C57.1916 40.9297 57.5038 41.0873 57.8231 41.0873C58.0008 41.0873 58.1811 41.0385 58.3422 40.9353C58.7924 40.6477 58.9243 40.05 58.6368 39.6004C56.8789 36.847 54.5445 34.2382 51.6925 31.8323C51.7781 31.7321 51.8642 31.6324 51.9463 31.5302C54.5873 28.2511 55.4313 23.9871 54.3869 19.199C53.7736 16.3867 52.8496 13.8685 51.6235 11.656C52.4126 12.3236 53.3793 12.652 54.3431 12.652C55.5189 12.652 56.6886 12.164 57.521 11.2108C59.0497 9.46002 58.8689 6.79227 57.1181 5.26302L54.5012 2.97795C52.4498 1.18737 49.8218 0.133963 47.1007 0.0116026C44.586 -0.0996797 42.0724 0.590169 39.9651 1.96282C37.4982 1.15615 34.7841 0.749791 31.8389 0.749791C28.8942 0.749791 26.1796 1.15615 23.7133 1.96282C21.606 0.590169 19.0928 -0.100183 16.5772 0.0116026C13.8565 0.133963 11.2286 1.18737 9.17663 2.97846L6.55973 5.26352C4.80893 6.79227 4.62816 9.46002 6.1569 11.2108C6.98925 12.1645 8.15898 12.652 9.33474 12.652C10.2985 12.652 11.2653 12.3236 12.0544 11.656C10.8282 13.8685 9.90424 16.3867 9.29093 19.1995C8.74258 21.7137 8.71035 24.0873 9.19425 26.2546C9.31057 26.7757 9.8267 27.1035 10.3489 26.9872C10.8695 26.8709 11.1978 26.3543 11.0815 25.8331C10.659 23.9423 10.6923 21.8491 11.1802 19.6114C11.228 19.3908 11.2789 19.1738 11.3308 18.9573C12.9335 19.5187 14.5559 19.7206 16.2081 19.7206C18.2484 19.7206 20.3336 19.413 22.4776 19.0973C23.4827 18.9487 24.5165 18.7982 25.5764 18.6713C25.8226 19.1159 26.2073 19.4724 26.6817 19.6834L28.8872 20.6643C29.0367 20.7307 29.1898 20.7851 29.3454 20.8299V21.9689C27.9707 21.9881 26.943 22.0727 26.1046 22.4247C24.8196 22.9644 24.1947 24.0541 24.1947 25.7561C24.1947 27.9283 24.8574 29.7149 26.1107 30.9229C27.1918 31.9652 28.6787 32.5392 30.2976 32.5392C31.916 32.5392 33.4029 31.9652 34.484 30.9229C35.7373 29.7149 36.4 27.9283 36.4 25.7561C36.4 24.0541 35.7756 22.9644 34.4901 22.4247C33.6577 22.0752 32.6391 21.9891 31.279 21.9689V20.8299C31.4346 20.7851 31.5877 20.7307 31.7372 20.6643L33.9427 19.6834C34.4095 19.4759 34.7877 19.127 35.0344 18.6929C36.0329 18.8153 37.0078 18.9578 37.9559 19.0978C40.0819 19.4115 42.16 19.7181 44.2013 19.7181C46.8434 19.7181 49.424 19.204 51.9659 17.5277C52.1643 18.2015 52.3421 18.8953 52.4982 19.6114C53.4131 23.8079 52.7016 27.5099 50.4407 30.3171C49.7317 31.1968 48.8807 31.9879 47.8973 32.6883C47.8384 32.721 47.7845 32.7593 47.7357 32.8016C44.1016 35.3168 38.6956 36.63 31.8389 36.63C27.0196 36.63 22.8925 35.9759 19.5727 34.6853C18.197 34.1506 16.9749 33.5121 15.911 32.7744C15.8853 32.7543 15.8581 32.7346 15.8304 32.7165C14.5313 31.8036 13.4708 30.7416 12.6621 29.5361C12.365 29.0925 11.7643 28.9742 11.3207 29.2718C10.8776 29.5689 10.7593 30.1696 11.0563 30.6132C11.3575 31.0619 11.6888 31.4924 12.0473 31.9058C11.7678 31.6213 11.4969 31.3297 11.2391 31.0296C9.68067 29.2149 6.93638 29.0069 5.12163 30.5654C4.24245 31.3202 3.7102 32.3726 3.62208 33.5277C3.53447 34.6833 3.90205 35.8037 4.65686 36.6829C7.45553 39.9418 11.0679 42.5028 14.8767 43.9439C15.7594 47.4395 17.9186 50.496 20.8814 52.6859C20.4977 57.7107 23.1267 61.7234 25.1751 64.3373C26.0034 65.3937 27.2487 66 28.5921 66C29.5705 66 30.495 65.6807 31.2659 65.076C33.1491 63.6006 33.4805 60.8684 32.0046 58.9851C31.1868 57.9413 30.5796 57.0047 30.1717 56.1547C30.7206 56.2026 31.2765 56.2283 31.8389 56.2283C32.209 56.2283 32.5761 56.2142 32.9422 56.194C34.2 59.7843 36.1155 62.6539 38.7817 64.9496C39.5688 65.6268 40.5733 66 41.6106 66C42.876 66 44.0749 65.4501 44.9002 64.4919C45.6561 63.6137 46.0252 62.4933 45.9385 61.3377C45.9184 61.0728 45.8741 60.8135 45.8086 60.5612C45.8464 60.5542 45.8842 60.5471 45.9219 60.5396C50.2886 59.6961 54.8034 58.8245 57.5179 58.9957C57.6101 59.0013 57.7017 59.0043 57.7934 59.0043C59.7295 59.0043 61.4566 57.7147 61.9622 55.8531C62.9335 52.274 62.5035 47.8408 60.7819 43.6901ZM47.0146 1.94368C49.2992 2.0459 51.5067 2.93062 53.2293 4.4352L55.8467 6.71976C56.7944 7.54707 56.892 8.99173 56.0647 9.93939C55.2374 10.887 53.7928 10.9847 52.8451 10.1574L50.2282 7.87236C49.5248 7.25854 48.6859 6.83356 47.7865 6.62962C47.3857 6.24492 46.9703 5.87532 46.5383 5.52385C45.2391 4.46793 43.8232 3.58673 42.2959 2.87926C43.7653 2.19898 45.3887 1.87017 47.0146 1.94368ZM23.8115 3.97547C23.8724 3.95986 23.9318 3.93871 23.9893 3.91152C26.3493 3.09478 28.9723 2.68338 31.8389 2.68338C34.7056 2.68338 37.328 3.09478 39.6881 3.91152C39.7455 3.93871 39.8054 3.95986 39.8669 3.97547C41.3589 4.50771 42.7441 5.2036 44.018 6.06163C40.1116 6.10141 36.3068 7.25854 33.5928 8.08485C32.1113 8.53552 30.8319 8.92526 30.216 8.92526C29.6002 8.92526 28.3207 8.53602 26.8393 8.08536C24.7939 7.46298 22.1584 6.66386 19.3391 6.28218C20.7006 5.32193 22.1936 4.55303 23.8115 3.97547ZM10.8328 10.1574C9.88511 10.9847 8.44096 10.887 7.61314 9.93939C6.78582 8.99173 6.88351 7.54707 7.83168 6.71976L10.4486 4.43469C12.1717 2.93062 14.3787 2.0459 16.6638 1.94368C18.2887 1.87067 19.9126 2.19948 21.3814 2.87926C19.8547 3.58673 18.4387 4.46793 17.1396 5.52385C16.7076 5.87532 16.2921 6.24441 15.8913 6.62962C14.992 6.83356 14.1531 7.25854 13.4497 7.87236L10.8328 10.1574ZM34.4664 25.7561C34.4664 28.1005 33.3712 30.6052 30.2976 30.6052C27.2235 30.6052 26.1283 28.1 26.1283 25.7561C26.1283 24.2011 26.4626 23.8965 30.2976 23.8965C34.1326 23.8965 34.4664 24.2016 34.4664 25.7561ZM33.4115 17.5368C33.411 17.5408 33.4115 17.5443 33.411 17.5489C33.4085 17.5856 33.4024 17.6179 33.3954 17.642C33.3752 17.714 33.3168 17.8455 33.1572 17.9165L30.9512 18.8974C30.5453 19.0781 30.0791 19.0781 29.6732 18.8974L27.4672 17.9165C27.3081 17.8455 27.2497 17.714 27.229 17.642C27.2084 17.57 27.1887 17.4275 27.2869 17.2835C27.5181 16.9436 27.864 16.6994 28.2608 16.5952C28.932 16.4199 29.6218 16.3318 30.3122 16.3318C31.0026 16.3318 31.6924 16.4199 32.3636 16.5952C32.7609 16.6994 33.1068 16.9436 33.338 17.2835C33.3989 17.3731 33.4145 17.4628 33.412 17.5348C33.412 17.5353 33.4115 17.5358 33.4115 17.5368ZM38.2384 17.1848C37.2616 17.0408 36.256 16.8938 35.2177 16.7669C35.1497 16.5675 35.0581 16.3746 34.9367 16.1959C34.4427 15.4698 33.703 14.9471 32.8531 14.7245C31.1909 14.2895 29.4335 14.2895 27.7713 14.7245C26.9219 14.9471 26.1817 15.4698 25.6877 16.1959C25.5714 16.3676 25.4822 16.5524 25.4148 16.7432C24.3065 16.8746 23.2355 17.0307 22.1956 17.1838C18.3622 17.7488 15.0127 18.2412 11.8459 17.0871C12.9663 13.5029 14.6989 10.5366 17.0203 8.22987C17.0374 8.21376 17.0535 8.19714 17.0696 8.18002C17.1235 8.12665 17.1784 8.07478 17.2328 8.02241C20.5581 8.19815 23.8493 9.19667 26.2768 9.93536C28.0392 10.4711 29.3127 10.8589 30.2165 10.8589C31.1199 10.8589 32.3933 10.4711 34.1557 9.93486C37.5556 8.89958 42.1857 7.49168 46.5947 8.16642C46.5992 8.17096 46.6042 8.17549 46.6088 8.18002C46.6244 8.19714 46.641 8.21376 46.6581 8.22987C48.6546 10.2138 50.2151 12.6857 51.3259 15.6188C47.3082 18.5202 43.2804 17.9285 38.2384 17.1848ZM14.495 41.6991C11.3796 40.3194 8.45103 38.1331 6.12367 35.423C5.70523 34.9356 5.5018 34.3147 5.55014 33.6742C5.59898 33.0337 5.89406 32.4506 6.38148 32.0322C7.38705 31.1681 8.90824 31.2839 9.77282 32.29C10.9113 33.6158 12.2059 34.7719 13.6249 35.7367C13.5856 36.8047 13.9084 37.8612 14.5343 38.7247C14.4698 39.2806 14.4361 39.8411 14.4361 40.397C14.4361 40.8356 14.4567 41.2696 14.495 41.6991ZM52.5294 50.0156C53.4126 49.6551 54.4252 50.08 54.7857 50.9633C54.9605 51.3913 54.9579 51.8616 54.7792 52.2881C54.5999 52.7141 54.2656 53.0449 53.8381 53.2196C52.2157 53.8823 50.7423 54.204 49.3349 54.204C47.6853 54.204 46.1017 53.7614 44.4707 52.8344C46.281 52.5343 47.8903 51.8198 49.202 50.7362C50.4372 50.786 51.5283 50.4245 52.5294 50.0156ZM48.1768 38.2373C48.2241 38.2509 48.2704 38.2675 48.3168 38.2836C48.3455 38.2937 48.3747 38.3023 48.4039 38.3133C48.9744 38.5354 49.4613 38.9725 49.7297 39.5742C51.0842 42.6131 50.8531 45.7864 49.1108 48.0619C47.6294 49.9975 45.2698 51.0635 42.4661 51.0635C41.8563 51.0635 41.2234 51.0131 40.5849 50.9134C39.9505 50.8142 39.392 50.4738 39.0134 49.9547C38.6347 49.436 38.4811 48.8006 38.5803 48.1661C38.6795 47.5311 39.0199 46.9732 39.5386 46.5945C39.955 46.2909 40.4454 46.1318 40.951 46.1318C41.0759 46.1318 41.2017 46.1419 41.3276 46.1615C43.1333 46.4435 44.5785 46.0709 45.2915 45.1388C45.9552 44.2717 45.9718 42.957 45.3368 41.5325C45.2059 41.2389 45.1404 40.9333 45.1309 40.6301C45.1304 40.6125 45.1299 40.5944 45.1294 40.5762C45.1289 40.5138 45.1309 40.4514 45.1354 40.3894C45.1359 40.3799 45.1359 40.3698 45.1369 40.3602C45.143 40.2857 45.152 40.2117 45.1651 40.1387C45.1656 40.1367 45.1661 40.1341 45.1666 40.1321C45.1782 40.0662 45.1938 40.0007 45.2109 39.9357C45.217 39.9141 45.2235 39.8929 45.2301 39.8713C45.2432 39.827 45.2578 39.7832 45.2734 39.7394C45.2829 39.7127 45.2925 39.686 45.3031 39.6598C45.3182 39.6225 45.3348 39.5868 45.3509 39.5505C45.3806 39.4871 45.4123 39.4251 45.4466 39.3642C45.4577 39.3456 45.4672 39.3265 45.4783 39.3078C45.5015 39.2701 45.5261 39.2338 45.5513 39.197C45.5639 39.1784 45.5765 39.1598 45.5901 39.1412C45.6163 39.1049 45.6435 39.0697 45.6717 39.0349C45.6853 39.0178 45.6999 39.0017 45.714 38.9851C45.7437 38.9503 45.7739 38.9156 45.8056 38.8828C45.8152 38.8723 45.8263 38.8632 45.8363 38.8531C45.8932 38.7957 45.9531 38.7418 46.0161 38.691C46.0433 38.6683 46.071 38.6457 46.0997 38.6245C46.1254 38.6049 46.152 38.5868 46.1787 38.5681C46.2155 38.5435 46.2528 38.5193 46.291 38.4961C46.3137 38.4825 46.3358 38.4689 46.359 38.4558C46.4219 38.4206 46.4864 38.3869 46.5539 38.3571C46.6294 38.3234 46.7059 38.2937 46.783 38.2685C46.7855 38.2675 46.788 38.267 46.7905 38.2665C47.2412 38.12 47.7105 38.1149 48.1456 38.2303C48.1561 38.2328 48.1662 38.2348 48.1768 38.2373ZM31.8389 38.5636C38.5667 38.5636 44.0276 37.3294 47.9537 34.9577C48.1073 35.3767 48.1592 35.8173 48.1068 36.2513C47.7533 36.2035 47.3963 36.202 47.0428 36.2428C47.0332 36.2438 47.0237 36.2448 47.0146 36.2458C46.9547 36.2534 46.8948 36.2619 46.8348 36.2715C46.8077 36.276 46.7805 36.281 46.7533 36.2861C46.6868 36.2987 46.6208 36.3118 46.5554 36.3269C46.4939 36.3415 46.433 36.3566 46.3716 36.3732C46.3384 36.3828 46.3051 36.3933 46.2719 36.4034C46.215 36.421 46.1581 36.4392 46.1017 36.4593C46.0735 36.4694 46.0453 36.4789 46.0171 36.4895C45.9335 36.5207 45.8499 36.554 45.7668 36.5907C45.6843 36.6275 45.6042 36.6673 45.5256 36.7086C45.507 36.7181 45.4894 36.7277 45.4718 36.7378C45.4038 36.7745 45.3368 36.8128 45.2714 36.8526C45.2623 36.8581 45.2527 36.8636 45.2432 36.8697C44.3383 37.4316 43.6983 38.2917 43.3947 39.262C43.3891 39.2791 43.3841 39.2962 43.3791 39.3134C43.3594 39.3793 43.3413 39.4463 43.3242 39.5133C43.3191 39.5349 43.3131 39.5561 43.3081 39.5777C43.2899 39.6563 43.2733 39.7353 43.2597 39.8149C43.2542 39.8456 43.2501 39.8768 43.2456 39.9075C43.2376 39.9594 43.2305 40.0113 43.2245 40.0631C43.2225 40.0828 43.2184 40.1019 43.2164 40.1215C40.5315 41.248 37.7052 41.962 34.7972 42.2515C34.0948 40.2258 32.2528 38.7293 30.0408 38.5329C30.6304 38.553 31.2291 38.5636 31.8389 38.5636ZM33.1698 44.0673C33.1698 46.0658 31.5444 47.6918 29.5458 47.6918C27.5468 47.6918 25.9213 46.0658 25.9213 44.0673C25.9213 42.0687 27.5468 40.4428 29.5458 40.4428C31.5439 40.4428 33.1698 42.0687 33.1698 44.0673ZM15.7272 34.9557C16.6834 35.5318 17.7313 36.0439 18.8723 36.4875C21.8613 37.6492 25.4339 38.3259 29.5146 38.5102C27.3866 38.5218 25.5386 39.7358 24.6157 41.5058C21.9273 40.828 19.3532 39.7741 16.9533 38.3652C15.772 37.6723 15.2619 36.2262 15.7272 34.9557ZM30.4829 60.178C31.3006 61.2219 31.1174 62.736 30.0735 63.5543C29.646 63.8891 29.1339 64.0664 28.5926 64.0664C27.8469 64.0664 27.1565 63.7305 26.6973 63.1444C25.0064 60.9867 22.8739 57.7862 22.7823 53.9105C24.3594 54.7886 26.1016 55.4443 27.9556 55.8305C28.3846 57.1407 29.1994 58.54 30.4829 60.178ZM31.8389 54.2947C23.309 54.2947 16.3697 48.0603 16.3697 40.397C16.3697 40.3522 16.3717 40.3063 16.3722 40.261C18.7842 41.6301 21.3557 42.6674 24.0351 43.3533C24.0049 43.5874 23.9877 43.8251 23.9877 44.0673C23.9877 47.1318 26.4808 49.6253 29.5458 49.6253C32.5781 49.6253 35.0495 47.1837 35.1014 44.1635C37.9877 43.8659 40.7974 43.174 43.4803 42.101C43.5085 42.1745 43.5382 42.247 43.5704 42.3195C43.9606 43.1941 43.8952 43.7818 43.7562 43.9636C43.586 44.1866 42.878 44.4464 41.6262 44.2511C40.4812 44.0718 39.3351 44.3498 38.399 45.0326C37.463 45.7159 36.8486 46.7224 36.6699 47.8675C36.4911 49.012 36.7686 50.1586 37.4514 51.0947C37.9368 51.7599 38.5864 52.2614 39.3321 52.5605C37.0556 53.7005 34.5072 54.2947 31.8389 54.2947ZM43.4344 63.23C42.9772 63.7617 42.3126 64.0664 41.6106 64.0664C41.0361 64.0664 40.4797 63.8594 40.0431 63.4838C37.7132 61.4777 36.0692 59.0718 34.9226 55.981C36.5329 55.7212 38.0838 55.2595 39.5436 54.6003C40.3951 56.7655 41.5663 58.4484 43.1812 59.8386C43.3614 59.9942 43.515 60.172 43.6399 60.3674C43.6419 60.3704 43.6439 60.3734 43.6464 60.3769C43.8544 60.7057 43.9803 61.0829 44.0105 61.4822C44.0583 62.1227 43.8539 62.7436 43.4344 63.23ZM20.5793 12.5507C20.0455 12.5507 19.6125 12.9838 19.6125 13.5175V15.0639C19.6125 15.5977 20.0455 16.0307 20.5793 16.0307C21.113 16.0307 21.5461 15.5977 21.5461 15.0639V13.5175C21.5461 12.9838 21.113 12.5507 20.5793 12.5507Z" fill="black"/>
</g>
<defs>
<clipPath id="clip0_1591_26158">
<rect width="65.9999" height="66" fill="white"/>
</clipPath>
</defs>
</svg>
