<svg width="170" height="170" viewBox="0 0 170 170" fill="none" xmlns="http://www.w3.org/2000/svg">
<path d="M46.0341 144.324C42.5257 144.324 38.9071 143.516 35.0472 141.94C31.9344 140.669 30.4429 137.115 31.7126 134.002C32.985 130.891 36.5388 129.398 39.6503 130.669C45.3648 133.002 50.5619 133.915 60.9508 122.928C63.2608 120.486 67.1142 120.377 69.5564 122.688C71.9987 124.998 72.1063 128.85 69.7964 131.293C61.4346 140.134 54.021 144.324 46.0341 144.324Z" fill="#495059"/>
<path d="M68.1816 167.509C64.2465 167.509 60.9145 164.479 60.6033 160.49C59.8069 150.259 60.1273 142.621 61.707 134.127C62.4761 129.995 66.4501 127.27 70.5798 128.038C74.712 128.807 77.437 132.78 76.6692 136.91C75.3307 144.1 75.0803 150.38 75.7755 159.31C76.1011 163.499 72.9701 167.159 68.7795 167.486C68.5798 167.501 68.3788 167.509 68.1816 167.509Z" fill="#DDAF89"/>
<path d="M101.984 167.509C101.786 167.509 101.586 167.501 101.386 167.486C97.1957 167.159 94.0635 163.499 94.3903 159.31C95.0855 150.38 94.8352 144.1 93.4967 136.91C92.7289 132.78 95.4539 128.807 99.5861 128.038C103.716 127.27 107.69 129.995 108.459 134.127C110.039 142.621 110.359 150.259 109.563 160.49C109.251 164.478 105.918 167.509 101.984 167.509Z" fill="#DDAF89"/>
<path d="M116.376 118.074C112.284 118.074 108.905 114.824 108.775 110.706C108.642 106.505 111.939 102.993 116.14 102.86C125.447 102.566 134.151 97.2819 139.194 92.4338C142.222 89.522 147.038 89.6167 149.951 92.6465C152.864 95.6749 152.77 100.492 149.74 103.405C140.567 112.222 128.186 117.704 116.62 118.07C116.538 118.073 116.458 118.074 116.376 118.074Z" fill="#DDAF89"/>
<path d="M53.7902 118.074C53.7085 118.074 53.6268 118.073 53.5451 118.07C41.9785 117.704 29.5973 112.222 20.4263 103.405C17.3965 100.492 17.3005 95.6749 20.2136 92.6465C23.1266 89.6167 27.9424 89.522 30.9721 92.4338C36.0149 97.2819 44.719 102.566 54.0263 102.86C58.2259 102.993 61.5229 106.505 61.3906 110.706C61.2609 114.824 57.8809 118.074 53.7902 118.074Z" fill="#DDAF89"/>
<path d="M125.706 100.893C122.686 102.017 119.451 102.755 116.14 102.86C111.939 102.992 108.642 106.505 108.775 110.704C108.905 114.824 112.284 118.074 116.376 118.074C116.456 118.074 116.538 118.073 116.621 118.07C119.822 117.969 123.085 117.473 126.326 116.626C126.725 114.508 126.935 112.332 126.935 110.112C126.935 106.935 126.507 103.847 125.706 100.893Z" fill="#D1A582"/>
<path d="M108.458 134.128C107.689 129.996 103.716 127.271 99.5851 128.04C95.4542 128.808 92.7279 132.781 93.497 136.912C94.1611 140.485 94.558 143.834 94.7033 147.395C100.113 146.225 105.119 144.093 109.496 141.207C109.248 138.863 108.905 136.53 108.458 134.128Z" fill="#D1A582"/>
<path d="M70.5803 128.04C66.4506 127.272 62.4766 129.997 61.7075 134.128C61.2614 136.53 60.9189 138.863 60.6699 141.207C65.046 144.093 70.0537 146.225 75.4635 147.395C75.6087 143.833 76.0043 140.484 76.6697 136.911C77.4375 132.78 74.7112 128.807 70.5803 128.04Z" fill="#D1A582"/>
<path d="M54.0267 102.86C50.7141 102.755 47.4807 102.017 44.4587 100.893C43.6585 103.847 43.2305 106.935 43.2305 110.113C43.2305 112.333 43.4406 114.508 43.8388 116.626C47.08 117.473 50.3432 117.969 53.5455 118.07C53.6272 118.073 53.7076 118.074 53.7893 118.074C57.8801 118.074 61.26 114.824 61.391 110.706C61.5233 106.505 58.2263 102.992 54.0267 102.86Z" fill="#D1A582"/>
<path d="M122.175 110.114C122.175 91.5882 105.568 76.5703 85.0831 76.5703C64.597 76.5703 47.9902 91.5882 47.9902 110.114C47.9902 128.641 64.597 143.659 85.0831 143.659C105.568 143.659 122.175 128.641 122.175 110.114Z" fill="#DDAF89"/>
<path d="M118.583 88.5762C109.494 96.1195 97.8184 100.655 85.0832 100.655C72.3479 100.655 60.6724 96.1195 51.5817 88.5762C49.6492 91.0794 48.037 93.8044 46.8153 96.7057C45.1512 100.658 46.6856 105.24 50.3846 107.41C60.566 113.386 72.4232 116.816 85.0832 116.816C97.7418 116.816 109.599 113.388 119.78 107.41C123.479 105.239 125.015 100.658 123.35 96.7057C122.128 93.8044 120.517 91.0794 118.583 88.5762Z" fill="#7F9AE6"/>
<path d="M68.1898 97.8756C62.0679 95.7952 56.4532 92.6189 51.5817 88.5762C49.6492 91.0794 48.037 93.8044 46.8153 96.7057C45.1512 100.658 46.6856 105.239 50.3846 107.41C55.6789 110.517 61.4285 112.929 67.5063 114.536C65.2767 110.061 65.9084 103.344 68.1898 97.8756Z" fill="#5E78BF"/>
<path d="M71.1977 46.5013C69.6932 46.5013 68.1744 46.0422 66.8645 45.0902L57.7803 38.4911C53.8011 35.6014 48.4367 35.8426 44.7325 39.076L38.7832 44.2692C35.7119 46.9514 31.0479 46.6349 28.3657 43.5636C25.6835 40.491 26 35.827 29.0713 33.1449L35.0193 27.9517C39.3098 24.2073 44.8039 22.005 50.4938 21.7495C56.1824 21.4952 61.8516 23.1982 66.4585 26.5444L75.544 33.1436C78.8422 35.5391 79.5738 40.1577 77.1782 43.456C75.7333 45.4443 73.4818 46.5013 71.1977 46.5013Z" fill="#495059"/>
<path d="M98.9678 46.5011C96.6851 46.5011 94.4335 45.4453 92.9887 43.4557C90.5918 40.1562 91.3233 35.5389 94.6229 33.1433L103.708 26.5442C108.315 23.198 113.986 21.4963 119.673 21.7492C125.362 22.0034 130.857 24.207 135.146 27.9515L141.094 33.1446C144.167 35.8268 144.482 40.4921 141.8 43.5634C139.119 46.6347 134.454 46.9511 131.382 44.269L125.434 39.0758C121.73 35.8424 116.364 35.6011 112.387 38.4921L103.301 45.0913C101.991 46.042 100.472 46.5011 98.9678 46.5011Z" fill="#495059"/>
<path d="M85.083 104.981C122.565 104.981 139.457 87.8099 134.185 63.6326C128.519 37.6525 110.675 23.4297 85.083 23.4297C59.4907 23.4297 41.6453 37.6525 35.98 63.6326C30.709 87.8099 47.5998 104.981 85.083 104.981Z" fill="#DDAF89"/>
<path d="M95.4438 118.123C95.4438 123.846 90.8057 128.484 85.0834 128.484C79.361 128.484 74.7217 123.846 74.7217 118.123C74.7217 112.401 79.361 107.762 85.0834 107.762C90.8057 107.762 95.4438 112.401 95.4438 118.123Z" fill="#F6E06A"/>
<path d="M65.6206 58.9501C65.6206 54.2108 60.7957 50.3691 54.8451 50.3691C48.8932 50.3691 44.0684 54.2108 44.0684 58.9501C44.0684 63.6906 48.8932 67.5323 54.8451 67.5323C60.7957 67.5323 65.6206 63.6906 65.6206 58.9501Z" fill="#FFDBDB"/>
<path d="M126.097 58.9501C126.097 54.2108 121.274 50.3691 115.322 50.3691C109.37 50.3691 104.545 54.2108 104.545 58.9501C104.545 63.6906 109.37 67.5323 115.322 67.5323C121.274 67.5323 126.097 63.6906 126.097 58.9501Z" fill="#FFDBDB"/>
<path d="M90.7341 51.8555C87.0286 50.8867 83.1363 50.8867 79.4308 51.8555C77.8964 52.2576 76.5592 53.2018 75.6682 54.5131C74.4633 56.2848 75.1558 58.7154 77.113 59.5856L82.5422 61.9993C84.1596 62.7192 86.0065 62.7192 87.6226 61.9993L93.0518 59.5856C95.0103 58.7141 95.7016 56.2848 94.498 54.5131C93.6056 53.2018 92.2684 52.2576 90.7341 51.8555Z" fill="#495059"/>
<path d="M85.0467 97.993C92.5382 97.993 98.612 92.3563 98.612 82.4965C98.612 71.5278 94.2541 69.166 85.0467 69.166C75.8381 69.166 71.4814 71.5278 71.4814 82.4965C71.4814 92.3563 77.554 97.993 85.0467 97.993Z" fill="#D16283"/>
<path d="M85.0462 85.3594C80.2175 85.3594 75.8246 86.7303 72.5107 88.9715C74.5496 94.782 79.3926 97.9934 85.0462 97.9934C90.6985 97.9934 95.5428 94.782 97.5804 88.9715C94.2679 86.7303 89.8749 85.3594 85.0462 85.3594Z" fill="#EB9898"/>
<path d="M70.4374 48.4862C70.4374 53.6288 66.2675 57.7974 61.1249 57.7974C55.9823 57.7974 51.8125 53.6288 51.8125 48.4862C51.8125 43.3424 55.9823 39.1738 61.1249 39.1738C66.2675 39.1738 70.4374 43.3424 70.4374 48.4862Z" fill="white"/>
<path d="M63.54 48.4873C63.54 49.8206 62.4583 50.901 61.125 50.901C59.7917 50.901 58.71 49.8206 58.71 48.4873C58.71 47.1527 59.7917 46.0723 61.125 46.0723C62.4583 46.0723 63.54 47.1527 63.54 48.4873Z" fill="#495059"/>
<path d="M118.352 48.4862C118.352 53.6288 114.184 57.7974 109.041 57.7974C103.897 57.7974 99.7285 53.6288 99.7285 48.4862C99.7285 43.3424 103.897 39.1738 109.041 39.1738C114.184 39.1738 118.352 43.3424 118.352 48.4862Z" fill="white"/>
<path d="M111.455 48.4873C111.455 49.8206 110.374 50.901 109.041 50.901C107.706 50.901 106.626 49.8206 106.626 48.4873C106.626 47.1527 107.706 46.0723 109.041 46.0723C110.374 46.0723 111.455 47.1527 111.455 48.4873Z" fill="#495059"/>
<path d="M23.9436 57.3831C24.0953 57.4117 24.2458 57.4246 24.3949 57.4246C25.5739 57.4246 26.6219 56.5842 26.841 55.3832C27.0901 54.0304 26.1938 52.7321 24.8411 52.4844L12.2369 50.1732C10.8841 49.9254 9.5858 50.8204 9.33807 52.1731C9.09035 53.5259 9.98527 54.8242 11.338 55.0719L23.9436 57.3831ZM26.7684 75.816C26.3521 74.5061 24.9526 73.7798 23.6414 74.1948L12.9917 77.5709C11.6817 77.9872 10.9554 79.3867 11.3705 80.6966C11.7064 81.7576 12.6869 82.4359 13.744 82.4359C13.993 82.4359 14.2472 82.3983 14.4975 82.3179L25.1472 78.9431C26.4584 78.5268 27.1835 77.1273 26.7684 75.816ZM100.247 15.7496C100.601 15.9221 100.975 16.0051 101.343 16.0051C102.264 16.0051 103.149 15.4928 103.58 14.6121L108.994 3.58899C109.6 2.35425 109.09 0.862702 107.855 0.255709C106.621 -0.351285 105.129 0.159731 104.523 1.39317L99.1097 12.4163C98.504 13.6511 99.0137 15.1426 100.247 15.7496ZM66.5836 14.6108C67.0168 15.4928 67.9014 16.0051 68.821 16.0051C69.1893 16.0051 69.5641 15.9221 69.9169 15.7496C71.1517 15.1426 71.6601 13.6511 71.0544 12.4163L65.642 1.39317C65.035 0.158434 63.5435 -0.349988 62.3087 0.255709C61.074 0.861405 60.5643 2.35425 61.1713 3.58899L66.5836 14.6108ZM68.9896 82.4969C68.9896 93.0868 75.5926 100.484 85.0464 100.484C94.4989 100.484 101.102 93.0868 101.102 82.4969C101.102 76.3608 99.7738 72.3414 96.9217 69.8447C94.3783 67.6164 90.9335 66.929 87.5716 66.741V64.6645C87.9322 64.5568 88.2876 64.4297 88.6339 64.2754L94.0631 61.8617C95.6727 61.1457 96.8724 59.7644 97.3549 58.0706C97.8374 56.3767 97.5468 54.57 96.5559 53.1134C95.3251 51.3041 93.4808 50.0019 91.3641 49.4481C87.2539 48.3729 82.9102 48.3716 78.8 49.4481C76.6821 50.0019 74.839 51.3041 73.6082 53.1134C72.6173 54.57 72.3267 56.3767 72.8092 58.0706C73.2917 59.7644 74.4914 61.1457 76.0997 61.8617L81.5302 64.2767C81.8765 64.4297 82.2319 64.5581 82.5912 64.6645V66.7436C74.3358 67.2286 68.9896 70.5165 68.9896 82.4969ZM78.1243 57.3105C77.7728 57.1536 77.6444 56.8643 77.599 56.7061C77.5536 56.5466 77.5095 56.2327 77.7261 55.9149C78.28 55.1004 79.11 54.5155 80.0607 54.2665C81.704 53.8359 83.3927 53.6219 85.0827 53.6219C86.7714 53.6219 88.4614 53.8359 90.1034 54.2665C91.0554 54.5155 91.8842 55.1004 92.438 55.9149C92.6546 56.2327 92.6105 56.5466 92.5651 56.7061C92.5197 56.8643 92.3926 57.1549 92.0398 57.3105L86.6106 59.7255C85.6391 60.1574 84.525 60.1561 83.5535 59.7255L78.1243 57.3105ZM85.0464 71.6566C93.2188 71.6566 96.1214 73.2934 96.1214 82.4969C96.1214 90.3981 91.7739 95.5031 85.0464 95.5031C78.3176 95.5031 73.9713 90.3981 73.9713 82.4969C73.97 73.2934 76.8727 71.6566 85.0464 71.6566ZM137.467 90.6394C135.877 92.1685 131.929 95.5926 126.314 97.9752C126.217 97.4538 126.079 96.9363 125.904 96.424C127.824 94.8922 129.533 93.2113 131.012 91.3748C137.073 83.8509 139.011 74.0742 136.619 63.1016C135.323 57.1653 133.422 51.8009 130.93 47.0318C132.549 48.0655 134.393 48.5765 136.232 48.5765C138.986 48.5765 141.726 47.4339 143.676 45.2018C147.257 41.1007 146.833 34.8505 142.732 31.2694L136.784 26.0763C132.072 21.9622 126.034 19.542 119.784 19.2619C114.056 19.0051 108.33 20.5654 103.514 23.6678C97.9139 21.8533 91.757 20.9389 85.0827 20.9389C78.4097 20.9389 72.2528 21.8533 66.6511 23.6678C61.8353 20.5654 56.1104 19.0064 50.3815 19.2619C44.1313 19.542 38.0938 21.9622 33.3818 26.0763L27.4325 31.2694C23.3327 34.8505 22.9086 41.0994 26.4896 45.2005C28.4389 47.4339 31.1795 48.5765 33.933 48.5765C35.7722 48.5765 37.6152 48.0655 39.2352 47.0305C36.7423 51.8009 34.8409 57.1653 33.5465 63.1016C32.3222 68.7163 32.2223 74.0327 33.2482 78.9003C33.5323 80.2466 34.8539 81.1052 36.1989 80.8237C37.5452 80.5397 38.4064 79.2181 38.1223 77.8731C37.2417 73.698 37.3402 69.0846 38.4129 64.1625C40.7345 53.5142 45.1456 44.9333 51.3971 38.6182C51.5774 38.482 51.7369 38.3212 51.8744 38.1435C56.0857 34.0269 61.1051 30.9115 66.8625 28.857C67.0454 28.8142 67.2256 28.7533 67.3956 28.6703C72.6964 26.8519 78.6094 25.9193 85.0827 25.9193C91.5547 25.9193 97.4677 26.8519 102.77 28.6703C102.94 28.7533 103.119 28.8142 103.3 28.857C109.058 30.9115 114.078 34.0269 118.29 38.1435C118.427 38.3212 118.587 38.482 118.768 38.6182C125.019 44.9333 129.43 53.5142 131.751 64.1625C133.812 73.6124 132.216 81.9417 127.134 88.2503C125.588 90.1699 123.738 91.8988 121.609 93.4409C121.456 93.5304 121.314 93.6329 121.186 93.7483C112.977 99.4914 100.695 102.49 85.0827 102.49C74.3993 102.49 65.2166 101.071 57.7874 98.2722C54.3906 96.9934 51.401 95.4383 48.8264 93.6238C48.7681 93.5771 48.7058 93.5343 48.641 93.4941C46.047 91.6368 43.8849 89.5097 42.1767 87.1258C41.3752 86.0078 39.8188 85.7523 38.7008 86.5526C37.5841 87.3528 37.3273 88.9092 38.1275 90.0272C39.6281 92.1219 41.6203 94.3229 44.2597 96.4279C44.0846 96.9389 43.9484 97.4551 43.8512 97.9752C38.2352 95.5926 34.2884 92.1685 32.697 90.6394C28.6828 86.7808 22.2769 86.9066 18.4183 90.9208C16.5481 92.865 15.5481 95.4214 15.6013 98.1192C15.6544 100.816 16.7543 103.33 18.6998 105.201C26.5479 112.747 36.7709 118.031 46.973 119.863C47.8809 122.801 49.1896 125.588 50.8407 128.173C46.6656 130.491 43.8888 129.711 40.5905 128.364C38.4699 127.497 36.1379 127.509 34.0264 128.398C31.9136 129.285 30.2729 130.941 29.4078 133.063C28.5414 135.183 28.5531 137.515 29.4402 139.627C30.3274 141.74 31.9836 143.38 34.1055 144.245C38.3376 145.974 42.239 146.815 46.034 146.815C50.0819 146.815 54.0105 145.836 57.9366 143.847C57.5643 149.015 57.6305 154.391 58.1207 160.684C58.5267 165.908 62.9456 170 68.1815 170C68.4422 170 68.7094 169.99 68.9727 169.969C71.6627 169.76 74.1088 168.516 75.8624 166.466C77.6172 164.416 78.4667 161.807 78.2579 159.117C77.8506 153.89 77.7845 149.597 78.0582 145.58C80.3383 145.952 82.6859 146.148 85.0814 146.148C87.4783 146.148 89.8258 145.952 92.1059 145.58C92.3796 149.597 92.3135 153.89 91.9062 159.117C91.6961 161.807 92.5469 164.416 94.3018 166.466C96.0553 168.515 98.5014 169.76 101.188 169.969C101.448 169.99 101.715 170 101.983 170C104.88 170 107.641 168.748 109.561 166.568C110.469 165.536 110.369 163.961 109.337 163.053C108.304 162.145 106.73 162.245 105.822 163.278C104.848 164.385 103.449 165.019 101.983 165.019C101.846 165.019 101.712 165.014 101.578 165.004C100.215 164.898 98.9735 164.267 98.0851 163.228C97.1967 162.189 96.7648 160.866 96.8711 159.503C97.3238 153.697 97.3717 148.961 97.0164 144.472C100.539 143.456 103.849 142.002 106.871 140.181C107.465 145.06 107.622 149.908 107.378 155.437C107.317 156.811 108.382 157.974 109.755 158.035C109.793 158.036 109.831 158.038 109.868 158.038C111.193 158.038 112.295 156.994 112.353 155.656C112.653 148.858 112.377 143.024 111.457 136.956C116.989 132.448 121.125 126.547 123.191 119.863C133.392 118.031 143.615 112.745 151.464 105.199C155.479 101.341 155.606 94.935 151.746 90.9208C147.887 86.9066 141.481 86.7821 137.467 90.6394ZM51.4879 31.8557C50.5177 32.6443 49.5839 33.473 48.6825 34.3368C46.6177 34.8193 44.6994 35.7986 43.0937 37.1993L37.1457 42.3938C35.1133 44.1668 32.0161 43.958 30.2405 41.9256C28.4662 39.8932 28.6763 36.7959 30.7087 35.0204L36.6567 29.8272C40.5231 26.4524 45.4763 24.4667 50.6033 24.2371C54.0378 24.0841 57.4709 24.7274 60.6123 26.0763C57.3399 27.6456 54.2946 29.573 51.4879 31.8557ZM121.483 34.3368C120.582 33.473 119.648 32.6443 118.678 31.8557C115.87 29.573 112.825 27.6456 109.553 26.0763C112.696 24.7261 116.129 24.0828 119.561 24.2371C124.689 24.4667 129.641 26.4524 133.507 29.8272L139.457 35.0217C141.489 36.7959 141.698 39.8932 139.924 41.9256C138.149 43.958 135.052 44.1681 133.02 42.3938L127.072 37.2006C125.466 35.7986 123.548 34.8193 121.483 34.3368ZM22.1511 101.611C21.1654 100.663 20.6077 99.3876 20.5817 98.0206C20.5545 96.6536 21.0603 95.3579 22.0084 94.3721C23.9643 92.3385 27.212 92.2736 29.2457 94.2295C33.409 98.232 38.8007 101.541 44.2169 103.451C44.5619 104.504 45.0639 105.506 45.7098 106.417C45.5723 107.646 45.5009 108.884 45.5009 110.112C45.5009 111.612 45.6034 113.09 45.7993 114.542C37.2378 112.579 28.7775 107.98 22.1511 101.611ZM85.0827 110.251C89.4225 110.251 92.9529 113.783 92.9529 118.123C92.9529 122.462 89.4225 125.993 85.0827 125.993C80.743 125.993 77.2112 122.462 77.2112 118.123C77.2112 113.783 80.743 110.251 85.0827 110.251ZM50.1546 104.02C49.0599 102.768 48.5191 101.113 48.6695 99.4577C55.2518 103.351 64.6887 106.478 78.2073 107.273C75.9752 108.692 74.2087 110.78 73.1918 113.254C65.5811 111.875 58.3425 109.194 51.6461 105.263C51.0715 104.926 50.5761 104.503 50.1572 104.023C50.1559 104.022 50.1546 104.022 50.1546 104.02ZM58.5967 137.718C54.3633 140.486 50.2454 141.834 46.034 141.834C42.8979 141.834 39.6113 141.115 35.9888 139.635C35.099 139.272 34.4038 138.584 34.0316 137.698C33.6607 136.812 33.6555 135.834 34.0186 134.945C34.3818 134.055 35.0692 133.361 35.955 132.989C36.8422 132.617 37.8188 132.611 38.7086 132.975C42.8732 134.675 47.462 135.971 53.8277 132.198C55.2946 133.915 56.9288 135.508 58.7057 136.956C58.6668 137.211 58.633 137.465 58.5967 137.718ZM72.079 163.228C71.1893 164.267 69.9493 164.898 68.5862 165.004C65.7587 165.226 63.3022 163.078 63.0856 160.297C62.4877 152.607 62.5435 146.369 63.2944 140.182C66.3152 142.002 69.6251 143.456 73.1464 144.472C72.7911 148.96 72.8403 153.697 73.2917 159.503C73.3981 160.866 72.9675 162.189 72.079 163.228ZM85.0827 141.168C66.0843 141.168 50.6163 127.356 50.484 110.334C57.2829 114.129 64.5824 116.747 72.2321 118.141C72.2411 125.219 78.0024 130.973 85.0827 130.973C92.163 130.973 97.923 125.219 97.9333 118.141C105.583 116.747 112.881 114.129 119.681 110.334C119.548 127.356 104.08 141.168 85.0827 141.168ZM120.013 104.018C120.01 104.022 120.007 104.026 120.003 104.03C119.585 104.506 119.091 104.927 118.519 105.263C111.823 109.194 104.583 111.875 96.9736 113.254C95.9554 110.777 94.185 108.687 91.949 107.267C103.979 106.55 113.945 103.902 121.495 99.4486C121.648 101.105 121.108 102.764 120.013 104.018ZM148.013 101.609C141.387 107.98 132.928 112.579 124.366 114.542C124.562 113.09 124.664 111.613 124.664 110.112C124.664 108.886 124.593 107.647 124.456 106.417C125.102 105.506 125.603 104.504 125.948 103.451C131.365 101.541 136.756 98.232 140.918 94.2295C142.953 92.2736 146.2 92.3385 148.157 94.3721C150.113 96.4071 150.048 99.6535 148.013 101.609ZM157.172 77.5709L146.523 74.1948C145.211 73.7785 143.812 74.5061 143.397 75.816C142.981 77.1273 143.707 78.5268 145.018 78.9431L155.668 82.3192C155.918 82.3983 156.171 82.4359 156.421 82.4359C157.477 82.4359 158.458 81.7576 158.794 80.6979C159.21 79.3867 158.484 77.9872 157.172 77.5709ZM160.827 52.1731C160.58 50.8204 159.28 49.9254 157.929 50.1732L145.323 52.4844C143.97 52.7321 143.075 54.0304 143.323 55.3832C143.544 56.5842 144.59 57.4246 145.769 57.4246C145.918 57.4246 146.07 57.4117 146.222 57.3831L158.827 55.0719C160.18 54.8242 161.075 53.5259 160.827 52.1731Z" fill="black"/>
</svg>
