<svg width="375" height="152" viewBox="0 0 375 152" fill="none" xmlns="http://www.w3.org/2000/svg">
<path d="M231.089 40.1511C230.062 38.1139 228.929 36.1315 227.696 34.2121C213.269 12.2378 174.642 0.272264 155.502 22.9905C150.938 28.4044 149.349 34.9498 146.271 41.1576C139.289 55.2831 126.252 63.7258 118.057 76.7916C111.716 86.9317 112.561 99.9225 116.098 110.885C119.943 122.794 126.709 131.112 137.531 137.432C149.665 144.521 162.64 142.552 175.755 140.086C181.652 138.976 187.732 137.845 193.763 138.27C201.314 138.798 208.777 140.933 216.26 141.971C224.048 143.052 232.131 143.305 239.635 140.955C263.667 133.422 269.351 98.1314 259.479 77.8982C255.982 70.7401 250.051 65.2168 244.546 59.6123C238.609 53.5795 234.968 47.6593 231.089 40.1511Z" fill="#FF9C17"/>
<path opacity="0.7" d="M231.089 40.1511C230.062 38.1139 228.929 36.1315 227.696 34.2121C213.269 12.2378 174.642 0.272264 155.502 22.9905C150.938 28.4044 149.349 34.9498 146.271 41.1576C139.289 55.2831 126.252 63.7258 118.057 76.7916C111.716 86.9317 112.561 99.9225 116.098 110.885C119.943 122.794 126.709 131.112 137.531 137.432C149.665 144.521 162.64 142.552 175.755 140.086C181.652 138.976 187.732 137.845 193.763 138.27C201.314 138.798 208.777 140.933 216.26 141.971C224.048 143.052 232.131 143.305 239.635 140.955C263.667 133.422 269.351 98.1314 259.479 77.8982C255.982 70.7401 250.051 65.2168 244.546 59.6123C238.609 53.5795 234.968 47.6593 231.089 40.1511Z" fill="white"/>
<path d="M263.182 140.62H114.856C114.814 140.62 114.774 140.604 114.745 140.574C114.716 140.545 114.699 140.505 114.699 140.464C114.699 140.423 114.716 140.383 114.745 140.353C114.774 140.324 114.814 140.308 114.856 140.308H263.182C263.223 140.308 263.262 140.325 263.291 140.354C263.32 140.383 263.337 140.423 263.338 140.464C263.338 140.505 263.321 140.545 263.292 140.574C263.263 140.604 263.223 140.62 263.182 140.62Z" fill="#263238"/>
<path d="M186.816 50.4068C186.816 50.4068 183.513 54.8923 180.488 58.8308C177.463 62.7693 174.71 65.2762 171.682 66.117C169.249 66.7922 163.237 67.2892 161.004 67.4548L156.825 91.0858H154.091L160.143 67.483C160.143 66.9922 160.29 60.9188 163.719 57.4304C167.297 53.7858 178.852 54.6172 180.503 53.7858C182.155 52.9543 186.816 50.4068 186.816 50.4068ZM156.027 53.0481C153.95 58.7683 149.539 87.5068 149.12 91.3484L146.096 90.7889V56.2926C146.096 56.2926 145.27 50.7037 142.517 48.7251C139.765 46.7465 138.391 46.7652 138.391 46.7652C135.151 47.0573 131.987 47.9098 129.039 49.2846C126.502 50.4865 124.224 52.1715 122.332 54.2452C126.524 54.5141 132.877 54.8704 135.367 57.4148C138.807 60.9063 138.936 66.9766 138.942 67.4673L144.995 91.0702H142.245L138.066 67.4392C135.817 67.2735 129.821 66.7765 127.387 66.1014C124.497 65.298 121.86 62.9756 118.995 59.3403C117.665 62.1004 116.655 64.9667 116.655 64.9667C116.794 62.571 117.202 60.1984 117.869 57.893C115.053 54.2234 112.254 50.413 112.254 50.413C112.254 50.413 116.946 52.9355 118.582 53.7764C118.805 53.8731 119.041 53.9383 119.282 53.9702C120.155 51.9738 121.314 50.1153 122.723 48.4532C128.504 41.7265 134.832 40.8856 138.958 42.286C143.083 43.6863 145.285 46.2088 145.561 47.0497C145.836 47.8905 147.209 53.4888 147.209 53.4888C147.209 53.4888 145.833 43.4019 145.02 37.7973C144.206 32.1928 145.295 25.4661 146.946 19.5802C148.598 13.6944 153.525 2.48529 153.525 2.48529C153.525 2.48529 158.201 15.6574 159.302 26.3226C159.928 32.4679 159.38 37.5754 158.364 41.3545C161.11 36.7658 165.68 32.8117 170.563 30.2454C179.634 25.4817 185.421 27.4322 185.421 27.4322C185.421 27.4322 179.937 28.2668 176.925 31.0706C173.913 33.8745 168.398 42.0109 166.196 47.3247C163.994 52.6386 155.298 54.1421 155.298 54.1421C155.201 53.8014 156.099 53.3825 156.027 53.0481ZM155.845 51.9415C155.628 50.2121 155.724 48.4578 156.127 46.7621C155.993 46.9684 155.858 47.156 155.727 47.3247C153.537 50.138 148.573 56.8522 148.573 58.5338C148.573 59.4247 148.726 64.0071 148.886 68.1238L149.411 68.0612C149.411 68.0612 151.889 59.3747 153.54 56.0113C154.228 54.6149 154.998 53.2602 155.845 51.954V51.9415Z" fill="#2D6035"/>
<path d="M165.079 116.642L147.747 115.82L130.412 116.642L123.258 142.489H126.286L134.816 129.017H147.747H160.678L169.205 142.489H172.233L165.079 116.642Z" fill="white"/>
<path d="M172.233 142.646H169.205C169.178 142.646 169.152 142.639 169.129 142.626C169.106 142.612 169.087 142.594 169.074 142.571L160.59 129.161H134.9L126.417 142.571C126.404 142.594 126.384 142.612 126.361 142.626C126.338 142.639 126.312 142.646 126.286 142.646H123.258C123.234 142.645 123.21 142.639 123.189 142.628C123.168 142.617 123.149 142.601 123.134 142.582C123.12 142.563 123.11 142.541 123.105 142.517C123.101 142.493 123.102 142.469 123.108 142.446L130.262 116.602C130.27 116.57 130.289 116.542 130.315 116.522C130.341 116.501 130.373 116.49 130.405 116.489L147.738 115.664L165.085 116.489C165.118 116.489 165.15 116.501 165.176 116.521C165.202 116.541 165.221 116.57 165.229 116.602L172.383 142.446C172.389 142.469 172.39 142.493 172.386 142.517C172.381 142.541 172.372 142.563 172.358 142.583C172.343 142.602 172.324 142.618 172.302 142.629C172.281 142.639 172.257 142.645 172.233 142.646ZM169.293 142.333H172.026L164.96 116.795L147.738 115.973L130.534 116.795L123.464 142.333H126.198L134.697 128.933C134.712 128.911 134.732 128.892 134.755 128.88C134.779 128.867 134.805 128.861 134.832 128.861H160.694C160.72 128.86 160.746 128.867 160.769 128.879C160.792 128.892 160.811 128.91 160.825 128.933L169.293 142.333Z" fill="#2D6035"/>
<path d="M130.412 90.2481H164.804V123.381C164.804 123.854 164.616 124.307 164.282 124.641C163.948 124.975 163.494 125.163 163.021 125.163H132.195C131.722 125.163 131.269 124.975 130.934 124.641C130.6 124.307 130.412 123.854 130.412 123.381V90.2481Z" fill="white"/>
<path d="M163.021 125.323H132.195C131.681 125.322 131.188 125.117 130.825 124.754C130.461 124.391 130.257 123.898 130.256 123.385V90.2512C130.257 90.21 130.273 90.1707 130.303 90.1416C130.332 90.1125 130.371 90.0957 130.412 90.0949H164.82C164.862 90.0949 164.901 90.1114 164.931 90.1407C164.96 90.17 164.976 90.2098 164.976 90.2512V123.385C164.976 123.64 164.925 123.893 164.827 124.129C164.728 124.365 164.584 124.58 164.402 124.76C164.22 124.94 164.005 125.082 163.768 125.179C163.531 125.275 163.277 125.324 163.021 125.323ZM130.569 90.4013V123.385C130.569 123.816 130.74 124.229 131.045 124.534C131.35 124.839 131.764 125.01 132.195 125.01H163.021C163.453 125.01 163.867 124.839 164.172 124.534C164.477 124.229 164.648 123.816 164.648 123.385V90.4013H130.569Z" fill="#2D6035"/>
<path d="M148.986 116.642H146.233V142.486H148.986V116.642Z" fill="white"/>
<path d="M148.986 142.646H146.234C146.192 142.646 146.152 142.629 146.123 142.6C146.094 142.571 146.077 142.531 146.077 142.489V116.658C146.077 116.616 146.094 116.577 146.123 116.547C146.152 116.518 146.192 116.502 146.234 116.502H148.986C149.028 116.502 149.067 116.518 149.097 116.547C149.126 116.577 149.143 116.616 149.143 116.658V142.502C149.139 142.541 149.121 142.577 149.092 142.604C149.063 142.63 149.025 142.645 148.986 142.646ZM146.39 142.333H148.83V116.802H146.39V142.333Z" fill="#2D6035"/>
<path d="M216.875 37.688H181.801C181.759 37.688 181.72 37.6715 181.69 37.6422C181.661 37.6129 181.645 37.5731 181.645 37.5317V8.08048C181.645 8.03928 181.662 7.99999 181.691 7.97086C181.72 7.94172 181.76 7.92499 181.801 7.92419C181.842 7.92419 181.882 7.94066 181.912 7.96997C181.941 7.99928 181.957 8.03903 181.957 8.08048V37.3754H216.719V8.08048C216.719 8.03903 216.735 7.99928 216.764 7.96997C216.794 7.94066 216.834 7.92419 216.875 7.92419C216.916 7.92419 216.956 7.94066 216.986 7.96997C217.015 7.99928 217.031 8.03903 217.031 8.08048V37.5317C217.031 37.5731 217.015 37.6129 216.986 37.6422C216.956 37.6715 216.916 37.688 216.875 37.688Z" fill="#263238"/>
<path d="M254.671 37.688H219.6C219.558 37.688 219.519 37.6715 219.489 37.6422C219.46 37.6129 219.443 37.5731 219.443 37.5317V8.08048C219.443 8.03903 219.46 7.99928 219.489 7.96997C219.519 7.94066 219.558 7.92419 219.6 7.92419C219.641 7.92499 219.68 7.94172 219.709 7.97086C219.739 7.99999 219.755 8.03928 219.756 8.08048V37.3754H254.514V8.08048C254.515 8.03928 254.532 7.99999 254.561 7.97086C254.59 7.94172 254.629 7.92499 254.671 7.92419C254.712 7.92419 254.752 7.94066 254.781 7.96997C254.811 7.99928 254.827 8.03903 254.827 8.08048V37.5317C254.827 37.5731 254.811 37.6129 254.781 37.6422C254.752 37.6715 254.712 37.688 254.671 37.688Z" fill="#263238"/>
<path d="M216.875 70.0618H181.801C181.759 70.0618 181.72 70.0453 181.69 70.016C181.661 69.9867 181.645 69.9469 181.645 69.9055V40.4543C181.645 40.4131 181.662 40.3738 181.691 40.3447C181.72 40.3155 181.76 40.2988 181.801 40.298H216.875C216.916 40.298 216.956 40.3145 216.986 40.3438C217.015 40.3731 217.031 40.4128 217.031 40.4543V69.9055C217.031 69.9469 217.015 69.9867 216.986 70.016C216.956 70.0453 216.916 70.0618 216.875 70.0618ZM181.957 69.7492H216.719V40.6106H181.957V69.7492Z" fill="#263238"/>
<path d="M254.671 70.0618H219.6C219.558 70.0618 219.519 70.0453 219.489 70.016C219.46 69.9867 219.443 69.9469 219.443 69.9055V40.4543C219.443 40.4128 219.46 40.3731 219.489 40.3438C219.519 40.3145 219.558 40.298 219.6 40.298H254.671C254.712 40.298 254.752 40.3145 254.781 40.3438C254.811 40.3731 254.827 40.4128 254.827 40.4543V69.9055C254.827 69.9469 254.811 69.9867 254.781 70.016C254.752 70.0453 254.712 70.0618 254.671 70.0618ZM219.756 69.7492H254.514V40.6106H219.756V69.7492Z" fill="#263238"/>
<path d="M216.875 102.436H181.801C181.759 102.436 181.72 102.419 181.69 102.39C181.661 102.361 181.645 102.321 181.645 102.279V72.8281C181.645 72.7869 181.662 72.7476 181.691 72.7185C181.72 72.6893 181.76 72.6726 181.801 72.6718H216.875C216.916 72.6718 216.956 72.6883 216.986 72.7176C217.015 72.7469 217.031 72.7867 217.031 72.8281V102.279C217.031 102.321 217.015 102.361 216.986 102.39C216.956 102.419 216.916 102.436 216.875 102.436ZM181.957 102.123H216.719V72.9844H181.957V102.123Z" fill="#263238"/>
<path d="M254.671 102.436H219.6C219.558 102.436 219.519 102.419 219.489 102.39C219.46 102.361 219.443 102.321 219.443 102.279V72.8281C219.443 72.7867 219.46 72.7469 219.489 72.7176C219.519 72.6883 219.558 72.6718 219.6 72.6718H254.671C254.712 72.6718 254.752 72.6883 254.781 72.7176C254.811 72.7469 254.827 72.7867 254.827 72.8281V102.279C254.827 102.321 254.811 102.361 254.781 102.39C254.752 102.419 254.712 102.436 254.671 102.436ZM219.756 102.123H254.514V72.9844H219.756V102.123Z" fill="#263238"/>
<path d="M232.309 63.657C232.268 63.6564 232.228 63.6396 232.199 63.6101C232.17 63.5804 232.154 63.5406 232.154 63.4992C232.154 63.4578 232.17 63.418 232.199 63.3882L250.31 45.2899C250.325 45.2753 250.342 45.2638 250.361 45.2559C250.38 45.248 250.401 45.2439 250.421 45.2439C250.442 45.2439 250.462 45.248 250.481 45.2559C250.501 45.2638 250.518 45.2753 250.532 45.2899C250.547 45.3045 250.559 45.3218 250.566 45.3408C250.574 45.3598 250.578 45.3802 250.578 45.4009C250.578 45.4215 250.574 45.4419 250.566 45.4609C250.559 45.4799 250.547 45.4972 250.532 45.5118L232.421 63.6101C232.392 63.6401 232.351 63.6569 232.309 63.657Z" fill="#263238"/>
<path d="M230.847 62.4192C230.827 62.4195 230.806 62.4154 230.788 62.4074C230.769 62.3993 230.752 62.3874 230.738 62.3723C230.723 62.3583 230.711 62.3414 230.703 62.3225C230.695 62.3037 230.69 62.2834 230.69 62.2629C230.69 62.2424 230.695 62.2221 230.703 62.2033C230.711 62.1845 230.723 62.1676 230.738 62.1535L235.912 56.9804C235.941 56.9509 235.981 56.9344 236.023 56.9344C236.064 56.9344 236.104 56.9509 236.134 56.9804C236.163 57.0098 236.18 57.0497 236.18 57.0913C236.18 57.1329 236.163 57.1729 236.134 57.2023L230.957 62.3723C230.943 62.3871 230.926 62.3988 230.907 62.4068C230.888 62.4149 230.868 62.4191 230.847 62.4192Z" fill="#263238"/>
<path d="M200.925 51.1789C200.905 51.1791 200.884 51.1751 200.866 51.167C200.847 51.159 200.83 51.147 200.816 51.132C200.801 51.1175 200.79 51.1002 200.782 51.0811C200.774 51.0621 200.77 51.0417 200.77 51.021C200.77 51.0004 200.774 50.98 200.782 50.9609C200.79 50.9419 200.801 50.9246 200.816 50.9101L206.665 45.0648C206.694 45.0362 206.734 45.0202 206.775 45.0202C206.816 45.0202 206.855 45.0362 206.884 45.0648C206.899 45.0794 206.91 45.0967 206.918 45.1157C206.926 45.1348 206.93 45.1552 206.93 45.1758C206.93 45.1964 206.926 45.2169 206.918 45.2359C206.91 45.255 206.899 45.2722 206.884 45.2868L201.035 51.132C201.021 51.147 201.004 51.159 200.985 51.167C200.966 51.1751 200.946 51.1791 200.925 51.1789Z" fill="#263238"/>
<path d="M208.573 43.9833C208.533 43.9823 208.494 43.9668 208.464 43.9396C208.435 43.9098 208.419 43.87 208.419 43.8286C208.419 43.7872 208.435 43.7474 208.464 43.7176L209.928 42.2548C209.957 42.2261 209.996 42.2101 210.037 42.2101C210.078 42.2101 210.118 42.2261 210.147 42.2548C210.161 42.2693 210.173 42.2866 210.181 42.3056C210.189 42.3247 210.193 42.3451 210.193 42.3657C210.193 42.3864 210.189 42.4068 210.181 42.4258C210.173 42.4449 210.161 42.4622 210.147 42.4767L208.686 43.9396C208.655 43.9675 208.615 43.9831 208.573 43.9833Z" fill="#263238"/>
<path d="M236.247 90.9702C236.206 90.9698 236.167 90.9542 236.137 90.9264C236.122 90.9119 236.111 90.8946 236.103 90.8756C236.095 90.8565 236.091 90.8361 236.091 90.8155C236.091 90.7948 236.095 90.7744 236.103 90.7553C236.111 90.7363 236.122 90.719 236.137 90.7045L244.235 82.6118C244.25 82.5972 244.267 82.5855 244.286 82.5776C244.305 82.5697 244.326 82.5656 244.346 82.5656C244.367 82.5656 244.388 82.5697 244.407 82.5776C244.426 82.5855 244.443 82.5972 244.458 82.6118C244.486 82.641 244.502 82.6803 244.502 82.7212C244.502 82.7621 244.486 82.8014 244.458 82.8306L236.356 90.9264C236.326 90.9537 236.287 90.9692 236.247 90.9702Z" fill="#263238"/>
<path d="M231.411 95.8058C231.368 95.8057 231.328 95.7888 231.298 95.7589C231.269 95.7292 231.253 95.6894 231.253 95.6479C231.253 95.6065 231.269 95.5667 231.298 95.537L234.223 92.6144C234.252 92.5855 234.292 92.5694 234.334 92.5694C234.375 92.5694 234.415 92.5855 234.445 92.6144C234.459 92.6289 234.471 92.6462 234.479 92.6652C234.487 92.6843 234.491 92.7047 234.491 92.7253C234.491 92.746 234.487 92.7664 234.479 92.7854C234.471 92.8045 234.459 92.8218 234.445 92.8363L231.52 95.7589C231.506 95.7736 231.489 95.7854 231.47 95.7934C231.451 95.8015 231.431 95.8057 231.411 95.8058Z" fill="#263238"/>
<path d="M229.271 88.4977C229.241 88.4973 229.211 88.4879 229.186 88.4707C229.16 88.4535 229.141 88.4292 229.129 88.4009C229.117 88.3726 229.114 88.3416 229.12 88.3115C229.126 88.2815 229.14 88.2538 229.162 88.232L232.087 85.3094C232.101 85.2947 232.118 85.2831 232.137 85.2752C232.157 85.2672 232.177 85.2632 232.198 85.2632C232.218 85.2632 232.239 85.2672 232.258 85.2752C232.277 85.2831 232.294 85.2947 232.309 85.3094C232.338 85.3391 232.354 85.3789 232.354 85.4203C232.354 85.4618 232.338 85.5016 232.309 85.5313L229.384 88.4508C229.354 88.4807 229.314 88.4976 229.271 88.4977Z" fill="#263238"/>
<path d="M236.247 25.7725C236.206 25.7721 236.167 25.7564 236.137 25.7287C236.122 25.7142 236.111 25.6969 236.103 25.6778C236.095 25.6588 236.091 25.6384 236.091 25.6177C236.091 25.5971 236.095 25.5767 236.103 25.5576C236.111 25.5386 236.122 25.5213 236.137 25.5068L244.235 17.4141C244.25 17.3994 244.267 17.3878 244.286 17.3799C244.305 17.3719 244.326 17.3679 244.346 17.3679C244.367 17.3679 244.388 17.3719 244.407 17.3799C244.426 17.3878 244.443 17.3994 244.458 17.4141C244.486 17.4433 244.502 17.4826 244.502 17.5235C244.502 17.5644 244.486 17.6037 244.458 17.6329L236.356 25.7287C236.326 25.7559 236.287 25.7715 236.247 25.7725Z" fill="#263238"/>
<path d="M231.411 30.6081C231.368 30.608 231.328 30.5911 231.298 30.5612C231.269 30.5314 231.253 30.4916 231.253 30.4502C231.253 30.4088 231.269 30.369 231.298 30.3392L234.223 27.4166C234.252 27.3878 234.292 27.3717 234.334 27.3717C234.375 27.3717 234.415 27.3878 234.445 27.4166C234.459 27.4312 234.471 27.4484 234.479 27.4675C234.487 27.4865 234.491 27.507 234.491 27.5276C234.491 27.5482 234.487 27.5687 234.479 27.5877C234.471 27.6067 234.459 27.624 234.445 27.6386L231.52 30.5612C231.506 30.5759 231.489 30.5876 231.47 30.5957C231.451 30.6037 231.431 30.6079 231.411 30.6081Z" fill="#263238"/>
<path d="M229.272 23.3C229.231 23.299 229.192 23.2835 229.162 23.2562C229.133 23.2265 229.117 23.1867 229.117 23.1452C229.117 23.1038 229.133 23.064 229.162 23.0343L232.087 20.1117C232.101 20.097 232.119 20.0854 232.138 20.0774C232.157 20.0695 232.177 20.0654 232.198 20.0654C232.219 20.0654 232.239 20.0695 232.258 20.0774C232.277 20.0854 232.294 20.097 232.309 20.1117C232.338 20.1409 232.354 20.1802 232.354 20.2211C232.354 20.262 232.338 20.3013 232.309 20.3305L229.384 23.2562C229.353 23.2842 229.313 23.2998 229.272 23.3Z" fill="#263238"/>
<path d="M209.879 120.162C209.879 120.162 213.283 123.913 213.633 131.652C213.983 139.392 207.649 143.843 205.888 144.318C204.617 144.626 203.321 144.822 202.016 144.906V120.981L209.879 120.162Z" fill="#FF9C17"/>
<path d="M202.028 145.062C202.009 145.062 201.989 145.058 201.971 145.051C201.953 145.043 201.936 145.032 201.922 145.018C201.891 144.989 201.873 144.948 201.872 144.906V120.981C201.872 120.942 201.886 120.905 201.912 120.877C201.939 120.848 201.974 120.831 202.013 120.828L209.88 120.006C209.904 120.003 209.93 120.006 209.953 120.014C209.976 120.023 209.997 120.037 210.014 120.056C210.049 120.093 213.455 123.941 213.808 131.646C214.171 139.595 207.715 143.999 205.948 144.462C204.666 144.771 203.36 144.97 202.044 145.056L202.028 145.062ZM202.185 121.122V144.737C203.424 144.651 204.654 144.459 205.86 144.165C207.509 143.724 213.837 139.304 213.489 131.662C213.177 124.582 210.249 120.831 209.827 120.324L202.185 121.122Z" fill="#263238"/>
<path d="M168.469 120.162C168.469 120.162 165.065 123.913 164.715 131.652C164.365 139.392 170.699 143.843 172.46 144.318C173.731 144.626 175.027 144.822 176.332 144.906V120.981L168.469 120.162Z" fill="#FF9C17"/>
<path d="M176.33 145.062C175.014 144.976 173.708 144.777 172.426 144.468C170.659 143.999 164.203 139.595 164.565 131.652C164.916 123.947 168.319 120.087 168.36 120.062C168.377 120.043 168.398 120.029 168.421 120.021C168.444 120.012 168.469 120.009 168.494 120.012L176.355 120.834C176.393 120.837 176.429 120.855 176.455 120.883C176.481 120.911 176.496 120.949 176.496 120.987V144.912C176.494 144.955 176.476 144.995 176.446 145.024C176.43 145.038 176.412 145.049 176.392 145.055C176.372 145.062 176.351 145.064 176.33 145.062ZM168.532 120.324C168.113 120.831 165.191 124.588 164.869 131.662C164.522 139.307 170.85 143.727 172.498 144.165C173.705 144.458 174.934 144.649 176.173 144.734V121.122L168.532 120.324Z" fill="#263238"/>
<path d="M220.012 67.8018C222.77 64.8417 224.607 57.4867 222.77 54.736C220.934 51.9853 211.025 55.8582 207.443 59.6373C203.862 63.4163 202.438 65.7607 202.438 65.7607C198.4 65.1699 191.247 65.2762 188.851 65.3293C186.429 65.2762 179.207 65.1699 175.169 65.7607C175.169 65.7607 173.739 63.4132 170.164 59.6373C166.589 55.8613 156.682 51.9822 154.837 54.736C152.991 57.4898 154.837 64.8417 157.596 67.8018C160.355 70.762 165.766 77.2917 166.479 78.0075C167.192 78.7233 165.969 87.0911 166.166 97.7C166.363 108.309 166.576 117.08 167.902 121.991C169.229 126.901 171.478 133.318 171.478 135.156C171.463 137.034 170.934 138.872 169.948 140.47C168.925 142.205 166.576 142.921 166.27 144.962C165.963 147.003 166.895 148.125 169.642 148.838C172.388 149.551 173.727 149.554 175.666 148.328C177.605 147.103 179.038 144.962 179.038 144.962L189.454 145.165L199.874 144.962C199.874 144.962 201.303 147.103 203.242 148.328C205.182 149.554 206.511 149.554 209.27 148.838C212.029 148.122 212.945 147.003 212.639 144.962C212.332 142.921 209.983 142.205 208.963 140.47C207.975 138.873 207.445 137.035 207.431 135.156C207.431 133.318 209.677 126.889 211.006 121.991C212.335 117.092 211.209 108.315 211.413 97.7C211.616 87.0848 210.393 78.714 211.1 78.0075C211.807 77.3011 217.253 70.762 220.012 67.8018Z" fill="#FF9C17"/>
<path d="M172.585 149.479C171.58 149.44 170.584 149.276 169.62 148.991C166.82 148.266 165.81 147.091 166.135 144.928C166.323 143.677 167.258 142.89 168.159 142.133C168.811 141.648 169.375 141.056 169.829 140.383C170.801 138.81 171.324 137.002 171.34 135.153C171.34 133.978 170.377 130.799 169.357 127.436C168.806 125.616 168.234 123.732 167.771 122.028C166.401 116.971 166.207 107.609 166.029 97.7C165.926 92.333 166.188 87.5318 166.379 84.0247C166.551 80.8989 166.692 78.4139 166.379 78.1076C166.066 77.8012 165.037 76.5853 163.708 75.0255C161.778 72.7625 159.135 69.6648 157.489 67.8987C154.756 64.9636 152.826 57.4774 154.715 54.6423C155.093 54.0765 155.788 53.7452 156.776 53.6608C160.358 53.3482 167.299 56.3677 170.28 59.5185C173.445 62.8631 174.953 65.1199 175.25 65.5825C179.357 65.0011 186.692 65.1168 188.857 65.1637C190.993 65.1168 198.241 65.0011 202.363 65.5825C202.676 65.1199 204.168 62.8631 207.331 59.5185C210.315 56.3677 217.256 53.3544 220.834 53.6608C221.826 53.7452 222.52 54.0765 222.896 54.6423C224.788 57.4774 222.858 64.9574 220.124 67.8987C218.476 69.6648 215.836 72.7625 213.906 75.0224C212.576 76.5853 211.525 77.8169 211.234 78.1076C210.944 78.3983 211.062 80.8895 211.234 84.0247C211.425 87.5318 211.688 92.333 211.585 97.7C211.51 101.635 211.619 105.364 211.713 108.64C211.882 114.379 212.026 118.915 211.172 122.016C210.709 123.719 210.14 125.604 209.586 127.426C208.566 130.79 207.603 133.965 207.603 135.141C207.619 136.989 208.142 138.798 209.114 140.37C209.568 141.044 210.132 141.636 210.784 142.121C211.688 142.877 212.62 143.659 212.811 144.915C213.124 147.069 212.123 148.244 209.323 148.979C206.668 149.666 205.229 149.744 203.174 148.447C201.403 147.331 200.077 145.496 199.805 145.106L189.482 145.309L179.144 145.106C178.872 145.496 177.546 147.331 175.776 148.447C174.841 149.105 173.728 149.465 172.585 149.479ZM157.296 53.964C157.123 53.964 156.964 53.964 156.808 53.9827C155.916 54.0577 155.303 54.3422 154.981 54.8236C153.154 57.5617 155.056 64.8261 157.721 67.6956C159.372 69.4585 162.022 72.5843 163.949 74.8317C165.272 76.3946 166.32 77.6137 166.604 77.8981C166.989 78.2826 166.917 80.0643 166.692 84.0497C166.501 87.5537 166.238 92.3487 166.342 97.7031C166.532 107.593 166.714 116.936 168.075 121.956C168.534 123.657 169.104 125.535 169.657 127.354C170.683 130.743 171.653 133.94 171.653 135.169C171.634 137.073 171.093 138.936 170.089 140.555C169.619 141.26 169.03 141.88 168.35 142.386C167.449 143.14 166.601 143.849 166.432 144.99C166.12 146.972 167.058 148.01 169.685 148.694C172.313 149.379 173.664 149.419 175.588 148.203C177.512 146.987 178.913 144.896 178.913 144.874C178.929 144.854 178.949 144.837 178.973 144.825C178.996 144.813 179.021 144.807 179.048 144.806L189.464 145.009L199.877 144.806C199.902 144.806 199.928 144.813 199.951 144.825C199.973 144.837 199.993 144.854 200.008 144.874C200.024 144.896 201.444 147.003 203.333 148.197C205.222 149.391 206.555 149.382 209.236 148.688C211.916 147.994 212.789 146.966 212.492 144.984C212.32 143.843 211.472 143.133 210.574 142.38C209.894 141.873 209.305 141.253 208.832 140.548C207.828 138.93 207.287 137.067 207.268 135.163C207.268 133.94 208.238 130.743 209.264 127.348C209.817 125.529 210.387 123.647 210.847 121.947C211.676 118.89 211.544 114.376 211.378 108.662C211.285 105.371 211.175 101.639 211.25 97.6938C211.353 92.3393 211.091 87.5443 210.9 84.0403C210.684 80.0518 210.603 78.2732 210.99 77.8888C211.272 77.6043 212.32 76.3759 213.646 74.8224C215.576 72.5562 218.222 69.4554 219.871 67.6862C222.539 64.823 224.441 57.5524 222.614 54.8142C222.301 54.3328 221.676 54.0484 220.787 53.9733C217.347 53.6795 210.415 56.6959 207.537 59.7342C204.018 63.4507 202.567 65.8076 202.554 65.8326C202.538 65.8585 202.515 65.8792 202.487 65.892C202.459 65.9047 202.428 65.9091 202.398 65.9045C198.332 65.3137 190.987 65.4262 188.835 65.4762C186.645 65.4262 179.235 65.3137 175.172 65.9045C175.142 65.9091 175.111 65.9047 175.083 65.892C175.055 65.8792 175.032 65.8585 175.016 65.8326C175.016 65.8076 173.552 63.4507 170.033 59.7342C167.311 56.8428 160.865 53.964 157.296 53.964Z" fill="#263238"/>
<path d="M200.972 118.777C196.771 119.774 196.999 118.596 196.659 113.979C196.318 109.362 201.088 107.102 204.835 104.914C208.582 102.726 211.091 96.3122 210.175 95.2244C209.258 94.1366 200.406 94.8618 199.724 93.2333C199.042 91.6047 198.767 86.4816 198.767 86.4816L189.161 83.7715L179.151 86.4816C179.151 86.4816 179.273 91.6016 178.591 93.2333C177.909 94.8649 169.051 94.1366 168.144 95.2244C167.237 96.3122 169.733 102.726 173.48 104.914C177.227 107.102 182.001 109.35 181.66 113.979C181.319 118.608 181.55 119.784 177.349 118.777C173.149 117.771 169.739 115.517 169.739 118.959C169.739 122.4 170.534 127.198 173.033 128.917C175.532 130.636 177.69 129.733 179.051 132.9C180.412 136.066 180.243 141.686 178.682 144.465C178.617 144.584 178.568 144.711 178.538 144.843C178.713 144.609 178.81 144.465 178.81 144.465L189.226 144.668L199.639 144.465C198.075 141.683 197.907 136.066 199.27 132.9C200.634 129.733 202.789 130.636 205.289 128.917C207.788 127.198 208.582 122.4 208.582 118.959C208.582 115.517 205.189 117.78 200.972 118.777Z" fill="white"/>
<path opacity="0.33" d="M203.552 65.9983C203.552 65.9983 204.521 69.4648 205.979 71.8904C207.437 74.316 208.822 76.1883 210.984 75.3569C213.145 74.5254 219.795 67.3861 221.043 64.1978C222.292 61.0095 223.055 56.0176 221.25 54.7704C219.445 53.5232 208.96 56.3646 203.552 65.9983Z" fill="black"/>
<path opacity="0.33" d="M173.852 65.9983C173.852 65.9983 172.879 69.4648 171.425 71.8904C169.97 74.316 168.578 76.1883 166.42 75.3569C164.262 74.5254 157.612 67.3861 156.364 64.1978C155.116 61.0095 154.362 56.0176 156.163 54.7673C157.965 53.517 168.441 56.3646 173.852 65.9983Z" fill="black"/>
<path d="M179.057 144.984C178.957 144.359 179.917 143.709 179.62 143.005C177.389 137.726 173.232 137.863 170.927 138.426C170.671 139.136 170.35 139.82 169.967 140.47C168.944 142.205 166.595 142.921 166.288 144.962C165.982 147.003 166.914 148.125 169.66 148.838C172.407 149.551 173.745 149.554 175.685 148.328C177.624 147.103 179.057 144.962 179.057 144.962V144.984Z" fill="white"/>
<path d="M172.586 149.479C171.581 149.44 170.585 149.276 169.62 148.991C166.821 148.266 165.81 147.091 166.136 144.928C166.323 143.677 167.259 142.89 168.16 142.133C168.811 141.648 169.376 141.056 169.83 140.383C170.205 139.74 170.519 139.064 170.768 138.363C170.777 138.339 170.792 138.317 170.811 138.3C170.83 138.283 170.853 138.27 170.878 138.263C173.214 137.695 177.475 137.544 179.755 142.952C179.949 143.415 179.696 143.843 179.474 144.202C179.318 144.408 179.222 144.653 179.195 144.909C179.197 144.923 179.197 144.938 179.195 144.953C179.194 144.997 179.177 145.04 179.145 145.071C178.951 145.356 177.581 147.291 175.751 148.45C174.823 149.103 173.72 149.461 172.586 149.479ZM171.047 138.557C170.795 139.248 170.481 139.914 170.108 140.548C169.638 141.254 169.05 141.874 168.369 142.38C167.468 143.133 166.621 143.843 166.452 144.984C166.139 146.966 167.077 148.003 169.705 148.688C172.332 149.372 173.684 149.413 175.607 148.197C177.34 147.106 178.676 145.243 178.901 144.921C178.922 144.609 179.03 144.309 179.214 144.056C179.417 143.709 179.608 143.383 179.474 143.068C177.318 137.951 173.305 138.026 171.047 138.557Z" fill="#263238"/>
<path d="M167.806 148.378C167.774 148.378 167.742 148.369 167.716 148.35C167.69 148.332 167.67 148.306 167.659 148.275C167.631 148.197 166.939 146.309 167.79 145.037C168.641 143.765 171.024 142.974 171.128 142.94C171.167 142.928 171.208 142.933 171.244 142.952C171.28 142.971 171.307 143.003 171.319 143.041C171.332 143.08 171.329 143.122 171.311 143.158C171.294 143.194 171.263 143.223 171.225 143.237C171.203 143.237 168.822 144.049 168.05 145.209C167.277 146.369 167.946 148.15 167.953 148.166C167.966 148.205 167.964 148.248 167.946 148.286C167.929 148.324 167.898 148.354 167.859 148.369C167.842 148.375 167.824 148.379 167.806 148.378Z" fill="#263238"/>
<path d="M169.66 148.994H169.62C169.6 148.989 169.581 148.98 169.564 148.968C169.548 148.955 169.534 148.94 169.524 148.922C169.513 148.905 169.506 148.885 169.503 148.865C169.501 148.844 169.502 148.823 169.507 148.804C169.529 148.722 170.039 146.784 170.586 146.115C171.134 145.446 173.946 143.893 174.064 143.827C174.101 143.808 174.144 143.804 174.183 143.816C174.223 143.827 174.257 143.854 174.277 143.89C174.287 143.908 174.293 143.928 174.296 143.948C174.298 143.969 174.296 143.989 174.29 144.009C174.284 144.029 174.275 144.047 174.262 144.063C174.249 144.079 174.233 144.093 174.215 144.102C174.186 144.102 171.337 145.693 170.827 146.312C170.317 146.931 169.817 148.863 169.81 148.882C169.801 148.914 169.781 148.943 169.754 148.963C169.727 148.983 169.694 148.994 169.66 148.994Z" fill="#263238"/>
<path d="M199.892 144.984C199.989 144.359 199.06 143.709 199.357 143.005C201.587 137.726 205.744 137.863 208.049 138.426C208.305 139.136 208.627 139.82 209.01 140.47C210.033 142.205 212.382 142.915 212.694 144.962C213.007 147.009 212.069 148.125 209.323 148.838C206.576 149.551 205.237 149.554 203.298 148.328C201.359 147.103 199.926 144.962 199.926 144.962L199.892 144.984Z" fill="white"/>
<path d="M206.392 149.479C205.252 149.467 204.142 149.112 203.208 148.46C201.462 147.359 200.145 145.556 199.851 145.134C199.836 145.13 199.821 145.124 199.808 145.115C199.781 145.099 199.76 145.076 199.748 145.048C199.735 145.02 199.731 144.989 199.736 144.959C199.726 144.689 199.634 144.428 199.473 144.212C199.26 143.834 199.016 143.405 199.213 142.961C201.49 137.569 205.748 137.72 208.087 138.273C208.112 138.279 208.135 138.292 208.154 138.309C208.173 138.327 208.188 138.349 208.197 138.373C208.446 139.074 208.76 139.75 209.135 140.392C209.589 141.066 210.154 141.657 210.806 142.143C211.706 142.899 212.642 143.68 212.829 144.937C213.142 147.091 212.144 148.266 209.345 149.001C208.384 149.282 207.392 149.442 206.392 149.479ZM200.055 144.878C200.12 144.974 201.522 147.028 203.377 148.197C205.303 149.413 206.598 149.382 209.279 148.688C211.96 147.994 212.832 146.966 212.532 144.984C212.363 143.843 211.516 143.133 210.615 142.38C209.934 141.874 209.346 141.254 208.876 140.548C208.503 139.914 208.189 139.248 207.937 138.557C205.679 138.029 201.681 137.951 199.507 143.068C199.37 143.38 199.557 143.712 199.751 144.059C199.916 144.304 200.02 144.584 200.055 144.878Z" fill="#263238"/>
<path d="M207.772 149.326H207.756C207.736 149.324 207.716 149.318 207.697 149.308C207.679 149.298 207.663 149.285 207.65 149.269C207.637 149.253 207.627 149.235 207.621 149.215C207.615 149.195 207.613 149.174 207.615 149.154C207.662 148.654 207.75 147.256 207.565 146.8C207.381 146.344 205.867 144.924 205.298 144.434C205.282 144.42 205.27 144.403 205.261 144.385C205.252 144.366 205.247 144.346 205.245 144.325C205.243 144.284 205.257 144.243 205.285 144.212C205.313 144.181 205.352 144.162 205.394 144.16C205.435 144.157 205.476 144.172 205.507 144.199C205.72 144.39 207.612 146.075 207.856 146.684C208.1 147.294 207.935 149.107 207.928 149.185C207.923 149.223 207.905 149.258 207.876 149.284C207.847 149.31 207.81 149.324 207.772 149.326Z" fill="#263238"/>
<path d="M210.85 148.378C210.808 148.378 210.768 148.362 210.739 148.333C210.71 148.303 210.693 148.264 210.693 148.222C210.674 147.357 210.576 146.496 210.399 145.65C210.121 144.306 208.523 143.093 208.507 143.08C208.474 143.055 208.452 143.018 208.446 142.977C208.44 142.936 208.451 142.895 208.476 142.861C208.501 142.829 208.538 142.808 208.579 142.802C208.62 142.796 208.661 142.806 208.695 142.83C208.763 142.883 210.402 144.127 210.706 145.587C210.892 146.454 210.997 147.336 211.019 148.222C211.019 148.244 211.014 148.265 211.006 148.285C210.997 148.305 210.984 148.323 210.969 148.337C210.953 148.352 210.934 148.363 210.913 148.37C210.893 148.377 210.871 148.38 210.85 148.378Z" fill="#263238"/>
<path d="M186.512 87.3974H192.111V94.7774C192.111 95.1091 192.045 95.4375 191.918 95.7439C191.791 96.0504 191.605 96.3288 191.371 96.5633C191.136 96.7978 190.857 96.9839 190.551 97.1108C190.244 97.2377 189.915 97.3031 189.583 97.3031H189.039C188.369 97.3031 187.726 97.037 187.252 96.5633C186.778 96.0897 186.512 95.4473 186.512 94.7774V87.3974Z" fill="#D16283"/>
<path d="M189.583 97.4531H189.038C188.327 97.4523 187.645 97.1695 187.141 96.6667C186.638 96.1639 186.355 95.4822 186.354 94.7712V87.3974C186.354 87.356 186.371 87.3162 186.4 87.2869C186.43 87.2576 186.469 87.2411 186.511 87.2411H192.11C192.151 87.2411 192.191 87.2576 192.221 87.2869C192.25 87.3162 192.266 87.356 192.266 87.3974V94.7774C192.264 95.4874 191.98 96.1675 191.477 96.6689C190.974 97.1703 190.293 97.4523 189.583 97.4531ZM186.667 87.5537V94.7774C186.668 95.4056 186.918 96.0077 187.363 96.4519C187.807 96.8961 188.41 97.1459 189.038 97.1468H189.583C190.211 97.1459 190.814 96.8961 191.258 96.4519C191.703 96.0077 191.953 95.4056 191.954 94.7774V87.5537H186.667Z" fill="#263238"/>
<path d="M189.207 93.5052C189.166 93.5044 189.127 93.4877 189.097 93.4586C189.068 93.4294 189.052 93.3901 189.051 93.3489V88.9291C189.051 88.8876 189.067 88.8478 189.097 88.8185C189.126 88.7892 189.166 88.7728 189.207 88.7728C189.249 88.7728 189.288 88.7892 189.318 88.8185C189.347 88.8478 189.364 88.8876 189.364 88.9291V93.3489C189.364 93.3904 189.347 93.4301 189.318 93.4594C189.288 93.4887 189.249 93.5052 189.207 93.5052Z" fill="#263238"/>
<path d="M191.863 79.2328C191.046 77.0885 192.176 73.1094 191.55 71.1683C190.924 69.2272 189.711 69.6367 189.711 69.6367L189.201 69.7398L188.691 69.6367C188.691 69.6367 187.465 69.2303 186.852 71.1683C186.239 73.1063 187.362 77.0885 186.539 79.2328C185.716 81.3771 179.392 85.1531 179.392 86.9879C179.392 88.8228 182.76 91.6766 184.19 92.3018C185.619 92.9269 189.195 88.9353 189.195 88.9353C189.195 88.9353 192.77 92.9144 194.199 92.3018C195.629 91.6891 199.001 88.8321 199.001 86.9879C199.001 85.1437 192.676 81.374 191.863 79.2328Z" fill="white"/>
<path d="M193.881 92.5144C192.389 92.5144 189.849 89.8574 189.208 89.1604C188.507 89.9262 185.529 93.0301 184.143 92.4393C182.683 91.8142 179.248 88.9259 179.248 86.988C179.248 85.9439 181.009 84.4404 182.873 82.8463C184.437 81.5209 186.036 80.1456 186.408 79.1766C186.83 78.0669 186.721 76.429 186.605 74.8474C186.508 73.4127 186.414 72.0592 186.711 71.1214C186.952 70.3556 187.318 69.843 187.797 69.5992C188.085 69.4465 188.42 69.4075 188.735 69.4898L189.195 69.5804L189.677 69.4835C189.993 69.4047 190.327 69.4459 190.615 69.5992C191.094 69.843 191.46 70.3556 191.704 71.1214C191.998 72.0592 191.907 73.4127 191.807 74.8474C191.697 76.429 191.585 78.0669 192.007 79.1766C192.376 80.1456 193.984 81.5209 195.539 82.8463C197.415 84.4404 199.167 85.9439 199.167 86.988C199.167 88.9259 195.726 91.8142 194.272 92.4393C194.148 92.4913 194.015 92.5168 193.881 92.5144ZM188.419 69.7711C188.25 69.7717 188.084 69.8135 187.934 69.893C187.534 70.0993 187.224 70.5494 186.996 71.2277C186.718 72.1092 186.808 73.4345 186.905 74.838C187.018 76.454 187.134 78.1263 186.686 79.3016C186.289 80.3457 184.722 81.6835 183.064 83.0963C181.334 84.5748 179.548 86.1002 179.548 87.0005C179.548 88.7884 182.889 91.5798 184.24 92.1643C185.329 92.63 188.094 89.9199 189.067 88.8353C189.082 88.8196 189.1 88.8071 189.12 88.7986C189.139 88.79 189.161 88.7856 189.183 88.7856C189.204 88.7856 189.226 88.79 189.246 88.7986C189.265 88.8071 189.283 88.8196 189.298 88.8353C190.274 89.9199 193.052 92.6363 194.125 92.1643C195.492 91.5798 198.817 88.7884 198.817 87.0005C198.817 86.1002 197.028 84.5748 195.298 83.0963C193.64 81.6835 192.076 80.3457 191.676 79.3016C191.231 78.1263 191.344 76.454 191.457 74.838C191.554 73.4345 191.644 72.1092 191.369 71.2277C191.15 70.5432 190.837 70.0931 190.431 69.8899C190.213 69.7744 189.96 69.7421 189.721 69.7992L189.192 69.9055C189.171 69.9086 189.15 69.9086 189.129 69.9055L188.619 69.8024C188.554 69.7851 188.487 69.7746 188.419 69.7711Z" fill="#263238"/>
<path d="M193.089 84.5404C192.091 83.5391 190.748 82.9575 189.335 82.915C186.779 82.8744 184.815 83.9278 185.018 84.8468C185.222 85.7657 187.88 87.7037 188.9 88.0101C189.92 88.3164 192.885 85.9689 193.089 84.5404Z" fill="#263238"/>
<path d="M194.296 79.1922C194.911 79.1922 195.41 78.4869 195.41 77.6168C195.41 76.7468 194.911 76.0414 194.296 76.0414C193.681 76.0414 193.183 76.7468 193.183 77.6168C193.183 78.4869 193.681 79.1922 194.296 79.1922Z" fill="#263238"/>
<path d="M194.525 77.2923C194.685 77.2923 194.816 77.162 194.816 77.0013C194.816 76.8406 194.685 76.7103 194.525 76.7103C194.364 76.7103 194.233 76.8406 194.233 77.0013C194.233 77.162 194.364 77.2923 194.525 77.2923Z" fill="white"/>
<path d="M184.543 77.6168C184.543 78.4858 184.046 79.1797 183.433 79.1797C182.82 79.1797 182.319 78.4733 182.319 77.6168C182.319 76.7604 182.817 76.0539 183.433 76.0539C184.049 76.0539 184.543 76.7479 184.543 77.6168Z" fill="#263238"/>
<path d="M183.715 77.2923C183.876 77.2923 184.006 77.1621 184.006 77.0014C184.006 76.8406 183.876 76.7104 183.715 76.7104C183.554 76.7104 183.424 76.8406 183.424 77.0014C183.424 77.1621 183.554 77.2923 183.715 77.2923Z" fill="white"/>
</svg>
