<svg width="48" height="48" viewBox="0 0 48 48" fill="none" xmlns="http://www.w3.org/2000/svg">
<g clip-path="url(#clip0_1628_10082)">
<path d="M46.5567 12.7825C46.5567 11.1906 45.2743 9.9173 43.7017 9.9173H38.5917C37.0093 9.9173 35.7265 11.2001 35.7265 12.7825V14.4239L39.8298 12.8371L34.7798 16.4208L26.4987 18.8015C25.4971 19.0894 24.9189 20.1342 25.2067 21.1357C25.4938 22.1348 26.5372 22.7159 27.5409 22.4274L36.1307 19.9584C36.3351 19.8994 36.5281 19.8068 36.7013 19.6837L42.0132 15.914L37.6567 21.0299C37.3198 21.4254 36.9251 21.4228 36.587 21.5444L35.7265 21.792V27.4067L33.5127 33.4426C33.3856 33.7894 33.3417 34.1611 33.3842 34.5276L34.7113 45.9145C34.8626 47.2113 36.0388 48.1341 37.3264 47.9836C38.6151 47.8335 39.5467 46.6649 39.3959 45.3685C39.2582 44.1868 38.2584 35.6109 38.1339 34.5394L40.7215 27.4843H41.8465C41.8451 28.5456 41.8224 44.5284 41.8205 45.6381C41.8187 46.9407 42.873 47.9979 44.1753 47.9997H44.1789C45.4793 47.9997 46.5552 46.9461 46.5571 45.645C46.5589 44.2432 46.5567 14.9798 46.5567 12.7825Z" fill="#EDCC1C"/>
<path d="M40.9328 8.48359C43.252 8.48359 45.1746 6.60458 45.1746 4.2418C45.1746 1.89916 43.2755 0 40.9328 0C38.5902 0 36.6914 1.89916 36.6914 4.2418C36.6914 6.60531 38.6147 8.48359 40.9328 8.48359Z" fill="#EDCC1C"/>
<path d="M9.70524 31.6013C9.70524 31.6013 8.01408 27.5228 6.67742 27.2394C6.54962 27.2123 6.43389 27.3243 6.46612 27.4507C6.57488 27.8758 6.58257 28.3995 6.55438 28.8679C6.53863 29.1242 6.372 29.3458 6.13177 29.4374C6.02374 29.4919 4.16376 29.6362 3.68843 31.5368L3.40571 31.7097L3.39473 31.698L1.75814 32.6259C1.34396 32.861 1.28426 33.4342 1.64132 33.7495C1.84749 33.9359 2.14595 33.9787 2.37776 33.8249C2.89851 33.4799 3.95612 32.8416 4.16047 33.2045C4.31611 33.4807 3.6009 33.8974 3.0959 34.1497C2.8586 34.268 2.85457 34.6071 3.09041 34.7283C3.35591 34.8642 3.72614 34.9506 4.17658 34.7862C4.53254 34.6566 5.12433 34.3797 5.61358 34.3914L9.70524 31.6013Z" fill="#EDCC1C"/>
<path d="M6.41625 35.1275L6.91942 35.8376C6.99632 35.946 7.1461 35.9723 7.25486 35.8965L11.1623 33.1778C11.3022 33.0804 11.3004 32.8731 11.159 32.7783L10.4665 32.3143C10.3856 32.2601 10.2794 32.2597 10.1981 32.3139L6.4796 34.7862C6.36607 34.8616 6.33714 35.0162 6.41625 35.1275Z" fill="#EDCC1C"/>
<path d="M8.26416 38.9211C8.26526 38.9207 8.26599 38.9203 8.26636 38.92C8.26562 38.9203 8.26489 38.9207 8.26416 38.9211Z" fill="#EDCC1C"/>
<path d="M27.2714 25.5519L28.1719 23.9636C28.0734 23.9805 27.3274 24.2855 26.32 24.0815L25.9205 24.7865C23.9323 28.294 20.5262 30.7692 16.5763 31.5778L12.1667 32.4805C12.329 32.7171 12.5513 32.8453 12.511 33.1262C12.4608 33.4799 12.4355 33.2866 7.47341 36.7996C7.71218 37.4793 7.98574 38.2216 8.26808 38.9192C8.26808 38.9192 8.26772 38.9192 8.26772 38.9196C8.26772 38.9192 8.26772 38.9196 8.26735 38.9196C8.26698 38.92 8.26662 38.92 8.26625 38.9203C8.26662 38.92 8.26662 38.92 8.26698 38.92C8.26552 38.9207 8.26442 38.9211 8.26369 38.9214H8.26405C8.26369 38.9214 8.26332 38.9218 8.26296 38.9222C8.26259 38.9222 8.26222 38.9222 8.26222 38.9222C8.21755 38.9456 7.84877 39.139 5.4003 40.4203C5.20841 40.5225 5.06412 40.7093 5.0253 40.94L4.50345 44.0275C4.45695 44.3014 4.60819 44.579 4.87772 44.6815C5.18424 44.7987 5.52774 44.6445 5.64456 44.338L6.58792 41.8614L9.14405 40.8184C9.15394 40.836 9.16346 40.8528 9.17335 40.87L9.71461 47.3494C9.74354 47.702 10.0321 47.9855 10.3947 47.9994C10.7861 48.0144 11.1161 47.709 11.1307 47.3175L11.3527 41.5299C12.5172 41.3959 14.1747 41.1949 15.8827 40.9799C16.1467 41.5248 16.6953 42.3938 17.2321 42.8999L16.8198 47.1619C16.7839 47.5445 17.0413 47.9049 17.4266 47.9844C17.8401 48.0693 18.2443 47.8027 18.3293 47.3893L19.2448 42.808C17.6533 40.7792 18.2769 38.6687 18.2769 38.6687C18.2769 39.3825 18.9017 42.0587 20.81 43.242C20.9975 44.523 21.2202 46.0446 21.4194 47.4047C21.4688 47.7471 21.7673 48.0071 22.1225 47.9997C22.5067 47.9921 22.8121 47.6742 22.8044 47.2897C22.7722 45.6875 22.7462 44.4098 22.7136 42.8014C24.0601 41.5292 24.2425 38.8489 23.5156 37.3866C25.6425 36.3437 27.0308 34.0739 27.3941 31.8324C27.423 31.654 27.3227 31.4749 27.1469 31.4105C26.948 31.3376 26.7276 31.4398 26.6547 31.639C26.6488 31.6485 25.4502 35.3102 22.1932 35.746C22.1232 35.6966 21.5241 34.8294 20.1362 34.6236L13.9282 33.7051L16.8879 33.0994C21.2773 32.2004 25.0617 29.4498 27.2714 25.5519Z" fill="#EDCC1C"/>
</g>
<defs>
<clipPath id="clip0_1628_10082">
<rect width="48" height="48" fill="white"/>
</clipPath>
</defs>
</svg>
