<svg width="375" height="152" viewBox="0 0 375 152" fill="none" xmlns="http://www.w3.org/2000/svg">
<path d="M108.791 105.003L105.829 101.408L109.698 103.585C108.957 101.956 108.217 100.326 107.476 98.6973L113.03 101.463L109.794 96.5016L116.018 99.9969C116.512 98.4591 117.006 96.9213 117.5 95.3834L120.284 97.8531C120.25 96.1964 120.802 94.581 121.843 93.2914L124.768 97.5014C124.986 96.3128 125.201 95.1243 125.419 93.932C125.41 93.3267 125.52 92.7254 125.742 92.1621L125.419 93.932C125.453 96.7349 127.93 99.4601 130.766 100.323C134.202 101.371 137.886 100.534 141.422 99.8822C154.1 97.5458 167.085 97.6976 179.974 97.8568L224.688 98.4085C223.779 95.8981 223.6 93.1814 224.173 90.5737C225.99 92.7089 227.809 94.8429 229.631 96.9756C229.337 95.1539 229.047 93.3322 228.76 91.5105L233.019 96.1425L232.852 91.255L237.825 97.3347L236.714 91.4475C239.076 94.5948 242.964 96.3128 246.855 96.883C250.747 97.4532 254.716 97.0015 258.626 96.5461C257.962 93.584 257.301 90.6157 256.641 87.6412L262.24 96.1388C261.803 93.4235 261.368 90.7082 260.937 87.9929L266.616 95.6093C266.37 93.2322 266.115 90.8551 265.854 88.478C266.434 91.2003 267.605 93.7622 269.282 95.9833C269.682 93.6432 270.081 91.2982 270.478 88.9482L270.967 96.5831C271.893 93.7814 272.82 90.9773 273.748 88.1707C273.595 90.7428 273.444 93.3149 273.296 95.887C275.214 95.6537 278.38 93.5247 279.394 94.6651C279.339 94.3467 279.283 94.0283 279.231 93.7061C276.621 85.0493 270.489 74.5671 262.325 65.6845C257.089 60.908 251.587 56.4463 245.356 53.1288C236.395 48.3598 225.565 46.1715 215.997 49.5557C210.277 51.5774 205.345 55.4429 199.61 57.4201C196.2 58.5751 192.596 59.0424 189.005 58.7952C185.414 58.5479 181.908 57.591 178.69 55.9798C159.395 47.2379 157.662 27.8397 128.156 37.8812C127.726 38.0997 127.3 38.3256 126.882 38.5551C119.938 42.3728 113.801 47.5005 108.809 53.6545C99.7379 66.662 94.7097 85.1789 96.287 102.607C96.3314 102.837 96.3796 103.066 96.4314 103.289C99.749 102.663 105.458 104.214 108.791 105.003Z" fill="#F5F5F5"/>
<path d="M280.342 98.39C279.076 98.5233 106.077 116.3 98.9121 108.602C97.7384 107.347 96.9497 105.499 96.4498 103.289H96.3721C97.5902 115.367 102 126.874 110.468 135.602C113.499 137.481 116.697 139.076 120.021 140.367C158.921 152.56 289.191 151.564 280.342 98.39Z" fill="#E0E0E0"/>
<path d="M280.327 98.3122C280.149 97.2681 279.923 96.2091 279.642 95.128C279.596 94.9614 279.514 94.8071 279.401 94.6762C279.615 95.9105 279.924 97.1263 280.327 98.3122Z" fill="#E0E0E0"/>
<path d="M125.393 93.932L125.715 92.1621C125.493 92.7254 125.384 93.3267 125.393 93.932Z" fill="#E0E0E0"/>
<path d="M273.303 95.887C273.451 93.3174 273.602 90.7452 273.755 88.1707C272.829 90.9822 271.9 93.7864 270.967 96.5831L270.445 88.9667C270.045 91.3118 269.646 93.6568 269.249 96.0018C267.571 93.7807 266.401 91.2188 265.82 88.4965C266.067 90.8736 266.321 93.2507 266.583 95.6278L260.903 88.0115C261.335 90.7267 261.77 93.442 262.206 96.1573L256.608 87.6597C257.27 90.6218 257.931 93.5901 258.593 96.5646C254.683 97.02 250.717 97.4717 246.822 96.9015C242.927 96.3313 239.046 94.6133 236.68 91.466L237.791 97.3533L232.83 91.255L232.996 96.1425L228.738 91.5105C229.027 93.3322 229.317 95.1539 229.608 96.9756C227.787 94.8429 225.967 92.7089 224.151 90.5737C223.578 93.1814 223.757 95.8981 224.665 98.4085L179.952 97.8568C167.063 97.6976 154.078 97.5458 141.4 99.8822C137.864 100.534 134.18 101.363 130.744 100.323C127.908 99.4601 125.43 96.7349 125.397 93.932C125.179 95.1243 124.964 96.3128 124.745 97.5014L121.82 93.2914C120.782 94.582 120.233 96.1973 120.269 97.8531L117.485 95.3834C116.991 96.9213 116.497 98.4591 116.003 99.9969L109.779 96.5016L113.015 101.463L107.461 98.6973C108.202 100.326 108.943 101.956 109.683 103.585L105.814 101.408L108.776 105.003C105.444 104.214 99.7526 102.663 96.4424 103.289C96.9422 105.51 97.7309 107.362 98.9046 108.602C106.08 116.3 279.079 98.5233 280.335 98.39C280.333 98.3604 280.333 98.3307 280.335 98.3011C279.932 97.1151 279.622 95.8994 279.409 94.6651C278.372 93.5247 275.221 95.6537 273.303 95.887Z" fill="#E0E0E0"/>
<path d="M259.289 43.2649C259.289 43.2649 256.616 42.1541 254.82 48.3894C253.024 54.6246 252.561 58.1088 252.561 58.1088C252.561 58.1088 252.028 59.4492 251.08 58.8272C250.132 58.2051 248.566 56.2353 247.255 56.887C245.944 57.5386 245.733 59.2752 246.463 61.5819C247.192 63.8887 248.61 68.9872 248.736 69.4686C248.862 69.9499 248.736 70.6571 247.996 70.3387C247.255 70.0203 242.786 66.636 241.301 68.8576C239.817 71.0792 242.912 77.1775 243.238 77.8477C243.564 78.5179 243.482 78.8511 243.182 79.0918C242.882 79.3324 241.479 78.0476 240.165 77.1368C238.85 76.2259 237.165 75.3928 236.414 76.748C235.662 78.1032 236.292 83.0055 242.42 89.9776L245.474 93.0248L249.673 91.9659C258.519 89.1593 261.584 85.2826 261.644 83.7349C261.703 82.1872 259.829 82.028 258.234 82.1316C256.638 82.2353 254.775 82.613 254.638 82.2501C254.501 81.8873 254.605 81.5651 255.231 81.1393C255.856 80.7135 261.655 77.1071 261.525 74.4375C261.396 71.7679 255.808 72.3603 255.023 72.2567C254.238 72.153 254.501 71.4569 254.842 71.1459C255.183 70.8349 259.044 67.1655 260.862 65.566C262.68 63.9664 263.414 62.4261 262.606 61.1228C261.799 59.8195 259.478 60.7822 258.33 60.8118C257.182 60.8414 257.412 59.4233 257.412 59.4233C257.412 59.4233 258.815 56.1983 260.496 49.9334C262.177 43.6685 259.237 43.239 259.237 43.239" fill="#EBEBEB"/>
<path d="M257.674 48.8485C257.669 48.8935 257.66 48.9381 257.649 48.9818C257.626 49.0781 257.593 49.2077 257.556 49.3521C257.463 49.7223 257.338 50.2 257.186 50.8331C256.852 52.1254 256.356 53.9878 255.734 56.2871C254.486 60.8858 252.709 67.2211 250.717 74.2117C248.725 81.2023 246.94 87.5412 245.641 92.1251C245 94.4096 244.486 96.2647 244.123 97.5606C243.945 98.1901 243.804 98.6714 243.704 99.0417C243.66 99.2046 243.623 99.3305 243.593 99.4119C243.564 99.4934 243.549 99.5415 243.549 99.5415C243.551 99.5015 243.557 99.4618 243.567 99.423C243.593 99.3268 243.623 99.1972 243.664 99.0528C243.752 98.6973 243.876 98.2036 244.034 97.5717C244.367 96.2832 244.863 94.4208 245.485 92.1214C246.733 87.519 248.514 81.1838 250.506 74.1895L255.582 56.2797C256.219 53.9952 256.734 52.1402 257.097 50.8442C257.275 50.2148 257.415 49.7334 257.515 49.3632C257.563 49.204 257.6 49.0744 257.626 48.9929C257.636 48.9429 257.652 48.8944 257.674 48.8485Z" fill="#E0E0E0"/>
<path d="M249.288 59.7565C249.512 60.0732 249.705 60.4104 249.866 60.7636C250.195 61.4005 250.606 62.2928 251.069 63.2888L252.202 65.8437C252.375 66.1909 252.523 66.5497 252.646 66.9174C252.418 66.6023 252.224 66.2633 252.069 65.9066C251.747 65.266 251.328 64.37 250.88 63.374C250.432 62.378 250.055 61.5227 249.732 60.8266C249.554 60.4832 249.405 60.1252 249.288 59.7565Z" fill="#E0E0E0"/>
<path d="M253.046 66.9174C253.02 66.8656 254.82 65.8955 257.064 64.7551C259.307 63.6147 261.136 62.726 261.177 62.7779C261.218 62.8297 259.404 63.7961 257.16 64.9402C254.916 66.0843 253.072 66.9656 253.046 66.9174Z" fill="#E0E0E0"/>
<path d="M249.491 77.5144C249.869 77.398 250.255 77.3113 250.646 77.2553C251.365 77.1109 252.35 76.9109 253.435 76.6591C254.519 76.4074 255.493 76.1519 256.197 75.963C256.573 75.8429 256.958 75.7501 257.348 75.6853C256.993 75.8622 256.621 76.0024 256.237 76.1037C255.541 76.3259 254.568 76.6073 253.479 76.8443C252.39 77.0812 251.394 77.2738 250.669 77.3811C250.282 77.465 249.887 77.5097 249.491 77.5144Z" fill="#E0E0E0"/>
<path d="M244.678 71.7864C244.959 72.0211 245.218 72.2814 245.452 72.564C245.907 73.0639 246.525 73.7637 247.199 74.5412C247.873 75.3188 248.473 76.0223 248.902 76.5555C249.149 76.8269 249.369 77.1207 249.562 77.433C249.28 77.1978 249.022 76.9362 248.791 76.6517C248.336 76.1556 247.714 75.4558 247.04 74.6782C246.366 73.9007 245.766 73.1971 245.341 72.6603C245.093 72.3898 244.872 72.0973 244.678 71.7864Z" fill="#E0E0E0"/>
<path d="M240.357 80.7469C240.71 81.0565 241.039 81.3919 241.342 81.7503C241.927 82.3871 242.727 83.2758 243.601 84.2644C244.475 85.253 245.256 86.1601 245.823 86.8229C246.142 87.1701 246.434 87.5415 246.696 87.9337C246.344 87.6245 246.016 87.289 245.715 86.9303C245.126 86.2934 244.327 85.4048 243.457 84.4125C242.586 83.4202 241.801 82.5204 241.235 81.8577C240.917 81.5084 240.624 81.1372 240.357 80.7469Z" fill="#E0E0E0"/>
<path d="M246.581 87.7078C247.058 87.5531 247.544 87.4295 248.036 87.3376C248.936 87.1228 250.18 86.8303 251.546 86.4712C252.913 86.112 254.138 85.764 255.034 85.5048L256.089 85.2049C256.217 85.1591 256.35 85.1305 256.486 85.1197C256.37 85.1907 256.246 85.2455 256.115 85.2826C255.875 85.3752 255.519 85.5011 255.079 85.6529C254.197 85.9454 252.972 86.323 251.602 86.6785C250.232 87.034 248.977 87.3117 248.066 87.4894C247.61 87.5745 247.24 87.6412 246.985 87.6782C246.852 87.7071 246.716 87.7171 246.581 87.7078Z" fill="#E0E0E0"/>
<path d="M223.484 84.6531C230.149 80.0026 231.63 71.3754 231.382 63.6221C231.337 62.3262 231.482 60.9636 230.867 59.8269C230.252 58.6902 228.812 57.9163 227.653 58.4606C226.694 58.9123 226.272 60.0305 225.735 60.9562C225.016 62.1893 223.964 63.1943 222.699 63.8554C221.877 64.2849 220.847 64.544 220.04 64.096C218.93 63.4814 218.793 61.9374 218.8 60.6489C218.82 58.2495 218.836 55.8502 218.848 53.4509C218.848 52.1661 218.848 50.859 218.459 49.6298C218.071 48.4005 217.174 47.2712 215.949 46.9268C214.723 46.5825 213.209 47.2971 212.95 48.5523C212.902 49.0853 212.89 49.6209 212.913 50.1555C212.879 50.6887 212.628 51.2663 212.12 51.4293C211.613 51.5922 211.091 51.2145 210.706 50.8368C209.38 49.5372 208.484 47.8747 207.633 46.1974C206.781 44.5201 205.974 42.828 204.767 41.4099C203.56 39.9918 201.894 38.8699 200.05 38.7662C198.206 38.6625 196.243 39.7992 195.777 41.6098C195.31 43.4204 196.369 45.2643 197.521 46.7343C199.23 48.9134 201.245 50.8339 203.504 52.4364C203.944 52.6799 204.294 53.0574 204.504 53.5138C204.785 54.3729 203.971 55.2245 203.123 55.5059C202.164 55.828 201.123 55.728 200.12 55.8465C199.117 55.965 198.028 56.4056 197.647 57.3535C197.121 58.6716 198.221 60.049 199.305 60.9525C201.473 62.7633 203.937 64.1862 206.589 65.1587C207.536 65.5067 208.532 65.8104 209.299 66.4731C210.065 67.1359 210.521 68.2985 210.062 69.2057C209.603 70.1128 208.414 70.4016 207.422 70.2165C206.429 70.0314 205.544 69.476 204.597 69.139C202.827 68.4726 200.542 68.5947 199.413 70.1239C198.672 71.1274 198.602 72.527 198.98 73.7266C199.412 74.9062 200.075 75.9876 200.931 76.9072C203.767 80.2396 207.396 82.9129 211.502 84.3347C215.608 85.7565 219.407 86.1416 223.487 84.6531" fill="#EBEBEB"/>
<path d="M197.654 39.8437C197.692 39.8884 197.734 39.9294 197.78 39.9658L198.15 40.3065C198.487 40.6027 198.987 41.047 199.609 41.6283C201.379 43.2715 203.022 45.0451 204.526 46.9342C205.485 48.1265 206.481 49.478 207.526 50.9479C208.57 52.4179 209.666 54.0026 210.762 55.7058C211.923 57.4805 212.986 59.3172 213.946 61.208C214.442 62.1929 214.883 63.2222 215.334 64.2701C215.786 65.3179 216.238 66.388 216.701 67.4654C218.46 71.5061 219.992 75.6423 221.288 79.8545C222.331 83.3012 223.05 86.8378 223.436 90.4182C223.685 92.8342 223.725 95.2673 223.554 97.6902C223.488 98.5455 223.421 99.212 223.362 99.66C223.336 99.8748 223.317 100.03 223.303 100.171C223.299 100.23 223.299 100.29 223.303 100.349C223.303 100.349 222.466 108.124 223.34 100.175C223.362 100.049 223.388 99.8822 223.425 99.6674C223.499 99.2194 223.58 98.5566 223.662 97.6976C223.866 95.2685 223.851 92.8261 223.617 90.3997C223.246 86.8058 222.531 83.2559 221.481 79.799C220.196 75.5717 218.669 71.4216 216.908 67.3692C216.446 66.2905 215.99 65.2266 215.538 64.1775C215.086 63.1296 214.642 62.0892 214.139 61.1006C213.174 59.2044 212.106 57.3626 210.939 55.5836C209.829 53.8804 208.718 52.2994 207.681 50.8331C206.644 49.3669 205.622 48.0191 204.652 46.8269C203.134 44.9406 201.467 43.1787 199.669 41.558C199.032 40.9841 198.524 40.5546 198.187 40.2695L197.788 39.9473C197.748 39.907 197.703 39.8722 197.654 39.8437Z" fill="#E0E0E0"/>
<path d="M214.068 61.0932C214.128 60.914 214.171 60.7291 214.194 60.5415C214.261 60.1712 214.342 59.6713 214.435 59.0271C214.616 57.746 214.805 55.9687 215.009 54.0063C215.212 52.0439 215.427 50.2703 215.631 48.9966C215.727 48.3597 215.812 47.8414 215.875 47.4859C215.919 47.3027 215.944 47.1153 215.949 46.9268C215.875 47.1005 215.821 47.2818 215.786 47.4674C215.694 47.8192 215.586 48.3301 215.464 48.9485C215.22 50.2222 214.979 51.9957 214.775 53.9619C214.572 55.928 214.405 57.6645 214.268 58.9901C214.201 59.5924 214.146 60.0996 214.101 60.5119C214.069 60.7038 214.058 60.8988 214.068 61.0932Z" fill="#E0E0E0"/>
<path d="M197.518 57.9978C197.734 58.0467 197.955 58.074 198.177 58.0792C198.602 58.1162 199.217 58.1681 199.972 58.257C201.491 58.4199 203.575 58.7198 205.863 59.1493C208.152 59.5788 210.203 60.0675 211.68 60.4563C212.421 60.6489 213.013 60.8266 213.424 60.934C213.633 61.007 213.849 61.0603 214.068 61.0932C213.872 60.9888 213.664 60.9057 213.45 60.8451C213.047 60.7007 212.458 60.5082 211.725 60.2934C210.244 59.8602 208.2 59.3492 205.908 58.9123C203.948 58.538 201.971 58.2624 199.984 58.0866C199.221 58.02 198.602 57.9941 198.173 57.9867C197.955 57.9717 197.735 57.9754 197.518 57.9978Z" fill="#E0E0E0"/>
<path d="M221.277 79.4843C221.326 79.424 221.365 79.3566 221.392 79.2843L221.677 78.6845C221.918 78.1624 222.251 77.3997 222.651 76.4629C223.447 74.5671 224.469 71.9123 225.558 68.9687C226.646 66.0251 227.646 63.3555 228.386 61.4449C228.757 60.5156 229.06 59.7528 229.29 59.1826C229.386 58.9383 229.468 58.7346 229.531 58.568C229.566 58.4981 229.589 58.4231 229.601 58.3458C229.555 58.4086 229.518 58.477 229.49 58.5495L229.205 59.1456C228.96 59.6677 228.627 60.4304 228.231 61.3672C227.431 63.2629 226.409 65.9178 225.324 68.8614C224.239 71.805 223.243 74.4672 222.484 76.3777L221.581 78.6364C221.485 78.8844 221.403 79.0881 221.337 79.2547C221.308 79.3286 221.288 79.4057 221.277 79.4843Z" fill="#E0E0E0"/>
<path d="M199.284 72.3937C199.353 72.4321 199.426 72.462 199.503 72.4825L200.143 72.6973L202.498 73.46C204.486 74.1043 207.223 75.0263 210.244 76.0519C213.265 77.0775 216.016 77.9736 218.02 78.5771C219.019 78.8807 219.83 79.114 220.397 79.2658L221.048 79.4398C221.122 79.465 221.2 79.4787 221.278 79.4806C221.209 79.4412 221.136 79.4113 221.059 79.3917L220.423 79.1769L218.068 78.4142C216.079 77.7699 213.343 76.848 210.318 75.8223C207.293 74.7967 204.549 73.9007 202.543 73.2971C201.543 72.9972 200.728 72.7602 200.165 72.6084L199.514 72.4381C199.439 72.4135 199.362 72.3985 199.284 72.3937Z" fill="#E0E0E0"/>
<path d="M213.017 21.123H267.701C267.701 21.123 262.865 12.3218 248.788 13.603C235.347 14.8248 234.662 9.27455 227.827 8.58956C220.992 7.90457 215.294 13.1512 213.017 21.123Z" fill="#F5F5F5"/>
<path d="M118.984 10.8519H150.505C150.505 10.8519 147.717 5.77926 139.604 6.51609C131.855 7.22329 131.459 4.0205 127.519 3.62802C123.579 3.23553 120.295 6.2532 118.984 10.8519Z" fill="#F5F5F5"/>
<path d="M187.788 26.0392C190.354 23.4741 190.354 19.3151 187.788 16.75C185.223 14.1848 181.064 14.1848 178.499 16.75C175.934 19.3151 175.934 23.4741 178.499 26.0392C181.064 28.6044 185.223 28.6044 187.788 26.0392Z" fill="#EBEBEB"/>
<path d="M183.074 37.648C182.981 37.648 182.903 35.4264 182.903 32.7049C182.903 29.9835 182.981 27.7582 183.074 27.7582C183.166 27.7582 183.248 29.9798 183.248 32.7049C183.248 35.4301 183.17 37.648 183.074 37.648Z" fill="#EBEBEB"/>
<path d="M199.243 21.0231C199.243 21.1193 196.94 21.1971 194.096 21.1971C191.252 21.1971 188.949 21.1193 188.949 21.0231C188.949 20.9268 191.256 20.8528 194.096 20.8528C196.936 20.8528 199.243 20.9268 199.243 21.0231Z" fill="#EBEBEB"/>
<path d="M183.144 6.59756C183.24 6.59756 183.318 8.62662 183.318 11.1296C183.318 13.6326 183.24 15.658 183.144 15.658C183.048 15.658 182.974 13.6289 182.974 11.1296C182.974 8.63032 183.051 6.59756 183.144 6.59756Z" fill="#EBEBEB"/>
<path d="M178.593 21.6414C178.593 21.734 176.146 21.8117 173.128 21.8117C170.111 21.8117 167.663 21.734 167.663 21.6414C167.663 21.5489 170.111 21.4674 173.128 21.4674C176.146 21.4674 178.593 21.5451 178.593 21.6414Z" fill="#EBEBEB"/>
<path d="M179.275 18.2979C179.208 18.3646 177.835 17.0983 176.209 15.4728C174.584 13.8473 173.314 12.4699 173.38 12.4033C173.447 12.3367 174.821 13.603 176.45 15.2284C178.079 16.8539 179.342 18.2313 179.275 18.2979Z" fill="#EBEBEB"/>
<path d="M192.215 12.4996C192.282 12.5662 191.312 13.6622 190.045 14.947C188.779 16.2318 187.698 17.2204 187.631 17.1686C187.565 17.1168 188.535 16.006 189.801 14.7212C191.067 13.4363 192.145 12.4329 192.215 12.4996Z" fill="#EBEBEB"/>
<path d="M192.841 30.787C192.774 30.8536 191.438 29.628 189.86 28.0507C188.283 26.4734 187.054 25.1367 187.124 25.0886C187.194 25.0404 188.524 26.2475 190.086 27.8248C191.649 29.4022 192.889 30.7203 192.841 30.787Z" fill="#EBEBEB"/>
<path d="M181.282 24.4369C181.349 24.5036 179.712 26.2549 177.627 28.3469C175.543 30.4389 173.795 32.0792 173.725 32.0125C173.654 31.9459 175.295 30.1945 177.383 28.1025C179.471 26.0105 181.215 24.3703 181.282 24.4369Z" fill="#EBEBEB"/>
<path d="M140.056 117.881L134.302 99.2638C134.302 99.2638 152.293 91.9437 152.074 92.2547C151.856 92.5657 151.656 99.0565 147.261 103.866C142.866 108.676 143.077 112.86 144.958 114.011C144.958 114.011 147.698 113.034 149.479 113.66C151.26 114.286 154.9 117.881 154.9 117.881H140.056Z" fill="#F7CEA5"/>
<path opacity="0.3" d="M140.056 117.881L134.302 99.2638C134.302 99.2638 152.293 91.9437 152.074 92.2547C151.856 92.5657 151.656 99.0565 147.261 103.866C142.866 108.676 143.077 112.86 144.958 114.011C144.958 114.011 147.698 113.034 149.479 113.66C151.26 114.286 154.9 117.881 154.9 117.881H140.056Z" fill="black"/>
<path d="M229.338 106.688L228.438 98.2678L225.517 95.3427L211.036 91.3327C210.409 91.158 209.743 91.1852 209.133 91.4105L202.975 93.6728L199.95 93.1545C199.95 93.1545 196.344 92.2325 194.592 91.2476C193.909 90.8707 193.176 90.5915 192.415 90.4182C176.272 86.5526 164.349 76.8517 164.349 76.8517C162.701 75.204 157.036 66.0436 153.859 64.7181C150.683 63.3925 143.973 63.9776 143.973 63.9776L142.526 64.4441L143.192 64.1257C142.086 61.7183 140.284 59.6981 138.017 58.3263C135.751 56.9546 133.125 56.2944 130.48 56.4312C127.834 56.568 125.29 57.4954 123.178 59.0936C121.065 60.6918 119.48 62.8871 118.629 65.3957C117.818 67.7876 117.699 70.3683 117.229 72.8491C116.536 74.8602 115.094 76.5269 113.204 77.5033C110.864 78.7363 108.091 78.9548 105.473 78.5919C106.3 79.4846 107.296 80.2038 108.403 80.7079C109.511 81.212 110.707 81.4908 111.923 81.5281C109.483 83.4128 106.48 84.7346 103.511 85.627C105.145 86.7436 107.072 87.3542 109.052 87.3825C111.031 87.4108 112.975 86.8556 114.641 85.7862L111.638 88.404C114.763 88.8816 117.777 86.7081 119.414 84.0052C121.05 81.3023 121.665 78.1291 122.546 75.0966C123.427 72.0642 124.727 68.9539 127.267 67.0804C129.452 65.4697 132.765 65.192 134.854 66.7434C132.754 67.2433 128.433 68.7873 126.741 73.2675C125.512 76.537 126.293 79.1658 123.479 88.5706C121.557 94.9984 111.279 99.7081 111.279 99.7081C111.279 99.7081 114.067 101.734 115.518 105.947C117.74 112.408 119.151 122.217 120.598 123.757C120.598 123.757 133.002 125.649 135.25 124.449C135.25 124.449 129.9 119.373 125.512 119.373L124.053 115.156C123.879 113.845 122.776 106.58 123.861 106.421C124.29 106.358 127.193 106.48 129.392 105.947C133.002 105.081 140.574 99.8896 141.411 98.8676C141.411 98.8676 149.331 99.6341 153.552 108.217C156.285 113.771 168.581 122.591 178.434 121.939L179.545 121.861C179.698 121.851 179.851 121.874 179.995 121.929C180.138 121.983 180.268 122.068 180.376 122.177C180.484 122.286 180.567 122.418 180.62 122.562C180.672 122.706 180.693 122.86 180.681 123.013L180.463 125.853C186.061 125.534 189.349 130.466 189.349 130.466C201.139 130.803 206.53 131.74 218.319 132.077C218.319 132.077 218.319 130.685 216.445 129.078C213.261 126.341 204.882 126.552 204.882 126.552C203.497 126.449 202.035 126.315 200.913 125.501C199.539 124.505 198.399 122.642 197.854 121.01L225.069 121.132L225.143 121.287L235.196 120.765C240.483 117.325 240.75 109.424 240.75 109.424L229.338 106.688Z" fill="#F7CEA5"/>
<g opacity="0.3">
<path d="M202.974 93.6728C200.382 97.5865 198.553 102.655 198.668 107.339C198.783 112.023 199.779 116.429 200.76 121.013H198.909C197.657 116.278 196.372 111.627 196.376 107.284C196.4 102.3 197.873 97.4307 200.616 93.2692" fill="black"/>
</g>
<path d="M131.687 125.371C131.658 125.393 131.387 125.038 130.858 124.56C129.465 123.311 127.664 122.612 125.793 122.594C125.082 122.594 124.641 122.672 124.634 122.635C124.729 122.59 124.832 122.561 124.937 122.55C125.219 122.49 125.505 122.457 125.793 122.45C126.218 122.43 126.645 122.453 127.066 122.516C127.583 122.601 128.091 122.736 128.581 122.92C129.068 123.119 129.533 123.367 129.969 123.661C130.325 123.896 130.656 124.166 130.958 124.468C131.165 124.666 131.353 124.883 131.521 125.116C131.639 125.268 131.698 125.364 131.687 125.371Z" fill="#263238"/>
<path d="M110.457 99.3342C110.457 99.2639 111.968 99.5897 113.83 99.4342C114.95 99.3069 116.058 99.0928 117.144 98.7936C116.854 98.9582 116.542 99.0827 116.218 99.1639C114.67 99.6414 113.034 99.7679 111.431 99.5341C111.099 99.5123 110.771 99.445 110.457 99.3342Z" fill="#263238"/>
<path d="M110.476 100.186C111.592 100.474 112.74 100.625 113.893 100.638C115.815 100.612 117.277 99.9896 117.296 100.06C117 100.236 116.681 100.37 116.348 100.456C114.751 100.943 113.049 100.975 111.435 100.549C111.098 100.477 110.775 100.355 110.476 100.186Z" fill="#263238"/>
<path d="M111.608 100.952C111.608 100.893 112.741 101.186 114.137 101.43C115.533 101.674 116.677 101.782 116.674 101.841C115.81 101.886 114.945 101.816 114.1 101.634C113.243 101.518 112.405 101.289 111.608 100.952Z" fill="#263238"/>
<path d="M145.898 86.9414C145.938 87.1414 145.959 87.3447 145.961 87.5486C145.98 87.7876 145.986 88.0274 145.98 88.267C145.98 88.5446 145.98 88.8668 145.939 89.2148C145.915 89.5983 145.871 89.9802 145.806 90.3589C145.754 90.7699 145.647 91.2032 145.543 91.6549C145.291 92.6351 144.947 93.5896 144.517 94.5059C144.073 95.4155 143.548 96.283 142.947 97.0978C142.658 97.468 142.392 97.8161 142.103 98.116C141.85 98.4054 141.582 98.681 141.3 98.9417C141.073 99.1629 140.834 99.3718 140.585 99.5675C140.405 99.7246 140.216 99.8705 140.018 100.004C139.858 100.132 139.687 100.244 139.508 100.341C139.482 100.304 140.204 99.8155 141.196 98.838C141.444 98.59 141.714 98.3197 141.973 98.0049C142.233 97.6902 142.514 97.3496 142.795 96.983C143.379 96.1726 143.893 95.3143 144.332 94.4171C144.755 93.5117 145.098 92.5714 145.358 91.6068C145.465 91.1587 145.576 90.7366 145.635 90.3293C145.695 89.922 145.758 89.5481 145.795 89.2185C145.932 87.8152 145.854 86.9451 145.898 86.9414Z" fill="#263238"/>
<g opacity="0.3">
<path d="M159.517 70.9126C156.969 73.3379 155.64 77.5256 156.373 80.969C156.759 82.6917 157.572 84.2898 158.737 85.6166C159.901 86.9435 161.38 87.9567 163.038 88.5632C165.574 89.4666 168.592 89.4407 170.558 91.2587C171.699 92.3066 172.298 93.8024 173.187 95.0687C174.36 96.6831 175.988 97.9111 177.862 98.5957C179.737 99.2803 181.773 99.3904 183.71 98.9121C187.553 97.8901 190.571 93.9987 190.934 90.0257C188.679 89.4576 186.457 88.7628 184.28 87.9448C181.434 86.8293 178.649 85.5662 175.934 84.1607C173.976 83.1129 166.978 78.8104 165.782 77.9329C163.96 76.5962 159.517 70.9126 159.517 70.9126Z" fill="black"/>
</g>
<path d="M128.663 77.296C128.697 76.9971 128.771 76.7042 128.885 76.4259C129.124 75.7446 129.429 75.0885 129.796 74.4672C130.166 73.8453 130.598 73.2622 131.085 72.7269C131.272 72.492 131.494 72.2872 131.744 72.1197C131.113 72.9066 130.523 73.726 129.978 74.5745C129.119 76.0038 128.726 77.3182 128.663 77.296Z" fill="#263238"/>
<path d="M130.021 78.2587C130.037 77.9575 130.098 77.6604 130.203 77.3775C130.629 75.9817 131.377 74.7057 132.387 73.6526C132.583 73.4228 132.813 73.2242 133.069 73.0639C133.117 73.112 132.099 74.0414 131.254 75.4891C130.41 76.9368 130.088 78.2772 130.021 78.2587Z" fill="#263238"/>
<path d="M180.322 126.452C180.285 126.452 180.455 125.923 180.536 125.057C180.647 123.931 180.516 122.794 180.151 121.723C179.786 120.652 179.197 119.672 178.422 118.847C177.826 118.214 177.378 117.903 177.4 117.873C177.518 117.924 177.629 117.99 177.73 118.07C178.013 118.274 178.279 118.5 178.526 118.747C179.352 119.561 179.977 120.556 180.352 121.654C180.726 122.752 180.838 123.922 180.681 125.071C180.637 125.418 180.564 125.759 180.462 126.093C180.433 126.219 180.386 126.34 180.322 126.452Z" fill="#263238"/>
<path d="M181.484 125.053C181.525 124.555 181.596 124.061 181.695 123.572C181.726 123.075 181.783 122.581 181.866 122.091C182.044 123.093 181.915 124.125 181.495 125.053H181.484Z" fill="#263238"/>
<path d="M182.259 124.912C182.207 124.875 182.577 124.368 182.773 123.642C182.97 122.916 182.929 122.294 182.992 122.287C183.151 122.744 183.151 123.241 182.992 123.698C182.891 124.173 182.633 124.601 182.259 124.912Z" fill="#263238"/>
<path d="M212.677 131.899C212.643 131.899 212.569 131.606 212.306 131.203C211.947 130.681 211.46 130.261 210.892 129.981C210.315 129.707 209.703 129.513 209.074 129.403C208.807 129.37 208.544 129.311 208.289 129.226C208.559 129.193 208.833 129.203 209.1 129.255C209.753 129.325 210.391 129.504 210.985 129.785C211.586 130.077 212.09 130.539 212.432 131.114C212.587 131.347 212.672 131.619 212.677 131.899Z" fill="#263238"/>
<path d="M217.871 132.08C217.837 132.103 217.593 131.647 217.067 131.014C216.76 130.644 216.42 130.302 216.053 129.992C215.153 129.226 214.102 128.658 212.968 128.326C212.507 128.188 212.035 128.09 211.558 128.033C210.739 127.941 210.225 127.985 210.225 127.945C210.344 127.906 210.469 127.888 210.595 127.889C210.736 127.871 210.878 127.864 211.021 127.871C211.208 127.864 211.396 127.871 211.583 127.889C212.075 127.923 212.561 128.008 213.035 128.141C213.615 128.307 214.176 128.533 214.709 128.815C215.236 129.108 215.732 129.454 216.19 129.848C216.558 130.173 216.894 130.532 217.193 130.922C217.31 131.07 217.419 131.224 217.519 131.384C217.598 131.503 217.67 131.627 217.734 131.755C217.795 131.856 217.841 131.966 217.871 132.08Z" fill="#263238"/>
<path d="M193.581 107.139C193.65 107.397 193.706 107.657 193.748 107.921C193.848 108.424 194.003 109.15 194.225 110.042C194.809 112.361 195.558 114.635 196.465 116.848C196.999 118.147 197.424 119.417 197.872 120.55C198.249 121.554 198.713 122.523 199.257 123.446C199.625 124.067 200.074 124.637 200.594 125.138C200.964 125.49 201.201 125.653 201.186 125.671C201.125 125.64 201.066 125.603 201.012 125.56C200.844 125.45 200.686 125.326 200.538 125.19C199.991 124.704 199.517 124.142 199.131 123.52C198.564 122.597 198.083 121.624 197.695 120.613C197.236 119.484 196.806 118.218 196.273 116.911C195.36 114.69 194.627 112.399 194.081 110.061C193.877 109.165 193.744 108.432 193.67 107.921C193.625 107.665 193.607 107.465 193.592 107.332C193.58 107.268 193.576 107.204 193.581 107.139Z" fill="#263238"/>
<g opacity="0.4">
<path d="M143.706 66.3658C143.676 66.2399 144.387 65.9177 145.628 65.7252C146.353 65.617 147.087 65.5773 147.82 65.6067C148.721 65.6444 149.616 65.7684 150.493 65.977C151.366 66.2006 152.217 66.5056 153.033 66.8878C153.696 67.1971 154.329 67.5691 154.921 67.9986C155.928 68.7392 156.402 69.3612 156.321 69.4612C156.239 69.5611 155.58 69.1724 154.533 68.6207C153.919 68.2981 153.29 68.0064 152.648 67.7468C151.863 67.4399 151.061 67.1802 150.245 66.9693C149.424 66.7752 148.592 66.6318 147.753 66.5398C146.979 66.4657 146.272 66.4324 145.679 66.4361C144.495 66.4694 143.739 66.5176 143.706 66.3658Z" fill="white"/>
</g>
<g opacity="0.4">
<path d="M118.907 70.7349C118.841 70.7349 118.737 70.4165 118.67 69.8129C118.594 68.9471 118.638 68.0749 118.8 67.2211C119.033 65.9488 119.482 64.7256 120.125 63.6036C120.904 62.2079 121.974 60.9957 123.261 60.049C124.549 59.1023 126.025 58.4432 127.59 58.1162C128.853 57.8378 130.154 57.7765 131.437 57.9348C132.295 58.0313 133.135 58.2482 133.933 58.5791C134.492 58.8234 134.769 59.0197 134.743 59.0789C134.684 59.2455 133.444 58.7457 131.378 58.6642C130.177 58.6145 128.976 58.7392 127.812 59.0345C126.392 59.3821 125.055 60.0065 123.877 60.8718C122.699 61.7372 121.703 62.8266 120.947 64.0775C120.312 65.0987 119.83 66.2078 119.518 67.3692C118.978 69.3945 119.081 70.7275 118.907 70.7349Z" fill="white"/>
</g>
<path d="M215.016 104.947C215.007 104.988 214.993 105.028 214.975 105.066C214.942 105.151 214.897 105.262 214.838 105.403L214.29 106.688C213.797 107.798 213.09 109.405 212.024 111.301C210.814 113.552 209.207 115.565 207.281 117.244C206.73 117.751 206.086 118.145 205.385 118.407C205.013 118.54 204.616 118.589 204.222 118.551C203.81 118.5 203.43 118.305 203.149 117.999C202.881 117.68 202.697 117.298 202.615 116.888C202.536 116.502 202.487 116.109 202.467 115.715C202.413 114.912 202.355 114.098 202.293 113.271C202.06 109.968 201.838 106.825 201.638 103.962C201.542 102.537 201.545 101.119 202.042 99.8896C202.512 98.7812 203.281 97.825 204.263 97.1274C205.056 96.5534 205.93 96.0992 206.855 95.7796C207.553 95.5369 208.265 95.3366 208.988 95.1798C209.58 95.0465 210.043 94.9576 210.358 94.9021L210.728 94.8391H210.85C210.812 94.8549 210.772 94.8673 210.732 94.8762L210.361 94.9576L209.002 95.2724C208.288 95.4419 207.583 95.6521 206.892 95.9018C205.978 96.2285 205.116 96.6863 204.333 97.2607C203.38 97.9464 202.635 98.8834 202.182 99.9673C201.705 101.141 201.705 102.526 201.812 103.948C202.019 106.81 202.245 109.953 202.486 113.252C202.545 114.078 202.601 114.893 202.66 115.696C202.719 116.5 202.797 117.314 203.297 117.873C203.544 118.142 203.878 118.317 204.241 118.366C204.606 118.398 204.973 118.351 205.318 118.229C206.002 117.983 206.631 117.606 207.17 117.118C209.086 115.459 210.691 113.472 211.909 111.249C212.99 109.372 213.716 107.773 214.231 106.677L214.816 105.407C214.879 105.273 214.93 105.162 214.971 105.081C214.982 105.035 214.997 104.99 215.016 104.947Z" fill="#263238"/>
<path d="M225.728 109.35C225.446 109.298 225.339 108.609 225.491 107.806C225.643 107.002 225.987 106.399 226.268 106.451C226.55 106.503 226.661 107.191 226.509 107.995C226.357 108.798 226.013 109.42 225.728 109.35Z" fill="#263238"/>
<path d="M227.046 101.859C226.916 101.937 226.675 101.774 226.335 101.693C225.883 101.582 225.41 101.6 224.969 101.745C224.478 101.947 224.009 102.194 223.565 102.485C223.176 102.704 222.888 102.815 222.788 102.707C222.688 102.6 222.788 102.319 223.076 101.933C223.471 101.404 224.014 101.004 224.635 100.782C224.975 100.659 225.34 100.62 225.698 100.67C226.056 100.72 226.397 100.856 226.69 101.067C226.87 101.199 227.005 101.382 227.079 101.593C227.127 101.726 227.101 101.822 227.046 101.859Z" fill="#263238"/>
<path d="M226.876 97.7532C226.876 97.7532 226.994 97.7532 227.054 97.9272C227.09 98.0264 227.09 98.1353 227.054 98.2345C227.026 98.303 226.983 98.3638 226.927 98.4115C226.871 98.4593 226.804 98.4926 226.732 98.5085C226.353 98.5542 225.97 98.4693 225.647 98.2678C225.211 98.0494 224.823 97.746 224.506 97.3755L223.988 96.7682L224.621 97.257C224.788 97.3494 224.935 97.4748 225.052 97.6257C225.169 97.7765 225.254 97.9497 225.302 98.1345C225.323 98.2457 225.314 98.3603 225.276 98.4669C225.239 98.5735 225.174 98.6683 225.088 98.7418C224.991 98.8034 224.883 98.8442 224.771 98.8614C224.658 98.8787 224.542 98.8719 224.432 98.8417C223.548 98.6522 222.776 98.1195 222.285 97.3607C222.191 97.2191 222.108 97.0706 222.037 96.9164L221.722 96.2758L222.2 96.8053C222.563 97.2097 222.841 97.6831 223.018 98.1975C223.07 98.3271 223.099 98.465 223.103 98.6048C223.1 98.6838 223.074 98.7603 223.03 98.8257C222.985 98.8911 222.923 98.9428 222.851 98.975C222.72 99.0104 222.582 99.0154 222.449 98.9897C222.316 98.9641 222.19 98.9084 222.081 98.8269C221.372 98.3716 220.773 97.763 220.33 97.0459C220.033 96.5688 219.811 96.0495 219.671 95.5056C219.634 95.3592 219.606 95.2109 219.585 95.0613C219.576 95.0087 219.576 94.9547 219.585 94.9021C219.765 95.6335 220.061 96.3311 220.463 96.9682C220.909 97.6543 221.499 98.2354 222.192 98.6714C222.276 98.733 222.373 98.776 222.475 98.7977C222.577 98.8194 222.682 98.8193 222.785 98.7973C222.959 98.727 222.936 98.4863 222.84 98.253C222.669 97.7644 222.402 97.315 222.055 96.9312L222.225 96.8201C222.293 96.9649 222.371 97.1047 222.459 97.2385C222.922 97.9485 223.643 98.4505 224.469 98.6381C224.552 98.6628 224.64 98.67 224.726 98.6591C224.812 98.6483 224.895 98.6197 224.969 98.5751C225.03 98.5229 225.075 98.4559 225.102 98.3805C225.129 98.3052 225.135 98.2242 225.121 98.1456C225.029 97.8216 224.814 97.5464 224.521 97.3792L224.636 97.257C224.933 97.6178 225.298 97.9172 225.71 98.1382C226.004 98.3336 226.353 98.4272 226.706 98.4048C226.758 98.3947 226.808 98.3742 226.852 98.3446C226.896 98.3149 226.934 98.2767 226.964 98.2322C226.993 98.1877 227.013 98.1378 227.023 98.0854C227.033 98.0331 227.032 97.9792 227.02 97.9272C226.972 97.7902 226.865 97.7643 226.876 97.7532Z" fill="#263238"/>
<g opacity="0.3">
<path d="M204.427 118.651C206.204 118.769 208.052 118.877 209.699 118.207C211.921 117.303 213.402 115.096 214.039 112.782C214.676 110.468 214.65 108.383 214.561 105.988C212.295 111.683 209.847 116.122 204.427 118.651Z" fill="black"/>
</g>
<path d="M239.494 115.178C239.478 115.24 239.456 115.301 239.427 115.359C239.376 115.474 239.298 115.641 239.194 115.855C238.912 116.474 238.537 117.046 238.083 117.551C237.784 117.862 237.421 118.158 237.05 118.488C236.67 118.881 236.213 119.19 235.706 119.395C235.407 119.497 235.08 119.477 234.795 119.34C234.51 119.188 234.278 118.951 234.133 118.662C233.89 118.054 233.83 117.389 233.959 116.748C234.085 115.53 234.333 114.328 234.699 113.16C234.979 112.195 235.4 111.277 235.947 110.435C236.321 109.861 236.829 109.387 237.428 109.054C237.59 108.965 237.761 108.895 237.939 108.846C237.999 108.824 238.061 108.809 238.124 108.802C238.124 108.824 237.872 108.887 237.469 109.124C236.904 109.475 236.428 109.952 236.077 110.516C235.556 111.357 235.157 112.267 234.892 113.219C234.53 114.376 234.282 115.565 234.151 116.77C234.027 117.372 234.079 117.996 234.299 118.569C234.424 118.821 234.623 119.028 234.87 119.162C234.988 119.22 235.116 119.255 235.248 119.264C235.379 119.273 235.511 119.256 235.636 119.214C236.118 119.017 236.556 118.727 236.924 118.358C237.295 118.033 237.665 117.744 237.965 117.448C238.415 116.959 238.796 116.411 239.098 115.818C239.215 115.596 239.348 115.382 239.494 115.178Z" fill="#263238"/>
<path d="M238.643 112.012C238.924 112.049 239.143 112.175 239.128 112.297C239.113 112.419 238.869 112.479 238.583 112.442C238.298 112.405 238.084 112.279 238.098 112.156C238.113 112.034 238.358 111.986 238.643 112.012Z" fill="#263238"/>
<path d="M236.902 112.938C237.18 112.867 237.428 112.904 237.462 113.023C237.495 113.141 237.291 113.297 237.017 113.371C236.743 113.445 236.488 113.408 236.458 113.286C236.428 113.164 236.621 113.012 236.902 112.938Z" fill="#263238"/>
<path d="M238.554 113.375C238.821 113.267 239.065 113.245 239.095 113.323C239.124 113.401 238.935 113.556 238.669 113.66C238.402 113.763 238.162 113.789 238.132 113.712C238.102 113.634 238.291 113.493 238.554 113.375Z" fill="#263238"/>
<path d="M237.058 115.47C236.99 115.495 236.917 115.5 236.846 115.486C236.776 115.471 236.711 115.438 236.658 115.389C236.605 115.34 236.567 115.278 236.547 115.209C236.528 115.139 236.527 115.066 236.546 114.997C236.565 114.928 236.603 114.865 236.656 114.815C236.708 114.766 236.773 114.732 236.843 114.717C236.913 114.702 236.987 114.707 237.054 114.731C237.122 114.754 237.182 114.796 237.228 114.852C237.283 114.957 237.296 115.08 237.265 115.195C237.233 115.309 237.159 115.408 237.058 115.47Z" fill="#263238"/>
<g opacity="0.3">
<path d="M240.846 109.261C239.905 108.991 238.646 108.735 238.224 108.65C237.802 108.565 237.484 108.954 237.173 109.142C236.325 109.661 235.773 110.542 235.321 111.434C234.388 113.349 234.144 115.507 234.077 117.622C234.055 118.281 234.333 118.984 234.973 119.151C235.135 119.204 235.305 119.221 235.474 119.203C235.642 119.184 235.805 119.13 235.951 119.043C237.563 118.137 238.829 116.724 239.554 115.022C240.322 113.194 240.754 111.243 240.827 109.261" fill="black"/>
</g>
<path d="M239.901 109.05C239.831 108.972 239.702 109.028 239.62 109.094C239.252 109.453 238.983 109.901 238.839 110.394C238.769 110.547 238.725 110.711 238.709 110.879C238.703 110.963 238.718 111.047 238.753 111.124C238.787 111.201 238.839 111.268 238.905 111.32C238.992 111.369 239.089 111.394 239.189 111.394C239.288 111.394 239.386 111.369 239.472 111.32C239.646 111.231 239.798 111.098 239.976 111.012C240.038 110.983 240.127 110.964 240.168 111.012C240.209 111.06 240.168 111.142 240.135 111.197C239.989 111.443 239.903 111.72 239.883 112.005C239.865 112.14 239.885 112.277 239.942 112.401C239.971 112.463 240.018 112.514 240.077 112.549C240.136 112.584 240.204 112.601 240.272 112.597C240.272 112.597 241.275 109.772 240.623 109.339C239.972 108.906 239.901 109.05 239.901 109.05Z" fill="#263238"/>
<g opacity="0.3">
<path d="M219.186 94.4504C219.966 96.3068 221.076 98.0065 222.462 99.4675C222.936 98.4492 222.377 97.2681 221.826 96.2832C222.498 97.2451 223.371 98.0498 224.384 98.6418C224.541 98.7563 224.735 98.809 224.928 98.7899C224.998 98.7622 225.061 98.721 225.115 98.6687C225.168 98.6164 225.211 98.5541 225.24 98.4852C225.269 98.4164 225.285 98.3424 225.285 98.2676C225.286 98.1928 225.271 98.1186 225.243 98.0494C225.114 97.7732 224.917 97.5348 224.669 97.357C224.421 97.1741 224.241 96.9134 224.158 96.6164C224.712 97.2066 225.36 97.7008 226.076 98.079C226.32 98.2417 226.618 98.3016 226.906 98.2456C227.092 98.1569 227.238 97.9999 227.312 97.807C227.387 97.6141 227.384 97.4 227.305 97.2089C227.131 96.8316 226.845 96.5165 226.487 96.3054C224.473 94.8767 222.069 94.1012 219.6 94.0838" fill="black"/>
</g>
<g opacity="0.4">
<path d="M203.297 112.73C203.16 112.73 202.927 111.697 202.705 109.976C202.399 107.71 202.413 105.413 202.746 103.152C202.853 102.501 203.001 101.858 203.19 101.226C203.359 100.63 203.578 100.049 203.845 99.4897C204.29 98.4917 205.007 97.6396 205.915 97.0311C206.533 96.6257 207.26 96.4178 208 96.435C208.518 96.4646 208.773 96.6164 208.759 96.6757C208.744 96.7349 208.474 96.746 208.018 96.8386C207.398 96.9667 206.817 97.2395 206.322 97.6347C205.601 98.2362 205.045 99.0108 204.704 99.8859C204.484 100.413 204.301 100.955 204.156 101.508C203.99 102.106 203.858 102.713 203.76 103.326C203.342 105.847 203.419 108.213 203.427 109.927C203.434 111.642 203.445 112.716 203.297 112.73Z" fill="white"/>
</g>
<path d="M102.496 76.5184C102.536 76.2347 102.629 75.9609 102.77 75.7113C103.387 74.4549 104.44 73.4654 105.732 72.9269C105.99 72.8016 106.269 72.725 106.554 72.701C106.584 72.7639 105.292 73.1046 104.147 74.1821C103.003 75.2595 102.559 76.5481 102.496 76.5184Z" fill="#263238"/>
<path d="M101.015 72.2122C100.993 72.2122 101.056 72.0012 101.241 71.7272C101.494 71.3714 101.823 71.076 102.204 70.8622C102.585 70.6484 103.008 70.5215 103.444 70.4905C103.623 70.4603 103.807 70.4781 103.977 70.5424C103.395 70.6067 102.829 70.7721 102.304 71.0311C101.448 71.5087 101.071 72.2493 101.015 72.2122Z" fill="#263238"/>
<path d="M262.362 123.464C262.766 123.653 263.197 123.778 263.639 123.835C263.861 123.861 264.086 123.836 264.297 123.763C264.508 123.69 264.699 123.57 264.857 123.413C265.031 123.22 265.131 122.964 265.309 122.772C265.518 122.589 265.774 122.467 266.048 122.421C266.322 122.374 266.603 122.405 266.861 122.509C267.233 122.633 267.571 122.845 267.844 123.127C268.118 123.408 268.32 123.751 268.434 124.127C268.538 124.506 268.541 124.906 268.442 125.287C268.343 125.668 268.147 126.016 267.871 126.297C267.588 126.569 267.232 126.755 266.847 126.833C266.461 126.911 266.062 126.878 265.694 126.737C265.694 126.737 268.286 127.678 267.575 129.585C266.864 131.492 264.428 131.732 263.565 130.1C263.565 130.1 263.195 128.904 262.825 128.763C262.454 128.622 261.177 128.067 261.177 128.067L258.978 127.174C258.573 126.988 258.142 126.863 257.7 126.804C257.478 126.778 257.254 126.803 257.043 126.876C256.832 126.949 256.64 127.069 256.482 127.226C256.308 127.422 256.208 127.674 256.03 127.867C255.823 128.053 255.567 128.176 255.293 128.223C255.019 128.27 254.736 128.239 254.479 128.133C254.106 128.009 253.768 127.797 253.494 127.515C253.22 127.232 253.018 126.888 252.905 126.512C252.801 126.133 252.799 125.734 252.897 125.353C252.996 124.973 253.193 124.626 253.468 124.346C253.751 124.073 254.105 123.886 254.491 123.808C254.876 123.73 255.275 123.764 255.641 123.905C255.641 123.905 253.05 122.961 253.761 121.054C254.471 119.147 256.912 118.91 257.774 120.539C257.774 120.539 258.144 121.739 258.515 121.88C258.885 122.02 260.159 122.576 260.159 122.576L262.362 123.464Z" fill="#263238"/>
<path d="M261.825 122.931C262.23 123.119 262.662 123.244 263.106 123.301C263.327 123.327 263.552 123.303 263.763 123.23C263.974 123.157 264.166 123.037 264.324 122.879C264.498 122.683 264.598 122.431 264.776 122.239C264.984 122.056 265.24 121.934 265.514 121.887C265.788 121.841 266.069 121.872 266.327 121.976C266.7 122.099 267.037 122.311 267.31 122.593C267.583 122.874 267.785 123.218 267.897 123.594C268.004 123.973 268.009 124.373 267.911 124.754C267.813 125.136 267.615 125.484 267.338 125.764C267.054 126.035 266.698 126.221 266.313 126.299C265.928 126.377 265.528 126.344 265.161 126.204C265.161 126.204 267.753 127.145 267.042 129.052C266.331 130.959 263.894 131.195 263.032 129.566C263.032 129.566 262.661 128.37 262.291 128.23C261.921 128.089 260.643 127.53 260.643 127.53L258.444 126.641C258.04 126.453 257.609 126.329 257.167 126.271C256.944 126.244 256.719 126.269 256.507 126.342C256.296 126.415 256.103 126.535 255.945 126.693C255.774 126.889 255.674 127.141 255.497 127.334C255.289 127.519 255.032 127.643 254.757 127.689C254.482 127.736 254.199 127.704 253.942 127.597C253.569 127.473 253.232 127.261 252.959 126.98C252.685 126.698 252.484 126.355 252.372 125.978C252.265 125.6 252.262 125.2 252.36 124.819C252.459 124.439 252.657 124.091 252.935 123.812C253.217 123.54 253.572 123.353 253.957 123.274C254.342 123.196 254.741 123.228 255.108 123.368C255.108 123.368 252.516 122.428 253.227 120.521C253.938 118.614 256.374 118.377 257.237 120.006C257.237 120.006 257.607 121.202 257.978 121.343C258.348 121.483 259.622 122.043 259.622 122.043L261.825 122.931Z" fill="#455A64"/>
<path d="M263.802 111.297C264.116 111.277 264.426 111.208 264.72 111.094C264.868 111.037 265.001 110.947 265.108 110.83C265.216 110.714 265.296 110.575 265.342 110.424C265.383 110.242 265.361 110.053 265.409 109.872C265.477 109.687 265.595 109.525 265.75 109.404C265.905 109.283 266.091 109.208 266.286 109.187C266.561 109.139 266.843 109.158 267.108 109.243C267.374 109.327 267.615 109.474 267.812 109.672C268.003 109.874 268.138 110.122 268.203 110.393C268.268 110.663 268.261 110.946 268.182 111.212C268.098 111.477 267.939 111.713 267.725 111.891C267.511 112.069 267.251 112.181 266.975 112.216C266.975 112.216 268.911 111.934 269.104 113.363C269.296 114.793 267.856 115.759 266.771 115.03C266.771 115.03 266.149 114.4 265.872 114.437C265.594 114.474 264.613 114.556 264.613 114.556L262.939 114.737C262.625 114.757 262.315 114.824 262.021 114.937C261.874 114.995 261.742 115.086 261.634 115.202C261.526 115.318 261.446 115.456 261.399 115.607C261.358 115.789 261.399 115.978 261.332 116.159C261.264 116.344 261.146 116.506 260.991 116.628C260.836 116.749 260.65 116.826 260.455 116.848C260.18 116.895 259.898 116.875 259.633 116.791C259.367 116.706 259.126 116.559 258.929 116.363C258.739 116.16 258.604 115.912 258.539 115.642C258.474 115.372 258.481 115.089 258.559 114.822C258.645 114.558 258.805 114.323 259.019 114.145C259.233 113.966 259.493 113.852 259.77 113.815C259.77 113.815 257.833 114.1 257.641 112.667C257.448 111.234 258.885 110.275 259.97 111.001C259.97 111.001 260.595 111.631 260.869 111.594C261.143 111.557 262.132 111.479 262.132 111.479L263.802 111.297Z" fill="#263238"/>
<path d="M263.288 111.142C263.603 111.121 263.914 111.053 264.21 110.942C264.357 110.884 264.489 110.793 264.597 110.676C264.704 110.56 264.783 110.42 264.828 110.268C264.872 110.09 264.85 109.898 264.895 109.72C264.967 109.537 265.088 109.378 265.245 109.26C265.401 109.142 265.588 109.069 265.783 109.05C266.058 109.002 266.34 109.021 266.605 109.106C266.871 109.19 267.112 109.337 267.309 109.535C267.5 109.737 267.635 109.985 267.7 110.256C267.765 110.526 267.758 110.809 267.679 111.075C267.592 111.34 267.433 111.575 267.219 111.753C267.004 111.931 266.744 112.045 266.468 112.082C266.468 112.082 268.408 111.797 268.601 113.23C268.794 114.663 267.353 115.622 266.268 114.896C266.268 114.896 265.646 114.267 265.369 114.304C265.091 114.341 264.106 114.419 264.106 114.419L262.436 114.6C262.121 114.621 261.81 114.689 261.514 114.8C261.367 114.859 261.235 114.95 261.128 115.067C261.021 115.183 260.942 115.322 260.896 115.474C260.855 115.655 260.896 115.844 260.829 116.026C260.76 116.21 260.641 116.372 260.486 116.493C260.33 116.614 260.144 116.689 259.948 116.711C259.674 116.758 259.393 116.739 259.128 116.654C258.863 116.57 258.622 116.423 258.426 116.226C258.235 116.024 258.1 115.775 258.035 115.505C257.97 115.235 257.977 114.952 258.056 114.685C258.143 114.421 258.303 114.187 258.517 114.01C258.731 113.832 258.991 113.719 259.267 113.682C259.267 113.682 257.33 113.963 257.138 112.534C256.945 111.105 258.382 110.138 259.467 110.868C259.467 110.868 260.089 111.494 260.366 111.46C260.644 111.427 261.629 111.342 261.629 111.342L263.288 111.142Z" fill="#455A64"/>
</svg>
