<svg width="66" height="66" viewBox="0 0 66 66" fill="none" xmlns="http://www.w3.org/2000/svg">
<path d="M14.1764 50.9768C12.8285 50.9768 11.4387 50.666 9.95525 50.0591C8.75985 49.5702 8.18632 48.2024 8.67475 47.0042C9.16318 45.8059 10.5283 45.2318 11.7237 45.7206C13.9191 46.6192 15.9162 46.9703 19.9077 42.7414C20.7945 41.8015 22.2749 41.7596 23.2135 42.6491C24.1521 43.5381 24.1934 45.0209 23.3056 45.9613C20.0935 49.3643 17.245 50.9768 14.1764 50.9768Z" fill="#495059"/>
<path d="M24.3459 60.2368C24.2673 60.2368 24.1882 60.2332 24.1087 60.2272C22.4994 60.0975 21.2994 58.6859 21.4288 57.0729C21.6731 54.0235 21.7461 51.4212 21.3553 47.8769C21.1781 46.269 22.3352 44.8215 23.9395 44.6439C25.5448 44.4678 26.9889 45.6257 27.1662 47.2336C27.6063 51.227 27.5207 54.2425 27.2563 57.5416C27.1335 59.0744 25.854 60.2368 24.3459 60.2368Z" fill="#DDAF89"/>
<path d="M35.1501 60.2368C35.0715 60.2368 34.9929 60.2332 34.9129 60.2272C33.3036 60.0975 32.1041 58.6859 32.233 57.0729C32.4773 54.0241 32.5503 51.4217 32.1595 47.8769C31.9823 46.269 33.1394 44.8215 34.7437 44.6439C36.349 44.4678 37.7931 45.6257 37.9704 47.2336C38.4105 51.2275 38.3249 54.243 38.061 57.5416C37.9377 59.0744 36.6582 60.2368 35.1501 60.2368Z" fill="#DDAF89"/>
<path d="M14.9379 41.5007C13.0622 41.5007 11.3587 41.0487 9.97599 40.1622C8.61593 39.2904 8.21863 37.4792 9.08825 36.1165C9.95836 34.7542 11.7661 34.3562 13.1261 35.2275C13.8532 35.6932 15.2032 35.7703 16.6499 35.4278C18.2199 35.0575 19.7955 36.0312 20.1666 37.6053C20.5377 39.1799 19.5644 40.7571 17.9934 41.1289C16.9425 41.3771 15.9168 41.5007 14.9379 41.5007Z" fill="#DDAF89"/>
<path d="M37.9703 47.2337C37.7931 45.6258 36.3489 44.4684 34.7436 44.6439C33.1388 44.8215 31.9822 46.269 32.159 47.8769C32.3473 49.5843 32.4273 51.0721 32.4334 52.4974C34.5387 52.118 36.4969 51.3582 38.2186 50.2992C38.1697 49.332 38.0901 48.3199 37.9703 47.2337Z" fill="#D1A582"/>
<path d="M23.94 44.6439C22.3357 44.8215 21.1786 46.269 21.3558 47.8769C21.4762 48.9703 21.5522 49.9733 21.593 50.9283C23.3735 51.8385 25.362 52.4454 27.4758 52.6725C27.4763 50.9995 27.3877 49.2402 27.1667 47.2337C26.9894 45.6258 25.5453 44.4684 23.94 44.6439Z" fill="#D1A582"/>
<path d="M43.5961 38.1427C43.5961 31.0112 37.2162 25.2303 29.3459 25.2303C21.4756 25.2303 15.0952 31.0112 15.0952 38.1427C15.0952 45.2741 21.4756 51.055 29.3459 51.055C37.2162 51.055 43.5961 45.2741 43.5961 38.1427Z" fill="#DDAF89"/>
<path d="M42.2161 29.8523C38.7235 32.7558 34.238 34.502 29.3456 34.502C24.4527 34.502 19.9672 32.7558 16.4751 29.8523C15.7324 30.8159 15.113 31.8648 14.6437 32.9814C14.0042 34.503 14.5939 36.2663 16.0149 37.1023C19.9264 39.403 24.4819 40.7228 29.3456 40.7228C34.2088 40.7228 38.7643 39.403 42.6758 37.1023C44.0968 36.2663 44.6865 34.503 44.047 32.9814C43.5777 31.8643 42.9583 30.8154 42.2161 29.8523Z" fill="#7F9AE6"/>
<path d="M22.8555 33.4319C20.5034 32.6312 18.3463 31.4083 16.4746 29.8518C15.7324 30.8155 15.113 31.8644 14.6437 32.9814C14.0042 34.503 14.5939 36.2663 16.0149 37.1018C18.0487 38.2981 20.2577 39.2264 22.5926 39.8449C21.7361 38.1225 21.9788 35.5363 22.8555 33.4319Z" fill="#5E78BF"/>
<path d="M24.0995 14.0294C23.531 14.0294 22.9574 13.8558 22.4625 13.4956L19.0303 10.9972C17.5273 9.90337 15.5 9.99418 14.1007 11.2187L11.8534 13.1843C10.6927 14.1999 8.93033 14.0798 7.91721 12.9174C6.90408 11.7545 7.02342 9.98863 8.18358 8.97353L10.4309 7.00739C12.0518 5.58968 14.1279 4.7557 16.277 4.65933C18.4266 4.56297 20.5681 5.20775 22.3089 6.47411L25.741 8.97252C26.9878 9.87966 27.2642 11.6278 26.3589 12.8765C25.813 13.6298 24.962 14.0294 24.0995 14.0294Z" fill="#495059"/>
<path d="M34.5915 14.0293C33.7284 14.0293 32.8779 13.6297 32.3321 12.8765C31.4267 11.6278 31.7032 9.87957 32.9494 8.97243L36.3821 6.47453C38.1228 5.20767 40.2654 4.56339 42.414 4.65925C44.5631 4.75611 46.6392 5.58959 48.2596 7.00731L50.5069 8.97344C51.6675 9.98855 51.7869 11.7544 50.7737 12.9173C49.7606 14.0802 47.9982 14.1998 46.8376 13.1842L44.5903 11.2186C43.1909 9.9941 41.1637 9.90328 39.6606 10.9971L36.2285 13.4955C35.7335 13.8557 35.1595 14.0293 34.5915 14.0293Z" fill="#495059"/>
<path d="M29.3458 36.1664C43.5069 36.1664 49.8887 29.6666 47.8972 20.5145C45.7567 10.6788 39.0148 5.29553 29.3458 5.29553C19.6763 5.29553 12.9344 10.6793 10.7944 20.5145C8.80239 29.6666 15.1843 36.1664 29.3458 36.1664Z" fill="#DDAF89"/>
<path d="M33.3262 41.2258C33.3262 43.4286 31.5442 45.2141 29.3457 45.2141C27.1473 45.2141 25.3647 43.4286 25.3647 41.2258C25.3647 39.0231 27.1473 37.2371 29.3457 37.2371C31.5442 37.2371 33.3262 39.0231 33.3262 41.2258Z" fill="#F6E06A"/>
<path d="M24.0042 22.412C24.0042 20.6058 22.1698 19.1422 19.9064 19.1422C17.6435 19.1422 15.8086 20.6058 15.8086 22.412C15.8086 24.2177 17.6435 25.6819 19.9064 25.6819C22.1698 25.6819 24.0042 24.2177 24.0042 22.412Z" fill="#FFDBDB"/>
<path d="M47.0008 22.412C47.0008 20.6058 45.1664 19.1422 42.903 19.1422C40.6401 19.1422 38.8052 20.6058 38.8052 22.412C38.8052 24.2177 40.6401 25.6819 42.903 25.6819C45.1664 25.6819 47.0008 24.2177 47.0008 22.412Z" fill="#FFDBDB"/>
<path d="M33.5538 19.7092C32.1449 19.3399 30.6645 19.3399 29.2556 19.7092C28.672 19.8626 28.1639 20.2218 27.8246 20.7218C27.3668 21.3969 27.6297 22.3227 28.3739 22.6542L30.4389 23.5739C31.0538 23.8479 31.7557 23.8479 32.3705 23.5739L34.435 22.6542C35.1798 22.3227 35.4426 21.3969 34.9849 20.7218C34.646 20.2218 34.1374 19.8626 33.5538 19.7092Z" fill="#495059"/>
<path d="M5.62012 28.8281L12.858 20.186L17.5122 24.0996L10.2743 32.7412L5.62012 28.8281Z" fill="#7F9AE6"/>
<path d="M12.8586 20.185L5.62124 28.8275L1.99525 25.7787C0.777687 24.755 0.619072 22.9367 1.64075 21.7167L5.17863 17.4918C6.20031 16.2724 8.01557 16.113 9.23263 17.1367L12.8586 20.185Z" fill="#D16283"/>
<path d="M44.9592 60.2524L48.3314 61.3669C51.1538 62.3003 53.6654 59.3009 52.258 56.6784L50.5767 53.5443C49.5122 51.5605 48.0812 49.7982 46.3591 48.3502L17.5133 24.0981L10.2759 32.7407L39.1217 56.9927C40.8438 58.4402 42.8247 59.5466 44.9592 60.2524Z" fill="#F6E06A"/>
<path d="M14.6055 27.5677L44.111 52.3763L42.8682 53.8601L13.3623 29.0516L14.6055 27.5677Z" fill="#EDCC5F"/>
<path d="M39.8037 57.5372C41.3596 58.7198 43.1009 59.638 44.959 60.2525L48.3312 61.3675C51.1535 62.3004 53.6652 59.301 52.2578 56.6784L50.5764 53.5448C49.6499 51.8179 48.445 50.2589 47.0129 48.9294L39.8037 57.5372Z" fill="#DDAF89"/>
<path d="M45.3862 60.3932L48.3314 61.3669C51.1538 62.3003 53.6654 59.3009 52.258 56.6783L50.7897 53.9413L45.3862 60.3932Z" fill="#495059"/>
<path d="M11.5481 40.6238C11.0093 40.6238 10.464 40.475 9.97656 40.1622C8.45738 39.189 5.99809 36.8011 6.59226 31.7427C6.78059 30.1358 8.2333 28.9865 9.83657 29.1757C11.4403 29.3649 12.5869 30.8199 12.3986 32.4268C12.2294 33.8672 12.4741 34.8092 13.1262 35.2274C14.4863 36.0988 14.8836 37.91 14.0139 39.2727C13.456 40.1466 12.5124 40.6238 11.5481 40.6238Z" fill="#DDAF89"/>
<path d="M15.1659 36.8521L13.6311 35.562C13.4675 36.4 13.3804 37.2623 13.3804 38.1427C13.3804 39.2763 13.5219 40.3802 13.7892 41.4407C14.1639 41.4796 14.5471 41.5008 14.9378 41.5008C15.1488 41.5008 15.3623 41.4937 15.5773 41.4821C15.2636 40.4171 15.0949 39.2975 15.0949 38.1427C15.0949 37.7073 15.1191 37.2769 15.1659 36.8521Z" fill="#D1A582"/>
<path d="M41.7455 50.0504C40.964 50.0504 40.1845 49.7386 39.609 49.1211C38.5068 47.939 38.5697 46.0854 39.7495 44.9815C40.7702 44.0259 41.8769 41.861 41.1428 40.0396C40.5375 38.5397 41.2606 36.8329 42.7571 36.2269C44.2547 35.621 45.9581 36.345 46.5629 37.8445C47.8006 40.913 47.4451 45.7943 43.7405 49.2619C43.1771 49.7891 42.4605 50.0504 41.7455 50.0504Z" fill="#C49B7A"/>
<path d="M21.3278 17.7002V19.1502C21.3278 19.685 21.7604 20.1189 22.2946 20.1189C22.8289 20.1189 23.2614 19.685 23.2614 19.1502V17.7002C23.2614 17.1649 22.8289 16.7315 22.2946 16.7315C21.7604 16.7315 21.3278 17.1649 21.3278 17.7002ZM27.5491 25.8675C27.1981 25.4639 26.5873 25.422 26.185 25.7736C25.7822 26.1248 25.7404 26.7368 26.0913 27.1404C27.4318 28.6812 29.3684 29.5651 31.4047 29.5651C33.441 29.5651 35.3776 28.6812 36.7185 27.1404C37.069 26.7368 37.0272 26.1248 36.6249 25.7736C36.2221 25.422 35.6113 25.4639 35.2608 25.8675C34.503 26.7383 33.4828 27.3185 32.3715 27.5334V24.6036C32.5044 24.5638 32.6353 24.5164 32.7632 24.4588L34.8283 23.5396C35.4451 23.2646 35.9053 22.7334 36.0906 22.0825C36.2759 21.4317 36.1641 20.737 35.7845 20.1774C35.3137 19.4837 34.6087 18.9847 33.7985 18.7723H33.799C32.2325 18.3617 30.5769 18.3617 29.0109 18.7723C28.2012 18.9842 27.4962 19.4837 27.0254 20.1774C26.6452 20.737 26.5339 21.4317 26.7187 22.0825C26.904 22.7334 27.3643 23.2646 27.9816 23.5391L30.0461 24.4588C30.174 24.5164 30.3055 24.5638 30.4379 24.6036V27.5334C29.3266 27.3185 28.3064 26.7383 27.5491 25.8675ZM28.7671 21.7687C28.6408 21.7127 28.5944 21.6083 28.5783 21.5513C28.5622 21.4943 28.5466 21.3807 28.6241 21.2662C28.8321 20.9605 29.1433 20.74 29.5008 20.6461C30.1237 20.4827 30.7642 20.4014 31.4047 20.4014C32.0457 20.4014 32.6862 20.4827 33.3091 20.6461C33.6666 20.74 33.9778 20.96 34.1857 21.2662C34.2633 21.3807 34.2477 21.4943 34.2311 21.5513C34.2149 21.6083 34.1691 21.7127 34.0427 21.7687L31.9777 22.689C31.6137 22.8509 31.1957 22.8509 30.8317 22.6885L28.7671 21.7687ZM65.8337 58.5809C65.5346 58.1379 64.9334 58.0219 64.4913 58.3216C62.8769 59.4164 61.2566 59.2686 58.1925 58.702C57.7836 58.6263 57.3546 58.5355 56.9392 58.4477C55.8269 58.2121 54.6879 57.9719 53.6173 57.9442C53.573 57.3589 53.4069 56.7737 53.1098 56.2197L51.652 53.5029C51.65 53.4993 51.648 53.4958 51.646 53.4923L51.428 53.0856C50.301 50.9848 48.8045 49.1417 46.9807 47.608L46.5678 47.2614C48.52 43.9159 48.5155 40.1001 47.4591 37.4817C47.0245 36.4045 46.1604 35.628 45.1443 35.2688C45.3457 34.4464 45.3014 33.5746 45.0008 32.7674C45.4756 32.3728 45.9147 31.9536 46.3135 31.5086C46.6705 31.1105 46.6378 30.498 46.24 30.1403C45.8427 29.7826 45.2314 29.8159 44.8749 30.2145C42.3572 33.0242 37.9482 34.7118 32.1101 35.1058L18.1349 23.3565C18.1344 23.3559 18.1344 23.3559 18.1344 23.3559L13.4807 19.4434L13.4802 19.4429C13.4797 19.4429 13.4797 19.4429 13.4797 19.4423L12.3361 18.4812C14.8362 10.597 20.853 6.26364 29.3452 6.26364C31.7884 6.26364 34.0201 6.61681 36.0201 7.30447C36.0841 7.33525 36.1511 7.35795 36.219 7.3746C38.3918 8.15157 40.2861 9.32964 41.8753 10.8866C41.9267 10.9522 41.9856 11.0117 42.0525 11.0627C44.4116 13.4506 46.0758 16.6947 46.952 20.7208C47.4444 22.9831 47.3931 25.0577 46.7989 26.8876C46.6337 27.3962 46.9112 27.9426 47.4193 28.1081C47.5185 28.1404 47.6192 28.156 47.7184 28.156C48.1257 28.156 48.5049 27.8957 48.6373 27.4865C49.3393 25.3256 49.4078 22.9105 48.8413 20.3076C48.3594 18.0937 47.6549 16.0898 46.734 14.3033C47.3155 14.6559 47.9792 14.8426 48.667 14.8426C48.7531 14.8426 48.8398 14.8396 48.9264 14.834C49.9274 14.7659 50.8418 14.3113 51.502 13.554C52.1621 12.7967 52.4879 11.8275 52.4204 10.824C52.3525 9.82105 51.8988 8.90483 51.143 8.2434L48.8957 6.27726C47.1106 4.71626 44.824 3.79802 42.4569 3.69157C40.2907 3.59268 38.1269 4.18449 36.3056 5.35701C34.1898 4.67136 31.8649 4.32626 29.3452 4.32626C26.8305 4.32626 24.5087 4.67539 22.3918 5.36104C20.5685 4.1855 18.4018 3.59318 16.2335 3.69157C13.8664 3.79802 11.5798 4.71626 9.79526 6.27776L7.54796 8.2439C5.98749 9.60864 5.82636 11.991 7.18894 13.5545C7.93065 14.4052 8.97298 14.8411 10.0208 14.8411C10.6936 14.8406 11.3688 14.6605 11.9675 14.2957C11.5063 15.1902 11.0984 16.1397 10.7449 17.1432L9.85417 16.3945C8.23026 15.0293 5.80068 15.2422 4.43759 16.8693L0.89972 21.0937C0.239579 21.8822 -0.0746304 22.8807 0.0149998 23.9059C0.104126 24.9306 0.587021 25.8594 1.37355 26.5208L4.99854 29.5687C4.99854 29.5687 4.99904 29.5692 4.99954 29.5697C4.99954 29.5697 5.00005 29.5697 5.00055 29.5702L5.98648 30.3991C5.8042 30.7821 5.68285 31.1958 5.63199 31.6297C4.97839 37.1981 7.73276 39.8696 9.44177 40.9694C9.44631 40.972 9.45084 40.9755 9.45537 40.978C10.964 41.9452 12.8412 42.4593 14.886 42.4684C15.1751 43.2711 15.5422 44.0415 15.9792 44.7725C14.4006 45.6368 13.3447 45.3376 12.0894 44.824C10.402 44.1333 8.46893 44.9471 7.77959 46.6378C7.09075 48.3284 7.90296 50.2658 9.59032 50.956C11.2178 51.622 12.7178 51.9454 14.1766 51.9454C16.3398 51.9454 18.4335 51.2098 20.5519 49.7058C20.6833 51.4913 20.6964 53.1764 20.5957 55.0724C20.5675 55.6067 20.9769 56.0628 21.5101 56.0911C21.5272 56.0921 21.5449 56.0926 21.562 56.0926C22.0726 56.0926 22.4991 55.692 22.5268 55.1754C22.6129 53.5478 22.6179 52.0685 22.5414 50.5564C23.775 51.1215 25.1034 51.5372 26.4992 51.7794C26.5334 53.516 26.469 55.2667 26.2927 57.4644C26.2117 58.476 25.3567 59.2681 24.3461 59.2681C24.2922 59.2681 24.2398 59.2661 24.1864 59.2615C23.7066 59.2232 23.2594 59.0098 22.9281 58.6616C22.5595 58.2747 21.9477 58.2605 21.561 58.6293C21.1748 58.9987 21.1602 59.6117 21.5288 59.9986C22.1889 60.6918 23.0771 61.1156 24.0324 61.1928C24.1371 61.2009 24.2423 61.2054 24.3461 61.2054C26.3572 61.2054 28.0592 59.6303 28.2203 57.6193C28.393 55.4609 28.4615 53.7168 28.4368 51.9984C28.7374 52.0145 29.0401 52.0236 29.3452 52.0236C30.0517 52.0236 30.7596 51.9772 31.4586 51.8884C31.4888 53.4221 31.4304 54.9836 31.2692 56.9957C31.0975 59.1379 32.6973 61.0208 34.8368 61.1928C34.9415 61.2009 35.0468 61.2054 35.15 61.2054C36.997 61.2054 38.5821 59.8765 38.9533 58.1026C40.6648 59.4537 42.5803 60.486 44.6558 61.1721L48.0286 62.2872C48.4853 62.438 48.9465 62.5117 49.4002 62.5117C50.6238 62.5117 51.787 61.9754 52.6208 60.9789C52.9069 60.6374 53.1329 60.2675 53.2981 59.8806C54.2478 59.8589 55.4094 60.1036 56.5394 60.3432C56.9664 60.4335 57.408 60.5269 57.841 60.6071C59.2792 60.873 60.5284 61.0743 61.6755 61.0743C63.0758 61.0743 64.3236 60.7746 65.5749 59.926C66.017 59.6263 66.1328 59.0239 65.8337 58.5809ZM42.3708 5.62743C44.3019 5.71421 46.1675 6.46343 47.6242 7.73736L49.8715 9.70299C50.2381 10.0239 50.4581 10.4689 50.4914 10.9557C50.5241 11.4421 50.366 11.9128 50.0457 12.2801C49.7255 12.6479 49.2814 12.8684 48.796 12.9012C48.3105 12.935 47.8407 12.7755 47.4737 12.4547L45.2264 10.4885C44.6171 9.95576 43.889 9.58342 43.1054 9.39977C42.7671 9.07485 42.4181 8.76154 42.0541 8.46488C41.0072 7.61223 39.8727 6.88975 38.6547 6.29946C39.8239 5.80603 41.0973 5.57092 42.3708 5.62743ZM45.6664 38.2077C46.6 40.5219 46.5205 43.9855 44.5053 46.9027C44.5002 46.9107 44.4947 46.9183 44.4897 46.9264C44.0949 47.494 43.6286 48.0409 43.0803 48.554C42.7167 48.894 42.2429 49.0817 41.7454 49.0817C41.197 49.0817 40.6895 48.8607 40.3153 48.4596C39.9583 48.0772 39.7715 47.5782 39.7896 47.0545C39.8073 46.5313 40.0273 46.0465 40.4095 45.6888C40.7927 45.3301 41.2111 44.7993 41.5611 44.1636C41.5938 44.1136 41.6215 44.0617 41.6437 44.0082C42.2827 42.7761 42.6472 41.1859 42.0389 39.6763C41.8431 39.191 41.8476 38.6582 42.0515 38.1764C42.256 37.6946 42.6351 37.3212 43.1195 37.125C43.3587 37.0281 43.606 36.9822 43.8502 36.9822C44.6241 36.9822 45.3593 37.4458 45.6664 38.2077ZM38.1934 40.2207C38.8057 40.0108 39.41 39.7788 40.0057 39.526C40.0515 39.8232 40.131 40.1168 40.2458 40.4024C40.4473 40.9013 40.4493 41.4659 40.3289 42.0163L38.1934 40.2207ZM43.3174 33.9661C43.3643 34.3496 43.3159 34.7416 43.1734 35.1048C42.9116 35.1512 42.6513 35.2249 42.3949 35.3283C41.4911 35.6946 40.7715 36.3707 40.3511 37.2445C39.0922 37.8515 37.7805 38.3555 36.4391 38.746L34.1913 36.8555C37.8334 36.41 40.9125 35.4328 43.3174 33.9661ZM11.2173 12.4547C10.4599 13.1166 9.30632 13.0389 8.64517 12.2801C7.98453 11.5213 8.06207 10.3654 8.8194 9.70299L11.0672 7.73736C12.5234 6.46343 14.3891 5.71371 16.3201 5.62693C17.5966 5.57042 18.8726 5.80654 20.0433 6.30198C19.0554 6.78027 18.1208 7.34231 17.2441 7.99265C16.6595 8.42704 16.1061 8.89726 15.5819 9.40027C14.7999 9.58392 14.0728 9.95626 13.4646 10.4885L11.2173 12.4547ZM5.50208 27.4628L2.61629 25.037C2.22554 24.7081 1.98535 24.2464 1.94104 23.7369C1.89673 23.2273 2.05283 22.7308 2.38063 22.3393L5.9185 18.1149C6.59577 17.3057 7.80376 17.1997 8.61093 17.8788L10.6125 19.5619C10.614 19.5629 10.6155 19.5639 10.6165 19.5649L11.4962 20.3046L5.50208 27.4628ZM6.98299 28.708L12.9776 21.5497L16.1509 24.2177L12.0355 29.1323C11.4524 28.6262 10.7323 28.3064 9.94985 28.214C8.97852 28.099 8.01978 28.3482 7.23073 28.9158L6.98299 28.708ZM10.5068 39.3524C10.5032 39.3499 10.4987 39.3474 10.4952 39.3449C7.40244 37.3616 7.32388 33.8011 7.55249 31.8557C7.59731 31.4712 7.75139 31.1176 7.9941 30.828C7.9951 30.8265 7.99611 30.826 7.99661 30.8249C8.00014 30.8209 8.00266 30.8169 8.00568 30.8128C8.08826 30.716 8.18091 30.6267 8.28313 30.5459C8.69301 30.2215 9.20461 30.0772 9.72376 30.1378C10.2429 30.1988 10.7072 30.4592 11.0309 30.8698C11.3547 31.281 11.4992 31.7936 11.4383 32.3138C11.2223 34.1533 11.6151 35.4086 12.6045 36.0427C12.6085 36.0458 12.6131 36.0483 12.6176 36.0513C12.6992 36.1028 12.7888 36.1502 12.8815 36.1961L14.1594 37.2703C14.1398 37.5619 14.1287 37.8535 14.1287 38.1426C14.1287 38.9513 14.2058 39.7434 14.3518 40.5144C12.8935 40.4311 11.5743 40.0335 10.5068 39.3524ZM14.1766 50.008C12.9731 50.008 11.7122 49.7315 10.321 49.1624C9.62103 48.8759 9.28366 48.0716 9.56967 47.3704C9.85568 46.6686 10.6588 46.331 11.3582 46.6176C12.9429 47.2659 14.6872 47.7624 17.0946 46.3663C17.6822 47.0929 18.3454 47.7659 19.074 48.3749C17.4118 49.4838 15.8322 50.008 14.1766 50.008ZM29.3452 50.0862C22.3012 50.0862 16.521 45.1303 16.089 38.8928L29.4016 50.0852C29.383 50.0852 29.3638 50.0862 29.3452 50.0862ZM37.0972 57.4644C37.0161 58.4755 36.1606 59.2681 35.15 59.2681C35.0966 59.2681 35.0438 59.2655 34.9904 59.2615C33.9148 59.1747 33.1107 58.2277 33.1968 57.1506C33.3086 55.7505 33.3725 54.5588 33.3927 53.4408L37.1606 56.6087C37.141 56.8913 37.1199 57.1763 37.0972 57.4644ZM15.7914 36.1139C15.7909 36.1129 15.7899 36.1124 15.7889 36.1114L14.0416 34.6427C14.0391 34.6402 14.0366 34.6381 14.0341 34.6361L13.4525 34.1472C13.3291 33.8546 13.2652 33.3375 13.3583 32.5398C13.4288 31.941 13.3608 31.3471 13.167 30.7947L17.6324 25.4628L39.4815 43.8326C39.3536 44.0011 39.2211 44.15 39.0892 44.2731C37.5217 45.7402 37.4376 48.2114 38.9019 49.782C39.635 50.568 40.6713 51.0191 41.7454 51.0191C42.7343 51.0191 43.6775 50.6462 44.4 49.9697C44.7837 49.6104 45.1337 49.2376 45.4529 48.8532L45.6649 49.0312L39.6703 56.1895L15.7914 36.1139ZM41.2172 57.3569L47.0814 50.3546C48.0739 51.3939 48.9259 52.5554 49.6258 53.8237L45.0682 59.2655C43.7001 58.7948 42.4111 58.1556 41.2172 57.3569ZM51.1399 59.7337C50.651 60.3175 49.7361 60.8114 48.6343 60.4471L47.0436 59.9214L50.6132 55.6587L51.4063 57.137C51.9557 58.1611 51.6289 59.1495 51.1399 59.7337ZM39.5479 17.7002V19.1502C39.5479 19.685 39.981 20.1189 40.5147 20.1189C41.049 20.1189 41.4815 19.685 41.4815 19.1502V17.7002C41.4815 17.1649 41.049 16.7315 40.5147 16.7315C39.981 16.7315 39.5479 17.1649 39.5479 17.7002Z" fill="black"/>
</svg>
