<svg width="375" height="812" viewBox="0 0 375 812" fill="none" xmlns="http://www.w3.org/2000/svg">
<g clip-path="url(#clip0_163_10413)">
<path fill-rule="evenodd" clip-rule="evenodd" d="M-37.1499 304.472C-34.2424 303.553 -31.5363 296.917 -32.642 293.416C-33.609 290.355 -36.1968 288.579 -39.3038 288.845C-41.2438 289.011 -42.6267 289.755 -43.7489 291.239C-45.643 293.742 -45.4556 297.139 -43.2222 300.782C-41.3857 303.779 -39.186 305.115 -37.1499 304.472ZM-56.5281 306.114C-55.6092 305.762 -54.0589 304.035 -53.3311 302.553C-51.7998 299.434 -51.5515 295.911 -52.7138 293.79C-54.9376 289.731 -60.6501 289.318 -63.3892 293.019C-65.2006 295.466 -64.9415 299.041 -62.699 302.543C-60.7265 305.623 -58.5428 306.887 -56.5281 306.114ZM-25.1846 290.474C-24.2611 290.109 -22.7127 288.38 -21.9882 286.905C-20.458 283.789 -20.2142 280.292 -21.3775 278.143C-23.6756 273.897 -29.7588 273.702 -32.3621 277.791C-33.107 278.961 -33.3358 280.052 -33.1988 281.783C-33.0628 283.501 -32.5318 285.009 -31.4311 286.805C-29.5581 289.861 -27.1758 291.26 -25.1846 290.474ZM-70.4661 294.321C-69.4821 293.946 -67.6128 291.662 -66.9571 290.033C-65.7352 286.997 -65.6375 283.949 -66.7008 282.037C-69.0083 277.887 -74.7182 277.528 -77.473 281.36C-79.1811 283.736 -78.8762 287.344 -76.6765 290.787C-74.7023 293.877 -72.5355 295.11 -70.4661 294.321ZM-48.1623 282.806C-42.5384 281.526 -38.3389 277.159 -36.8629 271.057C-36.2355 268.463 -35.5442 267.17 -33.8184 265.359C-31.4563 262.882 -30.9838 262.236 -30.387 260.668C-29.9083 259.411 -29.8542 258.985 -29.9836 257.499C-30.1078 256.071 -30.2483 255.589 -30.8153 254.645C-32.2243 252.298 -34.3015 250.856 -37.3445 250.114C-38.7733 249.765 -39.4773 249.721 -41.2371 249.873C-43.9414 250.105 -45.0034 250.451 -47.4486 251.897C-50.9593 253.974 -53.1052 254.155 -57.0624 252.71C-59.7576 251.725 -60.902 251.552 -63.3679 251.754C-66.6232 252.021 -69.4778 253.345 -71.283 255.424C-74.5108 259.141 -74.0521 263.722 -70.1474 266.766C-65.7918 270.162 -65.5945 270.384 -64.2375 273.396C-63.0581 276.014 -61.6645 277.879 -59.6023 279.597C-57.7031 281.179 -55.2996 282.343 -53.0344 282.776C-51.7306 283.025 -49.1942 283.041 -48.1623 282.806ZM10.1631 245.065C11.2808 244.638 13.0163 242.407 13.7407 240.465C15.606 235.466 14.4521 231.409 10.7264 229.867C9.64455 229.419 7.18054 229.421 5.94467 229.871C4.18744 230.51 2.44657 232.573 2.10601 234.418C1.37325 238.388 4.90863 244.638 8.24038 245.262C9.14966 245.433 9.21658 245.426 10.1631 245.065ZM-9.38868 246.735C-8.26342 246.306 -6.53833 244.079 -5.77394 242.07C-4.6153 239.024 -4.62952 236.008 -5.81204 234.088C-6.39652 233.14 -7.77603 231.971 -8.82535 231.537C-9.9072 231.089 -12.3712 231.092 -13.6071 231.541C-15.3643 232.181 -17.1052 234.243 -17.4457 236.088C-18.1741 240.034 -14.6301 246.311 -11.3241 246.931C-10.4014 247.104 -10.3364 247.097 -9.38868 246.735ZM22.0957 231.019C25.5157 229.171 27.543 222.216 25.6769 218.734C24.9652 217.406 23.2419 216.052 21.8121 215.698C20.4921 215.371 18.6246 215.531 17.3792 216.077C16.0335 216.667 14.5613 218.295 14.0879 219.717C12.8311 223.491 16.0533 230.045 19.7475 231.229C20.6532 231.519 21.2724 231.464 22.0957 231.019ZM-22.9989 234.723C-19.682 232.715 -17.7974 225.994 -19.621 222.677C-20.2982 221.445 -21.5825 220.274 -22.8167 219.763C-24.0965 219.233 -26.462 219.312 -27.9074 219.933C-29.4206 220.582 -30.9363 222.371 -31.3174 223.957C-32.4302 228.589 -28.0239 235.594 -24.1963 235.279C-24.019 235.265 -23.48 235.014 -22.9989 234.723ZM-0.154532 223.166C1.46205 222.669 3.37215 221.597 4.96906 220.291C7.53007 218.197 9.36321 215.042 10.2926 211.126C10.7815 209.067 11.4579 207.898 13.2451 206.023C15.5969 203.555 16.0982 202.88 16.6437 201.445C17.331 199.636 17.3621 198.112 16.7463 196.424C15.2921 192.439 10.8356 190.082 5.63675 190.549C3.26263 190.762 1.79209 191.275 -0.879429 192.82C-2.90586 193.992 -2.97912 194.016 -5.09019 194.197C-7.23282 194.382 -7.24533 194.38 -9.71753 193.468C-12.6794 192.375 -13.7486 192.199 -16.2098 192.402C-18.4827 192.588 -19.8712 193.017 -21.7616 194.117C-25.9371 196.546 -27.4886 201.095 -25.4042 204.797C-24.6426 206.15 -23.7299 207.079 -21.9398 208.326C-19.2599 210.193 -18.4446 211.132 -17.2593 213.72C-15.0827 218.473 -12.1553 221.4 -8.08272 222.895C-5.42696 223.871 -2.74156 223.963 -0.154532 223.166Z" fill="#696A69" fill-opacity="0.05"/>
<path fill-rule="evenodd" clip-rule="evenodd" d="M-35.5768 415.288C-32.5291 415.381 -27.7827 410.011 -27.6701 406.342C-27.5717 403.133 -29.4277 400.602 -32.448 399.826C-34.3338 399.342 -35.8851 399.588 -37.4344 400.618C-40.0491 402.355 -40.9941 405.623 -40.0896 409.8C-39.3459 413.234 -37.7111 415.222 -35.5768 415.288ZM-54.4099 410.437C-53.4261 410.408 -51.3924 409.29 -50.2159 408.131C-47.7403 405.694 -46.3424 402.451 -46.7387 400.065C-47.4969 395.498 -52.7523 393.221 -56.5601 395.81C-59.0782 397.522 -60.0144 400.981 -59.0546 405.027C-58.2103 408.587 -56.5667 410.501 -54.4099 410.437ZM-19.6593 406.028C-18.6672 405.989 -16.6347 404.868 -15.4635 403.715C-12.9898 401.279 -11.6047 398.059 -11.9929 395.647C-12.7593 390.88 -18.4367 388.686 -22.2445 391.686C-23.3341 392.544 -23.9107 393.499 -24.3529 395.178C-24.7922 396.844 -24.7891 398.443 -24.3434 400.502C-23.5849 404.005 -21.7985 406.112 -19.6593 406.028ZM-63.6701 394.702C-62.6173 394.673 -60.0984 393.134 -58.9414 391.813C-56.7855 389.352 -55.6864 386.507 -56.0583 384.351C-56.8655 379.672 -62.1363 377.447 -66.0023 380.154C-68.3993 381.832 -69.3034 385.338 -68.3644 389.315C-67.5217 392.883 -65.8838 394.763 -63.6701 394.702ZM-38.8144 391.2C-33.0834 391.85 -27.6773 389.116 -24.2685 383.843C-22.8194 381.602 -21.7397 380.61 -19.5128 379.471C-16.465 377.913 -15.8058 377.46 -14.7244 376.177C-13.8574 375.148 -13.6657 374.764 -13.2967 373.318C-12.9423 371.93 -12.9158 371.429 -13.139 370.35C-13.6938 367.669 -15.1782 365.623 -17.805 363.916C-19.0384 363.115 -19.6885 362.841 -21.3995 362.403C-24.0288 361.729 -25.1456 361.705 -27.9312 362.262C-31.9306 363.062 -34.0159 362.525 -37.2736 359.853C-39.4924 358.034 -40.5152 357.492 -42.9096 356.869C-46.0705 356.046 -49.2019 356.352 -51.5925 357.718C-55.8671 360.16 -56.9473 364.636 -54.2674 368.799C-51.278 373.443 -51.1649 373.717 -50.8791 377.009C-50.6308 379.87 -49.9313 382.09 -48.5524 384.393C-47.2825 386.514 -45.3982 388.406 -43.4031 389.563C-42.2548 390.228 -39.866 391.081 -38.8144 391.2ZM28.7037 374.843C29.8997 374.81 32.2748 373.277 33.6 371.683C37.0118 367.581 37.2627 363.371 34.2556 360.684C33.3824 359.904 31.056 359.093 29.7409 359.109C27.871 359.132 25.5466 360.504 24.6157 362.133C22.6128 365.638 23.8852 372.705 26.8236 374.395C27.6254 374.856 27.6909 374.872 28.7037 374.843ZM9.69757 369.962C10.9016 369.928 13.2654 368.396 14.6504 366.753C16.7501 364.261 17.7329 361.409 17.2509 359.206C17.0127 358.118 16.0964 356.56 15.2495 355.803C14.3763 355.023 12.0498 354.211 10.7348 354.227C8.86487 354.251 6.54052 355.622 5.60962 357.251C3.61882 360.735 4.89055 367.83 7.80616 369.507C8.6199 369.975 8.68346 369.991 9.69757 369.962ZM44.6061 365.528C48.4447 364.913 52.6554 359.018 52.0443 355.115C51.8112 353.627 50.6319 351.779 49.3992 350.973C48.2613 350.228 46.4459 349.762 45.09 349.866C43.6249 349.978 41.6976 351.029 40.781 352.215C38.3482 355.362 39.2246 362.612 42.3204 364.95C43.0793 365.523 43.6821 365.675 44.6061 365.528ZM0.819048 354.128C4.61314 353.329 8.61193 347.607 7.98659 343.874C7.75422 342.488 6.92881 340.958 5.93268 340.068C4.89979 339.145 2.64103 338.438 1.07166 338.547C-0.571108 338.66 -2.59278 339.848 -3.47634 341.219C-6.05642 345.223 -4.21153 353.291 -0.494818 354.258C-0.322615 354.303 0.268749 354.244 0.819048 354.128ZM26.1987 350.766C27.8889 350.83 30.0459 350.449 31.9843 349.745C35.0932 348.614 37.8658 346.241 40.0363 342.853C41.178 341.071 42.2027 340.191 44.5089 339.011C47.5437 337.459 48.2399 336.987 49.229 335.812C50.4753 334.332 51.0078 332.904 50.9841 331.108C50.9279 326.866 47.5001 323.169 42.4388 321.893C40.1276 321.31 38.5703 321.308 35.5384 321.884C33.2385 322.32 33.1615 322.319 31.109 321.793C29.0257 321.259 29.0145 321.253 26.9823 319.576C24.5477 317.566 23.5966 317.047 21.2067 316.425C18.9997 315.85 17.5474 315.797 15.3999 316.21C10.6564 317.124 7.68923 320.905 8.43398 325.087C8.706 326.616 9.26038 327.795 10.5381 329.563C12.4511 332.21 12.9103 333.366 13.1741 336.2C13.6587 341.405 15.455 345.135 18.8049 347.892C20.9893 349.69 23.4938 350.663 26.1987 350.766Z" fill="#696A69" fill-opacity="0.05"/>
<path fill-rule="evenodd" clip-rule="evenodd" d="M-16.4179 547.961C-13.4096 547.463 -9.79003 541.278 -10.3884 537.656C-10.9118 534.488 -13.2217 532.364 -16.335 532.186C-18.2788 532.075 -19.7533 532.616 -21.0745 533.926C-23.3043 536.136 -23.6003 539.524 -21.9059 543.448C-20.5126 546.674 -18.5247 548.309 -16.4179 547.961ZM-35.8333 546.84C-34.8737 546.621 -33.0942 545.131 -32.1637 543.767C-30.2057 540.897 -29.4606 537.445 -30.3105 535.181C-31.9365 530.847 -37.5327 529.628 -40.7687 532.904C-42.9087 535.069 -43.159 538.645 -41.4355 542.429C-39.9196 545.758 -37.9371 547.319 -35.8333 546.84ZM-2.5892 535.8C-1.62335 535.57 0.154459 534.078 1.08076 532.72C3.0373 529.852 3.77431 526.426 2.92732 524.133C1.25437 519.604 -4.73977 518.549 -7.89639 522.228C-8.79966 523.28 -9.18086 524.328 -9.29051 526.061C-9.39946 527.781 -9.08763 529.349 -8.25258 531.283C-6.83163 534.573 -4.67176 536.296 -2.5892 535.8ZM-47.9589 533.19C-46.9316 532.958 -44.7574 530.962 -43.8773 529.442C-42.2376 526.611 -41.7087 523.607 -42.4902 521.563C-44.1862 517.128 -49.7875 515.963 -53.0577 519.366C-55.0853 521.476 -55.295 525.091 -53.6055 528.811C-52.0892 532.15 -50.1191 533.677 -47.9589 533.19ZM-24.2479 524.952C-18.4994 524.483 -13.7233 520.755 -11.3973 514.924C-10.4085 512.445 -9.5408 511.263 -7.5758 509.715C-4.88645 507.598 -4.32723 507.026 -3.5141 505.558C-2.86207 504.381 -2.74819 503.968 -2.66553 502.477C-2.58606 501.047 -2.65685 500.55 -3.08426 499.535C-4.14638 497.012 -5.99832 495.29 -8.90526 494.124C-10.2701 493.576 -10.9609 493.433 -12.7244 493.333C-15.4343 493.18 -16.5347 493.372 -19.1602 494.457C-22.9297 496.015 -25.0796 495.89 -28.792 493.898C-31.3205 492.542 -32.4287 492.208 -34.8984 492.059C-38.1588 491.862 -41.172 492.767 -43.2537 494.569C-46.9759 497.791 -47.1712 502.391 -43.7375 505.958C-39.9072 509.938 -39.7433 510.185 -38.827 513.359C-38.0306 516.118 -36.9154 518.161 -35.1176 520.154C-33.4618 521.99 -31.2476 523.482 -29.0665 524.232C-27.8112 524.663 -25.3027 525.038 -24.2479 524.952ZM38.8383 495.86C40.0052 495.596 42.0395 493.633 43.0319 491.814C45.5869 487.129 45.0197 482.95 41.5503 480.895C40.5428 480.299 38.1034 479.951 36.8162 480.221C34.9861 480.606 32.9705 482.4 32.3718 484.178C31.0837 488.004 33.6974 494.692 36.907 495.783C37.7829 496.081 37.8501 496.084 38.8383 495.86ZM19.2472 494.742C20.422 494.476 22.4453 492.517 23.4867 490.636C25.0654 487.786 25.4788 484.798 24.5804 482.73C24.1363 481.708 22.9363 480.356 21.9591 479.777C20.9517 479.181 18.5123 478.834 17.2251 479.104C15.395 479.488 13.3793 481.282 12.7807 483.061C11.5004 486.863 14.1188 493.579 17.3036 494.661C18.1924 494.963 18.2577 494.966 19.2472 494.742ZM52.6414 483.647C56.2889 482.303 59.2815 475.706 57.9279 471.994C57.4116 470.579 55.8977 468.994 54.5324 468.441C53.2721 467.93 51.4008 467.823 50.0906 468.187C48.6748 468.581 46.9868 469.984 46.3165 471.324C44.5375 474.882 46.7981 481.827 50.2872 483.522C51.1425 483.938 51.7634 483.971 52.6414 483.647ZM7.47707 480.922C11.0452 479.404 13.8634 473.019 12.5285 469.476C12.0327 468.161 10.9274 466.819 9.77805 466.139C8.58633 465.433 6.23356 465.176 4.7147 465.585C3.12477 466.014 1.37071 467.57 0.768654 469.086C-0.989355 473.512 2.37941 481.072 6.21298 481.303C6.39056 481.314 6.95954 481.142 7.47707 480.922ZM31.729 472.72C33.3998 472.457 35.4426 471.666 37.2084 470.6C40.0403 468.891 42.3023 466.027 43.7773 462.283C44.5531 460.313 45.3884 459.252 47.4234 457.649C50.1012 455.54 50.6932 454.943 51.4366 453.599C52.3734 451.905 52.6201 450.402 52.2498 448.644C51.3752 444.493 47.2978 441.528 42.0853 441.253C39.7049 441.128 38.1766 441.427 35.313 442.577C33.1409 443.45 33.065 443.464 30.9495 443.344C28.8024 443.223 28.7903 443.219 26.4723 441.966C23.6953 440.464 22.6618 440.139 20.1968 439.99C17.9203 439.853 16.485 440.081 14.4578 440.901C9.98021 442.714 7.79948 446.997 9.33817 450.957C9.90033 452.404 10.672 453.454 12.2673 454.942C14.6556 457.169 15.3294 458.215 16.1359 460.945C17.6168 465.958 20.0998 469.27 23.9192 471.328C26.4099 472.67 29.0552 473.142 31.729 472.72Z" fill="#696A69" fill-opacity="0.05"/>
<path fill-rule="evenodd" clip-rule="evenodd" d="M-0.417923 697.961C2.59043 697.463 6.20997 691.278 5.61163 687.656C5.08823 684.488 2.7783 682.364 -0.334967 682.186C-2.2788 682.075 -3.75333 682.616 -5.07452 683.926C-7.30432 686.136 -7.60026 689.524 -5.90592 693.448C-4.51264 696.674 -2.52466 698.309 -0.417923 697.961ZM-19.8333 696.84C-18.8737 696.621 -17.0942 695.131 -16.1637 693.767C-14.2057 690.897 -13.4606 687.445 -14.3105 685.181C-15.9365 680.847 -21.5327 679.628 -24.7687 682.904C-26.9087 685.069 -27.159 688.645 -25.4355 692.429C-23.9196 695.758 -21.9371 697.319 -19.8333 696.84ZM13.4108 685.8C14.3766 685.57 16.1545 684.078 17.0808 682.72C19.0373 679.852 19.7743 676.426 18.9273 674.133C17.2544 669.604 11.2602 668.549 8.10361 672.228C7.20034 673.28 6.81914 674.328 6.70949 676.061C6.60054 677.781 6.91237 679.349 7.74742 681.283C9.16837 684.573 11.3282 686.296 13.4108 685.8ZM-31.9589 683.19C-30.9316 682.958 -28.7574 680.962 -27.8773 679.442C-26.2376 676.611 -25.7087 673.607 -26.4902 671.563C-28.1862 667.128 -33.7875 665.963 -37.0577 669.366C-39.0853 671.476 -39.295 675.091 -37.6055 678.811C-36.0892 682.15 -34.1191 683.677 -31.9589 683.19ZM-8.24792 674.952C-2.49938 674.483 2.27666 670.755 4.60274 664.924C5.59151 662.445 6.4592 661.263 8.4242 659.715C11.1135 657.598 11.6728 657.026 12.4859 655.558C13.1379 654.381 13.2518 653.968 13.3345 652.477C13.4139 651.047 13.3431 650.55 12.9157 649.535C11.8536 647.012 10.0017 645.29 7.09474 644.124C5.72986 643.576 5.03908 643.433 3.27561 643.333C0.565702 643.18 -0.53471 643.372 -3.16016 644.457C-6.92968 646.015 -9.07964 645.89 -12.792 643.898C-15.3205 642.542 -16.4287 642.208 -18.8984 642.059C-22.1588 641.862 -25.172 642.767 -27.2537 644.569C-30.9759 647.791 -31.1712 652.391 -27.7375 655.958C-23.9072 659.938 -23.7433 660.185 -22.827 663.359C-22.0306 666.118 -20.9154 668.161 -19.1176 670.154C-17.4618 671.99 -15.2476 673.482 -13.0665 674.232C-11.8112 674.663 -9.30275 675.038 -8.24792 674.952ZM54.8383 645.86C56.0052 645.596 58.0395 643.633 59.0319 641.814C61.5869 637.129 61.0197 632.95 57.5503 630.895C56.5428 630.299 54.1034 629.951 52.8162 630.221C50.9861 630.606 48.9705 632.4 48.3718 634.178C47.0837 638.004 49.6974 644.692 52.907 645.783C53.7829 646.081 53.8501 646.084 54.8383 645.86ZM35.2472 644.742C36.422 644.476 38.4453 642.517 39.4867 640.636C41.0654 637.786 41.4788 634.798 40.5804 632.73C40.1363 631.708 38.9363 630.356 37.9591 629.777C36.9517 629.181 34.5123 628.834 33.2251 629.104C31.395 629.488 29.3793 631.282 28.7807 633.061C27.5004 636.863 30.1188 643.579 33.3036 644.661C34.1924 644.963 34.2577 644.966 35.2472 644.742ZM68.6414 633.647C72.2889 632.303 75.2815 625.706 73.9279 621.994C73.4116 620.579 71.8977 618.994 70.5324 618.441C69.2721 617.93 67.4008 617.823 66.0906 618.187C64.6748 618.581 62.9868 619.984 62.3165 621.324C60.5375 624.882 62.7981 631.827 66.2872 633.522C67.1425 633.938 67.7634 633.971 68.6414 633.647ZM23.4771 630.922C27.0452 629.404 29.8634 623.019 28.5285 619.476C28.0327 618.161 26.9274 616.819 25.7781 616.139C24.5863 615.433 22.2336 615.176 20.7147 615.585C19.1248 616.014 17.3707 617.57 16.7687 619.086C15.0106 623.512 18.3794 631.072 22.213 631.303C22.3906 631.314 22.9595 631.142 23.4771 630.922ZM47.729 622.72C49.3998 622.457 51.4426 621.666 53.2084 620.6C56.0403 618.891 58.3023 616.027 59.7773 612.283C60.5531 610.313 61.3884 609.252 63.4234 607.649C66.1012 605.54 66.6932 604.943 67.4366 603.599C68.3734 601.905 68.6201 600.402 68.2498 598.644C67.3752 594.493 63.2978 591.528 58.0853 591.253C55.7049 591.128 54.1766 591.427 51.313 592.577C49.1409 593.45 49.065 593.464 46.9495 593.344C44.8024 593.223 44.7903 593.219 42.4723 591.966C39.6953 590.464 38.6618 590.139 36.1968 589.99C33.9203 589.853 32.485 590.081 30.4578 590.901C25.9802 592.714 23.7995 596.997 25.3382 600.957C25.9003 602.404 26.672 603.454 28.2673 604.942C30.6556 607.169 31.3294 608.215 32.1359 610.945C33.6168 615.958 36.0998 619.27 39.9192 621.328C42.4099 622.67 45.0552 623.142 47.729 622.72Z" fill="#696A69" fill-opacity="0.05"/>
<path fill-rule="evenodd" clip-rule="evenodd" d="M78.248 811.099C80.8781 809.557 82.0387 802.484 80.1814 799.318C78.5571 796.549 75.6389 795.394 72.6689 796.344C70.8146 796.938 69.6322 797.971 68.8684 799.668C67.5793 802.53 68.5182 805.8 71.5067 808.854C73.9643 811.367 76.4063 812.18 78.248 811.099ZM59.7219 817.015C60.5393 816.467 61.6662 814.438 62.0457 812.831C62.8443 809.45 62.3021 805.96 60.6966 804.151C57.6247 800.688 51.9637 801.558 50.1174 805.776C48.8963 808.565 49.9448 811.992 52.9107 814.907C55.5196 817.471 57.9299 818.217 59.7219 817.015ZM86.7964 794.789C87.6155 794.227 88.7402 792.197 89.118 790.598C89.9161 787.219 89.3752 783.756 87.7626 781.92C84.5768 778.292 78.6028 779.456 76.9753 784.022C76.5096 785.328 76.5296 786.444 77.0485 788.1C77.5637 789.745 78.417 791.097 79.89 792.603C82.3963 795.165 85.0302 795.998 86.7964 794.789ZM43.5081 808.621C44.3839 808.036 45.6977 805.393 45.9742 803.659C46.4897 800.428 45.9063 797.434 44.4439 795.807C41.2703 792.275 35.6238 793.196 33.7913 797.545C32.6551 800.242 33.7557 803.691 36.6668 806.558C39.2794 809.131 41.6663 809.851 43.5081 808.621ZM62.6883 792.429C67.8861 789.929 71.008 784.737 71.0883 778.459C71.1223 775.791 71.5084 774.376 72.7879 772.227C74.539 769.286 74.8559 768.551 75.0887 766.89C75.2754 765.557 75.2334 765.13 74.7761 763.71C74.3373 762.345 74.0931 761.907 73.3301 761.113C71.4339 759.138 69.0878 758.195 65.9558 758.149C64.4852 758.127 63.7891 758.241 62.1073 758.78C59.5227 759.609 58.5644 760.183 56.5025 762.137C53.5422 764.943 51.4905 765.598 47.3108 765.07C44.4641 764.71 43.3098 764.796 40.9509 765.542C37.8367 766.527 35.3485 768.453 34.0514 770.882C31.7323 775.224 33.1994 779.588 37.6839 781.687C42.6863 784.028 42.9279 784.2 44.9215 786.834C46.6543 789.124 48.4281 790.632 50.821 791.848C53.0249 792.968 55.627 793.567 57.9318 793.484C59.2584 793.437 61.7345 792.888 62.6883 792.429ZM111.147 742.649C112.141 741.984 113.337 739.423 113.611 737.368C114.316 732.079 112.288 728.382 108.312 727.707C107.158 727.512 104.756 728.062 103.652 728.776C102.081 729.791 100.843 732.189 100.922 734.064C101.091 738.097 105.929 743.403 109.316 743.27C110.241 743.234 110.305 743.212 111.147 742.649ZM92.4578 748.631C93.4592 747.962 94.6452 745.407 94.9431 743.278C95.3946 740.051 94.7092 737.114 93.129 735.505C92.3479 734.71 90.7429 733.879 89.6232 733.689C88.4689 733.493 86.0672 734.044 84.9624 734.758C83.3918 735.773 82.1537 738.171 82.2325 740.045C82.401 744.054 87.2534 749.384 90.6145 749.253C91.5525 749.216 91.6144 749.195 92.4578 748.631ZM119.653 726.299C122.575 723.736 123.004 716.505 120.409 713.525C119.419 712.389 117.438 711.453 115.965 711.426C114.606 711.401 112.82 711.973 111.728 712.782C110.547 713.657 109.475 715.572 109.33 717.064C108.945 721.023 113.545 726.695 117.41 727.027C118.358 727.108 118.949 726.916 119.653 726.299ZM76.5148 739.951C79.3014 737.255 79.6422 730.283 77.1259 727.454C76.1914 726.404 74.6786 725.549 73.3616 725.325C71.996 725.094 69.7074 725.697 68.4364 726.624C67.1059 727.594 66.0266 729.676 66.0081 731.307C65.9544 736.07 71.8099 741.919 75.4713 740.76C75.6409 740.706 76.1106 740.342 76.5148 739.951ZM96.2127 723.598C97.6779 722.753 99.3014 721.282 100.568 719.654C102.598 717.043 103.683 713.558 103.717 709.534C103.735 707.418 104.134 706.127 105.459 703.901C107.203 700.972 107.541 700.202 107.753 698.681C108.02 696.765 107.712 695.273 106.735 693.764C104.43 690.203 99.561 688.897 94.5966 690.51C92.3296 691.246 91.01 692.073 88.7496 694.174C87.0349 695.768 86.9689 695.808 84.9512 696.455C82.9034 697.112 82.8908 697.112 80.2776 696.774C77.1468 696.368 76.0652 696.435 73.7109 697.18C71.5365 697.868 70.2784 698.595 68.6803 700.088C65.1505 703.386 64.6508 708.167 67.507 711.311C68.5507 712.46 69.6474 713.163 71.6702 713.981C74.6984 715.203 75.7023 715.938 77.4341 718.197C80.6142 722.346 84.1199 724.547 88.4232 725.099C91.2295 725.459 93.8679 724.95 96.2127 723.598Z" fill="#696A69" fill-opacity="0.05"/>
<path fill-rule="evenodd" clip-rule="evenodd" d="M260.944 856.378C261.691 853.422 257.468 847.631 253.909 846.732C250.796 845.945 247.925 847.213 246.518 849.996C245.639 851.733 245.546 853.301 246.218 855.036C247.352 857.963 250.34 859.589 254.613 859.604C258.128 859.617 260.421 858.448 260.944 856.378ZM252.155 873.726C252.338 872.759 251.684 870.533 250.806 869.134C248.958 866.192 246.092 864.13 243.676 864.003C239.053 863.761 235.699 868.404 237.408 872.679C238.538 875.507 241.715 877.165 245.873 877.098C249.531 877.04 251.754 875.846 252.155 873.726ZM255.325 838.841C255.5 837.864 254.844 835.638 253.969 834.246C252.123 831.306 249.276 829.261 246.836 829.121C242.016 828.844 238.653 833.916 240.763 838.28C241.367 839.529 242.175 840.297 243.719 841.09C245.253 841.878 246.815 842.219 248.921 842.226C252.505 842.239 254.947 840.948 255.325 838.841ZM234.796 879.385C234.994 878.35 234.034 875.559 232.992 874.145C231.053 871.51 228.511 869.825 226.325 869.724C221.582 869.506 218.275 874.174 220.087 878.532C221.21 881.234 224.44 882.872 228.525 882.81C232.192 882.755 234.38 881.56 234.796 879.385ZM236.724 854.358C238.591 848.9 237.084 843.033 232.669 838.569C230.792 836.672 230.055 835.404 229.422 832.985C228.556 829.673 228.255 828.932 227.235 827.6C226.417 826.532 226.083 826.262 224.75 825.59C223.471 824.946 222.987 824.812 221.886 824.798C219.148 824.763 216.83 825.772 214.599 827.97C213.551 829.002 213.144 829.578 212.348 831.155C211.124 833.578 210.86 834.663 210.805 837.504C210.726 841.581 209.752 843.502 206.443 846.109C204.188 847.884 203.439 848.767 202.315 850.971C200.831 853.881 200.457 857.005 201.277 859.633C202.742 864.333 206.88 866.351 211.523 864.629C216.701 862.709 216.993 862.658 220.269 863.087C223.117 863.46 225.435 863.254 227.981 862.403C230.325 861.619 232.578 860.186 234.137 858.486C235.035 857.508 236.381 855.359 236.724 854.358ZM235.276 784.901C235.5 783.726 234.514 781.077 233.243 779.44C229.971 775.226 225.913 774.075 222.643 776.434C221.693 777.118 220.4 779.216 220.133 780.504C219.753 782.335 220.592 784.9 221.983 786.159C224.975 788.869 232.15 789.147 234.433 786.641C235.056 785.957 235.086 785.897 235.276 784.901ZM226.419 802.412C226.645 801.229 225.658 798.591 224.351 796.885C222.369 794.298 219.796 792.725 217.541 792.722C216.426 792.72 214.708 793.28 213.786 793.944C212.837 794.629 211.544 796.727 211.276 798.014C210.897 799.846 211.736 802.411 213.127 803.67C216.101 806.364 223.303 806.648 225.569 804.162C226.201 803.468 226.229 803.409 226.419 802.412ZM229.599 767.367C229.824 763.486 224.974 758.106 221.03 757.863C219.527 757.771 217.469 758.525 216.416 759.555C215.444 760.506 214.598 762.179 214.408 763.525C214.203 764.98 214.814 767.089 215.775 768.239C218.325 771.292 225.594 771.996 228.543 769.475C229.266 768.857 229.545 768.302 229.599 767.367ZM209.047 807.677C209.082 803.799 204.355 798.663 200.574 798.471C199.17 798.4 197.499 798.877 196.416 799.658C195.292 800.468 194.116 802.522 193.884 804.078C193.641 805.706 194.367 807.936 195.515 809.094C198.87 812.475 207.146 812.409 208.891 808.988C208.971 808.829 209.042 808.239 209.047 807.677ZM211.223 782.168C211.649 780.531 211.742 778.343 211.47 776.298C211.035 773.019 209.314 769.801 206.472 766.952C204.977 765.454 204.338 764.264 203.682 761.758C202.82 758.46 202.509 757.679 201.574 756.46C200.396 754.924 199.117 754.097 197.357 753.734C193.203 752.876 188.855 755.428 186.52 760.096C185.453 762.228 185.116 763.749 185.026 766.833C184.958 769.173 184.94 769.248 183.985 771.14C183.015 773.059 183.007 773.069 180.932 774.693C178.445 776.638 177.734 777.455 176.612 779.655C175.576 781.687 175.211 783.094 175.153 785.28C175.025 790.109 178.079 793.82 182.324 793.992C183.875 794.056 185.146 793.768 187.147 792.9C190.144 791.602 191.371 791.402 194.196 791.754C199.383 792.4 203.412 791.449 206.825 788.77C209.051 787.024 210.541 784.787 211.223 782.168Z" fill="#696A69" fill-opacity="0.05"/>
<path fill-rule="evenodd" clip-rule="evenodd" d="M432.052 758.071C429.719 756.107 422.665 757.376 420.301 760.184C418.234 762.64 418.12 765.776 420.008 768.258C421.187 769.808 422.556 770.577 424.41 770.73C427.539 770.989 430.307 769.012 432.188 765.175C433.735 762.019 433.686 759.446 432.052 758.071ZM443.816 773.557C443.026 772.97 440.738 772.585 439.096 772.764C435.642 773.141 432.535 774.817 431.365 776.935C429.128 780.987 431.838 786.033 436.43 786.364C439.467 786.583 442.347 784.45 444.104 780.681C445.65 777.365 445.548 774.844 443.816 773.557ZM413.823 755.462C413.02 754.877 410.731 754.495 409.097 754.673C405.646 755.049 402.562 756.716 401.37 758.849C399.015 763.064 402.108 768.306 406.955 768.315C408.342 768.317 409.387 767.926 410.775 766.884C412.153 765.849 413.142 764.593 414.07 762.701C415.647 759.483 415.553 756.722 413.823 755.462ZM441.32 791.643C440.476 791.013 437.546 790.658 435.819 790.976C432.602 791.57 429.975 793.119 428.929 795.041C426.66 799.213 429.414 804.227 434.126 804.502C437.047 804.672 439.931 802.482 441.661 798.781C443.213 795.459 443.095 792.968 441.32 791.643ZM419.651 778.973C415.559 774.909 409.622 773.701 403.678 775.722C401.152 776.581 399.689 776.69 397.236 776.202C393.879 775.533 393.081 775.48 391.437 775.816C390.119 776.085 389.73 776.267 388.544 777.173C387.405 778.042 387.073 778.419 386.579 779.403C385.352 781.85 385.247 784.376 386.249 787.344C386.719 788.737 387.059 789.355 388.13 790.76C389.774 792.92 390.635 793.631 393.166 794.922C396.799 796.775 398.101 798.49 399 802.606C399.612 805.409 400.078 806.469 401.57 808.443C403.539 811.049 406.185 812.751 408.907 813.163C413.775 813.898 417.398 811.058 417.878 806.13C418.414 800.632 418.495 800.347 420.313 797.588C421.892 795.19 422.721 793.015 423.068 790.353C423.387 787.902 423.082 785.249 422.235 783.104C421.747 781.869 420.402 779.719 419.651 778.973ZM356.545 749.926C355.586 749.21 352.772 748.939 350.744 749.367C345.523 750.469 342.715 753.616 343.408 757.588C343.609 758.742 344.93 760.822 345.972 761.624C347.453 762.766 350.127 763.132 351.867 762.431C355.612 760.924 358.998 754.592 357.741 751.443C357.398 750.584 357.357 750.531 356.545 749.926ZM368.425 765.543C367.46 764.823 364.656 764.558 362.55 764.989C359.357 765.641 356.818 767.268 355.829 769.295C355.341 770.297 355.093 772.087 355.288 773.206C355.489 774.359 356.811 776.439 357.852 777.242C359.334 778.384 362.008 778.749 363.748 778.049C367.471 776.551 370.874 770.197 369.627 767.073C369.279 766.201 369.239 766.15 368.425 765.543ZM338.293 747.369C334.9 745.471 327.941 747.483 326 750.924C325.259 752.236 325.039 754.416 325.505 755.813C325.936 757.103 327.071 758.595 328.199 759.354C329.418 760.175 331.581 760.546 333.036 760.185C336.896 759.225 340.706 752.994 339.727 749.24C339.488 748.32 339.109 747.827 338.293 747.369ZM365.569 783.47C362.097 781.744 355.412 783.751 353.586 787.068C352.909 788.3 352.608 790.011 352.837 791.327C353.075 792.692 354.408 794.647 355.706 795.536C357.065 796.466 359.388 796.788 360.931 796.26C365.438 794.72 368.995 787.247 366.68 784.183C366.573 784.041 366.073 783.72 365.569 783.47ZM343.576 770.366C342.29 769.267 340.361 768.228 338.404 767.578C335.264 766.537 331.617 766.678 327.813 767.99C325.812 768.68 324.463 768.735 321.922 768.229C318.579 767.565 317.74 767.503 316.236 767.811C314.34 768.199 313.037 768.989 311.941 770.412C309.354 773.775 309.75 778.8 312.928 782.941C314.379 784.832 315.6 785.799 318.335 787.228C320.41 788.312 320.47 788.361 321.753 790.047C323.056 791.758 323.061 791.769 323.615 794.345C324.278 797.432 324.702 798.429 326.191 800.399C327.566 802.219 328.672 803.162 330.613 804.17C334.9 806.395 339.573 805.269 341.583 801.527C342.318 800.159 342.614 798.89 342.709 796.711C342.85 793.448 343.207 792.257 344.758 789.87C347.606 785.486 348.51 781.447 347.592 777.206C346.994 774.441 345.634 772.124 343.576 770.366Z" fill="#696A69" fill-opacity="0.05"/>
<path fill-rule="evenodd" clip-rule="evenodd" d="M486.73 637.597C484.029 636.182 477.414 638.94 475.71 642.192C474.221 645.036 474.785 648.123 477.163 650.14C478.648 651.399 480.151 651.855 481.995 651.605C485.106 651.184 487.383 648.657 488.393 644.505C489.224 641.09 488.621 638.588 486.73 637.597ZM501.554 650.185C500.656 649.782 498.339 649.899 496.774 650.428C493.483 651.54 490.809 653.846 490.123 656.166C488.811 660.605 492.545 664.948 497.101 664.282C500.114 663.842 502.467 661.139 503.37 657.08C504.165 653.509 503.522 651.069 501.554 650.185ZM468.366 638.976C467.457 638.578 465.139 638.698 463.582 639.224C460.293 640.335 457.641 642.627 456.936 644.967C455.544 649.59 459.694 654.043 464.429 653.007C465.784 652.711 466.72 652.104 467.851 650.787C468.974 649.479 469.669 648.04 470.167 645.993C471.014 642.511 470.328 639.835 468.366 638.976ZM503.013 668.384C502.053 667.951 499.115 668.235 497.498 668.918C494.483 670.191 492.252 672.27 491.645 674.372C490.328 678.934 494.098 683.238 498.758 682.491C501.647 682.027 503.992 679.268 504.884 675.281C505.684 671.702 505.031 669.296 503.013 668.384ZM479.124 660.68C474.252 657.593 468.194 657.692 462.825 660.946C460.543 662.33 459.138 662.751 456.638 662.803C453.215 662.873 452.424 662.993 450.891 663.675C449.662 664.222 449.322 664.484 448.359 665.624C447.433 666.718 447.191 667.157 446.921 668.225C446.249 670.879 446.691 673.368 448.309 676.05C449.068 677.31 449.534 677.84 450.881 678.981C452.952 680.736 453.947 681.245 456.696 681.96C460.643 682.987 462.284 684.381 464.048 688.207C465.25 690.813 465.934 691.747 467.815 693.353C470.299 695.474 473.25 696.566 475.997 696.381C480.909 696.051 483.835 692.496 483.243 687.581C482.582 682.097 482.599 681.801 483.78 678.715C484.806 676.033 485.146 673.73 484.911 671.057C484.695 668.594 483.826 666.069 482.536 664.157C481.794 663.057 480.017 661.247 479.124 660.68ZM411.241 645.91C410.15 645.418 407.344 645.76 405.456 646.615C400.595 648.815 398.531 652.493 400.063 656.223C400.508 657.306 402.246 659.052 403.436 659.612C405.129 660.408 407.819 660.189 409.368 659.13C412.7 656.852 414.642 649.938 412.736 647.135C412.216 646.369 412.164 646.327 411.241 645.91ZM426.207 658.601C425.109 658.106 422.314 658.452 420.35 659.326C417.373 660.651 415.243 662.787 414.715 664.979C414.454 666.062 414.598 667.864 415.029 668.914C415.474 669.997 417.213 671.744 418.403 672.303C420.095 673.099 422.785 672.88 424.334 671.821C427.646 669.557 429.6 662.619 427.71 659.836C427.182 659.06 427.132 659.019 426.207 658.601ZM392.867 647.346C389.145 646.223 382.783 649.687 381.628 653.465C381.188 654.906 381.442 657.083 382.199 658.347C382.897 659.513 384.327 660.726 385.592 661.224C386.959 661.763 389.152 661.659 390.494 660.993C394.057 659.224 396.435 652.319 394.671 648.864C394.238 648.017 393.762 647.617 392.867 647.346ZM427.28 676.723C423.517 675.785 417.422 679.186 416.354 682.818C415.957 684.166 416.032 685.903 416.539 687.138C417.066 688.42 418.789 690.042 420.248 690.63C421.775 691.245 424.113 691.059 425.507 690.212C429.576 687.737 431.44 679.673 428.518 677.18C428.383 677.064 427.826 676.859 427.28 676.723ZM402.98 668.664C401.487 667.868 399.381 667.269 397.329 667.056C394.039 666.716 390.508 667.64 387.076 669.74C385.27 670.845 383.964 671.189 381.374 671.243C377.966 671.314 377.134 671.434 375.731 672.059C373.964 672.847 372.861 673.899 372.098 675.525C370.296 679.366 371.765 684.188 375.761 687.547C377.586 689.081 378.986 689.763 381.965 690.569C384.225 691.18 384.293 691.215 385.91 692.585C387.551 693.974 387.558 693.985 388.654 696.381C389.967 699.252 390.596 700.135 392.474 701.738C394.208 703.219 395.492 703.901 397.604 704.467C402.27 705.717 406.591 703.61 407.747 699.523C408.17 698.029 408.186 696.726 407.809 694.578C407.244 691.361 407.336 690.121 408.336 687.456C410.173 682.562 410.186 678.422 408.376 674.479C407.196 671.907 405.368 669.938 402.98 668.664Z" fill="#696A69" fill-opacity="0.05"/>
<path fill-rule="evenodd" clip-rule="evenodd" d="M421.447 349.363C418.709 350.706 417.027 357.673 418.644 360.969C420.058 363.851 422.883 365.219 425.915 364.492C427.808 364.038 429.064 363.094 429.952 361.46C431.45 358.701 430.756 355.37 428.003 352.102C425.739 349.415 423.364 348.422 421.447 349.363ZM440.361 344.839C439.505 345.325 438.231 347.265 437.733 348.839C436.686 352.152 436.967 355.672 438.434 357.595C441.24 361.276 446.95 360.83 449.105 356.761C450.529 354.07 449.738 350.574 446.997 347.447C444.586 344.696 442.237 343.774 440.361 344.839ZM411.711 364.994C410.853 365.493 409.58 367.434 409.085 369.001C408.038 372.311 408.32 375.805 409.792 377.756C412.7 381.61 418.744 380.893 420.706 376.46C421.267 375.192 421.33 374.078 420.936 372.388C420.544 370.709 419.793 369.298 418.436 367.687C416.127 364.946 413.562 363.919 411.711 364.994ZM455.907 354.413C454.99 354.932 453.484 357.47 453.079 359.179C452.325 362.363 452.685 365.391 454.022 367.123C456.925 370.881 462.624 370.382 464.775 366.18C466.108 363.576 465.266 360.054 462.576 356.979C460.162 354.219 457.835 353.324 455.907 354.413ZM435.578 369.137C430.209 371.244 426.71 376.19 426.164 382.445C425.932 385.103 425.442 386.486 424.006 388.534C422.041 391.337 421.671 392.046 421.315 393.685C421.03 395 421.041 395.429 421.391 396.88C421.727 398.273 421.938 398.728 422.64 399.577C424.385 401.687 426.654 402.801 429.774 403.08C431.239 403.211 431.942 403.149 433.659 402.736C436.298 402.101 437.296 401.6 439.498 399.804C442.658 397.226 444.753 396.726 448.882 397.563C451.694 398.132 452.851 398.133 455.259 397.563C458.438 396.812 461.062 395.077 462.536 392.751C465.171 388.592 464.032 384.132 459.716 381.706C454.901 379 454.673 378.811 452.88 376.035C451.322 373.623 449.665 371.988 447.369 370.598C445.254 369.317 442.704 368.527 440.399 368.438C439.073 368.386 436.563 368.751 435.578 369.137ZM383.557 415.182C382.516 415.771 381.134 418.237 380.708 420.265C379.612 425.487 381.36 429.326 385.275 430.293C386.411 430.574 388.847 430.203 390.002 429.573C391.644 428.678 393.056 426.378 393.117 424.503C393.247 420.468 388.816 414.818 385.429 414.699C384.504 414.666 384.439 414.683 383.557 415.182ZM402.639 410.604C401.59 411.197 400.218 413.657 399.763 415.758C399.073 418.943 399.539 421.922 400.995 423.644C401.715 424.495 403.254 425.443 404.356 425.715C405.493 425.996 407.929 425.625 409.084 424.996C410.725 424.1 412.138 421.801 412.198 419.925C412.328 415.915 407.885 410.24 404.523 410.121C403.585 410.088 403.522 410.104 402.639 410.604ZM373.861 430.855C370.756 433.195 369.792 440.374 372.159 443.538C373.061 444.744 374.968 445.825 376.434 445.961C377.788 446.087 379.611 445.65 380.761 444.923C382.003 444.139 383.215 442.308 383.47 440.832C384.148 436.912 379.981 430.914 376.151 430.296C375.212 430.145 374.608 430.292 373.861 430.855ZM417.893 420.444C414.914 422.926 414.057 429.853 416.356 432.86C417.21 433.977 418.655 434.943 419.952 435.263C421.297 435.596 423.624 435.164 424.96 434.334C426.359 433.465 427.59 431.469 427.729 429.844C428.137 425.098 422.731 418.831 418.994 419.715C418.821 419.756 418.326 420.084 417.893 420.444ZM397.036 435.29C395.512 436.024 393.784 437.369 392.4 438.899C390.181 441.353 388.841 444.747 388.508 448.757C388.333 450.867 387.839 452.124 386.353 454.245C384.397 457.037 384.002 457.779 383.678 459.281C383.269 461.172 383.466 462.683 384.327 464.26C386.362 467.982 391.121 469.646 396.191 468.406C398.507 467.84 399.884 467.113 402.294 465.186C404.122 463.724 404.191 463.689 406.251 463.194C408.342 462.691 408.355 462.691 410.936 463.222C414.028 463.86 415.111 463.874 417.514 463.305C419.734 462.78 421.042 462.148 422.747 460.778C426.512 457.752 427.365 453.021 424.75 449.673C423.795 448.45 422.753 447.667 420.797 446.702C417.868 445.258 416.921 444.451 415.362 442.069C412.498 437.696 409.166 435.24 404.915 434.371C402.143 433.804 399.475 434.115 397.036 435.29Z" fill="#696A69" fill-opacity="0.05"/>
<path fill-rule="evenodd" clip-rule="evenodd" d="M320.814 242.711C318.512 244.709 318.666 251.875 321.072 254.647C323.177 257.072 326.257 257.672 329.002 256.194C330.717 255.271 331.69 254.038 332.13 252.23C332.873 249.18 331.351 246.138 327.853 243.682C324.977 241.663 322.427 241.311 320.814 242.711ZM337.943 233.501C337.24 234.19 336.504 236.39 336.425 238.04C336.26 241.51 337.432 244.841 339.342 246.326C342.996 249.167 348.402 247.275 349.444 242.79C350.134 239.825 348.475 236.648 345.025 234.326C341.991 232.283 339.485 231.991 337.943 233.501ZM315.399 260.311C314.697 261.013 313.963 263.215 313.885 264.857C313.719 268.324 314.885 271.63 316.807 273.14C320.604 276.122 326.263 273.883 327.027 269.096C327.245 267.727 327.021 266.634 326.207 265.101C325.4 263.578 324.313 262.405 322.589 261.195C319.656 259.135 316.914 258.799 315.399 260.311ZM355.42 238.782C354.667 239.518 353.859 242.357 353.905 244.112C353.99 247.383 355.112 250.219 356.848 251.551C360.615 254.442 365.997 252.502 367.002 247.89C367.625 245.031 365.911 241.842 362.524 239.557C359.484 237.506 357.006 237.236 355.42 238.782ZM339.531 258.214C334.88 261.624 332.762 267.3 333.833 273.486C334.289 276.116 334.168 277.578 333.304 279.925C332.121 283.137 331.944 283.917 332.02 285.593C332.081 286.937 332.2 287.349 332.91 288.662C333.591 289.923 333.912 290.309 334.807 290.95C337.033 292.544 339.512 293.041 342.6 292.513C344.05 292.265 344.713 292.025 346.267 291.187C348.656 289.898 349.493 289.159 351.162 286.86C353.558 283.559 355.456 282.54 359.661 282.293C362.526 282.125 363.645 281.829 365.827 280.663C368.708 279.124 370.801 276.775 371.631 274.15C373.116 269.456 370.874 265.435 366.081 264.193C360.734 262.808 360.465 262.684 358.022 260.459C355.899 258.525 353.88 257.368 351.304 256.611C348.933 255.914 346.265 255.802 344.014 256.305C342.719 256.595 340.385 257.589 339.531 258.214ZM301.013 316.029C300.157 316.865 299.452 319.603 299.559 321.672C299.834 327.001 302.506 330.265 306.537 330.199C307.708 330.18 309.968 329.199 310.924 328.295C312.282 327.009 313.059 324.425 312.639 322.597C311.733 318.663 306.005 314.333 302.699 315.084C301.797 315.288 301.738 315.322 301.013 316.029ZM318.29 306.725C317.428 307.566 316.731 310.295 316.828 312.443C316.975 315.698 318.187 318.46 320.035 319.751C320.949 320.39 322.679 320.913 323.814 320.895C324.985 320.876 327.245 319.894 328.2 318.99C329.559 317.705 330.336 315.12 329.915 313.292C329.015 309.382 323.269 305.031 319.988 305.776C319.073 305.984 319.016 306.016 318.29 306.725ZM295.647 333.661C293.243 336.716 294.147 343.904 297.244 346.357C298.425 347.293 300.544 347.85 301.997 347.607C303.338 347.382 304.988 346.494 305.914 345.497C306.914 344.421 307.618 342.342 307.487 340.849C307.14 336.886 301.579 332.153 297.718 332.535C296.772 332.628 296.226 332.926 295.647 333.661ZM335.554 312.337C333.308 315.498 334.25 322.415 337.242 324.734C338.353 325.595 339.997 326.159 341.333 326.137C342.718 326.115 344.857 325.102 345.937 323.958C347.067 322.761 347.747 320.516 347.466 318.91C346.646 314.218 339.818 309.541 336.431 311.351C336.274 311.435 335.879 311.879 335.554 312.337ZM319.185 332.023C317.9 333.122 316.573 334.865 315.627 336.697C314.109 339.636 313.681 343.261 314.385 347.223C314.755 349.307 314.599 350.649 313.704 353.079C312.527 356.278 312.335 357.097 312.405 358.631C312.494 360.565 313.07 361.975 314.306 363.279C317.225 366.358 322.251 366.749 326.836 364.254C328.93 363.115 330.075 362.06 331.913 359.58C333.306 357.699 333.364 357.648 335.229 356.643C337.122 355.622 337.134 355.619 339.765 355.473C342.917 355.298 343.968 355.035 346.146 353.871C348.158 352.796 349.261 351.85 350.559 350.09C353.425 346.201 353.04 341.41 349.656 338.842C348.419 337.903 347.213 337.413 345.074 336.98C341.873 336.333 340.752 335.795 338.635 333.891C334.749 330.395 330.899 328.873 326.568 329.12C323.743 329.28 321.243 330.263 319.185 332.023Z" fill="#696A69" fill-opacity="0.05"/>
<path fill-rule="evenodd" clip-rule="evenodd" d="M215.004 175.901C212.702 177.899 212.856 185.064 215.262 187.837C217.366 190.262 220.447 190.862 223.192 189.384C224.907 188.461 225.88 187.228 226.32 185.42C227.062 182.37 225.54 179.328 222.043 176.872C219.167 174.853 216.617 174.501 215.004 175.901ZM232.133 166.691C231.43 167.38 230.694 169.58 230.615 171.23C230.45 174.7 231.622 178.031 233.532 179.516C237.186 182.357 242.592 180.465 243.634 175.98C244.324 173.015 242.665 169.838 239.215 167.515C236.181 165.473 233.675 165.181 232.133 166.691ZM209.589 193.501C208.887 194.203 208.153 196.405 208.075 198.047C207.909 201.514 209.075 204.82 210.997 206.329C214.793 209.312 220.453 207.073 221.216 202.286C221.435 200.917 221.211 199.824 220.397 198.291C219.589 196.768 218.503 195.595 216.779 194.385C213.846 192.325 211.104 191.989 209.589 193.501ZM249.61 171.972C248.856 172.708 248.049 175.547 248.095 177.302C248.18 180.573 249.302 183.409 251.038 184.741C254.805 187.632 260.187 185.692 261.192 181.08C261.815 178.221 260.101 175.031 256.714 172.747C253.674 170.696 251.196 170.426 249.61 171.972ZM233.721 191.404C229.07 194.814 226.952 200.49 228.023 206.676C228.478 209.306 228.358 210.768 227.494 213.115C226.311 216.327 226.134 217.107 226.21 218.783C226.27 220.127 226.39 220.539 227.1 221.852C227.781 223.113 228.102 223.499 228.997 224.14C231.223 225.734 233.702 226.231 236.79 225.703C238.239 225.455 238.903 225.215 240.457 224.377C242.846 223.088 243.683 222.348 245.352 220.05C247.748 216.749 249.645 215.73 253.851 215.483C256.716 215.315 257.835 215.019 260.017 213.853C262.898 212.314 264.991 209.965 265.821 207.34C267.305 202.646 265.064 198.625 260.271 197.383C254.924 195.998 254.655 195.874 252.212 193.649C250.089 191.715 248.069 190.558 245.494 189.801C243.123 189.104 240.455 188.992 238.204 189.495C236.909 189.785 234.575 190.779 233.721 191.404ZM195.203 249.219C194.347 250.055 193.642 252.793 193.749 254.862C194.024 260.191 196.696 263.455 200.727 263.389C201.898 263.37 204.158 262.389 205.113 261.485C206.472 260.199 207.249 257.615 206.828 255.786C205.923 251.853 200.194 247.523 196.889 248.274C195.987 248.478 195.928 248.511 195.203 249.219ZM212.48 239.915C211.618 240.756 210.92 243.485 211.017 245.632C211.165 248.888 212.377 251.65 214.225 252.941C215.139 253.58 216.869 254.103 218.004 254.085C219.175 254.065 221.435 253.084 222.39 252.18C223.748 250.895 224.526 248.31 224.105 246.482C223.205 242.572 217.458 238.221 214.178 238.966C213.263 239.174 213.206 239.206 212.48 239.915ZM189.837 266.851C187.433 269.906 188.337 277.094 191.434 279.547C192.615 280.483 194.734 281.04 196.187 280.797C197.528 280.572 199.178 279.683 200.104 278.687C201.104 277.611 201.808 275.532 201.677 274.039C201.33 270.076 195.768 265.343 191.908 265.725C190.962 265.818 190.415 266.115 189.837 266.851ZM229.744 245.527C227.498 248.688 228.44 255.605 231.432 257.924C232.543 258.785 234.187 259.349 235.523 259.327C236.908 259.305 239.047 258.292 240.127 257.148C241.257 255.951 241.937 253.706 241.656 252.1C240.836 247.408 234.008 242.731 230.621 244.541C230.464 244.625 230.069 245.069 229.744 245.527ZM213.375 265.212C212.09 266.312 210.763 268.054 209.816 269.887C208.299 272.826 207.871 276.451 208.574 280.413C208.944 282.497 208.788 283.838 207.894 286.269C206.717 289.468 206.525 290.287 206.595 291.821C206.683 293.755 207.26 295.165 208.496 296.469C211.415 299.548 216.441 299.939 221.026 297.444C223.12 296.305 224.265 295.25 226.103 292.77C227.496 290.889 227.554 290.838 229.419 289.833C231.312 288.812 231.324 288.809 233.955 288.663C237.107 288.488 238.158 288.224 240.336 287.061C242.348 285.986 243.451 285.04 244.749 283.28C247.615 279.391 247.23 274.6 243.846 272.032C242.609 271.093 241.402 270.603 239.264 270.17C236.063 269.523 234.942 268.985 232.825 267.081C228.939 263.585 225.089 262.063 220.758 262.309C217.933 262.47 215.432 263.453 213.375 265.212Z" fill="#696A69" fill-opacity="0.05"/>
<path fill-rule="evenodd" clip-rule="evenodd" d="M145.132 55.5576C142.335 56.7718 140.33 63.6526 141.791 67.0199C143.07 69.9647 145.827 71.4634 148.89 70.878C150.803 70.5125 152.101 69.6289 153.064 68.0372C154.689 65.3512 154.151 61.9923 151.553 58.5993C149.417 55.809 147.091 54.7072 145.132 55.5576ZM164.236 51.92C163.359 52.3657 161.996 54.2436 161.425 55.7931C160.224 59.0534 160.342 62.5828 161.717 64.5726C164.349 68.3803 170.073 68.2005 172.415 64.236C173.964 61.6147 173.336 58.0858 170.744 54.8345C168.463 51.9744 166.16 50.9431 164.236 51.92ZM134.678 70.718C133.798 71.1762 132.436 73.0557 131.868 74.5981C130.668 77.8558 130.787 81.359 132.167 83.3763C134.892 87.3621 140.962 86.9271 143.129 82.5907C143.749 81.35 143.864 80.2404 143.548 78.5333C143.235 76.8383 142.551 75.3933 141.271 73.7209C139.092 70.8753 136.578 69.7301 134.678 70.718ZM179.319 62.2085C178.379 62.6835 176.756 65.149 176.273 66.8371C175.371 69.9823 175.589 73.0243 176.844 74.8164C179.569 78.7056 185.285 78.4723 187.629 74.3759C189.082 71.8361 188.406 68.2787 185.862 65.0817C183.579 62.2124 181.296 61.21 179.319 62.2085ZM158.326 75.9686C152.864 77.8232 149.139 82.6006 148.302 88.8228C147.946 91.468 147.392 92.8259 145.863 94.8048C143.77 97.5132 143.367 98.2042 142.935 99.8255C142.589 101.126 142.579 101.555 142.862 103.02C143.133 104.427 143.322 104.892 143.984 105.772C145.628 107.961 147.843 109.18 150.947 109.604C152.404 109.804 153.109 109.774 154.843 109.442C157.509 108.931 158.53 108.476 160.812 106.785C164.089 104.357 166.205 103.955 170.29 104.983C173.073 105.684 174.229 105.738 176.661 105.281C179.871 104.679 182.574 103.068 184.154 100.813C186.98 96.782 186.05 92.2731 181.852 89.6487C177.168 86.7213 176.949 86.5215 175.288 83.6656C173.844 81.1833 172.265 79.4728 170.036 77.9772C167.984 76.5997 165.473 75.6911 163.175 75.4948C161.852 75.3818 159.328 75.6285 158.326 75.9686ZM104.216 119.539C103.148 120.079 101.653 122.478 101.133 124.484C99.7949 129.649 101.362 133.565 105.227 134.714C106.35 135.047 108.8 134.79 109.983 134.215C111.665 133.397 113.183 131.166 113.331 129.296C113.649 125.271 109.486 119.42 106.108 119.143C105.186 119.068 105.12 119.081 104.216 119.539ZM123.49 115.855C122.415 116.399 120.93 118.792 120.377 120.869C119.54 124.019 119.866 127.017 121.24 128.804C121.92 129.688 123.413 130.707 124.501 131.03C125.624 131.364 128.074 131.107 129.257 130.532C130.939 129.714 132.457 127.483 132.605 125.612C132.921 121.612 128.747 115.736 125.395 115.461C124.459 115.384 124.395 115.397 123.49 115.855ZM93.7997 134.743C90.5892 136.935 89.2919 144.062 91.5082 147.333C92.3534 148.58 94.2074 149.749 95.6662 149.953C97.0129 150.142 98.8539 149.79 100.036 149.118C101.314 148.392 102.61 146.62 102.933 145.157C103.793 141.273 99.9105 135.087 96.1137 134.292C95.1829 134.096 94.5727 134.216 93.7997 134.743ZM138.27 126.396C135.178 128.736 133.999 135.616 136.155 138.727C136.956 139.882 138.355 140.914 139.635 141.295C140.963 141.689 143.308 141.366 144.681 140.599C146.119 139.797 147.442 137.86 147.657 136.244C148.285 131.522 143.178 125.01 139.403 125.719C139.228 125.752 138.718 126.056 138.27 126.396ZM116.743 140.253C115.186 140.915 113.397 142.179 111.944 143.642C109.613 145.99 108.116 149.318 107.597 153.309C107.323 155.407 106.771 156.64 105.188 158.69C103.104 161.387 102.675 162.111 102.281 163.595C101.784 165.466 101.911 166.984 102.698 168.599C104.556 172.413 109.233 174.296 114.355 173.294C116.695 172.836 118.104 172.175 120.602 170.362C122.496 168.986 122.567 168.955 124.648 168.556C126.76 168.151 126.772 168.152 129.326 168.803C132.385 169.584 133.466 169.648 135.893 169.192C138.135 168.772 139.471 168.201 141.238 166.912C145.14 164.064 146.213 159.379 143.757 155.913C142.859 154.646 141.855 153.816 139.946 152.761C137.087 151.181 136.179 150.331 134.733 147.879C132.076 143.378 128.862 140.769 124.656 139.702C121.914 139.007 119.234 139.193 116.743 140.253Z" fill="#696A69" fill-opacity="0.05"/>
<path fill-rule="evenodd" clip-rule="evenodd" d="M159.077 -59.8381C156.068 -60.3289 150.661 -55.6249 150.07 -52.002C149.553 -48.8335 151.062 -46.0818 153.955 -44.9181C155.762 -44.1916 157.332 -44.2328 159.002 -45.0512C161.822 -46.4321 163.185 -49.5484 162.834 -53.8075C162.546 -57.3099 161.185 -59.4944 159.077 -59.8381ZM177.115 -52.5686C176.136 -52.668 173.974 -51.8255 172.656 -50.8306C169.883 -48.7371 168.073 -45.7047 168.155 -43.2872C168.31 -38.661 173.223 -35.7171 177.336 -37.786C180.056 -39.1538 181.436 -42.4615 181.013 -46.5984C180.641 -50.2374 179.262 -52.35 177.115 -52.5686ZM142.086 -52.737C141.098 -52.8278 138.936 -51.9828 137.624 -50.9924C134.854 -48.9007 133.06 -45.8894 133.129 -43.4466C133.267 -38.6203 138.609 -35.7038 142.776 -38.1804C143.968 -38.8889 144.664 -39.7602 145.322 -41.3668C145.976 -42.9619 146.181 -44.5473 146.008 -46.6465C145.714 -50.2184 144.218 -52.5412 142.086 -52.737ZM184.24 -35.7584C183.193 -35.8671 180.494 -34.6707 179.175 -33.5121C176.716 -31.3537 175.254 -28.6769 175.341 -26.4905C175.53 -21.7458 180.465 -18.8513 184.652 -21.03C187.247 -22.3808 188.602 -25.7391 188.19 -29.804C187.821 -33.4521 186.443 -35.5296 184.24 -35.7584ZM159.14 -35.5341C153.543 -36.9269 147.826 -34.9225 143.758 -30.1407C142.028 -28.1079 140.828 -27.2651 138.472 -26.4273C135.246 -25.2808 134.534 -24.9175 133.294 -23.7869C132.3 -22.8804 132.06 -22.5248 131.505 -21.1392C130.972 -19.809 130.88 -19.3157 130.961 -18.2171C131.161 -15.487 132.365 -13.2638 134.746 -11.229C135.864 -10.2734 136.473 -9.9171 138.112 -9.25897C140.631 -8.24748 141.735 -8.07777 144.569 -8.26624C148.639 -8.53685 150.636 -7.73119 153.517 -4.65723C155.479 -2.56357 156.422 -1.89283 158.715 -0.961915C161.741 0.267161 164.886 0.372674 167.434 -0.669245C171.991 -2.5323 173.647 -6.82806 171.534 -11.306C169.177 -16.3008 169.101 -16.5873 169.247 -19.888C169.375 -22.7569 168.972 -25.0495 167.905 -27.5127C166.923 -29.7814 165.302 -31.9033 163.476 -33.3109C162.424 -34.1211 160.167 -35.2784 159.14 -35.5341ZM90.0638 -28.1387C88.8736 -28.2615 86.3186 -27.0522 84.7966 -25.6455C80.8781 -22.0241 80.0793 -17.8828 82.7096 -14.8265C83.4734 -13.9391 85.6738 -12.8302 86.9797 -12.6745C88.8367 -12.4534 91.3203 -13.5094 92.456 -15.0028C94.8997 -18.216 94.5615 -25.3889 91.8692 -27.4485C91.1345 -28.0107 91.0716 -28.0347 90.0638 -28.1387ZM108.269 -20.8159C107.071 -20.9396 104.527 -19.7297 102.94 -18.2812C100.532 -16.0848 99.1854 -13.3863 99.3754 -11.1395C99.4694 -10.0289 100.174 -8.36437 100.915 -7.50364C101.679 -6.61627 103.879 -5.50741 105.185 -5.35171C107.042 -5.1306 109.526 -6.18659 110.661 -7.68003C113.09 -10.8738 112.756 -18.074 110.085 -20.118C109.339 -20.6884 109.278 -20.7118 108.269 -20.8159ZM73.0805 -20.9804C69.1946 -20.8723 64.2498 -15.5785 64.3457 -11.6287C64.3824 -10.1226 65.3102 -8.13714 66.4269 -7.17653C67.4578 -6.28969 69.1967 -5.59024 70.5546 -5.51627C72.0218 -5.43635 74.0699 -6.22619 75.1336 -7.28202C77.9567 -10.0842 78.0351 -17.3871 75.2713 -20.1092C74.5937 -20.7766 74.016 -21.0062 73.0805 -20.9804ZM115.003 -3.95816C111.137 -3.6609 106.425 1.48879 106.557 5.27211C106.606 6.67692 107.225 8.30118 108.096 9.31373C109 10.3636 111.147 11.3595 112.717 11.4571C114.36 11.5594 116.52 10.6456 117.575 9.40181C120.656 5.76948 119.881 -2.47034 116.323 -3.9149C116.158 -3.98169 115.564 -4.00121 115.003 -3.95816ZM89.4016 -3.94035C87.7343 -4.22494 85.546 -4.12917 83.5321 -3.68378C80.3022 -2.9693 77.2433 -0.978864 74.6487 2.09698C73.2839 3.71488 72.1531 4.4535 69.7126 5.32159C66.5009 6.46384 65.7491 6.84046 64.615 7.87608C63.1859 9.18119 62.4715 10.5268 62.2603 12.3111C61.7618 16.5239 64.6773 20.6368 69.5283 22.5636C71.7437 23.4436 73.2873 23.6491 76.3685 23.4743C78.7057 23.3416 78.7819 23.3532 80.7481 24.1429C82.7438 24.9443 82.754 24.9516 84.5497 26.8801C86.7009 29.1908 87.576 29.8297 89.8641 30.7587C91.9771 31.6167 93.4099 31.8597 95.5931 31.7303C100.415 31.4443 103.851 28.0828 103.659 23.839C103.589 22.2882 103.194 21.047 102.158 19.127C100.607 16.2528 100.303 15.0468 100.412 12.2022C100.611 6.97875 99.3174 3.04631 96.3565 -0.12468C94.4257 -2.19275 92.0699 -3.48507 89.4016 -3.94035Z" fill="#696A69" fill-opacity="0.05"/>
<path fill-rule="evenodd" clip-rule="evenodd" d="M343.535 67.7574C343.708 64.7132 338.463 59.8291 334.798 59.6213C331.592 59.4398 329.014 61.2295 328.16 64.2286C327.627 66.1012 327.833 67.6583 328.822 69.2338C330.491 71.8927 333.733 72.9222 337.932 72.1263C341.385 71.4719 343.415 69.8893 343.535 67.7574ZM338.198 86.4583C338.194 85.4741 337.129 83.4121 336.002 82.2059C333.629 79.668 330.424 78.1864 328.028 78.5207C323.443 79.1602 321.031 84.3547 323.52 88.2284C325.166 90.79 328.6 91.8157 332.67 90.9611C336.25 90.2095 338.206 88.616 338.198 86.4583ZM334.691 51.6051C334.678 50.6123 333.611 48.5514 332.488 47.3507C330.117 44.8147 326.935 43.3465 324.513 43.672C319.727 44.3145 317.387 49.9331 320.287 53.8174C321.117 54.9289 322.056 55.53 323.723 56.0157C325.378 56.498 326.976 56.5365 329.046 56.1443C332.567 55.4768 334.72 53.7457 334.691 51.6051ZM322.228 95.3073C322.226 94.2541 320.753 91.6961 319.463 90.5052C317.058 88.2863 314.243 87.1137 312.078 87.4296C307.379 88.1152 305.018 93.3264 307.624 97.2614C309.239 99.7011 312.721 100.696 316.721 99.8603C320.31 99.1104 322.231 97.5219 322.228 95.3073ZM319.372 70.3692C320.17 64.6569 317.577 59.1817 312.395 55.6373C310.192 54.1306 309.228 53.0255 308.148 50.7698C306.669 47.6826 306.233 47.0119 304.979 45.8976C303.973 45.0042 303.594 44.8026 302.158 44.3962C300.779 44.006 300.279 43.9665 299.195 44.1616C296.501 44.6467 294.416 46.0775 292.642 48.6592C291.809 49.8713 291.519 50.5142 291.036 52.2132C290.294 54.8241 290.241 55.94 290.726 58.739C291.422 62.7579 290.831 64.8285 288.076 68.0159C286.199 70.1867 285.631 71.1951 284.946 73.5726C284.041 76.711 284.266 79.8493 285.569 82.2746C287.9 86.611 292.346 87.8069 296.578 85.236C301.298 82.368 301.575 82.2621 304.872 82.0617C307.739 81.8877 309.977 81.246 312.314 79.9273C314.467 78.7128 316.408 76.8783 317.616 74.9138C318.311 73.7831 319.225 71.4173 319.372 70.3692ZM304.772 2.44954C304.769 1.25309 303.299 -1.16098 301.74 -2.52709C297.727 -6.04413 293.525 -6.40414 290.762 -3.46773C289.959 -2.61503 289.087 -0.310463 289.07 1.00457C289.044 2.87447 290.355 5.2336 291.959 6.20644C295.411 8.29958 302.509 7.21093 304.275 4.31737C304.757 3.52775 304.774 3.46269 304.772 2.44954ZM299.399 21.3227C299.396 20.1181 297.926 17.7154 296.319 16.2882C293.883 14.1247 291.058 13.0682 288.843 13.4929C287.749 13.7028 286.167 14.5783 285.389 15.4054C284.587 16.2581 283.715 18.5626 283.697 19.8777C283.672 21.7476 284.982 24.1067 286.587 25.0795C290.018 27.16 297.143 26.0727 298.896 23.2016C299.385 22.4003 299.401 22.3372 299.399 21.3227ZM295.872 -13.6892C295.357 -17.5424 289.573 -21.9045 285.655 -21.3949C284.161 -21.2005 282.284 -20.0695 281.446 -18.8582C280.672 -17.7399 280.159 -15.9372 280.228 -14.5791C280.302 -13.1116 281.303 -11.1576 282.464 -10.2106C285.547 -7.69697 292.818 -8.38503 295.235 -11.4191C295.828 -12.1629 295.996 -12.7616 295.872 -13.6892ZM283.341 29.7875C282.64 25.974 277.024 21.8281 273.275 22.3564C271.884 22.5527 270.333 23.3382 269.418 24.3109C268.468 25.3195 267.703 27.5592 267.771 29.1308C267.841 30.776 268.977 32.8278 270.324 33.7466C274.26 36.4297 282.373 34.7947 283.436 31.1043C283.485 30.9333 283.442 30.3406 283.341 29.7875ZM280.638 4.32922C280.746 2.64125 280.421 0.475123 279.767 -1.48098C278.717 -4.61814 276.417 -7.45137 273.086 -9.70901C271.334 -10.8966 270.481 -11.9437 269.362 -14.2797C267.889 -17.3538 267.435 -18.062 266.286 -19.0812C264.839 -20.3655 263.426 -20.9348 261.629 -20.9577C257.387 -21.0116 253.603 -17.6808 252.195 -12.6544C251.553 -10.359 251.51 -8.80231 252.007 -5.75645C252.384 -3.44606 252.381 -3.36905 251.802 -1.33088C251.214 0.737846 251.208 0.748844 249.478 2.73686C247.406 5.11854 246.862 6.05589 246.178 8.42881C245.547 10.6202 245.455 12.0706 245.813 14.2281C246.603 18.9937 250.307 22.0579 254.507 21.4219C256.042 21.1896 257.235 20.666 259.035 19.4346C261.731 17.5909 262.899 17.1619 265.739 16.9716C270.954 16.6222 274.73 14.9232 277.572 11.646C279.427 9.50889 280.465 7.03055 280.638 4.32922Z" fill="#696A69" fill-opacity="0.05"/>
</g>
<defs>
<clipPath id="clip0_163_10413">
<rect width="375" height="812" fill="white"/>
</clipPath>
</defs>
</svg>
