<svg width="66" height="66" viewBox="0 0 66 66" fill="none" xmlns="http://www.w3.org/2000/svg">
<g clip-path="url(#clip0_1591_25726)">
<path d="M20.567 60.6212C19.1233 60.6212 17.8348 59.6025 17.5462 58.1327C17.2179 56.4625 18.3061 54.8426 19.9763 54.5148C23.5842 53.8063 26.1855 53.6754 28.7017 53.5495C29.394 53.5147 30.0476 53.482 30.7229 53.4367C32.4218 53.3234 33.8891 54.6099 34.0019 56.3079C34.1147 58.0063 32.8292 59.4746 31.1312 59.5869C30.4066 59.6353 29.6967 59.671 29.0108 59.7053C26.6069 59.8261 24.3365 59.9399 21.1642 60.5628C20.9638 60.6026 20.7639 60.6212 20.567 60.6212Z" fill="#DDAF89"/>
<path d="M54.7872 57.8089C51.5515 57.8089 48.5499 56.113 45.1625 52.5308C44.227 51.5418 44.2703 49.9814 45.2597 49.0458C46.2492 48.1097 47.8096 48.1535 48.7452 49.143C52.9533 53.5928 55.0581 53.2237 57.3734 52.278C58.6337 51.7634 60.0734 52.3676 60.588 53.6285C61.1026 54.8889 60.4984 56.3285 59.2375 56.8431C57.674 57.4816 56.2082 57.8089 54.7872 57.8089Z" fill="#495059"/>
<path d="M26.1181 47.5291C21.2821 47.5291 16.6883 44.9878 13.8292 40.7318C12.8805 39.3189 13.2567 37.4039 14.6696 36.4548C16.0826 35.5056 17.997 35.8822 18.9462 37.2947C19.5877 38.2494 22.0002 41.3653 26.1181 41.3653C27.8201 41.3653 29.1998 42.745 29.1998 44.447C29.1998 46.1489 27.8201 47.5291 26.1181 47.5291Z" fill="#DDAF89"/>
<path d="M53.2136 47.6702C52.4669 47.6702 51.7186 47.6102 50.9744 47.4884C49.294 47.214 48.1555 45.6293 48.43 43.9495C48.7049 42.2697 50.2895 41.1312 51.9689 41.4056C56.0334 42.0698 58.9167 39.3849 59.7037 38.546C60.8684 37.3048 62.8191 37.2429 64.0604 38.4075C65.3016 39.5722 65.3635 41.5224 64.1988 42.7637C61.2375 45.9194 57.254 47.6702 53.2136 47.6702Z" fill="#DDAF89"/>
<path d="M30.7229 53.4367C30.0477 53.482 29.3936 53.5147 28.7012 53.5495C27.7278 53.5983 26.7404 53.6482 25.6875 53.7318C27.604 55.9524 30.1801 57.6755 33.1434 58.6534C33.7265 58.0491 34.0619 57.2112 34.002 56.3079C33.8892 54.6099 32.4218 53.3234 30.7229 53.4367Z" fill="#D1A582"/>
<path d="M55.1503 41.2732C54.2012 41.5104 53.1337 41.596 51.969 41.4056C50.2897 41.1312 48.7045 42.2697 48.4301 43.9495C48.1552 45.6293 49.2942 47.2135 50.974 47.4884C51.7187 47.6102 52.467 47.6697 53.2137 47.6697C53.8457 47.6697 54.4761 47.6269 55.1015 47.5428C55.3497 46.4984 55.4817 45.4153 55.4817 44.304C55.4817 43.2667 55.3674 42.2531 55.1503 41.2732Z" fill="#D1A582"/>
<path d="M53.8188 44.304C53.8188 36.8002 47.0925 30.7175 38.7946 30.7175C30.4973 30.7175 23.7705 36.8002 23.7705 44.304C23.7705 51.8082 30.4973 57.891 38.7946 57.891C47.0925 57.891 53.8188 51.8082 53.8188 44.304Z" fill="#DDAF89"/>
<path d="M32.6407 60.6212C31.1971 60.6212 29.9085 59.6025 29.62 58.1327C29.2917 56.4625 30.3798 54.8426 32.05 54.5148C35.6579 53.8063 38.2592 53.6759 40.7749 53.5495C41.4673 53.5147 42.1214 53.482 42.7961 53.4367C44.495 53.3234 45.9629 54.6094 46.0757 56.3079C46.1884 58.0063 44.9029 59.4746 43.2045 59.5869C42.4799 59.6353 41.7704 59.671 41.0841 59.7053C38.6807 59.8261 36.4102 59.9399 33.2379 60.5628C33.0375 60.6026 32.8376 60.6212 32.6407 60.6212Z" fill="#C49B7A"/>
<path d="M52.3642 35.5806C48.6823 38.6356 43.9531 40.473 38.7948 40.473C33.6366 40.473 28.9078 38.6356 25.2259 35.5806C24.4429 36.5948 23.7898 37.698 23.2954 38.8733C22.6211 40.474 23.243 42.3301 24.741 43.2093C28.865 45.6303 33.6673 47.019 38.7948 47.019C43.9224 47.019 48.7251 45.6303 52.8491 43.2093C54.3472 42.3301 54.969 40.474 54.2948 38.8733C53.7998 37.698 53.1472 36.5948 52.3642 35.5806Z" fill="#7F9AE6"/>
<path d="M31.9522 39.3471C29.4728 38.5047 27.1988 37.2176 25.2255 35.5806C24.4424 36.5948 23.7899 37.698 23.2949 38.8733C22.6206 40.474 23.2425 42.3301 24.7405 43.2093C26.8851 44.4681 29.214 45.4445 31.6758 46.095C30.7725 44.2828 31.0282 41.5622 31.9522 39.3471Z" fill="#5E78BF"/>
<path d="M32.7522 16.2603C32.0976 16.2603 31.437 16.0609 30.8664 15.6465L26.9132 12.7748C25.182 11.5175 22.8471 11.6217 21.2352 13.0291L18.6465 15.289C17.3101 16.4562 15.2804 16.3187 14.1132 14.9818C12.946 13.6449 13.0834 11.6152 14.4203 10.4485L17.009 8.18806C18.8756 6.55861 21.267 5.59987 23.7424 5.48909C26.2183 5.37881 28.6851 6.11952 30.6897 7.57576L34.6435 10.4474C36.0791 11.4903 36.3973 13.4994 35.3545 14.9355C34.7261 15.8006 33.7457 16.2603 32.7522 16.2603Z" fill="#495059"/>
<path d="M44.8371 16.2603C43.8431 16.2603 42.8637 15.8006 42.2348 14.935C41.1919 13.4994 41.5102 11.4903 42.9463 10.4475L46.8996 7.57526C48.9047 6.11902 51.3725 5.37882 53.8474 5.48909C56.3228 5.59987 58.7141 6.55861 60.5808 8.18807L63.1689 10.4485C64.5058 11.6152 64.6433 13.6449 63.4761 14.9818C62.3089 16.3187 60.2791 16.4562 58.9427 15.289L56.354 13.0286C54.7422 11.6217 52.4073 11.517 50.6761 12.7748L46.7228 15.6465C46.1523 16.0609 45.4917 16.2603 44.8371 16.2603Z" fill="#495059"/>
<path d="M38.7947 41.7082C55.1059 41.7082 62.4566 34.2367 60.1625 23.7152C57.6971 12.4092 49.9315 6.22021 38.7947 6.22021C27.658 6.22021 19.8924 12.4092 17.427 23.7152C15.1329 34.2367 22.4836 41.7082 38.7947 41.7082Z" fill="#DDAF89"/>
<path d="M42.9917 47.5483C42.9917 49.8661 41.1124 51.7448 38.7946 51.7448C36.4769 51.7448 34.5981 49.8661 34.5981 47.5483C34.5981 45.2305 36.4769 43.3518 38.7946 43.3518C41.1124 43.3518 42.9917 45.2305 42.9917 47.5483Z" fill="#F6E06A"/>
<path d="M30.6361 23.5758C30.6361 21.5888 28.6134 19.978 26.1183 19.978C23.6233 19.978 21.6006 21.5888 21.6006 23.5758C21.6006 25.5627 23.6233 27.1736 26.1183 27.1736C28.6134 27.1736 30.6361 25.5627 30.6361 23.5758Z" fill="#FFDBDB"/>
<path d="M55.9891 23.5758C55.9891 21.5888 53.9664 19.978 51.4714 19.978C48.9763 19.978 46.9536 21.5888 46.9536 23.5758C46.9536 25.5627 48.9763 27.1736 51.4714 27.1736C53.9664 27.1736 55.9891 25.5627 55.9891 23.5758Z" fill="#FFDBDB"/>
<path d="M41.1643 20.6018C39.6108 20.1955 37.9789 20.1955 36.4255 20.6018C35.7824 20.7705 35.2215 21.1663 34.8479 21.7162C34.3428 22.4589 34.6334 23.4775 35.4536 23.8421L37.7296 24.8542C38.4079 25.1558 39.1818 25.1558 39.8596 24.8542L42.1361 23.8421C42.9564 23.4775 43.2469 22.4589 42.7419 21.7162C42.3677 21.1663 41.8073 20.7705 41.1643 20.6018Z" fill="#495059"/>
<path d="M2.53281 54.5464H42.1065C42.9711 54.5464 43.6725 53.8455 43.6725 52.9809V50.6113C43.6725 49.7467 42.9711 49.0458 42.1065 49.0458H2.53281C1.66772 49.0458 0.966797 49.7467 0.966797 50.6113V52.9809C0.966797 53.8455 1.66772 54.5464 2.53281 54.5464Z" fill="#A2D3EE"/>
<path d="M2.85658 27.1202H29.3524C30.3962 27.1202 31.2421 27.9661 31.2421 29.01V47.1555C31.2421 48.1994 30.3962 49.0458 29.3524 49.0458H2.85658C1.81274 49.0458 0.966797 48.1994 0.966797 47.1555V29.01C0.966797 27.9661 1.81274 27.1202 2.85658 27.1202Z" fill="#DFE3E5"/>
<path d="M13.6872 27.1202H2.85658C1.81274 27.1202 0.966797 27.9661 0.966797 29.01V47.1555C0.966797 48.1994 1.81274 49.0458 2.85658 49.0458H24.8447C12.3136 44.7823 11.4278 34.7433 13.6872 27.1202Z" fill="#CACDCF"/>
<path d="M17.3749 42.4046L15.9645 38.8219L12.3818 37.4115C11.8334 37.1955 11.8541 36.4125 12.413 36.2262L20.3881 33.568C20.9012 33.3968 21.3891 33.8852 21.2184 34.3983L18.5597 42.3729C18.3734 42.9318 17.5909 42.953 17.3749 42.4046Z" fill="#495059"/>
<path d="M2.53281 54.5464H29.6761C30.5412 54.5464 31.2421 53.8455 31.2421 52.9809V50.6113C31.2421 49.7467 30.5412 49.0458 29.6761 49.0458H2.53281C1.66772 49.0458 0.966797 49.7467 0.966797 50.6113V52.9809C0.966797 53.8455 1.66772 54.5464 2.53281 54.5464Z" fill="#7F9AE6"/>
<path d="M4.32324 49.0458H6.25684V54.5464H4.32324V49.0458Z" fill="#5E78BF"/>
<path d="M25.9521 49.0458H27.8857V54.5464H25.9521V49.0458Z" fill="#5E78BF"/>
<path d="M34.4693 27.4429C34.1184 27.0406 33.5076 26.9988 33.1052 27.3493C32.7024 27.7002 32.6606 28.3105 33.0116 28.7134C34.4703 30.3876 36.5782 31.3479 38.7947 31.3479C41.0108 31.3479 43.1191 30.3876 44.5779 28.7134C44.9289 28.3105 44.8871 27.7002 44.4842 27.3493C44.0819 26.9983 43.4711 27.0401 43.1201 27.4429C42.2435 28.4485 41.0541 29.1091 39.7615 29.3307V25.9137C39.9282 25.8669 40.0924 25.8089 40.2525 25.7379L42.5285 24.7253C43.1821 24.4348 43.6695 23.8733 43.8654 23.1855C44.0618 22.4977 43.9434 21.764 43.5411 21.1724C43.0356 20.4291 42.2782 19.8944 41.4086 19.6668C39.6981 19.2191 37.8904 19.2191 36.1804 19.6668C35.3107 19.8944 34.5534 20.4291 34.0479 21.1724C33.646 21.764 33.5277 22.4977 33.7236 23.1855C33.9195 23.8733 34.4069 24.4348 35.0605 24.7258L37.3365 25.7379C37.4966 25.8089 37.6608 25.8669 37.8274 25.9137V29.3307C36.5354 29.1091 35.346 28.449 34.4693 27.4429ZM35.8465 22.9589C35.6703 22.8804 35.6063 22.7353 35.5832 22.6558C35.5605 22.5762 35.5388 22.4191 35.6471 22.26C35.8898 21.903 36.2529 21.6467 36.6703 21.5374C37.3652 21.3551 38.0802 21.2645 38.7947 21.2645C39.5098 21.2645 40.2243 21.3551 40.9192 21.5374C41.3366 21.6467 41.6997 21.903 41.9424 22.2595C42.0506 22.4191 42.0285 22.5762 42.0058 22.6558C41.9832 22.7353 41.9192 22.8804 41.743 22.9589L39.4665 23.971C39.0395 24.1609 38.5495 24.1609 38.1225 23.971L35.8465 22.9589ZM27.7843 18.3913V19.9865C27.7843 20.5208 28.2174 20.9533 28.7511 20.9533C29.2849 20.9533 29.7179 20.5208 29.7179 19.9865V18.3913C29.7179 17.8575 29.2849 17.4245 28.7511 17.4245C28.2174 17.4245 27.7843 17.8575 27.7843 18.3913ZM47.8716 18.3913V19.9865C47.8716 20.5208 48.3046 20.9533 48.8383 20.9533C49.3726 20.9533 49.8051 20.5208 49.8051 19.9865V18.3913C49.8051 17.8575 49.3726 17.4245 48.8383 17.4245C48.3046 17.4245 47.8716 17.8575 47.8716 18.3913ZM65.998 40.5259C65.9632 39.4453 65.5101 38.4423 64.7215 37.7026C63.933 36.9624 62.9022 36.5741 61.8226 36.6084C60.7415 36.6426 59.7385 37.0958 58.9988 37.8843C58.6045 38.3053 57.3502 39.5203 55.5289 40.1508C55.5233 39.685 55.4438 39.2157 55.2852 38.76C57.1649 37.5293 58.6453 36.0278 59.7007 34.2689C59.9756 33.8107 59.8266 33.217 59.3689 32.9421C58.9112 32.6677 58.3175 32.8162 58.0426 33.2739C55.1537 38.0893 48.3182 40.7414 38.7947 40.7414C36.4397 40.7414 34.2291 40.5803 32.2089 40.2621V29.01C32.2089 27.4349 30.9279 26.1534 29.3524 26.1534H18.0353C18.0952 25.4258 18.2065 24.6785 18.3717 23.9212C19.3923 19.2413 21.3315 15.4662 24.1442 12.6711C24.1629 12.6535 24.18 12.6358 24.1976 12.6172C24.6035 12.2174 25.0275 11.8372 25.4691 11.4782C27.0658 10.1806 28.8659 9.17551 30.8579 8.46451C30.9189 8.44941 30.9778 8.42826 31.0352 8.40107C33.3681 7.59389 35.9608 7.18703 38.7952 7.18703C41.6292 7.18703 44.2219 7.59389 46.5548 8.40107C46.6122 8.42826 46.6716 8.44941 46.7325 8.46451C48.724 9.17551 50.5247 10.1806 52.1209 11.4782C52.5645 11.8387 52.9895 12.2194 53.3969 12.6207C53.4125 12.6379 53.4281 12.654 53.4452 12.6696C56.2585 15.4652 58.1976 19.2408 59.2183 23.9212C59.6504 25.9031 59.7219 27.7758 59.4308 29.4868C59.3412 30.013 59.6952 30.5125 60.2214 30.6021C60.2763 30.6112 60.3311 30.6157 60.385 30.6157C60.8478 30.6157 61.2567 30.2824 61.3367 29.8111C61.6701 27.8543 61.593 25.7339 61.1076 23.5093C60.5059 20.7479 59.6005 18.273 58.4016 16.0957C59.1539 16.7155 60.0809 17.0489 61.0502 17.0489C61.1459 17.0489 61.2426 17.0453 61.3387 17.0388C62.4531 16.9633 63.4707 16.4587 64.2049 15.6178C64.939 14.7769 65.3021 13.6998 65.2266 12.586C65.151 11.4722 64.6465 10.4545 63.8056 9.71984L61.2169 7.45995C59.1861 5.68698 56.5843 4.64365 53.8909 4.5233C51.4034 4.41303 48.9164 5.09533 46.8317 6.45186C44.3921 5.65476 41.7077 5.25344 38.7957 5.25344C35.8833 5.25344 33.1989 5.65476 30.7592 6.45186C28.6736 5.09482 26.1861 4.41252 23.6991 4.5233C21.0057 4.64415 18.4039 5.68698 16.3731 7.45995L13.7849 9.72034C12.0487 11.236 11.8694 13.8816 13.3851 15.6178C14.2104 16.5629 15.3706 17.0468 16.5363 17.0468C17.4738 17.0468 18.415 16.7331 19.1889 16.0957C17.9895 18.2725 17.0846 20.7479 16.4824 23.5093C16.287 24.4046 16.1581 25.2903 16.0957 26.1534H2.85658C1.28151 26.1534 0 27.4349 0 29.01V47.156C0 47.8323 0.236664 48.4541 0.631439 48.9441C0.239685 49.3902 0 49.9728 0 50.6113V52.981C0 54.3773 1.13599 55.5133 2.53281 55.5133H17.062C16.5891 56.3325 16.4013 57.3195 16.5977 58.319C16.9693 60.2133 18.639 61.588 20.5671 61.588C20.8284 61.588 21.0918 61.5623 21.3506 61.5119C24.4549 60.9022 26.6917 60.7899 29.0593 60.671C29.3745 60.6554 29.6973 60.6383 30.0221 60.6212C30.7341 61.2269 31.653 61.5885 32.6405 61.5885C32.9018 61.5885 33.1652 61.5623 33.424 61.5119C36.5288 60.9022 38.765 60.7899 41.1322 60.671C41.8215 60.6368 42.534 60.601 43.2682 60.5522C44.3473 60.4807 45.3337 59.9928 46.0462 59.1796C46.6409 58.5003 46.9838 57.6614 47.0397 56.7751C47.3287 56.617 47.6112 56.4519 47.8862 56.2787C50.1828 57.9565 52.4462 58.7757 54.7872 58.7757C56.3184 58.7757 57.8935 58.4363 59.603 57.7384C61.3548 57.0229 62.1983 55.0153 61.4827 53.263C60.7672 51.5111 58.7601 50.6677 57.0078 51.3832C55.6573 51.9341 54.5243 52.2539 52.8153 51.3022C53.3299 50.4477 53.7504 49.5458 54.0691 48.6097C58.0919 48.3771 62.0064 46.513 64.9033 43.4253C65.6435 42.6368 66.0322 41.607 65.998 40.5259ZM53.8043 6.45488C56.0616 6.55609 58.2425 7.43024 59.9449 8.91669L62.5331 11.1766C62.9853 11.5714 63.2567 12.1182 63.297 12.7169C63.3378 13.3156 63.1429 13.8942 62.7481 14.3459C62.3534 14.798 61.8065 15.0694 61.2078 15.1097C60.6091 15.15 60.0305 14.9551 59.5784 14.5609L56.9902 12.3005C56.2938 11.6927 55.4639 11.2723 54.5737 11.0698C54.1779 10.6892 53.767 10.3246 53.3405 9.97765C52.061 8.93734 50.6667 8.06873 49.1636 7.37032C50.6098 6.70514 52.2075 6.38338 53.8043 6.45488ZM18.0111 14.5609C17.0781 15.3756 15.6561 15.2789 14.8418 14.3459C14.0271 13.4133 14.1233 11.9913 15.0564 11.1766L17.6451 8.91669C19.347 7.43024 21.5278 6.55609 23.7857 6.45488C25.3824 6.38338 26.9797 6.70514 28.4263 7.37032C26.9233 8.06873 25.5285 8.93734 24.249 9.97765C23.8225 10.3246 23.4116 10.6897 23.0158 11.0703C22.1255 11.2723 21.2957 11.6932 20.5993 12.301L18.0111 14.5609ZM42.0249 47.5483C42.0249 47.7275 42.0093 47.9043 41.9806 48.079H35.6109C35.5816 47.9043 35.565 47.727 35.565 47.5483C35.565 45.7673 37.0137 44.3186 38.7947 44.3186C40.5758 44.3186 42.0249 45.7673 42.0249 47.5483ZM32.1344 50.0126H42.1065C42.4368 50.0126 42.7052 50.281 42.7052 50.6113V52.9805C42.7052 53.3108 42.4368 53.5797 42.1065 53.5797H32.1344C32.1812 53.3873 32.2089 53.1874 32.2089 52.9805V50.6113C32.2089 50.4049 32.1812 50.205 32.1344 50.0126ZM32.2089 42.2168C33.7684 42.4489 35.4291 42.5924 37.1718 42.6478C35.7302 43.1262 34.569 44.2239 34.0046 45.6248C33.4018 45.516 32.8021 45.3851 32.2089 45.2355V42.2168ZM32.2074 47.226C32.6792 47.3363 33.1551 47.436 33.6319 47.5226C33.6319 47.5312 33.6314 47.5397 33.6314 47.5483C33.6314 47.726 33.6415 47.9033 33.6591 48.079H32.0554C32.147 47.8101 32.1999 47.5236 32.2074 47.226ZM28.6711 58.319C28.6998 58.4655 28.737 58.609 28.7808 58.749C26.4082 58.8684 24.1387 58.9937 20.978 59.6146C20.842 59.6413 20.7036 59.6544 20.5671 59.6544C19.5605 59.6544 18.6894 58.9363 18.495 57.9464C18.283 56.8683 18.9281 55.8199 19.9709 55.5133H29.1353C28.6625 56.3325 28.4747 57.3195 28.6711 58.319ZM30.2753 52.9805C30.2753 53.3108 30.0065 53.5797 29.6766 53.5797H2.53281C2.20248 53.5797 1.93359 53.3108 1.93359 52.9805V50.6113C1.93359 50.281 2.20248 50.0126 2.53281 50.0126H29.6761C30.0065 50.0126 30.2753 50.281 30.2753 50.6113V52.9805ZM30.2753 47.1555C30.2753 47.6646 29.8614 48.079 29.3524 48.079H2.85658C2.3475 48.079 1.93359 47.6646 1.93359 47.1555V29.01C1.93359 28.5014 2.3475 28.087 2.85658 28.087H29.3524C29.8614 28.087 30.2753 28.5009 30.2753 29.01V47.1555ZM57.7384 53.1733C58.5038 52.8611 59.3805 53.2292 59.6927 53.9941C60.0054 54.759 59.6368 55.6356 58.8719 55.9483C57.399 56.5496 56.0626 56.8421 54.7872 56.8421C53.0137 56.8421 51.3238 56.2761 49.5433 55.0802C50.3465 54.4166 51.0695 53.6824 51.704 52.8924C54.2398 54.3733 56.0732 53.8531 57.7384 53.1733ZM46.5598 54.8224C46.3121 54.6104 45.9636 54.5278 45.6318 54.6356C45.1242 54.8008 44.8463 55.3466 45.0114 55.8542C45.0658 56.0208 45.0991 56.1951 45.1106 56.3718C45.1484 56.9358 44.9636 57.4801 44.592 57.9051C44.2194 58.3306 43.7043 58.5849 43.1403 58.6226C42.4217 58.67 41.7168 58.7057 41.0355 58.74C38.5963 58.8623 36.2932 58.9776 33.0514 59.6141C32.9154 59.6408 32.7769 59.6544 32.6405 59.6544C31.6339 59.6544 30.7628 58.9358 30.5684 57.9464C30.3564 56.8678 31.0014 55.8199 32.0443 55.5133H42.1065C43.5033 55.5133 44.6393 54.3773 44.6393 52.9805V50.6113C44.6393 49.8741 44.3211 49.212 43.8165 48.7487C43.9102 48.3575 43.9585 47.9561 43.9585 47.5483C43.9585 47.5392 43.958 47.5302 43.958 47.5211C47.088 46.9546 50.0735 45.8811 52.8521 44.3211C52.8455 48.5584 50.4608 52.4966 46.5598 54.8224ZM52.3596 42.3754C49.6329 43.9762 46.6847 45.0658 43.5849 45.6238C43.0204 44.2244 41.8608 43.1277 40.4207 42.6483C44.9097 42.5078 48.7955 41.7802 51.9865 40.4766C52.5318 40.2535 53.053 40.0128 53.554 39.7585C53.7418 40.7731 53.2821 41.8341 52.3596 42.3754ZM63.4939 42.102C61.0849 44.6695 57.8905 46.2784 54.5787 46.6288C54.7142 45.867 54.7857 45.0905 54.7857 44.304C54.7857 43.8029 54.756 43.2979 54.6996 42.7964C54.8139 42.6362 54.9171 42.4686 55.0087 42.2954C57.7898 41.7264 59.6932 39.9705 60.4092 39.2076C60.7954 38.7957 61.3191 38.5586 61.8841 38.541C62.4485 38.5218 62.9868 38.7258 63.3987 39.1125C63.8106 39.4992 64.0473 40.0229 64.0654 40.5873C64.0835 41.1523 63.8801 41.6901 63.4939 42.102ZM20.0817 32.6505L12.1071 35.3087C11.4621 35.5237 11.0336 36.1023 11.0154 36.7821C10.9973 37.4614 11.3946 38.0616 12.0271 38.3108L14.2376 39.181L11.7587 41.6604C11.381 42.0375 11.381 42.6498 11.7587 43.0275C11.947 43.2163 12.1947 43.3105 12.442 43.3105C12.6892 43.3105 12.937 43.2163 13.1258 43.0275L15.6047 40.5486L16.4748 42.7586C16.7185 43.378 17.2981 43.7712 17.9593 43.7712C17.9739 43.7712 17.989 43.7707 18.0036 43.7707C18.6833 43.7526 19.2619 43.3241 19.4769 42.679L22.1351 34.704C22.3305 34.1169 22.1804 33.4804 21.7429 33.0428C21.3053 32.6052 20.6688 32.4552 20.0817 32.6505ZM17.9351 41.1891L16.8636 38.4674C16.8636 38.4669 16.8631 38.4664 16.8631 38.4659C16.8157 38.3466 16.7442 38.2348 16.6475 38.1381C16.5514 38.0414 16.4396 37.9704 16.3202 37.9231C16.3197 37.9226 16.3187 37.9226 16.3182 37.9221L13.5966 36.8506L20.1043 34.6813L17.9351 41.1891Z" fill="black"/>
</g>
<defs>
<clipPath id="clip0_1591_25726">
<rect width="66" height="66" fill="white"/>
</clipPath>
</defs>
</svg>
