<svg width="56" height="56" viewBox="0 0 56 56" fill="none" xmlns="http://www.w3.org/2000/svg">
<g clip-path="url(#clip0_328_10360)">
<path d="M48.6214 43.2859C46.2527 43.2859 44.0541 42.0419 41.5738 39.4139C40.8889 38.6883 40.9206 37.5432 41.6452 36.857C42.3698 36.1708 43.5123 36.2029 44.1972 36.9285C47.2786 40.1931 48.8201 39.9221 50.515 39.2286C51.4383 38.851 52.492 39.2945 52.8692 40.2192C53.2461 41.1443 52.8034 42.1999 51.8801 42.5779C50.7355 43.0462 49.6622 43.2859 48.6214 43.2859Z" fill="#495059"/>
<path d="M31.7708 50.4349C30.7681 50.4349 29.8524 49.7603 29.5884 48.7427C28.7112 45.3665 29.0847 42.9067 29.9148 40.2522C30.2874 39.0604 31.5538 38.3968 32.7433 38.7706C33.9323 39.1438 34.5946 40.4127 34.2216 41.6045C33.5905 43.622 33.3448 45.2504 33.9558 47.604C34.2699 48.8121 33.5465 50.0471 32.3404 50.3613C32.1502 50.411 31.9588 50.4349 31.7708 50.4349Z" fill="#DDAF89"/>
<path d="M41.8729 50.4341C41.2948 50.4341 40.7167 50.2127 40.2758 49.7701C37.9336 47.4186 37.755 42.9465 38.207 40.5145C38.4348 39.2868 39.6123 38.4764 40.8381 38.705C42.0635 38.9336 42.8718 40.1139 42.6441 41.3416C42.2895 43.25 42.6911 45.7937 43.4704 46.5758C44.351 47.4597 44.3493 48.8913 43.4674 49.7735C43.0269 50.214 42.4497 50.4341 41.8729 50.4341Z" fill="#DDAF89"/>
<path d="M28.6262 35.7102C25.2124 36.652 21.4752 35.7496 18.6297 33.2958C17.685 32.4812 17.5782 31.0535 18.3913 30.107C19.2043 29.1605 20.6292 29.0539 21.5739 29.8682C22.2122 30.4187 24.5211 32.1524 27.4282 31.3502C28.6296 31.0188 29.8721 31.726 30.2028 32.9298C30.5339 34.134 29.8281 35.3784 28.6262 35.7102Z" fill="#DDAF89"/>
<path d="M27.4282 31.3502C26.4395 31.6229 25.5205 31.6019 24.7126 31.4345C24.5929 32.0664 24.5301 32.7158 24.5301 33.3784C24.5301 34.2885 24.6485 35.1738 24.8702 36.0223C26.1264 36.1477 27.3974 36.0488 28.6262 35.7098C29.8281 35.3784 30.5339 34.1336 30.2028 32.9298C29.8721 31.726 28.6297 31.0189 27.4282 31.3502Z" fill="#D1A582"/>
<path d="M40.8381 38.7055C39.6123 38.4764 38.4347 39.2868 38.207 40.5145C38.0007 41.625 37.9267 43.1605 38.1288 44.7252C39.7024 44.5843 41.191 44.1734 42.5385 43.5437C42.4873 42.8018 42.5163 42.0308 42.6441 41.342C42.8722 40.1143 42.0634 38.9336 40.8381 38.7055Z" fill="#D1A582"/>
<path d="M32.7433 38.7706C31.5538 38.3968 30.2878 39.0604 29.9153 40.2522C29.6867 40.9825 29.4931 41.6982 29.3504 42.4221C30.61 43.3099 32.0592 43.9816 33.632 44.3767C33.7042 43.4598 33.9174 42.5771 34.222 41.6045C34.5946 40.4127 33.9323 39.1438 32.7433 38.7706Z" fill="#D1A582"/>
<path d="M47.9126 33.3784C47.9126 27.8733 42.9872 23.4105 36.9116 23.4105C30.8356 23.4105 25.9102 27.8733 25.9102 33.3784C25.9102 38.8836 30.8356 43.3463 36.9116 43.3463C42.9872 43.3463 47.9126 38.8836 47.9126 33.3784Z" fill="#DDAF89"/>
<path d="M46.8475 26.9786C44.151 29.22 40.6885 30.5676 36.9116 30.5676C33.1342 30.5676 29.6717 29.22 26.9757 26.9786C26.4024 27.7222 25.9243 28.5321 25.5619 29.3942C25.068 30.5685 25.5235 31.9302 26.6207 32.5753C29.6401 34.351 33.1569 35.3703 36.9116 35.3703C40.6659 35.3703 44.1827 34.351 47.2025 32.5753C48.2993 31.9302 48.7543 30.5689 48.2608 29.3942C47.8985 28.5321 47.4208 27.7222 46.8475 26.9786Z" fill="#7F9AE6"/>
<path d="M31.9012 29.7418C30.0857 29.1237 28.4207 28.1798 26.9757 26.9786C26.4024 27.7222 25.9243 28.5321 25.5619 29.3942C25.0685 30.5685 25.5235 31.9302 26.6207 32.5753C28.1909 33.4987 29.896 34.2153 31.6986 34.6926C31.0372 33.3626 31.2244 31.3664 31.9012 29.7418Z" fill="#5E78BF"/>
<path d="M32.5779 13.4452C32.1083 13.4452 31.6345 13.3018 31.2256 13.0043L28.3904 10.9405C27.1487 10.0368 25.4739 10.1122 24.3182 11.1233L22.4617 12.7474C21.503 13.5861 20.0473 13.4872 19.2103 12.5266C18.3733 11.5659 18.472 10.1075 19.4304 9.26885L21.2868 7.64471C22.6258 6.4739 24.3408 5.78512 26.1161 5.70549C27.8917 5.62587 29.661 6.15798 31.0987 7.20464L33.934 9.26799C34.9637 10.0176 35.1923 11.4615 34.4442 12.4927C33.9934 13.1152 33.2906 13.4452 32.5779 13.4452Z" fill="#495059"/>
<path d="M41.2448 13.4452C40.5322 13.4452 39.8293 13.1151 39.3786 12.4931C38.6305 11.4615 38.859 10.0175 39.8887 9.26798L42.724 7.20462C44.1617 6.15839 45.9318 5.62628 47.7067 5.70548C49.4819 5.7851 51.1969 6.47388 52.5355 7.64512L54.392 9.26883C55.3507 10.1074 55.4494 11.5659 54.6124 12.5265C53.7754 13.4872 52.3198 13.586 51.361 12.7474L49.5046 11.1233C48.3488 10.1122 46.674 10.0368 45.4324 10.9405L42.5971 13.0043C42.1882 13.3018 41.7144 13.4452 41.2448 13.4452Z" fill="#495059"/>
<path d="M36.9116 31.7316C48.6094 31.7316 53.8814 26.3621 52.236 18.8022C50.468 10.6776 44.8987 6.23071 36.9116 6.23071C28.924 6.23071 23.3551 10.6781 21.5867 18.8022C19.9414 26.3621 25.2133 31.7316 36.9116 31.7316Z" fill="#DDAF89"/>
<path d="M39.9844 35.7586C39.9844 37.4589 38.6086 38.8373 36.9116 38.8373C35.2141 38.8373 33.8383 37.4589 33.8383 35.7586C33.8383 34.0578 35.2141 32.6794 36.9116 32.6794C38.6086 32.6794 39.9844 34.0578 39.9844 35.7586Z" fill="#F6E06A"/>
<path d="M30.8163 16.0026C30.8163 14.7697 29.564 13.7701 28.0187 13.7701C26.4737 13.7701 25.2214 14.7697 25.2214 16.0026C25.2214 17.235 26.4737 18.2346 28.0187 18.2346C29.564 18.2346 30.8163 17.235 30.8163 16.0026Z" fill="#FFDBDB"/>
<path d="M46.5167 16.0026C46.5167 14.7697 45.264 13.7701 43.7191 13.7701C42.1737 13.7701 40.9214 14.7697 40.9214 16.0026C40.9214 17.235 42.1737 18.2346 43.7191 18.2346C45.264 18.2346 46.5167 17.235 46.5167 16.0026Z" fill="#FFDBDB"/>
<path d="M37.3363 14.1575C36.3741 13.9049 35.3636 13.9049 34.4019 14.1575C34.0032 14.262 33.6563 14.5072 33.4247 14.8484C33.112 15.309 33.2919 15.9413 33.7999 16.1678L35.2094 16.7958C35.6294 16.9828 36.1088 16.9828 36.5283 16.7958L37.9378 16.1678C38.4459 15.9413 38.6257 15.309 38.313 14.8484C38.0814 14.5072 37.7345 14.262 37.3363 14.1575Z" fill="#495059"/>
<path d="M35.8597 25.2881C37.5935 25.2881 38.9992 23.9807 38.9992 21.6948C38.9992 19.1515 37.9909 18.6036 35.8597 18.6036C33.7285 18.6036 32.7202 19.1511 32.7202 21.6948C32.7202 23.9807 34.1255 25.2881 35.8597 25.2881Z" fill="#D16283"/>
<path d="M35.8597 22.3583C34.742 22.3583 33.7255 22.6763 32.9586 23.1956C33.4303 24.5432 34.5514 25.2881 35.8597 25.2881C37.168 25.2881 38.2886 24.5432 38.7603 23.1956C37.9934 22.6763 36.977 22.3583 35.8597 22.3583Z" fill="#EB9898"/>
<path d="M40.3988 31.9097L36.3972 32.6164L38.4676 41.7247C38.5535 42.1023 38.9193 42.3455 39.2995 42.2782L40.9697 41.9833C41.3499 41.9161 41.6105 41.5621 41.5623 41.1781L40.3988 31.9097Z" fill="#D16283"/>
<path d="M40.8389 31.8318L35.9567 32.6939C35.2513 32.8189 34.5783 32.3468 34.4536 31.6396L33.8195 28.036C33.6952 27.3292 34.1665 26.6546 34.8719 26.53L39.7541 25.6674C40.4599 25.5428 41.1329 26.015 41.2572 26.7222L41.8913 30.3258C42.016 31.033 41.5448 31.7072 40.8389 31.8318Z" fill="#495059"/>
<path d="M39.0009 39.0651C37.7559 39.0051 36.7954 37.9448 36.8561 36.6978C36.9159 35.4504 37.9742 34.488 39.2188 34.5484C42.2305 34.6944 44.1053 32.497 44.6082 31.8198C45.3521 30.8181 46.7659 30.6105 47.7656 31.3557C48.7658 32.1015 48.9731 33.518 48.2288 34.5197C45.9874 37.5373 42.5377 39.2363 39.0009 39.0651Z" fill="#C49B7A"/>
<path d="M10.7814 29.8146H10.7887C11.1736 29.815 11.4889 29.5111 11.4889 29.1258V23.4375C11.4889 22.4439 12.1961 21.5912 13.1711 21.4088L17.3154 20.6344C17.8076 20.5424 18.2627 20.9208 18.2627 21.4225V23.4054C18.2627 24.0843 17.7794 24.6669 17.1134 24.7915L15.1971 25.1494C14.8019 25.2234 14.5152 25.5689 14.5152 25.9717V32.5924C14.5152 34.1267 12.8438 35.3703 10.7814 35.3703C8.71946 35.3703 7.04761 34.1263 7.04761 32.5924C7.04761 31.0582 8.71946 29.8146 10.7814 29.8146Z" fill="#A0D9BB"/>
<path d="M4.55414 18.9521H4.56141C4.94594 18.9525 5.26168 18.6486 5.26168 18.2629V12.5745C5.26168 11.5809 5.96836 10.7282 6.94336 10.5462L11.0882 9.77142C11.5804 9.67981 12.035 10.0582 12.035 10.5599V12.5424C12.035 13.2213 11.5522 13.804 10.8857 13.9285L8.96984 14.2864C8.5742 14.3605 8.28794 14.7059 8.28794 15.1087V21.7295C8.28794 23.2637 6.61608 24.5073 4.55414 24.5073C2.49177 24.5073 0.820343 23.2637 0.820343 21.7295C0.820343 20.1952 2.49177 18.9521 4.55414 18.9521Z" fill="#F6E06A"/>
<path d="M40.542 14.8249C40.9949 14.8249 41.3623 14.4572 41.3623 14.003C41.3623 13.6019 41.6879 13.2752 42.0887 13.2752C42.489 13.2752 42.8146 13.6019 42.8146 14.003C42.8146 14.4572 43.182 14.8249 43.6349 14.8249C44.0882 14.8249 44.4552 14.4572 44.4552 14.003C44.4552 12.6956 43.3935 11.6314 42.0887 11.6314C40.7834 11.6314 39.7217 12.6956 39.7217 14.003C39.7217 14.4572 40.0891 14.8249 40.542 14.8249ZM19.083 23.4054V21.4225C19.083 20.9383 18.8694 20.4833 18.4977 20.1738C18.126 19.8643 17.6402 19.7376 17.1651 19.8262L13.0207 20.601C11.6577 20.8557 10.6686 22.0484 10.6686 23.4375V28.9936C8.20974 29.0415 6.22727 30.6374 6.22727 32.5925C6.22727 34.577 8.27041 36.1922 10.7814 36.1922C13.2924 36.1922 15.3355 34.577 15.3355 32.5925V25.9717C15.3355 25.9649 15.3407 25.9589 15.3475 25.9576L17.2637 25.5993C18.3178 25.4024 19.083 24.4799 19.083 23.4054ZM10.7814 29.8146L10.7818 30.1297L10.7814 30.1421V29.8146ZM16.963 23.9833L15.0467 24.3416C14.2631 24.488 13.6949 25.1734 13.6949 25.9717V32.5925C13.6949 33.6528 12.3605 34.5484 10.7814 34.5484C9.20226 34.5484 7.86794 33.6528 7.86794 32.5925C7.86794 31.533 9.20098 30.6374 10.7793 30.6365C10.7827 30.637 10.7861 30.6365 10.7895 30.637C11.198 30.637 11.5812 30.4786 11.8683 30.1909C12.1529 29.9067 12.3093 29.5282 12.3093 29.1258V23.4375C12.3093 22.8399 12.7348 22.3266 13.321 22.217L17.4419 21.4469V23.4054C17.4423 23.6883 17.2407 23.9315 16.963 23.9833ZM28.9232 14.003C28.9232 13.6019 29.2487 13.2752 29.6495 13.2752C30.0498 13.2752 30.3754 13.6019 30.3754 14.003C30.3754 14.4572 30.7429 14.8249 31.1957 14.8249C31.6491 14.8249 32.0161 14.4572 32.0161 14.003C32.0161 12.6956 30.9543 11.6314 29.6495 11.6314C28.3442 11.6314 27.2825 12.6956 27.2825 14.003C27.2825 14.4572 27.6495 14.8249 28.1028 14.8249C28.5557 14.8249 28.9232 14.4572 28.9232 14.003ZM54.932 8.64982L53.0751 7.02568C51.5973 5.73287 49.7037 4.97217 47.7434 4.88441C45.9536 4.80521 44.1647 5.29066 42.6578 6.25812C40.9107 5.69348 38.9915 5.40881 36.9116 5.40881C34.8313 5.40881 32.912 5.69348 31.165 6.25812C29.658 5.29109 27.8691 4.80479 26.0793 4.88441C24.1191 4.97217 22.2255 5.73287 20.7476 7.02568L18.8912 8.64982C17.5932 9.78509 17.459 11.7667 18.5925 13.0672C19.209 13.7752 20.0764 14.1374 20.948 14.1374C21.4821 14.1374 22.0166 14 22.4972 13.7243C21.7512 15.1858 21.1783 16.8215 20.7852 18.6271C20.2422 21.1229 20.4024 23.396 21.262 25.3827C21.4419 25.7992 21.9247 25.991 22.3408 25.8103C22.7566 25.6297 22.9475 25.1455 22.7672 24.729C22.0473 23.0651 21.92 21.1297 22.3883 18.9773C23.112 15.6528 24.4878 12.976 26.4365 11.006C26.4861 10.967 26.5305 10.9221 26.5698 10.8733C27.8866 9.5809 29.4589 8.60573 31.2624 7.9636C31.297 7.95419 31.3312 7.9422 31.3645 7.92807C33.0253 7.35102 34.8787 7.05264 36.9112 7.05264C38.9432 7.05264 40.7962 7.35102 42.4565 7.92764C42.4911 7.9422 42.5266 7.95504 42.5625 7.96446C44.3647 8.60658 45.9365 9.58133 47.2529 10.8729C47.2922 10.9221 47.3362 10.967 47.3862 11.0064C49.3354 12.976 50.7111 15.6532 51.4345 18.9773C52.0318 21.7226 51.6673 24.0865 50.3505 26.003C48.8923 28.1254 46.2689 29.6199 42.7223 30.363C42.7167 30.3031 42.7099 30.2431 42.6992 30.1832L42.0652 26.5796C41.8622 25.4272 40.762 24.6554 39.6114 24.8583L38.5518 25.0454C39.3487 24.2615 39.8191 23.0916 39.8191 21.6948C39.8191 20.1965 39.4854 19.2059 38.7684 18.577C38.1874 18.0672 37.4367 17.8788 36.689 17.8138V17.6151C36.7471 17.5946 36.8048 17.5723 36.8616 17.5471L38.2711 16.9191C38.736 16.7119 39.0825 16.3116 39.2222 15.8215C39.3615 15.3313 39.2773 14.8082 38.9915 14.3865C38.6484 13.881 38.134 13.5171 37.5439 13.3626C37.5435 13.3626 37.5435 13.3626 37.5435 13.3626C36.448 13.0749 35.2897 13.0749 34.1938 13.3626C33.6038 13.5171 33.0893 13.881 32.7463 14.3865C32.46 14.8082 32.3763 15.3313 32.5155 15.8215C32.6548 16.3116 33.0018 16.7119 33.4666 16.9191L34.8761 17.5471C34.933 17.5723 34.9902 17.5946 35.0483 17.6151V17.8138C33.329 17.9619 31.8994 18.7149 31.8994 21.6952C31.8994 23.6875 32.8569 25.2183 34.354 25.8253C33.4175 26.1768 32.8317 27.158 33.0116 28.1794L33.4606 30.7316C29.6038 30.3125 26.5626 29.1472 24.6241 27.3356C24.293 27.0257 23.7739 27.0441 23.4645 27.3758C23.1556 27.708 23.1736 28.2282 23.5051 28.5377C23.8644 28.8737 24.252 29.1883 24.6655 29.4824C24.5686 29.8343 24.531 30.1939 24.5498 30.5484C23.3099 30.208 22.4054 29.5013 22.1088 29.2457C20.8228 28.137 18.8762 28.283 17.7696 29.5715C16.663 30.86 16.8087 32.8103 18.0948 33.9191C20.2879 35.8103 22.9796 36.8523 25.7345 36.8938C26.3622 38.5514 27.4201 40.0274 28.7869 41.2089C28.2707 43.1922 27.9383 45.6537 28.7946 48.9499C29.147 50.3082 30.3711 51.2573 31.7708 51.2573C32.0319 51.2573 32.2929 51.2234 32.5472 51.1571C33.3427 50.9495 34.0097 50.4443 34.4258 49.7341C34.842 49.0244 34.9573 48.1943 34.7501 47.3973C34.4232 46.1387 34.3438 45.0873 34.5044 43.9435C35.2816 44.0907 36.087 44.1687 36.9116 44.1687C37.0231 44.1687 37.1333 44.1648 37.2444 44.1618C37.3969 45.9713 37.9387 48.5877 39.6956 50.351C40.2767 50.9349 41.0504 51.2564 41.8733 51.2564C42.6941 51.2564 43.4661 50.9366 44.0468 50.3557C44.2758 50.1267 44.4663 49.8651 44.6129 49.5788C44.8193 49.1746 44.6599 48.6794 44.2566 48.4726C43.8537 48.2658 43.3589 48.4255 43.1525 48.8292C43.0842 48.9627 42.9953 49.0848 42.8881 49.1922C42.6167 49.4632 42.2566 49.6126 41.8733 49.6126C41.4892 49.6126 41.1282 49.4623 40.8569 49.1901C39.7687 48.0976 39.065 46.238 38.88 44.0175C39.8656 43.8673 40.812 43.6049 41.7033 43.2453C41.7503 44.5124 42.0182 45.7534 42.4454 46.5419C42.5941 46.8163 42.8757 46.9722 43.1671 46.9722C43.2991 46.9722 43.4332 46.9401 43.5576 46.8724C43.9558 46.6558 44.1036 46.1567 43.8874 45.7577C43.5025 45.0471 43.2867 43.6785 43.3465 42.4358C43.4208 42.3917 43.4939 42.3463 43.567 42.3009C45.2465 43.515 46.9051 44.1083 48.6218 44.1083C49.7579 44.1083 50.9256 43.8566 52.1907 43.339C52.8402 43.0732 53.3473 42.5702 53.619 41.9221C53.8904 41.2744 53.8942 40.5595 53.6289 39.9088C53.0816 38.5659 51.5456 37.9195 50.2053 38.4679C49.2768 38.848 48.4924 39.0732 47.3409 38.4722C47.8754 37.5586 48.2698 36.5621 48.5009 35.5038C48.633 35.3429 48.762 35.1789 48.8872 35.0107C49.3781 34.3502 49.5823 33.5377 49.4635 32.723C49.4033 32.3112 49.2636 31.9238 49.0551 31.5775C49.3097 30.9067 49.346 30.1669 49.1555 29.4764C50.1856 28.7483 51.0406 27.899 51.7024 26.9353C53.264 24.6622 53.7259 21.7894 53.0375 18.6276C52.6449 16.8219 52.0719 15.1862 51.326 13.7247C51.8062 14.0004 52.3411 14.1378 52.8752 14.1378C53.7468 14.1378 54.6141 13.7752 55.2307 13.0676C56.3637 11.7667 56.2296 9.78509 54.932 8.64982ZM26.3994 8.83218C26.0998 9.07619 25.8132 9.33389 25.5346 9.60102C24.886 9.75384 24.2832 10.0629 23.7786 10.5043L21.9221 12.1284C21.3056 12.6674 20.3665 12.6036 19.8281 11.9859C19.2902 11.3686 19.3539 10.4272 19.97 9.88826L21.8264 8.26412C23.0257 7.21489 24.5622 6.59802 26.1528 6.52653C27.1859 6.4803 28.2182 6.6678 29.1693 7.06163C28.1776 7.54622 27.2534 8.13655 26.3994 8.83218ZM19.1646 32.6729C18.5643 32.155 18.4964 31.2444 19.0129 30.6434C19.5295 30.0419 20.4383 29.9739 21.0386 30.491C21.6132 30.9863 23.1082 32.101 25.1454 32.3356C25.109 32.6828 25.0898 33.0317 25.0898 33.3784C25.0898 34.0103 25.1505 34.6288 25.265 35.2312C23.0668 35.086 20.9326 34.1973 19.1646 32.6729ZM41.9784 32.1721C42.4971 32.0877 43.0009 31.9893 43.4888 31.8771C43.0393 32.3544 42.3369 32.9619 41.4063 33.3493L41.3068 32.5544C41.5537 32.4692 41.7806 32.3399 41.9784 32.1721ZM39.8964 26.4769C39.9246 26.4722 39.9524 26.4696 39.9797 26.4696C40.207 26.4696 40.4087 26.6331 40.4493 26.8647L41.0838 30.4683C41.1295 30.7277 40.9556 30.9764 40.6967 31.0222L35.8144 31.8844C35.555 31.9302 35.3072 31.7564 35.2615 31.497L35.2602 31.4889C35.2598 31.4876 35.2598 31.4863 35.2594 31.4846C35.2594 31.4837 35.259 31.4824 35.2585 31.4812L34.6275 27.8934C34.5813 27.6336 34.7552 27.3853 35.0141 27.3395L39.8964 26.4769ZM39.7998 33.7234C39.6242 33.7337 39.4439 33.7363 39.2585 33.7273C38.6505 33.6978 38.0754 33.8489 37.5828 34.1323L37.388 33.2761L39.6926 32.869L39.7998 33.7234ZM36.2365 37.9114C35.323 37.6233 34.6587 36.7675 34.6587 35.7586C34.6587 34.9114 35.1188 34.1682 35.8208 33.7821L36.2502 35.6712C36.1284 35.9782 36.0532 36.3099 36.0366 36.658C36.0156 37.0925 36.0853 37.5171 36.2365 37.9114ZM34.1331 15.4165C34.1254 15.4131 34.1024 15.4028 34.0934 15.3707C34.084 15.3386 34.0981 15.3176 34.1028 15.3108C34.2233 15.134 34.4027 15.0064 34.6095 14.9525C35.0214 14.8442 35.4452 14.7902 35.8691 14.7902C36.2925 14.7902 36.7163 14.8442 37.1282 14.9525C37.335 15.0064 37.5149 15.1336 37.6345 15.3108C37.6392 15.3176 37.6537 15.3386 37.6443 15.3707C37.6354 15.4028 37.6123 15.4131 37.6046 15.4165L36.1951 16.0445C35.9879 16.137 35.7499 16.137 35.5427 16.0445L34.1331 15.4165ZM33.5405 21.6948C33.5405 19.723 34.0626 19.4255 35.8597 19.4255H35.8691C37.658 19.4268 38.1784 19.7269 38.1784 21.6948C38.1784 23.3784 37.2683 24.4662 35.8593 24.4662C34.4506 24.4662 33.5405 23.378 33.5405 21.6948ZM26.616 31.5167C26.6143 31.515 26.613 31.5133 26.6113 31.5115C26.3442 31.2042 26.1947 30.8116 26.1866 30.408C28.2532 31.4812 30.824 32.1562 33.8708 32.4234C33.9699 32.6062 34.093 32.7727 34.2374 32.9165C33.8511 33.2808 33.5414 33.7222 33.3312 34.2162C31.106 33.8044 28.9911 33.0163 27.036 31.8664C26.874 31.771 26.7343 31.6515 26.616 31.5167ZM33.0112 48.902C32.8168 49.2333 32.5053 49.4692 32.134 49.5659C32.0144 49.5972 31.8922 49.613 31.7708 49.613C31.118 49.613 30.5467 49.1699 30.3822 48.5355C29.7068 45.9336 29.8448 43.9623 30.2186 42.2675C31.0458 42.7877 31.9481 43.2145 32.9082 43.5308C32.683 44.9585 32.7646 46.2791 33.1624 47.8108C33.259 48.1828 33.2051 48.5702 33.0112 48.902ZM36.9116 42.5244C31.3739 42.5244 26.8552 38.5325 26.7335 33.5835C28.7014 34.6665 30.8104 35.4199 33.0201 35.83C33.0586 37.9482 34.7885 39.6592 36.9116 39.6592C36.9928 39.6592 37.0735 39.6554 37.1547 39.6502L37.6678 41.9075C37.7161 42.1203 37.8067 42.3121 37.928 42.4782C37.5931 42.5077 37.2542 42.5244 36.9116 42.5244ZM39.247 41.4533L38.8898 39.881C38.9137 39.8827 38.9372 39.8848 38.9611 39.8861C39.1376 39.8947 39.3136 39.899 39.4897 39.899C39.8511 39.899 40.2109 39.8801 40.5681 39.845L40.7372 41.1901L39.247 41.4533ZM43.2123 40.5689C43.1559 40.5984 43.103 40.6357 43.0538 40.6789C42.8351 40.8275 42.6099 40.9683 42.3783 41.1006C42.3775 41.0925 42.3775 41.0839 42.3762 41.0753L42.1865 39.5629C43.4196 39.2534 44.6014 38.7333 45.6866 38.0278C45.652 38.0805 45.6157 38.1318 45.5802 38.1836C45.5618 38.205 45.5439 38.2273 45.5272 38.2508C45.5067 38.28 45.4892 38.3099 45.473 38.3407C44.8598 39.1952 44.0933 39.9465 43.2123 40.5689ZM48.5326 40.4863C49.396 40.5214 50.145 40.268 50.8252 39.9893C51.3281 39.7834 51.904 40.0261 52.1095 40.53C52.2091 40.774 52.2078 41.0424 52.1057 41.2851C52.004 41.5282 51.8139 41.717 51.5699 41.8168C50.5056 42.2521 49.5409 42.464 48.6214 42.464C47.3888 42.464 46.2104 42.0835 44.9726 41.2774C45.493 40.8352 45.9694 40.3502 46.3963 39.827C47.129 40.241 47.8331 40.458 48.5326 40.4863ZM47.5708 34.0287C45.4926 36.8266 42.3027 38.4032 39.0406 38.244C38.7535 38.2303 38.483 38.1331 38.257 37.9653L38.2566 37.9649C38.181 37.9088 38.1109 37.845 38.0464 37.774C37.7883 37.4893 37.6567 37.1211 37.6751 36.7371C37.6858 36.5175 37.7469 36.3121 37.8443 36.1297C37.8443 36.1293 37.8447 36.1288 37.8447 36.1284C38.0883 35.6742 38.5664 35.3677 39.109 35.3677C39.132 35.3677 39.1555 35.3681 39.179 35.3694C42.5971 35.5342 44.7022 33.0698 45.2666 32.3103C45.4956 32.0021 45.8306 31.8014 46.21 31.7457C46.5898 31.6901 46.9684 31.7855 47.276 32.015C47.584 32.2444 47.784 32.5805 47.84 32.9606C47.8955 33.3412 47.7998 33.7205 47.5708 34.0287ZM53.9946 11.9859C53.4567 12.6036 52.5172 12.6674 51.9006 12.1284L50.0442 10.5043C49.5396 10.0629 48.9367 9.75384 48.2886 9.60059C48.01 9.33389 47.7229 9.07576 47.4234 8.83175C46.5693 8.13612 45.6451 7.54622 44.6535 7.06163C45.6041 6.66737 46.6368 6.47987 47.6699 6.52653C49.2606 6.59759 50.797 7.21489 51.9963 8.26412L53.8528 9.88783C54.4693 10.4272 54.5329 11.3686 53.9946 11.9859ZM9.10784 21.7294V15.1092C9.10784 15.1019 9.11296 15.0959 9.1198 15.0946L11.036 14.7367C12.0901 14.5398 12.8553 13.6169 12.8553 12.5424V10.5599C12.8553 10.0753 12.6421 9.62028 12.2704 9.31078C11.8983 9.00128 11.4125 8.87499 10.9374 8.9636L6.79296 9.738C5.43044 9.99271 4.44134 11.1858 4.44134 12.5745V18.131C1.98205 18.1785 0 19.7744 0 21.7294C0 23.7145 2.04314 25.3292 4.55413 25.3292C7.06512 25.3292 9.10784 23.7145 9.10784 21.7294ZM4.55413 18.952V19.2868V18.952ZM7.46717 15.1092V21.7294C7.46717 22.7898 6.13327 23.6853 4.55413 23.6853C2.97456 23.6853 1.64067 22.7898 1.64067 21.7294C1.64067 20.6699 2.97328 19.7744 4.55157 19.774H4.56225C4.97071 19.774 5.35353 19.6156 5.64107 19.3279C5.9252 19.0437 6.082 18.6652 6.082 18.2628V12.5745C6.082 11.9769 6.50755 11.4636 7.09375 11.354L11.2146 10.5839V12.5424C11.2146 12.8253 11.013 13.0689 10.7353 13.1207L8.81901 13.4786C8.03585 13.625 7.46717 14.3108 7.46717 15.1092Z" fill="#151515"/>
</g>
<defs>
<clipPath id="clip0_328_10360">
<rect width="56" height="56" fill="white"/>
</clipPath>
</defs>
</svg>
