<svg width="375" height="152" viewBox="0 0 375 152" fill="none" xmlns="http://www.w3.org/2000/svg">
<path d="M257.942 79.1332C257.701 79.6576 257.352 80.1253 256.919 80.5061C256.59 80.7804 256.202 80.9757 255.786 81.0771C255.37 81.1785 254.936 81.1832 254.518 81.091C253.713 80.9607 252.964 80.5951 252.366 80.0403C251.798 79.5258 251.19 79.0574 250.547 78.6394C249.851 78.2016 249.072 77.913 248.259 77.7919C247.687 77.6973 247.116 77.6343 246.545 77.5783C245.776 77.5173 245.037 77.2499 244.407 76.8043C243.925 76.4982 243.546 76.0553 243.318 75.5323C243.09 75.0094 243.024 74.4303 243.128 73.8694C243.216 73.2359 243.465 72.6354 243.85 72.1244C244.235 71.6134 244.744 71.2088 245.329 70.9486C245.946 70.6439 246.604 70.4128 247.246 70.1501C247.537 70.031 247.828 69.9189 248.118 69.7999C248.615 69.5655 249.054 69.2247 249.405 68.8017C249.618 68.5671 249.832 68.3324 250.05 68.1013C250.43 67.6869 250.912 67.3788 251.448 67.2074C251.984 67.036 252.555 67.0074 253.106 67.1242C254.02 67.2675 254.877 67.6588 255.583 68.2554C255.982 68.5647 256.3 68.9649 256.512 69.4226C256.723 69.8802 256.822 70.3819 256.8 70.8855C256.8 71.1972 256.778 71.5124 256.747 71.8206C256.663 72.5979 256.791 73.3833 257.118 74.0936C257.409 74.7625 257.697 75.4629 257.942 76.1634C258.234 76.9166 258.295 77.7394 258.117 78.5274C258.072 78.7235 257.998 78.9266 257.942 79.1332Z" fill="#F5F5F5"/>
<path d="M254.974 64.7462C254.715 65.3833 254.24 65.909 253.632 66.2311C253.371 66.3692 253.085 66.4515 252.79 66.4728C252.459 66.4941 252.127 66.4424 251.817 66.3214C251.508 66.2003 251.229 66.0129 251 65.7723C250.71 65.495 250.486 65.1563 250.344 64.7812C249.745 63.0826 250.067 61.6748 251.336 60.5786C251.546 60.4123 251.783 60.2843 252.037 60.2003C252.476 60.0631 252.947 60.0642 253.386 60.2032C253.825 60.3423 254.21 60.6127 254.49 60.9778C254.904 61.4762 255.161 62.0853 255.23 62.7289C255.329 63.4121 255.24 64.1093 254.974 64.7462Z" fill="#F5F5F5"/>
<path d="M261.215 66.7074C260.968 67.158 260.634 67.555 260.232 67.8754C259.83 68.1958 259.368 68.4333 258.874 68.5741C258.574 68.656 258.263 68.6949 257.952 68.6897C257.496 68.6978 257.05 68.5577 256.681 68.2905C256.312 68.0233 256.04 67.6435 255.905 67.2083C255.743 66.661 255.763 66.0755 255.965 65.5412C256.143 65.0251 256.429 64.5533 256.805 64.1575C257.181 63.7617 257.638 63.4513 258.145 63.2473C258.569 63.0631 259.029 62.978 259.491 62.9986C259.936 63.0012 260.37 63.1435 260.73 63.4056C261.09 63.6676 261.359 64.0361 261.499 64.459C261.664 64.9961 261.651 65.572 261.464 66.1016C261.387 66.3572 261.274 66.5779 261.215 66.7074Z" fill="#F5F5F5"/>
<path d="M244.221 64.6762C244.401 64.23 244.692 63.837 245.066 63.5344C246.005 62.813 247.263 63.0021 248.097 63.9967C248.599 64.5862 248.891 65.3251 248.928 66.0981C248.983 66.5621 248.936 67.0325 248.791 67.4768C248.647 67.9212 248.408 68.329 248.09 68.6722C247.945 68.8212 247.782 68.9508 247.603 69.0574C247.2 69.2882 246.732 69.379 246.271 69.3156C245.811 69.2522 245.385 69.0383 245.059 68.7072C244.592 68.2709 244.261 67.709 244.106 67.0892C243.875 66.2943 243.916 65.4453 244.221 64.6762Z" fill="#F5F5F5"/>
<path d="M263.287 72.8293C263.043 73.3466 262.684 73.8016 262.237 74.1596C261.791 74.5176 261.269 74.7693 260.711 74.8956C260.241 75.025 259.744 75.025 259.274 74.8956C258.954 74.818 258.659 74.6625 258.415 74.4431C258.17 74.2238 257.984 73.9472 257.872 73.6383C257.668 73.092 257.679 72.4885 257.904 71.9503C258.105 71.4059 258.432 70.9169 258.858 70.5231C259.284 70.1292 259.798 69.8418 260.357 69.6843C261.02 69.4496 261.749 69.481 262.39 69.7719C262.638 69.8841 262.861 70.0475 263.042 70.2515C263.223 70.4555 263.359 70.6955 263.441 70.9556C263.621 71.578 263.566 72.2447 263.287 72.8293Z" fill="#F5F5F5"/>
<path d="M236.914 36.5885C236.324 37.404 235.568 38.0856 234.695 38.5882C233.329 39.3902 231.867 39.2887 230.385 38.7704C229.049 38.2772 227.889 37.3998 227.052 36.2488C226.255 35.1764 225.375 34.1682 224.42 33.2334C223.378 32.2467 222.143 31.487 220.792 31.0025C219.85 30.6522 218.889 30.3405 217.929 30.0499C216.632 29.6843 215.459 28.9752 214.533 27.9976C213.033 26.369 212.598 24.5654 213.345 22.5376C214.172 20.2927 215.798 18.9058 218.111 18.2895C219.271 17.9778 220.48 17.8061 221.665 17.589L223.277 17.2808C224.211 17.0503 225.081 16.6148 225.825 16.006C226.27 15.6803 226.719 15.3511 227.167 15.0289C228.86 13.8136 230.721 13.649 232.733 14.3985C234.249 14.9534 235.583 15.9156 236.588 17.1793C237.163 17.8425 237.571 18.6338 237.777 19.4868C237.983 20.3399 237.981 21.23 237.772 22.0823C237.65 22.6147 237.524 23.133 237.359 23.6653C236.953 24.9689 236.905 26.3578 237.222 27.6859C237.503 28.9467 237.758 30.2145 237.951 31.4893C238.198 32.8768 238.023 34.3062 237.45 35.5939C237.292 35.9336 237.096 36.2558 236.914 36.5885Z" fill="#EBEBEB"/>
<path d="M236.759 10.9418C236.099 11.948 235.107 12.6914 233.955 13.0431C233.463 13.1909 232.945 13.2339 232.434 13.1692C231.859 13.0958 231.307 12.8968 230.817 12.5863C230.327 12.2758 229.911 11.8615 229.599 11.3726C229.195 10.8011 228.928 10.1445 228.818 9.45338C228.369 6.33992 229.403 4.03897 231.947 2.59957C232.37 2.38402 232.828 2.24865 233.3 2.20032C234.881 1.97968 236.423 2.83772 237.246 4.36468C237.783 5.36036 238.016 6.49162 237.916 7.61823C237.831 8.80887 237.432 9.9558 236.759 10.9418Z" fill="#EBEBEB"/>
<path d="M246.769 16.4508C245.497 17.8236 244.067 18.7027 242.126 18.8533C241.583 18.8909 241.038 18.8508 240.507 18.7342C239.724 18.5932 239.008 18.2016 238.468 17.6185C237.927 17.0354 237.591 16.2924 237.51 15.5017C237.417 14.5095 237.652 13.5142 238.18 12.6684C238.66 11.8458 239.312 11.136 240.091 10.5867C240.869 10.0375 241.757 9.66178 242.694 9.4849C243.482 9.31185 244.3 9.32264 245.084 9.51642C245.845 9.67233 246.539 10.0636 247.066 10.6349C247.593 11.2062 247.927 11.9286 248.021 12.6999C248.121 13.6762 247.904 14.659 247.4 15.5017C247.187 15.8834 246.92 16.2301 246.769 16.4508Z" fill="#EBEBEB"/>
<path d="M218.371 7.16994C218.828 6.46435 219.461 5.88981 220.207 5.50289C222.061 4.58531 224.146 5.33828 225.24 7.32403C225.887 8.49765 226.133 9.85031 225.941 11.1765C225.72 12.875 225.033 14.3074 223.624 15.2986C223.326 15.5046 223.002 15.6695 222.66 15.7889C221.129 16.3352 219.478 15.7538 218.43 14.3074C217.779 13.4012 217.403 12.3261 217.347 11.2115C217.235 9.78854 217.595 8.36819 218.371 7.16994Z" fill="#EBEBEB"/>
<path d="M248.231 27.6193C247.638 28.4234 246.869 29.0815 245.983 29.5434C245.096 30.0053 244.116 30.2588 243.117 30.2845C242.268 30.3366 241.421 30.1587 240.664 29.7697C240.145 29.5261 239.693 29.1589 239.349 28.7003C239.005 28.2417 238.779 27.7058 238.691 27.1395C238.531 26.1336 238.756 25.1045 239.322 24.2572C239.848 23.3942 240.571 22.6678 241.431 22.137C242.292 21.6063 243.266 21.2864 244.274 21.2033C245.489 21.0214 246.727 21.3232 247.722 22.0438C248.115 22.3177 248.445 22.672 248.69 23.0833C248.934 23.4946 249.088 23.9533 249.142 24.4288C249.282 25.5915 248.907 26.5722 248.231 27.6193Z" fill="#EBEBEB"/>
<path d="M192.331 27.6719C192.575 28.3068 192.681 28.9858 192.643 29.6646C192.594 30.7153 192.006 31.5243 191.157 32.1652C190.386 32.7385 189.461 33.07 188.501 33.1178C187.601 33.1711 186.707 33.2964 185.827 33.4925C184.882 33.7158 183.995 34.1346 183.223 34.7218C182.676 35.121 182.147 35.5518 181.628 35.9861C180.943 36.5836 180.109 36.9842 179.214 37.1453C177.738 37.394 176.56 36.9737 175.688 35.804C175.227 35.2072 174.926 34.5031 174.814 33.7581C174.701 33.013 174.78 32.2515 175.043 31.5453C175.295 30.7748 175.642 30.0288 175.951 29.2724C176.087 28.9221 176.235 28.5719 176.371 28.2497C176.582 27.637 176.657 26.9855 176.589 26.341C176.568 25.9663 176.546 25.595 176.532 25.2203C176.496 24.5586 176.633 23.8987 176.931 23.3064C177.228 22.7141 177.676 22.21 178.229 21.8442C179.103 21.1933 180.14 20.7948 181.225 20.692C181.814 20.6106 182.414 20.6722 182.974 20.8715C183.534 21.0709 184.038 21.4021 184.442 21.8372C184.698 22.1033 184.954 22.3695 185.185 22.6532C185.773 23.3643 186.542 23.9039 187.411 24.2152C188.228 24.5199 189.037 24.8456 189.829 25.2063C190.706 25.5771 191.451 26.2031 191.967 27.0029C192.1 27.2166 192.209 27.4477 192.331 27.6719Z" fill="#F5F5F5"/>
<path d="M177.766 18.2999C178.088 19.0447 178.139 19.8786 177.91 20.6569C177.812 20.9906 177.645 21.2998 177.419 21.564C177.165 21.8603 176.849 22.0975 176.494 22.2591C176.139 22.4206 175.752 22.5025 175.362 22.4991C174.889 22.517 174.419 22.4259 173.988 22.2329C172.06 21.3399 171.142 19.904 171.265 17.9357C171.298 17.6182 171.389 17.3095 171.535 17.0251C171.781 16.5403 172.171 16.143 172.651 15.8874C173.132 15.6317 173.679 15.5301 174.219 15.5962C174.979 15.6601 175.704 15.945 176.304 16.4158C176.95 16.903 177.455 17.5533 177.766 18.2999Z" fill="#F5F5F5"/>
<path d="M184.575 14.6787C184.751 15.2567 184.81 15.8637 184.75 16.4647C184.69 17.0658 184.511 17.649 184.225 18.1809C184.045 18.5017 183.821 18.7953 183.559 19.0529C183.19 19.4425 182.704 19.7017 182.175 19.7914C181.646 19.8811 181.102 19.7965 180.625 19.5502C180.03 19.2381 179.554 18.7399 179.269 18.1318C178.981 17.5564 178.821 16.9262 178.797 16.2835C178.773 15.6407 178.888 15.0004 179.132 14.4055C179.325 13.8961 179.634 13.4383 180.033 13.0677C180.402 12.694 180.879 12.4458 181.396 12.3584C181.914 12.271 182.446 12.3489 182.917 12.5808C183.51 12.8883 183.986 13.38 184.274 13.9817C184.407 14.2339 184.501 14.5246 184.575 14.6787Z" fill="#F5F5F5"/>
<path d="M168.843 27.2936C168.614 26.7746 168.523 26.205 168.58 25.6406C168.745 24.2397 169.94 23.3536 171.468 23.4692C172.376 23.5381 173.236 23.8994 173.921 24.4989C174.356 24.8366 174.714 25.2642 174.968 25.7526C175.223 26.241 175.369 26.7786 175.397 27.3286C175.402 27.5726 175.376 27.8162 175.32 28.0536C175.18 28.5832 174.869 29.0516 174.434 29.385C174 29.7185 173.467 29.8982 172.919 29.8958C172.166 29.9308 171.42 29.7458 170.77 29.3634C169.916 28.9058 169.238 28.1778 168.843 27.2936Z" fill="#F5F5F5"/>
<path d="M191.43 17.9742C191.662 18.6034 191.749 19.277 191.683 19.9444C191.617 20.6118 191.399 21.2554 191.048 21.8267C190.762 22.3256 190.349 22.7391 189.849 23.0244C189.521 23.2287 189.146 23.3487 188.76 23.3738C188.374 23.3988 187.987 23.3282 187.634 23.168C187.007 22.8948 186.506 22.3943 186.233 21.7671C185.94 21.152 185.796 20.4765 185.814 19.7955C185.832 19.1145 186.01 18.4473 186.334 17.8482C186.679 17.0924 187.309 16.5034 188.087 16.2091C188.384 16.0879 188.705 16.0311 189.026 16.0426C189.347 16.0541 189.663 16.1335 189.951 16.2757C190.639 16.6379 191.166 17.2437 191.43 17.9742Z" fill="#F5F5F5"/>
<path d="M149.77 67.8141C150.043 68.5248 150.162 69.285 150.12 70.045C150.068 71.2428 149.419 72.1464 148.463 72.8468C147.6 73.4942 146.564 73.8709 145.487 73.929C144.477 73.9924 143.474 74.1365 142.487 74.3598C141.429 74.6185 140.437 75.0957 139.575 75.7607C138.962 76.2124 138.373 76.6957 137.791 77.186C137.025 77.8582 136.091 78.3119 135.089 78.4994C133.435 78.7831 132.11 78.3173 131.129 77.0074C130.608 76.3407 130.267 75.5524 130.137 74.717C130.007 73.8817 130.093 73.027 130.386 72.2339C130.666 71.3689 131.052 70.5319 131.392 69.6808C131.546 69.2956 131.707 68.9138 131.858 68.5286C132.095 67.8418 132.176 67.1109 132.096 66.3887C132.071 65.9685 132.047 65.5517 132.026 65.1315C131.952 63.559 132.611 62.3087 133.915 61.3386C134.893 60.6031 136.054 60.1511 137.272 60.0322C137.933 59.9381 138.606 60.0046 139.235 60.2259C139.864 60.4472 140.43 60.8169 140.886 61.3035C141.173 61.6012 141.46 61.8989 141.723 62.2141C142.384 63.0124 143.249 63.6175 144.226 63.9652C145.144 64.3154 146.055 64.6657 146.942 65.0649C147.926 65.4779 148.764 66.1771 149.346 67.0717C149.511 67.3063 149.647 67.562 149.77 67.8141Z" fill="#F5F5F5"/>
<path d="M133.393 57.3636C133.758 58.1977 133.819 59.1334 133.565 60.0077C133.456 60.3822 133.27 60.7295 133.018 61.0269C132.734 61.3597 132.38 61.6263 131.982 61.8078C131.583 61.9894 131.15 62.0814 130.712 62.0775C130.182 62.0984 129.655 61.999 129.17 61.7868C127.007 60.7922 125.97 59.1882 126.096 56.9783C126.135 56.6222 126.237 56.2759 126.398 55.9557C126.671 55.4104 127.106 54.9625 127.644 54.673C128.181 54.3835 128.795 54.2664 129.401 54.3377C130.255 54.4082 131.07 54.7259 131.746 55.2517C132.473 55.7968 133.041 56.5258 133.393 57.3636Z" fill="#F5F5F5"/>
<path d="M141.012 53.273C141.213 53.9221 141.283 54.6046 141.218 55.2808C141.153 55.9571 140.954 56.6138 140.634 57.213C140.433 57.5718 140.183 57.9007 139.891 58.1901C139.479 58.6291 138.936 58.9225 138.343 59.0261C137.75 59.1297 137.14 59.0379 136.604 58.7645C135.932 58.4181 135.395 57.8588 135.075 57.1745C134.75 56.5306 134.566 55.8244 134.537 55.1036C134.508 54.3828 134.634 53.6642 134.907 52.9963C135.119 52.4242 135.463 51.9096 135.91 51.4939C136.322 51.0772 136.855 50.8003 137.434 50.7023C138.012 50.6043 138.607 50.69 139.134 50.9475C139.796 51.2849 140.332 51.8265 140.662 52.492C140.827 52.7757 140.935 53.0874 141.012 53.273Z" fill="#F5F5F5"/>
<path d="M123.426 67.4919C123.164 66.9116 123.059 66.2728 123.121 65.6393C123.3 64.0843 124.635 63.0686 126.349 63.1877C127.367 63.2583 128.334 63.6592 129.103 64.3294C129.591 64.7044 129.993 65.18 130.281 65.7239C130.569 66.2678 130.736 66.8672 130.771 67.4814C130.78 67.756 130.752 68.0304 130.687 68.2974C130.404 69.4952 129.356 70.3042 128.003 70.3742C127.158 70.4156 126.32 70.2126 125.588 69.7894C124.635 69.281 123.875 68.4738 123.426 67.4919Z" fill="#F5F5F5"/>
<path d="M148.719 56.9363C148.985 57.644 149.085 58.4029 149.014 59.1554C148.942 59.9079 148.7 60.6342 148.305 61.279C147.989 61.8408 147.526 62.3066 146.966 62.6274C146.598 62.8576 146.179 62.9937 145.745 63.0236C145.312 63.0535 144.878 62.9764 144.482 62.799C143.776 62.4871 143.214 61.9205 142.908 61.2125C142.577 60.5231 142.414 59.7656 142.431 59.0014C142.448 58.2371 142.645 57.4876 143.006 56.8137C143.392 55.968 144.094 55.3068 144.962 54.9715C145.298 54.8339 145.659 54.7698 146.022 54.7837C146.385 54.7976 146.74 54.8891 147.064 55.0521C147.83 55.4547 148.419 56.1258 148.719 56.9363Z" fill="#F5F5F5"/>
<path d="M148.214 36.9387C147.989 37.7983 147.584 38.6005 147.026 39.2922C146.157 40.3849 144.923 40.7771 143.521 40.8086C142.267 40.8288 141.035 40.4765 139.982 39.7965C138.984 39.168 137.939 38.6188 136.855 38.154C135.685 37.6659 134.426 37.4274 133.158 37.4535C132.271 37.4535 131.385 37.5166 130.501 37.5796C129.319 37.692 128.128 37.4814 127.056 36.9702C125.304 36.1087 124.375 34.7638 124.344 32.8621C124.309 30.7608 125.206 29.0938 126.909 27.8505C127.768 27.2271 128.704 26.7017 129.608 26.1344C130.014 25.8787 130.428 25.6266 130.834 25.3674C131.527 24.881 132.103 24.2486 132.524 23.5147C132.786 23.1015 133.049 22.6882 133.316 22.282C134.322 20.7445 135.801 20.0195 137.693 19.9985C139.116 19.969 140.519 20.3326 141.748 21.0492C142.434 21.4122 143.024 21.9348 143.466 22.5729C143.908 23.2111 144.19 23.9461 144.289 24.716C144.355 25.1923 144.422 25.6721 144.45 26.1484C144.532 27.3499 144.935 28.5074 145.617 29.5C146.251 30.4456 146.865 31.4087 147.429 32.3928C148.072 33.4567 148.382 34.6886 148.319 35.9301C148.316 36.2803 148.246 36.6095 148.214 36.9387Z" fill="#EBEBEB"/>
<path d="M139.925 15.9009C139.698 16.9352 139.116 17.8578 138.281 18.5101C137.922 18.7872 137.509 18.9865 137.069 19.0949C136.573 19.2171 136.056 19.2286 135.555 19.1287C135.054 19.0289 134.581 18.82 134.17 18.5171C133.656 18.176 133.227 17.722 132.916 17.1897C131.556 14.7732 131.675 12.5528 133.308 10.5566C133.587 10.2458 133.921 9.98926 134.293 9.80009C134.923 9.47173 135.639 9.34564 136.344 9.43903C137.048 9.53242 137.706 9.84074 138.229 10.3219C138.983 10.9689 139.533 11.8205 139.813 12.7735C140.129 13.7873 140.167 14.8671 139.925 15.9009Z" fill="#EBEBEB"/>
<path d="M149.907 17.2493C149.301 18.7833 148.404 19.96 146.855 20.699C146.421 20.9036 145.959 21.0451 145.485 21.1192C144.794 21.2547 144.078 21.1611 143.445 20.8526C142.813 20.5441 142.298 20.0376 141.98 19.4101C141.587 18.6254 141.464 17.7329 141.629 16.871C141.764 16.0418 142.074 15.2508 142.539 14.5513C143.005 13.8518 143.615 13.26 144.328 12.8155C144.924 12.4183 145.604 12.1642 146.315 12.073C146.991 11.9583 147.686 12.0593 148.301 12.3617C148.917 12.6641 149.421 13.1525 149.743 13.7576C150.141 14.533 150.275 15.4171 150.125 16.2757C150.072 16.6504 149.96 17.0181 149.907 17.2493Z" fill="#EBEBEB"/>
<path d="M123.601 18.6362C123.753 17.9107 124.091 17.2373 124.582 16.6819C125.813 15.3371 127.768 15.2811 129.3 16.5804C130.21 17.3417 130.847 18.3797 131.112 19.5362C131.462 21.0037 131.364 22.3975 130.519 23.6618C130.34 23.9223 130.126 24.1579 129.885 24.3623C128.795 25.2974 127.256 25.3429 125.932 24.4884C125.112 23.9507 124.464 23.19 124.064 22.296C123.51 21.1604 123.347 19.8737 123.601 18.6362Z" fill="#EBEBEB"/>
<path d="M154.663 25.9698C154.43 26.8182 154.006 27.6023 153.423 28.2621C152.841 28.9218 152.115 29.4399 151.302 29.7767C150.618 30.086 149.864 30.2069 149.118 30.1269C148.614 30.0918 148.127 29.9331 147.699 29.665C147.271 29.3968 146.916 29.0274 146.665 28.5894C146.212 27.8135 146.069 26.8954 146.265 26.0188C146.425 25.1433 146.789 24.3178 147.328 23.6094C147.867 22.901 148.565 22.3298 149.367 21.9422C150.31 21.4083 151.424 21.2637 152.472 21.5395C152.882 21.6407 153.265 21.8275 153.596 22.0878C153.928 22.348 154.201 22.6756 154.396 23.0489C154.88 23.9805 154.904 24.8911 154.663 25.9698Z" fill="#EBEBEB"/>
<path d="M265.373 149.286C265.373 149.335 230.82 149.377 188.204 149.377C145.587 149.377 111.027 149.335 111.027 149.286C111.027 149.237 145.573 149.195 188.204 149.195C230.834 149.195 265.373 149.233 265.373 149.286Z" fill="#263238"/>
<path d="M246.409 134.902L236.529 109.273L234.399 115.353L216.504 76.4506L207.283 57.2865L190.429 49.9319L171.266 56.7122C171.266 56.7122 166.426 69.6703 165.844 72.7698C165.262 75.8692 167.393 86.1272 167.393 86.1272L172.815 99.0854L176.26 117.738C176.26 117.738 174.945 127.926 175.131 133.148C175.317 138.37 177.77 149.174 177.77 149.174H249.507L246.409 134.902Z" fill="#F2AA60"/>
<g opacity="0.5">
<path d="M222.812 142.159C222.918 131.947 220.734 124.333 217.874 116.719C217.699 116.304 217.431 115.935 217.092 115.639C216.752 115.343 216.35 115.128 215.915 115.01C214.3 114.562 212.891 116.089 211.794 117.349C210.697 118.61 208.818 119.829 207.497 118.803C206.029 117.661 207.105 115.339 208.251 113.872C210.466 111.042 212.694 108.149 214.002 104.801C215.309 101.453 216.637 97.5339 214.976 94.3469C211.433 98.9838 206.327 103.022 197.705 105.747C190.384 108.111 182.004 107.519 175.776 105.747C180.332 108.342 184.559 112.173 188.393 115.745C189.879 117.146 191.425 119.132 190.633 120.999C190.04 122.4 188.372 123.005 186.858 123.167C185.344 123.328 183.753 123.223 182.365 123.867C179.929 124.974 178.959 127.975 178.976 130.651C179.008 136.815 181.167 144.782 185.691 149.212H222.567C223.005 146.929 222.784 143.591 222.812 142.159Z" fill="white"/>
</g>
<path d="M214.594 97.6319C214.594 97.6319 214.548 97.667 214.45 97.7195L214.026 97.9366C213.84 98.0277 213.612 98.1433 213.356 98.2869C213.101 98.4304 212.799 98.581 212.484 98.7737C211.842 99.1449 211.103 99.6247 210.307 100.199C208.593 101.454 207.048 102.924 205.709 104.573C205.164 105.247 204.652 105.949 204.178 106.675C203.967 106.979 203.803 107.274 203.649 107.522C203.494 107.771 203.368 107.991 203.267 108.174L203.028 108.587C202.972 108.681 202.941 108.73 202.934 108.727C202.949 108.673 202.97 108.622 202.997 108.573L203.203 108.139C203.295 107.953 203.41 107.725 203.554 107.47C203.698 107.214 203.859 106.916 204.062 106.605C204.524 105.864 205.029 105.151 205.573 104.468C206.242 103.635 206.965 102.846 207.735 102.104C208.509 101.373 209.329 100.691 210.188 100.062C210.897 99.5528 211.636 99.085 212.4 98.6616C212.719 98.4725 213.024 98.3289 213.286 98.1958C213.549 98.0627 213.784 97.9541 213.987 97.8736L214.429 97.688C214.482 97.6633 214.537 97.6445 214.594 97.6319Z" fill="#263238"/>
<path d="M221.148 71.9117C219.377 66.7984 215.679 62.5776 210.84 60.1478C210.84 60.1478 209.544 58.1971 205.408 54.3482C201.273 50.4993 193.696 47.8376 188.144 47.3052C187.923 47.2842 187.699 47.2702 187.468 47.2632C181.899 47.1196 173.484 51.1857 173.484 51.1857C168.133 52.6671 161.151 62.771 159.816 66.7565C158.481 70.742 159.322 78.2052 159.322 78.2052C159.322 78.2052 156.42 84.8174 158.239 91.2649C161.453 102.623 181.079 111.732 200.274 104.409C219.469 97.0856 224.007 80.4186 221.148 71.9117Z" fill="#F2AA60"/>
<g opacity="0.5">
<path d="M200.126 104.962C207.619 102.16 215.316 95.6847 218.571 89.7134C219.728 85.3392 221.025 80.4081 221.025 80.4081L215.61 63.4469C214.849 62.7449 214.039 62.0988 213.185 61.5137C211.313 61.8044 209.564 63.1107 208.471 64.7182C207.024 66.8475 206.431 69.4182 205.685 71.8802C204.938 74.3423 203.932 76.8674 201.931 78.4889C199.786 80.24 196.219 79.8267 193.464 79.5956C193.73 82.1102 194.61 85.4268 194.866 87.9413L189.753 89.4928C188.041 87.1657 186.748 84.5584 185.932 81.788C184.857 83.0733 183.77 84.3691 182.428 85.3567C181.086 86.3443 179.41 87.0027 177.746 86.8346C175.415 86.6 173.568 84.8524 171.518 83.7107C170.019 82.8872 168.371 82.3702 166.67 82.1898C164.969 82.0094 163.249 82.1692 161.61 82.66C160.161 83.0996 158.803 83.7933 157.597 84.7088C157.539 86.9119 157.752 89.1138 158.232 91.2649C159.497 97.4113 166.163 102.854 173.897 105.204C181.029 107.372 190.864 108.408 200.126 104.962Z" fill="white"/>
</g>
<path d="M194.656 86.5475C193.332 86.5636 192.024 86.8298 190.8 87.332C189.569 87.8425 188.551 88.7598 187.916 89.9306C187.599 90.4954 187.488 91.1526 187.601 91.7903C187.881 93.0055 189.178 93.6464 190.327 94.1262C191.477 94.606 192.816 95.1244 194.07 94.8092C195.013 94.5745 195.784 93.9056 196.45 93.1982C197.347 92.2456 198.164 91.0968 198.223 89.794C198.283 88.4912 197.673 86.5229 194.656 86.5475Z" fill="#263238"/>
<path d="M194.235 93.8986C194.32 94.0796 194.39 94.2669 194.446 94.4589C194.627 94.9765 194.764 95.5083 194.856 96.0489C195.007 96.8614 194.927 97.6998 194.624 98.469C194.439 98.9274 194.137 99.3295 193.748 99.6352C193.326 99.9528 192.837 100.17 192.318 100.269C191.329 100.454 190.312 100.424 189.336 100.182C188.541 99.987 187.783 99.6641 187.093 99.2254C186.626 98.9283 186.198 98.5755 185.817 98.1748C185.713 98.0693 185.615 97.9582 185.523 97.8421C185.486 97.8048 185.456 97.7623 185.432 97.716C185.955 98.2462 186.535 98.7161 187.163 99.1169C187.848 99.5307 188.595 99.8344 189.374 100.017C190.327 100.244 191.317 100.269 192.28 100.09C192.772 99.9956 193.236 99.7922 193.64 99.4951C194.005 99.2078 194.291 98.8316 194.47 98.4024C194.766 97.6615 194.855 96.8539 194.726 96.0664C194.645 95.5303 194.528 95.0003 194.376 94.4799C194.314 94.2901 194.267 94.0957 194.235 93.8986Z" fill="#263238"/>
<path d="M194.593 95.2399C194.593 95.2049 194.793 95.317 195.097 95.5306C195.522 95.8385 195.964 96.1238 196.419 96.3851C197.097 96.7585 197.853 96.9706 198.627 97.005C199.571 97.0866 200.513 96.8309 201.287 96.2836C202.035 95.702 202.605 94.9216 202.93 94.0317C203.199 93.3031 203.371 92.5425 203.442 91.7692C203.512 91.1073 203.533 90.568 203.554 90.1968C203.555 90.0021 203.57 89.8078 203.6 89.6154C203.625 89.8081 203.633 90.0026 203.624 90.1968C203.624 90.5715 203.624 91.1143 203.572 91.7833C203.516 92.5721 203.354 93.3498 203.088 94.0947C202.76 95.0195 202.172 95.8303 201.395 96.4307C200.584 97.0056 199.593 97.2703 198.602 97.1766C197.806 97.1337 197.031 96.902 196.342 96.5007C195.887 96.2271 195.451 95.9229 195.038 95.5901C194.898 95.4627 194.749 95.3457 194.593 95.2399Z" fill="#263238"/>
<path d="M180.191 77.7219C179.905 77.3805 179.548 77.1037 179.147 76.9099C178.745 76.7161 178.307 76.6097 177.861 76.5977C177.303 76.595 176.766 76.807 176.361 77.1895C175.904 77.4732 175.532 77.8754 175.285 78.3533C175.038 78.8312 174.925 79.367 174.959 79.9038C175.019 80.5199 175.268 81.1025 175.672 81.572C176.076 82.0414 176.615 82.3749 177.216 82.5269C177.823 82.6547 178.455 82.5948 179.027 82.3552C179.599 82.1156 180.085 81.7076 180.419 81.1856C180.732 80.6517 180.878 80.0363 180.837 79.4188C180.797 78.8013 180.572 78.2102 180.191 77.7219Z" fill="#263238"/>
<path d="M201.269 72.5351C200.994 72.2112 200.651 71.9531 200.263 71.7797C199.876 71.6063 199.454 71.5222 199.029 71.5335C198.467 71.5484 197.919 71.7102 197.438 72.0028C196.98 72.2856 196.608 72.6876 196.361 73.1657C196.114 73.6439 196.002 74.1801 196.036 74.717C196.096 75.3329 196.346 75.9152 196.75 76.3841C197.154 76.8531 197.693 77.1858 198.293 77.3367C198.9 77.4645 199.53 77.405 200.102 77.166C200.673 76.927 201.159 76.52 201.493 75.9988C201.807 75.4653 201.953 74.85 201.913 74.2326C201.873 73.6151 201.649 73.0238 201.269 72.5351Z" fill="#263238"/>
<g opacity="0.5">
<path d="M177.77 63.9442L177.069 63.594C174.711 62.9251 172.289 65.2611 170.866 67.0962C170.398 67.6244 170.11 68.2882 170.046 68.9909C170.046 69.9365 170.747 70.742 171.56 71.2393C173.193 72.1954 175.264 72.0904 177.062 71.495C177.809 71.2463 178.573 70.8821 178.99 70.2132C179.278 69.6864 179.413 69.0895 179.379 68.4901C179.361 66.8386 178.795 65.2397 177.77 63.9442Z" fill="white"/>
</g>
<g opacity="0.5">
<path d="M193.794 59.7031L194.495 59.3528C196.853 58.6839 199.275 61.0199 200.698 62.876C201.17 63.4008 201.457 64.0646 201.518 64.7672C201.518 65.7163 200.817 66.5394 200.004 67.0157C198.374 67.9753 196.3 67.8702 194.505 67.2713C193.755 67.0227 192.991 66.6584 192.574 65.993C192.285 65.4654 192.151 64.8668 192.189 64.2664C192.2 62.609 192.765 61.0027 193.794 59.7031Z" fill="white"/>
</g>
<path d="M183.63 93.5344C183.491 93.4104 183.364 93.2731 183.252 93.1246C182.919 92.7407 182.612 92.3347 182.334 91.9093C181.899 91.2803 181.611 90.5625 181.489 89.808C181.43 89.3567 181.455 88.8984 181.563 88.4562C181.682 87.9898 181.842 87.535 182.043 87.0973C182.737 85.5669 183.589 84.1126 184.584 82.7581L185.46 81.5218C185.564 81.3638 185.681 81.215 185.81 81.077C185.732 81.2464 185.638 81.4082 185.53 81.5603C185.341 81.865 185.053 82.2958 184.699 82.8316C183.751 84.1994 182.93 85.6506 182.246 87.1674C182.049 87.5947 181.89 88.0389 181.773 88.4947C181.668 88.9158 181.639 89.3524 181.689 89.7835C181.803 90.5167 182.072 91.2174 182.477 91.8393C182.744 92.2679 183.031 92.6829 183.34 93.0826C183.448 93.2255 183.545 93.3765 183.63 93.5344Z" fill="#263238"/>
<path d="M203.859 85.9451C203.838 85.752 203.831 85.5578 203.838 85.3637C203.839 84.8373 203.783 84.3123 203.669 83.7982C203.587 83.4488 203.444 83.1167 203.245 82.8176C203.012 82.481 202.701 82.2058 202.338 82.0156C201.931 81.8018 201.502 81.6327 201.058 81.5113L199.628 81.0665C197.669 80.4571 195.9 79.9003 194.62 79.487L193.106 78.9862C192.919 78.9325 192.736 78.8634 192.56 78.7796C192.752 78.8116 192.942 78.8584 193.127 78.9197L194.659 79.3609C195.945 79.7427 197.725 80.2855 199.685 80.8914L201.114 81.3362C201.567 81.4664 202.006 81.6437 202.422 81.865C202.804 82.0719 203.13 82.3688 203.371 82.7301C203.574 83.0458 203.718 83.3959 203.796 83.7632C203.899 84.2889 203.936 84.8253 203.908 85.3602C203.908 85.5493 203.89 85.7104 203.88 85.7945C203.869 85.8785 203.859 85.9486 203.859 85.9451Z" fill="#263238"/>
<path d="M158.148 46.1705C155.936 45.5962 153.241 45.5086 151.713 47.1967C150.185 48.8847 150.479 51.4168 151.012 53.5847C152.512 59.562 155.305 65.1386 159.192 69.9225L170.691 52.6146C166.759 50.0089 162.725 47.3578 158.148 46.1705Z" fill="#F2AA60"/>
<g opacity="0.5">
<path d="M157.493 48.8042C156.15 48.3279 154.408 48.1563 153.529 49.277C152.733 50.2926 153.126 51.7706 153.63 52.9613C155.418 57.164 157.868 61.7834 161.372 64.7007C163.072 61.1985 165.052 58.0465 167.526 55.5039C164.667 52.9263 161.123 50.0895 157.493 48.8042Z" fill="white"/>
</g>
<path d="M163.752 60.4665C163.629 60.3694 163.518 60.259 163.419 60.1373L162.561 59.2093C161.807 58.3967 160.808 57.3321 159.708 56.1518C158.607 54.9716 157.605 53.8649 156.904 53.0559C156.554 52.6496 156.273 52.3204 156.087 52.0858C155.982 51.9711 155.889 51.8454 155.811 51.711C155.932 51.8071 156.043 51.9164 156.14 52.0367L156.999 52.9683L159.851 56.0257C160.969 57.22 161.954 58.3127 162.655 59.1217C163.006 59.5245 163.282 59.8572 163.472 60.0918C163.577 60.2075 163.671 60.333 163.752 60.4665Z" fill="#263238"/>
<path d="M203.529 37.6637C202.611 35.6254 201.237 33.4365 199.029 33.0723C196.821 32.7081 194.722 34.4311 193.345 36.2383C190.488 40.0031 188.96 44.5805 187.481 49.0669L206.21 55.3953C205.699 48.9408 206.049 43.2602 203.529 37.6637Z" fill="#F2AA60"/>
<g opacity="0.5">
<path d="M195.486 37.9123C196.246 36.7076 197.508 35.4958 198.892 35.832C200.147 36.1367 200.753 37.5411 201.093 38.7844C202.288 43.1832 203.221 48.1493 202.278 52.6076C199.309 50.8565 195.843 49.6027 192.114 48.5871C192.745 44.7942 193.432 41.1694 195.486 37.9123Z" fill="white"/>
</g>
<path d="M197.831 50.4677C197.809 50.3194 197.803 50.1691 197.814 50.0195C197.814 49.7323 197.814 49.319 197.852 48.8042C197.898 47.778 197.999 46.3526 198.132 44.7977C198.265 43.2427 198.378 41.8628 198.465 40.8017C198.504 40.3183 198.535 39.9121 198.56 39.5899C198.564 39.4402 198.583 39.2912 198.616 39.1451C198.632 39.2941 198.632 39.4444 198.616 39.5934C198.616 39.8806 198.616 40.2938 198.577 40.8087C198.532 41.8383 198.43 43.2602 198.297 44.8152C198.164 46.3702 198.052 47.75 197.964 48.8112C197.926 49.2945 197.894 49.7008 197.87 50.023C197.873 50.1722 197.86 50.3213 197.831 50.4677Z" fill="#263238"/>
<path d="M214.593 94.9072C214.53 95.0445 214.453 95.1748 214.362 95.296C214.109 95.6499 213.828 95.9826 213.521 96.2906C213.132 96.6968 212.631 97.1731 212.025 97.6915C211.723 97.9541 211.394 98.2308 211.04 98.518L209.939 99.4426C208.105 100.938 206.118 102.238 204.013 103.32C201.432 104.644 198.699 105.65 195.875 106.314C193.05 106.972 190.161 107.317 187.261 107.344C184.894 107.364 182.53 107.177 180.195 106.787C178.622 106.522 177.069 106.147 175.548 105.666C175.015 105.487 174.598 105.347 174.325 105.235L174.009 105.109L173.904 105.064C173.943 105.069 173.98 105.078 174.016 105.092L174.335 105.2C174.616 105.302 175.036 105.431 175.569 105.599C177.094 106.049 178.646 106.4 180.216 106.65C182.544 107.022 184.9 107.196 187.257 107.168C190.145 107.128 193.021 106.776 195.833 106.118C198.643 105.457 201.363 104.462 203.936 103.155C206.034 102.082 208.019 100.8 209.859 99.327L211.961 97.5969C212.571 97.0786 213.079 96.6128 213.475 96.217C213.785 95.9148 214.073 95.5919 214.338 95.2504C214.513 95.0403 214.586 94.9002 214.593 94.9072Z" fill="#263238"/>
<g opacity="0.5">
<path d="M194.652 87.4405C193.693 87.397 192.739 87.5994 191.88 88.0285C191.021 88.4576 190.286 89.0992 189.746 89.8921C189.672 89.9762 189.62 90.0766 189.593 90.1851C189.566 90.2935 189.565 90.4068 189.591 90.5155C189.638 90.6071 189.712 90.6822 189.803 90.7304C189.894 90.7787 189.997 90.7978 190.1 90.7851C190.303 90.7589 190.499 90.6896 190.674 90.582L194.368 88.6593C194.618 88.5589 194.831 88.3841 194.978 88.1585C195.101 87.9203 195.006 87.5561 194.743 87.5071" fill="white"/>
</g>
<path d="M203.631 53.3991C203.464 53.3315 203.303 53.2483 203.151 53.1504C202.853 52.9788 202.415 52.7337 201.869 52.45C199.033 50.9134 196.03 49.7088 192.918 48.8602C192.322 48.6956 191.838 48.5696 191.516 48.4855C191.338 48.4526 191.165 48.4022 190.997 48.3349C191.177 48.3473 191.355 48.3743 191.53 48.4155C191.88 48.4785 192.364 48.5836 192.967 48.7342C196.106 49.526 199.122 50.7419 201.932 52.3484C202.471 52.6566 202.899 52.9193 203.19 53.1119C203.345 53.1949 203.493 53.291 203.631 53.3991Z" fill="#263238"/>
<path d="M199.156 98.2798C199.005 98.463 198.827 98.6213 198.627 98.7491C198.173 99.0917 197.693 99.3996 197.193 99.6702C196.693 99.941 196.174 100.175 195.641 100.371C195.423 100.465 195.193 100.528 194.957 100.556C194.94 100.504 195.949 100.143 197.106 99.5056C198.262 98.8682 199.121 98.2273 199.156 98.2798Z" fill="#263238"/>
<path d="M168.896 54.3972C168.781 54.553 168.651 54.6973 168.507 54.828C168.245 55.0977 167.873 55.4899 167.425 55.9872C165.083 58.5651 163.116 61.4594 161.582 64.5851C161.288 65.184 161.057 65.6743 160.902 66.014C160.832 66.1949 160.746 66.3695 160.646 66.5359C160.696 66.3487 160.76 66.166 160.839 65.9895C160.972 65.6393 161.19 65.1385 161.467 64.5291C162.944 61.3565 164.924 58.4427 167.33 55.8997C167.792 55.4129 168.178 55.0311 168.455 54.779C168.592 54.6409 168.74 54.5133 168.896 54.3972Z" fill="#263238"/>
<path d="M241.93 142.043C241.93 142.043 241.86 142.043 241.727 141.998L241.138 141.84C240.626 141.697 239.876 141.49 238.934 141.14C236.317 140.241 233.788 139.106 231.378 137.75L231.469 137.627C233.351 139.472 235.013 141.528 236.421 143.756L236.589 144.029L236.305 143.882C234.561 142.997 232.917 141.93 231.399 140.699C229.955 139.528 228.631 138.217 227.445 136.787L227.596 136.692L230.33 143.175L230.438 143.434L230.211 143.273C227.727 141.509 225.594 139.298 223.923 136.752C223.283 135.793 222.731 134.779 222.272 133.722L222.304 133.771C222.325 133.813 222.35 133.862 222.385 133.925L222.693 134.517C222.973 135.035 223.394 135.788 224 136.699C225.683 139.22 227.816 141.41 230.291 143.161L230.172 143.255C229.334 141.283 228.42 139.105 227.424 136.78L227.186 136.219L227.575 136.689C230 139.616 232.998 142.016 236.386 143.742L236.27 143.868C234.873 141.65 233.227 139.598 231.364 137.753L230.95 137.347L231.455 137.634C233.854 138.995 236.365 140.146 238.962 141.077C239.901 141.41 240.644 141.644 241.152 141.805L241.73 141.984L241.93 142.043Z" fill="#263238"/>
<path d="M215.074 91.4435C214.79 93.8951 214.022 97.2747 213.903 99.7158L215.274 97.6319C215.684 103.999 216.676 111.868 217.583 118.183" fill="#F2AA60"/>
<path d="M217.597 118.19C217.586 118.164 217.578 118.137 217.576 118.109C217.576 118.046 217.548 117.969 217.534 117.875C217.496 117.654 217.447 117.349 217.387 116.968C217.264 116.18 217.096 115.038 216.9 113.623C216.511 110.797 216.006 106.885 215.593 102.549C215.431 100.836 215.298 99.1834 215.2 97.6459L215.361 97.688C214.878 98.4129 214.419 99.1099 213.984 99.7683L213.819 100.013L213.837 99.7192C213.912 98.5814 214.049 97.4485 214.247 96.3256C214.422 95.3275 214.576 94.4519 214.703 93.7235C214.829 92.995 214.927 92.4347 214.986 92.0459C215.014 91.8638 215.039 91.7167 215.056 91.6011C215.063 91.5502 215.073 91.4998 215.088 91.4505C215.097 91.5015 215.097 91.5536 215.088 91.6046C215.088 91.7062 215.067 91.8568 215.042 92.0529C215 92.4452 214.92 93.016 214.804 93.741C214.688 94.4659 214.548 95.345 214.387 96.3466C214.2 97.4656 214.072 98.5937 214.005 99.7262L213.858 99.6772L215.221 97.5934L215.365 97.3763L215.382 97.6354C215.484 99.1694 215.621 100.819 215.782 102.539C216.195 106.871 216.679 110.783 217.037 113.612C217.215 115.013 217.359 116.159 217.464 116.964C217.51 117.349 217.548 117.665 217.576 117.878L217.601 118.116C217.602 118.141 217.601 118.166 217.597 118.19Z" fill="#263238"/>
<g opacity="0.3">
<path d="M222.434 133.918C221.431 131.358 221.032 128.917 220.022 126.354C220.355 131.239 222.581 135.774 224.897 140.089C225.614 141.543 226.498 142.909 227.529 144.159C228.602 145.37 229.983 146.362 231.588 146.67C231.874 146.754 232.181 146.725 232.446 146.589C232.955 146.257 232.751 145.472 232.446 144.943C232.142 144.414 231.584 142.229 231.584 142.229C234.178 144.043 237.893 146.211 241.029 146.54C240.195 145.207 239.364 143.872 238.534 142.534C239.448 143.011 240.452 143.294 241.481 143.364C242.51 143.434 243.543 143.29 244.513 142.94C240.535 141.403 235.804 139.648 231.83 138.11C233.558 139.823 235.073 141.739 236.34 143.816C233.298 142.415 229.485 139.855 227.501 136.738C228.668 139.343 229.906 142.162 230.154 143.227C226.52 140.425 223.881 137.795 222.269 133.512" fill="black"/>
</g>
<path d="M211.937 74.3108C211.938 76.2792 212.155 78.2416 212.582 80.1629C214.636 89.3808 218.207 117.286 218.498 117.637C218.849 118.057 241.219 118.803 241.219 118.803L237.56 114.113L240.77 115.164C240.77 115.164 240.182 114.257 237.56 111.924C234.055 108.807 229.096 70.7175 229.096 70.7175C229.734 65.5167 230.372 60.3019 230.323 55.0661C230.274 49.8303 229.513 44.5595 227.449 39.702C226.831 38.1161 225.933 36.6545 224.796 35.3872C223.615 34.151 222.178 34.2035 220.517 33.6747C217.538 32.7291 215.635 34.0879 214.103 35.811C213.052 36.9842 212.975 38.3606 212.351 39.793C211.677 40.3155 211.173 41.0261 210.904 41.8348C209.999 44.2338 209.284 46.7379 209.183 49.284C209.081 51.8301 209.68 54.4813 211.286 56.5091L209.761 55.6685L212.54 58.7154L211.839 60.0498C211.411 60.8306 211.238 61.7259 211.345 62.6099L212.495 61.3911C211.794 62.8515 211.71 64.2524 211.475 66.4588C211.366 67.4464 211.31 68.4411 211.296 69.4322L211.247 72.8889L211.916 72.3285L211.937 74.3108Z" fill="#F2AA60"/>
<g opacity="0.5">
<path d="M220.576 77.3191C222.91 77.2666 225.412 78.2928 226.786 80.1209C227.536 81.1225 227.788 82.3833 228.023 83.6021C229.145 89.4718 230.267 95.3403 231.391 101.208C232.513 107.077 233.634 112.954 234.377 118.88C234.749 121.832 234.994 124.963 233.676 127.656C233.175 128.686 232.376 129.674 231.247 129.992C229.996 130.343 228.623 129.772 227.715 128.865C226.807 127.958 226.274 126.763 225.784 125.597C223.355 119.673 221.364 113.579 219.826 107.365C217.313 97.5269 217.509 92.4522 216.524 82.3658C216.552 82.3693 216.419 77.4102 220.576 77.3191Z" fill="white"/>
</g>
<path d="M218.579 36.0492C217.917 35.4468 216.806 35.5063 216.063 36.0141C215.351 36.5613 214.863 37.3478 214.689 38.2275C214.499 38.9137 214.487 39.6367 214.654 40.3288C214.741 40.6796 214.901 41.0083 215.122 41.294C215.344 41.5798 215.622 41.8165 215.94 41.9889C216.265 42.16 216.631 42.2372 216.998 42.2118C217.364 42.1865 217.716 42.0595 218.015 41.8453C218.533 41.432 218.747 40.7631 218.887 40.1257C219.161 38.8789 219.546 36.8722 218.579 36.0316" fill="#263238"/>
<path d="M212.753 42.2305C212.641 42.2305 211.243 42.4757 210.738 44.2933C210.233 46.111 210.016 48.3839 211.457 48.559C212.897 48.7341 214.194 48.6606 214.372 46.7764C214.551 44.8922 213.906 42.192 212.753 42.2305Z" fill="#263238"/>
<path d="M223.019 36.7041C222.935 36.7041 221.592 36.4344 220.979 37.6322C220.366 38.8299 219.49 40.9102 220.17 42.2306C220.85 43.5509 222.444 45.0813 223.699 43.2462C224.953 41.411 225.143 39.4883 224.89 38.5392C224.638 37.5901 223.019 36.7041 223.019 36.7041Z" fill="#263238"/>
<path d="M226.579 44.9938C226.397 45.0218 223.047 46.7449 222.454 48.3839C221.862 50.023 222.293 50.3031 223.625 51.1437C224.244 51.5347 224.992 51.6658 225.706 51.5084C226.421 51.351 227.045 50.9178 227.442 50.3031C228.342 49.0458 228.847 44.6085 226.579 44.9938Z" fill="#263238"/>
<g opacity="0.5">
<path d="M221.031 55.1992C220.782 54.7439 220.278 54.5583 219.815 54.4077L216.871 53.4481C216.282 53.2555 215.578 53.0979 215.119 53.5427L214.418 53.7353C214.456 54.827 214.602 55.9123 214.856 56.9748C215.1 58.014 215.668 58.9487 216.479 59.6435C216.864 59.9661 217.339 60.1639 217.84 60.2108C218.34 60.2577 218.844 60.1515 219.282 59.9062C220.19 59.3423 220.614 58.1551 220.972 57.0764C221.143 56.467 221.336 55.7561 221.031 55.1992Z" fill="white"/>
</g>
<path d="M217.426 48.0932C216.851 48.8112 215.898 49.1124 215.008 49.4066C214.118 49.7007 213.175 50.0685 212.691 50.8495C212.501 51.2035 212.391 51.5945 212.367 51.9954C212.343 52.3964 212.407 52.7976 212.554 53.1714C212.711 53.7305 213.066 54.2135 213.553 54.5303C214.482 55.0626 215.681 54.6213 216.739 54.828C218.274 55.1292 219.252 56.7297 220.78 57.0799C222.091 57.3811 223.492 56.6106 224.186 55.4864C224.379 55.2066 224.51 54.89 224.574 54.5566C224.637 54.2232 224.631 53.8804 224.554 53.5497C224.306 52.7126 223.503 52.1768 222.711 51.7495C221.919 51.3223 221.085 50.881 220.678 50.107C220.495 49.664 220.355 49.2042 220.261 48.7341C220.211 48.4972 220.112 48.2731 219.972 48.0755C219.831 47.878 219.652 47.7112 219.445 47.5854C218.793 47.2667 217.997 47.6379 217.482 48.1388" fill="#263238"/>
<g opacity="0.3">
<path d="M221.712 72.7242C221.095 72.0028 220.454 71.3024 219.788 70.6229L216.725 72.311C217.147 73.1356 217.761 73.8467 218.515 74.3843C218.9 74.6516 219.338 74.8321 219.799 74.9131C220.26 74.9942 220.734 74.9738 221.186 74.8536C221.719 74.689 222.237 74.2617 222.22 73.7224C222.171 73.3409 221.992 72.9881 221.712 72.7242Z" fill="black"/>
</g>
<path d="M219.543 70.5389C219.224 70.4098 218.88 70.3548 218.537 70.3778C218.194 70.4009 217.861 70.5015 217.563 70.672C217.272 70.8435 217.04 71.098 216.896 71.4026C216.752 71.7072 216.702 72.0479 216.753 72.381C216.901 72.9342 217.258 73.4086 217.748 73.7049C218.201 74.0051 218.709 74.2121 219.243 74.3137C219.777 74.4153 220.325 74.4096 220.857 74.2967C221.411 74.1777 221.999 73.8625 222.094 73.3231C222.095 72.8666 221.943 72.4229 221.663 72.0623C221.102 71.3775 220.371 70.8521 219.543 70.5389Z" fill="#263238"/>
<path d="M221.274 67.9262C221.274 67.9262 221.229 67.9017 221.159 67.8422C221.088 67.7827 220.976 67.6951 220.847 67.5725C220.472 67.2286 220.121 66.8601 219.795 66.4693C218.725 65.1762 217.92 63.685 217.426 62.0811L217.605 62.0565C217.605 62.5434 217.58 63.0196 217.566 63.4784C217.566 63.7096 217.566 63.9337 217.545 64.1544V64.4836C217.55 64.6032 217.53 64.7225 217.486 64.8338C217.461 64.896 217.421 64.9513 217.37 64.9949C217.34 65.0172 217.305 65.033 217.268 65.0415C217.231 65.0499 217.193 65.0507 217.156 65.0439C217.097 65.0269 217.042 64.9979 216.994 64.9587C216.947 64.9196 216.908 64.8711 216.879 64.8163C216.771 64.6447 216.666 64.4661 216.578 64.3085C216.413 63.9977 216.272 63.6745 216.157 63.3419C215.993 62.8592 215.89 62.358 215.849 61.8499C215.841 61.7123 215.841 61.5743 215.849 61.4367C215.841 61.3891 215.841 61.3406 215.849 61.2931C215.911 61.9757 216.056 62.6484 216.28 63.2963C216.4 63.6207 216.544 63.9357 216.711 64.2384C216.802 64.3995 216.904 64.5606 217.013 64.7287C217.121 64.8968 217.265 64.9494 217.331 64.7708C217.377 64.5699 217.395 64.3636 217.384 64.1579C217.384 63.9372 217.384 63.7096 217.384 63.4819C217.384 63.0196 217.405 62.5434 217.419 62.0565V61.4962L217.584 62.032C218.072 63.616 218.851 65.0957 219.879 66.3958C220.272 66.8931 220.622 67.2713 220.868 67.5305C221.013 67.6518 221.149 67.7841 221.274 67.9262Z" fill="#263238"/>
<path d="M221.568 46.3421C221.41 46.1819 221.268 46.0072 221.144 45.8203L220.068 44.3669L220.197 44.3284C220.197 44.8397 220.173 45.4106 220.159 46.0199V46.2336L220.015 46.076C219.634 45.6545 219.347 45.1566 219.174 44.6156H219.342C219.23 44.8712 219.111 45.1374 218.992 45.4106L218.669 46.1285L218.61 46.2616L218.519 46.1495C218.322 45.908 218.193 45.6184 218.146 45.3106C218.098 45.0028 218.134 44.6879 218.249 44.3984L218.378 44.4965C217.798 44.9492 217.17 45.339 216.507 45.6592L216.346 45.7398L216.419 45.5787C216.622 45.1337 216.902 44.7282 217.246 44.3809C217.338 44.2861 217.436 44.1983 217.541 44.1182C217.611 44.0622 217.649 44.0377 217.656 44.0412C217.663 44.0447 217.52 44.1778 217.306 44.4299C216.989 44.7854 216.732 45.19 216.545 45.6277L216.458 45.5471C217.101 45.2109 217.712 44.8145 218.28 44.3634L218.533 44.1638L218.413 44.4615C218.314 44.7213 218.285 45.0027 218.328 45.2775C218.372 45.5523 218.487 45.8107 218.662 46.0269L218.512 46.048L218.831 45.33L219.181 44.535L219.279 44.3179L219.349 44.542C219.515 45.0589 219.786 45.5358 220.145 45.9429L219.998 45.9954C220.022 45.3825 220.043 44.8152 220.064 44.3039V44.0902L220.183 44.2618L221.21 45.7538C221.343 45.9412 221.463 46.1378 221.568 46.3421Z" fill="#263238"/>
<path d="M218.494 34.0459C218.389 33.9691 218.263 33.9276 218.133 33.9276C218.004 33.9276 217.877 33.9691 217.773 34.0459C217.671 34.1051 217.583 34.1849 217.514 34.2802C217.445 34.3755 217.397 34.4842 217.373 34.5992C217.358 34.6556 217.359 34.7151 217.375 34.7712C217.391 34.8273 217.422 34.878 217.464 34.9179C217.526 34.9679 217.597 35.0048 217.674 35.0265C217.75 35.0482 217.83 35.0541 217.909 35.044C218.032 35.0408 218.152 35.0103 218.261 34.9545C218.37 34.8987 218.465 34.8192 218.54 34.7218C218.614 34.6224 218.651 34.4995 218.642 34.3754C218.634 34.2513 218.581 34.1343 218.494 34.0459Z" fill="#E0E0E0"/>
<path d="M224.08 35.853C223.971 35.5761 223.774 35.3424 223.52 35.1876C223.492 35.1661 223.459 35.1509 223.425 35.143C223.391 35.1352 223.355 35.1348 223.32 35.1421C223.264 35.1631 223.138 35.2051 223.107 35.2542C223.059 35.3246 223.027 35.4047 223.013 35.4887C222.999 35.5728 223.003 35.6588 223.026 35.741C223.093 35.9044 223.211 36.0418 223.363 36.1326C223.514 36.2235 223.691 36.263 223.867 36.2453C223.95 36.2404 224.028 36.2026 224.084 36.1402C224.107 36.0959 224.119 36.0464 224.119 35.9962C224.118 35.946 224.105 35.8967 224.08 35.853Z" fill="#E0E0E0"/>
<g opacity="0.3">
<path d="M215.522 100.266C214.799 105.975 215.513 111.775 217.6 117.139C217.197 111.329 216.199 105.873 215.708 99.9014" fill="black"/>
</g>
<g opacity="0.3">
<path d="M220.811 67.625C219.438 66.0224 218.329 64.2112 217.527 62.2597C217.59 63.0004 217.551 63.7463 217.412 64.4766C217.391 64.6272 217.412 64.9354 217.254 64.9634C217.096 64.9914 216.903 64.7287 216.837 64.6131C216.287 63.7817 215.94 62.8328 215.824 61.8429L215.75 62.1651C215.671 62.7549 215.721 63.3548 215.896 63.9237C216.071 64.4925 216.367 65.0169 216.763 65.4607C216.841 65.5648 216.941 65.6503 217.057 65.7109C217.172 65.7714 217.299 65.8056 217.429 65.8109C217.554 65.7907 217.669 65.7345 217.762 65.6492C217.855 65.5639 217.921 65.4533 217.951 65.3311C218.002 65.0874 218.002 64.8358 217.951 64.5921C218.169 65.2801 218.539 65.9102 219.034 66.4353C219.529 66.9604 220.137 67.3671 220.811 67.625Z" fill="black"/>
</g>
<path d="M226.211 97.9716C226.156 97.9381 226.104 97.8981 226.057 97.8526C225.963 97.772 225.815 97.653 225.644 97.4848C225.142 97.0157 224.674 96.5125 224.242 95.9789C222.781 94.1888 221.72 92.1076 221.13 89.8746L221.308 89.843C221.333 90.1407 221.358 90.4594 221.386 90.7781C221.479 92.1548 221.5 93.5354 221.449 94.9142V95.1629L221.308 94.9598C220.393 93.6811 219.706 92.2532 219.279 90.7396C219.159 90.31 219.063 89.8738 218.992 89.4333C218.967 89.2792 218.957 89.1601 218.946 89.0831C218.942 89.0423 218.942 89.0012 218.946 88.9605C218.993 89.113 219.03 89.2687 219.055 89.4263C219.118 89.731 219.22 90.1722 219.384 90.7151C219.833 92.2004 220.522 93.6023 221.424 94.8652L221.27 94.9107C221.308 93.6464 221.291 92.2525 221.193 90.7956C221.165 90.4769 221.14 90.1617 221.119 89.864L221.294 89.8325C221.879 92.0431 222.912 94.11 224.329 95.9053C224.749 96.4431 225.201 96.9554 225.682 97.4393C225.847 97.6144 225.987 97.7405 226.075 97.8316C226.125 97.8739 226.17 97.9208 226.211 97.9716Z" fill="#263238"/>
<path d="M240.973 126.101C241.014 126.25 241.04 126.403 241.05 126.557C241.089 126.854 241.12 127.282 241.145 127.81C241.259 130.586 240.856 133.359 239.957 135.988C239.785 136.489 239.627 136.892 239.508 137.161C239.456 137.307 239.388 137.447 239.305 137.578C239.336 137.427 239.382 137.279 239.441 137.137C239.539 136.857 239.676 136.436 239.834 135.946C240.244 134.633 240.551 133.29 240.752 131.929C240.947 130.566 241.036 129.19 241.018 127.814C241.018 127.289 240.994 126.858 240.976 126.564C240.961 126.41 240.96 126.255 240.973 126.101Z" fill="#263238"/>
</svg>
