<svg width="170" height="170" viewBox="0 0 170 170" fill="none" xmlns="http://www.w3.org/2000/svg">
<g clip-path="url(#clip0_223_13863)">
<path d="M23.0648 127.151C19.9842 127.151 16.809 126.441 13.4211 125.055C10.6907 123.938 9.38068 120.812 10.4949 118.077C11.6103 115.34 14.7298 114.027 17.4614 115.145C22.4772 117.197 27.0377 117.997 36.1561 108.339C38.1834 106.191 41.5649 106.096 43.7076 108.127C45.8517 110.159 45.9464 113.547 43.919 115.693C36.5802 123.469 30.0741 127.151 23.0648 127.151Z" fill="#495059"/>
<path d="M71.8256 148.303C71.6518 148.303 71.4767 148.296 71.3003 148.282C67.6231 147.995 64.8746 144.777 65.1613 141.093C65.7774 133.151 65.5504 127.335 64.3765 121.015C63.7021 117.383 66.0939 113.89 69.7205 113.214C73.3445 112.537 76.8323 114.935 77.5068 118.568C78.8907 126.017 79.18 133.064 78.4757 142.131C78.2033 145.639 75.2784 148.303 71.8256 148.303Z" fill="#DDAF89"/>
<path d="M45.3007 148.303C45.1269 148.303 44.9518 148.296 44.7754 148.282C41.0982 147.995 38.3497 144.777 38.635 141.093C39.3627 131.74 39.2459 125.701 38.2329 120.251C37.5585 116.619 39.9515 113.126 43.5769 112.45C47.2035 111.774 50.6887 114.171 51.3632 117.803C52.6045 124.482 52.7744 131.531 51.9507 142.131C51.6784 145.639 48.7535 148.303 45.3007 148.303Z" fill="#DDAF89"/>
<path d="M32.0586 107.275C21.638 108.372 11.1641 103.928 4.04062 95.3858C1.67606 92.5502 2.05351 88.3306 4.88371 85.9615C7.71392 83.5925 11.9242 83.9707 14.2888 86.8062C15.8868 88.7218 21.791 94.9023 30.6643 93.968C34.3324 93.582 37.6179 96.2487 38.0031 99.9237C38.3883 103.599 35.7267 106.891 32.0586 107.275Z" fill="#DDAF89"/>
<path d="M30.664 93.9678C27.2228 94.3304 24.2305 93.6209 21.7609 92.5059C21.4548 94.242 21.2939 96.0211 21.2939 97.8353C21.2939 100.931 21.7583 103.927 22.6234 106.775C25.7092 107.427 28.887 107.609 32.0583 107.276C35.7264 106.89 38.388 103.599 38.0028 99.9236C37.6176 96.2485 34.3321 93.5819 30.664 93.9678Z" fill="#D1A582"/>
<path d="M94.4193 104.107C91.589 104.107 88.6797 103.576 85.795 102.476C82.3474 101.164 80.6145 97.3003 81.9246 93.8462C83.2346 90.392 87.0921 88.6571 90.5384 89.9683C97.0757 92.457 100.787 88.2439 102.077 86.3167C104.134 83.2498 108.282 82.4336 111.345 84.4934C114.406 86.5532 115.22 90.7104 113.164 93.7773C108.678 100.47 101.816 104.107 94.4193 104.107Z" fill="#DDAF89"/>
<path d="M81.9246 93.8457C80.6145 97.2998 82.3474 101.163 85.795 102.476C88.4047 103.47 91.0326 103.995 93.6047 104.087C94.0249 102.061 94.2467 99.9717 94.2467 97.8339C94.2467 95.3791 93.9536 92.9854 93.4036 90.6787C92.5165 90.5825 91.5631 90.3577 90.5384 89.9679C87.0921 88.6566 83.2346 90.3915 81.9246 93.8457Z" fill="#D1A582"/>
<path d="M77.5722 118.502C76.8977 114.87 73.4099 112.472 69.7859 113.148C66.1593 113.824 63.7675 117.317 64.442 120.949C65.036 124.146 65.3862 127.214 65.5094 130.493C70.2593 129.552 74.6681 127.761 78.5372 125.304C78.3154 123.029 77.995 120.784 77.5722 118.502Z" fill="#D1A582"/>
<path d="M43.5746 112.45C39.9493 113.126 37.5575 116.619 38.232 120.251C38.6004 122.235 38.8494 124.298 38.983 126.569C43.0338 128.794 47.5904 130.321 52.4544 130.967C52.4673 125.983 52.1093 121.826 51.3622 117.803C50.6878 114.171 47.2012 111.774 43.5746 112.45Z" fill="#D1A582"/>
<path d="M90.2685 97.8354C90.2685 81.5457 75.6933 68.3398 57.7147 68.3398C39.7373 68.3398 25.1621 81.5457 25.1621 97.8354C25.1621 114.125 39.7373 127.33 57.7147 127.33C75.6933 127.33 90.2685 114.125 90.2685 97.8354Z" fill="#DDAF89"/>
<path d="M87.1165 78.8975C79.1382 85.529 68.8913 89.5186 57.7145 89.5186C46.5389 89.5186 36.2921 85.529 28.3138 78.8975C26.6172 81.0976 25.2034 83.4939 24.1308 86.0449C22.6703 89.5212 24.0179 93.5497 27.2632 95.4574C36.1987 100.713 46.6051 103.728 57.7145 103.728C68.8252 103.728 79.2316 100.713 88.1671 95.4574C91.4123 93.5497 92.76 89.5212 91.2995 86.0449C90.2268 83.4939 88.813 81.0976 87.1165 78.8975Z" fill="#7F9AE6"/>
<path d="M42.889 87.0741C37.5165 85.2457 32.589 82.4517 28.3138 78.8975C26.6172 81.0976 25.2034 83.4939 24.1308 86.0449C22.6703 89.5212 24.0179 93.5497 27.2632 95.4574C31.9093 98.1904 36.9562 100.31 42.2897 101.722C40.3325 97.7888 40.8876 91.8811 42.889 87.0741Z" fill="#5E78BF"/>
<path d="M66.8083 104.878C66.8083 109.908 62.7368 113.987 57.7145 113.987C52.6936 113.987 48.6221 109.908 48.6221 104.878C48.6221 99.8458 52.6936 95.7666 57.7145 95.7666C62.7368 95.7666 66.8083 99.8458 66.8083 104.878Z" fill="#F6E06A"/>
<path d="M81.1496 86.4424C81.1496 99.4078 65.647 117.571 57.7154 117.571C49.7838 117.571 34.2812 99.4078 34.2812 86.4424H81.1496Z" fill="#F3E5B7"/>
<path d="M45.6141 42.2554C44.3014 42.2554 42.9784 41.8552 41.837 41.0248L33.9184 35.2626C30.4513 32.7389 25.7754 32.9481 22.547 35.772L17.3626 40.3074C14.6855 42.6492 10.6204 42.3737 8.28312 39.6901C5.9458 37.0079 6.22078 32.9351 8.89793 30.5934L14.0823 26.058C17.8205 22.7884 22.6105 20.8651 27.5679 20.6428C32.5266 20.4206 37.4672 21.9073 41.4829 24.8286L49.4015 30.5908C52.2771 32.6843 52.914 36.7155 50.8257 39.5966C49.5662 41.334 47.6038 42.2554 45.6141 42.2554Z" fill="#495059"/>
<path d="M69.8175 42.2562C67.8265 42.2562 65.864 41.3348 64.6046 39.5973C62.5163 36.7175 63.1545 32.6851 66.0301 30.5928L73.9474 24.8294C77.9631 21.908 82.9062 20.4227 87.8623 20.6436C92.821 20.8658 97.6098 22.7891 101.348 26.0601L106.532 30.5941C109.21 32.9372 109.484 37.0099 107.147 39.6922C104.81 42.3744 100.745 42.6499 98.0677 40.3082L92.8833 35.7728C89.6549 32.9489 84.9789 32.7397 81.5119 35.2634L73.5933 41.0255C72.4519 41.8559 71.1275 42.2562 69.8175 42.2562Z" fill="#495059"/>
<path d="M57.714 93.3213C90.3833 93.3213 105.105 78.3286 100.511 57.2163C95.5729 34.529 80.0197 22.1094 57.714 22.1094C35.4096 22.1094 19.8565 34.529 14.9185 57.2163C10.3243 78.3273 25.0461 93.3213 57.714 93.3213Z" fill="#DDAF89"/>
<path d="M56.2838 110.69C55.7429 110.69 55.1994 110.515 54.7428 110.155C52.0229 108.004 47.3469 103.492 45.6193 101.11C44.8099 99.9966 45.0563 98.4359 46.1679 97.625C47.2808 96.8141 48.8386 97.061 49.6467 98.176C51.0462 100.103 55.442 104.351 57.8273 106.237C58.9077 107.089 59.0919 108.659 58.2397 109.741C57.7481 110.366 57.0192 110.69 56.2838 110.69Z" fill="#E0D29D"/>
<path d="M61.463 71.3328C59.0777 71.3328 56.8286 70.7519 54.8428 69.7305C54.8091 70.006 54.7857 70.2841 54.7857 70.5687C54.7857 71.9436 54.3888 75.2756 50.709 76.4971C47.2083 77.6602 45.3119 81.4458 46.4715 84.9532C47.4015 87.7615 50.0086 89.5406 52.809 89.5406C53.5055 89.5406 54.2137 89.4301 54.9115 89.1988C62.9482 86.5296 68.1404 79.2158 68.1404 70.5687C68.1404 70.2841 68.117 70.0047 68.0833 69.7305C66.0975 70.7519 63.8497 71.3328 61.463 71.3328Z" fill="#EB9898"/>
<path d="M43.785 56.5592C43.785 52.2461 39.4022 48.749 33.996 48.749C28.5898 48.749 24.207 52.2461 24.207 56.5592C24.207 60.8737 28.5898 64.3707 33.996 64.3707C39.4022 64.3707 43.785 60.8737 43.785 56.5592Z" fill="#FFDBDB"/>
<path d="M98.7186 56.5592C98.7186 52.2461 94.3358 48.749 88.9296 48.749C83.5234 48.749 79.1406 52.2461 79.1406 56.5592C79.1406 60.8737 83.5234 64.3707 88.9296 64.3707C94.3358 64.3707 98.7186 60.8737 98.7186 56.5592Z" fill="#FFDBDB"/>
<path d="M66.5969 50.1051C63.2311 49.2228 59.6952 49.2228 56.3293 50.1051C54.9363 50.4703 53.7209 51.3293 52.9116 52.5236C51.8168 54.135 52.4459 56.3468 54.2242 57.1395L59.1557 59.3357C60.6252 59.9907 62.3011 59.9907 63.7706 59.3357L68.7021 57.1395C70.4804 56.3468 71.1095 54.135 70.0147 52.5236C69.2054 51.3293 67.9913 50.4703 66.5969 50.1051Z" fill="#495059"/>
<path d="M119.167 136.71C127.126 139.008 135.716 134.968 139.037 127.366C142.383 119.708 139.575 111.093 133.033 106.722C131.017 105.374 130.247 102.772 131.075 100.49L143.223 67.0545C144.045 64.7881 146.277 63.3274 148.675 63.5419C156.226 64.2124 163.814 59.2664 166.505 51.8603C169.657 43.1807 165.191 33.585 156.528 30.4258C153.429 29.2952 150.214 29.1458 147.218 29.8137C145.888 30.11 144.527 29.6136 143.7 28.5298C141.832 26.0893 139.273 24.1335 136.174 23.0029C127.511 19.845 117.934 24.3193 114.78 32.9989C112.09 40.4049 114.73 49.0806 120.944 53.4289C122.918 54.8103 123.691 57.3652 122.868 59.6316L110.722 93.0673C109.893 95.3493 107.632 96.8476 105.224 96.5799C97.4075 95.7158 89.7288 100.507 87.3785 108.528C85.0464 116.491 89.0349 125.118 96.6059 128.482C100.03 130.004 103.648 130.281 106.994 129.537C108.331 129.241 109.697 129.739 110.533 130.828C112.619 133.553 115.568 135.67 119.167 136.71Z" fill="#F3E5B7"/>
<path d="M118.888 70.5879L110.722 93.0672C109.893 95.3492 107.632 96.8476 105.224 96.5799C97.4075 95.7157 89.7288 100.507 87.3785 108.528C85.0464 116.491 89.0349 125.118 96.6059 128.482C100.03 130.004 103.648 130.281 106.994 129.537C108.331 129.241 109.697 129.739 110.533 130.828C112.618 133.552 115.568 135.67 119.167 136.71C126.457 138.815 134.274 135.6 138.089 129.203C116.904 119.792 116.904 93.7313 118.888 70.5879Z" fill="#E0D29D"/>
<path d="M139.386 127.33H94.4213C91.7143 127.33 89.2616 128.925 88.1578 131.4L82.3028 144.532C81.2483 146.896 82.9747 149.561 85.5584 149.561H148.248C150.832 149.561 152.559 146.895 151.504 144.532L145.649 131.4C144.545 128.925 142.092 127.33 139.386 127.33Z" fill="#D16283"/>
<path d="M114.577 140.941H101.827C100.451 140.941 99.3369 139.824 99.3369 138.446C99.3369 137.067 100.451 135.951 101.827 135.951H114.577C115.954 135.951 117.068 137.067 117.068 138.446C117.068 139.824 115.954 140.941 114.577 140.941Z" fill="#F6E06A"/>
<path d="M83.2254 51.2644C84.6016 51.2644 85.7158 50.1468 85.7158 48.7693V45.306C85.7158 43.9285 84.6016 42.8109 83.2254 42.8109C81.8505 42.8109 80.735 43.9285 80.735 45.306V48.7693C80.735 50.1468 81.8505 51.2644 83.2254 51.2644ZM39.701 51.2644C41.0758 51.2644 42.1913 50.1468 42.1913 48.7693V45.306C42.1913 43.9285 41.0758 42.8109 39.701 42.8109C38.3261 42.8109 37.2106 43.9285 37.2106 45.306V48.7693C37.2106 50.1468 38.3261 51.2644 39.701 51.2644ZM165.286 33.5167C164.384 32.477 162.811 32.3666 161.773 33.271C160.736 34.1755 160.625 35.7506 161.528 36.7915C164.92 40.6992 165.93 46.1468 164.164 51.0071C161.876 57.3072 155.313 61.6256 148.895 61.0564C145.391 60.7458 142.096 62.8602 140.881 66.2013L128.734 99.637C127.493 103.055 128.693 106.821 131.652 108.797C136.924 112.32 139.16 118.866 137.32 124.835H95.2233C90.869 121.753 88.6173 116.449 89.3398 111.242C89.3411 111.241 89.3411 111.239 89.3411 111.237C89.4345 110.565 89.5746 109.896 89.7691 109.231C91.7173 102.58 98.1015 98.3024 104.95 99.0613C108.483 99.4512 111.821 97.3394 113.062 93.9217L125.209 60.4859C126.422 57.1448 125.254 53.4021 122.371 51.3853C117.089 47.6894 114.832 40.1521 117.12 33.8532C119.799 26.481 127.965 22.6655 135.322 25.3491C137.868 26.2782 140.082 27.9027 141.723 30.0495C143.131 31.8896 145.499 32.7525 147.759 32.2496C149.555 31.8494 151.383 31.8026 153.189 32.1106C154.545 32.3432 155.831 31.4283 156.062 30.069C156.292 28.711 155.38 27.4218 154.025 27.1918C151.578 26.7747 149.106 26.8383 146.677 27.379C146.292 27.4647 145.917 27.3283 145.677 27.0138C143.456 24.1106 140.465 21.9144 137.025 20.6604C127.087 17.0346 116.058 22.1886 112.441 32.1456C109.356 40.6368 112.333 50.4483 119.517 55.4762C120.555 56.2013 120.97 57.5594 120.528 58.7796L108.382 92.2141C107.936 93.4434 106.723 94.2361 105.497 94.101C100.866 93.5877 96.392 94.778 92.7485 97.2212C92.7303 96.3687 92.6798 95.5136 92.5877 94.6637C94.3361 92.1218 94.8718 88.8379 93.864 85.8022C95.4062 84.5312 96.7876 83.1446 97.9951 81.6423C103.339 74.9939 105.051 66.3637 102.945 56.6848C101.893 51.8557 100.364 47.449 98.3946 43.4945C99.5996 44.0832 100.924 44.3938 102.287 44.3938C102.492 44.3938 102.697 44.3873 102.903 44.373C105.282 44.2118 107.456 43.1319 109.024 41.3321C110.592 39.5335 111.367 37.2294 111.206 34.8461C111.045 32.4627 109.967 30.286 108.171 28.7149L102.986 24.1795C98.8253 20.5395 93.493 18.3979 87.9727 18.151C82.9478 17.9261 77.9321 19.2867 73.6997 21.9898C68.8383 20.4251 63.4905 19.6142 57.7147 19.6142C51.9401 19.6142 46.5923 20.4251 41.7309 21.9898C37.4972 19.2854 32.4763 17.9274 27.4566 18.151C21.9376 18.3979 16.6066 20.5395 12.4443 24.1795L7.25995 28.7149C3.55292 31.9572 3.17029 37.618 6.40648 41.3321C8.16919 43.3541 10.6466 44.3899 13.1357 44.3899C14.4704 44.3899 15.8063 44.0884 17.0399 43.4867C15.0683 47.4438 13.5378 51.8518 12.4858 56.6848C10.3794 66.3637 12.0915 74.9939 17.4355 81.6423C18.643 83.1446 20.0244 84.5312 21.5666 85.8022C21.1827 86.96 21.0219 88.153 21.0685 89.3291C18.5172 87.8073 16.8129 85.9425 16.1994 85.207C12.9593 81.3201 7.16526 80.8002 3.28573 84.0478C-0.593808 87.2953 -1.11264 93.1003 2.12874 96.9873C8.0771 104.118 16.4056 108.696 25.1777 109.714C25.655 110.797 26.1946 111.851 26.7925 112.873C23.4435 114.628 21.2099 113.984 18.4018 112.835C14.4029 111.2 9.82166 113.129 8.18995 117.134C7.39873 119.074 7.40911 121.208 8.21978 123.14C9.03045 125.073 10.5428 126.574 12.4794 127.367C16.2318 128.901 19.6937 129.647 23.0647 129.647C27.5941 129.647 31.9873 128.261 36.4064 125.421C36.6399 128.231 36.671 131.339 36.5115 135.091C36.4518 136.468 37.5193 137.632 38.8929 137.691C38.9292 137.693 38.9642 137.693 39.0005 137.693C40.3274 137.693 41.4299 136.645 41.487 135.304C41.6349 131.841 41.6271 128.875 41.4546 126.167C44.1058 127.439 46.9555 128.413 49.9491 129.034C50.0178 132.698 49.8609 136.86 49.4666 141.939C49.2902 144.219 47.2888 145.978 44.9671 145.797C43.8516 145.709 42.8373 145.192 42.1109 144.341C41.2159 143.294 39.6439 143.171 38.5997 144.067C37.5543 144.964 37.4311 146.539 38.3261 147.585C39.9176 149.449 42.1394 150.581 44.5805 150.771C44.8179 150.789 45.0604 150.8 45.2991 150.8C50.0516 150.8 54.0634 147.077 54.4318 142.325C54.8118 137.44 54.9778 133.36 54.9402 129.726C55.856 129.791 56.7808 129.827 57.7147 129.827C59.4696 129.827 61.1999 129.706 62.8977 129.478C63.0897 132.892 63.0171 136.524 62.6772 140.901C62.4866 143.347 63.2583 145.72 64.8511 147.585C66.4426 149.449 68.6645 150.58 71.1056 150.771C71.343 150.789 71.5855 150.798 71.8242 150.798C75.0227 150.798 77.8854 149.112 79.5275 146.559C79.6183 147.517 79.9347 148.454 80.4769 149.291C81.5976 151.023 83.4978 152.058 85.5575 152.058H148.249C150.31 152.058 152.209 151.023 153.329 149.291C154.451 147.559 154.619 145.399 153.778 143.515L147.923 130.383C146.839 127.951 144.792 126.148 142.354 125.328C144.315 117.541 141.252 109.216 134.414 104.647C133.39 103.962 132.969 102.573 133.416 101.345L145.561 67.9089C146.005 66.6886 147.193 65.9141 148.454 66.0271C157.184 66.8042 165.759 61.2046 168.844 52.7147C171.23 46.1494 169.866 38.7928 165.286 33.5167ZM88.1478 92.2673C88.1426 92.2738 88.1374 92.2803 88.1322 92.2855C87.7859 92.6806 87.3773 93.0289 86.9065 93.307C85.1879 94.3167 83.4083 95.2394 81.582 96.0685C82.1372 94.6559 82.5886 93.2654 82.9219 91.9217C85.2566 91.0549 87.4163 90.0464 89.3904 88.8989C89.4021 90.1296 88.9598 91.333 88.1478 92.2673ZM87.7509 23.136C92.148 23.3335 96.3946 25.0385 99.7099 27.9391L104.894 32.4744C105.688 33.1684 106.164 34.13 106.235 35.184C106.308 36.2366 105.966 37.2554 105.272 38.0507C104.579 38.8461 103.618 39.323 102.567 39.3945C101.515 39.4646 100.5 39.1229 99.706 38.4276L94.5216 33.8935C93.0883 32.6382 91.3749 31.761 89.5331 31.3256C86.6445 28.568 83.3798 26.273 79.7739 24.4654C82.3006 23.4764 85.0257 23.0138 87.7509 23.136ZM15.7246 38.4276C14.0864 39.861 11.5896 39.692 10.1589 38.0507C8.72823 36.4081 8.89815 33.9065 10.5363 32.4731L15.7207 27.9391C19.036 25.0385 23.2826 23.3335 27.6797 23.136C30.4049 23.0125 33.13 23.4764 35.658 24.4654C32.0508 26.273 28.7861 28.568 25.8988 31.3269C24.0557 31.761 22.3436 32.6382 20.909 33.8935L15.7246 38.4276ZM5.9512 93.7865C5.23393 92.9262 4.89409 91.8385 4.99397 90.7222C5.09384 89.6059 5.62175 88.5962 6.48041 87.8775C8.25221 86.3934 10.8982 86.6313 12.3782 88.4064C13.7492 90.0503 17.3278 93.7735 22.7625 95.5643C22.7042 96.3219 22.6717 97.0808 22.6717 97.8346C22.6717 100.08 22.9273 102.27 23.4124 104.386C16.7662 103.039 10.548 99.2965 5.9512 93.7865ZM21.315 78.5118C16.8855 73.003 15.5534 66.0167 17.3524 57.7478C19.3668 48.4964 23.197 41.0488 28.624 35.5725C28.7524 35.4673 28.8691 35.3503 28.9742 35.2229C32.6177 31.6479 36.9641 28.9462 41.9475 27.1606C42.1005 27.1229 42.2497 27.071 42.3937 27.0047C46.9866 25.4232 52.1061 24.6044 57.716 24.6044C63.3258 24.6044 68.4453 25.4232 73.0382 27.0047C73.1809 27.071 73.3301 27.1229 73.4818 27.1606C78.4665 28.9449 82.813 31.6466 86.4564 35.2229C86.5615 35.3503 86.6795 35.4673 86.8079 35.5725C92.2349 41.0488 96.0651 48.4964 98.0782 57.7465C99.8785 66.0167 98.5451 73.0017 94.1169 78.5118C92.8302 80.1115 91.2997 81.5592 89.5421 82.8561C89.4241 82.9263 89.3178 83.0069 89.2166 83.0926C86.6912 84.9003 83.7066 86.3999 80.2914 87.5825C80.0943 87.6241 79.9049 87.6891 79.7246 87.7748C73.6504 89.7891 66.2623 90.8262 57.716 90.8262C57.6835 90.8262 57.6524 90.8249 57.6213 90.8249C65.4192 87.4175 70.413 79.927 70.6205 71.1382C71.9746 70.2714 73.2146 69.2123 74.2938 67.9738C75.1966 66.9342 75.0889 65.3592 74.0512 64.4534C73.0149 63.5476 71.4415 63.6555 70.5375 64.6951C68.8046 66.6886 66.4867 68.0362 63.9536 68.5742V61.9323C64.235 61.8413 64.5113 61.7374 64.7837 61.6165L69.7151 59.419C71.2392 58.7393 72.3741 57.4294 72.832 55.8219C73.2886 54.2157 73.0123 52.5016 72.0758 51.1202C70.9266 49.4282 69.2054 48.2092 67.2287 47.6907C63.4568 46.7017 59.4709 46.7017 55.7003 47.6907C53.7236 48.2092 52.0011 49.4282 50.8532 51.1202C49.9154 52.5016 49.6391 54.2157 50.097 55.8219C50.5535 57.4294 51.6898 58.7393 53.2138 59.419L58.1453 61.6165C58.4164 61.7374 58.6939 61.8413 58.9741 61.9323V68.5742C56.4422 68.0362 54.1244 66.6886 52.3902 64.6951C51.4874 63.6555 49.9141 63.5476 48.8764 64.4534C47.8401 65.3592 47.7324 66.9342 48.6352 67.9738C49.7027 69.2006 50.9284 70.2506 52.2657 71.1122C52.1191 72.6444 51.337 73.6606 49.927 74.1297C47.6027 74.9017 45.7168 76.5339 44.6181 78.7275C43.5195 80.9198 43.3392 83.4097 44.1097 85.7385C44.7258 87.5994 45.8932 89.1576 47.3913 90.2596C43.0863 89.7579 39.1821 88.9275 35.7073 87.7748C35.5283 87.6891 35.3389 87.6241 35.1405 87.5825C31.7253 86.3999 28.7407 84.9003 26.2153 83.0926C26.1154 83.0069 26.0091 82.9276 25.8936 82.8587C24.1335 81.5618 22.6017 80.1128 21.315 78.5118ZM50.4472 83.6332C50.7935 84.6807 51.7663 85.3447 52.8104 85.3447C53.0698 85.3447 53.3344 85.3031 53.5939 85.2174C59.7705 83.1654 62.7512 78.2467 63.6487 73.6814C64.2532 73.6034 64.8511 73.4917 65.4413 73.35C64.4763 79.6593 60.2504 84.7976 54.127 86.8314C53.6976 86.973 53.2553 87.0458 52.8091 87.0458C51.0023 87.0458 49.4056 85.8892 48.8362 84.1686C48.4834 83.1056 48.5664 81.9672 49.0684 80.9666C49.5704 79.9646 50.4316 79.2187 51.4926 78.8665C54.267 77.9452 56.1802 75.9062 56.926 73.2097C57.4617 73.3578 58.0078 73.4787 58.559 73.5748C57.9144 75.9192 56.2619 79.0732 52.027 80.4806C50.7209 80.9133 50.014 82.3259 50.4472 83.6332ZM55.236 54.8589C55.0129 54.7602 54.9234 54.5847 54.8857 54.4548C54.8494 54.3261 54.8339 54.1286 54.9714 53.9272C55.4422 53.2319 56.1491 52.7316 56.9611 52.5185C58.4332 52.1325 59.9482 51.9389 61.4632 51.9389C62.9782 51.9389 64.4931 52.1325 65.9666 52.5185C66.7773 52.7316 67.4842 53.2319 67.9563 53.9272C68.0938 54.1286 68.0782 54.3261 68.0406 54.4548C68.0043 54.5847 67.9135 54.7602 67.6904 54.8589L62.759 57.0564C61.9353 57.4229 60.9911 57.4229 60.1674 57.0564L55.236 54.8589ZM57.7147 95.8164C64.9692 95.8164 71.4882 95.0912 77.1927 93.6773C76.5183 95.5253 75.6466 97.3693 74.6388 99.1549C74.4948 99.3394 74.3781 99.5434 74.2899 99.7605C69.3961 108.122 61.6603 115.077 57.7147 115.077C53.7703 115.077 46.0332 108.12 41.1394 99.7592C41.0525 99.5434 40.9358 99.3394 40.7918 99.1562C39.784 97.3693 38.9123 95.5253 38.2379 93.676C43.9424 95.0912 50.4614 95.8164 57.7147 95.8164ZM26.0415 88.8989C28.0144 90.0477 30.174 91.0549 32.5087 91.9217C32.842 93.2654 33.2934 94.6559 33.8486 96.0685C32.0223 95.2394 30.2427 94.3167 28.5241 93.307C28.052 93.0289 27.6447 92.6806 27.2984 92.2855C27.2932 92.279 27.288 92.2738 27.2828 92.2673C26.4708 91.333 26.0298 90.1296 26.0415 88.8989ZM23.0647 124.657C20.3513 124.657 17.5055 124.032 14.3627 122.745C13.6571 122.457 13.1071 121.911 12.8114 121.207C12.517 120.504 12.5131 119.727 12.801 119.02C13.3951 117.562 15.0644 116.86 16.5197 117.455C20.1606 118.946 24.1647 120.088 29.6603 116.983C30.8977 118.492 32.2804 119.895 33.7837 121.181C30.148 123.542 26.6849 124.657 23.0647 124.657ZM75.9917 141.938C75.8153 144.219 73.8178 145.978 71.4921 145.795C70.3779 145.708 69.3623 145.191 68.636 144.34C67.9083 143.489 67.5555 142.405 67.6424 141.287C68.0238 136.377 68.0847 132.331 67.8266 128.479C70.6905 127.698 73.417 126.591 75.9463 125.187C76.4729 130.31 76.4819 135.63 75.9917 141.938ZM76.7349 118.771C76.5377 118.877 76.3574 119.007 76.1992 119.159C72.8398 121.513 68.9421 123.201 64.7396 124.097C64.689 124.106 64.6397 124.116 64.5904 124.128C62.3711 124.591 60.0688 124.835 57.7147 124.835C41.404 124.835 28.0857 113.108 27.6629 98.5493C30.6941 100.208 33.8797 101.616 37.1639 102.757C38.6815 105.291 40.4688 107.785 42.4624 110.107C50.18 119.098 55.7003 120.068 57.7147 120.068C59.7303 120.068 65.2506 119.098 72.9682 110.107C74.9618 107.785 76.7491 105.291 78.2667 102.757C81.5509 101.616 84.7365 100.208 87.7678 98.5493C87.725 99.9918 87.5537 101.428 87.2606 102.835C86.2917 104.352 85.5173 106.023 84.9894 107.827C84.7637 108.596 84.5899 109.373 84.4654 110.152C82.525 113.546 79.8816 116.457 76.7349 118.771ZM81.036 141.256C81.5405 134.063 81.403 128.046 80.5937 122.097C82.1346 120.882 83.5665 119.538 84.8688 118.076C85.673 121.126 87.2152 123.968 89.3878 126.313C87.878 127.279 86.6445 128.678 85.8844 130.383L81.036 141.256ZM139.051 129.827C139.055 129.827 139.058 129.825 139.06 129.825H139.387C141.108 129.825 142.674 130.843 143.376 132.418L149.232 145.55C149.44 146.015 149.271 146.392 149.152 146.576C149.034 146.759 148.759 147.067 148.25 147.067H85.5588C85.0504 147.067 84.7741 146.759 84.6561 146.576C84.5368 146.392 84.3694 146.015 84.577 145.55L90.4319 132.418C91.1337 130.843 92.7005 129.825 94.4217 129.825H94.4567C94.458 129.825 94.4593 129.827 94.4619 129.827C94.4632 129.827 94.4645 129.825 94.4671 129.825H139.038C139.044 129.825 139.047 129.827 139.051 129.827Z" fill="black"/>
</g>
<defs>
<clipPath id="clip0_223_13863">
<rect width="170" height="170" fill="white"/>
</clipPath>
</defs>
</svg>
