<svg width="66" height="66" viewBox="0 0 66 66" fill="none" xmlns="http://www.w3.org/2000/svg">
<path d="M61.8295 17.22C61.8295 23.8396 56.4627 29.2058 49.8432 29.2058C43.2232 29.2058 37.8569 23.8396 37.8569 17.22C37.8569 10.6 43.2232 5.23376 49.8432 5.23376C56.4627 5.23376 61.8295 10.6 61.8295 17.22Z" fill="#DFE3E5"/>
<path d="M49.8433 5.23376C54.8293 5.23376 59.1034 8.27867 60.9096 12.6106H53.8167C53.1656 10.2269 51.945 7.63817 49.8433 5.23376Z" fill="#A0D9BB"/>
<path d="M38.7773 12.6106C40.5835 8.27867 44.8576 5.23376 49.8436 5.23376C47.7419 7.63867 46.5213 10.2269 45.8702 12.6106H38.7773Z" fill="#7F9AE6"/>
<path d="M54.4522 17.22C54.4522 18.5624 54.276 20.1446 53.8162 21.8289H45.8699C45.4101 20.1451 45.2339 18.5624 45.2339 17.22C45.2339 15.8771 45.4101 14.2949 45.8699 12.6106H53.8162C54.2765 14.2944 54.4522 15.8771 54.4522 17.22Z" fill="white"/>
<path d="M54.4524 17.22C54.4524 15.8771 54.2761 14.2949 53.8164 12.6106H60.9098C61.5014 14.0296 61.8297 15.586 61.8297 17.22C61.8297 18.8535 61.5014 20.4099 60.9098 21.8289H53.8164C54.2766 20.1446 54.4524 18.5624 54.4524 17.22Z" fill="#D16283"/>
<path d="M60.9096 21.829C59.1034 26.1604 54.8293 29.2058 49.8433 29.2058C51.945 26.8009 53.1656 24.2127 53.8167 21.829H60.9096Z" fill="#F6E06A"/>
<path d="M38.7769 12.6106H45.8698C45.41 14.2944 45.2338 15.8771 45.2338 17.2195C45.2338 18.5624 45.41 20.1446 45.8698 21.8289H38.7769C38.1847 20.4099 37.8569 18.8535 37.8569 17.2195C37.8569 15.586 38.1847 14.0296 38.7769 12.6106Z" fill="#A2D3EE"/>
<path d="M53.817 21.829C53.1659 24.2127 51.9453 26.8009 49.8436 29.2058C47.7418 26.8009 46.5212 24.2127 45.8701 21.829H53.817Z" fill="#A0D9BB"/>
<path d="M15.2099 57.6468C14.0487 57.6468 12.8513 57.38 11.5738 56.8578C10.5436 56.4373 10.0496 55.2616 10.4705 54.2313C10.891 53.2016 12.0673 52.7076 13.097 53.1281C14.9883 53.9005 16.7084 54.2021 20.1466 50.5666C20.9109 49.7584 22.1864 49.7226 22.9946 50.487C23.8028 51.2514 23.8385 52.5268 23.0742 53.335C20.3067 56.2611 17.8535 57.6468 15.2099 57.6468Z" fill="#495059"/>
<path d="M34.0109 65.0333C33.7003 65.0333 33.385 64.9754 33.0794 64.8536C31.7873 64.3389 31.1574 62.8741 31.6725 61.5821C32.7632 58.8448 32.2949 57.4576 31.393 55.4978C30.8119 54.2344 31.3653 52.7389 32.6287 52.1578C33.8921 51.5767 35.3876 52.1301 35.9687 53.3935C37.1586 55.9802 38.1677 58.8871 36.3504 63.4467C35.9576 64.4331 35.011 65.0333 34.0109 65.0333Z" fill="#495059"/>
<path d="M22.5427 65.0333C21.5422 65.0333 20.596 64.4331 20.2033 63.4466C18.3855 58.8871 19.3951 55.9801 20.5849 53.3934C21.166 52.1296 22.661 51.5767 23.9249 52.1578C25.1883 52.7388 25.7417 54.2344 25.1606 55.4977C24.2593 57.4575 23.7905 58.8448 24.8811 61.582C25.3963 62.8741 24.7663 64.3384 23.4748 64.8535C23.1686 64.9754 22.8529 65.0333 22.5427 65.0333Z" fill="#495059"/>
<path d="M47.8745 50.9396C45.5502 50.9396 43.9021 49.9955 42.7012 49.3076C41.2726 48.4894 40.9755 48.3192 39.8436 48.9385C38.6235 49.6057 37.0932 49.1581 36.4255 47.938C35.7584 46.7179 36.206 45.1877 37.4261 44.5205C41.0319 42.5476 43.5431 43.9857 45.2043 44.9374C46.6081 45.7416 47.4551 46.227 49.2965 45.667C50.6274 45.2632 52.0338 46.013 52.4381 47.3438C52.843 48.6742 52.0922 50.0811 50.7613 50.4854C49.6979 50.8087 48.7391 50.9396 47.8745 50.9396Z" fill="#A2D3EE"/>
<path d="M16.4552 49.4461C14.08 49.4466 12.4904 48.2955 11.3574 47.4748C9.98826 46.4843 9.52752 46.1504 7.73895 46.9516C6.47003 47.5206 4.98005 46.9521 4.41156 45.6827C3.84306 44.4132 4.41105 42.9238 5.67997 42.3553C10.1237 40.3648 12.6434 42.1886 14.3106 43.3956C15.5086 44.2627 16.0046 44.6212 17.2921 44.2909C18.6396 43.9439 20.0117 44.7556 20.3582 46.1021C20.7046 47.4491 19.8934 48.8217 18.5464 49.1682C17.7886 49.363 17.0932 49.4461 16.4552 49.4461Z" fill="#A2D3EE"/>
<path d="M37.0896 56.4997C36.8333 55.3728 36.4138 54.3607 35.9687 53.3934C35.3876 52.13 33.8921 51.5766 32.6287 52.1577C31.3653 52.7388 30.8119 54.2343 31.393 55.4977C31.9364 56.6785 32.3216 57.6518 32.3044 58.8376C34.0724 58.3482 35.6933 57.5456 37.0896 56.4997Z" fill="#41464F"/>
<path d="M23.9252 52.1577C22.6613 51.5771 21.1663 52.1295 20.5852 53.3934C20.1401 54.3607 19.7207 55.3733 19.4644 56.4997C20.8607 57.5455 22.4816 58.3482 24.25 58.8376C24.2324 57.6518 24.6176 56.6784 25.1609 55.4976C25.742 54.2343 25.1886 52.7388 23.9252 52.1577Z" fill="#41464F"/>
<path d="M37.4261 44.5205C36.206 45.1877 35.7584 46.718 36.4255 47.9381C37.0932 49.1581 38.6235 49.6058 39.8431 48.9386C40.759 48.4376 41.1291 48.4537 41.9927 48.9109C42.1417 48.1651 42.2198 47.3972 42.2198 46.6127C42.2198 45.5744 42.0823 44.5648 41.826 43.5975C40.5858 43.4183 39.128 43.5895 37.4261 44.5205Z" fill="#92BFD6"/>
<path d="M17.2923 44.2908C16.1563 44.5824 15.6356 44.3372 14.7061 43.6801C14.4634 44.6222 14.3345 45.6041 14.3345 46.6132C14.3345 47.4994 14.4337 48.3655 14.623 49.2014C15.1764 49.3524 15.7837 49.4466 16.4554 49.4466C17.0934 49.4461 17.7888 49.363 18.5466 49.1681C19.8936 48.8222 20.7048 47.4496 20.3583 46.1026C20.0119 44.7556 18.6397 43.9439 17.2923 44.2908Z" fill="#92BFD6"/>
<path d="M40.5526 46.6128C40.5526 40.4817 35.0564 35.5117 28.2768 35.5117C21.4971 35.5117 16.001 40.4817 16.001 46.6128C16.001 52.7439 21.4971 57.7143 28.2768 57.7143C35.0564 57.7143 40.5526 52.7439 40.5526 46.6128Z" fill="#A2D3EE"/>
<path d="M18.1572 52.8949C20.3703 55.8049 24.0763 57.7143 28.2769 57.7143C32.4779 57.7143 36.184 55.8049 38.397 52.8949H18.1572Z" fill="#495059"/>
<path d="M39.3645 39.4851C36.3558 41.9817 32.4922 43.4827 28.277 43.4827C24.0624 43.4827 20.1987 41.9812 17.1901 39.4851C16.5506 40.3134 16.0173 41.2153 15.613 42.1755C15.0621 43.4832 15.5702 44.9999 16.7938 45.7179C20.1635 47.6963 24.0876 48.8308 28.277 48.8308C32.467 48.8308 36.3911 47.6963 39.7603 45.7179C40.9844 44.9999 41.4924 43.4832 40.9416 42.1755C40.5372 41.2153 40.004 40.3134 39.3645 39.4851Z" fill="#7F9AE6"/>
<path d="M22.6867 42.5627C20.6605 41.8744 18.8024 40.823 17.1901 39.4851C16.5506 40.3134 16.0173 41.2153 15.613 42.1755C15.0621 43.4832 15.5702 44.9999 16.7938 45.7179C18.5461 46.7467 20.449 47.5448 22.4601 48.076C21.7224 46.5956 21.9314 44.3725 22.6867 42.5627Z" fill="#5E78BF"/>
<path d="M23.6593 25.4655C23.1588 25.4655 22.6537 25.3134 22.2182 24.9967L19.1964 22.8023C17.8736 21.841 16.0891 21.9211 14.8574 22.9961L12.879 24.7238C11.8578 25.6155 10.3064 25.5103 9.41465 24.4886C8.52238 23.4674 8.62762 21.916 9.6493 21.0243L11.6272 19.2966C13.0542 18.0514 14.8816 17.3187 16.7734 17.2341C18.6652 17.1495 20.5504 17.7155 22.0827 18.8283L25.104 21.0232C26.2012 21.8204 26.4449 23.3556 25.6478 24.4529C25.1674 25.1145 24.4186 25.4655 23.6593 25.4655Z" fill="#495059"/>
<path d="M32.8947 25.4655C32.1354 25.4655 31.3866 25.1145 30.9057 24.4529C30.1091 23.3557 30.3523 21.8204 31.4496 21.0233L34.4708 18.8288C36.0031 17.716 37.8888 17.15 39.7806 17.2341C41.6724 17.3192 43.4998 18.0514 44.9263 19.2971L46.9047 21.0243C47.9259 21.9161 48.0311 23.4675 47.1394 24.4891C46.2476 25.5103 44.6962 25.6156 43.6745 24.7238L41.6961 22.9967C40.4644 21.9211 38.6799 21.841 37.3571 22.8023L34.3359 24.9967C33.8998 25.3129 33.3952 25.4655 32.8947 25.4655Z" fill="#495059"/>
<path d="M28.2768 44.9138C40.7424 44.9138 46.3604 39.2036 44.6066 31.1631C42.7228 22.5224 36.7881 17.7926 28.2768 17.7926C19.7659 17.7926 13.8312 22.5224 11.947 31.1631C10.1936 39.2036 15.8116 44.9138 28.2768 44.9138Z" fill="#DDAF89"/>
<path d="M31.7059 49.2633C31.7059 51.1572 30.1706 52.6924 28.2768 52.6924C26.3829 52.6924 24.8477 51.1572 24.8477 49.2633C24.8477 47.3695 26.3829 45.8342 28.2768 45.8342C30.1706 45.8342 31.7059 47.3695 31.7059 49.2633Z" fill="#F6E06A"/>
<path d="M22.1622 31.0241C22.1622 29.5346 20.6466 28.3276 18.7769 28.3276C16.9068 28.3276 15.3911 29.5346 15.3911 31.0241C15.3911 32.5131 16.9068 33.72 18.7769 33.72C20.6466 33.72 22.1622 32.5131 22.1622 31.0241Z" fill="#FFDBDB"/>
<path d="M41.1627 31.0241C41.1627 29.5346 39.6466 28.3276 37.7769 28.3276C35.9073 28.3276 34.3911 29.5346 34.3911 31.0241C34.3911 32.5131 35.9073 33.72 37.7769 33.72C39.6466 33.72 41.1627 32.5131 41.1627 31.0241Z" fill="#FFDBDB"/>
<path d="M30.0521 28.7955C28.8884 28.4909 27.6653 28.4909 26.5011 28.7955C26.0192 28.9214 25.5993 29.218 25.3188 29.6304C24.9406 30.1868 25.1582 30.9501 25.773 31.2236L27.4785 31.9824C27.9865 32.2085 28.5666 32.2085 29.0747 31.9824L30.7807 31.2236C31.3955 30.9501 31.613 30.1868 31.2349 29.6304C30.9544 29.218 30.5345 28.9214 30.0521 28.7955Z" fill="#495059"/>
<path d="M28.2659 41.101C30.2206 41.101 32.2373 39.8255 32.2373 36.6033C32.2373 34.485 30.845 34.4175 28.2659 34.4175C25.6867 34.4175 24.2939 34.485 24.2939 36.6033C24.2939 39.8255 26.3111 41.101 28.2659 41.101Z" fill="#D16283"/>
<path d="M28.2656 37.6371C26.8794 37.6371 25.611 38.0072 24.6235 38.62C25.2736 40.3703 26.7867 41.1009 28.2656 41.1009C29.744 41.1009 31.2577 40.3703 31.9077 38.62C30.9198 38.0072 29.6514 37.6371 28.2656 37.6371Z" fill="#EB9898"/>
<path d="M7.13981 41.8145C6.67706 41.9494 6.19215 42.1261 5.68005 42.3553C4.41063 42.9238 3.84314 44.4137 4.41163 45.6826C4.98013 46.9521 6.47011 47.5206 7.73903 46.9516C8.22847 46.732 8.6167 46.6006 8.95356 46.5417L7.13981 41.8145Z" fill="#DDAF89"/>
<path d="M49.0494 50.8596C49.5882 50.7886 50.1577 50.6692 50.7614 50.4854C52.0923 50.0811 52.8431 48.6742 52.4382 47.3438C52.0339 46.013 50.6275 45.2632 49.2966 45.6671C48.7735 45.8262 48.3324 45.8982 47.9346 45.9052L49.0494 50.8596Z" fill="#DDAF89"/>
<path d="M24.9383 33.8248C23.8693 34.2735 23.327 35.2085 23.327 36.6033C23.327 40.3784 25.8074 42.0677 28.2657 42.0677C29.5744 42.0677 30.7784 41.6025 31.6556 40.7565C32.362 40.0757 33.2044 38.8023 33.2044 36.6028C33.2044 35.2085 32.6621 34.2735 31.5931 33.8243C30.9622 33.5594 30.2149 33.4814 29.2441 33.4592V32.9532C29.3196 32.927 29.3947 32.8983 29.4682 32.8656L31.1742 32.1067C31.7296 31.8595 32.1435 31.3826 32.3102 30.7975C32.4768 30.2129 32.3761 29.5895 32.0342 29.0865C31.6228 28.4812 31.006 28.0457 30.2975 27.8599C30.2975 27.8599 30.2975 27.8599 30.297 27.8599C28.9757 27.5139 27.5784 27.5139 26.2561 27.8599C25.5481 28.0457 24.9313 28.4812 24.5194 29.0865C24.1775 29.5895 24.0768 30.2129 24.2434 30.7975C24.4101 31.3826 24.8245 31.8595 25.3799 32.1067L27.0854 32.8656C27.1594 32.8983 27.2345 32.927 27.31 32.9532V33.4587C26.3281 33.4804 25.5743 33.5574 24.9383 33.8248ZM26.166 30.3403C26.1342 30.3262 26.1131 30.3015 26.1035 30.2683C26.094 30.2346 26.099 30.2028 26.1186 30.1736C26.2672 29.9551 26.4902 29.7975 26.746 29.7305C27.2471 29.5996 27.7617 29.5341 28.2768 29.5341C28.7919 29.5341 29.307 29.5996 29.8076 29.7305C30.0634 29.7975 30.2864 29.9551 30.4355 30.1736C30.4551 30.2028 30.4601 30.2346 30.4506 30.2678C30.441 30.3015 30.4199 30.3257 30.3881 30.3403L28.6821 31.0986C28.4248 31.2134 28.1293 31.2134 27.872 31.0986L26.166 30.3403ZM28.2657 35.3843C31.2703 35.3843 31.2703 35.6426 31.2703 36.6028C31.2703 39.8794 28.9707 40.1342 28.2657 40.1342C27.5608 40.1342 25.2606 39.8794 25.2606 36.6028C25.2606 35.6426 25.2606 35.3843 28.2657 35.3843ZM36.7705 28.3342V27.1388C36.7705 26.6045 36.338 26.172 35.8037 26.172C35.27 26.172 34.8369 26.6045 34.8369 27.1388V28.3342C34.8369 28.8685 35.27 29.301 35.8037 29.301C36.338 29.301 36.7705 28.868 36.7705 28.3342ZM61.8241 12.2985C61.8121 12.2632 61.798 12.229 61.7824 12.1957C59.9354 7.82401 55.7545 4.66933 50.8102 4.30275V0.966797C50.8102 0.432541 50.3777 0 49.8434 0C49.3092 0 48.8766 0.432541 48.8766 0.966797V4.30275C43.9324 4.66933 39.7515 7.8235 37.9045 12.1957C37.8889 12.229 37.8748 12.2632 37.8627 12.298C37.3108 13.6364 36.977 15.0861 36.9055 16.6032C36.0137 16.851 35.1587 17.2296 34.3742 17.7286C32.5196 17.1335 30.4798 16.8258 28.2768 16.8258C26.0743 16.8258 24.0345 17.134 22.1799 17.7291C20.5631 16.6999 18.6471 16.1823 16.7301 16.2684C14.6203 16.3625 12.5825 17.1798 10.9918 18.5685L9.01337 20.2957C7.59188 21.5369 7.44484 23.7031 8.68607 25.1246C9.36182 25.8986 10.3115 26.2944 11.2662 26.2944C11.7617 26.2944 12.2577 26.1871 12.7179 25.9716C11.9762 27.4681 11.4002 29.1338 11.0024 30.9571C10.6056 32.7774 10.5602 34.5066 10.8684 36.0973C10.9701 36.6215 11.4762 36.9649 12.0014 36.8632C12.5256 36.7614 12.868 36.2539 12.7668 35.7302C12.5089 34.3988 12.5507 32.9315 12.8916 31.369C13.6595 27.8483 15.1203 25.0139 17.1904 22.9297C17.2377 22.8904 17.2815 22.8471 17.3203 22.8003C18.7095 21.4397 20.3667 20.4115 22.2665 19.7322C22.3234 19.7181 22.3793 19.6985 22.4337 19.6738C24.1845 19.0711 26.1373 18.7594 28.2768 18.7594C30.4163 18.7594 32.3691 19.0711 34.1204 19.6738C34.1743 19.6985 34.2302 19.7181 34.2876 19.7322C36.1874 20.4115 37.8446 21.4397 39.2333 22.8003C39.2726 22.8471 39.3159 22.8904 39.3632 22.9297C40.6548 24.2293 41.7077 25.8225 42.5043 27.6912C42.5109 27.7073 42.5179 27.7234 42.5255 27.739C42.9963 28.8528 43.3775 30.0634 43.662 31.369C44.3478 34.5131 43.8402 37.1693 42.1539 39.263C41.6382 39.903 41.0199 40.4791 40.3059 40.9917C40.2525 41.0219 40.2036 41.0576 40.1583 41.0964C37.4528 42.9691 33.4119 43.947 28.2768 43.947C23.1377 43.947 19.1003 42.9696 16.3973 41.0979C16.3474 41.0546 16.292 41.0164 16.2321 40.9831C15.4783 40.4403 14.8333 39.825 14.3021 39.1387C13.9748 38.7162 13.3675 38.6391 12.9455 38.9664C12.5235 39.2932 12.446 39.9005 12.7733 40.3225C13.2376 40.9222 13.8338 41.5486 14.5926 42.1564C14.5714 42.2259 14.5523 42.2959 14.5352 42.3658C12.7683 41.1085 9.92629 39.3934 5.28516 41.4726C4.43519 41.8532 3.78461 42.5416 3.45328 43.4117C3.12145 44.2813 3.14864 45.228 3.52881 46.0779C3.90949 46.9274 4.59833 47.578 5.46795 47.9098C6.33806 48.2417 7.28472 48.2145 8.13369 47.8338C8.49372 47.6727 8.75707 47.5634 8.98064 47.5075C9.06373 47.505 9.14731 47.4924 9.2304 47.4672C9.66143 47.443 10.0008 47.6862 10.7904 48.2578C11.8579 49.0307 13.4219 50.1627 15.6943 50.3762C15.931 51.0308 16.2271 51.6607 16.5775 52.2609C15.3388 52.8984 14.5065 52.6587 13.4627 52.2327C11.9404 51.6113 10.1967 52.344 9.57532 53.8657C8.95395 55.3874 9.6866 57.1311 11.2083 57.753C12.6268 58.3321 13.9355 58.6136 15.2104 58.6136C16.2508 58.6136 17.2619 58.4242 18.2664 58.0395C18.1662 59.6327 18.3989 61.5306 19.3052 63.8046C19.837 65.1384 21.1079 66 22.543 66C22.9856 66 23.4197 65.9164 23.8326 65.7513C24.6971 65.4068 25.3764 64.7462 25.744 63.8912C26.1116 63.0357 26.1242 62.0885 25.7797 61.2239C25.2838 59.9797 25.1619 59.108 25.2349 58.3593C26.2118 58.5693 27.2304 58.681 28.2768 58.681C29.3237 58.681 30.3418 58.5693 31.3192 58.3593C31.3922 59.108 31.2703 59.9797 30.7744 61.2239C30.4299 62.0885 30.4425 63.0362 30.8101 63.8912C31.1777 64.7462 31.8565 65.4068 32.721 65.7513C33.135 65.9164 33.5685 66 34.0106 66C35.0605 66 36.0439 65.5347 36.7081 64.723C37.0465 64.3101 36.9855 63.7008 36.5726 63.3625C36.1592 63.0241 35.5499 63.085 35.2121 63.4984C34.9205 63.8539 34.4713 64.0664 34.0106 64.0664C33.8152 64.0664 33.6219 64.0291 33.4371 63.9556C33.0524 63.802 32.7502 63.508 32.5866 63.1273C32.4229 62.7466 32.4174 62.3247 32.5705 61.94C33.1929 60.378 33.3938 59.095 33.1969 57.817C34.2211 57.4418 35.1823 56.9534 36.062 56.3688C36.345 57.4388 36.5072 58.7566 36.2393 60.3598C36.1512 60.8866 36.5067 61.3851 37.0334 61.4732C37.0872 61.4822 37.1406 61.4863 37.194 61.4863C37.6577 61.4863 38.0671 61.1519 38.1462 60.6791C38.543 58.3089 38.1406 56.4252 37.6955 55.0873C38.2106 54.6114 38.6835 54.0973 39.1069 53.5495C39.1482 53.5047 39.1855 53.4563 39.2177 53.4039C40.0808 52.2529 40.7314 50.9593 41.1166 49.57C41.3119 49.6355 41.6196 49.8021 42.2223 50.1476C43.4454 50.848 45.2939 51.9064 47.8741 51.9064C48.293 51.9064 48.7195 51.8767 49.1521 51.8208C49.1556 51.8203 49.1591 51.8198 49.1626 51.8193C49.7795 51.7387 50.4079 51.6033 51.0429 51.4104C52.8813 50.851 53.9221 48.9008 53.3632 47.0624C52.8042 45.2249 50.854 44.1836 49.0151 44.7421C48.5911 44.871 48.2447 44.9329 47.9315 44.9389C47.9164 44.9389 47.9013 44.9399 47.8862 44.9409C47.1585 44.942 46.6092 44.6277 45.6852 44.0985C44.7793 43.5799 43.5915 42.9016 42.0788 42.6604C42.0516 42.4922 42.0129 42.3246 41.962 42.1584C42.599 41.6478 43.1675 41.0874 43.6599 40.4761C45.7023 37.9402 46.3564 34.6486 45.5517 30.9571C45.4264 30.3831 45.2834 29.8252 45.1232 29.2824C46.6172 29.8675 48.215 30.1726 49.8429 30.1726H49.8439C55.2056 30.1726 59.8165 26.8976 61.7824 22.2434C61.798 22.2106 61.8121 22.1769 61.8241 22.1422C62.45 20.6235 62.7965 18.9618 62.7965 17.2201C62.7965 15.4783 62.45 13.8166 61.8241 12.2985ZM16.1279 21.2877C15.4239 21.4543 14.7698 21.7897 14.2215 22.2681L12.2436 23.9952C11.6252 24.535 10.6826 24.471 10.1428 23.8527C9.60302 23.2343 9.66697 22.2922 10.2853 21.7519L12.2632 20.0253C13.5256 18.923 15.1425 18.275 16.8167 18.2C17.8414 18.1546 18.8661 18.3258 19.8183 18.6924C18.4552 19.3777 17.2211 20.2463 16.1279 21.2877ZM7.34313 46.0694C6.96497 46.2386 6.54401 46.2507 6.15679 46.1031C5.76957 45.9556 5.46291 45.666 5.29372 45.2874C5.12403 44.9092 5.11245 44.4878 5.25998 44.1005C5.40752 43.7133 5.69706 43.4072 6.07521 43.238C6.2444 43.1624 6.40856 43.095 6.5707 43.031L7.68151 45.9259C7.57224 45.9697 7.45995 46.017 7.34313 46.0694ZM11.9238 46.6918C11.0522 46.0608 10.4052 45.6293 9.60906 45.5517L8.44387 42.5154C10.9384 42.1483 12.5175 43.2914 13.7436 44.1786C14.1198 44.451 14.4576 44.6957 14.7915 44.8906C14.8786 45.0769 14.9813 45.2562 15.0987 45.4269C15.0564 45.8216 15.0342 46.2189 15.0342 46.6127C15.0342 47.1993 15.0815 47.7759 15.1707 48.3403C13.7935 48.0417 12.7763 47.3091 11.9238 46.6918ZM28.2768 46.801C29.6348 46.801 30.7391 47.9058 30.7391 49.2633C30.7391 50.6214 29.6348 51.7256 28.2768 51.7256C26.9193 51.7256 25.8145 50.6214 25.8145 49.2633C25.8145 47.9058 26.9193 46.801 28.2768 46.801ZM16.3615 43.3442C18.4769 44.5341 21.4417 45.4958 25.5904 45.7879C25.0159 46.233 24.5546 46.8166 24.2565 47.4889C21.7917 47.0296 19.4492 46.156 17.283 44.8846C17.1083 44.7818 16.9572 44.6529 16.8288 44.5074C16.8263 44.5044 16.8233 44.5009 16.8203 44.4978C16.5408 44.1751 16.3792 43.7667 16.3615 43.3442ZM18.6632 55.7202C17.5071 56.3648 16.3741 56.68 15.2104 56.68C14.1913 56.68 13.1213 56.4458 11.9394 55.9629C11.4047 55.7444 11.1474 55.1316 11.3654 54.5968C11.5839 54.0621 12.1962 53.8048 12.7315 54.0228C14.1072 54.5842 15.6193 55.0153 17.6909 53.8551C18.0499 54.2892 18.4396 54.7006 18.8581 55.0868C18.7901 55.2907 18.7246 55.5017 18.6632 55.7202ZM18.6521 51.9281C17.643 50.4658 17.0368 48.7578 16.9738 46.9289C19.1401 48.1082 21.4574 48.9325 23.8844 49.3867C23.9106 50.3404 24.2419 51.2191 24.7842 51.9281H18.6521ZM23.9675 63.1273C23.8039 63.508 23.5017 63.802 23.1165 63.9556C22.9317 64.0291 22.7389 64.0664 22.543 64.0664C21.904 64.0664 21.338 63.6827 21.1014 63.0885C19.9986 60.3226 20.0349 58.2702 20.4266 56.6226C20.4347 56.5954 20.4412 56.5682 20.4468 56.5405C20.4614 56.4826 20.476 56.4252 20.4911 56.3683C21.3707 56.9534 22.3325 57.4418 23.3572 57.817C23.1598 59.0945 23.3607 60.378 23.9831 61.94C24.1367 62.3247 24.1312 62.7466 23.9675 63.1273ZM28.2768 56.7475C25.2087 56.7475 22.4221 55.6462 20.3823 53.8617H36.1713C34.132 55.6462 31.3454 56.7475 28.2768 56.7475ZM37.9015 51.9281H31.7699C32.3122 51.2191 32.6435 50.3404 32.6697 49.3867C35.0962 48.9325 37.414 48.1082 39.5798 46.9289C39.5168 48.7578 38.9111 50.4658 37.9015 51.9281ZM39.7343 44.4968C39.7303 44.5014 39.7268 44.5054 39.7233 44.5094C39.5954 44.6544 39.4448 44.7823 39.2711 44.8846C37.1044 46.156 34.7619 47.0296 32.2971 47.4889C31.9995 46.8166 31.5382 46.233 30.9637 45.7879C34.6728 45.5246 37.7811 44.6992 40.1926 43.3462C40.1744 43.7677 40.0133 44.1751 39.7343 44.4968ZM49.5775 46.5921C50.3958 46.3433 51.2644 46.8066 51.5132 47.6248C51.634 48.0211 51.5927 48.4411 51.3978 48.8066C51.2025 49.1722 50.8767 49.4401 50.4804 49.5604C50.2488 49.6309 50.0181 49.6924 49.7895 49.7447L49.1082 46.7184C49.2593 46.6827 49.4154 46.6414 49.5775 46.5921ZM44.7249 45.7768C45.5467 46.2476 46.2718 46.6626 47.148 46.8136L47.859 49.9723C45.8015 49.9683 44.3498 49.1375 43.1816 48.4688C42.5179 48.0886 41.9942 47.79 41.4685 47.6646C41.5018 47.3177 41.5194 46.9672 41.5194 46.6127C41.5194 46.2184 41.4977 45.8211 41.4554 45.4269C41.6347 45.1655 41.7802 44.8835 41.889 44.589C43.0089 44.7944 43.945 45.3302 44.7249 45.7768ZM59.3422 11.6439H54.5384C53.9523 9.77472 53.0973 8.0229 51.983 6.41057C55.1145 7.02942 57.7717 8.97913 59.3422 11.6439ZM49.8434 6.75902C50.9925 8.25151 51.8823 9.88751 52.5011 11.6439H47.1857C47.8046 9.88751 48.6943 8.25151 49.8434 6.75902ZM47.7034 6.41057C46.5895 8.0229 45.7345 9.77472 45.1479 11.6439H40.3446C41.9147 8.97913 44.5724 7.02942 47.7034 6.41057ZM39.4453 13.5775H44.6469C44.3976 14.7995 44.2672 16.0393 44.2672 17.2201C44.2672 17.3545 44.2723 17.491 44.2753 17.6274C42.9359 16.8132 41.4001 16.3389 39.824 16.2684C39.5042 16.2538 39.185 16.2578 38.8673 16.2764C38.9468 15.3388 39.1442 14.434 39.4453 13.5775ZM42.3321 22.2681C41.7843 21.7897 41.1302 21.4543 40.4262 21.2877C39.333 20.2463 38.0989 19.3777 36.7358 18.6924C37.6875 18.3268 38.7122 18.1556 39.7374 18.2C41.4111 18.275 43.028 18.923 44.2904 20.0253L44.7974 20.4674C44.7985 20.4684 44.7995 20.4694 44.8005 20.4704L46.2688 21.7519C46.8871 22.2922 46.9511 23.2343 46.4113 23.8527C45.8715 24.471 44.9289 24.535 44.3105 23.9952L42.3321 22.2681ZM44.16 26.6609C44.0557 26.4273 43.9475 26.1977 43.8357 25.9716C44.2959 26.1876 44.7924 26.2944 45.2874 26.2944C45.7058 26.2944 46.1238 26.2183 46.5175 26.0678C46.875 26.7425 47.2718 27.3981 47.7084 28.0301C46.4576 27.7843 45.2582 27.3231 44.16 26.6609ZM47.5402 20.2957L46.3378 19.2453C46.2486 18.559 46.2008 17.8792 46.2008 17.2196C46.2008 16.0428 46.3483 14.797 46.6268 13.577H53.0605C53.3385 14.797 53.486 16.0428 53.486 17.2196C53.486 18.3968 53.3385 19.6421 53.0605 20.8622H48.0579C47.9098 20.6587 47.7381 20.4679 47.5402 20.2957ZM48.0705 24.8683C48.5156 24.2485 48.7261 23.5188 48.7094 22.7958H52.5011C51.8823 24.5521 50.993 26.1876 49.8439 27.6801C49.1631 26.7944 48.569 25.8538 48.0705 24.8683ZM51.983 28.0291C53.0973 26.4167 53.9523 24.6649 54.5384 22.7958H59.3422C57.7717 25.4605 55.1145 27.4102 51.983 28.0291ZM60.2415 20.8622H55.04C55.2892 19.6401 55.4191 18.4004 55.4191 17.2201C55.4191 16.0393 55.2892 14.7995 55.04 13.5775H60.2415C60.6423 14.7185 60.8629 15.9436 60.8629 17.2201C60.8629 18.496 60.6423 19.7211 60.2415 20.8622ZM21.7167 28.3342V27.1388C21.7167 26.6045 21.2841 26.172 20.7499 26.172C20.2161 26.172 19.7831 26.6045 19.7831 27.1388V28.3342C19.7831 28.8685 20.2161 29.301 20.7499 29.301C21.2841 29.301 21.7167 28.868 21.7167 28.3342Z" fill="black"/>
</svg>
