<svg width="375" height="376" viewBox="0 0 375 376" fill="none" xmlns="http://www.w3.org/2000/svg">
<path d="M30.2175 338.955C130.98 338.498 244.02 338.49 344.783 338.955C244.02 339.42 130.98 339.413 30.2175 338.955Z" fill="#263238"/>
<path d="M44.7522 211.807C44.9896 207.788 45.5565 203.794 46.4472 199.867C47.2872 196.335 48.4797 192.727 50.7072 189.802C52.7472 187.14 55.6647 185.017 59.0622 184.597C62.3322 184.2 65.4072 185.655 67.8522 187.717C70.8522 190.275 73.1997 193.657 75.3522 196.935C77.738 200.604 79.9091 204.408 81.8547 208.327C81.9222 208.462 81.7272 208.567 81.6597 208.44C79.9768 205.112 78.0332 201.922 75.8472 198.9C73.8526 196.005 71.6091 193.29 69.1422 190.785C66.8922 188.595 64.0422 186.54 60.7947 186.435C57.5472 186.33 54.5697 188.152 52.6197 190.65C50.4372 193.44 49.3347 196.927 48.5022 200.325C47.6424 204.062 47.0807 207.861 46.8222 211.687C46.1847 219.547 46.0122 227.437 45.8322 235.335C45.7322 239.8 45.6647 244.262 45.6297 248.722C45.6297 250.972 45.6297 253.222 45.5772 255.472C45.6625 257.656 45.5747 259.843 45.3147 262.012C45.2397 262.447 44.5647 262.41 44.4522 262.012C44.1872 259.959 44.0869 257.887 44.1522 255.817C44.1522 253.672 44.0922 251.527 44.0772 249.39C44.0772 245.22 44.0172 241.057 44.0322 236.887C44.0847 228.54 44.1822 220.147 44.7522 211.807Z" fill="#263238"/>
<path d="M55.9797 205.875C56.3922 203.625 57.1422 200.76 58.4097 199.035C60.6597 195.937 63.1422 197.287 60.8697 200.715C59.1917 203.258 58.1027 206.143 57.6822 209.16C57.6822 209.16 61.4997 214.627 66.1122 217.32C65.9172 215.22 65.3247 211.987 65.7372 208.867C66.6222 202.117 70.7022 202.5 69.6897 207.862C68.8797 212.16 68.5497 216.727 68.7672 218.707C70.3101 219.706 71.9668 220.517 73.7022 221.122C73.4322 220.372 73.1547 219.405 72.8472 218.265C71.2047 212.212 75.2397 210.322 75.3672 213.765C75.6284 216.669 76.153 219.543 76.9347 222.352C79.1847 223.102 80.9847 223.605 82.1097 223.995C85.0157 225.074 87.6118 226.852 89.6697 229.17C91.7725 227.271 93.5177 225.01 94.8222 222.495C93.4122 221.28 91.1847 219.495 88.0722 217.29C82.2747 213.195 84.3222 208.02 88.8897 211.237C92.2122 213.562 94.7772 217.86 95.9472 220.072C97.5159 216.225 98.4065 212.134 98.5797 207.982C94.0197 203.707 82.7622 197.745 86.1522 197.745C89.2122 197.745 96.0447 202.245 98.5572 203.955C98.4903 202.779 98.3601 201.607 98.1672 200.445C93.8772 197.632 79.9422 193.252 82.1622 191.992C84.5997 190.612 94.3272 195.12 97.2672 196.545C96.7153 194.632 95.8429 192.826 94.6872 191.205C88.7622 183.262 78.0747 180.532 73.4097 182.04C70.1097 183.112 71.0772 191.49 70.3647 191.205C57.1347 185.835 51.1047 189.607 55.9797 205.875ZM88.4772 204.96C89.4147 203.82 93.7272 207.165 92.5047 208.995C91.2822 210.825 87.2697 206.415 88.4772 204.96ZM65.7447 197.812C66.8847 198.562 65.1972 202.777 63.4272 201.495C61.9272 200.4 64.5897 197.077 65.7447 197.812Z" fill="#78BF9B" fill-opacity="0.4"/>
<path d="M67.4772 199.11C68.0772 197.925 68.6997 196.747 69.3822 195.615C70.0093 194.488 70.7426 193.423 71.5722 192.435C71.3847 192.202 71.2047 191.962 71.0097 191.737C70.9272 191.64 71.0622 191.512 71.1447 191.602C71.3697 191.857 71.5797 192.12 71.7972 192.352C71.8382 192.376 71.8699 192.413 71.8872 192.457C72.7072 193.457 73.4822 194.457 74.2122 195.457C75.517 195.758 76.804 196.131 78.0672 196.575C79.3647 197.01 80.6547 197.46 81.9147 197.992C82.0497 198.052 81.9822 198.27 81.8547 198.21C80.6022 197.655 79.3272 197.122 78.0297 196.71C76.7322 196.297 75.5547 195.96 74.2797 195.622C74.6847 196.2 75.0822 196.77 75.4647 197.355C77.8056 198.099 80.0829 199.029 82.2747 200.137C84.5697 201.232 86.7747 202.5 89.0247 203.775C89.1522 203.85 89.0247 204.045 88.9122 203.97C86.7456 202.701 84.5152 201.545 82.2297 200.505C80.0922 199.507 77.8872 198.69 75.7422 197.737C81.1422 206.25 84.3897 216 88.7697 225C88.8297 225.127 88.6272 225.24 88.5747 225.105C87.2472 221.94 85.7247 218.857 84.2772 215.737C82.9797 212.94 81.7197 210.127 80.4222 207.33C80.0422 206.515 79.6522 205.697 79.2522 204.877C79.4922 209.377 79.3947 213.99 80.1372 218.452C80.1372 218.482 80.1254 218.511 80.1043 218.532C80.0832 218.553 80.0545 218.565 80.0247 218.565C79.9949 218.565 79.9663 218.553 79.9452 218.532C79.9241 218.511 79.9122 218.482 79.9122 218.452C79.5972 213.63 78.7497 208.882 78.7872 204.03C78.783 204.008 78.783 203.985 78.7872 203.962C77.8722 202.117 76.8897 200.302 75.8322 198.532C74.0397 202.755 72.1572 207.045 71.3322 211.582C71.3322 211.717 71.0847 211.657 71.1222 211.515C72.3372 206.97 73.4697 202.417 75.6222 198.21C74.4725 196.295 73.1972 194.459 71.8047 192.712C71.2047 193.837 70.4322 194.895 69.7497 195.967C69.0672 197.04 68.4297 198.075 67.8072 199.155C66.4741 201.44 65.3424 203.836 64.4247 206.317C64.3722 206.452 64.1547 206.377 64.2072 206.25C65.2497 203.865 66.2697 201.45 67.4772 199.11Z" fill="#263238"/>
<path d="M24.8022 209.392C28.2822 205.905 32.3022 201.33 37.6872 201.337C42.8697 201.337 46.6872 205.522 48.8697 209.827C51.1647 214.327 51.9822 219.435 52.6197 224.392C53.3769 230.336 53.8349 236.313 53.9922 242.302C54.0822 245.625 54.0747 248.955 53.9922 252.277C54.0015 255.649 53.7508 259.017 53.2422 262.35C53.1447 262.882 52.2897 262.905 52.2522 262.35C52.1022 259.545 52.2522 256.732 52.2522 253.935C52.2522 251.137 52.2522 248.415 52.1172 245.685C51.9147 240.105 51.5097 234.532 50.8572 228.99C50.2797 224.152 49.8297 219.172 48.3822 214.492C47.0772 210.27 44.6322 205.447 40.3497 203.595C34.4922 201 28.7697 205.627 25.0197 209.535C24.8772 209.632 24.7047 209.49 24.8022 209.392Z" fill="#263238"/>
<path d="M7.07968 217.177C7.07968 217.89 7.14718 218.595 7.19968 219.285C8.87204 218.038 10.8282 217.226 12.8922 216.922C17.8197 216.405 17.5047 220.155 14.2122 220.312C11.8975 220.343 9.6086 220.803 7.46218 221.67C8.26468 228.18 10.0572 233.422 10.3272 233.49C14.7025 233.241 19.0554 232.689 23.3547 231.84C22.1322 229.23 19.3347 225.757 20.7597 225.472C22.1847 225.187 23.7597 228.285 24.5097 231.6C27.7437 230.99 30.9238 230.122 34.0197 229.005C31.8447 227.122 28.4922 224.782 29.7747 223.792C31.0572 222.802 33.7197 226.087 35.3097 228.48C36.7629 227.887 38.1382 227.119 39.4047 226.192C36.4872 221.895 29.3622 221.025 30.2922 217.942C31.2222 214.86 37.8822 219.142 40.8747 224.895C44.3922 221.242 45.4197 216.082 45.0522 211.68C41.9922 211.32 36.1047 211.965 36.5247 209.767C36.9447 207.57 41.2047 207.99 44.6922 209.272C44.3726 207.527 43.6736 205.873 42.6447 204.427C39.3897 200.25 29.5197 205.5 29.5197 205.5C29.5197 205.5 30.5697 195.6 26.8197 193.89C24.6522 192.907 20.8197 192.915 17.0097 195.172C19.1547 195.345 21.7497 196.027 22.7922 197.52C24.1272 199.425 22.0422 200.46 20.6847 199.582C19.7472 198.96 17.9847 196.995 14.8047 196.74C13.4464 197.885 12.2504 199.21 11.2497 200.677C10.8897 201.187 10.5522 201.727 10.2147 202.312C12.0314 201.495 14.0065 201.09 15.9982 201.127C17.9899 201.163 19.9489 201.64 21.7347 202.522C26.0022 204.645 23.6172 209.077 19.9497 207.352C16.2822 205.627 12.7797 203.94 8.88718 204.915C7.51249 208.443 6.87687 212.216 7.01968 216C8.92243 214.607 11.0658 213.577 13.3422 212.962C17.5797 211.845 18.8622 214.38 14.2047 214.86C11.6976 215.143 9.27382 215.932 7.07968 217.177ZM12.2697 210.367C11.9697 208.987 14.9847 208.597 15.4797 209.707C15.8772 210.66 12.5322 211.74 12.2697 210.367ZM38.0097 217.98C38.2872 217.23 40.3047 218.085 40.1172 219.022C39.8472 220.267 37.7097 218.73 37.9872 217.98H38.0097ZM23.7597 222.81C25.2222 222.217 27.5097 225.87 25.9197 226.702C24.3297 227.535 22.5747 223.29 23.7747 222.81H23.7597Z" fill="#78BF9B" fill-opacity="0.4"/>
<path d="M10.8897 232.747C13.0947 229.042 15.2847 225.33 17.6397 221.692C18.7197 220.005 19.8897 218.347 21.0297 216.72C20.8572 216.72 20.6772 216.63 20.5047 216.6C20.2122 216.532 19.9197 216.48 19.6272 216.427C18.9447 216.307 18.2622 216.21 17.5722 216.142C16.8822 216.075 16.2822 216.037 15.6372 216.03C14.9427 215.992 14.2461 216.03 13.5597 216.142C13.4772 216.142 13.4622 216.03 13.5597 216.03C14.2497 216.03 14.9547 215.97 15.6447 215.955C16.3347 215.94 16.9947 215.955 17.6622 216.007C18.3297 216.06 18.9222 216.105 19.5447 216.202C19.8897 216.255 20.2347 216.315 20.5722 216.382C20.7819 216.417 20.9897 216.462 21.1947 216.517C22.3947 214.867 23.6322 213.255 24.9447 211.672C21.1169 209.807 17.0399 208.503 12.8397 207.802C12.7647 207.802 12.7947 207.682 12.8397 207.697C17.1041 208.294 21.2476 209.559 25.1172 211.447C25.8222 210.577 26.5322 209.712 27.2472 208.852C28.0497 207.892 28.9047 206.947 29.6247 205.927C29.6772 205.86 29.7747 205.927 29.7147 205.995C28.7191 207.089 27.7827 208.236 26.9097 209.43C28.4901 210.531 29.9936 211.739 31.4097 213.045C32.9097 214.35 34.3122 215.7 35.7072 217.08C35.7597 217.132 35.7072 217.215 35.6322 217.162C34.2522 215.787 32.8172 214.48 31.3272 213.24C29.8272 212.002 28.2597 210.855 26.7597 209.625C26.4147 210.082 26.0697 210.54 25.7247 210.982L25.2072 211.665L25.1697 211.71C24.5922 212.46 24.0222 213.21 23.4522 213.96C24.1209 214.93 24.6936 215.962 25.1622 217.043C25.6572 218.085 26.0847 219.165 26.4822 220.252C27.2765 222.511 27.8933 224.828 28.3272 227.182C28.3272 227.25 28.2372 227.287 28.2222 227.182C27.749 224.863 27.0739 222.589 26.2047 220.387C25.7772 219.255 25.2897 218.137 24.7872 217.057C24.2847 215.977 23.7672 215.092 23.3397 214.057C22.8447 214.717 22.3497 215.377 21.8397 216.045C21.7047 216.24 21.5697 216.442 21.4272 216.637C21.4342 216.646 21.4386 216.657 21.4399 216.668C21.4413 216.679 21.4395 216.69 21.4349 216.7C21.4302 216.71 21.4228 216.719 21.4135 216.725C21.4042 216.731 21.3934 216.735 21.3822 216.735C19.8822 218.857 18.3822 221.032 17.0172 223.23C17.0995 223.382 17.1625 223.543 17.2047 223.71C17.2947 223.972 17.3847 224.242 17.4597 224.512C17.6172 225.06 17.7447 225.607 17.8497 226.162C17.9547 226.717 18.0147 227.212 18.0672 227.737C18.0746 228.337 18.1197 228.936 18.2022 229.53C18.2056 229.539 18.2067 229.549 18.2055 229.558C18.2043 229.568 18.2007 229.577 18.1952 229.585C18.1897 229.593 18.1823 229.6 18.1737 229.604C18.1652 229.609 18.1556 229.611 18.146 229.611C18.1363 229.611 18.1267 229.609 18.1182 229.604C18.1096 229.6 18.1022 229.593 18.0967 229.585C18.0912 229.577 18.0876 229.568 18.0864 229.558C18.0852 229.549 18.0863 229.539 18.0897 229.53C18.1317 228.97 18.0913 228.406 17.9697 227.857C17.8872 227.287 17.7822 226.717 17.6472 226.155C17.5122 225.592 17.3922 225.142 17.2422 224.655C17.1672 224.4 17.0847 224.152 17.0022 223.905C16.9572 223.777 16.8897 223.635 16.8447 223.492C16.1922 224.527 15.5397 225.562 14.8947 226.612C13.6197 228.675 12.3597 230.752 11.0922 232.822C10.9872 232.942 10.8222 232.852 10.8897 232.747Z" fill="#263238"/>
<path d="M44.9847 261.15C45.0447 259.058 45.3747 256.943 45.5997 254.858C45.8247 252.773 46.0647 250.673 46.2897 248.58C46.7172 244.538 46.9572 240.413 47.9097 236.453C48.6068 233.007 50.3236 229.85 52.8372 227.393C54.1345 226.091 55.8399 225.276 57.6672 225.083C59.5054 225.026 61.3101 225.583 62.7972 226.665C64.495 227.915 65.9577 229.456 67.1172 231.218C68.3678 232.956 69.4907 234.784 70.4772 236.685C70.4772 236.753 70.4022 236.798 70.3647 236.73C68.498 233.557 66.0232 230.784 63.0822 228.57C61.7764 227.49 60.1783 226.824 58.4922 226.658C57.6699 226.643 56.8531 226.793 56.0895 227.098C55.3258 227.404 54.6307 227.858 54.0447 228.435C51.5997 230.558 50.1897 233.685 49.3497 236.753C48.3522 240.39 48.0297 244.253 47.5272 247.95C47.2347 250.2 46.9497 252.39 46.6572 254.603C46.3647 256.815 46.1847 259.103 45.7122 261.255C45.6982 261.351 45.6466 261.438 45.5685 261.497C45.4904 261.555 45.3924 261.58 45.2959 261.566C45.1994 261.552 45.1125 261.501 45.0541 261.423C44.9957 261.345 44.9707 261.246 44.9847 261.15Z" fill="#263238"/>
<path d="M55.2897 244.875C55.9264 245.752 56.6838 246.535 57.5397 247.2C57.1947 245.153 56.7897 241.523 57.8097 239.588C59.4147 236.588 61.3047 238.088 60.3522 240.69C59.4029 243.049 58.8798 245.558 58.8072 248.1C60.9889 249.467 63.3253 250.569 65.7672 251.385C65.51 250.208 65.4341 248.999 65.5422 247.8C65.8572 244.59 68.3172 244.65 67.6797 247.987C67.4441 249.284 67.3311 250.6 67.3422 251.918C70.8896 253.008 74.5152 253.825 78.1872 254.362C80.0643 251.928 81.5799 249.235 82.6872 246.367C80.0697 245.707 74.7822 245.565 74.8947 243.69C75.0447 241.178 80.1447 243.112 83.1447 244.935C83.8281 242.753 84.135 240.47 84.0522 238.185C81.6994 237.53 79.283 237.13 76.8447 236.992C71.4597 236.527 71.7297 233.475 75.6297 233.543C78.5022 233.595 82.1397 235.357 83.8797 236.272C82.7622 228.952 77.1747 224.272 72.6972 224.077C65.1972 223.777 67.8822 233.145 67.8822 233.145C67.8822 233.145 62.7822 229.553 57.9672 229.65C53.1522 229.748 50.1447 237.705 55.2897 244.875ZM75.3897 231.322C75.2247 230.272 78.5847 230.017 78.7572 231.367C78.9597 232.89 75.5622 232.395 75.3897 231.322ZM80.7972 242.317C80.7222 241.627 82.1772 241.508 82.5072 242.378C82.7247 242.94 80.8497 243 80.7972 242.317ZM62.7222 242.963C63.8547 243.12 64.4997 247.177 62.5497 247.095C61.0572 247.035 61.7697 242.82 62.7222 243V242.963Z" fill="#78BF9B" fill-opacity="0.4"/>
<path d="M64.2897 247.5C64.4772 246.99 64.6497 246.48 64.8072 246C64.6572 246.525 64.5297 247.042 64.4322 247.575C64.4097 247.605 64.2522 247.567 64.2897 247.5Z" fill="#263238"/>
<path d="M66.2697 240.945C66.6222 239.902 67.0197 238.875 67.4247 237.855C67.6447 237.31 67.8697 236.77 68.0997 236.235C68.2729 235.756 68.4993 235.298 68.7747 234.87C68.5387 234.449 68.3356 234.01 68.1672 233.557C68.1622 233.549 68.161 233.538 68.1638 233.528C68.1666 233.518 68.1732 233.51 68.1822 233.505C68.1911 233.5 68.2017 233.499 68.2115 233.502C68.2214 233.504 68.2297 233.511 68.2347 233.52C68.7987 234.225 69.3005 234.978 69.7347 235.77C69.9447 236.122 70.1472 236.52 70.3497 236.842C70.7759 236.884 71.1993 236.951 71.6172 237.045L72.9672 237.315L74.3097 237.63C74.7522 237.735 75.1872 237.885 75.6372 237.952C75.6551 237.952 75.6722 237.96 75.6849 237.972C75.6976 237.985 75.7047 238.002 75.7047 238.02C75.7047 238.038 75.6976 238.055 75.6849 238.068C75.6722 238.08 75.6551 238.087 75.6372 238.087C75.1812 237.926 74.7119 237.806 74.2347 237.727C73.7997 237.63 73.3647 237.555 72.9297 237.495C72.4947 237.435 72.0522 237.375 71.6172 237.33L70.6197 237.247C70.7997 237.562 70.9872 237.877 71.1597 238.2C71.1597 238.245 71.2122 238.297 71.2422 238.35C71.5897 238.356 71.9349 238.406 72.2697 238.5C72.6597 238.567 73.0197 238.642 73.4322 238.725C74.1822 238.905 74.9997 239.085 75.7722 239.302C77.3997 239.76 79.0122 240.277 80.6172 240.802C80.7072 240.802 80.6172 240.967 80.5572 240.937C78.9614 240.404 77.3393 239.954 75.6972 239.587C74.9472 239.415 74.1522 239.235 73.3797 239.077L72.2247 238.83C71.9208 238.785 71.6201 238.719 71.3247 238.635C72.1497 240.135 72.9297 241.717 73.6497 243.307C75.2097 246.765 76.5222 250.32 77.8647 253.867C77.8647 253.957 77.7597 254.01 77.7297 253.927C76.4311 250.401 74.9286 246.952 73.2297 243.6C72.9297 242.985 72.6147 242.377 72.3147 241.762C72.3147 241.89 72.2547 242.017 72.2322 242.137C72.1572 242.557 72.0822 242.977 72.0147 243.397C71.8722 244.237 71.7297 245.077 71.6022 245.917C71.2429 247.646 71.0396 249.403 70.9947 251.167C70.9984 251.179 70.9994 251.191 70.9975 251.202C70.9957 251.214 70.9911 251.225 70.9842 251.235C70.9772 251.244 70.9681 251.252 70.9575 251.258C70.947 251.263 70.9353 251.266 70.9234 251.266C70.9116 251.266 70.8999 251.263 70.8893 251.258C70.8788 251.252 70.8696 251.244 70.8627 251.235C70.8557 251.225 70.8511 251.214 70.8493 251.202C70.8475 251.191 70.8485 251.179 70.8522 251.167C70.9872 250.335 70.9872 249.465 71.0397 248.617C71.0922 247.77 71.1597 246.855 71.2572 245.977C71.3547 245.1 71.4672 244.29 71.6097 243.45C71.6772 243.03 71.7522 242.61 71.8272 242.19C71.8446 241.874 71.9263 241.566 72.0672 241.282C71.6247 240.397 71.1897 239.505 70.7397 238.627C70.2897 237.75 69.8997 236.97 69.4722 236.152C69.2847 235.8 69.0897 235.455 68.8947 235.095C68.7585 235.531 68.5931 235.957 68.3997 236.37L67.8147 237.787C67.3872 238.845 66.9822 239.902 66.5847 240.967C66.0147 242.467 65.3847 244.012 64.9122 245.58C65.3772 244.027 65.7672 242.46 66.2697 240.945Z" fill="#263238"/>
<path d="M64.8072 245.931C64.8072 245.812 64.882 245.692 64.9119 245.565C64.882 245.692 64.8446 245.812 64.8072 245.931Z" fill="#263238"/>
<path d="M32.3997 257.077L32.9322 268.282L34.2897 334.207H64.0797L65.4447 268.282L65.9772 257.077H32.3997Z" fill="#37474F"/>
<path d="M32.3997 257.077L32.9322 268.282H65.4447L65.9772 257.077H32.3997Z" fill="#263238"/>
<path d="M30.2847 261.607H68.0922V252.54H30.2847V261.607Z" fill="#37474F"/>
<path d="M61.6722 334.207H56.4447V338.955H61.6722V334.207Z" fill="#37474F"/>
<path d="M61.6722 334.207H56.4447V336.577H61.6722V334.207Z" fill="#263238"/>
<path d="M41.9322 334.207H36.7047V338.955H41.9322V334.207Z" fill="#37474F"/>
<path d="M41.9322 334.207H36.7047V336.577H41.9322V334.207Z" fill="#263238"/>
<path d="M151.441 141.195C150.121 141.345 144.369 140.618 140.469 145.815C136.786 150.728 135.346 165.78 134.536 169.065C133.726 172.35 129.414 172.815 128.364 176.565C127.456 179.835 129.826 181.065 130.044 183.473C130.216 185.34 128.311 188.123 129.984 190.898C131.484 193.425 134.229 192.923 135.864 193.725C137.499 194.528 138.489 198.345 141.519 199.403C144.549 200.46 147.271 197.715 148.884 197.753C150.496 197.79 152.364 202.755 157.636 202.38C162.909 202.005 164.476 197.558 166.636 196.703C168.796 195.848 174.271 197.453 176.791 194.73C179.311 192.008 179.791 188.415 180.916 187.088C182.041 185.76 184.396 186.008 185.829 182.925C187.261 179.843 184.404 177.855 184.029 175.17C183.766 173.303 185.446 171.6 184.306 168.735C182.746 164.79 177.931 165.578 176.146 161.535C174.744 158.355 171.916 144.585 163.651 141.113C157.944 138.75 151.441 141.195 151.441 141.195Z" fill="#263238"/>
<path d="M134.694 168.263C134.366 168.955 133.874 169.558 133.261 170.018L131.536 171.48C130.354 172.37 129.318 173.441 128.469 174.653C128.071 175.23 127.814 175.892 127.718 176.586C127.622 177.28 127.689 177.987 127.914 178.65C128.18 179.314 128.547 179.934 129.001 180.488C129.524 181.093 129.953 181.773 130.276 182.505C130.469 183.334 130.385 184.203 130.036 184.98C129.789 185.73 129.504 186.398 129.286 187.103C129.029 187.762 128.904 188.466 128.92 189.174C128.935 189.882 129.09 190.58 129.376 191.228C129.679 191.853 130.183 192.358 130.809 192.66C131.469 192.951 132.18 193.114 132.901 193.14C133.651 193.2 134.401 193.185 135.151 193.2C135.917 193.152 136.68 193.335 137.341 193.725C136.653 193.426 135.894 193.324 135.151 193.433C134.401 193.478 133.651 193.56 132.901 193.56C132.112 193.581 131.326 193.443 130.591 193.155C129.831 192.834 129.202 192.266 128.806 191.543C127.936 190.118 128.116 188.333 128.544 186.878C128.761 186.128 129.031 185.415 129.294 184.718C129.564 184.108 129.635 183.428 129.496 182.775C129.061 181.568 127.711 180.48 127.246 178.913C126.993 178.137 126.928 177.313 127.059 176.508C127.189 175.703 127.511 174.94 127.996 174.285C128.942 173.068 130.076 172.009 131.356 171.15L133.201 169.838C133.806 169.426 134.315 168.889 134.694 168.263Z" fill="#263238"/>
<path d="M171.271 148.95C172.681 151.275 173.521 153.87 174.654 156.315C175.201 157.545 175.719 158.79 176.349 159.953C176.644 160.525 177.001 161.063 177.414 161.558C177.499 161.674 177.602 161.776 177.721 161.858C177.829 161.955 177.95 162.035 178.081 162.098C178.366 162.255 178.666 162.39 178.966 162.525C180.227 163.047 181.458 163.635 182.656 164.288C183.923 164.957 184.948 166.006 185.589 167.288C185.903 167.949 186.042 168.68 185.994 169.41C185.909 170.112 185.693 170.791 185.356 171.413C184.637 172.545 184.19 173.828 184.051 175.163C184.025 173.795 184.339 172.441 184.966 171.225C185.243 170.638 185.405 170.005 185.446 169.358C185.45 168.732 185.295 168.115 184.996 167.565C184.352 166.449 183.402 165.541 182.259 164.948C181.072 164.336 179.856 163.786 178.614 163.298C178.299 163.148 177.984 162.998 177.676 162.825C177.339 162.633 177.041 162.378 176.799 162.075C176.351 161.526 175.969 160.927 175.659 160.29C175.043 159.074 174.502 157.822 174.039 156.54L172.681 152.723C172.283 151.439 171.812 150.18 171.271 148.95Z" fill="#263238"/>
<path d="M182.236 186.195C181.756 187.027 181.45 187.948 181.336 188.903C181.126 189.84 180.916 190.793 180.654 191.73C180.402 192.689 180.05 193.619 179.604 194.505C179.157 195.445 178.488 196.261 177.654 196.883C175.794 198.038 173.611 197.88 171.729 197.513C170.769 197.325 169.831 197.085 168.886 196.92C167.955 196.694 166.983 196.694 166.051 196.92C166.962 196.535 167.957 196.395 168.939 196.515C169.921 196.598 170.874 196.77 171.826 196.868C173.694 197.093 175.689 197.138 177.174 196.178C177.9 195.644 178.489 194.944 178.891 194.138C179.339 193.305 179.718 192.437 180.024 191.543C180.354 190.65 180.639 189.728 180.931 188.805C181.096 188.34 181.261 187.883 181.449 187.433C181.596 186.957 181.868 186.53 182.236 186.195Z" fill="#263238"/>
<path d="M141.616 195.84C148.366 211.268 157.846 232.448 162.969 234.743C176.281 240.705 203.319 245.835 212.926 243.795C216.541 243.045 217.269 214.14 213.376 214.83C206.191 216.09 177.189 213.938 175.036 212.835C173.536 212.085 161.274 197.94 151.539 189.255C137.731 176.933 139.194 190.305 141.616 195.84Z" fill="#D3766A"/>
<path d="M252.894 224.325C252.822 224.569 252.693 224.791 252.516 224.974C252.34 225.157 252.122 225.295 251.881 225.375C253.779 227.108 254.881 228.968 253.884 230.625C253.306 231.6 252.234 231.93 250.884 231.81C251.679 232.823 251.859 233.835 251.079 234.81C249.706 236.46 244.974 235.38 240.399 233.79C243.361 235.373 245.544 237.188 244.374 238.718C241.261 242.775 231.399 238.125 224.274 235.913C222.074 235.178 219.781 234.761 217.464 234.675C217.122 234.669 216.781 234.694 216.444 234.75C215.506 234.923 214.846 235.335 214.681 236.093C214.411 237.45 217.231 238.92 219.331 239.288C223.314 239.963 227.754 244.328 227.356 246.833C226.779 250.5 217.846 247.733 214.494 247.545C209.994 247.298 202.921 244.358 202.374 244.23C202.374 244.23 201.999 241.455 201.699 237.578C201.114 230.183 200.791 218.828 203.739 215.078C203.739 215.078 218.364 210.45 233.131 210.578C238.194 210.615 254.694 219.51 252.894 224.325Z" fill="#D3766A"/>
<path d="M223.989 227.835C226.839 227.598 229.705 228.029 232.359 229.095C236.034 230.497 237.699 231.99 240.946 233.88C240.964 233.89 240.977 233.907 240.983 233.926C240.989 233.946 240.986 233.967 240.976 233.985C240.966 234.003 240.95 234.016 240.93 234.022C240.91 234.027 240.889 234.025 240.871 234.015C239.326 233.115 234.039 230.355 232.441 229.65C229.813 228.373 226.909 227.767 223.989 227.887C223.989 227.887 223.944 227.835 223.989 227.835Z" fill="#263238"/>
<path d="M225.639 221.378C228.786 221.432 231.917 221.85 234.969 222.623C238.719 223.583 241.996 225.795 245.199 227.918C247.119 229.183 249.014 230.498 250.884 231.863C250.959 231.915 250.884 232.05 250.809 231.998C247.549 229.793 244.224 227.693 240.834 225.698C237.709 223.827 234.245 222.593 230.641 222.068C228.586 221.775 227.709 221.573 225.639 221.438C225.601 221.438 225.601 221.37 225.639 221.378Z" fill="#263238"/>
<path d="M227.289 215.437C230.649 215.37 233.634 215.235 236.874 216.322C241.164 217.762 245.019 220.522 246.624 221.572C248.379 222.765 250.089 224.017 251.784 225.322C251.859 225.375 251.784 225.495 251.694 225.442C247.858 222.672 243.85 220.149 239.694 217.89C237.925 216.904 235.999 216.232 234.001 215.902C231.796 215.561 229.565 215.411 227.334 215.452L227.289 215.437Z" fill="#263238"/>
<path d="M169.374 204L153.541 225.06C153.541 225.06 141.099 198.893 139.614 190.163C137.941 180.338 143.326 181.635 151.104 187.043C158.881 192.45 169.374 204 169.374 204Z" fill="#78BF9B"/>
<path d="M147.639 192.053C147.218 194.592 145.933 196.907 144.001 198.608C143.544 199.02 143.071 199.403 142.584 199.77L142.494 199.53C144.08 198.424 145.396 196.973 146.341 195.285C147.744 192.54 147.841 189.285 147.376 186.285C147.286 185.7 147.174 185.115 147.024 184.53L147.316 184.688C147.922 187.095 148.032 189.601 147.639 192.053ZM157.869 201.323C157.726 199.313 156.894 196.785 154.824 196.005C152.311 195.068 150.144 197.363 148.929 199.275C147.519 201.48 146.439 203.873 145.111 206.13C145.149 206.213 145.179 206.295 145.224 206.385C146.656 203.97 147.774 201.353 149.334 199.013C150.079 197.7 151.248 196.679 152.649 196.118C153.275 195.927 153.943 195.927 154.569 196.116C155.195 196.306 155.751 196.677 156.166 197.183C157.936 199.23 157.891 202.373 157.404 204.87C156.841 207.813 155.493 210.549 153.504 212.79C152.328 214.098 150.938 215.196 149.394 216.038C149.394 216.105 149.446 216.165 149.476 216.233C152.324 214.661 154.634 212.27 156.106 209.37C157.4 206.892 158.008 204.114 157.869 201.323ZM156.196 215.423C155.808 215.818 155.503 216.287 155.298 216.802C155.093 217.318 154.993 217.868 155.004 218.423C155.054 218.925 155.215 219.409 155.474 219.842C155.733 220.275 156.085 220.646 156.504 220.928L156.594 220.988L156.736 220.793L156.616 220.718C156.08 220.362 155.668 219.848 155.438 219.247C155.208 218.646 155.172 217.988 155.334 217.365C155.537 216.702 155.881 216.092 156.341 215.574C156.802 215.056 157.369 214.644 158.004 214.365C159.264 213.84 160.639 213.651 161.994 213.818L162.114 213.66C159.954 213.48 157.741 213.75 156.196 215.423ZM153.684 190.575C153.656 191.272 153.407 191.942 152.971 192.488C151.666 193.733 150.376 190.59 150.166 189.69C149.938 188.601 149.915 187.48 150.099 186.383L149.874 186.233C149.808 186.627 149.766 187.025 149.746 187.425C149.655 188.667 149.874 189.912 150.384 191.048C150.759 191.85 151.681 193.395 152.784 192.908C153.886 192.42 153.909 190.74 154.044 189.788L154.111 189.338L153.901 189.173C153.826 189.638 153.759 190.11 153.684 190.575ZM167.289 201.825C166.051 202.096 164.767 202.076 163.539 201.765C162.837 201.564 162.225 201.128 161.806 200.53C161.387 199.932 161.186 199.209 161.236 198.48C161.286 197.707 161.461 196.947 161.754 196.23L161.559 196.043C160.989 197.223 160.849 198.565 161.161 199.838C162.001 202.32 164.971 202.418 167.161 202.088L167.499 202.028L167.289 201.825Z" fill="white"/>
<path d="M165.009 201.9C162.624 204.307 156.511 212.535 155.484 213.9C154.944 214.612 152.919 217.552 152.371 218.257C152.304 218.347 152.454 218.437 152.529 218.347C153.564 216.997 154.741 215.76 155.799 214.417C156.856 213.075 163.374 204.93 165.106 201.997C165.144 201.915 165.061 201.84 165.009 201.9Z" fill="#263238"/>
<path opacity="0.1" d="M163.726 211.538L153.541 225.09C153.541 225.09 141.099 198.915 139.614 190.185C138.811 185.475 139.614 183.323 141.564 182.948L163.726 211.538Z" fill="#333333"/>
<path d="M233.364 339.12C235.614 338.37 233.619 331.785 231.076 329.753C230.274 329.108 227.281 327.585 223.531 325.778C215.281 321.803 203.409 316.5 203.409 316.5L213.526 273.653L172.276 273.878C172.276 273.878 161.026 314.115 161.094 316.628C161.094 316.785 161.094 316.935 161.094 317.093C161.446 328.448 162.009 337.748 162.946 338.325C165.481 339.9 231.069 339.893 233.364 339.12Z" fill="#D3766A"/>
<path d="M233.364 339.12C231.069 339.87 165.474 339.87 162.976 338.317C162.046 337.732 161.476 328.44 161.131 317.085C161.131 316.935 161.131 316.77 161.131 316.62C161.43 314.595 161.858 312.59 162.414 310.62H204.804L203.401 316.5C203.401 316.5 215.274 321.81 223.531 325.77C227.281 327.577 230.281 329.1 231.084 329.753C233.619 331.778 235.636 338.362 233.364 339.12Z" fill="#EBEBEB"/>
<path d="M234.099 339.487C231.766 340.275 164.979 340.192 162.444 338.58C161.469 337.98 160.944 328.245 160.576 316.47C160.576 316.342 160.576 316.222 160.576 316.095L203.664 315.667V316.417C203.664 316.417 229.209 327.885 231.819 329.962C234.429 332.04 236.431 338.715 234.099 339.487Z" fill="#E8B0C1"/>
<path d="M233.349 336.9C222.099 336.608 176.656 336.503 165.504 337.073C165.414 337.073 165.414 337.14 165.504 337.148C176.656 337.673 222.091 337.41 233.349 337.08C233.581 337.073 233.581 336.908 233.349 336.9Z" fill="#263238"/>
<path d="M208.449 315.795C204.024 314.963 198.601 315.638 195.211 318.795C195.084 318.923 195.256 319.103 195.406 319.058C199.64 317.696 204.007 316.793 208.434 316.365C208.509 316.367 208.582 316.339 208.637 316.287C208.692 316.235 208.724 316.163 208.726 316.088C208.728 316.012 208.7 315.939 208.648 315.884C208.596 315.829 208.524 315.797 208.449 315.795Z" fill="#263238"/>
<path d="M211.644 317.723C207.219 316.898 201.796 317.565 198.414 320.723C198.279 320.843 198.451 321.03 198.601 320.985C202.835 319.622 207.202 318.717 211.629 318.285C211.696 318.276 211.757 318.243 211.803 318.193C211.848 318.143 211.874 318.078 211.876 318.01C211.877 317.942 211.855 317.876 211.813 317.824C211.77 317.771 211.71 317.735 211.644 317.723Z" fill="#263238"/>
<path d="M214.846 319.658C210.414 318.825 204.991 319.5 201.609 322.658C201.474 322.778 201.609 322.965 201.796 322.92C206.031 321.567 210.398 320.672 214.824 320.25C214.902 320.253 214.979 320.225 215.036 320.171C215.094 320.118 215.128 320.044 215.131 319.965C215.134 319.886 215.106 319.81 215.052 319.752C214.999 319.695 214.925 319.661 214.846 319.658Z" fill="#263238"/>
<path d="M214.194 306.142C212.454 303.742 209.214 304.815 207.361 306.367C204.244 309.09 201.898 312.584 200.559 316.5C200.559 316.59 200.559 316.642 200.664 316.657C200.664 316.995 200.979 317.355 201.354 317.212C205.014 315.862 209.094 314.872 212.229 312.442C214.059 311.025 215.866 308.407 214.194 306.142ZM206.454 314.04C204.669 314.745 202.861 315.36 201.106 316.132C202.449 314.16 203.694 312.142 205.231 310.305C205.952 309.405 206.737 308.558 207.579 307.77C208.899 306.57 214.119 304.02 213.331 308.88C212.926 311.565 208.614 313.192 206.484 314.04H206.454Z" fill="#263238"/>
<path d="M189.301 315.338C192.946 316.898 197.146 316.838 201.031 317.205C201.117 317.205 201.203 317.186 201.28 317.147C201.357 317.108 201.424 317.052 201.475 316.982C201.526 316.913 201.56 316.832 201.574 316.747C201.588 316.662 201.582 316.575 201.556 316.492C201.574 316.487 201.59 316.478 201.604 316.465C201.618 316.453 201.628 316.437 201.635 316.419C201.642 316.402 201.644 316.383 201.642 316.365C201.64 316.346 201.634 316.328 201.624 316.312C199.321 312.869 196.156 310.089 192.444 308.25C190.261 307.222 186.849 306.997 185.776 309.75C184.756 312.352 187.194 314.423 189.301 315.338ZM187.306 312.173C185.311 307.673 191.011 308.813 192.556 309.638C193.568 310.193 194.543 310.814 195.474 311.497C197.371 312.938 199.194 314.475 200.934 316.103C199.036 315.795 197.139 315.66 195.234 315.42C192.991 315.142 188.401 314.655 187.306 312.173Z" fill="#263238"/>
<path d="M114.879 245.1C114.879 245.1 107.484 271.838 120.384 279.758C128.994 285.008 167.049 277.733 168.669 273.008C171.721 264.12 171.729 260.865 171.729 260.865L161.979 307.973L209.919 308.535C209.919 308.535 218.919 269.535 216.601 228.195C215.746 212.903 195.189 208.275 180.886 215.888C167.004 223.283 142.194 243.75 142.194 243.75L114.879 245.1Z" fill="#37474F"/>
<path d="M166.006 280.387C168.586 274.065 168.384 271.582 174.834 251.962C175.696 249.337 176.424 246.675 177.189 244.02C177.954 241.365 178.936 238.537 179.544 235.732C179.544 235.597 179.791 235.657 179.754 235.792C179.004 238.215 178.524 240.72 177.886 243.172C177.249 245.625 176.619 247.98 175.944 250.365C175.659 251.4 175.351 252.427 175.059 253.462L175.441 252.825C176.004 251.857 176.566 250.89 177.151 249.937C178.366 247.972 179.829 246.127 180.901 244.08C180.915 244.055 180.938 244.037 180.966 244.029C180.993 244.021 181.022 244.025 181.047 244.039C181.072 244.053 181.091 244.076 181.098 244.103C181.106 244.131 181.103 244.16 181.089 244.185C179.874 246.142 179.004 248.317 177.864 250.327C177.309 251.302 176.731 252.255 176.139 253.207C175.634 254.101 175.057 254.951 174.414 255.75C173.536 258.75 171.646 266.077 170.701 269.092C167.701 278.58 168.706 275.49 166.494 280.582C166.366 280.845 165.894 280.665 166.006 280.387Z" fill="#263238"/>
<path d="M187.839 300.21C180.624 300.135 173.416 299.73 166.201 299.588C166.066 299.588 166.044 299.378 166.201 299.378C173.394 299.333 180.579 299.055 187.771 299.138C194.964 299.22 202.186 299.58 209.401 299.82C209.581 299.82 209.611 300.113 209.401 300.113C202.194 300.128 195.031 300.285 187.839 300.21Z" fill="#263238"/>
<path d="M170.154 297.803C170.814 294.615 171.736 291.48 172.576 288.345C173.416 285.21 174.264 282.053 175.134 278.918C176.866 272.64 178.681 266.377 180.489 260.122C181.509 256.567 182.619 253.035 183.706 249.503C183.711 249.481 183.725 249.462 183.744 249.45C183.763 249.438 183.785 249.434 183.807 249.439C183.829 249.444 183.848 249.457 183.86 249.476C183.872 249.495 183.876 249.518 183.871 249.54C180.656 262.18 177.201 274.75 173.506 287.25C172.456 290.798 171.511 294.39 170.266 297.87C170.257 297.885 170.243 297.896 170.226 297.9C170.209 297.904 170.191 297.901 170.176 297.892C170.161 297.884 170.15 297.869 170.146 297.852C170.142 297.835 170.145 297.817 170.154 297.803Z" fill="#263238"/>
<path d="M120.384 279.75C107.484 271.837 114.871 245.092 114.871 245.092L137.874 243.975L169.194 271.5L168.669 273C167.049 277.732 128.994 285.045 120.384 279.75Z" fill="#263238"/>
<path d="M210.136 307.5C209.986 308.213 209.896 308.58 209.896 308.58L161.956 308.018L169.456 271.763L210.136 307.5Z" fill="#263238"/>
<path d="M16.6961 344.063C16.2686 346.425 23.0036 347.813 26.0036 346.575C28.4784 345.167 30.8585 343.599 33.1286 341.88C40.5836 336.555 50.9486 328.71 50.9486 328.71L86.1986 330.84L105.849 294.608C105.849 294.608 73.4561 292.74 71.2286 291.608L70.8161 291.39C60.6986 286.23 52.2761 282.247 51.3161 282.787C48.7061 284.197 17.1236 341.685 16.6961 344.063Z" fill="#D3766A"/>
<path d="M77.3937 292.5L58.8612 329.168L50.9487 328.688C50.9487 328.688 40.5762 336.525 33.1212 341.858C29.7312 344.265 26.9637 346.155 26.0112 346.553C23.0112 347.805 16.2612 346.403 16.6962 344.04C17.1312 341.678 48.7062 284.198 51.2937 282.75C52.2537 282.218 60.6762 286.193 70.7937 291.36L71.2062 291.563C71.7537 291.87 74.1237 292.2 77.3937 292.5Z" fill="#EBEBEB"/>
<path d="M16.0211 344.535C16.4561 342.113 48.6911 283.62 51.3311 282.173C52.3211 281.61 61.1186 285.81 71.5811 291.173L71.9111 291.345L51.5561 329.325L50.9261 328.958C50.9261 328.958 28.5761 345.833 25.5011 347.115C22.4261 348.398 15.5711 346.95 16.0211 344.535Z" fill="#E8B0C1"/>
<path d="M18.6536 345.12C24.3236 335.37 46.2986 295.62 51.1736 285.585C51.1736 285.503 51.1736 285.473 51.1061 285.585C45.2711 295.065 23.6261 335.01 18.4886 345C18.3836 345.248 18.5336 345.33 18.6536 345.12Z" fill="#263238"/>
<path d="M49.1336 333.473C51.9986 329.985 54.0161 324.915 52.8836 320.43C52.8386 320.25 52.5986 320.318 52.5686 320.468C51.7197 324.832 50.4073 329.094 48.6536 333.18C48.6286 333.243 48.6265 333.312 48.6478 333.376C48.6691 333.44 48.7124 333.494 48.7699 333.529C48.8275 333.564 48.8956 333.578 48.9622 333.567C49.0288 333.557 49.0895 333.523 49.1336 333.473Z" fill="#263238"/>
<path d="M45.9011 335.34C48.7661 331.86 50.7836 326.782 49.6511 322.297C49.6061 322.125 49.3586 322.185 49.3286 322.297C48.4818 326.675 47.1694 330.949 45.4136 335.047C45.3811 335.112 45.3741 335.186 45.3941 335.255C45.4141 335.324 45.4595 335.383 45.5213 335.42C45.5831 335.458 45.6566 335.47 45.727 335.455C45.7975 335.44 45.8597 335.399 45.9011 335.34Z" fill="#263238"/>
<path d="M42.6761 337.207C45.5336 333.727 47.5511 328.658 46.4261 324.165C46.3811 323.993 46.1336 324.06 46.1036 324.165C45.2604 328.543 43.9478 332.818 42.1886 336.915C42.1561 336.979 42.1492 337.053 42.1691 337.123C42.1891 337.192 42.2346 337.251 42.2963 337.288C42.3581 337.325 42.4316 337.337 42.5021 337.322C42.5725 337.308 42.6347 337.266 42.6761 337.207Z" fill="#263238"/>
<path d="M54.8186 343.178C57.7586 342.81 58.3736 339.428 57.9086 337.08C57.0322 333.026 55.1023 329.275 52.3136 326.205C52.3024 326.191 52.2881 326.18 52.2719 326.172C52.2557 326.164 52.2379 326.16 52.2199 326.16C52.2019 326.16 52.1841 326.164 52.1679 326.172C52.1516 326.18 52.1374 326.191 52.1261 326.205C52.0515 326.16 51.9674 326.134 51.8806 326.127C51.7937 326.121 51.7067 326.135 51.6264 326.169C51.5461 326.202 51.4748 326.254 51.4183 326.321C51.3618 326.387 51.3217 326.465 51.3011 326.55C50.7236 330.405 49.6286 334.455 50.2511 338.378C50.6111 340.68 52.0361 343.5 54.8186 343.178ZM51.6236 332.595C51.8636 330.69 52.1936 328.845 52.3736 326.895C53.524 328.981 54.5679 331.124 55.5011 333.315C55.942 334.383 56.3054 335.48 56.5886 336.6C57.0086 338.332 56.7236 344.1 52.8386 341.1C50.6936 339.435 51.3386 334.86 51.6236 332.595Z" fill="#263238"/>
<path d="M58.7636 316.905C55.6361 319.35 53.6936 323.063 51.4436 326.288C51.4018 326.363 51.3782 326.447 51.3749 326.532C51.3715 326.618 51.3884 326.704 51.4242 326.782C51.4599 326.86 51.5136 326.929 51.5808 326.982C51.6481 327.036 51.7269 327.073 51.8111 327.09C51.8111 327.165 51.8111 327.24 51.9461 327.233C56.0755 326.88 60.0401 325.45 63.4436 323.085C65.4011 321.668 67.2386 318.788 65.3336 316.515C63.5636 314.363 60.5861 315.48 58.7636 316.905ZM62.5136 316.68C67.4186 317.1 63.6761 321.54 62.1911 322.53C61.229 323.149 60.2268 323.702 59.1911 324.188C57.0131 325.156 54.7878 326.015 52.5236 326.76C53.7086 325.26 54.7736 323.648 55.8686 322.088C57.1511 320.25 59.7911 316.44 62.4911 316.68H62.5136Z" fill="#263238"/>
<path d="M145.194 238.553C145.894 245.075 146.264 251.628 146.304 258.188C146.304 258.188 191.844 282.045 193.944 304.733C194.694 312.765 193.606 327.818 177.849 334.68C160.246 342.345 62.9636 337.065 62.9636 337.065L75.1211 292.275H118.029C118.029 292.275 87.7511 297.09 84.4586 276.915C81.4061 258.165 92.9186 238.53 92.9186 238.53L145.194 238.553Z" fill="#37474F"/>
<path d="M72.9986 334.875C74.0711 329.715 75.1061 324.533 76.3061 319.395C77.5061 314.258 78.7811 309.128 80.1311 304.028C80.5136 302.588 80.8811 301.148 81.3011 299.708C81.4886 299.025 81.6761 298.343 81.8711 297.66C82.0459 296.962 82.2562 296.274 82.5011 295.598C82.5011 295.523 82.6136 295.598 82.6061 295.635C82.4313 296.968 82.1809 298.29 81.8561 299.595C81.5861 300.848 81.3236 302.093 81.0536 303.345C80.4936 305.905 79.9211 308.463 79.3361 311.018C78.1586 316.133 76.8536 321.21 75.5261 326.28C74.7661 329.17 74.0161 332.053 73.2761 334.928C73.1936 335.085 72.9611 335.048 72.9986 334.875Z" fill="#263238"/>
<path d="M103.194 292.29C106.674 292.043 110.154 291.93 113.641 291.863C117.129 291.795 120.609 291.863 124.096 291.863C127.584 291.863 131.064 292.118 134.536 292.425C138.016 292.688 141.474 293.189 144.886 293.925L142.299 293.595L139.696 293.348C137.964 293.198 136.239 293.055 134.499 292.98C131.026 292.778 127.554 292.635 124.074 292.575C120.594 292.515 117.121 292.433 113.641 292.388L103.194 292.29Z" fill="#263238"/>
<path d="M102.444 242.25C100.889 246.238 99.5395 250.304 98.4011 254.43C97.2326 258.546 96.3998 262.75 95.9111 267C95.679 269.112 95.6338 271.24 95.7761 273.36C95.8849 275.458 96.4101 277.513 97.3211 279.405C97.7909 280.318 98.4209 281.138 99.1811 281.827C99.964 282.515 100.819 283.116 101.731 283.62C103.589 284.622 105.554 285.412 107.589 285.975C111.706 287.061 115.905 287.814 120.144 288.225C124.389 288.72 128.656 289.065 132.894 289.5C137.184 289.863 141.445 290.525 145.644 291.48C147.775 291.961 149.835 292.717 151.771 293.73C153.685 294.774 155.474 296.032 157.104 297.48L158.071 298.335H156.766L122.071 297.862L104.769 297.75C98.9861 297.75 93.2036 297.713 87.4211 297.87C93.1961 297.533 98.9861 297.442 104.769 297.345C110.551 297.247 116.334 297.225 122.124 297.21H139.471L156.826 297.367L156.489 298.215C154.917 296.818 153.191 295.605 151.344 294.6C149.48 293.626 147.495 292.904 145.441 292.455C141.278 291.544 137.063 290.893 132.819 290.505C128.566 290.055 124.291 289.688 120.024 289.17C115.734 288.723 111.488 287.931 107.326 286.8C105.235 286.21 103.221 285.375 101.326 284.31C100.372 283.758 99.4773 283.11 98.6561 282.375C97.8344 281.614 97.1584 280.709 96.6611 279.705C95.7312 277.714 95.2084 275.556 95.1236 273.36C95.0045 271.2 95.0773 269.034 95.3411 266.888C95.8928 262.621 96.8113 258.411 98.0861 254.303C99.3123 250.207 100.767 246.183 102.444 242.25Z" fill="#263238"/>
<path d="M140.244 238.08C140.244 238.058 140.252 238.037 140.268 238.022C140.283 238.006 140.304 237.998 140.326 237.998C140.348 237.998 140.369 238.006 140.384 238.022C140.4 238.037 140.409 238.058 140.409 238.08C140.589 239.633 141.159 248.49 141.406 251.828C141.496 253.02 141.406 255.143 143.169 255.135C144.541 255.135 145.224 253.635 145.374 252.48C145.561 251.063 144.804 240.773 144.624 237.353C144.624 237.255 144.781 237.248 144.796 237.353C145.426 240.78 146.649 251.685 146.296 253.215C146.211 253.817 145.97 254.387 145.598 254.868C145.226 255.349 144.735 255.726 144.174 255.96C144.272 257.307 144.252 258.659 144.114 260.003C144.114 260.115 143.754 260.145 143.731 260.055C143.791 259.253 143.364 256.148 143.371 256.133C142.948 256.167 142.522 256.092 142.136 255.915C141.75 255.738 141.416 255.464 141.166 255.12C139.944 253.5 140.214 242.025 140.244 238.08Z" fill="#263238"/>
<path d="M135.324 264.36C136.561 263.505 137.844 262.725 139.141 261.96C140.439 261.195 141.744 260.46 143.071 259.763C144.399 259.065 145.741 258.383 147.106 257.76C148.471 257.138 149.851 256.523 151.269 256.02C150.624 256.418 149.964 256.77 149.319 257.153L147.354 258.248C146.049 258.998 144.721 259.68 143.401 260.385C142.081 261.09 140.746 261.78 139.396 262.433L137.379 263.423C136.689 263.73 136.014 264.06 135.324 264.36Z" fill="#263238"/>
<path d="M103.006 257.25C105.421 257.25 112.951 257.685 116.544 254.648C119.446 252.195 120.721 243.818 121.224 241.523C121.224 241.403 121.419 241.448 121.419 241.523C121.475 244.124 121.147 246.72 120.444 249.225C119.859 251.348 119.071 253.725 117.361 255.225C115.651 256.725 113.109 257.34 110.799 257.625C108.205 257.925 105.583 257.887 102.999 257.513C102.964 257.512 102.931 257.497 102.907 257.471C102.883 257.446 102.87 257.412 102.871 257.378C102.872 257.343 102.887 257.31 102.912 257.286C102.938 257.262 102.971 257.249 103.006 257.25Z" fill="#263238"/>
<path d="M151.944 229.418L148.299 247.89L89.1386 241.83C89.1386 241.83 110.769 196.988 129.151 182.985C136.464 177.42 142.464 179.903 146.701 185.175C147.669 186.383 158.484 209.175 158.791 216.998C159.001 223.395 151.944 229.418 151.944 229.418Z" fill="#78BF9B"/>
<path d="M94.6811 231C94.805 232.546 94.7899 234.1 94.6361 235.643C94.3211 238.125 93.0836 241.193 90.3461 241.763C89.9396 241.85 89.5211 241.868 89.1086 241.815L89.1611 241.703C90.056 241.813 90.9599 241.586 91.6961 241.065C94.4711 239.198 94.6961 235.358 94.6061 232.35C94.6061 231.983 94.6061 231.6 94.5536 231.24L94.6811 231ZM101.379 219.068L101.266 219.255C103.591 219.638 105.159 222.023 105.384 224.333C105.706 227.565 103.779 230.535 102.114 233.138C100.524 235.605 98.8886 238.2 98.7836 241.223C98.7637 241.759 98.7888 242.296 98.8586 242.828H99.0911C98.9786 241.989 98.9786 241.139 99.0911 240.3C99.5036 237.18 101.491 234.593 103.096 231.99C104.596 229.568 106.051 226.695 105.519 223.74C105.129 221.618 103.636 219.465 101.379 219.068ZM117.969 230.115C116.469 228.33 113.949 227.288 111.879 228.773C110.146 230.025 109.756 232.395 109.869 234.39C110.041 237.315 111.556 239.948 111.871 242.85C111.917 243.288 111.93 243.73 111.909 244.17H112.164C112.321 241.515 111.046 238.92 110.431 236.408C109.899 234.233 109.809 231.398 111.324 229.575C111.731 229.087 112.258 228.712 112.854 228.487C113.449 228.262 114.092 228.195 114.721 228.293C116.106 228.598 117.319 229.429 118.104 230.61C120.144 233.423 119.484 236.963 119.101 240.18C118.872 241.736 118.857 243.315 119.056 244.875H119.274C118.921 242.708 119.274 240.473 119.544 238.26C119.772 236.668 119.772 235.052 119.544 233.46C119.312 232.229 118.77 231.078 117.969 230.115ZM127.104 229.778C125.572 227.862 123.539 226.408 121.231 225.578C118.471 224.61 115.479 224.483 112.764 223.373C111.391 222.833 110.174 221.959 109.224 220.83C108.289 219.651 107.586 218.304 107.154 216.863C106.518 214.97 106.231 212.978 106.306 210.983C106.224 211.103 106.149 211.223 106.074 211.35C106.047 212.549 106.158 213.747 106.404 214.92C106.936 217.62 108.061 220.403 110.251 222.18C112.441 223.958 115.284 224.393 117.946 224.94C119.377 225.199 120.777 225.607 122.124 226.155C123.304 226.682 124.397 227.388 125.364 228.248C129.211 231.668 131.011 237.113 130.674 242.175C130.609 243.482 130.357 244.773 129.924 246.008H130.141C130.368 245.402 130.542 244.777 130.659 244.14C131.118 241.631 131.038 239.053 130.425 236.577C129.812 234.101 128.68 231.783 127.104 229.778ZM123.654 207.96C122.947 206.772 122.131 205.652 121.216 204.615C119.439 202.53 117.399 200.438 116.716 197.708C116.594 197.242 116.523 196.764 116.506 196.283C116.44 196.359 116.377 196.439 116.319 196.523V196.56C116.544 199.148 118.134 201.293 119.754 203.213C120.661 204.285 121.606 205.328 122.439 206.46C123.389 207.741 124.126 209.167 124.621 210.683C125.439 213.225 125.904 216.81 124.141 219.09C123.739 219.64 123.163 220.036 122.506 220.215C121.849 220.393 121.151 220.343 120.526 220.073C119.87 219.758 119.292 219.303 118.833 218.739C118.374 218.175 118.046 217.516 117.871 216.81C117.046 213.705 118.374 210.495 117.676 207.36C117.447 206.118 116.785 204.996 115.809 204.195C114.954 203.572 113.918 203.248 112.861 203.273C112.318 203.275 111.779 203.351 111.256 203.498L111.054 203.79C111.677 203.583 112.331 203.482 112.989 203.49C113.646 203.483 114.297 203.625 114.892 203.905C115.487 204.186 116.011 204.598 116.424 205.11C117.255 206.308 117.683 207.74 117.646 209.198C117.721 212.198 116.559 215.61 118.254 218.34C118.867 219.402 119.875 220.178 121.059 220.5C121.596 220.619 122.156 220.595 122.682 220.432C123.208 220.269 123.682 219.972 124.059 219.57C125.829 217.733 125.739 214.688 125.304 212.37C124.994 210.821 124.437 209.332 123.654 207.96ZM133.576 195.33C133.299 191.925 132.159 188.64 132.151 185.205C132.134 183.658 132.443 182.125 133.059 180.705L132.751 180.833C132.289 181.949 132.018 183.136 131.949 184.343C131.724 187.763 132.834 191.093 133.246 194.423C133.482 195.986 133.482 197.576 133.246 199.14C133.116 199.915 132.89 200.671 132.571 201.39C132.286 202.035 131.866 202.973 131.161 203.25C130.456 203.528 129.714 202.943 129.316 202.35C128.905 201.67 128.678 200.895 128.656 200.1C128.529 198.345 128.821 196.598 128.851 194.85C128.896 192.42 128.236 189.525 125.776 188.46C125.097 188.167 124.363 188.023 123.624 188.04L123.421 188.25C124.034 188.195 124.652 188.267 125.237 188.46C125.821 188.654 126.359 188.965 126.819 189.375C129.181 191.513 128.611 195.128 128.439 197.94C128.356 199.395 128.259 201.098 129.046 202.395C129.549 203.213 130.546 203.993 131.506 203.37C132.016 202.959 132.409 202.421 132.646 201.81C132.957 201.185 133.193 200.525 133.351 199.845C133.663 198.361 133.738 196.838 133.576 195.33ZM139.524 212.25C141.976 211.23 143.656 208.928 145.006 206.73C146.544 204.21 147.691 201.48 149.334 198.99C149.986 197.901 150.905 196.995 152.004 196.358L151.944 196.223C150.708 196.956 149.677 197.987 148.944 199.223C147.361 201.698 146.191 204.42 144.624 206.91C143.169 209.213 141.286 211.62 138.526 212.318C137.942 212.516 137.316 212.561 136.709 212.448C136.103 212.335 135.535 212.068 135.061 211.673C133.989 210.615 134.026 208.965 134.431 207.615C135.076 205.47 136.794 203.91 138.534 202.605C140.274 201.3 142.321 200.078 144.016 198.555C145.948 196.855 147.233 194.539 147.654 192C147.919 190.391 147.959 188.753 147.774 187.133C147.646 186.878 147.534 186.653 147.421 186.443C147.834 189.375 147.721 192.555 146.356 195.233C145.224 197.445 143.244 198.983 141.256 200.393C139.362 201.564 137.601 202.94 136.006 204.495C134.581 206.04 133.449 208.343 134.079 210.495C134.799 213 137.521 213.105 139.524 212.25ZM156.526 207.848C155.827 209.653 154.811 211.319 153.526 212.768C151.477 215.043 148.82 216.685 145.869 217.5C144.427 217.898 142.939 218.1 141.444 218.1C139.802 218.002 138.168 217.794 136.554 217.478C135.185 217.234 133.775 217.404 132.504 217.965C131.362 218.509 130.409 219.382 129.766 220.47C129.389 221.077 129.148 221.76 129.06 222.469C128.972 223.179 129.039 223.899 129.256 224.58C129.623 225.571 130.364 226.378 131.319 226.83C132.389 227.291 133.558 227.478 134.718 227.371C135.879 227.265 136.995 226.87 137.964 226.223C139.192 225.428 140.339 224.516 141.391 223.5C142.539 222.458 143.716 221.19 145.186 220.62C147.811 219.6 150.069 222.015 150.391 224.475C150.759 227.318 148.486 229.605 146.169 230.835C143.851 232.065 141.024 232.335 138.549 233.408C136.381 234.353 134.709 236.145 134.724 238.658C134.769 243.863 141.039 248.34 145.906 246.158C147.192 245.548 148.306 244.628 149.146 243.48L149.244 242.97C147.894 244.823 146.041 246.338 143.664 246.48C142.168 246.505 140.691 246.142 139.377 245.427C138.062 244.712 136.956 243.669 136.164 242.4C134.754 240.15 134.401 237.15 136.366 235.14C138.211 233.235 141.106 232.89 143.536 232.14C145.966 231.39 148.411 230.168 149.784 227.978C150.393 227.041 150.692 225.936 150.638 224.82C150.585 223.704 150.181 222.633 149.484 221.76C148.884 220.96 148.011 220.408 147.031 220.208C146.392 220.152 145.748 220.231 145.141 220.439C144.534 220.647 143.977 220.979 143.506 221.415C141.159 223.238 139.224 225.728 136.366 226.8C134.229 227.603 131.116 227.333 129.819 225.233C128.034 222.39 130.569 218.858 133.321 217.935C134.949 217.395 136.614 217.733 138.256 218.04C139.688 218.317 141.15 218.416 142.606 218.333C145.433 218.14 148.163 217.219 150.528 215.659C152.894 214.099 154.816 211.953 156.106 209.43C156.294 209.055 156.474 208.68 156.639 208.275L156.526 207.848ZM158.026 214.358L158.379 214.208L158.334 213.998C157.519 214.279 156.789 214.761 156.211 215.4C155.823 215.796 155.518 216.265 155.313 216.78C155.108 217.295 155.008 217.846 155.019 218.4C155.069 218.902 155.23 219.387 155.489 219.82C155.748 220.253 156.1 220.623 156.519 220.905C156.918 221.177 157.349 221.401 157.801 221.573L157.899 221.348C157.449 221.188 157.023 220.968 156.631 220.695C156.095 220.339 155.683 219.825 155.453 219.224C155.223 218.623 155.187 217.965 155.349 217.343C155.556 216.688 155.901 216.085 156.36 215.574C156.819 215.063 157.382 214.656 158.011 214.38L158.026 214.358Z" fill="white"/>
<path d="M144.031 225.037C141.033 224.81 138.019 224.865 135.031 225.202C133.531 225.39 132.031 225.668 130.531 225.99C129.781 226.148 129.031 226.275 128.281 226.395C127.516 226.552 126.732 226.59 125.956 226.508C125.889 226.508 125.859 226.628 125.956 226.643C126.662 226.826 127.382 226.947 128.109 227.003C128.82 227.033 129.533 227.001 130.239 226.905C131.739 226.725 133.239 226.463 134.791 226.268C137.851 225.87 140.904 225.473 143.956 225.36C144.144 225.353 144.166 225.052 144.031 225.037Z" fill="#263238"/>
<path d="M150.534 229.755C148.214 228.968 145.84 228.352 143.431 227.91C142.225 227.703 141.008 227.562 139.786 227.49C139.201 227.452 138.609 227.422 138.024 227.407C137.439 227.392 136.719 227.482 136.074 227.452C136.006 227.452 135.976 227.58 136.074 227.587C136.674 227.64 137.266 227.82 137.866 227.917L139.674 228.202C140.881 228.397 142.081 228.607 143.289 228.787C145.711 229.147 148.111 229.537 150.511 230.01C150.616 230.032 150.654 229.792 150.534 229.755Z" fill="#263238"/>
<path d="M137.994 183.517C137.866 184.71 140.656 193.695 145.779 195.202C147.451 195.69 150.526 186.697 150.526 186.697L150.901 186.082L156.196 177.51L147.706 166.725L146.446 165.225C146.446 165.225 145.156 167.67 143.574 170.722L143.349 171.157C143.251 171.33 143.161 171.487 143.079 171.652C142.839 172.102 142.591 172.567 142.329 173.04C142.149 173.392 141.976 173.737 141.796 174.112C141.616 174.487 141.444 174.862 141.256 175.237C139.975 177.917 138.885 180.684 137.994 183.517Z" fill="#D3766A"/>
<path d="M143.574 170.752C143.609 173.687 144.282 176.578 145.548 179.225C146.813 181.873 148.64 184.213 150.901 186.082L156.196 177.51L147.706 166.725L146.446 165.225C146.446 165.225 145.194 167.7 143.574 170.752Z" fill="#263238"/>
<path d="M174.384 168C169.509 185.002 158.776 184.005 155.109 182.947C151.786 181.995 140.581 178.312 143.664 160.897C146.746 143.482 156.196 140.377 163.914 142.147C171.631 143.917 179.251 150.967 174.384 168Z" fill="#D3766A"/>
<path d="M172.029 162.855C171.658 162.686 171.297 162.496 170.949 162.285C170.548 162.145 170.202 161.883 169.959 161.535C169.907 161.404 169.9 161.26 169.938 161.125C169.976 160.989 170.057 160.87 170.169 160.785C170.416 160.657 170.692 160.596 170.97 160.609C171.248 160.622 171.517 160.709 171.751 160.86C172.276 161.079 172.701 161.485 172.944 162C172.992 162.126 173.002 162.263 172.972 162.394C172.942 162.525 172.873 162.645 172.775 162.737C172.676 162.828 172.553 162.889 172.42 162.91C172.287 162.931 172.151 162.912 172.029 162.855Z" fill="#263238"/>
<path d="M160.786 159.75C161.192 159.8 161.6 159.827 162.009 159.833C162.434 159.923 162.877 159.87 163.269 159.683C163.383 159.599 163.465 159.48 163.503 159.344C163.541 159.208 163.533 159.063 163.479 158.933C163.336 158.696 163.133 158.502 162.89 158.37C162.648 158.238 162.375 158.174 162.099 158.183C161.534 158.102 160.961 158.239 160.494 158.565C160.394 158.646 160.32 158.753 160.28 158.874C160.239 158.996 160.234 159.126 160.265 159.25C160.295 159.374 160.36 159.487 160.453 159.576C160.545 159.664 160.661 159.725 160.786 159.75Z" fill="#263238"/>
<path d="M161.829 164.707C161.829 164.662 161.724 164.707 161.709 164.79C161.446 165.96 160.959 167.265 159.789 167.37C159.751 167.37 159.736 167.437 159.789 167.445C161.116 167.595 161.761 165.862 161.829 164.707Z" fill="#263238"/>
<path d="M161.101 163.215C159.271 162.585 158.101 166.305 159.841 166.89C161.581 167.475 162.646 163.748 161.101 163.215Z" fill="#263238"/>
<path d="M160.314 163.193C159.924 163.305 159.496 163.583 159.091 163.5C158.686 163.418 158.401 162.915 158.221 162.45C158.221 162.405 158.154 162.45 158.139 162.45C157.977 162.775 157.946 163.148 158.05 163.495C158.155 163.842 158.388 164.136 158.701 164.318C159.369 164.625 160.059 164.145 160.456 163.478C160.524 163.38 160.471 163.148 160.314 163.193Z" fill="#263238"/>
<path d="M168.579 166.455C168.579 166.41 168.654 166.538 168.631 166.583C168.241 167.723 167.979 169.095 168.901 169.8C168.901 169.8 168.901 169.875 168.901 169.86C167.694 169.283 168.024 167.468 168.579 166.455Z" fill="#263238"/>
<path d="M169.981 165.57C171.871 166.005 170.859 169.763 169.111 169.358C167.364 168.953 168.391 165.21 169.981 165.57Z" fill="#263238"/>
<path d="M170.694 166.027C170.934 166.312 171.136 166.777 171.481 166.867C171.826 166.957 172.299 166.68 172.666 166.365C172.704 166.365 172.726 166.365 172.711 166.417C172.539 167.167 172.104 167.827 171.376 167.775C170.649 167.722 170.416 167.025 170.439 166.275C170.439 166.095 170.596 165.915 170.694 166.027Z" fill="#263238"/>
<path d="M159.444 174.06C159.624 174.42 159.766 174.885 160.194 175.065C160.621 175.206 161.074 175.255 161.521 175.208C161.531 175.208 161.541 175.211 161.548 175.218C161.555 175.226 161.559 175.235 161.559 175.245C161.559 175.255 161.555 175.264 161.548 175.272C161.541 175.279 161.531 175.283 161.521 175.283C161.281 175.451 161 175.55 160.708 175.57C160.416 175.59 160.124 175.529 159.864 175.395C159.655 175.252 159.492 175.05 159.396 174.816C159.3 174.581 159.275 174.324 159.324 174.075C159.294 174 159.391 174 159.444 174.06Z" fill="#263238"/>
<path d="M165.444 171.285C165.444 171.285 165.181 173.077 164.941 173.895C164.941 173.97 164.716 173.947 164.431 173.895C163.694 173.82 162.991 173.543 162.401 173.094C161.811 172.646 161.356 172.043 161.086 171.352C161.086 171.262 161.184 171.202 161.244 171.277C162.074 172.291 163.211 173.007 164.484 173.317C164.604 173.107 164.829 170.227 164.964 170.25C165.58 170.49 166.16 170.813 166.689 171.21C167.349 167.46 167.401 163.71 168.106 159.96C168.106 159.825 168.331 159.84 168.331 159.96C168.564 163.95 167.904 168.255 167.326 172.117C167.251 172.612 165.751 171.517 165.444 171.285Z" fill="#263238"/>
<path d="M163.846 173.37C163.253 173.804 162.558 174.078 161.829 174.165C161.431 174.198 161.034 174.109 160.689 173.91C159.939 173.46 160.134 172.702 160.471 172.11C160.651 171.795 160.867 171.503 161.116 171.24C161.776 172.223 162.733 172.969 163.846 173.37Z" fill="#263238"/>
<path d="M161.829 174.165C161.431 174.198 161.034 174.109 160.689 173.91C159.939 173.46 160.134 172.702 160.471 172.11C160.895 172.251 161.259 172.53 161.505 172.903C161.751 173.276 161.865 173.72 161.829 174.165Z" fill="#FF9CBD"/>
<path d="M142.899 163.8C145.816 164.7 147.901 158.625 147.901 158.625C147.901 158.625 153.901 160.005 157.876 151.777C157.121 154.339 155.632 156.623 153.594 158.347C153.594 158.347 164.484 159.615 170.971 151.725C170.971 151.725 168.166 155.857 166.126 157.087C166.126 157.087 170.866 156.855 173.859 153.72C173.859 153.72 174.564 159.277 175.681 161.017C175.681 161.017 179.431 142.305 161.739 140.4C161.739 140.4 150.781 138.682 144.976 146.355C139.171 154.027 142.899 163.8 142.899 163.8Z" fill="#263238"/>
<path d="M149.979 159.66L146.041 154.995L144.894 156.142L149.311 160.29L149.979 159.66Z" fill="#43B1ED"/>
<path d="M148.959 160.845L144.264 156.953L143.326 158.28L148.419 161.58L148.959 160.845Z" fill="#43B1ED"/>
<path d="M145.996 162.945C145.996 162.945 144.361 156.413 141.534 156.803C138.706 157.193 138.534 165.705 140.904 167.775C141.188 168.061 141.527 168.287 141.901 168.439C142.274 168.591 142.675 168.666 143.078 168.66C143.481 168.653 143.879 168.566 144.248 168.402C144.616 168.239 144.948 168.002 145.224 167.708L145.996 162.945Z" fill="#D3766A"/>
<path d="M141.549 159.24C141.54 159.239 141.532 159.24 141.524 159.244C141.516 159.247 141.51 159.253 141.505 159.26C141.5 159.267 141.498 159.275 141.497 159.283C141.497 159.292 141.499 159.3 141.504 159.308C143.131 160.808 143.461 163.005 143.469 165.128C143.431 164.891 143.342 164.666 143.208 164.467C143.075 164.268 142.899 164.101 142.695 163.977C142.49 163.852 142.26 163.774 142.022 163.748C141.784 163.721 141.543 163.747 141.316 163.823C141.256 163.823 141.271 163.935 141.316 163.943C141.697 163.965 142.061 164.104 142.359 164.342C142.658 164.58 142.875 164.904 142.981 165.27C143.155 165.882 143.26 166.51 143.296 167.145C143.296 167.348 143.671 167.378 143.679 167.145V167.093C144.684 164.663 144.091 160.5 141.549 159.24Z" fill="#263238"/>
<path d="M123.714 198.038C120.639 215.003 113.214 250.043 120.031 260.85C128.971 275.033 159.969 285.435 168.076 288.495C171.616 289.83 181.861 266.858 179.994 263.273C178.126 259.688 146.071 245.423 143.926 243.293C141.781 241.163 139.794 213.158 137.371 198.728C134.311 180.518 126.309 183.675 123.714 198.038Z" fill="#D3766A"/>
<path d="M182.521 266.685C181.074 265.41 181.771 264.637 185.154 264.84C188.536 265.042 201.939 268.702 202.824 263.932C203.709 259.162 184.779 254.25 179.064 254.362C173.349 254.475 164.139 256.657 164.139 256.657C167.626 258.352 175.711 263.25 182.521 266.685Z" fill="#D3766A"/>
<path d="M154.554 283.59C164.566 288 176.761 294.09 189.054 292.665C190.42 292.541 191.704 291.96 192.699 291.015C198.204 290.468 199.599 287.708 199.599 287.708C204.571 285.623 205.599 282.6 205.599 282.6C205.599 282.6 212.056 281.888 212.274 277.913C212.529 273.458 203.409 275.333 197.761 273.293C184.831 268.628 167.761 258.375 164.154 256.658L154.554 283.59Z" fill="#D3766A"/>
<path d="M180.759 277.928C184.526 279.336 188.385 280.486 192.309 281.37C196.689 282.218 201.046 282.3 205.471 282.495C205.485 282.495 205.499 282.498 205.511 282.503C205.524 282.508 205.536 282.516 205.545 282.526C205.555 282.536 205.563 282.547 205.568 282.56C205.573 282.573 205.576 282.586 205.576 282.6C205.576 282.614 205.573 282.627 205.568 282.64C205.563 282.653 205.555 282.665 205.545 282.674C205.536 282.684 205.524 282.692 205.511 282.697C205.499 282.702 205.485 282.705 205.471 282.705C197.394 283.628 187.944 281.723 180.684 278.1C180.519 278.018 180.564 277.86 180.759 277.928Z" fill="#263238"/>
<path d="M176.806 285.323C180.601 286.38 187.306 288.195 199.561 287.573C199.606 287.573 199.621 287.64 199.561 287.648C191.903 289.065 184.001 288.325 176.739 285.51C176.521 285.42 176.551 285.255 176.806 285.323Z" fill="#263238"/>
<path d="M174.751 289.343C181.284 290.888 185.596 291.038 192.639 290.985C192.676 290.985 192.691 291.06 192.639 291.06C184.644 291.96 181.644 291.383 174.639 289.56C174.444 289.5 174.496 289.283 174.751 289.343Z" fill="#263238"/>
<path d="M141.496 218.482L116.259 226.042C116.259 226.042 121.771 197.595 125.754 189.69C130.254 180.787 133.809 185.025 136.854 193.995C139.899 202.965 141.496 218.482 141.496 218.482Z" fill="#78BF9B"/>
<path d="M116.574 224.445C117.556 224.648 118.539 224.835 119.506 225.068L119.094 225.195L117.946 224.94L116.536 224.655C116.544 224.588 116.559 224.52 116.574 224.445ZM123.654 207.945C122.947 206.757 122.131 205.637 121.216 204.6L121.059 204.42L120.991 204.668C121.486 205.245 121.966 205.83 122.416 206.445C123.367 207.726 124.104 209.152 124.599 210.668C125.416 213.21 125.881 216.795 124.119 219.075C123.717 219.625 123.14 220.021 122.483 220.2C121.826 220.378 121.128 220.328 120.504 220.058C119.364 219.523 118.48 218.561 118.044 217.38L117.954 217.815C118.036 217.99 118.128 218.161 118.231 218.325C118.845 219.387 119.853 220.163 121.036 220.485C121.574 220.604 122.133 220.58 122.659 220.417C123.185 220.254 123.66 219.957 124.036 219.555C125.806 217.718 125.716 214.673 125.281 212.355C124.977 210.812 124.428 209.329 123.654 207.96V207.945ZM133.576 195.315C133.306 191.955 132.189 188.715 132.151 185.333C132.081 185.27 132.003 185.217 131.919 185.175C131.919 188.288 132.871 191.318 133.246 194.385C133.482 195.949 133.482 197.539 133.246 199.103C133.116 199.878 132.89 200.634 132.571 201.353C132.286 201.998 131.866 202.935 131.161 203.213C130.456 203.49 129.714 202.905 129.316 202.313C128.905 201.632 128.678 200.857 128.656 200.063C128.529 198.308 128.821 196.56 128.851 194.813C128.896 192.563 128.334 189.938 126.324 188.715C126.286 188.775 126.256 188.835 126.226 188.895C126.437 189.024 126.635 189.172 126.819 189.338C129.181 191.475 128.611 195.09 128.439 197.903C128.356 199.358 128.259 201.06 129.046 202.358C129.549 203.175 130.546 203.955 131.506 203.333C132.016 202.921 132.409 202.383 132.646 201.773C132.957 201.147 133.193 200.488 133.351 199.808C133.659 198.336 133.734 196.825 133.576 195.33V195.315ZM139.524 212.25C139.909 212.089 140.281 211.896 140.634 211.673C140.634 211.59 140.634 211.508 140.634 211.425C139.995 211.847 139.29 212.158 138.549 212.348C137.964 212.546 137.339 212.591 136.732 212.478C136.125 212.365 135.557 212.098 135.084 211.703C134.011 210.645 134.049 208.995 134.454 207.645C135.099 205.5 136.816 203.94 138.556 202.635L139.044 202.283C139.044 202.193 139.044 202.103 138.991 202.02C137.92 202.745 136.932 203.585 136.044 204.525C134.619 206.07 133.486 208.373 134.116 210.525C134.799 213 137.521 213.105 139.524 212.25ZM141.451 218.063C139.809 217.964 138.175 217.756 136.561 217.44C135.193 217.197 133.783 217.366 132.511 217.928C131.37 218.472 130.417 219.344 129.774 220.433C129.453 220.969 129.23 221.558 129.114 222.173L129.316 222.113C129.59 221.135 130.094 220.238 130.788 219.497C131.481 218.755 132.342 218.191 133.299 217.853C134.926 217.313 136.591 217.65 138.234 217.958C139.307 218.158 140.396 218.266 141.489 218.28C141.444 218.25 141.444 218.175 141.444 218.085L141.451 218.063Z" fill="white"/>
<path d="M139.239 214.177C135.894 214.71 126.091 217.702 124.464 218.182C123.609 218.437 120.234 219.592 119.379 219.84C119.266 219.84 119.334 220.035 119.446 220.005C121.081 219.532 122.769 219.255 124.411 218.782C126.054 218.31 136.141 215.64 139.276 214.282C139.283 214.274 139.287 214.263 139.288 214.252C139.29 214.242 139.289 214.23 139.285 214.22C139.281 214.21 139.275 214.2 139.267 214.193C139.259 214.186 139.249 214.18 139.239 214.177Z" fill="#263238"/>
<path d="M122.116 200.753C122.116 200.633 121.974 200.61 121.936 200.753C121.186 203.1 120.519 205.47 119.874 207.848C119.915 206.558 120.074 205.276 120.346 204.015C120.349 204.008 120.35 204.001 120.35 203.993C120.349 203.986 120.347 203.979 120.343 203.972C120.338 203.966 120.333 203.961 120.326 203.957C120.32 203.954 120.312 203.952 120.305 203.952C120.297 203.952 120.29 203.954 120.283 203.957C120.277 203.961 120.271 203.966 120.267 203.972C120.263 203.979 120.261 203.986 120.26 203.993C120.259 204.001 120.261 204.008 120.264 204.015C119.889 205.462 119.708 206.953 119.724 208.448C119.279 210.103 118.851 211.765 118.441 213.435C117.406 217.68 116.311 221.918 115.516 226.185C115.506 226.237 115.51 226.291 115.528 226.341C115.546 226.391 115.576 226.435 115.617 226.469C115.657 226.504 115.706 226.527 115.758 226.536C115.81 226.545 115.864 226.541 115.914 226.523C116.784 226.23 117.639 225.923 118.486 225.57C118.576 225.533 118.554 225.383 118.486 225.398C117.736 225.525 116.986 225.69 116.236 225.855C117.354 221.783 118.254 217.658 119.236 213.555C120.264 209.295 121.261 205.035 122.116 200.753Z" fill="#263238"/>
<path d="M140.364 207.225C140.311 205.837 140.259 204.45 140.161 203.063H140.116C140.116 204.09 140.116 205.11 140.169 206.13C139.786 204.128 139.366 202.125 138.856 200.13C138.856 200.13 138.804 200.13 138.811 200.13C139.134 203.205 139.621 206.258 140.019 209.325C140.416 212.393 140.851 215.325 141.294 218.325C140.746 218.588 140.191 218.835 139.636 219.075C139.619 219.086 139.606 219.103 139.599 219.122C139.593 219.141 139.593 219.162 139.6 219.181C139.607 219.201 139.62 219.217 139.638 219.228C139.655 219.238 139.676 219.243 139.696 219.24C140.341 219.075 140.986 218.918 141.639 218.79C141.715 218.779 141.786 218.74 141.835 218.68C141.885 218.621 141.911 218.545 141.909 218.468C141.541 214.755 141.039 210.975 140.364 207.225Z" fill="#263238"/>
<path d="M305.242 306.157C302.835 301.995 285.382 288.33 278.542 292.282C271.702 296.235 268.507 316.035 281.542 331.215C281.542 331.215 274.965 332.07 273.63 332.805C272.295 333.54 270.577 336.315 271.087 337.095C271.597 337.875 276.667 339.503 277.98 339.668C279.292 339.833 295.365 337.77 296.572 337.313C297.78 336.855 296.4 335.138 296.4 335.138C296.4 335.138 308.4 335.648 311.73 333.008C315.06 330.368 308.94 312.517 305.242 306.157Z" fill="#DDAF89"/>
<path opacity="0.1" d="M305.242 306.157C302.835 301.995 285.382 288.33 278.542 292.282C271.702 296.235 268.507 316.035 281.542 331.215C281.542 331.215 274.965 332.07 273.63 332.805C272.295 333.54 270.577 336.315 271.087 337.095C271.597 337.875 276.667 339.503 277.98 339.668C279.292 339.833 295.365 337.77 296.572 337.313C297.78 336.855 296.4 335.138 296.4 335.138C296.4 335.138 308.4 335.648 311.73 333.008C315.06 330.368 308.94 312.517 305.242 306.157Z" fill="#333333"/>
<path d="M274.777 333.412C274.349 333.58 273.947 333.81 273.585 334.095C273.235 334.432 272.95 334.831 272.745 335.272C272.524 335.76 272.389 336.283 272.347 336.817C272.263 337.267 272.34 337.732 272.565 338.13C272.617 338.205 272.76 338.13 272.73 338.047C272.61 337.635 273.24 335.902 273.412 335.49C273.556 335.126 273.739 334.778 273.96 334.455C274.174 334.078 274.472 333.754 274.83 333.51C274.897 333.48 274.845 333.375 274.777 333.412Z" fill="#263238"/>
<path d="M278.28 334.282C277.792 334.462 277.334 334.715 276.922 335.032C276.518 335.364 276.186 335.775 275.947 336.24C275.497 337.117 275.287 338.377 275.947 339.24C275.95 339.246 275.955 339.252 275.96 339.257C275.965 339.262 275.971 339.265 275.978 339.268C275.984 339.27 275.991 339.271 275.998 339.271C276.005 339.271 276.012 339.269 276.019 339.266C276.025 339.263 276.031 339.259 276.036 339.254C276.04 339.249 276.044 339.243 276.047 339.236C276.049 339.229 276.05 339.222 276.05 339.215C276.05 339.208 276.048 339.201 276.045 339.195C275.91 338.722 275.91 338.221 276.045 337.747C276.236 336.881 276.632 336.074 277.2 335.392C277.497 335.011 277.87 334.694 278.295 334.463C278.4 334.358 278.347 334.252 278.28 334.282Z" fill="#263238"/>
<path d="M322.17 326.1C324.352 324.45 335.445 325.222 342.42 317.887C349.395 310.552 348.255 302.76 348.255 302.76C349.682 306.081 350.242 309.71 349.884 313.307C349.526 316.903 348.261 320.35 346.207 323.325C339.12 333.825 329.535 334.305 329.535 334.305L322.17 326.1Z" fill="#DDAF89"/>
<path d="M272.452 261.66C270.262 263.01 256.132 275.228 255.292 276.758C254.452 278.288 251.46 282.66 250.335 282.675C249.21 282.69 244.125 271.358 242.745 270.293C241.365 269.228 233.865 268.47 232.905 268.957C231.945 269.445 228.667 270.713 229.027 272.115C229.387 273.518 236.82 276.158 237.225 277.17C237.63 278.183 239.655 289.718 241.417 291.098C243.18 292.478 252.36 296.685 254.437 296.768C256.515 296.85 278.01 289.927 278.61 288.367C279.21 286.807 273.45 261.045 272.452 261.66Z" fill="#DDAF89"/>
<path opacity="0.1" d="M272.452 261.66C270.262 263.01 256.132 275.228 255.292 276.758C254.452 278.288 251.46 282.66 250.335 282.675C249.21 282.69 244.125 271.358 242.745 270.293C241.365 269.228 233.865 268.47 232.905 268.957C231.945 269.445 228.667 270.713 229.027 272.115C229.387 273.518 236.82 276.158 237.225 277.17C237.63 278.183 239.655 289.718 241.417 291.098C243.18 292.478 252.36 296.685 254.437 296.768C256.515 296.85 278.01 289.927 278.61 288.367C279.21 286.807 273.45 261.045 272.452 261.66Z" fill="#333333"/>
<path d="M233.865 270.922C233.121 271 232.403 271.235 231.757 271.612C231.105 271.996 230.61 272.6 230.362 273.315C230.356 273.34 230.358 273.366 230.368 273.39C230.377 273.413 230.394 273.433 230.416 273.447C230.438 273.46 230.463 273.466 230.489 273.464C230.514 273.462 230.538 273.452 230.557 273.435C231.562 272.512 232.515 271.395 233.887 271.035C233.899 271.029 233.908 271.019 233.913 271.008C233.919 270.996 233.92 270.983 233.918 270.97C233.915 270.958 233.909 270.946 233.899 270.938C233.89 270.929 233.878 270.924 233.865 270.922Z" fill="#263238"/>
<path d="M235.995 272.25C235.267 272.335 234.571 272.592 233.962 273C233.374 273.422 232.917 274.002 232.642 274.673C232.637 274.695 232.639 274.719 232.648 274.74C232.657 274.762 232.673 274.78 232.693 274.793C232.712 274.805 232.735 274.811 232.759 274.809C232.782 274.808 232.804 274.8 232.822 274.785C233.29 274.305 233.792 273.859 234.322 273.45C234.842 273.018 235.414 272.653 236.025 272.362C236.1 272.325 236.062 272.25 235.995 272.25Z" fill="#263238"/>
<path d="M265.695 213.473C261.772 216.263 255.195 222.473 252.285 227.843C249.622 232.838 246.037 241.493 252.802 244.808C260.062 248.355 266.842 243.488 269.077 236.228C271.312 228.968 271.522 219.548 271.522 219.548" fill="#DDAF89"/>
<path opacity="0.1" d="M265.695 213.473C261.772 216.263 255.195 222.473 252.285 227.843C249.622 232.838 246.037 241.493 252.802 244.808C260.062 248.355 266.842 243.488 269.077 236.228C271.312 228.968 271.522 219.548 271.522 219.548" fill="#333333"/>
<path d="M330.825 335.295C329.407 338.767 304.455 336.637 300.637 335.355C298.575 334.68 293.325 324.6 288.06 315.315C283.485 307.282 278.67 298.815 275.242 294.727C271.905 290.76 266.077 287.835 264.637 280.305C264.637 273.022 268.057 254.805 267.637 254.497C267.217 254.19 253.237 252.585 248.602 251.242C243.967 249.9 238.44 236.25 239.4 234.127C240.36 232.005 254.925 231.472 256.875 229.965C258.825 228.457 262.492 215.955 266.377 212.925C270.262 209.895 283.845 212.362 291.127 216.847C296.092 219.892 302.527 251.962 305.64 259.042C305.917 259.417 306.3 259.95 306.75 260.587C310.83 266.295 321.292 280.912 327 288.615C329.34 291.765 330.57 300.532 331.087 309.54C331.755 320.61 331.62 333.375 330.825 335.295Z" fill="#DDAF89"/>
<path opacity="0.1" d="M275.85 277.387C275.437 277.905 275.04 278.437 274.635 278.962C274.742 278.328 274.782 277.685 274.755 277.042C274.716 276.362 274.629 275.685 274.492 275.017C274.365 274.305 274.125 273.63 273.945 272.932C273.937 272.899 273.919 272.87 273.892 272.849C273.866 272.827 273.833 272.816 273.799 272.816C273.765 272.816 273.732 272.827 273.705 272.849C273.679 272.87 273.66 272.899 273.652 272.932C273.336 273.869 272.845 274.737 272.205 275.49C271.895 275.884 271.554 276.253 271.185 276.592C271.862 274.437 272.263 272.204 272.377 269.947C272.445 268.632 272.385 267.314 272.197 266.01C272.05 264.727 271.703 263.474 271.17 262.297C271.17 262.237 271.035 262.297 271.05 262.335C271.23 263.587 271.477 264.832 271.552 266.085C271.611 267.391 271.574 268.7 271.44 270C271.158 272.605 270.657 275.182 269.94 277.702C269.85 278.017 270.262 278.377 270.547 278.145C271.355 277.503 272.063 276.745 272.647 275.895C273.088 275.229 273.439 274.508 273.69 273.75V274.95C273.69 275.595 273.727 276.232 273.727 276.877C273.725 277.517 273.685 278.155 273.607 278.79C273.525 279.45 273.39 280.072 273.255 280.725C273.241 280.804 273.254 280.885 273.293 280.954C273.332 281.024 273.394 281.078 273.468 281.108C273.543 281.137 273.625 281.139 273.701 281.115C273.777 281.09 273.842 281.04 273.885 280.972C274.545 279.78 275.31 278.647 276.007 277.477C276.06 277.41 275.94 277.297 275.85 277.387Z" fill="#333333"/>
<path opacity="0.1" d="M321.615 286.23C320.998 285.695 320.352 285.194 319.68 284.73C319.365 284.475 319.035 284.205 318.712 283.92C319.506 284.038 320.316 283.943 321.06 283.642C321.154 283.612 321.235 283.553 321.293 283.474C321.351 283.394 321.382 283.298 321.382 283.2C321.382 283.102 321.351 283.006 321.293 282.926C321.235 282.847 321.154 282.788 321.06 282.757C317.797 281.727 314.921 279.735 312.81 277.042C312.765 276.982 312.667 277.042 312.712 277.102C313.632 278.622 314.795 279.98 316.155 281.122C317.147 281.923 318.242 282.586 319.41 283.095C318.806 283.118 318.203 283.026 317.632 282.825C317.558 282.806 317.48 282.812 317.41 282.843C317.34 282.873 317.282 282.926 317.245 282.993C317.208 283.06 317.194 283.137 317.206 283.212C317.218 283.288 317.254 283.357 317.31 283.41C318 284.002 318.607 284.67 319.327 285.232C319.95 285.798 320.673 286.243 321.457 286.545C321.622 286.597 321.735 286.357 321.615 286.23Z" fill="#333333"/>
<path d="M271.68 230.842C271.68 230.767 271.822 230.97 271.807 231.045C271.312 232.957 271.11 235.23 272.872 236.295C272.932 236.295 272.872 236.422 272.835 236.4C270.57 235.582 270.877 232.567 271.68 230.842Z" fill="#263238"/>
<path d="M274.005 229.245C277.447 229.755 276.352 235.995 273.157 235.545C269.962 235.095 271.117 228.817 274.005 229.245Z" fill="#263238"/>
<path d="M262.042 227.558C262.042 227.483 261.87 227.603 261.84 227.678C261.232 229.553 260.235 231.6 258.382 231.645C258.33 231.645 258.3 231.743 258.382 231.758C260.452 232.163 261.757 229.425 262.042 227.558Z" fill="#263238"/>
<path d="M261.127 225.067C258.315 223.83 255.945 229.725 258.547 230.872C261.15 232.02 263.482 226.102 261.127 225.067Z" fill="#263238"/>
<path d="M244.822 242.047C245.113 242.901 245.469 243.731 245.887 244.53C246.096 244.972 246.404 245.36 246.787 245.662C246.861 245.708 246.942 245.739 247.027 245.752C247.089 245.761 247.151 245.757 247.21 245.74C247.27 245.723 247.325 245.694 247.372 245.655C247.489 245.548 247.573 245.41 247.612 245.257C247.694 245.031 247.751 244.798 247.785 244.56C247.92 243.659 247.986 242.749 247.98 241.837C247.98 240.937 247.965 240.037 247.935 239.137L247.185 239.265C247.53 240.517 247.935 241.747 248.385 242.97C248.61 243.577 248.857 244.177 249.135 244.777C249.396 245.403 249.745 245.989 250.17 246.517C250.317 246.69 250.518 246.809 250.74 246.855C250.929 246.886 251.121 246.886 251.31 246.855C251.638 246.785 251.962 246.692 252.277 246.577C252.89 246.358 253.491 246.108 254.077 245.827C255.247 245.265 256.395 244.672 257.505 244.02C256.32 244.53 255.142 245.047 253.935 245.52C253.335 245.737 252.735 245.977 252.127 246.15C251.834 246.244 251.533 246.314 251.227 246.36C251.098 246.382 250.967 246.382 250.837 246.36C250.777 246.36 250.71 246.285 250.612 246.18C250.274 245.668 249.995 245.12 249.78 244.545C249.54 243.96 249.33 243.36 249.12 242.76C248.692 241.552 248.317 240.322 247.95 239.1L247.005 235.98L247.177 239.227C247.222 240.112 247.26 241.005 247.29 241.897C247.32 242.79 247.327 243.675 247.252 244.537C247.236 244.745 247.204 244.95 247.155 245.152C247.137 245.218 247.112 245.28 247.08 245.34C247.14 245.34 247.08 245.34 247.042 245.302C246.714 245.053 246.435 244.745 246.217 244.395C245.685 243.622 245.257 242.827 244.822 242.047Z" fill="#263238"/>
<path d="M247.68 239.767C248.752 239.91 254.295 238.05 254.002 236.67C253.5 234.307 243.735 232.567 242.467 234.075C241.635 235.057 246.307 239.587 247.68 239.767Z" fill="#263238"/>
<path d="M279.405 252.75C279.465 252.75 279.442 252.637 279.405 252.645C278.452 252.787 277.5 252.967 276.555 253.155C275.61 253.342 274.575 253.455 273.555 253.59C271.597 253.867 269.655 254.22 267.69 254.46C267.678 254.464 267.669 254.472 267.662 254.482C267.655 254.492 267.651 254.504 267.651 254.516C267.651 254.528 267.655 254.54 267.662 254.55C267.669 254.561 267.678 254.568 267.69 254.572C269.621 254.894 271.597 254.828 273.502 254.377C274.515 254.317 275.52 254.242 276.502 254.145C276.592 254.145 276.577 253.995 276.502 254.002C275.752 254.047 275.04 254.107 274.305 254.167C275.017 253.972 275.73 253.762 276.442 253.575C277.44 253.35 278.43 253.087 279.405 252.75Z" fill="#263238"/>
<path d="M291.495 217.245C295.327 220.155 301.74 226.545 304.447 232.027C306.952 237.097 310.275 245.865 303.405 248.962C296.04 252.292 289.41 247.215 287.4 239.887C285.39 232.56 285.48 223.14 285.48 223.14" fill="#DDAF89"/>
<path d="M302.797 249.112C299.122 251.167 294.502 249.442 291.847 246.54C288.772 243.187 287.595 238.477 286.747 234.135C286.215 231.222 285.862 228.279 285.69 225.322C285.684 225.298 285.67 225.277 285.65 225.262C285.63 225.247 285.606 225.239 285.581 225.239C285.556 225.239 285.532 225.247 285.513 225.262C285.493 225.277 285.479 225.298 285.472 225.322C285.342 226.819 285.32 228.323 285.405 229.822C285.307 229.575 285.21 229.335 285.127 229.072C284.836 228.275 284.6 227.458 284.422 226.627C284.422 226.627 284.355 226.627 284.362 226.627C284.409 227.487 284.547 228.34 284.775 229.17C284.882 229.586 285.025 229.993 285.202 230.385C285.282 230.558 285.372 230.726 285.472 230.887C285.547 231.795 285.637 232.71 285.757 233.617C286.08 236.153 286.671 238.647 287.52 241.057C288.257 243.242 289.417 245.26 290.932 246.997C292.376 248.591 294.261 249.718 296.347 250.237C297.442 250.534 298.588 250.592 299.707 250.408C300.826 250.225 301.893 249.803 302.835 249.172C302.836 249.16 302.833 249.147 302.826 249.136C302.819 249.126 302.809 249.117 302.797 249.112Z" fill="#263238"/>
<path d="M272.88 287.535C273.27 290.445 274.575 333.03 274.56 333.615C274.545 334.2 270.877 335.452 270.12 336.66C269.362 337.867 268.537 339.975 268.98 340.56C269.422 341.145 273.66 342.27 274.935 342.517C276.21 342.765 282.637 341.385 283.62 340.935C284.602 340.485 285.24 336.435 285.375 335.94C285.51 335.445 293.625 305.055 293.542 302.362C293.46 299.67 272.88 287.535 272.88 287.535Z" fill="#DDAF89"/>
<path d="M273.36 290.895C273.217 288.27 272.955 285.645 272.782 283.02C272.779 283.01 272.772 283.002 272.763 282.996C272.754 282.99 272.744 282.987 272.734 282.987C272.723 282.987 272.713 282.99 272.704 282.996C272.696 283.002 272.689 283.01 272.685 283.02C272.685 284.782 272.64 286.552 272.685 288.315C272.595 287.94 272.505 287.565 272.422 287.175C272.227 286.2 272.07 285.21 271.965 284.22H271.897C271.899 285.226 271.987 286.229 272.16 287.22C272.284 287.945 272.465 288.66 272.7 289.357C272.7 289.89 272.7 290.415 272.745 290.947C272.795 293.558 273.046 296.16 273.495 298.732C273.495 298.748 273.501 298.764 273.513 298.775C273.524 298.786 273.539 298.792 273.555 298.792C273.571 298.792 273.586 298.786 273.597 298.775C273.609 298.764 273.615 298.748 273.615 298.732C273.68 296.117 273.595 293.5 273.36 290.895Z" fill="#263238"/>
<path d="M297.532 296.692C297 297.922 296.445 299.152 295.83 300.345C295.612 300.772 295.357 301.192 295.117 301.62C295.695 299.52 296.257 297.42 296.767 295.305C296.767 295.252 296.707 295.23 296.692 295.305C295.447 298.777 294.337 302.295 293.242 305.805C292.695 307.552 292.147 309.3 291.675 311.055C291.125 312.772 290.699 314.527 290.4 316.305C290.4 316.357 290.482 316.387 290.505 316.305C291.23 314.652 291.839 312.95 292.327 311.212C292.89 309.48 293.392 307.717 293.895 305.962C294.21 304.852 294.517 303.75 294.825 302.64C294.975 302.355 295.155 302.07 295.32 301.792C295.65 301.245 295.957 300.675 296.25 300.105C296.811 299.009 297.271 297.865 297.622 296.685C297.645 296.662 297.562 296.64 297.532 296.692Z" fill="#263238"/>
<path d="M272.077 336.533C271.651 336.709 271.252 336.947 270.892 337.238C270.546 337.581 270.267 337.985 270.067 338.43C269.854 338.919 269.727 339.442 269.692 339.975C269.617 340.426 269.699 340.89 269.925 341.288C269.985 341.363 270.127 341.288 270.097 341.205C269.97 340.793 270.57 339.045 270.735 338.633C270.873 338.269 271.052 337.921 271.267 337.598C271.473 337.211 271.769 336.879 272.13 336.63C272.19 336.6 272.137 336.503 272.077 336.533Z" fill="#263238"/>
<path d="M275.587 337.357C275.103 337.54 274.648 337.792 274.237 338.107C273.839 338.445 273.515 338.861 273.285 339.33C272.842 340.215 272.655 341.475 273.345 342.292C273.348 342.299 273.352 342.305 273.357 342.309C273.362 342.314 273.369 342.318 273.375 342.32C273.382 342.323 273.389 342.324 273.396 342.324C273.403 342.323 273.41 342.322 273.416 342.319C273.423 342.316 273.428 342.312 273.433 342.306C273.438 342.301 273.442 342.295 273.444 342.289C273.447 342.282 273.448 342.275 273.447 342.268C273.447 342.261 273.445 342.254 273.442 342.247C273.308 341.774 273.308 341.273 273.442 340.8C273.534 340.363 273.675 339.938 273.862 339.532C274.053 339.138 274.289 338.768 274.567 338.43C274.856 338.042 275.221 337.718 275.64 337.477C275.707 337.425 275.655 337.327 275.587 337.357Z" fill="#263238"/>
<path opacity="0.1" d="M283.147 324.322C283.143 324.273 283.123 324.227 283.089 324.191C283.055 324.155 283.01 324.132 282.961 324.125C282.913 324.118 282.863 324.128 282.82 324.153C282.778 324.178 282.745 324.216 282.727 324.262C282.525 324.898 282.181 325.48 281.722 325.965C281.985 323.677 282.052 321.307 280.972 319.215C280.967 319.2 280.955 319.188 280.94 319.182C280.925 319.175 280.909 319.175 280.894 319.181C280.879 319.187 280.867 319.199 280.861 319.214C280.854 319.228 280.854 319.245 280.86 319.26C281.677 321.705 281.257 324.337 280.86 326.827C280.85 326.9 280.862 326.974 280.894 327.04C280.926 327.106 280.977 327.162 281.04 327.199C281.103 327.237 281.176 327.255 281.249 327.251C281.322 327.248 281.393 327.223 281.452 327.18C282.017 326.822 282.475 326.32 282.78 325.725C282.825 326.625 282.877 327.525 282.99 328.41C282.99 328.552 283.245 328.567 283.252 328.41C283.29 327.052 283.2 325.68 283.147 324.322Z" fill="#333333"/>
<path d="M320.505 308.715C318.037 304.598 300.382 291.203 293.602 295.253C286.822 299.303 283.927 319.155 297.172 334.14C297.172 334.14 290.602 335.093 289.282 335.843C287.962 336.593 286.282 339.405 286.8 340.178C287.317 340.95 292.417 342.495 293.73 342.645C295.042 342.795 311.085 340.478 312.292 340.005C313.5 339.533 312.082 337.838 312.082 337.838C312.082 337.838 324.082 338.16 327.382 335.468C330.682 332.775 324.285 315 320.505 308.715Z" fill="#DDAF89"/>
<path d="M290.46 336.435C290.033 336.612 289.634 336.85 289.275 337.14C288.928 337.479 288.651 337.881 288.457 338.325C288.236 338.814 288.109 339.341 288.082 339.878C288.007 340.329 288.089 340.792 288.315 341.19C288.33 341.203 288.349 341.211 288.369 341.214C288.389 341.216 288.41 341.213 288.428 341.204C288.446 341.196 288.461 341.182 288.472 341.165C288.482 341.148 288.488 341.128 288.487 341.108C288.352 340.688 288.952 338.948 289.125 338.535C289.262 338.168 289.44 337.818 289.657 337.493C289.865 337.111 290.158 336.783 290.512 336.533C290.519 336.529 290.525 336.524 290.529 336.519C290.534 336.513 290.537 336.507 290.539 336.5C290.541 336.493 290.542 336.485 290.541 336.478C290.541 336.471 290.538 336.464 290.535 336.458C290.532 336.451 290.527 336.445 290.521 336.441C290.516 336.436 290.509 336.433 290.502 336.431C290.495 336.429 290.488 336.428 290.481 336.429C290.473 336.429 290.466 336.432 290.46 336.435Z" fill="#263238"/>
<path d="M293.977 337.252C293.492 337.433 293.037 337.686 292.627 338.002C292.223 338.336 291.896 338.753 291.667 339.225C291.232 340.11 291.045 341.37 291.735 342.225C291.735 342.225 291.847 342.225 291.825 342.172C291.694 341.701 291.694 341.204 291.825 340.732C291.915 340.295 292.056 339.87 292.245 339.465C292.434 339.069 292.668 338.697 292.942 338.355C293.232 337.967 293.6 337.645 294.022 337.41C294.097 337.327 294.045 337.222 293.977 337.252Z" fill="#263238"/>
<path d="M318.33 306.142C316.882 304.484 315.296 302.951 313.59 301.56L313.995 301.74C314.797 302.137 315.592 302.542 316.38 302.97C316.432 302.97 316.5 302.925 316.455 302.88C315.819 302.227 315.052 301.716 314.205 301.38C313.773 301.213 313.333 301.07 312.885 300.952H312.817C310.821 299.399 308.678 298.043 306.42 296.902C302.31 294.817 296.67 292.402 292.71 296.115C290.955 297.757 289.905 300.112 289.162 302.392C288.32 305.015 287.868 307.746 287.82 310.5C287.82 316.018 288.999 321.472 291.277 326.497C292.297 329.047 293.885 331.329 295.92 333.172C296.902 334.016 297.979 334.741 299.13 335.332C300.306 335.899 301.541 336.334 302.812 336.63C302.88 336.63 302.917 336.532 302.85 336.517C300.709 335.847 298.734 334.733 297.052 333.247C295.28 331.745 293.829 329.901 292.785 327.825C291.623 325.449 290.699 322.965 290.025 320.407C289.319 317.909 288.884 315.342 288.727 312.75C288.558 310.071 288.77 307.382 289.357 304.762C289.835 302.35 290.786 300.056 292.155 298.012C292.763 297.079 293.598 296.314 294.582 295.789C295.565 295.265 296.665 294.998 297.78 295.012C300.202 295.072 302.55 296.1 304.74 297.067C309.735 299.304 314.303 302.393 318.24 306.195C318.3 306.292 318.39 306.202 318.33 306.142Z" fill="#263238"/>
<path d="M311.362 335.67C311.39 335.292 311.357 334.912 311.265 334.545C311.144 334.069 310.981 333.605 310.777 333.157C310.777 333.105 310.672 333.157 310.687 333.202C310.82 333.666 310.925 334.137 311.002 334.612C311.002 334.785 311.055 334.95 311.085 335.115C311.085 335.055 311.032 334.995 311.002 334.942C310.485 333.997 309.937 333.067 309.375 332.152C309.375 332.152 309.3 332.152 309.315 332.152C309.727 333.157 310.132 334.17 310.567 335.152C310.777 335.64 311.01 336.12 311.257 336.6C311.428 337.034 311.698 337.421 312.045 337.732C312.054 337.738 312.065 337.741 312.075 337.741C312.086 337.74 312.096 337.738 312.105 337.732C312.114 337.727 312.122 337.719 312.127 337.71C312.132 337.701 312.135 337.691 312.135 337.68C312.097 337.201 311.951 336.737 311.707 336.322C311.595 336.127 311.475 335.902 311.362 335.67Z" fill="#263238"/>
<path opacity="0.1" d="M320.347 311.857C319.31 311.691 318.301 311.383 317.347 310.942C316.418 310.415 315.599 309.715 314.932 308.88C314.88 308.827 314.805 308.88 314.85 308.97C315.495 309.864 316.268 310.657 317.145 311.325C317.703 311.684 318.302 311.973 318.93 312.187C318.643 312.244 318.352 312.274 318.06 312.277C317.77 312.31 317.476 312.27 317.206 312.161C316.935 312.053 316.695 311.879 316.507 311.655C316.44 311.542 316.237 311.655 316.29 311.752C316.731 312.969 317.542 314.018 318.607 314.752C318.209 314.744 317.814 314.673 317.437 314.542C317.332 314.542 317.272 314.662 317.37 314.715C318.089 315.111 318.905 315.295 319.725 315.247C319.796 315.241 319.862 315.213 319.916 315.167C319.97 315.121 320.008 315.059 320.024 314.99C320.041 314.921 320.035 314.849 320.009 314.784C319.982 314.718 319.935 314.662 319.875 314.625C319.211 314.265 318.577 313.854 317.977 313.395C317.709 313.164 317.458 312.914 317.227 312.645C318.249 312.996 319.364 312.962 320.362 312.547C320.433 312.52 320.493 312.472 320.534 312.409C320.576 312.346 320.598 312.272 320.596 312.197C320.594 312.122 320.57 312.049 320.525 311.988C320.481 311.927 320.419 311.882 320.347 311.857Z" fill="#333333"/>
<path fill-rule="evenodd" clip-rule="evenodd" d="M221.895 69.0837C211.512 69.6475 202.02 73.0152 194.148 78.9282C191.709 80.7602 187.898 84.6757 186.088 87.2087C176.821 100.179 178.301 116.503 189.788 128.031C191.172 129.419 192.746 130.912 193.285 131.348L194.265 132.141L192.811 134.195C189.605 138.726 186.364 141.482 182.888 142.634C179.712 143.687 178.991 146.854 181.552 148.497C182.359 149.014 183.615 149.111 186.593 148.886C195.358 148.224 204.088 145.901 212.233 142.063C214.317 141.081 214.745 140.946 215.353 141.076C217.322 141.5 221.675 141.847 225.021 141.847C240.93 141.848 255.277 135.254 263.641 124.096C265.486 121.636 267.748 117.307 268.565 114.672C272.118 103.224 269.008 91.6434 259.946 82.5824C257.354 79.9911 255.366 78.4008 252.354 76.5107C243.772 71.1256 232.938 68.4837 221.895 69.0837Z" fill="#78BF9B"/>
<path d="M194.749 79.7278L194.749 79.7277C202.453 73.9406 211.753 70.6359 221.95 70.0822L221.895 69.0837L221.95 70.0822C232.806 69.4924 243.432 72.0925 251.822 77.3577C254.769 79.2068 256.699 80.7497 259.239 83.2896C268.061 92.1105 271.044 103.311 267.61 114.376C266.83 116.889 264.625 121.117 262.841 123.496C254.695 134.364 240.666 140.848 225.022 140.847C221.706 140.847 217.433 140.501 215.563 140.099C215.072 139.993 214.636 140.012 214.045 140.199C213.525 140.363 212.834 140.674 211.807 141.158C203.769 144.946 195.158 147.236 186.518 147.889C185.037 148.001 184.042 148.027 183.335 147.973C182.639 147.919 182.305 147.792 182.092 147.655C181.122 147.033 180.891 146.235 181.044 145.566C181.206 144.853 181.868 144.026 183.203 143.583C186.962 142.338 190.358 139.393 193.627 134.773L195.082 132.718L195.623 131.953L194.894 131.363L193.914 130.57L193.914 130.57C193.422 130.173 191.885 128.718 190.497 127.325L189.788 128.031L190.497 127.325C179.343 116.132 177.927 100.351 186.902 87.7901L186.902 87.79C188.653 85.3385 192.393 81.4971 194.749 79.7278Z" stroke="#333333" stroke-width="2"/>
<path fill-rule="evenodd" clip-rule="evenodd" d="M229.535 150.054C236.342 150.421 242.564 152.61 247.725 156.453C249.324 157.644 251.823 160.189 253.009 161.836C259.084 170.267 258.114 180.877 250.583 188.37C249.676 189.273 248.644 190.243 248.291 190.526L247.648 191.041L248.602 192.377C250.703 195.322 252.828 197.113 255.106 197.862C257.189 198.547 257.662 200.605 255.983 201.673C255.454 202.009 254.63 202.072 252.678 201.926C246.932 201.496 241.209 199.986 235.869 197.491C234.503 196.853 234.223 196.765 233.824 196.85C232.533 197.125 229.68 197.35 227.486 197.35C217.057 197.351 207.652 193.065 202.168 185.812C200.959 184.213 199.477 181.399 198.941 179.687C196.611 172.245 198.65 164.718 204.591 158.829C206.29 157.144 207.594 156.111 209.568 154.882C215.194 151.382 222.296 149.664 229.535 150.054Z" fill="#F6E06A"/>
<path d="M229.495 150.803L229.495 150.803C222.394 150.421 215.447 152.107 209.964 155.519C208.039 156.717 206.779 157.715 205.119 159.361L204.591 158.829L205.119 159.361C199.359 165.071 197.418 172.312 199.656 179.463C200.164 181.084 201.604 183.822 202.767 185.36C208.086 192.396 217.252 196.601 227.486 196.6C229.657 196.6 232.451 196.376 233.668 196.116L233.668 196.116C234.007 196.044 234.308 196.058 234.708 196.183C235.056 196.292 235.515 196.497 236.187 196.811C241.446 199.269 247.081 200.755 252.734 201.178C253.704 201.251 254.35 201.267 254.807 201.232C255.255 201.198 255.458 201.118 255.58 201.04C256.187 200.654 256.313 200.176 256.224 199.792C256.127 199.371 255.725 198.855 254.872 198.575C252.383 197.756 250.141 195.825 247.991 192.813L247.038 191.477L246.626 190.9L247.179 190.456L247.822 189.941L247.822 189.941C248.139 189.687 249.143 188.744 250.054 187.838L250.583 188.37L250.054 187.838C257.333 180.597 258.253 170.396 252.4 162.274L252.4 162.274C251.258 160.689 248.813 158.199 247.277 157.055L247.277 157.055C242.242 153.305 236.163 151.162 229.495 150.803Z" stroke="#333333" stroke-width="1.5"/>
<path d="M198.153 113.199C199.102 113.199 199.665 112.625 199.665 111.629V105.664H207.891V111.629C207.891 112.625 208.454 113.199 209.391 113.199C210.34 113.199 210.903 112.625 210.903 111.629V97.4609C210.903 96.4648 210.34 95.8906 209.391 95.8906C208.454 95.8906 207.891 96.4648 207.891 97.4609V103.121H199.665V97.4609C199.665 96.4648 199.102 95.8906 198.153 95.8906C197.215 95.8906 196.641 96.4648 196.641 97.4609V111.629C196.641 112.625 197.215 113.199 198.153 113.199ZM218.71 113.246C221.077 113.246 222.928 112.32 223.749 110.738C223.878 110.48 223.948 110.223 223.948 110C223.948 109.297 223.432 108.875 222.776 108.875C222.366 108.875 222.096 109.004 221.792 109.344C220.854 110.539 219.999 110.996 218.686 110.996C216.788 110.996 215.581 109.66 215.581 107.586V107.492H222.905C223.772 107.492 224.264 106.977 224.264 106.109C224.264 102.734 221.944 100.32 218.546 100.32C214.96 100.32 212.674 102.875 212.674 106.836C212.674 110.867 214.913 113.246 218.71 113.246ZM215.604 105.57C215.721 103.789 216.917 102.582 218.557 102.582C220.198 102.582 221.346 103.766 221.405 105.57H215.604ZM227.29 113.234C228.145 113.234 228.743 112.684 228.743 111.699V97.3906C228.743 96.4062 228.145 95.8555 227.29 95.8555C226.434 95.8555 225.825 96.4062 225.825 97.3906V111.699C225.825 112.684 226.434 113.234 227.29 113.234ZM232.366 113.234C233.222 113.234 233.819 112.684 233.819 111.699V97.3906C233.819 96.4062 233.222 95.8555 232.366 95.8555C231.511 95.8555 230.901 96.4062 230.901 97.3906V111.699C230.901 112.684 231.511 113.234 232.366 113.234ZM241.392 113.246C245.036 113.246 247.404 110.82 247.404 106.789C247.404 102.77 245.013 100.32 241.392 100.32C237.771 100.32 235.38 102.781 235.38 106.789C235.38 110.82 237.747 113.246 241.392 113.246ZM241.392 110.938C239.54 110.938 238.345 109.438 238.345 106.789C238.345 104.152 239.552 102.641 241.392 102.641C243.243 102.641 244.439 104.152 244.439 106.789C244.439 109.438 243.243 110.938 241.392 110.938ZM251.25 107.586C252.082 107.586 252.539 107.07 252.562 106.215L252.714 97.5547C252.714 97.4727 252.726 97.3906 252.726 97.332C252.726 96.418 252.14 95.8555 251.261 95.8555C250.382 95.8555 249.785 96.418 249.785 97.332C249.785 97.3906 249.796 97.4727 249.796 97.5547L249.949 106.215C249.972 107.07 250.417 107.586 251.25 107.586ZM251.25 113.234C252.21 113.234 252.96 112.496 252.96 111.57C252.96 110.645 252.21 109.918 251.25 109.918C250.3 109.918 249.55 110.645 249.55 111.57C249.55 112.496 250.3 113.234 251.25 113.234Z" fill="#333333"/>
<path d="M209.903 180.141C210.575 180.141 210.957 179.826 211.156 179.079L213.373 171.334H213.456L215.672 179.079C215.879 179.834 216.245 180.141 216.934 180.141C217.589 180.141 217.955 179.817 218.154 179.079L220.818 169.524C220.893 169.25 220.926 169.026 220.926 168.844C220.926 168.254 220.511 167.881 219.872 167.881C219.316 167.881 218.967 168.18 218.835 168.777L216.834 177.095H216.768L214.568 168.869C214.385 168.196 214.028 167.881 213.422 167.881C212.792 167.881 212.443 168.18 212.26 168.894L210.061 177.095H209.994L207.994 168.777C207.861 168.188 207.512 167.881 206.956 167.881C206.317 167.881 205.902 168.254 205.902 168.844C205.902 169.035 205.935 169.259 206.01 169.524L208.666 179.07C208.874 179.817 209.239 180.141 209.903 180.141ZM224.86 180.174C227.441 180.174 229.118 178.456 229.118 175.601C229.118 172.753 227.425 171.019 224.86 171.019C222.295 171.019 220.601 172.762 220.601 175.601C220.601 178.456 222.278 180.174 224.86 180.174ZM224.86 178.539C223.548 178.539 222.701 177.477 222.701 175.601C222.701 173.733 223.556 172.662 224.86 172.662C226.171 172.662 227.018 173.733 227.018 175.601C227.018 177.477 226.171 178.539 224.86 178.539ZM233.931 180.174C236.513 180.174 238.189 178.456 238.189 175.601C238.189 172.753 236.496 171.019 233.931 171.019C231.366 171.019 229.673 172.762 229.673 175.601C229.673 178.456 231.35 180.174 233.931 180.174ZM233.931 178.539C232.62 178.539 231.773 177.477 231.773 175.601C231.773 173.733 232.628 172.662 233.931 172.662C235.243 172.662 236.089 173.733 236.089 175.601C236.089 177.477 235.243 178.539 233.931 178.539ZM240.72 180.166C241.334 180.166 241.749 179.784 241.749 179.087V172.795H242.828C243.285 172.795 243.617 172.513 243.617 172.006C243.617 171.525 243.285 171.226 242.828 171.226H241.716V170.537C241.716 169.798 242.023 169.466 242.779 169.45C242.961 169.441 243.102 169.425 243.235 169.392C243.542 169.3 243.692 169.109 243.692 168.794C243.692 168.279 243.202 167.931 242.106 167.931C240.521 167.939 239.682 168.728 239.682 170.446V171.226H239.134C238.67 171.226 238.338 171.525 238.338 172.006C238.338 172.513 238.67 172.795 239.134 172.795H239.682V179.087C239.682 179.784 240.097 180.166 240.72 180.166ZM246.114 176.165C246.704 176.165 247.027 175.8 247.044 175.194L247.152 169.06C247.152 169.001 247.16 168.943 247.16 168.902C247.16 168.254 246.745 167.856 246.122 167.856C245.5 167.856 245.077 168.254 245.077 168.902C245.077 168.943 245.085 169.001 245.085 169.06L245.193 175.194C245.209 175.8 245.525 176.165 246.114 176.165ZM246.114 180.166C246.795 180.166 247.326 179.643 247.326 178.987C247.326 178.332 246.795 177.817 246.114 177.817C245.442 177.817 244.911 178.332 244.911 178.987C244.911 179.643 245.442 180.166 246.114 180.166Z" fill="#333333"/>
</svg>
