<svg width="26" height="25" viewBox="0 0 26 25" fill="none" xmlns="http://www.w3.org/2000/svg">
<path fill-rule="evenodd" clip-rule="evenodd" d="M8.74343 4.77689C7.81943 5.0382 7.36922 5.59915 7.83579 5.90777C7.97803 6.00183 8.13563 5.97515 8.29856 5.82941C8.64307 5.52125 9.33511 5.36191 9.90249 5.46013C10.2689 5.52356 10.6083 5.66565 10.7895 5.83151C10.9559 5.98377 11.1325 6.00296 11.2811 5.88498C11.6515 5.59089 11.3508 5.15443 10.5661 4.84745C10.1933 4.70161 9.1522 4.66133 8.74343 4.77689ZM15.6572 4.77689C14.7332 5.0382 14.283 5.59915 14.7495 5.90777C14.8918 6.00183 15.0494 5.97515 15.2123 5.82941C15.5568 5.52125 16.2488 5.36191 16.8162 5.46013C17.1827 5.52356 17.522 5.66565 17.7033 5.83151C17.8697 5.98377 18.0463 6.00296 18.1949 5.88498C18.5652 5.59089 18.2645 5.15443 17.4798 4.84745C17.1071 4.70161 16.0659 4.66133 15.6572 4.77689ZM8.7815 7.89913C8.21087 8.03353 7.77688 8.37833 7.83971 8.64723C7.87758 8.80929 8.04407 8.95985 8.18534 8.95985C8.24274 8.95985 8.40552 8.88477 8.54715 8.79307C8.78892 8.63645 8.83249 8.62629 9.26328 8.62629C9.6506 8.62629 9.74968 8.6441 9.8999 8.74068C9.99776 8.80359 10.1302 8.88277 10.1942 8.91664C10.4633 9.05889 10.7853 8.7436 10.6652 8.45566C10.4859 8.02614 9.49057 7.73204 8.7815 7.89913ZM16.2544 7.89913C15.79 8.00854 15.3876 8.26394 15.3148 8.49543C15.2679 8.64456 15.3933 8.87246 15.5535 8.92937C15.6986 8.98084 15.7627 8.95883 16.1019 8.74068C16.2521 8.6441 16.3512 8.62629 16.7385 8.62629C17.1693 8.62629 17.2129 8.63645 17.4547 8.79307C17.5963 8.88477 17.7591 8.95985 17.8165 8.95985C17.9611 8.95985 18.1245 8.80805 18.1648 8.63635C18.1939 8.51257 18.1672 8.46208 17.9745 8.27559C17.6062 7.9194 16.8608 7.75626 16.2544 7.89913ZM13.7514 10.1956C14.3798 10.2663 14.559 10.3412 14.6549 10.5728C14.7503 10.8034 14.7503 11.2218 14.6548 11.4524C14.5639 11.6721 14.2667 11.8183 13.5103 12.0154L13.0006 12.1483L12.5972 12.0427C11.4375 11.7393 11.2725 11.6109 11.2725 11.0125C11.2725 10.6451 11.3825 10.4094 11.5962 10.3193C11.9636 10.1643 12.9636 10.1069 13.7514 10.1956Z" fill="#53A77D"/>
<path d="M12.6451 15.5628L12.4862 15.5307C11.9075 15.4139 11.1528 15.6004 10.7462 15.9607C10.396 16.2711 10.4083 16.1711 10.4083 18.719V21.0207L10.5396 21.2869C10.8803 21.9771 11.9152 22.4778 13.0009 22.4778C14.0866 22.4778 15.1215 21.9771 15.4622 21.2869L15.5936 21.0207V18.719C15.5936 16.1504 15.6089 16.2675 15.2304 15.9404C14.8563 15.6173 14.1491 15.4363 13.5905 15.5209L13.3568 15.5563C13.0752 15.6431 12.9158 15.6491 12.6451 15.5628Z" fill="#53A77D"/>
<path d="M12.7467 19.7066C12.6485 19.6075 12.645 19.5356 12.645 17.5834C12.7015 17.5264 12.5664 17.0219 13 17.0218C13.4336 17.0216 13.3002 17.5231 13.3567 17.5801C13.3567 19.5356 13.3533 19.6075 13.2551 19.7066C13.1986 19.7637 13.0856 19.8093 13.0009 19.8093C12.9161 19.8093 12.8032 19.7637 12.7467 19.7066Z" fill="#53A77D"/>
<path d="M6.42755 0.7638C6.33818 0.778734 5.62739 1.15104 4.84797 1.59113C4.15817 1.98062 3.75689 2.20083 3.50525 2.30634L1.9321 3.24262C0.714419 3.9294 0.475031 4.8704 1.09127 6.54795C1.63511 8.02855 2.51224 9.17713 3.26843 9.39903C3.52546 9.47446 3.55515 9.47344 3.75971 9.38168C4.76134 8.93256 6.22243 5.87585 7.07475 2.44633C7.34214 1.37047 7.33772 1.23612 7.02599 0.959832C6.82148 0.77858 6.65845 0.725159 6.42755 0.7638Z" fill="#53A77D"/>
<path d="M4.33315 10.6277C4.26386 11.183 4.25003 11.5518 4.27235 12.2521C4.29433 12.9474 4.40058 13.2839 4.79205 14.1821C4.82072 14.2029 5.01862 14.4854 5.23193 14.81C6.15334 16.2122 7.62073 17.7022 9.08151 18.719C9.35831 18.9117 9.59846 19.0693 9.61524 19.0693C9.63196 19.0693 9.64569 18.8183 9.64569 18.5116C9.64569 17.5382 9.45953 16.7712 9.00998 15.8925C8.80135 15.4848 8.73363 15.4004 8.45322 15.1984C7.71213 14.6646 7.09213 13.7025 6.67156 12.4338C6.45449 11.779 6.44727 11.6214 6.62779 11.4781C6.93454 11.2345 7.13392 11.4107 7.34987 12.1159C7.65001 13.0959 8.08115 13.8505 8.64533 14.3832C9.01079 14.7284 9.30458 14.8675 9.88192 14.969C10.4524 15.0693 11.6334 14.9705 12.4544 14.7538L12.645 14.7034V13.7623V12.8211L12.3019 12.737C11.7269 12.5962 11.115 12.3384 10.9424 12.1641C10.3833 11.5997 10.384 10.4247 10.9438 9.8595C11.1068 9.69497 11.4562 9.55606 11.9176 9.47236C12.0521 9.44793 12.6082 9.43572 13.1534 9.44521C14.4997 9.46856 14.9111 9.58721 15.2061 10.0373C15.3554 10.2651 15.4919 10.7307 15.4919 11.0125C15.4919 11.309 15.3502 11.7736 15.1865 12.0137C15.0016 12.2849 14.6291 12.4764 13.875 12.6876L13.3567 12.8329V13.7667C13.3567 14.6115 13.3652 14.703 13.4457 14.7274C13.8096 14.8378 14.701 14.9778 15.1893 15.0012C16.2316 15.0513 16.8296 14.8808 17.3564 14.3832C17.9206 13.8505 18.3518 13.0959 18.6519 12.1159C18.8678 11.4107 19.0672 11.2345 19.374 11.4781C19.5545 11.6214 19.5473 11.779 19.3302 12.4338C18.9096 13.7025 18.2896 14.6646 17.5485 15.1984C17.2681 15.4004 17.2004 15.4848 16.9918 15.8925C16.8611 16.1479 16.6983 16.5226 16.6298 16.7252C16.4318 17.3112 16.3758 17.6244 16.3607 19C16.6964 18.8376 16.8825 18.7368 17.208 18.5309C17.3383 18.4155 17.5232 18.265 17.7834 18.0584C19.5953 16.6197 21.2851 14.4013 21.6419 12.9929C21.772 12.4792 21.7799 11.5229 21.6618 10.5763L21.5786 9.90922L21.2498 9.55637C20.3943 8.63805 19.5318 6.9044 18.7719 4.57517C18.5964 4.03732 18.4022 3.40093 18.3405 3.16103L18.2282 2.72483L17.9149 2.53819C16.745 1.84136 15.1765 1.61274 13.5855 1.9072C13.3339 1.95379 13.0708 1.99187 13.0009 1.99187C12.931 1.99187 12.6679 1.95379 12.4163 1.9072C10.8253 1.61274 9.25679 1.84136 8.0869 2.53819L7.77359 2.72483L7.66129 3.16103C7.59953 3.40093 7.40539 4.03732 7.2299 4.57517C6.46979 6.90486 5.60715 8.63887 4.75173 9.55637L4.42277 9.90922L4.33315 10.6277Z" fill="#53A77D"/>
<path d="M23.5695 2.95576C23.1392 2.71585 22.7471 2.47913 22.698 2.42976L21.6335 1.77547C21.5324 1.77547 21.1783 1.60514 20.6096 1.28292C19.5124 0.66132 19.3491 0.628991 18.9758 0.959832C18.664 1.23612 18.6596 1.37047 18.927 2.44633C19.7793 5.87585 21.2404 8.93256 22.242 9.38168C22.4466 9.47344 22.4763 9.47446 22.7333 9.39903C23.4895 9.17713 24.3666 8.02855 24.9105 6.54795C25.296 5.49857 25.3422 4.85003 25.0743 4.24756C24.8703 3.78848 24.5131 3.48191 23.5695 2.95576Z" fill="#53A77D"/>
<path d="M7.83582 5.90781C7.36924 5.59919 7.81945 5.03824 8.74345 4.77694C9.15222 4.66137 10.1933 4.70165 10.5661 4.8475C11.3508 5.15447 11.6515 5.59093 11.2811 5.88503C11.1325 6.003 10.9559 5.98381 10.7896 5.83155C10.6083 5.6657 10.2689 5.5236 9.90251 5.46017C9.33513 5.36195 8.6431 5.52129 8.29858 5.82945C8.13565 5.97519 7.97806 6.00187 7.83582 5.90781Z" fill="white"/>
<path d="M14.7495 5.90781C14.283 5.59919 14.7332 5.03824 15.6572 4.77694C16.066 4.66137 17.1071 4.70165 17.4799 4.8475C18.2645 5.15447 18.5653 5.59093 18.1949 5.88503C18.0463 6.003 17.8697 5.98381 17.7033 5.83155C17.5221 5.6657 17.1827 5.5236 16.8162 5.46017C16.2489 5.36195 15.5568 5.52129 15.2123 5.82945C15.0494 5.97519 14.8918 6.00187 14.7495 5.90781Z" fill="white"/>
<path d="M7.83973 8.64727C7.7769 8.37837 8.21089 8.03357 8.78152 7.89917C9.49059 7.73208 10.486 8.02618 10.6652 8.4557C10.7853 8.74364 10.4633 9.05894 10.1943 8.91668C10.1303 8.88281 9.99778 8.80363 9.89992 8.74072C9.7497 8.64414 9.65062 8.62633 9.2633 8.62633C8.83251 8.62633 8.78895 8.63649 8.54717 8.79311C8.40554 8.88482 8.24276 8.95989 8.18537 8.95989C8.04409 8.95989 7.8776 8.80933 7.83973 8.64727Z" fill="white"/>
<path d="M15.3148 8.49547C15.3876 8.26398 15.79 8.00858 16.2545 7.89917C16.8608 7.7563 17.6062 7.91944 17.9745 8.27563C18.1673 8.46212 18.1939 8.51261 18.1648 8.63639C18.1245 8.8081 17.9611 8.95989 17.8165 8.95989C17.7591 8.95989 17.5963 8.88482 17.4547 8.79311C17.2129 8.63649 17.1694 8.62633 16.7386 8.62633C16.3512 8.62633 16.2522 8.64414 16.1019 8.74072C15.7627 8.95887 15.6986 8.98088 15.5535 8.92941C15.3933 8.8725 15.2679 8.6446 15.3148 8.49547Z" fill="white"/>
</svg>
