<svg width="23" height="26" viewBox="0 0 23 26" fill="none" xmlns="http://www.w3.org/2000/svg">
<path d="M1.35873 3.01324C1.79672 2.85774 2.20102 2.66844 2.2684 2.60759L5.70492 1.42445C6.29789 1.20811 6.94477 0.984999 7.05258 0.984999C7.23451 0.978237 8.26547 1.56643 8.26547 1.66108C8.26547 1.68812 7.94877 1.84362 7.7601 1.93151C7.57817 2.0194 7.40971 2.1749 7.3558 2.23575C7.29516 2.30336 7.22777 2.61436 7.11996 3.04705C6.61459 5.06853 5.54994 7.13734 4.25619 8.72613C3.71713 9.39545 2.69965 10.3082 2.60531 10.2811C2.56488 10.2676 2.03256 8.73289 1.45981 6.96832C0.617521 4.37217 0.334514 3.69608 0.381682 3.55411C0.435588 3.40537 0.678167 3.26339 1.35873 3.01324Z" fill="#53A77D"/>
<path d="M15.2732 1.28925C15.0778 1.40418 14.7341 1.63405 14.7341 1.66109C14.7341 1.68138 15.0171 1.87744 15.2058 1.96533C15.3877 2.05322 15.5562 2.14111 15.6101 2.20196C15.6708 2.26957 15.8055 2.61437 15.9133 3.04706C16.4187 5.05502 17.3755 7.06975 18.6423 8.62473C18.8714 8.90193 20.3 10.4164 20.3269 10.4164C20.3539 10.4164 21.1355 8.53008 21.6072 7.06975C22.2473 5.09559 22.5438 4.32486 22.5168 4.1626C22.4697 3.87864 22.8133 3.39862 22.5842 3.28369C22.3012 3.13495 16.0279 0.985011 15.9133 0.985011C15.8527 0.991773 15.4619 1.16755 15.2732 1.28925Z" fill="#53A77D"/>
<path d="M10.5564 17.5152C10.1521 17.6234 9.7074 17.9073 9.64675 18.0561C9.60632 18.171 11.1966 20.8483 11.3313 20.8956C11.3785 20.9159 11.6143 20.9159 11.6682 20.8956C11.803 20.8415 13.3326 18.1034 13.2854 17.9885C13.1304 17.576 11.4796 17.265 10.5564 17.5152Z" fill="#53A77D"/>
<path d="M10.5564 1.93147C9.94321 2.0126 9.24243 2.21542 8.63599 2.47233L8.0228 2.74276L7.86108 3.24984C7.32876 5.46063 6.14282 7.77283 4.59302 9.5712L4.15503 10.1121L4.6604 13.1882C4.92319 14.8852 5.17925 16.3793 5.19946 16.4808L5.30054 16.8391L5.67114 16.4808C6.02827 16.0345 6.72231 15.372 6.95142 15.2503C7.28833 15.0745 7.52417 15.2165 7.52417 15.6221C7.52417 15.683 7.37593 15.852 7.05249 16.1968C6.37866 16.9067 6.02153 17.4273 5.73853 18.0222C4.98384 19.6313 5.68462 21.9165 7.22095 23.0928C8.02954 23.7148 9.0605 24.0596 9.91626 24.0055C10.2936 23.9853 10.4755 23.9041 10.6575 23.7351C10.9674 23.4444 11.0955 23.0387 11.0955 22.41V21.7745L10.7249 21.4702C10.3475 21.1187 9.03355 18.6983 8.9729 18.2926C8.85161 17.549 9.08745 17.1568 10.051 16.8391C10.5833 16.6633 10.7518 16.6362 11.4998 16.6362C12.2477 16.6362 12.3825 16.6633 12.9148 16.8391C13.8784 17.1568 14.1816 17.5084 14.0603 18.2588C13.9997 18.6645 12.625 21.0443 12.241 21.4026L11.9377 21.7069L11.8367 22.41C11.8367 23.0387 11.9377 23.4512 12.241 23.7351C12.3959 23.8838 12.7261 23.9785 12.9822 24.0055C13.2854 24.0326 13.8582 23.9582 14.3635 23.823C15.5764 23.4985 16.8567 22.0787 17.1262 21.5378C17.3958 20.997 17.7057 19.9355 17.6316 19.442C17.5709 19.0769 17.4631 18.5969 17.261 17.9208L16.3176 16.6971L15.7449 16.163C15.1991 15.6289 15.226 15.6424 15.4753 15.3179C15.664 15.0813 15.7314 15.1556 16.0414 15.3855L16.3176 15.6221L17.699 17.0757C17.7192 16.9743 18.7704 12.0997 19.0466 10.3487L17.699 8.65848L17.261 7.9486C16.6545 7.02236 15.8527 5.4809 15.509 4.43297L15.2058 2.94559L14.532 2.47233C13.0765 1.5799 12.6048 1.90442 11.803 1.86386C11.4189 1.85034 10.8192 1.8909 10.5564 1.93147ZM8.50122 10.0445C8.90552 10.2473 9.18853 10.538 9.44458 10.991C9.71411 11.4575 9.78823 11.5724 9.54565 11.7685C9.18853 12.0524 9.15483 11.9781 8.70337 11.2614C8.43384 10.8422 8.02954 10.6597 7.59155 10.6529C7.34224 10.6529 7.13335 10.6935 6.91772 10.822C6.5269 11.0518 6.35845 11.0518 6.17651 10.822C5.92046 10.4974 6.00806 10.4298 6.41235 10.1797C6.85034 9.90924 7.05923 9.82135 7.65894 9.84164C8.09692 9.8484 8.25864 9.92953 8.50122 10.0445ZM16.385 10.0445C16.9915 10.3622 17.0791 10.4433 16.7556 10.7882C16.5669 10.991 16.4591 11.0045 16.0818 10.7882C15.8662 10.6597 15.6573 10.6191 15.408 10.6191C14.97 10.6259 14.5657 10.8422 14.2961 11.2614C13.8447 11.9781 13.811 12.0524 13.4539 11.7685C12.935 11.3561 13.7908 10.5177 14.6667 9.94305C15.0643 9.78755 16.0077 9.8484 16.385 10.0445Z" fill="#53A77D"/>
<path d="M7.04573 9.80107C6.3719 9.98361 5.90696 10.3893 6.02151 10.7003C6.15627 11.0991 6.48645 11.16 6.95813 10.8828C7.21418 10.7273 7.31526 10.707 7.66565 10.7341C8.14407 10.7679 8.34622 10.8963 8.64944 11.3696C9.06047 11.9916 9.07395 12.0051 9.28284 12.0051C9.49172 12.0051 9.81516 11.7482 9.81516 11.5859C9.81516 11.3831 9.45803 10.7611 9.16155 10.4433C8.79768 10.0512 8.51467 9.88896 8.0093 9.78079C7.57131 9.6929 7.44329 9.6929 7.04573 9.80107Z" fill="white"/>
<path d="M14.8958 9.80107C14.4579 9.90924 14.1479 10.1053 13.7908 10.4907C13.528 10.7814 13.1843 11.3899 13.1843 11.5859C13.1843 11.7482 13.5078 12.0051 13.7167 12.0051C13.9255 12.0051 13.939 11.9916 14.35 11.3696C14.6533 10.8963 14.8554 10.7679 15.3338 10.7341C15.6842 10.707 15.7853 10.7273 16.0414 10.8828C16.5602 11.187 16.978 11.0518 16.978 10.5718C16.978 10.0377 15.7516 9.57796 14.8958 9.80107Z" fill="white"/>
</svg>
