<svg width="66" height="66" viewBox="0 0 66 66" fill="none" xmlns="http://www.w3.org/2000/svg">
<g clip-path="url(#clip0_1591_25060)">
<path d="M26.4479 51.7058C25.1986 51.7058 23.91 51.4172 22.5349 50.8547C21.4266 50.4016 20.8948 49.1332 21.3475 48.0228C21.8002 46.9118 23.0656 46.379 24.1739 46.8331C26.2092 47.6656 28.0607 47.9915 31.7608 44.0708C32.5836 43.199 33.9557 43.1606 34.8258 43.985C35.6955 44.8094 35.7337 46.1843 34.9114 47.0556C31.9335 50.2109 29.2929 51.7058 26.4479 51.7058Z" fill="#495059"/>
<path d="M34.3367 60.2898C32.9354 60.2898 31.748 59.2086 31.6377 57.7848C31.3542 54.134 31.468 51.4081 32.031 48.3769C32.3044 46.9027 33.7194 45.9305 35.1907 46.2044C36.6621 46.4789 37.6329 47.8961 37.359 49.3703C36.8831 51.9358 36.7935 54.1769 37.0412 57.3635C37.1571 58.8589 36.0417 60.1651 34.5497 60.2812C34.4782 60.2872 34.4072 60.2898 34.3367 60.2898Z" fill="#DDAF89"/>
<path d="M46.6851 60.2898C46.6146 60.2898 46.5436 60.2872 46.4721 60.2817C44.9801 60.1651 43.8642 58.8589 43.9806 57.3635C44.2283 54.1774 44.1392 51.9363 43.6623 49.3703C43.3889 47.8961 44.3597 46.4789 45.8311 46.2044C47.3019 45.9305 48.7169 46.9027 48.9908 48.3774C49.5543 51.4086 49.6681 54.1345 49.3841 57.7853C49.2733 59.2086 48.0864 60.2898 46.6851 60.2898Z" fill="#DDAF89"/>
<path d="M26.9954 42.9836C22.0153 42.9836 17.0147 39.909 15.0866 37.0327C14.2522 35.7875 14.5826 34.1004 15.8253 33.2644C17.0675 32.4289 18.7514 32.7599 19.5858 34.0045C20.6155 35.5403 25.0814 38.3909 28.582 37.3334C30.0146 36.9005 31.5268 37.7138 31.9588 39.1497C32.3908 40.5856 31.5791 42.1001 30.1461 42.533C29.1168 42.8438 28.0564 42.9836 26.9954 42.9836Z" fill="#DDAF89"/>
<path d="M49.6231 43.5366C48.1936 43.0936 47.3929 41.573 47.835 40.1401C48.2772 38.7078 49.7948 37.9056 51.2244 38.3485C53.6792 39.1094 58.5409 37.1634 60.6205 35.4803C61.7852 34.5384 63.4912 34.7205 64.4313 35.8864C65.3714 37.0534 65.1901 38.7632 64.026 39.7052C61.7041 41.5841 54.8539 45.1571 49.6231 43.5366Z" fill="#DDAF89"/>
<path d="M55.2749 38.0745C53.7552 38.5038 52.2713 38.6728 51.2244 38.3484C49.7948 37.9054 48.2772 38.7076 47.835 40.14C47.3929 41.5728 48.1936 43.0935 49.6231 43.5365C51.241 44.0374 53.0135 44.0415 54.7593 43.7529C55.1717 42.5032 55.3942 41.1788 55.3942 39.8075C55.3942 39.2207 55.3534 38.6421 55.2749 38.0745Z" fill="#D1A582"/>
<path d="M48.9908 48.3769C48.7169 46.9027 47.3019 45.93 45.8311 46.2044C44.3597 46.4789 43.3889 47.8961 43.6623 49.3703C43.896 50.6261 44.0354 51.8047 44.0893 53.0539C46.0169 52.6164 47.7969 51.8334 49.3478 50.781C49.2602 49.9858 49.1424 49.1927 48.9908 48.3769Z" fill="#D1A582"/>
<path d="M35.1906 46.2044C33.7192 45.9305 32.3043 46.9027 32.0308 48.3774C31.8793 49.1927 31.7614 49.9858 31.6738 50.781C33.2242 51.8339 35.0048 52.6164 36.9323 53.0544C36.9862 51.8046 37.1257 50.6261 37.3588 49.3703C37.6328 47.8961 36.6619 46.4789 35.1906 46.2044Z" fill="#D1A582"/>
<path d="M28.5822 37.3333C27.7076 37.5977 26.7725 37.6179 25.846 37.4756C25.703 38.2334 25.6274 39.0124 25.6274 39.8075C25.6274 40.8867 25.7654 41.9371 26.0252 42.9447C26.348 42.9699 26.6718 42.9835 26.9956 42.9835C28.0565 42.9835 29.117 42.8437 30.1462 42.533C31.5793 42.1001 32.391 40.5855 31.959 39.1496C31.5269 37.7137 30.0148 36.9004 28.5822 37.3333Z" fill="#D1A582"/>
<path d="M53.7222 39.8075C53.7222 33.1962 47.8071 27.8367 40.5112 27.8367C33.2149 27.8367 27.3003 33.1962 27.3003 39.8075C27.3003 46.4188 33.2149 51.7779 40.5112 51.7779C47.8071 51.7779 53.7222 46.4188 53.7222 39.8075Z" fill="#DDAF89"/>
<path d="M52.4425 32.1216C49.2047 34.8132 45.0465 36.4322 40.5111 36.4322C35.9752 36.4322 31.8169 34.8132 28.5791 32.1216C27.8908 33.0151 27.3168 33.9873 26.8817 35.0226C26.289 36.4333 26.8359 38.0679 28.1526 38.8429C31.7791 40.9755 36.0024 42.1995 40.5111 42.1995C45.0198 42.1995 49.2425 40.9755 52.869 38.8429C54.1863 38.0679 54.7331 36.4333 54.14 35.0226C53.7049 33.9873 53.1309 33.0151 52.4425 32.1216Z" fill="#7F9AE6"/>
<path d="M34.4943 35.4404C32.3139 34.6982 30.3143 33.564 28.5791 32.1216C27.8908 33.0151 27.3168 33.9873 26.8817 35.0226C26.289 36.4333 26.8359 38.0679 28.1526 38.8429C30.0384 39.9518 32.0863 40.812 34.251 41.3857C33.457 39.7884 33.6815 37.3914 34.4943 35.4404Z" fill="#5E78BF"/>
<path d="M37.0133 15.6761C36.4559 15.6272 35.9085 15.4077 35.4544 15.0122L32.3037 12.2686C30.9245 11.0673 28.9299 10.9825 27.4536 12.0617L25.0824 13.7958C23.8583 14.6913 22.1412 14.4224 21.2474 13.1959C20.3541 11.9689 20.622 10.2484 21.8466 9.35341L24.2173 7.61936C25.9273 6.36914 28.0336 5.73041 30.148 5.82022C32.2629 5.91103 34.3073 6.72635 35.905 8.11732L39.0552 10.8609C40.1992 11.8569 40.3206 13.5939 39.3261 14.7402C38.7269 15.4314 37.8588 15.7498 37.0133 15.6761Z" fill="#495059"/>
<path d="M47.2967 16.5772C46.4513 16.503 45.6516 16.0384 45.1808 15.2533C44.4003 13.9517 44.8208 12.262 46.1204 11.48L49.6981 9.32667C51.5129 8.23437 53.668 7.78737 55.7658 8.06586C57.8636 8.34537 59.8274 9.3408 61.2942 10.8695L63.3285 12.9895C64.3794 14.0843 64.3452 15.825 63.2525 16.8774C62.1598 17.9303 60.4226 17.896 59.3722 16.8012L57.3374 14.6812C56.0704 13.3614 54.0915 13.098 52.525 14.041L48.9468 16.1948C48.4307 16.5056 47.8536 16.6261 47.2967 16.5772Z" fill="#495059"/>
<path d="M40.2604 37.8237C54.1405 39.0401 60.952 33.2179 59.7827 24.0764C58.5264 14.2528 52.3796 8.39676 42.9025 7.56631C33.4258 6.73587 26.3571 11.433 23.4174 20.8888C20.6821 29.6877 26.3807 36.6068 40.2604 37.8237Z" fill="#DDAF89"/>
<path d="M43.6866 42.6657C43.6866 44.7075 42.0345 46.3628 39.9961 46.3628C37.9583 46.3628 36.3062 44.7075 36.3062 42.6657C36.3062 40.6234 37.9583 38.968 39.9961 38.968C42.0345 38.968 43.6866 40.6234 43.6866 42.6657Z" fill="#F6E06A"/>
<path d="M34.567 20.905C34.7196 19.1608 33.071 17.5918 30.8856 17.4C28.6997 17.2083 26.8044 18.4666 26.6518 20.2107C26.4998 21.9549 28.1478 23.524 30.3337 23.7157C32.5191 23.9074 34.4149 22.6486 34.567 20.905Z" fill="#FFDBDB"/>
<path d="M48.8628 22.1537C48.7102 23.8974 50.3588 25.467 52.5442 25.6587C54.7301 25.8504 56.6254 24.5916 56.7775 22.848C56.9301 21.1038 55.282 19.5348 53.0961 19.343C50.9102 19.1513 49.0149 20.4096 48.8628 22.1537Z" fill="#FFDBDB"/>
<path d="M44.0184 19.1019C42.6891 18.6256 41.2595 18.5005 39.8677 18.7381C39.2912 18.8365 38.77 19.1407 38.4004 19.5948C37.9009 20.2078 38.0771 21.124 38.768 21.5075L40.6845 22.5705C41.255 22.8873 41.9333 22.9464 42.5501 22.734L44.6217 22.0206C45.3684 21.7633 45.7008 20.8914 45.315 20.2008C45.0295 19.6897 44.5693 19.2992 44.0184 19.1019Z" fill="#495059"/>
<path d="M44.6186 29.4179C44.6186 31.4057 43.0103 33.0172 41.0263 33.0172C39.0424 33.0172 37.4346 31.4057 37.4346 29.4179C37.4346 27.4305 39.0424 25.8191 41.0263 25.8191C43.0103 25.8191 44.6186 27.4305 44.6186 29.4179Z" fill="#D16283"/>
<path d="M13.3543 28.8835C13.3543 30.7407 11.8522 32.2462 9.99868 32.2462C8.14513 32.2462 6.64307 30.7407 6.64307 28.8835C6.64307 27.0269 8.14513 25.5214 9.99868 25.5214C11.8522 25.5214 13.3543 27.0269 13.3543 28.8835Z" fill="#444F58"/>
<path d="M4.68213 15.437V17.2104C4.68213 18.5091 5.39112 19.7033 6.52912 20.3233C7.03972 20.6018 7.35745 21.1376 7.35745 21.7199V23.4307H12.6401V21.7199C12.6401 21.1371 12.9579 20.6018 13.4684 20.3233C14.607 19.7033 15.3154 18.5091 15.3154 17.2104V15.437C15.3154 12.4951 12.9352 10.1102 9.99904 10.1102C7.06288 10.1102 4.68213 12.4951 4.68213 15.437Z" fill="#F6E06A"/>
<path d="M13.6905 28.8836H6.30756C5.40975 28.8836 4.68213 28.1545 4.68213 27.2555V25.0593C4.68213 24.1602 5.40975 23.4307 6.30756 23.4307H13.6905C14.5878 23.4307 15.3154 24.1602 15.3154 25.0593V27.2555C15.3154 28.1545 14.5878 28.8836 13.6905 28.8836Z" fill="#DFE3E5"/>
<path d="M4.68213 25.1885H15.3159V27.1259H4.68213V25.1885Z" fill="#CACDCF"/>
<path d="M17.1985 15.0913C17.1985 15.6261 17.6315 16.06 18.1653 16.06H19.0309C19.5646 16.06 19.9977 15.6261 19.9977 15.0913C19.9977 14.556 19.5646 14.1226 19.0309 14.1226H18.1653C17.6315 14.1226 17.1985 14.556 17.1985 15.0913ZM4.18142 8.73731L3.625 8.23279C3.22922 7.87407 2.61792 7.90485 2.2594 8.3014C1.90138 8.69796 1.93209 9.31045 2.32788 9.66967L2.88429 10.1737C3.0696 10.3417 3.30123 10.4239 3.53286 10.4239C3.79621 10.4239 4.05906 10.3165 4.2499 10.1051C4.60792 9.70852 4.57771 9.09603 4.18142 8.73731ZM1.83239 14.1226H0.966802C0.433047 14.1226 0 14.556 0 15.0913C0 15.6261 0.433047 16.06 0.966802 16.06H1.83239C2.36615 16.06 2.79869 15.6261 2.79869 15.0913C2.79869 14.556 2.36615 14.1226 1.83239 14.1226ZM16.4648 10.4239C16.696 10.4239 16.9281 10.3412 17.1134 10.1737L17.6693 9.66967C18.0656 9.31045 18.0958 8.69796 17.7378 8.3014C17.3798 7.90485 16.7685 7.87356 16.3722 8.23279L15.8158 8.73731C15.42 9.09603 15.3893 9.70852 15.7478 10.1056C15.9386 10.3165 16.2015 10.4239 16.4648 10.4239ZM9.99885 8.34832C10.5326 8.34832 10.9656 7.91494 10.9656 7.37963V6.6511C10.9656 6.1158 10.5326 5.68241 9.99885 5.68241C9.46459 5.68241 9.03205 6.1158 9.03205 6.6511V7.37963C9.03205 7.91494 9.46459 8.34832 9.99885 8.34832ZM42.8641 23.6501L44.9356 22.9362C45.5631 22.7202 46.0591 22.2399 46.2957 21.6189C46.5324 20.9973 46.4825 20.3081 46.1588 19.7279C45.7594 19.012 45.1144 18.4656 44.344 18.1896C44.3435 18.1896 44.3435 18.1896 44.3435 18.1896C42.8611 17.6588 41.2573 17.5181 39.7048 17.7829C38.8977 17.9212 38.1685 18.347 37.6509 18.9822C37.2314 19.4973 37.0628 20.1673 37.1881 20.8202C37.314 21.4736 37.7189 22.0326 38.2995 22.3545L40.2154 23.4175C40.3292 23.4806 40.4461 23.5355 40.5649 23.5845L40.4511 24.8872C38.3679 25.1515 36.675 26.8417 36.4847 29.0202C36.2656 31.5292 38.1247 33.7487 40.6288 33.9681C40.7633 33.9797 40.8967 33.9858 41.0297 33.9858C43.3646 33.9858 45.3601 32.1902 45.5676 29.8164C45.5676 29.8159 45.5676 29.8159 45.5676 29.8159C45.6733 28.6005 45.3012 27.4169 44.5182 26.482C43.9472 25.7999 43.207 25.3115 42.3771 25.0552L42.4915 23.751C42.6168 23.7242 42.7417 23.6919 42.8641 23.6501ZM43.0373 27.7271C43.488 28.2655 43.7025 28.9471 43.6415 29.6469C43.5801 30.3471 43.2508 30.9813 42.7135 31.4329C42.1762 31.8844 41.4965 32.0989 40.7975 32.0378C40.0991 31.9768 39.4662 31.6468 39.0155 31.1085C38.5648 30.5706 38.3498 29.8885 38.4112 29.1888C38.5306 27.8215 39.6792 26.7877 41.0241 26.7877C41.1007 26.7877 41.1777 26.7907 41.2553 26.7978C41.9537 26.8589 42.5861 27.1888 43.0373 27.7271ZM42.2357 21.8176C41.8781 21.9412 41.4834 21.9064 41.1525 21.7228L39.236 20.6598C39.1298 20.6002 39.0971 20.5054 39.087 20.4534C39.0774 20.4024 39.0719 20.3015 39.1494 20.2067C39.371 19.9342 39.6837 19.7521 40.0296 19.6926C40.4325 19.624 40.8398 19.5897 41.2467 19.5897C42.0775 19.5897 42.9069 19.7324 43.6929 20.014C44.0232 20.1325 44.2997 20.3666 44.4714 20.6734C44.5308 20.7798 44.5081 20.8782 44.4895 20.9272C44.4709 20.9761 44.4225 21.0644 44.3072 21.1042L42.2357 21.8176ZM16.2821 27.2554V25.0592C16.2821 23.6274 15.1194 22.4619 13.6903 22.4619H13.6067V21.7198C13.6067 21.4922 13.7306 21.2833 13.9305 21.1744C15.3812 20.3838 16.2821 18.8652 16.2821 17.2103V15.4374C16.2821 11.9658 13.4637 9.14144 9.99885 9.14144C6.53397 9.14144 3.71514 11.9658 3.71514 15.4369V17.2103C3.71514 18.8652 4.61648 20.3838 6.06719 21.1744C6.26659 21.2828 6.39046 21.4922 6.39046 21.7198V22.4619H6.30738C4.87832 22.4619 3.71514 23.6274 3.71514 25.0592V27.2549C3.71514 28.5036 4.59986 29.549 5.77362 29.7962C6.19307 31.7477 7.92778 33.2149 9.99885 33.2149C12.0699 33.2149 13.8046 31.7477 14.2241 29.7962C15.3978 29.549 16.2821 28.5041 16.2821 27.2554ZM5.64874 17.2103V15.4369C5.64874 13.0339 7.60047 11.0788 9.99885 11.0788C12.3972 11.0788 14.349 13.0339 14.349 15.4369V17.2103C14.349 18.1548 13.8348 19.0211 13.007 19.4726C12.1842 19.9206 11.6736 20.7818 11.6736 21.7198V22.4619H8.32406V21.7198C8.32406 20.7818 7.81347 19.9206 6.99119 19.4726C6.16336 19.0216 5.64874 18.1548 5.64874 17.2103ZM9.99885 31.2775C9.0255 31.2775 8.18811 30.6907 7.81599 29.8522H12.1817C11.8096 30.6907 10.9722 31.2775 9.99885 31.2775ZM13.6903 27.9148H6.30738C5.94432 27.9148 5.64874 27.6187 5.64874 27.2554V25.0592C5.64874 24.6955 5.94432 24.3993 6.30738 24.3993H13.6903C14.0534 24.3993 14.3484 24.6955 14.3484 25.0592V27.2554C14.3484 27.6187 14.0534 27.9148 13.6903 27.9148ZM32.3511 16.1241L32.2287 17.5241C32.1824 18.0569 32.5757 18.5266 33.1079 18.5735C33.1366 18.5761 33.1648 18.5771 33.193 18.5771C33.689 18.5771 34.111 18.1972 34.1553 17.6926L34.2772 16.2926C34.3235 15.7598 33.9302 15.2896 33.3985 15.2432C32.8667 15.1968 32.3974 15.5908 32.3511 16.1241ZM65.1836 35.2779C63.9096 33.6977 61.5903 33.4505 60.0127 34.7264C58.9941 35.5508 57.1259 36.514 55.2432 37.0765C55.3056 36.7985 55.3373 36.513 55.3393 36.2244C56.6007 35.4408 57.6637 34.4964 58.5152 33.3935C58.842 32.9707 58.7649 32.3622 58.3425 32.0348C57.92 31.7078 57.3127 31.785 56.9859 32.2083C54.1364 35.8979 48.2273 37.5497 40.3443 36.8586C35.1055 36.3989 30.9628 35.1139 28.1133 33.0923C28.0604 33.0448 28.0015 33.002 27.9365 32.9656C26.8439 32.1634 25.9486 31.2497 25.2653 30.2286C23.595 27.7332 23.2753 24.6031 24.3402 21.1769C25.5427 17.3087 27.4511 14.2745 29.9658 12.1388C30.0343 12.0949 30.0962 12.0425 30.1516 11.9834C31.841 10.595 33.7973 9.60358 35.9912 9.02842C36.0597 9.01833 36.1267 9.00168 36.1916 8.97747C38.2098 8.47546 40.4259 8.32108 42.8183 8.53096C45.2302 8.74236 47.399 9.28977 49.3109 10.147C49.3502 10.1676 49.3905 10.1863 49.4318 10.2014C51.5054 11.1515 53.2703 12.4723 54.6993 14.1428C54.7411 14.2054 54.789 14.2634 54.8444 14.3153C56.9537 16.8566 58.3092 20.1779 58.8239 24.1995C59.0278 25.7948 58.9729 27.2872 58.6602 28.6348C58.5399 29.156 58.8636 29.6766 59.3833 29.7977C59.904 29.9193 60.4231 29.5944 60.544 29.0732C60.9085 27.5001 60.975 25.7777 60.7414 23.9533C60.4609 21.7601 59.9473 19.7506 59.2076 17.9323C59.8093 18.3601 60.5238 18.5983 61.2771 18.6134C61.3023 18.6139 61.3275 18.6139 61.3521 18.6139C62.3159 18.6139 63.2258 18.2471 63.9227 17.5761C65.3976 16.1548 65.4439 13.7957 64.0255 12.3179L61.9911 10.1979C60.3728 8.51179 58.207 7.41344 55.8922 7.10568C53.7774 6.82516 51.6051 7.21617 49.7183 8.20756C47.7036 7.35542 45.4553 6.81759 42.9864 6.60115C40.5181 6.38521 38.2108 6.52345 36.0788 7.01234C34.392 5.70713 32.3209 4.94379 30.1889 4.85247C27.8575 4.75257 25.5331 5.4579 23.6474 6.83676L21.2767 8.57082C19.6236 9.77966 19.2605 12.1106 20.4665 13.7664C21.1926 14.7629 22.3236 15.2916 23.4696 15.2916C24.0064 15.2916 24.5457 15.173 25.0492 14.9344C24.0049 16.5973 23.1509 18.4883 22.4943 20.6007C21.249 24.6067 21.6518 28.3089 23.6595 31.3078C24.3473 32.3355 25.2104 33.2658 26.2381 34.0963C26.151 34.2799 26.0674 34.4636 25.9904 34.6467C25.7426 35.2365 25.6474 35.8581 25.6877 36.4645C23.313 36.0029 21.0169 34.4025 20.3879 33.4646C19.258 31.7785 16.9694 31.3284 15.286 32.4606C14.4708 33.009 13.9174 33.843 13.7281 34.8087C13.5388 35.7743 13.7361 36.7556 14.284 37.5725C16.3863 40.7086 21.7153 43.9522 26.9954 43.9522C27.0226 43.9522 27.0508 43.9512 27.0785 43.9507C27.3328 44.6368 27.6495 45.2967 28.0211 45.9264C26.6183 46.6696 25.6671 46.3976 24.5402 45.936C23.7647 45.6186 22.9127 45.6232 22.1403 45.9481C21.3683 46.273 20.7691 46.8794 20.4524 47.6564C20.1362 48.4329 20.1402 49.287 20.4645 50.06C20.7888 50.8339 21.3945 51.4343 22.1695 51.7516C23.6866 52.3727 25.0865 52.6744 26.4481 52.6744C27.8671 52.6744 29.2448 52.3394 30.6199 51.6588C30.5137 53.0205 30.4945 54.408 30.557 55.9286C30.5781 56.4498 31.0066 56.8574 31.5223 56.8574C31.5354 56.8574 31.549 56.8574 31.5626 56.8564C32.0963 56.8347 32.5107 56.3837 32.4886 55.8489C32.4105 53.9488 32.4669 52.2708 32.6699 50.5821C33.7011 51.2093 34.827 51.7168 36.0234 52.0821C35.8986 53.682 35.9162 55.3721 36.0768 57.4386C36.1126 57.9038 35.966 58.3554 35.6634 58.7095C35.3608 59.0642 34.9383 59.2792 34.4745 59.3155C34.0198 59.3518 33.5752 59.208 33.2278 58.9199C32.8164 58.5789 32.2071 58.6369 31.8667 59.0491C31.5263 59.4613 31.5842 60.0718 31.9956 60.4133C32.6532 60.9582 33.4841 61.2584 34.3361 61.2584C34.4307 61.2584 34.5279 61.2544 34.6241 61.2473C35.6035 61.1706 36.4943 60.7171 37.1328 59.9693C37.7712 59.2216 38.0809 58.2696 38.0044 57.2883C37.8599 55.4276 37.8347 53.9438 37.9289 52.5306C38.7662 52.6719 39.6288 52.7461 40.5105 52.7461C41.3917 52.7461 42.2548 52.6719 43.0917 52.5306C43.1858 53.9433 43.1607 55.4271 43.0161 57.2883C42.9401 58.2696 43.2498 59.2216 43.8883 59.9693C44.5268 60.7171 45.4175 61.1706 46.3954 61.2468C46.4901 61.2544 46.5878 61.2584 46.685 61.2584C48.5909 61.2584 50.1997 59.7655 50.3477 57.8599C50.6025 54.577 50.5381 51.9812 50.1282 49.3047C51.588 48.0726 52.7642 46.5646 53.5563 44.8724C58.068 44.5243 62.6951 42.0259 64.6327 40.4583C65.3971 39.8398 65.875 38.9604 65.9787 37.9821C66.0834 37.0039 65.8004 36.0432 65.1836 35.2779ZM55.6384 9.0259C57.5207 9.27665 59.2816 10.1697 60.5973 11.541L62.6322 13.661C63.3114 14.3688 63.2893 15.4985 62.5823 16.1796C62.2404 16.509 61.7907 16.6881 61.3154 16.6765C60.8405 16.6669 60.3979 16.4732 60.0686 16.1301L58.0343 14.0101C57.4819 13.4344 56.7991 13.0056 56.0463 12.7574C55.7432 12.4113 55.429 12.0747 55.0981 11.7534C54.1525 10.8346 53.1107 10.035 51.9777 9.35485C53.154 8.98049 54.4078 8.86243 55.6384 9.0259ZM24.513 13.0132C23.7209 13.5919 22.6066 13.4178 22.029 12.6242C21.4509 11.8311 21.6251 10.7145 22.4167 10.1354L24.7874 8.4018C26.3212 7.28024 28.2095 6.7066 30.1073 6.78783C31.347 6.8408 32.5616 7.1748 33.6553 7.74844C32.4216 8.22118 31.2574 8.82762 30.1667 9.56776C29.784 9.82759 29.4134 10.1031 29.0534 10.3922C28.2709 10.5062 27.5262 10.8094 26.8841 11.2796L24.513 13.0132ZM15.8893 36.4923C15.353 35.6926 15.5665 34.6053 16.3641 34.0685C17.1622 33.5317 18.2474 33.7451 18.7832 34.5443C19.8149 36.0836 23.2002 38.2753 26.4043 38.5083V38.5089C26.3569 38.9412 26.3333 39.3761 26.3333 39.8075C26.3333 40.5562 26.4038 41.2903 26.5387 42.0047C22.1091 41.8236 17.6099 39.0598 15.8893 36.4923ZM39.9959 39.9367C41.498 39.9367 42.7196 41.1606 42.7196 42.6656C42.7196 44.1701 41.498 45.3941 39.9959 45.3941C38.4943 45.3941 37.2727 44.1701 37.2727 42.6656C37.2727 41.1606 38.4943 39.9367 39.9959 39.9367ZM27.7724 35.3985C27.7961 35.3425 27.8212 35.2864 27.8459 35.2304C30.4427 36.8343 33.8114 37.9463 37.8573 38.5225C36.9308 39.0048 36.1861 39.7893 35.753 40.7454C33.2474 40.2293 30.8586 39.311 28.642 38.0074C28.4461 37.8923 28.2769 37.7475 28.1339 37.5841C28.1319 37.5815 28.1299 37.5795 28.1279 37.5775C27.6178 36.9902 27.4587 36.1457 27.7724 35.3985ZM26.4486 50.737C25.3423 50.737 24.1816 50.4823 22.9006 49.958C22.6035 49.8365 22.3714 49.6064 22.2475 49.3097C22.1231 49.0136 22.1216 48.6866 22.243 48.389C22.3638 48.0908 22.594 47.8587 22.8895 47.7341C23.1851 47.6095 23.5119 47.608 23.809 47.7296C25.2834 48.333 26.9048 48.7956 29.136 47.5227C29.6541 48.1579 30.2357 48.7477 30.8707 49.286C29.3787 50.2608 27.9285 50.737 26.4486 50.737ZM48.4202 57.7101C48.3502 58.6132 47.5878 59.321 46.6855 59.321C46.6401 59.321 46.5943 59.3195 46.547 59.316C46.0827 59.2797 45.6608 59.0647 45.3576 58.7101C45.055 58.3554 44.9085 57.9043 44.9447 57.4392C45.1048 55.3716 45.1225 53.682 44.9976 52.0821C46.195 51.7168 47.3209 51.2093 48.3527 50.5816C48.6186 52.7778 48.6347 54.9503 48.4202 57.7101ZM40.511 50.8092C33.8396 50.8092 28.3978 45.99 28.2699 40.0224C30.4905 41.2484 32.8622 42.1253 35.3401 42.6379C35.3396 42.6475 35.3391 42.6566 35.3391 42.6656C35.3391 45.2387 37.4283 47.3315 39.9964 47.3315C42.5101 47.3315 44.5635 45.3255 44.6491 42.8276C47.5022 42.3604 50.2213 41.4205 52.7521 40.0229C52.6237 45.9905 47.182 50.8092 40.511 50.8092ZM52.8921 37.579C52.8886 37.583 52.8851 37.5876 52.8816 37.5916C52.739 37.7536 52.5709 37.8948 52.3795 38.0074C49.8789 39.478 47.1689 40.4548 44.3138 40.9195C43.994 40.1289 43.4648 39.4447 42.7946 38.9382C43.1264 38.9473 43.4557 38.9523 43.7805 38.9523C46.6356 38.9523 49.1961 38.6183 51.4223 37.9524C51.9858 37.7838 52.525 37.5947 53.0412 37.3853C52.9954 37.4524 52.946 37.517 52.8921 37.579ZM64.0567 37.7773C64.0073 38.2415 63.7807 38.6582 63.4187 38.9513C62.039 40.0673 58.2176 42.2802 54.2935 42.8437C54.5513 41.8695 54.6888 40.8529 54.6888 39.8075C54.6888 39.6133 54.6822 39.418 54.6727 39.2228C56.9733 38.7142 59.6522 37.5089 61.2278 36.2339C61.976 35.6285 63.0753 35.7456 63.6795 36.4948C63.9721 36.858 64.106 37.3136 64.0567 37.7773ZM49.9474 17.6664L49.825 19.0665C49.7782 19.5992 50.172 20.0695 50.7037 20.1159C50.7324 20.1184 50.7606 20.1194 50.7893 20.1194C51.2848 20.1194 51.7073 19.7395 51.7511 19.2355L51.8735 17.8354C51.9203 17.3021 51.5265 16.8324 50.9948 16.7855C50.4635 16.7381 49.9937 17.1331 49.9474 17.6664Z" fill="black"/>
</g>
<defs>
<clipPath id="clip0_1591_25060">
<rect width="66" height="66" fill="white"/>
</clipPath>
</defs>
</svg>
