<svg width="170" height="170" viewBox="0 0 170 170" fill="none" xmlns="http://www.w3.org/2000/svg">
<g clip-path="url(#clip0_223_13496)">
<path d="M124.747 151.469C114.098 151.469 102.222 144.321 98.5303 127.393C97.7521 123.82 100.012 120.289 103.578 119.509C107.141 118.729 110.669 120.992 111.448 124.567C113.895 135.788 120.919 138.883 126.194 138.119C129.809 137.595 133.159 140.108 133.68 143.729C134.202 147.349 131.695 150.708 128.081 151.23C126.992 151.388 125.875 151.469 124.747 151.469Z" fill="#495059"/>
<path d="M73.7145 164.861C71.4175 164.861 69.1335 163.908 67.5006 162.044C58.5746 151.855 60.3619 138.493 61.2218 132.074C61.8275 127.541 65.9883 124.361 70.5096 124.967C75.0336 125.575 78.2073 129.741 77.6016 134.274C76.804 140.232 76.2605 146.94 79.9207 151.12C82.931 154.556 82.5925 159.788 79.1619 162.804C77.5938 164.184 75.6496 164.861 73.7145 164.861Z" fill="#DDAF89"/>
<path d="M101.463 164.861C99.1672 164.861 96.8832 163.909 95.249 162.044C86.3217 151.854 88.1103 138.494 88.9702 132.073C89.5772 127.541 93.7419 124.364 98.2593 124.968C102.782 125.576 105.957 129.743 105.35 134.276C104.552 140.234 104.008 146.941 107.67 151.12C110.681 154.556 110.341 159.788 106.91 162.806C105.342 164.184 103.398 164.861 101.463 164.861Z" fill="#DDAF89"/>
<path d="M98.2595 124.966C93.7421 124.362 89.5774 127.541 88.9704 132.072C88.5307 135.36 87.8498 140.467 88.4853 146.036C94.2959 145.599 99.7952 144.145 104.773 141.869C104.732 139.365 105.018 136.756 105.352 134.274C105.957 129.742 102.782 125.574 98.2595 124.966Z" fill="#D1A582"/>
<path d="M70.5103 124.967C65.9902 124.361 61.8282 127.541 61.2225 132.074C60.9592 134.039 60.6103 136.656 60.5078 139.63C65.5376 142.604 71.2547 144.679 77.3883 145.615C76.6983 142.084 77.099 138.031 77.6023 134.274C78.2093 129.741 75.0342 125.575 70.5103 124.967Z" fill="#D1A582"/>
<path d="M125.069 105.054C125.069 84.8944 107.033 68.5527 84.7845 68.5527C62.5371 68.5527 44.501 84.8944 44.501 105.054C44.501 125.214 62.5371 141.557 84.7845 141.557C107.033 141.557 125.069 125.214 125.069 105.054Z" fill="#DDAF89"/>
<path d="M121.169 81.6191C111.297 89.827 98.6165 94.7626 84.7853 94.7626C70.9554 94.7626 58.2746 89.827 48.4019 81.6191C46.3033 84.343 44.5524 87.3072 43.2256 90.4651C41.4175 94.7652 43.0855 99.7516 47.1023 102.114C58.1605 108.617 71.0371 112.349 84.7853 112.349C98.5348 112.349 111.411 108.617 122.47 102.114C126.486 99.7516 128.153 94.7652 126.346 90.4651C125.02 87.3072 123.269 84.343 121.169 81.6191Z" fill="#7F9AE6"/>
<path d="M66.4392 91.7373C59.7908 89.4748 53.6936 86.0168 48.4019 81.6191C46.3033 84.343 44.5524 87.3072 43.2256 90.4651C41.4175 94.7652 43.0855 99.7516 47.1023 102.114C52.8519 105.496 59.0969 108.119 65.6974 109.867C63.2759 104.998 63.962 97.6879 66.4392 91.7373Z" fill="#5E78BF"/>
<path d="M69.1707 33.5757C67.4781 33.5757 65.7712 33.0585 64.2965 31.9863L54.0801 24.5504C49.6067 21.2938 43.5731 21.5641 39.4071 25.2093L32.7172 31.0611C29.2633 34.0825 24.0182 33.7264 21.0014 30.2658C17.9859 26.8038 18.3412 21.5485 21.7952 18.5258L28.4851 12.6753C33.3086 8.45436 39.4888 5.97355 45.8856 5.68635C52.2837 5.39915 58.6598 7.31727 63.8413 11.0885L74.0578 18.5232C77.7685 21.2249 78.5908 26.4269 75.8956 30.1449C74.2705 32.3853 71.7387 33.5757 69.1707 33.5757Z" fill="#495059"/>
<path d="M100.401 33.5746C97.8329 33.5746 95.3011 32.3842 93.676 30.1438C90.9808 26.4258 91.8031 21.2225 95.5138 18.5221L105.73 11.0861C110.912 7.31487 117.289 5.39936 123.686 5.68395C130.083 5.97115 136.262 8.45326 141.087 12.6729L147.775 18.5247C151.23 21.5474 151.586 26.8027 148.57 30.2634C145.553 33.7253 140.308 34.0814 136.853 31.06L130.164 25.2069C125.999 21.563 119.965 21.2927 115.49 24.5493L105.274 31.9852C103.8 33.0574 102.092 33.5746 100.401 33.5746Z" fill="#495059"/>
<path d="M84.7853 99.4676C126.939 99.4676 145.935 80.1214 140.006 52.878C133.635 23.602 113.567 7.57617 84.7853 7.57617C56.0048 7.57617 35.9364 23.602 29.5655 52.878C23.6369 80.1214 42.6328 99.4676 84.7853 99.4676Z" fill="#DDAF89"/>
<path d="M96.0374 113.77C96.0374 119.997 90.9999 125.044 84.7847 125.044C78.5707 125.044 73.5332 119.997 73.5332 113.77C73.5332 107.543 78.5707 102.496 84.7847 102.496C90.9999 102.496 96.0374 107.543 96.0374 113.77Z" fill="#F6E06A"/>
<path d="M62.9083 55.1464C62.9083 49.8079 57.4855 45.4805 50.7956 45.4805C44.1044 45.4805 38.6816 49.8079 38.6816 55.1464C38.6816 60.4849 44.1044 64.8124 50.7956 64.8124C57.4855 64.8124 62.9083 60.4849 62.9083 55.1464Z" fill="#FFDBDB"/>
<path d="M130.89 55.1464C130.89 49.8079 125.467 45.4805 118.776 45.4805C112.086 45.4805 106.663 49.8079 106.663 55.1464C106.663 60.4849 112.086 64.8124 118.776 64.8124C125.467 64.8124 130.89 60.4849 130.89 55.1464Z" fill="#FFDBDB"/>
<path d="M91.1378 47.1566C86.9731 46.065 82.5971 46.065 78.4324 47.1566C76.7074 47.6101 75.2055 48.6732 74.2029 50.1507C72.8488 52.1455 73.627 54.8823 75.8267 55.8622L81.9304 58.5808C83.7488 59.3917 85.8227 59.3917 87.6411 58.5808L93.7448 55.8622C95.9445 54.8823 96.7227 52.1455 95.3686 50.1507C94.366 48.6732 92.8628 47.6101 91.1378 47.1566Z" fill="#495059"/>
<path d="M84.7451 68.0986C76.8321 68.0986 69.7842 62.395 65.3523 69.4281C60.8556 76.5625 70.9255 87.6242 84.7451 87.6242C98.5646 87.6242 108.634 76.5625 104.138 69.4281C99.7059 62.395 92.6581 68.0986 84.7451 68.0986Z" fill="#D16283"/>
<path d="M69.5127 82.3979C73.2234 85.4454 78.6124 87.6247 84.7447 87.6247C90.8769 87.6247 96.2659 85.4454 99.9766 82.3979C95.8794 79.3505 90.5656 77.5 84.7447 77.5C78.9237 77.5 73.6099 79.3505 69.5127 82.3979Z" fill="#EB9898"/>
<path d="M53.4145 23.2753C49.1175 18.9699 42.1825 18.9193 37.8232 23.1233C33.3252 27.4598 33.4096 34.784 37.8245 39.2076L48.4119 49.8144C51.1746 52.5824 55.6544 52.5824 58.417 49.8144L69.0044 39.2076C73.4181 34.784 73.5024 27.4611 69.0044 23.1233C64.6452 18.9193 57.7101 18.9699 53.4145 23.2753Z" fill="#D16283"/>
<path d="M116.156 23.2753C120.453 18.9699 127.389 18.9193 131.748 23.1233C136.246 27.4598 136.161 34.784 131.746 39.2076L121.159 49.8144C118.396 52.5824 113.917 52.5824 111.154 49.8144L100.567 39.2076C96.1529 34.784 96.0686 27.4611 100.567 23.1233C104.926 18.9193 111.861 18.9699 116.156 23.2753Z" fill="#D16283"/>
<path d="M53.2332 130.131C49.6807 130.131 46.2333 129.308 43.0842 127.627C35.5369 123.596 31.4021 115.266 32.5512 106.403C33.1401 101.867 37.2853 98.6706 41.8118 99.2593C46.337 99.8493 49.529 104.003 48.9401 108.538C48.6703 110.62 49.3513 112.209 50.8584 113.014C53.5069 114.429 57.7623 113.105 61.6987 109.641C65.128 106.624 70.3484 106.962 73.36 110.398C76.373 113.834 76.0344 119.066 72.6052 122.082C66.5936 127.373 59.7376 130.131 53.2332 130.131Z" fill="#C49B7A"/>
<path d="M116.338 130.13C109.834 130.13 102.978 127.373 96.9661 122.082C93.5368 119.065 93.1983 113.833 96.21 110.397C99.2229 106.962 104.443 106.623 107.873 109.641C111.808 113.105 116.063 114.428 118.713 113.013C120.22 112.208 120.901 110.619 120.631 108.537C120.042 104.003 123.234 99.8485 127.759 99.2598C132.28 98.6685 136.431 101.868 137.02 106.402C138.169 115.265 134.034 123.596 126.487 127.626C123.338 129.308 119.891 130.13 116.338 130.13Z" fill="#C49B7A"/>
<path d="M14.4447 84.5709C11.0388 82.181 6.35795 82.9724 3.91829 86.3252C1.40081 89.7846 2.32687 94.7111 5.82618 97.166L14.2217 103.055C16.4123 104.593 19.4317 104.059 20.966 101.864L26.844 93.4532C29.2941 89.9458 28.4822 84.9997 24.9362 82.6112C21.4991 80.298 16.8312 81.157 14.4447 84.5709Z" fill="#D16283"/>
<path d="M155.555 88.9299C153.17 85.5161 148.501 84.6571 145.065 86.9715C141.518 89.3588 140.706 94.3061 143.157 97.8123L149.035 106.224C150.569 108.419 153.588 108.952 155.78 107.416L164.174 101.526C167.675 99.0702 168.599 94.1437 166.082 90.6843C163.642 87.3315 158.961 86.5401 155.555 88.9299Z" fill="#D16283"/>
<path d="M30.5679 87.054C30.0672 84.3588 28.5601 82.0456 26.3254 80.5407C22.4227 77.9144 17.2606 78.4069 13.8962 81.4491C9.69524 79.7441 4.67455 81.0489 1.90546 84.8552C0.319231 87.0358 -0.30722 89.7258 0.141542 92.4289C0.595492 95.1592 2.1467 97.6309 4.39829 99.2099L12.7925 105.099C14.07 105.996 15.5356 106.426 16.9883 106.425C19.3021 106.425 21.5809 105.333 23.005 103.296L28.883 94.8837C30.4602 92.6277 31.0737 89.7739 30.5679 87.054ZM24.804 92.0221L18.926 100.433C18.1815 101.497 16.712 101.757 15.6498 101.011L7.25558 95.1215C6.09218 94.3054 5.29063 93.0254 5.05458 91.6089C4.8276 90.2379 5.13888 88.8838 5.93135 87.7947C6.92744 86.4237 8.49941 85.6934 10.0895 85.6934C11.1051 85.6934 12.1297 85.9923 13.0169 86.6148C14.1439 87.4049 15.6965 87.1307 16.485 86.0014C18.0764 83.7233 21.245 83.132 23.5472 84.6824C24.6639 85.4335 25.4188 86.6005 25.6717 87.9663C25.935 89.3789 25.6185 90.8564 24.804 92.0221ZM168.095 89.2125C165.325 85.4075 160.305 84.1015 156.106 85.8077C152.739 82.7642 147.577 82.2717 143.675 84.8994C141.441 86.4055 139.933 88.7187 139.433 91.4126C138.927 94.1326 139.54 96.9876 141.118 99.2436L146.996 107.654C148.382 109.64 150.619 110.789 152.993 110.789C153.318 110.789 153.647 110.767 153.975 110.724C155.339 110.541 156.296 109.286 156.115 107.921C155.933 106.555 154.679 105.594 153.317 105.776C152.438 105.895 151.58 105.517 151.075 104.791L145.197 96.3808C144.382 95.2164 144.066 93.7375 144.328 92.3262C144.582 90.9604 145.337 89.7934 146.453 89.041C148.756 87.4906 151.923 88.0832 153.516 90.3613C154.304 91.4893 155.857 91.7648 156.984 90.9734C159.257 89.3789 162.435 89.9078 164.069 92.1534C164.863 93.2424 165.173 94.5978 164.946 95.9688C164.71 97.3853 163.908 98.6654 162.745 99.4815L161.571 100.307C160.444 101.097 160.171 102.652 160.959 103.78C161.748 104.91 163.3 105.184 164.427 104.394L165.602 103.57C167.853 101.99 169.404 99.5191 169.858 96.7888C170.308 94.0845 169.681 91.3945 168.095 89.2125ZM132.589 137.371C131.416 136.492 130.079 135.923 128.674 135.684C128.761 135.327 128.823 134.983 128.844 134.678C128.935 133.303 127.899 132.1 126.526 132.009C125.154 131.917 123.969 132.943 123.878 134.318C123.855 134.492 123.718 134.972 123.468 135.635C121.857 135.402 119.781 134.648 117.882 132.578C121.347 132.367 124.629 131.445 127.659 129.827C136.131 125.303 140.774 115.982 139.49 106.08C139.119 103.225 137.661 100.687 135.384 98.9305C133.591 97.549 131.461 96.7849 129.25 96.703C129.7 94.733 129.647 92.6576 129.059 90.6862C131.799 88.6914 134.186 86.4432 136.197 83.9416C142.952 75.5401 145.11 64.6136 142.441 52.3447C141.131 46.3331 139.221 40.7659 136.773 35.7653C136.94 35.2909 137.081 34.8075 137.198 34.3176C138.757 35.1623 140.5 35.6067 142.299 35.6067C142.547 35.6067 142.796 35.5989 143.045 35.582C145.922 35.3871 148.549 34.0811 150.446 31.9043C152.342 29.7289 153.28 26.9427 153.085 24.0603C152.889 21.178 151.586 18.5451 149.415 16.6452L142.725 10.7921C137.478 6.20213 130.756 3.50299 123.796 3.1911C117.373 2.90261 110.943 4.67127 105.555 8.18392C99.2543 6.12156 92.3193 5.08063 84.7863 5.08063C77.2533 5.08063 70.3183 6.12156 64.0175 8.18392C58.6297 4.66997 52.2031 2.90001 45.7752 3.1911C38.8168 3.50299 32.0944 6.20213 26.8468 10.7921L20.1568 16.6452C15.6744 20.5672 15.2114 27.4131 19.1257 31.9043C21.2567 34.3501 24.2528 35.6015 27.2631 35.6015C29.0179 35.6015 30.7767 35.1753 32.3733 34.3137C32.49 34.8062 32.6314 35.2909 32.7987 35.7653C30.35 40.7672 28.4408 46.3344 27.1321 52.346C24.4616 64.6136 26.6211 75.5401 33.3746 83.9416C35.3849 86.4432 37.7727 88.6914 40.5132 90.6849C39.9257 92.6576 39.8712 94.733 40.3213 96.703C38.1073 96.7862 35.9763 97.549 34.1852 98.9305C31.9102 100.686 30.4524 103.225 30.0828 106.079C28.7974 115.982 33.442 125.303 41.9127 129.827C45.3887 131.683 49.1967 132.625 53.2342 132.625C53.6544 132.625 54.076 132.612 54.4988 132.591C55.7024 133.693 56.967 134.721 58.2821 135.672C57.7724 140.837 57.6284 147.941 60.3275 154.908C60.7114 155.897 61.653 156.501 62.6504 156.501C62.95 156.501 63.2548 156.447 63.5505 156.332C64.8333 155.833 65.4688 154.387 64.9708 153.103C63.0434 148.126 62.8074 142.934 63.0434 138.668C66.6335 140.608 70.5102 142.044 74.575 142.943C74.7994 147.13 75.9434 150.358 78.051 152.765C80.1508 155.161 79.9135 158.825 77.5205 160.929C76.4674 161.855 75.1159 162.365 73.7151 162.365C72.2534 162.365 70.8617 161.821 69.7956 160.833C68.7865 159.897 67.2107 159.957 66.2768 160.969C65.343 161.98 65.404 163.558 66.413 164.495C68.4013 166.34 70.9953 167.356 73.7151 167.356C76.3247 167.356 78.8422 166.405 80.8058 164.679C85.2623 160.76 85.7046 153.938 81.7941 149.473C80.6152 148.127 79.9018 146.247 79.6333 143.772C81.3285 143.955 83.0483 144.05 84.7863 144.05C85.1326 144.05 85.4776 144.046 85.8226 144.039C86.2934 151.887 88.8239 158.491 93.3776 163.689C95.4204 166.019 98.3672 167.356 101.463 167.356C104.073 167.356 106.591 166.405 108.555 164.679C113.01 160.76 113.454 153.938 109.542 149.473C109.411 149.324 109.28 149.163 109.149 148.989C111.943 150.95 115.04 152.367 118.307 153.176C117.463 153.988 117.284 155.308 117.943 156.33C118.419 157.066 119.219 157.469 120.035 157.469C120.499 157.469 120.969 157.339 121.386 157.068C122.677 156.231 124.022 155.242 125.157 153.955C126.258 153.937 127.359 153.854 128.437 153.699C133.404 152.981 136.862 148.348 136.145 143.372C135.799 140.961 134.535 138.83 132.589 137.371ZM132.345 102.885C133.569 103.828 134.351 105.192 134.551 106.724C135.566 114.546 131.941 121.885 125.316 125.424C122.569 126.891 119.549 127.635 116.338 127.635C110.349 127.635 104.052 124.997 98.6097 120.206C97.4515 119.188 96.7576 117.776 96.6578 116.235C96.5592 114.693 97.0637 113.205 98.0819 112.044C99.2219 110.743 100.819 110.079 102.423 110.079C103.777 110.079 105.135 110.552 106.23 111.514C111.023 115.735 116.255 117.151 119.884 115.215C122.336 113.906 123.507 111.355 123.101 108.214C122.901 106.682 123.311 105.164 124.251 103.94C125.192 102.716 126.552 101.932 128.083 101.734C129.609 101.532 131.123 101.943 132.345 102.885ZM91.6877 116.557C91.7356 117.285 91.8537 117.997 92.0391 118.686C90.4179 121.089 87.7227 122.55 84.785 122.55C81.8473 122.55 79.1535 121.089 77.5322 118.685C77.7164 117.996 77.8357 117.285 77.8824 116.557C78.0173 114.485 77.5607 112.464 76.5854 110.687C77.8513 107.289 81.0899 104.989 84.785 104.989C88.4802 104.989 91.7188 107.289 92.9846 110.687C92.0106 112.464 91.5541 114.485 91.6877 116.557ZM48.5754 100.082C47.9606 99.4256 47.2745 98.8564 46.53 98.3795C45.4172 97.011 44.8919 95.2736 45.0164 93.5569C53.5299 98.3054 64.6504 101.095 78.0017 101.789C75.92 102.972 74.1665 104.686 72.9382 106.782C69.7476 104.743 65.6711 104.53 62.2834 106.253C57.5221 104.686 52.9164 102.615 48.5754 100.082ZM57.2847 109.77C55.0007 111.082 53.0474 111.354 52.0293 110.811C51.827 110.703 51.2135 110.375 51.4093 108.858C51.4781 108.33 51.5079 107.802 51.5001 107.279C53.3937 108.19 55.325 109.019 57.2847 109.77ZM91.5709 101.789C104.922 101.095 116.041 98.3054 124.555 93.5569C124.679 95.2736 124.154 97.011 123.041 98.3795C122.296 98.8564 121.609 99.4256 120.995 100.082C116.655 102.615 112.049 104.685 107.289 106.252C103.9 104.529 99.8237 104.742 96.6331 106.781C95.4049 104.686 93.6513 102.972 91.5709 101.789ZM117.542 110.811C116.525 111.354 114.572 111.082 112.287 109.771C114.246 109.02 116.178 108.19 118.071 107.279C118.063 107.802 118.093 108.33 118.162 108.858C118.358 110.375 117.744 110.703 117.542 110.811ZM123.574 8.17612C129.411 8.43863 135.049 10.7024 139.448 14.5516L146.138 20.4047C147.308 21.4275 148.01 22.8466 148.115 24.3982C148.22 25.9512 147.715 27.4508 146.693 28.623C145.673 29.7952 144.256 30.4982 142.708 30.6035C141.16 30.7088 139.661 30.2032 138.491 29.1792L137.255 28.098C136.69 25.5197 135.395 23.1767 133.474 21.3235C130.516 18.471 126.551 17.2352 122.716 17.6016C119.314 14.7752 115.591 12.4256 111.564 10.553C115.306 8.82589 119.438 7.99159 123.574 8.17612ZM132.599 31.0038C132.621 33.4092 131.669 35.7549 129.985 37.4417L119.399 48.0485C118.533 48.9165 117.381 49.3948 116.157 49.3948C114.932 49.3948 113.781 48.9165 112.916 48.0485L102.328 37.4417C100.645 35.7549 99.6927 33.4079 99.7161 31.0038C99.7381 28.662 100.653 26.5009 102.293 24.9193C103.955 23.317 106.118 22.5178 108.281 22.5178C110.502 22.5178 112.721 23.3599 114.396 25.0389C115.368 26.0122 116.945 26.0122 117.918 25.0389C121.224 21.7251 126.653 21.6718 130.02 24.9193C131.371 26.2228 132.229 27.9187 132.503 29.7861C132.504 29.7965 132.506 29.8056 132.507 29.816C132.563 30.2058 132.595 30.6022 132.599 31.0038ZM32.3162 28.098L31.0802 29.1792C28.6652 31.2923 24.9856 31.0427 22.8766 28.623C21.8559 27.4508 21.3514 25.9512 21.4564 24.3982C21.5615 22.8466 22.2632 21.4275 23.4331 20.4047L30.1217 14.5516C34.5224 10.7024 40.1605 8.43863 45.997 8.17612C50.1318 7.99159 54.264 8.82589 58.0072 10.553C53.98 12.4256 50.2576 14.7765 46.8543 17.6016C43.0203 17.2352 39.0541 18.4723 36.097 21.3248C34.1761 23.1767 32.8817 25.5197 32.3162 28.098ZM51.6532 25.0389C52.6259 26.0122 54.2018 26.0122 55.1745 25.0389C58.4806 21.7251 63.9098 21.6718 67.2768 24.9193C68.9175 26.5009 69.8332 28.662 69.8553 31.0038C69.8786 33.4079 68.9253 35.7549 67.2431 37.4417L56.6557 48.0485C54.8684 49.8405 51.9593 49.8405 50.172 48.0485L39.5846 37.4417C37.9024 35.7549 36.9491 33.4092 36.9724 31.0038C36.9763 30.6022 37.0088 30.2058 37.0645 29.816C37.0658 29.8056 37.0671 29.7939 37.0684 29.7822C37.3421 27.9174 38.1994 26.2215 39.5509 24.9193C41.2123 23.317 43.3757 22.5178 45.5378 22.5178C47.7583 22.5178 49.9787 23.3612 51.6532 25.0389ZM37.2539 80.8123C31.477 73.6272 29.66 64.151 31.9984 53.409C32.9738 48.9282 34.2967 44.7203 35.9439 40.8451C35.9841 40.8867 36.023 40.9296 36.0632 40.9699L46.6506 51.578C48.5144 53.4467 50.9645 54.3811 53.4145 54.3811C55.8632 54.3811 58.3133 53.4467 60.177 51.578L70.7645 40.9699C73.387 38.3422 74.8708 34.6918 74.8357 30.9557C74.8007 27.2637 73.3429 23.842 70.732 21.3235C65.985 16.7466 58.6414 16.3281 53.4145 20.024C53.1408 19.8304 52.8607 19.651 52.5766 19.4808C56.1187 16.935 60.0136 14.9012 64.2457 13.386C64.4118 13.3457 64.5752 13.2898 64.7308 13.2157C70.7567 11.1261 77.4557 10.0721 84.7863 10.0721C92.117 10.0721 98.816 11.1261 104.842 13.2157C104.997 13.2898 105.16 13.3457 105.326 13.386C109.558 14.9012 113.453 16.935 116.996 19.4808C116.711 19.651 116.431 19.8304 116.158 20.024C110.931 16.3294 103.586 16.7479 98.8406 21.3248C96.2297 23.842 94.7719 27.2637 94.7356 30.9557C94.7006 34.6918 96.1843 38.3422 98.8069 40.9699L109.394 51.578C111.259 53.4467 113.708 54.3811 116.158 54.3811C118.607 54.3811 121.057 53.4467 122.922 51.578L133.508 40.9699C133.55 40.9296 133.587 40.8867 133.627 40.8451C135.276 44.719 136.599 48.9282 137.574 53.409C139.911 64.151 138.094 73.6272 132.319 80.8123C130.286 83.3399 127.796 85.579 124.88 87.5296C124.711 87.618 124.555 87.722 124.414 87.8415C115.148 93.8441 101.691 96.9734 84.7863 96.9734C67.8812 96.9734 54.4249 93.8441 45.1591 87.8415C45.019 87.722 44.8621 87.6167 44.6922 87.5283C41.7765 85.579 39.285 83.3399 37.2539 80.8123ZM53.2329 127.635C50.0228 127.635 47.0021 126.891 44.2551 125.424C37.63 121.885 34.0062 114.546 35.0217 106.724C35.2202 105.19 36.0023 103.828 37.2241 102.885C38.2435 102.099 39.4666 101.684 40.7337 101.684C40.9841 101.684 41.2383 101.7 41.4912 101.734C43.019 101.932 44.3796 102.716 45.3199 103.94C46.2615 105.164 46.6701 106.682 46.4704 108.216C46.0644 111.355 47.2369 113.906 49.6869 115.214C53.3146 117.153 58.5467 115.735 63.3417 111.515C65.7334 109.41 69.3896 109.648 71.4895 112.043C72.5076 113.205 73.0135 114.693 72.9136 116.235C72.8137 117.776 72.1211 119.188 70.9616 120.206C65.5194 124.997 59.2225 127.635 53.2329 127.635ZM84.785 139.061C76.1094 139.061 67.6867 136.334 60.9955 131.463C65.6283 130.096 70.1678 127.548 74.2482 123.956C74.4765 123.757 74.6905 123.546 74.8993 123.331C77.4492 125.985 80.9887 127.54 84.785 127.54C88.5826 127.54 92.1221 125.985 94.6721 123.331C94.8796 123.546 95.0949 123.757 95.3231 123.957C99.4035 127.548 103.943 130.096 108.576 131.464C101.885 136.334 93.4619 139.061 84.785 139.061ZM105.27 160.929C104.215 161.855 102.864 162.366 101.463 162.366C99.7991 162.366 98.2168 161.649 97.1208 160.398C93.2479 155.976 91.1689 150.486 90.7862 143.673C94.7927 143.167 98.6551 142.154 102.288 140.669C102.285 140.865 102.283 141.061 102.283 141.259C102.279 141.326 102.28 141.395 102.283 141.464C102.298 145.482 103.06 149.64 105.799 152.765C107.899 155.163 107.66 158.826 105.27 160.929ZM127.726 148.76C127.663 148.77 127.596 148.775 127.533 148.785C127.398 147.851 126.74 147.034 125.779 146.747C124.46 146.356 123.075 147.107 122.683 148.427C122.639 148.575 122.587 148.718 122.533 148.857C116.678 148.26 111.246 145.306 107.283 140.523C107.302 139.8 107.344 139.019 107.415 138.175C109.355 137.067 111.206 135.806 112.955 134.405C114.455 136.475 116.268 138.074 118.373 139.169C120.932 140.5 123.76 140.993 126.551 140.587C127.64 140.43 128.726 140.707 129.605 141.367C130.487 142.027 131.059 142.992 131.216 144.084C131.541 146.337 129.975 148.435 127.726 148.76ZM84.7448 90.1196C95.2777 90.1196 103.07 84.5238 106.121 78.9787C108.189 75.2204 108.233 71.253 106.244 68.0964C102.309 61.8547 96.624 63.2517 91.6072 64.4824C90.1857 64.832 88.7344 65.188 87.2753 65.4024V61.3505C87.7435 61.2244 88.2039 61.062 88.6527 60.8619L94.7564 58.1432C96.4814 57.3739 97.7667 55.8899 98.2842 54.0705C98.8017 52.2525 98.4891 50.3122 97.4282 48.7476C96.0871 46.771 94.0767 45.3493 91.7694 44.7437C87.2 43.5456 82.3713 43.5456 77.802 44.7437C75.4946 45.3493 73.4843 46.771 72.1432 48.7476C71.0822 50.3122 70.7696 52.2525 71.2871 54.0705C71.8046 55.8899 73.0913 57.3739 74.815 58.1419L80.9187 60.8619C81.3674 61.062 81.8279 61.2244 82.2961 61.3505V65.4128C80.8097 65.1997 79.3298 64.8385 77.8824 64.4837C72.8656 63.2517 67.1796 61.856 63.2458 68.0964C61.2562 71.2543 61.3015 75.2204 63.369 78.98C66.4195 84.5238 74.2132 90.1196 84.7448 90.1196ZM76.8383 53.5819C76.3286 53.3558 76.1418 52.9334 76.077 52.7034C76.0108 52.4721 75.9473 52.0159 76.2624 51.5533C76.9265 50.5748 77.9213 49.8704 79.064 49.5715C80.9355 49.0803 82.8603 48.8347 84.785 48.8347C86.7111 48.8347 88.6358 49.0803 90.5074 49.5715C91.65 49.8704 92.6448 50.5748 93.3089 51.5533C93.6228 52.0159 93.5605 52.4721 93.4944 52.7034C93.4295 52.9334 93.2428 53.3558 92.7317 53.5832L86.6294 56.3018C85.4569 56.8242 84.1132 56.8242 82.942 56.3018L76.8383 53.5819ZM67.4571 70.7604C68.5232 69.0684 69.6503 68.4148 71.4337 68.4148C72.7502 68.4148 74.4246 68.7721 76.6969 69.3296C79.1106 69.9222 81.8447 70.5941 84.7448 70.5941C84.7539 70.5941 84.763 70.5928 84.7708 70.5928C84.7759 70.5928 84.7811 70.5941 84.785 70.5941C84.8019 70.5941 84.8187 70.5915 84.8356 70.5915C87.702 70.5772 90.4049 69.9157 92.794 69.3296C98.1428 68.0171 100.179 67.8196 102.033 70.7617C103.322 72.8072 102.595 75.0502 101.759 76.5707C99.4917 80.6928 93.2 85.1294 84.7448 85.1294C76.291 85.1294 69.9992 80.6928 67.7308 76.5707C66.8942 75.0502 66.1679 72.8072 67.4571 70.7604ZM139.207 126.505C137.831 126.505 136.717 127.622 136.717 129C136.717 130.544 135.697 132.803 134.854 133.644C133.879 134.614 133.874 136.195 134.844 137.172C135.33 137.662 135.97 137.907 136.609 137.907C137.245 137.907 137.879 137.666 138.365 137.182C140.233 135.321 141.697 131.728 141.697 129C141.697 127.623 140.582 126.505 139.207 126.505Z" fill="black"/>
</g>
<defs>
<clipPath id="clip0_223_13496">
<rect width="170" height="170" fill="white"/>
</clipPath>
</defs>
</svg>
