<svg width="375" height="376" viewBox="0 0 375 376" fill="none" xmlns="http://www.w3.org/2000/svg">
<path d="M187.5 343.875C264.564 343.875 327.037 334.626 327.037 323.217C327.037 311.808 264.564 302.56 187.5 302.56C110.436 302.56 47.9625 311.808 47.9625 323.217C47.9625 334.626 110.436 343.875 187.5 343.875Z" fill="#E7E7E7"/>
<path d="M306.495 183.736C306.283 180.085 305.769 176.458 304.957 172.892C304.207 169.689 303.112 166.403 301.095 163.748C300.207 162.498 299.081 161.437 297.783 160.625C296.484 159.813 295.038 159.267 293.527 159.018C290.527 158.657 287.775 159.981 285.555 161.853C282.81 164.177 280.703 167.252 278.73 170.23C276.563 173.561 274.592 177.016 272.827 180.578C272.767 180.698 272.947 180.796 273.007 180.676C274.528 177.657 276.284 174.763 278.257 172.02C280.061 169.386 282.094 166.917 284.332 164.643C286.365 162.65 288.952 160.785 291.907 160.695C294.862 160.605 297.547 162.252 299.317 164.515C301.29 167.057 302.317 170.223 303.067 173.306C303.845 176.701 304.346 180.154 304.567 183.631C305.152 190.767 305.318 197.957 305.467 205.116C305.557 209.169 305.61 213.222 305.647 217.275C305.647 219.331 305.665 221.384 305.7 223.434C305.643 225.414 305.743 227.396 306 229.36C306.06 229.759 306.712 229.721 306.75 229.36C306.994 227.496 307.084 225.614 307.02 223.735C307.05 221.79 307.075 219.842 307.095 217.892C307.095 214.132 307.148 210.327 307.132 206.544C307.103 198.942 307.012 191.316 306.495 183.736Z" fill="#263238"/>
<path d="M283.253 164.989C282.615 165.252 283.485 157.642 280.493 156.664C276.263 155.288 266.572 157.777 261.202 164.989C260.155 166.461 259.364 168.101 258.863 169.839C261.533 168.546 270.345 164.455 272.558 165.711C274.575 166.854 261.938 170.824 258.045 173.381C257.872 174.44 257.754 175.506 257.693 176.577C259.943 175.005 266.168 170.93 268.943 170.93C272.025 170.93 261.81 176.344 257.693 180.232C257.847 184.003 258.654 187.718 260.077 191.211C261.135 189.203 263.46 185.3 266.475 183.187C270.645 180.269 272.475 184.969 267.225 188.692C264.42 190.67 262.395 192.316 261.12 193.414C262.304 195.701 263.886 197.756 265.793 199.483C267.66 197.375 270.017 195.761 272.655 194.783C273.668 194.422 275.333 193.963 277.335 193.279C278.048 190.726 278.525 188.114 278.76 185.473C278.88 182.383 282.51 184.097 281.048 189.594C280.77 190.632 280.515 191.489 280.298 192.196C281.88 191.648 283.391 190.911 284.798 190C284.901 186.695 284.619 183.389 283.957 180.149C283.042 175.276 286.748 174.93 287.55 181.059C287.918 183.894 287.385 186.827 287.205 188.737C291.39 186.293 294.855 181.33 294.855 181.33C294.47 178.587 293.481 175.964 291.96 173.652C289.898 170.539 292.125 169.32 294.21 172.148C295.358 173.712 296.04 176.344 296.415 178.359C300.75 163.568 295.275 160.176 283.253 164.989ZM263.198 181.187C262.058 179.525 266.003 176.487 266.858 177.517C267.953 178.841 264.338 182.849 263.198 181.187ZM289.56 174.366C287.962 175.532 286.433 171.689 287.468 171.027C288.503 170.366 290.925 173.374 289.56 174.366Z" fill="#78BF9B" fill-opacity="0.4"/>
<path d="M285.892 172.208C285.352 171.133 284.782 170.057 284.167 169.027C283.597 168.004 282.932 167.037 282.18 166.139C282.352 165.929 282.517 165.711 282.69 165.508C282.765 165.417 282.645 165.305 282.57 165.387C282.367 165.613 282.172 165.854 281.977 166.087C281.939 166.108 281.91 166.143 281.895 166.184C281.145 167.079 280.455 167.997 279.787 168.937C278.604 169.205 277.437 169.541 276.292 169.944C275.115 170.343 273.945 170.757 272.805 171.238C272.685 171.291 272.745 171.486 272.857 171.433C273.997 170.93 275.145 170.441 276.322 170.042C277.5 169.644 278.572 169.38 279.697 169.057C279.33 169.576 278.947 170.102 278.625 170.636C276.504 171.31 274.44 172.153 272.452 173.155C270.367 174.148 268.357 175.306 266.362 176.464C266.351 176.471 266.341 176.48 266.333 176.491C266.326 176.502 266.32 176.514 266.317 176.527C266.314 176.54 266.313 176.553 266.315 176.566C266.317 176.579 266.322 176.592 266.329 176.603C266.336 176.615 266.345 176.625 266.355 176.632C266.366 176.64 266.378 176.646 266.391 176.649C266.404 176.652 266.417 176.653 266.43 176.651C266.444 176.649 266.456 176.644 266.467 176.637C268.434 175.489 270.456 174.439 272.527 173.494C274.462 172.584 276.457 171.839 278.407 170.975C273.502 178.66 270.555 187.519 266.625 195.723C266.565 195.843 266.752 195.941 266.797 195.821C268.005 192.941 269.385 190.143 270.697 187.308C271.867 184.766 273.015 182.217 274.192 179.675C274.537 178.923 274.89 178.171 275.25 177.419C275.032 181.518 275.122 185.691 274.455 189.745C274.455 189.771 274.465 189.795 274.484 189.814C274.502 189.832 274.527 189.842 274.552 189.842C274.578 189.842 274.603 189.832 274.621 189.814C274.64 189.795 274.65 189.771 274.65 189.745C274.935 185.36 275.707 181.044 275.677 176.637C275.677 176.637 275.677 176.6 275.677 176.585C276.51 174.908 277.402 173.253 278.362 171.644C279.982 175.487 281.692 179.382 282.457 183.503C282.457 183.631 282.682 183.571 282.652 183.443C281.542 179.314 280.515 175.171 278.535 171.358C279.576 169.616 280.731 167.946 281.992 166.357C282.532 167.38 283.237 168.343 283.852 169.32C284.467 170.298 285.052 171.23 285.615 172.208C286.825 174.285 287.852 176.464 288.682 178.72C288.727 178.841 288.93 178.78 288.877 178.66C287.917 176.524 286.965 174.329 285.892 172.208Z" fill="#263238"/>
<path d="M324.585 181.54C321.435 178.374 317.775 174.216 312.907 174.231C308.205 174.231 304.747 178.028 302.76 181.939C300.682 186.03 299.94 190.67 299.355 195.174C298.663 200.571 298.247 206 298.11 211.44C298.02 214.448 298.035 217.456 298.11 220.509C298.107 223.57 298.338 226.627 298.8 229.653C298.814 229.762 298.867 229.862 298.949 229.934C299.031 230.006 299.137 230.046 299.246 230.046C299.356 230.046 299.461 230.006 299.543 229.934C299.625 229.862 299.678 229.762 299.692 229.653C299.835 227.112 299.737 224.555 299.692 222.013C299.647 219.471 299.692 216.997 299.805 214.493C299.992 209.424 300.36 204.364 300.952 199.325C301.47 194.926 301.882 190.399 303.202 186.15C304.387 182.322 306.608 177.938 310.485 176.254C315.773 173.953 320.94 178.149 324.405 181.698C324.518 181.766 324.675 181.638 324.585 181.54Z" fill="#263238"/>
<path d="M334.17 186.496C329.948 186.067 331.11 183.759 334.92 184.774C336.983 185.332 338.926 186.268 340.65 187.534C340.796 184.102 340.234 180.677 339 177.472C335.475 176.585 332.25 178.141 328.973 179.728C325.695 181.315 323.483 177.261 327.353 175.336C328.973 174.536 330.749 174.105 332.555 174.072C334.361 174.04 336.152 174.407 337.8 175.148C337.493 174.614 337.185 174.126 336.863 173.644C335.954 172.312 334.869 171.111 333.638 170.072C330.758 170.305 329.138 172.088 328.305 172.652C327.09 173.449 325.185 172.509 326.393 170.779C327.338 169.426 329.693 168.809 331.643 168.644C328.17 166.591 324.705 166.591 322.747 167.478C319.342 169.035 320.295 178.006 320.295 178.006C320.295 178.006 311.37 173.216 308.445 176.983C307.519 178.299 306.887 179.799 306.593 181.382C309.75 180.217 313.635 179.939 313.995 181.834C314.355 183.729 309.045 183.247 306.27 183.571C305.932 187.579 306.87 192.264 310.058 195.603C312.765 190.384 318.788 186.413 319.65 189.293C320.513 192.174 314.033 192.903 311.4 196.813C312.547 197.657 313.794 198.354 315.113 198.889C316.56 196.716 318.975 193.723 320.13 194.633C321.285 195.543 318.255 197.641 316.29 199.37C319.086 200.385 321.957 201.177 324.878 201.739C325.628 198.731 326.97 195.904 328.298 196.167C329.625 196.43 327.053 199.581 325.943 201.957C329.841 202.726 333.788 203.229 337.755 203.461C337.995 203.393 339.623 198.633 340.35 192.715C338.398 191.93 336.318 191.515 334.215 191.489C331.215 191.346 330.945 187.932 335.415 188.414C337.287 188.684 339.061 189.421 340.575 190.557C340.62 189.933 340.658 189.293 340.68 188.639C338.681 187.482 336.464 186.752 334.17 186.496ZM333.053 181.834C333.51 180.818 336.24 181.179 335.97 182.428C335.7 183.676 332.678 182.736 333.053 181.834ZM310.718 190.294C310.553 189.444 312.375 188.669 312.638 189.346C312.9 190.023 310.943 191.429 310.718 190.294ZM323.565 197.272C322.11 196.52 324.188 193.196 325.523 193.73C326.603 194.174 325.013 198.032 323.565 197.272Z" fill="#78BF9B" fill-opacity="0.4"/>
<path d="M337.2 202.762C335.198 199.4 333.218 195.994 331.11 192.723C330.135 191.219 329.108 189.715 328.035 188.211C328.2 188.211 328.358 188.128 328.515 188.098L329.318 187.947C329.933 187.835 330.548 187.744 331.17 187.684C331.793 187.624 332.348 187.594 332.933 187.586C333.562 187.551 334.193 187.584 334.815 187.684C334.89 187.684 334.898 187.579 334.815 187.586C334.185 187.586 333.548 187.526 332.918 187.519C332.288 187.511 331.703 187.519 331.095 187.564C330.488 187.609 329.955 187.654 329.385 187.737L328.455 187.902C328.268 187.902 328.073 187.97 327.893 188.023C326.803 186.519 325.675 185.052 324.51 183.623C327.98 181.931 331.676 180.748 335.483 180.112C335.55 180.112 335.528 179.999 335.483 180.014C331.618 180.548 327.862 181.69 324.353 183.398L322.418 181.044C321.668 180.164 320.918 179.314 320.258 178.382C320.22 178.322 320.13 178.382 320.183 178.442C321.083 179.441 321.931 180.485 322.725 181.57C321.293 182.573 319.93 183.671 318.645 184.857C317.317 186.045 316.013 187.263 314.745 188.526C314.7 188.572 314.745 188.647 314.82 188.602C316.065 187.353 317.365 186.165 318.72 185.037C320.07 183.909 321.503 182.871 322.86 181.751C323.168 182.165 323.475 182.571 323.79 182.977L324.263 183.593C324.263 183.593 324.263 183.593 324.263 183.638L325.823 185.691C325.218 186.573 324.698 187.509 324.27 188.489C323.82 189.444 323.43 190.421 323.07 191.407C322.355 193.459 321.796 195.563 321.398 197.701C321.398 197.769 321.488 197.799 321.495 197.701C321.924 195.593 322.536 193.527 323.325 191.527C323.715 190.497 324.158 189.497 324.615 188.519C325.073 187.541 325.538 186.737 325.928 185.819L327.263 187.624C327.39 187.805 327.51 187.985 327.638 188.158C327.638 188.203 327.638 188.248 327.683 188.256C329.055 190.181 330.368 192.151 331.643 194.151C331.565 194.288 331.507 194.435 331.47 194.588C331.388 194.828 331.313 195.076 331.238 195.34C331.095 195.836 330.983 196.332 330.885 196.844C330.788 197.355 330.735 197.799 330.69 198.28C330.684 198.823 330.644 199.366 330.57 199.904C330.57 199.987 330.683 199.987 330.668 199.904C330.632 199.4 330.67 198.893 330.78 198.4C330.849 197.882 330.944 197.367 331.065 196.859C331.178 196.392 331.298 195.934 331.433 195.482C331.508 195.257 331.575 195.031 331.658 194.806C331.74 194.58 331.755 194.557 331.793 194.43C332.393 195.372 332.983 196.315 333.563 197.257C334.718 199.137 335.868 201.02 337.013 202.905C337.11 202.942 337.26 202.86 337.2 202.762Z" fill="#263238"/>
<path d="M306.285 228.608C306.233 226.698 305.933 224.78 305.73 222.885C305.528 220.99 305.31 219.125 305.107 217.185C304.717 213.515 304.5 209.763 303.607 206.168C302.961 203.035 301.393 200.167 299.107 197.934C297.93 196.753 296.384 196.012 294.728 195.836C293.062 195.788 291.427 196.293 290.077 197.272C288.539 198.408 287.213 199.808 286.162 201.408C285.026 202.989 284.006 204.65 283.11 206.379C283.11 206.439 283.177 206.484 283.215 206.424C284.908 203.54 287.151 201.018 289.815 199.002C291.001 198.023 292.449 197.419 293.978 197.265C294.723 197.253 295.464 197.39 296.157 197.668C296.849 197.945 297.48 198.358 298.013 198.881C300.225 200.807 301.507 203.649 302.272 206.439C303.18 209.748 303.473 213.207 303.923 216.614C304.193 218.629 304.447 220.644 304.71 222.63C304.972 224.615 305.145 226.69 305.565 228.646C305.57 228.741 305.613 228.831 305.684 228.895C305.755 228.96 305.848 228.993 305.944 228.988C306.039 228.983 306.129 228.94 306.193 228.869C306.257 228.798 306.29 228.704 306.285 228.608Z" fill="#263238"/>
<path d="M294.488 199.934C290.123 199.852 285.488 203.115 285.488 203.115C285.488 203.115 287.94 194.595 281.115 194.843C277.058 195.009 271.995 199.272 270.975 205.928C272.542 205.093 275.842 203.491 278.475 203.446C282.007 203.378 282.225 206.153 277.365 206.574C275.155 206.702 272.965 207.065 270.832 207.657C270.752 209.74 271.031 211.821 271.658 213.809C274.373 212.154 279.023 210.395 279.158 212.673C279.263 214.373 274.463 214.508 272.093 215.102C273.089 217.71 274.461 220.158 276.165 222.366C279.494 221.88 282.781 221.138 285.997 220.148C286.009 218.95 285.906 217.754 285.69 216.576C285.113 213.568 287.34 213.485 287.633 216.411C287.726 217.5 287.655 218.598 287.423 219.667C289.637 218.919 291.754 217.909 293.73 216.659C293.672 214.349 293.199 212.07 292.335 209.928C291.465 207.552 293.19 206.168 294.638 208.921C295.575 210.68 295.2 213.982 294.885 215.839C295.67 215.235 296.367 214.524 296.955 213.726C301.613 207.266 298.838 200.032 294.488 199.934ZM275.67 201.536C275.828 200.303 278.873 200.536 278.715 201.491C278.558 202.446 275.483 202.89 275.67 201.536ZM272.25 211.508C272.543 210.756 273.863 210.831 273.795 211.455C273.728 212.079 272.07 212.064 272.25 211.508ZM290.363 215.824C288.593 215.899 289.178 212.207 290.205 212.064C291.075 211.914 291.75 215.741 290.363 215.824Z" fill="#78BF9B" fill-opacity="0.4"/>
<path d="M288.75 216.132C288.577 215.674 288.428 215.207 288.285 214.741C288.42 215.215 288.532 215.689 288.622 216.17C288.675 216.26 288.817 216.223 288.75 216.132Z" fill="#263238"/>
<path d="M286.98 210.207C286.658 209.267 286.298 208.326 285.938 207.402C285.735 206.905 285.533 206.416 285.323 205.898C285.165 205.464 284.958 205.051 284.707 204.664C284.923 204.281 285.108 203.881 285.263 203.469C285.263 203.431 285.225 203.401 285.203 203.431C284.7 204.079 284.255 204.772 283.875 205.499C283.68 205.822 283.5 206.153 283.313 206.477C282.926 206.51 282.543 206.571 282.165 206.657C281.76 206.732 281.348 206.815 280.943 206.905L279.728 207.191C279.33 207.281 278.925 207.417 278.52 207.477C278.422 207.477 278.46 207.642 278.52 207.605C278.938 207.46 279.367 207.349 279.803 207.274C280.193 207.191 280.553 207.123 280.98 207.063C281.408 207.003 281.775 206.958 282.173 206.92L283.08 206.845C282.915 207.131 282.743 207.417 282.585 207.702L282.518 207.845C282.186 207.838 281.856 207.876 281.535 207.958C281.183 208.018 280.83 208.086 280.478 208.169C279.765 208.327 279.06 208.492 278.355 208.687C276.855 209.101 275.423 209.575 273.968 210.056C273.885 210.056 273.968 210.206 274.013 210.176C275.461 209.686 276.936 209.276 278.43 208.951C279.128 208.793 279.825 208.627 280.523 208.484L281.573 208.259C281.848 208.214 282.121 208.154 282.39 208.078C281.64 209.467 280.938 210.883 280.283 212.327C278.865 215.463 277.673 218.697 276.465 221.923C276.465 221.998 276.555 222.05 276.585 221.975C277.754 218.769 279.111 215.635 280.65 212.59C280.92 212.034 281.205 211.485 281.475 210.928C281.475 211.041 281.528 211.154 281.55 211.267L281.753 212.41C281.88 213.162 282.008 213.914 282.12 214.703C282.447 216.268 282.633 217.858 282.675 219.456C282.675 219.554 282.818 219.546 282.803 219.456C282.683 218.704 282.683 217.907 282.638 217.14C282.593 216.373 282.525 215.538 282.435 214.741C282.345 213.944 282.248 213.237 282.12 212.44C282.053 212.056 281.993 211.688 281.918 211.297C281.898 211.011 281.827 210.73 281.707 210.47C282.105 209.665 282.503 208.86 282.908 208.056C283.313 207.251 283.658 206.552 284.055 205.8C284.22 205.491 284.4 205.168 284.58 204.845C284.703 205.241 284.854 205.628 285.03 206.003C285.203 206.431 285.383 206.86 285.555 207.296C285.945 208.251 286.305 209.214 286.673 210.176C287.19 211.545 287.76 212.951 288.173 214.373C287.798 213.011 287.445 211.59 286.98 210.207Z" fill="#263238"/>
<path d="M288.315 214.741C288.315 214.628 288.248 214.523 288.218 214.41C288.248 214.523 288.285 214.628 288.315 214.741Z" fill="#263238"/>
<path d="M317.7 224.863L317.213 235.045L315.982 261.297H288.968L287.737 235.045L287.258 224.863H317.7Z" fill="#37474F"/>
<path d="M317.7 224.863L317.213 235.045H287.737L287.258 224.863H317.7Z" fill="#263238"/>
<path d="M319.62 220.742H285.338V228.976H319.62V220.742Z" fill="#37474F"/>
<path d="M295.897 261.297H291.157V265.606H295.897V261.297Z" fill="#37474F"/>
<path d="M295.897 261.297H291.157V263.456H295.897V261.297Z" fill="#263238"/>
<path d="M313.8 261.297H309.06V265.606H313.8V261.297Z" fill="#37474F"/>
<path d="M313.8 261.297H309.06V263.456H313.8V261.297Z" fill="#263238"/>
<path d="M34.3125 265.606L72.615 265.426L110.91 265.358L187.5 265.238L264.09 265.358L302.393 265.426L340.688 265.606L302.393 265.794L264.09 265.862L187.5 265.982L110.91 265.862L72.615 265.794L34.3125 265.606Z" fill="#263238"/>
<path d="M181.275 86.6605C181.69 86.9393 181.69 86.9392 181.69 86.939L181.69 86.9387L181.691 86.9376L181.693 86.9344L181.701 86.9231L181.728 86.8819C181.751 86.8461 181.784 86.7941 181.826 86.7269C181.91 86.5926 182.028 86.3973 182.168 86.1496C182.448 85.6545 182.819 84.9479 183.181 84.0978C183.903 82.4066 184.611 80.1066 184.482 77.7601C184.378 75.7703 183.613 74.0573 182.49 72.9133C181.365 71.7687 179.858 71.177 178.323 71.5237C177.207 71.7743 176.516 72.4308 176.14 73.2653C175.777 74.072 175.718 75.0184 175.778 75.8797C175.811 76.3415 175.878 76.7928 175.959 77.2059C175.647 76.9191 175.295 76.624 174.915 76.3545C174.21 75.8545 173.37 75.4127 172.49 75.309C171.58 75.2018 170.662 75.4628 169.873 76.2993C168.777 77.4424 168.505 79.0449 168.9 80.6021C169.295 82.1593 170.36 83.7021 171.993 84.8174L171.993 84.8177C173.933 86.1393 176.27 86.7185 178.093 86.9724C179.009 87.1 179.806 87.147 180.375 87.1621C180.66 87.1696 180.889 87.1692 181.047 87.1668C181.127 87.1656 181.188 87.164 181.231 87.1626L181.28 87.1607L181.294 87.1601L181.298 87.16L181.299 87.1599L181.299 87.1599C181.3 87.1599 181.3 87.1599 181.275 86.6605ZM181.275 86.6605L181.69 86.9393L181.55 87.1474L181.3 87.1599L181.275 86.6605Z" fill="#EDCC1C" stroke="#333333"/>
<path d="M187.178 65.4691C187.042 65.679 187.042 65.6789 187.042 65.6789L187.041 65.6787L187.041 65.6783L187.039 65.677L187.032 65.6723L187.005 65.6546C186.982 65.6392 186.949 65.6166 186.906 65.587C186.821 65.5277 186.7 65.4405 186.551 65.3273C186.253 65.1011 185.846 64.7703 185.407 64.3509C184.531 63.5155 183.508 62.3132 182.976 60.871C182.525 59.6608 182.542 58.4414 182.92 57.4668C183.297 56.4918 184.043 55.7506 185.042 55.5459L185.045 55.5453L185.045 55.5453C185.764 55.4076 186.332 55.6147 186.762 56.006C187.181 56.3869 187.459 56.9318 187.646 57.4649C187.779 57.8442 187.87 58.2293 187.932 58.5677C188.064 58.25 188.234 57.8927 188.444 57.5498C188.738 57.0678 189.124 56.5933 189.613 56.3081C190.115 56.0152 190.712 55.9307 191.385 56.2148L191.392 56.2178L191.392 56.2179C192.301 56.636 192.86 57.5114 193.018 58.537C193.176 59.5626 192.938 60.7509 192.249 61.8425C191.428 63.1483 190.177 64.1125 189.145 64.7468C188.627 65.0652 188.159 65.3034 187.82 65.4622C187.651 65.5416 187.514 65.6014 187.418 65.6414C187.37 65.6615 187.333 65.6766 187.307 65.6868L187.277 65.6985L187.269 65.7016L187.267 65.7025L187.266 65.7027L187.266 65.7028C187.266 65.7029 187.266 65.7029 187.178 65.4691ZM187.178 65.4691L187.042 65.679L187.148 65.7476L187.266 65.7029L187.178 65.4691Z" fill="#EDCC1C" stroke="#333333" stroke-width="0.5"/>
<path d="M188.145 220.78C188.483 221.449 188.483 221.449 188.484 221.449L188.485 221.448L188.492 221.445L188.517 221.432L188.612 221.383C188.696 221.34 188.819 221.276 188.981 221.191C189.304 221.021 189.779 220.769 190.388 220.434C191.607 219.766 193.366 218.771 195.532 217.463C199.862 214.848 205.824 210.981 212.351 205.967C225.394 195.947 240.75 181.309 249.838 162.892C257.437 147.504 258.847 131.463 255.325 118.328C251.803 105.193 243.328 94.9189 231.15 91.2292C222.494 88.6044 215.388 89.1107 209.606 91.3987C203.836 93.6821 199.449 97.7141 196.172 102.038C192.896 106.361 190.709 111.002 189.342 114.552C188.836 115.866 188.442 117.034 188.145 117.985C187.848 117.034 187.453 115.866 186.947 114.552C185.58 111.002 183.392 106.361 180.114 102.038C176.835 97.7139 172.445 93.682 166.671 91.3987C160.885 89.1107 153.774 88.6045 145.11 91.2292L145.11 91.2292C132.932 94.9189 124.457 105.193 120.934 118.328C117.411 131.463 118.819 147.504 126.415 162.892L126.415 162.892C135.525 181.309 150.891 195.947 163.938 205.967C170.467 210.981 176.428 214.848 180.759 217.463C182.925 218.771 184.683 219.766 185.902 220.434C186.511 220.769 186.986 221.021 187.309 221.191C187.471 221.276 187.594 221.34 187.678 221.383L187.773 221.432L187.798 221.445L187.805 221.448L187.806 221.449C187.807 221.449 187.807 221.449 188.145 220.78ZM188.145 220.78L188.483 221.449L188.145 221.62L187.807 221.449L188.145 220.78Z" fill="#E8B0C1" stroke="#333333" stroke-width="1.5"/>
<path d="M246.335 133.86L246.17 134.048L246.265 134.132L246.389 134.105L246.335 133.86ZM246.335 133.86C246.389 134.105 246.389 134.105 246.389 134.105L246.389 134.104L246.39 134.104L246.392 134.104L246.401 134.102L246.432 134.095C246.459 134.088 246.498 134.079 246.548 134.066C246.649 134.04 246.793 134.001 246.973 133.948C247.331 133.84 247.829 133.674 248.388 133.437C249.503 132.965 250.883 132.204 251.886 131.054L251.887 131.054C252.733 130.079 253.147 128.931 253.138 127.889C253.129 126.847 252.694 125.896 251.828 125.368C251.207 124.986 250.603 124.98 250.064 125.195C249.538 125.403 249.086 125.815 248.722 126.247C248.463 126.555 248.242 126.884 248.063 127.178C248.053 126.834 248.02 126.439 247.945 126.043C247.84 125.487 247.647 124.907 247.291 124.467C246.925 124.015 246.395 123.724 245.666 123.752C244.664 123.79 243.827 124.408 243.315 125.312C242.802 126.216 242.603 127.42 242.866 128.685C243.177 130.193 244.008 131.535 244.75 132.492C245.123 132.972 245.476 133.359 245.737 133.627C245.867 133.761 245.974 133.866 246.05 133.937C246.087 133.972 246.117 134 246.137 134.018L246.161 134.04L246.167 134.045L246.169 134.047L246.17 134.048L246.17 134.048C246.17 134.048 246.17 134.048 246.335 133.86Z" fill="#EDCC1C" stroke="#333333" stroke-width="0.5"/>
<path d="M126.425 120.809C126.785 121.156 126.785 121.156 126.785 121.156L126.786 121.155L126.787 121.154L126.79 121.151L126.802 121.138C126.813 121.127 126.828 121.111 126.847 121.09C126.886 121.049 126.942 120.988 127.013 120.909C127.155 120.751 127.358 120.519 127.602 120.223C128.092 119.632 128.751 118.78 129.435 117.736C130.796 115.656 132.278 112.774 132.666 109.643L132.666 109.643C132.991 107.014 132.384 104.585 131.183 102.825C129.983 101.065 128.165 99.95 126.101 100.058C124.61 100.122 123.58 100.8 122.908 101.78C122.253 102.734 121.953 103.95 121.829 105.1C121.739 105.935 121.739 106.762 121.775 107.476C121.358 106.893 120.842 106.244 120.25 105.645C119.436 104.82 118.443 104.055 117.334 103.716C116.196 103.369 114.965 103.482 113.756 104.364C112.09 105.575 111.365 107.58 111.521 109.705C111.677 111.831 112.709 114.109 114.599 115.969L114.6 115.969C116.849 118.178 119.8 119.507 122.16 120.284C123.344 120.674 124.39 120.929 125.14 121.086C125.516 121.164 125.818 121.219 126.028 121.254C126.133 121.271 126.215 121.284 126.271 121.292C126.283 121.294 126.294 121.295 126.304 121.297C126.316 121.298 126.327 121.3 126.336 121.301L126.353 121.304L126.358 121.304L126.359 121.304L126.36 121.304C126.36 121.304 126.36 121.305 126.425 120.809ZM126.425 120.809L126.785 121.156L126.61 121.337L126.36 121.305L126.425 120.809Z" fill="#EDCC1C" stroke="#333333"/>
<path d="M319.5 312.433C317.04 313.336 244.05 314.772 241.305 313.095C240.982 312.922 239.805 288.715 239.805 288.715C239.887 288.369 238.672 286.038 236.805 282.797C231.6 273.69 221.423 257.38 221.423 257.38L264.75 244.25L282.548 279.985L287.048 289.106C287.048 289.106 297 293.009 305.677 296.897C311.1 299.296 315.75 301.492 316.838 302.304C319.628 304.455 321.997 311.561 319.5 312.433Z" fill="#AD6359"/>
<path d="M319.5 312.433C317.04 313.336 244.05 314.772 241.305 313.095C240.982 312.922 239.805 288.715 239.805 288.715C239.887 288.369 238.672 286.038 236.805 282.797L282.555 279.985L287.055 289.106C287.055 289.106 297.007 293.009 305.685 296.897C311.1 299.296 315.75 301.492 316.838 302.304C319.628 304.455 321.997 311.561 319.5 312.433Z" fill="white"/>
<path d="M319.838 312.712C317.303 313.607 244.223 314.87 241.403 313.148C240.33 312.501 239.04 301.221 239.828 288.715L286.943 287.963C286.943 287.963 314.25 300.048 317.115 302.304C319.98 304.56 322.373 311.809 319.838 312.712Z" fill="#EDCC1C"/>
<path opacity="0.1" d="M260.52 313.983C250.117 313.93 242.295 313.682 241.403 313.155C240.33 312.509 239.04 301.229 239.828 288.715H240.975L260.52 313.983Z" fill="#333333"/>
<path d="M318.75 309.824C306.495 309.734 257.062 310.531 244.935 311.373C244.837 311.373 244.837 311.448 244.935 311.448C257.077 311.809 306.51 310.614 318.75 310.027C318.997 309.989 318.997 309.824 318.75 309.824Z" fill="#263238"/>
<path d="M312.375 299.717C311.012 299.705 309.661 299.976 308.408 300.513C307.155 301.05 306.026 301.842 305.093 302.838C303.404 304.622 302.464 306.988 302.468 309.448C302.468 309.516 302.61 309.516 302.617 309.448C302.991 307.009 304.143 304.758 305.901 303.032C307.659 301.306 309.928 300.198 312.367 299.875C312.378 299.876 312.388 299.874 312.398 299.87C312.408 299.867 312.417 299.862 312.424 299.855C312.432 299.848 312.438 299.839 312.443 299.83C312.447 299.82 312.45 299.81 312.45 299.8C312.451 299.789 312.449 299.779 312.445 299.769C312.442 299.76 312.437 299.751 312.43 299.743C312.423 299.735 312.414 299.729 312.405 299.725C312.395 299.72 312.385 299.718 312.375 299.717Z" fill="#263238"/>
<path d="M290.805 289.129C285.9 289.129 280.245 290.971 277.267 295.047C277.155 295.205 277.38 295.371 277.522 295.288C281.773 292.965 286.258 291.102 290.902 289.731C290.972 289.708 291.032 289.661 291.07 289.598C291.108 289.535 291.123 289.461 291.111 289.388C291.099 289.315 291.062 289.249 291.006 289.202C290.95 289.154 290.878 289.128 290.805 289.129Z" fill="#263238"/>
<path d="M294.615 290.543C289.71 290.543 284.055 292.393 281.077 296.461C280.965 296.619 281.19 296.784 281.332 296.702C285.595 294.376 290.093 292.513 294.75 291.144C294.789 291.135 294.827 291.119 294.86 291.096C294.893 291.072 294.921 291.043 294.942 291.008C294.964 290.974 294.979 290.936 294.985 290.896C294.992 290.856 294.991 290.815 294.982 290.776C294.974 290.736 294.957 290.699 294.934 290.666C294.911 290.633 294.881 290.605 294.847 290.583C294.813 290.561 294.775 290.547 294.735 290.54C294.695 290.533 294.654 290.534 294.615 290.543Z" fill="#263238"/>
<path d="M298.425 291.956C293.527 291.956 287.872 293.806 284.925 297.875C284.812 298.033 285.037 298.198 285.18 298.115C289.41 295.786 293.875 293.913 298.5 292.528C298.555 292.498 298.6 292.453 298.628 292.397C298.656 292.341 298.667 292.278 298.659 292.216C298.651 292.154 298.624 292.096 298.582 292.05C298.541 292.003 298.486 291.971 298.425 291.956Z" fill="#263238"/>
<path d="M302.25 293.37C297.352 293.37 291.697 295.22 288.75 299.289C288.63 299.446 288.855 299.612 288.997 299.537C293.246 297.208 297.732 295.342 302.377 293.972C302.452 293.95 302.516 293.901 302.556 293.834C302.596 293.767 302.609 293.688 302.593 293.612C302.577 293.535 302.532 293.468 302.469 293.423C302.405 293.379 302.327 293.36 302.25 293.37Z" fill="#263238"/>
<path d="M247.845 299.619C242.34 299.732 242.505 308.305 248.017 308.192C253.53 308.079 253.35 299.514 247.845 299.619Z" fill="#263238"/>
<path d="M295.882 275.916C293.362 273.893 290.272 275.969 288.78 278.135C286.283 281.904 284.818 286.267 284.535 290.783C284.533 290.804 284.536 290.824 284.544 290.843C284.552 290.862 284.564 290.878 284.579 290.892C284.594 290.905 284.613 290.914 284.632 290.919C284.652 290.924 284.673 290.924 284.692 290.919C284.713 291.011 284.756 291.098 284.817 291.171C284.877 291.244 284.954 291.301 285.041 291.339C285.128 291.376 285.223 291.392 285.317 291.386C285.412 291.38 285.504 291.351 285.585 291.302C289.035 288.821 293.025 286.595 295.612 283.128C297.127 281.105 298.26 277.826 295.882 275.916ZM290.047 286.444C288.375 287.708 286.657 288.881 285.037 290.204C285.793 287.717 286.674 285.27 287.677 282.872C288.178 281.719 288.757 280.601 289.41 279.526C290.452 277.879 295.192 273.69 295.77 279.03C296.092 282 292.035 284.963 290.047 286.467V286.444Z" fill="#263238"/>
<path d="M272.385 292.814C276.667 293.4 281.047 292.107 285.232 291.377C285.323 291.353 285.407 291.308 285.477 291.245C285.548 291.182 285.602 291.103 285.636 291.016C285.671 290.928 285.684 290.833 285.675 290.739C285.666 290.645 285.635 290.555 285.585 290.475C285.601 290.463 285.613 290.448 285.622 290.43C285.63 290.413 285.635 290.393 285.635 290.374C285.635 290.354 285.63 290.335 285.622 290.317C285.613 290.299 285.601 290.284 285.585 290.272C282.166 287.301 278.027 285.286 273.585 284.429C270.997 283.97 267.36 284.73 267.03 287.948C266.76 291.024 269.887 292.475 272.385 292.814ZM269.385 290.069C265.995 285.91 272.302 285.459 274.2 285.873C275.421 286.159 276.621 286.528 277.793 286.978C280.245 287.873 282.517 289.106 284.857 290.234C282.78 290.468 280.74 290.874 278.677 291.174C276.202 291.543 271.245 292.363 269.378 290.069H269.385Z" fill="#263238"/>
<path d="M233.542 282.323L284.925 274.48C284.925 274.48 260.25 225.149 244.935 198.363C236.43 183.473 213.172 182.744 201.862 200.619C186.75 224.457 175.027 246.791 168.307 259.177L156.645 260.177L159.165 279.27L197.902 287.971C212.737 289.753 223.155 263.26 223.402 263.711C225.277 267.163 233.542 282.323 233.542 282.323Z" fill="#455A64"/>
<path d="M223.673 263.802C222.173 260.794 221.07 257.613 219.773 254.537C218.475 251.461 217.253 248.589 216.023 245.611C213.503 239.595 210.892 233.579 208.447 227.563C207.075 224.164 205.815 220.727 204.532 217.29C204.53 217.282 204.525 217.274 204.519 217.268C204.513 217.261 204.506 217.256 204.498 217.252C204.49 217.248 204.481 217.246 204.472 217.245C204.464 217.245 204.455 217.246 204.446 217.249C204.438 217.252 204.43 217.257 204.424 217.263C204.417 217.269 204.412 217.276 204.408 217.284C204.404 217.292 204.402 217.301 204.401 217.309C204.401 217.318 204.402 217.327 204.405 217.336C205.405 220.579 206.44 223.808 207.51 227.021C207.225 226.465 206.94 225.908 206.633 225.374C205.815 223.87 204.96 222.434 204.105 220.968C204.068 220.915 203.985 220.968 204.015 221.02C204.802 222.524 205.598 223.953 206.415 225.405C206.82 226.157 207.262 226.841 207.697 227.563C210.693 236.58 214.252 245.398 218.355 253.966C219.99 257.327 221.902 260.546 223.537 263.899C223.567 264.005 223.725 263.907 223.673 263.802Z" fill="#263238"/>
<path d="M234.69 273.164C232.208 269.329 226.313 257.725 224.19 253.717C219.915 245.603 216 237.324 212.302 228.901C210.217 224.164 208.26 219.373 206.302 214.568C206.302 214.568 206.235 214.568 206.25 214.568C209.201 223.216 212.585 231.71 216.39 240.016C220.14 248.348 232.313 270.78 234.503 273.209C234.608 273.344 234.75 273.262 234.69 273.164Z" fill="#263238"/>
<path d="M202.785 221.013C198.36 228.939 193.83 236.805 189.382 244.731C187.132 248.732 184.882 252.732 182.67 256.763C181.62 258.65 180.607 260.561 179.52 262.425C178.59 264.188 177.184 265.653 175.462 266.652C173.467 267.75 171.18 268.276 169.02 268.908C166.515 269.66 164.032 270.412 161.52 271.119C161.4 271.119 161.452 271.329 161.572 271.299C163.822 270.697 166.072 270.179 168.322 269.622C170.39 269.18 172.433 268.628 174.442 267.968C176.222 267.37 177.798 266.28 178.987 264.824C180.193 263.141 181.257 261.36 182.167 259.5C186.607 251.359 191.007 243.192 195.367 235C197.85 230.353 200.31 225.683 202.815 221.05C202.837 221.005 202.8 220.983 202.785 221.013Z" fill="#263238"/>
<path d="M232.372 275.089C235.447 274.533 238.605 274.262 241.71 273.863L251.048 272.645C257.258 271.833 278.393 268.457 279.99 267.93C280.013 267.921 280.031 267.904 280.043 267.883C280.055 267.862 280.059 267.837 280.054 267.813C280.05 267.789 280.037 267.768 280.019 267.752C280 267.736 279.977 267.727 279.952 267.727C278.452 267.682 264.6 269.532 261.495 269.983C255.285 270.901 249.12 272.006 242.932 273.051C241.162 273.352 239.4 273.69 237.638 274.006C235.875 274.322 234.113 274.698 232.343 274.924C232.321 274.928 232.301 274.94 232.289 274.959C232.276 274.977 232.271 275 232.275 275.021C232.279 275.043 232.291 275.063 232.31 275.076C232.328 275.088 232.351 275.093 232.372 275.089Z" fill="#263238"/>
<path d="M263.183 328.624C262.365 326.135 218.31 267.772 215.303 266.644C214.958 266.501 195.263 280.549 195.263 280.549C194.453 281.639 157.013 273.705 157.013 273.705L156.638 318.983L224.827 317.524C224.827 317.524 234.037 322.954 242.46 327.383C247.643 330.12 252.21 332.429 253.545 332.775C256.987 333.617 264 331.076 263.183 328.624Z" fill="#AD6359"/>
<path d="M253.582 332.745C252.262 332.407 247.68 330.098 242.497 327.353C234.082 322.931 224.865 317.494 224.865 317.494L209.692 317.825L185.932 279.383C191.145 280.308 195.037 280.887 195.3 280.519C195.3 280.519 214.98 266.464 215.332 266.622C218.332 267.742 262.388 326.097 263.213 328.594C264.037 331.091 256.995 333.625 253.582 332.745Z" fill="white"/>
<path d="M263.588 328.677C262.717 326.12 218.468 267.765 215.378 266.637C214.208 266.193 204.577 272.156 195.262 280.519L223.838 318.119C223.838 318.119 250.2 332.121 253.725 333.023C257.25 333.926 264.45 331.226 263.588 328.677Z" fill="#EDCC1C"/>
<path d="M260.625 329.609C252.967 320.014 222.99 280.594 216.143 270.524C216.09 270.442 216.142 270.404 216.202 270.479C224.002 279.819 253.702 319.487 260.782 329.489C260.932 329.699 260.79 329.812 260.625 329.609Z" fill="#263238"/>
<path d="M248.79 330.88C247.936 329.814 247.311 328.582 246.956 327.262C246.601 325.941 246.523 324.562 246.727 323.21C247.08 320.779 248.35 318.577 250.275 317.058C250.335 317.013 250.417 317.118 250.365 317.171C246.975 320.645 246.262 326.676 248.91 330.782C249 330.827 248.85 330.918 248.79 330.88Z" fill="#263238"/>
<path d="M227.145 320.412C224.145 316.539 222.052 310.952 223.395 306.087C223.447 305.899 223.718 305.974 223.74 306.132C224.549 310.919 225.866 315.605 227.67 320.111C227.694 320.179 227.693 320.254 227.668 320.321C227.642 320.388 227.595 320.445 227.532 320.481C227.47 320.516 227.397 320.529 227.326 320.517C227.256 320.504 227.191 320.467 227.145 320.412Z" fill="#263238"/>
<path d="M230.61 322.54C227.61 318.668 225.525 313.08 226.86 308.207C226.913 308.019 227.183 308.102 227.213 308.26C228.015 313.047 229.33 317.734 231.135 322.24C231.159 322.308 231.158 322.382 231.133 322.449C231.107 322.517 231.06 322.573 230.997 322.609C230.935 322.644 230.862 322.657 230.791 322.645C230.721 322.632 230.656 322.595 230.61 322.54Z" fill="#263238"/>
<path d="M234.075 324.661C231.075 320.788 228.99 315.201 230.325 310.335C230.377 310.147 230.647 310.223 230.677 310.388C231.484 315.172 232.799 319.857 234.6 324.36C234.624 324.428 234.623 324.502 234.598 324.57C234.572 324.637 234.525 324.694 234.462 324.729C234.4 324.765 234.327 324.778 234.256 324.765C234.186 324.753 234.121 324.716 234.075 324.661Z" fill="#263238"/>
<path d="M237.54 326.789C234.54 322.916 232.455 317.329 233.79 312.464C233.842 312.268 234.105 312.351 234.135 312.509C234.941 317.296 236.256 321.982 238.057 326.488C238.077 326.555 238.074 326.626 238.049 326.69C238.023 326.755 237.977 326.809 237.917 326.843C237.857 326.878 237.788 326.892 237.719 326.882C237.651 326.872 237.588 326.839 237.54 326.789Z" fill="#263238"/>
<path d="M208.77 280.082C205.455 275.683 212.265 270.502 215.595 274.909C218.925 279.315 212.092 284.489 208.77 280.082Z" fill="#263238"/>
<path d="M225.42 327.91C226.537 323.721 225.802 319.201 225.615 314.953C225.603 314.859 225.568 314.77 225.515 314.692C225.462 314.614 225.391 314.55 225.309 314.505C225.226 314.459 225.134 314.434 225.04 314.431C224.946 314.428 224.853 314.447 224.767 314.486C224.758 314.468 224.744 314.452 224.728 314.44C224.711 314.428 224.692 314.42 224.672 314.416C224.651 314.412 224.631 314.413 224.611 314.419C224.591 314.425 224.573 314.435 224.557 314.449C221.198 317.469 218.687 321.319 217.275 325.616C216.525 328.135 216.795 331.85 219.937 332.587C222.907 333.279 224.767 330.354 225.42 327.91ZM222.322 330.557C217.785 333.407 218.13 327.075 218.775 325.24C219.215 324.061 219.734 322.913 220.327 321.803C221.585 319.529 222.957 317.321 224.437 315.186C224.4 317.284 224.55 319.359 224.587 321.457C224.64 323.954 224.827 328.985 222.322 330.557Z" fill="#263238"/>
<path d="M211.5 302.447C209.182 304.703 210.84 308.034 212.805 309.794C216.225 312.756 220.365 314.759 224.805 315.599C224.825 315.604 224.845 315.604 224.865 315.6C224.885 315.595 224.903 315.586 224.918 315.572C224.934 315.559 224.946 315.542 224.954 315.524C224.961 315.505 224.964 315.484 224.963 315.464C225.056 315.454 225.145 315.422 225.224 315.371C225.303 315.32 225.369 315.251 225.416 315.17C225.464 315.089 225.491 314.998 225.497 314.904C225.503 314.81 225.487 314.716 225.45 314.629C223.432 310.869 221.7 306.628 218.625 303.62C216.817 301.868 213.75 300.319 211.5 302.447ZM221.25 309.583C222.292 311.396 223.237 313.253 224.34 315.035C222.007 313.892 219.638 312.862 217.418 311.486C216.337 310.844 215.302 310.128 214.32 309.343C212.82 308.102 209.272 302.861 214.635 302.951C217.567 303.003 219.997 307.418 221.25 309.583Z" fill="#263238"/>
<path d="M176.588 263.2C176.588 263.2 101.88 250.048 80.625 254.372C51 260.41 45.5325 295.536 67.5 308.651C95.355 325.248 207.54 322.029 207.54 322.029L180.75 276.495C180.75 276.495 139.538 267.802 102.165 269.066L176.918 280.496L176.588 263.2Z" fill="#455A64"/>
<path d="M182.542 279.436C182.516 279.36 182.499 279.282 182.49 279.203L182.445 279.015C182.445 278.864 182.362 278.721 182.325 278.571C182.243 278.27 182.13 277.977 182.017 277.684C181.905 277.39 181.77 277.104 181.635 276.811C181.489 276.532 181.321 276.266 181.132 276.014C181.132 276.014 181.087 275.976 181.065 275.961L181.02 275.924H180.952H180.885C176.347 275.082 145.552 270.66 140.97 270.133C136.387 269.607 131.722 269.178 127.095 268.787C117.854 267.959 108.577 267.6 99.3 267.712C98.43 267.712 97.5675 267.757 96.6975 267.787C96.51 267.727 96.315 267.697 96.1275 267.652C95.6775 267.539 95.235 267.434 94.7925 267.344C93.9525 267.186 93.1125 267.058 92.265 266.93C90.5175 266.659 88.755 266.479 87.015 266.178C86.9931 266.173 86.9702 266.177 86.9512 266.189C86.9322 266.201 86.9187 266.22 86.9137 266.242C86.9088 266.264 86.9127 266.287 86.9246 266.306C86.9366 266.325 86.9556 266.338 86.9775 266.343C88.7325 266.734 90.4575 267.246 92.2275 267.629L93.7275 267.953C90.3225 268.126 86.9325 268.389 83.5425 268.705C83.43 268.705 83.43 268.885 83.5425 268.878C88.1625 268.607 92.8125 268.569 97.4325 268.644C102.052 268.72 106.612 268.825 111.202 269.088C120.472 269.622 129.742 270.457 138.952 271.427C144.135 271.968 175.537 276.563 180.742 276.781C180.742 276.781 180.787 276.781 180.81 276.781C180.846 276.903 180.894 277.021 180.952 277.135C181.095 277.42 181.237 277.699 181.395 277.977C181.552 278.255 181.687 278.511 181.86 278.766L182.115 279.142L182.242 279.33C182.294 279.391 182.339 279.456 182.377 279.526C182.43 279.624 182.61 279.541 182.542 279.436Z" fill="#263238"/>
<path d="M197.888 319.262C196.23 316.6 194.82 313.765 193.298 310.99C191.775 308.215 190.253 305.485 188.723 302.718C185.678 297.228 174.735 278.781 173.655 277.496C173.639 277.475 173.617 277.461 173.592 277.456C173.567 277.451 173.541 277.456 173.519 277.469C173.497 277.481 173.48 277.502 173.472 277.526C173.464 277.551 173.465 277.577 173.475 277.601C173.993 279.03 180.825 291.242 182.392 293.964C185.535 299.409 188.843 304.748 192.098 310.125C193.028 311.629 193.988 313.178 194.933 314.705C195.878 316.231 196.882 317.713 197.745 319.299C197.798 319.45 197.948 319.359 197.888 319.262Z" fill="#263238"/>
<path d="M173.34 282.135C170.61 281.481 167.805 281.052 165.045 280.526L156.75 278.992C151.21 277.959 145.657 276.972 140.092 276.029C129.007 274.157 117.87 272.608 106.672 271.517C100.357 270.908 94.02 270.509 87.69 270.013C87.555 270.013 87.555 270.216 87.69 270.224C98.94 270.728 110.227 272.262 121.395 273.871C132.562 275.48 143.482 277.21 154.5 279.075C157.61 279.576 160.72 280.11 163.83 280.676C166.987 281.225 170.145 281.902 173.317 282.308C173.334 282.302 173.349 282.292 173.361 282.278C173.372 282.264 173.379 282.247 173.382 282.229C173.384 282.211 173.381 282.193 173.374 282.176C173.367 282.16 173.355 282.146 173.34 282.135Z" fill="#263238"/>
<path d="M155.602 195.888C172.665 213.312 195.202 228.57 200.842 228.563C208.575 228.563 225.368 208.161 232.065 201.408C234.772 198.686 208.665 180.6 206.302 183.962C202.791 188.912 198.915 193.593 194.707 197.964C194.115 198.814 168.675 188.827 161.295 185.481C144.885 178.044 147.135 187.248 155.602 195.888Z" fill="#AD6359"/>
<path d="M228.412 157.604C229.283 157.883 230.042 158.431 230.581 159.171C231.12 159.91 231.411 160.802 231.412 161.718C233.018 161.415 234.678 161.623 236.16 162.312C238.665 163.635 237.705 168.155 237.705 168.155C239.405 168.066 241.093 168.49 242.55 169.373C244.8 170.877 244.5 175.584 244.5 175.584C246.108 176.363 247.381 177.699 248.085 179.344C249.795 183.819 245.4 189.654 242.64 193.392C239.88 197.129 228.577 205.146 226.582 206.89L202.5 189.361C202.5 189.361 210.105 169.057 213.96 165.147C217.23 161.83 224.955 156.536 228.412 157.604Z" fill="#AD6359"/>
<path d="M231 161.785C226.702 164.477 223.425 168.298 219.937 171.922C219.862 172.005 219.99 172.125 220.065 172.043C223.493 168.395 227.565 165.478 231.15 161.973C231.162 161.963 231.173 161.951 231.18 161.937C231.188 161.924 231.193 161.908 231.194 161.893C231.196 161.877 231.195 161.861 231.19 161.846C231.186 161.831 231.179 161.816 231.169 161.804C231.159 161.792 231.147 161.781 231.133 161.774C231.119 161.766 231.104 161.761 231.088 161.76C231.073 161.758 231.057 161.759 231.042 161.764C231.026 161.768 231.012 161.775 231 161.785Z" fill="#263238"/>
<path d="M237.353 168.004C236.431 168.704 235.608 169.526 234.907 170.448C234.097 171.381 233.307 172.321 232.537 173.268C230.987 175.178 229.487 177.124 228.037 179.104C227.97 179.194 228.09 179.314 228.157 179.224C229.71 177.322 231.285 175.464 232.912 173.622C233.722 172.704 234.547 171.794 235.372 170.892C236.219 170.091 236.974 169.199 237.622 168.23C237.652 168.194 237.667 168.148 237.662 168.101C237.658 168.055 237.636 168.012 237.6 167.982C237.564 167.952 237.518 167.937 237.472 167.942C237.425 167.946 237.382 167.968 237.353 168.004Z" fill="#263238"/>
<path d="M244.448 175.66C243.628 176.312 242.923 177.097 242.363 177.983C241.68 178.863 240.983 179.743 240.285 180.623C238.89 182.375 237.495 184.12 236.04 185.827C235.965 185.91 236.093 186.03 236.168 185.94C237.668 184.225 239.168 182.526 240.668 180.788C241.388 179.941 242.105 179.086 242.82 178.224C243.545 177.502 244.137 176.657 244.568 175.727C244.56 175.675 244.5 175.637 244.448 175.66Z" fill="#263238"/>
<path d="M175.02 218.915L180.81 190.166C174.01 186.994 167.028 184.231 159.9 181.894C147.825 177.893 143.58 182.759 153.622 196.693C159.672 205.077 166.876 212.559 175.02 218.915Z" fill="#A0D9BB"/>
<path d="M159.75 198.701C160.324 198.511 160.938 198.48 161.527 198.611C161.847 198.732 162.122 198.947 162.319 199.227C162.515 199.507 162.624 199.84 162.63 200.182C162.625 200.41 162.679 200.635 162.785 200.837C162.891 201.038 163.047 201.209 163.237 201.333C163.448 201.47 163.692 201.548 163.942 201.559C164.227 201.619 164.505 201.649 164.79 201.724C164.218 201.926 163.598 201.95 163.013 201.792C162.698 201.66 162.43 201.437 162.243 201.152C162.056 200.866 161.959 200.531 161.962 200.19C161.958 199.964 161.895 199.743 161.781 199.548C161.667 199.353 161.504 199.191 161.31 199.077C161.084 198.938 160.825 198.865 160.56 198.866C160.32 198.814 160.035 198.776 159.75 198.701Z" fill="white"/>
<path d="M166.103 184.037C165.848 184.203 165.551 184.291 165.248 184.293C165.02 184.291 164.796 184.346 164.595 184.454C164.395 184.562 164.224 184.718 164.1 184.909C163.961 185.12 163.881 185.364 163.868 185.616C163.815 185.894 163.785 186.18 163.71 186.458C163.508 185.885 163.485 185.263 163.643 184.676C163.759 184.4 163.945 184.16 164.184 183.979C164.422 183.798 164.703 183.683 165 183.646L166.103 184.037Z" fill="white"/>
<path d="M180.225 193.069L180.075 193.821C179.993 193.766 179.918 193.703 179.85 193.633C179.688 193.475 179.489 193.361 179.271 193.303C179.053 193.245 178.823 193.245 178.605 193.302C178.357 193.362 178.129 193.486 177.945 193.663C177.705 193.821 177.487 194.001 177.232 194.144C177.503 193.602 177.915 193.145 178.425 192.82C178.717 192.683 179.042 192.634 179.362 192.678C179.681 192.722 179.981 192.858 180.225 193.069Z" fill="white"/>
<path d="M152.632 190.173C152.31 190.632 152.07 191.196 151.425 191.482C151.081 191.63 150.696 191.651 150.337 191.542C150.112 191.143 149.91 190.79 149.722 190.384C149.828 190.451 149.926 190.529 150.015 190.617C150.173 190.781 150.371 190.901 150.589 190.967C150.807 191.033 151.038 191.042 151.26 190.993C151.507 190.944 151.736 190.827 151.92 190.655C152.16 190.497 152.385 190.316 152.632 190.173Z" fill="white"/>
<path d="M176.618 189.316C175.95 191.399 175.59 193.595 175.118 195.723C174.645 197.851 174.173 199.784 173.768 201.829C172.923 206.081 172.173 210.342 171.518 214.613C171.518 214.681 171.63 214.719 171.645 214.613C172.645 210.442 173.573 206.264 174.428 202.077C174.863 199.994 175.238 197.896 175.62 195.806C176.003 193.715 176.55 191.497 176.783 189.316C176.783 189.294 176.774 189.273 176.758 189.257C176.743 189.242 176.722 189.233 176.7 189.233C176.678 189.233 176.657 189.242 176.642 189.257C176.626 189.273 176.618 189.294 176.618 189.316Z" fill="#263238"/>
<path opacity="0.1" d="M179.13 198.528L175.02 218.915C166.874 212.552 159.67 205.062 153.622 196.671C145.785 185.789 146.647 180.442 153.15 180.525L179.13 198.528Z" fill="#333333"/>
<path d="M188.137 244.4C187.845 244.806 182.25 261.756 173.415 264.433C153.45 270.449 120.54 264.704 120.255 264.433C119.145 263.343 128.835 205.582 139.875 186.316C143.625 179.818 156.69 177.66 161.692 183.383C176.047 199.806 189 243.249 188.137 244.4Z" fill="#A0D9BB"/>
<path d="M159.75 198.701C160.324 198.511 160.938 198.48 161.527 198.611C161.847 198.732 162.122 198.947 162.319 199.227C162.515 199.507 162.624 199.84 162.63 200.182C162.625 200.41 162.679 200.635 162.785 200.837C162.891 201.038 163.047 201.209 163.237 201.333C163.448 201.47 163.692 201.548 163.942 201.559C164.227 201.619 164.505 201.649 164.79 201.724C164.218 201.926 163.598 201.95 163.013 201.792C162.698 201.66 162.43 201.437 162.243 201.152C162.056 200.866 161.959 200.531 161.962 200.19C161.958 199.964 161.895 199.743 161.781 199.548C161.667 199.353 161.504 199.191 161.31 199.077C161.084 198.938 160.825 198.865 160.56 198.866C160.32 198.814 160.035 198.776 159.75 198.701Z" fill="white"/>
<path d="M165.285 234.098C165.859 233.907 166.473 233.876 167.062 234.007C167.384 234.126 167.661 234.34 167.858 234.621C168.055 234.902 168.162 235.236 168.165 235.579C168.163 235.807 168.219 236.032 168.326 236.233C168.433 236.434 168.59 236.605 168.78 236.73C168.991 236.867 169.234 236.945 169.485 236.955C169.762 237.015 170.048 237.045 170.325 237.121C169.753 237.323 169.133 237.346 168.547 237.188C168.234 237.056 167.967 236.833 167.781 236.548C167.596 236.262 167.499 235.927 167.505 235.587C167.499 235.361 167.435 235.141 167.321 234.946C167.207 234.751 167.046 234.589 166.853 234.474C166.627 234.335 166.367 234.262 166.103 234.263C165.855 234.21 165.57 234.173 165.285 234.098Z" fill="white"/>
<path d="M144.435 210.492C145.009 210.302 145.623 210.271 146.212 210.402C146.532 210.524 146.807 210.738 147.004 211.019C147.2 211.299 147.309 211.631 147.315 211.974C147.312 212.202 147.367 212.428 147.474 212.629C147.582 212.83 147.739 213.001 147.93 213.124C148.138 213.262 148.379 213.34 148.627 213.35C148.912 213.41 149.197 213.44 149.475 213.515C148.903 213.718 148.283 213.741 147.697 213.583C147.384 213.45 147.118 213.226 146.931 212.941C146.744 212.656 146.646 212.322 146.647 211.981C146.643 211.755 146.58 211.534 146.466 211.34C146.352 211.145 146.189 210.983 145.995 210.868C145.779 210.739 145.534 210.667 145.283 210.658C144.998 210.605 144.75 210.56 144.435 210.492Z" fill="white"/>
<path d="M133.132 246.746C133.703 246.556 134.315 246.525 134.902 246.656C135.224 246.773 135.501 246.985 135.698 247.265C135.895 247.544 136.002 247.878 136.005 248.22C136.003 248.449 136.058 248.676 136.165 248.878C136.273 249.08 136.429 249.252 136.62 249.378C136.831 249.515 137.074 249.593 137.325 249.604C137.61 249.656 137.887 249.694 138.172 249.769C137.597 249.966 136.976 249.99 136.388 249.837C136.075 249.703 135.81 249.48 135.624 249.195C135.439 248.909 135.341 248.576 135.345 248.235C135.339 248.009 135.275 247.787 135.161 247.591C135.047 247.396 134.886 247.232 134.692 247.115C134.465 246.982 134.206 246.912 133.942 246.912C133.695 246.852 133.41 246.821 133.132 246.746Z" fill="white"/>
<path d="M180.885 224.261C180.618 224.807 180.209 225.27 179.7 225.6C179.388 225.741 179.041 225.784 178.704 225.725C178.367 225.666 178.056 225.507 177.81 225.269C177.652 225.105 177.454 224.985 177.236 224.919C177.018 224.853 176.787 224.844 176.565 224.893C176.318 224.942 176.089 225.06 175.905 225.232C175.665 225.389 175.447 225.562 175.192 225.713C175.515 225.254 175.755 224.69 176.408 224.404C176.722 224.278 177.067 224.247 177.399 224.315C177.731 224.384 178.035 224.548 178.275 224.788C178.436 224.946 178.636 225.06 178.854 225.118C179.072 225.176 179.302 225.176 179.52 225.119C179.766 225.059 179.991 224.934 180.172 224.758C180.412 224.585 180.637 224.404 180.885 224.261Z" fill="white"/>
<path d="M126.202 237.309C125.935 237.852 125.522 238.31 125.01 238.632C124.738 238.765 124.433 238.815 124.132 238.775C124.177 238.58 124.215 238.377 124.26 238.174C124.451 238.211 124.647 238.211 124.837 238.174C125.083 238.113 125.308 237.989 125.49 237.813C125.73 237.632 125.947 237.452 126.202 237.309Z" fill="white"/>
<path d="M149.79 261.907C149.518 262.447 149.106 262.904 148.597 263.23C148.286 263.371 147.939 263.414 147.602 263.355C147.265 263.296 146.953 263.138 146.707 262.899C146.549 262.735 146.352 262.615 146.134 262.549C145.916 262.483 145.685 262.474 145.462 262.523C145.216 262.574 144.988 262.691 144.802 262.862C144.57 263.02 144.345 263.192 144.09 263.343C144.42 262.884 144.652 262.32 145.305 262.034C145.62 261.908 145.964 261.877 146.296 261.945C146.628 262.014 146.933 262.178 147.172 262.418C147.334 262.576 147.534 262.689 147.752 262.747C147.97 262.805 148.199 262.806 148.417 262.749C148.665 262.689 148.893 262.564 149.077 262.388C149.31 262.23 149.535 262.049 149.79 261.907Z" fill="white"/>
<path d="M151.56 232.052C151.29 232.596 150.878 233.056 150.367 233.383C150.057 233.524 149.711 233.568 149.375 233.509C149.039 233.45 148.729 233.291 148.485 233.052C148.326 232.889 148.129 232.768 147.911 232.701C147.694 232.634 147.463 232.623 147.24 232.669C146.994 232.721 146.766 232.838 146.58 233.007C146.34 233.173 146.115 233.346 145.867 233.496C146.19 233.03 146.43 232.466 147.075 232.18C147.39 232.053 147.735 232.022 148.068 232.092C148.4 232.161 148.705 232.328 148.942 232.571C149.107 232.727 149.308 232.839 149.527 232.897C149.745 232.955 149.975 232.956 150.195 232.902C150.439 232.839 150.664 232.714 150.847 232.541C151.087 232.368 151.305 232.203 151.56 232.052Z" fill="white"/>
<path d="M171.555 256.853C171.281 257.392 170.869 257.848 170.362 258.177C170.051 258.317 169.704 258.361 169.367 258.302C169.03 258.243 168.718 258.084 168.473 257.846C168.314 257.682 168.117 257.561 167.899 257.496C167.681 257.43 167.45 257.421 167.228 257.47C166.982 257.519 166.754 257.634 166.567 257.801C166.335 257.966 166.11 258.139 165.817 258.289C166.147 257.831 166.38 257.267 167.033 256.981C167.346 256.851 167.692 256.818 168.025 256.886C168.358 256.954 168.662 257.121 168.9 257.364C169.062 257.521 169.262 257.634 169.48 257.691C169.698 257.749 169.927 257.751 170.145 257.695C170.391 257.631 170.618 257.507 170.805 257.334C171.075 257.184 171.3 256.996 171.555 256.853Z" fill="white"/>
<path d="M163.808 186C163.808 186.15 163.747 186.308 163.71 186.458C163.665 186.203 163.59 185.94 163.553 185.706L163.808 186Z" fill="white"/>
<path d="M183.277 244.52C183.473 245.094 183.507 245.711 183.375 246.303C183.254 246.623 183.04 246.899 182.76 247.096C182.481 247.293 182.149 247.402 181.807 247.408C181.58 247.404 181.355 247.459 181.154 247.567C180.953 247.674 180.783 247.832 180.66 248.025C180.521 248.232 180.44 248.474 180.427 248.724C180.375 249.01 180.345 249.296 180.27 249.574C180.068 249 180.045 248.379 180.202 247.792C180.333 247.478 180.555 247.21 180.838 247.023C181.121 246.835 181.453 246.736 181.792 246.739C182.019 246.734 182.241 246.672 182.436 246.557C182.632 246.443 182.795 246.28 182.91 246.084C183.039 245.868 183.111 245.622 183.12 245.37C183.172 245.084 183.202 244.806 183.277 244.52Z" fill="white"/>
<path d="M177.21 211.071C177.21 211.071 177.21 211.124 177.21 211.154C177.157 211.44 177.12 211.718 177.045 212.004C176.879 211.482 176.838 210.928 176.925 210.387L177.21 211.071Z" fill="white"/>
<path d="M162.952 216.576C163.145 217.15 163.178 217.766 163.05 218.358C162.929 218.678 162.715 218.955 162.435 219.152C162.156 219.349 161.824 219.458 161.482 219.464C161.255 219.46 161.03 219.514 160.829 219.622C160.628 219.73 160.458 219.888 160.335 220.08C160.193 220.287 160.112 220.529 160.102 220.78C160.05 221.065 160.012 221.351 159.937 221.629C159.738 221.055 159.717 220.434 159.877 219.847C160.008 219.533 160.23 219.266 160.513 219.078C160.796 218.891 161.128 218.792 161.467 218.794C161.694 218.79 161.916 218.728 162.111 218.613C162.307 218.499 162.47 218.336 162.585 218.14C162.711 217.922 162.783 217.677 162.795 217.426C162.847 217.163 162.877 216.884 162.952 216.576Z" fill="white"/>
<path d="M124.86 257.59C125.05 258.165 125.081 258.781 124.95 259.372C124.831 259.692 124.618 259.969 124.34 260.166C124.062 260.364 123.731 260.472 123.39 260.478C123.161 260.472 122.934 260.525 122.731 260.633C122.529 260.742 122.358 260.9 122.235 261.094C122.097 261.302 122.019 261.544 122.01 261.794C121.957 262.08 121.92 262.358 121.845 262.644C121.648 262.069 121.625 261.449 121.777 260.861C121.911 260.547 122.133 260.28 122.417 260.093C122.702 259.905 123.035 259.806 123.375 259.808C123.601 259.804 123.823 259.742 124.019 259.627C124.214 259.513 124.377 259.35 124.492 259.154C124.618 258.937 124.688 258.691 124.695 258.44C124.755 258.154 124.785 257.868 124.86 257.59Z" fill="white"/>
<path d="M137.152 198.483C137.345 199.057 137.378 199.673 137.25 200.265C137.129 200.585 136.915 200.862 136.635 201.059C136.356 201.256 136.024 201.364 135.682 201.371C135.327 201.368 134.985 201.504 134.728 201.75C134.47 201.995 134.318 202.331 134.302 202.687C134.25 202.972 134.212 203.251 134.137 203.536C133.938 202.962 133.917 202.341 134.077 201.754C134.208 201.44 134.429 201.171 134.712 200.984C134.995 200.796 135.328 200.698 135.667 200.701C135.894 200.697 136.116 200.634 136.311 200.52C136.507 200.405 136.67 200.243 136.785 200.047C136.916 199.818 136.988 199.559 136.995 199.295C137.047 199.047 137.077 198.761 137.152 198.483Z" fill="white"/>
<path d="M137.152 223.216C137.345 223.788 137.378 224.401 137.25 224.991C137.13 225.312 136.917 225.59 136.637 225.787C136.357 225.984 136.025 226.092 135.682 226.096C135.327 226.098 134.986 226.236 134.729 226.482C134.473 226.728 134.32 227.064 134.302 227.42C134.25 227.706 134.212 227.984 134.137 228.27C133.94 227.692 133.919 227.069 134.077 226.48C134.209 226.167 134.43 225.9 134.713 225.714C134.997 225.528 135.329 225.43 135.667 225.435C135.894 225.428 136.114 225.365 136.31 225.25C136.505 225.136 136.668 224.975 136.785 224.78C136.916 224.551 136.988 224.293 136.995 224.028C137.047 223.78 137.077 223.494 137.152 223.216Z" fill="white"/>
<path d="M156.982 244.52C157.172 245.095 157.203 245.711 157.072 246.303C156.953 246.624 156.739 246.901 156.46 247.099C156.18 247.296 155.847 247.404 155.505 247.408C155.277 247.405 155.052 247.46 154.852 247.568C154.651 247.675 154.481 247.833 154.357 248.025C154.221 248.233 154.143 248.475 154.132 248.724C154.072 249.01 154.042 249.296 153.967 249.574C153.766 249 153.742 248.379 153.9 247.792C154.033 247.478 154.256 247.21 154.54 247.023C154.824 246.836 155.157 246.737 155.497 246.739C155.723 246.734 155.943 246.671 156.137 246.557C156.332 246.442 156.494 246.279 156.607 246.084C156.74 245.87 156.813 245.623 156.817 245.37C156.877 245.084 156.907 244.806 156.982 244.52Z" fill="white"/>
<path d="M146.94 191.61C147.208 191.066 147.62 190.608 148.132 190.286C148.443 190.143 148.789 190.098 149.125 190.157C149.462 190.216 149.772 190.377 150.015 190.617C150.173 190.781 150.371 190.901 150.589 190.967C150.807 191.033 151.038 191.042 151.26 190.993C151.507 190.944 151.736 190.827 151.92 190.655C152.16 190.497 152.385 190.316 152.632 190.173C152.31 190.632 152.07 191.196 151.425 191.482C151.11 191.608 150.766 191.639 150.434 191.571C150.102 191.503 149.797 191.338 149.557 191.098C149.394 190.94 149.193 190.827 148.974 190.769C148.755 190.711 148.525 190.711 148.305 190.767C148.059 190.828 147.834 190.952 147.652 191.128C147.412 191.286 147.195 191.467 146.94 191.61Z" fill="white"/>
<path d="M157.98 192.895C154.23 194.633 146.28 189.985 142.62 185.646C142.372 185.353 142.17 181.721 141.712 177.322C141.427 174.652 141.045 171.689 140.505 169.004C140.392 168.455 158.092 169.674 158.092 169.674C157.819 173.219 157.978 176.785 158.565 180.292C158.641 180.661 158.754 181.021 158.902 181.367C158.902 181.42 158.902 181.48 158.962 181.548C159.75 183.563 161.595 191.219 157.98 192.895Z" fill="#AD6359"/>
<path d="M141.547 168.869C143.242 173.238 148.297 183.616 157.297 181.991C157.875 181.895 158.442 181.746 158.992 181.548C158.983 181.485 158.963 181.424 158.932 181.367C158.792 181.021 158.679 180.664 158.595 180.299C158.009 176.787 157.852 173.216 158.13 169.666C158.13 169.666 145.32 168.794 141.547 168.869Z" fill="#263238"/>
<path d="M133.792 152.16C133.905 158.514 142.365 174.231 147.675 176.622C155.377 180.089 165.277 177.427 167.535 168.771C169.717 160.379 158.332 140.09 152.655 138.195C144.285 135.405 133.627 142.767 133.792 152.16Z" fill="#AD6359"/>
<path d="M133.792 152.16C133.905 158.514 142.365 174.231 147.675 176.622C155.377 180.089 165.277 177.427 167.535 168.771C169.717 160.379 158.332 140.09 152.655 138.195C144.285 135.405 133.627 142.767 133.792 152.16Z" fill="#AD6359"/>
<path d="M149.482 154.438C149.928 154.162 150.358 153.864 150.772 153.543C151.267 153.197 151.695 152.972 151.92 152.385C151.966 152.212 151.954 152.029 151.887 151.863C151.819 151.698 151.699 151.559 151.545 151.468C151.211 151.339 150.848 151.301 150.495 151.359C150.142 151.417 149.81 151.569 149.535 151.799C148.911 152.18 148.447 152.776 148.23 153.476C148.191 153.639 148.199 153.81 148.255 153.968C148.31 154.126 148.411 154.264 148.543 154.366C148.676 154.468 148.836 154.529 149.002 154.542C149.169 154.555 149.336 154.519 149.482 154.438Z" fill="#263238"/>
<path d="M160.71 149.392C160.203 149.517 159.69 149.615 159.172 149.686C158.645 149.866 158.073 149.866 157.545 149.686C157.388 149.598 157.265 149.46 157.195 149.293C157.126 149.127 157.115 148.942 157.162 148.768C157.306 148.44 157.535 148.157 157.825 147.948C158.116 147.739 158.457 147.612 158.812 147.58C159.521 147.397 160.273 147.485 160.92 147.828C161.059 147.918 161.169 148.046 161.238 148.196C161.307 148.346 161.332 148.513 161.31 148.677C161.288 148.841 161.22 148.995 161.113 149.122C161.007 149.249 160.867 149.342 160.71 149.392Z" fill="#263238"/>
<path d="M156.75 167.869C157.115 168.073 157.539 168.144 157.95 168.072C158.345 167.876 158.695 167.6 158.977 167.26C158.981 167.253 158.985 167.248 158.991 167.244C158.997 167.241 159.004 167.239 159.011 167.239C159.018 167.239 159.025 167.241 159.031 167.244C159.037 167.248 159.042 167.253 159.045 167.26C158.993 167.544 158.864 167.809 158.672 168.025C158.481 168.242 158.233 168.401 157.957 168.486C157.714 168.531 157.462 168.503 157.234 168.405C157.005 168.308 156.811 168.145 156.675 167.937C156.673 167.927 156.674 167.917 156.678 167.907C156.681 167.898 156.687 167.889 156.694 167.882C156.702 167.876 156.711 167.871 156.72 167.868C156.73 167.866 156.74 167.866 156.75 167.869Z" fill="#263238"/>
<path d="M156.375 164.116C156.847 164.415 157.375 164.611 157.926 164.694C158.477 164.777 159.04 164.744 159.577 164.598C160.05 164.479 160.502 164.292 160.92 164.041C161.003 164 161.081 163.95 161.152 163.891C161.228 163.849 161.301 163.801 161.37 163.748C161.424 163.71 161.463 163.656 161.482 163.593C161.501 163.53 161.499 163.463 161.475 163.402C161.461 163.364 161.441 163.328 161.415 163.297L161.37 163.207C161.002 162.372 160.335 161.146 160.335 161.146C160.702 161.146 162.585 161.146 162.337 160.702C160.447 157.228 158.347 153.363 155.73 150.302C155.714 150.278 155.689 150.262 155.661 150.256C155.633 150.25 155.604 150.256 155.58 150.272C155.556 150.288 155.54 150.313 155.534 150.341C155.528 150.369 155.534 150.399 155.55 150.423C157.237 153.837 159.51 156.927 161.257 160.334C160.59 160.333 159.925 160.429 159.285 160.62C159.187 160.71 160.62 162.951 160.785 163.342V163.387C159.48 164.214 158.242 164.289 156.457 163.989C156.322 163.936 156.277 164.064 156.375 164.116Z" fill="#263238"/>
<path d="M160.238 163.853C160.06 164.655 159.68 165.398 159.135 166.012C158.827 166.337 158.426 166.558 157.988 166.643C157.02 166.824 156.63 166.049 156.488 165.297C156.405 164.899 156.372 164.492 156.39 164.086C157.665 164.421 159.012 164.34 160.238 163.853Z" fill="#263238"/>
<path d="M159.135 166.012C158.827 166.337 158.426 166.558 157.987 166.643C157.02 166.824 156.63 166.049 156.487 165.297C156.946 165.107 157.454 165.074 157.932 165.203C158.411 165.333 158.834 165.617 159.135 166.012Z" fill="#FF98B9"/>
<path d="M162 153.077C161.803 152.838 161.543 152.658 161.25 152.558C161.09 152.509 160.921 152.494 160.754 152.513C160.588 152.533 160.427 152.586 160.282 152.671C160.137 152.762 160.015 152.885 159.925 153.031C159.836 153.177 159.781 153.342 159.765 153.513C159.742 153.814 159.791 154.115 159.907 154.393C159.975 154.557 160.056 154.715 160.147 154.867C160.331 155.191 160.588 155.466 160.897 155.671C160.742 155.451 160.616 155.211 160.522 154.957C160.427 154.734 160.352 154.502 160.297 154.265C160.185 153.784 160.222 153.303 160.56 153.13C160.749 153.041 160.961 153.017 161.165 153.062C161.368 153.107 161.551 153.218 161.685 153.378C162.065 153.726 162.409 154.111 162.712 154.528C162.596 153.994 162.351 153.496 162 153.077Z" fill="#263238"/>
<path d="M153.84 157.168C153.679 156.909 153.451 156.698 153.18 156.559C153.026 156.492 152.86 156.457 152.692 156.457C152.525 156.457 152.359 156.492 152.205 156.559C152.05 156.628 151.912 156.731 151.803 156.862C151.694 156.992 151.616 157.146 151.575 157.311C151.507 157.603 151.507 157.906 151.575 158.198C151.62 158.371 151.681 158.54 151.755 158.702C151.893 159.047 152.112 159.354 152.392 159.597C152.275 159.356 152.182 159.105 152.115 158.845C152.055 158.61 152.012 158.372 151.987 158.131C151.942 157.634 152.04 157.168 152.4 157.04C152.76 156.912 153.15 157.04 153.48 157.431C153.811 157.828 154.102 158.256 154.35 158.71C154.303 158.163 154.128 157.635 153.84 157.168Z" fill="#263238"/>
<path d="M136.972 165.929C141.57 164.801 142.222 158.672 139.762 154.694C139.762 154.694 152.212 152.438 149.715 142.662C150.971 143.697 152.463 144.405 154.058 144.722C155.653 145.04 157.302 144.957 158.857 144.482L161.272 147.873C162.382 147.121 162.63 142.933 158.752 141.158C158.752 141.158 157.012 136.435 152.565 134.691C151.35 134.171 150.012 134.014 148.71 134.24C147.409 134.465 146.2 135.063 145.23 135.962C142.666 135.122 139.876 135.316 137.452 136.503C133.237 138.481 132.712 143.091 132.712 143.091C132.712 143.091 127.155 146.099 127.5 150.663C127.569 151.952 127.909 153.212 128.497 154.36C129.085 155.508 129.908 156.519 130.912 157.326C130.912 157.326 129.96 159.462 131.865 162.816C133.087 164.951 135.6 166.267 136.972 165.929Z" fill="#263238"/>
<path d="M149.175 141.872C149.505 142.624 149.756 143.408 149.925 144.211C150.119 144.998 150.217 145.806 150.217 146.617C150.228 148.225 149.633 149.777 148.552 150.964C147.532 152.205 145.98 152.844 144.502 153.483C143.752 153.709 142.95 153.995 142.155 154.175C141.36 154.356 140.542 154.498 139.732 154.694C140.557 154.634 141.375 154.536 142.207 154.461C143.04 154.386 143.827 154.092 144.645 153.912C146.281 153.438 147.772 152.559 148.98 151.355C150.136 150.057 150.739 148.356 150.66 146.617C150.568 144.936 150.058 143.305 149.175 141.872Z" fill="#263238"/>
<path d="M157.11 145.444C155.66 145.435 154.223 145.18 152.857 144.692C152.196 144.441 151.57 144.102 150.997 143.685C150.416 143.242 149.883 142.737 149.408 142.181C149.707 142.879 150.152 143.505 150.712 144.016C151.272 144.543 151.929 144.954 152.647 145.226C153.367 145.504 154.127 145.664 154.897 145.7C155.644 145.742 156.392 145.655 157.11 145.444Z" fill="#263238"/>
<path d="M154.17 164.372C153.255 164.723 152.259 164.811 151.297 164.624C150.335 164.438 149.444 163.985 148.725 163.317C148.006 162.649 147.488 161.792 147.229 160.844C146.971 159.896 146.982 158.895 147.262 157.953C147.542 157.011 148.079 156.167 148.813 155.515C149.547 154.863 150.448 154.431 151.414 154.266C152.38 154.102 153.373 154.212 154.281 154.583C155.188 154.955 155.973 155.575 156.547 156.371C156.953 156.935 157.243 157.574 157.401 158.252C157.559 158.929 157.581 159.631 157.466 160.317C157.352 161.003 157.103 161.659 156.734 162.248C156.366 162.837 155.884 163.347 155.317 163.748C154.965 164.007 154.579 164.216 154.17 164.372ZM150.6 155.175C149.71 155.52 148.95 156.135 148.426 156.935C147.902 157.734 147.641 158.678 147.678 159.634C147.715 160.59 148.05 161.51 148.635 162.266C149.219 163.021 150.025 163.575 150.939 163.849C151.853 164.123 152.83 164.104 153.733 163.793C154.635 163.483 155.418 162.898 155.973 162.119C156.527 161.341 156.825 160.408 156.824 159.452C156.824 158.495 156.525 157.562 155.97 156.785C155.376 155.961 154.528 155.357 153.557 155.066C152.586 154.775 151.547 154.814 150.6 155.175Z" fill="#43B1ED"/>
<path d="M164.827 158.627C162.945 159.379 160.492 158.1 159.202 155.664C158.569 154.519 158.307 153.205 158.452 151.904C158.483 151.338 158.66 150.789 158.964 150.311C159.269 149.833 159.691 149.442 160.19 149.176C160.69 148.91 161.249 148.778 161.814 148.792C162.38 148.806 162.932 148.966 163.417 149.257C164.584 149.865 165.531 150.825 166.125 152.002C167.49 154.574 167.047 157.499 165.135 158.514C165.035 158.557 164.932 158.595 164.827 158.627ZM160.77 149.648L160.53 149.761C160.142 149.991 159.815 150.312 159.576 150.695C159.338 151.078 159.194 151.514 159.157 151.964C159.024 153.127 159.258 154.303 159.825 155.326C161.002 157.582 163.237 158.695 164.812 157.852C166.387 157.01 166.695 154.521 165.517 152.295C164.987 151.254 164.149 150.403 163.117 149.859C162.762 149.662 162.37 149.541 161.966 149.505C161.562 149.469 161.154 149.517 160.77 149.648Z" fill="#43B1ED"/>
<path d="M156.675 156.995L156.022 156.732C156.412 155.762 157.62 154.092 159.405 154.709L159.18 155.378C157.583 154.822 156.75 156.905 156.675 156.995Z" fill="#43B1ED"/>
<path d="M136.56 169.245H135.855C135.855 168.914 135.855 165.996 137.122 165.026C138.39 164.056 147.075 160.469 147.45 160.319L147.72 160.966C145.208 162.018 138.472 164.891 137.55 165.59C136.627 166.29 136.552 168.448 136.56 169.245Z" fill="#43B1ED"/>
<path d="M141.75 164.613C141.75 164.613 136.147 160.552 134.182 162.733C132.217 164.914 137.73 171.719 140.932 171.757C141.344 171.795 141.76 171.749 142.154 171.622C142.548 171.495 142.912 171.289 143.224 171.017C143.537 170.745 143.791 170.413 143.972 170.04C144.153 169.667 144.257 169.261 144.277 168.847L141.75 164.613Z" fill="#AD6359"/>
<path d="M135.825 164.643C135.817 164.646 135.81 164.652 135.805 164.66C135.801 164.667 135.798 164.675 135.798 164.684C135.798 164.693 135.801 164.702 135.805 164.709C135.81 164.716 135.817 164.722 135.825 164.726C138.075 164.838 139.8 166.335 141.202 168.004C140.355 167.47 139.402 167.343 138.66 168.403C138.615 168.456 138.66 168.523 138.75 168.486C139.063 168.253 139.439 168.123 139.828 168.112C140.217 168.101 140.6 168.211 140.925 168.425C141.47 168.792 141.973 169.219 142.425 169.696C142.582 169.839 142.875 169.636 142.732 169.448V169.411C141.87 166.839 138.652 163.936 135.825 164.643Z" fill="#263238"/>
<path d="M142.702 188.451C144.854 190.287 147.108 192 149.452 193.58C151.702 194.994 154.245 196.144 156.817 195.836C159.39 195.528 161.587 194.385 161.835 191.527C162.045 189.03 161.557 187.248 160.567 183.917C160.53 183.774 160.695 183.706 160.747 183.849C162.172 187.865 163.83 193.091 160.582 195.257C156.952 197.678 152.595 196.325 149.197 194.001C146.815 192.413 144.615 190.567 142.635 188.496C142.635 188.496 142.665 188.414 142.702 188.451Z" fill="#263238"/>
<path d="M231.503 197.129C230.753 198.543 220.86 207.026 216.937 208.703C213.015 210.379 201.788 210.41 199.86 209.522C197.933 208.635 192.833 206.785 192.878 205.243C192.923 203.702 195.705 201.799 196.628 201.844C197.55 201.889 201.127 201.844 201.72 202.077C202.312 202.311 208.612 198.212 209.04 197.445C209.467 196.678 208.357 184.909 212.295 182.337C216.232 179.766 231.503 197.129 231.503 197.129Z" fill="#EDCC1C"/>
<path opacity="0.2" d="M231.503 197.129C230.753 198.543 220.86 207.026 216.937 208.703C213.015 210.379 201.788 210.41 199.86 209.522C197.933 208.635 192.833 206.785 192.878 205.243C192.923 203.702 195.705 201.799 196.628 201.844C197.55 201.889 201.127 201.844 201.72 202.077C202.312 202.311 208.612 198.212 209.04 197.445C209.467 196.678 208.357 184.909 212.295 182.337C216.232 179.766 231.503 197.129 231.503 197.129Z" fill="#333333"/>
<path d="M200.76 162.071C200.76 162.071 185.205 157.078 182.077 157.303C178.95 157.529 170.475 161.815 170.355 163.725C170.235 165.635 173.955 167.485 175.342 167.621C176.73 167.756 182.962 164.989 183.63 164.899C184.012 164.853 188.572 172.012 195.727 175.803C201.045 178.615 205.83 179.563 206.167 179.517C207 179.359 201 163.184 200.76 162.071Z" fill="#EDCC1C"/>
<path d="M200.76 162.071C200.76 162.071 185.205 157.078 182.077 157.303C178.95 157.529 170.475 161.815 170.355 163.725C170.235 165.635 173.955 167.485 175.342 167.621C176.73 167.756 182.962 164.989 183.63 164.899C184.012 164.853 188.572 172.012 195.727 175.803C201.045 178.615 205.83 179.563 206.167 179.517C207 179.359 201 163.184 200.76 162.071Z" fill="#AB8667"/>
<path d="M247.575 174.148C249.54 178.412 250.89 181.322 248.235 189.06C245.235 197.693 229.297 206.966 219.442 199.476C204.442 188.09 200.468 166.786 198.758 163.319C196.418 158.552 182.258 162.184 175.62 158.236C174.838 157.754 174.115 157.181 173.467 156.529C173.227 156.296 172.995 156.055 172.763 155.777C171.299 154.168 170.09 152.345 169.178 150.37C168.428 148.67 168.173 147.204 168.765 146.557C169.59 145.647 171.308 145.685 173.348 145.647C175.177 145.721 176.996 145.339 178.643 144.534C182.813 142.459 185.535 135.796 191.265 134.721C194.025 134.202 203.565 135.653 207.112 137.834C211.972 140.842 211.89 149.054 216.48 152.731C223.373 158.266 245.16 168.884 247.575 174.148Z" fill="#EDCC1C"/>
<path d="M247.575 174.148C249.54 178.412 250.89 181.322 248.235 189.06C245.235 197.693 229.297 206.966 219.442 199.476C204.442 188.09 200.468 166.786 198.758 163.319C196.418 158.552 182.258 162.184 175.62 158.236C174.838 157.754 174.115 157.181 173.467 156.529C173.227 156.296 172.995 156.055 172.763 155.777C171.299 154.168 170.09 152.345 169.178 150.37C168.428 148.67 168.173 147.204 168.765 146.557C169.59 145.647 171.308 145.685 173.348 145.647C175.177 145.721 176.996 145.339 178.643 144.534C182.813 142.459 185.535 135.796 191.265 134.721C194.025 134.202 203.565 135.653 207.112 137.834C211.972 140.842 211.89 149.054 216.48 152.731C223.373 158.266 245.16 168.884 247.575 174.148Z" fill="#DDAF89"/>
<path d="M168.765 146.557C169.59 145.647 171.308 145.685 173.348 145.647C175.177 145.721 176.996 145.339 178.643 144.534C182.813 142.459 185.535 135.796 191.265 134.721C193.175 134.362 198.33 134.946 202.5 136.062" stroke="#333333" stroke-width="0.5" stroke-linecap="round"/>
<path d="M246.517 173.298C246.517 173.298 260.767 177.487 261.562 164.395C261.615 163.477 265.717 170.411 260.122 177.096C254.527 183.781 243.622 180.728 243.622 180.728C243.622 180.728 241.717 175.577 246.517 173.298Z" fill="#EDCC1C"/>
<path d="M246.517 173.298C246.517 173.298 260.767 177.487 261.562 164.395C261.615 163.477 265.717 170.411 260.122 177.096C254.527 183.781 243.622 180.728 243.622 180.728C243.622 180.728 241.717 175.577 246.517 173.298Z" fill="#AB8667"/>
<path d="M192.465 150.881C190.522 154.641 185.655 155.634 183.3 151.709C182.875 150.976 182.602 150.165 182.496 149.323C182.39 148.482 182.455 147.629 182.685 146.813C182.892 145.645 183.475 144.576 184.344 143.771C185.214 142.966 186.322 142.468 187.5 142.354C191.565 142.045 194.19 147.535 192.465 150.881Z" fill="#AB8667"/>
<path d="M184.868 149.159C184.065 148.971 183.683 148.046 183.833 146.941C183.983 145.835 184.748 145.076 185.685 145.286C186.75 145.527 186.892 146.738 186.63 147.625C186.367 148.513 185.738 149.355 184.868 149.159Z" fill="#263238"/>
<path d="M170.25 151.032C169.605 151.145 167.25 148.385 167.415 147.136C167.58 145.888 172.552 144.88 173.25 145.775C173.947 146.67 171.495 150.806 170.25 151.032Z" fill="#263238"/>
<path d="M166.687 156.8C166.207 155.672 167.437 154.792 168.277 154.754C170.047 154.664 170.677 156.649 173.595 156.439C173.97 156.439 173.835 155.476 173.835 155.476C174.411 155.416 174.991 155.54 175.492 155.829C175.222 157.333 174.322 157.988 172.972 158.424C170.677 159.161 167.25 158.033 166.687 156.8Z" fill="#D16283"/>
<path d="M168.172 155.897C169.251 156.66 170.528 157.091 171.847 157.138C172.489 157.185 173.133 157.109 173.745 156.912C174.045 156.807 174.322 156.657 174.39 156.348C174.493 156.033 174.521 155.699 174.472 155.371C174.593 155.695 174.624 156.046 174.562 156.386C174.54 156.577 174.449 156.753 174.307 156.882C174.175 157.007 174.023 157.109 173.857 157.183C173.215 157.452 172.519 157.566 171.825 157.514C171.138 157.489 170.461 157.336 169.83 157.063C169.201 156.797 168.636 156.4 168.172 155.897Z" fill="#263238"/>
<path d="M176.722 153.874C176.145 157.574 172.672 153.731 171.997 152.957C170.964 151.73 170.052 150.406 169.275 149.001C169.275 148.949 169.177 149.001 169.185 149.039C169.44 150.859 172.935 155.055 173.235 155.371C173.407 155.559 174.03 156.123 173.58 156.198C173.13 156.273 172.575 155.657 172.312 155.446C172.245 155.386 172.14 155.491 172.2 155.566C172.455 155.845 174.112 157.333 174.337 156.409C174.397 156.138 174.15 155.837 173.932 155.596L174.075 155.694C175.972 156.762 176.76 155.694 176.88 153.904C176.885 153.893 176.888 153.881 176.887 153.868C176.887 153.855 176.884 153.843 176.878 153.832C176.872 153.821 176.864 153.811 176.854 153.804C176.844 153.796 176.833 153.791 176.82 153.789C176.808 153.787 176.795 153.787 176.783 153.79C176.771 153.794 176.76 153.8 176.751 153.808C176.741 153.816 176.734 153.826 176.729 153.838C176.724 153.849 176.722 153.862 176.722 153.874Z" fill="#263238"/>
<path d="M205.883 166.192C205.883 166.192 190.32 161.244 187.185 161.477C184.05 161.71 175.605 166.042 175.485 167.937C175.365 169.832 179.1 171.697 180.487 171.825C181.875 171.952 188.1 169.17 188.737 169.072C189.12 169.02 193.703 176.171 200.865 179.939C206.19 182.736 210.983 183.699 211.32 183.623C212.145 183.428 206.108 167.282 205.883 166.192Z" fill="#EDCC1C"/>
<path d="M205.883 166.192C205.883 166.192 190.32 161.244 187.185 161.477C184.05 161.71 175.605 166.042 175.485 167.937C175.365 169.832 179.1 171.697 180.487 171.825C181.875 171.952 188.1 169.17 188.737 169.072C189.12 169.02 193.703 176.171 200.865 179.939C206.19 182.736 210.983 183.699 211.32 183.623C212.145 183.428 206.108 167.282 205.883 166.192Z" fill="#DDAF89"/>
<path d="M207.952 164.996C208.005 164.996 207.952 164.899 207.952 164.914C207.42 165.079 206.88 165.237 206.332 165.357C205.995 165.432 205.665 165.5 205.327 165.56C203.452 165.169 201.577 164.808 199.732 164.289C199.672 164.289 199.628 164.365 199.695 164.387C201.133 164.923 202.597 165.385 204.082 165.771C205.557 166.141 207.064 166.363 208.582 166.433C208.657 166.433 208.695 166.32 208.582 166.305C207.637 166.049 206.678 165.846 205.718 165.643C205.943 165.643 206.167 165.575 206.392 165.523C206.927 165.395 207.45 165.219 207.952 164.996Z" fill="#263238"/>
<path d="M238.867 186.443C239.617 187.835 241.245 200.799 240.48 205.01C239.715 209.221 233.55 218.629 231.75 219.749C229.95 220.87 225.6 224.126 224.34 223.239C223.08 222.351 223.035 218.967 223.59 218.23C224.145 217.493 226.087 214.47 226.59 214.102C227.092 213.733 227.167 206.206 226.77 205.416C226.372 204.627 215.955 199.084 215.985 194.377C216.015 189.669 238.867 186.443 238.867 186.443Z" fill="#EDCC1C"/>
<path d="M238.867 186.443C239.617 187.835 241.245 200.799 240.48 205.01C239.715 209.221 233.55 218.629 231.75 219.749C229.95 220.87 225.6 224.126 224.34 223.239C223.08 222.351 223.035 218.967 223.59 218.23C224.145 217.493 226.087 214.47 226.59 214.102C227.092 213.733 227.167 206.206 226.77 205.416C226.372 204.627 215.955 199.084 215.985 194.377C216.015 189.669 238.867 186.443 238.867 186.443Z" fill="#DDAF89"/>
<path d="M241.432 188.602C241.432 188.549 241.545 188.602 241.515 188.662C241.222 189.218 240.945 189.79 240.697 190.376C240.547 190.73 240.405 191.128 240.27 191.452C240.322 193.618 240.345 195.783 240.54 197.934C240.54 197.95 240.534 197.965 240.522 197.977C240.511 197.988 240.496 197.994 240.48 197.994C240.464 197.994 240.449 197.988 240.438 197.977C240.426 197.965 240.42 197.95 240.42 197.934C240.157 196.212 239.887 194.512 239.782 192.768C239.666 191.057 239.726 189.338 239.963 187.639C239.963 187.556 240.105 187.534 240.112 187.639C240.195 188.745 240.233 189.85 240.263 190.963C240.345 190.715 240.427 190.474 240.532 190.211C240.782 189.648 241.084 189.109 241.432 188.602Z" fill="#263238"/>
<path d="M199.305 143.339C200.617 145.392 211.725 157.138 217.395 156.175C223.065 155.213 228.022 148.182 225.487 143.467C222.952 138.751 204.975 135.42 202.298 136.24C201.574 136.421 200.903 136.768 200.336 137.254C199.77 137.74 199.324 138.351 199.033 139.04C198.743 139.729 198.617 140.475 198.664 141.221C198.711 141.968 198.93 142.692 199.305 143.339Z" fill="#EDCC1C"/>
<path d="M199.305 143.339C200.617 145.392 211.725 157.138 217.395 156.175C223.065 155.213 228.022 148.182 225.487 143.467C222.952 138.751 204.975 135.42 202.298 136.24C201.574 136.421 200.903 136.768 200.336 137.254C199.77 137.74 199.324 138.351 199.033 139.04C198.743 139.729 198.617 140.475 198.664 141.221C198.711 141.968 198.93 142.692 199.305 143.339Z" fill="#AB8667"/>
<path d="M199.305 143.339C198.93 142.692 198.711 141.968 198.664 141.221C198.617 140.475 198.743 139.729 199.033 139.04C199.324 138.351 199.77 137.74 200.336 137.254C200.903 136.768 201.574 136.421 202.297 136.24C204.975 135.42 222.952 138.751 225.487 143.467C227.599 147.394 224.512 152.929 220.145 155.224" stroke="#333333" stroke-width="0.5" stroke-linecap="round"/>
<path d="M144.592 210.086C164.347 227.435 189.81 241.994 195.878 241.535C204.188 240.896 224.587 214.651 231.232 206.853C233.925 203.702 204.39 186.383 202.125 190.188C196.492 199.648 187.073 208.672 186.803 209.131C186.233 210.094 158.078 201.431 149.865 198.438C131.618 191.76 134.782 201.476 144.592 210.086Z" fill="#AD6359"/>
<path d="M226.867 155.664C227.829 155.89 228.693 156.417 229.335 157.169C229.977 157.921 230.363 158.858 230.438 159.845C232.139 159.386 233.941 159.473 235.59 160.093C238.395 161.312 237.728 166.252 237.728 166.252C239.549 166.014 241.4 166.334 243.037 167.17C245.602 168.598 245.64 173.682 245.64 173.682C247.432 174.392 248.907 175.728 249.795 177.442C251.992 182.112 247.74 188.722 245.085 192.986C242.43 197.25 230.917 206.77 228.907 208.778L201.6 191.948C201.6 191.948 208.125 169.523 211.957 164.981C215.19 161.154 223.057 154.829 226.867 155.664Z" fill="#AD6359"/>
<path d="M229.995 159.98C225.593 163.222 222.382 167.591 218.925 171.779C218.85 171.87 219 171.99 219.075 171.892C222.458 167.696 226.627 164.222 230.175 160.168C230.19 160.143 230.196 160.113 230.193 160.084C230.189 160.055 230.176 160.027 230.156 160.006C230.136 159.985 230.109 159.971 230.08 159.966C230.051 159.962 230.021 159.967 229.995 159.98Z" fill="#263238"/>
<path d="M237.315 166.147C236.384 166.98 235.567 167.934 234.885 168.982C234.1 170.04 233.33 171.113 232.575 172.2C231.075 174.381 229.575 176.585 228.202 178.841C228.142 178.938 228.277 179.059 228.345 178.961C229.845 176.795 231.398 174.652 233.003 172.546C233.798 171.504 234.605 170.461 235.425 169.418C236.256 168.497 236.985 167.488 237.6 166.41C237.617 166.391 237.631 166.369 237.639 166.345C237.648 166.321 237.652 166.296 237.651 166.271C237.65 166.245 237.644 166.22 237.633 166.197C237.623 166.174 237.607 166.153 237.589 166.136C237.57 166.118 237.548 166.105 237.524 166.096C237.5 166.087 237.475 166.083 237.45 166.084C237.424 166.085 237.399 166.092 237.376 166.102C237.353 166.113 237.332 166.128 237.315 166.147Z" fill="#263238"/>
<path d="M245.572 173.802C244.695 174.426 244.11 175.584 243.517 176.472C242.85 177.472 242.175 178.48 241.5 179.48C240.142 181.48 238.785 183.473 237.352 185.421C237.285 185.518 237.427 185.639 237.502 185.541C238.957 183.571 240.45 181.615 241.89 179.63C242.595 178.658 243.297 177.68 243.997 176.697C244.717 175.86 245.286 174.903 245.677 173.87C245.68 173.857 245.678 173.843 245.673 173.831C245.668 173.818 245.659 173.808 245.648 173.801C245.636 173.794 245.623 173.79 245.61 173.79C245.596 173.79 245.583 173.795 245.572 173.802Z" fill="#263238"/>
<path d="M171.592 205.251C174.78 206.108 177.967 206.965 181.155 207.778C182.752 208.169 184.365 208.53 185.955 208.808C186.144 208.835 186.334 208.847 186.525 208.845C186.57 208.854 186.615 208.854 186.66 208.845C186.721 208.799 186.778 208.749 186.832 208.695C187.11 208.424 187.387 208.109 187.657 207.808C188.19 207.191 188.715 206.552 189.24 205.92L195.487 198.242C197.595 195.701 199.688 193.144 201.855 190.647C199.965 193.354 197.977 195.994 195.982 198.633C193.987 201.273 191.932 203.86 189.787 206.379C189.255 207.011 188.715 207.635 188.16 208.259C187.882 208.567 187.605 208.876 187.29 209.176C187.196 209.264 187.096 209.345 186.99 209.417C186.85 209.492 186.691 209.525 186.532 209.515C186.309 209.513 186.086 209.495 185.865 209.462C184.232 209.157 182.617 208.76 181.027 208.274C177.847 207.357 174.75 206.341 171.592 205.251Z" fill="#263238"/>
<path d="M166.065 231.142L169.92 201.739C162.84 198.998 155.602 196.688 148.245 194.821C135.78 191.625 131.835 196.821 142.927 210.184C149.61 218.235 157.4 225.291 166.065 231.142Z" fill="#A0D9BB"/>
<path d="M164.797 201.724C164.225 201.926 163.606 201.95 163.02 201.792C162.706 201.66 162.438 201.437 162.251 201.152C162.064 200.866 161.966 200.531 161.97 200.19C161.965 199.964 161.902 199.743 161.788 199.548C161.674 199.353 161.512 199.191 161.317 199.077C161.092 198.938 160.832 198.865 160.567 198.866C160.29 198.814 160.005 198.776 159.728 198.701C160.105 198.61 160.488 198.547 160.875 198.513L161.955 198.874C162.148 199.034 162.305 199.233 162.415 199.459C162.525 199.685 162.586 199.931 162.592 200.182C162.588 200.41 162.641 200.635 162.747 200.837C162.854 201.038 163.009 201.209 163.2 201.333C163.411 201.47 163.654 201.548 163.905 201.559C164.25 201.619 164.512 201.649 164.797 201.724Z" fill="white"/>
<path d="M144.435 210.492C145.009 210.302 145.623 210.271 146.212 210.402C146.532 210.524 146.807 210.738 147.004 211.019C147.2 211.299 147.309 211.631 147.315 211.974C147.312 212.202 147.367 212.428 147.474 212.629C147.582 212.83 147.739 213.001 147.93 213.124C148.138 213.262 148.379 213.34 148.627 213.35C148.912 213.41 149.197 213.44 149.475 213.515C148.903 213.718 148.283 213.741 147.697 213.583C147.384 213.45 147.118 213.226 146.931 212.941C146.744 212.656 146.646 212.322 146.647 211.981C146.643 211.755 146.58 211.534 146.466 211.34C146.352 211.145 146.189 210.983 145.995 210.868C145.779 210.739 145.534 210.667 145.283 210.658C144.998 210.605 144.75 210.56 144.435 210.492Z" fill="white"/>
<path d="M162.952 216.576C163.145 217.15 163.178 217.766 163.05 218.358C162.929 218.678 162.715 218.955 162.435 219.152C162.156 219.349 161.824 219.458 161.482 219.464C161.255 219.46 161.03 219.514 160.829 219.622C160.628 219.73 160.458 219.888 160.335 220.08C160.193 220.287 160.112 220.529 160.102 220.78C160.05 221.065 160.012 221.351 159.937 221.629C159.738 221.055 159.717 220.434 159.877 219.847C160.008 219.533 160.23 219.266 160.513 219.078C160.796 218.891 161.128 218.792 161.467 218.794C161.694 218.79 161.916 218.728 162.111 218.613C162.307 218.499 162.47 218.336 162.585 218.14C162.711 217.922 162.783 217.677 162.795 217.426C162.847 217.163 162.877 216.884 162.952 216.576Z" fill="white"/>
<path d="M137.25 200.265C137.189 200.446 137.092 200.612 136.965 200.754C136.88 200.538 136.81 200.317 136.755 200.092V200.047C136.886 199.818 136.958 199.559 136.965 199.295C137.017 199.017 137.047 198.731 137.122 198.453C137.33 199.034 137.374 199.661 137.25 200.265Z" fill="white"/>
<path d="M165.63 201.168C165.097 203.318 164.88 205.559 164.527 207.74C164.175 209.921 163.86 211.906 163.59 213.997C163.035 218.343 162.57 222.682 162.195 227.051C162.195 227.069 162.202 227.087 162.215 227.099C162.227 227.112 162.245 227.119 162.262 227.119C162.28 227.119 162.298 227.112 162.31 227.099C162.323 227.087 162.33 227.069 162.33 227.051C163.035 222.78 163.68 218.501 164.265 214.215C164.565 212.079 164.797 209.943 165.015 207.8C165.232 205.657 165.66 203.386 165.765 201.175C165.765 201.166 165.764 201.157 165.761 201.149C165.758 201.14 165.754 201.133 165.748 201.126C165.742 201.119 165.735 201.114 165.727 201.11C165.719 201.106 165.71 201.104 165.701 201.104C165.692 201.103 165.683 201.104 165.675 201.107C165.667 201.11 165.659 201.115 165.652 201.121C165.646 201.127 165.64 201.134 165.637 201.142C165.633 201.15 165.63 201.159 165.63 201.168Z" fill="#263238"/>
<path d="M166.597 226.961C166.545 227.081 166.005 230.879 166.005 230.932C162.847 228.413 159.712 226.134 156.607 223.54C153.466 220.872 150.462 218.046 147.607 215.072C145.965 213.388 144.367 211.65 142.837 209.868C142.8 209.831 142.747 209.868 142.777 209.928C144 211.56 145.275 213.139 146.61 214.681C145.86 214.004 145.11 213.29 144.36 212.553C144.345 212.543 144.327 212.538 144.309 212.539C144.291 212.54 144.273 212.547 144.26 212.559C144.246 212.571 144.237 212.587 144.233 212.605C144.23 212.623 144.232 212.642 144.24 212.658C145.165 213.806 146.246 214.818 147.45 215.666C151.365 220.057 155.701 224.052 160.395 227.593C162.274 229.085 164.265 230.43 166.35 231.616C166.35 231.616 166.747 227.104 166.717 226.999C166.717 226.985 166.712 226.972 166.703 226.962C166.695 226.951 166.683 226.943 166.67 226.939C166.657 226.935 166.643 226.935 166.63 226.939C166.617 226.943 166.606 226.951 166.597 226.961Z" fill="#263238"/>
<path d="M167.25 200.303C166.245 199.912 165.225 199.551 164.205 199.212L163.567 199.002C162.413 198.3 161.224 197.657 160.005 197.077C160.001 197.074 159.996 197.073 159.991 197.072C159.986 197.071 159.981 197.072 159.976 197.073C159.971 197.075 159.966 197.077 159.962 197.08C159.958 197.083 159.955 197.087 159.952 197.092C159.95 197.096 159.948 197.101 159.948 197.106C159.947 197.111 159.948 197.116 159.949 197.121C159.951 197.126 159.953 197.131 159.956 197.135C159.959 197.139 159.963 197.142 159.967 197.144C160.837 197.716 161.745 198.212 162.66 198.693C161.092 198.182 159.51 197.701 157.897 197.347C157.889 197.351 157.883 197.357 157.878 197.364C157.873 197.371 157.87 197.38 157.87 197.389C157.87 197.397 157.873 197.406 157.878 197.413C157.883 197.421 157.889 197.427 157.897 197.43C159.892 198.25 161.955 198.934 163.98 199.686C164.962 200.047 169.83 201.716 169.83 201.784C169.83 201.852 169.567 204.589 169.605 204.755C169.642 204.92 169.68 204.83 169.695 204.755L170.22 201.423C170.22 201.423 168.075 200.641 167.25 200.303Z" fill="#263238"/>
</svg>
