<svg width="66" height="66" viewBox="0 0 66 66" fill="none" xmlns="http://www.w3.org/2000/svg">
<g clip-path="url(#clip0_1591_24912)">
<path d="M15.2327 56.2522C13.9522 56.2522 12.6314 55.9577 11.2225 55.3821C10.0865 54.9184 9.5412 53.6213 10.0055 52.4853C10.4692 51.3493 11.7658 50.804 12.9023 51.2682C14.9885 52.1197 16.8853 52.4525 20.6779 48.4429C21.5214 47.5511 22.9278 47.5118 23.819 48.3553C24.7103 49.1982 24.7496 50.6046 23.9066 51.4958C20.8547 54.7235 18.1482 56.2522 15.2327 56.2522Z" fill="#495059"/>
<path d="M23.3166 65.0329C21.8805 65.0329 20.664 63.9272 20.5507 62.4709C20.2602 58.7362 20.3765 55.9481 20.9535 52.8478C21.234 51.3402 22.6837 50.3447 24.1923 50.6257C25.7004 50.9062 26.6954 52.3559 26.4149 53.864C25.9265 56.4884 25.8348 58.7805 26.0886 62.0399C26.2074 63.5692 25.0644 64.9055 23.5352 65.0244C23.4617 65.0299 23.3886 65.0329 23.3166 65.0329Z" fill="#DDAF89"/>
<path d="M35.9727 65.0329C35.9002 65.0329 35.8277 65.0299 35.7542 65.0244C34.225 64.9055 33.0819 63.5691 33.2008 62.0399C33.4545 58.7805 33.3629 56.4879 32.8745 53.8639C32.594 52.3559 33.589 50.9062 35.0971 50.6252C36.6047 50.3452 38.0549 51.3397 38.3358 52.8478C38.9124 55.9481 39.0292 58.7362 38.7387 62.4709C38.6254 63.9267 37.4088 65.0329 35.9727 65.0329Z" fill="#DDAF89"/>
<path d="M14.9892 47.5692C13.0526 47.5692 11.1874 47.0863 9.62195 46.1367C7.26841 44.7091 5.75981 42.3017 5.3736 39.358C5.17369 37.8373 6.24522 36.4425 7.76591 36.2426C9.28659 36.0447 10.6814 37.1143 10.8808 38.6349C11.0505 39.928 11.5812 40.8284 12.5027 41.3873C13.7243 42.128 15.5949 42.2126 17.2687 41.6018C18.7098 41.0766 20.304 41.8178 20.8297 43.2589C21.3554 44.7001 20.6137 46.2943 19.1726 46.82C17.7984 47.3215 16.3754 47.5692 14.9892 47.5692Z" fill="#DDAF89"/>
<path d="M43.9644 47.5148C42.7635 47.5148 41.4744 47.3154 40.1169 46.82C38.6757 46.2943 37.9335 44.7001 38.4597 43.2589C38.9854 41.8178 40.5791 41.0756 42.0207 41.6018C44.5319 42.5182 46.5964 41.6023 48.9227 39.9462C50.172 39.0564 51.9062 39.348 52.796 40.5972C53.6857 41.847 53.3942 43.5812 52.1449 44.4709C50.8362 45.4025 47.8693 47.5148 43.9644 47.5148Z" fill="#DDAF89"/>
<path d="M44.7768 41.9049C43.8977 42.0358 42.9928 41.9563 42.021 41.6018C40.5794 41.0761 38.9857 41.8178 38.4595 43.2589C37.9338 44.7001 38.676 46.2943 40.1171 46.82C41.4746 47.3154 42.7637 47.5148 43.9646 47.5148C44.1454 47.5148 44.3237 47.5088 44.5004 47.5002C44.801 46.4055 44.9616 45.261 44.9616 44.0822C44.9616 43.3415 44.8982 42.6144 44.7768 41.9049Z" fill="#D1A582"/>
<path d="M38.3358 52.8478C38.0549 51.3397 36.6047 50.3452 35.0971 50.6257C33.589 50.9062 32.594 52.3559 32.8745 53.864C33.1177 55.1701 33.2622 56.3942 33.3151 57.6964C35.291 57.2498 37.1168 56.4511 38.709 55.3781C38.6183 54.5407 38.4955 53.7064 38.3358 52.8478Z" fill="#D1A582"/>
<path d="M24.1924 50.6257C22.6838 50.3447 21.2342 51.3402 20.9537 52.8478C20.7941 53.7064 20.6712 54.5407 20.5806 55.3776C22.1728 56.4511 23.9986 57.2492 25.9745 57.6959C26.0268 56.3942 26.1719 55.1701 26.4146 53.864C26.6955 52.3559 25.7005 50.9062 24.1924 50.6257Z" fill="#D1A582"/>
<path d="M17.2688 41.6018C16.3584 41.9342 15.3901 42.059 14.4993 41.986C14.3865 42.6698 14.3281 43.3698 14.3281 44.0823C14.3281 45.2847 14.4943 46.4519 14.8065 47.5662C14.8674 47.5673 14.9283 47.5693 14.9893 47.5693C16.3755 47.5693 17.7985 47.3215 19.1727 46.82C20.6138 46.2943 21.3555 44.7001 20.8298 43.259C20.3041 41.8179 18.7099 41.0766 17.2688 41.6018Z" fill="#D1A582"/>
<path d="M43.1837 44.0822C43.1837 37.3202 37.1222 31.8382 29.6446 31.8382C22.1671 31.8382 16.105 37.3202 16.105 44.0822C16.105 50.8447 22.1671 56.3268 29.6446 56.3268C37.1222 56.3268 43.1837 50.8447 43.1837 44.0822Z" fill="#DDAF89"/>
<path d="M41.8735 36.2205C38.5551 38.9739 34.2937 40.6295 29.645 40.6295C24.9964 40.6295 20.7349 38.9739 17.4166 36.2205C16.7112 37.1344 16.1225 38.1289 15.6769 39.1884C15.0691 40.631 15.6296 42.3033 16.9795 43.0953C20.6962 45.2772 25.0241 46.5284 29.645 46.5284C34.266 46.5284 38.5939 45.2772 42.3105 43.0953C43.6605 42.3033 44.221 40.631 43.6132 39.1884C43.167 38.1289 42.5789 37.1344 41.8735 36.2205Z" fill="#7F9AE6"/>
<path d="M23.4787 39.6154C21.2445 38.856 19.1946 37.6964 17.4166 36.2205C16.7112 37.1344 16.123 38.1289 15.6769 39.1884C15.0691 40.631 15.6296 42.3033 16.9795 43.0953C18.9121 44.2298 21.0109 45.11 23.2295 45.6961C22.4152 44.0631 22.6459 41.6109 23.4787 39.6154Z" fill="#5E78BF"/>
<path d="M24.3549 19.93C23.7814 19.93 23.2033 19.7558 22.7038 19.3928L19.243 16.8791C17.7273 15.7779 15.6835 15.8695 14.2721 17.1017L12.0061 19.0801C10.8359 20.1017 9.05893 19.9814 8.03725 18.8112C7.01557 17.6409 7.13592 15.864 8.30614 14.8423L10.5721 12.8639C12.2065 11.4368 14.2998 10.598 16.467 10.5008C18.6342 10.4041 20.7939 11.0527 22.5492 12.3276L26.01 14.8413C27.2669 15.7547 27.5458 17.5135 26.6329 18.7704C26.0825 19.5277 25.2245 19.93 24.3549 19.93Z" fill="#495059"/>
<path d="M34.9344 19.93C34.0643 19.93 33.2068 19.5277 32.6564 18.7704C31.7435 17.5135 32.0219 15.7542 33.2793 14.8413L36.7401 12.3271C38.4954 11.0521 40.6556 10.4046 42.8223 10.5008C44.9896 10.5979 47.0828 11.4368 48.7168 12.8634L50.9832 14.8423C52.1534 15.8639 52.2737 17.6409 51.2521 18.8111C50.2304 19.9814 48.4534 20.1017 47.2832 19.08L45.0168 17.1016C43.6058 15.8695 41.562 15.7778 40.0463 16.8791L36.585 19.3927C36.086 19.7558 35.5074 19.93 34.9344 19.93Z" fill="#495059"/>
<path d="M29.6448 42.2086C43.9241 42.2086 50.3593 35.6671 48.3507 26.4564C46.1925 16.5589 39.3943 11.1408 29.6448 11.1408C19.8952 11.1408 13.097 16.5589 10.9383 26.4564C8.9302 35.6671 15.3654 42.2086 29.6448 42.2086Z" fill="#DDAF89"/>
<path d="M33.4269 47.0058C33.4269 49.0944 31.7335 50.7878 29.6449 50.7878C27.5562 50.7878 25.8628 49.0944 25.8628 47.0058C25.8628 44.9171 27.5562 43.2237 29.6449 43.2237C31.7335 43.2237 33.4269 44.9171 33.4269 47.0058Z" fill="#F6E06A"/>
<path d="M22.7386 28.2405C22.7386 26.5586 21.0265 25.1956 18.9147 25.1956C16.8028 25.1956 15.0908 26.5586 15.0908 28.2405C15.0908 29.9223 16.8028 31.2858 18.9147 31.2858C21.0265 31.2858 22.7386 29.9223 22.7386 28.2405Z" fill="#FFDBDB"/>
<path d="M44.1985 28.2405C44.1985 26.5586 42.4865 25.1956 40.3746 25.1956C38.2623 25.1956 36.5508 26.5586 36.5508 28.2405C36.5508 29.9223 38.2623 31.2858 40.3746 31.2858C42.4865 31.2858 44.1985 29.9223 44.1985 28.2405Z" fill="#FFDBDB"/>
<path d="M31.65 25.7238C30.3358 25.3793 28.9541 25.3793 27.6393 25.7238C27.095 25.8663 26.6207 26.2011 26.304 26.6664C25.877 27.2953 26.1222 28.1574 26.8171 28.466L28.7436 29.3231C29.3171 29.5778 29.9722 29.5778 30.5463 29.3231L32.4728 28.466C33.1677 28.1574 33.4134 27.2953 32.9859 26.6664C32.6692 26.2011 32.1949 25.8663 31.65 25.7238Z" fill="#495059"/>
<path d="M33.6375 35.294C33.6375 33.089 31.8499 32.4092 29.6449 32.4092C27.4399 32.4092 25.6523 33.0885 25.6523 35.294C25.6523 37.499 27.4399 39.2861 29.6449 39.2861C31.8499 39.2861 33.6375 37.499 33.6375 35.294Z" fill="#D16283"/>
<path d="M29.6447 36.1183C28.3083 36.1183 27.051 36.3675 25.9492 36.8056C26.5449 38.2608 27.975 39.2865 29.6447 39.2865C31.3144 39.2865 32.744 38.2608 33.3402 36.8056C32.2384 36.3675 30.9811 36.1183 29.6447 36.1183Z" fill="#EB9898"/>
<path d="M40.1952 21.2151H36.0969C35.5772 21.2151 35.1562 21.636 35.1562 22.1557V25.6508C35.1562 27.3024 36.4947 28.6413 38.1463 28.6413C39.7974 28.6413 41.1363 27.3024 41.1363 25.6508V22.1557C41.1363 21.636 40.7148 21.2151 40.1952 21.2151Z" fill="#495059"/>
<path d="M38.2027 7.79175L37.8734 6.26452C37.2073 3.1738 34.474 0.966797 31.3123 0.966797H27.9769C24.8152 0.966797 22.082 3.1738 21.4158 6.26452L21.0865 7.79175C20.7944 9.14577 19.5487 10.0768 18.1675 9.97308L14.9423 9.73088C14.0626 9.66491 13.3562 10.4449 13.5092 11.3135L13.7283 12.5557C13.9952 14.0689 15.1553 15.2673 16.6589 15.5825C25.223 17.3791 34.0662 17.3791 42.6304 15.5825C44.1339 15.2673 45.2941 14.0689 45.5609 12.5557L45.78 11.3135C45.9331 10.4449 45.2266 9.66491 44.3469 9.73088L41.1218 9.97308C39.7406 10.0768 38.4943 9.14577 38.2027 7.79175Z" fill="#D16283"/>
<path d="M27.342 12.2178C27.0943 12.2178 26.8471 12.1237 26.6582 11.9349C26.2806 11.5572 26.2806 10.9449 26.6582 10.5678L31.2641 5.96189C31.6418 5.58424 32.2536 5.58424 32.6312 5.96189C33.0089 6.33954 33.0089 6.95185 32.6312 7.329L28.0253 11.9349C27.8365 12.1237 27.5893 12.2178 27.342 12.2178Z" fill="#F3E5B7"/>
<path d="M31.9474 12.2178C31.7002 12.2178 31.4529 12.1237 31.2641 11.9349L26.6582 7.329C26.2806 6.95134 26.2806 6.33954 26.6582 5.96189C27.0359 5.58424 27.6482 5.58424 28.0253 5.96189L32.6312 10.5678C33.0089 10.9454 33.0089 11.5572 32.6312 11.9349C32.4424 12.1237 32.1951 12.2178 31.9474 12.2178Z" fill="#F3E5B7"/>
<path d="M47.1807 39.712C46.8499 39.2392 47.0312 38.57 47.5655 38.3515C49.6556 37.496 52.1325 38.1657 53.4825 40.0937C54.832 42.0218 54.6145 44.5782 53.0958 46.25C52.7076 46.677 52.0172 46.6186 51.6859 46.1458L47.1807 39.712Z" fill="#495059"/>
<path d="M20.1766 23.8526V25.2031C20.1766 25.7368 20.6097 26.1699 21.1434 26.1699C21.6777 26.1699 22.1102 25.7368 22.1102 25.2031V23.8526C22.1102 23.3183 21.6777 22.8858 21.1434 22.8858C20.6097 22.8858 20.1766 23.3183 20.1766 23.8526ZM61.2759 35.0654C60.4682 33.6499 58.8584 32.9274 57.2702 33.2672C56.7486 33.379 56.4157 33.8931 56.5275 34.4153C56.6388 34.937 57.1524 35.2703 57.6751 35.158C58.4359 34.9954 59.2084 35.3433 59.5961 36.0231C60.0206 36.7668 59.8232 37.7643 59.1469 38.2936C58.4521 38.8374 57.4817 38.7976 56.8392 38.1999C56.2571 37.6586 55.3654 37.5952 54.7183 38.0478L53.6553 38.7921C51.9952 37.0861 49.4654 36.5292 47.199 37.4567C46.6758 37.6702 46.2841 38.1057 46.1239 38.6516C45.9613 39.2055 46.0575 39.7941 46.3883 40.2664L46.4422 40.3435C45.8545 40.6355 45.3102 40.8259 44.786 40.9215C44.8535 40.4069 44.8248 39.8762 44.6888 39.3575C46.0393 38.3837 47.131 37.2346 47.9508 35.9189C48.2333 35.4657 48.0948 34.8695 47.6416 34.587C47.1889 34.3045 46.5922 34.4435 46.3097 34.8962C43.7598 38.9879 37.8412 41.2418 29.6446 41.2418C23.9889 41.2418 19.4822 40.2075 16.3674 38.2241C16.319 38.1863 16.2671 38.1526 16.2108 38.1239C15.1991 37.4592 14.3381 36.6918 13.6387 35.8237C11.7066 33.4249 11.0993 30.2566 11.8828 26.6628C12.7958 22.4769 14.5596 19.1173 17.1242 16.6636C19.9551 17.227 22.798 17.5987 25.6445 17.7784C28.206 20.2568 31.0097 22.1149 34.1891 23.4352V25.6507C34.1891 27.8326 35.964 29.608 38.1459 29.608C40.3277 29.608 42.1027 27.8326 42.1027 25.6507V25.5168C43.7261 25.7358 45.4416 25.8607 47.2247 25.8879C47.2881 26.1432 47.349 26.401 47.4059 26.6628C47.7635 28.3019 47.837 29.8558 47.624 31.2808C47.5454 31.809 47.9095 32.301 48.4377 32.38C48.486 32.3871 48.5339 32.3906 48.5817 32.3906C49.052 32.3906 49.4649 32.0462 49.5364 31.5663C49.7841 29.9081 49.7026 28.1196 49.2952 26.2509C49.1824 25.7328 49.055 25.2283 48.9176 24.7328C48.9105 24.6975 48.9004 24.6633 48.8894 24.6291C48.4372 23.0223 47.8546 21.5378 47.1476 20.1768C47.7564 20.5529 48.4442 20.7392 49.1301 20.7392C50.1845 20.7392 51.2333 20.3016 51.9801 19.4471C53.3507 17.8771 53.1881 15.4848 51.6185 14.1142L49.3521 12.1358C48.553 11.4379 47.6552 10.8694 46.6778 10.4378C46.5816 10.103 46.4094 9.79079 46.1672 9.52291C45.6833 8.98866 44.9935 8.71222 44.2744 8.7671L41.0488 9.0093C40.153 9.07476 39.3367 8.46548 39.1474 7.58832L38.8186 6.06109C38.0618 2.54891 34.9046 0 31.3124 0H27.9769C24.3842 0 21.2275 2.54891 20.4707 6.06109L20.1414 7.58832C19.9525 8.46548 19.1343 9.07476 18.24 9.0093L15.0148 8.7671C14.2953 8.71272 13.6059 8.98866 13.122 9.52291C12.8798 9.79079 12.7071 10.103 12.611 10.4373C11.6341 10.8689 10.7358 11.4379 9.93667 12.1358L7.67074 14.1142C6.10071 15.4848 5.93857 17.8771 7.3092 19.4471C8.05545 20.3016 9.10432 20.7392 10.1587 20.7392C10.845 20.7392 11.5329 20.5529 12.1417 20.1768C11.2021 21.9845 10.4825 24.0107 9.99407 26.2509C9.08115 30.4364 9.82085 34.1661 12.1331 37.0367C12.8275 37.8988 13.6523 38.6727 14.6004 39.358C14.4559 39.9084 14.4323 40.4724 14.5168 41.0167C13.9368 40.9628 13.4136 40.8092 13.0042 40.561C12.3406 40.1582 11.9705 39.5066 11.8395 38.5096C11.5712 36.4647 9.68792 35.0181 7.64003 35.2844C5.59315 35.5528 4.14648 37.437 4.41487 39.4839C4.83985 42.7247 6.5111 45.3809 9.12043 46.963C10.8163 47.9922 12.8456 48.536 14.9887 48.536C15.3124 48.536 15.6412 48.5214 15.9716 48.4958C16.2223 49.1383 16.5255 49.7581 16.8779 50.3503C15.4192 51.1298 14.4348 50.8498 13.2676 50.3734C12.4785 50.0512 11.6119 50.0557 10.8269 50.3855C10.0414 50.7153 9.43162 51.3312 9.10986 52.1197C8.7881 52.9083 8.79212 53.7748 9.12194 54.5604C9.45176 55.3454 10.0681 55.9552 10.8566 56.2774C12.4085 56.9109 13.8401 57.2195 15.2324 57.2195C16.6957 57.2195 18.1166 56.8711 19.5351 56.1641C19.4253 57.5423 19.4032 58.9447 19.4636 60.48C19.4843 61.0006 19.9123 61.409 20.4289 61.409C20.442 61.409 20.4546 61.4085 20.4677 61.408C21.0014 61.3873 21.4168 60.9377 21.3957 60.4044C21.3202 58.4804 21.3806 56.7795 21.5895 55.0639C22.6586 55.7165 23.8278 56.2432 25.0715 56.6203C24.9416 58.2614 24.9597 59.994 25.1249 62.1154C25.1621 62.5973 25.0096 63.0651 24.6954 63.4327C24.3812 63.8003 23.9421 64.0234 23.4592 64.0611C23.4124 64.0646 23.3645 64.0667 23.3167 64.0667C22.863 64.0667 22.4279 63.8965 22.0926 63.5873C21.6998 63.2252 21.0885 63.2504 20.7265 63.6432C20.3644 64.0359 20.3896 64.6477 20.7824 65.0093C21.4762 65.6483 22.3761 66.0002 23.3167 66.0002C23.4149 66.0002 23.5141 65.9962 23.6102 65.9887C24.6072 65.9111 25.5141 65.4499 26.1647 64.69C26.8148 63.9297 27.13 62.9624 27.0524 61.9654C26.9034 60.0489 26.8777 58.5227 26.9764 57.069C27.8415 57.216 28.7332 57.2936 29.6446 57.2936C30.556 57.2936 31.4473 57.216 32.3129 57.069C32.4111 58.5227 32.3859 60.0489 32.2369 61.9654C32.1593 62.9624 32.4745 63.9297 33.1246 64.69C33.7747 65.4499 34.682 65.9111 35.678 65.9882C35.7752 65.9962 35.8744 66.0002 35.9726 66.0002C37.9132 66.0002 39.5518 64.4831 39.7028 62.5465C39.9641 59.1849 39.8977 56.5282 39.4757 53.7874C41.1983 52.3393 42.5352 50.517 43.3298 48.4635C43.5438 48.4751 43.7558 48.4822 43.9648 48.4822C46.2261 48.4822 48.5112 47.822 50.7691 46.5224L50.8934 46.7006C51.2243 47.173 51.7449 47.465 52.321 47.5013C52.3613 47.5043 52.4015 47.5053 52.4413 47.5053C52.9645 47.5053 53.4585 47.2888 53.8114 46.9005C55.458 45.0873 55.7999 42.5203 54.7641 40.3767L55.6675 39.7443C57.0084 40.8702 58.9425 40.9094 60.3388 39.8163C61.7759 38.6909 62.1787 36.6485 61.2759 35.0654ZM40.1691 25.6507C40.1691 26.7666 39.2612 27.6739 38.1459 27.6739C37.03 27.6739 36.1227 26.7666 36.1227 25.6507V22.1819H40.1691V25.6507ZM42.1027 23.5661V22.1557C42.1027 21.1038 41.2467 20.2483 40.1948 20.2483H36.0965C35.3135 20.2483 34.6402 20.7221 34.3467 21.3978C32.3048 20.49 30.4302 19.3318 28.6784 17.8973C29.0006 17.9023 29.3224 17.9053 29.6446 17.9053C33.827 17.9053 38.0089 17.4909 42.1651 16.6636C44.147 18.5599 45.6486 20.9985 46.6501 23.9407C45.0665 23.8959 43.5433 23.7715 42.1027 23.5661ZM46.5132 12.7234L46.5479 12.5255C47.0973 12.8251 47.6104 13.1811 48.0807 13.592L50.3471 15.5704C51.1135 16.2401 51.193 17.4088 50.5233 18.1752C49.8541 18.9421 48.6854 19.0212 47.9185 18.3519L45.6526 16.373C45.351 16.1097 45.0192 15.8881 44.6677 15.7059C45.6229 15.0024 46.2966 13.95 46.5132 12.7234ZM14.5556 10.8205C14.5994 10.7717 14.6926 10.6936 14.8381 10.6936C14.8487 10.6936 14.8593 10.6941 14.8698 10.6951L18.0955 10.9374C19.9485 11.0768 21.6404 9.81144 22.0317 7.99568L22.361 6.46845C22.9269 3.84099 25.289 1.93359 27.9769 1.93359H31.3124C34.0002 1.93359 36.3623 3.84099 36.9283 6.46845L37.2576 7.99568C37.6489 9.81144 39.3393 11.0763 41.1938 10.9374L44.4195 10.6951C44.5836 10.6841 44.6863 10.7682 44.7337 10.8205C44.7734 10.8643 44.8313 10.9499 44.8334 11.0713C44.8329 11.0793 44.8329 11.0879 44.8329 11.0965C44.8319 11.1126 44.8308 11.1287 44.8278 11.1458L44.6088 12.388C44.4094 13.518 43.5549 14.4007 42.432 14.6363C37.0507 15.7653 31.6215 16.1772 26.2055 15.874C26.142 15.864 26.0781 15.8604 26.0141 15.863C22.9541 15.6822 19.8982 15.2743 16.8573 14.6363C15.7344 14.4007 14.8799 13.518 14.6805 12.388L14.4615 11.1458C14.4589 11.1287 14.4574 11.1121 14.4564 11.096C14.4564 11.0879 14.4564 11.0799 14.4564 11.0718C14.4574 10.9499 14.5158 10.8643 14.5556 10.8205ZM11.3707 18.3514C10.6039 19.0212 9.43514 18.9416 8.76594 18.1752C8.09623 17.4088 8.17529 16.2401 8.94218 15.5704L11.2081 13.592C11.6789 13.1811 12.192 12.8251 12.7414 12.5255L12.7761 12.7234C12.9926 13.95 13.6664 15.0019 14.6216 15.7059C14.2701 15.8881 13.9383 16.1097 13.6367 16.373L11.3707 18.3514ZM10.123 45.3099C8.02574 44.0379 6.67928 41.8793 6.33184 39.2322C6.20192 38.2422 6.90184 37.3313 7.89029 37.2014C8.88125 37.0725 9.79265 37.7724 9.92206 38.7614C10.1295 40.3415 10.8289 41.5031 12.0012 42.2141C12.8637 42.7368 13.9962 43.0006 15.1916 42.9689C15.1579 43.34 15.1382 43.7121 15.1382 44.0822C15.1382 44.9403 15.2299 45.7792 15.4021 46.5919C13.4539 46.6684 11.6225 46.2193 10.123 45.3099ZM29.6446 44.1905C31.1971 44.1905 32.4599 45.4534 32.4599 47.0058C32.4599 48.5582 31.1971 49.8211 29.6446 49.8211C28.0922 49.8211 26.8294 48.5582 26.8294 47.0058C26.8294 45.4534 28.0922 44.1905 29.6446 44.1905ZM16.4031 40.4764C19.1806 41.9503 22.7351 42.8345 26.9568 43.0938C26.214 43.6054 25.6229 44.3229 25.2679 45.1628C22.5135 44.6583 19.8931 43.6855 17.4686 42.2619C17.2657 42.1426 17.0904 41.9936 16.9419 41.8244C16.9404 41.8224 16.9384 41.8198 16.9363 41.8178C16.6101 41.4432 16.4222 40.9679 16.4031 40.4764ZM15.2329 55.2855C14.0959 55.2855 12.9035 55.0246 11.5878 54.4873C11.2771 54.3605 11.0349 54.1203 10.905 53.8111C10.7751 53.5024 10.7735 53.161 10.9004 52.8509C11.0268 52.5407 11.267 52.298 11.5762 52.1681C11.8849 52.0381 12.2263 52.0366 12.5369 52.1635C14.046 52.7799 15.7062 53.2522 17.9928 51.9425C18.5336 52.6056 19.1408 53.2204 19.805 53.7799C18.2627 54.792 16.7631 55.2855 15.2329 55.2855ZM37.7748 62.3959C37.7018 63.3325 36.9102 64.0662 35.9726 64.0662C35.9248 64.0662 35.8769 64.0641 35.8291 64.0606C35.3472 64.0229 34.9081 63.7998 34.5939 63.4327C34.2792 63.0651 34.1271 62.5973 34.1644 62.1149C34.3296 59.9935 34.3472 58.2609 34.2178 56.6198C35.4615 56.2427 36.6312 55.716 37.7007 55.0634C37.9777 57.3243 37.9958 59.5565 37.7748 62.3959ZM29.6446 55.36C22.7789 55.36 17.1821 50.3976 17.0743 44.262C19.5235 45.6165 22.1485 46.5546 24.8973 47.0607C24.927 49.6539 27.0444 51.7546 29.6446 51.7546C32.2444 51.7546 34.3623 49.6539 34.392 47.0607C37.1408 46.5546 39.7658 45.6165 42.2145 44.262C42.1072 50.3976 36.5104 55.36 29.6446 55.36ZM42.3524 41.8183C42.3509 41.8198 42.3499 41.8214 42.3484 41.8229C42.1999 41.9926 42.0241 42.1426 41.8207 42.2619C39.3957 43.6855 36.7757 44.6583 34.0214 45.1628C33.6664 44.3224 33.0752 43.6054 32.3325 43.0933C35.6987 42.8863 38.6509 42.2816 41.1319 41.2846C41.7487 41.0368 42.3328 40.7649 42.8862 40.4719C42.8675 40.9653 42.6797 41.4427 42.3524 41.8183ZM43.9643 46.5481C43.9421 46.5481 43.9189 46.5476 43.8963 46.5471C44.0629 45.7484 44.1511 44.9247 44.1511 44.0822C44.1511 43.6985 44.1304 43.3128 44.0937 42.9281C45.207 42.908 46.3369 42.5867 47.5615 41.9417L49.6562 44.9332C47.7332 46.0183 45.8626 46.5481 43.9643 46.5481ZM52.4378 45.5344L48.0122 39.214C49.6955 38.569 51.6503 39.1637 52.6901 40.6486C53.7294 42.133 53.6196 44.1734 52.4378 45.5344ZM24.6853 35.294C24.6853 38.0282 26.9099 40.2533 29.6446 40.2533C32.3794 40.2533 34.604 38.0282 34.604 35.294C34.604 33.9707 34.0566 31.8251 30.6114 31.4888V30.3301C30.7222 30.2954 30.8315 30.2541 30.9387 30.2062L32.8653 29.3497C33.4589 29.0859 33.9016 28.5763 34.0793 27.9514C34.2576 27.3265 34.1503 26.6603 33.7847 26.1231C33.3371 25.4639 32.6654 24.9901 31.895 24.7887C30.4226 24.4035 28.8667 24.4035 27.3943 24.7887C26.6234 24.9901 25.9522 25.4639 25.504 26.1231C25.139 26.6603 25.0317 27.3265 25.2095 27.9514C25.3877 28.5763 25.8303 29.0859 26.4235 29.3497L28.3505 30.2062C28.4578 30.2541 28.5671 30.2954 28.6778 30.3306V31.4888C25.2326 31.8251 24.6853 33.9707 24.6853 35.294ZM27.2095 27.5828C27.1204 27.543 27.0842 27.473 27.0695 27.4212C27.0544 27.3698 27.0484 27.2908 27.1033 27.2102C27.2886 26.9383 27.5655 26.7424 27.8843 26.6588C28.4598 26.5083 29.0525 26.4327 29.6446 26.4327C30.2368 26.4327 30.8295 26.5083 31.405 26.6588H31.4055C31.7238 26.7424 32.0012 26.9383 32.186 27.2102C32.2409 27.2908 32.2348 27.3693 32.2197 27.4212C32.2051 27.473 32.1689 27.543 32.0798 27.5828L30.1532 28.4393C29.8299 28.5828 29.4593 28.5828 29.1361 28.4393L27.2095 27.5828ZM29.6446 33.376C32.6704 33.376 32.6704 34.72 32.6704 35.294C32.6704 36.9622 31.3129 38.3197 29.6446 38.3197C27.9759 38.3197 26.6189 36.9622 26.6189 35.294C26.6189 34.72 26.6189 33.376 29.6446 33.376Z" fill="black"/>
</g>
<defs>
<clipPath id="clip0_1591_24912">
<rect width="65.9997" height="66" fill="white"/>
</clipPath>
</defs>
</svg>
