<svg width="66" height="66" viewBox="0 0 66 66" fill="none" xmlns="http://www.w3.org/2000/svg">
<g clip-path="url(#clip0_1591_24941)">
<path d="M52.6813 2.3505L53.5494 1.45823C54.4311 0.552362 55.9649 0.96325 56.2756 2.18887L56.5817 3.39535C56.8053 4.27755 57.7127 4.80173 58.5883 4.55449L59.7863 4.21612C61.0033 3.8722 62.1257 4.99509 61.7823 6.21164L61.4439 7.40956C61.1962 8.28522 61.7203 9.1926 62.6026 9.41617L63.809 9.72232C65.0346 10.033 65.4455 11.5668 64.5397 12.4485L63.6474 13.3166C62.9953 13.9515 62.9953 14.9994 63.6474 15.6339L64.5397 16.5025C65.4455 17.3842 65.0346 18.918 63.809 19.2286L62.6026 19.5343C61.7203 19.7579 61.1962 20.6652 61.4439 21.5414L61.7823 22.7393C62.1257 23.9559 61.0028 25.0788 59.7863 24.7348L58.5883 24.3965C57.7127 24.1487 56.8053 24.6729 56.5817 25.5551L56.2756 26.7616C55.9649 27.9872 54.4311 28.3981 53.5494 27.4922L52.6813 26.6005C52.0463 25.9479 50.9985 25.9479 50.3635 26.6005L49.4954 27.4922C48.6137 28.3981 47.0799 27.9872 46.7693 26.7616L46.4636 25.5551C46.24 24.6729 45.3327 24.1492 44.4565 24.3965L43.2586 24.7348C42.042 25.0788 40.9191 23.9559 41.263 22.7393L41.6014 21.5414C41.8487 20.6652 41.325 19.7579 40.4423 19.5343L39.2358 19.2286C38.0107 18.918 37.5993 17.3842 38.5057 16.5025L39.3974 15.6339C40.0495 14.9994 40.0495 13.9515 39.3974 13.3166L38.5057 12.4485C37.5993 11.5668 38.0102 10.033 39.2358 9.72232L40.4423 9.41617C41.325 9.1926 41.8487 8.28522 41.6014 7.40956L41.263 6.21164C40.9191 4.99509 42.042 3.8722 43.2586 4.21612L44.4565 4.55449C45.3327 4.80173 46.24 4.27755 46.4636 3.39535L46.7693 2.18887C47.0799 0.96325 48.6137 0.552362 49.4954 1.45823L50.3635 2.3505C50.9985 3.00259 52.0463 3.00259 52.6813 2.3505Z" fill="#D16283"/>
<path d="M60.891 14.4752C60.891 19.6496 56.6965 23.8441 51.5227 23.8441C46.3483 23.8441 42.1538 19.6496 42.1538 14.4752C42.1538 9.30136 46.3483 5.10687 51.5227 5.10687C56.6965 5.10687 60.891 9.30136 60.891 14.4752Z" fill="#F6E06A"/>
<path d="M12.7608 61.531C12.075 61.531 11.4018 61.1982 10.9949 60.5838C10.3494 59.6095 10.6158 58.2963 11.5901 57.6512C13.06 56.6769 13.4552 56.415 14.5499 52.3474C14.8536 51.2195 16.0142 50.5508 17.1426 50.8544C18.2711 51.1581 18.9398 52.3192 18.6361 53.4477C17.3939 58.0631 16.558 59.4358 13.9275 61.1785C13.5675 61.4172 13.1622 61.531 12.7608 61.531Z" fill="#495059"/>
<path d="M27.1448 65.0327C27.0758 65.0327 27.0063 65.0301 26.9368 65.0246C25.4806 64.9113 24.3914 63.6389 24.5052 62.1826L24.5078 62.1504C24.762 58.8824 24.9297 56.7237 24.4967 54.3964C24.2298 52.9603 25.177 51.5796 26.6131 51.3127C28.0486 51.0443 29.4299 51.9925 29.6972 53.4291C30.2577 56.4403 30.0578 59.0073 29.7813 62.5603L29.7788 62.593C29.671 63.9792 28.5124 65.0327 27.1448 65.0327Z" fill="#DDAF89"/>
<path d="M17.1029 65.0326C17.0339 65.0326 16.965 65.0301 16.895 65.0246C15.4387 64.9113 14.3501 63.6388 14.4634 62.1826L14.4659 62.1504C14.7202 58.8824 14.8879 56.7237 14.4548 54.3969C14.1874 52.9608 15.1351 51.5796 16.5712 51.3127C18.0073 51.0443 19.388 51.993 19.6554 53.4286C20.2158 56.4402 20.0159 59.0073 19.7395 62.5608L19.7369 62.593C19.6292 63.9792 18.4705 65.0326 17.1029 65.0326Z" fill="#DDAF89"/>
<path d="M7.27009 58.2933C6.94883 58.2933 6.62254 58.2344 6.30531 58.11C4.94525 57.5768 4.27554 56.042 4.80879 54.6819C5.4508 53.0454 5.74185 51.7095 6.05002 50.2956C6.47047 48.368 6.90553 46.3745 8.20114 43.9122C8.88192 42.6196 10.4812 42.1231 11.7738 42.8039C13.0663 43.4847 13.5623 45.0839 12.882 46.3765C11.9203 48.2029 11.595 49.6948 11.2183 51.4225C10.8951 52.9044 10.529 54.5842 9.7329 56.6135C9.32403 57.6563 8.32652 58.2933 7.27009 58.2933Z" fill="#DDAF89"/>
<path d="M35.5714 58.2933C34.515 58.2933 33.5175 57.6563 33.1081 56.6135C32.3125 54.5842 31.9459 52.9049 31.6232 51.4225C31.246 49.6954 30.9207 48.2029 29.9595 46.3765C29.2787 45.084 29.7752 43.4847 31.0678 42.8039C32.3599 42.1236 33.9596 42.6196 34.6399 43.9122C35.936 46.3745 36.3711 48.368 36.791 50.2956C37.0997 51.7095 37.3907 53.0454 38.0327 54.6819C38.566 56.042 37.8963 57.5768 36.5362 58.11C36.2195 58.2344 35.8927 58.2933 35.5714 58.2933Z" fill="#DDAF89"/>
<path d="M35.905 46.871C35.5984 45.9505 35.2001 44.9752 34.6407 43.9122C33.9599 42.6201 32.3606 42.1236 31.068 42.8039C29.7755 43.4842 29.2795 45.0839 29.9598 46.3765C30.9215 48.2028 31.2468 49.6953 31.6234 51.4225C31.7977 52.2216 31.985 53.0791 32.2448 54.0172C34.1769 52.0695 35.4916 49.6002 35.905 46.871Z" fill="#D1A582"/>
<path d="M30.001 55.8586C29.9476 55.0626 29.8525 54.2629 29.6974 53.4291C29.43 51.993 28.0488 51.0443 26.6132 51.3127C25.1771 51.5801 24.2294 52.9608 24.4968 54.3969C24.7214 55.6039 24.7833 56.7665 24.7566 58.0611C26.6771 57.6487 28.4531 56.8894 30.001 55.8586Z" fill="#D1A582"/>
<path d="M16.5712 51.3127C15.1351 51.5801 14.1874 52.9608 14.4548 54.3969C14.6114 55.2388 14.689 56.0596 14.7126 56.9181C16.3245 57.6835 18.1105 58.182 20.0008 58.3492C20.0451 56.6799 19.9706 55.1245 19.6554 53.4291C19.388 51.993 18.0073 51.0443 16.5712 51.3127Z" fill="#D1A582"/>
<path d="M11.7735 42.8039C10.4809 42.1236 8.8817 42.6196 8.20091 43.9126C7.64148 44.9751 7.24318 45.9505 6.93652 46.8709C7.34993 49.6001 8.66467 52.0695 10.5968 54.0172C10.8566 53.0791 11.0439 52.2221 11.2181 51.4229C11.5948 49.6953 11.9201 48.2033 12.8818 46.3765C13.5621 45.0839 13.0661 43.4846 11.7735 42.8039Z" fill="#D1A582"/>
<path d="M34.3141 45.022C34.3141 38.5822 28.5415 33.362 21.421 33.362C14.2999 33.362 8.52734 38.5822 8.52734 45.022C8.52734 51.4617 14.2999 56.6819 21.421 56.6819C28.5415 56.6819 34.3141 51.4617 34.3141 45.022Z" fill="#DDAF89"/>
<path d="M33.0661 37.5353C29.9064 40.1573 25.8478 41.7344 21.4212 41.7344C16.9941 41.7344 12.9361 40.1573 9.77585 37.5353C9.10413 38.4055 8.54369 39.3526 8.1192 40.3612C7.54064 41.7354 8.07439 43.3276 9.35992 44.0824C12.8988 46.16 17.0203 47.3518 21.4212 47.3518C25.8216 47.3518 29.9431 46.16 33.482 44.0824C34.768 43.3276 35.3013 41.7354 34.7227 40.3612C34.2982 39.3526 33.7378 38.4055 33.0661 37.5353Z" fill="#7F9AE6"/>
<path d="M15.5489 40.7681C13.421 40.045 11.4693 38.9407 9.77585 37.5353C9.10413 38.4055 8.54369 39.3526 8.1192 40.3612C7.54064 41.7354 8.07439 43.3276 9.35992 44.0824C11.1999 45.1625 13.1989 46.0008 15.3113 46.5593C14.5363 45.0033 14.7559 42.6684 15.5489 40.7681Z" fill="#5E78BF"/>
<path d="M17.4263 21.982C16.8714 21.982 16.3119 21.8134 15.8285 21.4624L12.4795 19.0298C11.0132 17.9643 9.03529 18.0529 7.66969 19.2448L5.47678 21.1593C4.34432 22.1482 2.62523 22.0314 1.63628 20.8994C0.647834 19.767 0.764152 18.0474 1.89661 17.0584L4.08953 15.144C5.67064 13.7638 7.69638 12.9516 9.79362 12.8579C11.8909 12.7643 13.9806 13.3917 15.679 14.6253L19.028 17.0579C20.2441 17.9411 20.514 19.6436 19.6308 20.8597C19.098 21.5928 18.2677 21.982 17.4263 21.982Z" fill="#495059"/>
<path d="M27.6636 21.982C26.8217 21.982 25.9918 21.5928 25.4591 20.8597C24.5759 19.6436 24.8458 17.9411 26.0618 17.0579L29.4109 14.6253C31.1093 13.3917 33.2 12.7643 35.2962 12.8579C37.3935 12.9516 39.4192 13.7638 41.0003 15.144L43.1932 17.0589C44.3257 18.0474 44.442 19.767 43.4531 20.8994C42.4646 22.0319 40.745 22.1482 39.6126 21.1593L37.4202 19.2448C36.0546 18.0529 34.0767 17.9643 32.6104 19.0293L29.2613 21.4624C28.7779 21.8134 28.2185 21.982 27.6636 21.982Z" fill="#495059"/>
<path d="M22.545 43.5401C36.3627 43.5401 42.5894 37.2101 40.6463 28.2974C38.5576 18.7196 31.9794 13.4767 22.545 13.4767C13.1107 13.4767 6.53248 18.7196 4.4438 28.2974C2.50064 37.2101 8.72741 43.5401 22.545 43.5401Z" fill="#DDAF89"/>
<path d="M28.2178 47.806C28.2178 49.795 26.6054 51.4074 24.6165 51.4074C22.6275 51.4074 21.0146 49.795 21.0146 47.806C21.0146 45.8171 22.6275 44.2042 24.6165 44.2042C26.6054 44.2042 28.2178 45.8171 28.2178 47.806Z" fill="#F6E06A"/>
<path d="M17.6144 29.2753C17.6144 27.5698 15.8787 26.1876 13.7376 26.1876C11.5961 26.1876 9.86035 27.5698 9.86035 29.2753C9.86035 30.9803 11.5961 32.3625 13.7376 32.3625C15.8787 32.3625 17.6144 30.9803 17.6144 29.2753Z" fill="#FFDBDB"/>
<path d="M39.3727 29.2753C39.3727 27.5698 37.637 26.1876 35.4954 26.1876C33.3544 26.1876 31.6182 27.5698 31.6182 29.2753C31.6182 30.9803 33.3544 32.3625 35.4954 32.3625C37.637 32.3625 39.3727 30.9803 39.3727 29.2753Z" fill="#FFDBDB"/>
<path d="M26.6496 26.7233C25.3163 26.3744 23.9159 26.3744 22.5831 26.7233C22.0307 26.8678 21.5498 27.2072 21.229 27.679C20.7955 28.3165 21.0447 29.1907 21.7492 29.5039L23.7024 30.3725C24.284 30.6313 24.9482 30.6313 25.5303 30.3725L27.4835 29.5039C28.188 29.1907 28.4367 28.3165 28.0037 27.679C27.6829 27.2072 27.2015 26.8678 26.6496 26.7233Z" fill="#495059"/>
<path d="M24.6033 37.99C26.3722 37.99 27.9473 39.1789 28.9383 37.7131C29.9433 36.2261 27.6925 33.9199 24.6033 33.9199C21.5141 33.9199 19.2633 36.2261 20.2683 37.7131C21.2593 39.1789 22.8344 37.99 24.6033 37.99Z" fill="#D16283"/>
<path d="M8.99763 15.7985C9.35666 15.4304 9.9463 15.4304 10.3048 15.7985C11.2288 16.7457 12.8049 18.6284 12.8049 20.4487C12.8049 22.1905 11.393 23.6019 9.65123 23.6019C7.90948 23.6019 6.49756 22.1905 6.49756 20.4487C6.49756 18.6279 8.07414 16.7457 8.99763 15.7985Z" fill="#7F9AE6"/>
<path d="M18.2896 11.7587C18.6486 11.3906 19.2383 11.3906 19.5973 11.7587C20.5208 12.7058 22.0969 14.5886 22.0969 16.4089C22.0969 18.1506 20.6849 19.5625 18.9432 19.5625C17.202 19.5625 15.79 18.1506 15.79 16.4089C15.79 14.5886 17.3661 12.7058 18.2896 11.7587Z" fill="#7F9AE6"/>
<path d="M15.997 23.8592C15.4632 23.8592 15.0302 24.2918 15.0302 24.826V26.1951C15.0302 26.7289 15.4632 27.1619 15.997 27.1619C16.5307 27.1619 16.9638 26.7289 16.9638 26.1951V24.826C16.9638 24.2918 16.5307 23.8592 15.997 23.8592ZM64.3217 14.9415C64.1948 14.8182 64.1248 14.6525 64.1248 14.4758C64.1248 14.2985 64.1948 14.1328 64.3217 14.0095L65.2139 13.1414C65.8937 12.4797 66.153 11.5376 65.9073 10.6212C65.6616 9.70471 64.9662 9.01839 64.0462 8.78525L62.8398 8.4796C62.668 8.4363 62.525 8.32753 62.4364 8.17446C62.3483 8.02138 62.3256 7.84262 62.374 7.67243L62.7124 6.47451C62.9702 5.56159 62.7239 4.61594 62.0532 3.94523C61.382 3.27451 60.4364 3.02828 59.5234 3.28559L58.326 3.62397C58.1553 3.67231 57.9771 3.65015 57.824 3.56153C57.6704 3.47291 57.5622 3.3299 57.5183 3.1582L57.2127 1.95171C56.9796 1.03225 56.2932 0.33636 55.3768 0.0911359C54.4604 -0.154591 53.5182 0.104731 52.8566 0.78451L51.9885 1.67678C51.8646 1.80317 51.6994 1.87316 51.5227 1.87316C51.3455 1.87316 51.1798 1.80317 51.0564 1.67678L50.1883 0.78451C49.5267 0.104731 48.5845 -0.155095 47.6681 0.0911359C46.7517 0.33636 46.0653 1.03225 45.8322 1.95171L45.5266 3.1582C45.4832 3.3299 45.3745 3.47291 45.2214 3.56153C45.0678 3.65015 44.8896 3.67231 44.7194 3.62397L43.5215 3.28559C42.6085 3.02778 41.6629 3.27401 40.9922 3.94523C40.3215 4.61594 40.0747 5.56159 40.3325 6.47451L40.6709 7.67243C40.7193 7.84262 40.6971 8.02088 40.6085 8.17446C40.5199 8.32753 40.3769 8.4363 40.2051 8.4796L38.9987 8.78525C38.0792 9.01839 37.3833 9.70471 37.1381 10.6212C36.9986 11.1408 37.0223 11.6685 37.192 12.1489C36.5857 12.0079 35.9658 11.9203 35.3394 11.8921C33.2251 11.7979 31.1122 12.3715 29.3327 13.5115C27.2692 12.8458 25.0023 12.5099 22.545 12.5099C22.2112 12.5099 21.8728 12.5195 21.5339 12.5331C21.1945 12.0749 20.7841 11.5915 20.2891 11.0839C19.9321 10.7178 19.4543 10.5159 18.9437 10.5159C18.4331 10.5159 17.9547 10.7178 17.5977 11.0839C16.7437 11.9596 16.1415 12.7647 15.721 13.4888C13.9486 12.3634 11.8503 11.7974 9.75057 11.8921C7.43579 11.9958 5.19958 12.8921 3.4538 14.4158L1.26089 16.3303C-0.270879 17.6682 -0.429494 20.0026 0.908411 21.5349C1.63653 22.3692 2.66023 22.7957 3.68946 22.7957C4.32543 22.7957 4.96342 22.6316 5.53443 22.3003C4.64518 24.0344 3.96036 25.9766 3.49912 28.0915C2.6139 32.1515 3.33195 35.7694 5.57522 38.555C6.042 39.1346 6.57071 39.6724 7.15633 40.1699C6.76508 41.2469 6.87636 42.4126 7.3935 43.3784C7.37738 43.4061 7.36077 43.4338 7.34566 43.462C5.98913 46.0396 5.53997 48.0981 5.10491 50.0916C4.8053 51.4663 4.52231 52.7649 3.9085 54.3294C3.55653 55.2272 3.57516 56.2086 3.96087 57.0928C4.34658 57.977 5.05405 58.6578 5.95237 59.0103C6.37534 59.176 6.81845 59.2601 7.27013 59.2601C8.36231 59.2601 9.35881 58.7792 10.031 57.9785C9.89659 58.2343 9.79639 58.5108 9.73747 58.8018C9.57332 59.609 9.73395 60.4313 10.1886 61.1176C10.7612 61.9822 11.7224 62.4983 12.7602 62.4983C13.0075 62.4983 13.2517 62.4671 13.4888 62.4092C13.4924 63.2632 13.794 64.0799 14.3554 64.7361C14.9823 65.4687 15.8575 65.9138 16.8182 65.9889C16.9119 65.9959 17.0076 65.9999 17.1027 65.9999C18.9744 65.9999 20.555 64.5366 20.7005 62.668L20.7031 62.6358C20.8445 60.817 20.9684 59.2011 20.976 57.6422C21.1235 57.6462 21.2716 57.6492 21.4206 57.6492C22.2298 57.6492 23.0229 57.5848 23.7943 57.4634C23.7973 58.8079 23.682 60.2953 23.5435 62.0759L23.541 62.1081C23.466 63.0698 23.7701 64.0029 24.3975 64.7361C25.0244 65.4692 25.8996 65.9138 26.8598 65.9889C26.954 65.9964 27.0497 65.9999 27.1443 65.9999C28.1252 65.9999 29.0774 65.5916 29.7567 64.8796C30.1248 64.4933 30.1107 63.8815 29.724 63.513C29.3378 63.1444 28.726 63.1585 28.3574 63.5452C28.0411 63.8765 27.5995 64.0663 27.1443 64.0663C27.101 64.0663 27.0572 64.0648 27.0114 64.0613C26.5648 64.0266 26.1579 63.8201 25.8663 63.4792C25.5753 63.1388 25.4338 62.7048 25.4686 62.2576L25.4711 62.2254C25.6277 60.2153 25.7556 58.5657 25.7228 57.0259C26.8951 56.6764 27.9988 56.188 29.011 55.5822C29.1399 57.1356 29.09 58.6865 28.9641 60.5244C28.9279 61.0572 29.3302 61.5189 29.8629 61.5552C29.8851 61.5567 29.9073 61.5572 29.9294 61.5572C30.4335 61.5572 30.8584 61.167 30.8932 60.6564C31.0548 58.2928 31.0961 56.3667 30.8141 54.2982C30.9531 54.1819 31.0896 54.063 31.223 53.9412C31.4712 54.8762 31.7809 55.8773 32.2084 56.9674C32.7553 58.3602 34.0751 59.2606 35.5716 59.2606C36.0227 59.2606 36.4664 59.1765 36.8898 59.0108C37.7877 58.6583 38.4951 57.9775 38.8808 57.0933C39.2671 56.2091 39.2852 55.2277 38.9332 54.3294C38.3194 52.7649 38.0359 51.4658 37.7363 50.0901C37.3022 48.0996 36.8531 46.0411 35.496 43.4625C35.4799 43.4328 35.4623 43.4036 35.4457 43.3739C35.7372 42.8281 35.9014 42.2168 35.915 41.5893C37.3546 40.7515 38.5616 39.7388 39.5148 38.5555C41.7581 35.7704 42.4761 32.152 41.5909 28.092C41.1261 25.9625 40.4489 24.0329 39.5672 22.3093C39.7983 22.4428 40.042 22.55 40.2953 22.6296C40.1039 23.4941 40.3587 24.3728 40.9922 25.0068C41.6634 25.6775 42.6085 25.9242 43.522 25.6659L44.7194 25.3275C44.8901 25.2797 45.0683 25.3019 45.2214 25.3905C45.3745 25.4786 45.4832 25.6221 45.5266 25.7938L45.8322 27.0003C46.0653 27.9198 46.7517 28.6156 47.6681 28.8609C47.8957 28.9223 48.1248 28.952 48.3509 28.952C49.0352 28.952 49.6908 28.6786 50.1883 28.1675L51.0564 27.2752C51.1798 27.1483 51.3455 27.0788 51.5227 27.0788C51.6994 27.0788 51.8651 27.1483 51.9885 27.2752L52.8566 28.1675C53.5182 28.8473 54.4609 29.1066 55.3768 28.8609C56.2932 28.6156 56.9796 27.9198 57.2127 27.0003L57.5188 25.7938C57.5622 25.6221 57.6704 25.4786 57.824 25.3905C57.9771 25.3019 58.1553 25.2797 58.326 25.3275L59.5234 25.6659C60.4364 25.9237 61.382 25.6775 62.0532 25.0068C62.7239 24.3361 62.9707 23.3904 62.7124 22.477L62.374 21.2791C62.3261 21.1089 62.3483 20.9306 62.4369 20.7775C62.5255 20.624 62.6685 20.5157 62.8403 20.4724L64.0467 20.1663C64.9662 19.9331 65.6621 19.2468 65.9073 18.3309C66.153 17.4139 65.8937 16.4718 65.2139 15.8101L64.3217 14.9415ZM18.9432 12.4737C19.4513 12.9984 19.8793 13.5226 20.2187 14.0286C20.2297 14.0462 20.2418 14.0634 20.2539 14.0805C20.8214 14.94 21.1301 15.7452 21.1301 16.4088C21.1301 17.6143 20.1492 18.5952 18.9432 18.5952C17.7377 18.5952 16.7563 17.6143 16.7563 16.4088C16.7568 15.3423 17.5529 13.9103 18.9432 12.4737ZM4.84156 20.4311C4.11243 21.0676 3.00112 20.9921 2.36515 20.2634C1.72868 19.5343 1.8037 18.4235 2.53283 17.787L4.72574 15.8721C6.1422 14.6354 7.95796 13.9078 9.83667 13.8232C11.0623 13.7693 12.2879 13.9924 13.4158 14.4606C12.726 14.796 12.0648 15.1726 11.4349 15.5901C11.2969 15.437 11.1514 15.2814 10.9973 15.1233C10.6403 14.7572 10.162 14.5558 9.65137 14.5558C9.14078 14.5558 8.66292 14.7572 8.30591 15.1233C6.41814 17.0589 5.7585 18.6491 5.58428 19.7826L4.84156 20.4311ZM11.8382 20.4487C11.8382 21.6542 10.8573 22.6351 9.65137 22.6351C8.44589 22.6351 7.4645 21.6542 7.4645 20.4487C7.4645 19.3822 8.2611 17.9497 9.65137 16.5131C9.96054 16.8323 10.238 17.1516 10.4862 17.4663C10.4867 17.4668 10.4867 17.4668 10.4872 17.4673C10.4877 17.4688 10.4888 17.4693 10.4898 17.4703C11.3559 18.5705 11.8382 19.6204 11.8382 20.4487ZM8.83312 56.2605C8.57933 56.908 7.96552 57.3265 7.27013 57.3265C7.06116 57.3265 6.85521 57.2872 6.65833 57.2101C6.24089 57.0465 5.91259 56.7303 5.73333 56.3194C5.55356 55.9085 5.545 55.4523 5.70916 55.0349C6.37886 53.3274 6.67797 51.9557 6.9952 50.5005C7.21575 49.4889 7.44184 48.4581 7.79834 47.3524C8.16593 49.1389 8.94742 50.794 10.0492 52.2317C9.78632 53.3797 9.44089 54.7116 8.83312 56.2605ZM8.8588 41.4015C11.9712 43.315 16.2427 44.3674 21.4765 44.4922C20.9402 45.0008 20.5273 45.6378 20.2866 46.3533C16.6053 46.1716 13.012 45.1051 9.84926 43.2485C9.65943 43.1372 9.49628 42.9977 9.3573 42.8396C9.35629 42.8381 9.35478 42.8366 9.35327 42.8346C9.00885 42.4393 8.8306 41.9227 8.8588 41.4015ZM10.4283 57.399C10.5044 57.2605 10.5744 57.117 10.6333 56.9669C11.0608 55.8773 11.3705 54.8762 11.6187 53.9407C11.9797 54.27 12.3614 54.5807 12.7602 54.8727C12.3186 56.0077 11.9737 56.2373 11.0557 56.8451C10.8186 57.0022 10.6096 57.19 10.4283 57.399ZM13.6419 60.2052C13.5614 60.2606 13.4793 60.316 13.3932 60.3729C13.2043 60.4983 12.9853 60.5642 12.7602 60.5642C12.373 60.5642 12.014 60.3719 11.8005 60.0496C11.6308 59.7938 11.5714 59.4872 11.6323 59.1865C11.6932 58.8854 11.8679 58.6266 12.1237 58.4574C12.8191 57.9967 13.3207 57.6432 13.7492 57.0868C13.7688 58.0334 13.722 59.042 13.6419 60.2052ZM18.7755 62.4857L18.773 62.518C18.7055 63.3861 17.9719 64.0658 17.1027 64.0658C17.0594 64.0658 17.0151 64.0643 16.9698 64.0608C16.5227 64.0261 16.1163 63.8191 15.8248 63.4787C15.5332 63.1383 15.3922 62.7043 15.427 62.2556L15.4295 62.2254C15.4683 61.7234 15.5055 61.247 15.5388 60.7868V60.7863C15.6546 59.1896 15.7246 57.8199 15.6636 56.5067C16.7251 56.9503 17.8586 57.2751 19.0434 57.4624C19.0449 59.0053 18.919 60.6382 18.7755 62.4857ZM21.4211 55.7151C14.937 55.7151 9.64533 51.0524 9.49779 45.2707C12.7391 47.0467 16.363 48.0759 20.0726 48.2769C20.3088 50.5755 22.2565 52.3742 24.6166 52.3742C27.1353 52.3742 29.1847 50.3253 29.1847 47.806C29.1847 47.5633 29.1655 47.3257 29.1288 47.0935C30.5885 46.6172 32.001 46.0074 33.3439 45.2707C33.1959 51.0529 27.9042 55.7151 21.4211 55.7151ZM21.9815 47.806C21.9815 46.3533 23.1639 45.171 24.6166 45.171C26.0693 45.171 27.2511 46.3533 27.2511 47.806C27.2511 49.2588 26.0693 50.4411 24.6166 50.4411C23.1639 50.4406 21.9815 49.2588 21.9815 47.806ZM27.4374 44.2168C29.7345 43.9273 31.7905 43.4217 33.5871 42.7107C33.429 42.9247 33.2291 43.1095 32.9924 43.2485C31.5533 44.0934 30.0206 44.7778 28.4268 45.2894C28.1559 44.881 27.8216 44.5189 27.4374 44.2168ZM35.847 50.5015C36.1637 51.9547 36.4628 53.3269 37.133 55.0349C37.2967 55.4523 37.2881 55.9085 37.1089 56.3194C36.9296 56.7298 36.6008 57.0465 36.1839 57.2101C35.9865 57.2877 35.7805 57.3265 35.5716 57.3265C34.8762 57.3265 34.2624 56.908 34.0086 56.2605C33.4008 54.7111 33.0554 53.3792 32.793 52.2317C33.8943 50.794 34.6763 49.1389 35.0434 47.3524C35.4004 48.4586 35.626 49.4899 35.847 50.5015ZM39.7016 28.5034C40.4579 31.9717 39.8723 35.0282 38.0087 37.342C37.123 38.4412 35.9689 39.3733 34.568 40.1331C34.495 40.1613 34.4275 40.1981 34.3651 40.2414C31.4229 41.7762 27.4273 42.5728 22.545 42.5728C16.6234 42.5728 12.0059 41.401 8.99123 39.1613C8.94692 39.1205 8.89807 39.0837 8.84571 39.0515C8.17398 38.5359 7.58384 37.9659 7.0813 37.342C5.2177 35.0282 4.63209 31.9717 5.3884 28.5034C5.77462 26.7324 6.32801 25.0999 7.03397 23.6281C7.74648 24.2157 8.65839 24.5687 9.65137 24.5687C11.9233 24.5687 13.7718 22.7202 13.7718 20.4487C13.7718 19.6612 13.5382 18.5303 12.6248 17.1229C13.3252 16.6682 14.0684 16.2684 14.8514 15.9275C14.8318 16.0997 14.8232 16.2603 14.8232 16.4088C14.8232 18.6808 16.6717 20.5288 18.9437 20.5288C21.2152 20.5288 23.0636 18.6808 23.0636 16.4088C23.0636 15.8947 22.9634 15.2336 22.6402 14.445C25.0028 14.4541 27.1604 14.8046 29.0961 15.4753C29.1368 15.4924 29.1781 15.5075 29.2209 15.5186C31.3499 16.2754 33.2064 17.425 34.7619 18.9477C34.8082 19.0056 34.8606 19.059 34.92 19.1053C37.2217 21.4281 38.8471 24.5843 39.7016 28.5034ZM41.4897 20.8601C41.0516 20.8818 40.6045 20.7418 40.2484 20.4311L38.0555 18.5167C37.4598 17.996 36.7478 17.6319 35.982 17.4517C35.6531 17.1375 35.3138 16.8328 34.9603 16.5453C33.9502 15.7245 32.857 15.0281 31.6842 14.4566C32.8087 13.9908 34.0302 13.7688 35.2528 13.8237C36.705 13.8886 38.118 14.3393 39.3396 15.1107C39.3431 15.1132 39.3466 15.1157 39.3506 15.1178C39.7056 15.3428 40.0455 15.5941 40.3643 15.8726L42.5572 17.787C42.9102 18.0952 43.1221 18.5227 43.1539 18.9905C43.1695 19.2201 43.1403 19.4462 43.0698 19.6587C43.0632 19.6753 43.0572 19.6924 43.0512 19.709C42.9781 19.91 42.8694 20.0978 42.7249 20.2634C42.4021 20.633 41.9575 20.8339 41.5023 20.8596C41.4982 20.8596 41.4942 20.8596 41.4897 20.8601ZM62.9732 16.3268L63.865 17.1954C64.1117 17.4351 64.0694 17.7185 64.0397 17.8293C64.01 17.9401 63.9047 18.207 63.5714 18.2916L62.3649 18.5972C61.6831 18.7704 61.1136 19.201 60.7621 19.8102C60.4107 20.419 60.3221 21.1275 60.5134 21.8043L60.8518 23.0022C60.9454 23.3335 60.7667 23.5576 60.6856 23.6387C60.6045 23.7197 60.3805 23.8985 60.0491 23.8048L58.8512 23.4665C58.1745 23.2751 57.466 23.3632 56.8572 23.7152C56.2479 24.0667 55.8169 24.6362 55.6442 25.318L55.3385 26.5244C55.2539 26.8583 54.9871 26.963 54.8763 26.9927C54.7655 27.0224 54.482 27.0647 54.2423 26.818L53.3742 25.9262C52.8838 25.4222 52.2261 25.1442 51.5227 25.1442C50.8193 25.1442 50.1616 25.4222 49.6712 25.9262L48.8031 26.818C48.5629 27.0647 48.2794 27.0224 48.1686 26.9927C48.0578 26.963 47.7915 26.8578 47.7069 26.5244L47.4007 25.318C47.228 24.6362 46.7975 24.0667 46.1882 23.7152C45.5789 23.3632 44.8709 23.2746 44.1937 23.4659L42.9958 23.8043C42.6649 23.898 42.4404 23.7197 42.3593 23.6387C42.2782 23.5576 42.1 23.333 42.1936 23.0022L42.2812 22.6915C42.9681 22.5248 43.5894 22.1648 44.0819 21.6436C46.017 23.6462 48.7104 24.8109 51.5227 24.8109C57.2218 24.8109 61.8584 20.1743 61.8584 14.4752C61.8584 8.77619 57.2218 4.13959 51.5227 4.13959C49.9678 4.13959 48.4723 4.47646 47.0785 5.14164C46.5966 5.37125 46.3921 5.94831 46.6217 6.4302C46.8514 6.91208 47.4284 7.11652 47.9108 6.88691C49.0428 6.34661 50.2578 6.07319 51.5227 6.07319C56.1553 6.07319 59.9248 9.84218 59.9248 14.4752C59.9248 19.1083 56.1558 22.8773 51.5227 22.8773C49.0115 22.8773 46.6167 21.7348 45.027 19.8012C45.0849 19.4945 45.1046 19.1788 45.0829 18.8596C45.0165 17.8762 44.5708 16.9778 43.8286 16.3303L43.2279 15.8056C43.1579 15.365 43.1206 14.9189 43.1206 14.4752C43.1206 12.5573 43.7496 10.7516 44.9394 9.25354C45.2718 8.8356 45.2018 8.22733 44.7838 7.8955C44.3659 7.56316 43.7576 7.63265 43.4258 8.05109C42.0481 9.78478 41.2822 11.8523 41.1956 14.0548C41.0461 13.9385 40.8935 13.8267 40.7379 13.7189C40.6115 13.306 40.3844 12.9279 40.0717 12.6237L39.1799 11.7551C38.9332 11.5154 38.9755 11.2319 39.0052 11.1212C39.0349 11.0104 39.1402 10.7435 39.4735 10.6589L40.68 10.3533C41.3618 10.1806 41.9313 9.74953 42.2827 9.14075C42.6347 8.53147 42.7228 7.82299 42.5315 7.14623L42.1931 5.94831C42.0995 5.61748 42.2782 5.3929 42.3593 5.31183C42.4404 5.23076 42.6644 5.05201 42.9958 5.14567L44.1937 5.48455C44.8709 5.67539 45.5789 5.58727 46.1882 5.2353C46.7975 4.88332 47.228 4.31432 47.4007 3.63253L47.7064 2.42605C47.791 2.09271 48.0578 1.98747 48.1686 1.95776C48.2794 1.92855 48.5629 1.88575 48.8031 2.13198L49.6707 3.02425C50.1616 3.5283 50.8193 3.80625 51.5227 3.80625C52.2261 3.80625 52.8838 3.5283 53.3742 3.02425L54.2423 2.13249C54.4825 1.88575 54.766 1.92855 54.8763 1.95776C54.9871 1.98747 55.2539 2.09271 55.3385 2.42605L55.6442 3.63253C55.8174 4.31432 56.2479 4.88332 56.8572 5.2353C57.466 5.58677 58.1745 5.67489 58.8517 5.48404L60.0491 5.14567C60.38 5.0515 60.605 5.23076 60.6861 5.31183C60.7672 5.3929 60.9454 5.61698 60.8518 5.94831L60.5134 7.14623C60.3221 7.82299 60.4107 8.53096 60.7621 9.14025C61.1141 9.74953 61.6831 10.1801 62.3654 10.3533L63.5714 10.6589C63.9052 10.7435 64.0105 11.0104 64.0402 11.1212C64.0694 11.2319 64.1122 11.5154 63.8655 11.7551L62.9732 12.6232C62.4691 13.1142 62.1917 13.7713 62.1917 14.4747C62.1917 15.1787 62.4691 15.8363 62.9732 16.3268ZM25.5834 33.0241V31.3841C25.6982 31.3479 25.812 31.3056 25.9232 31.2562L27.877 30.3871C28.4752 30.1212 28.9208 29.6076 29.1001 28.9782C29.2798 28.3488 29.1716 27.677 28.8035 27.1357C28.3513 26.4706 27.673 25.9917 26.8946 25.7878C25.4046 25.398 23.829 25.398 22.3386 25.7878C21.5601 25.9917 20.8823 26.4706 20.4296 27.1357C20.0615 27.677 19.9533 28.3488 20.133 28.9782C20.3123 29.6076 20.7579 30.1212 21.3566 30.3871L23.3099 31.2562C23.4212 31.3056 23.535 31.3479 23.6498 31.3841V33.0206C21.7867 33.2799 20.1174 34.2749 19.4044 35.6174C18.9235 36.5227 18.9467 37.484 19.4674 38.2544C20.5037 39.7877 22.0349 39.4372 23.1528 39.1814C23.6342 39.0711 24.1317 38.9573 24.6035 38.9573C25.0753 38.9573 25.5733 39.0711 26.0542 39.1814C26.5134 39.2862 27.0421 39.4075 27.5779 39.4075C28.3463 39.4075 29.1288 39.1583 29.7396 38.2544C30.2602 37.484 30.2834 36.5227 29.8025 35.6174C29.093 34.281 27.4359 33.289 25.5834 33.0241ZM22.1422 28.6207C22.042 28.5759 22.0052 28.4933 21.9926 28.448C21.9795 28.4026 21.9669 28.3135 22.0289 28.2229C22.2182 27.9444 22.5022 27.7435 22.828 27.6584C23.4131 27.5053 24.0148 27.4288 24.6166 27.4288C25.2183 27.4288 25.82 27.5053 26.4051 27.6584C26.7309 27.7435 27.0149 27.9444 27.2043 28.2229C27.2662 28.3135 27.2536 28.4026 27.241 28.448C27.2279 28.4933 27.1912 28.5759 27.0915 28.6207L25.1377 29.4893C24.8064 29.6363 24.4267 29.6363 24.0954 29.4893L22.1422 28.6207ZM28.1373 37.1718C27.8845 37.5459 27.6529 37.5635 26.4857 37.2967C25.9273 37.1688 25.2938 37.0238 24.6035 37.0238C23.9131 37.0238 23.2797 37.1688 22.7212 37.2967C21.554 37.5635 21.3224 37.5459 21.0691 37.1718C21.0278 37.1099 20.9004 36.922 21.1119 36.5242C21.5334 35.7307 22.9005 34.8872 24.6035 34.8872C26.3064 34.8872 27.673 35.7307 28.0945 36.5242C28.306 36.922 28.1791 37.1099 28.1373 37.1718ZM33.2362 23.8592C32.7019 23.8592 32.2694 24.2918 32.2694 24.826V26.1951C32.2694 26.7289 32.7019 27.1619 33.2362 27.1619C33.7699 27.1619 34.203 26.7289 34.203 26.1951V24.826C34.203 24.2918 33.7699 23.8592 33.2362 23.8592Z" fill="black"/>
</g>
<defs>
<clipPath id="clip0_1591_24941">
<rect width="65.9999" height="66" fill="white"/>
</clipPath>
</defs>
</svg>
