<svg width="66" height="66" viewBox="0 0 66 66" fill="none" xmlns="http://www.w3.org/2000/svg">
<g clip-path="url(#clip0_1591_25918)">
<path d="M17.4478 54.4586C15.9055 54.4586 14.3148 54.1036 12.6179 53.4107C11.2497 52.8518 10.5936 51.2898 11.1526 49.9217C11.711 48.5536 13.2735 47.898 14.6411 48.4564C17.1532 49.4821 19.4383 49.883 24.0054 45.0535C25.0205 43.98 26.7139 43.9327 27.7879 44.9483C28.8615 45.9634 28.9088 47.6573 27.8937 48.7309C24.2178 52.6177 20.959 54.4586 17.4478 54.4586Z" fill="#495059"/>
<path d="M27.1829 65.0329C25.4532 65.0329 23.9884 63.701 23.852 61.9477C23.502 57.4496 23.6425 54.092 24.3374 50.3588C24.6752 48.5425 26.422 47.3441 28.2373 47.6825C30.0535 48.0203 31.2519 49.7666 30.9141 51.5824C30.3259 54.7426 30.2157 57.503 30.5213 61.4285C30.6648 63.2705 29.2876 64.8793 27.4462 65.0228C27.3581 65.0298 27.27 65.0329 27.1829 65.0329Z" fill="#DDAF89"/>
<path d="M42.4245 65.0328C42.3373 65.0328 42.2497 65.0298 42.1611 65.0228C40.3197 64.8793 38.943 63.27 39.086 61.4285C39.3917 57.503 39.2814 54.7426 38.6932 51.5824C38.3554 49.7661 39.5538 48.0198 41.3701 47.682C43.1853 47.3441 44.9321 48.5425 45.2699 50.3583C45.9648 54.092 46.1053 57.4496 45.7554 61.9477C45.6189 63.701 44.1536 65.0328 42.4245 65.0328Z" fill="#DDAF89"/>
<path d="M16.7827 44.1809C12.4599 44.1809 8.69945 41.9578 6.20493 37.7442C5.26381 36.155 5.78951 34.1031 7.37917 33.162C8.96884 32.2209 11.0203 32.7471 11.9614 34.3362C13.7731 37.3972 16.3426 38.2185 19.8171 36.8463C21.5346 36.1671 23.4783 37.0105 24.1565 38.7286C24.8353 40.4466 23.9929 42.3893 22.2748 43.0681C20.3825 43.8153 18.5366 44.1809 16.7827 44.1809Z" fill="#DDAF89"/>
<path d="M19.8174 36.8463C16.9966 37.9607 14.7725 37.6288 13.0655 35.8262L8.26074 40.4829C10.58 42.9145 13.5212 44.1809 16.7831 44.1809C18.5364 44.1809 20.3829 43.8153 22.2747 43.068C23.9928 42.3893 24.8357 40.4466 24.1569 38.7286C23.4787 37.0105 21.535 36.1676 19.8174 36.8463Z" fill="#495059"/>
<path d="M55.5289 53.7884C55.3804 53.7884 55.2298 53.7788 55.0788 53.7582C53.2479 53.5119 51.9634 51.8286 52.2096 49.9978C52.684 46.472 51.1754 44.2358 47.5987 43.1602C45.8293 42.6285 44.8263 40.7634 45.3585 38.994C45.8902 37.225 47.7558 36.222 49.5243 36.7537C56.2747 38.7835 59.7566 44.0676 58.8392 50.889C58.6136 52.5688 57.1775 53.7884 55.5289 53.7884Z" fill="#DDAF89"/>
<path d="M49.5243 36.7542C47.7558 36.2219 45.8902 37.225 45.3585 38.9939C44.8263 40.7634 45.8293 42.6285 47.5982 43.1602C51.1754 44.2357 52.6835 46.472 52.2096 49.9977C52.1537 50.4111 52.1769 50.8175 52.2665 51.2012C52.6865 50.3809 52.9247 49.4534 52.9247 48.4705V38.2029C51.9075 37.6162 50.772 37.1293 49.5243 36.7542Z" fill="#D1A582"/>
<path d="M49.5243 36.7542C47.7558 36.2219 45.8902 37.225 45.3585 38.9939C44.8263 40.7634 45.8293 42.6285 47.5982 43.1602C50.6653 44.0822 52.2096 45.8586 52.2897 48.5682L58.9817 48.9519C59.0502 43.0746 55.6206 38.5866 49.5243 36.7542Z" fill="#495059"/>
<path d="M45.2699 50.3583C44.9321 48.5425 43.1853 47.3441 41.3701 47.682C39.5538 48.0198 38.3554 49.7661 38.6932 51.5824C38.9611 53.0215 39.1288 54.3785 39.2043 55.7995C41.58 55.2536 43.7704 54.2768 45.6698 52.9651C45.5665 52.104 45.4346 51.242 45.2699 50.3583Z" fill="#D1A582"/>
<path d="M28.2372 47.682C26.422 47.3441 24.6752 48.5425 24.3373 50.3583C24.1727 51.2415 24.0407 52.1035 23.9375 52.9651C25.8363 54.2768 28.0267 55.2536 30.4029 55.7995C30.4785 54.3785 30.6461 53.0215 30.9135 51.5824C31.2519 49.7661 30.0535 48.0203 28.2372 47.682Z" fill="#D1A582"/>
<path d="M51.1091 39.8021C51.1091 31.6584 43.8088 25.0565 34.8041 25.0565C25.7988 25.0565 18.4985 31.6584 18.4985 39.8021C18.4985 47.9458 25.7988 54.5477 34.8041 54.5477C43.8088 54.5477 51.1091 47.9458 51.1091 39.8021Z" fill="#DDAF89"/>
<path d="M19.8172 36.8463C18.6761 37.297 17.6333 37.511 16.6821 37.4868V44.1788C16.7159 44.1788 16.7491 44.1809 16.7828 44.1809C18.5362 44.1809 20.3826 43.8153 22.2744 43.068C23.9925 42.3893 24.8354 40.4466 24.1566 38.7286C23.4784 37.0105 21.5347 36.1676 19.8172 36.8463Z" fill="#41464F"/>
<path d="M18.4307 35.7149V48.471C18.4307 50.8261 20.3401 52.7355 22.6951 52.7355H29.5306C30.3318 52.7355 30.9813 52.0859 30.9813 51.2848V35.7149H18.4307Z" fill="#495059"/>
<path d="M52.9252 38.2049C51.9075 37.6178 50.773 37.1293 49.5243 36.7542C47.7558 36.2219 45.8902 37.225 45.3585 38.9939C44.8263 40.7634 45.8293 42.6285 47.5987 43.1602C50.6653 44.0822 52.2096 45.8586 52.2897 48.5682L52.9216 48.6039C52.9226 48.5596 52.9252 48.5153 52.9252 48.4705V38.2049Z" fill="#41464F"/>
<path d="M51.1771 35.7149V48.471C51.1771 50.8261 49.2677 52.7355 46.9127 52.7355H40.0767C39.2755 52.7355 38.6265 52.0859 38.6265 51.2848V35.7149H51.1771Z" fill="#495059"/>
<path d="M41.9402 35.7149H38.6265V51.2848C38.6265 52.0859 39.276 52.735 40.0772 52.735H41.9402V35.7149Z" fill="white"/>
<path d="M27.667 35.7149H30.9813V51.2848C30.9813 52.0859 30.3317 52.735 29.5306 52.735H27.667V35.7149Z" fill="white"/>
<path d="M49.5299 30.3346C45.5343 33.6504 40.4017 35.6444 34.8039 35.6444C29.2056 35.6444 24.073 33.6504 20.0775 30.3346C19.2275 31.4348 18.519 32.6327 17.9822 33.9082C17.2501 35.6459 17.9253 37.6596 19.5508 38.6138C24.0267 41.2412 29.2388 42.7483 34.8039 42.7483C40.3685 42.7483 45.5806 41.2412 50.0566 38.6138C51.682 37.6596 52.3572 35.6459 51.6256 33.9082C51.0883 32.6327 50.3798 31.4348 49.5299 30.3346Z" fill="#7F9AE6"/>
<path d="M27.378 34.4223C24.6871 33.5084 22.2188 32.1116 20.0772 30.3346C19.2278 31.4353 18.5193 32.6327 17.982 33.9082C17.2504 35.6459 17.9251 37.6596 19.551 38.6138C21.8784 39.9804 24.4061 41.0398 27.0774 41.7463C26.0975 39.7789 26.375 36.8262 27.378 34.4223Z" fill="#5E78BF"/>
<path d="M28.7274 11.809C28.0693 11.809 27.4046 11.6085 26.8311 11.1921L22.8557 8.30434C21.1149 7.03945 18.7669 7.14469 17.1461 8.56013L14.5428 10.8326C13.1988 12.0063 11.1575 11.8679 9.98425 10.5239C8.8105 9.17948 8.94897 7.13814 10.2929 5.9649L12.8957 3.69193C14.7729 2.05292 17.1778 1.08915 19.6668 0.977868C22.1568 0.866586 24.6377 1.61132 26.6533 3.0756L30.6293 5.96389C32.0729 7.01226 32.3932 9.03296 31.3443 10.4766C30.7124 11.3472 29.7269 11.809 28.7274 11.809Z" fill="#495059"/>
<path d="M40.8801 11.809C39.8806 11.809 38.8952 11.3472 38.2632 10.4766C37.2143 9.03298 37.5346 7.01228 38.9782 5.96341L42.9537 3.07562C44.9698 1.61134 47.4518 0.86711 49.9403 0.977385C52.4297 1.08917 54.8341 2.05294 56.7113 3.69195L59.3146 5.96442C60.6585 7.13817 60.797 9.17951 59.6233 10.5234C58.4495 11.8679 56.4087 12.0064 55.0642 10.8326L52.4615 8.55965C50.8401 7.14471 48.4926 7.03947 46.7513 8.30385L42.7759 11.1921C42.2029 11.6086 41.5382 11.809 40.8801 11.809Z" fill="#495059"/>
<path d="M34.8039 37.3997C51.2061 37.3997 58.5981 29.8859 56.2914 19.3061C53.8119 7.93625 46.0031 1.71252 34.8039 1.71252C23.6042 1.71252 15.7954 7.93625 13.316 19.3061C11.0092 29.8859 18.4012 37.3997 34.8039 37.3997Z" fill="#DDAF89"/>
<path d="M39.3585 43.3229C39.3585 45.838 37.3192 47.8774 34.804 47.8774C32.2883 47.8774 30.249 45.838 30.249 43.3229C30.249 40.8072 32.2883 38.7684 34.804 38.7684C37.3192 38.7684 39.3585 40.8072 39.3585 43.3229Z" fill="#F6E06A"/>
<path d="M27.0346 20.1873C27.0346 18.295 25.1086 16.7612 22.7329 16.7612C20.3567 16.7612 18.4307 18.295 18.4307 20.1873C18.4307 22.0796 20.3567 23.6134 22.7329 23.6134C25.1086 23.6134 27.0346 22.0796 27.0346 20.1873Z" fill="#FFDBDB"/>
<path d="M51.1772 20.1873C51.1772 18.295 49.2512 16.7612 46.875 16.7612C44.4993 16.7612 42.5732 18.295 42.5732 20.1873C42.5732 22.0796 44.4993 23.6134 46.875 23.6134C49.2512 23.6134 51.1772 22.0796 51.1772 20.1873Z" fill="#FFDBDB"/>
<path d="M37.0602 17.3559C35.5808 16.9682 34.0274 16.9682 32.548 17.3559C31.9357 17.516 31.4014 17.8932 31.0454 18.4164C30.5645 19.1238 30.841 20.0937 31.6225 20.4411L33.7902 21.4049C34.4357 21.6919 35.1724 21.6919 35.8179 21.4049L37.9857 20.4411C38.7667 20.0937 39.0431 19.1238 38.5622 18.4164C38.2062 17.8932 37.673 17.516 37.0602 17.3559Z" fill="#495059"/>
<path d="M27.022 19.3429H23.4575C21.8638 19.3429 20.5077 18.1802 20.265 16.6046L19.8808 14.1126C19.7388 13.1901 20.4529 12.3578 21.3864 12.3578H29.0936C30.0271 12.3578 30.7411 13.1901 30.5991 14.1126L30.2149 16.6046C29.9717 18.1802 28.6162 19.3429 27.022 19.3429Z" fill="#495059"/>
<path d="M42.5855 19.3429H46.15C47.7442 19.3429 49.0998 18.1802 49.343 16.6046L49.7267 14.1126C49.8692 13.1901 49.1552 12.3578 48.2216 12.3578H40.5145C39.5809 12.3578 38.8669 13.1901 39.0094 14.1126L39.3931 16.6046C39.6358 18.1802 40.9918 19.3429 42.5855 19.3429Z" fill="#495059"/>
<path d="M36.2108 22.2886L38.378 21.3243C39.013 21.0423 39.4863 20.497 39.6766 19.8288C39.733 19.6304 39.7592 19.4285 39.7627 19.2276C40.51 19.9048 41.5014 20.3097 42.585 20.3097H46.1496C48.2352 20.3097 49.98 18.8132 50.2977 16.7517L50.6819 14.2602C50.7927 13.5411 50.5847 12.812 50.1109 12.2601C49.6371 11.7078 48.9488 11.391 48.2211 11.391H40.514C39.7864 11.391 39.0975 11.7078 38.6242 12.2601C38.2476 12.6987 38.0396 13.2491 38.0255 13.8176H31.5818C31.5677 13.2496 31.3597 12.6987 30.983 12.2601C30.5097 11.7078 29.8209 11.391 29.0933 11.391H21.3856C20.6585 11.391 19.9697 11.7078 19.4958 12.2601C19.0225 12.812 18.8146 13.5411 18.9253 14.2602L19.309 16.7517C19.6268 18.8132 21.3715 20.3097 23.4572 20.3097H27.0217C28.1058 20.3097 29.0968 19.9048 29.844 19.2276C29.8476 19.429 29.8738 19.6304 29.9301 19.8288C30.121 20.497 30.5943 21.0423 31.2293 21.3248L33.3965 22.2886C33.54 22.3525 33.6875 22.4049 33.8366 22.4482V25.6119C32.6372 25.3934 31.5344 24.7751 30.7192 23.8395C30.3682 23.4372 29.7574 23.3954 29.3551 23.7458C28.9523 24.0968 28.9105 24.7076 29.2614 25.1099C30.6598 26.7142 32.6795 27.6341 34.8034 27.6341C36.9273 27.6341 38.947 26.7142 40.3453 25.1099C40.6963 24.7076 40.654 24.0968 40.2517 23.7458C39.8488 23.3954 39.2385 23.4372 38.8876 23.8395C38.0718 24.7751 36.9696 25.3934 35.7702 25.6119V22.4482C35.9197 22.4049 36.0668 22.3525 36.2108 22.2886ZM40.0915 13.5185C40.154 13.446 40.2914 13.3246 40.514 13.3246H48.2211C48.4437 13.3246 48.5812 13.446 48.6436 13.5185C48.7055 13.5915 48.8047 13.7456 48.771 13.9656L48.3868 16.4571C48.2156 17.5689 47.275 18.3761 46.1496 18.3761H42.5856C41.4607 18.3761 40.5195 17.5689 40.3483 16.4571L39.9641 13.9656C39.9304 13.7456 40.0296 13.5915 40.0915 13.5185ZM29.6431 13.9656L29.2589 16.4571C29.0872 17.5689 28.1466 18.3761 27.0217 18.3761H23.4572C22.3323 18.3761 21.3917 17.5689 21.2205 16.4571L20.8363 13.9656C20.8025 13.7456 20.9017 13.5915 20.9637 13.519C21.0256 13.4465 21.1636 13.3246 21.3856 13.3246H29.0933C29.3158 13.3246 29.4533 13.4465 29.5152 13.519C29.5777 13.5915 29.6769 13.7456 29.6431 13.9656ZM31.1301 16.9697C31.1447 16.8977 31.1588 16.8252 31.1699 16.7517L31.3239 15.7512H38.2828L38.4374 16.7517C38.4485 16.8252 38.4621 16.8977 38.4772 16.9697C38.1252 16.719 37.7289 16.5316 37.3045 16.4204C35.6685 15.9924 33.9388 15.9924 32.3028 16.4204C31.8783 16.5316 31.4815 16.719 31.1301 16.9697ZM35.4247 20.5217C35.03 20.6974 34.5768 20.6974 34.1825 20.5217L32.0148 19.5579C31.8642 19.4909 31.8093 19.3666 31.7902 19.2986C31.7706 19.2311 31.7519 19.0967 31.8446 18.9602C32.0692 18.6299 32.406 18.3922 32.7923 18.291C33.4504 18.1188 34.1271 18.0327 34.8039 18.0327C35.4801 18.0327 36.1569 18.1188 36.815 18.291C37.2012 18.3922 37.5381 18.6299 37.7627 18.9602C37.8553 19.0967 37.8367 19.2311 37.8176 19.2986C37.7979 19.3666 37.743 19.4909 37.5925 19.5579L35.4247 20.5217ZM59.9505 5.2363L57.3478 2.96383C55.3059 1.18131 52.691 0.13345 49.9835 0.0120974C47.4825 -0.099688 44.9819 0.586634 42.8852 1.95223C40.4319 1.15009 37.7325 0.745751 34.8039 0.745751C31.8748 0.745751 29.1753 1.15009 26.7221 1.95172C24.6254 0.586634 22.1248 -0.100192 19.6237 0.0115938C16.9162 0.132946 14.3014 1.18131 12.26 2.96383L9.65672 5.2363C7.91348 6.75899 7.73321 9.41566 9.25541 11.1594C10.0842 12.1091 11.2494 12.5945 12.4206 12.5945C13.3713 12.5945 14.3255 12.2732 15.107 11.6206C13.894 13.8156 12.9791 16.3126 12.3713 19.1002C11.3325 23.8642 12.1724 28.1065 14.8004 31.3689C15.4545 32.1811 16.2118 32.9238 17.0653 33.5985C16.6801 34.5533 16.6307 35.5744 16.8704 36.5196C15.183 36.5301 13.8688 35.6605 12.7933 33.8438C12.2061 32.8528 11.2691 32.1494 10.1532 31.8639C9.03788 31.5778 7.87722 31.7435 6.88677 32.3301C5.8953 32.9168 5.19236 33.8543 4.90635 34.9702C4.62034 36.086 4.78601 37.2462 5.37263 38.2366C6.01867 39.3278 6.7498 40.2981 7.55446 41.1425C7.55848 41.1471 7.56201 41.1516 7.56604 41.1556C7.56755 41.1576 7.56956 41.1592 7.57158 41.1612C10.0505 43.7539 13.2268 45.1477 16.7828 45.1477C17.0074 45.1477 17.235 45.1406 17.4636 45.129V48.1377C16.677 48.1634 15.9268 47.9373 15.0058 47.5611C13.1467 46.8018 11.0163 47.6971 10.2569 49.5561C9.49761 51.4157 10.3924 53.5462 12.252 54.3055C14.0969 55.0593 15.7964 55.4254 17.4475 55.4254C19.2939 55.4254 21.0714 54.9626 22.8565 54.0155C22.6893 55.8967 22.6586 57.8212 22.7583 59.9658C22.7829 60.4839 23.2104 60.8878 23.7235 60.8878C23.7387 60.8878 23.7538 60.8872 23.7694 60.8867C24.3026 60.8621 24.7145 60.4094 24.6898 59.8761C24.5856 57.6354 24.6294 55.6505 24.8288 53.7023H26.7473C27.631 54.1268 28.5545 54.4812 29.5052 54.7587C29.336 56.7713 29.3536 58.8917 29.557 61.5036C29.6587 62.8113 28.6778 63.9573 27.3707 64.059C26.6345 64.1169 25.9149 63.8274 25.422 63.2831C25.0635 62.8873 24.4522 62.8571 24.0564 63.2156C23.6606 63.5741 23.6304 64.1854 23.9889 64.5812C24.8056 65.483 25.9698 66.0002 27.1828 66.0002C27.2946 66.0002 27.4084 65.9956 27.5207 65.9871C29.8909 65.8023 31.6694 63.7242 31.4846 61.3535C31.2967 58.9391 31.2716 57.0352 31.4095 55.2068C32.5234 55.4098 33.6609 55.515 34.8034 55.515C35.9459 55.515 37.0834 55.4098 38.1972 55.2068C38.3352 57.0347 38.31 58.9386 38.1217 61.3535C37.9374 63.7242 39.7159 65.8023 42.085 65.9866C42.1968 65.9956 42.3106 65.9997 42.4239 65.9997C44.6586 65.9997 46.5454 64.2529 46.7191 62.0227C46.9653 58.858 46.9678 56.2411 46.7211 53.7023H46.9119C48.7483 53.7023 50.3662 52.7496 51.2998 51.314C51.4282 51.9404 51.6966 52.5351 52.0964 53.0588C52.7948 53.9742 53.8079 54.5633 54.9494 54.7169C55.1413 54.7426 55.3356 54.7557 55.5285 54.7557C57.6756 54.7557 59.5105 53.1489 59.797 51.0184C59.8871 50.3467 59.9344 49.6845 59.944 49.0335C59.9445 49.0244 59.946 49.0159 59.9465 49.0073C59.949 48.9655 59.948 48.9247 59.945 48.8839C59.9576 46.4523 59.4092 44.1869 58.3206 42.2438C57.0713 40.0131 55.1075 38.1953 52.6095 36.939C52.9831 35.8816 52.9846 34.6958 52.5415 33.5975C53.7021 32.6811 54.6795 31.6418 55.462 30.4816C55.7601 30.0385 55.6433 29.4378 55.2002 29.1392C54.7581 28.8411 54.1568 28.9579 53.8582 29.4006C53.0662 30.5763 52.0314 31.6141 50.7685 32.5094C50.7655 32.5114 50.7625 32.5134 50.7595 32.5154C49.6698 33.2869 48.4115 33.9525 46.986 34.5054C43.6873 35.7849 39.5885 36.4335 34.8034 36.4335C27.9351 36.4335 22.5292 35.1092 18.9158 32.5728C18.8649 32.5265 18.8085 32.4857 18.7471 32.4505C17.8065 31.7692 16.9892 31.0048 16.3059 30.1564C14.0576 27.3653 13.3502 23.6849 14.2606 19.5121C15.2868 14.805 17.2375 11.0073 20.0669 8.19559C20.085 8.17897 20.1021 8.16135 20.1187 8.14322C20.5276 7.74039 20.9541 7.3577 21.3992 6.99616C23.005 5.69099 24.8162 4.67989 26.8198 3.96487C26.8812 3.94926 26.9411 3.92811 26.9986 3.90041C29.345 3.08871 31.9529 2.67933 34.8034 2.67933C37.6539 2.67933 40.2617 3.08871 42.6082 3.90092C42.6656 3.92811 42.7255 3.94926 42.7865 3.96436C44.7905 4.67939 46.6018 5.69049 48.207 6.99616C48.6522 7.3577 49.0787 7.73938 49.487 8.14221C49.5042 8.16034 49.5213 8.17847 49.5399 8.19559C52.3693 11.0073 54.32 14.805 55.3462 19.5121C55.8346 21.7523 55.8648 23.8465 55.4358 25.7363C55.3175 26.257 55.6438 26.7751 56.1644 26.8934C56.6851 27.0113 57.2032 26.685 57.3211 26.1648C57.8135 23.9961 57.7848 21.6194 57.2355 19.1002C56.6277 16.3131 55.7128 13.8161 54.5003 11.6212C55.2817 12.2737 56.2354 12.595 57.1866 12.5945C58.3574 12.5945 59.5225 12.1086 60.3514 11.1599C61.8741 9.41566 61.6938 6.75899 59.9505 5.2363ZM57.881 50.7606C57.7229 51.9354 56.7118 52.8216 55.529 52.8216C55.4222 52.8216 55.314 52.8145 55.2077 52.7999C54.5778 52.7153 54.0194 52.3906 53.6337 51.8855C53.249 51.381 53.0833 50.7561 53.1679 50.1267C53.1921 49.9449 53.2102 49.7666 53.2248 49.5899L57.9737 49.8623C57.9515 50.1589 57.9218 50.4575 57.881 50.7606ZM52.1437 38.8761C55.6901 40.8052 57.7274 43.9835 57.9862 47.9262L53.1765 47.6508C53.0294 46.6543 52.6855 45.77 52.1437 45.0067V38.8761ZM7.03682 37.2517C6.71305 36.7054 6.6219 36.0654 6.77951 35.4501C6.93712 34.8347 7.32484 34.3176 7.87168 33.9943C8.41853 33.6705 9.05802 33.5789 9.67334 33.7365C10.2887 33.8946 10.8058 34.2823 11.1291 34.8287C11.3265 35.1615 11.5329 35.4702 11.7474 35.7572L8.31681 39.0821C7.85708 38.5241 7.42908 37.9144 7.03682 37.2517ZM30.0142 51.2848C30.0142 51.5512 29.7972 51.7682 29.5303 51.7682H22.6948C21.0044 51.7682 19.6076 50.4897 19.4193 48.8487C19.4193 48.8472 19.4193 48.8452 19.4188 48.8436C19.4052 48.7213 19.3972 48.5969 19.3972 48.4705V39.6395C22.4793 41.3983 25.7991 42.6023 29.2846 43.2252C29.2841 43.2579 29.2821 43.2901 29.2821 43.3229C29.2821 44.3204 29.5495 45.2564 30.0142 46.0651V51.2848ZM34.8034 53.5809C33.5345 53.5809 32.2726 53.4379 31.0505 53.1615C31.5974 52.7179 31.9478 52.0416 31.9478 51.2848V48.0465C32.7817 48.5526 33.759 48.8441 34.8034 48.8441C35.8482 48.8441 36.8256 48.5526 37.6594 48.0465V51.2848C37.6594 52.0416 38.0099 52.7179 38.5562 53.1615C37.3342 53.4379 36.0728 53.5809 34.8034 53.5809ZM44.7916 61.8727C44.6959 63.1028 43.6561 64.0661 42.4244 64.0661C42.3615 64.0661 42.2985 64.0636 42.2361 64.059C40.9289 63.9573 39.948 62.8108 40.0497 61.5036C40.2532 58.8912 40.2708 56.7708 40.1016 54.7587C41.0528 54.4807 41.9758 54.1263 42.86 53.7018H44.7775C45.0317 56.1852 45.0348 58.7457 44.7916 61.8727ZM50.2101 48.4705C50.2101 50.2888 48.7307 51.7682 46.9125 51.7682H40.0769C39.8101 51.7682 39.593 51.5512 39.593 51.2848V46.0646C40.0578 45.2564 40.3252 44.3204 40.3252 43.3229C40.3252 43.2901 40.3232 43.2574 40.3227 43.2252C43.8081 42.6023 47.128 41.3983 50.2101 39.6395V48.4705ZM47.6854 36.3081C48.8475 35.8574 49.9125 35.3352 50.8818 34.7466C51.1462 35.9128 50.6311 37.1555 49.5671 37.7799C46.5796 39.5337 43.3484 40.7241 39.9505 41.3273C39.4319 39.995 38.4112 38.9124 37.1217 38.3132C41.1706 38.1299 44.717 37.4592 47.6854 36.3081ZM38.3916 43.3229C38.3916 45.3013 36.7818 46.9106 34.8034 46.9106C32.825 46.9106 31.2157 45.3013 31.2157 43.3229C31.2157 41.3445 32.825 39.7352 34.8034 39.7352C36.7818 39.7352 38.3916 41.3445 38.3916 43.3229ZM18.7244 34.7511C22.1732 36.8489 26.8228 38.0579 32.4846 38.3142C31.195 38.9134 30.1749 39.9955 29.6567 41.3273C26.2589 40.7241 23.0272 39.5337 20.0402 37.7799C18.9777 37.1565 18.4626 35.9158 18.7244 34.7511ZM20.1827 53.0577C19.2768 53.3478 18.3694 53.4918 17.4475 53.4918C16.0522 53.4918 14.5914 53.1726 12.9831 52.5154C12.111 52.1589 11.691 51.1594 12.047 50.2873C12.4035 49.4152 13.403 48.9947 14.2752 49.3512C15.2525 49.75 16.38 50.1473 17.7113 50.0607C18.1227 51.3462 19.018 52.4172 20.1827 53.0577ZM17.4636 38.426V43.1934C17.2345 43.2065 17.0069 43.2141 16.7828 43.2141C14.0969 43.2141 11.6573 42.2624 9.65471 40.4779L13.0823 37.156C14.327 38.153 15.7913 38.578 17.4636 38.426ZM20.1802 5.49562C19.7506 5.84457 19.3372 6.21165 18.9389 6.59484C18.0441 6.79777 17.2098 7.22074 16.5099 7.83153L13.9071 10.104C12.9665 10.9253 11.5334 10.8281 10.7121 9.88798C9.89087 8.94737 9.98805 7.5138 10.9287 6.69303L13.5314 4.42006C15.2445 2.92506 17.4389 2.04538 19.7098 1.94367C21.3212 1.87116 22.932 2.19644 24.3902 2.86917C22.8751 3.57211 21.4692 4.44725 20.1802 5.49562ZM58.8951 9.88798C58.0739 10.8281 56.6408 10.9253 55.7002 10.1045L53.0974 7.83153C52.3975 7.22074 51.5631 6.79777 50.6683 6.59484C50.27 6.21215 49.8566 5.84457 49.4271 5.49562C48.1381 4.44725 46.7327 3.57211 45.217 2.86917C46.6748 2.19644 48.2851 1.87116 49.8969 1.94367C52.1684 2.04538 54.3628 2.92506 56.0758 4.42006L58.6786 6.69253C59.6192 7.5143 59.7164 8.94737 58.8951 9.88798Z" fill="black"/>
<path d="M49.0767 13.2964C48.5424 13.2964 48.1099 12.8634 48.1099 12.3296V9.09643C48.1099 8.56218 48.5424 8.12964 49.0767 8.12964C49.6104 8.12964 50.0434 8.56218 50.0434 9.09643V12.3296C50.0434 12.8634 49.6104 13.2964 49.0767 13.2964Z" fill="white"/>
<path d="M50.6932 11.6796H47.46C46.9262 11.6796 46.4932 11.2465 46.4932 10.7128C46.4932 10.179 46.9262 9.74597 47.46 9.74597H50.6932C51.2274 9.74597 51.66 10.179 51.66 10.7128C51.66 11.2465 51.2274 11.6796 50.6932 11.6796Z" fill="white"/>
</g>
<defs>
<clipPath id="clip0_1591_25918">
<rect width="65.9997" height="66" fill="white"/>
</clipPath>
</defs>
</svg>
